%TF.GenerationSoftware,KiCad,Pcbnew,(6.0.0)*%
%TF.CreationDate,2022-02-22T16:37:05+01:00*%
%TF.ProjectId,RPi_Hat,5250695f-4861-4742-9e6b-696361645f70,rev?*%
%TF.SameCoordinates,Original*%
%TF.FileFunction,Copper,L1,Top*%
%TF.FilePolarity,Positive*%
%FSLAX46Y46*%
G04 Gerber Fmt 4.6, Leading zero omitted, Abs format (unit mm)*
G04 Created by KiCad (PCBNEW (6.0.0)) date 2022-02-22 16:37:05*
%MOMM*%
%LPD*%
G01*
G04 APERTURE LIST*
G04 Aperture macros list*
%AMRoundRect*
0 Rectangle with rounded corners*
0 $1 Rounding radius*
0 $2 $3 $4 $5 $6 $7 $8 $9 X,Y pos of 4 corners*
0 Add a 4 corners polygon primitive as box body*
4,1,4,$2,$3,$4,$5,$6,$7,$8,$9,$2,$3,0*
0 Add four circle primitives for the rounded corners*
1,1,$1+$1,$2,$3*
1,1,$1+$1,$4,$5*
1,1,$1+$1,$6,$7*
1,1,$1+$1,$8,$9*
0 Add four rect primitives between the rounded corners*
20,1,$1+$1,$2,$3,$4,$5,0*
20,1,$1+$1,$4,$5,$6,$7,0*
20,1,$1+$1,$6,$7,$8,$9,0*
20,1,$1+$1,$8,$9,$2,$3,0*%
G04 Aperture macros list end*
%TA.AperFunction,ComponentPad*%
%ADD10R,1.727200X1.727200*%
%TD*%
%TA.AperFunction,ComponentPad*%
%ADD11O,1.727200X1.727200*%
%TD*%
%TA.AperFunction,SMDPad,CuDef*%
%ADD12C,1.000000*%
%TD*%
%TA.AperFunction,ComponentPad*%
%ADD13C,1.600000*%
%TD*%
%TA.AperFunction,ComponentPad*%
%ADD14O,1.600000X1.600000*%
%TD*%
%TA.AperFunction,SMDPad,CuDef*%
%ADD15R,1.750000X0.450000*%
%TD*%
%TA.AperFunction,ComponentPad*%
%ADD16RoundRect,0.250000X0.625000X-0.350000X0.625000X0.350000X-0.625000X0.350000X-0.625000X-0.350000X0*%
%TD*%
%TA.AperFunction,ComponentPad*%
%ADD17O,1.750000X1.200000*%
%TD*%
%TA.AperFunction,SMDPad,CuDef*%
%ADD18C,2.000000*%
%TD*%
%TA.AperFunction,ComponentPad*%
%ADD19RoundRect,0.250000X-0.575000X0.350000X-0.575000X-0.350000X0.575000X-0.350000X0.575000X0.350000X0*%
%TD*%
%TA.AperFunction,ComponentPad*%
%ADD20O,1.650000X1.200000*%
%TD*%
%TA.AperFunction,ViaPad*%
%ADD21C,1.600000*%
%TD*%
%TA.AperFunction,Conductor*%
%ADD22C,0.500000*%
%TD*%
%TA.AperFunction,Conductor*%
%ADD23C,0.450000*%
%TD*%
%TA.AperFunction,Conductor*%
%ADD24C,0.400000*%
%TD*%
%TA.AperFunction,Conductor*%
%ADD25C,0.250000*%
%TD*%
%TA.AperFunction,Conductor*%
%ADD26C,0.600000*%
%TD*%
%TA.AperFunction,Conductor*%
%ADD27C,0.800000*%
%TD*%
G04 APERTURE END LIST*
D10*
%TO.P,J2,1,3.3V*%
%TO.N,+3.3VA*%
X68580000Y-42870000D03*
D11*
%TO.P,J2,2,5V*%
%TO.N,+5V*%
X68580000Y-40330000D03*
%TO.P,J2,3,BCM2_SDA*%
%TO.N,unconnected-(J2-Pad3)*%
X71120000Y-42870000D03*
%TO.P,J2,4,5V*%
%TO.N,+5V*%
X71120000Y-40330000D03*
%TO.P,J2,5,BCM3_SCL*%
%TO.N,unconnected-(J2-Pad5)*%
X73660000Y-42870000D03*
%TO.P,J2,6,GND*%
%TO.N,GND*%
X73660000Y-40330000D03*
%TO.P,J2,7,BCM4_GPCLK0*%
%TO.N,cmd_relais*%
X76200000Y-42870000D03*
%TO.P,J2,8,BCM14_TXD*%
%TO.N,/RPi_GPIO/BCM14_TXD*%
X76200000Y-40330000D03*
%TO.P,J2,9,GND*%
%TO.N,GND*%
X78740000Y-42870000D03*
%TO.P,J2,10,BCM15_RXD*%
%TO.N,/RPi_GPIO/BCM15_RXD*%
X78740000Y-40330000D03*
%TO.P,J2,11,BCM17*%
%TO.N,unconnected-(J2-Pad11)*%
X81280000Y-42870000D03*
%TO.P,J2,12,BCM18_PCM_C*%
%TO.N,unconnected-(J2-Pad12)*%
X81280000Y-40330000D03*
%TO.P,J2,13,BCM27*%
%TO.N,unconnected-(J2-Pad13)*%
X83820000Y-42870000D03*
%TO.P,J2,14,GND*%
%TO.N,unconnected-(J2-Pad14)*%
X83820000Y-40330000D03*
%TO.P,J2,15,BCM22*%
%TO.N,unconnected-(J2-Pad15)*%
X86360000Y-42870000D03*
%TO.P,J2,16,BCM23*%
%TO.N,unconnected-(J2-Pad16)*%
X86360000Y-40330000D03*
%TO.P,J2,17,3.3V*%
%TO.N,unconnected-(J2-Pad17)*%
X88900000Y-42870000D03*
%TO.P,J2,18,BCM24*%
%TO.N,unconnected-(J2-Pad18)*%
X88900000Y-40330000D03*
%TO.P,J2,19,BCM10_MOSI*%
%TO.N,MOSI*%
X91440000Y-42870000D03*
%TO.P,J2,20,GND*%
%TO.N,unconnected-(J2-Pad20)*%
X91440000Y-40330000D03*
%TO.P,J2,21,BCM9_MISO*%
%TO.N,MISO*%
X93980000Y-42870000D03*
%TO.P,J2,22,BCM25*%
%TO.N,INT*%
X93980000Y-40330000D03*
%TO.P,J2,23,BCM11_SCLK*%
%TO.N,CLK*%
X96520000Y-42870000D03*
%TO.P,J2,24,BCM8_CE0*%
%TO.N,CS*%
X96520000Y-40330000D03*
%TO.P,J2,25,GND*%
%TO.N,GND*%
X99060000Y-42870000D03*
%TO.P,J2,26,BCM7_CE1*%
%TO.N,unconnected-(J2-Pad26)*%
X99060000Y-40330000D03*
%TO.P,J2,27,BCM0_ID_SD*%
%TO.N,unconnected-(J2-Pad27)*%
X101600000Y-42870000D03*
%TO.P,J2,28,BCM1_ID_SC*%
%TO.N,unconnected-(J2-Pad28)*%
X101600000Y-40330000D03*
%TO.P,J2,29,BCM5*%
%TO.N,/RPi_GPIO/Starter*%
X104140000Y-42870000D03*
%TO.P,J2,30,GND*%
%TO.N,unconnected-(J2-Pad30)*%
X104140000Y-40330000D03*
%TO.P,J2,31,BCM6*%
%TO.N,unconnected-(J2-Pad31)*%
X106680000Y-42870000D03*
%TO.P,J2,32,BCM12_PWM0*%
%TO.N,unconnected-(J2-Pad32)*%
X106680000Y-40330000D03*
%TO.P,J2,33,BCM13_PWM1*%
%TO.N,unconnected-(J2-Pad33)*%
X109220000Y-42870000D03*
%TO.P,J2,34,GND*%
%TO.N,unconnected-(J2-Pad34)*%
X109220000Y-40330000D03*
%TO.P,J2,35,BCM19_MISO_PCM_FS*%
%TO.N,unconnected-(J2-Pad35)*%
X111760000Y-42870000D03*
%TO.P,J2,36,BCM16*%
%TO.N,unconnected-(J2-Pad36)*%
X111760000Y-40330000D03*
%TO.P,J2,37,BCM26*%
%TO.N,unconnected-(J2-Pad37)*%
X114300000Y-42870000D03*
%TO.P,J2,38,BCM20_MOSI_PCM_DI*%
%TO.N,unconnected-(J2-Pad38)*%
X114300000Y-40330000D03*
%TO.P,J2,39,GND*%
%TO.N,unconnected-(J2-Pad39)*%
X116840000Y-42870000D03*
%TO.P,J2,40,BCM21_SCLK_PCM_DO*%
%TO.N,unconnected-(J2-Pad40)*%
X116840000Y-40330000D03*
%TD*%
D12*
%TO.P,REF\u002A\u002A,1*%
%TO.N,+5V*%
X66548000Y-50546000D03*
%TD*%
D13*
%TO.P,R3,1*%
%TO.N,+5V*%
X94742000Y-61976000D03*
D14*
%TO.P,R3,2*%
%TO.N,Net-(R3-Pad2)*%
X94742000Y-72136000D03*
%TD*%
D12*
%TO.P,REF\u002A\u002A,1*%
%TO.N,MISO*%
X89916000Y-48260000D03*
%TD*%
%TO.P,REF\u002A\u002A,1*%
%TO.N,+5V*%
X90678000Y-55372000D03*
%TD*%
D15*
%TO.P,U2,1,VIO*%
%TO.N,+3.3VA*%
X80220000Y-63085000D03*
%TO.P,U2,2,NC*%
%TO.N,unconnected-(U2-Pad2)*%
X80220000Y-63735000D03*
%TO.P,U2,3,CANL*%
%TO.N,can_L*%
X80220000Y-64385000D03*
%TO.P,U2,4,CANH*%
%TO.N,can_H*%
X80220000Y-65035000D03*
%TO.P,U2,5,STBY*%
%TO.N,unconnected-(U2-Pad5)*%
X80220000Y-65685000D03*
%TO.P,U2,6,~{Tx1RTS}*%
%TO.N,unconnected-(U2-Pad6)*%
X80220000Y-66335000D03*
%TO.P,U2,7,~{Tx2RTS}*%
%TO.N,unconnected-(U2-Pad7)*%
X80220000Y-66985000D03*
%TO.P,U2,8,OSC2*%
%TO.N,Net-(C3-Pad1)*%
X80220000Y-67635000D03*
%TO.P,U2,9,OSC1*%
%TO.N,Net-(C4-Pad1)*%
X80220000Y-68285000D03*
%TO.P,U2,10,GND*%
%TO.N,GND*%
X80220000Y-68935000D03*
%TO.P,U2,11,~{Rx1BF}*%
%TO.N,unconnected-(U2-Pad11)*%
X80220000Y-69585000D03*
%TO.P,U2,12,~{Rx0BF}*%
%TO.N,unconnected-(U2-Pad12)*%
X80220000Y-70235000D03*
%TO.P,U2,13,~{INT}*%
%TO.N,INT*%
X80220000Y-70885000D03*
%TO.P,U2,14,SCK*%
%TO.N,CLK*%
X80220000Y-71535000D03*
%TO.P,U2,15,SI*%
%TO.N,MOSI*%
X87420000Y-71535000D03*
%TO.P,U2,16,SO*%
%TO.N,MISO*%
X87420000Y-70885000D03*
%TO.P,U2,17,~{CS}*%
%TO.N,CS*%
X87420000Y-70235000D03*
%TO.P,U2,18,~{RESET}*%
%TO.N,Net-(R3-Pad2)*%
X87420000Y-69585000D03*
%TO.P,U2,19,VDD*%
%TO.N,+3.3VA*%
X87420000Y-68935000D03*
%TO.P,U2,20,TxCAN*%
%TO.N,Net-(U2-Pad20)*%
X87420000Y-68285000D03*
%TO.P,U2,21,RxCAN*%
%TO.N,Net-(U2-Pad21)*%
X87420000Y-67635000D03*
%TO.P,U2,22,CLKOUT*%
%TO.N,unconnected-(U2-Pad22)*%
X87420000Y-66985000D03*
%TO.P,U2,23,~{Tx0RTS}*%
%TO.N,unconnected-(U2-Pad23)*%
X87420000Y-66335000D03*
%TO.P,U2,24,TXD*%
%TO.N,Net-(U2-Pad20)*%
X87420000Y-65685000D03*
%TO.P,U2,25,NC*%
%TO.N,unconnected-(U2-Pad25)*%
X87420000Y-65035000D03*
%TO.P,U2,26,VSS*%
%TO.N,GND*%
X87420000Y-64385000D03*
%TO.P,U2,27,VDDA*%
%TO.N,+5V*%
X87420000Y-63735000D03*
%TO.P,U2,28,RXD*%
%TO.N,Net-(U2-Pad21)*%
X87420000Y-63085000D03*
%TD*%
D16*
%TO.P,J3,1,Pin_1*%
%TO.N,GND*%
X66506000Y-77454000D03*
D17*
%TO.P,J3,2,Pin_2*%
%TO.N,/RPi_GPIO/Starter*%
X66506000Y-75454000D03*
%TD*%
D12*
%TO.P,REF\u002A\u002A,1*%
%TO.N,/RPi_GPIO/BCM15_RXD*%
X119634000Y-42926000D03*
%TD*%
%TO.P, ,1*%
%TO.N,Net-(C4-Pad1)*%
X78994000Y-74930000D03*
%TD*%
%TO.P,REF\u002A\u002A,1*%
%TO.N,Net-(U2-Pad20)*%
X90170000Y-66675000D03*
%TD*%
%TO.P,REF\u002A\u002A,1*%
%TO.N,CLK*%
X88138000Y-46482000D03*
%TD*%
D13*
%TO.P,C2,1*%
%TO.N,+5V*%
X88305000Y-58420000D03*
%TO.P,C2,2*%
%TO.N,GND*%
X93305000Y-58420000D03*
%TD*%
%TO.P,C1,1*%
%TO.N,GND*%
X73065000Y-58420000D03*
%TO.P,C1,2*%
%TO.N,+3.3VA*%
X78065000Y-58420000D03*
%TD*%
%TO.P,Y1,1,1*%
%TO.N,Net-(C3-Pad1)*%
X79175000Y-77851000D03*
%TO.P,Y1,2,2*%
%TO.N,Net-(C4-Pad1)*%
X84075000Y-77851000D03*
%TD*%
%TO.P,R1,1*%
%TO.N,can_L*%
X75946000Y-66548000D03*
D14*
%TO.P,R1,2*%
%TO.N,can_H*%
X75946000Y-64008000D03*
%TD*%
D12*
%TO.P,REF\u002A\u002A,1*%
%TO.N,+3.3VA*%
X77978000Y-61468000D03*
%TD*%
%TO.P,REF\u002A\u002A,1*%
%TO.N,INT*%
X85598000Y-47244000D03*
%TD*%
D13*
%TO.P,C4,1*%
%TO.N,Net-(C4-Pad1)*%
X90170000Y-83225000D03*
%TO.P,C4,2*%
%TO.N,GND*%
X90170000Y-88225000D03*
%TD*%
D12*
%TO.P,REF\u002A\u002A,1*%
%TO.N,CS*%
X89916000Y-50292000D03*
%TD*%
%TO.P,REF\u002A\u002A,1*%
%TO.N,cmd_relais*%
X64516000Y-50800000D03*
%TD*%
D13*
%TO.P,C3,1*%
%TO.N,Net-(C3-Pad1)*%
X73025000Y-83225000D03*
%TO.P,C3,2*%
%TO.N,GND*%
X73025000Y-88225000D03*
%TD*%
D18*
%TO.P,REF\u002A\u002A,1*%
%TO.N,GND*%
X114300000Y-86360000D03*
%TD*%
D12*
%TO.P,REF\u002A\u002A,1*%
%TO.N,/RPi_GPIO/BCM14_TXD*%
X121158000Y-41148000D03*
%TD*%
%TO.P,REF\u002A\u002A,1*%
%TO.N,Net-(U2-Pad21)*%
X86360000Y-60706000D03*
%TD*%
D19*
%TO.P,J1,1,Pin_1*%
%TO.N,can_H*%
X68310000Y-64008000D03*
D20*
%TO.P,J1,2,Pin_2*%
%TO.N,+5V*%
X66310000Y-64008000D03*
%TO.P,J1,3,Pin_3*%
%TO.N,can_L*%
X68310000Y-66008000D03*
%TO.P,J1,4,Pin_4*%
%TO.N,cmd_relais*%
X66310000Y-66008000D03*
%TO.P,J1,5,Pin_5*%
%TO.N,unconnected-(J1-Pad5)*%
X68310000Y-68008000D03*
%TO.P,J1,6,Pin_6*%
%TO.N,GND*%
X66310000Y-68008000D03*
%TD*%
D12*
%TO.P, ,1*%
%TO.N,Net-(C3-Pad1)*%
X76200000Y-74930000D03*
%TD*%
%TO.P,REF\u002A\u002A,1*%
%TO.N,MOSI*%
X87630000Y-48768000D03*
%TD*%
D13*
%TO.P,U1,1,VCC*%
%TO.N,+3.3VA*%
X116315000Y-47420000D03*
%TO.P,U1,2,DOUT*%
%TO.N,/RPi_GPIO/BCM14_TXD*%
X114315000Y-47420000D03*
%TO.P,U1,3,DIN*%
%TO.N,/RPi_GPIO/BCM15_RXD*%
X112315000Y-47420000D03*
%TO.P,U1,4,DIO12*%
%TO.N,unconnected-(U1-Pad4)*%
X110315000Y-47420000D03*
%TO.P,U1,5,RST*%
%TO.N,unconnected-(U1-Pad5)*%
X108315000Y-47420000D03*
%TO.P,U1,6,RSSI_PWM_/DIO10*%
%TO.N,unconnected-(U1-Pad6)*%
X106315000Y-47420000D03*
%TO.P,U1,7,DIO11*%
%TO.N,unconnected-(U1-Pad7)*%
X104315000Y-47420000D03*
%TO.P,U1,8,RESERVED*%
%TO.N,unconnected-(U1-Pad8)*%
X102315000Y-47420000D03*
%TO.P,U1,9,!DTR_/_SLEEP_RQ/_DIO8*%
%TO.N,unconnected-(U1-Pad9)*%
X100315000Y-47420000D03*
%TO.P,U1,10,GND*%
%TO.N,GND*%
X98315000Y-47420000D03*
%TO.P,U1,11,DIO4*%
%TO.N,unconnected-(U1-Pad11)*%
X98315000Y-69420000D03*
%TO.P,U1,12,!CTS_/_DIO7*%
%TO.N,unconnected-(U1-Pad12)*%
X100315000Y-69420000D03*
%TO.P,U1,13,ON_/_!SLEEP*%
%TO.N,unconnected-(U1-Pad13)*%
X102315000Y-69420000D03*
%TO.P,U1,14,VREF*%
%TO.N,unconnected-(U1-Pad14)*%
X104315000Y-69420000D03*
%TO.P,U1,15,Associate_/_DIO5*%
%TO.N,unconnected-(U1-Pad15)*%
X106315000Y-69420000D03*
%TO.P,U1,16,!RTS_/_DIO6_*%
%TO.N,unconnected-(U1-Pad16)*%
X108315000Y-69420000D03*
%TO.P,U1,17,AD3_/_DIO3*%
%TO.N,unconnected-(U1-Pad17)*%
X110315000Y-69420000D03*
%TO.P,U1,18,AD2_/_DIO2*%
%TO.N,unconnected-(U1-Pad18)*%
X112315000Y-69420000D03*
%TO.P,U1,19,AD1_/_DIO1*%
%TO.N,unconnected-(U1-Pad19)*%
X114315000Y-69420000D03*
%TO.P,U1,20,AD0_/_DIO0_/Com8Button*%
%TO.N,unconnected-(U1-Pad20)*%
X116315000Y-69420000D03*
%TD*%
D21*
%TO.N,can_L*%
X72390000Y-66802000D03*
X72390000Y-62230000D03*
%TO.N,cmd_relais*%
X64516000Y-47244000D03*
X76200000Y-47244000D03*
%TO.N,GND*%
X101092000Y-55372000D03*
X62738000Y-69850000D03*
X92075000Y-50165000D03*
X80645000Y-50165000D03*
X62738000Y-83225000D03*
X121666000Y-69850000D03*
X101092000Y-51562000D03*
X121666000Y-82550000D03*
X121666000Y-57150000D03*
%TO.N,+3.3VA*%
X92964000Y-53340000D03*
X79375000Y-53340000D03*
%TO.N,+5V*%
X87884000Y-55372000D03*
X66548000Y-55372000D03*
%TD*%
D22*
%TO.N,/RPi_GPIO/BCM14_TXD*%
X121158000Y-43434000D02*
X119126000Y-45466000D01*
X121158000Y-39624000D02*
X121158000Y-43434000D01*
X115189000Y-45466000D02*
X114315000Y-46340000D01*
X118618000Y-37084000D02*
X121158000Y-39624000D01*
X114315000Y-46340000D02*
X114315000Y-47420000D01*
X79446000Y-37084000D02*
X118618000Y-37084000D01*
X76200000Y-40330000D02*
X79446000Y-37084000D01*
X119126000Y-45466000D02*
X115189000Y-45466000D01*
%TO.N,/RPi_GPIO/BCM15_RXD*%
X81224000Y-37846000D02*
X117602000Y-37846000D01*
X117602000Y-37846000D02*
X119634000Y-39878000D01*
X119634000Y-39878000D02*
X119634000Y-42926000D01*
X78740000Y-40330000D02*
X81224000Y-37846000D01*
%TO.N,+3.3VA*%
X104775000Y-53340000D02*
X103505000Y-54610000D01*
X116315000Y-51325000D02*
X114300000Y-53340000D01*
X114300000Y-53340000D02*
X104775000Y-53340000D01*
X116315000Y-47420000D02*
X116315000Y-51325000D01*
%TO.N,INT*%
X88764980Y-38608000D02*
X87586889Y-39786091D01*
X92258000Y-38608000D02*
X88764980Y-38608000D01*
X93980000Y-40330000D02*
X92258000Y-38608000D01*
X87586889Y-39786091D02*
X87586889Y-39822313D01*
D23*
%TO.N,Net-(C3-Pad1)*%
X74676000Y-70866000D02*
X77907000Y-67635000D01*
X74676000Y-73352000D02*
X74676000Y-70866000D01*
X77907000Y-67635000D02*
X80220000Y-67635000D01*
X79175000Y-77851000D02*
X74676000Y-73352000D01*
D22*
%TO.N,/RPi_GPIO/BCM15_RXD*%
X112315000Y-45673000D02*
X112315000Y-47420000D01*
X113284000Y-44704000D02*
X112315000Y-45673000D01*
X117856000Y-44704000D02*
X113284000Y-44704000D01*
X119634000Y-42926000D02*
X117856000Y-44704000D01*
%TO.N,+3.3VA*%
X102235000Y-53340000D02*
X103505000Y-54610000D01*
X92964000Y-53340000D02*
X102235000Y-53340000D01*
X103505000Y-54610000D02*
X103505000Y-58801000D01*
X103505000Y-58801000D02*
X102743000Y-59563000D01*
D23*
X93371000Y-68935000D02*
X102743000Y-59563000D01*
%TO.N,can_H*%
X75946000Y-64008000D02*
X76708000Y-64008000D01*
X76708000Y-64008000D02*
X77735000Y-65035000D01*
X77735000Y-65035000D02*
X80220000Y-65035000D01*
D22*
X75946000Y-64008000D02*
X68310000Y-64008000D01*
D23*
%TO.N,can_L*%
X80220000Y-64385000D02*
X78609000Y-64385000D01*
D22*
X68850000Y-66548000D02*
X68310000Y-66008000D01*
X73406000Y-62230000D02*
X76454000Y-62230000D01*
D23*
X78609000Y-64385000D02*
X76454000Y-62230000D01*
D22*
X72390000Y-66802000D02*
X72390000Y-66548000D01*
X75946000Y-66548000D02*
X72390000Y-66548000D01*
X72390000Y-66548000D02*
X68850000Y-66548000D01*
%TO.N,cmd_relais*%
X66310000Y-66008000D02*
X65754000Y-66008000D01*
X76200000Y-47244000D02*
X76200000Y-42870000D01*
X65754000Y-66008000D02*
X64516000Y-64770000D01*
X64516000Y-64770000D02*
X64516000Y-47244000D01*
D24*
%TO.N,GND*%
X74936889Y-41606889D02*
X77476889Y-41606889D01*
D25*
X88650718Y-64385000D02*
X87420000Y-64385000D01*
D24*
X77476889Y-41606889D02*
X78740000Y-42870000D01*
D23*
X80220000Y-68935000D02*
X79147000Y-68935000D01*
X79147000Y-68935000D02*
X77216000Y-70866000D01*
D24*
X73660000Y-40330000D02*
X74936889Y-41606889D01*
D22*
X93305000Y-58420000D02*
X93305000Y-59907494D01*
D23*
X88827494Y-64385000D02*
X87420000Y-64385000D01*
D24*
X75011889Y-41681889D02*
X74923111Y-41770667D01*
D25*
X77551889Y-41681889D02*
X78740000Y-42870000D01*
D22*
X93305000Y-59907494D02*
X88902975Y-64309519D01*
D24*
X74923111Y-41770667D02*
X74923111Y-44075889D01*
D23*
X88902975Y-64309519D02*
X88827494Y-64385000D01*
D22*
%TO.N,MOSI*%
X91440000Y-45008800D02*
X91440000Y-42870000D01*
X83503519Y-52945281D02*
X91440000Y-45008800D01*
D23*
X86199000Y-71535000D02*
X85852000Y-71882000D01*
X85852000Y-71882000D02*
X85598000Y-72136000D01*
D22*
X83503519Y-71028751D02*
X83503519Y-52945281D01*
X84610768Y-72136000D02*
X83503519Y-71028751D01*
X85598000Y-72136000D02*
X84610768Y-72136000D01*
D23*
X87420000Y-71535000D02*
X86199000Y-71535000D01*
D22*
%TO.N,MISO*%
X85781708Y-70885000D02*
X85817063Y-70885000D01*
X84328000Y-53848000D02*
X84328000Y-69431292D01*
X93980000Y-44196000D02*
X84328000Y-53848000D01*
X93980000Y-42870000D02*
X93980000Y-44196000D01*
D23*
X85852419Y-70885000D02*
X85817063Y-70885000D01*
D22*
X84328000Y-69431292D02*
X85781708Y-70885000D01*
D23*
X87420000Y-70885000D02*
X85852419Y-70885000D01*
%TO.N,INT*%
X81519022Y-70885000D02*
X81661000Y-70743022D01*
D24*
X87623111Y-45599889D02*
X87503000Y-45720000D01*
D23*
X80220000Y-70885000D02*
X81519022Y-70885000D01*
D22*
X81661000Y-51562000D02*
X87503000Y-45720000D01*
X81661000Y-70743022D02*
X81661000Y-51562000D01*
D24*
X87623111Y-39822313D02*
X87623111Y-45599889D01*
D23*
%TO.N,CLK*%
X80220000Y-71535000D02*
X82008000Y-71535000D01*
D22*
X90176889Y-44570111D02*
X90176889Y-43681111D01*
X82550000Y-52197000D02*
X90176889Y-44570111D01*
X82008000Y-71535000D02*
X82550000Y-70993000D01*
D24*
X90923690Y-41600000D02*
X90176889Y-42346801D01*
X90176889Y-42346801D02*
X90176889Y-43681111D01*
D22*
X82550000Y-70993000D02*
X82550000Y-52197000D01*
X96520000Y-42870000D02*
X95250000Y-41600000D01*
D24*
X95250000Y-41600000D02*
X90923690Y-41600000D01*
D22*
%TO.N,CS*%
X97790000Y-41600000D02*
X97790000Y-42282980D01*
X97282000Y-44450000D02*
X95758000Y-44450000D01*
X97790000Y-43942000D02*
X97282000Y-44450000D01*
X85344000Y-54864000D02*
X85344000Y-69458022D01*
X85344000Y-69458022D02*
X86096458Y-70210480D01*
X86096458Y-70210480D02*
X86120978Y-70210480D01*
D23*
X86364000Y-70235000D02*
X86120978Y-70235000D01*
D22*
X96520000Y-40330000D02*
X97790000Y-41600000D01*
X97790000Y-43434000D02*
X97790000Y-43942000D01*
D23*
X87420000Y-70235000D02*
X86364000Y-70235000D01*
D24*
X97790000Y-42282980D02*
X97790000Y-43434000D01*
D22*
X95758000Y-44450000D02*
X85344000Y-54864000D01*
%TO.N,Net-(C3-Pad1)*%
X73801000Y-83225000D02*
X73025000Y-83225000D01*
X79175000Y-77851000D02*
X73801000Y-83225000D01*
%TO.N,Net-(C4-Pad1)*%
X84075000Y-77851000D02*
X89449000Y-83225000D01*
D23*
X76200000Y-70358000D02*
X76200000Y-72136000D01*
D22*
X89449000Y-83225000D02*
X90170000Y-83225000D01*
D23*
X84075000Y-77851000D02*
X81915000Y-77851000D01*
X80220000Y-68285000D02*
X78273000Y-68285000D01*
X76200000Y-72136000D02*
X81915000Y-77851000D01*
X78273000Y-68285000D02*
X76200000Y-70358000D01*
%TO.N,Net-(R3-Pad2)*%
X89143000Y-69585000D02*
X91694000Y-72136000D01*
X91694000Y-72136000D02*
X94742000Y-72136000D01*
X87420000Y-69585000D02*
X89143000Y-69585000D01*
%TO.N,Net-(U2-Pad20)*%
X89408000Y-66548000D02*
X89408000Y-66373978D01*
X89408000Y-66373978D02*
X88719022Y-65685000D01*
D24*
X89408000Y-66548000D02*
X89535000Y-66675000D01*
D23*
X88719022Y-65685000D02*
X87420000Y-65685000D01*
X88719022Y-68285000D02*
X87420000Y-68285000D01*
X89408000Y-66548000D02*
X89408000Y-67596022D01*
X89408000Y-67596022D02*
X88719022Y-68285000D01*
D24*
X89535000Y-66675000D02*
X90170000Y-66675000D01*
D23*
%TO.N,Net-(U2-Pad21)*%
X87419511Y-67635489D02*
X86121467Y-67635489D01*
D24*
X86360000Y-62865000D02*
X86580000Y-63085000D01*
X86360000Y-60960000D02*
X86360000Y-62865000D01*
D23*
X86120489Y-67634511D02*
X86120489Y-63085489D01*
X86580000Y-63085000D02*
X87420000Y-63085000D01*
X86121467Y-67635489D02*
X86120489Y-67634511D01*
X86120978Y-63085000D02*
X86580000Y-63085000D01*
X87420000Y-67635000D02*
X87419511Y-67635489D01*
D22*
%TO.N,+3.3VA*%
X79375000Y-53340000D02*
X78065000Y-54650000D01*
D23*
X80220000Y-63085000D02*
X78065000Y-60930000D01*
D22*
X78065000Y-54650000D02*
X78065000Y-58420000D01*
X78065000Y-60365000D02*
X78065000Y-60930000D01*
X71598000Y-60930000D02*
X78065000Y-60930000D01*
X78065000Y-58420000D02*
X78065000Y-60365000D01*
X68580000Y-42870000D02*
X68580000Y-57912000D01*
X68580000Y-57912000D02*
X71598000Y-60930000D01*
D23*
X87420000Y-68935000D02*
X93371000Y-68935000D01*
D26*
%TO.N,+5V*%
X66310000Y-64008000D02*
X66310000Y-55610000D01*
D23*
X94742000Y-61976000D02*
X94742000Y-57404000D01*
X88523098Y-63735480D02*
X88798400Y-63460178D01*
X94742000Y-57404000D02*
X92710000Y-55372000D01*
X87420480Y-63735480D02*
X88523098Y-63735480D01*
D27*
X67366000Y-40330000D02*
X66675000Y-41021000D01*
D23*
X87420000Y-63735000D02*
X87420480Y-63735480D01*
D26*
X66675000Y-41021000D02*
X66548000Y-41148000D01*
D27*
X68580000Y-40330000D02*
X67366000Y-40330000D01*
D22*
X88798400Y-59548400D02*
X88798400Y-63296800D01*
X92710000Y-55372000D02*
X87884000Y-55372000D01*
X88305000Y-55793000D02*
X87884000Y-55372000D01*
X88305000Y-59055000D02*
X88798400Y-59548400D01*
D26*
X66548000Y-41148000D02*
X66548000Y-55372000D01*
D27*
X68580000Y-40330000D02*
X71120000Y-40330000D01*
D23*
X88798400Y-63460178D02*
X88798400Y-63296800D01*
D22*
X88305000Y-58420000D02*
X88305000Y-59055000D01*
X88305000Y-58420000D02*
X88305000Y-55793000D01*
D26*
X66310000Y-55610000D02*
X66548000Y-55372000D01*
%TD*%
%TA.AperFunction,Conductor*%
%TO.N,GND*%
G36*
X122192057Y-35561500D02*
G01*
X122206858Y-35563805D01*
X122206861Y-35563805D01*
X122215730Y-35565186D01*
X122232899Y-35562941D01*
X122256839Y-35562108D01*
X122514770Y-35577710D01*
X122529874Y-35579544D01*
X122600648Y-35592514D01*
X122810879Y-35631040D01*
X122825641Y-35634678D01*
X123098408Y-35719675D01*
X123112627Y-35725069D01*
X123373140Y-35842316D01*
X123386609Y-35849385D01*
X123631095Y-35997182D01*
X123643617Y-36005825D01*
X123868507Y-36182016D01*
X123879895Y-36192106D01*
X124081894Y-36394105D01*
X124091984Y-36405493D01*
X124268175Y-36630383D01*
X124276818Y-36642905D01*
X124424615Y-36887391D01*
X124431684Y-36900860D01*
X124490909Y-37032453D01*
X124548930Y-37161370D01*
X124554326Y-37175596D01*
X124639321Y-37448353D01*
X124642962Y-37463127D01*
X124694456Y-37744126D01*
X124696290Y-37759230D01*
X124711455Y-38009929D01*
X124710198Y-38036639D01*
X124710195Y-38036859D01*
X124708814Y-38045730D01*
X124709978Y-38054632D01*
X124709978Y-38054636D01*
X124724586Y-38166343D01*
X124724047Y-38202716D01*
X124714214Y-38263767D01*
X124703853Y-40244371D01*
X124702211Y-40558330D01*
X124702170Y-40559334D01*
X124702000Y-40560423D01*
X124702000Y-40598368D01*
X124701998Y-40599027D01*
X124701816Y-40633819D01*
X124701967Y-40634914D01*
X124702000Y-40635920D01*
X124702000Y-89109613D01*
X124681998Y-89177734D01*
X124628342Y-89224227D01*
X124558068Y-89234331D01*
X124493488Y-89204837D01*
X124467157Y-89173089D01*
X124371666Y-89009348D01*
X124299687Y-88885924D01*
X124089001Y-88603781D01*
X124086557Y-88601183D01*
X124086552Y-88601177D01*
X123850180Y-88349907D01*
X123850176Y-88349904D01*
X123847730Y-88347303D01*
X123701923Y-88223868D01*
X123581698Y-88122090D01*
X123581694Y-88122087D01*
X123578976Y-88119786D01*
X123403417Y-88002481D01*
X123289170Y-87926144D01*
X123289168Y-87926143D01*
X123286193Y-87924155D01*
X123283009Y-87922515D01*
X122976330Y-87764564D01*
X122976325Y-87764562D01*
X122973147Y-87762925D01*
X122969806Y-87761659D01*
X122969801Y-87761657D01*
X122647205Y-87639437D01*
X122647206Y-87639437D01*
X122643861Y-87638170D01*
X122640397Y-87637290D01*
X122640393Y-87637289D01*
X122306037Y-87552373D01*
X122306029Y-87552371D01*
X122302570Y-87551493D01*
X122130848Y-87528122D01*
X121956653Y-87504415D01*
X121956646Y-87504414D01*
X121953660Y-87504008D01*
X121838919Y-87499500D01*
X121620802Y-87499500D01*
X121479244Y-87507538D01*
X121362008Y-87514195D01*
X121362001Y-87514196D01*
X121358440Y-87514398D01*
X121220117Y-87538166D01*
X121014918Y-87573425D01*
X121014910Y-87573427D01*
X121011400Y-87574030D01*
X121007975Y-87575028D01*
X121007972Y-87575029D01*
X120913491Y-87602568D01*
X120673341Y-87672566D01*
X120348610Y-87808737D01*
X120194996Y-87894765D01*
X120044498Y-87979047D01*
X120044493Y-87979050D01*
X120041381Y-87980793D01*
X120038485Y-87982878D01*
X120038480Y-87982881D01*
X119891761Y-88088504D01*
X119755605Y-88186523D01*
X119752969Y-88188917D01*
X119752967Y-88188919D01*
X119575733Y-88349907D01*
X119494954Y-88423281D01*
X119262781Y-88688023D01*
X119062071Y-88977347D01*
X118895402Y-89287532D01*
X118764919Y-89614590D01*
X118672299Y-89954317D01*
X118671757Y-89957839D01*
X118627918Y-90242666D01*
X118618732Y-90302345D01*
X118618592Y-90305909D01*
X118609027Y-90549370D01*
X118604908Y-90654200D01*
X118614757Y-90786735D01*
X118629484Y-90984899D01*
X118631004Y-91005358D01*
X118696684Y-91351304D01*
X118697742Y-91354713D01*
X118697744Y-91354719D01*
X118727233Y-91449687D01*
X118801104Y-91687592D01*
X118942921Y-92009897D01*
X119120313Y-92314076D01*
X119330999Y-92596219D01*
X119333443Y-92598817D01*
X119333448Y-92598823D01*
X119569820Y-92850093D01*
X119572270Y-92852697D01*
X119574999Y-92855007D01*
X119806859Y-93051291D01*
X119841024Y-93080214D01*
X120133807Y-93275845D01*
X120136989Y-93277484D01*
X120136991Y-93277485D01*
X120285523Y-93353984D01*
X120336925Y-93402957D01*
X120353691Y-93471945D01*
X120330497Y-93539047D01*
X120274707Y-93582956D01*
X120227831Y-93592000D01*
X65195807Y-93592000D01*
X65127686Y-93571998D01*
X65081193Y-93518342D01*
X65071089Y-93448068D01*
X65100583Y-93383488D01*
X65134241Y-93356065D01*
X65375502Y-93220953D01*
X65375507Y-93220950D01*
X65378619Y-93219207D01*
X65381515Y-93217122D01*
X65381520Y-93217119D01*
X65528239Y-93111496D01*
X65664395Y-93013477D01*
X65838858Y-92855007D01*
X65922405Y-92779118D01*
X65922406Y-92779117D01*
X65925046Y-92776719D01*
X66157219Y-92511977D01*
X66204326Y-92444073D01*
X66296652Y-92310984D01*
X66357929Y-92222653D01*
X66524598Y-91912468D01*
X66655081Y-91585410D01*
X66747701Y-91245683D01*
X66765172Y-91132172D01*
X66800726Y-90901178D01*
X66800726Y-90901174D01*
X66801268Y-90897655D01*
X66810833Y-90654200D01*
X66814952Y-90549370D01*
X66814952Y-90549365D01*
X66815092Y-90545800D01*
X66788996Y-90194642D01*
X66769837Y-90093730D01*
X103696814Y-90093730D01*
X103697634Y-90100000D01*
X103697337Y-90100000D01*
X103697920Y-90107409D01*
X103697920Y-90107413D01*
X103700493Y-90140107D01*
X103715960Y-90336633D01*
X103717114Y-90341440D01*
X103717115Y-90341446D01*
X103742672Y-90447897D01*
X103771372Y-90567439D01*
X103773265Y-90572010D01*
X103773266Y-90572012D01*
X103805831Y-90650630D01*
X103862207Y-90786735D01*
X103986230Y-90989121D01*
X103989443Y-90992883D01*
X104102080Y-91124763D01*
X104140386Y-91169614D01*
X104144142Y-91172822D01*
X104317117Y-91320557D01*
X104320879Y-91323770D01*
X104523265Y-91447793D01*
X104527835Y-91449686D01*
X104527837Y-91449687D01*
X104737988Y-91536734D01*
X104742561Y-91538628D01*
X104823660Y-91558098D01*
X104968554Y-91592885D01*
X104968560Y-91592886D01*
X104973367Y-91594040D01*
X105210000Y-91612663D01*
X105446633Y-91594040D01*
X105451440Y-91592886D01*
X105451446Y-91592885D01*
X105596340Y-91558098D01*
X105677439Y-91538628D01*
X105682012Y-91536734D01*
X105892163Y-91449687D01*
X105892165Y-91449686D01*
X105896735Y-91447793D01*
X106099121Y-91323770D01*
X106102883Y-91320557D01*
X106275858Y-91172822D01*
X106279614Y-91169614D01*
X106317921Y-91124763D01*
X106430557Y-90992883D01*
X106433770Y-90989121D01*
X106557793Y-90786735D01*
X106614170Y-90650630D01*
X106646734Y-90572012D01*
X106646735Y-90572010D01*
X106648628Y-90567439D01*
X106677328Y-90447897D01*
X106702885Y-90341446D01*
X106702886Y-90341440D01*
X106704040Y-90336633D01*
X106720014Y-90133657D01*
X106721372Y-90122637D01*
X106722265Y-90117330D01*
X106722265Y-90117329D01*
X106723071Y-90112539D01*
X106723224Y-90100000D01*
X106719273Y-90072412D01*
X106718000Y-90054549D01*
X106718000Y-87592670D01*
X113432160Y-87592670D01*
X113437887Y-87600320D01*
X113609042Y-87705205D01*
X113617837Y-87709687D01*
X113827988Y-87796734D01*
X113837373Y-87799783D01*
X114058554Y-87852885D01*
X114068301Y-87854428D01*
X114295070Y-87872275D01*
X114304930Y-87872275D01*
X114531699Y-87854428D01*
X114541446Y-87852885D01*
X114762627Y-87799783D01*
X114772012Y-87796734D01*
X114982163Y-87709687D01*
X114990958Y-87705205D01*
X115158445Y-87602568D01*
X115167907Y-87592110D01*
X115164124Y-87583334D01*
X114312812Y-86732022D01*
X114298868Y-86724408D01*
X114297035Y-86724539D01*
X114290420Y-86728790D01*
X113438920Y-87580290D01*
X113432160Y-87592670D01*
X106718000Y-87592670D01*
X106718000Y-86364930D01*
X112787725Y-86364930D01*
X112805572Y-86591699D01*
X112807115Y-86601446D01*
X112860217Y-86822627D01*
X112863266Y-86832012D01*
X112950313Y-87042163D01*
X112954795Y-87050958D01*
X113057432Y-87218445D01*
X113067890Y-87227907D01*
X113076666Y-87224124D01*
X113927978Y-86372812D01*
X113934356Y-86361132D01*
X114664408Y-86361132D01*
X114664539Y-86362965D01*
X114668790Y-86369580D01*
X115520290Y-87221080D01*
X115532670Y-87227840D01*
X115540320Y-87222113D01*
X115645205Y-87050958D01*
X115649687Y-87042163D01*
X115736734Y-86832012D01*
X115739783Y-86822627D01*
X115792885Y-86601446D01*
X115794428Y-86591699D01*
X115812275Y-86364930D01*
X115812275Y-86355070D01*
X115794428Y-86128301D01*
X115792885Y-86118554D01*
X115739783Y-85897373D01*
X115736734Y-85887988D01*
X115649687Y-85677837D01*
X115645205Y-85669042D01*
X115542568Y-85501555D01*
X115532110Y-85492093D01*
X115523334Y-85495876D01*
X114672022Y-86347188D01*
X114664408Y-86361132D01*
X113934356Y-86361132D01*
X113935592Y-86358868D01*
X113935461Y-86357035D01*
X113931210Y-86350420D01*
X113079710Y-85498920D01*
X113067330Y-85492160D01*
X113059680Y-85497887D01*
X112954795Y-85669042D01*
X112950313Y-85677837D01*
X112863266Y-85887988D01*
X112860217Y-85897373D01*
X112807115Y-86118554D01*
X112805572Y-86128301D01*
X112787725Y-86355070D01*
X112787725Y-86364930D01*
X106718000Y-86364930D01*
X106718000Y-85127890D01*
X113432093Y-85127890D01*
X113435876Y-85136666D01*
X114287188Y-85987978D01*
X114301132Y-85995592D01*
X114302965Y-85995461D01*
X114309580Y-85991210D01*
X115161080Y-85139710D01*
X115167840Y-85127330D01*
X115162113Y-85119680D01*
X114990958Y-85014795D01*
X114982163Y-85010313D01*
X114772012Y-84923266D01*
X114762627Y-84920217D01*
X114541446Y-84867115D01*
X114531699Y-84865572D01*
X114304930Y-84847725D01*
X114295070Y-84847725D01*
X114068301Y-84865572D01*
X114058554Y-84867115D01*
X113837373Y-84920217D01*
X113827988Y-84923266D01*
X113617837Y-85010313D01*
X113609042Y-85014795D01*
X113441555Y-85117432D01*
X113432093Y-85127890D01*
X106718000Y-85127890D01*
X106718000Y-75153207D01*
X106719746Y-75132303D01*
X106720932Y-75125251D01*
X106723071Y-75112539D01*
X106723224Y-75100000D01*
X106722534Y-75095184D01*
X106722529Y-75095100D01*
X106721665Y-75087314D01*
X106713633Y-74985258D01*
X106704040Y-74863367D01*
X106702886Y-74858560D01*
X106702885Y-74858554D01*
X106660981Y-74684013D01*
X106648628Y-74632561D01*
X106646734Y-74627988D01*
X106559687Y-74417837D01*
X106559686Y-74417835D01*
X106557793Y-74413265D01*
X106433770Y-74210879D01*
X106279614Y-74030386D01*
X106239122Y-73995802D01*
X106102883Y-73879443D01*
X106099121Y-73876230D01*
X105896735Y-73752207D01*
X105892165Y-73750314D01*
X105892163Y-73750313D01*
X105682012Y-73663266D01*
X105682010Y-73663265D01*
X105677439Y-73661372D01*
X105596340Y-73641902D01*
X105451446Y-73607115D01*
X105451440Y-73607114D01*
X105446633Y-73605960D01*
X105210000Y-73587337D01*
X104973367Y-73605960D01*
X104968560Y-73607114D01*
X104968554Y-73607115D01*
X104823660Y-73641902D01*
X104742561Y-73661372D01*
X104737990Y-73663265D01*
X104737988Y-73663266D01*
X104527837Y-73750313D01*
X104527835Y-73750314D01*
X104523265Y-73752207D01*
X104320879Y-73876230D01*
X104317117Y-73879443D01*
X104180879Y-73995802D01*
X104140386Y-74030386D01*
X103986230Y-74210879D01*
X103862207Y-74413265D01*
X103860314Y-74417835D01*
X103860313Y-74417837D01*
X103773266Y-74627988D01*
X103771372Y-74632561D01*
X103759019Y-74684013D01*
X103717115Y-74858554D01*
X103717114Y-74858560D01*
X103715960Y-74863367D01*
X103700225Y-75063310D01*
X103699244Y-75075771D01*
X103698291Y-75083910D01*
X103698328Y-75084003D01*
X103696814Y-75093730D01*
X103697449Y-75098583D01*
X103697337Y-75100000D01*
X103697634Y-75100000D01*
X103698882Y-75109544D01*
X103700936Y-75125250D01*
X103702000Y-75141588D01*
X103702000Y-90050672D01*
X103700500Y-90070056D01*
X103696814Y-90093730D01*
X66769837Y-90093730D01*
X66723316Y-89848696D01*
X66618896Y-89512408D01*
X66530302Y-89311062D01*
X72303493Y-89311062D01*
X72312789Y-89323077D01*
X72363994Y-89358931D01*
X72373489Y-89364414D01*
X72570947Y-89456490D01*
X72581239Y-89460236D01*
X72791688Y-89516625D01*
X72802481Y-89518528D01*
X73019525Y-89537517D01*
X73030475Y-89537517D01*
X73247519Y-89518528D01*
X73258312Y-89516625D01*
X73468761Y-89460236D01*
X73479053Y-89456490D01*
X73676511Y-89364414D01*
X73686006Y-89358931D01*
X73738048Y-89322491D01*
X73746424Y-89312012D01*
X73745925Y-89311062D01*
X89448493Y-89311062D01*
X89457789Y-89323077D01*
X89508994Y-89358931D01*
X89518489Y-89364414D01*
X89715947Y-89456490D01*
X89726239Y-89460236D01*
X89936688Y-89516625D01*
X89947481Y-89518528D01*
X90164525Y-89537517D01*
X90175475Y-89537517D01*
X90392519Y-89518528D01*
X90403312Y-89516625D01*
X90613761Y-89460236D01*
X90624053Y-89456490D01*
X90821511Y-89364414D01*
X90831006Y-89358931D01*
X90883048Y-89322491D01*
X90891424Y-89312012D01*
X90884356Y-89298566D01*
X90182812Y-88597022D01*
X90168868Y-88589408D01*
X90167035Y-88589539D01*
X90160420Y-88593790D01*
X89454923Y-89299287D01*
X89448493Y-89311062D01*
X73745925Y-89311062D01*
X73739356Y-89298566D01*
X73037812Y-88597022D01*
X73023868Y-88589408D01*
X73022035Y-88589539D01*
X73015420Y-88593790D01*
X72309923Y-89299287D01*
X72303493Y-89311062D01*
X66530302Y-89311062D01*
X66492094Y-89224227D01*
X66478522Y-89193382D01*
X66478520Y-89193379D01*
X66477079Y-89190103D01*
X66299687Y-88885924D01*
X66089001Y-88603781D01*
X66086557Y-88601183D01*
X66086552Y-88601177D01*
X65850180Y-88349907D01*
X65850176Y-88349904D01*
X65847730Y-88347303D01*
X65709727Y-88230475D01*
X71712483Y-88230475D01*
X71731472Y-88447519D01*
X71733375Y-88458312D01*
X71789764Y-88668761D01*
X71793510Y-88679053D01*
X71885586Y-88876511D01*
X71891069Y-88886006D01*
X71927509Y-88938048D01*
X71937988Y-88946424D01*
X71951434Y-88939356D01*
X72652978Y-88237812D01*
X72659356Y-88226132D01*
X73389408Y-88226132D01*
X73389539Y-88227965D01*
X73393790Y-88234580D01*
X74099287Y-88940077D01*
X74111062Y-88946507D01*
X74123077Y-88937211D01*
X74158931Y-88886006D01*
X74164414Y-88876511D01*
X74256490Y-88679053D01*
X74260236Y-88668761D01*
X74316625Y-88458312D01*
X74318528Y-88447519D01*
X74337517Y-88230475D01*
X88857483Y-88230475D01*
X88876472Y-88447519D01*
X88878375Y-88458312D01*
X88934764Y-88668761D01*
X88938510Y-88679053D01*
X89030586Y-88876511D01*
X89036069Y-88886006D01*
X89072509Y-88938048D01*
X89082988Y-88946424D01*
X89096434Y-88939356D01*
X89797978Y-88237812D01*
X89804356Y-88226132D01*
X90534408Y-88226132D01*
X90534539Y-88227965D01*
X90538790Y-88234580D01*
X91244287Y-88940077D01*
X91256062Y-88946507D01*
X91268077Y-88937211D01*
X91303931Y-88886006D01*
X91309414Y-88876511D01*
X91401490Y-88679053D01*
X91405236Y-88668761D01*
X91461625Y-88458312D01*
X91463528Y-88447519D01*
X91482517Y-88230475D01*
X91482517Y-88219525D01*
X91463528Y-88002481D01*
X91461625Y-87991688D01*
X91405236Y-87781239D01*
X91401490Y-87770947D01*
X91309414Y-87573489D01*
X91303931Y-87563994D01*
X91267491Y-87511952D01*
X91257012Y-87503576D01*
X91243566Y-87510644D01*
X90542022Y-88212188D01*
X90534408Y-88226132D01*
X89804356Y-88226132D01*
X89805592Y-88223868D01*
X89805461Y-88222035D01*
X89801210Y-88215420D01*
X89095713Y-87509923D01*
X89083938Y-87503493D01*
X89071923Y-87512789D01*
X89036069Y-87563994D01*
X89030586Y-87573489D01*
X88938510Y-87770947D01*
X88934764Y-87781239D01*
X88878375Y-87991688D01*
X88876472Y-88002481D01*
X88857483Y-88219525D01*
X88857483Y-88230475D01*
X74337517Y-88230475D01*
X74337517Y-88219525D01*
X74318528Y-88002481D01*
X74316625Y-87991688D01*
X74260236Y-87781239D01*
X74256490Y-87770947D01*
X74164414Y-87573489D01*
X74158931Y-87563994D01*
X74122491Y-87511952D01*
X74112012Y-87503576D01*
X74098566Y-87510644D01*
X73397022Y-88212188D01*
X73389408Y-88226132D01*
X72659356Y-88226132D01*
X72660592Y-88223868D01*
X72660461Y-88222035D01*
X72656210Y-88215420D01*
X71950713Y-87509923D01*
X71938938Y-87503493D01*
X71926923Y-87512789D01*
X71891069Y-87563994D01*
X71885586Y-87573489D01*
X71793510Y-87770947D01*
X71789764Y-87781239D01*
X71733375Y-87991688D01*
X71731472Y-88002481D01*
X71712483Y-88219525D01*
X71712483Y-88230475D01*
X65709727Y-88230475D01*
X65701923Y-88223868D01*
X65581698Y-88122090D01*
X65581694Y-88122087D01*
X65578976Y-88119786D01*
X65403417Y-88002481D01*
X65289170Y-87926144D01*
X65289168Y-87926143D01*
X65286193Y-87924155D01*
X65283009Y-87922515D01*
X64976330Y-87764564D01*
X64976325Y-87764562D01*
X64973147Y-87762925D01*
X64969806Y-87761659D01*
X64969801Y-87761657D01*
X64647205Y-87639437D01*
X64647206Y-87639437D01*
X64643861Y-87638170D01*
X64640397Y-87637290D01*
X64640393Y-87637289D01*
X64306037Y-87552373D01*
X64306029Y-87552371D01*
X64302570Y-87551493D01*
X64130848Y-87528122D01*
X63956653Y-87504415D01*
X63956646Y-87504414D01*
X63953660Y-87504008D01*
X63838919Y-87499500D01*
X63620802Y-87499500D01*
X63479244Y-87507538D01*
X63362008Y-87514195D01*
X63362001Y-87514196D01*
X63358440Y-87514398D01*
X63220117Y-87538166D01*
X63014918Y-87573425D01*
X63014910Y-87573427D01*
X63011400Y-87574030D01*
X63007975Y-87575028D01*
X63007972Y-87575029D01*
X62913491Y-87602568D01*
X62673341Y-87672566D01*
X62348610Y-87808737D01*
X62194995Y-87894765D01*
X62044498Y-87979047D01*
X62044493Y-87979050D01*
X62041381Y-87980793D01*
X62038485Y-87982878D01*
X62038480Y-87982881D01*
X61891761Y-88088504D01*
X61755605Y-88186523D01*
X61752969Y-88188917D01*
X61752967Y-88188919D01*
X61575733Y-88349907D01*
X61494954Y-88423281D01*
X61262781Y-88688023D01*
X61062071Y-88977347D01*
X61060380Y-88980494D01*
X61060377Y-88980499D01*
X60954992Y-89176630D01*
X60905130Y-89227170D01*
X60835859Y-89242729D01*
X60769173Y-89218367D01*
X60726244Y-89161819D01*
X60718000Y-89116992D01*
X60718000Y-87137988D01*
X72303576Y-87137988D01*
X72310644Y-87151434D01*
X73012188Y-87852978D01*
X73026132Y-87860592D01*
X73027965Y-87860461D01*
X73034580Y-87856210D01*
X73740077Y-87150713D01*
X73746507Y-87138938D01*
X73745772Y-87137988D01*
X89448576Y-87137988D01*
X89455644Y-87151434D01*
X90157188Y-87852978D01*
X90171132Y-87860592D01*
X90172965Y-87860461D01*
X90179580Y-87856210D01*
X90885077Y-87150713D01*
X90891507Y-87138938D01*
X90882211Y-87126923D01*
X90831006Y-87091069D01*
X90821511Y-87085586D01*
X90624053Y-86993510D01*
X90613761Y-86989764D01*
X90403312Y-86933375D01*
X90392519Y-86931472D01*
X90175475Y-86912483D01*
X90164525Y-86912483D01*
X89947481Y-86931472D01*
X89936688Y-86933375D01*
X89726239Y-86989764D01*
X89715947Y-86993510D01*
X89518489Y-87085586D01*
X89508994Y-87091069D01*
X89456952Y-87127509D01*
X89448576Y-87137988D01*
X73745772Y-87137988D01*
X73737211Y-87126923D01*
X73686006Y-87091069D01*
X73676511Y-87085586D01*
X73479053Y-86993510D01*
X73468761Y-86989764D01*
X73258312Y-86933375D01*
X73247519Y-86931472D01*
X73030475Y-86912483D01*
X73019525Y-86912483D01*
X72802481Y-86931472D01*
X72791688Y-86933375D01*
X72581239Y-86989764D01*
X72570947Y-86993510D01*
X72373489Y-87085586D01*
X72363994Y-87091069D01*
X72311952Y-87127509D01*
X72303576Y-87137988D01*
X60718000Y-87137988D01*
X60718000Y-77851095D01*
X65123001Y-77851095D01*
X65123338Y-77857614D01*
X65133257Y-77953206D01*
X65136149Y-77966600D01*
X65187588Y-78120784D01*
X65193761Y-78133962D01*
X65279063Y-78271807D01*
X65288099Y-78283208D01*
X65402829Y-78397739D01*
X65414240Y-78406751D01*
X65552243Y-78491816D01*
X65565424Y-78497963D01*
X65719710Y-78549138D01*
X65733086Y-78552005D01*
X65827438Y-78561672D01*
X65833854Y-78562000D01*
X66233885Y-78562000D01*
X66249124Y-78557525D01*
X66250329Y-78556135D01*
X66252000Y-78548452D01*
X66252000Y-78543884D01*
X66760000Y-78543884D01*
X66764475Y-78559123D01*
X66765865Y-78560328D01*
X66773548Y-78561999D01*
X67178095Y-78561999D01*
X67184614Y-78561662D01*
X67280206Y-78551743D01*
X67293600Y-78548851D01*
X67447784Y-78497412D01*
X67460962Y-78491239D01*
X67598807Y-78405937D01*
X67610208Y-78396901D01*
X67724739Y-78282171D01*
X67733751Y-78270760D01*
X67818816Y-78132757D01*
X67824963Y-78119576D01*
X67876138Y-77965290D01*
X67879005Y-77951914D01*
X67888672Y-77857562D01*
X67889000Y-77851146D01*
X67889000Y-77726115D01*
X67884525Y-77710876D01*
X67883135Y-77709671D01*
X67875452Y-77708000D01*
X66778115Y-77708000D01*
X66762876Y-77712475D01*
X66761671Y-77713865D01*
X66760000Y-77721548D01*
X66760000Y-78543884D01*
X66252000Y-78543884D01*
X66252000Y-77726115D01*
X66247525Y-77710876D01*
X66246135Y-77709671D01*
X66238452Y-77708000D01*
X65141116Y-77708000D01*
X65125877Y-77712475D01*
X65124672Y-77713865D01*
X65123001Y-77721548D01*
X65123001Y-77851095D01*
X60718000Y-77851095D01*
X60718000Y-75399604D01*
X65118787Y-75399604D01*
X65128567Y-75610899D01*
X65178125Y-75816534D01*
X65180607Y-75821992D01*
X65180608Y-75821996D01*
X65224053Y-75917546D01*
X65265674Y-76009087D01*
X65388054Y-76181611D01*
X65392377Y-76185749D01*
X65392381Y-76185754D01*
X65483691Y-76273164D01*
X65519067Y-76334720D01*
X65515548Y-76405629D01*
X65474251Y-76463379D01*
X65462863Y-76471326D01*
X65413193Y-76502063D01*
X65401792Y-76511099D01*
X65287261Y-76625829D01*
X65278249Y-76637240D01*
X65193184Y-76775243D01*
X65187037Y-76788424D01*
X65135862Y-76942710D01*
X65132995Y-76956086D01*
X65123328Y-77050438D01*
X65123000Y-77056855D01*
X65123000Y-77181885D01*
X65127475Y-77197124D01*
X65128865Y-77198329D01*
X65136548Y-77200000D01*
X67870884Y-77200000D01*
X67886123Y-77195525D01*
X67887328Y-77194135D01*
X67888999Y-77186452D01*
X67888999Y-77056905D01*
X67888662Y-77050386D01*
X67878743Y-76954794D01*
X67875851Y-76941400D01*
X67824412Y-76787216D01*
X67818239Y-76774038D01*
X67732937Y-76636193D01*
X67723901Y-76624792D01*
X67609171Y-76510261D01*
X67597760Y-76501249D01*
X67552345Y-76473255D01*
X67504852Y-76420483D01*
X67493428Y-76350411D01*
X67521702Y-76285287D01*
X67540625Y-76266912D01*
X67548920Y-76260396D01*
X67552852Y-76255865D01*
X67552855Y-76255862D01*
X67683621Y-76105167D01*
X67687552Y-76100637D01*
X67690552Y-76095451D01*
X67690555Y-76095447D01*
X67790467Y-75922742D01*
X67793473Y-75917546D01*
X67862861Y-75717729D01*
X67875008Y-75633953D01*
X67892352Y-75514336D01*
X67892352Y-75514333D01*
X67893213Y-75508396D01*
X67883433Y-75297101D01*
X67842017Y-75125250D01*
X67835281Y-75097299D01*
X67835280Y-75097297D01*
X67833875Y-75091466D01*
X67830440Y-75083910D01*
X67748806Y-74904368D01*
X67746326Y-74898913D01*
X67623946Y-74726389D01*
X67471150Y-74580119D01*
X67293452Y-74465380D01*
X67233354Y-74441160D01*
X67102832Y-74388558D01*
X67102829Y-74388557D01*
X67097263Y-74386314D01*
X66889663Y-74345772D01*
X66884101Y-74345500D01*
X66178154Y-74345500D01*
X66020434Y-74360548D01*
X65817466Y-74420092D01*
X65812139Y-74422836D01*
X65812138Y-74422836D01*
X65634751Y-74514196D01*
X65634748Y-74514198D01*
X65629420Y-74516942D01*
X65463080Y-74647604D01*
X65459148Y-74652135D01*
X65459145Y-74652138D01*
X65390474Y-74731275D01*
X65324448Y-74807363D01*
X65321448Y-74812549D01*
X65321445Y-74812553D01*
X65268329Y-74904368D01*
X65218527Y-74990454D01*
X65149139Y-75190271D01*
X65118787Y-75399604D01*
X60718000Y-75399604D01*
X60718000Y-68275399D01*
X65009712Y-68275399D01*
X65031194Y-68364537D01*
X65035083Y-68375832D01*
X65117629Y-68557382D01*
X65123576Y-68567724D01*
X65238968Y-68730397D01*
X65246761Y-68739425D01*
X65390831Y-68877342D01*
X65400196Y-68884738D01*
X65567741Y-68992921D01*
X65578345Y-68998417D01*
X65763312Y-69072961D01*
X65774770Y-69076355D01*
X65971928Y-69114857D01*
X65980791Y-69115934D01*
X65983500Y-69116000D01*
X66037885Y-69116000D01*
X66053124Y-69111525D01*
X66054329Y-69110135D01*
X66056000Y-69102452D01*
X66056000Y-68280115D01*
X66051525Y-68264876D01*
X66050135Y-68263671D01*
X66042452Y-68262000D01*
X65024598Y-68262000D01*
X65011067Y-68265973D01*
X65009712Y-68275399D01*
X60718000Y-68275399D01*
X60718000Y-56600376D01*
X60718078Y-56560423D01*
X60736160Y-47244000D01*
X63202502Y-47244000D01*
X63222457Y-47472087D01*
X63223881Y-47477400D01*
X63223881Y-47477402D01*
X63271041Y-47653402D01*
X63281716Y-47693243D01*
X63284039Y-47698224D01*
X63284039Y-47698225D01*
X63376151Y-47895762D01*
X63376154Y-47895767D01*
X63378477Y-47900749D01*
X63381634Y-47905257D01*
X63504695Y-48081006D01*
X63509802Y-48088300D01*
X63671700Y-48250198D01*
X63703771Y-48272655D01*
X63748099Y-48328110D01*
X63757500Y-48375867D01*
X63757500Y-50089071D01*
X63737498Y-50157192D01*
X63728030Y-50170051D01*
X63679846Y-50227474D01*
X63676879Y-50232872D01*
X63676875Y-50232877D01*
X63621306Y-50333958D01*
X63584567Y-50400787D01*
X63582706Y-50406654D01*
X63582705Y-50406656D01*
X63537385Y-50549523D01*
X63524765Y-50589306D01*
X63502719Y-50785851D01*
X63503235Y-50791995D01*
X63517640Y-50963542D01*
X63519268Y-50982934D01*
X63520967Y-50988858D01*
X63567984Y-51152826D01*
X63573783Y-51173050D01*
X63576602Y-51178535D01*
X63637670Y-51297359D01*
X63664187Y-51348956D01*
X63668010Y-51353780D01*
X63668013Y-51353784D01*
X63730246Y-51432303D01*
X63756883Y-51498113D01*
X63757500Y-51510567D01*
X63757500Y-64702930D01*
X63756067Y-64721880D01*
X63752801Y-64743349D01*
X63753394Y-64750641D01*
X63753394Y-64750644D01*
X63757085Y-64796018D01*
X63757500Y-64806233D01*
X63757500Y-64814293D01*
X63757925Y-64817937D01*
X63760789Y-64842507D01*
X63761222Y-64846882D01*
X63765173Y-64895450D01*
X63767140Y-64919637D01*
X63769396Y-64926601D01*
X63770587Y-64932560D01*
X63771971Y-64938415D01*
X63772818Y-64945681D01*
X63797735Y-65014327D01*
X63799152Y-65018455D01*
X63817583Y-65075347D01*
X63821649Y-65087899D01*
X63825445Y-65094154D01*
X63827951Y-65099628D01*
X63830670Y-65105058D01*
X63833167Y-65111937D01*
X63837180Y-65118057D01*
X63837180Y-65118058D01*
X63873186Y-65172976D01*
X63875523Y-65176680D01*
X63913405Y-65239107D01*
X63917121Y-65243315D01*
X63917122Y-65243316D01*
X63920803Y-65247484D01*
X63920776Y-65247508D01*
X63923429Y-65250500D01*
X63926132Y-65253733D01*
X63930144Y-65259852D01*
X63948247Y-65277001D01*
X63986383Y-65313128D01*
X63988825Y-65315506D01*
X65006314Y-66332995D01*
X65030296Y-66371365D01*
X65032125Y-66370534D01*
X65119674Y-66563087D01*
X65242054Y-66735611D01*
X65394850Y-66881881D01*
X65399881Y-66885130D01*
X65399888Y-66885135D01*
X65427607Y-66903033D01*
X65473984Y-66956789D01*
X65483937Y-67027085D01*
X65454304Y-67091602D01*
X65437091Y-67107970D01*
X65322143Y-67198262D01*
X65313494Y-67206499D01*
X65182788Y-67357123D01*
X65175853Y-67366847D01*
X65075990Y-67539467D01*
X65071016Y-67550331D01*
X65005593Y-67738727D01*
X65005352Y-67739716D01*
X65006820Y-67750008D01*
X65020385Y-67754000D01*
X66438000Y-67754000D01*
X66506121Y-67774002D01*
X66552614Y-67827658D01*
X66564000Y-67880000D01*
X66564000Y-69097885D01*
X66568475Y-69113124D01*
X66569865Y-69114329D01*
X66577548Y-69116000D01*
X66584832Y-69116000D01*
X66590808Y-69115715D01*
X66739494Y-69101529D01*
X66751228Y-69099270D01*
X66942599Y-69043128D01*
X66953675Y-69038698D01*
X67130978Y-68947381D01*
X67141024Y-68940931D01*
X67228347Y-68872338D01*
X67294272Y-68845988D01*
X67363979Y-68859463D01*
X67385290Y-68874684D01*
X67385815Y-68874019D01*
X67390515Y-68877731D01*
X67394850Y-68881881D01*
X67399887Y-68885133D01*
X67399889Y-68885135D01*
X67458280Y-68922838D01*
X67572548Y-68996620D01*
X67578114Y-68998863D01*
X67763168Y-69073442D01*
X67763171Y-69073443D01*
X67768737Y-69075686D01*
X67976337Y-69116228D01*
X67981899Y-69116500D01*
X68587846Y-69116500D01*
X68745566Y-69101452D01*
X68948534Y-69041908D01*
X68988394Y-69021379D01*
X69131249Y-68947804D01*
X69131252Y-68947802D01*
X69136580Y-68945058D01*
X69302920Y-68814396D01*
X69306852Y-68809865D01*
X69306855Y-68809862D01*
X69437621Y-68659167D01*
X69441552Y-68654637D01*
X69444552Y-68649451D01*
X69444555Y-68649447D01*
X69544467Y-68476742D01*
X69547473Y-68471546D01*
X69616861Y-68271729D01*
X69617855Y-68264876D01*
X69646352Y-68068336D01*
X69646352Y-68068333D01*
X69647213Y-68062396D01*
X69637433Y-67851101D01*
X69587875Y-67645466D01*
X69576205Y-67619798D01*
X69514757Y-67484652D01*
X69504769Y-67414361D01*
X69534370Y-67349829D01*
X69594160Y-67311545D01*
X69629457Y-67306500D01*
X71101212Y-67306500D01*
X71169333Y-67326502D01*
X71215407Y-67379251D01*
X71252477Y-67458749D01*
X71255631Y-67463253D01*
X71379391Y-67640000D01*
X71383802Y-67646300D01*
X71545700Y-67808198D01*
X71550208Y-67811355D01*
X71550211Y-67811357D01*
X71598648Y-67845273D01*
X71733251Y-67939523D01*
X71738233Y-67941846D01*
X71738238Y-67941849D01*
X71874933Y-68005590D01*
X71940757Y-68036284D01*
X71946065Y-68037706D01*
X71946067Y-68037707D01*
X72156598Y-68094119D01*
X72156600Y-68094119D01*
X72161913Y-68095543D01*
X72390000Y-68115498D01*
X72618087Y-68095543D01*
X72623400Y-68094119D01*
X72623402Y-68094119D01*
X72833933Y-68037707D01*
X72833935Y-68037706D01*
X72839243Y-68036284D01*
X72905067Y-68005590D01*
X73041762Y-67941849D01*
X73041767Y-67941846D01*
X73046749Y-67939523D01*
X73181352Y-67845273D01*
X73229789Y-67811357D01*
X73229792Y-67811355D01*
X73234300Y-67808198D01*
X73396198Y-67646300D01*
X73400610Y-67640000D01*
X73524369Y-67463253D01*
X73527523Y-67458749D01*
X73564593Y-67379251D01*
X73611510Y-67325965D01*
X73678788Y-67306500D01*
X74814133Y-67306500D01*
X74882254Y-67326502D01*
X74917345Y-67360228D01*
X74939802Y-67392300D01*
X75101700Y-67554198D01*
X75106208Y-67557355D01*
X75106211Y-67557357D01*
X75184389Y-67612098D01*
X75289251Y-67685523D01*
X75294233Y-67687846D01*
X75294238Y-67687849D01*
X75478996Y-67774002D01*
X75496757Y-67782284D01*
X75502065Y-67783706D01*
X75502067Y-67783707D01*
X75712598Y-67840119D01*
X75712600Y-67840119D01*
X75717913Y-67841543D01*
X75946000Y-67861498D01*
X76174087Y-67841543D01*
X76387921Y-67784246D01*
X76458896Y-67785936D01*
X76517692Y-67825730D01*
X76545640Y-67890994D01*
X76533867Y-67961008D01*
X76509626Y-67995048D01*
X74203423Y-70301252D01*
X74189011Y-70313639D01*
X74172349Y-70325900D01*
X74167606Y-70331483D01*
X74139369Y-70364720D01*
X74132439Y-70372236D01*
X74127055Y-70377620D01*
X74124792Y-70380481D01*
X74124787Y-70380486D01*
X74110068Y-70399091D01*
X74107279Y-70402493D01*
X74066347Y-70450672D01*
X74066344Y-70450676D01*
X74061608Y-70456251D01*
X74058279Y-70462772D01*
X74055158Y-70467451D01*
X74052222Y-70472205D01*
X74047682Y-70477943D01*
X74044585Y-70484570D01*
X74044584Y-70484571D01*
X74017811Y-70541854D01*
X74015901Y-70545761D01*
X73983824Y-70608582D01*
X73982084Y-70615694D01*
X73980118Y-70620980D01*
X73978360Y-70626265D01*
X73975261Y-70632895D01*
X73960895Y-70701963D01*
X73959925Y-70706247D01*
X73943170Y-70774721D01*
X73942500Y-70785520D01*
X73942476Y-70785519D01*
X73942212Y-70789934D01*
X73941922Y-70793184D01*
X73940431Y-70800352D01*
X73940629Y-70807669D01*
X73942454Y-70875123D01*
X73942500Y-70878531D01*
X73942500Y-73286834D01*
X73941067Y-73305783D01*
X73937957Y-73326227D01*
X73938550Y-73333519D01*
X73938550Y-73333522D01*
X73942085Y-73376979D01*
X73942500Y-73387194D01*
X73942500Y-73394826D01*
X73942922Y-73398445D01*
X73942923Y-73398464D01*
X73945675Y-73422069D01*
X73946107Y-73426435D01*
X73951823Y-73496704D01*
X73954081Y-73503673D01*
X73955184Y-73509193D01*
X73956466Y-73514618D01*
X73957314Y-73521890D01*
X73959811Y-73528769D01*
X73981382Y-73588196D01*
X73982810Y-73592356D01*
X74002280Y-73652458D01*
X74002282Y-73652462D01*
X74004536Y-73659420D01*
X74008330Y-73665672D01*
X74010672Y-73670788D01*
X74013176Y-73675789D01*
X74015673Y-73682667D01*
X74019683Y-73688784D01*
X74019686Y-73688789D01*
X74054347Y-73741654D01*
X74056695Y-73745376D01*
X74093267Y-73805645D01*
X74096979Y-73809848D01*
X74100429Y-73813755D01*
X74100412Y-73813770D01*
X74103346Y-73817080D01*
X74105442Y-73819587D01*
X74109454Y-73825706D01*
X74114766Y-73830738D01*
X74163776Y-73877166D01*
X74166218Y-73879544D01*
X75152665Y-74865991D01*
X75186691Y-74928303D01*
X75189128Y-74944543D01*
X75202591Y-75104867D01*
X75203268Y-75112934D01*
X75257783Y-75303050D01*
X75348187Y-75478956D01*
X75471035Y-75633953D01*
X75621650Y-75762136D01*
X75794294Y-75858624D01*
X75982392Y-75919740D01*
X76178777Y-75943158D01*
X76180975Y-75942989D01*
X76247358Y-75964000D01*
X76266127Y-75979453D01*
X77842173Y-77555499D01*
X77876199Y-77617811D01*
X77878599Y-77655575D01*
X77872428Y-77726115D01*
X77861502Y-77851000D01*
X77861981Y-77856475D01*
X77875755Y-78013913D01*
X77861766Y-78083518D01*
X77839329Y-78113990D01*
X73864786Y-82088533D01*
X73802474Y-82122559D01*
X73731659Y-82117494D01*
X73703423Y-82102653D01*
X73699176Y-82099680D01*
X73681749Y-82087477D01*
X73676771Y-82085156D01*
X73676768Y-82085154D01*
X73479225Y-81993039D01*
X73479224Y-81993039D01*
X73474243Y-81990716D01*
X73468935Y-81989294D01*
X73468933Y-81989293D01*
X73258402Y-81932881D01*
X73258400Y-81932881D01*
X73253087Y-81931457D01*
X73025000Y-81911502D01*
X72796913Y-81931457D01*
X72791600Y-81932881D01*
X72791598Y-81932881D01*
X72581067Y-81989293D01*
X72581065Y-81989294D01*
X72575757Y-81990716D01*
X72570776Y-81993039D01*
X72570775Y-81993039D01*
X72373238Y-82085151D01*
X72373233Y-82085154D01*
X72368251Y-82087477D01*
X72318149Y-82122559D01*
X72185211Y-82215643D01*
X72185208Y-82215645D01*
X72180700Y-82218802D01*
X72018802Y-82380700D01*
X71887477Y-82568251D01*
X71885154Y-82573233D01*
X71885151Y-82573238D01*
X71793039Y-82770775D01*
X71790716Y-82775757D01*
X71731457Y-82996913D01*
X71711502Y-83225000D01*
X71731457Y-83453087D01*
X71790716Y-83674243D01*
X71793039Y-83679224D01*
X71793039Y-83679225D01*
X71885151Y-83876762D01*
X71885154Y-83876767D01*
X71887477Y-83881749D01*
X71890634Y-83886257D01*
X72015640Y-84064784D01*
X72018802Y-84069300D01*
X72180700Y-84231198D01*
X72185208Y-84234355D01*
X72185211Y-84234357D01*
X72263389Y-84289098D01*
X72368251Y-84362523D01*
X72373233Y-84364846D01*
X72373238Y-84364849D01*
X72570775Y-84456961D01*
X72575757Y-84459284D01*
X72581065Y-84460706D01*
X72581067Y-84460707D01*
X72791598Y-84517119D01*
X72791600Y-84517119D01*
X72796913Y-84518543D01*
X73025000Y-84538498D01*
X73253087Y-84518543D01*
X73258400Y-84517119D01*
X73258402Y-84517119D01*
X73468933Y-84460707D01*
X73468935Y-84460706D01*
X73474243Y-84459284D01*
X73479225Y-84456961D01*
X73676762Y-84364849D01*
X73676767Y-84364846D01*
X73681749Y-84362523D01*
X73786611Y-84289098D01*
X73864789Y-84234357D01*
X73864792Y-84234355D01*
X73869300Y-84231198D01*
X74031198Y-84069300D01*
X74034357Y-84064789D01*
X74034361Y-84064784D01*
X74131496Y-83926060D01*
X74165623Y-83892959D01*
X74203991Y-83867804D01*
X74207680Y-83865477D01*
X74270107Y-83827595D01*
X74278484Y-83820197D01*
X74278508Y-83820224D01*
X74281500Y-83817571D01*
X74284733Y-83814868D01*
X74290852Y-83810856D01*
X74344128Y-83754617D01*
X74346506Y-83752175D01*
X78912010Y-79186671D01*
X78974322Y-79152645D01*
X79012087Y-79150245D01*
X79169525Y-79164019D01*
X79175000Y-79164498D01*
X79403087Y-79144543D01*
X79408400Y-79143119D01*
X79408402Y-79143119D01*
X79618933Y-79086707D01*
X79618935Y-79086706D01*
X79624243Y-79085284D01*
X79629225Y-79082961D01*
X79826762Y-78990849D01*
X79826767Y-78990846D01*
X79831749Y-78988523D01*
X79936611Y-78915098D01*
X80014789Y-78860357D01*
X80014792Y-78860355D01*
X80019300Y-78857198D01*
X80181198Y-78695300D01*
X80312523Y-78507749D01*
X80314846Y-78502767D01*
X80314849Y-78502762D01*
X80406961Y-78305225D01*
X80406961Y-78305224D01*
X80409284Y-78300243D01*
X80414127Y-78282171D01*
X80467119Y-78084402D01*
X80467119Y-78084400D01*
X80468543Y-78079087D01*
X80488498Y-77851000D01*
X80481357Y-77769375D01*
X80495346Y-77699771D01*
X80544746Y-77648778D01*
X80613872Y-77632588D01*
X80680777Y-77656341D01*
X80695973Y-77669299D01*
X81350255Y-78323581D01*
X81362641Y-78337993D01*
X81374900Y-78354651D01*
X81380483Y-78359394D01*
X81413713Y-78387625D01*
X81421229Y-78394555D01*
X81426620Y-78399946D01*
X81448124Y-78416959D01*
X81451510Y-78419736D01*
X81499667Y-78460649D01*
X81499672Y-78460653D01*
X81505251Y-78465392D01*
X81511773Y-78468722D01*
X81516439Y-78471834D01*
X81521201Y-78474775D01*
X81526943Y-78479318D01*
X81590868Y-78509194D01*
X81594769Y-78511102D01*
X81651063Y-78539848D01*
X81651069Y-78539850D01*
X81657582Y-78543176D01*
X81664685Y-78544914D01*
X81669944Y-78546870D01*
X81675266Y-78548640D01*
X81681896Y-78551739D01*
X81689061Y-78553229D01*
X81689060Y-78553229D01*
X81750962Y-78566105D01*
X81755251Y-78567076D01*
X81818267Y-78582496D01*
X81818273Y-78582497D01*
X81823721Y-78583830D01*
X81829320Y-78584177D01*
X81829324Y-78584178D01*
X81834520Y-78584500D01*
X81834519Y-78584524D01*
X81838916Y-78584788D01*
X81842190Y-78585080D01*
X81849353Y-78586570D01*
X81924161Y-78584546D01*
X81927569Y-78584500D01*
X82925627Y-78584500D01*
X82993748Y-78604502D01*
X83028840Y-78638229D01*
X83068802Y-78695300D01*
X83230700Y-78857198D01*
X83235208Y-78860355D01*
X83235211Y-78860357D01*
X83313389Y-78915098D01*
X83418251Y-78988523D01*
X83423233Y-78990846D01*
X83423238Y-78990849D01*
X83620775Y-79082961D01*
X83625757Y-79085284D01*
X83631065Y-79086706D01*
X83631067Y-79086707D01*
X83841598Y-79143119D01*
X83841600Y-79143119D01*
X83846913Y-79144543D01*
X84075000Y-79164498D01*
X84080475Y-79164019D01*
X84237913Y-79150245D01*
X84307518Y-79164234D01*
X84337990Y-79186671D01*
X88865230Y-83713911D01*
X88877616Y-83728323D01*
X88886149Y-83739918D01*
X88886154Y-83739923D01*
X88890492Y-83745818D01*
X88896070Y-83750557D01*
X88896073Y-83750560D01*
X88930768Y-83780035D01*
X88938284Y-83786965D01*
X88943980Y-83792661D01*
X88946848Y-83794930D01*
X88946849Y-83794931D01*
X88966269Y-83810296D01*
X88969652Y-83813069D01*
X88999679Y-83838579D01*
X89025843Y-83872898D01*
X89027401Y-83871999D01*
X89030151Y-83876762D01*
X89032477Y-83881749D01*
X89035629Y-83886250D01*
X89035631Y-83886254D01*
X89160643Y-84064789D01*
X89163802Y-84069300D01*
X89325700Y-84231198D01*
X89330208Y-84234355D01*
X89330211Y-84234357D01*
X89408389Y-84289098D01*
X89513251Y-84362523D01*
X89518233Y-84364846D01*
X89518238Y-84364849D01*
X89715775Y-84456961D01*
X89720757Y-84459284D01*
X89726065Y-84460706D01*
X89726067Y-84460707D01*
X89936598Y-84517119D01*
X89936600Y-84517119D01*
X89941913Y-84518543D01*
X90170000Y-84538498D01*
X90398087Y-84518543D01*
X90403400Y-84517119D01*
X90403402Y-84517119D01*
X90613933Y-84460707D01*
X90613935Y-84460706D01*
X90619243Y-84459284D01*
X90624225Y-84456961D01*
X90821762Y-84364849D01*
X90821767Y-84364846D01*
X90826749Y-84362523D01*
X90931611Y-84289098D01*
X91009789Y-84234357D01*
X91009792Y-84234355D01*
X91014300Y-84231198D01*
X91176198Y-84069300D01*
X91179361Y-84064784D01*
X91304366Y-83886257D01*
X91307523Y-83881749D01*
X91309846Y-83876767D01*
X91309849Y-83876762D01*
X91401961Y-83679225D01*
X91401961Y-83679224D01*
X91404284Y-83674243D01*
X91463543Y-83453087D01*
X91483498Y-83225000D01*
X91463543Y-82996913D01*
X91404284Y-82775757D01*
X91401961Y-82770775D01*
X91309849Y-82573238D01*
X91309846Y-82573233D01*
X91307523Y-82568251D01*
X91176198Y-82380700D01*
X91014300Y-82218802D01*
X91009792Y-82215645D01*
X91009789Y-82215643D01*
X90876851Y-82122559D01*
X90826749Y-82087477D01*
X90821767Y-82085154D01*
X90821762Y-82085151D01*
X90624225Y-81993039D01*
X90624224Y-81993039D01*
X90619243Y-81990716D01*
X90613935Y-81989294D01*
X90613933Y-81989293D01*
X90403402Y-81932881D01*
X90403400Y-81932881D01*
X90398087Y-81931457D01*
X90170000Y-81911502D01*
X89941913Y-81931457D01*
X89936600Y-81932881D01*
X89936598Y-81932881D01*
X89726067Y-81989293D01*
X89726065Y-81989294D01*
X89720757Y-81990716D01*
X89513251Y-82087477D01*
X89513168Y-82087300D01*
X89446501Y-82103477D01*
X89379408Y-82080259D01*
X89363395Y-82066714D01*
X85410671Y-78113990D01*
X85376645Y-78051678D01*
X85374245Y-78013913D01*
X85388019Y-77856475D01*
X85388498Y-77851000D01*
X85368543Y-77622913D01*
X85362599Y-77600728D01*
X85310707Y-77407067D01*
X85310706Y-77407065D01*
X85309284Y-77401757D01*
X85215204Y-77200000D01*
X85214849Y-77199238D01*
X85214846Y-77199233D01*
X85212523Y-77194251D01*
X85111824Y-77050438D01*
X85084357Y-77011211D01*
X85084355Y-77011208D01*
X85081198Y-77006700D01*
X84919300Y-76844802D01*
X84914792Y-76841645D01*
X84914789Y-76841643D01*
X84818239Y-76774038D01*
X84731749Y-76713477D01*
X84726767Y-76711154D01*
X84726762Y-76711151D01*
X84529225Y-76619039D01*
X84529224Y-76619039D01*
X84524243Y-76616716D01*
X84518935Y-76615294D01*
X84518933Y-76615293D01*
X84308402Y-76558881D01*
X84308400Y-76558881D01*
X84303087Y-76557457D01*
X84075000Y-76537502D01*
X83846913Y-76557457D01*
X83841600Y-76558881D01*
X83841598Y-76558881D01*
X83631067Y-76615293D01*
X83631065Y-76615294D01*
X83625757Y-76616716D01*
X83620776Y-76619039D01*
X83620775Y-76619039D01*
X83423238Y-76711151D01*
X83423233Y-76711154D01*
X83418251Y-76713477D01*
X83331761Y-76774038D01*
X83235211Y-76841643D01*
X83235208Y-76841645D01*
X83230700Y-76844802D01*
X83068802Y-77006700D01*
X83065645Y-77011208D01*
X83065643Y-77011211D01*
X83028840Y-77063771D01*
X82973382Y-77108099D01*
X82925627Y-77117500D01*
X82271016Y-77117500D01*
X82202895Y-77097498D01*
X82181921Y-77080595D01*
X80036679Y-74935353D01*
X80002653Y-74873041D01*
X80000375Y-74858554D01*
X79991227Y-74765264D01*
X79988080Y-74733167D01*
X79930916Y-74543831D01*
X79838066Y-74369204D01*
X79767709Y-74282938D01*
X79716960Y-74220713D01*
X79716957Y-74220710D01*
X79713065Y-74215938D01*
X79708316Y-74212009D01*
X79565425Y-74093799D01*
X79565421Y-74093797D01*
X79560675Y-74089870D01*
X79386701Y-73995802D01*
X79252128Y-73954145D01*
X79203655Y-73939140D01*
X79203652Y-73939139D01*
X79197768Y-73937318D01*
X79064329Y-73923293D01*
X78998672Y-73896280D01*
X78988404Y-73887078D01*
X77980508Y-72879182D01*
X76970405Y-71869080D01*
X76936380Y-71806768D01*
X76933500Y-71779985D01*
X76933500Y-70714016D01*
X76953502Y-70645895D01*
X76970405Y-70624921D01*
X78539921Y-69055405D01*
X78602233Y-69021379D01*
X78629016Y-69018500D01*
X78711001Y-69018500D01*
X78779122Y-69038502D01*
X78825615Y-69092158D01*
X78837001Y-69144500D01*
X78837001Y-69204670D01*
X78837370Y-69211488D01*
X78840909Y-69244067D01*
X78840909Y-69271280D01*
X78836500Y-69311866D01*
X78836500Y-69858134D01*
X78836869Y-69861529D01*
X78836869Y-69861533D01*
X78840656Y-69896393D01*
X78840656Y-69923606D01*
X78836500Y-69961866D01*
X78836500Y-70508134D01*
X78836869Y-70511529D01*
X78836869Y-70511533D01*
X78840656Y-70546393D01*
X78840656Y-70573606D01*
X78836500Y-70611866D01*
X78836500Y-71158134D01*
X78836869Y-71161529D01*
X78836869Y-71161533D01*
X78840656Y-71196393D01*
X78840656Y-71223606D01*
X78836500Y-71261866D01*
X78836500Y-71808134D01*
X78843255Y-71870316D01*
X78894385Y-72006705D01*
X78981739Y-72123261D01*
X79098295Y-72210615D01*
X79234684Y-72261745D01*
X79296866Y-72268500D01*
X81781453Y-72268500D01*
X81806450Y-72271858D01*
X81806489Y-72271598D01*
X81974115Y-72297099D01*
X81974119Y-72297099D01*
X81981349Y-72298199D01*
X81988641Y-72297606D01*
X81988644Y-72297606D01*
X82079654Y-72290203D01*
X82157637Y-72283860D01*
X82164596Y-72281606D01*
X82164599Y-72281605D01*
X82318933Y-72231608D01*
X82318936Y-72231607D01*
X82325899Y-72229351D01*
X82332154Y-72225555D01*
X82332157Y-72225554D01*
X82472314Y-72140504D01*
X82472318Y-72140501D01*
X82477107Y-72137595D01*
X82481306Y-72133886D01*
X82481311Y-72133883D01*
X82484019Y-72131491D01*
X82484023Y-72131488D01*
X82485484Y-72130197D01*
X82919789Y-71695892D01*
X82982101Y-71661866D01*
X83052916Y-71666931D01*
X83097979Y-71695892D01*
X84026998Y-72624911D01*
X84039384Y-72639323D01*
X84047917Y-72650918D01*
X84047922Y-72650923D01*
X84052260Y-72656818D01*
X84057838Y-72661557D01*
X84057841Y-72661560D01*
X84092536Y-72691035D01*
X84100052Y-72697965D01*
X84105748Y-72703661D01*
X84108609Y-72705924D01*
X84108614Y-72705929D01*
X84128034Y-72721293D01*
X84131435Y-72724082D01*
X84178796Y-72764318D01*
X84187053Y-72771333D01*
X84193573Y-72774662D01*
X84198620Y-72778028D01*
X84203744Y-72781193D01*
X84209485Y-72785735D01*
X84216116Y-72788834D01*
X84216119Y-72788836D01*
X84275598Y-72816634D01*
X84279544Y-72818562D01*
X84344576Y-72851769D01*
X84351682Y-72853508D01*
X84357332Y-72855609D01*
X84363089Y-72857524D01*
X84369718Y-72860622D01*
X84441203Y-72875491D01*
X84445469Y-72876457D01*
X84516378Y-72893808D01*
X84521980Y-72894156D01*
X84521983Y-72894156D01*
X84527532Y-72894500D01*
X84527530Y-72894535D01*
X84531502Y-72894775D01*
X84535723Y-72895152D01*
X84542883Y-72896641D01*
X84620310Y-72894546D01*
X84623718Y-72894500D01*
X85642293Y-72894500D01*
X85712036Y-72886369D01*
X85766411Y-72880030D01*
X85766415Y-72880029D01*
X85773681Y-72879182D01*
X85780556Y-72876687D01*
X85780558Y-72876686D01*
X85933061Y-72821329D01*
X85933062Y-72821329D01*
X85939937Y-72818833D01*
X85946054Y-72814822D01*
X85946057Y-72814821D01*
X86081733Y-72725868D01*
X86081734Y-72725867D01*
X86087852Y-72721856D01*
X86209490Y-72593453D01*
X86245059Y-72532217D01*
X86264918Y-72506408D01*
X86465921Y-72305405D01*
X86528233Y-72271379D01*
X86555016Y-72268500D01*
X88343134Y-72268500D01*
X88405316Y-72261745D01*
X88541705Y-72210615D01*
X88658261Y-72123261D01*
X88745615Y-72006705D01*
X88796745Y-71870316D01*
X88803500Y-71808134D01*
X88803500Y-71261866D01*
X88799344Y-71223606D01*
X88799344Y-71196393D01*
X88803131Y-71161533D01*
X88803131Y-71161529D01*
X88803500Y-71158134D01*
X88803500Y-70611866D01*
X88802040Y-70598426D01*
X88814568Y-70528544D01*
X88862889Y-70476528D01*
X88931661Y-70458894D01*
X88999049Y-70481241D01*
X89016398Y-70495724D01*
X91129255Y-72608581D01*
X91141641Y-72622993D01*
X91153900Y-72639651D01*
X91159483Y-72644394D01*
X91192713Y-72672625D01*
X91200229Y-72679555D01*
X91205620Y-72684946D01*
X91227124Y-72701959D01*
X91230510Y-72704736D01*
X91278667Y-72745649D01*
X91278672Y-72745653D01*
X91284251Y-72750392D01*
X91290773Y-72753722D01*
X91295451Y-72756842D01*
X91300205Y-72759778D01*
X91305943Y-72764318D01*
X91312570Y-72767415D01*
X91312571Y-72767416D01*
X91369854Y-72794189D01*
X91373761Y-72796099D01*
X91436582Y-72828176D01*
X91443694Y-72829916D01*
X91448980Y-72831882D01*
X91454265Y-72833640D01*
X91460895Y-72836739D01*
X91517160Y-72848442D01*
X91529963Y-72851105D01*
X91534247Y-72852075D01*
X91602721Y-72868830D01*
X91608323Y-72869178D01*
X91608326Y-72869178D01*
X91613520Y-72869500D01*
X91613519Y-72869524D01*
X91617934Y-72869788D01*
X91621184Y-72870078D01*
X91628352Y-72871569D01*
X91703123Y-72869546D01*
X91706531Y-72869500D01*
X93592627Y-72869500D01*
X93660748Y-72889502D01*
X93695840Y-72923229D01*
X93735802Y-72980300D01*
X93897700Y-73142198D01*
X93902208Y-73145355D01*
X93902211Y-73145357D01*
X93980389Y-73200098D01*
X94085251Y-73273523D01*
X94090233Y-73275846D01*
X94090238Y-73275849D01*
X94213920Y-73333522D01*
X94292757Y-73370284D01*
X94298065Y-73371706D01*
X94298067Y-73371707D01*
X94508598Y-73428119D01*
X94508600Y-73428119D01*
X94513913Y-73429543D01*
X94742000Y-73449498D01*
X94970087Y-73429543D01*
X94975400Y-73428119D01*
X94975402Y-73428119D01*
X95185933Y-73371707D01*
X95185935Y-73371706D01*
X95191243Y-73370284D01*
X95270080Y-73333522D01*
X95393762Y-73275849D01*
X95393767Y-73275846D01*
X95398749Y-73273523D01*
X95503611Y-73200098D01*
X95581789Y-73145357D01*
X95581792Y-73145355D01*
X95586300Y-73142198D01*
X95748198Y-72980300D01*
X95879523Y-72792749D01*
X95881846Y-72787767D01*
X95881849Y-72787762D01*
X95973961Y-72590225D01*
X95973961Y-72590224D01*
X95976284Y-72585243D01*
X95979552Y-72573049D01*
X96034119Y-72369402D01*
X96034119Y-72369400D01*
X96035543Y-72364087D01*
X96055498Y-72136000D01*
X96035543Y-71907913D01*
X96034119Y-71902598D01*
X95977707Y-71692067D01*
X95977706Y-71692065D01*
X95976284Y-71686757D01*
X95964677Y-71661866D01*
X95881849Y-71484238D01*
X95881846Y-71484233D01*
X95879523Y-71479251D01*
X95748198Y-71291700D01*
X95586300Y-71129802D01*
X95581792Y-71126645D01*
X95581789Y-71126643D01*
X95503611Y-71071902D01*
X95398749Y-70998477D01*
X95393767Y-70996154D01*
X95393762Y-70996151D01*
X95196225Y-70904039D01*
X95196224Y-70904039D01*
X95191243Y-70901716D01*
X95185935Y-70900294D01*
X95185933Y-70900293D01*
X94975402Y-70843881D01*
X94975400Y-70843881D01*
X94970087Y-70842457D01*
X94742000Y-70822502D01*
X94513913Y-70842457D01*
X94508600Y-70843881D01*
X94508598Y-70843881D01*
X94298067Y-70900293D01*
X94298065Y-70900294D01*
X94292757Y-70901716D01*
X94287776Y-70904039D01*
X94287775Y-70904039D01*
X94090238Y-70996151D01*
X94090233Y-70996154D01*
X94085251Y-70998477D01*
X93980389Y-71071902D01*
X93902211Y-71126643D01*
X93902208Y-71126645D01*
X93897700Y-71129802D01*
X93735802Y-71291700D01*
X93732645Y-71296208D01*
X93732643Y-71296211D01*
X93695840Y-71348771D01*
X93640382Y-71393099D01*
X93592627Y-71402500D01*
X92050016Y-71402500D01*
X91981895Y-71382498D01*
X91960921Y-71365595D01*
X91220247Y-70624921D01*
X90478920Y-69883595D01*
X90444895Y-69821283D01*
X90449959Y-69750468D01*
X90492506Y-69693632D01*
X90559026Y-69668821D01*
X90568015Y-69668500D01*
X93305834Y-69668500D01*
X93324784Y-69669933D01*
X93337993Y-69671943D01*
X93337997Y-69671943D01*
X93345227Y-69673043D01*
X93352519Y-69672450D01*
X93352522Y-69672450D01*
X93395979Y-69668915D01*
X93406194Y-69668500D01*
X93413826Y-69668500D01*
X93417445Y-69668078D01*
X93417464Y-69668077D01*
X93441069Y-69665325D01*
X93445435Y-69664893D01*
X93472754Y-69662671D01*
X93508404Y-69659771D01*
X93508406Y-69659771D01*
X93515704Y-69659177D01*
X93522673Y-69656919D01*
X93528193Y-69655816D01*
X93533618Y-69654534D01*
X93540890Y-69653686D01*
X93607210Y-69629613D01*
X93611356Y-69628190D01*
X93671458Y-69608720D01*
X93671462Y-69608718D01*
X93678420Y-69606464D01*
X93684672Y-69602670D01*
X93689788Y-69600328D01*
X93694789Y-69597824D01*
X93701667Y-69595327D01*
X93707784Y-69591317D01*
X93707789Y-69591314D01*
X93760654Y-69556653D01*
X93764376Y-69554305D01*
X93819848Y-69520644D01*
X93819849Y-69520643D01*
X93824645Y-69517733D01*
X93832755Y-69510571D01*
X93832770Y-69510588D01*
X93836080Y-69507654D01*
X93838587Y-69505558D01*
X93844706Y-69501546D01*
X93896166Y-69447224D01*
X93898544Y-69444782D01*
X93923326Y-69420000D01*
X97001502Y-69420000D01*
X97021457Y-69648087D01*
X97022881Y-69653400D01*
X97022881Y-69653402D01*
X97027311Y-69669933D01*
X97080716Y-69869243D01*
X97083039Y-69874224D01*
X97083039Y-69874225D01*
X97175151Y-70071762D01*
X97175154Y-70071767D01*
X97177477Y-70076749D01*
X97308802Y-70264300D01*
X97470700Y-70426198D01*
X97475208Y-70429355D01*
X97475211Y-70429357D01*
X97542578Y-70476528D01*
X97658251Y-70557523D01*
X97663233Y-70559846D01*
X97663238Y-70559849D01*
X97860775Y-70651961D01*
X97865757Y-70654284D01*
X97871065Y-70655706D01*
X97871067Y-70655707D01*
X98081598Y-70712119D01*
X98081600Y-70712119D01*
X98086913Y-70713543D01*
X98315000Y-70733498D01*
X98543087Y-70713543D01*
X98548400Y-70712119D01*
X98548402Y-70712119D01*
X98758933Y-70655707D01*
X98758935Y-70655706D01*
X98764243Y-70654284D01*
X98769225Y-70651961D01*
X98966762Y-70559849D01*
X98966767Y-70559846D01*
X98971749Y-70557523D01*
X99087422Y-70476528D01*
X99154789Y-70429357D01*
X99154792Y-70429355D01*
X99159300Y-70426198D01*
X99225905Y-70359593D01*
X99288217Y-70325567D01*
X99359032Y-70330632D01*
X99404095Y-70359593D01*
X99470700Y-70426198D01*
X99475208Y-70429355D01*
X99475211Y-70429357D01*
X99542578Y-70476528D01*
X99658251Y-70557523D01*
X99663233Y-70559846D01*
X99663238Y-70559849D01*
X99860775Y-70651961D01*
X99865757Y-70654284D01*
X99871065Y-70655706D01*
X99871067Y-70655707D01*
X100081598Y-70712119D01*
X100081600Y-70712119D01*
X100086913Y-70713543D01*
X100315000Y-70733498D01*
X100543087Y-70713543D01*
X100548400Y-70712119D01*
X100548402Y-70712119D01*
X100758933Y-70655707D01*
X100758935Y-70655706D01*
X100764243Y-70654284D01*
X100769225Y-70651961D01*
X100966762Y-70559849D01*
X100966767Y-70559846D01*
X100971749Y-70557523D01*
X101087422Y-70476528D01*
X101154789Y-70429357D01*
X101154792Y-70429355D01*
X101159300Y-70426198D01*
X101225905Y-70359593D01*
X101288217Y-70325567D01*
X101359032Y-70330632D01*
X101404095Y-70359593D01*
X101470700Y-70426198D01*
X101475208Y-70429355D01*
X101475211Y-70429357D01*
X101542578Y-70476528D01*
X101658251Y-70557523D01*
X101663233Y-70559846D01*
X101663238Y-70559849D01*
X101860775Y-70651961D01*
X101865757Y-70654284D01*
X101871065Y-70655706D01*
X101871067Y-70655707D01*
X102081598Y-70712119D01*
X102081600Y-70712119D01*
X102086913Y-70713543D01*
X102315000Y-70733498D01*
X102543087Y-70713543D01*
X102548400Y-70712119D01*
X102548402Y-70712119D01*
X102758933Y-70655707D01*
X102758935Y-70655706D01*
X102764243Y-70654284D01*
X102769225Y-70651961D01*
X102966762Y-70559849D01*
X102966767Y-70559846D01*
X102971749Y-70557523D01*
X103087422Y-70476528D01*
X103154789Y-70429357D01*
X103154792Y-70429355D01*
X103159300Y-70426198D01*
X103225905Y-70359593D01*
X103288217Y-70325567D01*
X103359032Y-70330632D01*
X103404095Y-70359593D01*
X103470700Y-70426198D01*
X103475208Y-70429355D01*
X103475211Y-70429357D01*
X103542578Y-70476528D01*
X103658251Y-70557523D01*
X103663233Y-70559846D01*
X103663238Y-70559849D01*
X103860775Y-70651961D01*
X103865757Y-70654284D01*
X103871065Y-70655706D01*
X103871067Y-70655707D01*
X104081598Y-70712119D01*
X104081600Y-70712119D01*
X104086913Y-70713543D01*
X104315000Y-70733498D01*
X104543087Y-70713543D01*
X104548400Y-70712119D01*
X104548402Y-70712119D01*
X104758933Y-70655707D01*
X104758935Y-70655706D01*
X104764243Y-70654284D01*
X104769225Y-70651961D01*
X104966762Y-70559849D01*
X104966767Y-70559846D01*
X104971749Y-70557523D01*
X105087422Y-70476528D01*
X105154789Y-70429357D01*
X105154792Y-70429355D01*
X105159300Y-70426198D01*
X105225905Y-70359593D01*
X105288217Y-70325567D01*
X105359032Y-70330632D01*
X105404095Y-70359593D01*
X105470700Y-70426198D01*
X105475208Y-70429355D01*
X105475211Y-70429357D01*
X105542578Y-70476528D01*
X105658251Y-70557523D01*
X105663233Y-70559846D01*
X105663238Y-70559849D01*
X105860775Y-70651961D01*
X105865757Y-70654284D01*
X105871065Y-70655706D01*
X105871067Y-70655707D01*
X106081598Y-70712119D01*
X106081600Y-70712119D01*
X106086913Y-70713543D01*
X106315000Y-70733498D01*
X106543087Y-70713543D01*
X106548400Y-70712119D01*
X106548402Y-70712119D01*
X106758933Y-70655707D01*
X106758935Y-70655706D01*
X106764243Y-70654284D01*
X106769225Y-70651961D01*
X106966762Y-70559849D01*
X106966767Y-70559846D01*
X106971749Y-70557523D01*
X107087422Y-70476528D01*
X107154789Y-70429357D01*
X107154792Y-70429355D01*
X107159300Y-70426198D01*
X107225905Y-70359593D01*
X107288217Y-70325567D01*
X107359032Y-70330632D01*
X107404095Y-70359593D01*
X107470700Y-70426198D01*
X107475208Y-70429355D01*
X107475211Y-70429357D01*
X107542578Y-70476528D01*
X107658251Y-70557523D01*
X107663233Y-70559846D01*
X107663238Y-70559849D01*
X107860775Y-70651961D01*
X107865757Y-70654284D01*
X107871065Y-70655706D01*
X107871067Y-70655707D01*
X108081598Y-70712119D01*
X108081600Y-70712119D01*
X108086913Y-70713543D01*
X108315000Y-70733498D01*
X108543087Y-70713543D01*
X108548400Y-70712119D01*
X108548402Y-70712119D01*
X108758933Y-70655707D01*
X108758935Y-70655706D01*
X108764243Y-70654284D01*
X108769225Y-70651961D01*
X108966762Y-70559849D01*
X108966767Y-70559846D01*
X108971749Y-70557523D01*
X109087422Y-70476528D01*
X109154789Y-70429357D01*
X109154792Y-70429355D01*
X109159300Y-70426198D01*
X109225905Y-70359593D01*
X109288217Y-70325567D01*
X109359032Y-70330632D01*
X109404095Y-70359593D01*
X109470700Y-70426198D01*
X109475208Y-70429355D01*
X109475211Y-70429357D01*
X109542578Y-70476528D01*
X109658251Y-70557523D01*
X109663233Y-70559846D01*
X109663238Y-70559849D01*
X109860775Y-70651961D01*
X109865757Y-70654284D01*
X109871065Y-70655706D01*
X109871067Y-70655707D01*
X110081598Y-70712119D01*
X110081600Y-70712119D01*
X110086913Y-70713543D01*
X110315000Y-70733498D01*
X110543087Y-70713543D01*
X110548400Y-70712119D01*
X110548402Y-70712119D01*
X110758933Y-70655707D01*
X110758935Y-70655706D01*
X110764243Y-70654284D01*
X110769225Y-70651961D01*
X110966762Y-70559849D01*
X110966767Y-70559846D01*
X110971749Y-70557523D01*
X111087422Y-70476528D01*
X111154789Y-70429357D01*
X111154792Y-70429355D01*
X111159300Y-70426198D01*
X111225905Y-70359593D01*
X111288217Y-70325567D01*
X111359032Y-70330632D01*
X111404095Y-70359593D01*
X111470700Y-70426198D01*
X111475208Y-70429355D01*
X111475211Y-70429357D01*
X111542578Y-70476528D01*
X111658251Y-70557523D01*
X111663233Y-70559846D01*
X111663238Y-70559849D01*
X111860775Y-70651961D01*
X111865757Y-70654284D01*
X111871065Y-70655706D01*
X111871067Y-70655707D01*
X112081598Y-70712119D01*
X112081600Y-70712119D01*
X112086913Y-70713543D01*
X112315000Y-70733498D01*
X112543087Y-70713543D01*
X112548400Y-70712119D01*
X112548402Y-70712119D01*
X112758933Y-70655707D01*
X112758935Y-70655706D01*
X112764243Y-70654284D01*
X112769225Y-70651961D01*
X112966762Y-70559849D01*
X112966767Y-70559846D01*
X112971749Y-70557523D01*
X113087422Y-70476528D01*
X113154789Y-70429357D01*
X113154792Y-70429355D01*
X113159300Y-70426198D01*
X113225905Y-70359593D01*
X113288217Y-70325567D01*
X113359032Y-70330632D01*
X113404095Y-70359593D01*
X113470700Y-70426198D01*
X113475208Y-70429355D01*
X113475211Y-70429357D01*
X113542578Y-70476528D01*
X113658251Y-70557523D01*
X113663233Y-70559846D01*
X113663238Y-70559849D01*
X113860775Y-70651961D01*
X113865757Y-70654284D01*
X113871065Y-70655706D01*
X113871067Y-70655707D01*
X114081598Y-70712119D01*
X114081600Y-70712119D01*
X114086913Y-70713543D01*
X114315000Y-70733498D01*
X114543087Y-70713543D01*
X114548400Y-70712119D01*
X114548402Y-70712119D01*
X114758933Y-70655707D01*
X114758935Y-70655706D01*
X114764243Y-70654284D01*
X114769225Y-70651961D01*
X114966762Y-70559849D01*
X114966767Y-70559846D01*
X114971749Y-70557523D01*
X115087422Y-70476528D01*
X115154789Y-70429357D01*
X115154792Y-70429355D01*
X115159300Y-70426198D01*
X115225905Y-70359593D01*
X115288217Y-70325567D01*
X115359032Y-70330632D01*
X115404095Y-70359593D01*
X115470700Y-70426198D01*
X115475208Y-70429355D01*
X115475211Y-70429357D01*
X115542578Y-70476528D01*
X115658251Y-70557523D01*
X115663233Y-70559846D01*
X115663238Y-70559849D01*
X115860775Y-70651961D01*
X115865757Y-70654284D01*
X115871065Y-70655706D01*
X115871067Y-70655707D01*
X116081598Y-70712119D01*
X116081600Y-70712119D01*
X116086913Y-70713543D01*
X116315000Y-70733498D01*
X116543087Y-70713543D01*
X116548400Y-70712119D01*
X116548402Y-70712119D01*
X116758933Y-70655707D01*
X116758935Y-70655706D01*
X116764243Y-70654284D01*
X116769225Y-70651961D01*
X116966762Y-70559849D01*
X116966767Y-70559846D01*
X116971749Y-70557523D01*
X117087422Y-70476528D01*
X117154789Y-70429357D01*
X117154792Y-70429355D01*
X117159300Y-70426198D01*
X117321198Y-70264300D01*
X117452523Y-70076749D01*
X117454846Y-70071767D01*
X117454849Y-70071762D01*
X117546961Y-69874225D01*
X117546961Y-69874224D01*
X117549284Y-69869243D01*
X117602690Y-69669933D01*
X117607119Y-69653402D01*
X117607119Y-69653400D01*
X117608543Y-69648087D01*
X117628498Y-69420000D01*
X117608543Y-69191913D01*
X117588202Y-69116000D01*
X117550707Y-68976067D01*
X117550706Y-68976065D01*
X117549284Y-68970757D01*
X117538384Y-68947381D01*
X117454849Y-68768238D01*
X117454846Y-68768233D01*
X117452523Y-68763251D01*
X117321198Y-68575700D01*
X117159300Y-68413802D01*
X117154792Y-68410645D01*
X117154789Y-68410643D01*
X117076611Y-68355902D01*
X116971749Y-68282477D01*
X116966767Y-68280154D01*
X116966762Y-68280151D01*
X116769225Y-68188039D01*
X116769224Y-68188039D01*
X116764243Y-68185716D01*
X116758935Y-68184294D01*
X116758933Y-68184293D01*
X116548402Y-68127881D01*
X116548400Y-68127881D01*
X116543087Y-68126457D01*
X116315000Y-68106502D01*
X116086913Y-68126457D01*
X116081600Y-68127881D01*
X116081598Y-68127881D01*
X115871067Y-68184293D01*
X115871065Y-68184294D01*
X115865757Y-68185716D01*
X115860776Y-68188039D01*
X115860775Y-68188039D01*
X115663238Y-68280151D01*
X115663233Y-68280154D01*
X115658251Y-68282477D01*
X115553389Y-68355902D01*
X115475211Y-68410643D01*
X115475208Y-68410645D01*
X115470700Y-68413802D01*
X115404095Y-68480407D01*
X115341783Y-68514433D01*
X115270968Y-68509368D01*
X115225905Y-68480407D01*
X115159300Y-68413802D01*
X115154792Y-68410645D01*
X115154789Y-68410643D01*
X115076611Y-68355902D01*
X114971749Y-68282477D01*
X114966767Y-68280154D01*
X114966762Y-68280151D01*
X114769225Y-68188039D01*
X114769224Y-68188039D01*
X114764243Y-68185716D01*
X114758935Y-68184294D01*
X114758933Y-68184293D01*
X114548402Y-68127881D01*
X114548400Y-68127881D01*
X114543087Y-68126457D01*
X114315000Y-68106502D01*
X114086913Y-68126457D01*
X114081600Y-68127881D01*
X114081598Y-68127881D01*
X113871067Y-68184293D01*
X113871065Y-68184294D01*
X113865757Y-68185716D01*
X113860776Y-68188039D01*
X113860775Y-68188039D01*
X113663238Y-68280151D01*
X113663233Y-68280154D01*
X113658251Y-68282477D01*
X113553389Y-68355902D01*
X113475211Y-68410643D01*
X113475208Y-68410645D01*
X113470700Y-68413802D01*
X113404095Y-68480407D01*
X113341783Y-68514433D01*
X113270968Y-68509368D01*
X113225905Y-68480407D01*
X113159300Y-68413802D01*
X113154792Y-68410645D01*
X113154789Y-68410643D01*
X113076611Y-68355902D01*
X112971749Y-68282477D01*
X112966767Y-68280154D01*
X112966762Y-68280151D01*
X112769225Y-68188039D01*
X112769224Y-68188039D01*
X112764243Y-68185716D01*
X112758935Y-68184294D01*
X112758933Y-68184293D01*
X112548402Y-68127881D01*
X112548400Y-68127881D01*
X112543087Y-68126457D01*
X112315000Y-68106502D01*
X112086913Y-68126457D01*
X112081600Y-68127881D01*
X112081598Y-68127881D01*
X111871067Y-68184293D01*
X111871065Y-68184294D01*
X111865757Y-68185716D01*
X111860776Y-68188039D01*
X111860775Y-68188039D01*
X111663238Y-68280151D01*
X111663233Y-68280154D01*
X111658251Y-68282477D01*
X111553389Y-68355902D01*
X111475211Y-68410643D01*
X111475208Y-68410645D01*
X111470700Y-68413802D01*
X111404095Y-68480407D01*
X111341783Y-68514433D01*
X111270968Y-68509368D01*
X111225905Y-68480407D01*
X111159300Y-68413802D01*
X111154792Y-68410645D01*
X111154789Y-68410643D01*
X111076611Y-68355902D01*
X110971749Y-68282477D01*
X110966767Y-68280154D01*
X110966762Y-68280151D01*
X110769225Y-68188039D01*
X110769224Y-68188039D01*
X110764243Y-68185716D01*
X110758935Y-68184294D01*
X110758933Y-68184293D01*
X110548402Y-68127881D01*
X110548400Y-68127881D01*
X110543087Y-68126457D01*
X110315000Y-68106502D01*
X110086913Y-68126457D01*
X110081600Y-68127881D01*
X110081598Y-68127881D01*
X109871067Y-68184293D01*
X109871065Y-68184294D01*
X109865757Y-68185716D01*
X109860776Y-68188039D01*
X109860775Y-68188039D01*
X109663238Y-68280151D01*
X109663233Y-68280154D01*
X109658251Y-68282477D01*
X109553389Y-68355902D01*
X109475211Y-68410643D01*
X109475208Y-68410645D01*
X109470700Y-68413802D01*
X109404095Y-68480407D01*
X109341783Y-68514433D01*
X109270968Y-68509368D01*
X109225905Y-68480407D01*
X109159300Y-68413802D01*
X109154792Y-68410645D01*
X109154789Y-68410643D01*
X109076611Y-68355902D01*
X108971749Y-68282477D01*
X108966767Y-68280154D01*
X108966762Y-68280151D01*
X108769225Y-68188039D01*
X108769224Y-68188039D01*
X108764243Y-68185716D01*
X108758935Y-68184294D01*
X108758933Y-68184293D01*
X108548402Y-68127881D01*
X108548400Y-68127881D01*
X108543087Y-68126457D01*
X108315000Y-68106502D01*
X108086913Y-68126457D01*
X108081600Y-68127881D01*
X108081598Y-68127881D01*
X107871067Y-68184293D01*
X107871065Y-68184294D01*
X107865757Y-68185716D01*
X107860776Y-68188039D01*
X107860775Y-68188039D01*
X107663238Y-68280151D01*
X107663233Y-68280154D01*
X107658251Y-68282477D01*
X107553389Y-68355902D01*
X107475211Y-68410643D01*
X107475208Y-68410645D01*
X107470700Y-68413802D01*
X107404095Y-68480407D01*
X107341783Y-68514433D01*
X107270968Y-68509368D01*
X107225905Y-68480407D01*
X107159300Y-68413802D01*
X107154792Y-68410645D01*
X107154789Y-68410643D01*
X107076611Y-68355902D01*
X106971749Y-68282477D01*
X106966767Y-68280154D01*
X106966762Y-68280151D01*
X106769225Y-68188039D01*
X106769224Y-68188039D01*
X106764243Y-68185716D01*
X106758935Y-68184294D01*
X106758933Y-68184293D01*
X106548402Y-68127881D01*
X106548400Y-68127881D01*
X106543087Y-68126457D01*
X106315000Y-68106502D01*
X106086913Y-68126457D01*
X106081600Y-68127881D01*
X106081598Y-68127881D01*
X105871067Y-68184293D01*
X105871065Y-68184294D01*
X105865757Y-68185716D01*
X105860776Y-68188039D01*
X105860775Y-68188039D01*
X105663238Y-68280151D01*
X105663233Y-68280154D01*
X105658251Y-68282477D01*
X105553389Y-68355902D01*
X105475211Y-68410643D01*
X105475208Y-68410645D01*
X105470700Y-68413802D01*
X105404095Y-68480407D01*
X105341783Y-68514433D01*
X105270968Y-68509368D01*
X105225905Y-68480407D01*
X105159300Y-68413802D01*
X105154792Y-68410645D01*
X105154789Y-68410643D01*
X105076611Y-68355902D01*
X104971749Y-68282477D01*
X104966767Y-68280154D01*
X104966762Y-68280151D01*
X104769225Y-68188039D01*
X104769224Y-68188039D01*
X104764243Y-68185716D01*
X104758935Y-68184294D01*
X104758933Y-68184293D01*
X104548402Y-68127881D01*
X104548400Y-68127881D01*
X104543087Y-68126457D01*
X104315000Y-68106502D01*
X104086913Y-68126457D01*
X104081600Y-68127881D01*
X104081598Y-68127881D01*
X103871067Y-68184293D01*
X103871065Y-68184294D01*
X103865757Y-68185716D01*
X103860776Y-68188039D01*
X103860775Y-68188039D01*
X103663238Y-68280151D01*
X103663233Y-68280154D01*
X103658251Y-68282477D01*
X103553389Y-68355902D01*
X103475211Y-68410643D01*
X103475208Y-68410645D01*
X103470700Y-68413802D01*
X103404095Y-68480407D01*
X103341783Y-68514433D01*
X103270968Y-68509368D01*
X103225905Y-68480407D01*
X103159300Y-68413802D01*
X103154792Y-68410645D01*
X103154789Y-68410643D01*
X103076611Y-68355902D01*
X102971749Y-68282477D01*
X102966767Y-68280154D01*
X102966762Y-68280151D01*
X102769225Y-68188039D01*
X102769224Y-68188039D01*
X102764243Y-68185716D01*
X102758935Y-68184294D01*
X102758933Y-68184293D01*
X102548402Y-68127881D01*
X102548400Y-68127881D01*
X102543087Y-68126457D01*
X102315000Y-68106502D01*
X102086913Y-68126457D01*
X102081600Y-68127881D01*
X102081598Y-68127881D01*
X101871067Y-68184293D01*
X101871065Y-68184294D01*
X101865757Y-68185716D01*
X101860776Y-68188039D01*
X101860775Y-68188039D01*
X101663238Y-68280151D01*
X101663233Y-68280154D01*
X101658251Y-68282477D01*
X101553389Y-68355902D01*
X101475211Y-68410643D01*
X101475208Y-68410645D01*
X101470700Y-68413802D01*
X101404095Y-68480407D01*
X101341783Y-68514433D01*
X101270968Y-68509368D01*
X101225905Y-68480407D01*
X101159300Y-68413802D01*
X101154792Y-68410645D01*
X101154789Y-68410643D01*
X101076611Y-68355902D01*
X100971749Y-68282477D01*
X100966767Y-68280154D01*
X100966762Y-68280151D01*
X100769225Y-68188039D01*
X100769224Y-68188039D01*
X100764243Y-68185716D01*
X100758935Y-68184294D01*
X100758933Y-68184293D01*
X100548402Y-68127881D01*
X100548400Y-68127881D01*
X100543087Y-68126457D01*
X100315000Y-68106502D01*
X100086913Y-68126457D01*
X100081600Y-68127881D01*
X100081598Y-68127881D01*
X99871067Y-68184293D01*
X99871065Y-68184294D01*
X99865757Y-68185716D01*
X99860776Y-68188039D01*
X99860775Y-68188039D01*
X99663238Y-68280151D01*
X99663233Y-68280154D01*
X99658251Y-68282477D01*
X99553389Y-68355902D01*
X99475211Y-68410643D01*
X99475208Y-68410645D01*
X99470700Y-68413802D01*
X99404095Y-68480407D01*
X99341783Y-68514433D01*
X99270968Y-68509368D01*
X99225905Y-68480407D01*
X99159300Y-68413802D01*
X99154792Y-68410645D01*
X99154789Y-68410643D01*
X99076611Y-68355902D01*
X98971749Y-68282477D01*
X98966767Y-68280154D01*
X98966762Y-68280151D01*
X98769225Y-68188039D01*
X98769224Y-68188039D01*
X98764243Y-68185716D01*
X98758935Y-68184294D01*
X98758933Y-68184293D01*
X98548402Y-68127881D01*
X98548400Y-68127881D01*
X98543087Y-68126457D01*
X98315000Y-68106502D01*
X98086913Y-68126457D01*
X98081600Y-68127881D01*
X98081598Y-68127881D01*
X97871067Y-68184293D01*
X97871065Y-68184294D01*
X97865757Y-68185716D01*
X97860776Y-68188039D01*
X97860775Y-68188039D01*
X97663238Y-68280151D01*
X97663233Y-68280154D01*
X97658251Y-68282477D01*
X97553389Y-68355902D01*
X97475211Y-68410643D01*
X97475208Y-68410645D01*
X97470700Y-68413802D01*
X97308802Y-68575700D01*
X97177477Y-68763251D01*
X97175154Y-68768233D01*
X97175151Y-68768238D01*
X97091616Y-68947381D01*
X97080716Y-68970757D01*
X97079294Y-68976065D01*
X97079293Y-68976067D01*
X97041798Y-69116000D01*
X97021457Y-69191913D01*
X97001502Y-69420000D01*
X93923326Y-69420000D01*
X103113931Y-60229395D01*
X103137660Y-60210771D01*
X103207314Y-60168504D01*
X103207318Y-60168501D01*
X103212107Y-60165595D01*
X103216306Y-60161886D01*
X103216311Y-60161883D01*
X103219019Y-60159491D01*
X103219023Y-60159488D01*
X103220484Y-60158197D01*
X103993911Y-59384770D01*
X104008323Y-59372384D01*
X104019918Y-59363851D01*
X104019923Y-59363846D01*
X104025818Y-59359508D01*
X104030557Y-59353930D01*
X104030560Y-59353927D01*
X104060035Y-59319232D01*
X104066965Y-59311716D01*
X104072661Y-59306020D01*
X104074924Y-59303159D01*
X104074929Y-59303154D01*
X104090293Y-59283734D01*
X104093082Y-59280333D01*
X104110535Y-59259789D01*
X104140333Y-59224715D01*
X104143659Y-59218202D01*
X104147020Y-59213163D01*
X104150196Y-59208021D01*
X104154734Y-59202284D01*
X104185655Y-59136125D01*
X104187561Y-59132225D01*
X104187568Y-59132211D01*
X104220769Y-59067192D01*
X104222508Y-59060083D01*
X104224604Y-59054449D01*
X104226523Y-59048679D01*
X104229622Y-59042050D01*
X104244491Y-58970565D01*
X104245461Y-58966282D01*
X104261473Y-58900844D01*
X104262808Y-58895390D01*
X104263500Y-58884236D01*
X104263535Y-58884238D01*
X104263775Y-58880266D01*
X104264152Y-58876045D01*
X104265641Y-58868885D01*
X104263546Y-58791458D01*
X104263500Y-58788050D01*
X104263500Y-54976371D01*
X104283502Y-54908250D01*
X104300405Y-54887276D01*
X105052276Y-54135405D01*
X105114588Y-54101379D01*
X105141371Y-54098500D01*
X114232930Y-54098500D01*
X114251880Y-54099933D01*
X114266115Y-54102099D01*
X114266119Y-54102099D01*
X114273349Y-54103199D01*
X114280641Y-54102606D01*
X114280644Y-54102606D01*
X114326018Y-54098915D01*
X114336233Y-54098500D01*
X114344293Y-54098500D01*
X114357583Y-54096951D01*
X114372507Y-54095211D01*
X114376882Y-54094778D01*
X114442339Y-54089454D01*
X114442342Y-54089453D01*
X114449637Y-54088860D01*
X114456601Y-54086604D01*
X114462560Y-54085413D01*
X114468415Y-54084029D01*
X114475681Y-54083182D01*
X114544327Y-54058265D01*
X114548455Y-54056848D01*
X114610936Y-54036607D01*
X114610938Y-54036606D01*
X114617899Y-54034351D01*
X114624154Y-54030555D01*
X114629628Y-54028049D01*
X114635058Y-54025330D01*
X114641937Y-54022833D01*
X114674846Y-54001257D01*
X114702976Y-53982814D01*
X114706680Y-53980477D01*
X114769107Y-53942595D01*
X114777484Y-53935197D01*
X114777508Y-53935224D01*
X114780500Y-53932571D01*
X114783733Y-53929868D01*
X114789852Y-53925856D01*
X114843128Y-53869617D01*
X114845506Y-53867175D01*
X116803911Y-51908770D01*
X116818323Y-51896384D01*
X116829918Y-51887851D01*
X116829923Y-51887846D01*
X116835818Y-51883508D01*
X116840557Y-51877930D01*
X116840560Y-51877927D01*
X116870035Y-51843232D01*
X116876965Y-51835716D01*
X116882660Y-51830021D01*
X116900281Y-51807749D01*
X116903072Y-51804345D01*
X116945591Y-51754297D01*
X116945592Y-51754295D01*
X116950333Y-51748715D01*
X116953661Y-51742199D01*
X116957028Y-51737150D01*
X116960195Y-51732021D01*
X116964734Y-51726284D01*
X116995655Y-51660125D01*
X116997561Y-51656225D01*
X117030769Y-51591192D01*
X117032508Y-51584084D01*
X117034607Y-51578441D01*
X117036524Y-51572678D01*
X117039622Y-51566050D01*
X117054487Y-51494583D01*
X117055457Y-51490299D01*
X117071473Y-51424845D01*
X117072808Y-51419390D01*
X117073500Y-51408236D01*
X117073536Y-51408238D01*
X117073775Y-51404245D01*
X117074149Y-51400053D01*
X117075640Y-51392885D01*
X117073546Y-51315479D01*
X117073500Y-51312072D01*
X117073500Y-48551867D01*
X117093502Y-48483746D01*
X117127228Y-48448655D01*
X117159300Y-48426198D01*
X117321198Y-48264300D01*
X117328861Y-48253357D01*
X117443594Y-48089501D01*
X117452523Y-48076749D01*
X117454846Y-48071767D01*
X117454849Y-48071762D01*
X117546961Y-47874225D01*
X117546961Y-47874224D01*
X117549284Y-47869243D01*
X117569976Y-47792022D01*
X117607119Y-47653402D01*
X117607119Y-47653400D01*
X117608543Y-47648087D01*
X117628498Y-47420000D01*
X117608543Y-47191913D01*
X117571324Y-47053011D01*
X117550707Y-46976067D01*
X117550706Y-46976065D01*
X117549284Y-46970757D01*
X117546961Y-46965775D01*
X117454849Y-46768238D01*
X117454846Y-46768233D01*
X117452523Y-46763251D01*
X117321198Y-46575700D01*
X117185093Y-46439595D01*
X117151067Y-46377283D01*
X117156132Y-46306468D01*
X117198679Y-46249632D01*
X117265199Y-46224821D01*
X117274188Y-46224500D01*
X119058930Y-46224500D01*
X119077880Y-46225933D01*
X119092115Y-46228099D01*
X119092119Y-46228099D01*
X119099349Y-46229199D01*
X119106641Y-46228606D01*
X119106644Y-46228606D01*
X119152018Y-46224915D01*
X119162233Y-46224500D01*
X119170293Y-46224500D01*
X119183583Y-46222951D01*
X119198507Y-46221211D01*
X119202882Y-46220778D01*
X119268339Y-46215454D01*
X119268342Y-46215453D01*
X119275637Y-46214860D01*
X119282601Y-46212604D01*
X119288560Y-46211413D01*
X119294415Y-46210029D01*
X119301681Y-46209182D01*
X119370327Y-46184265D01*
X119374455Y-46182848D01*
X119436936Y-46162607D01*
X119436938Y-46162606D01*
X119443899Y-46160351D01*
X119450154Y-46156555D01*
X119455628Y-46154049D01*
X119461058Y-46151330D01*
X119467937Y-46148833D01*
X119474058Y-46144820D01*
X119528976Y-46108814D01*
X119532680Y-46106477D01*
X119595107Y-46068595D01*
X119603484Y-46061197D01*
X119603508Y-46061224D01*
X119606500Y-46058571D01*
X119609733Y-46055868D01*
X119615852Y-46051856D01*
X119669128Y-45995617D01*
X119671506Y-45993175D01*
X121646911Y-44017770D01*
X121661323Y-44005384D01*
X121672918Y-43996851D01*
X121672923Y-43996846D01*
X121678818Y-43992508D01*
X121683557Y-43986930D01*
X121683560Y-43986927D01*
X121713035Y-43952232D01*
X121719965Y-43944716D01*
X121725660Y-43939021D01*
X121736359Y-43925498D01*
X121743281Y-43916749D01*
X121746072Y-43913345D01*
X121788591Y-43863297D01*
X121788592Y-43863295D01*
X121793333Y-43857715D01*
X121796661Y-43851199D01*
X121800028Y-43846150D01*
X121803195Y-43841021D01*
X121807734Y-43835284D01*
X121838655Y-43769125D01*
X121840561Y-43765225D01*
X121842038Y-43762333D01*
X121873769Y-43700192D01*
X121875508Y-43693084D01*
X121877607Y-43687441D01*
X121879524Y-43681678D01*
X121882622Y-43675050D01*
X121897487Y-43603583D01*
X121898457Y-43599299D01*
X121915808Y-43528390D01*
X121916500Y-43517236D01*
X121916536Y-43517238D01*
X121916775Y-43513245D01*
X121917149Y-43509053D01*
X121918640Y-43501885D01*
X121916546Y-43424479D01*
X121916500Y-43421072D01*
X121916500Y-41859610D01*
X121936502Y-41791489D01*
X121947119Y-41777279D01*
X121986078Y-41732145D01*
X122083769Y-41560179D01*
X122146197Y-41372513D01*
X122170985Y-41176295D01*
X122171380Y-41148000D01*
X122152080Y-40951167D01*
X122134066Y-40891500D01*
X122122691Y-40853825D01*
X122094916Y-40761831D01*
X122002066Y-40587204D01*
X121944857Y-40517059D01*
X121917303Y-40451627D01*
X121916500Y-40437423D01*
X121916500Y-39691063D01*
X121917933Y-39672114D01*
X121918491Y-39668443D01*
X121921198Y-39650651D01*
X121919309Y-39627418D01*
X121916915Y-39597991D01*
X121916500Y-39587777D01*
X121916500Y-39579707D01*
X121916078Y-39576087D01*
X121916077Y-39576069D01*
X121913208Y-39551461D01*
X121912775Y-39547086D01*
X121907454Y-39481661D01*
X121907453Y-39481658D01*
X121906860Y-39474363D01*
X121904604Y-39467399D01*
X121903413Y-39461440D01*
X121902029Y-39455586D01*
X121901182Y-39448319D01*
X121884187Y-39401498D01*
X121876272Y-39379692D01*
X121874844Y-39375533D01*
X121854606Y-39313061D01*
X121854605Y-39313059D01*
X121852351Y-39306101D01*
X121848555Y-39299846D01*
X121846049Y-39294372D01*
X121843330Y-39288942D01*
X121840833Y-39282063D01*
X121800809Y-39221016D01*
X121798472Y-39217312D01*
X121763509Y-39159693D01*
X121763505Y-39159688D01*
X121760595Y-39154892D01*
X121753197Y-39146516D01*
X121753223Y-39146493D01*
X121750574Y-39143503D01*
X121747866Y-39140264D01*
X121743856Y-39134148D01*
X121738549Y-39129121D01*
X121738546Y-39129117D01*
X121687617Y-39080872D01*
X121685175Y-39078494D01*
X119201770Y-36595089D01*
X119189384Y-36580677D01*
X119180851Y-36569082D01*
X119180846Y-36569077D01*
X119176508Y-36563182D01*
X119170930Y-36558443D01*
X119170927Y-36558440D01*
X119136232Y-36528965D01*
X119128716Y-36522035D01*
X119123021Y-36516340D01*
X119116880Y-36511482D01*
X119100749Y-36498719D01*
X119097345Y-36495928D01*
X119047297Y-36453409D01*
X119047295Y-36453408D01*
X119041715Y-36448667D01*
X119035199Y-36445339D01*
X119030150Y-36441972D01*
X119025021Y-36438805D01*
X119019284Y-36434266D01*
X118953125Y-36403345D01*
X118949225Y-36401439D01*
X118884192Y-36368231D01*
X118877084Y-36366492D01*
X118871441Y-36364393D01*
X118865678Y-36362476D01*
X118859050Y-36359378D01*
X118787583Y-36344513D01*
X118783299Y-36343543D01*
X118748958Y-36335140D01*
X118712390Y-36326192D01*
X118706788Y-36325844D01*
X118706785Y-36325844D01*
X118701236Y-36325500D01*
X118701238Y-36325464D01*
X118697245Y-36325225D01*
X118693053Y-36324851D01*
X118685885Y-36323360D01*
X118622120Y-36325085D01*
X118608479Y-36325454D01*
X118605072Y-36325500D01*
X79513069Y-36325500D01*
X79494121Y-36324067D01*
X79486780Y-36322950D01*
X79479883Y-36321901D01*
X79479881Y-36321901D01*
X79472651Y-36320801D01*
X79465359Y-36321394D01*
X79465356Y-36321394D01*
X79419982Y-36325085D01*
X79409767Y-36325500D01*
X79401707Y-36325500D01*
X79388417Y-36327049D01*
X79373493Y-36328789D01*
X79369118Y-36329222D01*
X79303661Y-36334546D01*
X79303658Y-36334547D01*
X79296363Y-36335140D01*
X79289399Y-36337396D01*
X79283440Y-36338587D01*
X79277585Y-36339971D01*
X79270319Y-36340818D01*
X79201673Y-36365735D01*
X79197545Y-36367152D01*
X79135064Y-36387393D01*
X79135062Y-36387394D01*
X79128101Y-36389649D01*
X79121846Y-36393445D01*
X79116372Y-36395951D01*
X79110942Y-36398670D01*
X79104063Y-36401167D01*
X79043016Y-36441191D01*
X79039327Y-36443518D01*
X79030843Y-36448667D01*
X78981693Y-36478491D01*
X78981688Y-36478495D01*
X78976892Y-36481405D01*
X78968516Y-36488803D01*
X78968493Y-36488777D01*
X78965503Y-36491426D01*
X78962264Y-36494134D01*
X78956148Y-36498144D01*
X78951121Y-36503451D01*
X78951117Y-36503454D01*
X78902872Y-36554383D01*
X78900494Y-36556825D01*
X76519022Y-38938297D01*
X76456710Y-38972323D01*
X76407832Y-38973249D01*
X76356685Y-38964138D01*
X76334656Y-38960214D01*
X76334654Y-38960214D01*
X76329569Y-38959308D01*
X76257574Y-38958429D01*
X76109129Y-38956615D01*
X76109127Y-38956615D01*
X76103959Y-38956552D01*
X75880929Y-38990680D01*
X75666468Y-39060777D01*
X75661876Y-39063167D01*
X75661877Y-39063167D01*
X75535189Y-39129117D01*
X75466335Y-39164960D01*
X75462202Y-39168063D01*
X75462199Y-39168065D01*
X75290040Y-39297325D01*
X75285905Y-39300430D01*
X75282333Y-39304168D01*
X75135719Y-39457591D01*
X75130024Y-39463550D01*
X75127109Y-39467824D01*
X75127106Y-39467827D01*
X75033198Y-39605490D01*
X74978287Y-39650493D01*
X74907762Y-39658664D01*
X74844015Y-39627410D01*
X74823318Y-39602926D01*
X74753239Y-39494601D01*
X74746947Y-39486430D01*
X74602113Y-39327260D01*
X74594580Y-39320234D01*
X74425691Y-39186855D01*
X74417104Y-39181150D01*
X74228711Y-39077151D01*
X74219299Y-39072921D01*
X74016445Y-39001086D01*
X74006474Y-38998452D01*
X73931837Y-38985157D01*
X73918540Y-38986617D01*
X73914000Y-39001174D01*
X73914000Y-40458000D01*
X73893998Y-40526121D01*
X73840342Y-40572614D01*
X73788000Y-40584000D01*
X73532000Y-40584000D01*
X73463879Y-40563998D01*
X73417386Y-40510342D01*
X73406000Y-40458000D01*
X73406000Y-38999343D01*
X73402082Y-38985999D01*
X73387806Y-38984012D01*
X73346161Y-38990385D01*
X73336125Y-38992776D01*
X73131576Y-39059633D01*
X73122079Y-39063625D01*
X72931189Y-39162995D01*
X72922464Y-39168490D01*
X72750373Y-39297700D01*
X72742666Y-39304543D01*
X72593984Y-39460129D01*
X72587498Y-39468139D01*
X72493798Y-39605498D01*
X72438887Y-39650501D01*
X72368362Y-39658672D01*
X72304615Y-39627418D01*
X72283918Y-39602934D01*
X72213634Y-39494291D01*
X72213632Y-39494288D01*
X72210826Y-39489951D01*
X72058977Y-39323071D01*
X72054926Y-39319872D01*
X72054922Y-39319868D01*
X71885966Y-39186434D01*
X71885962Y-39186432D01*
X71881911Y-39183232D01*
X71684383Y-39074191D01*
X71471698Y-38998876D01*
X71442795Y-38993727D01*
X71254657Y-38960214D01*
X71254653Y-38960214D01*
X71249569Y-38959308D01*
X71177574Y-38958429D01*
X71029129Y-38956615D01*
X71029127Y-38956615D01*
X71023959Y-38956552D01*
X70800929Y-38990680D01*
X70586468Y-39060777D01*
X70581876Y-39063167D01*
X70581877Y-39063167D01*
X70455189Y-39129117D01*
X70386335Y-39164960D01*
X70382202Y-39168063D01*
X70382199Y-39168065D01*
X70210040Y-39297325D01*
X70205905Y-39300430D01*
X70202333Y-39304168D01*
X70127428Y-39382551D01*
X70065903Y-39417981D01*
X70036334Y-39421500D01*
X69664244Y-39421500D01*
X69596123Y-39401498D01*
X69571050Y-39380299D01*
X69522455Y-39326893D01*
X69522452Y-39326890D01*
X69518977Y-39323071D01*
X69514926Y-39319872D01*
X69514922Y-39319868D01*
X69345966Y-39186434D01*
X69345962Y-39186432D01*
X69341911Y-39183232D01*
X69144383Y-39074191D01*
X68931698Y-38998876D01*
X68902795Y-38993727D01*
X68714657Y-38960214D01*
X68714653Y-38960214D01*
X68709569Y-38959308D01*
X68637574Y-38958429D01*
X68489129Y-38956615D01*
X68489127Y-38956615D01*
X68483959Y-38956552D01*
X68260929Y-38990680D01*
X68046468Y-39060777D01*
X68041876Y-39063167D01*
X68041877Y-39063167D01*
X67915189Y-39129117D01*
X67846335Y-39164960D01*
X67842202Y-39168063D01*
X67842199Y-39168065D01*
X67670040Y-39297325D01*
X67665905Y-39300430D01*
X67662333Y-39304168D01*
X67587428Y-39382551D01*
X67525903Y-39417981D01*
X67496334Y-39421500D01*
X67447417Y-39421500D01*
X67427707Y-39419949D01*
X67420327Y-39418780D01*
X67420326Y-39418780D01*
X67413810Y-39417748D01*
X67407223Y-39418093D01*
X67407218Y-39418093D01*
X67345520Y-39421327D01*
X67338926Y-39421500D01*
X67318390Y-39421500D01*
X67315118Y-39421844D01*
X67315116Y-39421844D01*
X67297958Y-39423647D01*
X67291384Y-39424164D01*
X67229696Y-39427397D01*
X67229694Y-39427397D01*
X67223097Y-39427743D01*
X67209504Y-39431385D01*
X67190075Y-39434986D01*
X67176072Y-39436458D01*
X67111025Y-39457593D01*
X67104712Y-39459463D01*
X67097335Y-39461440D01*
X67045003Y-39475462D01*
X67045000Y-39475463D01*
X67038630Y-39477170D01*
X67026085Y-39483562D01*
X67007826Y-39491125D01*
X66994444Y-39495473D01*
X66988723Y-39498776D01*
X66935223Y-39529664D01*
X66929426Y-39532812D01*
X66874351Y-39560874D01*
X66874348Y-39560876D01*
X66868470Y-39563871D01*
X66863342Y-39568024D01*
X66863340Y-39568025D01*
X66857534Y-39572727D01*
X66841237Y-39583927D01*
X66834776Y-39587657D01*
X66834772Y-39587660D01*
X66829056Y-39590960D01*
X66824150Y-39595377D01*
X66824145Y-39595381D01*
X66778231Y-39636722D01*
X66773216Y-39641006D01*
X66764718Y-39647888D01*
X66757259Y-39653928D01*
X66742744Y-39668443D01*
X66737959Y-39672984D01*
X66687134Y-39718747D01*
X66683255Y-39724086D01*
X66683254Y-39724087D01*
X66678860Y-39730135D01*
X66666019Y-39745168D01*
X65998928Y-40412259D01*
X65908871Y-40523470D01*
X65905874Y-40529352D01*
X65905872Y-40529355D01*
X65876397Y-40587204D01*
X65822171Y-40693630D01*
X65820464Y-40700000D01*
X65820463Y-40700003D01*
X65785126Y-40831884D01*
X65772743Y-40878097D01*
X65771532Y-40901205D01*
X65764107Y-40937702D01*
X65757197Y-40956685D01*
X65756315Y-40963670D01*
X65756312Y-40963681D01*
X65751762Y-40999701D01*
X65749526Y-41012253D01*
X65743962Y-41036355D01*
X65739776Y-41054485D01*
X65739751Y-41061531D01*
X65739751Y-41061534D01*
X65739634Y-41095056D01*
X65739605Y-41095938D01*
X65739500Y-41096769D01*
X65739500Y-41133419D01*
X65739499Y-41133859D01*
X65739178Y-41225980D01*
X65739143Y-41235870D01*
X65739411Y-41237070D01*
X65739500Y-41238707D01*
X65739500Y-46313235D01*
X65719498Y-46381356D01*
X65665842Y-46427849D01*
X65595568Y-46437953D01*
X65530988Y-46408459D01*
X65522282Y-46399616D01*
X65522198Y-46399700D01*
X65360300Y-46237802D01*
X65355792Y-46234645D01*
X65355789Y-46234643D01*
X65249030Y-46159890D01*
X65172749Y-46106477D01*
X65167767Y-46104154D01*
X65167762Y-46104151D01*
X64970225Y-46012039D01*
X64970224Y-46012039D01*
X64965243Y-46009716D01*
X64959935Y-46008294D01*
X64959933Y-46008293D01*
X64749402Y-45951881D01*
X64749400Y-45951881D01*
X64744087Y-45950457D01*
X64516000Y-45930502D01*
X64287913Y-45950457D01*
X64282600Y-45951881D01*
X64282598Y-45951881D01*
X64072067Y-46008293D01*
X64072065Y-46008294D01*
X64066757Y-46009716D01*
X64061776Y-46012039D01*
X64061775Y-46012039D01*
X63864238Y-46104151D01*
X63864233Y-46104154D01*
X63859251Y-46106477D01*
X63782970Y-46159890D01*
X63676211Y-46234643D01*
X63676208Y-46234645D01*
X63671700Y-46237802D01*
X63509802Y-46399700D01*
X63506645Y-46404208D01*
X63506643Y-46404211D01*
X63497199Y-46417699D01*
X63378477Y-46587251D01*
X63376154Y-46592233D01*
X63376151Y-46592238D01*
X63298509Y-46758743D01*
X63281716Y-46794757D01*
X63280294Y-46800065D01*
X63280293Y-46800067D01*
X63223881Y-47010598D01*
X63222457Y-47015913D01*
X63202502Y-47244000D01*
X60736160Y-47244000D01*
X60753904Y-38101694D01*
X60755404Y-38082556D01*
X60757805Y-38067140D01*
X60757805Y-38067139D01*
X60759186Y-38058270D01*
X60756941Y-38041101D01*
X60756108Y-38017161D01*
X60771710Y-37759230D01*
X60773544Y-37744126D01*
X60825038Y-37463127D01*
X60828679Y-37448353D01*
X60913674Y-37175596D01*
X60919070Y-37161370D01*
X60977091Y-37032453D01*
X61036316Y-36900860D01*
X61043385Y-36887391D01*
X61191182Y-36642905D01*
X61199825Y-36630383D01*
X61376016Y-36405493D01*
X61386106Y-36394105D01*
X61588105Y-36192106D01*
X61599493Y-36182016D01*
X61824383Y-36005825D01*
X61836905Y-35997182D01*
X62081391Y-35849385D01*
X62094860Y-35842316D01*
X62355373Y-35725069D01*
X62369592Y-35719675D01*
X62642359Y-35634678D01*
X62657121Y-35631040D01*
X62867352Y-35592514D01*
X62938126Y-35579544D01*
X62953230Y-35577710D01*
X63203929Y-35562545D01*
X63230639Y-35563802D01*
X63230859Y-35563805D01*
X63239730Y-35565186D01*
X63248632Y-35564022D01*
X63248635Y-35564022D01*
X63271251Y-35561064D01*
X63287589Y-35560000D01*
X122172672Y-35560000D01*
X122192057Y-35561500D01*
G37*
%TD.AperFunction*%
%TA.AperFunction,Conductor*%
G36*
X101936750Y-54118502D02*
G01*
X101957724Y-54135405D01*
X102709595Y-54887276D01*
X102743621Y-54949588D01*
X102746500Y-54976371D01*
X102746500Y-58434629D01*
X102726498Y-58502750D01*
X102709595Y-58523724D01*
X102175340Y-59057979D01*
X102173064Y-59060856D01*
X102097810Y-59155972D01*
X102097808Y-59155975D01*
X102093266Y-59161716D01*
X102090167Y-59168347D01*
X102086318Y-59174579D01*
X102085792Y-59174254D01*
X102065580Y-59203094D01*
X97575392Y-63693283D01*
X93104080Y-68164595D01*
X93041768Y-68198621D01*
X93014985Y-68201500D01*
X90126320Y-68201500D01*
X90058199Y-68181498D01*
X90011706Y-68127842D01*
X90001602Y-68057568D01*
X90020630Y-68007845D01*
X90022392Y-68005771D01*
X90025724Y-67999246D01*
X90028847Y-67994563D01*
X90031779Y-67989817D01*
X90036318Y-67984079D01*
X90066189Y-67920168D01*
X90068099Y-67916261D01*
X90100176Y-67853440D01*
X90101916Y-67846328D01*
X90103882Y-67841042D01*
X90105640Y-67835756D01*
X90108739Y-67829127D01*
X90118074Y-67784246D01*
X90118604Y-67781700D01*
X90152060Y-67719080D01*
X90214060Y-67684489D01*
X90232294Y-67681731D01*
X90269723Y-67678851D01*
X90339830Y-67673457D01*
X90339834Y-67673456D01*
X90345972Y-67672984D01*
X90536463Y-67619798D01*
X90541967Y-67617018D01*
X90541969Y-67617017D01*
X90707495Y-67533404D01*
X90707497Y-67533403D01*
X90712996Y-67530625D01*
X90868847Y-67408861D01*
X90998078Y-67259145D01*
X91095769Y-67087179D01*
X91158197Y-66899513D01*
X91182985Y-66703295D01*
X91183380Y-66675000D01*
X91164080Y-66478167D01*
X91106916Y-66288831D01*
X91014066Y-66114204D01*
X90929079Y-66010000D01*
X90892960Y-65965713D01*
X90892957Y-65965710D01*
X90889065Y-65960938D01*
X90881544Y-65954716D01*
X90741425Y-65838799D01*
X90741421Y-65838797D01*
X90736675Y-65834870D01*
X90562701Y-65740802D01*
X90373768Y-65682318D01*
X90367643Y-65681674D01*
X90367642Y-65681674D01*
X90183204Y-65662289D01*
X90183202Y-65662289D01*
X90177075Y-65661645D01*
X90012099Y-65676659D01*
X89988727Y-65678786D01*
X89980112Y-65679570D01*
X89874802Y-65710564D01*
X89803807Y-65710609D01*
X89750134Y-65678786D01*
X89283767Y-65212420D01*
X89271380Y-65198006D01*
X89263463Y-65187248D01*
X89259122Y-65181349D01*
X89220302Y-65148369D01*
X89212786Y-65141439D01*
X89207402Y-65136055D01*
X89204541Y-65133792D01*
X89204536Y-65133787D01*
X89185931Y-65119068D01*
X89182529Y-65116279D01*
X89134350Y-65075347D01*
X89134346Y-65075344D01*
X89128771Y-65070608D01*
X89122250Y-65067279D01*
X89117571Y-65064158D01*
X89112817Y-65061222D01*
X89107079Y-65056682D01*
X89093029Y-65050115D01*
X89043168Y-65026811D01*
X89039261Y-65024901D01*
X88976440Y-64992824D01*
X88969328Y-64991084D01*
X88964042Y-64989118D01*
X88958756Y-64987360D01*
X88952127Y-64984261D01*
X88944962Y-64982771D01*
X88944960Y-64982770D01*
X88923292Y-64978263D01*
X88903841Y-64974218D01*
X88841222Y-64940763D01*
X88806629Y-64878765D01*
X88803500Y-64850858D01*
X88803500Y-64761866D01*
X88799091Y-64721280D01*
X88799091Y-64694067D01*
X88802631Y-64661483D01*
X88803000Y-64654672D01*
X88803000Y-64497147D01*
X88823002Y-64429026D01*
X88859914Y-64391776D01*
X88912752Y-64357133D01*
X88916474Y-64354785D01*
X88971946Y-64321124D01*
X88971947Y-64321123D01*
X88976743Y-64318213D01*
X88984853Y-64311051D01*
X88984868Y-64311068D01*
X88988178Y-64308134D01*
X88990685Y-64306038D01*
X88996804Y-64302026D01*
X89048264Y-64247704D01*
X89050642Y-64245262D01*
X89270981Y-64024923D01*
X89285394Y-64012536D01*
X89296152Y-64004619D01*
X89302051Y-64000278D01*
X89335025Y-63961465D01*
X89341955Y-63953949D01*
X89347346Y-63948558D01*
X89364359Y-63927054D01*
X89367136Y-63923668D01*
X89408049Y-63875511D01*
X89408053Y-63875506D01*
X89412792Y-63869927D01*
X89416122Y-63863405D01*
X89419242Y-63858727D01*
X89422178Y-63853973D01*
X89426718Y-63848235D01*
X89456589Y-63784324D01*
X89458499Y-63780417D01*
X89490576Y-63717596D01*
X89492316Y-63710484D01*
X89494282Y-63705198D01*
X89496040Y-63699913D01*
X89499139Y-63693283D01*
X89513506Y-63624210D01*
X89514476Y-63619926D01*
X89531230Y-63551457D01*
X89531900Y-63540658D01*
X89531924Y-63540659D01*
X89532188Y-63536244D01*
X89532478Y-63532994D01*
X89533969Y-63525826D01*
X89533361Y-63503346D01*
X89536926Y-63469991D01*
X89554873Y-63396645D01*
X89556208Y-63391190D01*
X89556900Y-63380036D01*
X89556900Y-59615470D01*
X89558333Y-59596520D01*
X89560499Y-59582285D01*
X89560499Y-59582281D01*
X89561599Y-59575051D01*
X89560363Y-59559849D01*
X89557315Y-59522382D01*
X89556900Y-59512167D01*
X89556900Y-59504107D01*
X89553611Y-59475893D01*
X89553178Y-59471518D01*
X89547854Y-59406061D01*
X89547853Y-59406058D01*
X89547260Y-59398763D01*
X89545004Y-59391799D01*
X89543813Y-59385840D01*
X89542429Y-59379985D01*
X89541582Y-59372719D01*
X89516665Y-59304073D01*
X89515248Y-59299945D01*
X89495007Y-59237464D01*
X89495006Y-59237462D01*
X89492751Y-59230501D01*
X89488955Y-59224246D01*
X89486449Y-59218772D01*
X89483730Y-59213342D01*
X89481233Y-59206463D01*
X89461757Y-59176757D01*
X89441134Y-59108821D01*
X89452934Y-59054422D01*
X89536961Y-58874225D01*
X89536961Y-58874224D01*
X89539284Y-58869243D01*
X89541340Y-58861572D01*
X89597119Y-58653402D01*
X89597119Y-58653400D01*
X89598543Y-58648087D01*
X89618019Y-58425475D01*
X91992483Y-58425475D01*
X92011472Y-58642519D01*
X92013375Y-58653312D01*
X92069764Y-58863761D01*
X92073510Y-58874053D01*
X92165586Y-59071511D01*
X92171069Y-59081006D01*
X92207509Y-59133048D01*
X92217988Y-59141424D01*
X92231434Y-59134356D01*
X92932978Y-58432812D01*
X92940592Y-58418868D01*
X92940461Y-58417035D01*
X92936210Y-58410420D01*
X92230713Y-57704923D01*
X92218938Y-57698493D01*
X92206923Y-57707789D01*
X92171069Y-57758994D01*
X92165586Y-57768489D01*
X92073510Y-57965947D01*
X92069764Y-57976239D01*
X92013375Y-58186688D01*
X92011472Y-58197481D01*
X91992483Y-58414525D01*
X91992483Y-58425475D01*
X89618019Y-58425475D01*
X89618498Y-58420000D01*
X89598543Y-58191913D01*
X89567049Y-58074376D01*
X89540707Y-57976067D01*
X89540706Y-57976065D01*
X89539284Y-57970757D01*
X89534239Y-57959937D01*
X89444849Y-57768238D01*
X89444846Y-57768233D01*
X89442523Y-57763251D01*
X89311198Y-57575700D01*
X89149300Y-57413802D01*
X89117229Y-57391345D01*
X89072901Y-57335890D01*
X89063500Y-57288133D01*
X89063500Y-56256500D01*
X89083502Y-56188379D01*
X89137158Y-56141886D01*
X89189500Y-56130500D01*
X89966769Y-56130500D01*
X90034890Y-56150502D01*
X90048432Y-56160546D01*
X90081136Y-56188379D01*
X90099650Y-56204136D01*
X90272294Y-56300624D01*
X90460392Y-56361740D01*
X90656777Y-56385158D01*
X90662912Y-56384686D01*
X90662914Y-56384686D01*
X90847830Y-56370457D01*
X90847834Y-56370456D01*
X90853972Y-56369984D01*
X91044463Y-56316798D01*
X91049967Y-56314018D01*
X91049969Y-56314017D01*
X91215495Y-56230404D01*
X91215497Y-56230403D01*
X91220996Y-56227625D01*
X91311121Y-56157211D01*
X91377116Y-56131033D01*
X91388695Y-56130500D01*
X92378984Y-56130500D01*
X92447105Y-56150502D01*
X92468074Y-56167400D01*
X93208354Y-56907679D01*
X93242377Y-56969989D01*
X93237313Y-57040804D01*
X93194766Y-57097640D01*
X93130239Y-57122292D01*
X93082491Y-57126470D01*
X93071688Y-57128375D01*
X92861239Y-57184764D01*
X92850947Y-57188510D01*
X92653489Y-57280586D01*
X92643994Y-57286069D01*
X92591952Y-57322509D01*
X92583576Y-57332988D01*
X92590644Y-57346434D01*
X93575115Y-58330905D01*
X93609141Y-58393217D01*
X93604076Y-58464032D01*
X93575115Y-58509095D01*
X92589923Y-59494287D01*
X92583493Y-59506062D01*
X92592789Y-59518077D01*
X92643994Y-59553931D01*
X92653489Y-59559414D01*
X92850947Y-59651490D01*
X92861239Y-59655236D01*
X93071688Y-59711625D01*
X93082481Y-59713528D01*
X93299525Y-59732517D01*
X93310475Y-59732517D01*
X93527519Y-59713528D01*
X93538312Y-59711625D01*
X93748761Y-59655236D01*
X93759053Y-59651490D01*
X93829250Y-59618756D01*
X93899441Y-59608095D01*
X93964254Y-59637075D01*
X94003111Y-59696494D01*
X94008500Y-59732951D01*
X94008500Y-60826627D01*
X93988498Y-60894748D01*
X93954771Y-60929840D01*
X93902211Y-60966643D01*
X93902208Y-60966645D01*
X93897700Y-60969802D01*
X93735802Y-61131700D01*
X93604477Y-61319251D01*
X93602154Y-61324233D01*
X93602151Y-61324238D01*
X93511762Y-61518081D01*
X93507716Y-61526757D01*
X93506294Y-61532065D01*
X93506293Y-61532067D01*
X93449881Y-61742598D01*
X93448457Y-61747913D01*
X93428502Y-61976000D01*
X93448457Y-62204087D01*
X93449881Y-62209400D01*
X93449881Y-62209402D01*
X93484906Y-62340114D01*
X93507716Y-62425243D01*
X93510039Y-62430224D01*
X93510039Y-62430225D01*
X93602151Y-62627762D01*
X93602154Y-62627767D01*
X93604477Y-62632749D01*
X93637033Y-62679243D01*
X93725783Y-62805991D01*
X93735802Y-62820300D01*
X93897700Y-62982198D01*
X93902208Y-62985355D01*
X93902211Y-62985357D01*
X93906700Y-62988500D01*
X94085251Y-63113523D01*
X94090233Y-63115846D01*
X94090238Y-63115849D01*
X94287775Y-63207961D01*
X94292757Y-63210284D01*
X94298065Y-63211706D01*
X94298067Y-63211707D01*
X94508598Y-63268119D01*
X94508600Y-63268119D01*
X94513913Y-63269543D01*
X94742000Y-63289498D01*
X94970087Y-63269543D01*
X94975400Y-63268119D01*
X94975402Y-63268119D01*
X95185933Y-63211707D01*
X95185935Y-63211706D01*
X95191243Y-63210284D01*
X95196225Y-63207961D01*
X95393762Y-63115849D01*
X95393767Y-63115846D01*
X95398749Y-63113523D01*
X95577300Y-62988500D01*
X95581789Y-62985357D01*
X95581792Y-62985355D01*
X95586300Y-62982198D01*
X95748198Y-62820300D01*
X95758218Y-62805991D01*
X95846967Y-62679243D01*
X95879523Y-62632749D01*
X95881846Y-62627767D01*
X95881849Y-62627762D01*
X95973961Y-62430225D01*
X95973961Y-62430224D01*
X95976284Y-62425243D01*
X95999095Y-62340114D01*
X96034119Y-62209402D01*
X96034119Y-62209400D01*
X96035543Y-62204087D01*
X96055498Y-61976000D01*
X96035543Y-61747913D01*
X96034119Y-61742598D01*
X95977707Y-61532067D01*
X95977706Y-61532065D01*
X95976284Y-61526757D01*
X95972238Y-61518081D01*
X95881849Y-61324238D01*
X95881846Y-61324233D01*
X95879523Y-61319251D01*
X95748198Y-61131700D01*
X95586300Y-60969802D01*
X95581792Y-60966645D01*
X95581789Y-60966643D01*
X95529229Y-60929840D01*
X95484901Y-60874382D01*
X95475500Y-60826627D01*
X95475500Y-57469166D01*
X95476933Y-57450216D01*
X95478943Y-57437007D01*
X95478943Y-57437003D01*
X95480043Y-57429773D01*
X95475915Y-57379021D01*
X95475500Y-57368806D01*
X95475500Y-57361174D01*
X95475078Y-57357555D01*
X95475077Y-57357536D01*
X95472325Y-57333931D01*
X95471892Y-57329556D01*
X95466771Y-57266596D01*
X95466771Y-57266594D01*
X95466177Y-57259296D01*
X95463919Y-57252327D01*
X95462816Y-57246807D01*
X95461534Y-57241382D01*
X95460686Y-57234110D01*
X95436613Y-57167790D01*
X95435190Y-57163644D01*
X95415720Y-57103542D01*
X95415718Y-57103538D01*
X95413464Y-57096580D01*
X95409670Y-57090328D01*
X95407328Y-57085212D01*
X95404824Y-57080211D01*
X95402327Y-57073333D01*
X95398317Y-57067216D01*
X95398314Y-57067211D01*
X95363653Y-57014346D01*
X95361305Y-57010624D01*
X95327644Y-56955152D01*
X95327643Y-56955151D01*
X95324733Y-56950355D01*
X95317571Y-56942245D01*
X95317588Y-56942230D01*
X95314655Y-56938921D01*
X95312558Y-56936413D01*
X95308546Y-56930294D01*
X95254242Y-56878851D01*
X95251800Y-56876474D01*
X93388858Y-55013532D01*
X93373554Y-54993481D01*
X93373343Y-54993636D01*
X93324507Y-54927276D01*
X93268508Y-54851182D01*
X93238526Y-54825710D01*
X93199561Y-54766364D01*
X93198868Y-54695370D01*
X93236666Y-54635272D01*
X93287493Y-54607980D01*
X93407925Y-54575710D01*
X93407936Y-54575706D01*
X93413243Y-54574284D01*
X93418225Y-54571961D01*
X93615762Y-54479849D01*
X93615767Y-54479846D01*
X93620749Y-54477523D01*
X93736377Y-54396559D01*
X93803789Y-54349357D01*
X93803792Y-54349355D01*
X93808300Y-54346198D01*
X93970198Y-54184300D01*
X93992655Y-54152229D01*
X94048110Y-54107901D01*
X94095867Y-54098500D01*
X101868629Y-54098500D01*
X101936750Y-54118502D01*
G37*
%TD.AperFunction*%
%TA.AperFunction,Conductor*%
G36*
X78936121Y-42636002D02*
G01*
X78982614Y-42689658D01*
X78994000Y-42742000D01*
X78994000Y-44202229D01*
X78998064Y-44216071D01*
X79011479Y-44218105D01*
X79021025Y-44216882D01*
X79031095Y-44214742D01*
X79237225Y-44152900D01*
X79246832Y-44149134D01*
X79440076Y-44054464D01*
X79448934Y-44049185D01*
X79624141Y-43924211D01*
X79632003Y-43917567D01*
X79784445Y-43765656D01*
X79791122Y-43757811D01*
X79909086Y-43593646D01*
X79965081Y-43549998D01*
X80035784Y-43543552D01*
X80098749Y-43576355D01*
X80118842Y-43601337D01*
X80159624Y-43667887D01*
X80168975Y-43683147D01*
X80316702Y-43853687D01*
X80438903Y-43955140D01*
X80477463Y-43987153D01*
X80490299Y-43997810D01*
X80494751Y-44000412D01*
X80494756Y-44000415D01*
X80680645Y-44109040D01*
X80685103Y-44111645D01*
X80895884Y-44192134D01*
X80900952Y-44193165D01*
X80900955Y-44193166D01*
X80987064Y-44210685D01*
X81116981Y-44237117D01*
X81122156Y-44237307D01*
X81122158Y-44237307D01*
X81337292Y-44245196D01*
X81337296Y-44245196D01*
X81342456Y-44245385D01*
X81347576Y-44244729D01*
X81347578Y-44244729D01*
X81442485Y-44232571D01*
X81566253Y-44216716D01*
X81571202Y-44215231D01*
X81571208Y-44215230D01*
X81777413Y-44153365D01*
X81777412Y-44153365D01*
X81782363Y-44151880D01*
X81902183Y-44093181D01*
X81980331Y-44054897D01*
X81980336Y-44054894D01*
X81984982Y-44052618D01*
X81989192Y-44049615D01*
X81989197Y-44049612D01*
X82164455Y-43924601D01*
X82164459Y-43924597D01*
X82168667Y-43921596D01*
X82328487Y-43762333D01*
X82373140Y-43700192D01*
X82449370Y-43594107D01*
X82505364Y-43550459D01*
X82576068Y-43544013D01*
X82639032Y-43576816D01*
X82659125Y-43601799D01*
X82706275Y-43678743D01*
X82706279Y-43678748D01*
X82708975Y-43683147D01*
X82856702Y-43853687D01*
X82978903Y-43955140D01*
X83017463Y-43987153D01*
X83030299Y-43997810D01*
X83034751Y-44000412D01*
X83034756Y-44000415D01*
X83220645Y-44109040D01*
X83225103Y-44111645D01*
X83435884Y-44192134D01*
X83440952Y-44193165D01*
X83440955Y-44193166D01*
X83527064Y-44210685D01*
X83656981Y-44237117D01*
X83662156Y-44237307D01*
X83662158Y-44237307D01*
X83877292Y-44245196D01*
X83877296Y-44245196D01*
X83882456Y-44245385D01*
X83887576Y-44244729D01*
X83887578Y-44244729D01*
X83982485Y-44232571D01*
X84106253Y-44216716D01*
X84111202Y-44215231D01*
X84111208Y-44215230D01*
X84317413Y-44153365D01*
X84317412Y-44153365D01*
X84322363Y-44151880D01*
X84442183Y-44093181D01*
X84520331Y-44054897D01*
X84520336Y-44054894D01*
X84524982Y-44052618D01*
X84529192Y-44049615D01*
X84529197Y-44049612D01*
X84704455Y-43924601D01*
X84704459Y-43924597D01*
X84708667Y-43921596D01*
X84868487Y-43762333D01*
X84913140Y-43700192D01*
X84989370Y-43594107D01*
X85045364Y-43550459D01*
X85116068Y-43544013D01*
X85179032Y-43576816D01*
X85199125Y-43601799D01*
X85246275Y-43678743D01*
X85246279Y-43678748D01*
X85248975Y-43683147D01*
X85396702Y-43853687D01*
X85518903Y-43955140D01*
X85557463Y-43987153D01*
X85570299Y-43997810D01*
X85574751Y-44000412D01*
X85574756Y-44000415D01*
X85760645Y-44109040D01*
X85765103Y-44111645D01*
X85975884Y-44192134D01*
X85980952Y-44193165D01*
X85980955Y-44193166D01*
X86067064Y-44210685D01*
X86196981Y-44237117D01*
X86202156Y-44237307D01*
X86202158Y-44237307D01*
X86417292Y-44245196D01*
X86417296Y-44245196D01*
X86422456Y-44245385D01*
X86427576Y-44244729D01*
X86427578Y-44244729D01*
X86522485Y-44232571D01*
X86646253Y-44216716D01*
X86752405Y-44184869D01*
X86823399Y-44184453D01*
X86883349Y-44222485D01*
X86913221Y-44286891D01*
X86914611Y-44305555D01*
X86914611Y-45183519D01*
X86894609Y-45251640D01*
X86877706Y-45272614D01*
X85929764Y-46220556D01*
X85867452Y-46254582D01*
X85814119Y-46252291D01*
X85813690Y-46254379D01*
X85807653Y-46253140D01*
X85801768Y-46251318D01*
X85795643Y-46250674D01*
X85795642Y-46250674D01*
X85611204Y-46231289D01*
X85611202Y-46231289D01*
X85605075Y-46230645D01*
X85526433Y-46237802D01*
X85414251Y-46248011D01*
X85414248Y-46248012D01*
X85408112Y-46248570D01*
X85402206Y-46250308D01*
X85402202Y-46250309D01*
X85320681Y-46274302D01*
X85218381Y-46304410D01*
X85212923Y-46307263D01*
X85212919Y-46307265D01*
X85139376Y-46345713D01*
X85043110Y-46396040D01*
X84888975Y-46519968D01*
X84761846Y-46671474D01*
X84758879Y-46676872D01*
X84758875Y-46676877D01*
X84711391Y-46763251D01*
X84666567Y-46844787D01*
X84664706Y-46850654D01*
X84664705Y-46850656D01*
X84626607Y-46970757D01*
X84606765Y-47033306D01*
X84584719Y-47229851D01*
X84585235Y-47235995D01*
X84600686Y-47420000D01*
X84601268Y-47426934D01*
X84608024Y-47450495D01*
X84607574Y-47521488D01*
X84576000Y-47574319D01*
X81172089Y-50978230D01*
X81157677Y-50990616D01*
X81146082Y-50999149D01*
X81146077Y-50999154D01*
X81140182Y-51003492D01*
X81135443Y-51009070D01*
X81135440Y-51009073D01*
X81105965Y-51043768D01*
X81099035Y-51051284D01*
X81093340Y-51056979D01*
X81091060Y-51059861D01*
X81075719Y-51079251D01*
X81072928Y-51082655D01*
X81031939Y-51130902D01*
X81025667Y-51138285D01*
X81022339Y-51144801D01*
X81018972Y-51149850D01*
X81015805Y-51154979D01*
X81011266Y-51160716D01*
X80980345Y-51226875D01*
X80978442Y-51230769D01*
X80945231Y-51295808D01*
X80943492Y-51302916D01*
X80941393Y-51308559D01*
X80939476Y-51314322D01*
X80936378Y-51320950D01*
X80934888Y-51328112D01*
X80934888Y-51328113D01*
X80931692Y-51343477D01*
X80922938Y-51385568D01*
X80921514Y-51392412D01*
X80920544Y-51396696D01*
X80903192Y-51467610D01*
X80902500Y-51478764D01*
X80902464Y-51478762D01*
X80902225Y-51482755D01*
X80901851Y-51486947D01*
X80900360Y-51494115D01*
X80900558Y-51501432D01*
X80902454Y-51571521D01*
X80902500Y-51574928D01*
X80902500Y-53027987D01*
X80882498Y-53096108D01*
X80828842Y-53142601D01*
X80758568Y-53152705D01*
X80693988Y-53123211D01*
X80654793Y-53060598D01*
X80610707Y-52896067D01*
X80610706Y-52896065D01*
X80609284Y-52890757D01*
X80584066Y-52836677D01*
X80514849Y-52688238D01*
X80514846Y-52688233D01*
X80512523Y-52683251D01*
X80381198Y-52495700D01*
X80219300Y-52333802D01*
X80214792Y-52330645D01*
X80214789Y-52330643D01*
X80136611Y-52275902D01*
X80031749Y-52202477D01*
X80026767Y-52200154D01*
X80026762Y-52200151D01*
X79829225Y-52108039D01*
X79829224Y-52108039D01*
X79824243Y-52105716D01*
X79818935Y-52104294D01*
X79818933Y-52104293D01*
X79608402Y-52047881D01*
X79608400Y-52047881D01*
X79603087Y-52046457D01*
X79375000Y-52026502D01*
X79146913Y-52046457D01*
X79141600Y-52047881D01*
X79141598Y-52047881D01*
X78931067Y-52104293D01*
X78931065Y-52104294D01*
X78925757Y-52105716D01*
X78920776Y-52108039D01*
X78920775Y-52108039D01*
X78723238Y-52200151D01*
X78723233Y-52200154D01*
X78718251Y-52202477D01*
X78613389Y-52275902D01*
X78535211Y-52330643D01*
X78535208Y-52330645D01*
X78530700Y-52333802D01*
X78368802Y-52495700D01*
X78237477Y-52683251D01*
X78235154Y-52688233D01*
X78235151Y-52688238D01*
X78165934Y-52836677D01*
X78140716Y-52890757D01*
X78081457Y-53111913D01*
X78061502Y-53340000D01*
X78061981Y-53345475D01*
X78075755Y-53502913D01*
X78061766Y-53572518D01*
X78039329Y-53602990D01*
X77576089Y-54066230D01*
X77561677Y-54078616D01*
X77550082Y-54087149D01*
X77550077Y-54087154D01*
X77544182Y-54091492D01*
X77539443Y-54097070D01*
X77539440Y-54097073D01*
X77509965Y-54131768D01*
X77503035Y-54139284D01*
X77497340Y-54144979D01*
X77495060Y-54147861D01*
X77479719Y-54167251D01*
X77476928Y-54170655D01*
X77465336Y-54184300D01*
X77429667Y-54226285D01*
X77426339Y-54232801D01*
X77422972Y-54237850D01*
X77419805Y-54242979D01*
X77415266Y-54248716D01*
X77384345Y-54314875D01*
X77382442Y-54318769D01*
X77349231Y-54383808D01*
X77347492Y-54390916D01*
X77345393Y-54396559D01*
X77343476Y-54402322D01*
X77340378Y-54408950D01*
X77326772Y-54474366D01*
X77325514Y-54480412D01*
X77324544Y-54484696D01*
X77307192Y-54555610D01*
X77306500Y-54566764D01*
X77306464Y-54566762D01*
X77306225Y-54570755D01*
X77305851Y-54574947D01*
X77304360Y-54582115D01*
X77305970Y-54641645D01*
X77306454Y-54659521D01*
X77306500Y-54662928D01*
X77306500Y-57288133D01*
X77286498Y-57356254D01*
X77252772Y-57391345D01*
X77220700Y-57413802D01*
X77058802Y-57575700D01*
X76927477Y-57763251D01*
X76925154Y-57768233D01*
X76925151Y-57768238D01*
X76835761Y-57959937D01*
X76830716Y-57970757D01*
X76829294Y-57976065D01*
X76829293Y-57976067D01*
X76802951Y-58074376D01*
X76771457Y-58191913D01*
X76751502Y-58420000D01*
X76771457Y-58648087D01*
X76772881Y-58653400D01*
X76772881Y-58653402D01*
X76828661Y-58861572D01*
X76830716Y-58869243D01*
X76833039Y-58874224D01*
X76833039Y-58874225D01*
X76925151Y-59071762D01*
X76925154Y-59071767D01*
X76927477Y-59076749D01*
X76997504Y-59176757D01*
X77035136Y-59230501D01*
X77058802Y-59264300D01*
X77220700Y-59426198D01*
X77252771Y-59448655D01*
X77297099Y-59504110D01*
X77306500Y-59551867D01*
X77306500Y-60045500D01*
X77286498Y-60113621D01*
X77232842Y-60160114D01*
X77180500Y-60171500D01*
X71964371Y-60171500D01*
X71896250Y-60151498D01*
X71875276Y-60134595D01*
X71246743Y-59506062D01*
X72343493Y-59506062D01*
X72352789Y-59518077D01*
X72403994Y-59553931D01*
X72413489Y-59559414D01*
X72610947Y-59651490D01*
X72621239Y-59655236D01*
X72831688Y-59711625D01*
X72842481Y-59713528D01*
X73059525Y-59732517D01*
X73070475Y-59732517D01*
X73287519Y-59713528D01*
X73298312Y-59711625D01*
X73508761Y-59655236D01*
X73519053Y-59651490D01*
X73716511Y-59559414D01*
X73726006Y-59553931D01*
X73778048Y-59517491D01*
X73786424Y-59507012D01*
X73779356Y-59493566D01*
X73077812Y-58792022D01*
X73063868Y-58784408D01*
X73062035Y-58784539D01*
X73055420Y-58788790D01*
X72349923Y-59494287D01*
X72343493Y-59506062D01*
X71246743Y-59506062D01*
X70166156Y-58425475D01*
X71752483Y-58425475D01*
X71771472Y-58642519D01*
X71773375Y-58653312D01*
X71829764Y-58863761D01*
X71833510Y-58874053D01*
X71925586Y-59071511D01*
X71931069Y-59081006D01*
X71967509Y-59133048D01*
X71977988Y-59141424D01*
X71991434Y-59134356D01*
X72692978Y-58432812D01*
X72699356Y-58421132D01*
X73429408Y-58421132D01*
X73429539Y-58422965D01*
X73433790Y-58429580D01*
X74139287Y-59135077D01*
X74151062Y-59141507D01*
X74163077Y-59132211D01*
X74198931Y-59081006D01*
X74204414Y-59071511D01*
X74296490Y-58874053D01*
X74300236Y-58863761D01*
X74356625Y-58653312D01*
X74358528Y-58642519D01*
X74377517Y-58425475D01*
X74377517Y-58414525D01*
X74358528Y-58197481D01*
X74356625Y-58186688D01*
X74300236Y-57976239D01*
X74296490Y-57965947D01*
X74204414Y-57768489D01*
X74198931Y-57758994D01*
X74162491Y-57706952D01*
X74152012Y-57698576D01*
X74138566Y-57705644D01*
X73437022Y-58407188D01*
X73429408Y-58421132D01*
X72699356Y-58421132D01*
X72700592Y-58418868D01*
X72700461Y-58417035D01*
X72696210Y-58410420D01*
X71990713Y-57704923D01*
X71978938Y-57698493D01*
X71966923Y-57707789D01*
X71931069Y-57758994D01*
X71925586Y-57768489D01*
X71833510Y-57965947D01*
X71829764Y-57976239D01*
X71773375Y-58186688D01*
X71771472Y-58197481D01*
X71752483Y-58414525D01*
X71752483Y-58425475D01*
X70166156Y-58425475D01*
X69375405Y-57634724D01*
X69341379Y-57572412D01*
X69338500Y-57545629D01*
X69338500Y-57332988D01*
X72343576Y-57332988D01*
X72350644Y-57346434D01*
X73052188Y-58047978D01*
X73066132Y-58055592D01*
X73067965Y-58055461D01*
X73074580Y-58051210D01*
X73780077Y-57345713D01*
X73786507Y-57333938D01*
X73777211Y-57321923D01*
X73726006Y-57286069D01*
X73716511Y-57280586D01*
X73519053Y-57188510D01*
X73508761Y-57184764D01*
X73298312Y-57128375D01*
X73287519Y-57126472D01*
X73070475Y-57107483D01*
X73059525Y-57107483D01*
X72842481Y-57126472D01*
X72831688Y-57128375D01*
X72621239Y-57184764D01*
X72610947Y-57188510D01*
X72413489Y-57280586D01*
X72403994Y-57286069D01*
X72351952Y-57322509D01*
X72343576Y-57332988D01*
X69338500Y-57332988D01*
X69338500Y-44368100D01*
X69358502Y-44299979D01*
X69412158Y-44253486D01*
X69464500Y-44242100D01*
X69491734Y-44242100D01*
X69553916Y-44235345D01*
X69690305Y-44184215D01*
X69806861Y-44096861D01*
X69894215Y-43980305D01*
X69901521Y-43960818D01*
X69932213Y-43878946D01*
X69974854Y-43822181D01*
X70041416Y-43797481D01*
X70110765Y-43812688D01*
X70145431Y-43840676D01*
X70150173Y-43846150D01*
X70156702Y-43853687D01*
X70278903Y-43955140D01*
X70317463Y-43987153D01*
X70330299Y-43997810D01*
X70334751Y-44000412D01*
X70334756Y-44000415D01*
X70520645Y-44109040D01*
X70525103Y-44111645D01*
X70735884Y-44192134D01*
X70740952Y-44193165D01*
X70740955Y-44193166D01*
X70827064Y-44210685D01*
X70956981Y-44237117D01*
X70962156Y-44237307D01*
X70962158Y-44237307D01*
X71177292Y-44245196D01*
X71177296Y-44245196D01*
X71182456Y-44245385D01*
X71187576Y-44244729D01*
X71187578Y-44244729D01*
X71282485Y-44232571D01*
X71406253Y-44216716D01*
X71411202Y-44215231D01*
X71411208Y-44215230D01*
X71617413Y-44153365D01*
X71617412Y-44153365D01*
X71622363Y-44151880D01*
X71742183Y-44093181D01*
X71820331Y-44054897D01*
X71820336Y-44054894D01*
X71824982Y-44052618D01*
X71829192Y-44049615D01*
X71829197Y-44049612D01*
X72004455Y-43924601D01*
X72004459Y-43924597D01*
X72008667Y-43921596D01*
X72168487Y-43762333D01*
X72213140Y-43700192D01*
X72289370Y-43594107D01*
X72345364Y-43550459D01*
X72416068Y-43544013D01*
X72479032Y-43576816D01*
X72499125Y-43601799D01*
X72546275Y-43678743D01*
X72546279Y-43678748D01*
X72548975Y-43683147D01*
X72696702Y-43853687D01*
X72818903Y-43955140D01*
X72857463Y-43987153D01*
X72870299Y-43997810D01*
X72874751Y-44000412D01*
X72874756Y-44000415D01*
X73060645Y-44109040D01*
X73065103Y-44111645D01*
X73275884Y-44192134D01*
X73280952Y-44193165D01*
X73280955Y-44193166D01*
X73367064Y-44210685D01*
X73496981Y-44237117D01*
X73502156Y-44237307D01*
X73502158Y-44237307D01*
X73717292Y-44245196D01*
X73717296Y-44245196D01*
X73722456Y-44245385D01*
X73727576Y-44244729D01*
X73727578Y-44244729D01*
X73822485Y-44232571D01*
X73946253Y-44216716D01*
X73951202Y-44215231D01*
X73951208Y-44215230D01*
X74157413Y-44153365D01*
X74157412Y-44153365D01*
X74162363Y-44151880D01*
X74282183Y-44093181D01*
X74360331Y-44054897D01*
X74360336Y-44054894D01*
X74364982Y-44052618D01*
X74369192Y-44049615D01*
X74369197Y-44049612D01*
X74544455Y-43924601D01*
X74544459Y-43924597D01*
X74548667Y-43921596D01*
X74708487Y-43762333D01*
X74753140Y-43700192D01*
X74829370Y-43594107D01*
X74885364Y-43550459D01*
X74956068Y-43544013D01*
X75019032Y-43576816D01*
X75039125Y-43601799D01*
X75086275Y-43678743D01*
X75086279Y-43678748D01*
X75088975Y-43683147D01*
X75236702Y-43853687D01*
X75389214Y-43980305D01*
X75395985Y-43985926D01*
X75435620Y-44044828D01*
X75441500Y-44082870D01*
X75441500Y-46112133D01*
X75421498Y-46180254D01*
X75387772Y-46215345D01*
X75355700Y-46237802D01*
X75193802Y-46399700D01*
X75190645Y-46404208D01*
X75190643Y-46404211D01*
X75181199Y-46417699D01*
X75062477Y-46587251D01*
X75060154Y-46592233D01*
X75060151Y-46592238D01*
X74982509Y-46758743D01*
X74965716Y-46794757D01*
X74964294Y-46800065D01*
X74964293Y-46800067D01*
X74907881Y-47010598D01*
X74906457Y-47015913D01*
X74886502Y-47244000D01*
X74906457Y-47472087D01*
X74907881Y-47477400D01*
X74907881Y-47477402D01*
X74955041Y-47653402D01*
X74965716Y-47693243D01*
X74968039Y-47698224D01*
X74968039Y-47698225D01*
X75060151Y-47895762D01*
X75060154Y-47895767D01*
X75062477Y-47900749D01*
X75065634Y-47905257D01*
X75188695Y-48081006D01*
X75193802Y-48088300D01*
X75355700Y-48250198D01*
X75360208Y-48253355D01*
X75360211Y-48253357D01*
X75381405Y-48268197D01*
X75543251Y-48381523D01*
X75548233Y-48383846D01*
X75548238Y-48383849D01*
X75745775Y-48475961D01*
X75750757Y-48478284D01*
X75756065Y-48479706D01*
X75756067Y-48479707D01*
X75966598Y-48536119D01*
X75966600Y-48536119D01*
X75971913Y-48537543D01*
X76200000Y-48557498D01*
X76428087Y-48537543D01*
X76433400Y-48536119D01*
X76433402Y-48536119D01*
X76643933Y-48479707D01*
X76643935Y-48479706D01*
X76649243Y-48478284D01*
X76654225Y-48475961D01*
X76851762Y-48383849D01*
X76851767Y-48383846D01*
X76856749Y-48381523D01*
X77018595Y-48268197D01*
X77039789Y-48253357D01*
X77039792Y-48253355D01*
X77044300Y-48250198D01*
X77206198Y-48088300D01*
X77211306Y-48081006D01*
X77334366Y-47905257D01*
X77337523Y-47900749D01*
X77339846Y-47895767D01*
X77339849Y-47895762D01*
X77431961Y-47698225D01*
X77431961Y-47698224D01*
X77434284Y-47693243D01*
X77444960Y-47653402D01*
X77492119Y-47477402D01*
X77492119Y-47477400D01*
X77493543Y-47472087D01*
X77513498Y-47244000D01*
X77493543Y-47015913D01*
X77492119Y-47010598D01*
X77435707Y-46800067D01*
X77435706Y-46800065D01*
X77434284Y-46794757D01*
X77417491Y-46758743D01*
X77339849Y-46592238D01*
X77339846Y-46592233D01*
X77337523Y-46587251D01*
X77218801Y-46417699D01*
X77209357Y-46404211D01*
X77209355Y-46404208D01*
X77206198Y-46399700D01*
X77044300Y-46237802D01*
X77012229Y-46215345D01*
X76967901Y-46159890D01*
X76958500Y-46112133D01*
X76958500Y-44079338D01*
X76978502Y-44011217D01*
X77011331Y-43976760D01*
X77083181Y-43925509D01*
X77088667Y-43921596D01*
X77248487Y-43762333D01*
X77369686Y-43593667D01*
X77425680Y-43550019D01*
X77496384Y-43543573D01*
X77559348Y-43576376D01*
X77579441Y-43601358D01*
X77626682Y-43678448D01*
X77632765Y-43686759D01*
X77773665Y-43849417D01*
X77781032Y-43856633D01*
X77946606Y-43994095D01*
X77955053Y-44000010D01*
X78140859Y-44108586D01*
X78150146Y-44113036D01*
X78351198Y-44189810D01*
X78361091Y-44192684D01*
X78468248Y-44214485D01*
X78482300Y-44213290D01*
X78486000Y-44202945D01*
X78486000Y-42742000D01*
X78506002Y-42673879D01*
X78559658Y-42627386D01*
X78612000Y-42616000D01*
X78868000Y-42616000D01*
X78936121Y-42636002D01*
G37*
%TD.AperFunction*%
%TA.AperFunction,Conductor*%
G36*
X99256121Y-42636002D02*
G01*
X99302614Y-42689658D01*
X99314000Y-42742000D01*
X99314000Y-44202229D01*
X99318064Y-44216071D01*
X99331479Y-44218105D01*
X99341025Y-44216882D01*
X99351095Y-44214742D01*
X99557225Y-44152900D01*
X99566832Y-44149134D01*
X99760076Y-44054464D01*
X99768934Y-44049185D01*
X99944141Y-43924211D01*
X99952003Y-43917567D01*
X100104445Y-43765656D01*
X100111122Y-43757811D01*
X100229086Y-43593646D01*
X100285081Y-43549998D01*
X100355784Y-43543552D01*
X100418749Y-43576355D01*
X100438842Y-43601337D01*
X100479624Y-43667887D01*
X100488975Y-43683147D01*
X100636702Y-43853687D01*
X100758903Y-43955140D01*
X100797463Y-43987153D01*
X100810299Y-43997810D01*
X100814751Y-44000412D01*
X100814756Y-44000415D01*
X101000645Y-44109040D01*
X101005103Y-44111645D01*
X101215884Y-44192134D01*
X101220952Y-44193165D01*
X101220955Y-44193166D01*
X101307064Y-44210685D01*
X101436981Y-44237117D01*
X101442156Y-44237307D01*
X101442158Y-44237307D01*
X101657292Y-44245196D01*
X101657296Y-44245196D01*
X101662456Y-44245385D01*
X101667576Y-44244729D01*
X101667578Y-44244729D01*
X101762485Y-44232571D01*
X101886253Y-44216716D01*
X101891202Y-44215231D01*
X101891208Y-44215230D01*
X102097413Y-44153365D01*
X102097412Y-44153365D01*
X102102363Y-44151880D01*
X102222183Y-44093181D01*
X102300331Y-44054897D01*
X102300336Y-44054894D01*
X102304982Y-44052618D01*
X102309192Y-44049615D01*
X102309197Y-44049612D01*
X102484455Y-43924601D01*
X102484459Y-43924597D01*
X102488667Y-43921596D01*
X102648487Y-43762333D01*
X102693140Y-43700192D01*
X102769370Y-43594107D01*
X102825364Y-43550459D01*
X102896068Y-43544013D01*
X102959032Y-43576816D01*
X102979125Y-43601799D01*
X103026275Y-43678743D01*
X103026279Y-43678748D01*
X103028975Y-43683147D01*
X103176702Y-43853687D01*
X103298903Y-43955140D01*
X103337463Y-43987153D01*
X103350299Y-43997810D01*
X103354751Y-44000412D01*
X103354756Y-44000415D01*
X103540645Y-44109040D01*
X103545103Y-44111645D01*
X103755884Y-44192134D01*
X103760952Y-44193165D01*
X103760955Y-44193166D01*
X103847064Y-44210685D01*
X103976981Y-44237117D01*
X103982156Y-44237307D01*
X103982158Y-44237307D01*
X104197292Y-44245196D01*
X104197296Y-44245196D01*
X104202456Y-44245385D01*
X104207576Y-44244729D01*
X104207578Y-44244729D01*
X104302485Y-44232571D01*
X104426253Y-44216716D01*
X104431202Y-44215231D01*
X104431208Y-44215230D01*
X104637413Y-44153365D01*
X104637412Y-44153365D01*
X104642363Y-44151880D01*
X104762183Y-44093181D01*
X104840331Y-44054897D01*
X104840336Y-44054894D01*
X104844982Y-44052618D01*
X104849192Y-44049615D01*
X104849197Y-44049612D01*
X105024455Y-43924601D01*
X105024459Y-43924597D01*
X105028667Y-43921596D01*
X105188487Y-43762333D01*
X105233140Y-43700192D01*
X105309370Y-43594107D01*
X105365364Y-43550459D01*
X105436068Y-43544013D01*
X105499032Y-43576816D01*
X105519125Y-43601799D01*
X105566275Y-43678743D01*
X105566279Y-43678748D01*
X105568975Y-43683147D01*
X105716702Y-43853687D01*
X105838903Y-43955140D01*
X105877463Y-43987153D01*
X105890299Y-43997810D01*
X105894751Y-44000412D01*
X105894756Y-44000415D01*
X106080645Y-44109040D01*
X106085103Y-44111645D01*
X106295884Y-44192134D01*
X106300952Y-44193165D01*
X106300955Y-44193166D01*
X106387064Y-44210685D01*
X106516981Y-44237117D01*
X106522156Y-44237307D01*
X106522158Y-44237307D01*
X106737292Y-44245196D01*
X106737296Y-44245196D01*
X106742456Y-44245385D01*
X106747576Y-44244729D01*
X106747578Y-44244729D01*
X106842485Y-44232571D01*
X106966253Y-44216716D01*
X106971202Y-44215231D01*
X106971208Y-44215230D01*
X107177413Y-44153365D01*
X107177412Y-44153365D01*
X107182363Y-44151880D01*
X107302183Y-44093181D01*
X107380331Y-44054897D01*
X107380336Y-44054894D01*
X107384982Y-44052618D01*
X107389192Y-44049615D01*
X107389197Y-44049612D01*
X107564455Y-43924601D01*
X107564459Y-43924597D01*
X107568667Y-43921596D01*
X107728487Y-43762333D01*
X107773140Y-43700192D01*
X107849370Y-43594107D01*
X107905364Y-43550459D01*
X107976068Y-43544013D01*
X108039032Y-43576816D01*
X108059125Y-43601799D01*
X108106275Y-43678743D01*
X108106279Y-43678748D01*
X108108975Y-43683147D01*
X108256702Y-43853687D01*
X108378903Y-43955140D01*
X108417463Y-43987153D01*
X108430299Y-43997810D01*
X108434751Y-44000412D01*
X108434756Y-44000415D01*
X108620645Y-44109040D01*
X108625103Y-44111645D01*
X108835884Y-44192134D01*
X108840952Y-44193165D01*
X108840955Y-44193166D01*
X108927064Y-44210685D01*
X109056981Y-44237117D01*
X109062156Y-44237307D01*
X109062158Y-44237307D01*
X109277292Y-44245196D01*
X109277296Y-44245196D01*
X109282456Y-44245385D01*
X109287576Y-44244729D01*
X109287578Y-44244729D01*
X109382485Y-44232571D01*
X109506253Y-44216716D01*
X109511202Y-44215231D01*
X109511208Y-44215230D01*
X109717413Y-44153365D01*
X109717412Y-44153365D01*
X109722363Y-44151880D01*
X109842183Y-44093181D01*
X109920331Y-44054897D01*
X109920336Y-44054894D01*
X109924982Y-44052618D01*
X109929192Y-44049615D01*
X109929197Y-44049612D01*
X110104455Y-43924601D01*
X110104459Y-43924597D01*
X110108667Y-43921596D01*
X110268487Y-43762333D01*
X110313140Y-43700192D01*
X110389370Y-43594107D01*
X110445364Y-43550459D01*
X110516068Y-43544013D01*
X110579032Y-43576816D01*
X110599125Y-43601799D01*
X110646275Y-43678743D01*
X110646279Y-43678748D01*
X110648975Y-43683147D01*
X110796702Y-43853687D01*
X110918903Y-43955140D01*
X110957463Y-43987153D01*
X110970299Y-43997810D01*
X110974751Y-44000412D01*
X110974756Y-44000415D01*
X111160645Y-44109040D01*
X111165103Y-44111645D01*
X111375884Y-44192134D01*
X111380952Y-44193165D01*
X111380955Y-44193166D01*
X111467064Y-44210685D01*
X111596981Y-44237117D01*
X111602156Y-44237307D01*
X111602158Y-44237307D01*
X111817292Y-44245196D01*
X111817296Y-44245196D01*
X111822456Y-44245385D01*
X111827576Y-44244729D01*
X111827578Y-44244729D01*
X111922485Y-44232571D01*
X112046253Y-44216716D01*
X112051202Y-44215231D01*
X112051208Y-44215230D01*
X112257413Y-44153365D01*
X112257412Y-44153365D01*
X112262363Y-44151880D01*
X112382183Y-44093181D01*
X112460331Y-44054897D01*
X112460336Y-44054894D01*
X112464982Y-44052618D01*
X112469192Y-44049615D01*
X112469197Y-44049612D01*
X112610955Y-43948496D01*
X112654973Y-43933222D01*
X112674141Y-43896211D01*
X112804827Y-43765980D01*
X112808487Y-43762333D01*
X112853140Y-43700192D01*
X112929370Y-43594107D01*
X112985364Y-43550459D01*
X113056068Y-43544013D01*
X113119032Y-43576816D01*
X113139125Y-43601799D01*
X113186275Y-43678743D01*
X113186279Y-43678748D01*
X113188975Y-43683147D01*
X113242695Y-43745162D01*
X113272177Y-43809746D01*
X113262063Y-43880019D01*
X113215562Y-43933667D01*
X113157673Y-43953244D01*
X113134364Y-43955140D01*
X113127403Y-43957395D01*
X113121463Y-43958582D01*
X113115588Y-43959971D01*
X113108319Y-43960818D01*
X113039670Y-43985736D01*
X113035542Y-43987153D01*
X112973064Y-44007393D01*
X112973062Y-44007394D01*
X112966101Y-44009649D01*
X112959846Y-44013445D01*
X112954372Y-44015951D01*
X112948942Y-44018670D01*
X112942063Y-44021167D01*
X112935943Y-44025180D01*
X112935942Y-44025180D01*
X112881024Y-44061186D01*
X112877320Y-44063523D01*
X112828445Y-44093182D01*
X112793811Y-44102388D01*
X112783229Y-44128883D01*
X112775598Y-44137726D01*
X112761223Y-44152900D01*
X112740871Y-44174384D01*
X112738494Y-44176825D01*
X111826089Y-45089230D01*
X111811677Y-45101616D01*
X111800082Y-45110149D01*
X111800077Y-45110154D01*
X111794182Y-45114492D01*
X111789443Y-45120070D01*
X111789440Y-45120073D01*
X111759965Y-45154768D01*
X111753035Y-45162284D01*
X111747340Y-45167979D01*
X111745060Y-45170861D01*
X111729719Y-45190251D01*
X111726928Y-45193655D01*
X111684409Y-45243703D01*
X111679667Y-45249285D01*
X111676339Y-45255801D01*
X111672972Y-45260850D01*
X111669805Y-45265979D01*
X111665266Y-45271716D01*
X111634345Y-45337875D01*
X111632442Y-45341769D01*
X111599231Y-45406808D01*
X111597492Y-45413916D01*
X111595393Y-45419559D01*
X111593476Y-45425322D01*
X111590378Y-45431950D01*
X111588888Y-45439112D01*
X111588888Y-45439113D01*
X111575514Y-45503412D01*
X111574544Y-45507696D01*
X111557192Y-45578610D01*
X111556500Y-45589764D01*
X111556464Y-45589762D01*
X111556225Y-45593755D01*
X111555851Y-45597947D01*
X111554360Y-45605115D01*
X111554558Y-45612432D01*
X111556454Y-45682521D01*
X111556500Y-45685928D01*
X111556500Y-46288133D01*
X111536498Y-46356254D01*
X111502772Y-46391345D01*
X111470700Y-46413802D01*
X111404095Y-46480407D01*
X111341783Y-46514433D01*
X111270968Y-46509368D01*
X111225905Y-46480407D01*
X111159300Y-46413802D01*
X111154792Y-46410645D01*
X111154789Y-46410643D01*
X111028920Y-46322509D01*
X110971749Y-46282477D01*
X110966767Y-46280154D01*
X110966762Y-46280151D01*
X110769225Y-46188039D01*
X110769224Y-46188039D01*
X110764243Y-46185716D01*
X110758935Y-46184294D01*
X110758933Y-46184293D01*
X110548402Y-46127881D01*
X110548400Y-46127881D01*
X110543087Y-46126457D01*
X110315000Y-46106502D01*
X110086913Y-46126457D01*
X110081600Y-46127881D01*
X110081598Y-46127881D01*
X109871067Y-46184293D01*
X109871065Y-46184294D01*
X109865757Y-46185716D01*
X109860776Y-46188039D01*
X109860775Y-46188039D01*
X109663238Y-46280151D01*
X109663233Y-46280154D01*
X109658251Y-46282477D01*
X109601080Y-46322509D01*
X109475211Y-46410643D01*
X109475208Y-46410645D01*
X109470700Y-46413802D01*
X109404095Y-46480407D01*
X109341783Y-46514433D01*
X109270968Y-46509368D01*
X109225905Y-46480407D01*
X109159300Y-46413802D01*
X109154792Y-46410645D01*
X109154789Y-46410643D01*
X109028920Y-46322509D01*
X108971749Y-46282477D01*
X108966767Y-46280154D01*
X108966762Y-46280151D01*
X108769225Y-46188039D01*
X108769224Y-46188039D01*
X108764243Y-46185716D01*
X108758935Y-46184294D01*
X108758933Y-46184293D01*
X108548402Y-46127881D01*
X108548400Y-46127881D01*
X108543087Y-46126457D01*
X108315000Y-46106502D01*
X108086913Y-46126457D01*
X108081600Y-46127881D01*
X108081598Y-46127881D01*
X107871067Y-46184293D01*
X107871065Y-46184294D01*
X107865757Y-46185716D01*
X107860776Y-46188039D01*
X107860775Y-46188039D01*
X107663238Y-46280151D01*
X107663233Y-46280154D01*
X107658251Y-46282477D01*
X107601080Y-46322509D01*
X107475211Y-46410643D01*
X107475208Y-46410645D01*
X107470700Y-46413802D01*
X107404095Y-46480407D01*
X107341783Y-46514433D01*
X107270968Y-46509368D01*
X107225905Y-46480407D01*
X107159300Y-46413802D01*
X107154792Y-46410645D01*
X107154789Y-46410643D01*
X107028920Y-46322509D01*
X106971749Y-46282477D01*
X106966767Y-46280154D01*
X106966762Y-46280151D01*
X106769225Y-46188039D01*
X106769224Y-46188039D01*
X106764243Y-46185716D01*
X106758935Y-46184294D01*
X106758933Y-46184293D01*
X106548402Y-46127881D01*
X106548400Y-46127881D01*
X106543087Y-46126457D01*
X106315000Y-46106502D01*
X106086913Y-46126457D01*
X106081600Y-46127881D01*
X106081598Y-46127881D01*
X105871067Y-46184293D01*
X105871065Y-46184294D01*
X105865757Y-46185716D01*
X105860776Y-46188039D01*
X105860775Y-46188039D01*
X105663238Y-46280151D01*
X105663233Y-46280154D01*
X105658251Y-46282477D01*
X105601080Y-46322509D01*
X105475211Y-46410643D01*
X105475208Y-46410645D01*
X105470700Y-46413802D01*
X105404095Y-46480407D01*
X105341783Y-46514433D01*
X105270968Y-46509368D01*
X105225905Y-46480407D01*
X105159300Y-46413802D01*
X105154792Y-46410645D01*
X105154789Y-46410643D01*
X105028920Y-46322509D01*
X104971749Y-46282477D01*
X104966767Y-46280154D01*
X104966762Y-46280151D01*
X104769225Y-46188039D01*
X104769224Y-46188039D01*
X104764243Y-46185716D01*
X104758935Y-46184294D01*
X104758933Y-46184293D01*
X104548402Y-46127881D01*
X104548400Y-46127881D01*
X104543087Y-46126457D01*
X104315000Y-46106502D01*
X104086913Y-46126457D01*
X104081600Y-46127881D01*
X104081598Y-46127881D01*
X103871067Y-46184293D01*
X103871065Y-46184294D01*
X103865757Y-46185716D01*
X103860776Y-46188039D01*
X103860775Y-46188039D01*
X103663238Y-46280151D01*
X103663233Y-46280154D01*
X103658251Y-46282477D01*
X103601080Y-46322509D01*
X103475211Y-46410643D01*
X103475208Y-46410645D01*
X103470700Y-46413802D01*
X103404095Y-46480407D01*
X103341783Y-46514433D01*
X103270968Y-46509368D01*
X103225905Y-46480407D01*
X103159300Y-46413802D01*
X103154792Y-46410645D01*
X103154789Y-46410643D01*
X103028920Y-46322509D01*
X102971749Y-46282477D01*
X102966767Y-46280154D01*
X102966762Y-46280151D01*
X102769225Y-46188039D01*
X102769224Y-46188039D01*
X102764243Y-46185716D01*
X102758935Y-46184294D01*
X102758933Y-46184293D01*
X102548402Y-46127881D01*
X102548400Y-46127881D01*
X102543087Y-46126457D01*
X102315000Y-46106502D01*
X102086913Y-46126457D01*
X102081600Y-46127881D01*
X102081598Y-46127881D01*
X101871067Y-46184293D01*
X101871065Y-46184294D01*
X101865757Y-46185716D01*
X101860776Y-46188039D01*
X101860775Y-46188039D01*
X101663238Y-46280151D01*
X101663233Y-46280154D01*
X101658251Y-46282477D01*
X101601080Y-46322509D01*
X101475211Y-46410643D01*
X101475208Y-46410645D01*
X101470700Y-46413802D01*
X101404095Y-46480407D01*
X101341783Y-46514433D01*
X101270968Y-46509368D01*
X101225905Y-46480407D01*
X101159300Y-46413802D01*
X101154792Y-46410645D01*
X101154789Y-46410643D01*
X101028920Y-46322509D01*
X100971749Y-46282477D01*
X100966767Y-46280154D01*
X100966762Y-46280151D01*
X100769225Y-46188039D01*
X100769224Y-46188039D01*
X100764243Y-46185716D01*
X100758935Y-46184294D01*
X100758933Y-46184293D01*
X100548402Y-46127881D01*
X100548400Y-46127881D01*
X100543087Y-46126457D01*
X100315000Y-46106502D01*
X100086913Y-46126457D01*
X100081600Y-46127881D01*
X100081598Y-46127881D01*
X99871067Y-46184293D01*
X99871065Y-46184294D01*
X99865757Y-46185716D01*
X99860776Y-46188039D01*
X99860775Y-46188039D01*
X99663238Y-46280151D01*
X99663233Y-46280154D01*
X99658251Y-46282477D01*
X99601080Y-46322509D01*
X99475211Y-46410643D01*
X99475208Y-46410645D01*
X99470700Y-46413802D01*
X99308802Y-46575700D01*
X99177477Y-46763251D01*
X99175154Y-46768233D01*
X99175151Y-46768238D01*
X99083039Y-46965775D01*
X99080716Y-46970757D01*
X99079294Y-46976065D01*
X99079293Y-46976067D01*
X99073811Y-46996527D01*
X99041199Y-47053011D01*
X98687022Y-47407188D01*
X98679408Y-47421132D01*
X98679539Y-47422965D01*
X98683790Y-47429580D01*
X99041199Y-47786989D01*
X99073811Y-47843473D01*
X99080716Y-47869243D01*
X99083039Y-47874224D01*
X99083039Y-47874225D01*
X99175151Y-48071762D01*
X99175154Y-48071767D01*
X99177477Y-48076749D01*
X99186406Y-48089501D01*
X99301140Y-48253357D01*
X99308802Y-48264300D01*
X99470700Y-48426198D01*
X99475208Y-48429355D01*
X99475211Y-48429357D01*
X99502769Y-48448653D01*
X99658251Y-48557523D01*
X99663233Y-48559846D01*
X99663238Y-48559849D01*
X99859765Y-48651490D01*
X99865757Y-48654284D01*
X99871065Y-48655706D01*
X99871067Y-48655707D01*
X100081598Y-48712119D01*
X100081600Y-48712119D01*
X100086913Y-48713543D01*
X100315000Y-48733498D01*
X100543087Y-48713543D01*
X100548400Y-48712119D01*
X100548402Y-48712119D01*
X100758933Y-48655707D01*
X100758935Y-48655706D01*
X100764243Y-48654284D01*
X100770235Y-48651490D01*
X100966762Y-48559849D01*
X100966767Y-48559846D01*
X100971749Y-48557523D01*
X101127231Y-48448653D01*
X101154789Y-48429357D01*
X101154792Y-48429355D01*
X101159300Y-48426198D01*
X101225905Y-48359593D01*
X101288217Y-48325567D01*
X101359032Y-48330632D01*
X101404095Y-48359593D01*
X101470700Y-48426198D01*
X101475208Y-48429355D01*
X101475211Y-48429357D01*
X101502769Y-48448653D01*
X101658251Y-48557523D01*
X101663233Y-48559846D01*
X101663238Y-48559849D01*
X101859765Y-48651490D01*
X101865757Y-48654284D01*
X101871065Y-48655706D01*
X101871067Y-48655707D01*
X102081598Y-48712119D01*
X102081600Y-48712119D01*
X102086913Y-48713543D01*
X102315000Y-48733498D01*
X102543087Y-48713543D01*
X102548400Y-48712119D01*
X102548402Y-48712119D01*
X102758933Y-48655707D01*
X102758935Y-48655706D01*
X102764243Y-48654284D01*
X102770235Y-48651490D01*
X102966762Y-48559849D01*
X102966767Y-48559846D01*
X102971749Y-48557523D01*
X103127231Y-48448653D01*
X103154789Y-48429357D01*
X103154792Y-48429355D01*
X103159300Y-48426198D01*
X103225905Y-48359593D01*
X103288217Y-48325567D01*
X103359032Y-48330632D01*
X103404095Y-48359593D01*
X103470700Y-48426198D01*
X103475208Y-48429355D01*
X103475211Y-48429357D01*
X103502769Y-48448653D01*
X103658251Y-48557523D01*
X103663233Y-48559846D01*
X103663238Y-48559849D01*
X103859765Y-48651490D01*
X103865757Y-48654284D01*
X103871065Y-48655706D01*
X103871067Y-48655707D01*
X104081598Y-48712119D01*
X104081600Y-48712119D01*
X104086913Y-48713543D01*
X104315000Y-48733498D01*
X104543087Y-48713543D01*
X104548400Y-48712119D01*
X104548402Y-48712119D01*
X104758933Y-48655707D01*
X104758935Y-48655706D01*
X104764243Y-48654284D01*
X104770235Y-48651490D01*
X104966762Y-48559849D01*
X104966767Y-48559846D01*
X104971749Y-48557523D01*
X105127231Y-48448653D01*
X105154789Y-48429357D01*
X105154792Y-48429355D01*
X105159300Y-48426198D01*
X105225905Y-48359593D01*
X105288217Y-48325567D01*
X105359032Y-48330632D01*
X105404095Y-48359593D01*
X105470700Y-48426198D01*
X105475208Y-48429355D01*
X105475211Y-48429357D01*
X105502769Y-48448653D01*
X105658251Y-48557523D01*
X105663233Y-48559846D01*
X105663238Y-48559849D01*
X105859765Y-48651490D01*
X105865757Y-48654284D01*
X105871065Y-48655706D01*
X105871067Y-48655707D01*
X106081598Y-48712119D01*
X106081600Y-48712119D01*
X106086913Y-48713543D01*
X106315000Y-48733498D01*
X106543087Y-48713543D01*
X106548400Y-48712119D01*
X106548402Y-48712119D01*
X106758933Y-48655707D01*
X106758935Y-48655706D01*
X106764243Y-48654284D01*
X106770235Y-48651490D01*
X106966762Y-48559849D01*
X106966767Y-48559846D01*
X106971749Y-48557523D01*
X107127231Y-48448653D01*
X107154789Y-48429357D01*
X107154792Y-48429355D01*
X107159300Y-48426198D01*
X107225905Y-48359593D01*
X107288217Y-48325567D01*
X107359032Y-48330632D01*
X107404095Y-48359593D01*
X107470700Y-48426198D01*
X107475208Y-48429355D01*
X107475211Y-48429357D01*
X107502769Y-48448653D01*
X107658251Y-48557523D01*
X107663233Y-48559846D01*
X107663238Y-48559849D01*
X107859765Y-48651490D01*
X107865757Y-48654284D01*
X107871065Y-48655706D01*
X107871067Y-48655707D01*
X108081598Y-48712119D01*
X108081600Y-48712119D01*
X108086913Y-48713543D01*
X108315000Y-48733498D01*
X108543087Y-48713543D01*
X108548400Y-48712119D01*
X108548402Y-48712119D01*
X108758933Y-48655707D01*
X108758935Y-48655706D01*
X108764243Y-48654284D01*
X108770235Y-48651490D01*
X108966762Y-48559849D01*
X108966767Y-48559846D01*
X108971749Y-48557523D01*
X109127231Y-48448653D01*
X109154789Y-48429357D01*
X109154792Y-48429355D01*
X109159300Y-48426198D01*
X109225905Y-48359593D01*
X109288217Y-48325567D01*
X109359032Y-48330632D01*
X109404095Y-48359593D01*
X109470700Y-48426198D01*
X109475208Y-48429355D01*
X109475211Y-48429357D01*
X109502769Y-48448653D01*
X109658251Y-48557523D01*
X109663233Y-48559846D01*
X109663238Y-48559849D01*
X109859765Y-48651490D01*
X109865757Y-48654284D01*
X109871065Y-48655706D01*
X109871067Y-48655707D01*
X110081598Y-48712119D01*
X110081600Y-48712119D01*
X110086913Y-48713543D01*
X110315000Y-48733498D01*
X110543087Y-48713543D01*
X110548400Y-48712119D01*
X110548402Y-48712119D01*
X110758933Y-48655707D01*
X110758935Y-48655706D01*
X110764243Y-48654284D01*
X110770235Y-48651490D01*
X110966762Y-48559849D01*
X110966767Y-48559846D01*
X110971749Y-48557523D01*
X111127231Y-48448653D01*
X111154789Y-48429357D01*
X111154792Y-48429355D01*
X111159300Y-48426198D01*
X111225905Y-48359593D01*
X111288217Y-48325567D01*
X111359032Y-48330632D01*
X111404095Y-48359593D01*
X111470700Y-48426198D01*
X111475208Y-48429355D01*
X111475211Y-48429357D01*
X111502769Y-48448653D01*
X111658251Y-48557523D01*
X111663233Y-48559846D01*
X111663238Y-48559849D01*
X111859765Y-48651490D01*
X111865757Y-48654284D01*
X111871065Y-48655706D01*
X111871067Y-48655707D01*
X112081598Y-48712119D01*
X112081600Y-48712119D01*
X112086913Y-48713543D01*
X112315000Y-48733498D01*
X112543087Y-48713543D01*
X112548400Y-48712119D01*
X112548402Y-48712119D01*
X112758933Y-48655707D01*
X112758935Y-48655706D01*
X112764243Y-48654284D01*
X112770235Y-48651490D01*
X112966762Y-48559849D01*
X112966767Y-48559846D01*
X112971749Y-48557523D01*
X113127231Y-48448653D01*
X113154789Y-48429357D01*
X113154792Y-48429355D01*
X113159300Y-48426198D01*
X113225905Y-48359593D01*
X113288217Y-48325567D01*
X113359032Y-48330632D01*
X113404095Y-48359593D01*
X113470700Y-48426198D01*
X113475208Y-48429355D01*
X113475211Y-48429357D01*
X113502769Y-48448653D01*
X113658251Y-48557523D01*
X113663233Y-48559846D01*
X113663238Y-48559849D01*
X113859765Y-48651490D01*
X113865757Y-48654284D01*
X113871065Y-48655706D01*
X113871067Y-48655707D01*
X114081598Y-48712119D01*
X114081600Y-48712119D01*
X114086913Y-48713543D01*
X114315000Y-48733498D01*
X114543087Y-48713543D01*
X114548400Y-48712119D01*
X114548402Y-48712119D01*
X114758933Y-48655707D01*
X114758935Y-48655706D01*
X114764243Y-48654284D01*
X114770235Y-48651490D01*
X114966762Y-48559849D01*
X114966767Y-48559846D01*
X114971749Y-48557523D01*
X115127231Y-48448653D01*
X115154789Y-48429357D01*
X115154792Y-48429355D01*
X115159300Y-48426198D01*
X115225905Y-48359593D01*
X115288217Y-48325567D01*
X115359032Y-48330632D01*
X115404095Y-48359593D01*
X115470700Y-48426198D01*
X115502771Y-48448655D01*
X115547099Y-48504110D01*
X115556500Y-48551867D01*
X115556500Y-50958629D01*
X115536498Y-51026750D01*
X115519595Y-51047724D01*
X114022724Y-52544595D01*
X113960412Y-52578621D01*
X113933629Y-52581500D01*
X104842069Y-52581500D01*
X104823121Y-52580067D01*
X104815780Y-52578950D01*
X104808883Y-52577901D01*
X104808881Y-52577901D01*
X104801651Y-52576801D01*
X104794359Y-52577394D01*
X104794356Y-52577394D01*
X104748982Y-52581085D01*
X104738767Y-52581500D01*
X104730707Y-52581500D01*
X104717417Y-52583049D01*
X104702493Y-52584789D01*
X104698118Y-52585222D01*
X104632661Y-52590546D01*
X104632658Y-52590547D01*
X104625363Y-52591140D01*
X104618399Y-52593396D01*
X104612440Y-52594587D01*
X104606585Y-52595971D01*
X104599319Y-52596818D01*
X104530673Y-52621735D01*
X104526545Y-52623152D01*
X104464064Y-52643393D01*
X104464062Y-52643394D01*
X104457101Y-52645649D01*
X104450846Y-52649445D01*
X104445372Y-52651951D01*
X104439942Y-52654670D01*
X104433063Y-52657167D01*
X104372016Y-52697191D01*
X104368327Y-52699518D01*
X104359843Y-52704667D01*
X104310693Y-52734491D01*
X104310688Y-52734495D01*
X104305892Y-52737405D01*
X104297516Y-52744803D01*
X104297493Y-52744777D01*
X104294503Y-52747426D01*
X104291264Y-52750134D01*
X104285148Y-52754144D01*
X104280121Y-52759451D01*
X104280117Y-52759454D01*
X104231872Y-52810383D01*
X104229494Y-52812825D01*
X103594095Y-53448224D01*
X103531783Y-53482250D01*
X103460968Y-53477185D01*
X103415905Y-53448224D01*
X102818770Y-52851089D01*
X102806384Y-52836677D01*
X102797851Y-52825082D01*
X102797846Y-52825077D01*
X102793508Y-52819182D01*
X102787930Y-52814443D01*
X102787927Y-52814440D01*
X102753232Y-52784965D01*
X102745716Y-52778035D01*
X102740021Y-52772340D01*
X102733880Y-52767482D01*
X102717749Y-52754719D01*
X102714345Y-52751928D01*
X102664297Y-52709409D01*
X102664295Y-52709408D01*
X102658715Y-52704667D01*
X102652199Y-52701339D01*
X102647150Y-52697972D01*
X102642021Y-52694805D01*
X102636284Y-52690266D01*
X102570125Y-52659345D01*
X102566225Y-52657439D01*
X102501192Y-52624231D01*
X102494084Y-52622492D01*
X102488441Y-52620393D01*
X102482678Y-52618476D01*
X102476050Y-52615378D01*
X102404583Y-52600513D01*
X102400299Y-52599543D01*
X102365958Y-52591140D01*
X102329390Y-52582192D01*
X102323788Y-52581844D01*
X102323785Y-52581844D01*
X102318236Y-52581500D01*
X102318238Y-52581464D01*
X102314245Y-52581225D01*
X102310053Y-52580851D01*
X102302885Y-52579360D01*
X102239120Y-52581085D01*
X102225479Y-52581454D01*
X102222072Y-52581500D01*
X94095867Y-52581500D01*
X94027746Y-52561498D01*
X93992655Y-52527772D01*
X93970198Y-52495700D01*
X93808300Y-52333802D01*
X93803792Y-52330645D01*
X93803789Y-52330643D01*
X93725611Y-52275902D01*
X93620749Y-52202477D01*
X93615767Y-52200154D01*
X93615762Y-52200151D01*
X93418225Y-52108039D01*
X93418224Y-52108039D01*
X93413243Y-52105716D01*
X93407935Y-52104294D01*
X93407933Y-52104293D01*
X93197402Y-52047881D01*
X93197400Y-52047881D01*
X93192087Y-52046457D01*
X92964000Y-52026502D01*
X92735913Y-52046457D01*
X92730600Y-52047881D01*
X92730598Y-52047881D01*
X92520067Y-52104293D01*
X92520065Y-52104294D01*
X92514757Y-52105716D01*
X92509776Y-52108039D01*
X92509775Y-52108039D01*
X92312238Y-52200151D01*
X92312233Y-52200154D01*
X92307251Y-52202477D01*
X92202389Y-52275902D01*
X92124211Y-52330643D01*
X92124208Y-52330645D01*
X92119700Y-52333802D01*
X91957802Y-52495700D01*
X91826477Y-52683251D01*
X91824154Y-52688233D01*
X91824151Y-52688238D01*
X91754934Y-52836677D01*
X91729716Y-52890757D01*
X91670457Y-53111913D01*
X91650502Y-53340000D01*
X91670457Y-53568087D01*
X91729716Y-53789243D01*
X91732039Y-53794224D01*
X91732039Y-53794225D01*
X91824151Y-53991762D01*
X91824154Y-53991767D01*
X91826477Y-53996749D01*
X91895421Y-54095211D01*
X91948248Y-54170655D01*
X91957802Y-54184300D01*
X92119700Y-54346198D01*
X92124210Y-54349356D01*
X92124216Y-54349361D01*
X92174096Y-54384287D01*
X92218425Y-54439744D01*
X92225734Y-54510363D01*
X92193704Y-54573724D01*
X92132502Y-54609709D01*
X92101826Y-54613500D01*
X91388712Y-54613500D01*
X91320591Y-54593498D01*
X91308397Y-54584585D01*
X91255109Y-54540502D01*
X91244675Y-54531870D01*
X91070701Y-54437802D01*
X90881768Y-54379318D01*
X90875643Y-54378674D01*
X90875642Y-54378674D01*
X90691204Y-54359289D01*
X90691202Y-54359289D01*
X90685075Y-54358645D01*
X90606433Y-54365802D01*
X90494251Y-54376011D01*
X90494248Y-54376012D01*
X90488112Y-54376570D01*
X90482206Y-54378308D01*
X90482202Y-54378309D01*
X90378092Y-54408950D01*
X90298381Y-54432410D01*
X90292923Y-54435263D01*
X90292919Y-54435265D01*
X90218127Y-54474366D01*
X90123110Y-54524040D01*
X90118312Y-54527898D01*
X90118310Y-54527899D01*
X90046424Y-54585697D01*
X89980802Y-54612793D01*
X89967472Y-54613500D01*
X89015867Y-54613500D01*
X88947746Y-54593498D01*
X88912655Y-54559772D01*
X88890198Y-54527700D01*
X88728300Y-54365802D01*
X88723792Y-54362645D01*
X88723789Y-54362643D01*
X88640888Y-54304595D01*
X88540749Y-54234477D01*
X88535767Y-54232154D01*
X88535762Y-54232151D01*
X88338225Y-54140039D01*
X88338224Y-54140039D01*
X88333243Y-54137716D01*
X88327935Y-54136294D01*
X88327933Y-54136293D01*
X88117402Y-54079881D01*
X88117400Y-54079881D01*
X88112087Y-54078457D01*
X87884000Y-54058502D01*
X87655913Y-54078457D01*
X87490375Y-54122813D01*
X87419400Y-54121123D01*
X87360604Y-54081329D01*
X87332656Y-54016065D01*
X87344429Y-53946051D01*
X87368670Y-53912011D01*
X89949296Y-51331385D01*
X90011608Y-51297359D01*
X90028723Y-51294851D01*
X90035513Y-51294329D01*
X90085830Y-51290457D01*
X90085834Y-51290456D01*
X90091972Y-51289984D01*
X90282463Y-51236798D01*
X90287967Y-51234018D01*
X90287969Y-51234017D01*
X90453495Y-51150404D01*
X90453497Y-51150403D01*
X90458996Y-51147625D01*
X90614847Y-51025861D01*
X90744078Y-50876145D01*
X90841769Y-50704179D01*
X90904197Y-50516513D01*
X90919038Y-50399035D01*
X90947420Y-50333958D01*
X90954949Y-50325732D01*
X92774619Y-48506062D01*
X97593493Y-48506062D01*
X97602789Y-48518077D01*
X97653994Y-48553931D01*
X97663489Y-48559414D01*
X97860947Y-48651490D01*
X97871239Y-48655236D01*
X98081688Y-48711625D01*
X98092481Y-48713528D01*
X98309525Y-48732517D01*
X98320475Y-48732517D01*
X98537519Y-48713528D01*
X98548312Y-48711625D01*
X98758761Y-48655236D01*
X98769053Y-48651490D01*
X98966511Y-48559414D01*
X98976006Y-48553931D01*
X99028048Y-48517491D01*
X99036424Y-48507012D01*
X99029356Y-48493566D01*
X98327812Y-47792022D01*
X98313868Y-47784408D01*
X98312035Y-47784539D01*
X98305420Y-47788790D01*
X97599923Y-48494287D01*
X97593493Y-48506062D01*
X92774619Y-48506062D01*
X93855206Y-47425475D01*
X97002483Y-47425475D01*
X97021472Y-47642519D01*
X97023375Y-47653312D01*
X97079764Y-47863761D01*
X97083510Y-47874053D01*
X97175586Y-48071511D01*
X97181069Y-48081006D01*
X97217509Y-48133048D01*
X97227988Y-48141424D01*
X97241434Y-48134356D01*
X97942978Y-47432812D01*
X97950592Y-47418868D01*
X97950461Y-47417035D01*
X97946210Y-47410420D01*
X97240713Y-46704923D01*
X97228938Y-46698493D01*
X97216923Y-46707789D01*
X97181069Y-46758994D01*
X97175586Y-46768489D01*
X97083510Y-46965947D01*
X97079764Y-46976239D01*
X97023375Y-47186688D01*
X97021472Y-47197481D01*
X97002483Y-47414525D01*
X97002483Y-47425475D01*
X93855206Y-47425475D01*
X94947693Y-46332988D01*
X97593576Y-46332988D01*
X97600644Y-46346434D01*
X98302188Y-47047978D01*
X98316132Y-47055592D01*
X98317965Y-47055461D01*
X98324580Y-47051210D01*
X99030077Y-46345713D01*
X99036507Y-46333938D01*
X99027211Y-46321923D01*
X98976006Y-46286069D01*
X98966511Y-46280586D01*
X98769053Y-46188510D01*
X98758761Y-46184764D01*
X98548312Y-46128375D01*
X98537519Y-46126472D01*
X98320475Y-46107483D01*
X98309525Y-46107483D01*
X98092481Y-46126472D01*
X98081688Y-46128375D01*
X97871239Y-46184764D01*
X97860947Y-46188510D01*
X97663489Y-46280586D01*
X97653994Y-46286069D01*
X97601952Y-46322509D01*
X97593576Y-46332988D01*
X94947693Y-46332988D01*
X96035276Y-45245405D01*
X96097588Y-45211379D01*
X96124371Y-45208500D01*
X97214930Y-45208500D01*
X97233880Y-45209933D01*
X97248115Y-45212099D01*
X97248119Y-45212099D01*
X97255349Y-45213199D01*
X97262641Y-45212606D01*
X97262644Y-45212606D01*
X97308018Y-45208915D01*
X97318233Y-45208500D01*
X97326293Y-45208500D01*
X97339583Y-45206951D01*
X97354507Y-45205211D01*
X97358882Y-45204778D01*
X97424339Y-45199454D01*
X97424342Y-45199453D01*
X97431637Y-45198860D01*
X97438601Y-45196604D01*
X97444560Y-45195413D01*
X97450415Y-45194029D01*
X97457681Y-45193182D01*
X97526327Y-45168265D01*
X97530455Y-45166848D01*
X97592936Y-45146607D01*
X97592938Y-45146606D01*
X97599899Y-45144351D01*
X97606154Y-45140555D01*
X97611628Y-45138049D01*
X97617058Y-45135330D01*
X97623937Y-45132833D01*
X97643399Y-45120073D01*
X97684976Y-45092814D01*
X97688680Y-45090477D01*
X97751107Y-45052595D01*
X97759484Y-45045197D01*
X97759508Y-45045224D01*
X97762500Y-45042571D01*
X97765733Y-45039868D01*
X97771852Y-45035856D01*
X97825128Y-44979617D01*
X97827506Y-44977175D01*
X98278911Y-44525770D01*
X98293323Y-44513384D01*
X98304918Y-44504851D01*
X98304923Y-44504846D01*
X98310818Y-44500508D01*
X98315557Y-44494930D01*
X98315560Y-44494927D01*
X98345035Y-44460232D01*
X98351965Y-44452716D01*
X98357660Y-44447021D01*
X98364942Y-44437817D01*
X98375281Y-44424749D01*
X98378072Y-44421345D01*
X98420591Y-44371297D01*
X98420592Y-44371295D01*
X98425333Y-44365715D01*
X98428661Y-44359199D01*
X98432020Y-44354162D01*
X98435194Y-44349023D01*
X98439734Y-44343284D01*
X98464454Y-44290390D01*
X98470636Y-44277163D01*
X98472569Y-44273209D01*
X98489159Y-44240720D01*
X98537952Y-44189148D01*
X98606882Y-44172142D01*
X98646323Y-44180312D01*
X98671194Y-44189809D01*
X98681091Y-44192684D01*
X98788248Y-44214485D01*
X98802300Y-44213290D01*
X98806000Y-44202945D01*
X98806000Y-42742000D01*
X98826002Y-42673879D01*
X98879658Y-42627386D01*
X98932000Y-42616000D01*
X99188000Y-42616000D01*
X99256121Y-42636002D01*
G37*
%TD.AperFunction*%
%TA.AperFunction,Conductor*%
G36*
X77559032Y-41036816D02*
G01*
X77579125Y-41061799D01*
X77626275Y-41138743D01*
X77626279Y-41138748D01*
X77628975Y-41143147D01*
X77776702Y-41313687D01*
X77950299Y-41457810D01*
X77954751Y-41460412D01*
X77954756Y-41460415D01*
X78004555Y-41489515D01*
X78053278Y-41541154D01*
X78066349Y-41610937D01*
X78039617Y-41676709D01*
X78008131Y-41704920D01*
X78002471Y-41708485D01*
X77830373Y-41837700D01*
X77822666Y-41844543D01*
X77673984Y-42000129D01*
X77667498Y-42008139D01*
X77573798Y-42145498D01*
X77518887Y-42190501D01*
X77448362Y-42198672D01*
X77384615Y-42167418D01*
X77363918Y-42142934D01*
X77293634Y-42034291D01*
X77293632Y-42034288D01*
X77290826Y-42029951D01*
X77138977Y-41863071D01*
X77134926Y-41859872D01*
X77134922Y-41859868D01*
X76965966Y-41726434D01*
X76965962Y-41726432D01*
X76961911Y-41723232D01*
X76957383Y-41720732D01*
X76938535Y-41710328D01*
X76888564Y-41659896D01*
X76873792Y-41590453D01*
X76898908Y-41524047D01*
X76926259Y-41497441D01*
X76927506Y-41496552D01*
X76962354Y-41471695D01*
X77084455Y-41384601D01*
X77084459Y-41384597D01*
X77088667Y-41381596D01*
X77248487Y-41222333D01*
X77284101Y-41172771D01*
X77369370Y-41054107D01*
X77425364Y-41010459D01*
X77496068Y-41004013D01*
X77559032Y-41036816D01*
G37*
%TD.AperFunction*%
%TA.AperFunction,Conductor*%
G36*
X75018749Y-41036355D02*
G01*
X75038842Y-41061337D01*
X75083014Y-41133419D01*
X75088975Y-41143147D01*
X75236702Y-41313687D01*
X75410299Y-41457810D01*
X75414751Y-41460412D01*
X75414756Y-41460415D01*
X75464069Y-41489231D01*
X75512792Y-41540870D01*
X75525863Y-41610653D01*
X75499131Y-41676425D01*
X75468595Y-41703783D01*
X75466335Y-41704960D01*
X75382236Y-41768103D01*
X75351089Y-41791489D01*
X75285905Y-41840430D01*
X75130024Y-42003550D01*
X75127109Y-42007824D01*
X75127106Y-42007827D01*
X75033503Y-42145043D01*
X74978592Y-42190046D01*
X74908067Y-42198217D01*
X74844320Y-42166963D01*
X74823623Y-42142479D01*
X74753634Y-42034291D01*
X74753632Y-42034288D01*
X74750826Y-42029951D01*
X74598977Y-41863071D01*
X74594926Y-41859872D01*
X74594922Y-41859868D01*
X74425966Y-41726434D01*
X74425962Y-41726432D01*
X74421911Y-41723232D01*
X74417387Y-41720734D01*
X74417383Y-41720732D01*
X74398048Y-41710058D01*
X74348079Y-41659625D01*
X74333308Y-41590182D01*
X74358426Y-41523777D01*
X74385776Y-41497172D01*
X74544136Y-41384216D01*
X74552003Y-41377567D01*
X74704445Y-41225656D01*
X74711122Y-41217811D01*
X74829086Y-41053646D01*
X74885081Y-41009998D01*
X74955784Y-41003552D01*
X75018749Y-41036355D01*
G37*
%TD.AperFunction*%
%TD*%
M02*
