%FSLAX45Y45*%
G04 Gerber Fmt 4.5, Leading zero omitted, Abs format (unit mm)*
G04 Created by KiCad (PCBNEW (6.0.0)) date 2022-03-15 10:26:27*
%MOMM*%
%LPD*%
G01*
G04 APERTURE LIST*
%TA.AperFunction,Profile*%
%ADD10C,0.100000*%
%TD*%
%ADD11C,0.200000*%
%ADD12C,0.075000*%
%ADD13C,0.080000*%
G04 APERTURE END LIST*
D10*
X12522200Y-3805200D02*
G75*
G03*
X12222200Y-3505200I-300000J0D01*
G01*
X6324600Y-3505200D02*
G75*
G03*
X6024600Y-3805200I0J-300000D01*
G01*
X6021000Y-9110000D02*
G75*
G03*
X6321000Y-9410000I300000J0D01*
G01*
X12221000Y-9410000D02*
G75*
G03*
X12521000Y-9110000I0J300000D01*
G01*
X10621000Y-7510000D02*
X10621000Y-9010000D01*
X10421000Y-9010000D02*
G75*
G03*
X10621000Y-9010000I100000J0D01*
G01*
X6021000Y-5660000D02*
X6021000Y-7560000D01*
X12521000Y-4060000D02*
X12521000Y-9110000D01*
X12522200Y-3805200D02*
X12521000Y-4060000D01*
X6324600Y-3505200D02*
X12222200Y-3505200D01*
X6024600Y-3805200D02*
X6021000Y-5660000D01*
X10421000Y-7510000D02*
X10421000Y-9010000D01*
X10621000Y-7510000D02*
G75*
G03*
X10421000Y-7510000I-100000J0D01*
G01*
X6021000Y-7560000D02*
X6021000Y-9110000D01*
X6321000Y-9410000D02*
X12221000Y-9410000D01*
D11*
D12*
X6613100Y-7507900D02*
X6688100Y-7582900D01*
X6688100Y-7507900D02*
X6613100Y-7582900D01*
X6613100Y-7707900D02*
X6688100Y-7782900D01*
X6688100Y-7707900D02*
X6613100Y-7782900D01*
D13*
X6313800Y-8322500D02*
G75*
G03*
X6313800Y-8322500I-40000J0D01*
G01*
X6390000Y-4673600D02*
G75*
G03*
X6390000Y-4673600I-40000J0D01*
G01*
X6847200Y-5537200D02*
G75*
G03*
X6847200Y-5537200I-40000J0D01*
G01*
X7279000Y-6223000D02*
G75*
G03*
X7279000Y-6223000I-40000J0D01*
G01*
X7279000Y-6604000D02*
G75*
G03*
X7279000Y-6604000I-40000J0D01*
G01*
X7355200Y-4673600D02*
G75*
G03*
X7355200Y-4673600I-40000J0D01*
G01*
X7977500Y-5334000D02*
G75*
G03*
X7977500Y-5334000I-40000J0D01*
G01*
X8041000Y-3835400D02*
G75*
G03*
X8041000Y-3835400I-40000J0D01*
G01*
X8828400Y-5537200D02*
G75*
G03*
X8828400Y-5537200I-40000J0D01*
G01*
X10200000Y-4521200D02*
G75*
G03*
X10200000Y-4521200I-40000J0D01*
G01*
X10327000Y-5664200D02*
G75*
G03*
X10327000Y-5664200I-40000J0D01*
G01*
X12206600Y-5715000D02*
G75*
G03*
X12206600Y-5715000I-40000J0D01*
G01*
X12206600Y-6985000D02*
G75*
G03*
X12206600Y-6985000I-40000J0D01*
G01*
X12206600Y-8255000D02*
G75*
G03*
X12206600Y-8255000I-40000J0D01*
G01*
X12282800Y-4216400D02*
G75*
G03*
X12282800Y-4216400I-40000J0D01*
G01*
X6631000Y-6360800D02*
X6631000Y-6440800D01*
X6591000Y-6400800D02*
X6671000Y-6400800D01*
X6631000Y-6560800D02*
X6631000Y-6640800D01*
X6591000Y-6600800D02*
X6671000Y-6600800D01*
X6631000Y-6760800D02*
X6631000Y-6840800D01*
X6591000Y-6800800D02*
X6671000Y-6800800D01*
X6831000Y-6360800D02*
X6831000Y-6440800D01*
X6791000Y-6400800D02*
X6871000Y-6400800D01*
X6831000Y-6560800D02*
X6831000Y-6640800D01*
X6791000Y-6600800D02*
X6871000Y-6600800D01*
X6831000Y-6760800D02*
X6831000Y-6840800D01*
X6791000Y-6800800D02*
X6871000Y-6800800D01*
X6858000Y-3993000D02*
X6858000Y-4073000D01*
X6818000Y-4033000D02*
X6898000Y-4033000D01*
X6858000Y-4247000D02*
X6858000Y-4327000D01*
X6818000Y-4287000D02*
X6898000Y-4287000D01*
X7112000Y-3993000D02*
X7112000Y-4073000D01*
X7072000Y-4033000D02*
X7152000Y-4033000D01*
X7112000Y-4247000D02*
X7112000Y-4327000D01*
X7072000Y-4287000D02*
X7152000Y-4287000D01*
X7302500Y-8282500D02*
X7302500Y-8362500D01*
X7262500Y-8322500D02*
X7342500Y-8322500D01*
X7302500Y-8782500D02*
X7302500Y-8862500D01*
X7262500Y-8822500D02*
X7342500Y-8822500D01*
X7306500Y-5802000D02*
X7306500Y-5882000D01*
X7266500Y-5842000D02*
X7346500Y-5842000D01*
X7366000Y-3993000D02*
X7366000Y-4073000D01*
X7326000Y-4033000D02*
X7406000Y-4033000D01*
X7366000Y-4247000D02*
X7366000Y-4327000D01*
X7326000Y-4287000D02*
X7406000Y-4287000D01*
X7594600Y-6360800D02*
X7594600Y-6440800D01*
X7554600Y-6400800D02*
X7634600Y-6400800D01*
X7594600Y-6614800D02*
X7594600Y-6694800D01*
X7554600Y-6654800D02*
X7634600Y-6654800D01*
X7620000Y-3993000D02*
X7620000Y-4073000D01*
X7580000Y-4033000D02*
X7660000Y-4033000D01*
X7620000Y-4247000D02*
X7620000Y-4327000D01*
X7580000Y-4287000D02*
X7660000Y-4287000D01*
X7806500Y-5802000D02*
X7806500Y-5882000D01*
X7766500Y-5842000D02*
X7846500Y-5842000D01*
X7874000Y-3993000D02*
X7874000Y-4073000D01*
X7834000Y-4033000D02*
X7914000Y-4033000D01*
X7874000Y-4247000D02*
X7874000Y-4327000D01*
X7834000Y-4287000D02*
X7914000Y-4287000D01*
X7917500Y-7745100D02*
X7917500Y-7825100D01*
X7877500Y-7785100D02*
X7957500Y-7785100D01*
X8128000Y-3993000D02*
X8128000Y-4073000D01*
X8088000Y-4033000D02*
X8168000Y-4033000D01*
X8128000Y-4247000D02*
X8128000Y-4327000D01*
X8088000Y-4287000D02*
X8168000Y-4287000D01*
X8382000Y-3993000D02*
X8382000Y-4073000D01*
X8342000Y-4033000D02*
X8422000Y-4033000D01*
X8382000Y-4247000D02*
X8382000Y-4327000D01*
X8342000Y-4287000D02*
X8422000Y-4287000D01*
X8407500Y-7745100D02*
X8407500Y-7825100D01*
X8367500Y-7785100D02*
X8447500Y-7785100D01*
X8636000Y-3993000D02*
X8636000Y-4073000D01*
X8596000Y-4033000D02*
X8676000Y-4033000D01*
X8636000Y-4247000D02*
X8636000Y-4327000D01*
X8596000Y-4287000D02*
X8676000Y-4287000D01*
X8830500Y-5802000D02*
X8830500Y-5882000D01*
X8790500Y-5842000D02*
X8870500Y-5842000D01*
X8890000Y-3993000D02*
X8890000Y-4073000D01*
X8850000Y-4033000D02*
X8930000Y-4033000D01*
X8890000Y-4247000D02*
X8890000Y-4327000D01*
X8850000Y-4287000D02*
X8930000Y-4287000D01*
X9017000Y-8282500D02*
X9017000Y-8362500D01*
X8977000Y-8322500D02*
X9057000Y-8322500D01*
X9017000Y-8782500D02*
X9017000Y-8862500D01*
X8977000Y-8822500D02*
X9057000Y-8822500D01*
X9144000Y-3993000D02*
X9144000Y-4073000D01*
X9104000Y-4033000D02*
X9184000Y-4033000D01*
X9144000Y-4247000D02*
X9144000Y-4327000D01*
X9104000Y-4287000D02*
X9184000Y-4287000D01*
X9330500Y-5802000D02*
X9330500Y-5882000D01*
X9290500Y-5842000D02*
X9370500Y-5842000D01*
X9398000Y-3993000D02*
X9398000Y-4073000D01*
X9358000Y-4033000D02*
X9438000Y-4033000D01*
X9398000Y-4247000D02*
X9398000Y-4327000D01*
X9358000Y-4287000D02*
X9438000Y-4287000D01*
X9398000Y-6208400D02*
X9398000Y-6288400D01*
X9358000Y-6248400D02*
X9438000Y-6248400D01*
X9398000Y-7224400D02*
X9398000Y-7304400D01*
X9358000Y-7264400D02*
X9438000Y-7264400D01*
X9652000Y-3993000D02*
X9652000Y-4073000D01*
X9612000Y-4033000D02*
X9692000Y-4033000D01*
X9652000Y-4247000D02*
X9652000Y-4327000D01*
X9612000Y-4287000D02*
X9692000Y-4287000D01*
X9831500Y-4854400D02*
X9831500Y-4934400D01*
X9791500Y-4894400D02*
X9871500Y-4894400D01*
X9831500Y-7054400D02*
X9831500Y-7134400D01*
X9791500Y-7094400D02*
X9871500Y-7094400D01*
X9906000Y-3993000D02*
X9906000Y-4073000D01*
X9866000Y-4033000D02*
X9946000Y-4033000D01*
X9906000Y-4247000D02*
X9906000Y-4327000D01*
X9866000Y-4287000D02*
X9946000Y-4287000D01*
X10031500Y-4854400D02*
X10031500Y-4934400D01*
X9991500Y-4894400D02*
X10071500Y-4894400D01*
X10031500Y-7054400D02*
X10031500Y-7134400D01*
X9991500Y-7094400D02*
X10071500Y-7094400D01*
X10160000Y-3993000D02*
X10160000Y-4073000D01*
X10120000Y-4033000D02*
X10200000Y-4033000D01*
X10160000Y-4247000D02*
X10160000Y-4327000D01*
X10120000Y-4287000D02*
X10200000Y-4287000D01*
X10231500Y-4854400D02*
X10231500Y-4934400D01*
X10191500Y-4894400D02*
X10271500Y-4894400D01*
X10231500Y-7054400D02*
X10231500Y-7134400D01*
X10191500Y-7094400D02*
X10271500Y-7094400D01*
X10414000Y-3993000D02*
X10414000Y-4073000D01*
X10374000Y-4033000D02*
X10454000Y-4033000D01*
X10414000Y-4247000D02*
X10414000Y-4327000D01*
X10374000Y-4287000D02*
X10454000Y-4287000D01*
X10431500Y-4854400D02*
X10431500Y-4934400D01*
X10391500Y-4894400D02*
X10471500Y-4894400D01*
X10431500Y-7054400D02*
X10431500Y-7134400D01*
X10391500Y-7094400D02*
X10471500Y-7094400D01*
X10631500Y-4854400D02*
X10631500Y-4934400D01*
X10591500Y-4894400D02*
X10671500Y-4894400D01*
X10631500Y-7054400D02*
X10631500Y-7134400D01*
X10591500Y-7094400D02*
X10671500Y-7094400D01*
X10668000Y-3993000D02*
X10668000Y-4073000D01*
X10628000Y-4033000D02*
X10708000Y-4033000D01*
X10668000Y-4247000D02*
X10668000Y-4327000D01*
X10628000Y-4287000D02*
X10708000Y-4287000D01*
X10831500Y-4854400D02*
X10831500Y-4934400D01*
X10791500Y-4894400D02*
X10871500Y-4894400D01*
X10831500Y-7054400D02*
X10831500Y-7134400D01*
X10791500Y-7094400D02*
X10871500Y-7094400D01*
X10922000Y-3993000D02*
X10922000Y-4073000D01*
X10882000Y-4033000D02*
X10962000Y-4033000D01*
X10922000Y-4247000D02*
X10922000Y-4327000D01*
X10882000Y-4287000D02*
X10962000Y-4287000D01*
X11031500Y-4854400D02*
X11031500Y-4934400D01*
X10991500Y-4894400D02*
X11071500Y-4894400D01*
X11031500Y-7054400D02*
X11031500Y-7134400D01*
X10991500Y-7094400D02*
X11071500Y-7094400D01*
X11176000Y-3993000D02*
X11176000Y-4073000D01*
X11136000Y-4033000D02*
X11216000Y-4033000D01*
X11176000Y-4247000D02*
X11176000Y-4327000D01*
X11136000Y-4287000D02*
X11216000Y-4287000D01*
X11231500Y-4854400D02*
X11231500Y-4934400D01*
X11191500Y-4894400D02*
X11271500Y-4894400D01*
X11231500Y-7054400D02*
X11231500Y-7134400D01*
X11191500Y-7094400D02*
X11271500Y-7094400D01*
X11430000Y-3993000D02*
X11430000Y-4073000D01*
X11390000Y-4033000D02*
X11470000Y-4033000D01*
X11430000Y-4247000D02*
X11430000Y-4327000D01*
X11390000Y-4287000D02*
X11470000Y-4287000D01*
X11431500Y-4854400D02*
X11431500Y-4934400D01*
X11391500Y-4894400D02*
X11471500Y-4894400D01*
X11431500Y-7054400D02*
X11431500Y-7134400D01*
X11391500Y-7094400D02*
X11471500Y-7094400D01*
X11631500Y-4854400D02*
X11631500Y-4934400D01*
X11591500Y-4894400D02*
X11671500Y-4894400D01*
X11631500Y-7054400D02*
X11631500Y-7134400D01*
X11591500Y-7094400D02*
X11671500Y-7094400D01*
X11684000Y-3993000D02*
X11684000Y-4073000D01*
X11644000Y-4033000D02*
X11724000Y-4033000D01*
X11684000Y-4247000D02*
X11684000Y-4327000D01*
X11644000Y-4287000D02*
X11724000Y-4287000D01*
D11*
X6273619Y-9725476D02*
X6273619Y-9525476D01*
X6321238Y-9525476D01*
X6349809Y-9535000D01*
X6368857Y-9554048D01*
X6378381Y-9573095D01*
X6387905Y-9611190D01*
X6387905Y-9639762D01*
X6378381Y-9677857D01*
X6368857Y-9696905D01*
X6349809Y-9715952D01*
X6321238Y-9725476D01*
X6273619Y-9725476D01*
X6473619Y-9725476D02*
X6473619Y-9592143D01*
X6473619Y-9630238D02*
X6483143Y-9611190D01*
X6492667Y-9601667D01*
X6511714Y-9592143D01*
X6530762Y-9592143D01*
X6597428Y-9725476D02*
X6597428Y-9592143D01*
X6597428Y-9525476D02*
X6587905Y-9535000D01*
X6597428Y-9544524D01*
X6606952Y-9535000D01*
X6597428Y-9525476D01*
X6597428Y-9544524D01*
X6721238Y-9725476D02*
X6702190Y-9715952D01*
X6692667Y-9696905D01*
X6692667Y-9525476D01*
X6826000Y-9725476D02*
X6806952Y-9715952D01*
X6797428Y-9696905D01*
X6797428Y-9525476D01*
X7054571Y-9725476D02*
X7054571Y-9525476D01*
X7121238Y-9668333D01*
X7187905Y-9525476D01*
X7187905Y-9725476D01*
X7368857Y-9725476D02*
X7368857Y-9620714D01*
X7359333Y-9601667D01*
X7340286Y-9592143D01*
X7302190Y-9592143D01*
X7283143Y-9601667D01*
X7368857Y-9715952D02*
X7349809Y-9725476D01*
X7302190Y-9725476D01*
X7283143Y-9715952D01*
X7273619Y-9696905D01*
X7273619Y-9677857D01*
X7283143Y-9658810D01*
X7302190Y-9649286D01*
X7349809Y-9649286D01*
X7368857Y-9639762D01*
X7464095Y-9592143D02*
X7464095Y-9792143D01*
X7464095Y-9601667D02*
X7483143Y-9592143D01*
X7521238Y-9592143D01*
X7540286Y-9601667D01*
X7549809Y-9611190D01*
X7559333Y-9630238D01*
X7559333Y-9687381D01*
X7549809Y-9706429D01*
X7540286Y-9715952D01*
X7521238Y-9725476D01*
X7483143Y-9725476D01*
X7464095Y-9715952D01*
X7645048Y-9706429D02*
X7654571Y-9715952D01*
X7645048Y-9725476D01*
X7635524Y-9715952D01*
X7645048Y-9706429D01*
X7645048Y-9725476D01*
X7645048Y-9601667D02*
X7654571Y-9611190D01*
X7645048Y-9620714D01*
X7635524Y-9611190D01*
X7645048Y-9601667D01*
X7645048Y-9620714D01*
D12*
X5941000Y-10017500D02*
X6016000Y-10092500D01*
X6016000Y-10017500D02*
X5941000Y-10092500D01*
D11*
X6311714Y-9945476D02*
X6330762Y-9945476D01*
X6349809Y-9955000D01*
X6359333Y-9964524D01*
X6368857Y-9983571D01*
X6378381Y-10021667D01*
X6378381Y-10069286D01*
X6368857Y-10107381D01*
X6359333Y-10126429D01*
X6349809Y-10135952D01*
X6330762Y-10145476D01*
X6311714Y-10145476D01*
X6292667Y-10135952D01*
X6283143Y-10126429D01*
X6273619Y-10107381D01*
X6264095Y-10069286D01*
X6264095Y-10021667D01*
X6273619Y-9983571D01*
X6283143Y-9964524D01*
X6292667Y-9955000D01*
X6311714Y-9945476D01*
X6464095Y-10126429D02*
X6473619Y-10135952D01*
X6464095Y-10145476D01*
X6454571Y-10135952D01*
X6464095Y-10126429D01*
X6464095Y-10145476D01*
X6540286Y-9945476D02*
X6673619Y-9945476D01*
X6587905Y-10145476D01*
X6845048Y-9945476D02*
X6749809Y-9945476D01*
X6740286Y-10040714D01*
X6749809Y-10031190D01*
X6768857Y-10021667D01*
X6816476Y-10021667D01*
X6835524Y-10031190D01*
X6845048Y-10040714D01*
X6854571Y-10059762D01*
X6854571Y-10107381D01*
X6845048Y-10126429D01*
X6835524Y-10135952D01*
X6816476Y-10145476D01*
X6768857Y-10145476D01*
X6749809Y-10135952D01*
X6740286Y-10126429D01*
X6978381Y-9945476D02*
X6997428Y-9945476D01*
X7016476Y-9955000D01*
X7026000Y-9964524D01*
X7035524Y-9983571D01*
X7045048Y-10021667D01*
X7045048Y-10069286D01*
X7035524Y-10107381D01*
X7026000Y-10126429D01*
X7016476Y-10135952D01*
X6997428Y-10145476D01*
X6978381Y-10145476D01*
X6959333Y-10135952D01*
X6949809Y-10126429D01*
X6940286Y-10107381D01*
X6930762Y-10069286D01*
X6930762Y-10021667D01*
X6940286Y-9983571D01*
X6949809Y-9964524D01*
X6959333Y-9955000D01*
X6978381Y-9945476D01*
X7130762Y-10145476D02*
X7130762Y-10012143D01*
X7130762Y-10031190D02*
X7140286Y-10021667D01*
X7159333Y-10012143D01*
X7187905Y-10012143D01*
X7206952Y-10021667D01*
X7216476Y-10040714D01*
X7216476Y-10145476D01*
X7216476Y-10040714D02*
X7226000Y-10021667D01*
X7245048Y-10012143D01*
X7273619Y-10012143D01*
X7292667Y-10021667D01*
X7302190Y-10040714D01*
X7302190Y-10145476D01*
X7397428Y-10145476D02*
X7397428Y-10012143D01*
X7397428Y-10031190D02*
X7406952Y-10021667D01*
X7426000Y-10012143D01*
X7454571Y-10012143D01*
X7473619Y-10021667D01*
X7483143Y-10040714D01*
X7483143Y-10145476D01*
X7483143Y-10040714D02*
X7492667Y-10021667D01*
X7511714Y-10012143D01*
X7540286Y-10012143D01*
X7559333Y-10021667D01*
X7568857Y-10040714D01*
X7568857Y-10145476D01*
X7959333Y-9935952D02*
X7787905Y-10193095D01*
X8216476Y-9945476D02*
X8235524Y-9945476D01*
X8254571Y-9955000D01*
X8264095Y-9964524D01*
X8273619Y-9983571D01*
X8283143Y-10021667D01*
X8283143Y-10069286D01*
X8273619Y-10107381D01*
X8264095Y-10126429D01*
X8254571Y-10135952D01*
X8235524Y-10145476D01*
X8216476Y-10145476D01*
X8197428Y-10135952D01*
X8187905Y-10126429D01*
X8178381Y-10107381D01*
X8168857Y-10069286D01*
X8168857Y-10021667D01*
X8178381Y-9983571D01*
X8187905Y-9964524D01*
X8197428Y-9955000D01*
X8216476Y-9945476D01*
X8368857Y-10126429D02*
X8378381Y-10135952D01*
X8368857Y-10145476D01*
X8359333Y-10135952D01*
X8368857Y-10126429D01*
X8368857Y-10145476D01*
X8502190Y-9945476D02*
X8521238Y-9945476D01*
X8540286Y-9955000D01*
X8549810Y-9964524D01*
X8559333Y-9983571D01*
X8568857Y-10021667D01*
X8568857Y-10069286D01*
X8559333Y-10107381D01*
X8549810Y-10126429D01*
X8540286Y-10135952D01*
X8521238Y-10145476D01*
X8502190Y-10145476D01*
X8483143Y-10135952D01*
X8473619Y-10126429D01*
X8464095Y-10107381D01*
X8454571Y-10069286D01*
X8454571Y-10021667D01*
X8464095Y-9983571D01*
X8473619Y-9964524D01*
X8483143Y-9955000D01*
X8502190Y-9945476D01*
X8645048Y-9964524D02*
X8654571Y-9955000D01*
X8673619Y-9945476D01*
X8721238Y-9945476D01*
X8740286Y-9955000D01*
X8749810Y-9964524D01*
X8759333Y-9983571D01*
X8759333Y-10002619D01*
X8749810Y-10031190D01*
X8635524Y-10145476D01*
X8759333Y-10145476D01*
X8854571Y-10145476D02*
X8892667Y-10145476D01*
X8911714Y-10135952D01*
X8921238Y-10126429D01*
X8940286Y-10097857D01*
X8949810Y-10059762D01*
X8949810Y-9983571D01*
X8940286Y-9964524D01*
X8930762Y-9955000D01*
X8911714Y-9945476D01*
X8873619Y-9945476D01*
X8854571Y-9955000D01*
X8845048Y-9964524D01*
X8835524Y-9983571D01*
X8835524Y-10031190D01*
X8845048Y-10050238D01*
X8854571Y-10059762D01*
X8873619Y-10069286D01*
X8911714Y-10069286D01*
X8930762Y-10059762D01*
X8940286Y-10050238D01*
X8949810Y-10031190D01*
X9130762Y-9945476D02*
X9035524Y-9945476D01*
X9026000Y-10040714D01*
X9035524Y-10031190D01*
X9054571Y-10021667D01*
X9102190Y-10021667D01*
X9121238Y-10031190D01*
X9130762Y-10040714D01*
X9140286Y-10059762D01*
X9140286Y-10107381D01*
X9130762Y-10126429D01*
X9121238Y-10135952D01*
X9102190Y-10145476D01*
X9054571Y-10145476D01*
X9035524Y-10135952D01*
X9026000Y-10126429D01*
X9216476Y-9945476D02*
X9216476Y-9983571D01*
X9292667Y-9945476D02*
X9292667Y-9983571D01*
X9587905Y-10221667D02*
X9578381Y-10212143D01*
X9559333Y-10183571D01*
X9549810Y-10164524D01*
X9540286Y-10135952D01*
X9530762Y-10088333D01*
X9530762Y-10050238D01*
X9540286Y-10002619D01*
X9549810Y-9974048D01*
X9559333Y-9955000D01*
X9578381Y-9926429D01*
X9587905Y-9916905D01*
X9654571Y-9964524D02*
X9664095Y-9955000D01*
X9683143Y-9945476D01*
X9730762Y-9945476D01*
X9749810Y-9955000D01*
X9759333Y-9964524D01*
X9768857Y-9983571D01*
X9768857Y-10002619D01*
X9759333Y-10031190D01*
X9645048Y-10145476D01*
X9768857Y-10145476D01*
X10006952Y-10145476D02*
X10006952Y-9945476D01*
X10092667Y-10145476D02*
X10092667Y-10040714D01*
X10083143Y-10021667D01*
X10064095Y-10012143D01*
X10035524Y-10012143D01*
X10016476Y-10021667D01*
X10006952Y-10031190D01*
X10216476Y-10145476D02*
X10197429Y-10135952D01*
X10187905Y-10126429D01*
X10178381Y-10107381D01*
X10178381Y-10050238D01*
X10187905Y-10031190D01*
X10197429Y-10021667D01*
X10216476Y-10012143D01*
X10245048Y-10012143D01*
X10264095Y-10021667D01*
X10273619Y-10031190D01*
X10283143Y-10050238D01*
X10283143Y-10107381D01*
X10273619Y-10126429D01*
X10264095Y-10135952D01*
X10245048Y-10145476D01*
X10216476Y-10145476D01*
X10397429Y-10145476D02*
X10378381Y-10135952D01*
X10368857Y-10116905D01*
X10368857Y-9945476D01*
X10549810Y-10135952D02*
X10530762Y-10145476D01*
X10492667Y-10145476D01*
X10473619Y-10135952D01*
X10464095Y-10116905D01*
X10464095Y-10040714D01*
X10473619Y-10021667D01*
X10492667Y-10012143D01*
X10530762Y-10012143D01*
X10549810Y-10021667D01*
X10559333Y-10040714D01*
X10559333Y-10059762D01*
X10464095Y-10078810D01*
X10635524Y-10135952D02*
X10654571Y-10145476D01*
X10692667Y-10145476D01*
X10711714Y-10135952D01*
X10721238Y-10116905D01*
X10721238Y-10107381D01*
X10711714Y-10088333D01*
X10692667Y-10078810D01*
X10664095Y-10078810D01*
X10645048Y-10069286D01*
X10635524Y-10050238D01*
X10635524Y-10040714D01*
X10645048Y-10021667D01*
X10664095Y-10012143D01*
X10692667Y-10012143D01*
X10711714Y-10021667D01*
X10787905Y-10221667D02*
X10797429Y-10212143D01*
X10816476Y-10183571D01*
X10826000Y-10164524D01*
X10835524Y-10135952D01*
X10845048Y-10088333D01*
X10845048Y-10050238D01*
X10835524Y-10002619D01*
X10826000Y-9974048D01*
X10816476Y-9955000D01*
X10797429Y-9926429D01*
X10787905Y-9916905D01*
D13*
X6016000Y-10319000D02*
G75*
G03*
X6016000Y-10319000I-40000J0D01*
G01*
D11*
X6311714Y-10209476D02*
X6330762Y-10209476D01*
X6349809Y-10219000D01*
X6359333Y-10228524D01*
X6368857Y-10247571D01*
X6378381Y-10285667D01*
X6378381Y-10333286D01*
X6368857Y-10371381D01*
X6359333Y-10390429D01*
X6349809Y-10399952D01*
X6330762Y-10409476D01*
X6311714Y-10409476D01*
X6292667Y-10399952D01*
X6283143Y-10390429D01*
X6273619Y-10371381D01*
X6264095Y-10333286D01*
X6264095Y-10285667D01*
X6273619Y-10247571D01*
X6283143Y-10228524D01*
X6292667Y-10219000D01*
X6311714Y-10209476D01*
X6464095Y-10390429D02*
X6473619Y-10399952D01*
X6464095Y-10409476D01*
X6454571Y-10399952D01*
X6464095Y-10390429D01*
X6464095Y-10409476D01*
X6587905Y-10295190D02*
X6568857Y-10285667D01*
X6559333Y-10276143D01*
X6549809Y-10257095D01*
X6549809Y-10247571D01*
X6559333Y-10228524D01*
X6568857Y-10219000D01*
X6587905Y-10209476D01*
X6626000Y-10209476D01*
X6645048Y-10219000D01*
X6654571Y-10228524D01*
X6664095Y-10247571D01*
X6664095Y-10257095D01*
X6654571Y-10276143D01*
X6645048Y-10285667D01*
X6626000Y-10295190D01*
X6587905Y-10295190D01*
X6568857Y-10304714D01*
X6559333Y-10314238D01*
X6549809Y-10333286D01*
X6549809Y-10371381D01*
X6559333Y-10390429D01*
X6568857Y-10399952D01*
X6587905Y-10409476D01*
X6626000Y-10409476D01*
X6645048Y-10399952D01*
X6654571Y-10390429D01*
X6664095Y-10371381D01*
X6664095Y-10333286D01*
X6654571Y-10314238D01*
X6645048Y-10304714D01*
X6626000Y-10295190D01*
X6787905Y-10209476D02*
X6806952Y-10209476D01*
X6826000Y-10219000D01*
X6835524Y-10228524D01*
X6845048Y-10247571D01*
X6854571Y-10285667D01*
X6854571Y-10333286D01*
X6845048Y-10371381D01*
X6835524Y-10390429D01*
X6826000Y-10399952D01*
X6806952Y-10409476D01*
X6787905Y-10409476D01*
X6768857Y-10399952D01*
X6759333Y-10390429D01*
X6749809Y-10371381D01*
X6740286Y-10333286D01*
X6740286Y-10285667D01*
X6749809Y-10247571D01*
X6759333Y-10228524D01*
X6768857Y-10219000D01*
X6787905Y-10209476D01*
X6978381Y-10209476D02*
X6997428Y-10209476D01*
X7016476Y-10219000D01*
X7026000Y-10228524D01*
X7035524Y-10247571D01*
X7045048Y-10285667D01*
X7045048Y-10333286D01*
X7035524Y-10371381D01*
X7026000Y-10390429D01*
X7016476Y-10399952D01*
X6997428Y-10409476D01*
X6978381Y-10409476D01*
X6959333Y-10399952D01*
X6949809Y-10390429D01*
X6940286Y-10371381D01*
X6930762Y-10333286D01*
X6930762Y-10285667D01*
X6940286Y-10247571D01*
X6949809Y-10228524D01*
X6959333Y-10219000D01*
X6978381Y-10209476D01*
X7130762Y-10409476D02*
X7130762Y-10276143D01*
X7130762Y-10295190D02*
X7140286Y-10285667D01*
X7159333Y-10276143D01*
X7187905Y-10276143D01*
X7206952Y-10285667D01*
X7216476Y-10304714D01*
X7216476Y-10409476D01*
X7216476Y-10304714D02*
X7226000Y-10285667D01*
X7245048Y-10276143D01*
X7273619Y-10276143D01*
X7292667Y-10285667D01*
X7302190Y-10304714D01*
X7302190Y-10409476D01*
X7397428Y-10409476D02*
X7397428Y-10276143D01*
X7397428Y-10295190D02*
X7406952Y-10285667D01*
X7426000Y-10276143D01*
X7454571Y-10276143D01*
X7473619Y-10285667D01*
X7483143Y-10304714D01*
X7483143Y-10409476D01*
X7483143Y-10304714D02*
X7492667Y-10285667D01*
X7511714Y-10276143D01*
X7540286Y-10276143D01*
X7559333Y-10285667D01*
X7568857Y-10304714D01*
X7568857Y-10409476D01*
X7959333Y-10199952D02*
X7787905Y-10457095D01*
X8216476Y-10209476D02*
X8235524Y-10209476D01*
X8254571Y-10219000D01*
X8264095Y-10228524D01*
X8273619Y-10247571D01*
X8283143Y-10285667D01*
X8283143Y-10333286D01*
X8273619Y-10371381D01*
X8264095Y-10390429D01*
X8254571Y-10399952D01*
X8235524Y-10409476D01*
X8216476Y-10409476D01*
X8197428Y-10399952D01*
X8187905Y-10390429D01*
X8178381Y-10371381D01*
X8168857Y-10333286D01*
X8168857Y-10285667D01*
X8178381Y-10247571D01*
X8187905Y-10228524D01*
X8197428Y-10219000D01*
X8216476Y-10209476D01*
X8368857Y-10390429D02*
X8378381Y-10399952D01*
X8368857Y-10409476D01*
X8359333Y-10399952D01*
X8368857Y-10390429D01*
X8368857Y-10409476D01*
X8502190Y-10209476D02*
X8521238Y-10209476D01*
X8540286Y-10219000D01*
X8549810Y-10228524D01*
X8559333Y-10247571D01*
X8568857Y-10285667D01*
X8568857Y-10333286D01*
X8559333Y-10371381D01*
X8549810Y-10390429D01*
X8540286Y-10399952D01*
X8521238Y-10409476D01*
X8502190Y-10409476D01*
X8483143Y-10399952D01*
X8473619Y-10390429D01*
X8464095Y-10371381D01*
X8454571Y-10333286D01*
X8454571Y-10285667D01*
X8464095Y-10247571D01*
X8473619Y-10228524D01*
X8483143Y-10219000D01*
X8502190Y-10209476D01*
X8635524Y-10209476D02*
X8759333Y-10209476D01*
X8692667Y-10285667D01*
X8721238Y-10285667D01*
X8740286Y-10295190D01*
X8749810Y-10304714D01*
X8759333Y-10323762D01*
X8759333Y-10371381D01*
X8749810Y-10390429D01*
X8740286Y-10399952D01*
X8721238Y-10409476D01*
X8664095Y-10409476D01*
X8645048Y-10399952D01*
X8635524Y-10390429D01*
X8949810Y-10409476D02*
X8835524Y-10409476D01*
X8892667Y-10409476D02*
X8892667Y-10209476D01*
X8873619Y-10238048D01*
X8854571Y-10257095D01*
X8835524Y-10266619D01*
X9130762Y-10209476D02*
X9035524Y-10209476D01*
X9026000Y-10304714D01*
X9035524Y-10295190D01*
X9054571Y-10285667D01*
X9102190Y-10285667D01*
X9121238Y-10295190D01*
X9130762Y-10304714D01*
X9140286Y-10323762D01*
X9140286Y-10371381D01*
X9130762Y-10390429D01*
X9121238Y-10399952D01*
X9102190Y-10409476D01*
X9054571Y-10409476D01*
X9035524Y-10399952D01*
X9026000Y-10390429D01*
X9216476Y-10209476D02*
X9216476Y-10247571D01*
X9292667Y-10209476D02*
X9292667Y-10247571D01*
X9587905Y-10485667D02*
X9578381Y-10476143D01*
X9559333Y-10447571D01*
X9549810Y-10428524D01*
X9540286Y-10399952D01*
X9530762Y-10352333D01*
X9530762Y-10314238D01*
X9540286Y-10266619D01*
X9549810Y-10238048D01*
X9559333Y-10219000D01*
X9578381Y-10190429D01*
X9587905Y-10180905D01*
X9768857Y-10409476D02*
X9654571Y-10409476D01*
X9711714Y-10409476D02*
X9711714Y-10209476D01*
X9692667Y-10238048D01*
X9673619Y-10257095D01*
X9654571Y-10266619D01*
X9949810Y-10209476D02*
X9854571Y-10209476D01*
X9845048Y-10304714D01*
X9854571Y-10295190D01*
X9873619Y-10285667D01*
X9921238Y-10285667D01*
X9940286Y-10295190D01*
X9949810Y-10304714D01*
X9959333Y-10323762D01*
X9959333Y-10371381D01*
X9949810Y-10390429D01*
X9940286Y-10399952D01*
X9921238Y-10409476D01*
X9873619Y-10409476D01*
X9854571Y-10399952D01*
X9845048Y-10390429D01*
X10197429Y-10409476D02*
X10197429Y-10209476D01*
X10283143Y-10409476D02*
X10283143Y-10304714D01*
X10273619Y-10285667D01*
X10254571Y-10276143D01*
X10226000Y-10276143D01*
X10206952Y-10285667D01*
X10197429Y-10295190D01*
X10406952Y-10409476D02*
X10387905Y-10399952D01*
X10378381Y-10390429D01*
X10368857Y-10371381D01*
X10368857Y-10314238D01*
X10378381Y-10295190D01*
X10387905Y-10285667D01*
X10406952Y-10276143D01*
X10435524Y-10276143D01*
X10454571Y-10285667D01*
X10464095Y-10295190D01*
X10473619Y-10314238D01*
X10473619Y-10371381D01*
X10464095Y-10390429D01*
X10454571Y-10399952D01*
X10435524Y-10409476D01*
X10406952Y-10409476D01*
X10587905Y-10409476D02*
X10568857Y-10399952D01*
X10559333Y-10380905D01*
X10559333Y-10209476D01*
X10740286Y-10399952D02*
X10721238Y-10409476D01*
X10683143Y-10409476D01*
X10664095Y-10399952D01*
X10654571Y-10380905D01*
X10654571Y-10304714D01*
X10664095Y-10285667D01*
X10683143Y-10276143D01*
X10721238Y-10276143D01*
X10740286Y-10285667D01*
X10749810Y-10304714D01*
X10749810Y-10323762D01*
X10654571Y-10342810D01*
X10826000Y-10399952D02*
X10845048Y-10409476D01*
X10883143Y-10409476D01*
X10902190Y-10399952D01*
X10911714Y-10380905D01*
X10911714Y-10371381D01*
X10902190Y-10352333D01*
X10883143Y-10342810D01*
X10854571Y-10342810D01*
X10835524Y-10333286D01*
X10826000Y-10314238D01*
X10826000Y-10304714D01*
X10835524Y-10285667D01*
X10854571Y-10276143D01*
X10883143Y-10276143D01*
X10902190Y-10285667D01*
X10978381Y-10485667D02*
X10987905Y-10476143D01*
X11006952Y-10447571D01*
X11016476Y-10428524D01*
X11026000Y-10399952D01*
X11035524Y-10352333D01*
X11035524Y-10314238D01*
X11026000Y-10266619D01*
X11016476Y-10238048D01*
X11006952Y-10219000D01*
X10987905Y-10190429D01*
X10978381Y-10180905D01*
D13*
X5976000Y-10543000D02*
X5976000Y-10623000D01*
X5936000Y-10583000D02*
X6016000Y-10583000D01*
D11*
X6311714Y-10473476D02*
X6330762Y-10473476D01*
X6349809Y-10483000D01*
X6359333Y-10492524D01*
X6368857Y-10511571D01*
X6378381Y-10549667D01*
X6378381Y-10597286D01*
X6368857Y-10635381D01*
X6359333Y-10654429D01*
X6349809Y-10663952D01*
X6330762Y-10673476D01*
X6311714Y-10673476D01*
X6292667Y-10663952D01*
X6283143Y-10654429D01*
X6273619Y-10635381D01*
X6264095Y-10597286D01*
X6264095Y-10549667D01*
X6273619Y-10511571D01*
X6283143Y-10492524D01*
X6292667Y-10483000D01*
X6311714Y-10473476D01*
X6464095Y-10654429D02*
X6473619Y-10663952D01*
X6464095Y-10673476D01*
X6454571Y-10663952D01*
X6464095Y-10654429D01*
X6464095Y-10673476D01*
X6587905Y-10559190D02*
X6568857Y-10549667D01*
X6559333Y-10540143D01*
X6549809Y-10521095D01*
X6549809Y-10511571D01*
X6559333Y-10492524D01*
X6568857Y-10483000D01*
X6587905Y-10473476D01*
X6626000Y-10473476D01*
X6645048Y-10483000D01*
X6654571Y-10492524D01*
X6664095Y-10511571D01*
X6664095Y-10521095D01*
X6654571Y-10540143D01*
X6645048Y-10549667D01*
X6626000Y-10559190D01*
X6587905Y-10559190D01*
X6568857Y-10568714D01*
X6559333Y-10578238D01*
X6549809Y-10597286D01*
X6549809Y-10635381D01*
X6559333Y-10654429D01*
X6568857Y-10663952D01*
X6587905Y-10673476D01*
X6626000Y-10673476D01*
X6645048Y-10663952D01*
X6654571Y-10654429D01*
X6664095Y-10635381D01*
X6664095Y-10597286D01*
X6654571Y-10578238D01*
X6645048Y-10568714D01*
X6626000Y-10559190D01*
X6787905Y-10473476D02*
X6806952Y-10473476D01*
X6826000Y-10483000D01*
X6835524Y-10492524D01*
X6845048Y-10511571D01*
X6854571Y-10549667D01*
X6854571Y-10597286D01*
X6845048Y-10635381D01*
X6835524Y-10654429D01*
X6826000Y-10663952D01*
X6806952Y-10673476D01*
X6787905Y-10673476D01*
X6768857Y-10663952D01*
X6759333Y-10654429D01*
X6749809Y-10635381D01*
X6740286Y-10597286D01*
X6740286Y-10549667D01*
X6749809Y-10511571D01*
X6759333Y-10492524D01*
X6768857Y-10483000D01*
X6787905Y-10473476D01*
X6978381Y-10473476D02*
X6997428Y-10473476D01*
X7016476Y-10483000D01*
X7026000Y-10492524D01*
X7035524Y-10511571D01*
X7045048Y-10549667D01*
X7045048Y-10597286D01*
X7035524Y-10635381D01*
X7026000Y-10654429D01*
X7016476Y-10663952D01*
X6997428Y-10673476D01*
X6978381Y-10673476D01*
X6959333Y-10663952D01*
X6949809Y-10654429D01*
X6940286Y-10635381D01*
X6930762Y-10597286D01*
X6930762Y-10549667D01*
X6940286Y-10511571D01*
X6949809Y-10492524D01*
X6959333Y-10483000D01*
X6978381Y-10473476D01*
X7130762Y-10673476D02*
X7130762Y-10540143D01*
X7130762Y-10559190D02*
X7140286Y-10549667D01*
X7159333Y-10540143D01*
X7187905Y-10540143D01*
X7206952Y-10549667D01*
X7216476Y-10568714D01*
X7216476Y-10673476D01*
X7216476Y-10568714D02*
X7226000Y-10549667D01*
X7245048Y-10540143D01*
X7273619Y-10540143D01*
X7292667Y-10549667D01*
X7302190Y-10568714D01*
X7302190Y-10673476D01*
X7397428Y-10673476D02*
X7397428Y-10540143D01*
X7397428Y-10559190D02*
X7406952Y-10549667D01*
X7426000Y-10540143D01*
X7454571Y-10540143D01*
X7473619Y-10549667D01*
X7483143Y-10568714D01*
X7483143Y-10673476D01*
X7483143Y-10568714D02*
X7492667Y-10549667D01*
X7511714Y-10540143D01*
X7540286Y-10540143D01*
X7559333Y-10549667D01*
X7568857Y-10568714D01*
X7568857Y-10673476D01*
X7959333Y-10463952D02*
X7787905Y-10721095D01*
X8216476Y-10473476D02*
X8235524Y-10473476D01*
X8254571Y-10483000D01*
X8264095Y-10492524D01*
X8273619Y-10511571D01*
X8283143Y-10549667D01*
X8283143Y-10597286D01*
X8273619Y-10635381D01*
X8264095Y-10654429D01*
X8254571Y-10663952D01*
X8235524Y-10673476D01*
X8216476Y-10673476D01*
X8197428Y-10663952D01*
X8187905Y-10654429D01*
X8178381Y-10635381D01*
X8168857Y-10597286D01*
X8168857Y-10549667D01*
X8178381Y-10511571D01*
X8187905Y-10492524D01*
X8197428Y-10483000D01*
X8216476Y-10473476D01*
X8368857Y-10654429D02*
X8378381Y-10663952D01*
X8368857Y-10673476D01*
X8359333Y-10663952D01*
X8368857Y-10654429D01*
X8368857Y-10673476D01*
X8502190Y-10473476D02*
X8521238Y-10473476D01*
X8540286Y-10483000D01*
X8549810Y-10492524D01*
X8559333Y-10511571D01*
X8568857Y-10549667D01*
X8568857Y-10597286D01*
X8559333Y-10635381D01*
X8549810Y-10654429D01*
X8540286Y-10663952D01*
X8521238Y-10673476D01*
X8502190Y-10673476D01*
X8483143Y-10663952D01*
X8473619Y-10654429D01*
X8464095Y-10635381D01*
X8454571Y-10597286D01*
X8454571Y-10549667D01*
X8464095Y-10511571D01*
X8473619Y-10492524D01*
X8483143Y-10483000D01*
X8502190Y-10473476D01*
X8635524Y-10473476D02*
X8759333Y-10473476D01*
X8692667Y-10549667D01*
X8721238Y-10549667D01*
X8740286Y-10559190D01*
X8749810Y-10568714D01*
X8759333Y-10587762D01*
X8759333Y-10635381D01*
X8749810Y-10654429D01*
X8740286Y-10663952D01*
X8721238Y-10673476D01*
X8664095Y-10673476D01*
X8645048Y-10663952D01*
X8635524Y-10654429D01*
X8949810Y-10673476D02*
X8835524Y-10673476D01*
X8892667Y-10673476D02*
X8892667Y-10473476D01*
X8873619Y-10502048D01*
X8854571Y-10521095D01*
X8835524Y-10530619D01*
X9130762Y-10473476D02*
X9035524Y-10473476D01*
X9026000Y-10568714D01*
X9035524Y-10559190D01*
X9054571Y-10549667D01*
X9102190Y-10549667D01*
X9121238Y-10559190D01*
X9130762Y-10568714D01*
X9140286Y-10587762D01*
X9140286Y-10635381D01*
X9130762Y-10654429D01*
X9121238Y-10663952D01*
X9102190Y-10673476D01*
X9054571Y-10673476D01*
X9035524Y-10663952D01*
X9026000Y-10654429D01*
X9216476Y-10473476D02*
X9216476Y-10511571D01*
X9292667Y-10473476D02*
X9292667Y-10511571D01*
X9587905Y-10749667D02*
X9578381Y-10740143D01*
X9559333Y-10711571D01*
X9549810Y-10692524D01*
X9540286Y-10663952D01*
X9530762Y-10616333D01*
X9530762Y-10578238D01*
X9540286Y-10530619D01*
X9549810Y-10502048D01*
X9559333Y-10483000D01*
X9578381Y-10454429D01*
X9587905Y-10444905D01*
X9692667Y-10559190D02*
X9673619Y-10549667D01*
X9664095Y-10540143D01*
X9654571Y-10521095D01*
X9654571Y-10511571D01*
X9664095Y-10492524D01*
X9673619Y-10483000D01*
X9692667Y-10473476D01*
X9730762Y-10473476D01*
X9749810Y-10483000D01*
X9759333Y-10492524D01*
X9768857Y-10511571D01*
X9768857Y-10521095D01*
X9759333Y-10540143D01*
X9749810Y-10549667D01*
X9730762Y-10559190D01*
X9692667Y-10559190D01*
X9673619Y-10568714D01*
X9664095Y-10578238D01*
X9654571Y-10597286D01*
X9654571Y-10635381D01*
X9664095Y-10654429D01*
X9673619Y-10663952D01*
X9692667Y-10673476D01*
X9730762Y-10673476D01*
X9749810Y-10663952D01*
X9759333Y-10654429D01*
X9768857Y-10635381D01*
X9768857Y-10597286D01*
X9759333Y-10578238D01*
X9749810Y-10568714D01*
X9730762Y-10559190D01*
X9892667Y-10473476D02*
X9911714Y-10473476D01*
X9930762Y-10483000D01*
X9940286Y-10492524D01*
X9949810Y-10511571D01*
X9959333Y-10549667D01*
X9959333Y-10597286D01*
X9949810Y-10635381D01*
X9940286Y-10654429D01*
X9930762Y-10663952D01*
X9911714Y-10673476D01*
X9892667Y-10673476D01*
X9873619Y-10663952D01*
X9864095Y-10654429D01*
X9854571Y-10635381D01*
X9845048Y-10597286D01*
X9845048Y-10549667D01*
X9854571Y-10511571D01*
X9864095Y-10492524D01*
X9873619Y-10483000D01*
X9892667Y-10473476D01*
X10197429Y-10673476D02*
X10197429Y-10473476D01*
X10283143Y-10673476D02*
X10283143Y-10568714D01*
X10273619Y-10549667D01*
X10254571Y-10540143D01*
X10226000Y-10540143D01*
X10206952Y-10549667D01*
X10197429Y-10559190D01*
X10406952Y-10673476D02*
X10387905Y-10663952D01*
X10378381Y-10654429D01*
X10368857Y-10635381D01*
X10368857Y-10578238D01*
X10378381Y-10559190D01*
X10387905Y-10549667D01*
X10406952Y-10540143D01*
X10435524Y-10540143D01*
X10454571Y-10549667D01*
X10464095Y-10559190D01*
X10473619Y-10578238D01*
X10473619Y-10635381D01*
X10464095Y-10654429D01*
X10454571Y-10663952D01*
X10435524Y-10673476D01*
X10406952Y-10673476D01*
X10587905Y-10673476D02*
X10568857Y-10663952D01*
X10559333Y-10644905D01*
X10559333Y-10473476D01*
X10740286Y-10663952D02*
X10721238Y-10673476D01*
X10683143Y-10673476D01*
X10664095Y-10663952D01*
X10654571Y-10644905D01*
X10654571Y-10568714D01*
X10664095Y-10549667D01*
X10683143Y-10540143D01*
X10721238Y-10540143D01*
X10740286Y-10549667D01*
X10749810Y-10568714D01*
X10749810Y-10587762D01*
X10654571Y-10606810D01*
X10826000Y-10663952D02*
X10845048Y-10673476D01*
X10883143Y-10673476D01*
X10902190Y-10663952D01*
X10911714Y-10644905D01*
X10911714Y-10635381D01*
X10902190Y-10616333D01*
X10883143Y-10606810D01*
X10854571Y-10606810D01*
X10835524Y-10597286D01*
X10826000Y-10578238D01*
X10826000Y-10568714D01*
X10835524Y-10549667D01*
X10854571Y-10540143D01*
X10883143Y-10540143D01*
X10902190Y-10549667D01*
X10978381Y-10749667D02*
X10987905Y-10740143D01*
X11006952Y-10711571D01*
X11016476Y-10692524D01*
X11026000Y-10663952D01*
X11035524Y-10616333D01*
X11035524Y-10578238D01*
X11026000Y-10530619D01*
X11016476Y-10502048D01*
X11006952Y-10483000D01*
X10987905Y-10454429D01*
X10978381Y-10444905D01*
M02*
