M48
; DRILL file {KiCad (6.0.0)} date Tue Mar 15 15:16:08 2022
; FORMAT={-:-/ absolute / metric / decimal}
; #@! TF.CreationDate,2022-03-15T15:16:08+01:00
; #@! TF.GenerationSoftware,Kicad,Pcbnew,(6.0.0)
; #@! TF.FileFunction,Plated,1,2,PTH
FMAT,2
METRIC
; #@! TA.AperFunction,Plated,PTH,ViaDrill
T1C0.800
; #@! TA.AperFunction,Plated,PTH,ComponentDrill
T2C0.800
%
G90
G05
T1
X62.738Y-83.225
X63.5Y-46.736
X68.072Y-55.372
X72.39Y-62.23
X72.39Y-66.04
X73.152Y-46.736
X79.375Y-53.34
X80.01Y-38.354
X87.884Y-55.372
X101.6Y-45.212
X102.87Y-56.642
X121.666Y-57.15
X121.666Y-69.85
X121.666Y-82.55
X121.92Y-42.164
T2
X66.31Y-64.008
X66.31Y-66.008
X66.31Y-68.008
X66.506Y-75.454
X66.506Y-77.454
X68.31Y-64.008
X68.31Y-66.008
X68.31Y-68.008
X68.58Y-40.33
X68.58Y-42.87
X71.12Y-40.33
X71.12Y-42.87
X73.025Y-83.225
X73.025Y-88.225
X73.065Y-58.42
X73.66Y-40.33
X73.66Y-42.87
X75.946Y-64.008
X75.946Y-66.548
X76.2Y-40.33
X76.2Y-42.87
X78.065Y-58.42
X78.74Y-40.33
X78.74Y-42.87
X79.175Y-77.851
X81.28Y-40.33
X81.28Y-42.87
X83.82Y-40.33
X83.82Y-42.87
X84.075Y-77.851
X86.36Y-40.33
X86.36Y-42.87
X88.305Y-58.42
X88.9Y-40.33
X88.9Y-42.87
X90.17Y-83.225
X90.17Y-88.225
X91.44Y-40.33
X91.44Y-42.87
X93.305Y-58.42
X93.98Y-40.33
X93.98Y-42.87
X93.98Y-62.484
X93.98Y-72.644
X96.52Y-40.33
X96.52Y-42.87
X98.315Y-48.944
X98.315Y-70.944
X99.06Y-40.33
X99.06Y-42.87
X100.315Y-48.944
X100.315Y-70.944
X101.6Y-40.33
X101.6Y-42.87
X102.315Y-48.944
X102.315Y-70.944
X104.14Y-40.33
X104.14Y-42.87
X104.315Y-48.944
X104.315Y-70.944
X106.315Y-48.944
X106.315Y-70.944
X106.68Y-40.33
X106.68Y-42.87
X108.315Y-48.944
X108.315Y-70.944
X109.22Y-40.33
X109.22Y-42.87
X110.315Y-48.944
X110.315Y-70.944
X111.76Y-40.33
X111.76Y-42.87
X112.315Y-48.944
X112.315Y-70.944
X114.3Y-40.33
X114.3Y-42.87
X114.315Y-48.944
X114.315Y-70.944
X116.315Y-48.944
X116.315Y-70.944
X116.84Y-40.33
X116.84Y-42.87
T0
M30
