G04 #@! TF.GenerationSoftware,KiCad,Pcbnew,(6.0.0)*
G04 #@! TF.CreationDate,2022-05-07T20:36:52+02:00*
G04 #@! TF.ProjectId,RPi_Hat,5250695f-4861-4742-9e6b-696361645f70,rev?*
G04 #@! TF.SameCoordinates,Original*
G04 #@! TF.FileFunction,Soldermask,Bot*
G04 #@! TF.FilePolarity,Negative*
%FSLAX46Y46*%
G04 Gerber Fmt 4.6, Leading zero omitted, Abs format (unit mm)*
G04 Created by KiCad (PCBNEW (6.0.0)) date 2022-05-07 20:36:52*
%MOMM*%
%LPD*%
G01*
G04 APERTURE LIST*
G04 Aperture macros list*
%AMRoundRect*
0 Rectangle with rounded corners*
0 $1 Rounding radius*
0 $2 $3 $4 $5 $6 $7 $8 $9 X,Y pos of 4 corners*
0 Add a 4 corners polygon primitive as box body*
4,1,4,$2,$3,$4,$5,$6,$7,$8,$9,$2,$3,0*
0 Add four circle primitives for the rounded corners*
1,1,$1+$1,$2,$3*
1,1,$1+$1,$4,$5*
1,1,$1+$1,$6,$7*
1,1,$1+$1,$8,$9*
0 Add four rect primitives between the rounded corners*
20,1,$1+$1,$2,$3,$4,$5,0*
20,1,$1+$1,$4,$5,$6,$7,0*
20,1,$1+$1,$6,$7,$8,$9,0*
20,1,$1+$1,$8,$9,$2,$3,0*%
G04 Aperture macros list end*
G04 #@! TA.AperFunction,Profile*
%ADD10C,0.100000*%
G04 #@! TD*
%ADD11C,6.200000*%
%ADD12R,1.727200X1.727200*%
%ADD13O,1.727200X1.727200*%
%ADD14RoundRect,0.312500X0.437500X0.687500X-0.437500X0.687500X-0.437500X-0.687500X0.437500X-0.687500X0*%
%ADD15O,1.500000X2.000000*%
%ADD16RoundRect,0.312500X0.687500X-0.437500X0.687500X0.437500X-0.687500X0.437500X-0.687500X-0.437500X0*%
%ADD17O,2.000000X1.500000*%
%ADD18C,1.600000*%
%ADD19O,1.600000X1.600000*%
%ADD20R,1.700000X1.700000*%
%ADD21C,2.000000*%
%ADD22RoundRect,0.312500X-0.787500X0.437500X-0.787500X-0.437500X0.787500X-0.437500X0.787500X0.437500X0*%
%ADD23RoundRect,0.312500X0.787500X-0.437500X0.787500X0.437500X-0.787500X0.437500X-0.787500X-0.437500X0*%
%ADD24RoundRect,0.400000X-0.400000X1.600000X-0.400000X-1.600000X0.400000X-1.600000X0.400000X1.600000X0*%
%ADD25C,1.000000*%
G04 APERTURE END LIST*
D10*
X125222000Y-38052000D02*
G75*
G03*
X122222000Y-35052000I-3000001J-1D01*
G01*
X63246000Y-35052000D02*
G75*
G03*
X60246000Y-38052000I1J-3000001D01*
G01*
X60210000Y-91100000D02*
G75*
G03*
X63210000Y-94100000I3000001J1D01*
G01*
X122210000Y-94100000D02*
G75*
G03*
X125210000Y-91100000I-1J3000001D01*
G01*
X106210000Y-75100000D02*
X106210000Y-90100000D01*
X104210000Y-90100000D02*
G75*
G03*
X106210000Y-90100000I1000000J0D01*
G01*
X60210000Y-56600000D02*
X60210000Y-75600000D01*
X125210000Y-40600000D02*
X125210000Y-91100000D01*
X125222000Y-38052000D02*
X125210000Y-40600000D01*
X63246000Y-35052000D02*
X122222000Y-35052000D01*
X60246000Y-38052000D02*
X60210000Y-56600000D01*
X104210000Y-75100000D02*
X104210000Y-90100000D01*
X106210000Y-75100000D02*
G75*
G03*
X104210000Y-75100000I-1000000J0D01*
G01*
X60210000Y-75600000D02*
X60210000Y-91100000D01*
X63210000Y-94100000D02*
X122210000Y-94100000D01*
D11*
X63710000Y-90600000D03*
X121710000Y-90600000D03*
D12*
X68580000Y-42870000D03*
D13*
X68580000Y-40330000D03*
X71120000Y-42870000D03*
X71120000Y-40330000D03*
X73660000Y-42870000D03*
X73660000Y-40330000D03*
X76200000Y-42870000D03*
X76200000Y-40330000D03*
X78740000Y-42870000D03*
X78740000Y-40330000D03*
X81280000Y-42870000D03*
X81280000Y-40330000D03*
X83820000Y-42870000D03*
X83820000Y-40330000D03*
X86360000Y-42870000D03*
X86360000Y-40330000D03*
X88900000Y-42870000D03*
X88900000Y-40330000D03*
X91440000Y-42870000D03*
X91440000Y-40330000D03*
X93980000Y-42870000D03*
X93980000Y-40330000D03*
X96520000Y-42870000D03*
X96520000Y-40330000D03*
X99060000Y-42870000D03*
X99060000Y-40330000D03*
X101600000Y-42870000D03*
X101600000Y-40330000D03*
X104140000Y-42870000D03*
X104140000Y-40330000D03*
X106680000Y-42870000D03*
X106680000Y-40330000D03*
X109220000Y-42870000D03*
X109220000Y-40330000D03*
X111760000Y-42870000D03*
X111760000Y-40330000D03*
X114300000Y-42870000D03*
X114300000Y-40330000D03*
X116840000Y-42870000D03*
X116840000Y-40330000D03*
D14*
X80391000Y-48260000D03*
D15*
X78391000Y-48260000D03*
X76391000Y-48260000D03*
X74391000Y-48260000D03*
D16*
X66760000Y-80756000D03*
D17*
X66760000Y-78756000D03*
D18*
X88305000Y-58420000D03*
X93305000Y-58420000D03*
X73065000Y-58420000D03*
X78065000Y-58420000D03*
X92710000Y-64516000D03*
D19*
X92710000Y-74676000D03*
D18*
X79175000Y-76835000D03*
X84075000Y-76835000D03*
X75946000Y-66548000D03*
D19*
X75946000Y-64008000D03*
D16*
X66548000Y-61976000D03*
D17*
X66548000Y-59976000D03*
D18*
X90170000Y-83225000D03*
X90170000Y-88225000D03*
D20*
X69850000Y-46736000D03*
D21*
X69850000Y-49276000D03*
X67310000Y-46736000D03*
X67310000Y-49276000D03*
D18*
X73025000Y-83225000D03*
X73025000Y-88225000D03*
D22*
X68626000Y-67564000D03*
D23*
X66026000Y-67564000D03*
D22*
X68626000Y-69564000D03*
D23*
X66026000Y-69564000D03*
D22*
X68626000Y-71564000D03*
D23*
X66026000Y-71564000D03*
D24*
X116315000Y-48944000D03*
X114315000Y-48944000D03*
X112315000Y-48944000D03*
X110315000Y-48944000D03*
X108315000Y-48944000D03*
X106315000Y-48944000D03*
X104315000Y-48944000D03*
X102315000Y-48944000D03*
X100315000Y-48944000D03*
X98315000Y-48944000D03*
X98315000Y-70944000D03*
X100315000Y-70944000D03*
X102315000Y-70944000D03*
X104315000Y-70944000D03*
X106315000Y-70944000D03*
X108315000Y-70944000D03*
X110315000Y-70944000D03*
X112315000Y-70944000D03*
X114315000Y-70944000D03*
X116315000Y-70944000D03*
D25*
X114554000Y-53340000D03*
X119380000Y-41148000D03*
X121158000Y-44958000D03*
X64770000Y-63754000D03*
X67056000Y-57912000D03*
D21*
X100076000Y-86868000D03*
M02*
