%TF.GenerationSoftware,KiCad,Pcbnew,(6.0.0)*%
%TF.CreationDate,2022-03-15T15:16:00+01:00*%
%TF.ProjectId,RPi_Hat,5250695f-4861-4742-9e6b-696361645f70,rev?*%
%TF.SameCoordinates,Original*%
%TF.FileFunction,Copper,L2,Bot*%
%TF.FilePolarity,Positive*%
%FSLAX46Y46*%
G04 Gerber Fmt 4.6, Leading zero omitted, Abs format (unit mm)*
G04 Created by KiCad (PCBNEW (6.0.0)) date 2022-03-15 15:16:00*
%MOMM*%
%LPD*%
G01*
G04 APERTURE LIST*
G04 Aperture macros list*
%AMRoundRect*
0 Rectangle with rounded corners*
0 $1 Rounding radius*
0 $2 $3 $4 $5 $6 $7 $8 $9 X,Y pos of 4 corners*
0 Add a 4 corners polygon primitive as box body*
4,1,4,$2,$3,$4,$5,$6,$7,$8,$9,$2,$3,0*
0 Add four circle primitives for the rounded corners*
1,1,$1+$1,$2,$3*
1,1,$1+$1,$4,$5*
1,1,$1+$1,$6,$7*
1,1,$1+$1,$8,$9*
0 Add four rect primitives between the rounded corners*
20,1,$1+$1,$2,$3,$4,$5,0*
20,1,$1+$1,$4,$5,$6,$7,0*
20,1,$1+$1,$6,$7,$8,$9,0*
20,1,$1+$1,$8,$9,$2,$3,0*%
G04 Aperture macros list end*
%TA.AperFunction,ComponentPad*%
%ADD10R,1.727200X1.727200*%
%TD*%
%TA.AperFunction,ComponentPad*%
%ADD11O,1.727200X1.727200*%
%TD*%
%TA.AperFunction,ComponentPad*%
%ADD12C,1.600000*%
%TD*%
%TA.AperFunction,ComponentPad*%
%ADD13O,1.600000X1.600000*%
%TD*%
%TA.AperFunction,ComponentPad*%
%ADD14RoundRect,0.312500X0.687500X-0.437500X0.687500X0.437500X-0.687500X0.437500X-0.687500X-0.437500X0*%
%TD*%
%TA.AperFunction,ComponentPad*%
%ADD15O,2.000000X1.500000*%
%TD*%
%TA.AperFunction,ComponentPad*%
%ADD16RoundRect,0.312500X-0.787500X0.437500X-0.787500X-0.437500X0.787500X-0.437500X0.787500X0.437500X0*%
%TD*%
%TA.AperFunction,ComponentPad*%
%ADD17RoundRect,0.312500X0.787500X-0.437500X0.787500X0.437500X-0.787500X0.437500X-0.787500X-0.437500X0*%
%TD*%
%TA.AperFunction,ComponentPad*%
%ADD18RoundRect,0.400000X-0.400000X1.600000X-0.400000X-1.600000X0.400000X-1.600000X0.400000X1.600000X0*%
%TD*%
%TA.AperFunction,SMDPad,CuDef*%
%ADD19C,2.000000*%
%TD*%
%TA.AperFunction,ViaPad*%
%ADD20C,1.600000*%
%TD*%
%TA.AperFunction,ViaPad*%
%ADD21C,2.000000*%
%TD*%
%TA.AperFunction,Conductor*%
%ADD22C,1.000000*%
%TD*%
%TA.AperFunction,Conductor*%
%ADD23C,0.600000*%
%TD*%
G04 APERTURE END LIST*
D10*
%TO.P,J2,1,3.3V*%
%TO.N,+3.3VA*%
X68580000Y-42870000D03*
D11*
%TO.P,J2,2,5V*%
%TO.N,+5V*%
X68580000Y-40330000D03*
%TO.P,J2,3,BCM2_SDA*%
%TO.N,unconnected-(J2-Pad3)*%
X71120000Y-42870000D03*
%TO.P,J2,4,5V*%
%TO.N,+5V*%
X71120000Y-40330000D03*
%TO.P,J2,5,BCM3_SCL*%
%TO.N,unconnected-(J2-Pad5)*%
X73660000Y-42870000D03*
%TO.P,J2,6,GND*%
%TO.N,GND*%
X73660000Y-40330000D03*
%TO.P,J2,7,BCM4_GPCLK0*%
%TO.N,cmd_relais*%
X76200000Y-42870000D03*
%TO.P,J2,8,BCM14_TXD*%
%TO.N,/RPi_GPIO/BCM14_TXD*%
X76200000Y-40330000D03*
%TO.P,J2,9,GND*%
%TO.N,GND*%
X78740000Y-42870000D03*
%TO.P,J2,10,BCM15_RXD*%
%TO.N,/RPi_GPIO/BCM15_RXD*%
X78740000Y-40330000D03*
%TO.P,J2,11,BCM17*%
%TO.N,unconnected-(J2-Pad11)*%
X81280000Y-42870000D03*
%TO.P,J2,12,BCM18_PCM_C*%
%TO.N,unconnected-(J2-Pad12)*%
X81280000Y-40330000D03*
%TO.P,J2,13,BCM27*%
%TO.N,unconnected-(J2-Pad13)*%
X83820000Y-42870000D03*
%TO.P,J2,14,GND*%
%TO.N,unconnected-(J2-Pad14)*%
X83820000Y-40330000D03*
%TO.P,J2,15,BCM22*%
%TO.N,unconnected-(J2-Pad15)*%
X86360000Y-42870000D03*
%TO.P,J2,16,BCM23*%
%TO.N,unconnected-(J2-Pad16)*%
X86360000Y-40330000D03*
%TO.P,J2,17,3.3V*%
%TO.N,unconnected-(J2-Pad17)*%
X88900000Y-42870000D03*
%TO.P,J2,18,BCM24*%
%TO.N,unconnected-(J2-Pad18)*%
X88900000Y-40330000D03*
%TO.P,J2,19,BCM10_MOSI*%
%TO.N,MOSI*%
X91440000Y-42870000D03*
%TO.P,J2,20,GND*%
%TO.N,unconnected-(J2-Pad20)*%
X91440000Y-40330000D03*
%TO.P,J2,21,BCM9_MISO*%
%TO.N,MISO*%
X93980000Y-42870000D03*
%TO.P,J2,22,BCM25*%
%TO.N,INT*%
X93980000Y-40330000D03*
%TO.P,J2,23,BCM11_SCLK*%
%TO.N,CLK*%
X96520000Y-42870000D03*
%TO.P,J2,24,BCM8_CE0*%
%TO.N,CS*%
X96520000Y-40330000D03*
%TO.P,J2,25,GND*%
%TO.N,GND*%
X99060000Y-42870000D03*
%TO.P,J2,26,BCM7_CE1*%
%TO.N,unconnected-(J2-Pad26)*%
X99060000Y-40330000D03*
%TO.P,J2,27,BCM0_ID_SD*%
%TO.N,unconnected-(J2-Pad27)*%
X101600000Y-42870000D03*
%TO.P,J2,28,BCM1_ID_SC*%
%TO.N,unconnected-(J2-Pad28)*%
X101600000Y-40330000D03*
%TO.P,J2,29,BCM5*%
%TO.N,/RPi_GPIO/Starter*%
X104140000Y-42870000D03*
%TO.P,J2,30,GND*%
%TO.N,unconnected-(J2-Pad30)*%
X104140000Y-40330000D03*
%TO.P,J2,31,BCM6*%
%TO.N,unconnected-(J2-Pad31)*%
X106680000Y-42870000D03*
%TO.P,J2,32,BCM12_PWM0*%
%TO.N,unconnected-(J2-Pad32)*%
X106680000Y-40330000D03*
%TO.P,J2,33,BCM13_PWM1*%
%TO.N,unconnected-(J2-Pad33)*%
X109220000Y-42870000D03*
%TO.P,J2,34,GND*%
%TO.N,unconnected-(J2-Pad34)*%
X109220000Y-40330000D03*
%TO.P,J2,35,BCM19_MISO_PCM_FS*%
%TO.N,unconnected-(J2-Pad35)*%
X111760000Y-42870000D03*
%TO.P,J2,36,BCM16*%
%TO.N,unconnected-(J2-Pad36)*%
X111760000Y-40330000D03*
%TO.P,J2,37,BCM26*%
%TO.N,unconnected-(J2-Pad37)*%
X114300000Y-42870000D03*
%TO.P,J2,38,BCM20_MOSI_PCM_DI*%
%TO.N,unconnected-(J2-Pad38)*%
X114300000Y-40330000D03*
%TO.P,J2,39,GND*%
%TO.N,unconnected-(J2-Pad39)*%
X116840000Y-42870000D03*
%TO.P,J2,40,BCM21_SCLK_PCM_DO*%
%TO.N,unconnected-(J2-Pad40)*%
X116840000Y-40330000D03*
%TD*%
D12*
%TO.P,R3,1*%
%TO.N,+5V*%
X93980000Y-62484000D03*
D13*
%TO.P,R3,2*%
%TO.N,Net-(R3-Pad2)*%
X93980000Y-72644000D03*
%TD*%
D14*
%TO.P,J3,1,Pin_1*%
%TO.N,GND*%
X66506000Y-77454000D03*
D15*
%TO.P,J3,2,Pin_2*%
%TO.N,/RPi_GPIO/Starter*%
X66506000Y-75454000D03*
%TD*%
D12*
%TO.P,C2,1*%
%TO.N,+5V*%
X88305000Y-58420000D03*
%TO.P,C2,2*%
%TO.N,GND*%
X93305000Y-58420000D03*
%TD*%
%TO.P,C1,1*%
%TO.N,GND*%
X73065000Y-58420000D03*
%TO.P,C1,2*%
%TO.N,+3.3VA*%
X78065000Y-58420000D03*
%TD*%
%TO.P,Y1,1,1*%
%TO.N,Net-(C3-Pad1)*%
X79175000Y-77851000D03*
%TO.P,Y1,2,2*%
%TO.N,Net-(C4-Pad1)*%
X84075000Y-77851000D03*
%TD*%
%TO.P,R1,1*%
%TO.N,can_L*%
X75946000Y-66548000D03*
D13*
%TO.P,R1,2*%
%TO.N,can_H*%
X75946000Y-64008000D03*
%TD*%
D12*
%TO.P,C4,1*%
%TO.N,Net-(C4-Pad1)*%
X90170000Y-83225000D03*
%TO.P,C4,2*%
%TO.N,GND*%
X90170000Y-88225000D03*
%TD*%
%TO.P,C3,1*%
%TO.N,Net-(C3-Pad1)*%
X73025000Y-83225000D03*
%TO.P,C3,2*%
%TO.N,GND*%
X73025000Y-88225000D03*
%TD*%
D16*
%TO.P,J1,1,Pin_1*%
%TO.N,can_H*%
X68610000Y-64008000D03*
D17*
%TO.P,J1,2,Pin_2*%
%TO.N,+5V*%
X66010000Y-64008000D03*
D16*
%TO.P,J1,3,Pin_3*%
%TO.N,can_L*%
X68610000Y-66008000D03*
D17*
%TO.P,J1,4,Pin_4*%
%TO.N,cmd_relais*%
X66010000Y-66008000D03*
D16*
%TO.P,J1,5,Pin_5*%
%TO.N,unconnected-(J1-Pad5)*%
X68610000Y-68008000D03*
D17*
%TO.P,J1,6,Pin_6*%
%TO.N,GND*%
X66010000Y-68008000D03*
%TD*%
D18*
%TO.P,U1,1,VCC*%
%TO.N,+3.3VA*%
X116315000Y-48944000D03*
%TO.P,U1,2,DOUT*%
%TO.N,/RPi_GPIO/BCM14_TXD*%
X114315000Y-48944000D03*
%TO.P,U1,3,DIN*%
%TO.N,/RPi_GPIO/BCM15_RXD*%
X112315000Y-48944000D03*
%TO.P,U1,4,DIO12*%
%TO.N,unconnected-(U1-Pad4)*%
X110315000Y-48944000D03*
%TO.P,U1,5,RST*%
%TO.N,unconnected-(U1-Pad5)*%
X108315000Y-48944000D03*
%TO.P,U1,6,RSSI_PWM_/DIO10*%
%TO.N,unconnected-(U1-Pad6)*%
X106315000Y-48944000D03*
%TO.P,U1,7,DIO11*%
%TO.N,unconnected-(U1-Pad7)*%
X104315000Y-48944000D03*
%TO.P,U1,8,RESERVED*%
%TO.N,unconnected-(U1-Pad8)*%
X102315000Y-48944000D03*
%TO.P,U1,9,!DTR_/_SLEEP_RQ/_DIO8*%
%TO.N,unconnected-(U1-Pad9)*%
X100315000Y-48944000D03*
%TO.P,U1,10,GND*%
%TO.N,GND*%
X98315000Y-48944000D03*
%TO.P,U1,11,DIO4*%
%TO.N,unconnected-(U1-Pad11)*%
X98315000Y-70944000D03*
%TO.P,U1,12,!CTS_/_DIO7*%
%TO.N,unconnected-(U1-Pad12)*%
X100315000Y-70944000D03*
%TO.P,U1,13,ON_/_!SLEEP*%
%TO.N,unconnected-(U1-Pad13)*%
X102315000Y-70944000D03*
%TO.P,U1,14,VREF*%
%TO.N,unconnected-(U1-Pad14)*%
X104315000Y-70944000D03*
%TO.P,U1,15,Associate_/_DIO5*%
%TO.N,unconnected-(U1-Pad15)*%
X106315000Y-70944000D03*
%TO.P,U1,16,!RTS_/_DIO6_*%
%TO.N,unconnected-(U1-Pad16)*%
X108315000Y-70944000D03*
%TO.P,U1,17,AD3_/_DIO3*%
%TO.N,unconnected-(U1-Pad17)*%
X110315000Y-70944000D03*
%TO.P,U1,18,AD2_/_DIO2*%
%TO.N,unconnected-(U1-Pad18)*%
X112315000Y-70944000D03*
%TO.P,U1,19,AD1_/_DIO1*%
%TO.N,unconnected-(U1-Pad19)*%
X114315000Y-70944000D03*
%TO.P,U1,20,AD0_/_DIO0_/Com8Button*%
%TO.N,unconnected-(U1-Pad20)*%
X116315000Y-70944000D03*
%TD*%
D19*
%TO.P,,1*%
%TO.N,GND*%
X114300000Y-86360000D03*
%TD*%
D20*
%TO.N,can_L*%
X72390000Y-66040000D03*
X72390000Y-62230000D03*
D21*
%TO.N,cmd_relais*%
X63500000Y-46736000D03*
X73152000Y-46736000D03*
%TO.N,GND*%
X62738000Y-83225000D03*
X121666000Y-69850000D03*
X121666000Y-82550000D03*
X121666000Y-57150000D03*
%TO.N,/RPi_GPIO/Starter*%
X101600000Y-45212000D03*
%TO.N,/RPi_GPIO/BCM14_TXD*%
X121920000Y-42164000D03*
D20*
%TO.N,/RPi_GPIO/BCM15_RXD*%
X80010000Y-38354000D03*
D21*
%TO.N,+3.3VA*%
X79375000Y-53340000D03*
X102870000Y-56642000D03*
%TO.N,+5V*%
X87884000Y-55372000D03*
X68072000Y-55372000D03*
%TD*%
D22*
%TO.N,can_L*%
X72390000Y-62230000D02*
X72390000Y-66040000D01*
%TO.N,cmd_relais*%
X63500000Y-46736000D02*
X73152000Y-46736000D01*
%TO.N,/RPi_GPIO/Starter*%
X101092000Y-45720000D02*
X91948000Y-45720000D01*
X63246000Y-68590924D02*
X66506000Y-71850924D01*
X101600000Y-45212000D02*
X101092000Y-45720000D01*
X66548000Y-49784000D02*
X63246000Y-53086000D01*
X91948000Y-45720000D02*
X87884000Y-49784000D01*
X63246000Y-53086000D02*
X63246000Y-68590924D01*
X66506000Y-71850924D02*
X66506000Y-75454000D01*
X87884000Y-49784000D02*
X66548000Y-49784000D01*
D23*
%TO.N,/RPi_GPIO/BCM14_TXD*%
X114315000Y-46340000D02*
X114315000Y-47420000D01*
X120396000Y-45720000D02*
X114935000Y-45720000D01*
X114935000Y-45720000D02*
X114315000Y-46340000D01*
X121920000Y-44196000D02*
X120396000Y-45720000D01*
X121920000Y-42164000D02*
X121920000Y-44196000D01*
%TO.N,/RPi_GPIO/BCM15_RXD*%
X80010000Y-38354000D02*
X80018581Y-38345419D01*
X119888000Y-40132000D02*
X119888000Y-44196000D01*
X113284000Y-44704000D02*
X112315000Y-45673000D01*
X80018581Y-38345419D02*
X118101419Y-38345419D01*
X118101419Y-38345419D02*
X119888000Y-40132000D01*
X119380000Y-44704000D02*
X113284000Y-44704000D01*
X112315000Y-45673000D02*
X112315000Y-47420000D01*
X119888000Y-44196000D02*
X119380000Y-44704000D01*
D22*
%TO.N,+3.3VA*%
X114300000Y-53340000D02*
X116315000Y-51325000D01*
X102870000Y-56642000D02*
X106172000Y-53340000D01*
X102870000Y-56642000D02*
X99568000Y-53340000D01*
X99568000Y-53340000D02*
X79375000Y-53340000D01*
X106172000Y-53340000D02*
X114300000Y-53340000D01*
X116315000Y-51325000D02*
X116315000Y-48944000D01*
%TO.N,+5V*%
X87884000Y-55372000D02*
X68072000Y-55372000D01*
%TD*%
%TA.AperFunction,Conductor*%
%TO.N,GND*%
G36*
X122192057Y-35561500D02*
G01*
X122206858Y-35563805D01*
X122206861Y-35563805D01*
X122215730Y-35565186D01*
X122232899Y-35562941D01*
X122256839Y-35562108D01*
X122514770Y-35577710D01*
X122529874Y-35579544D01*
X122600648Y-35592514D01*
X122810879Y-35631040D01*
X122825641Y-35634678D01*
X123098408Y-35719675D01*
X123112627Y-35725069D01*
X123373140Y-35842316D01*
X123386609Y-35849385D01*
X123631095Y-35997182D01*
X123643617Y-36005825D01*
X123868507Y-36182016D01*
X123879895Y-36192106D01*
X124081894Y-36394105D01*
X124091984Y-36405493D01*
X124268175Y-36630383D01*
X124276818Y-36642905D01*
X124424615Y-36887391D01*
X124431684Y-36900860D01*
X124548930Y-37161370D01*
X124554326Y-37175596D01*
X124639321Y-37448353D01*
X124642960Y-37463121D01*
X124671096Y-37616654D01*
X124694456Y-37744126D01*
X124696290Y-37759230D01*
X124711455Y-38009929D01*
X124710198Y-38036639D01*
X124710195Y-38036859D01*
X124708814Y-38045730D01*
X124710454Y-38058270D01*
X124712740Y-38075750D01*
X124713803Y-38092682D01*
X124702190Y-40558553D01*
X124702154Y-40559439D01*
X124702000Y-40560423D01*
X124702000Y-40598455D01*
X124701999Y-40599048D01*
X124701834Y-40634084D01*
X124701970Y-40635066D01*
X124702000Y-40635971D01*
X124702000Y-89109613D01*
X124681998Y-89177734D01*
X124628342Y-89224227D01*
X124558068Y-89234331D01*
X124493488Y-89204837D01*
X124467157Y-89173089D01*
X124371666Y-89009348D01*
X124299687Y-88885924D01*
X124089001Y-88603781D01*
X124086557Y-88601183D01*
X124086552Y-88601177D01*
X123850180Y-88349907D01*
X123850176Y-88349904D01*
X123847730Y-88347303D01*
X123701923Y-88223868D01*
X123581698Y-88122090D01*
X123581694Y-88122087D01*
X123578976Y-88119786D01*
X123403417Y-88002481D01*
X123289170Y-87926144D01*
X123289168Y-87926143D01*
X123286193Y-87924155D01*
X123283009Y-87922515D01*
X122976330Y-87764564D01*
X122976325Y-87764562D01*
X122973147Y-87762925D01*
X122969806Y-87761659D01*
X122969801Y-87761657D01*
X122647205Y-87639437D01*
X122647206Y-87639437D01*
X122643861Y-87638170D01*
X122640397Y-87637290D01*
X122640393Y-87637289D01*
X122306037Y-87552373D01*
X122306029Y-87552371D01*
X122302570Y-87551493D01*
X122130848Y-87528122D01*
X121956653Y-87504415D01*
X121956646Y-87504414D01*
X121953660Y-87504008D01*
X121838919Y-87499500D01*
X121620802Y-87499500D01*
X121479244Y-87507538D01*
X121362008Y-87514195D01*
X121362001Y-87514196D01*
X121358440Y-87514398D01*
X121220117Y-87538166D01*
X121014918Y-87573425D01*
X121014910Y-87573427D01*
X121011400Y-87574030D01*
X121007975Y-87575028D01*
X121007972Y-87575029D01*
X120913491Y-87602568D01*
X120673341Y-87672566D01*
X120348610Y-87808737D01*
X120194996Y-87894765D01*
X120044498Y-87979047D01*
X120044493Y-87979050D01*
X120041381Y-87980793D01*
X120038485Y-87982878D01*
X120038480Y-87982881D01*
X119891761Y-88088504D01*
X119755605Y-88186523D01*
X119752969Y-88188917D01*
X119752967Y-88188919D01*
X119575733Y-88349907D01*
X119494954Y-88423281D01*
X119262781Y-88688023D01*
X119062071Y-88977347D01*
X118895402Y-89287532D01*
X118764919Y-89614590D01*
X118672299Y-89954317D01*
X118671757Y-89957839D01*
X118630277Y-90227339D01*
X118618732Y-90302345D01*
X118618592Y-90305909D01*
X118609027Y-90549370D01*
X118604908Y-90654200D01*
X118614757Y-90786735D01*
X118629484Y-90984899D01*
X118631004Y-91005358D01*
X118696684Y-91351304D01*
X118697742Y-91354713D01*
X118697744Y-91354719D01*
X118727233Y-91449687D01*
X118801104Y-91687592D01*
X118942921Y-92009897D01*
X119120313Y-92314076D01*
X119330999Y-92596219D01*
X119333443Y-92598817D01*
X119333448Y-92598823D01*
X119569820Y-92850093D01*
X119572270Y-92852697D01*
X119574999Y-92855007D01*
X119806859Y-93051291D01*
X119841024Y-93080214D01*
X120133807Y-93275845D01*
X120136989Y-93277484D01*
X120136991Y-93277485D01*
X120285523Y-93353984D01*
X120336925Y-93402957D01*
X120353691Y-93471945D01*
X120330497Y-93539047D01*
X120274707Y-93582956D01*
X120227831Y-93592000D01*
X65195807Y-93592000D01*
X65127686Y-93571998D01*
X65081193Y-93518342D01*
X65071089Y-93448068D01*
X65100583Y-93383488D01*
X65134241Y-93356065D01*
X65375502Y-93220953D01*
X65375507Y-93220950D01*
X65378619Y-93219207D01*
X65381515Y-93217122D01*
X65381520Y-93217119D01*
X65528239Y-93111496D01*
X65664395Y-93013477D01*
X65838858Y-92855007D01*
X65922405Y-92779118D01*
X65922406Y-92779117D01*
X65925046Y-92776719D01*
X66157219Y-92511977D01*
X66204326Y-92444073D01*
X66296652Y-92310984D01*
X66357929Y-92222653D01*
X66524598Y-91912468D01*
X66655081Y-91585410D01*
X66747701Y-91245683D01*
X66762487Y-91149618D01*
X66800726Y-90901178D01*
X66800726Y-90901174D01*
X66801268Y-90897655D01*
X66810833Y-90654200D01*
X66814952Y-90549370D01*
X66814952Y-90549365D01*
X66815092Y-90545800D01*
X66788996Y-90194642D01*
X66723316Y-89848696D01*
X66618896Y-89512408D01*
X66530302Y-89311062D01*
X72303493Y-89311062D01*
X72312789Y-89323077D01*
X72363994Y-89358931D01*
X72373489Y-89364414D01*
X72570947Y-89456490D01*
X72581239Y-89460236D01*
X72791688Y-89516625D01*
X72802481Y-89518528D01*
X73019525Y-89537517D01*
X73030475Y-89537517D01*
X73247519Y-89518528D01*
X73258312Y-89516625D01*
X73468761Y-89460236D01*
X73479053Y-89456490D01*
X73676511Y-89364414D01*
X73686006Y-89358931D01*
X73738048Y-89322491D01*
X73746424Y-89312012D01*
X73745925Y-89311062D01*
X89448493Y-89311062D01*
X89457789Y-89323077D01*
X89508994Y-89358931D01*
X89518489Y-89364414D01*
X89715947Y-89456490D01*
X89726239Y-89460236D01*
X89936688Y-89516625D01*
X89947481Y-89518528D01*
X90164525Y-89537517D01*
X90175475Y-89537517D01*
X90392519Y-89518528D01*
X90403312Y-89516625D01*
X90613761Y-89460236D01*
X90624053Y-89456490D01*
X90821511Y-89364414D01*
X90831006Y-89358931D01*
X90883048Y-89322491D01*
X90891424Y-89312012D01*
X90884356Y-89298566D01*
X90182812Y-88597022D01*
X90168868Y-88589408D01*
X90167035Y-88589539D01*
X90160420Y-88593790D01*
X89454923Y-89299287D01*
X89448493Y-89311062D01*
X73745925Y-89311062D01*
X73739356Y-89298566D01*
X73037812Y-88597022D01*
X73023868Y-88589408D01*
X73022035Y-88589539D01*
X73015420Y-88593790D01*
X72309923Y-89299287D01*
X72303493Y-89311062D01*
X66530302Y-89311062D01*
X66492094Y-89224227D01*
X66478522Y-89193382D01*
X66478520Y-89193379D01*
X66477079Y-89190103D01*
X66299687Y-88885924D01*
X66089001Y-88603781D01*
X66086557Y-88601183D01*
X66086552Y-88601177D01*
X65850180Y-88349907D01*
X65850176Y-88349904D01*
X65847730Y-88347303D01*
X65709727Y-88230475D01*
X71712483Y-88230475D01*
X71731472Y-88447519D01*
X71733375Y-88458312D01*
X71789764Y-88668761D01*
X71793510Y-88679053D01*
X71885586Y-88876511D01*
X71891069Y-88886006D01*
X71927509Y-88938048D01*
X71937988Y-88946424D01*
X71951434Y-88939356D01*
X72652978Y-88237812D01*
X72659356Y-88226132D01*
X73389408Y-88226132D01*
X73389539Y-88227965D01*
X73393790Y-88234580D01*
X74099287Y-88940077D01*
X74111062Y-88946507D01*
X74123077Y-88937211D01*
X74158931Y-88886006D01*
X74164414Y-88876511D01*
X74256490Y-88679053D01*
X74260236Y-88668761D01*
X74316625Y-88458312D01*
X74318528Y-88447519D01*
X74337517Y-88230475D01*
X88857483Y-88230475D01*
X88876472Y-88447519D01*
X88878375Y-88458312D01*
X88934764Y-88668761D01*
X88938510Y-88679053D01*
X89030586Y-88876511D01*
X89036069Y-88886006D01*
X89072509Y-88938048D01*
X89082988Y-88946424D01*
X89096434Y-88939356D01*
X89797978Y-88237812D01*
X89804356Y-88226132D01*
X90534408Y-88226132D01*
X90534539Y-88227965D01*
X90538790Y-88234580D01*
X91244287Y-88940077D01*
X91256062Y-88946507D01*
X91268077Y-88937211D01*
X91303931Y-88886006D01*
X91309414Y-88876511D01*
X91401490Y-88679053D01*
X91405236Y-88668761D01*
X91461625Y-88458312D01*
X91463528Y-88447519D01*
X91482517Y-88230475D01*
X91482517Y-88219525D01*
X91463528Y-88002481D01*
X91461625Y-87991688D01*
X91405236Y-87781239D01*
X91401490Y-87770947D01*
X91309414Y-87573489D01*
X91303931Y-87563994D01*
X91267491Y-87511952D01*
X91257012Y-87503576D01*
X91243566Y-87510644D01*
X90542022Y-88212188D01*
X90534408Y-88226132D01*
X89804356Y-88226132D01*
X89805592Y-88223868D01*
X89805461Y-88222035D01*
X89801210Y-88215420D01*
X89095713Y-87509923D01*
X89083938Y-87503493D01*
X89071923Y-87512789D01*
X89036069Y-87563994D01*
X89030586Y-87573489D01*
X88938510Y-87770947D01*
X88934764Y-87781239D01*
X88878375Y-87991688D01*
X88876472Y-88002481D01*
X88857483Y-88219525D01*
X88857483Y-88230475D01*
X74337517Y-88230475D01*
X74337517Y-88219525D01*
X74318528Y-88002481D01*
X74316625Y-87991688D01*
X74260236Y-87781239D01*
X74256490Y-87770947D01*
X74164414Y-87573489D01*
X74158931Y-87563994D01*
X74122491Y-87511952D01*
X74112012Y-87503576D01*
X74098566Y-87510644D01*
X73397022Y-88212188D01*
X73389408Y-88226132D01*
X72659356Y-88226132D01*
X72660592Y-88223868D01*
X72660461Y-88222035D01*
X72656210Y-88215420D01*
X71950713Y-87509923D01*
X71938938Y-87503493D01*
X71926923Y-87512789D01*
X71891069Y-87563994D01*
X71885586Y-87573489D01*
X71793510Y-87770947D01*
X71789764Y-87781239D01*
X71733375Y-87991688D01*
X71731472Y-88002481D01*
X71712483Y-88219525D01*
X71712483Y-88230475D01*
X65709727Y-88230475D01*
X65701923Y-88223868D01*
X65581698Y-88122090D01*
X65581694Y-88122087D01*
X65578976Y-88119786D01*
X65403417Y-88002481D01*
X65289170Y-87926144D01*
X65289168Y-87926143D01*
X65286193Y-87924155D01*
X65283009Y-87922515D01*
X64976330Y-87764564D01*
X64976325Y-87764562D01*
X64973147Y-87762925D01*
X64969806Y-87761659D01*
X64969801Y-87761657D01*
X64647205Y-87639437D01*
X64647206Y-87639437D01*
X64643861Y-87638170D01*
X64640397Y-87637290D01*
X64640393Y-87637289D01*
X64306037Y-87552373D01*
X64306029Y-87552371D01*
X64302570Y-87551493D01*
X64130848Y-87528122D01*
X63956653Y-87504415D01*
X63956646Y-87504414D01*
X63953660Y-87504008D01*
X63838919Y-87499500D01*
X63620802Y-87499500D01*
X63479244Y-87507538D01*
X63362008Y-87514195D01*
X63362001Y-87514196D01*
X63358440Y-87514398D01*
X63220117Y-87538166D01*
X63014918Y-87573425D01*
X63014910Y-87573427D01*
X63011400Y-87574030D01*
X63007975Y-87575028D01*
X63007972Y-87575029D01*
X62913491Y-87602568D01*
X62673341Y-87672566D01*
X62348610Y-87808737D01*
X62194995Y-87894765D01*
X62044498Y-87979047D01*
X62044493Y-87979050D01*
X62041381Y-87980793D01*
X62038485Y-87982878D01*
X62038480Y-87982881D01*
X61891761Y-88088504D01*
X61755605Y-88186523D01*
X61752969Y-88188917D01*
X61752967Y-88188919D01*
X61575733Y-88349907D01*
X61494954Y-88423281D01*
X61262781Y-88688023D01*
X61062071Y-88977347D01*
X61060380Y-88980494D01*
X61060377Y-88980499D01*
X60954992Y-89176630D01*
X60905130Y-89227170D01*
X60835859Y-89242729D01*
X60769173Y-89218367D01*
X60726244Y-89161819D01*
X60718000Y-89116992D01*
X60718000Y-87137988D01*
X72303576Y-87137988D01*
X72310644Y-87151434D01*
X73012188Y-87852978D01*
X73026132Y-87860592D01*
X73027965Y-87860461D01*
X73034580Y-87856210D01*
X73740077Y-87150713D01*
X73746507Y-87138938D01*
X73745772Y-87137988D01*
X89448576Y-87137988D01*
X89455644Y-87151434D01*
X90157188Y-87852978D01*
X90171132Y-87860592D01*
X90172965Y-87860461D01*
X90179580Y-87856210D01*
X90885077Y-87150713D01*
X90891507Y-87138938D01*
X90882211Y-87126923D01*
X90831006Y-87091069D01*
X90821511Y-87085586D01*
X90624053Y-86993510D01*
X90613761Y-86989764D01*
X90403312Y-86933375D01*
X90392519Y-86931472D01*
X90175475Y-86912483D01*
X90164525Y-86912483D01*
X89947481Y-86931472D01*
X89936688Y-86933375D01*
X89726239Y-86989764D01*
X89715947Y-86993510D01*
X89518489Y-87085586D01*
X89508994Y-87091069D01*
X89456952Y-87127509D01*
X89448576Y-87137988D01*
X73745772Y-87137988D01*
X73737211Y-87126923D01*
X73686006Y-87091069D01*
X73676511Y-87085586D01*
X73479053Y-86993510D01*
X73468761Y-86989764D01*
X73258312Y-86933375D01*
X73247519Y-86931472D01*
X73030475Y-86912483D01*
X73019525Y-86912483D01*
X72802481Y-86931472D01*
X72791688Y-86933375D01*
X72581239Y-86989764D01*
X72570947Y-86993510D01*
X72373489Y-87085586D01*
X72363994Y-87091069D01*
X72311952Y-87127509D01*
X72303576Y-87137988D01*
X60718000Y-87137988D01*
X60718000Y-83225000D01*
X71711502Y-83225000D01*
X71731457Y-83453087D01*
X71790716Y-83674243D01*
X71793039Y-83679224D01*
X71793039Y-83679225D01*
X71885151Y-83876762D01*
X71885154Y-83876767D01*
X71887477Y-83881749D01*
X72018802Y-84069300D01*
X72180700Y-84231198D01*
X72185208Y-84234355D01*
X72185211Y-84234357D01*
X72263389Y-84289098D01*
X72368251Y-84362523D01*
X72373233Y-84364846D01*
X72373238Y-84364849D01*
X72570775Y-84456961D01*
X72575757Y-84459284D01*
X72581065Y-84460706D01*
X72581067Y-84460707D01*
X72791598Y-84517119D01*
X72791600Y-84517119D01*
X72796913Y-84518543D01*
X73025000Y-84538498D01*
X73253087Y-84518543D01*
X73258400Y-84517119D01*
X73258402Y-84517119D01*
X73468933Y-84460707D01*
X73468935Y-84460706D01*
X73474243Y-84459284D01*
X73479225Y-84456961D01*
X73676762Y-84364849D01*
X73676767Y-84364846D01*
X73681749Y-84362523D01*
X73786611Y-84289098D01*
X73864789Y-84234357D01*
X73864792Y-84234355D01*
X73869300Y-84231198D01*
X74031198Y-84069300D01*
X74162523Y-83881749D01*
X74164846Y-83876767D01*
X74164849Y-83876762D01*
X74256961Y-83679225D01*
X74256961Y-83679224D01*
X74259284Y-83674243D01*
X74318543Y-83453087D01*
X74338498Y-83225000D01*
X88856502Y-83225000D01*
X88876457Y-83453087D01*
X88935716Y-83674243D01*
X88938039Y-83679224D01*
X88938039Y-83679225D01*
X89030151Y-83876762D01*
X89030154Y-83876767D01*
X89032477Y-83881749D01*
X89163802Y-84069300D01*
X89325700Y-84231198D01*
X89330208Y-84234355D01*
X89330211Y-84234357D01*
X89408389Y-84289098D01*
X89513251Y-84362523D01*
X89518233Y-84364846D01*
X89518238Y-84364849D01*
X89715775Y-84456961D01*
X89720757Y-84459284D01*
X89726065Y-84460706D01*
X89726067Y-84460707D01*
X89936598Y-84517119D01*
X89936600Y-84517119D01*
X89941913Y-84518543D01*
X90170000Y-84538498D01*
X90398087Y-84518543D01*
X90403400Y-84517119D01*
X90403402Y-84517119D01*
X90613933Y-84460707D01*
X90613935Y-84460706D01*
X90619243Y-84459284D01*
X90624225Y-84456961D01*
X90821762Y-84364849D01*
X90821767Y-84364846D01*
X90826749Y-84362523D01*
X90931611Y-84289098D01*
X91009789Y-84234357D01*
X91009792Y-84234355D01*
X91014300Y-84231198D01*
X91176198Y-84069300D01*
X91307523Y-83881749D01*
X91309846Y-83876767D01*
X91309849Y-83876762D01*
X91401961Y-83679225D01*
X91401961Y-83679224D01*
X91404284Y-83674243D01*
X91463543Y-83453087D01*
X91483498Y-83225000D01*
X91463543Y-82996913D01*
X91404284Y-82775757D01*
X91401961Y-82770775D01*
X91309849Y-82573238D01*
X91309846Y-82573233D01*
X91307523Y-82568251D01*
X91176198Y-82380700D01*
X91014300Y-82218802D01*
X91009792Y-82215645D01*
X91009789Y-82215643D01*
X90931611Y-82160902D01*
X90826749Y-82087477D01*
X90821767Y-82085154D01*
X90821762Y-82085151D01*
X90624225Y-81993039D01*
X90624224Y-81993039D01*
X90619243Y-81990716D01*
X90613935Y-81989294D01*
X90613933Y-81989293D01*
X90403402Y-81932881D01*
X90403400Y-81932881D01*
X90398087Y-81931457D01*
X90170000Y-81911502D01*
X89941913Y-81931457D01*
X89936600Y-81932881D01*
X89936598Y-81932881D01*
X89726067Y-81989293D01*
X89726065Y-81989294D01*
X89720757Y-81990716D01*
X89715776Y-81993039D01*
X89715775Y-81993039D01*
X89518238Y-82085151D01*
X89518233Y-82085154D01*
X89513251Y-82087477D01*
X89408389Y-82160902D01*
X89330211Y-82215643D01*
X89330208Y-82215645D01*
X89325700Y-82218802D01*
X89163802Y-82380700D01*
X89032477Y-82568251D01*
X89030154Y-82573233D01*
X89030151Y-82573238D01*
X88938039Y-82770775D01*
X88935716Y-82775757D01*
X88876457Y-82996913D01*
X88856502Y-83225000D01*
X74338498Y-83225000D01*
X74318543Y-82996913D01*
X74259284Y-82775757D01*
X74256961Y-82770775D01*
X74164849Y-82573238D01*
X74164846Y-82573233D01*
X74162523Y-82568251D01*
X74031198Y-82380700D01*
X73869300Y-82218802D01*
X73864792Y-82215645D01*
X73864789Y-82215643D01*
X73786611Y-82160902D01*
X73681749Y-82087477D01*
X73676767Y-82085154D01*
X73676762Y-82085151D01*
X73479225Y-81993039D01*
X73479224Y-81993039D01*
X73474243Y-81990716D01*
X73468935Y-81989294D01*
X73468933Y-81989293D01*
X73258402Y-81932881D01*
X73258400Y-81932881D01*
X73253087Y-81931457D01*
X73025000Y-81911502D01*
X72796913Y-81931457D01*
X72791600Y-81932881D01*
X72791598Y-81932881D01*
X72581067Y-81989293D01*
X72581065Y-81989294D01*
X72575757Y-81990716D01*
X72570776Y-81993039D01*
X72570775Y-81993039D01*
X72373238Y-82085151D01*
X72373233Y-82085154D01*
X72368251Y-82087477D01*
X72263389Y-82160902D01*
X72185211Y-82215643D01*
X72185208Y-82215645D01*
X72180700Y-82218802D01*
X72018802Y-82380700D01*
X71887477Y-82568251D01*
X71885154Y-82573233D01*
X71885151Y-82573238D01*
X71793039Y-82770775D01*
X71790716Y-82775757D01*
X71731457Y-82996913D01*
X71711502Y-83225000D01*
X60718000Y-83225000D01*
X60718000Y-77979753D01*
X64998001Y-77979753D01*
X64998055Y-77981644D01*
X64999480Y-77991600D01*
X65038105Y-78158902D01*
X65042755Y-78172105D01*
X65116738Y-78325148D01*
X65124202Y-78337000D01*
X65230255Y-78469849D01*
X65240151Y-78479745D01*
X65373000Y-78585798D01*
X65384852Y-78593262D01*
X65537895Y-78667245D01*
X65551098Y-78671895D01*
X65718399Y-78710520D01*
X65728347Y-78711944D01*
X65730277Y-78712000D01*
X66233885Y-78712000D01*
X66249124Y-78707525D01*
X66250329Y-78706135D01*
X66252000Y-78698452D01*
X66252000Y-78693884D01*
X66760000Y-78693884D01*
X66764475Y-78709123D01*
X66765865Y-78710328D01*
X66773548Y-78711999D01*
X67281753Y-78711999D01*
X67283644Y-78711945D01*
X67293600Y-78710520D01*
X67460902Y-78671895D01*
X67474105Y-78667245D01*
X67627148Y-78593262D01*
X67639000Y-78585798D01*
X67771849Y-78479745D01*
X67781745Y-78469849D01*
X67887798Y-78337000D01*
X67895262Y-78325148D01*
X67969245Y-78172105D01*
X67973895Y-78158902D01*
X68012520Y-77991601D01*
X68013944Y-77981653D01*
X68014000Y-77979723D01*
X68014000Y-77851000D01*
X77861502Y-77851000D01*
X77881457Y-78079087D01*
X77882881Y-78084400D01*
X77882881Y-78084402D01*
X77902844Y-78158902D01*
X77940716Y-78300243D01*
X77943039Y-78305224D01*
X77943039Y-78305225D01*
X78035151Y-78502762D01*
X78035154Y-78502767D01*
X78037477Y-78507749D01*
X78040634Y-78512257D01*
X78152414Y-78671895D01*
X78168802Y-78695300D01*
X78330700Y-78857198D01*
X78335208Y-78860355D01*
X78335211Y-78860357D01*
X78413389Y-78915098D01*
X78518251Y-78988523D01*
X78523233Y-78990846D01*
X78523238Y-78990849D01*
X78720775Y-79082961D01*
X78725757Y-79085284D01*
X78731065Y-79086706D01*
X78731067Y-79086707D01*
X78941598Y-79143119D01*
X78941600Y-79143119D01*
X78946913Y-79144543D01*
X79175000Y-79164498D01*
X79403087Y-79144543D01*
X79408400Y-79143119D01*
X79408402Y-79143119D01*
X79618933Y-79086707D01*
X79618935Y-79086706D01*
X79624243Y-79085284D01*
X79629225Y-79082961D01*
X79826762Y-78990849D01*
X79826767Y-78990846D01*
X79831749Y-78988523D01*
X79936611Y-78915098D01*
X80014789Y-78860357D01*
X80014792Y-78860355D01*
X80019300Y-78857198D01*
X80181198Y-78695300D01*
X80197587Y-78671895D01*
X80309366Y-78512257D01*
X80312523Y-78507749D01*
X80314846Y-78502767D01*
X80314849Y-78502762D01*
X80406961Y-78305225D01*
X80406961Y-78305224D01*
X80409284Y-78300243D01*
X80447157Y-78158902D01*
X80467119Y-78084402D01*
X80467119Y-78084400D01*
X80468543Y-78079087D01*
X80488498Y-77851000D01*
X82761502Y-77851000D01*
X82781457Y-78079087D01*
X82782881Y-78084400D01*
X82782881Y-78084402D01*
X82802844Y-78158902D01*
X82840716Y-78300243D01*
X82843039Y-78305224D01*
X82843039Y-78305225D01*
X82935151Y-78502762D01*
X82935154Y-78502767D01*
X82937477Y-78507749D01*
X82940634Y-78512257D01*
X83052414Y-78671895D01*
X83068802Y-78695300D01*
X83230700Y-78857198D01*
X83235208Y-78860355D01*
X83235211Y-78860357D01*
X83313389Y-78915098D01*
X83418251Y-78988523D01*
X83423233Y-78990846D01*
X83423238Y-78990849D01*
X83620775Y-79082961D01*
X83625757Y-79085284D01*
X83631065Y-79086706D01*
X83631067Y-79086707D01*
X83841598Y-79143119D01*
X83841600Y-79143119D01*
X83846913Y-79144543D01*
X84075000Y-79164498D01*
X84303087Y-79144543D01*
X84308400Y-79143119D01*
X84308402Y-79143119D01*
X84518933Y-79086707D01*
X84518935Y-79086706D01*
X84524243Y-79085284D01*
X84529225Y-79082961D01*
X84726762Y-78990849D01*
X84726767Y-78990846D01*
X84731749Y-78988523D01*
X84836611Y-78915098D01*
X84914789Y-78860357D01*
X84914792Y-78860355D01*
X84919300Y-78857198D01*
X85081198Y-78695300D01*
X85097587Y-78671895D01*
X85209366Y-78512257D01*
X85212523Y-78507749D01*
X85214846Y-78502767D01*
X85214849Y-78502762D01*
X85306961Y-78305225D01*
X85306961Y-78305224D01*
X85309284Y-78300243D01*
X85347157Y-78158902D01*
X85367119Y-78084402D01*
X85367119Y-78084400D01*
X85368543Y-78079087D01*
X85388498Y-77851000D01*
X85368543Y-77622913D01*
X85309284Y-77401757D01*
X85215204Y-77200000D01*
X85214849Y-77199238D01*
X85214846Y-77199233D01*
X85212523Y-77194251D01*
X85081198Y-77006700D01*
X84919300Y-76844802D01*
X84914792Y-76841645D01*
X84914789Y-76841643D01*
X84763765Y-76735895D01*
X84731749Y-76713477D01*
X84726767Y-76711154D01*
X84726762Y-76711151D01*
X84529225Y-76619039D01*
X84529224Y-76619039D01*
X84524243Y-76616716D01*
X84518935Y-76615294D01*
X84518933Y-76615293D01*
X84308402Y-76558881D01*
X84308400Y-76558881D01*
X84303087Y-76557457D01*
X84075000Y-76537502D01*
X83846913Y-76557457D01*
X83841600Y-76558881D01*
X83841598Y-76558881D01*
X83631067Y-76615293D01*
X83631065Y-76615294D01*
X83625757Y-76616716D01*
X83620776Y-76619039D01*
X83620775Y-76619039D01*
X83423238Y-76711151D01*
X83423233Y-76711154D01*
X83418251Y-76713477D01*
X83386235Y-76735895D01*
X83235211Y-76841643D01*
X83235208Y-76841645D01*
X83230700Y-76844802D01*
X83068802Y-77006700D01*
X82937477Y-77194251D01*
X82935154Y-77199233D01*
X82935151Y-77199238D01*
X82934796Y-77200000D01*
X82840716Y-77401757D01*
X82781457Y-77622913D01*
X82761502Y-77851000D01*
X80488498Y-77851000D01*
X80468543Y-77622913D01*
X80409284Y-77401757D01*
X80315204Y-77200000D01*
X80314849Y-77199238D01*
X80314846Y-77199233D01*
X80312523Y-77194251D01*
X80181198Y-77006700D01*
X80019300Y-76844802D01*
X80014792Y-76841645D01*
X80014789Y-76841643D01*
X79863765Y-76735895D01*
X79831749Y-76713477D01*
X79826767Y-76711154D01*
X79826762Y-76711151D01*
X79629225Y-76619039D01*
X79629224Y-76619039D01*
X79624243Y-76616716D01*
X79618935Y-76615294D01*
X79618933Y-76615293D01*
X79408402Y-76558881D01*
X79408400Y-76558881D01*
X79403087Y-76557457D01*
X79175000Y-76537502D01*
X78946913Y-76557457D01*
X78941600Y-76558881D01*
X78941598Y-76558881D01*
X78731067Y-76615293D01*
X78731065Y-76615294D01*
X78725757Y-76616716D01*
X78720776Y-76619039D01*
X78720775Y-76619039D01*
X78523238Y-76711151D01*
X78523233Y-76711154D01*
X78518251Y-76713477D01*
X78486235Y-76735895D01*
X78335211Y-76841643D01*
X78335208Y-76841645D01*
X78330700Y-76844802D01*
X78168802Y-77006700D01*
X78037477Y-77194251D01*
X78035154Y-77199233D01*
X78035151Y-77199238D01*
X78034796Y-77200000D01*
X77940716Y-77401757D01*
X77881457Y-77622913D01*
X77861502Y-77851000D01*
X68014000Y-77851000D01*
X68014000Y-77726115D01*
X68009525Y-77710876D01*
X68008135Y-77709671D01*
X68000452Y-77708000D01*
X66778115Y-77708000D01*
X66762876Y-77712475D01*
X66761671Y-77713865D01*
X66760000Y-77721548D01*
X66760000Y-78693884D01*
X66252000Y-78693884D01*
X66252000Y-77726115D01*
X66247525Y-77710876D01*
X66246135Y-77709671D01*
X66238452Y-77708000D01*
X65016116Y-77708000D01*
X65000877Y-77712475D01*
X64999672Y-77713865D01*
X64998001Y-77721548D01*
X64998001Y-77979753D01*
X60718000Y-77979753D01*
X60718000Y-56600376D01*
X60718078Y-56560423D01*
X60724828Y-53082462D01*
X62232626Y-53082462D01*
X62233206Y-53088593D01*
X62236941Y-53128109D01*
X62237500Y-53139967D01*
X62237500Y-68529081D01*
X62236763Y-68542688D01*
X62232676Y-68580312D01*
X62233213Y-68586447D01*
X62237050Y-68630312D01*
X62237379Y-68635138D01*
X62237500Y-68637610D01*
X62237500Y-68640693D01*
X62237801Y-68643761D01*
X62241690Y-68683430D01*
X62241812Y-68684743D01*
X62249913Y-68777337D01*
X62251400Y-68782456D01*
X62251920Y-68787757D01*
X62278791Y-68876758D01*
X62279126Y-68877891D01*
X62283013Y-68891268D01*
X62305091Y-68967260D01*
X62307544Y-68971992D01*
X62309084Y-68977093D01*
X62311978Y-68982536D01*
X62352731Y-69059184D01*
X62353343Y-69060350D01*
X62396108Y-69142850D01*
X62399431Y-69147013D01*
X62401934Y-69151720D01*
X62460755Y-69223842D01*
X62461446Y-69224698D01*
X62492738Y-69263897D01*
X62495242Y-69266401D01*
X62495884Y-69267119D01*
X62499585Y-69271452D01*
X62526935Y-69304986D01*
X62531682Y-69308913D01*
X62531684Y-69308915D01*
X62562262Y-69334211D01*
X62571042Y-69342201D01*
X65460595Y-72231753D01*
X65494621Y-72294065D01*
X65497500Y-72320848D01*
X65497500Y-74384599D01*
X65477498Y-74452720D01*
X65445028Y-74486920D01*
X65434909Y-74494191D01*
X65434901Y-74494198D01*
X65430346Y-74497471D01*
X65426439Y-74501503D01*
X65335900Y-74594932D01*
X65274008Y-74658799D01*
X65148710Y-74845262D01*
X65058412Y-75050967D01*
X65057103Y-75056418D01*
X65057102Y-75056422D01*
X65036393Y-75142681D01*
X65005968Y-75269411D01*
X64993037Y-75493690D01*
X65020025Y-75716715D01*
X65086082Y-75931435D01*
X65088652Y-75936415D01*
X65088654Y-75936419D01*
X65153852Y-76062738D01*
X65189118Y-76131064D01*
X65192531Y-76135511D01*
X65192531Y-76135512D01*
X65274676Y-76242566D01*
X65300276Y-76308787D01*
X65286011Y-76378335D01*
X65253321Y-76417742D01*
X65240150Y-76428256D01*
X65230255Y-76438151D01*
X65124202Y-76571000D01*
X65116738Y-76582852D01*
X65042755Y-76735895D01*
X65038105Y-76749098D01*
X64999480Y-76916399D01*
X64998056Y-76926347D01*
X64998000Y-76928277D01*
X64998000Y-77181885D01*
X65002475Y-77197124D01*
X65003865Y-77198329D01*
X65011548Y-77200000D01*
X67995884Y-77200000D01*
X68011123Y-77195525D01*
X68012328Y-77194135D01*
X68013999Y-77186452D01*
X68013999Y-76928247D01*
X68013945Y-76926356D01*
X68012520Y-76916400D01*
X67973895Y-76749098D01*
X67969245Y-76735895D01*
X67895262Y-76582852D01*
X67887798Y-76571000D01*
X67781745Y-76438151D01*
X67771851Y-76428257D01*
X67761989Y-76420384D01*
X67721232Y-76362252D01*
X67718372Y-76291313D01*
X67739045Y-76249909D01*
X67737992Y-76249201D01*
X67860164Y-76067390D01*
X67863290Y-76062738D01*
X67953588Y-75857033D01*
X68006032Y-75638589D01*
X68018963Y-75414310D01*
X67991975Y-75191285D01*
X67925918Y-74976565D01*
X67867493Y-74863367D01*
X67825454Y-74781919D01*
X67825454Y-74781918D01*
X67822882Y-74776936D01*
X67686123Y-74598708D01*
X67681984Y-74594942D01*
X67681975Y-74594932D01*
X67555700Y-74480031D01*
X67518778Y-74419391D01*
X67514500Y-74386838D01*
X67514500Y-72644000D01*
X92666502Y-72644000D01*
X92686457Y-72872087D01*
X92687881Y-72877400D01*
X92687881Y-72877402D01*
X92730284Y-73035649D01*
X92745716Y-73093243D01*
X92748039Y-73098224D01*
X92748039Y-73098225D01*
X92840151Y-73295762D01*
X92840154Y-73295767D01*
X92842477Y-73300749D01*
X92893070Y-73373003D01*
X92950017Y-73454331D01*
X92973802Y-73488300D01*
X93135700Y-73650198D01*
X93140208Y-73653355D01*
X93140211Y-73653357D01*
X93151658Y-73661372D01*
X93323251Y-73781523D01*
X93328233Y-73783846D01*
X93328238Y-73783849D01*
X93520804Y-73873643D01*
X93530757Y-73878284D01*
X93536065Y-73879706D01*
X93536067Y-73879707D01*
X93746598Y-73936119D01*
X93746600Y-73936119D01*
X93751913Y-73937543D01*
X93980000Y-73957498D01*
X94208087Y-73937543D01*
X94213400Y-73936119D01*
X94213402Y-73936119D01*
X94423933Y-73879707D01*
X94423935Y-73879706D01*
X94429243Y-73878284D01*
X94439196Y-73873643D01*
X94631762Y-73783849D01*
X94631767Y-73783846D01*
X94636749Y-73781523D01*
X94808342Y-73661372D01*
X94819789Y-73653357D01*
X94819792Y-73653355D01*
X94824300Y-73650198D01*
X94986198Y-73488300D01*
X95009984Y-73454331D01*
X95066930Y-73373003D01*
X95117523Y-73300749D01*
X95119846Y-73295767D01*
X95119849Y-73295762D01*
X95211961Y-73098225D01*
X95211961Y-73098224D01*
X95214284Y-73093243D01*
X95229717Y-73035649D01*
X95272119Y-72877402D01*
X95272119Y-72877400D01*
X95273543Y-72872087D01*
X95293498Y-72644000D01*
X95273543Y-72415913D01*
X95214284Y-72194757D01*
X95211961Y-72189775D01*
X95119849Y-71992238D01*
X95119846Y-71992233D01*
X95117523Y-71987251D01*
X95033785Y-71867661D01*
X94989357Y-71804211D01*
X94989355Y-71804208D01*
X94986198Y-71799700D01*
X94824300Y-71637802D01*
X94819792Y-71634645D01*
X94819789Y-71634643D01*
X94741611Y-71579902D01*
X94636749Y-71506477D01*
X94631767Y-71504154D01*
X94631762Y-71504151D01*
X94434225Y-71412039D01*
X94434224Y-71412039D01*
X94429243Y-71409716D01*
X94423935Y-71408294D01*
X94423933Y-71408293D01*
X94213402Y-71351881D01*
X94213400Y-71351881D01*
X94208087Y-71350457D01*
X93980000Y-71330502D01*
X93751913Y-71350457D01*
X93746600Y-71351881D01*
X93746598Y-71351881D01*
X93536067Y-71408293D01*
X93536065Y-71408294D01*
X93530757Y-71409716D01*
X93525776Y-71412039D01*
X93525775Y-71412039D01*
X93328238Y-71504151D01*
X93328233Y-71504154D01*
X93323251Y-71506477D01*
X93218389Y-71579902D01*
X93140211Y-71634643D01*
X93140208Y-71634645D01*
X93135700Y-71637802D01*
X92973802Y-71799700D01*
X92970645Y-71804208D01*
X92970643Y-71804211D01*
X92926215Y-71867661D01*
X92842477Y-71987251D01*
X92840154Y-71992233D01*
X92840151Y-71992238D01*
X92748039Y-72189775D01*
X92745716Y-72194757D01*
X92686457Y-72415913D01*
X92666502Y-72644000D01*
X67514500Y-72644000D01*
X67514500Y-71912766D01*
X67515237Y-71899159D01*
X67518659Y-71867661D01*
X67518659Y-71867656D01*
X67519324Y-71861535D01*
X67514950Y-71811533D01*
X67514621Y-71806708D01*
X67514500Y-71804237D01*
X67514500Y-71801155D01*
X67510309Y-71758413D01*
X67510187Y-71757098D01*
X67502623Y-71670643D01*
X67502087Y-71664511D01*
X67500600Y-71659392D01*
X67500080Y-71654091D01*
X67473218Y-71565118D01*
X67472862Y-71563918D01*
X67457091Y-71509634D01*
X67446909Y-71474587D01*
X67444455Y-71469853D01*
X67442916Y-71464755D01*
X67440021Y-71459310D01*
X67399316Y-71382755D01*
X67398702Y-71381587D01*
X67358726Y-71304465D01*
X67358725Y-71304464D01*
X67355892Y-71298998D01*
X67352569Y-71294835D01*
X67350066Y-71290128D01*
X67291245Y-71218006D01*
X67290554Y-71217150D01*
X67259262Y-71177951D01*
X67256758Y-71175447D01*
X67256116Y-71174729D01*
X67252415Y-71170396D01*
X67225065Y-71136862D01*
X67189737Y-71107636D01*
X67180958Y-71099647D01*
X65562405Y-69481095D01*
X65528380Y-69418783D01*
X65533444Y-69347968D01*
X65575991Y-69291132D01*
X65604713Y-69280419D01*
X97006500Y-69280419D01*
X97006501Y-72607580D01*
X97012743Y-72686904D01*
X97062171Y-72871371D01*
X97148871Y-73041530D01*
X97153024Y-73046659D01*
X97153027Y-73046663D01*
X97264900Y-73184814D01*
X97269055Y-73189945D01*
X97274186Y-73194100D01*
X97412337Y-73305973D01*
X97412340Y-73305975D01*
X97417470Y-73310129D01*
X97423347Y-73313124D01*
X97423351Y-73313126D01*
X97569589Y-73387637D01*
X97587629Y-73396829D01*
X97594002Y-73398537D01*
X97594003Y-73398537D01*
X97766519Y-73444763D01*
X97766523Y-73444764D01*
X97772096Y-73446257D01*
X97777852Y-73446710D01*
X97848963Y-73452307D01*
X97848970Y-73452307D01*
X97851419Y-73452500D01*
X98314812Y-73452500D01*
X98778580Y-73452499D01*
X98827947Y-73448614D01*
X98852150Y-73446710D01*
X98852152Y-73446710D01*
X98857904Y-73446257D01*
X99042371Y-73396829D01*
X99212530Y-73310129D01*
X99218547Y-73305257D01*
X99235705Y-73291362D01*
X99301232Y-73264036D01*
X99371131Y-73276475D01*
X99394295Y-73291362D01*
X99411454Y-73305257D01*
X99417470Y-73310129D01*
X99587629Y-73396829D01*
X99594002Y-73398537D01*
X99594003Y-73398537D01*
X99766519Y-73444763D01*
X99766523Y-73444764D01*
X99772096Y-73446257D01*
X99777852Y-73446710D01*
X99848963Y-73452307D01*
X99848970Y-73452307D01*
X99851419Y-73452500D01*
X100314812Y-73452500D01*
X100778580Y-73452499D01*
X100827947Y-73448614D01*
X100852150Y-73446710D01*
X100852152Y-73446710D01*
X100857904Y-73446257D01*
X101042371Y-73396829D01*
X101212530Y-73310129D01*
X101218547Y-73305257D01*
X101235705Y-73291362D01*
X101301232Y-73264036D01*
X101371131Y-73276475D01*
X101394295Y-73291362D01*
X101411454Y-73305257D01*
X101417470Y-73310129D01*
X101587629Y-73396829D01*
X101594002Y-73398537D01*
X101594003Y-73398537D01*
X101766519Y-73444763D01*
X101766523Y-73444764D01*
X101772096Y-73446257D01*
X101777852Y-73446710D01*
X101848963Y-73452307D01*
X101848970Y-73452307D01*
X101851419Y-73452500D01*
X102314812Y-73452500D01*
X102778580Y-73452499D01*
X102827947Y-73448614D01*
X102852150Y-73446710D01*
X102852152Y-73446710D01*
X102857904Y-73446257D01*
X103042371Y-73396829D01*
X103212530Y-73310129D01*
X103218547Y-73305257D01*
X103235705Y-73291362D01*
X103301232Y-73264036D01*
X103371131Y-73276475D01*
X103394295Y-73291362D01*
X103411454Y-73305257D01*
X103417470Y-73310129D01*
X103587629Y-73396829D01*
X103594002Y-73398537D01*
X103594003Y-73398537D01*
X103766519Y-73444763D01*
X103766523Y-73444764D01*
X103772096Y-73446257D01*
X103777852Y-73446710D01*
X103848963Y-73452307D01*
X103848970Y-73452307D01*
X103851419Y-73452500D01*
X103865072Y-73452500D01*
X104613380Y-73452499D01*
X104681500Y-73472501D01*
X104727993Y-73526157D01*
X104738097Y-73596431D01*
X104708604Y-73661011D01*
X104661597Y-73694908D01*
X104527837Y-73750313D01*
X104527835Y-73750314D01*
X104523265Y-73752207D01*
X104320879Y-73876230D01*
X104140386Y-74030386D01*
X103986230Y-74210879D01*
X103862207Y-74413265D01*
X103860314Y-74417835D01*
X103860313Y-74417837D01*
X103773266Y-74627988D01*
X103771372Y-74632561D01*
X103751902Y-74713660D01*
X103717115Y-74858554D01*
X103717114Y-74858560D01*
X103715960Y-74863367D01*
X103700767Y-75056422D01*
X103699244Y-75075771D01*
X103698291Y-75083910D01*
X103698328Y-75084003D01*
X103696814Y-75093730D01*
X103697449Y-75098583D01*
X103697337Y-75100000D01*
X103697634Y-75100000D01*
X103698882Y-75109544D01*
X103700936Y-75125250D01*
X103702000Y-75141588D01*
X103702000Y-90050672D01*
X103700500Y-90070056D01*
X103696814Y-90093730D01*
X103697634Y-90100000D01*
X103697337Y-90100000D01*
X103697920Y-90107409D01*
X103697920Y-90107413D01*
X103704509Y-90191130D01*
X103715960Y-90336633D01*
X103717114Y-90341440D01*
X103717115Y-90341446D01*
X103742672Y-90447897D01*
X103771372Y-90567439D01*
X103773265Y-90572010D01*
X103773266Y-90572012D01*
X103805831Y-90650630D01*
X103862207Y-90786735D01*
X103986230Y-90989121D01*
X103989443Y-90992883D01*
X104102080Y-91124763D01*
X104140386Y-91169614D01*
X104144142Y-91172822D01*
X104317117Y-91320557D01*
X104320879Y-91323770D01*
X104523265Y-91447793D01*
X104527835Y-91449686D01*
X104527837Y-91449687D01*
X104737988Y-91536734D01*
X104742561Y-91538628D01*
X104823660Y-91558098D01*
X104968554Y-91592885D01*
X104968560Y-91592886D01*
X104973367Y-91594040D01*
X105210000Y-91612663D01*
X105446633Y-91594040D01*
X105451440Y-91592886D01*
X105451446Y-91592885D01*
X105596340Y-91558098D01*
X105677439Y-91538628D01*
X105682012Y-91536734D01*
X105892163Y-91449687D01*
X105892165Y-91449686D01*
X105896735Y-91447793D01*
X106099121Y-91323770D01*
X106102883Y-91320557D01*
X106275858Y-91172822D01*
X106279614Y-91169614D01*
X106317921Y-91124763D01*
X106430557Y-90992883D01*
X106433770Y-90989121D01*
X106557793Y-90786735D01*
X106614170Y-90650630D01*
X106646734Y-90572012D01*
X106646735Y-90572010D01*
X106648628Y-90567439D01*
X106677328Y-90447897D01*
X106702885Y-90341446D01*
X106702886Y-90341440D01*
X106704040Y-90336633D01*
X106720014Y-90133657D01*
X106721372Y-90122637D01*
X106722265Y-90117330D01*
X106722265Y-90117329D01*
X106723071Y-90112539D01*
X106723224Y-90100000D01*
X106719273Y-90072412D01*
X106718000Y-90054549D01*
X106718000Y-87592670D01*
X113432160Y-87592670D01*
X113437887Y-87600320D01*
X113609042Y-87705205D01*
X113617837Y-87709687D01*
X113827988Y-87796734D01*
X113837373Y-87799783D01*
X114058554Y-87852885D01*
X114068301Y-87854428D01*
X114295070Y-87872275D01*
X114304930Y-87872275D01*
X114531699Y-87854428D01*
X114541446Y-87852885D01*
X114762627Y-87799783D01*
X114772012Y-87796734D01*
X114982163Y-87709687D01*
X114990958Y-87705205D01*
X115158445Y-87602568D01*
X115167907Y-87592110D01*
X115164124Y-87583334D01*
X114312812Y-86732022D01*
X114298868Y-86724408D01*
X114297035Y-86724539D01*
X114290420Y-86728790D01*
X113438920Y-87580290D01*
X113432160Y-87592670D01*
X106718000Y-87592670D01*
X106718000Y-86364930D01*
X112787725Y-86364930D01*
X112805572Y-86591699D01*
X112807115Y-86601446D01*
X112860217Y-86822627D01*
X112863266Y-86832012D01*
X112950313Y-87042163D01*
X112954795Y-87050958D01*
X113057432Y-87218445D01*
X113067890Y-87227907D01*
X113076666Y-87224124D01*
X113927978Y-86372812D01*
X113934356Y-86361132D01*
X114664408Y-86361132D01*
X114664539Y-86362965D01*
X114668790Y-86369580D01*
X115520290Y-87221080D01*
X115532670Y-87227840D01*
X115540320Y-87222113D01*
X115645205Y-87050958D01*
X115649687Y-87042163D01*
X115736734Y-86832012D01*
X115739783Y-86822627D01*
X115792885Y-86601446D01*
X115794428Y-86591699D01*
X115812275Y-86364930D01*
X115812275Y-86355070D01*
X115794428Y-86128301D01*
X115792885Y-86118554D01*
X115739783Y-85897373D01*
X115736734Y-85887988D01*
X115649687Y-85677837D01*
X115645205Y-85669042D01*
X115542568Y-85501555D01*
X115532110Y-85492093D01*
X115523334Y-85495876D01*
X114672022Y-86347188D01*
X114664408Y-86361132D01*
X113934356Y-86361132D01*
X113935592Y-86358868D01*
X113935461Y-86357035D01*
X113931210Y-86350420D01*
X113079710Y-85498920D01*
X113067330Y-85492160D01*
X113059680Y-85497887D01*
X112954795Y-85669042D01*
X112950313Y-85677837D01*
X112863266Y-85887988D01*
X112860217Y-85897373D01*
X112807115Y-86118554D01*
X112805572Y-86128301D01*
X112787725Y-86355070D01*
X112787725Y-86364930D01*
X106718000Y-86364930D01*
X106718000Y-85127890D01*
X113432093Y-85127890D01*
X113435876Y-85136666D01*
X114287188Y-85987978D01*
X114301132Y-85995592D01*
X114302965Y-85995461D01*
X114309580Y-85991210D01*
X115161080Y-85139710D01*
X115167840Y-85127330D01*
X115162113Y-85119680D01*
X114990958Y-85014795D01*
X114982163Y-85010313D01*
X114772012Y-84923266D01*
X114762627Y-84920217D01*
X114541446Y-84867115D01*
X114531699Y-84865572D01*
X114304930Y-84847725D01*
X114295070Y-84847725D01*
X114068301Y-84865572D01*
X114058554Y-84867115D01*
X113837373Y-84920217D01*
X113827988Y-84923266D01*
X113617837Y-85010313D01*
X113609042Y-85014795D01*
X113441555Y-85117432D01*
X113432093Y-85127890D01*
X106718000Y-85127890D01*
X106718000Y-75153207D01*
X106719746Y-75132303D01*
X106720279Y-75129137D01*
X106723071Y-75112539D01*
X106723224Y-75100000D01*
X106722534Y-75095184D01*
X106722529Y-75095100D01*
X106721665Y-75087314D01*
X106712949Y-74976565D01*
X106704040Y-74863367D01*
X106702886Y-74858560D01*
X106702885Y-74858554D01*
X106668098Y-74713660D01*
X106648628Y-74632561D01*
X106646734Y-74627988D01*
X106559687Y-74417837D01*
X106559686Y-74417835D01*
X106557793Y-74413265D01*
X106433770Y-74210879D01*
X106279614Y-74030386D01*
X106099121Y-73876230D01*
X105896735Y-73752207D01*
X105892165Y-73750314D01*
X105892163Y-73750313D01*
X105749059Y-73691038D01*
X105693778Y-73646490D01*
X105671357Y-73579127D01*
X105688915Y-73510335D01*
X105740877Y-73461957D01*
X105807163Y-73449017D01*
X105848962Y-73452307D01*
X105848971Y-73452307D01*
X105851419Y-73452500D01*
X106314812Y-73452500D01*
X106778580Y-73452499D01*
X106827947Y-73448614D01*
X106852150Y-73446710D01*
X106852152Y-73446710D01*
X106857904Y-73446257D01*
X107042371Y-73396829D01*
X107212530Y-73310129D01*
X107218547Y-73305257D01*
X107235705Y-73291362D01*
X107301232Y-73264036D01*
X107371131Y-73276475D01*
X107394295Y-73291362D01*
X107411454Y-73305257D01*
X107417470Y-73310129D01*
X107587629Y-73396829D01*
X107594002Y-73398537D01*
X107594003Y-73398537D01*
X107766519Y-73444763D01*
X107766523Y-73444764D01*
X107772096Y-73446257D01*
X107777852Y-73446710D01*
X107848963Y-73452307D01*
X107848970Y-73452307D01*
X107851419Y-73452500D01*
X108314812Y-73452500D01*
X108778580Y-73452499D01*
X108827947Y-73448614D01*
X108852150Y-73446710D01*
X108852152Y-73446710D01*
X108857904Y-73446257D01*
X109042371Y-73396829D01*
X109212530Y-73310129D01*
X109218547Y-73305257D01*
X109235705Y-73291362D01*
X109301232Y-73264036D01*
X109371131Y-73276475D01*
X109394295Y-73291362D01*
X109411454Y-73305257D01*
X109417470Y-73310129D01*
X109587629Y-73396829D01*
X109594002Y-73398537D01*
X109594003Y-73398537D01*
X109766519Y-73444763D01*
X109766523Y-73444764D01*
X109772096Y-73446257D01*
X109777852Y-73446710D01*
X109848963Y-73452307D01*
X109848970Y-73452307D01*
X109851419Y-73452500D01*
X110314812Y-73452500D01*
X110778580Y-73452499D01*
X110827947Y-73448614D01*
X110852150Y-73446710D01*
X110852152Y-73446710D01*
X110857904Y-73446257D01*
X111042371Y-73396829D01*
X111212530Y-73310129D01*
X111218547Y-73305257D01*
X111235705Y-73291362D01*
X111301232Y-73264036D01*
X111371131Y-73276475D01*
X111394295Y-73291362D01*
X111411454Y-73305257D01*
X111417470Y-73310129D01*
X111587629Y-73396829D01*
X111594002Y-73398537D01*
X111594003Y-73398537D01*
X111766519Y-73444763D01*
X111766523Y-73444764D01*
X111772096Y-73446257D01*
X111777852Y-73446710D01*
X111848963Y-73452307D01*
X111848970Y-73452307D01*
X111851419Y-73452500D01*
X112314812Y-73452500D01*
X112778580Y-73452499D01*
X112827947Y-73448614D01*
X112852150Y-73446710D01*
X112852152Y-73446710D01*
X112857904Y-73446257D01*
X113042371Y-73396829D01*
X113212530Y-73310129D01*
X113218547Y-73305257D01*
X113235705Y-73291362D01*
X113301232Y-73264036D01*
X113371131Y-73276475D01*
X113394295Y-73291362D01*
X113411454Y-73305257D01*
X113417470Y-73310129D01*
X113587629Y-73396829D01*
X113594002Y-73398537D01*
X113594003Y-73398537D01*
X113766519Y-73444763D01*
X113766523Y-73444764D01*
X113772096Y-73446257D01*
X113777852Y-73446710D01*
X113848963Y-73452307D01*
X113848970Y-73452307D01*
X113851419Y-73452500D01*
X114314812Y-73452500D01*
X114778580Y-73452499D01*
X114827947Y-73448614D01*
X114852150Y-73446710D01*
X114852152Y-73446710D01*
X114857904Y-73446257D01*
X115042371Y-73396829D01*
X115212530Y-73310129D01*
X115218547Y-73305257D01*
X115235705Y-73291362D01*
X115301232Y-73264036D01*
X115371131Y-73276475D01*
X115394295Y-73291362D01*
X115411454Y-73305257D01*
X115417470Y-73310129D01*
X115587629Y-73396829D01*
X115594002Y-73398537D01*
X115594003Y-73398537D01*
X115766519Y-73444763D01*
X115766523Y-73444764D01*
X115772096Y-73446257D01*
X115777852Y-73446710D01*
X115848963Y-73452307D01*
X115848970Y-73452307D01*
X115851419Y-73452500D01*
X116314812Y-73452500D01*
X116778580Y-73452499D01*
X116827947Y-73448614D01*
X116852150Y-73446710D01*
X116852152Y-73446710D01*
X116857904Y-73446257D01*
X117042371Y-73396829D01*
X117060411Y-73387637D01*
X117206649Y-73313126D01*
X117206653Y-73313124D01*
X117212530Y-73310129D01*
X117217660Y-73305975D01*
X117217663Y-73305973D01*
X117355814Y-73194100D01*
X117360945Y-73189945D01*
X117365100Y-73184814D01*
X117476973Y-73046663D01*
X117476976Y-73046659D01*
X117481129Y-73041530D01*
X117567829Y-72871371D01*
X117617257Y-72686904D01*
X117621065Y-72638525D01*
X117623307Y-72610037D01*
X117623307Y-72610030D01*
X117623500Y-72607581D01*
X117623499Y-69280420D01*
X117617257Y-69201096D01*
X117567829Y-69016629D01*
X117548101Y-68977911D01*
X117484126Y-68852351D01*
X117484124Y-68852347D01*
X117481129Y-68846470D01*
X117476976Y-68841341D01*
X117476973Y-68841337D01*
X117365100Y-68703186D01*
X117360945Y-68698055D01*
X117315001Y-68660850D01*
X117217663Y-68582027D01*
X117217659Y-68582024D01*
X117212530Y-68577871D01*
X117206653Y-68574876D01*
X117206649Y-68574874D01*
X117048251Y-68494167D01*
X117042371Y-68491171D01*
X117035997Y-68489463D01*
X116863481Y-68443237D01*
X116863477Y-68443236D01*
X116857904Y-68441743D01*
X116848175Y-68440977D01*
X116781037Y-68435693D01*
X116781030Y-68435693D01*
X116778581Y-68435500D01*
X116315188Y-68435500D01*
X115851420Y-68435501D01*
X115802053Y-68439386D01*
X115777850Y-68441290D01*
X115777848Y-68441290D01*
X115772096Y-68441743D01*
X115587629Y-68491171D01*
X115417470Y-68577871D01*
X115412341Y-68582024D01*
X115412340Y-68582025D01*
X115394295Y-68596638D01*
X115328768Y-68623964D01*
X115258869Y-68611525D01*
X115235705Y-68596638D01*
X115217660Y-68582025D01*
X115217659Y-68582024D01*
X115212530Y-68577871D01*
X115042371Y-68491171D01*
X115035997Y-68489463D01*
X114863481Y-68443237D01*
X114863477Y-68443236D01*
X114857904Y-68441743D01*
X114848175Y-68440977D01*
X114781037Y-68435693D01*
X114781030Y-68435693D01*
X114778581Y-68435500D01*
X114315188Y-68435500D01*
X113851420Y-68435501D01*
X113802053Y-68439386D01*
X113777850Y-68441290D01*
X113777848Y-68441290D01*
X113772096Y-68441743D01*
X113587629Y-68491171D01*
X113417470Y-68577871D01*
X113412341Y-68582024D01*
X113412340Y-68582025D01*
X113394295Y-68596638D01*
X113328768Y-68623964D01*
X113258869Y-68611525D01*
X113235705Y-68596638D01*
X113217660Y-68582025D01*
X113217659Y-68582024D01*
X113212530Y-68577871D01*
X113042371Y-68491171D01*
X113035997Y-68489463D01*
X112863481Y-68443237D01*
X112863477Y-68443236D01*
X112857904Y-68441743D01*
X112848175Y-68440977D01*
X112781037Y-68435693D01*
X112781030Y-68435693D01*
X112778581Y-68435500D01*
X112315188Y-68435500D01*
X111851420Y-68435501D01*
X111802053Y-68439386D01*
X111777850Y-68441290D01*
X111777848Y-68441290D01*
X111772096Y-68441743D01*
X111587629Y-68491171D01*
X111417470Y-68577871D01*
X111412341Y-68582024D01*
X111412340Y-68582025D01*
X111394295Y-68596638D01*
X111328768Y-68623964D01*
X111258869Y-68611525D01*
X111235705Y-68596638D01*
X111217660Y-68582025D01*
X111217659Y-68582024D01*
X111212530Y-68577871D01*
X111042371Y-68491171D01*
X111035997Y-68489463D01*
X110863481Y-68443237D01*
X110863477Y-68443236D01*
X110857904Y-68441743D01*
X110848175Y-68440977D01*
X110781037Y-68435693D01*
X110781030Y-68435693D01*
X110778581Y-68435500D01*
X110315188Y-68435500D01*
X109851420Y-68435501D01*
X109802053Y-68439386D01*
X109777850Y-68441290D01*
X109777848Y-68441290D01*
X109772096Y-68441743D01*
X109587629Y-68491171D01*
X109417470Y-68577871D01*
X109412341Y-68582024D01*
X109412340Y-68582025D01*
X109394295Y-68596638D01*
X109328768Y-68623964D01*
X109258869Y-68611525D01*
X109235705Y-68596638D01*
X109217660Y-68582025D01*
X109217659Y-68582024D01*
X109212530Y-68577871D01*
X109042371Y-68491171D01*
X109035997Y-68489463D01*
X108863481Y-68443237D01*
X108863477Y-68443236D01*
X108857904Y-68441743D01*
X108848175Y-68440977D01*
X108781037Y-68435693D01*
X108781030Y-68435693D01*
X108778581Y-68435500D01*
X108315188Y-68435500D01*
X107851420Y-68435501D01*
X107802053Y-68439386D01*
X107777850Y-68441290D01*
X107777848Y-68441290D01*
X107772096Y-68441743D01*
X107587629Y-68491171D01*
X107417470Y-68577871D01*
X107412341Y-68582024D01*
X107412340Y-68582025D01*
X107394295Y-68596638D01*
X107328768Y-68623964D01*
X107258869Y-68611525D01*
X107235705Y-68596638D01*
X107217660Y-68582025D01*
X107217659Y-68582024D01*
X107212530Y-68577871D01*
X107042371Y-68491171D01*
X107035997Y-68489463D01*
X106863481Y-68443237D01*
X106863477Y-68443236D01*
X106857904Y-68441743D01*
X106848175Y-68440977D01*
X106781037Y-68435693D01*
X106781030Y-68435693D01*
X106778581Y-68435500D01*
X106315188Y-68435500D01*
X105851420Y-68435501D01*
X105802053Y-68439386D01*
X105777850Y-68441290D01*
X105777848Y-68441290D01*
X105772096Y-68441743D01*
X105587629Y-68491171D01*
X105417470Y-68577871D01*
X105412341Y-68582024D01*
X105412340Y-68582025D01*
X105394295Y-68596638D01*
X105328768Y-68623964D01*
X105258869Y-68611525D01*
X105235705Y-68596638D01*
X105217660Y-68582025D01*
X105217659Y-68582024D01*
X105212530Y-68577871D01*
X105042371Y-68491171D01*
X105035997Y-68489463D01*
X104863481Y-68443237D01*
X104863477Y-68443236D01*
X104857904Y-68441743D01*
X104848175Y-68440977D01*
X104781037Y-68435693D01*
X104781030Y-68435693D01*
X104778581Y-68435500D01*
X104315188Y-68435500D01*
X103851420Y-68435501D01*
X103802053Y-68439386D01*
X103777850Y-68441290D01*
X103777848Y-68441290D01*
X103772096Y-68441743D01*
X103587629Y-68491171D01*
X103417470Y-68577871D01*
X103412341Y-68582024D01*
X103412340Y-68582025D01*
X103394295Y-68596638D01*
X103328768Y-68623964D01*
X103258869Y-68611525D01*
X103235705Y-68596638D01*
X103217660Y-68582025D01*
X103217659Y-68582024D01*
X103212530Y-68577871D01*
X103042371Y-68491171D01*
X103035997Y-68489463D01*
X102863481Y-68443237D01*
X102863477Y-68443236D01*
X102857904Y-68441743D01*
X102848175Y-68440977D01*
X102781037Y-68435693D01*
X102781030Y-68435693D01*
X102778581Y-68435500D01*
X102315188Y-68435500D01*
X101851420Y-68435501D01*
X101802053Y-68439386D01*
X101777850Y-68441290D01*
X101777848Y-68441290D01*
X101772096Y-68441743D01*
X101587629Y-68491171D01*
X101417470Y-68577871D01*
X101412341Y-68582024D01*
X101412340Y-68582025D01*
X101394295Y-68596638D01*
X101328768Y-68623964D01*
X101258869Y-68611525D01*
X101235705Y-68596638D01*
X101217660Y-68582025D01*
X101217659Y-68582024D01*
X101212530Y-68577871D01*
X101042371Y-68491171D01*
X101035997Y-68489463D01*
X100863481Y-68443237D01*
X100863477Y-68443236D01*
X100857904Y-68441743D01*
X100848175Y-68440977D01*
X100781037Y-68435693D01*
X100781030Y-68435693D01*
X100778581Y-68435500D01*
X100315188Y-68435500D01*
X99851420Y-68435501D01*
X99802053Y-68439386D01*
X99777850Y-68441290D01*
X99777848Y-68441290D01*
X99772096Y-68441743D01*
X99587629Y-68491171D01*
X99417470Y-68577871D01*
X99412341Y-68582024D01*
X99412340Y-68582025D01*
X99394295Y-68596638D01*
X99328768Y-68623964D01*
X99258869Y-68611525D01*
X99235705Y-68596638D01*
X99217660Y-68582025D01*
X99217659Y-68582024D01*
X99212530Y-68577871D01*
X99042371Y-68491171D01*
X99035997Y-68489463D01*
X98863481Y-68443237D01*
X98863477Y-68443236D01*
X98857904Y-68441743D01*
X98848175Y-68440977D01*
X98781037Y-68435693D01*
X98781030Y-68435693D01*
X98778581Y-68435500D01*
X98315188Y-68435500D01*
X97851420Y-68435501D01*
X97802053Y-68439386D01*
X97777850Y-68441290D01*
X97777848Y-68441290D01*
X97772096Y-68441743D01*
X97587629Y-68491171D01*
X97581749Y-68494167D01*
X97423351Y-68574874D01*
X97423347Y-68574876D01*
X97417470Y-68577871D01*
X97412341Y-68582024D01*
X97412337Y-68582027D01*
X97314999Y-68660850D01*
X97269055Y-68698055D01*
X97264900Y-68703186D01*
X97153027Y-68841337D01*
X97153024Y-68841341D01*
X97148871Y-68846470D01*
X97145876Y-68852347D01*
X97145874Y-68852351D01*
X97081899Y-68977911D01*
X97062171Y-69016629D01*
X97060463Y-69023002D01*
X97060463Y-69023003D01*
X97026084Y-69151308D01*
X97012743Y-69201096D01*
X97012290Y-69206850D01*
X97012290Y-69206852D01*
X97006694Y-69277960D01*
X97006500Y-69280419D01*
X65604713Y-69280419D01*
X65642511Y-69266321D01*
X65651500Y-69266000D01*
X65737885Y-69266000D01*
X65753124Y-69261525D01*
X65754329Y-69260135D01*
X65756000Y-69252452D01*
X65756000Y-67880000D01*
X65776002Y-67811879D01*
X65829658Y-67765386D01*
X65882000Y-67754000D01*
X66138000Y-67754000D01*
X66206121Y-67774002D01*
X66252614Y-67827658D01*
X66264000Y-67880000D01*
X66264000Y-69247884D01*
X66268475Y-69263123D01*
X66269865Y-69264328D01*
X66277548Y-69265999D01*
X66885753Y-69265999D01*
X66887644Y-69265945D01*
X66897600Y-69264520D01*
X67064902Y-69225895D01*
X67078105Y-69221245D01*
X67231145Y-69147263D01*
X67242383Y-69140186D01*
X67310685Y-69120810D01*
X67376674Y-69140187D01*
X67376729Y-69140222D01*
X67382240Y-69144621D01*
X67548070Y-69224786D01*
X67554931Y-69226370D01*
X67722341Y-69265020D01*
X67722344Y-69265020D01*
X67727540Y-69266220D01*
X67732396Y-69266500D01*
X69487604Y-69266500D01*
X69492460Y-69266220D01*
X69497656Y-69265020D01*
X69497659Y-69265020D01*
X69665069Y-69226370D01*
X69671930Y-69224786D01*
X69748073Y-69187977D01*
X69831416Y-69147688D01*
X69831417Y-69147687D01*
X69837760Y-69144621D01*
X69981708Y-69029708D01*
X70096621Y-68885760D01*
X70100694Y-68877336D01*
X70173720Y-68726272D01*
X70176786Y-68719930D01*
X70207603Y-68586447D01*
X70217020Y-68545659D01*
X70217020Y-68545656D01*
X70218220Y-68540460D01*
X70218500Y-68535604D01*
X70218500Y-67480396D01*
X70218220Y-67475540D01*
X70199003Y-67392300D01*
X70178370Y-67302931D01*
X70176786Y-67296070D01*
X70103573Y-67144621D01*
X70099688Y-67136584D01*
X70099687Y-67136583D01*
X70096621Y-67130240D01*
X70061789Y-67086607D01*
X70034922Y-67020894D01*
X70047849Y-66951084D01*
X70061785Y-66929398D01*
X70096621Y-66885760D01*
X70176786Y-66719930D01*
X70183289Y-66691762D01*
X70217020Y-66545659D01*
X70217020Y-66545656D01*
X70218220Y-66540460D01*
X70218500Y-66535604D01*
X70218500Y-66040000D01*
X71076502Y-66040000D01*
X71096457Y-66268087D01*
X71155716Y-66489243D01*
X71158039Y-66494224D01*
X71158039Y-66494225D01*
X71250151Y-66691762D01*
X71250154Y-66691767D01*
X71252477Y-66696749D01*
X71293253Y-66754983D01*
X71380582Y-66879701D01*
X71383802Y-66884300D01*
X71545700Y-67046198D01*
X71550208Y-67049355D01*
X71550211Y-67049357D01*
X71603414Y-67086610D01*
X71733251Y-67177523D01*
X71738233Y-67179846D01*
X71738238Y-67179849D01*
X71924064Y-67266500D01*
X71940757Y-67274284D01*
X71946065Y-67275706D01*
X71946067Y-67275707D01*
X72156598Y-67332119D01*
X72156600Y-67332119D01*
X72161913Y-67333543D01*
X72390000Y-67353498D01*
X72618087Y-67333543D01*
X72623400Y-67332119D01*
X72623402Y-67332119D01*
X72833933Y-67275707D01*
X72833935Y-67275706D01*
X72839243Y-67274284D01*
X72855936Y-67266500D01*
X73041762Y-67179849D01*
X73041767Y-67179846D01*
X73046749Y-67177523D01*
X73176586Y-67086610D01*
X73229789Y-67049357D01*
X73229792Y-67049355D01*
X73234300Y-67046198D01*
X73396198Y-66884300D01*
X73399419Y-66879701D01*
X73486747Y-66754983D01*
X73527523Y-66696749D01*
X73529846Y-66691767D01*
X73529849Y-66691762D01*
X73596886Y-66548000D01*
X74632502Y-66548000D01*
X74652457Y-66776087D01*
X74653881Y-66781400D01*
X74653881Y-66781402D01*
X74699348Y-66951084D01*
X74711716Y-66997243D01*
X74714039Y-67002224D01*
X74714039Y-67002225D01*
X74806151Y-67199762D01*
X74806154Y-67199767D01*
X74808477Y-67204749D01*
X74939802Y-67392300D01*
X75101700Y-67554198D01*
X75106208Y-67557355D01*
X75106211Y-67557357D01*
X75184389Y-67612098D01*
X75289251Y-67685523D01*
X75294233Y-67687846D01*
X75294238Y-67687849D01*
X75478996Y-67774002D01*
X75496757Y-67782284D01*
X75502065Y-67783706D01*
X75502067Y-67783707D01*
X75712598Y-67840119D01*
X75712600Y-67840119D01*
X75717913Y-67841543D01*
X75946000Y-67861498D01*
X76174087Y-67841543D01*
X76179400Y-67840119D01*
X76179402Y-67840119D01*
X76389933Y-67783707D01*
X76389935Y-67783706D01*
X76395243Y-67782284D01*
X76413004Y-67774002D01*
X76597762Y-67687849D01*
X76597767Y-67687846D01*
X76602749Y-67685523D01*
X76707611Y-67612098D01*
X76785789Y-67557357D01*
X76785792Y-67557355D01*
X76790300Y-67554198D01*
X76952198Y-67392300D01*
X77083523Y-67204749D01*
X77085846Y-67199767D01*
X77085849Y-67199762D01*
X77177961Y-67002225D01*
X77177961Y-67002224D01*
X77180284Y-66997243D01*
X77192653Y-66951084D01*
X77238119Y-66781402D01*
X77238119Y-66781400D01*
X77239543Y-66776087D01*
X77259498Y-66548000D01*
X77239543Y-66319913D01*
X77180284Y-66098757D01*
X77177961Y-66093775D01*
X77085849Y-65896238D01*
X77085846Y-65896233D01*
X77083523Y-65891251D01*
X76952198Y-65703700D01*
X76790300Y-65541802D01*
X76785792Y-65538645D01*
X76785789Y-65538643D01*
X76688243Y-65470341D01*
X76602749Y-65410477D01*
X76597767Y-65408154D01*
X76597762Y-65408151D01*
X76563543Y-65392195D01*
X76510258Y-65345278D01*
X76490797Y-65277001D01*
X76511339Y-65209041D01*
X76563543Y-65163805D01*
X76597762Y-65147849D01*
X76597767Y-65147846D01*
X76602749Y-65145523D01*
X76717867Y-65064916D01*
X76785789Y-65017357D01*
X76785792Y-65017355D01*
X76790300Y-65014198D01*
X76952198Y-64852300D01*
X76971411Y-64824862D01*
X77080366Y-64669257D01*
X77083523Y-64664749D01*
X77085846Y-64659767D01*
X77085849Y-64659762D01*
X77177961Y-64462225D01*
X77177961Y-64462224D01*
X77180284Y-64457243D01*
X77239543Y-64236087D01*
X77259498Y-64008000D01*
X77239543Y-63779913D01*
X77223411Y-63719707D01*
X77181707Y-63564067D01*
X77181706Y-63564065D01*
X77180284Y-63558757D01*
X77148315Y-63490198D01*
X77085849Y-63356238D01*
X77085846Y-63356233D01*
X77083523Y-63351251D01*
X77006170Y-63240780D01*
X76955357Y-63168211D01*
X76955355Y-63168208D01*
X76952198Y-63163700D01*
X76790300Y-63001802D01*
X76785792Y-62998645D01*
X76785789Y-62998643D01*
X76637617Y-62894892D01*
X76602749Y-62870477D01*
X76597767Y-62868154D01*
X76597762Y-62868151D01*
X76400225Y-62776039D01*
X76400224Y-62776039D01*
X76395243Y-62773716D01*
X76389935Y-62772294D01*
X76389933Y-62772293D01*
X76179402Y-62715881D01*
X76179400Y-62715881D01*
X76174087Y-62714457D01*
X75946000Y-62694502D01*
X75717913Y-62714457D01*
X75712600Y-62715881D01*
X75712598Y-62715881D01*
X75502067Y-62772293D01*
X75502065Y-62772294D01*
X75496757Y-62773716D01*
X75491776Y-62776039D01*
X75491775Y-62776039D01*
X75294238Y-62868151D01*
X75294233Y-62868154D01*
X75289251Y-62870477D01*
X75254383Y-62894892D01*
X75106211Y-62998643D01*
X75106208Y-62998645D01*
X75101700Y-63001802D01*
X74939802Y-63163700D01*
X74936645Y-63168208D01*
X74936643Y-63168211D01*
X74885830Y-63240780D01*
X74808477Y-63351251D01*
X74806154Y-63356233D01*
X74806151Y-63356238D01*
X74743685Y-63490198D01*
X74711716Y-63558757D01*
X74710294Y-63564065D01*
X74710293Y-63564067D01*
X74668589Y-63719707D01*
X74652457Y-63779913D01*
X74632502Y-64008000D01*
X74652457Y-64236087D01*
X74711716Y-64457243D01*
X74714039Y-64462224D01*
X74714039Y-64462225D01*
X74806151Y-64659762D01*
X74806154Y-64659767D01*
X74808477Y-64664749D01*
X74811634Y-64669257D01*
X74920590Y-64824862D01*
X74939802Y-64852300D01*
X75101700Y-65014198D01*
X75106208Y-65017355D01*
X75106211Y-65017357D01*
X75174133Y-65064916D01*
X75289251Y-65145523D01*
X75294233Y-65147846D01*
X75294238Y-65147849D01*
X75328457Y-65163805D01*
X75381742Y-65210722D01*
X75401203Y-65278999D01*
X75380661Y-65346959D01*
X75328457Y-65392195D01*
X75294238Y-65408151D01*
X75294233Y-65408154D01*
X75289251Y-65410477D01*
X75203757Y-65470341D01*
X75106211Y-65538643D01*
X75106208Y-65538645D01*
X75101700Y-65541802D01*
X74939802Y-65703700D01*
X74808477Y-65891251D01*
X74806154Y-65896233D01*
X74806151Y-65896238D01*
X74714039Y-66093775D01*
X74711716Y-66098757D01*
X74652457Y-66319913D01*
X74632502Y-66548000D01*
X73596886Y-66548000D01*
X73621961Y-66494225D01*
X73621961Y-66494224D01*
X73624284Y-66489243D01*
X73683543Y-66268087D01*
X73703498Y-66040000D01*
X73683543Y-65811913D01*
X73624284Y-65590757D01*
X73573673Y-65482220D01*
X73529849Y-65388238D01*
X73529846Y-65388233D01*
X73527523Y-65383251D01*
X73421287Y-65231531D01*
X73398500Y-65159260D01*
X73398500Y-63110740D01*
X73421287Y-63038469D01*
X73446962Y-63001802D01*
X73527523Y-62886749D01*
X73529846Y-62881767D01*
X73529849Y-62881762D01*
X73621961Y-62684225D01*
X73621961Y-62684224D01*
X73624284Y-62679243D01*
X73676600Y-62484000D01*
X92666502Y-62484000D01*
X92686457Y-62712087D01*
X92687881Y-62717400D01*
X92687881Y-62717402D01*
X92731922Y-62881762D01*
X92745716Y-62933243D01*
X92748039Y-62938224D01*
X92748039Y-62938225D01*
X92840151Y-63135762D01*
X92840154Y-63135767D01*
X92842477Y-63140749D01*
X92874246Y-63186120D01*
X92946794Y-63289728D01*
X92973802Y-63328300D01*
X93135700Y-63490198D01*
X93140208Y-63493355D01*
X93140211Y-63493357D01*
X93218389Y-63548098D01*
X93323251Y-63621523D01*
X93328233Y-63623846D01*
X93328238Y-63623849D01*
X93525775Y-63715961D01*
X93530757Y-63718284D01*
X93536065Y-63719706D01*
X93536067Y-63719707D01*
X93746598Y-63776119D01*
X93746600Y-63776119D01*
X93751913Y-63777543D01*
X93980000Y-63797498D01*
X94208087Y-63777543D01*
X94213400Y-63776119D01*
X94213402Y-63776119D01*
X94423933Y-63719707D01*
X94423935Y-63719706D01*
X94429243Y-63718284D01*
X94434225Y-63715961D01*
X94631762Y-63623849D01*
X94631767Y-63623846D01*
X94636749Y-63621523D01*
X94741611Y-63548098D01*
X94819789Y-63493357D01*
X94819792Y-63493355D01*
X94824300Y-63490198D01*
X94986198Y-63328300D01*
X95013207Y-63289728D01*
X95085754Y-63186120D01*
X95117523Y-63140749D01*
X95119846Y-63135767D01*
X95119849Y-63135762D01*
X95211961Y-62938225D01*
X95211961Y-62938224D01*
X95214284Y-62933243D01*
X95228079Y-62881762D01*
X95272119Y-62717402D01*
X95272119Y-62717400D01*
X95273543Y-62712087D01*
X95293498Y-62484000D01*
X95273543Y-62255913D01*
X95214284Y-62034757D01*
X95196490Y-61996598D01*
X95119849Y-61832238D01*
X95119846Y-61832233D01*
X95117523Y-61827251D01*
X94986198Y-61639700D01*
X94824300Y-61477802D01*
X94819792Y-61474645D01*
X94819789Y-61474643D01*
X94692765Y-61385700D01*
X94636749Y-61346477D01*
X94631767Y-61344154D01*
X94631762Y-61344151D01*
X94434225Y-61252039D01*
X94434224Y-61252039D01*
X94429243Y-61249716D01*
X94423935Y-61248294D01*
X94423933Y-61248293D01*
X94213402Y-61191881D01*
X94213400Y-61191881D01*
X94208087Y-61190457D01*
X93980000Y-61170502D01*
X93751913Y-61190457D01*
X93746600Y-61191881D01*
X93746598Y-61191881D01*
X93536067Y-61248293D01*
X93536065Y-61248294D01*
X93530757Y-61249716D01*
X93525776Y-61252039D01*
X93525775Y-61252039D01*
X93328238Y-61344151D01*
X93328233Y-61344154D01*
X93323251Y-61346477D01*
X93267235Y-61385700D01*
X93140211Y-61474643D01*
X93140208Y-61474645D01*
X93135700Y-61477802D01*
X92973802Y-61639700D01*
X92842477Y-61827251D01*
X92840154Y-61832233D01*
X92840151Y-61832238D01*
X92763510Y-61996598D01*
X92745716Y-62034757D01*
X92686457Y-62255913D01*
X92666502Y-62484000D01*
X73676600Y-62484000D01*
X73683543Y-62458087D01*
X73703498Y-62230000D01*
X73683543Y-62001913D01*
X73682119Y-61996598D01*
X73625707Y-61786067D01*
X73625706Y-61786065D01*
X73624284Y-61780757D01*
X73560612Y-61644211D01*
X73529849Y-61578238D01*
X73529846Y-61578233D01*
X73527523Y-61573251D01*
X73396198Y-61385700D01*
X73234300Y-61223802D01*
X73229792Y-61220645D01*
X73229789Y-61220643D01*
X73151611Y-61165902D01*
X73046749Y-61092477D01*
X73041767Y-61090154D01*
X73041762Y-61090151D01*
X72844225Y-60998039D01*
X72844224Y-60998039D01*
X72839243Y-60995716D01*
X72833935Y-60994294D01*
X72833933Y-60994293D01*
X72623402Y-60937881D01*
X72623400Y-60937881D01*
X72618087Y-60936457D01*
X72390000Y-60916502D01*
X72161913Y-60936457D01*
X72156600Y-60937881D01*
X72156598Y-60937881D01*
X71946067Y-60994293D01*
X71946065Y-60994294D01*
X71940757Y-60995716D01*
X71935776Y-60998039D01*
X71935775Y-60998039D01*
X71738238Y-61090151D01*
X71738233Y-61090154D01*
X71733251Y-61092477D01*
X71628389Y-61165902D01*
X71550211Y-61220643D01*
X71550208Y-61220645D01*
X71545700Y-61223802D01*
X71383802Y-61385700D01*
X71252477Y-61573251D01*
X71250154Y-61578233D01*
X71250151Y-61578238D01*
X71219388Y-61644211D01*
X71155716Y-61780757D01*
X71154294Y-61786065D01*
X71154293Y-61786067D01*
X71097881Y-61996598D01*
X71096457Y-62001913D01*
X71076502Y-62230000D01*
X71096457Y-62458087D01*
X71155716Y-62679243D01*
X71158039Y-62684224D01*
X71158039Y-62684225D01*
X71250151Y-62881762D01*
X71250154Y-62881767D01*
X71252477Y-62886749D01*
X71333038Y-63001802D01*
X71358713Y-63038469D01*
X71381500Y-63110740D01*
X71381500Y-65159260D01*
X71358713Y-65231531D01*
X71252477Y-65383251D01*
X71250154Y-65388233D01*
X71250151Y-65388238D01*
X71206327Y-65482220D01*
X71155716Y-65590757D01*
X71096457Y-65811913D01*
X71076502Y-66040000D01*
X70218500Y-66040000D01*
X70218500Y-65480396D01*
X70218220Y-65475540D01*
X70196914Y-65383251D01*
X70178370Y-65302931D01*
X70176786Y-65296070D01*
X70110650Y-65159260D01*
X70099688Y-65136584D01*
X70099687Y-65136583D01*
X70096621Y-65130240D01*
X70061789Y-65086607D01*
X70034922Y-65020894D01*
X70047849Y-64951084D01*
X70061785Y-64929398D01*
X70096621Y-64885760D01*
X70176786Y-64719930D01*
X70218220Y-64540460D01*
X70218500Y-64535604D01*
X70218500Y-63480396D01*
X70218220Y-63475540D01*
X70176786Y-63296070D01*
X70110912Y-63159803D01*
X70099688Y-63136584D01*
X70099687Y-63136583D01*
X70096621Y-63130240D01*
X69981708Y-62986292D01*
X69837760Y-62871379D01*
X69671930Y-62791214D01*
X69606200Y-62776039D01*
X69497659Y-62750980D01*
X69497656Y-62750980D01*
X69492460Y-62749780D01*
X69487604Y-62749500D01*
X67732396Y-62749500D01*
X67727540Y-62749780D01*
X67722344Y-62750980D01*
X67722341Y-62750980D01*
X67613800Y-62776039D01*
X67548070Y-62791214D01*
X67382240Y-62871379D01*
X67377009Y-62875555D01*
X67308841Y-62894892D01*
X67242993Y-62875557D01*
X67237760Y-62871379D01*
X67071930Y-62791214D01*
X67006200Y-62776039D01*
X66897659Y-62750980D01*
X66897656Y-62750980D01*
X66892460Y-62749780D01*
X66887604Y-62749500D01*
X65132396Y-62749500D01*
X65127540Y-62749780D01*
X65122344Y-62750980D01*
X65122341Y-62750980D01*
X65013800Y-62776039D01*
X64948070Y-62791214D01*
X64782240Y-62871379D01*
X64638292Y-62986292D01*
X64523379Y-63130240D01*
X64520313Y-63136583D01*
X64520312Y-63136584D01*
X64493940Y-63191138D01*
X64446284Y-63243763D01*
X64377742Y-63262269D01*
X64310075Y-63240780D01*
X64264768Y-63186120D01*
X64254500Y-63136299D01*
X64254500Y-59506062D01*
X72343493Y-59506062D01*
X72352789Y-59518077D01*
X72403994Y-59553931D01*
X72413489Y-59559414D01*
X72610947Y-59651490D01*
X72621239Y-59655236D01*
X72831688Y-59711625D01*
X72842481Y-59713528D01*
X73059525Y-59732517D01*
X73070475Y-59732517D01*
X73287519Y-59713528D01*
X73298312Y-59711625D01*
X73508761Y-59655236D01*
X73519053Y-59651490D01*
X73716511Y-59559414D01*
X73726006Y-59553931D01*
X73778048Y-59517491D01*
X73786424Y-59507012D01*
X73779356Y-59493566D01*
X73077812Y-58792022D01*
X73063868Y-58784408D01*
X73062035Y-58784539D01*
X73055420Y-58788790D01*
X72349923Y-59494287D01*
X72343493Y-59506062D01*
X64254500Y-59506062D01*
X64254500Y-58425475D01*
X71752483Y-58425475D01*
X71771472Y-58642519D01*
X71773375Y-58653312D01*
X71829764Y-58863761D01*
X71833510Y-58874053D01*
X71925586Y-59071511D01*
X71931069Y-59081006D01*
X71967509Y-59133048D01*
X71977988Y-59141424D01*
X71991434Y-59134356D01*
X72692978Y-58432812D01*
X72699356Y-58421132D01*
X73429408Y-58421132D01*
X73429539Y-58422965D01*
X73433790Y-58429580D01*
X74139287Y-59135077D01*
X74151062Y-59141507D01*
X74163077Y-59132211D01*
X74198931Y-59081006D01*
X74204414Y-59071511D01*
X74296490Y-58874053D01*
X74300236Y-58863761D01*
X74356625Y-58653312D01*
X74358528Y-58642519D01*
X74377517Y-58425475D01*
X74377517Y-58420000D01*
X76751502Y-58420000D01*
X76771457Y-58648087D01*
X76772881Y-58653400D01*
X76772881Y-58653402D01*
X76810025Y-58792022D01*
X76830716Y-58869243D01*
X76833039Y-58874224D01*
X76833039Y-58874225D01*
X76925151Y-59071762D01*
X76925154Y-59071767D01*
X76927477Y-59076749D01*
X77058802Y-59264300D01*
X77220700Y-59426198D01*
X77225208Y-59429355D01*
X77225211Y-59429357D01*
X77303389Y-59484098D01*
X77408251Y-59557523D01*
X77413233Y-59559846D01*
X77413238Y-59559849D01*
X77609765Y-59651490D01*
X77615757Y-59654284D01*
X77621065Y-59655706D01*
X77621067Y-59655707D01*
X77831598Y-59712119D01*
X77831600Y-59712119D01*
X77836913Y-59713543D01*
X78065000Y-59733498D01*
X78293087Y-59713543D01*
X78298400Y-59712119D01*
X78298402Y-59712119D01*
X78508933Y-59655707D01*
X78508935Y-59655706D01*
X78514243Y-59654284D01*
X78520235Y-59651490D01*
X78716762Y-59559849D01*
X78716767Y-59559846D01*
X78721749Y-59557523D01*
X78826611Y-59484098D01*
X78904789Y-59429357D01*
X78904792Y-59429355D01*
X78909300Y-59426198D01*
X79071198Y-59264300D01*
X79202523Y-59076749D01*
X79204846Y-59071767D01*
X79204849Y-59071762D01*
X79296961Y-58874225D01*
X79296961Y-58874224D01*
X79299284Y-58869243D01*
X79319976Y-58792022D01*
X79357119Y-58653402D01*
X79357119Y-58653400D01*
X79358543Y-58648087D01*
X79378498Y-58420000D01*
X86991502Y-58420000D01*
X87011457Y-58648087D01*
X87012881Y-58653400D01*
X87012881Y-58653402D01*
X87050025Y-58792022D01*
X87070716Y-58869243D01*
X87073039Y-58874224D01*
X87073039Y-58874225D01*
X87165151Y-59071762D01*
X87165154Y-59071767D01*
X87167477Y-59076749D01*
X87298802Y-59264300D01*
X87460700Y-59426198D01*
X87465208Y-59429355D01*
X87465211Y-59429357D01*
X87543389Y-59484098D01*
X87648251Y-59557523D01*
X87653233Y-59559846D01*
X87653238Y-59559849D01*
X87849765Y-59651490D01*
X87855757Y-59654284D01*
X87861065Y-59655706D01*
X87861067Y-59655707D01*
X88071598Y-59712119D01*
X88071600Y-59712119D01*
X88076913Y-59713543D01*
X88305000Y-59733498D01*
X88533087Y-59713543D01*
X88538400Y-59712119D01*
X88538402Y-59712119D01*
X88748933Y-59655707D01*
X88748935Y-59655706D01*
X88754243Y-59654284D01*
X88760235Y-59651490D01*
X88956762Y-59559849D01*
X88956767Y-59559846D01*
X88961749Y-59557523D01*
X89035243Y-59506062D01*
X92583493Y-59506062D01*
X92592789Y-59518077D01*
X92643994Y-59553931D01*
X92653489Y-59559414D01*
X92850947Y-59651490D01*
X92861239Y-59655236D01*
X93071688Y-59711625D01*
X93082481Y-59713528D01*
X93299525Y-59732517D01*
X93310475Y-59732517D01*
X93527519Y-59713528D01*
X93538312Y-59711625D01*
X93748761Y-59655236D01*
X93759053Y-59651490D01*
X93956511Y-59559414D01*
X93966006Y-59553931D01*
X94018048Y-59517491D01*
X94026424Y-59507012D01*
X94019356Y-59493566D01*
X93317812Y-58792022D01*
X93303868Y-58784408D01*
X93302035Y-58784539D01*
X93295420Y-58788790D01*
X92589923Y-59494287D01*
X92583493Y-59506062D01*
X89035243Y-59506062D01*
X89066611Y-59484098D01*
X89144789Y-59429357D01*
X89144792Y-59429355D01*
X89149300Y-59426198D01*
X89311198Y-59264300D01*
X89442523Y-59076749D01*
X89444846Y-59071767D01*
X89444849Y-59071762D01*
X89536961Y-58874225D01*
X89536961Y-58874224D01*
X89539284Y-58869243D01*
X89559976Y-58792022D01*
X89597119Y-58653402D01*
X89597119Y-58653400D01*
X89598543Y-58648087D01*
X89618019Y-58425475D01*
X91992483Y-58425475D01*
X92011472Y-58642519D01*
X92013375Y-58653312D01*
X92069764Y-58863761D01*
X92073510Y-58874053D01*
X92165586Y-59071511D01*
X92171069Y-59081006D01*
X92207509Y-59133048D01*
X92217988Y-59141424D01*
X92231434Y-59134356D01*
X92932978Y-58432812D01*
X92939356Y-58421132D01*
X93669408Y-58421132D01*
X93669539Y-58422965D01*
X93673790Y-58429580D01*
X94379287Y-59135077D01*
X94391062Y-59141507D01*
X94403077Y-59132211D01*
X94438931Y-59081006D01*
X94444414Y-59071511D01*
X94536490Y-58874053D01*
X94540236Y-58863761D01*
X94596625Y-58653312D01*
X94598528Y-58642519D01*
X94617517Y-58425475D01*
X94617517Y-58414525D01*
X94598528Y-58197481D01*
X94596625Y-58186688D01*
X94540236Y-57976239D01*
X94536490Y-57965947D01*
X94444414Y-57768489D01*
X94438931Y-57758994D01*
X94402491Y-57706952D01*
X94392012Y-57698576D01*
X94378566Y-57705644D01*
X93677022Y-58407188D01*
X93669408Y-58421132D01*
X92939356Y-58421132D01*
X92940592Y-58418868D01*
X92940461Y-58417035D01*
X92936210Y-58410420D01*
X92230713Y-57704923D01*
X92218938Y-57698493D01*
X92206923Y-57707789D01*
X92171069Y-57758994D01*
X92165586Y-57768489D01*
X92073510Y-57965947D01*
X92069764Y-57976239D01*
X92013375Y-58186688D01*
X92011472Y-58197481D01*
X91992483Y-58414525D01*
X91992483Y-58425475D01*
X89618019Y-58425475D01*
X89618498Y-58420000D01*
X89598543Y-58191913D01*
X89588696Y-58155165D01*
X89540707Y-57976067D01*
X89540706Y-57976065D01*
X89539284Y-57970757D01*
X89491722Y-57868759D01*
X89444849Y-57768238D01*
X89444846Y-57768233D01*
X89442523Y-57763251D01*
X89311198Y-57575700D01*
X89149300Y-57413802D01*
X89144792Y-57410645D01*
X89144789Y-57410643D01*
X89033886Y-57332988D01*
X92583576Y-57332988D01*
X92590644Y-57346434D01*
X93292188Y-58047978D01*
X93306132Y-58055592D01*
X93307965Y-58055461D01*
X93314580Y-58051210D01*
X94020077Y-57345713D01*
X94026507Y-57333938D01*
X94017211Y-57321923D01*
X93966006Y-57286069D01*
X93956511Y-57280586D01*
X93759053Y-57188510D01*
X93748761Y-57184764D01*
X93538312Y-57128375D01*
X93527519Y-57126472D01*
X93310475Y-57107483D01*
X93299525Y-57107483D01*
X93082481Y-57126472D01*
X93071688Y-57128375D01*
X92861239Y-57184764D01*
X92850947Y-57188510D01*
X92653489Y-57280586D01*
X92643994Y-57286069D01*
X92591952Y-57322509D01*
X92583576Y-57332988D01*
X89033886Y-57332988D01*
X88961749Y-57282477D01*
X88956767Y-57280154D01*
X88956762Y-57280151D01*
X88759225Y-57188039D01*
X88759224Y-57188039D01*
X88754243Y-57185716D01*
X88748935Y-57184294D01*
X88748933Y-57184293D01*
X88538402Y-57127881D01*
X88538400Y-57127881D01*
X88533087Y-57126457D01*
X88305000Y-57106502D01*
X88076913Y-57126457D01*
X88071600Y-57127881D01*
X88071598Y-57127881D01*
X87861067Y-57184293D01*
X87861065Y-57184294D01*
X87855757Y-57185716D01*
X87850776Y-57188039D01*
X87850775Y-57188039D01*
X87653238Y-57280151D01*
X87653233Y-57280154D01*
X87648251Y-57282477D01*
X87576114Y-57332988D01*
X87465211Y-57410643D01*
X87465208Y-57410645D01*
X87460700Y-57413802D01*
X87298802Y-57575700D01*
X87167477Y-57763251D01*
X87165154Y-57768233D01*
X87165151Y-57768238D01*
X87118278Y-57868759D01*
X87070716Y-57970757D01*
X87069294Y-57976065D01*
X87069293Y-57976067D01*
X87021304Y-58155165D01*
X87011457Y-58191913D01*
X86991502Y-58420000D01*
X79378498Y-58420000D01*
X79358543Y-58191913D01*
X79348696Y-58155165D01*
X79300707Y-57976067D01*
X79300706Y-57976065D01*
X79299284Y-57970757D01*
X79251722Y-57868759D01*
X79204849Y-57768238D01*
X79204846Y-57768233D01*
X79202523Y-57763251D01*
X79071198Y-57575700D01*
X78909300Y-57413802D01*
X78904792Y-57410645D01*
X78904789Y-57410643D01*
X78793886Y-57332988D01*
X78721749Y-57282477D01*
X78716767Y-57280154D01*
X78716762Y-57280151D01*
X78519225Y-57188039D01*
X78519224Y-57188039D01*
X78514243Y-57185716D01*
X78508935Y-57184294D01*
X78508933Y-57184293D01*
X78298402Y-57127881D01*
X78298400Y-57127881D01*
X78293087Y-57126457D01*
X78065000Y-57106502D01*
X77836913Y-57126457D01*
X77831600Y-57127881D01*
X77831598Y-57127881D01*
X77621067Y-57184293D01*
X77621065Y-57184294D01*
X77615757Y-57185716D01*
X77610776Y-57188039D01*
X77610775Y-57188039D01*
X77413238Y-57280151D01*
X77413233Y-57280154D01*
X77408251Y-57282477D01*
X77336114Y-57332988D01*
X77225211Y-57410643D01*
X77225208Y-57410645D01*
X77220700Y-57413802D01*
X77058802Y-57575700D01*
X76927477Y-57763251D01*
X76925154Y-57768233D01*
X76925151Y-57768238D01*
X76878278Y-57868759D01*
X76830716Y-57970757D01*
X76829294Y-57976065D01*
X76829293Y-57976067D01*
X76781304Y-58155165D01*
X76771457Y-58191913D01*
X76751502Y-58420000D01*
X74377517Y-58420000D01*
X74377517Y-58414525D01*
X74358528Y-58197481D01*
X74356625Y-58186688D01*
X74300236Y-57976239D01*
X74296490Y-57965947D01*
X74204414Y-57768489D01*
X74198931Y-57758994D01*
X74162491Y-57706952D01*
X74152012Y-57698576D01*
X74138566Y-57705644D01*
X73437022Y-58407188D01*
X73429408Y-58421132D01*
X72699356Y-58421132D01*
X72700592Y-58418868D01*
X72700461Y-58417035D01*
X72696210Y-58410420D01*
X71990713Y-57704923D01*
X71978938Y-57698493D01*
X71966923Y-57707789D01*
X71931069Y-57758994D01*
X71925586Y-57768489D01*
X71833510Y-57965947D01*
X71829764Y-57976239D01*
X71773375Y-58186688D01*
X71771472Y-58197481D01*
X71752483Y-58414525D01*
X71752483Y-58425475D01*
X64254500Y-58425475D01*
X64254500Y-57332988D01*
X72343576Y-57332988D01*
X72350644Y-57346434D01*
X73052188Y-58047978D01*
X73066132Y-58055592D01*
X73067965Y-58055461D01*
X73074580Y-58051210D01*
X73780077Y-57345713D01*
X73786507Y-57333938D01*
X73777211Y-57321923D01*
X73726006Y-57286069D01*
X73716511Y-57280586D01*
X73519053Y-57188510D01*
X73508761Y-57184764D01*
X73298312Y-57128375D01*
X73287519Y-57126472D01*
X73070475Y-57107483D01*
X73059525Y-57107483D01*
X72842481Y-57126472D01*
X72831688Y-57128375D01*
X72621239Y-57184764D01*
X72610947Y-57188510D01*
X72413489Y-57280586D01*
X72403994Y-57286069D01*
X72351952Y-57322509D01*
X72343576Y-57332988D01*
X64254500Y-57332988D01*
X64254500Y-53555925D01*
X64274502Y-53487804D01*
X64291405Y-53466830D01*
X66928829Y-50829405D01*
X66991141Y-50795379D01*
X67017924Y-50792500D01*
X87822157Y-50792500D01*
X87835764Y-50793237D01*
X87867262Y-50796659D01*
X87867267Y-50796659D01*
X87873388Y-50797324D01*
X87899638Y-50795027D01*
X87923388Y-50792950D01*
X87928214Y-50792621D01*
X87930686Y-50792500D01*
X87933769Y-50792500D01*
X87945738Y-50791326D01*
X87976506Y-50788310D01*
X87977819Y-50788188D01*
X88022084Y-50784315D01*
X88070413Y-50780087D01*
X88075532Y-50778600D01*
X88080833Y-50778080D01*
X88169834Y-50751209D01*
X88170967Y-50750874D01*
X88254414Y-50726630D01*
X88254418Y-50726628D01*
X88260336Y-50724909D01*
X88265068Y-50722456D01*
X88270169Y-50720916D01*
X88323649Y-50692481D01*
X88352260Y-50677269D01*
X88353426Y-50676657D01*
X88430453Y-50636729D01*
X88435926Y-50633892D01*
X88440089Y-50630569D01*
X88444796Y-50628066D01*
X88472974Y-50605085D01*
X97007000Y-50605085D01*
X97007193Y-50610010D01*
X97012786Y-50681069D01*
X97014733Y-50692403D01*
X97060931Y-50864817D01*
X97065635Y-50877070D01*
X97146295Y-51035375D01*
X97153448Y-51046390D01*
X97265255Y-51184459D01*
X97274541Y-51193745D01*
X97412610Y-51305552D01*
X97423625Y-51312705D01*
X97581930Y-51393365D01*
X97594183Y-51398069D01*
X97766597Y-51444267D01*
X97777931Y-51446214D01*
X97848990Y-51451807D01*
X97853915Y-51452000D01*
X98042885Y-51452000D01*
X98058124Y-51447525D01*
X98059329Y-51446135D01*
X98061000Y-51438452D01*
X98061000Y-49216115D01*
X98056525Y-49200876D01*
X98055135Y-49199671D01*
X98047452Y-49198000D01*
X97025115Y-49198000D01*
X97009876Y-49202475D01*
X97008671Y-49203865D01*
X97007000Y-49211548D01*
X97007000Y-50605085D01*
X88472974Y-50605085D01*
X88516918Y-50569245D01*
X88517774Y-50568554D01*
X88556973Y-50537262D01*
X88559477Y-50534758D01*
X88560195Y-50534116D01*
X88564528Y-50530415D01*
X88598062Y-50503065D01*
X88627288Y-50467737D01*
X88635277Y-50458958D01*
X92328829Y-46765405D01*
X92391141Y-46731379D01*
X92417924Y-46728500D01*
X97003926Y-46728500D01*
X97072047Y-46748502D01*
X97118540Y-46802158D01*
X97128644Y-46872432D01*
X97116193Y-46911703D01*
X97065635Y-47010929D01*
X97060931Y-47023183D01*
X97014733Y-47195597D01*
X97012786Y-47206931D01*
X97007193Y-47277990D01*
X97007000Y-47282916D01*
X97007000Y-48671885D01*
X97011475Y-48687124D01*
X97012865Y-48688329D01*
X97020548Y-48690000D01*
X98443000Y-48690000D01*
X98511121Y-48710002D01*
X98557614Y-48763658D01*
X98569000Y-48816000D01*
X98569000Y-51433885D01*
X98573475Y-51449124D01*
X98574865Y-51450329D01*
X98582548Y-51452000D01*
X98776085Y-51452000D01*
X98781010Y-51451807D01*
X98852069Y-51446214D01*
X98863403Y-51444267D01*
X99035817Y-51398069D01*
X99048070Y-51393365D01*
X99206376Y-51312704D01*
X99217386Y-51305554D01*
X99235310Y-51291040D01*
X99300838Y-51263715D01*
X99370736Y-51276155D01*
X99393893Y-51291037D01*
X99417470Y-51310129D01*
X99423347Y-51313124D01*
X99423351Y-51313126D01*
X99538022Y-51371553D01*
X99587629Y-51396829D01*
X99594002Y-51398537D01*
X99594003Y-51398537D01*
X99766519Y-51444763D01*
X99766523Y-51444764D01*
X99772096Y-51446257D01*
X99777852Y-51446710D01*
X99848963Y-51452307D01*
X99848970Y-51452307D01*
X99851419Y-51452500D01*
X100314812Y-51452500D01*
X100778580Y-51452499D01*
X100827947Y-51448614D01*
X100852150Y-51446710D01*
X100852152Y-51446710D01*
X100857904Y-51446257D01*
X101042371Y-51396829D01*
X101212530Y-51310129D01*
X101235705Y-51291362D01*
X101301232Y-51264036D01*
X101371131Y-51276475D01*
X101394294Y-51291361D01*
X101417470Y-51310129D01*
X101587629Y-51396829D01*
X101594002Y-51398537D01*
X101594003Y-51398537D01*
X101766519Y-51444763D01*
X101766523Y-51444764D01*
X101772096Y-51446257D01*
X101777852Y-51446710D01*
X101848963Y-51452307D01*
X101848970Y-51452307D01*
X101851419Y-51452500D01*
X102314812Y-51452500D01*
X102778580Y-51452499D01*
X102827947Y-51448614D01*
X102852150Y-51446710D01*
X102852152Y-51446710D01*
X102857904Y-51446257D01*
X103042371Y-51396829D01*
X103212530Y-51310129D01*
X103235705Y-51291362D01*
X103301232Y-51264036D01*
X103371131Y-51276475D01*
X103394294Y-51291361D01*
X103417470Y-51310129D01*
X103587629Y-51396829D01*
X103594002Y-51398537D01*
X103594003Y-51398537D01*
X103766519Y-51444763D01*
X103766523Y-51444764D01*
X103772096Y-51446257D01*
X103777852Y-51446710D01*
X103848963Y-51452307D01*
X103848970Y-51452307D01*
X103851419Y-51452500D01*
X104314812Y-51452500D01*
X104778580Y-51452499D01*
X104827947Y-51448614D01*
X104852150Y-51446710D01*
X104852152Y-51446710D01*
X104857904Y-51446257D01*
X105042371Y-51396829D01*
X105212530Y-51310129D01*
X105235705Y-51291362D01*
X105301232Y-51264036D01*
X105371131Y-51276475D01*
X105394294Y-51291361D01*
X105417470Y-51310129D01*
X105587629Y-51396829D01*
X105594002Y-51398537D01*
X105594003Y-51398537D01*
X105766519Y-51444763D01*
X105766523Y-51444764D01*
X105772096Y-51446257D01*
X105777852Y-51446710D01*
X105848963Y-51452307D01*
X105848970Y-51452307D01*
X105851419Y-51452500D01*
X106314812Y-51452500D01*
X106778580Y-51452499D01*
X106827947Y-51448614D01*
X106852150Y-51446710D01*
X106852152Y-51446710D01*
X106857904Y-51446257D01*
X107042371Y-51396829D01*
X107212530Y-51310129D01*
X107235705Y-51291362D01*
X107301232Y-51264036D01*
X107371131Y-51276475D01*
X107394294Y-51291361D01*
X107417470Y-51310129D01*
X107587629Y-51396829D01*
X107594002Y-51398537D01*
X107594003Y-51398537D01*
X107766519Y-51444763D01*
X107766523Y-51444764D01*
X107772096Y-51446257D01*
X107777852Y-51446710D01*
X107848963Y-51452307D01*
X107848970Y-51452307D01*
X107851419Y-51452500D01*
X108314812Y-51452500D01*
X108778580Y-51452499D01*
X108827947Y-51448614D01*
X108852150Y-51446710D01*
X108852152Y-51446710D01*
X108857904Y-51446257D01*
X109042371Y-51396829D01*
X109212530Y-51310129D01*
X109235705Y-51291362D01*
X109301232Y-51264036D01*
X109371131Y-51276475D01*
X109394294Y-51291361D01*
X109417470Y-51310129D01*
X109587629Y-51396829D01*
X109594002Y-51398537D01*
X109594003Y-51398537D01*
X109766519Y-51444763D01*
X109766523Y-51444764D01*
X109772096Y-51446257D01*
X109777852Y-51446710D01*
X109848963Y-51452307D01*
X109848970Y-51452307D01*
X109851419Y-51452500D01*
X110314812Y-51452500D01*
X110778580Y-51452499D01*
X110827947Y-51448614D01*
X110852150Y-51446710D01*
X110852152Y-51446710D01*
X110857904Y-51446257D01*
X111042371Y-51396829D01*
X111212530Y-51310129D01*
X111235705Y-51291362D01*
X111301232Y-51264036D01*
X111371131Y-51276475D01*
X111394294Y-51291361D01*
X111417470Y-51310129D01*
X111587629Y-51396829D01*
X111594002Y-51398537D01*
X111594003Y-51398537D01*
X111766519Y-51444763D01*
X111766523Y-51444764D01*
X111772096Y-51446257D01*
X111777852Y-51446710D01*
X111848963Y-51452307D01*
X111848970Y-51452307D01*
X111851419Y-51452500D01*
X112314812Y-51452500D01*
X112778580Y-51452499D01*
X112827947Y-51448614D01*
X112852150Y-51446710D01*
X112852152Y-51446710D01*
X112857904Y-51446257D01*
X113042371Y-51396829D01*
X113212530Y-51310129D01*
X113235705Y-51291362D01*
X113301232Y-51264036D01*
X113371131Y-51276475D01*
X113394294Y-51291361D01*
X113417470Y-51310129D01*
X113587629Y-51396829D01*
X113594002Y-51398537D01*
X113594003Y-51398537D01*
X113766519Y-51444763D01*
X113766523Y-51444764D01*
X113772096Y-51446257D01*
X113777852Y-51446710D01*
X113848963Y-51452307D01*
X113848970Y-51452307D01*
X113851419Y-51452500D01*
X113858744Y-51452500D01*
X114457076Y-51452499D01*
X114525196Y-51472501D01*
X114571689Y-51526157D01*
X114581793Y-51596430D01*
X114552300Y-51661011D01*
X114546171Y-51667594D01*
X113919171Y-52294595D01*
X113856858Y-52328620D01*
X113830075Y-52331500D01*
X106233842Y-52331500D01*
X106220235Y-52330763D01*
X106188737Y-52327341D01*
X106188732Y-52327341D01*
X106182611Y-52326676D01*
X106164611Y-52328251D01*
X106132609Y-52331050D01*
X106127784Y-52331379D01*
X106125313Y-52331500D01*
X106122231Y-52331500D01*
X106099763Y-52333703D01*
X106079489Y-52335691D01*
X106078174Y-52335813D01*
X106050354Y-52338247D01*
X105985587Y-52343913D01*
X105980468Y-52345400D01*
X105975167Y-52345920D01*
X105969262Y-52347703D01*
X105969261Y-52347703D01*
X105949907Y-52353546D01*
X105886194Y-52372782D01*
X105885054Y-52373120D01*
X105795663Y-52399091D01*
X105790929Y-52401545D01*
X105785831Y-52403084D01*
X105780387Y-52405978D01*
X105780386Y-52405979D01*
X105703831Y-52446684D01*
X105702663Y-52447298D01*
X105620074Y-52490108D01*
X105615911Y-52493431D01*
X105611204Y-52495934D01*
X105539082Y-52554755D01*
X105538226Y-52555446D01*
X105499027Y-52586738D01*
X105496523Y-52589242D01*
X105495805Y-52589884D01*
X105491472Y-52593585D01*
X105457938Y-52620935D01*
X105454011Y-52625682D01*
X105454009Y-52625684D01*
X105428713Y-52656262D01*
X105420723Y-52665042D01*
X102991663Y-55094103D01*
X102929351Y-55128128D01*
X102892682Y-55130620D01*
X102874931Y-55129223D01*
X102874930Y-55129223D01*
X102870000Y-55128835D01*
X102865070Y-55129223D01*
X102865069Y-55129223D01*
X102847318Y-55130620D01*
X102777838Y-55116024D01*
X102748337Y-55094103D01*
X100324855Y-52670621D01*
X100315753Y-52660478D01*
X100295897Y-52635782D01*
X100292032Y-52630975D01*
X100253578Y-52598708D01*
X100249931Y-52595528D01*
X100248119Y-52593885D01*
X100245925Y-52591691D01*
X100212651Y-52564358D01*
X100211853Y-52563696D01*
X100140526Y-52503846D01*
X100135856Y-52501278D01*
X100131739Y-52497897D01*
X100049914Y-52454023D01*
X100048755Y-52453394D01*
X99972619Y-52411538D01*
X99972611Y-52411535D01*
X99967213Y-52408567D01*
X99962131Y-52406955D01*
X99957437Y-52404438D01*
X99868469Y-52377238D01*
X99867441Y-52376918D01*
X99778694Y-52348765D01*
X99773398Y-52348171D01*
X99768302Y-52346613D01*
X99675743Y-52337210D01*
X99674607Y-52337089D01*
X99640992Y-52333319D01*
X99628270Y-52331892D01*
X99628266Y-52331892D01*
X99624773Y-52331500D01*
X99621246Y-52331500D01*
X99620261Y-52331445D01*
X99614581Y-52330998D01*
X99585175Y-52328011D01*
X99577663Y-52327248D01*
X99577661Y-52327248D01*
X99571538Y-52326626D01*
X99529259Y-52330623D01*
X99525891Y-52330941D01*
X99514033Y-52331500D01*
X80555556Y-52331500D01*
X80487435Y-52311498D01*
X80459746Y-52287332D01*
X80448178Y-52273788D01*
X80448177Y-52273787D01*
X80444969Y-52270031D01*
X80264416Y-52115824D01*
X80260208Y-52113245D01*
X80260202Y-52113241D01*
X80066183Y-51994346D01*
X80061963Y-51991760D01*
X80057393Y-51989867D01*
X80057389Y-51989865D01*
X79847167Y-51902789D01*
X79847165Y-51902788D01*
X79842594Y-51900895D01*
X79762391Y-51881640D01*
X79616524Y-51846620D01*
X79616518Y-51846619D01*
X79611711Y-51845465D01*
X79375000Y-51826835D01*
X79138289Y-51845465D01*
X79133482Y-51846619D01*
X79133476Y-51846620D01*
X78987609Y-51881640D01*
X78907406Y-51900895D01*
X78902835Y-51902788D01*
X78902833Y-51902789D01*
X78692611Y-51989865D01*
X78692607Y-51989867D01*
X78688037Y-51991760D01*
X78683817Y-51994346D01*
X78489798Y-52113241D01*
X78489792Y-52113245D01*
X78485584Y-52115824D01*
X78305031Y-52270031D01*
X78150824Y-52450584D01*
X78148245Y-52454792D01*
X78148241Y-52454798D01*
X78065460Y-52589884D01*
X78026760Y-52653037D01*
X78024867Y-52657607D01*
X78024865Y-52657611D01*
X78006290Y-52702456D01*
X77935895Y-52872406D01*
X77932708Y-52885682D01*
X77886936Y-53076337D01*
X77880465Y-53103289D01*
X77861835Y-53340000D01*
X77880465Y-53576711D01*
X77935895Y-53807594D01*
X77937788Y-53812165D01*
X77937789Y-53812167D01*
X78023530Y-54019164D01*
X78026760Y-54026963D01*
X78029345Y-54031182D01*
X78029351Y-54031193D01*
X78115433Y-54171665D01*
X78133972Y-54240198D01*
X78112516Y-54307875D01*
X78057877Y-54353208D01*
X78008001Y-54363500D01*
X69252556Y-54363500D01*
X69184435Y-54343498D01*
X69156746Y-54319332D01*
X69145178Y-54305788D01*
X69145177Y-54305787D01*
X69141969Y-54302031D01*
X68961416Y-54147824D01*
X68957208Y-54145245D01*
X68957202Y-54145241D01*
X68763183Y-54026346D01*
X68758963Y-54023760D01*
X68754393Y-54021867D01*
X68754389Y-54021865D01*
X68544167Y-53934789D01*
X68544165Y-53934788D01*
X68539594Y-53932895D01*
X68459391Y-53913640D01*
X68313524Y-53878620D01*
X68313518Y-53878619D01*
X68308711Y-53877465D01*
X68072000Y-53858835D01*
X67835289Y-53877465D01*
X67830482Y-53878619D01*
X67830476Y-53878620D01*
X67684609Y-53913640D01*
X67604406Y-53932895D01*
X67599835Y-53934788D01*
X67599833Y-53934789D01*
X67389611Y-54021865D01*
X67389607Y-54021867D01*
X67385037Y-54023760D01*
X67380817Y-54026346D01*
X67186798Y-54145241D01*
X67186792Y-54145245D01*
X67182584Y-54147824D01*
X67002031Y-54302031D01*
X66847824Y-54482584D01*
X66845245Y-54486792D01*
X66845241Y-54486798D01*
X66726352Y-54680807D01*
X66723760Y-54685037D01*
X66632895Y-54904406D01*
X66631740Y-54909218D01*
X66587353Y-55094103D01*
X66577465Y-55135289D01*
X66558835Y-55372000D01*
X66577465Y-55608711D01*
X66632895Y-55839594D01*
X66723760Y-56058963D01*
X66726346Y-56063183D01*
X66845241Y-56257202D01*
X66845245Y-56257208D01*
X66847824Y-56261416D01*
X67002031Y-56441969D01*
X67182584Y-56596176D01*
X67186792Y-56598755D01*
X67186798Y-56598759D01*
X67380817Y-56717654D01*
X67385037Y-56720240D01*
X67389607Y-56722133D01*
X67389611Y-56722135D01*
X67599833Y-56809211D01*
X67604406Y-56811105D01*
X67684609Y-56830360D01*
X67830476Y-56865380D01*
X67830482Y-56865381D01*
X67835289Y-56866535D01*
X68072000Y-56885165D01*
X68308711Y-56866535D01*
X68313518Y-56865381D01*
X68313524Y-56865380D01*
X68459391Y-56830360D01*
X68539594Y-56811105D01*
X68544167Y-56809211D01*
X68754389Y-56722135D01*
X68754393Y-56722133D01*
X68758963Y-56720240D01*
X68763183Y-56717654D01*
X68957202Y-56598759D01*
X68957208Y-56598755D01*
X68961416Y-56596176D01*
X69141969Y-56441969D01*
X69156746Y-56424668D01*
X69216197Y-56385860D01*
X69252556Y-56380500D01*
X86703444Y-56380500D01*
X86771565Y-56400502D01*
X86799254Y-56424668D01*
X86814031Y-56441969D01*
X86994584Y-56596176D01*
X86998792Y-56598755D01*
X86998798Y-56598759D01*
X87192817Y-56717654D01*
X87197037Y-56720240D01*
X87201607Y-56722133D01*
X87201611Y-56722135D01*
X87411833Y-56809211D01*
X87416406Y-56811105D01*
X87496609Y-56830360D01*
X87642476Y-56865380D01*
X87642482Y-56865381D01*
X87647289Y-56866535D01*
X87884000Y-56885165D01*
X88120711Y-56866535D01*
X88125518Y-56865381D01*
X88125524Y-56865380D01*
X88271391Y-56830360D01*
X88351594Y-56811105D01*
X88356167Y-56809211D01*
X88566389Y-56722135D01*
X88566393Y-56722133D01*
X88570963Y-56720240D01*
X88575183Y-56717654D01*
X88769202Y-56598759D01*
X88769208Y-56598755D01*
X88773416Y-56596176D01*
X88953969Y-56441969D01*
X89108176Y-56261416D01*
X89110755Y-56257208D01*
X89110759Y-56257202D01*
X89229654Y-56063183D01*
X89232240Y-56058963D01*
X89323105Y-55839594D01*
X89378535Y-55608711D01*
X89397165Y-55372000D01*
X89378535Y-55135289D01*
X89368648Y-55094103D01*
X89324260Y-54909218D01*
X89323105Y-54904406D01*
X89232240Y-54685037D01*
X89229654Y-54680817D01*
X89229649Y-54680807D01*
X89143567Y-54540335D01*
X89125028Y-54471802D01*
X89146484Y-54404125D01*
X89201123Y-54358792D01*
X89250999Y-54348500D01*
X99098075Y-54348500D01*
X99166196Y-54368502D01*
X99187170Y-54385405D01*
X101322103Y-56520337D01*
X101356128Y-56582649D01*
X101358620Y-56619318D01*
X101356835Y-56642000D01*
X101375465Y-56878711D01*
X101430895Y-57109594D01*
X101432788Y-57114165D01*
X101432789Y-57114167D01*
X101519087Y-57322509D01*
X101521760Y-57328963D01*
X101524346Y-57333183D01*
X101643241Y-57527202D01*
X101643245Y-57527208D01*
X101645824Y-57531416D01*
X101800031Y-57711969D01*
X101980584Y-57866176D01*
X101984792Y-57868755D01*
X101984798Y-57868759D01*
X102178817Y-57987654D01*
X102183037Y-57990240D01*
X102187607Y-57992133D01*
X102187611Y-57992135D01*
X102397833Y-58079211D01*
X102402406Y-58081105D01*
X102482609Y-58100360D01*
X102628476Y-58135380D01*
X102628482Y-58135381D01*
X102633289Y-58136535D01*
X102870000Y-58155165D01*
X103106711Y-58136535D01*
X103111518Y-58135381D01*
X103111524Y-58135380D01*
X103257391Y-58100360D01*
X103337594Y-58081105D01*
X103342167Y-58079211D01*
X103552389Y-57992135D01*
X103552393Y-57992133D01*
X103556963Y-57990240D01*
X103561183Y-57987654D01*
X103755202Y-57868759D01*
X103755208Y-57868755D01*
X103759416Y-57866176D01*
X103939969Y-57711969D01*
X104094176Y-57531416D01*
X104096755Y-57527208D01*
X104096759Y-57527202D01*
X104215654Y-57333183D01*
X104218240Y-57328963D01*
X104220914Y-57322509D01*
X104307211Y-57114167D01*
X104307212Y-57114165D01*
X104309105Y-57109594D01*
X104364535Y-56878711D01*
X104383165Y-56642000D01*
X104381380Y-56619318D01*
X104395976Y-56549838D01*
X104417897Y-56520337D01*
X106552829Y-54385405D01*
X106615141Y-54351379D01*
X106641924Y-54348500D01*
X114238157Y-54348500D01*
X114251764Y-54349237D01*
X114283262Y-54352659D01*
X114283267Y-54352659D01*
X114289388Y-54353324D01*
X114315638Y-54351027D01*
X114339388Y-54348950D01*
X114344214Y-54348621D01*
X114346686Y-54348500D01*
X114349769Y-54348500D01*
X114361738Y-54347326D01*
X114392506Y-54344310D01*
X114393819Y-54344188D01*
X114438084Y-54340315D01*
X114486413Y-54336087D01*
X114491532Y-54334600D01*
X114496833Y-54334080D01*
X114585834Y-54307209D01*
X114586967Y-54306874D01*
X114670414Y-54282630D01*
X114670418Y-54282628D01*
X114676336Y-54280909D01*
X114681068Y-54278456D01*
X114686169Y-54276916D01*
X114691612Y-54274022D01*
X114768260Y-54233269D01*
X114769426Y-54232657D01*
X114846453Y-54192729D01*
X114851926Y-54189892D01*
X114856089Y-54186569D01*
X114860796Y-54184066D01*
X114932918Y-54125245D01*
X114933774Y-54124554D01*
X114972973Y-54093262D01*
X114975477Y-54090758D01*
X114976195Y-54090116D01*
X114980528Y-54086415D01*
X115014062Y-54059065D01*
X115043288Y-54023737D01*
X115051277Y-54014958D01*
X116984379Y-52081855D01*
X116994522Y-52072753D01*
X117019218Y-52052897D01*
X117024025Y-52049032D01*
X117056320Y-52010544D01*
X117059478Y-52006925D01*
X117061124Y-52005110D01*
X117063309Y-52002925D01*
X117065264Y-52000545D01*
X117065273Y-52000535D01*
X117090549Y-51969764D01*
X117091391Y-51968749D01*
X117147194Y-51902245D01*
X117151154Y-51897526D01*
X117153723Y-51892852D01*
X117157102Y-51888739D01*
X117200975Y-51806915D01*
X117201584Y-51805793D01*
X117243464Y-51729614D01*
X117243465Y-51729612D01*
X117246433Y-51724213D01*
X117248045Y-51719131D01*
X117250562Y-51714437D01*
X117277762Y-51625469D01*
X117278108Y-51624358D01*
X117304373Y-51541563D01*
X117306235Y-51535694D01*
X117306829Y-51530398D01*
X117308387Y-51525302D01*
X117317790Y-51432743D01*
X117317911Y-51431607D01*
X117323500Y-51381773D01*
X117323500Y-51378246D01*
X117323555Y-51377261D01*
X117324002Y-51371581D01*
X117328374Y-51328538D01*
X117324713Y-51289809D01*
X117338216Y-51220108D01*
X117359269Y-51191302D01*
X117360945Y-51189945D01*
X117365102Y-51184812D01*
X117476973Y-51046663D01*
X117476976Y-51046659D01*
X117481129Y-51041530D01*
X117484266Y-51035375D01*
X117564833Y-50877251D01*
X117567829Y-50871371D01*
X117592289Y-50780087D01*
X117615763Y-50692481D01*
X117615764Y-50692477D01*
X117617257Y-50686904D01*
X117621976Y-50626944D01*
X117623307Y-50610037D01*
X117623307Y-50610030D01*
X117623500Y-50607581D01*
X117623499Y-47280420D01*
X117619614Y-47231053D01*
X117617710Y-47206850D01*
X117617710Y-47206848D01*
X117617257Y-47201096D01*
X117567829Y-47016629D01*
X117514367Y-46911703D01*
X117484126Y-46852351D01*
X117484124Y-46852347D01*
X117481129Y-46846470D01*
X117401796Y-46748502D01*
X117389886Y-46733794D01*
X117362560Y-46668267D01*
X117375000Y-46598368D01*
X117423254Y-46546291D01*
X117487806Y-46528500D01*
X120386786Y-46528500D01*
X120388106Y-46528507D01*
X120478221Y-46529451D01*
X120520597Y-46520289D01*
X120533163Y-46518231D01*
X120576255Y-46513397D01*
X120582906Y-46511081D01*
X120582910Y-46511080D01*
X120607930Y-46502367D01*
X120622742Y-46498204D01*
X120648619Y-46492609D01*
X120655510Y-46491119D01*
X120694813Y-46472792D01*
X120706589Y-46468010D01*
X120747552Y-46453745D01*
X120753527Y-46450011D01*
X120753530Y-46450010D01*
X120775995Y-46435973D01*
X120789512Y-46428634D01*
X120813514Y-46417441D01*
X120813515Y-46417440D01*
X120819902Y-46414462D01*
X120854153Y-46387894D01*
X120864612Y-46380598D01*
X120895404Y-46361358D01*
X120895407Y-46361356D01*
X120901376Y-46357626D01*
X120930179Y-46329024D01*
X120930804Y-46328439D01*
X120931470Y-46327922D01*
X120957460Y-46301932D01*
X121030082Y-46229815D01*
X121030740Y-46228778D01*
X121031843Y-46227549D01*
X122485158Y-44774234D01*
X122486095Y-44773306D01*
X122545475Y-44715157D01*
X122545476Y-44715156D01*
X122550507Y-44710229D01*
X122573998Y-44673779D01*
X122581417Y-44663454D01*
X122608476Y-44629557D01*
X122611540Y-44623218D01*
X122611543Y-44623214D01*
X122623074Y-44599362D01*
X122630601Y-44585949D01*
X122644947Y-44563687D01*
X122644948Y-44563684D01*
X122648765Y-44557762D01*
X122651176Y-44551139D01*
X122663592Y-44517027D01*
X122668553Y-44505283D01*
X122684352Y-44472601D01*
X122684353Y-44472599D01*
X122687421Y-44466252D01*
X122694966Y-44433573D01*
X122699334Y-44418825D01*
X122710803Y-44387315D01*
X122711685Y-44380329D01*
X122711687Y-44380323D01*
X122716238Y-44344299D01*
X122718474Y-44331747D01*
X122726638Y-44296386D01*
X122726638Y-44296383D01*
X122728224Y-44289515D01*
X122728366Y-44248944D01*
X122728395Y-44248062D01*
X122728500Y-44247231D01*
X122728500Y-44210428D01*
X122728572Y-44189810D01*
X122728845Y-44111657D01*
X122728845Y-44111652D01*
X122728857Y-44108130D01*
X122728589Y-44106930D01*
X122728500Y-44105293D01*
X122728500Y-43508324D01*
X122748502Y-43440203D01*
X122788664Y-43400893D01*
X122809416Y-43388176D01*
X122823488Y-43376157D01*
X122986213Y-43237177D01*
X122989969Y-43233969D01*
X123144176Y-43053416D01*
X123146755Y-43049208D01*
X123146759Y-43049202D01*
X123265654Y-42855183D01*
X123268240Y-42850963D01*
X123335055Y-42689658D01*
X123357211Y-42636167D01*
X123357212Y-42636165D01*
X123359105Y-42631594D01*
X123414535Y-42400711D01*
X123433165Y-42164000D01*
X123414535Y-41927289D01*
X123409634Y-41906872D01*
X123362447Y-41710328D01*
X123359105Y-41696406D01*
X123350829Y-41676425D01*
X123270135Y-41481611D01*
X123270133Y-41481607D01*
X123268240Y-41477037D01*
X123211359Y-41384216D01*
X123146759Y-41278798D01*
X123146755Y-41278792D01*
X123144176Y-41274584D01*
X122989969Y-41094031D01*
X122809416Y-40939824D01*
X122805208Y-40937245D01*
X122805202Y-40937241D01*
X122611183Y-40818346D01*
X122606963Y-40815760D01*
X122602393Y-40813867D01*
X122602389Y-40813865D01*
X122392167Y-40726789D01*
X122392165Y-40726788D01*
X122387594Y-40724895D01*
X122307391Y-40705640D01*
X122161524Y-40670620D01*
X122161518Y-40670619D01*
X122156711Y-40669465D01*
X121920000Y-40650835D01*
X121683289Y-40669465D01*
X121678482Y-40670619D01*
X121678476Y-40670620D01*
X121532609Y-40705640D01*
X121452406Y-40724895D01*
X121447835Y-40726788D01*
X121447833Y-40726789D01*
X121237611Y-40813865D01*
X121237607Y-40813867D01*
X121233037Y-40815760D01*
X121228817Y-40818346D01*
X121034798Y-40937241D01*
X121034792Y-40937245D01*
X121030584Y-40939824D01*
X121026822Y-40943037D01*
X121026818Y-40943040D01*
X120904330Y-41047654D01*
X120839541Y-41076685D01*
X120769341Y-41066080D01*
X120716018Y-41019205D01*
X120696500Y-40951843D01*
X120696500Y-40141214D01*
X120696507Y-40139894D01*
X120697377Y-40056826D01*
X120697451Y-40049779D01*
X120688289Y-40007403D01*
X120686230Y-39994832D01*
X120682182Y-39958744D01*
X120681397Y-39951745D01*
X120670367Y-39920070D01*
X120666204Y-39905258D01*
X120660609Y-39879381D01*
X120659119Y-39872490D01*
X120640792Y-39833187D01*
X120636010Y-39821411D01*
X120621745Y-39780448D01*
X120618010Y-39774470D01*
X120603973Y-39752005D01*
X120596634Y-39738488D01*
X120585441Y-39714486D01*
X120585440Y-39714485D01*
X120582462Y-39708098D01*
X120555894Y-39673847D01*
X120548598Y-39663388D01*
X120529358Y-39632596D01*
X120529356Y-39632593D01*
X120525626Y-39626624D01*
X120504647Y-39605498D01*
X120497024Y-39597821D01*
X120496439Y-39597196D01*
X120495922Y-39596530D01*
X120469932Y-39570540D01*
X120397815Y-39497918D01*
X120396778Y-39497260D01*
X120395549Y-39496157D01*
X118679653Y-37780261D01*
X118678725Y-37779324D01*
X118620576Y-37719944D01*
X118620575Y-37719943D01*
X118615648Y-37714912D01*
X118579198Y-37691421D01*
X118568873Y-37684002D01*
X118534976Y-37656943D01*
X118504781Y-37642346D01*
X118491364Y-37634817D01*
X118463181Y-37616654D01*
X118456564Y-37614246D01*
X118456559Y-37614243D01*
X118422446Y-37601827D01*
X118410703Y-37596866D01*
X118378016Y-37581065D01*
X118378011Y-37581063D01*
X118371670Y-37577998D01*
X118364812Y-37576415D01*
X118364810Y-37576414D01*
X118338993Y-37570454D01*
X118324250Y-37566087D01*
X118292734Y-37554616D01*
X118285744Y-37553733D01*
X118285736Y-37553731D01*
X118249718Y-37549181D01*
X118237166Y-37546945D01*
X118201805Y-37538781D01*
X118201802Y-37538781D01*
X118194934Y-37537195D01*
X118187888Y-37537170D01*
X118187885Y-37537170D01*
X118154363Y-37537053D01*
X118153481Y-37537024D01*
X118152650Y-37536919D01*
X118116000Y-37536919D01*
X118115560Y-37536918D01*
X118017076Y-37536574D01*
X118017071Y-37536574D01*
X118013549Y-37536562D01*
X118012349Y-37536830D01*
X118010712Y-37536919D01*
X81095607Y-37536919D01*
X81027486Y-37516917D01*
X81006512Y-37500014D01*
X80854300Y-37347802D01*
X80849792Y-37344645D01*
X80849789Y-37344643D01*
X80771611Y-37289902D01*
X80666749Y-37216477D01*
X80661767Y-37214154D01*
X80661762Y-37214151D01*
X80464225Y-37122039D01*
X80464224Y-37122039D01*
X80459243Y-37119716D01*
X80453935Y-37118294D01*
X80453933Y-37118293D01*
X80243402Y-37061881D01*
X80243400Y-37061881D01*
X80238087Y-37060457D01*
X80010000Y-37040502D01*
X79781913Y-37060457D01*
X79776600Y-37061881D01*
X79776598Y-37061881D01*
X79566067Y-37118293D01*
X79566065Y-37118294D01*
X79560757Y-37119716D01*
X79555776Y-37122039D01*
X79555775Y-37122039D01*
X79358238Y-37214151D01*
X79358233Y-37214154D01*
X79353251Y-37216477D01*
X79248389Y-37289902D01*
X79170211Y-37344643D01*
X79170208Y-37344645D01*
X79165700Y-37347802D01*
X79003802Y-37509700D01*
X79000645Y-37514208D01*
X79000643Y-37514211D01*
X78945902Y-37592389D01*
X78872477Y-37697251D01*
X78870154Y-37702233D01*
X78870151Y-37702238D01*
X78833769Y-37780261D01*
X78775716Y-37904757D01*
X78774294Y-37910065D01*
X78774293Y-37910067D01*
X78727638Y-38084186D01*
X78716457Y-38125913D01*
X78696502Y-38354000D01*
X78716457Y-38582087D01*
X78717881Y-38587400D01*
X78717881Y-38587402D01*
X78774321Y-38798037D01*
X78772631Y-38869013D01*
X78732837Y-38927809D01*
X78667573Y-38955757D01*
X78651075Y-38956639D01*
X78650344Y-38956630D01*
X78649128Y-38956615D01*
X78649126Y-38956615D01*
X78643959Y-38956552D01*
X78420929Y-38990680D01*
X78206468Y-39060777D01*
X78006335Y-39164960D01*
X78002202Y-39168063D01*
X78002199Y-39168065D01*
X77919211Y-39230374D01*
X77825905Y-39300430D01*
X77670024Y-39463550D01*
X77667112Y-39467819D01*
X77667106Y-39467827D01*
X77573503Y-39605043D01*
X77518592Y-39650046D01*
X77448067Y-39658217D01*
X77384320Y-39626963D01*
X77363623Y-39602479D01*
X77360313Y-39597361D01*
X77294841Y-39496157D01*
X77293634Y-39494291D01*
X77293632Y-39494288D01*
X77290826Y-39489951D01*
X77138977Y-39323071D01*
X77134926Y-39319872D01*
X77134922Y-39319868D01*
X76965966Y-39186434D01*
X76965962Y-39186432D01*
X76961911Y-39183232D01*
X76948097Y-39175606D01*
X76901206Y-39149721D01*
X76764383Y-39074191D01*
X76551698Y-38998876D01*
X76522795Y-38993727D01*
X76334657Y-38960214D01*
X76334653Y-38960214D01*
X76329569Y-38959308D01*
X76257574Y-38958429D01*
X76109129Y-38956615D01*
X76109127Y-38956615D01*
X76103959Y-38956552D01*
X75880929Y-38990680D01*
X75666468Y-39060777D01*
X75466335Y-39164960D01*
X75462202Y-39168063D01*
X75462199Y-39168065D01*
X75379211Y-39230374D01*
X75285905Y-39300430D01*
X75130024Y-39463550D01*
X75127112Y-39467819D01*
X75127106Y-39467827D01*
X75033198Y-39605490D01*
X74978287Y-39650493D01*
X74907762Y-39658664D01*
X74844015Y-39627410D01*
X74823318Y-39602926D01*
X74753239Y-39494601D01*
X74746947Y-39486430D01*
X74602113Y-39327260D01*
X74594580Y-39320234D01*
X74425691Y-39186855D01*
X74417104Y-39181150D01*
X74228711Y-39077151D01*
X74219299Y-39072921D01*
X74016445Y-39001086D01*
X74006474Y-38998452D01*
X73931837Y-38985157D01*
X73918540Y-38986617D01*
X73914000Y-39001174D01*
X73914000Y-40458000D01*
X73893998Y-40526121D01*
X73840342Y-40572614D01*
X73788000Y-40584000D01*
X73532000Y-40584000D01*
X73463879Y-40563998D01*
X73417386Y-40510342D01*
X73406000Y-40458000D01*
X73406000Y-38999343D01*
X73402082Y-38985999D01*
X73387806Y-38984012D01*
X73346161Y-38990385D01*
X73336125Y-38992776D01*
X73131576Y-39059633D01*
X73122079Y-39063625D01*
X72931189Y-39162995D01*
X72922464Y-39168490D01*
X72750373Y-39297700D01*
X72742666Y-39304543D01*
X72593984Y-39460129D01*
X72587498Y-39468139D01*
X72493798Y-39605498D01*
X72438887Y-39650501D01*
X72368362Y-39658672D01*
X72304615Y-39627418D01*
X72283918Y-39602934D01*
X72213634Y-39494291D01*
X72213632Y-39494288D01*
X72210826Y-39489951D01*
X72058977Y-39323071D01*
X72054926Y-39319872D01*
X72054922Y-39319868D01*
X71885966Y-39186434D01*
X71885962Y-39186432D01*
X71881911Y-39183232D01*
X71868097Y-39175606D01*
X71821206Y-39149721D01*
X71684383Y-39074191D01*
X71471698Y-38998876D01*
X71442795Y-38993727D01*
X71254657Y-38960214D01*
X71254653Y-38960214D01*
X71249569Y-38959308D01*
X71177574Y-38958429D01*
X71029129Y-38956615D01*
X71029127Y-38956615D01*
X71023959Y-38956552D01*
X70800929Y-38990680D01*
X70586468Y-39060777D01*
X70386335Y-39164960D01*
X70382202Y-39168063D01*
X70382199Y-39168065D01*
X70299211Y-39230374D01*
X70205905Y-39300430D01*
X70050024Y-39463550D01*
X70047112Y-39467819D01*
X70047106Y-39467827D01*
X69953503Y-39605043D01*
X69898592Y-39650046D01*
X69828067Y-39658217D01*
X69764320Y-39626963D01*
X69743623Y-39602479D01*
X69740313Y-39597361D01*
X69674841Y-39496157D01*
X69673634Y-39494291D01*
X69673632Y-39494288D01*
X69670826Y-39489951D01*
X69518977Y-39323071D01*
X69514926Y-39319872D01*
X69514922Y-39319868D01*
X69345966Y-39186434D01*
X69345962Y-39186432D01*
X69341911Y-39183232D01*
X69328097Y-39175606D01*
X69281206Y-39149721D01*
X69144383Y-39074191D01*
X68931698Y-38998876D01*
X68902795Y-38993727D01*
X68714657Y-38960214D01*
X68714653Y-38960214D01*
X68709569Y-38959308D01*
X68637574Y-38958429D01*
X68489129Y-38956615D01*
X68489127Y-38956615D01*
X68483959Y-38956552D01*
X68260929Y-38990680D01*
X68046468Y-39060777D01*
X67846335Y-39164960D01*
X67842202Y-39168063D01*
X67842199Y-39168065D01*
X67759211Y-39230374D01*
X67665905Y-39300430D01*
X67510024Y-39463550D01*
X67382878Y-39649940D01*
X67380704Y-39654624D01*
X67380702Y-39654627D01*
X67303293Y-39821391D01*
X67287881Y-39854593D01*
X67227585Y-40072013D01*
X67203609Y-40296362D01*
X67203906Y-40301514D01*
X67203906Y-40301518D01*
X67209618Y-40400578D01*
X67216597Y-40521614D01*
X67217734Y-40526660D01*
X67217735Y-40526666D01*
X67238984Y-40620952D01*
X67266200Y-40741720D01*
X67268142Y-40746502D01*
X67268143Y-40746506D01*
X67349142Y-40945982D01*
X67351086Y-40950769D01*
X67468975Y-41143147D01*
X67613909Y-41310462D01*
X67613909Y-41310463D01*
X67616702Y-41313687D01*
X67616036Y-41314264D01*
X67648456Y-41372187D01*
X67644131Y-41443052D01*
X67602181Y-41500330D01*
X67569851Y-41518238D01*
X67478105Y-41552632D01*
X67478104Y-41552633D01*
X67469695Y-41555785D01*
X67353139Y-41643139D01*
X67265785Y-41759695D01*
X67214655Y-41896084D01*
X67207900Y-41958266D01*
X67207900Y-43781734D01*
X67214655Y-43843916D01*
X67265785Y-43980305D01*
X67353139Y-44096861D01*
X67469695Y-44184215D01*
X67606084Y-44235345D01*
X67668266Y-44242100D01*
X69491734Y-44242100D01*
X69553916Y-44235345D01*
X69690305Y-44184215D01*
X69806861Y-44096861D01*
X69894215Y-43980305D01*
X69899224Y-43966945D01*
X69932213Y-43878946D01*
X69974854Y-43822181D01*
X70041416Y-43797481D01*
X70110765Y-43812688D01*
X70145431Y-43840676D01*
X70156702Y-43853687D01*
X70330299Y-43997810D01*
X70334751Y-44000412D01*
X70334756Y-44000415D01*
X70498463Y-44096078D01*
X70525103Y-44111645D01*
X70735884Y-44192134D01*
X70740952Y-44193165D01*
X70740955Y-44193166D01*
X70825801Y-44210428D01*
X70956981Y-44237117D01*
X70962156Y-44237307D01*
X70962158Y-44237307D01*
X71177292Y-44245196D01*
X71177296Y-44245196D01*
X71182456Y-44245385D01*
X71187576Y-44244729D01*
X71187578Y-44244729D01*
X71282485Y-44232571D01*
X71406253Y-44216716D01*
X71411202Y-44215231D01*
X71411208Y-44215230D01*
X71617413Y-44153365D01*
X71617412Y-44153365D01*
X71622363Y-44151880D01*
X71749327Y-44089681D01*
X71820331Y-44054897D01*
X71820336Y-44054894D01*
X71824982Y-44052618D01*
X71829192Y-44049615D01*
X71829197Y-44049612D01*
X72004455Y-43924601D01*
X72004459Y-43924597D01*
X72008667Y-43921596D01*
X72168487Y-43762333D01*
X72289370Y-43594107D01*
X72345364Y-43550459D01*
X72416068Y-43544013D01*
X72479032Y-43576816D01*
X72499125Y-43601799D01*
X72546275Y-43678743D01*
X72546279Y-43678748D01*
X72548975Y-43683147D01*
X72696702Y-43853687D01*
X72870299Y-43997810D01*
X72874751Y-44000412D01*
X72874756Y-44000415D01*
X73038463Y-44096078D01*
X73065103Y-44111645D01*
X73275884Y-44192134D01*
X73280952Y-44193165D01*
X73280955Y-44193166D01*
X73365801Y-44210428D01*
X73496981Y-44237117D01*
X73502156Y-44237307D01*
X73502158Y-44237307D01*
X73717292Y-44245196D01*
X73717296Y-44245196D01*
X73722456Y-44245385D01*
X73727576Y-44244729D01*
X73727578Y-44244729D01*
X73822485Y-44232571D01*
X73946253Y-44216716D01*
X73951202Y-44215231D01*
X73951208Y-44215230D01*
X74157413Y-44153365D01*
X74157412Y-44153365D01*
X74162363Y-44151880D01*
X74289327Y-44089681D01*
X74360331Y-44054897D01*
X74360336Y-44054894D01*
X74364982Y-44052618D01*
X74369192Y-44049615D01*
X74369197Y-44049612D01*
X74544455Y-43924601D01*
X74544459Y-43924597D01*
X74548667Y-43921596D01*
X74708487Y-43762333D01*
X74829370Y-43594107D01*
X74885364Y-43550459D01*
X74956068Y-43544013D01*
X75019032Y-43576816D01*
X75039125Y-43601799D01*
X75086275Y-43678743D01*
X75086279Y-43678748D01*
X75088975Y-43683147D01*
X75236702Y-43853687D01*
X75410299Y-43997810D01*
X75414751Y-44000412D01*
X75414756Y-44000415D01*
X75578463Y-44096078D01*
X75605103Y-44111645D01*
X75815884Y-44192134D01*
X75820952Y-44193165D01*
X75820955Y-44193166D01*
X75905801Y-44210428D01*
X76036981Y-44237117D01*
X76042156Y-44237307D01*
X76042158Y-44237307D01*
X76257292Y-44245196D01*
X76257296Y-44245196D01*
X76262456Y-44245385D01*
X76267576Y-44244729D01*
X76267578Y-44244729D01*
X76362485Y-44232571D01*
X76486253Y-44216716D01*
X76491202Y-44215231D01*
X76491208Y-44215230D01*
X76697413Y-44153365D01*
X76697412Y-44153365D01*
X76702363Y-44151880D01*
X76829327Y-44089681D01*
X76900331Y-44054897D01*
X76900336Y-44054894D01*
X76904982Y-44052618D01*
X76909192Y-44049615D01*
X76909197Y-44049612D01*
X77084455Y-43924601D01*
X77084459Y-43924597D01*
X77088667Y-43921596D01*
X77248487Y-43762333D01*
X77369686Y-43593667D01*
X77425680Y-43550019D01*
X77496384Y-43543573D01*
X77559348Y-43576376D01*
X77579441Y-43601358D01*
X77626682Y-43678448D01*
X77632765Y-43686759D01*
X77773665Y-43849417D01*
X77781032Y-43856633D01*
X77946606Y-43994095D01*
X77955053Y-44000010D01*
X78140859Y-44108586D01*
X78150146Y-44113036D01*
X78351198Y-44189810D01*
X78361091Y-44192684D01*
X78468248Y-44214485D01*
X78482300Y-44213290D01*
X78486000Y-44202945D01*
X78486000Y-42742000D01*
X78506002Y-42673879D01*
X78559658Y-42627386D01*
X78612000Y-42616000D01*
X78868000Y-42616000D01*
X78936121Y-42636002D01*
X78982614Y-42689658D01*
X78994000Y-42742000D01*
X78994000Y-44202229D01*
X78998064Y-44216071D01*
X79011479Y-44218105D01*
X79021025Y-44216882D01*
X79031095Y-44214742D01*
X79237225Y-44152900D01*
X79246832Y-44149134D01*
X79440076Y-44054464D01*
X79448934Y-44049185D01*
X79624141Y-43924211D01*
X79632003Y-43917567D01*
X79784445Y-43765656D01*
X79791122Y-43757811D01*
X79909086Y-43593646D01*
X79965081Y-43549998D01*
X80035784Y-43543552D01*
X80098749Y-43576355D01*
X80118842Y-43601337D01*
X80168975Y-43683147D01*
X80316702Y-43853687D01*
X80490299Y-43997810D01*
X80494751Y-44000412D01*
X80494756Y-44000415D01*
X80658463Y-44096078D01*
X80685103Y-44111645D01*
X80895884Y-44192134D01*
X80900952Y-44193165D01*
X80900955Y-44193166D01*
X80985801Y-44210428D01*
X81116981Y-44237117D01*
X81122156Y-44237307D01*
X81122158Y-44237307D01*
X81337292Y-44245196D01*
X81337296Y-44245196D01*
X81342456Y-44245385D01*
X81347576Y-44244729D01*
X81347578Y-44244729D01*
X81442485Y-44232571D01*
X81566253Y-44216716D01*
X81571202Y-44215231D01*
X81571208Y-44215230D01*
X81777413Y-44153365D01*
X81777412Y-44153365D01*
X81782363Y-44151880D01*
X81909327Y-44089681D01*
X81980331Y-44054897D01*
X81980336Y-44054894D01*
X81984982Y-44052618D01*
X81989192Y-44049615D01*
X81989197Y-44049612D01*
X82164455Y-43924601D01*
X82164459Y-43924597D01*
X82168667Y-43921596D01*
X82328487Y-43762333D01*
X82449370Y-43594107D01*
X82505364Y-43550459D01*
X82576068Y-43544013D01*
X82639032Y-43576816D01*
X82659125Y-43601799D01*
X82706275Y-43678743D01*
X82706279Y-43678748D01*
X82708975Y-43683147D01*
X82856702Y-43853687D01*
X83030299Y-43997810D01*
X83034751Y-44000412D01*
X83034756Y-44000415D01*
X83198463Y-44096078D01*
X83225103Y-44111645D01*
X83435884Y-44192134D01*
X83440952Y-44193165D01*
X83440955Y-44193166D01*
X83525801Y-44210428D01*
X83656981Y-44237117D01*
X83662156Y-44237307D01*
X83662158Y-44237307D01*
X83877292Y-44245196D01*
X83877296Y-44245196D01*
X83882456Y-44245385D01*
X83887576Y-44244729D01*
X83887578Y-44244729D01*
X83982485Y-44232571D01*
X84106253Y-44216716D01*
X84111202Y-44215231D01*
X84111208Y-44215230D01*
X84317413Y-44153365D01*
X84317412Y-44153365D01*
X84322363Y-44151880D01*
X84449327Y-44089681D01*
X84520331Y-44054897D01*
X84520336Y-44054894D01*
X84524982Y-44052618D01*
X84529192Y-44049615D01*
X84529197Y-44049612D01*
X84704455Y-43924601D01*
X84704459Y-43924597D01*
X84708667Y-43921596D01*
X84868487Y-43762333D01*
X84989370Y-43594107D01*
X85045364Y-43550459D01*
X85116068Y-43544013D01*
X85179032Y-43576816D01*
X85199125Y-43601799D01*
X85246275Y-43678743D01*
X85246279Y-43678748D01*
X85248975Y-43683147D01*
X85396702Y-43853687D01*
X85570299Y-43997810D01*
X85574751Y-44000412D01*
X85574756Y-44000415D01*
X85738463Y-44096078D01*
X85765103Y-44111645D01*
X85975884Y-44192134D01*
X85980952Y-44193165D01*
X85980955Y-44193166D01*
X86065801Y-44210428D01*
X86196981Y-44237117D01*
X86202156Y-44237307D01*
X86202158Y-44237307D01*
X86417292Y-44245196D01*
X86417296Y-44245196D01*
X86422456Y-44245385D01*
X86427576Y-44244729D01*
X86427578Y-44244729D01*
X86522485Y-44232571D01*
X86646253Y-44216716D01*
X86651202Y-44215231D01*
X86651208Y-44215230D01*
X86857413Y-44153365D01*
X86857412Y-44153365D01*
X86862363Y-44151880D01*
X86989327Y-44089681D01*
X87060331Y-44054897D01*
X87060336Y-44054894D01*
X87064982Y-44052618D01*
X87069192Y-44049615D01*
X87069197Y-44049612D01*
X87244455Y-43924601D01*
X87244459Y-43924597D01*
X87248667Y-43921596D01*
X87408487Y-43762333D01*
X87529370Y-43594107D01*
X87585364Y-43550459D01*
X87656068Y-43544013D01*
X87719032Y-43576816D01*
X87739125Y-43601799D01*
X87786275Y-43678743D01*
X87786279Y-43678748D01*
X87788975Y-43683147D01*
X87936702Y-43853687D01*
X88110299Y-43997810D01*
X88114751Y-44000412D01*
X88114756Y-44000415D01*
X88278463Y-44096078D01*
X88305103Y-44111645D01*
X88515884Y-44192134D01*
X88520952Y-44193165D01*
X88520955Y-44193166D01*
X88605801Y-44210428D01*
X88736981Y-44237117D01*
X88742156Y-44237307D01*
X88742158Y-44237307D01*
X88957292Y-44245196D01*
X88957296Y-44245196D01*
X88962456Y-44245385D01*
X88967576Y-44244729D01*
X88967578Y-44244729D01*
X89062485Y-44232571D01*
X89186253Y-44216716D01*
X89191202Y-44215231D01*
X89191208Y-44215230D01*
X89397413Y-44153365D01*
X89397412Y-44153365D01*
X89402363Y-44151880D01*
X89529327Y-44089681D01*
X89600331Y-44054897D01*
X89600336Y-44054894D01*
X89604982Y-44052618D01*
X89609192Y-44049615D01*
X89609197Y-44049612D01*
X89784455Y-43924601D01*
X89784459Y-43924597D01*
X89788667Y-43921596D01*
X89948487Y-43762333D01*
X90069370Y-43594107D01*
X90125364Y-43550459D01*
X90196068Y-43544013D01*
X90259032Y-43576816D01*
X90279125Y-43601799D01*
X90326275Y-43678743D01*
X90326279Y-43678748D01*
X90328975Y-43683147D01*
X90476702Y-43853687D01*
X90650299Y-43997810D01*
X90654751Y-44000412D01*
X90654756Y-44000415D01*
X90818463Y-44096078D01*
X90845103Y-44111645D01*
X91055884Y-44192134D01*
X91060952Y-44193165D01*
X91060955Y-44193166D01*
X91145801Y-44210428D01*
X91276981Y-44237117D01*
X91282156Y-44237307D01*
X91282158Y-44237307D01*
X91497292Y-44245196D01*
X91497296Y-44245196D01*
X91502456Y-44245385D01*
X91507576Y-44244729D01*
X91507578Y-44244729D01*
X91602485Y-44232571D01*
X91726253Y-44216716D01*
X91731202Y-44215231D01*
X91731208Y-44215230D01*
X91937413Y-44153365D01*
X91937412Y-44153365D01*
X91942363Y-44151880D01*
X92069327Y-44089681D01*
X92140331Y-44054897D01*
X92140336Y-44054894D01*
X92144982Y-44052618D01*
X92149192Y-44049615D01*
X92149197Y-44049612D01*
X92324455Y-43924601D01*
X92324459Y-43924597D01*
X92328667Y-43921596D01*
X92488487Y-43762333D01*
X92609370Y-43594107D01*
X92665364Y-43550459D01*
X92736068Y-43544013D01*
X92799032Y-43576816D01*
X92819125Y-43601799D01*
X92866275Y-43678743D01*
X92866279Y-43678748D01*
X92868975Y-43683147D01*
X93016702Y-43853687D01*
X93190299Y-43997810D01*
X93194751Y-44000412D01*
X93194756Y-44000415D01*
X93358463Y-44096078D01*
X93385103Y-44111645D01*
X93595884Y-44192134D01*
X93600952Y-44193165D01*
X93600955Y-44193166D01*
X93685801Y-44210428D01*
X93816981Y-44237117D01*
X93822156Y-44237307D01*
X93822158Y-44237307D01*
X94037292Y-44245196D01*
X94037296Y-44245196D01*
X94042456Y-44245385D01*
X94047576Y-44244729D01*
X94047578Y-44244729D01*
X94142485Y-44232571D01*
X94266253Y-44216716D01*
X94271202Y-44215231D01*
X94271208Y-44215230D01*
X94477413Y-44153365D01*
X94477412Y-44153365D01*
X94482363Y-44151880D01*
X94609327Y-44089681D01*
X94680331Y-44054897D01*
X94680336Y-44054894D01*
X94684982Y-44052618D01*
X94689192Y-44049615D01*
X94689197Y-44049612D01*
X94864455Y-43924601D01*
X94864459Y-43924597D01*
X94868667Y-43921596D01*
X95028487Y-43762333D01*
X95149370Y-43594107D01*
X95205364Y-43550459D01*
X95276068Y-43544013D01*
X95339032Y-43576816D01*
X95359125Y-43601799D01*
X95406275Y-43678743D01*
X95406279Y-43678748D01*
X95408975Y-43683147D01*
X95556702Y-43853687D01*
X95730299Y-43997810D01*
X95734751Y-44000412D01*
X95734756Y-44000415D01*
X95898463Y-44096078D01*
X95925103Y-44111645D01*
X96135884Y-44192134D01*
X96140952Y-44193165D01*
X96140955Y-44193166D01*
X96225801Y-44210428D01*
X96356981Y-44237117D01*
X96362156Y-44237307D01*
X96362158Y-44237307D01*
X96577292Y-44245196D01*
X96577296Y-44245196D01*
X96582456Y-44245385D01*
X96587576Y-44244729D01*
X96587578Y-44244729D01*
X96682485Y-44232571D01*
X96806253Y-44216716D01*
X96811202Y-44215231D01*
X96811208Y-44215230D01*
X97017413Y-44153365D01*
X97017412Y-44153365D01*
X97022363Y-44151880D01*
X97149327Y-44089681D01*
X97220331Y-44054897D01*
X97220336Y-44054894D01*
X97224982Y-44052618D01*
X97229192Y-44049615D01*
X97229197Y-44049612D01*
X97404455Y-43924601D01*
X97404459Y-43924597D01*
X97408667Y-43921596D01*
X97568487Y-43762333D01*
X97689686Y-43593667D01*
X97745680Y-43550019D01*
X97816384Y-43543573D01*
X97879348Y-43576376D01*
X97899441Y-43601358D01*
X97946682Y-43678448D01*
X97952765Y-43686759D01*
X98093665Y-43849417D01*
X98101032Y-43856633D01*
X98266606Y-43994095D01*
X98275053Y-44000010D01*
X98460859Y-44108586D01*
X98470146Y-44113036D01*
X98671198Y-44189810D01*
X98681091Y-44192684D01*
X98788248Y-44214485D01*
X98802300Y-44213290D01*
X98806000Y-44202945D01*
X98806000Y-42742000D01*
X98826002Y-42673879D01*
X98879658Y-42627386D01*
X98932000Y-42616000D01*
X99188000Y-42616000D01*
X99256121Y-42636002D01*
X99302614Y-42689658D01*
X99314000Y-42742000D01*
X99314000Y-44202229D01*
X99318064Y-44216071D01*
X99331479Y-44218105D01*
X99341025Y-44216882D01*
X99351095Y-44214742D01*
X99557225Y-44152900D01*
X99566832Y-44149134D01*
X99760076Y-44054464D01*
X99768934Y-44049185D01*
X99944141Y-43924211D01*
X99952003Y-43917567D01*
X100104445Y-43765656D01*
X100111122Y-43757811D01*
X100229086Y-43593646D01*
X100285081Y-43549998D01*
X100355784Y-43543552D01*
X100418749Y-43576355D01*
X100438842Y-43601337D01*
X100488975Y-43683147D01*
X100636702Y-43853687D01*
X100640679Y-43856989D01*
X100644374Y-43860607D01*
X100643104Y-43861904D01*
X100678316Y-43914233D01*
X100679814Y-43985213D01*
X100640027Y-44048085D01*
X100533787Y-44138823D01*
X100530031Y-44142031D01*
X100375824Y-44322584D01*
X100373245Y-44326792D01*
X100373241Y-44326798D01*
X100283893Y-44472601D01*
X100251760Y-44525037D01*
X100249867Y-44529607D01*
X100249865Y-44529611D01*
X100206743Y-44633718D01*
X100162195Y-44688999D01*
X100090334Y-44711500D01*
X92009843Y-44711500D01*
X91996236Y-44710763D01*
X91964738Y-44707341D01*
X91964733Y-44707341D01*
X91958612Y-44706676D01*
X91932362Y-44708973D01*
X91908612Y-44711050D01*
X91903786Y-44711379D01*
X91901314Y-44711500D01*
X91898231Y-44711500D01*
X91886262Y-44712674D01*
X91855494Y-44715690D01*
X91854181Y-44715812D01*
X91809916Y-44719685D01*
X91761587Y-44723913D01*
X91756468Y-44725400D01*
X91751167Y-44725920D01*
X91662166Y-44752791D01*
X91661033Y-44753126D01*
X91577586Y-44777370D01*
X91577582Y-44777372D01*
X91571664Y-44779091D01*
X91566932Y-44781544D01*
X91561831Y-44783084D01*
X91556388Y-44785978D01*
X91479740Y-44826731D01*
X91478574Y-44827343D01*
X91401547Y-44867271D01*
X91396074Y-44870108D01*
X91391911Y-44873431D01*
X91387204Y-44875934D01*
X91315082Y-44934755D01*
X91314226Y-44935446D01*
X91275027Y-44966738D01*
X91272523Y-44969242D01*
X91271805Y-44969884D01*
X91267472Y-44973585D01*
X91233938Y-45000935D01*
X91230011Y-45005682D01*
X91230009Y-45005684D01*
X91204713Y-45036262D01*
X91196723Y-45045042D01*
X87503171Y-48738595D01*
X87440859Y-48772621D01*
X87414076Y-48775500D01*
X66609842Y-48775500D01*
X66596235Y-48774763D01*
X66564737Y-48771341D01*
X66564732Y-48771341D01*
X66558611Y-48770676D01*
X66540611Y-48772251D01*
X66508609Y-48775050D01*
X66503784Y-48775379D01*
X66501313Y-48775500D01*
X66498231Y-48775500D01*
X66475763Y-48777703D01*
X66455489Y-48779691D01*
X66454174Y-48779813D01*
X66421913Y-48782636D01*
X66361587Y-48787913D01*
X66356468Y-48789400D01*
X66351167Y-48789920D01*
X66262194Y-48816782D01*
X66261054Y-48817120D01*
X66171663Y-48843091D01*
X66166929Y-48845545D01*
X66161831Y-48847084D01*
X66156387Y-48849978D01*
X66156386Y-48849979D01*
X66079831Y-48890684D01*
X66078663Y-48891298D01*
X65996074Y-48934108D01*
X65991911Y-48937431D01*
X65987204Y-48939934D01*
X65915082Y-48998755D01*
X65914226Y-48999446D01*
X65875027Y-49030738D01*
X65872523Y-49033242D01*
X65871805Y-49033884D01*
X65867472Y-49037585D01*
X65833938Y-49064935D01*
X65830011Y-49069682D01*
X65830009Y-49069684D01*
X65804713Y-49100262D01*
X65796723Y-49109042D01*
X62576621Y-52329145D01*
X62566478Y-52338247D01*
X62536975Y-52361968D01*
X62505369Y-52399635D01*
X62504709Y-52400421D01*
X62501528Y-52404069D01*
X62499885Y-52405881D01*
X62497691Y-52408075D01*
X62470358Y-52441349D01*
X62469696Y-52442147D01*
X62409846Y-52513474D01*
X62407278Y-52518144D01*
X62403897Y-52522261D01*
X62386290Y-52555099D01*
X62360023Y-52604086D01*
X62359394Y-52605245D01*
X62317538Y-52681381D01*
X62317535Y-52681389D01*
X62314567Y-52686787D01*
X62312955Y-52691869D01*
X62310438Y-52696563D01*
X62283238Y-52785531D01*
X62282918Y-52786559D01*
X62254765Y-52875306D01*
X62254171Y-52880602D01*
X62252613Y-52885698D01*
X62251990Y-52891834D01*
X62243218Y-52978187D01*
X62243089Y-52979393D01*
X62237500Y-53029227D01*
X62237500Y-53032754D01*
X62237445Y-53033739D01*
X62236998Y-53039419D01*
X62232626Y-53082462D01*
X60724828Y-53082462D01*
X60737146Y-46736000D01*
X61986835Y-46736000D01*
X62005465Y-46972711D01*
X62006619Y-46977518D01*
X62006620Y-46977524D01*
X62017539Y-47023003D01*
X62060895Y-47203594D01*
X62062788Y-47208165D01*
X62062789Y-47208167D01*
X62093741Y-47282891D01*
X62151760Y-47422963D01*
X62154346Y-47427183D01*
X62273241Y-47621202D01*
X62273245Y-47621208D01*
X62275824Y-47625416D01*
X62430031Y-47805969D01*
X62610584Y-47960176D01*
X62614792Y-47962755D01*
X62614798Y-47962759D01*
X62808817Y-48081654D01*
X62813037Y-48084240D01*
X62817607Y-48086133D01*
X62817611Y-48086135D01*
X63027833Y-48173211D01*
X63032406Y-48175105D01*
X63112609Y-48194360D01*
X63258476Y-48229380D01*
X63258482Y-48229381D01*
X63263289Y-48230535D01*
X63500000Y-48249165D01*
X63736711Y-48230535D01*
X63741518Y-48229381D01*
X63741524Y-48229380D01*
X63887391Y-48194360D01*
X63967594Y-48175105D01*
X63972167Y-48173211D01*
X64182389Y-48086135D01*
X64182393Y-48086133D01*
X64186963Y-48084240D01*
X64191183Y-48081654D01*
X64385202Y-47962759D01*
X64385208Y-47962755D01*
X64389416Y-47960176D01*
X64569969Y-47805969D01*
X64584746Y-47788668D01*
X64644197Y-47749860D01*
X64680556Y-47744500D01*
X71971444Y-47744500D01*
X72039565Y-47764502D01*
X72067254Y-47788668D01*
X72082031Y-47805969D01*
X72262584Y-47960176D01*
X72266792Y-47962755D01*
X72266798Y-47962759D01*
X72460817Y-48081654D01*
X72465037Y-48084240D01*
X72469607Y-48086133D01*
X72469611Y-48086135D01*
X72679833Y-48173211D01*
X72684406Y-48175105D01*
X72764609Y-48194360D01*
X72910476Y-48229380D01*
X72910482Y-48229381D01*
X72915289Y-48230535D01*
X73152000Y-48249165D01*
X73388711Y-48230535D01*
X73393518Y-48229381D01*
X73393524Y-48229380D01*
X73539391Y-48194360D01*
X73619594Y-48175105D01*
X73624167Y-48173211D01*
X73834389Y-48086135D01*
X73834393Y-48086133D01*
X73838963Y-48084240D01*
X73843183Y-48081654D01*
X74037202Y-47962759D01*
X74037208Y-47962755D01*
X74041416Y-47960176D01*
X74221969Y-47805969D01*
X74376176Y-47625416D01*
X74378755Y-47621208D01*
X74378759Y-47621202D01*
X74497654Y-47427183D01*
X74500240Y-47422963D01*
X74558260Y-47282891D01*
X74589211Y-47208167D01*
X74589212Y-47208165D01*
X74591105Y-47203594D01*
X74634461Y-47023003D01*
X74645380Y-46977524D01*
X74645381Y-46977518D01*
X74646535Y-46972711D01*
X74665165Y-46736000D01*
X74646535Y-46499289D01*
X74645306Y-46494167D01*
X74605548Y-46328567D01*
X74591105Y-46268406D01*
X74544414Y-46155683D01*
X74502135Y-46053611D01*
X74502133Y-46053607D01*
X74500240Y-46049037D01*
X74452411Y-45970987D01*
X74378759Y-45850798D01*
X74378755Y-45850792D01*
X74376176Y-45846584D01*
X74221969Y-45666031D01*
X74041416Y-45511824D01*
X74037208Y-45509245D01*
X74037202Y-45509241D01*
X73843183Y-45390346D01*
X73838963Y-45387760D01*
X73834393Y-45385867D01*
X73834389Y-45385865D01*
X73624167Y-45298789D01*
X73624165Y-45298788D01*
X73619594Y-45296895D01*
X73534955Y-45276575D01*
X73393524Y-45242620D01*
X73393518Y-45242619D01*
X73388711Y-45241465D01*
X73152000Y-45222835D01*
X72915289Y-45241465D01*
X72910482Y-45242619D01*
X72910476Y-45242620D01*
X72769045Y-45276575D01*
X72684406Y-45296895D01*
X72679835Y-45298788D01*
X72679833Y-45298789D01*
X72469611Y-45385865D01*
X72469607Y-45385867D01*
X72465037Y-45387760D01*
X72460817Y-45390346D01*
X72266798Y-45509241D01*
X72266792Y-45509245D01*
X72262584Y-45511824D01*
X72082031Y-45666031D01*
X72078823Y-45669787D01*
X72078822Y-45669788D01*
X72067254Y-45683332D01*
X72007803Y-45722140D01*
X71971444Y-45727500D01*
X64680556Y-45727500D01*
X64612435Y-45707498D01*
X64584746Y-45683332D01*
X64573178Y-45669788D01*
X64573177Y-45669787D01*
X64569969Y-45666031D01*
X64389416Y-45511824D01*
X64385208Y-45509245D01*
X64385202Y-45509241D01*
X64191183Y-45390346D01*
X64186963Y-45387760D01*
X64182393Y-45385867D01*
X64182389Y-45385865D01*
X63972167Y-45298789D01*
X63972165Y-45298788D01*
X63967594Y-45296895D01*
X63882955Y-45276575D01*
X63741524Y-45242620D01*
X63741518Y-45242619D01*
X63736711Y-45241465D01*
X63500000Y-45222835D01*
X63263289Y-45241465D01*
X63258482Y-45242619D01*
X63258476Y-45242620D01*
X63117045Y-45276575D01*
X63032406Y-45296895D01*
X63027835Y-45298788D01*
X63027833Y-45298789D01*
X62817611Y-45385865D01*
X62817607Y-45385867D01*
X62813037Y-45387760D01*
X62808817Y-45390346D01*
X62614798Y-45509241D01*
X62614792Y-45509245D01*
X62610584Y-45511824D01*
X62430031Y-45666031D01*
X62275824Y-45846584D01*
X62273245Y-45850792D01*
X62273241Y-45850798D01*
X62199589Y-45970987D01*
X62151760Y-46049037D01*
X62149867Y-46053607D01*
X62149865Y-46053611D01*
X62107586Y-46155683D01*
X62060895Y-46268406D01*
X62046452Y-46328567D01*
X62006695Y-46494167D01*
X62005465Y-46499289D01*
X61986835Y-46736000D01*
X60737146Y-46736000D01*
X60753904Y-38101694D01*
X60755404Y-38082556D01*
X60757805Y-38067140D01*
X60757805Y-38067139D01*
X60759186Y-38058270D01*
X60756941Y-38041101D01*
X60756108Y-38017161D01*
X60771710Y-37759230D01*
X60773544Y-37744126D01*
X60796904Y-37616654D01*
X60825040Y-37463121D01*
X60828679Y-37448353D01*
X60913674Y-37175596D01*
X60919070Y-37161370D01*
X61036316Y-36900860D01*
X61043385Y-36887391D01*
X61191182Y-36642905D01*
X61199825Y-36630383D01*
X61376016Y-36405493D01*
X61386106Y-36394105D01*
X61588105Y-36192106D01*
X61599493Y-36182016D01*
X61824383Y-36005825D01*
X61836905Y-35997182D01*
X62081391Y-35849385D01*
X62094860Y-35842316D01*
X62355373Y-35725069D01*
X62369592Y-35719675D01*
X62642359Y-35634678D01*
X62657121Y-35631040D01*
X62867352Y-35592514D01*
X62938126Y-35579544D01*
X62953230Y-35577710D01*
X63203929Y-35562545D01*
X63230639Y-35563802D01*
X63230859Y-35563805D01*
X63239730Y-35565186D01*
X63248632Y-35564022D01*
X63248635Y-35564022D01*
X63271251Y-35561064D01*
X63287589Y-35560000D01*
X122172672Y-35560000D01*
X122192057Y-35561500D01*
G37*
%TD.AperFunction*%
%TD*%
M02*
