%TF.GenerationSoftware,KiCad,Pcbnew,(6.0.0)*%
%TF.CreationDate,2022-03-15T15:16:00+01:00*%
%TF.ProjectId,RPi_Hat,5250695f-4861-4742-9e6b-696361645f70,rev?*%
%TF.SameCoordinates,Original*%
%TF.FileFunction,Copper,L1,Top*%
%TF.FilePolarity,Positive*%
%FSLAX46Y46*%
G04 Gerber Fmt 4.6, Leading zero omitted, Abs format (unit mm)*
G04 Created by KiCad (PCBNEW (6.0.0)) date 2022-03-15 15:16:00*
%MOMM*%
%LPD*%
G01*
G04 APERTURE LIST*
G04 Aperture macros list*
%AMRoundRect*
0 Rectangle with rounded corners*
0 $1 Rounding radius*
0 $2 $3 $4 $5 $6 $7 $8 $9 X,Y pos of 4 corners*
0 Add a 4 corners polygon primitive as box body*
4,1,4,$2,$3,$4,$5,$6,$7,$8,$9,$2,$3,0*
0 Add four circle primitives for the rounded corners*
1,1,$1+$1,$2,$3*
1,1,$1+$1,$4,$5*
1,1,$1+$1,$6,$7*
1,1,$1+$1,$8,$9*
0 Add four rect primitives between the rounded corners*
20,1,$1+$1,$2,$3,$4,$5,0*
20,1,$1+$1,$4,$5,$6,$7,0*
20,1,$1+$1,$6,$7,$8,$9,0*
20,1,$1+$1,$8,$9,$2,$3,0*%
G04 Aperture macros list end*
%TA.AperFunction,ComponentPad*%
%ADD10R,1.727200X1.727200*%
%TD*%
%TA.AperFunction,ComponentPad*%
%ADD11O,1.727200X1.727200*%
%TD*%
%TA.AperFunction,SMDPad,CuDef*%
%ADD12C,1.000000*%
%TD*%
%TA.AperFunction,ComponentPad*%
%ADD13C,1.600000*%
%TD*%
%TA.AperFunction,ComponentPad*%
%ADD14O,1.600000X1.600000*%
%TD*%
%TA.AperFunction,SMDPad,CuDef*%
%ADD15R,1.750000X0.450000*%
%TD*%
%TA.AperFunction,ComponentPad*%
%ADD16RoundRect,0.312500X0.687500X-0.437500X0.687500X0.437500X-0.687500X0.437500X-0.687500X-0.437500X0*%
%TD*%
%TA.AperFunction,ComponentPad*%
%ADD17O,2.000000X1.500000*%
%TD*%
%TA.AperFunction,SMDPad,CuDef*%
%ADD18C,2.000000*%
%TD*%
%TA.AperFunction,ComponentPad*%
%ADD19RoundRect,0.312500X-0.787500X0.437500X-0.787500X-0.437500X0.787500X-0.437500X0.787500X0.437500X0*%
%TD*%
%TA.AperFunction,ComponentPad*%
%ADD20RoundRect,0.312500X0.787500X-0.437500X0.787500X0.437500X-0.787500X0.437500X-0.787500X-0.437500X0*%
%TD*%
%TA.AperFunction,ComponentPad*%
%ADD21RoundRect,0.400000X-0.400000X1.600000X-0.400000X-1.600000X0.400000X-1.600000X0.400000X1.600000X0*%
%TD*%
%TA.AperFunction,ViaPad*%
%ADD22C,1.600000*%
%TD*%
%TA.AperFunction,ViaPad*%
%ADD23C,2.000000*%
%TD*%
%TA.AperFunction,Conductor*%
%ADD24C,0.450000*%
%TD*%
%TA.AperFunction,Conductor*%
%ADD25C,1.000000*%
%TD*%
%TA.AperFunction,Conductor*%
%ADD26C,0.400000*%
%TD*%
%TA.AperFunction,Conductor*%
%ADD27C,0.250000*%
%TD*%
%TA.AperFunction,Conductor*%
%ADD28C,0.500000*%
%TD*%
%TA.AperFunction,Conductor*%
%ADD29C,0.600000*%
%TD*%
G04 APERTURE END LIST*
D10*
%TO.P,J2,1,3.3V*%
%TO.N,+3.3VA*%
X68580000Y-42870000D03*
D11*
%TO.P,J2,2,5V*%
%TO.N,+5V*%
X68580000Y-40330000D03*
%TO.P,J2,3,BCM2_SDA*%
%TO.N,unconnected-(J2-Pad3)*%
X71120000Y-42870000D03*
%TO.P,J2,4,5V*%
%TO.N,+5V*%
X71120000Y-40330000D03*
%TO.P,J2,5,BCM3_SCL*%
%TO.N,unconnected-(J2-Pad5)*%
X73660000Y-42870000D03*
%TO.P,J2,6,GND*%
%TO.N,GND*%
X73660000Y-40330000D03*
%TO.P,J2,7,BCM4_GPCLK0*%
%TO.N,cmd_relais*%
X76200000Y-42870000D03*
%TO.P,J2,8,BCM14_TXD*%
%TO.N,/RPi_GPIO/BCM14_TXD*%
X76200000Y-40330000D03*
%TO.P,J2,9,GND*%
%TO.N,GND*%
X78740000Y-42870000D03*
%TO.P,J2,10,BCM15_RXD*%
%TO.N,/RPi_GPIO/BCM15_RXD*%
X78740000Y-40330000D03*
%TO.P,J2,11,BCM17*%
%TO.N,unconnected-(J2-Pad11)*%
X81280000Y-42870000D03*
%TO.P,J2,12,BCM18_PCM_C*%
%TO.N,unconnected-(J2-Pad12)*%
X81280000Y-40330000D03*
%TO.P,J2,13,BCM27*%
%TO.N,unconnected-(J2-Pad13)*%
X83820000Y-42870000D03*
%TO.P,J2,14,GND*%
%TO.N,unconnected-(J2-Pad14)*%
X83820000Y-40330000D03*
%TO.P,J2,15,BCM22*%
%TO.N,unconnected-(J2-Pad15)*%
X86360000Y-42870000D03*
%TO.P,J2,16,BCM23*%
%TO.N,unconnected-(J2-Pad16)*%
X86360000Y-40330000D03*
%TO.P,J2,17,3.3V*%
%TO.N,unconnected-(J2-Pad17)*%
X88900000Y-42870000D03*
%TO.P,J2,18,BCM24*%
%TO.N,unconnected-(J2-Pad18)*%
X88900000Y-40330000D03*
%TO.P,J2,19,BCM10_MOSI*%
%TO.N,MOSI*%
X91440000Y-42870000D03*
%TO.P,J2,20,GND*%
%TO.N,unconnected-(J2-Pad20)*%
X91440000Y-40330000D03*
%TO.P,J2,21,BCM9_MISO*%
%TO.N,MISO*%
X93980000Y-42870000D03*
%TO.P,J2,22,BCM25*%
%TO.N,INT*%
X93980000Y-40330000D03*
%TO.P,J2,23,BCM11_SCLK*%
%TO.N,CLK*%
X96520000Y-42870000D03*
%TO.P,J2,24,BCM8_CE0*%
%TO.N,CS*%
X96520000Y-40330000D03*
%TO.P,J2,25,GND*%
%TO.N,GND*%
X99060000Y-42870000D03*
%TO.P,J2,26,BCM7_CE1*%
%TO.N,unconnected-(J2-Pad26)*%
X99060000Y-40330000D03*
%TO.P,J2,27,BCM0_ID_SD*%
%TO.N,unconnected-(J2-Pad27)*%
X101600000Y-42870000D03*
%TO.P,J2,28,BCM1_ID_SC*%
%TO.N,unconnected-(J2-Pad28)*%
X101600000Y-40330000D03*
%TO.P,J2,29,BCM5*%
%TO.N,/RPi_GPIO/Starter*%
X104140000Y-42870000D03*
%TO.P,J2,30,GND*%
%TO.N,unconnected-(J2-Pad30)*%
X104140000Y-40330000D03*
%TO.P,J2,31,BCM6*%
%TO.N,unconnected-(J2-Pad31)*%
X106680000Y-42870000D03*
%TO.P,J2,32,BCM12_PWM0*%
%TO.N,unconnected-(J2-Pad32)*%
X106680000Y-40330000D03*
%TO.P,J2,33,BCM13_PWM1*%
%TO.N,unconnected-(J2-Pad33)*%
X109220000Y-42870000D03*
%TO.P,J2,34,GND*%
%TO.N,unconnected-(J2-Pad34)*%
X109220000Y-40330000D03*
%TO.P,J2,35,BCM19_MISO_PCM_FS*%
%TO.N,unconnected-(J2-Pad35)*%
X111760000Y-42870000D03*
%TO.P,J2,36,BCM16*%
%TO.N,unconnected-(J2-Pad36)*%
X111760000Y-40330000D03*
%TO.P,J2,37,BCM26*%
%TO.N,unconnected-(J2-Pad37)*%
X114300000Y-42870000D03*
%TO.P,J2,38,BCM20_MOSI_PCM_DI*%
%TO.N,unconnected-(J2-Pad38)*%
X114300000Y-40330000D03*
%TO.P,J2,39,GND*%
%TO.N,unconnected-(J2-Pad39)*%
X116840000Y-42870000D03*
%TO.P,J2,40,BCM21_SCLK_PCM_DO*%
%TO.N,unconnected-(J2-Pad40)*%
X116840000Y-40330000D03*
%TD*%
D12*
%TO.P,REF\u002A\u002A,1*%
%TO.N,+5V*%
X66548000Y-50546000D03*
%TD*%
D13*
%TO.P,R3,1*%
%TO.N,+5V*%
X93980000Y-62484000D03*
D14*
%TO.P,R3,2*%
%TO.N,Net-(R3-Pad2)*%
X93980000Y-72644000D03*
%TD*%
D12*
%TO.P,REF\u002A\u002A,1*%
%TO.N,MISO*%
X89916000Y-48260000D03*
%TD*%
%TO.P,REF\u002A\u002A,1*%
%TO.N,+5V*%
X90678000Y-55372000D03*
%TD*%
D15*
%TO.P,U2,1,VIO*%
%TO.N,+3.3VA*%
X80220000Y-63085000D03*
%TO.P,U2,2,NC*%
%TO.N,unconnected-(U2-Pad2)*%
X80220000Y-63735000D03*
%TO.P,U2,3,CANL*%
%TO.N,can_L*%
X80220000Y-64385000D03*
%TO.P,U2,4,CANH*%
%TO.N,can_H*%
X80220000Y-65035000D03*
%TO.P,U2,5,STBY*%
%TO.N,unconnected-(U2-Pad5)*%
X80220000Y-65685000D03*
%TO.P,U2,6,~{Tx1RTS}*%
%TO.N,unconnected-(U2-Pad6)*%
X80220000Y-66335000D03*
%TO.P,U2,7,~{Tx2RTS}*%
%TO.N,unconnected-(U2-Pad7)*%
X80220000Y-66985000D03*
%TO.P,U2,8,OSC2*%
%TO.N,Net-(C3-Pad1)*%
X80220000Y-67635000D03*
%TO.P,U2,9,OSC1*%
%TO.N,Net-(C4-Pad1)*%
X80220000Y-68285000D03*
%TO.P,U2,10,GND*%
%TO.N,GND*%
X80220000Y-68935000D03*
%TO.P,U2,11,~{Rx1BF}*%
%TO.N,unconnected-(U2-Pad11)*%
X80220000Y-69585000D03*
%TO.P,U2,12,~{Rx0BF}*%
%TO.N,unconnected-(U2-Pad12)*%
X80220000Y-70235000D03*
%TO.P,U2,13,~{INT}*%
%TO.N,INT*%
X80220000Y-70885000D03*
%TO.P,U2,14,SCK*%
%TO.N,CLK*%
X80220000Y-71535000D03*
%TO.P,U2,15,SI*%
%TO.N,MOSI*%
X87420000Y-71535000D03*
%TO.P,U2,16,SO*%
%TO.N,MISO*%
X87420000Y-70885000D03*
%TO.P,U2,17,~{CS}*%
%TO.N,CS*%
X87420000Y-70235000D03*
%TO.P,U2,18,~{RESET}*%
%TO.N,Net-(R3-Pad2)*%
X87420000Y-69585000D03*
%TO.P,U2,19,VDD*%
%TO.N,+3.3VA*%
X87420000Y-68935000D03*
%TO.P,U2,20,TxCAN*%
%TO.N,Net-(U2-Pad20)*%
X87420000Y-68285000D03*
%TO.P,U2,21,RxCAN*%
%TO.N,Net-(U2-Pad21)*%
X87420000Y-67635000D03*
%TO.P,U2,22,CLKOUT*%
%TO.N,unconnected-(U2-Pad22)*%
X87420000Y-66985000D03*
%TO.P,U2,23,~{Tx0RTS}*%
%TO.N,unconnected-(U2-Pad23)*%
X87420000Y-66335000D03*
%TO.P,U2,24,TXD*%
%TO.N,Net-(U2-Pad20)*%
X87420000Y-65685000D03*
%TO.P,U2,25,NC*%
%TO.N,unconnected-(U2-Pad25)*%
X87420000Y-65035000D03*
%TO.P,U2,26,VSS*%
%TO.N,GND*%
X87420000Y-64385000D03*
%TO.P,U2,27,VDDA*%
%TO.N,+5V*%
X87420000Y-63735000D03*
%TO.P,U2,28,RXD*%
%TO.N,Net-(U2-Pad21)*%
X87420000Y-63085000D03*
%TD*%
D16*
%TO.P,J3,1,Pin_1*%
%TO.N,GND*%
X66506000Y-77454000D03*
D17*
%TO.P,J3,2,Pin_2*%
%TO.N,/RPi_GPIO/Starter*%
X66506000Y-75454000D03*
%TD*%
D12*
%TO.P, ,1*%
%TO.N,Net-(C4-Pad1)*%
X78994000Y-74930000D03*
%TD*%
%TO.P,REF\u002A\u002A,1*%
%TO.N,Net-(U2-Pad20)*%
X90170000Y-66675000D03*
%TD*%
%TO.P,REF\u002A\u002A,1*%
%TO.N,CLK*%
X88392000Y-46482000D03*
%TD*%
D13*
%TO.P,C2,1*%
%TO.N,+5V*%
X88305000Y-58420000D03*
%TO.P,C2,2*%
%TO.N,GND*%
X93305000Y-58420000D03*
%TD*%
%TO.P,C1,1*%
%TO.N,GND*%
X73065000Y-58420000D03*
%TO.P,C1,2*%
%TO.N,+3.3VA*%
X78065000Y-58420000D03*
%TD*%
%TO.P,Y1,1,1*%
%TO.N,Net-(C3-Pad1)*%
X79175000Y-77851000D03*
%TO.P,Y1,2,2*%
%TO.N,Net-(C4-Pad1)*%
X84075000Y-77851000D03*
%TD*%
%TO.P,R1,1*%
%TO.N,can_L*%
X75946000Y-66548000D03*
D14*
%TO.P,R1,2*%
%TO.N,can_H*%
X75946000Y-64008000D03*
%TD*%
D12*
%TO.P,REF\u002A\u002A,1*%
%TO.N,+3.3VA*%
X80264000Y-60452000D03*
%TD*%
%TO.P,REF\u002A\u002A,1*%
%TO.N,INT*%
X85598000Y-47244000D03*
%TD*%
D13*
%TO.P,C4,1*%
%TO.N,Net-(C4-Pad1)*%
X90170000Y-83225000D03*
%TO.P,C4,2*%
%TO.N,GND*%
X90170000Y-88225000D03*
%TD*%
D12*
%TO.P,REF\u002A\u002A,1*%
%TO.N,CS*%
X89916000Y-50292000D03*
%TD*%
%TO.P,REF\u002A\u002A,1*%
%TO.N,cmd_relais*%
X63500000Y-50800000D03*
%TD*%
D13*
%TO.P,C3,1*%
%TO.N,Net-(C3-Pad1)*%
X73025000Y-83225000D03*
%TO.P,C3,2*%
%TO.N,GND*%
X73025000Y-88225000D03*
%TD*%
D18*
%TO.P,REF\u002A\u002A,1*%
%TO.N,GND*%
X114300000Y-86360000D03*
%TD*%
D12*
%TO.P,REF\u002A\u002A,1*%
%TO.N,Net-(U2-Pad21)*%
X86360000Y-60706000D03*
%TD*%
D19*
%TO.P,J1,1,Pin_1*%
%TO.N,can_H*%
X68610000Y-64008000D03*
D20*
%TO.P,J1,2,Pin_2*%
%TO.N,+5V*%
X66010000Y-64008000D03*
D19*
%TO.P,J1,3,Pin_3*%
%TO.N,can_L*%
X68610000Y-66008000D03*
D20*
%TO.P,J1,4,Pin_4*%
%TO.N,cmd_relais*%
X66010000Y-66008000D03*
D19*
%TO.P,J1,5,Pin_5*%
%TO.N,unconnected-(J1-Pad5)*%
X68610000Y-68008000D03*
D20*
%TO.P,J1,6,Pin_6*%
%TO.N,GND*%
X66010000Y-68008000D03*
%TD*%
D12*
%TO.P, ,1*%
%TO.N,Net-(C3-Pad1)*%
X76200000Y-74930000D03*
%TD*%
%TO.P,REF\u002A\u002A,1*%
%TO.N,MOSI*%
X87630000Y-48768000D03*
%TD*%
D21*
%TO.P,U1,1,VCC*%
%TO.N,+3.3VA*%
X116315000Y-48944000D03*
%TO.P,U1,2,DOUT*%
%TO.N,/RPi_GPIO/BCM14_TXD*%
X114315000Y-48944000D03*
%TO.P,U1,3,DIN*%
%TO.N,/RPi_GPIO/BCM15_RXD*%
X112315000Y-48944000D03*
%TO.P,U1,4,DIO12*%
%TO.N,unconnected-(U1-Pad4)*%
X110315000Y-48944000D03*
%TO.P,U1,5,RST*%
%TO.N,unconnected-(U1-Pad5)*%
X108315000Y-48944000D03*
%TO.P,U1,6,RSSI_PWM_/DIO10*%
%TO.N,unconnected-(U1-Pad6)*%
X106315000Y-48944000D03*
%TO.P,U1,7,DIO11*%
%TO.N,unconnected-(U1-Pad7)*%
X104315000Y-48944000D03*
%TO.P,U1,8,RESERVED*%
%TO.N,unconnected-(U1-Pad8)*%
X102315000Y-48944000D03*
%TO.P,U1,9,!DTR_/_SLEEP_RQ/_DIO8*%
%TO.N,unconnected-(U1-Pad9)*%
X100315000Y-48944000D03*
%TO.P,U1,10,GND*%
%TO.N,GND*%
X98315000Y-48944000D03*
%TO.P,U1,11,DIO4*%
%TO.N,unconnected-(U1-Pad11)*%
X98315000Y-70944000D03*
%TO.P,U1,12,!CTS_/_DIO7*%
%TO.N,unconnected-(U1-Pad12)*%
X100315000Y-70944000D03*
%TO.P,U1,13,ON_/_!SLEEP*%
%TO.N,unconnected-(U1-Pad13)*%
X102315000Y-70944000D03*
%TO.P,U1,14,VREF*%
%TO.N,unconnected-(U1-Pad14)*%
X104315000Y-70944000D03*
%TO.P,U1,15,Associate_/_DIO5*%
%TO.N,unconnected-(U1-Pad15)*%
X106315000Y-70944000D03*
%TO.P,U1,16,!RTS_/_DIO6_*%
%TO.N,unconnected-(U1-Pad16)*%
X108315000Y-70944000D03*
%TO.P,U1,17,AD3_/_DIO3*%
%TO.N,unconnected-(U1-Pad17)*%
X110315000Y-70944000D03*
%TO.P,U1,18,AD2_/_DIO2*%
%TO.N,unconnected-(U1-Pad18)*%
X112315000Y-70944000D03*
%TO.P,U1,19,AD1_/_DIO1*%
%TO.N,unconnected-(U1-Pad19)*%
X114315000Y-70944000D03*
%TO.P,U1,20,AD0_/_DIO0_/Com8Button*%
%TO.N,unconnected-(U1-Pad20)*%
X116315000Y-70944000D03*
%TD*%
D22*
%TO.N,can_L*%
X72390000Y-66040000D03*
X72390000Y-62230000D03*
D23*
%TO.N,cmd_relais*%
X63500000Y-46736000D03*
X73152000Y-46736000D03*
%TO.N,GND*%
X62738000Y-83225000D03*
X121666000Y-69850000D03*
X121666000Y-82550000D03*
X121666000Y-57150000D03*
%TO.N,/RPi_GPIO/Starter*%
X101600000Y-45212000D03*
%TO.N,/RPi_GPIO/BCM14_TXD*%
X121920000Y-42164000D03*
D22*
%TO.N,/RPi_GPIO/BCM15_RXD*%
X80010000Y-38354000D03*
D23*
%TO.N,+3.3VA*%
X79375000Y-53340000D03*
X102870000Y-56642000D03*
%TO.N,+5V*%
X87884000Y-55372000D03*
X68072000Y-55372000D03*
%TD*%
D24*
%TO.N,can_H*%
X75946000Y-64008000D02*
X76708000Y-64008000D01*
X76708000Y-64008000D02*
X77735000Y-65035000D01*
X77735000Y-65035000D02*
X80220000Y-65035000D01*
D25*
X75946000Y-64008000D02*
X68310000Y-64008000D01*
D24*
%TO.N,can_L*%
X80220000Y-64385000D02*
X79117000Y-64385000D01*
X79117000Y-64385000D02*
X76962000Y-62230000D01*
D25*
X72358000Y-66008000D02*
X73025000Y-66675000D01*
X75819000Y-66675000D02*
X75946000Y-66548000D01*
X68310000Y-66008000D02*
X72358000Y-66008000D01*
X73025000Y-66675000D02*
X75819000Y-66675000D01*
X76962000Y-62230000D02*
X72390000Y-62230000D01*
%TO.N,cmd_relais*%
X74444087Y-46736000D02*
X76200000Y-44980087D01*
X64738000Y-66008000D02*
X63500000Y-64770000D01*
X73152000Y-46736000D02*
X74444087Y-46736000D01*
X66310000Y-66008000D02*
X64738000Y-66008000D01*
X76200000Y-44980087D02*
X76200000Y-42870000D01*
X63500000Y-64770000D02*
X63500000Y-46736000D01*
D26*
%TO.N,GND*%
X74936889Y-41606889D02*
X77476889Y-41606889D01*
D27*
X88650718Y-64385000D02*
X87420000Y-64385000D01*
D26*
X77476889Y-41606889D02*
X78740000Y-42870000D01*
D24*
X80220000Y-68935000D02*
X79147000Y-68935000D01*
X79147000Y-68935000D02*
X77216000Y-70866000D01*
D26*
X73660000Y-40330000D02*
X74936889Y-41606889D01*
D28*
X93305000Y-58420000D02*
X93305000Y-59907494D01*
D24*
X88827494Y-64385000D02*
X87420000Y-64385000D01*
D26*
X75011889Y-41681889D02*
X74923111Y-41770667D01*
D27*
X77551889Y-41681889D02*
X78740000Y-42870000D01*
D28*
X93305000Y-59907494D02*
X88902975Y-64309519D01*
D26*
X74923111Y-41770667D02*
X74923111Y-44075889D01*
D24*
X88902975Y-64309519D02*
X88827494Y-64385000D01*
D28*
%TO.N,MOSI*%
X91440000Y-45008800D02*
X91440000Y-42870000D01*
X86317018Y-71797982D02*
X85767982Y-71797982D01*
X83503519Y-71028751D02*
X83503519Y-52945281D01*
D29*
X83503519Y-52945281D02*
X91440000Y-45008800D01*
D28*
X84272750Y-71797982D02*
X83503519Y-71028751D01*
D24*
X87420000Y-71535000D02*
X86030964Y-71535000D01*
X86030964Y-71535000D02*
X85767982Y-71797982D01*
D28*
X85767982Y-71797982D02*
X84272750Y-71797982D01*
%TO.N,MISO*%
X85781708Y-70885000D02*
X85817063Y-70885000D01*
X84328000Y-53848000D02*
X84328000Y-69431292D01*
D29*
X93980000Y-44196000D02*
X84328000Y-53848000D01*
D28*
X93980000Y-42870000D02*
X93980000Y-44196000D01*
D24*
X85852419Y-70885000D02*
X85817063Y-70885000D01*
D28*
X84328000Y-69431292D02*
X85781708Y-70885000D01*
D24*
X87420000Y-70885000D02*
X85852419Y-70885000D01*
%TO.N,INT*%
X81519022Y-70885000D02*
X81661000Y-70743022D01*
D26*
X87623111Y-45599889D02*
X87503000Y-45720000D01*
D28*
X92004000Y-38354000D02*
X88392000Y-38354000D01*
D24*
X80220000Y-70885000D02*
X81519022Y-70885000D01*
D29*
X81661000Y-51562000D02*
X87503000Y-45720000D01*
D28*
X81661000Y-70743022D02*
X81661000Y-51562000D01*
X88392000Y-38354000D02*
X87586889Y-39159111D01*
X87586889Y-39159111D02*
X87586889Y-39822313D01*
X93980000Y-40330000D02*
X92004000Y-38354000D01*
D26*
X87623111Y-39822313D02*
X87623111Y-45599889D01*
D24*
%TO.N,CLK*%
X80220000Y-71535000D02*
X82008000Y-71535000D01*
D28*
X90176889Y-44570111D02*
X90176889Y-43681111D01*
D29*
X82550000Y-52197000D02*
X90176889Y-44570111D01*
D28*
X82008000Y-71535000D02*
X82550000Y-70993000D01*
D26*
X90923690Y-41600000D02*
X90176889Y-42346801D01*
X90176889Y-42346801D02*
X90176889Y-43681111D01*
D28*
X82550000Y-70993000D02*
X82550000Y-52197000D01*
X96520000Y-42870000D02*
X95250000Y-41600000D01*
D26*
X95250000Y-41600000D02*
X90923690Y-41600000D01*
D28*
%TO.N,CS*%
X97790000Y-41600000D02*
X97790000Y-42282980D01*
X97282000Y-44450000D02*
X95758000Y-44450000D01*
X97790000Y-43942000D02*
X97282000Y-44450000D01*
X85344000Y-54864000D02*
X85344000Y-69458022D01*
X85344000Y-69458022D02*
X86096458Y-70210480D01*
X86096458Y-70210480D02*
X86120978Y-70210480D01*
D24*
X86364000Y-70235000D02*
X86120978Y-70235000D01*
D28*
X96520000Y-40330000D02*
X97790000Y-41600000D01*
X97790000Y-43434000D02*
X97790000Y-43942000D01*
D24*
X87420000Y-70235000D02*
X86364000Y-70235000D01*
D26*
X97790000Y-42282980D02*
X97790000Y-43434000D01*
D29*
X95758000Y-44450000D02*
X85344000Y-54864000D01*
D25*
%TO.N,/RPi_GPIO/Starter*%
X104140000Y-44704000D02*
X104140000Y-42870000D01*
D29*
X101600000Y-45212000D02*
X101798000Y-45212000D01*
D25*
X101798000Y-45212000D02*
X103632000Y-45212000D01*
X103632000Y-45212000D02*
X104140000Y-44704000D01*
D29*
%TO.N,/RPi_GPIO/BCM14_TXD*%
X78007511Y-37054489D02*
X76200000Y-38862000D01*
X76200000Y-38862000D02*
X76200000Y-40330000D01*
X118969489Y-37054489D02*
X78007511Y-37054489D01*
X121920000Y-40005000D02*
X118969489Y-37054489D01*
X121920000Y-42164000D02*
X121920000Y-40005000D01*
%TO.N,/RPi_GPIO/BCM15_RXD*%
X79502000Y-38354000D02*
X78740000Y-39116000D01*
X80010000Y-38354000D02*
X79502000Y-38354000D01*
X78740000Y-39116000D02*
X78740000Y-40330000D01*
%TO.N,Net-(C3-Pad1)*%
X73801000Y-83225000D02*
X73025000Y-83225000D01*
D25*
X79175000Y-77851000D02*
X73801000Y-83225000D01*
D29*
X74676000Y-70612000D02*
X74676000Y-73352000D01*
D25*
X74676000Y-73352000D02*
X79175000Y-77851000D01*
D24*
X80220000Y-67635000D02*
X77653000Y-67635000D01*
D29*
X77653000Y-67635000D02*
X74676000Y-70612000D01*
D25*
%TO.N,Net-(C4-Pad1)*%
X84075000Y-77851000D02*
X89449000Y-83225000D01*
D28*
X89449000Y-83225000D02*
X90170000Y-83225000D01*
D25*
X84075000Y-77851000D02*
X81915000Y-77851000D01*
D24*
X78273000Y-68285000D02*
X76200000Y-70358000D01*
X80220000Y-68285000D02*
X78273000Y-68285000D01*
D29*
X76200000Y-72136000D02*
X81915000Y-77851000D01*
X76200000Y-70358000D02*
X76200000Y-72136000D01*
D25*
%TO.N,Net-(R3-Pad2)*%
X90170000Y-70485000D02*
X92329000Y-72644000D01*
X92329000Y-72644000D02*
X93980000Y-72644000D01*
D24*
X90170000Y-70485000D02*
X89270000Y-69585000D01*
X89270000Y-69585000D02*
X87420000Y-69585000D01*
D28*
%TO.N,Net-(U2-Pad20)*%
X89408000Y-66548000D02*
X89408000Y-66373978D01*
D24*
X89408000Y-66373978D02*
X88719022Y-65685000D01*
D28*
X89408000Y-66548000D02*
X89535000Y-66675000D01*
D24*
X88719022Y-65685000D02*
X87420000Y-65685000D01*
X88719022Y-68285000D02*
X87420000Y-68285000D01*
D28*
X89408000Y-66548000D02*
X89408000Y-67596022D01*
D24*
X89408000Y-67596022D02*
X88719022Y-68285000D01*
D29*
X89535000Y-66675000D02*
X90170000Y-66675000D01*
D24*
%TO.N,Net-(U2-Pad21)*%
X87419511Y-67635489D02*
X86121467Y-67635489D01*
D26*
X86360000Y-62865000D02*
X86580000Y-63085000D01*
X86360000Y-60960000D02*
X86360000Y-62865000D01*
D24*
X86120489Y-67634511D02*
X86120489Y-63085489D01*
X86580000Y-63085000D02*
X87420000Y-63085000D01*
X86121467Y-67635489D02*
X86120489Y-67634511D01*
X86120978Y-63085000D02*
X86580000Y-63085000D01*
X87420000Y-67635000D02*
X87419511Y-67635489D01*
D25*
%TO.N,+3.3VA*%
X79375000Y-53340000D02*
X78065000Y-54650000D01*
D24*
X80220000Y-63085000D02*
X80220000Y-60575000D01*
D25*
X102870000Y-56642000D02*
X102870000Y-59817000D01*
X68580000Y-42870000D02*
X68580000Y-47752000D01*
X76287000Y-60198000D02*
X78065000Y-58420000D01*
X78065000Y-54650000D02*
X78065000Y-58420000D01*
X71882000Y-60198000D02*
X76287000Y-60198000D01*
X102870000Y-59817000D02*
X93752000Y-68935000D01*
X68580000Y-47752000D02*
X70612000Y-49784000D01*
X80220000Y-60575000D02*
X78065000Y-58420000D01*
X93752000Y-68935000D02*
X90271000Y-68935000D01*
X70612000Y-49784000D02*
X70612000Y-58928000D01*
X70612000Y-58928000D02*
X71882000Y-60198000D01*
D24*
X87420000Y-68935000D02*
X90271000Y-68935000D01*
D25*
%TO.N,+5V*%
X93980000Y-55372000D02*
X87884000Y-55372000D01*
X89535000Y-59650000D02*
X88305000Y-58420000D01*
X68072000Y-55372000D02*
X66548000Y-53848000D01*
X95758000Y-60706000D02*
X95758000Y-57150000D01*
X66310000Y-64008000D02*
X66040000Y-63738000D01*
X67366000Y-40330000D02*
X68580000Y-40330000D01*
X66548000Y-41148000D02*
X67366000Y-40330000D01*
D24*
X89535000Y-62230000D02*
X89535000Y-62723578D01*
D25*
X93980000Y-62484000D02*
X95758000Y-60706000D01*
X66548000Y-53848000D02*
X66548000Y-41148000D01*
X66040000Y-57404000D02*
X68072000Y-55372000D01*
X88305000Y-55793000D02*
X87884000Y-55372000D01*
D24*
X88523098Y-63735480D02*
X87420480Y-63735480D01*
X87420480Y-63735480D02*
X87420000Y-63735000D01*
D25*
X95758000Y-57150000D02*
X93980000Y-55372000D01*
X68580000Y-40330000D02*
X71120000Y-40330000D01*
D24*
X89535000Y-62723578D02*
X88523098Y-63735480D01*
D25*
X89535000Y-62230000D02*
X89535000Y-59650000D01*
X88305000Y-58420000D02*
X88305000Y-55793000D01*
X66040000Y-63738000D02*
X66040000Y-57404000D01*
%TD*%
%TA.AperFunction,Conductor*%
%TO.N,GND*%
G36*
X122192057Y-35561500D02*
G01*
X122206858Y-35563805D01*
X122206861Y-35563805D01*
X122215730Y-35565186D01*
X122232899Y-35562941D01*
X122256839Y-35562108D01*
X122514770Y-35577710D01*
X122529874Y-35579544D01*
X122600648Y-35592514D01*
X122810879Y-35631040D01*
X122825641Y-35634678D01*
X123098408Y-35719675D01*
X123112627Y-35725069D01*
X123373140Y-35842316D01*
X123386609Y-35849385D01*
X123631095Y-35997182D01*
X123643617Y-36005825D01*
X123868507Y-36182016D01*
X123879895Y-36192106D01*
X124081894Y-36394105D01*
X124091984Y-36405493D01*
X124268175Y-36630383D01*
X124276818Y-36642905D01*
X124424615Y-36887391D01*
X124431686Y-36900864D01*
X124548930Y-37161370D01*
X124554326Y-37175596D01*
X124639321Y-37448353D01*
X124642962Y-37463127D01*
X124694456Y-37744126D01*
X124696290Y-37759230D01*
X124711455Y-38009929D01*
X124710198Y-38036639D01*
X124710195Y-38036859D01*
X124708814Y-38045730D01*
X124710454Y-38058270D01*
X124712740Y-38075750D01*
X124713803Y-38092682D01*
X124702190Y-40558553D01*
X124702154Y-40559439D01*
X124702000Y-40560423D01*
X124702000Y-40598455D01*
X124701999Y-40599048D01*
X124701834Y-40634084D01*
X124701970Y-40635066D01*
X124702000Y-40635971D01*
X124702000Y-89109613D01*
X124681998Y-89177734D01*
X124628342Y-89224227D01*
X124558068Y-89234331D01*
X124493488Y-89204837D01*
X124467157Y-89173089D01*
X124371666Y-89009348D01*
X124299687Y-88885924D01*
X124089001Y-88603781D01*
X124086557Y-88601183D01*
X124086552Y-88601177D01*
X123850180Y-88349907D01*
X123850176Y-88349904D01*
X123847730Y-88347303D01*
X123701923Y-88223868D01*
X123581698Y-88122090D01*
X123581694Y-88122087D01*
X123578976Y-88119786D01*
X123403417Y-88002481D01*
X123289170Y-87926144D01*
X123289168Y-87926143D01*
X123286193Y-87924155D01*
X123283009Y-87922515D01*
X122976330Y-87764564D01*
X122976325Y-87764562D01*
X122973147Y-87762925D01*
X122969806Y-87761659D01*
X122969801Y-87761657D01*
X122647205Y-87639437D01*
X122647206Y-87639437D01*
X122643861Y-87638170D01*
X122640397Y-87637290D01*
X122640393Y-87637289D01*
X122306037Y-87552373D01*
X122306029Y-87552371D01*
X122302570Y-87551493D01*
X122130848Y-87528122D01*
X121956653Y-87504415D01*
X121956646Y-87504414D01*
X121953660Y-87504008D01*
X121838919Y-87499500D01*
X121620802Y-87499500D01*
X121479244Y-87507538D01*
X121362008Y-87514195D01*
X121362001Y-87514196D01*
X121358440Y-87514398D01*
X121220117Y-87538166D01*
X121014918Y-87573425D01*
X121014910Y-87573427D01*
X121011400Y-87574030D01*
X121007975Y-87575028D01*
X121007972Y-87575029D01*
X120913491Y-87602568D01*
X120673341Y-87672566D01*
X120348610Y-87808737D01*
X120194996Y-87894765D01*
X120044498Y-87979047D01*
X120044493Y-87979050D01*
X120041381Y-87980793D01*
X120038485Y-87982878D01*
X120038480Y-87982881D01*
X119891761Y-88088504D01*
X119755605Y-88186523D01*
X119752969Y-88188917D01*
X119752967Y-88188919D01*
X119575733Y-88349907D01*
X119494954Y-88423281D01*
X119262781Y-88688023D01*
X119062071Y-88977347D01*
X118895402Y-89287532D01*
X118764919Y-89614590D01*
X118672299Y-89954317D01*
X118671757Y-89957839D01*
X118630277Y-90227339D01*
X118618732Y-90302345D01*
X118618592Y-90305909D01*
X118609027Y-90549370D01*
X118604908Y-90654200D01*
X118614757Y-90786735D01*
X118629484Y-90984899D01*
X118631004Y-91005358D01*
X118696684Y-91351304D01*
X118697742Y-91354713D01*
X118697744Y-91354719D01*
X118727233Y-91449687D01*
X118801104Y-91687592D01*
X118942921Y-92009897D01*
X119120313Y-92314076D01*
X119330999Y-92596219D01*
X119333443Y-92598817D01*
X119333448Y-92598823D01*
X119569820Y-92850093D01*
X119572270Y-92852697D01*
X119574999Y-92855007D01*
X119806859Y-93051291D01*
X119841024Y-93080214D01*
X120133807Y-93275845D01*
X120136989Y-93277484D01*
X120136991Y-93277485D01*
X120285523Y-93353984D01*
X120336925Y-93402957D01*
X120353691Y-93471945D01*
X120330497Y-93539047D01*
X120274707Y-93582956D01*
X120227831Y-93592000D01*
X65195807Y-93592000D01*
X65127686Y-93571998D01*
X65081193Y-93518342D01*
X65071089Y-93448068D01*
X65100583Y-93383488D01*
X65134241Y-93356065D01*
X65375502Y-93220953D01*
X65375507Y-93220950D01*
X65378619Y-93219207D01*
X65381515Y-93217122D01*
X65381520Y-93217119D01*
X65528239Y-93111496D01*
X65664395Y-93013477D01*
X65838858Y-92855007D01*
X65922405Y-92779118D01*
X65922406Y-92779117D01*
X65925046Y-92776719D01*
X66157219Y-92511977D01*
X66204326Y-92444073D01*
X66296652Y-92310984D01*
X66357929Y-92222653D01*
X66524598Y-91912468D01*
X66655081Y-91585410D01*
X66747701Y-91245683D01*
X66762487Y-91149618D01*
X66800726Y-90901178D01*
X66800726Y-90901174D01*
X66801268Y-90897655D01*
X66810833Y-90654200D01*
X66814952Y-90549370D01*
X66814952Y-90549365D01*
X66815092Y-90545800D01*
X66788996Y-90194642D01*
X66723316Y-89848696D01*
X66618896Y-89512408D01*
X66530302Y-89311062D01*
X72303493Y-89311062D01*
X72312789Y-89323077D01*
X72363994Y-89358931D01*
X72373489Y-89364414D01*
X72570947Y-89456490D01*
X72581239Y-89460236D01*
X72791688Y-89516625D01*
X72802481Y-89518528D01*
X73019525Y-89537517D01*
X73030475Y-89537517D01*
X73247519Y-89518528D01*
X73258312Y-89516625D01*
X73468761Y-89460236D01*
X73479053Y-89456490D01*
X73676511Y-89364414D01*
X73686006Y-89358931D01*
X73738048Y-89322491D01*
X73746424Y-89312012D01*
X73745925Y-89311062D01*
X89448493Y-89311062D01*
X89457789Y-89323077D01*
X89508994Y-89358931D01*
X89518489Y-89364414D01*
X89715947Y-89456490D01*
X89726239Y-89460236D01*
X89936688Y-89516625D01*
X89947481Y-89518528D01*
X90164525Y-89537517D01*
X90175475Y-89537517D01*
X90392519Y-89518528D01*
X90403312Y-89516625D01*
X90613761Y-89460236D01*
X90624053Y-89456490D01*
X90821511Y-89364414D01*
X90831006Y-89358931D01*
X90883048Y-89322491D01*
X90891424Y-89312012D01*
X90884356Y-89298566D01*
X90182812Y-88597022D01*
X90168868Y-88589408D01*
X90167035Y-88589539D01*
X90160420Y-88593790D01*
X89454923Y-89299287D01*
X89448493Y-89311062D01*
X73745925Y-89311062D01*
X73739356Y-89298566D01*
X73037812Y-88597022D01*
X73023868Y-88589408D01*
X73022035Y-88589539D01*
X73015420Y-88593790D01*
X72309923Y-89299287D01*
X72303493Y-89311062D01*
X66530302Y-89311062D01*
X66492094Y-89224227D01*
X66478522Y-89193382D01*
X66478520Y-89193379D01*
X66477079Y-89190103D01*
X66299687Y-88885924D01*
X66089001Y-88603781D01*
X66086557Y-88601183D01*
X66086552Y-88601177D01*
X65850180Y-88349907D01*
X65850176Y-88349904D01*
X65847730Y-88347303D01*
X65709727Y-88230475D01*
X71712483Y-88230475D01*
X71731472Y-88447519D01*
X71733375Y-88458312D01*
X71789764Y-88668761D01*
X71793510Y-88679053D01*
X71885586Y-88876511D01*
X71891069Y-88886006D01*
X71927509Y-88938048D01*
X71937988Y-88946424D01*
X71951434Y-88939356D01*
X72652978Y-88237812D01*
X72659356Y-88226132D01*
X73389408Y-88226132D01*
X73389539Y-88227965D01*
X73393790Y-88234580D01*
X74099287Y-88940077D01*
X74111062Y-88946507D01*
X74123077Y-88937211D01*
X74158931Y-88886006D01*
X74164414Y-88876511D01*
X74256490Y-88679053D01*
X74260236Y-88668761D01*
X74316625Y-88458312D01*
X74318528Y-88447519D01*
X74337517Y-88230475D01*
X88857483Y-88230475D01*
X88876472Y-88447519D01*
X88878375Y-88458312D01*
X88934764Y-88668761D01*
X88938510Y-88679053D01*
X89030586Y-88876511D01*
X89036069Y-88886006D01*
X89072509Y-88938048D01*
X89082988Y-88946424D01*
X89096434Y-88939356D01*
X89797978Y-88237812D01*
X89804356Y-88226132D01*
X90534408Y-88226132D01*
X90534539Y-88227965D01*
X90538790Y-88234580D01*
X91244287Y-88940077D01*
X91256062Y-88946507D01*
X91268077Y-88937211D01*
X91303931Y-88886006D01*
X91309414Y-88876511D01*
X91401490Y-88679053D01*
X91405236Y-88668761D01*
X91461625Y-88458312D01*
X91463528Y-88447519D01*
X91482517Y-88230475D01*
X91482517Y-88219525D01*
X91463528Y-88002481D01*
X91461625Y-87991688D01*
X91405236Y-87781239D01*
X91401490Y-87770947D01*
X91309414Y-87573489D01*
X91303931Y-87563994D01*
X91267491Y-87511952D01*
X91257012Y-87503576D01*
X91243566Y-87510644D01*
X90542022Y-88212188D01*
X90534408Y-88226132D01*
X89804356Y-88226132D01*
X89805592Y-88223868D01*
X89805461Y-88222035D01*
X89801210Y-88215420D01*
X89095713Y-87509923D01*
X89083938Y-87503493D01*
X89071923Y-87512789D01*
X89036069Y-87563994D01*
X89030586Y-87573489D01*
X88938510Y-87770947D01*
X88934764Y-87781239D01*
X88878375Y-87991688D01*
X88876472Y-88002481D01*
X88857483Y-88219525D01*
X88857483Y-88230475D01*
X74337517Y-88230475D01*
X74337517Y-88219525D01*
X74318528Y-88002481D01*
X74316625Y-87991688D01*
X74260236Y-87781239D01*
X74256490Y-87770947D01*
X74164414Y-87573489D01*
X74158931Y-87563994D01*
X74122491Y-87511952D01*
X74112012Y-87503576D01*
X74098566Y-87510644D01*
X73397022Y-88212188D01*
X73389408Y-88226132D01*
X72659356Y-88226132D01*
X72660592Y-88223868D01*
X72660461Y-88222035D01*
X72656210Y-88215420D01*
X71950713Y-87509923D01*
X71938938Y-87503493D01*
X71926923Y-87512789D01*
X71891069Y-87563994D01*
X71885586Y-87573489D01*
X71793510Y-87770947D01*
X71789764Y-87781239D01*
X71733375Y-87991688D01*
X71731472Y-88002481D01*
X71712483Y-88219525D01*
X71712483Y-88230475D01*
X65709727Y-88230475D01*
X65701923Y-88223868D01*
X65581698Y-88122090D01*
X65581694Y-88122087D01*
X65578976Y-88119786D01*
X65403417Y-88002481D01*
X65289170Y-87926144D01*
X65289168Y-87926143D01*
X65286193Y-87924155D01*
X65283009Y-87922515D01*
X64976330Y-87764564D01*
X64976325Y-87764562D01*
X64973147Y-87762925D01*
X64969806Y-87761659D01*
X64969801Y-87761657D01*
X64647205Y-87639437D01*
X64647206Y-87639437D01*
X64643861Y-87638170D01*
X64640397Y-87637290D01*
X64640393Y-87637289D01*
X64306037Y-87552373D01*
X64306029Y-87552371D01*
X64302570Y-87551493D01*
X64130848Y-87528122D01*
X63956653Y-87504415D01*
X63956646Y-87504414D01*
X63953660Y-87504008D01*
X63838919Y-87499500D01*
X63620802Y-87499500D01*
X63479244Y-87507538D01*
X63362008Y-87514195D01*
X63362001Y-87514196D01*
X63358440Y-87514398D01*
X63220117Y-87538166D01*
X63014918Y-87573425D01*
X63014910Y-87573427D01*
X63011400Y-87574030D01*
X63007975Y-87575028D01*
X63007972Y-87575029D01*
X62913491Y-87602568D01*
X62673341Y-87672566D01*
X62348610Y-87808737D01*
X62194995Y-87894765D01*
X62044498Y-87979047D01*
X62044493Y-87979050D01*
X62041381Y-87980793D01*
X62038485Y-87982878D01*
X62038480Y-87982881D01*
X61891761Y-88088504D01*
X61755605Y-88186523D01*
X61752969Y-88188917D01*
X61752967Y-88188919D01*
X61575733Y-88349907D01*
X61494954Y-88423281D01*
X61262781Y-88688023D01*
X61062071Y-88977347D01*
X61060380Y-88980494D01*
X61060377Y-88980499D01*
X60954992Y-89176630D01*
X60905130Y-89227170D01*
X60835859Y-89242729D01*
X60769173Y-89218367D01*
X60726244Y-89161819D01*
X60718000Y-89116992D01*
X60718000Y-87137988D01*
X72303576Y-87137988D01*
X72310644Y-87151434D01*
X73012188Y-87852978D01*
X73026132Y-87860592D01*
X73027965Y-87860461D01*
X73034580Y-87856210D01*
X73740077Y-87150713D01*
X73746507Y-87138938D01*
X73745772Y-87137988D01*
X89448576Y-87137988D01*
X89455644Y-87151434D01*
X90157188Y-87852978D01*
X90171132Y-87860592D01*
X90172965Y-87860461D01*
X90179580Y-87856210D01*
X90885077Y-87150713D01*
X90891507Y-87138938D01*
X90882211Y-87126923D01*
X90831006Y-87091069D01*
X90821511Y-87085586D01*
X90624053Y-86993510D01*
X90613761Y-86989764D01*
X90403312Y-86933375D01*
X90392519Y-86931472D01*
X90175475Y-86912483D01*
X90164525Y-86912483D01*
X89947481Y-86931472D01*
X89936688Y-86933375D01*
X89726239Y-86989764D01*
X89715947Y-86993510D01*
X89518489Y-87085586D01*
X89508994Y-87091069D01*
X89456952Y-87127509D01*
X89448576Y-87137988D01*
X73745772Y-87137988D01*
X73737211Y-87126923D01*
X73686006Y-87091069D01*
X73676511Y-87085586D01*
X73479053Y-86993510D01*
X73468761Y-86989764D01*
X73258312Y-86933375D01*
X73247519Y-86931472D01*
X73030475Y-86912483D01*
X73019525Y-86912483D01*
X72802481Y-86931472D01*
X72791688Y-86933375D01*
X72581239Y-86989764D01*
X72570947Y-86993510D01*
X72373489Y-87085586D01*
X72363994Y-87091069D01*
X72311952Y-87127509D01*
X72303576Y-87137988D01*
X60718000Y-87137988D01*
X60718000Y-77979753D01*
X64998001Y-77979753D01*
X64998055Y-77981644D01*
X64999480Y-77991600D01*
X65038105Y-78158902D01*
X65042755Y-78172105D01*
X65116738Y-78325148D01*
X65124202Y-78337000D01*
X65230255Y-78469849D01*
X65240151Y-78479745D01*
X65373000Y-78585798D01*
X65384852Y-78593262D01*
X65537895Y-78667245D01*
X65551098Y-78671895D01*
X65718399Y-78710520D01*
X65728347Y-78711944D01*
X65730277Y-78712000D01*
X66233885Y-78712000D01*
X66249124Y-78707525D01*
X66250329Y-78706135D01*
X66252000Y-78698452D01*
X66252000Y-78693884D01*
X66760000Y-78693884D01*
X66764475Y-78709123D01*
X66765865Y-78710328D01*
X66773548Y-78711999D01*
X67281753Y-78711999D01*
X67283644Y-78711945D01*
X67293600Y-78710520D01*
X67460902Y-78671895D01*
X67474105Y-78667245D01*
X67627148Y-78593262D01*
X67639000Y-78585798D01*
X67771849Y-78479745D01*
X67781745Y-78469849D01*
X67887798Y-78337000D01*
X67895262Y-78325148D01*
X67969245Y-78172105D01*
X67973895Y-78158902D01*
X68012520Y-77991601D01*
X68013944Y-77981653D01*
X68014000Y-77979723D01*
X68014000Y-77726115D01*
X68009525Y-77710876D01*
X68008135Y-77709671D01*
X68000452Y-77708000D01*
X66778115Y-77708000D01*
X66762876Y-77712475D01*
X66761671Y-77713865D01*
X66760000Y-77721548D01*
X66760000Y-78693884D01*
X66252000Y-78693884D01*
X66252000Y-77726115D01*
X66247525Y-77710876D01*
X66246135Y-77709671D01*
X66238452Y-77708000D01*
X65016116Y-77708000D01*
X65000877Y-77712475D01*
X64999672Y-77713865D01*
X64998001Y-77721548D01*
X64998001Y-77979753D01*
X60718000Y-77979753D01*
X60718000Y-75493690D01*
X64993037Y-75493690D01*
X65020025Y-75716715D01*
X65086082Y-75931435D01*
X65088652Y-75936415D01*
X65088654Y-75936419D01*
X65153852Y-76062738D01*
X65189118Y-76131064D01*
X65192531Y-76135511D01*
X65192531Y-76135512D01*
X65274676Y-76242566D01*
X65300276Y-76308787D01*
X65286011Y-76378335D01*
X65253321Y-76417742D01*
X65240150Y-76428256D01*
X65230255Y-76438151D01*
X65124202Y-76571000D01*
X65116738Y-76582852D01*
X65042755Y-76735895D01*
X65038105Y-76749098D01*
X64999480Y-76916399D01*
X64998056Y-76926347D01*
X64998000Y-76928277D01*
X64998000Y-77181885D01*
X65002475Y-77197124D01*
X65003865Y-77198329D01*
X65011548Y-77200000D01*
X67995884Y-77200000D01*
X68011123Y-77195525D01*
X68012328Y-77194135D01*
X68013999Y-77186452D01*
X68013999Y-76928247D01*
X68013945Y-76926356D01*
X68012520Y-76916400D01*
X67973895Y-76749098D01*
X67969245Y-76735895D01*
X67895262Y-76582852D01*
X67887798Y-76571000D01*
X67781745Y-76438151D01*
X67771851Y-76428257D01*
X67761989Y-76420384D01*
X67721232Y-76362252D01*
X67718372Y-76291313D01*
X67739045Y-76249909D01*
X67737992Y-76249201D01*
X67860164Y-76067390D01*
X67863290Y-76062738D01*
X67953588Y-75857033D01*
X67975650Y-75765141D01*
X68004722Y-75644046D01*
X68004722Y-75644045D01*
X68006032Y-75638589D01*
X68014710Y-75488083D01*
X68018640Y-75419917D01*
X68018640Y-75419914D01*
X68018963Y-75414310D01*
X67991975Y-75191285D01*
X67925918Y-74976565D01*
X67867493Y-74863367D01*
X67825454Y-74781919D01*
X67825454Y-74781918D01*
X67822882Y-74776936D01*
X67686123Y-74598708D01*
X67519964Y-74447515D01*
X67515217Y-74444537D01*
X67515214Y-74444535D01*
X67334405Y-74331115D01*
X67329656Y-74328136D01*
X67121217Y-74244344D01*
X66901233Y-74198787D01*
X66896622Y-74198521D01*
X66896621Y-74198521D01*
X66846048Y-74195605D01*
X66846044Y-74195605D01*
X66844225Y-74195500D01*
X66199001Y-74195500D01*
X66196214Y-74195749D01*
X66196208Y-74195749D01*
X66126071Y-74202009D01*
X66032238Y-74210383D01*
X66026824Y-74211864D01*
X66026819Y-74211865D01*
X65912262Y-74243205D01*
X65815549Y-74269663D01*
X65810491Y-74272075D01*
X65810487Y-74272077D01*
X65714165Y-74318021D01*
X65612782Y-74366378D01*
X65430346Y-74497471D01*
X65274008Y-74658799D01*
X65148710Y-74845262D01*
X65058412Y-75050967D01*
X65057103Y-75056418D01*
X65057102Y-75056422D01*
X65036393Y-75142681D01*
X65005968Y-75269411D01*
X65005645Y-75275016D01*
X64993887Y-75478956D01*
X64993037Y-75493690D01*
X60718000Y-75493690D01*
X60718000Y-68533753D01*
X64402001Y-68533753D01*
X64402055Y-68535644D01*
X64403480Y-68545600D01*
X64442105Y-68712902D01*
X64446755Y-68726105D01*
X64520738Y-68879148D01*
X64528202Y-68891000D01*
X64634255Y-69023849D01*
X64644151Y-69033745D01*
X64777000Y-69139798D01*
X64788852Y-69147262D01*
X64941895Y-69221245D01*
X64955098Y-69225895D01*
X65122399Y-69264520D01*
X65132347Y-69265944D01*
X65134277Y-69266000D01*
X65737885Y-69266000D01*
X65753124Y-69261525D01*
X65754329Y-69260135D01*
X65756000Y-69252452D01*
X65756000Y-68280115D01*
X65751525Y-68264876D01*
X65750135Y-68263671D01*
X65742452Y-68262000D01*
X64420116Y-68262000D01*
X64404877Y-68266475D01*
X64403672Y-68267865D01*
X64402001Y-68275548D01*
X64402001Y-68533753D01*
X60718000Y-68533753D01*
X60718000Y-56600376D01*
X60718078Y-56560423D01*
X60737146Y-46736000D01*
X61986835Y-46736000D01*
X62005465Y-46972711D01*
X62006619Y-46977518D01*
X62006620Y-46977524D01*
X62041640Y-47123391D01*
X62060895Y-47203594D01*
X62062788Y-47208165D01*
X62062789Y-47208167D01*
X62148908Y-47416077D01*
X62151760Y-47422963D01*
X62154346Y-47427183D01*
X62273241Y-47621202D01*
X62273245Y-47621208D01*
X62275824Y-47625416D01*
X62430031Y-47805969D01*
X62433787Y-47809177D01*
X62433788Y-47809178D01*
X62447332Y-47820746D01*
X62486140Y-47880197D01*
X62491500Y-47916556D01*
X62491500Y-50736181D01*
X62490715Y-50750225D01*
X62486719Y-50785851D01*
X62487235Y-50791995D01*
X62491058Y-50837524D01*
X62491500Y-50848067D01*
X62491500Y-64708157D01*
X62490763Y-64721764D01*
X62486676Y-64759388D01*
X62487213Y-64765523D01*
X62491050Y-64809388D01*
X62491379Y-64814214D01*
X62491500Y-64816686D01*
X62491500Y-64819769D01*
X62491801Y-64822837D01*
X62495690Y-64862506D01*
X62495812Y-64863819D01*
X62503913Y-64956413D01*
X62505400Y-64961532D01*
X62505920Y-64966833D01*
X62532791Y-65055834D01*
X62533126Y-65056967D01*
X62556856Y-65138643D01*
X62559091Y-65146336D01*
X62561544Y-65151068D01*
X62563084Y-65156169D01*
X62565978Y-65161612D01*
X62606731Y-65238260D01*
X62607343Y-65239426D01*
X62627856Y-65278999D01*
X62650108Y-65321926D01*
X62653431Y-65326089D01*
X62655934Y-65330796D01*
X62714755Y-65402918D01*
X62715446Y-65403774D01*
X62746738Y-65442973D01*
X62749242Y-65445477D01*
X62749884Y-65446195D01*
X62753585Y-65450528D01*
X62780935Y-65484062D01*
X62785682Y-65487989D01*
X62785684Y-65487991D01*
X62816262Y-65513287D01*
X62825042Y-65521277D01*
X63981145Y-66677379D01*
X63990247Y-66687522D01*
X64013968Y-66717025D01*
X64052456Y-66749320D01*
X64056075Y-66752478D01*
X64057890Y-66754124D01*
X64060075Y-66756309D01*
X64062455Y-66758264D01*
X64062465Y-66758273D01*
X64093236Y-66783549D01*
X64094251Y-66784391D01*
X64165474Y-66844154D01*
X64170148Y-66846723D01*
X64174261Y-66850102D01*
X64179698Y-66853017D01*
X64179699Y-66853018D01*
X64199032Y-66863384D01*
X64254999Y-66893393D01*
X64256047Y-66893955D01*
X64257177Y-66894568D01*
X64338787Y-66939433D01*
X64343869Y-66941045D01*
X64348563Y-66943562D01*
X64437512Y-66970756D01*
X64438674Y-66971119D01*
X64440677Y-66971755D01*
X64499550Y-67011434D01*
X64527625Y-67076644D01*
X64515985Y-67146685D01*
X64446755Y-67289895D01*
X64442105Y-67303098D01*
X64403480Y-67470399D01*
X64402056Y-67480347D01*
X64402000Y-67482277D01*
X64402000Y-67735885D01*
X64406475Y-67751124D01*
X64407865Y-67752329D01*
X64415548Y-67754000D01*
X66138000Y-67754000D01*
X66206121Y-67774002D01*
X66252614Y-67827658D01*
X66264000Y-67880000D01*
X66264000Y-69247884D01*
X66268475Y-69263123D01*
X66269865Y-69264328D01*
X66277548Y-69265999D01*
X66885753Y-69265999D01*
X66887644Y-69265945D01*
X66897600Y-69264520D01*
X67064902Y-69225895D01*
X67078105Y-69221245D01*
X67231145Y-69147263D01*
X67242383Y-69140186D01*
X67310685Y-69120810D01*
X67376674Y-69140187D01*
X67376729Y-69140222D01*
X67382240Y-69144621D01*
X67548070Y-69224786D01*
X67554931Y-69226370D01*
X67722341Y-69265020D01*
X67722344Y-69265020D01*
X67727540Y-69266220D01*
X67732396Y-69266500D01*
X69487604Y-69266500D01*
X69492460Y-69266220D01*
X69497656Y-69265020D01*
X69497659Y-69265020D01*
X69665069Y-69226370D01*
X69671930Y-69224786D01*
X69837760Y-69144621D01*
X69981708Y-69029708D01*
X70096621Y-68885760D01*
X70099818Y-68879148D01*
X70173720Y-68726272D01*
X70176786Y-68719930D01*
X70205250Y-68596638D01*
X70217020Y-68545659D01*
X70217020Y-68545656D01*
X70218220Y-68540460D01*
X70218500Y-68535604D01*
X70218500Y-67480396D01*
X70218220Y-67475540D01*
X70212550Y-67450978D01*
X70178370Y-67302931D01*
X70176786Y-67296070D01*
X70129058Y-67197339D01*
X70117418Y-67127303D01*
X70145490Y-67062092D01*
X70204362Y-67022410D01*
X70242498Y-67016500D01*
X71465193Y-67016500D01*
X71533314Y-67036502D01*
X71543515Y-67044013D01*
X71545700Y-67046198D01*
X71733251Y-67177523D01*
X71738233Y-67179846D01*
X71738238Y-67179849D01*
X71924064Y-67266500D01*
X71940757Y-67274284D01*
X71946065Y-67275706D01*
X71946067Y-67275707D01*
X72014141Y-67293947D01*
X72161913Y-67333543D01*
X72167393Y-67334022D01*
X72167402Y-67334024D01*
X72214420Y-67338138D01*
X72280538Y-67364001D01*
X72293455Y-67375495D01*
X72297112Y-67379229D01*
X72300968Y-67384025D01*
X72339446Y-67416312D01*
X72343062Y-67419467D01*
X72344888Y-67421123D01*
X72347074Y-67423309D01*
X72349454Y-67425264D01*
X72349464Y-67425273D01*
X72380268Y-67450576D01*
X72381283Y-67451418D01*
X72452474Y-67511154D01*
X72457148Y-67513723D01*
X72461261Y-67517102D01*
X72466698Y-67520017D01*
X72466699Y-67520018D01*
X72543047Y-67560955D01*
X72544177Y-67561568D01*
X72625787Y-67606433D01*
X72630869Y-67608045D01*
X72635563Y-67610562D01*
X72724531Y-67637762D01*
X72725559Y-67638082D01*
X72814306Y-67666235D01*
X72819602Y-67666829D01*
X72824698Y-67668387D01*
X72917257Y-67677790D01*
X72918393Y-67677911D01*
X72952008Y-67681681D01*
X72964730Y-67683108D01*
X72964734Y-67683108D01*
X72968227Y-67683500D01*
X72971754Y-67683500D01*
X72972739Y-67683555D01*
X72978419Y-67684002D01*
X73006262Y-67686830D01*
X73015337Y-67687752D01*
X73015339Y-67687752D01*
X73021462Y-67688374D01*
X73067108Y-67684059D01*
X73078967Y-67683500D01*
X75256979Y-67683500D01*
X75310228Y-67695305D01*
X75496757Y-67782284D01*
X75502065Y-67783706D01*
X75502067Y-67783707D01*
X75712598Y-67840119D01*
X75712600Y-67840119D01*
X75717913Y-67841543D01*
X75946000Y-67861498D01*
X75951475Y-67861019D01*
X75951478Y-67861019D01*
X75970568Y-67859349D01*
X76040172Y-67873339D01*
X76091164Y-67922739D01*
X76107354Y-67991865D01*
X76083601Y-68058770D01*
X76070643Y-68073965D01*
X74110842Y-70033766D01*
X74109905Y-70034694D01*
X74045493Y-70097771D01*
X74022002Y-70134221D01*
X74014583Y-70144546D01*
X73987524Y-70178443D01*
X73984459Y-70184784D01*
X73984458Y-70184785D01*
X73972928Y-70208637D01*
X73965399Y-70222054D01*
X73947235Y-70250238D01*
X73944827Y-70256855D01*
X73944824Y-70256860D01*
X73932408Y-70290973D01*
X73927447Y-70302716D01*
X73911646Y-70335403D01*
X73911644Y-70335408D01*
X73908579Y-70341749D01*
X73906996Y-70348607D01*
X73906995Y-70348609D01*
X73901035Y-70374426D01*
X73896668Y-70389169D01*
X73885197Y-70420685D01*
X73884314Y-70427675D01*
X73884312Y-70427683D01*
X73879762Y-70463701D01*
X73877526Y-70476253D01*
X73870166Y-70508134D01*
X73867776Y-70518485D01*
X73867751Y-70525531D01*
X73867751Y-70525534D01*
X73867634Y-70559056D01*
X73867605Y-70559938D01*
X73867500Y-70560769D01*
X73867500Y-70597419D01*
X73867499Y-70597859D01*
X73867222Y-70677335D01*
X73867143Y-70699870D01*
X73867411Y-70701070D01*
X73867500Y-70702707D01*
X73867500Y-72701203D01*
X73847498Y-72769324D01*
X73845167Y-72772502D01*
X73845262Y-72772566D01*
X73841801Y-72777658D01*
X73837854Y-72782396D01*
X73743178Y-72956041D01*
X73741335Y-72961923D01*
X73698621Y-73098225D01*
X73684035Y-73144768D01*
X73683370Y-73150891D01*
X73683369Y-73150895D01*
X73663341Y-73335263D01*
X73662676Y-73341388D01*
X73679913Y-73538413D01*
X73681632Y-73544330D01*
X73681633Y-73544335D01*
X73715531Y-73661011D01*
X73735091Y-73728336D01*
X73826108Y-73903926D01*
X73829948Y-73908736D01*
X73920542Y-74022223D01*
X73920549Y-74022230D01*
X73922738Y-74024973D01*
X73925233Y-74027468D01*
X75304063Y-75406297D01*
X75327034Y-75437797D01*
X75348187Y-75478956D01*
X75471035Y-75633953D01*
X75475728Y-75637947D01*
X75475729Y-75637948D01*
X75574581Y-75722077D01*
X75621650Y-75762136D01*
X75686588Y-75798429D01*
X75693106Y-75802072D01*
X75720730Y-75822965D01*
X76720264Y-76822498D01*
X77659671Y-77761905D01*
X77693696Y-77824217D01*
X77688632Y-77895032D01*
X77659671Y-77940095D01*
X73628565Y-81971201D01*
X73566253Y-82005227D01*
X73495438Y-82000162D01*
X73486223Y-81996302D01*
X73479233Y-81993043D01*
X73474243Y-81990716D01*
X73345208Y-81956141D01*
X73258402Y-81932881D01*
X73258400Y-81932881D01*
X73253087Y-81931457D01*
X73025000Y-81911502D01*
X72796913Y-81931457D01*
X72791600Y-81932881D01*
X72791598Y-81932881D01*
X72581067Y-81989293D01*
X72581065Y-81989294D01*
X72575757Y-81990716D01*
X72570776Y-81993039D01*
X72570775Y-81993039D01*
X72373238Y-82085151D01*
X72373233Y-82085154D01*
X72368251Y-82087477D01*
X72263389Y-82160902D01*
X72185211Y-82215643D01*
X72185208Y-82215645D01*
X72180700Y-82218802D01*
X72018802Y-82380700D01*
X71887477Y-82568251D01*
X71885154Y-82573233D01*
X71885151Y-82573238D01*
X71793039Y-82770775D01*
X71790716Y-82775757D01*
X71731457Y-82996913D01*
X71711502Y-83225000D01*
X71731457Y-83453087D01*
X71790716Y-83674243D01*
X71793039Y-83679224D01*
X71793039Y-83679225D01*
X71885151Y-83876762D01*
X71885154Y-83876767D01*
X71887477Y-83881749D01*
X71953309Y-83975767D01*
X72014524Y-84063190D01*
X72018802Y-84069300D01*
X72180700Y-84231198D01*
X72185208Y-84234355D01*
X72185211Y-84234357D01*
X72208720Y-84250818D01*
X72368251Y-84362523D01*
X72373233Y-84364846D01*
X72373238Y-84364849D01*
X72570775Y-84456961D01*
X72575757Y-84459284D01*
X72581065Y-84460706D01*
X72581067Y-84460707D01*
X72791598Y-84517119D01*
X72791600Y-84517119D01*
X72796913Y-84518543D01*
X73025000Y-84538498D01*
X73253087Y-84518543D01*
X73258400Y-84517119D01*
X73258402Y-84517119D01*
X73468933Y-84460707D01*
X73468935Y-84460706D01*
X73474243Y-84459284D01*
X73479225Y-84456961D01*
X73676762Y-84364849D01*
X73676767Y-84364846D01*
X73681749Y-84362523D01*
X73841279Y-84250818D01*
X73902569Y-84228510D01*
X73947290Y-84224597D01*
X73987413Y-84221087D01*
X73993330Y-84219368D01*
X73993335Y-84219367D01*
X74124064Y-84181386D01*
X74177336Y-84165909D01*
X74352926Y-84074892D01*
X74387037Y-84047662D01*
X74471223Y-83980458D01*
X74471230Y-83980451D01*
X74473973Y-83978262D01*
X79266116Y-79186118D01*
X79328428Y-79152092D01*
X79344227Y-79149692D01*
X79403087Y-79144543D01*
X79550859Y-79104947D01*
X79618933Y-79086707D01*
X79618935Y-79086706D01*
X79624243Y-79085284D01*
X79629225Y-79082961D01*
X79826762Y-78990849D01*
X79826767Y-78990846D01*
X79831749Y-78988523D01*
X79936611Y-78915098D01*
X80014789Y-78860357D01*
X80014792Y-78860355D01*
X80019300Y-78857198D01*
X80181198Y-78695300D01*
X80197587Y-78671895D01*
X80309366Y-78512257D01*
X80312523Y-78507749D01*
X80314846Y-78502767D01*
X80314849Y-78502762D01*
X80406961Y-78305225D01*
X80406961Y-78305224D01*
X80409284Y-78300243D01*
X80447157Y-78158902D01*
X80467119Y-78084402D01*
X80467119Y-78084400D01*
X80468543Y-78079087D01*
X80472950Y-78028723D01*
X80487724Y-77859845D01*
X80513587Y-77793726D01*
X80571091Y-77752087D01*
X80641978Y-77748146D01*
X80702340Y-77781731D01*
X80883120Y-77962511D01*
X80917146Y-78024823D01*
X80917745Y-78028723D01*
X80917858Y-78028702D01*
X80919011Y-78034747D01*
X80919570Y-78040888D01*
X80975410Y-78230619D01*
X81067040Y-78405890D01*
X81190968Y-78560025D01*
X81342474Y-78687154D01*
X81347872Y-78690121D01*
X81347877Y-78690125D01*
X81491180Y-78768905D01*
X81515787Y-78782433D01*
X81521654Y-78784294D01*
X81521656Y-78784295D01*
X81698436Y-78840373D01*
X81704306Y-78842235D01*
X81858227Y-78859500D01*
X83194260Y-78859500D01*
X83266531Y-78882287D01*
X83418251Y-78988523D01*
X83423233Y-78990846D01*
X83423238Y-78990849D01*
X83620775Y-79082961D01*
X83625757Y-79085284D01*
X83631065Y-79086706D01*
X83631067Y-79086707D01*
X83699141Y-79104947D01*
X83846913Y-79144543D01*
X83905769Y-79149692D01*
X83971887Y-79175555D01*
X83983883Y-79186118D01*
X88771075Y-83973309D01*
X88773452Y-83975262D01*
X88773457Y-83975266D01*
X88779778Y-83980458D01*
X88885261Y-84067103D01*
X89059563Y-84160563D01*
X89248698Y-84218388D01*
X89254830Y-84219011D01*
X89254831Y-84219011D01*
X89284713Y-84222046D01*
X89344251Y-84244188D01*
X89513251Y-84362523D01*
X89518233Y-84364846D01*
X89518238Y-84364849D01*
X89715775Y-84456961D01*
X89720757Y-84459284D01*
X89726065Y-84460706D01*
X89726067Y-84460707D01*
X89936598Y-84517119D01*
X89936600Y-84517119D01*
X89941913Y-84518543D01*
X90170000Y-84538498D01*
X90398087Y-84518543D01*
X90403400Y-84517119D01*
X90403402Y-84517119D01*
X90613933Y-84460707D01*
X90613935Y-84460706D01*
X90619243Y-84459284D01*
X90624225Y-84456961D01*
X90821762Y-84364849D01*
X90821767Y-84364846D01*
X90826749Y-84362523D01*
X90986280Y-84250818D01*
X91009789Y-84234357D01*
X91009792Y-84234355D01*
X91014300Y-84231198D01*
X91176198Y-84069300D01*
X91180477Y-84063190D01*
X91241691Y-83975767D01*
X91307523Y-83881749D01*
X91309846Y-83876767D01*
X91309849Y-83876762D01*
X91401961Y-83679225D01*
X91401961Y-83679224D01*
X91404284Y-83674243D01*
X91463543Y-83453087D01*
X91483498Y-83225000D01*
X91463543Y-82996913D01*
X91404284Y-82775757D01*
X91401961Y-82770775D01*
X91309849Y-82573238D01*
X91309846Y-82573233D01*
X91307523Y-82568251D01*
X91176198Y-82380700D01*
X91014300Y-82218802D01*
X91009792Y-82215645D01*
X91009789Y-82215643D01*
X90931611Y-82160902D01*
X90826749Y-82087477D01*
X90821767Y-82085154D01*
X90821762Y-82085151D01*
X90624225Y-81993039D01*
X90624224Y-81993039D01*
X90619243Y-81990716D01*
X90613935Y-81989294D01*
X90613933Y-81989293D01*
X90403402Y-81932881D01*
X90403400Y-81932881D01*
X90398087Y-81931457D01*
X90170000Y-81911502D01*
X89941913Y-81931457D01*
X89936600Y-81932881D01*
X89936598Y-81932881D01*
X89728081Y-81988753D01*
X89657105Y-81987063D01*
X89606375Y-81956141D01*
X85410118Y-77759884D01*
X85376092Y-77697572D01*
X85373692Y-77681770D01*
X85369022Y-77628392D01*
X85368543Y-77622913D01*
X85309284Y-77401757D01*
X85215204Y-77200000D01*
X85214849Y-77199238D01*
X85214846Y-77199233D01*
X85212523Y-77194251D01*
X85081198Y-77006700D01*
X84919300Y-76844802D01*
X84914792Y-76841645D01*
X84914789Y-76841643D01*
X84763765Y-76735895D01*
X84731749Y-76713477D01*
X84726767Y-76711154D01*
X84726762Y-76711151D01*
X84529225Y-76619039D01*
X84529224Y-76619039D01*
X84524243Y-76616716D01*
X84518935Y-76615294D01*
X84518933Y-76615293D01*
X84308402Y-76558881D01*
X84308400Y-76558881D01*
X84303087Y-76557457D01*
X84075000Y-76537502D01*
X83846913Y-76557457D01*
X83841600Y-76558881D01*
X83841598Y-76558881D01*
X83631067Y-76615293D01*
X83631065Y-76615294D01*
X83625757Y-76616716D01*
X83620776Y-76619039D01*
X83620775Y-76619039D01*
X83423238Y-76711151D01*
X83423233Y-76711154D01*
X83418251Y-76713477D01*
X83286694Y-76805595D01*
X83266531Y-76819713D01*
X83194260Y-76842500D01*
X82102082Y-76842500D01*
X82033961Y-76822498D01*
X82012987Y-76805595D01*
X80025148Y-74817756D01*
X79991122Y-74755444D01*
X79988845Y-74740961D01*
X79988683Y-74739307D01*
X79988681Y-74739297D01*
X79988080Y-74733167D01*
X79930916Y-74543831D01*
X79838066Y-74369204D01*
X79737942Y-74246440D01*
X79716960Y-74220713D01*
X79716957Y-74220710D01*
X79713065Y-74215938D01*
X79706950Y-74210879D01*
X79565425Y-74093799D01*
X79565421Y-74093797D01*
X79560675Y-74089870D01*
X79386701Y-73995802D01*
X79262960Y-73957498D01*
X79203652Y-73939139D01*
X79203648Y-73939138D01*
X79197768Y-73937318D01*
X79191644Y-73936674D01*
X79191642Y-73936674D01*
X79185437Y-73936022D01*
X79182857Y-73935751D01*
X79117199Y-73908740D01*
X79106928Y-73899536D01*
X77045405Y-71838013D01*
X77011379Y-71775701D01*
X77008500Y-71748918D01*
X77008500Y-70639016D01*
X77028502Y-70570895D01*
X77045405Y-70549921D01*
X78539921Y-69055405D01*
X78602233Y-69021379D01*
X78629016Y-69018500D01*
X78711001Y-69018500D01*
X78779122Y-69038502D01*
X78825615Y-69092158D01*
X78837001Y-69144500D01*
X78837001Y-69204670D01*
X78837370Y-69211488D01*
X78840909Y-69244067D01*
X78840909Y-69271280D01*
X78836500Y-69311866D01*
X78836500Y-69858134D01*
X78836869Y-69861529D01*
X78836869Y-69861533D01*
X78840656Y-69896393D01*
X78840656Y-69923606D01*
X78836500Y-69961866D01*
X78836500Y-70508134D01*
X78836869Y-70511529D01*
X78836869Y-70511533D01*
X78840656Y-70546393D01*
X78840656Y-70573607D01*
X78838022Y-70597859D01*
X78836500Y-70611866D01*
X78836500Y-71158134D01*
X78836869Y-71161529D01*
X78836869Y-71161533D01*
X78840656Y-71196393D01*
X78840656Y-71223606D01*
X78836500Y-71261866D01*
X78836500Y-71808134D01*
X78843255Y-71870316D01*
X78894385Y-72006705D01*
X78981739Y-72123261D01*
X79098295Y-72210615D01*
X79234684Y-72261745D01*
X79296866Y-72268500D01*
X81781453Y-72268500D01*
X81806450Y-72271858D01*
X81806489Y-72271598D01*
X81974115Y-72297099D01*
X81974119Y-72297099D01*
X81981349Y-72298199D01*
X81988641Y-72297606D01*
X81988644Y-72297606D01*
X82079654Y-72290203D01*
X82157637Y-72283860D01*
X82164596Y-72281606D01*
X82164599Y-72281605D01*
X82318933Y-72231608D01*
X82318936Y-72231607D01*
X82325899Y-72229351D01*
X82332154Y-72225555D01*
X82332157Y-72225554D01*
X82472314Y-72140504D01*
X82472318Y-72140501D01*
X82477107Y-72137595D01*
X82481306Y-72133886D01*
X82481311Y-72133883D01*
X82484019Y-72131491D01*
X82484023Y-72131488D01*
X82485484Y-72130197D01*
X82919789Y-71695892D01*
X82982101Y-71661866D01*
X83052916Y-71666931D01*
X83097979Y-71695892D01*
X83688980Y-72286893D01*
X83701366Y-72301305D01*
X83709899Y-72312900D01*
X83709904Y-72312905D01*
X83714242Y-72318800D01*
X83719820Y-72323539D01*
X83719823Y-72323542D01*
X83754518Y-72353017D01*
X83762034Y-72359947D01*
X83767729Y-72365642D01*
X83770611Y-72367922D01*
X83790001Y-72383263D01*
X83793405Y-72386054D01*
X83835002Y-72421393D01*
X83849035Y-72433315D01*
X83855551Y-72436643D01*
X83860600Y-72440010D01*
X83865729Y-72443177D01*
X83871466Y-72447716D01*
X83937625Y-72478637D01*
X83941519Y-72480540D01*
X84006558Y-72513751D01*
X84013666Y-72515490D01*
X84019309Y-72517589D01*
X84025072Y-72519506D01*
X84031700Y-72522604D01*
X84038862Y-72524094D01*
X84038863Y-72524094D01*
X84103162Y-72537468D01*
X84107446Y-72538438D01*
X84178360Y-72555790D01*
X84183962Y-72556138D01*
X84183965Y-72556138D01*
X84189514Y-72556482D01*
X84189512Y-72556518D01*
X84193505Y-72556757D01*
X84197697Y-72557131D01*
X84204865Y-72558622D01*
X84282270Y-72556528D01*
X84285678Y-72556482D01*
X86361311Y-72556482D01*
X86431054Y-72548351D01*
X86485429Y-72542012D01*
X86485433Y-72542011D01*
X86492699Y-72541164D01*
X86499574Y-72538669D01*
X86499576Y-72538668D01*
X86652079Y-72483311D01*
X86652080Y-72483311D01*
X86658955Y-72480815D01*
X86665072Y-72476804D01*
X86665075Y-72476803D01*
X86800751Y-72387850D01*
X86800752Y-72387849D01*
X86806870Y-72383838D01*
X86878857Y-72307847D01*
X86940226Y-72272149D01*
X86970330Y-72268500D01*
X88343134Y-72268500D01*
X88405316Y-72261745D01*
X88541705Y-72210615D01*
X88658261Y-72123261D01*
X88745615Y-72006705D01*
X88796745Y-71870316D01*
X88803500Y-71808134D01*
X88803500Y-71261866D01*
X88799344Y-71223606D01*
X88799344Y-71196393D01*
X88803131Y-71161533D01*
X88803131Y-71161529D01*
X88803500Y-71158134D01*
X88803500Y-70611866D01*
X88801979Y-70597859D01*
X88799344Y-70573607D01*
X88799344Y-70546393D01*
X88803131Y-70511533D01*
X88803131Y-70511529D01*
X88803500Y-70508134D01*
X88803500Y-70460017D01*
X88823502Y-70391896D01*
X88877158Y-70345403D01*
X88947432Y-70335299D01*
X89012012Y-70364793D01*
X89018595Y-70370921D01*
X89127566Y-70479891D01*
X89161591Y-70542203D01*
X89163991Y-70558002D01*
X89173913Y-70671413D01*
X89175632Y-70677330D01*
X89175633Y-70677335D01*
X89186451Y-70714570D01*
X89229091Y-70861336D01*
X89320108Y-71036926D01*
X89323948Y-71041736D01*
X89414542Y-71155223D01*
X89414549Y-71155230D01*
X89416738Y-71157973D01*
X89419233Y-71160468D01*
X91572145Y-73313379D01*
X91581247Y-73323522D01*
X91604968Y-73353025D01*
X91609696Y-73356992D01*
X91643421Y-73385291D01*
X91647069Y-73388472D01*
X91648881Y-73390115D01*
X91651075Y-73392309D01*
X91684349Y-73419642D01*
X91685147Y-73420304D01*
X91756474Y-73480154D01*
X91761144Y-73482722D01*
X91765261Y-73486103D01*
X91810454Y-73510335D01*
X91847086Y-73529977D01*
X91848245Y-73530606D01*
X91924381Y-73572462D01*
X91924389Y-73572465D01*
X91929787Y-73575433D01*
X91934869Y-73577045D01*
X91939563Y-73579562D01*
X92028531Y-73606762D01*
X92029559Y-73607082D01*
X92118306Y-73635235D01*
X92123602Y-73635829D01*
X92128698Y-73637387D01*
X92221257Y-73646790D01*
X92222393Y-73646911D01*
X92256008Y-73650681D01*
X92268730Y-73652108D01*
X92268734Y-73652108D01*
X92272227Y-73652500D01*
X92275754Y-73652500D01*
X92276739Y-73652555D01*
X92282419Y-73653002D01*
X92311825Y-73655989D01*
X92319337Y-73656752D01*
X92319339Y-73656752D01*
X92325462Y-73657374D01*
X92371108Y-73653059D01*
X92382967Y-73652500D01*
X93099260Y-73652500D01*
X93171531Y-73675287D01*
X93323251Y-73781523D01*
X93328233Y-73783846D01*
X93328238Y-73783849D01*
X93520804Y-73873643D01*
X93530757Y-73878284D01*
X93536065Y-73879706D01*
X93536067Y-73879707D01*
X93746598Y-73936119D01*
X93746600Y-73936119D01*
X93751913Y-73937543D01*
X93980000Y-73957498D01*
X94208087Y-73937543D01*
X94213400Y-73936119D01*
X94213402Y-73936119D01*
X94423933Y-73879707D01*
X94423935Y-73879706D01*
X94429243Y-73878284D01*
X94439196Y-73873643D01*
X94631762Y-73783849D01*
X94631767Y-73783846D01*
X94636749Y-73781523D01*
X94765975Y-73691038D01*
X94819789Y-73653357D01*
X94819792Y-73653355D01*
X94824300Y-73650198D01*
X94986198Y-73488300D01*
X94992165Y-73479779D01*
X95056003Y-73388608D01*
X95117523Y-73300749D01*
X95119846Y-73295767D01*
X95119849Y-73295762D01*
X95211961Y-73098225D01*
X95211961Y-73098224D01*
X95214284Y-73093243D01*
X95229717Y-73035649D01*
X95272119Y-72877402D01*
X95272119Y-72877400D01*
X95273543Y-72872087D01*
X95293498Y-72644000D01*
X95273543Y-72415913D01*
X95272119Y-72410598D01*
X95215707Y-72200067D01*
X95215706Y-72200065D01*
X95214284Y-72194757D01*
X95184783Y-72131491D01*
X95119849Y-71992238D01*
X95119846Y-71992233D01*
X95117523Y-71987251D01*
X95013025Y-71838013D01*
X94989357Y-71804211D01*
X94989355Y-71804208D01*
X94986198Y-71799700D01*
X94824300Y-71637802D01*
X94819792Y-71634645D01*
X94819789Y-71634643D01*
X94741611Y-71579902D01*
X94636749Y-71506477D01*
X94631767Y-71504154D01*
X94631762Y-71504151D01*
X94434225Y-71412039D01*
X94434224Y-71412039D01*
X94429243Y-71409716D01*
X94423935Y-71408294D01*
X94423933Y-71408293D01*
X94213402Y-71351881D01*
X94213400Y-71351881D01*
X94208087Y-71350457D01*
X93980000Y-71330502D01*
X93751913Y-71350457D01*
X93746600Y-71351881D01*
X93746598Y-71351881D01*
X93536067Y-71408293D01*
X93536065Y-71408294D01*
X93530757Y-71409716D01*
X93525776Y-71412039D01*
X93525775Y-71412039D01*
X93328238Y-71504151D01*
X93328233Y-71504154D01*
X93323251Y-71506477D01*
X93191694Y-71598595D01*
X93171531Y-71612713D01*
X93099260Y-71635500D01*
X92798925Y-71635500D01*
X92730804Y-71615498D01*
X92709830Y-71598595D01*
X92142695Y-71031460D01*
X91269829Y-70158595D01*
X91235804Y-70096283D01*
X91240868Y-70025468D01*
X91283415Y-69968632D01*
X91349935Y-69943821D01*
X91358924Y-69943500D01*
X93690157Y-69943500D01*
X93703764Y-69944237D01*
X93735262Y-69947659D01*
X93735267Y-69947659D01*
X93741388Y-69948324D01*
X93767638Y-69946027D01*
X93791388Y-69943950D01*
X93796214Y-69943621D01*
X93798686Y-69943500D01*
X93801769Y-69943500D01*
X93813738Y-69942326D01*
X93844506Y-69939310D01*
X93845819Y-69939188D01*
X93890084Y-69935315D01*
X93938413Y-69931087D01*
X93943532Y-69929600D01*
X93948833Y-69929080D01*
X94037834Y-69902209D01*
X94038967Y-69901874D01*
X94122414Y-69877630D01*
X94122418Y-69877628D01*
X94128336Y-69875909D01*
X94133068Y-69873456D01*
X94138169Y-69871916D01*
X94164090Y-69858134D01*
X94220260Y-69828269D01*
X94221426Y-69827657D01*
X94298453Y-69787729D01*
X94303926Y-69784892D01*
X94308089Y-69781569D01*
X94312796Y-69779066D01*
X94384918Y-69720245D01*
X94385774Y-69719554D01*
X94424973Y-69688262D01*
X94427477Y-69685758D01*
X94428195Y-69685116D01*
X94432528Y-69681415D01*
X94466062Y-69654065D01*
X94495288Y-69618737D01*
X94503277Y-69609958D01*
X94832816Y-69280419D01*
X97006500Y-69280419D01*
X97006501Y-72607580D01*
X97012743Y-72686904D01*
X97062171Y-72871371D01*
X97148871Y-73041530D01*
X97153024Y-73046659D01*
X97153027Y-73046663D01*
X97227708Y-73138886D01*
X97269055Y-73189945D01*
X97274186Y-73194100D01*
X97412337Y-73305973D01*
X97412340Y-73305975D01*
X97417470Y-73310129D01*
X97423347Y-73313124D01*
X97423351Y-73313126D01*
X97564984Y-73385291D01*
X97587629Y-73396829D01*
X97594002Y-73398537D01*
X97594003Y-73398537D01*
X97766519Y-73444763D01*
X97766523Y-73444764D01*
X97772096Y-73446257D01*
X97777852Y-73446710D01*
X97848963Y-73452307D01*
X97848970Y-73452307D01*
X97851419Y-73452500D01*
X98314812Y-73452500D01*
X98778580Y-73452499D01*
X98827947Y-73448614D01*
X98852150Y-73446710D01*
X98852152Y-73446710D01*
X98857904Y-73446257D01*
X99042371Y-73396829D01*
X99212530Y-73310129D01*
X99218547Y-73305257D01*
X99235705Y-73291362D01*
X99301232Y-73264036D01*
X99371131Y-73276475D01*
X99394295Y-73291362D01*
X99411454Y-73305257D01*
X99417470Y-73310129D01*
X99587629Y-73396829D01*
X99594002Y-73398537D01*
X99594003Y-73398537D01*
X99766519Y-73444763D01*
X99766523Y-73444764D01*
X99772096Y-73446257D01*
X99777852Y-73446710D01*
X99848963Y-73452307D01*
X99848970Y-73452307D01*
X99851419Y-73452500D01*
X100314812Y-73452500D01*
X100778580Y-73452499D01*
X100827947Y-73448614D01*
X100852150Y-73446710D01*
X100852152Y-73446710D01*
X100857904Y-73446257D01*
X101042371Y-73396829D01*
X101212530Y-73310129D01*
X101218547Y-73305257D01*
X101235705Y-73291362D01*
X101301232Y-73264036D01*
X101371131Y-73276475D01*
X101394295Y-73291362D01*
X101411454Y-73305257D01*
X101417470Y-73310129D01*
X101587629Y-73396829D01*
X101594002Y-73398537D01*
X101594003Y-73398537D01*
X101766519Y-73444763D01*
X101766523Y-73444764D01*
X101772096Y-73446257D01*
X101777852Y-73446710D01*
X101848963Y-73452307D01*
X101848970Y-73452307D01*
X101851419Y-73452500D01*
X102314812Y-73452500D01*
X102778580Y-73452499D01*
X102827947Y-73448614D01*
X102852150Y-73446710D01*
X102852152Y-73446710D01*
X102857904Y-73446257D01*
X103042371Y-73396829D01*
X103212530Y-73310129D01*
X103218547Y-73305257D01*
X103235705Y-73291362D01*
X103301232Y-73264036D01*
X103371131Y-73276475D01*
X103394295Y-73291362D01*
X103411454Y-73305257D01*
X103417470Y-73310129D01*
X103587629Y-73396829D01*
X103594002Y-73398537D01*
X103594003Y-73398537D01*
X103766519Y-73444763D01*
X103766523Y-73444764D01*
X103772096Y-73446257D01*
X103777852Y-73446710D01*
X103848963Y-73452307D01*
X103848970Y-73452307D01*
X103851419Y-73452500D01*
X103865072Y-73452500D01*
X104613380Y-73452499D01*
X104681500Y-73472501D01*
X104727993Y-73526157D01*
X104738097Y-73596431D01*
X104708604Y-73661011D01*
X104661597Y-73694908D01*
X104527837Y-73750313D01*
X104527835Y-73750314D01*
X104523265Y-73752207D01*
X104320879Y-73876230D01*
X104317117Y-73879443D01*
X104180879Y-73995802D01*
X104140386Y-74030386D01*
X103986230Y-74210879D01*
X103862207Y-74413265D01*
X103860314Y-74417835D01*
X103860313Y-74417837D01*
X103773266Y-74627988D01*
X103771372Y-74632561D01*
X103751902Y-74713660D01*
X103717115Y-74858554D01*
X103717114Y-74858560D01*
X103715960Y-74863367D01*
X103699436Y-75073334D01*
X103699244Y-75075771D01*
X103698291Y-75083910D01*
X103698328Y-75084003D01*
X103696814Y-75093730D01*
X103697449Y-75098583D01*
X103697337Y-75100000D01*
X103697634Y-75100000D01*
X103698882Y-75109544D01*
X103700936Y-75125250D01*
X103702000Y-75141588D01*
X103702000Y-90050672D01*
X103700500Y-90070056D01*
X103696814Y-90093730D01*
X103697634Y-90100000D01*
X103697337Y-90100000D01*
X103697920Y-90107409D01*
X103697920Y-90107413D01*
X103704509Y-90191130D01*
X103715960Y-90336633D01*
X103717114Y-90341440D01*
X103717115Y-90341446D01*
X103742672Y-90447897D01*
X103771372Y-90567439D01*
X103773265Y-90572010D01*
X103773266Y-90572012D01*
X103805831Y-90650630D01*
X103862207Y-90786735D01*
X103986230Y-90989121D01*
X103989443Y-90992883D01*
X104102080Y-91124763D01*
X104140386Y-91169614D01*
X104144142Y-91172822D01*
X104317117Y-91320557D01*
X104320879Y-91323770D01*
X104523265Y-91447793D01*
X104527835Y-91449686D01*
X104527837Y-91449687D01*
X104737988Y-91536734D01*
X104742561Y-91538628D01*
X104823660Y-91558098D01*
X104968554Y-91592885D01*
X104968560Y-91592886D01*
X104973367Y-91594040D01*
X105210000Y-91612663D01*
X105446633Y-91594040D01*
X105451440Y-91592886D01*
X105451446Y-91592885D01*
X105596340Y-91558098D01*
X105677439Y-91538628D01*
X105682012Y-91536734D01*
X105892163Y-91449687D01*
X105892165Y-91449686D01*
X105896735Y-91447793D01*
X106099121Y-91323770D01*
X106102883Y-91320557D01*
X106275858Y-91172822D01*
X106279614Y-91169614D01*
X106317921Y-91124763D01*
X106430557Y-90992883D01*
X106433770Y-90989121D01*
X106557793Y-90786735D01*
X106614170Y-90650630D01*
X106646734Y-90572012D01*
X106646735Y-90572010D01*
X106648628Y-90567439D01*
X106677328Y-90447897D01*
X106702885Y-90341446D01*
X106702886Y-90341440D01*
X106704040Y-90336633D01*
X106720014Y-90133657D01*
X106721372Y-90122637D01*
X106722265Y-90117330D01*
X106722265Y-90117329D01*
X106723071Y-90112539D01*
X106723224Y-90100000D01*
X106719273Y-90072412D01*
X106718000Y-90054549D01*
X106718000Y-87592670D01*
X113432160Y-87592670D01*
X113437887Y-87600320D01*
X113609042Y-87705205D01*
X113617837Y-87709687D01*
X113827988Y-87796734D01*
X113837373Y-87799783D01*
X114058554Y-87852885D01*
X114068301Y-87854428D01*
X114295070Y-87872275D01*
X114304930Y-87872275D01*
X114531699Y-87854428D01*
X114541446Y-87852885D01*
X114762627Y-87799783D01*
X114772012Y-87796734D01*
X114982163Y-87709687D01*
X114990958Y-87705205D01*
X115158445Y-87602568D01*
X115167907Y-87592110D01*
X115164124Y-87583334D01*
X114312812Y-86732022D01*
X114298868Y-86724408D01*
X114297035Y-86724539D01*
X114290420Y-86728790D01*
X113438920Y-87580290D01*
X113432160Y-87592670D01*
X106718000Y-87592670D01*
X106718000Y-86364930D01*
X112787725Y-86364930D01*
X112805572Y-86591699D01*
X112807115Y-86601446D01*
X112860217Y-86822627D01*
X112863266Y-86832012D01*
X112950313Y-87042163D01*
X112954795Y-87050958D01*
X113057432Y-87218445D01*
X113067890Y-87227907D01*
X113076666Y-87224124D01*
X113927978Y-86372812D01*
X113934356Y-86361132D01*
X114664408Y-86361132D01*
X114664539Y-86362965D01*
X114668790Y-86369580D01*
X115520290Y-87221080D01*
X115532670Y-87227840D01*
X115540320Y-87222113D01*
X115645205Y-87050958D01*
X115649687Y-87042163D01*
X115736734Y-86832012D01*
X115739783Y-86822627D01*
X115792885Y-86601446D01*
X115794428Y-86591699D01*
X115812275Y-86364930D01*
X115812275Y-86355070D01*
X115794428Y-86128301D01*
X115792885Y-86118554D01*
X115739783Y-85897373D01*
X115736734Y-85887988D01*
X115649687Y-85677837D01*
X115645205Y-85669042D01*
X115542568Y-85501555D01*
X115532110Y-85492093D01*
X115523334Y-85495876D01*
X114672022Y-86347188D01*
X114664408Y-86361132D01*
X113934356Y-86361132D01*
X113935592Y-86358868D01*
X113935461Y-86357035D01*
X113931210Y-86350420D01*
X113079710Y-85498920D01*
X113067330Y-85492160D01*
X113059680Y-85497887D01*
X112954795Y-85669042D01*
X112950313Y-85677837D01*
X112863266Y-85887988D01*
X112860217Y-85897373D01*
X112807115Y-86118554D01*
X112805572Y-86128301D01*
X112787725Y-86355070D01*
X112787725Y-86364930D01*
X106718000Y-86364930D01*
X106718000Y-85127890D01*
X113432093Y-85127890D01*
X113435876Y-85136666D01*
X114287188Y-85987978D01*
X114301132Y-85995592D01*
X114302965Y-85995461D01*
X114309580Y-85991210D01*
X115161080Y-85139710D01*
X115167840Y-85127330D01*
X115162113Y-85119680D01*
X114990958Y-85014795D01*
X114982163Y-85010313D01*
X114772012Y-84923266D01*
X114762627Y-84920217D01*
X114541446Y-84867115D01*
X114531699Y-84865572D01*
X114304930Y-84847725D01*
X114295070Y-84847725D01*
X114068301Y-84865572D01*
X114058554Y-84867115D01*
X113837373Y-84920217D01*
X113827988Y-84923266D01*
X113617837Y-85010313D01*
X113609042Y-85014795D01*
X113441555Y-85117432D01*
X113432093Y-85127890D01*
X106718000Y-85127890D01*
X106718000Y-75153207D01*
X106719746Y-75132303D01*
X106720279Y-75129137D01*
X106723071Y-75112539D01*
X106723224Y-75100000D01*
X106722534Y-75095184D01*
X106722529Y-75095100D01*
X106721665Y-75087314D01*
X106712949Y-74976565D01*
X106704040Y-74863367D01*
X106702886Y-74858560D01*
X106702885Y-74858554D01*
X106668098Y-74713660D01*
X106648628Y-74632561D01*
X106646734Y-74627988D01*
X106559687Y-74417837D01*
X106559686Y-74417835D01*
X106557793Y-74413265D01*
X106433770Y-74210879D01*
X106279614Y-74030386D01*
X106239122Y-73995802D01*
X106102883Y-73879443D01*
X106099121Y-73876230D01*
X105896735Y-73752207D01*
X105892165Y-73750314D01*
X105892163Y-73750313D01*
X105749059Y-73691038D01*
X105693778Y-73646490D01*
X105671357Y-73579127D01*
X105688915Y-73510335D01*
X105740877Y-73461957D01*
X105807163Y-73449017D01*
X105848962Y-73452307D01*
X105848971Y-73452307D01*
X105851419Y-73452500D01*
X106314812Y-73452500D01*
X106778580Y-73452499D01*
X106827947Y-73448614D01*
X106852150Y-73446710D01*
X106852152Y-73446710D01*
X106857904Y-73446257D01*
X107042371Y-73396829D01*
X107212530Y-73310129D01*
X107218547Y-73305257D01*
X107235705Y-73291362D01*
X107301232Y-73264036D01*
X107371131Y-73276475D01*
X107394295Y-73291362D01*
X107411454Y-73305257D01*
X107417470Y-73310129D01*
X107587629Y-73396829D01*
X107594002Y-73398537D01*
X107594003Y-73398537D01*
X107766519Y-73444763D01*
X107766523Y-73444764D01*
X107772096Y-73446257D01*
X107777852Y-73446710D01*
X107848963Y-73452307D01*
X107848970Y-73452307D01*
X107851419Y-73452500D01*
X108314812Y-73452500D01*
X108778580Y-73452499D01*
X108827947Y-73448614D01*
X108852150Y-73446710D01*
X108852152Y-73446710D01*
X108857904Y-73446257D01*
X109042371Y-73396829D01*
X109212530Y-73310129D01*
X109218547Y-73305257D01*
X109235705Y-73291362D01*
X109301232Y-73264036D01*
X109371131Y-73276475D01*
X109394295Y-73291362D01*
X109411454Y-73305257D01*
X109417470Y-73310129D01*
X109587629Y-73396829D01*
X109594002Y-73398537D01*
X109594003Y-73398537D01*
X109766519Y-73444763D01*
X109766523Y-73444764D01*
X109772096Y-73446257D01*
X109777852Y-73446710D01*
X109848963Y-73452307D01*
X109848970Y-73452307D01*
X109851419Y-73452500D01*
X110314812Y-73452500D01*
X110778580Y-73452499D01*
X110827947Y-73448614D01*
X110852150Y-73446710D01*
X110852152Y-73446710D01*
X110857904Y-73446257D01*
X111042371Y-73396829D01*
X111212530Y-73310129D01*
X111218547Y-73305257D01*
X111235705Y-73291362D01*
X111301232Y-73264036D01*
X111371131Y-73276475D01*
X111394295Y-73291362D01*
X111411454Y-73305257D01*
X111417470Y-73310129D01*
X111587629Y-73396829D01*
X111594002Y-73398537D01*
X111594003Y-73398537D01*
X111766519Y-73444763D01*
X111766523Y-73444764D01*
X111772096Y-73446257D01*
X111777852Y-73446710D01*
X111848963Y-73452307D01*
X111848970Y-73452307D01*
X111851419Y-73452500D01*
X112314812Y-73452500D01*
X112778580Y-73452499D01*
X112827947Y-73448614D01*
X112852150Y-73446710D01*
X112852152Y-73446710D01*
X112857904Y-73446257D01*
X113042371Y-73396829D01*
X113212530Y-73310129D01*
X113218547Y-73305257D01*
X113235705Y-73291362D01*
X113301232Y-73264036D01*
X113371131Y-73276475D01*
X113394295Y-73291362D01*
X113411454Y-73305257D01*
X113417470Y-73310129D01*
X113587629Y-73396829D01*
X113594002Y-73398537D01*
X113594003Y-73398537D01*
X113766519Y-73444763D01*
X113766523Y-73444764D01*
X113772096Y-73446257D01*
X113777852Y-73446710D01*
X113848963Y-73452307D01*
X113848970Y-73452307D01*
X113851419Y-73452500D01*
X114314812Y-73452500D01*
X114778580Y-73452499D01*
X114827947Y-73448614D01*
X114852150Y-73446710D01*
X114852152Y-73446710D01*
X114857904Y-73446257D01*
X115042371Y-73396829D01*
X115212530Y-73310129D01*
X115218547Y-73305257D01*
X115235705Y-73291362D01*
X115301232Y-73264036D01*
X115371131Y-73276475D01*
X115394295Y-73291362D01*
X115411454Y-73305257D01*
X115417470Y-73310129D01*
X115587629Y-73396829D01*
X115594002Y-73398537D01*
X115594003Y-73398537D01*
X115766519Y-73444763D01*
X115766523Y-73444764D01*
X115772096Y-73446257D01*
X115777852Y-73446710D01*
X115848963Y-73452307D01*
X115848970Y-73452307D01*
X115851419Y-73452500D01*
X116314812Y-73452500D01*
X116778580Y-73452499D01*
X116827947Y-73448614D01*
X116852150Y-73446710D01*
X116852152Y-73446710D01*
X116857904Y-73446257D01*
X117042371Y-73396829D01*
X117065016Y-73385291D01*
X117206649Y-73313126D01*
X117206653Y-73313124D01*
X117212530Y-73310129D01*
X117217660Y-73305975D01*
X117217663Y-73305973D01*
X117355814Y-73194100D01*
X117360945Y-73189945D01*
X117402292Y-73138886D01*
X117476973Y-73046663D01*
X117476976Y-73046659D01*
X117481129Y-73041530D01*
X117567829Y-72871371D01*
X117569537Y-72864997D01*
X117615763Y-72692481D01*
X117615764Y-72692477D01*
X117617257Y-72686904D01*
X117621065Y-72638525D01*
X117623307Y-72610037D01*
X117623307Y-72610030D01*
X117623500Y-72607581D01*
X117623499Y-69280420D01*
X117617257Y-69201096D01*
X117567829Y-69016629D01*
X117503818Y-68891000D01*
X117484126Y-68852351D01*
X117484124Y-68852347D01*
X117481129Y-68846470D01*
X117476976Y-68841341D01*
X117476973Y-68841337D01*
X117365100Y-68703186D01*
X117360945Y-68698055D01*
X117315001Y-68660850D01*
X117217663Y-68582027D01*
X117217659Y-68582024D01*
X117212530Y-68577871D01*
X117206653Y-68574876D01*
X117206649Y-68574874D01*
X117048251Y-68494167D01*
X117042371Y-68491171D01*
X117035997Y-68489463D01*
X116863481Y-68443237D01*
X116863477Y-68443236D01*
X116857904Y-68441743D01*
X116848175Y-68440977D01*
X116781037Y-68435693D01*
X116781030Y-68435693D01*
X116778581Y-68435500D01*
X116315188Y-68435500D01*
X115851420Y-68435501D01*
X115802053Y-68439386D01*
X115777850Y-68441290D01*
X115777848Y-68441290D01*
X115772096Y-68441743D01*
X115587629Y-68491171D01*
X115417470Y-68577871D01*
X115412341Y-68582024D01*
X115412340Y-68582025D01*
X115394295Y-68596638D01*
X115328768Y-68623964D01*
X115258869Y-68611525D01*
X115235705Y-68596638D01*
X115217660Y-68582025D01*
X115217659Y-68582024D01*
X115212530Y-68577871D01*
X115042371Y-68491171D01*
X115035997Y-68489463D01*
X114863481Y-68443237D01*
X114863477Y-68443236D01*
X114857904Y-68441743D01*
X114848175Y-68440977D01*
X114781037Y-68435693D01*
X114781030Y-68435693D01*
X114778581Y-68435500D01*
X114315188Y-68435500D01*
X113851420Y-68435501D01*
X113802053Y-68439386D01*
X113777850Y-68441290D01*
X113777848Y-68441290D01*
X113772096Y-68441743D01*
X113587629Y-68491171D01*
X113417470Y-68577871D01*
X113412341Y-68582024D01*
X113412340Y-68582025D01*
X113394295Y-68596638D01*
X113328768Y-68623964D01*
X113258869Y-68611525D01*
X113235705Y-68596638D01*
X113217660Y-68582025D01*
X113217659Y-68582024D01*
X113212530Y-68577871D01*
X113042371Y-68491171D01*
X113035997Y-68489463D01*
X112863481Y-68443237D01*
X112863477Y-68443236D01*
X112857904Y-68441743D01*
X112848175Y-68440977D01*
X112781037Y-68435693D01*
X112781030Y-68435693D01*
X112778581Y-68435500D01*
X112315188Y-68435500D01*
X111851420Y-68435501D01*
X111802053Y-68439386D01*
X111777850Y-68441290D01*
X111777848Y-68441290D01*
X111772096Y-68441743D01*
X111587629Y-68491171D01*
X111417470Y-68577871D01*
X111412341Y-68582024D01*
X111412340Y-68582025D01*
X111394295Y-68596638D01*
X111328768Y-68623964D01*
X111258869Y-68611525D01*
X111235705Y-68596638D01*
X111217660Y-68582025D01*
X111217659Y-68582024D01*
X111212530Y-68577871D01*
X111042371Y-68491171D01*
X111035997Y-68489463D01*
X110863481Y-68443237D01*
X110863477Y-68443236D01*
X110857904Y-68441743D01*
X110848175Y-68440977D01*
X110781037Y-68435693D01*
X110781030Y-68435693D01*
X110778581Y-68435500D01*
X110315188Y-68435500D01*
X109851420Y-68435501D01*
X109802053Y-68439386D01*
X109777850Y-68441290D01*
X109777848Y-68441290D01*
X109772096Y-68441743D01*
X109587629Y-68491171D01*
X109417470Y-68577871D01*
X109412341Y-68582024D01*
X109412340Y-68582025D01*
X109394295Y-68596638D01*
X109328768Y-68623964D01*
X109258869Y-68611525D01*
X109235705Y-68596638D01*
X109217660Y-68582025D01*
X109217659Y-68582024D01*
X109212530Y-68577871D01*
X109042371Y-68491171D01*
X109035997Y-68489463D01*
X108863481Y-68443237D01*
X108863477Y-68443236D01*
X108857904Y-68441743D01*
X108848175Y-68440977D01*
X108781037Y-68435693D01*
X108781030Y-68435693D01*
X108778581Y-68435500D01*
X108315188Y-68435500D01*
X107851420Y-68435501D01*
X107802053Y-68439386D01*
X107777850Y-68441290D01*
X107777848Y-68441290D01*
X107772096Y-68441743D01*
X107587629Y-68491171D01*
X107417470Y-68577871D01*
X107412341Y-68582024D01*
X107412340Y-68582025D01*
X107394295Y-68596638D01*
X107328768Y-68623964D01*
X107258869Y-68611525D01*
X107235705Y-68596638D01*
X107217660Y-68582025D01*
X107217659Y-68582024D01*
X107212530Y-68577871D01*
X107042371Y-68491171D01*
X107035997Y-68489463D01*
X106863481Y-68443237D01*
X106863477Y-68443236D01*
X106857904Y-68441743D01*
X106848175Y-68440977D01*
X106781037Y-68435693D01*
X106781030Y-68435693D01*
X106778581Y-68435500D01*
X106315188Y-68435500D01*
X105851420Y-68435501D01*
X105802053Y-68439386D01*
X105777850Y-68441290D01*
X105777848Y-68441290D01*
X105772096Y-68441743D01*
X105587629Y-68491171D01*
X105417470Y-68577871D01*
X105412341Y-68582024D01*
X105412340Y-68582025D01*
X105394295Y-68596638D01*
X105328768Y-68623964D01*
X105258869Y-68611525D01*
X105235705Y-68596638D01*
X105217660Y-68582025D01*
X105217659Y-68582024D01*
X105212530Y-68577871D01*
X105042371Y-68491171D01*
X105035997Y-68489463D01*
X104863481Y-68443237D01*
X104863477Y-68443236D01*
X104857904Y-68441743D01*
X104848175Y-68440977D01*
X104781037Y-68435693D01*
X104781030Y-68435693D01*
X104778581Y-68435500D01*
X104315188Y-68435500D01*
X103851420Y-68435501D01*
X103802053Y-68439386D01*
X103777850Y-68441290D01*
X103777848Y-68441290D01*
X103772096Y-68441743D01*
X103587629Y-68491171D01*
X103417470Y-68577871D01*
X103412341Y-68582024D01*
X103412340Y-68582025D01*
X103394295Y-68596638D01*
X103328768Y-68623964D01*
X103258869Y-68611525D01*
X103235705Y-68596638D01*
X103217660Y-68582025D01*
X103217659Y-68582024D01*
X103212530Y-68577871D01*
X103042371Y-68491171D01*
X103035997Y-68489463D01*
X102863481Y-68443237D01*
X102863477Y-68443236D01*
X102857904Y-68441743D01*
X102848175Y-68440977D01*
X102781037Y-68435693D01*
X102781030Y-68435693D01*
X102778581Y-68435500D01*
X102315188Y-68435500D01*
X101851420Y-68435501D01*
X101802053Y-68439386D01*
X101777850Y-68441290D01*
X101777848Y-68441290D01*
X101772096Y-68441743D01*
X101587629Y-68491171D01*
X101417470Y-68577871D01*
X101412341Y-68582024D01*
X101412340Y-68582025D01*
X101394295Y-68596638D01*
X101328768Y-68623964D01*
X101258869Y-68611525D01*
X101235705Y-68596638D01*
X101217660Y-68582025D01*
X101217659Y-68582024D01*
X101212530Y-68577871D01*
X101042371Y-68491171D01*
X101035997Y-68489463D01*
X100863481Y-68443237D01*
X100863477Y-68443236D01*
X100857904Y-68441743D01*
X100848175Y-68440977D01*
X100781037Y-68435693D01*
X100781030Y-68435693D01*
X100778581Y-68435500D01*
X100315188Y-68435500D01*
X99851420Y-68435501D01*
X99802053Y-68439386D01*
X99777850Y-68441290D01*
X99777848Y-68441290D01*
X99772096Y-68441743D01*
X99587629Y-68491171D01*
X99417470Y-68577871D01*
X99412341Y-68582024D01*
X99412340Y-68582025D01*
X99394295Y-68596638D01*
X99328768Y-68623964D01*
X99258869Y-68611525D01*
X99235705Y-68596638D01*
X99217660Y-68582025D01*
X99217659Y-68582024D01*
X99212530Y-68577871D01*
X99042371Y-68491171D01*
X99035997Y-68489463D01*
X98863481Y-68443237D01*
X98863477Y-68443236D01*
X98857904Y-68441743D01*
X98848175Y-68440977D01*
X98781037Y-68435693D01*
X98781030Y-68435693D01*
X98778581Y-68435500D01*
X98315188Y-68435500D01*
X97851420Y-68435501D01*
X97802053Y-68439386D01*
X97777850Y-68441290D01*
X97777848Y-68441290D01*
X97772096Y-68441743D01*
X97587629Y-68491171D01*
X97581749Y-68494167D01*
X97423351Y-68574874D01*
X97423347Y-68574876D01*
X97417470Y-68577871D01*
X97412341Y-68582024D01*
X97412337Y-68582027D01*
X97314999Y-68660850D01*
X97269055Y-68698055D01*
X97264900Y-68703186D01*
X97153027Y-68841337D01*
X97153024Y-68841341D01*
X97148871Y-68846470D01*
X97145876Y-68852347D01*
X97145874Y-68852351D01*
X97126182Y-68891000D01*
X97062171Y-69016629D01*
X97060463Y-69023002D01*
X97060463Y-69023003D01*
X97027054Y-69147688D01*
X97012743Y-69201096D01*
X97012290Y-69206850D01*
X97012290Y-69206852D01*
X97006694Y-69277960D01*
X97006500Y-69280419D01*
X94832816Y-69280419D01*
X103539379Y-60573855D01*
X103549522Y-60564753D01*
X103574218Y-60544897D01*
X103579025Y-60541032D01*
X103611320Y-60502544D01*
X103614478Y-60498925D01*
X103616124Y-60497110D01*
X103618309Y-60494925D01*
X103620264Y-60492545D01*
X103620273Y-60492535D01*
X103645549Y-60461764D01*
X103646391Y-60460749D01*
X103702194Y-60394245D01*
X103706154Y-60389526D01*
X103708723Y-60384852D01*
X103712102Y-60380739D01*
X103755975Y-60298915D01*
X103756584Y-60297793D01*
X103798464Y-60221614D01*
X103798465Y-60221612D01*
X103801433Y-60216213D01*
X103803045Y-60211131D01*
X103805562Y-60206437D01*
X103832762Y-60117469D01*
X103833108Y-60116358D01*
X103840474Y-60093141D01*
X103861235Y-60027694D01*
X103861829Y-60022398D01*
X103863387Y-60017302D01*
X103872790Y-59924743D01*
X103872911Y-59923607D01*
X103878500Y-59873773D01*
X103878500Y-59870246D01*
X103878555Y-59869261D01*
X103879002Y-59863581D01*
X103883374Y-59820538D01*
X103879059Y-59774891D01*
X103878500Y-59763033D01*
X103878500Y-57822556D01*
X103898502Y-57754435D01*
X103922668Y-57726746D01*
X103936212Y-57715178D01*
X103936213Y-57715177D01*
X103939969Y-57711969D01*
X104094176Y-57531416D01*
X104096755Y-57527208D01*
X104096759Y-57527202D01*
X104215654Y-57333183D01*
X104218240Y-57328963D01*
X104220914Y-57322509D01*
X104307211Y-57114167D01*
X104307212Y-57114165D01*
X104309105Y-57109594D01*
X104344158Y-56963587D01*
X104363380Y-56883524D01*
X104363381Y-56883518D01*
X104364535Y-56878711D01*
X104383165Y-56642000D01*
X104364535Y-56405289D01*
X104362957Y-56398713D01*
X104310260Y-56179218D01*
X104309105Y-56174406D01*
X104303183Y-56160109D01*
X104220135Y-55959611D01*
X104220133Y-55959607D01*
X104218240Y-55955037D01*
X104215654Y-55950817D01*
X104096759Y-55756798D01*
X104096755Y-55756792D01*
X104094176Y-55752584D01*
X103939969Y-55572031D01*
X103759416Y-55417824D01*
X103755208Y-55415245D01*
X103755202Y-55415241D01*
X103561183Y-55296346D01*
X103556963Y-55293760D01*
X103552393Y-55291867D01*
X103552389Y-55291865D01*
X103342167Y-55204789D01*
X103342165Y-55204788D01*
X103337594Y-55202895D01*
X103257391Y-55183640D01*
X103111524Y-55148620D01*
X103111518Y-55148619D01*
X103106711Y-55147465D01*
X102870000Y-55128835D01*
X102633289Y-55147465D01*
X102628482Y-55148619D01*
X102628476Y-55148620D01*
X102482609Y-55183640D01*
X102402406Y-55202895D01*
X102397835Y-55204788D01*
X102397833Y-55204789D01*
X102187611Y-55291865D01*
X102187607Y-55291867D01*
X102183037Y-55293760D01*
X102178817Y-55296346D01*
X101984798Y-55415241D01*
X101984792Y-55415245D01*
X101980584Y-55417824D01*
X101800031Y-55572031D01*
X101645824Y-55752584D01*
X101643245Y-55756792D01*
X101643241Y-55756798D01*
X101524346Y-55950817D01*
X101521760Y-55955037D01*
X101519867Y-55959607D01*
X101519865Y-55959611D01*
X101436817Y-56160109D01*
X101430895Y-56174406D01*
X101429740Y-56179218D01*
X101377044Y-56398713D01*
X101375465Y-56405289D01*
X101356835Y-56642000D01*
X101375465Y-56878711D01*
X101376619Y-56883518D01*
X101376620Y-56883524D01*
X101395842Y-56963587D01*
X101430895Y-57109594D01*
X101432788Y-57114165D01*
X101432789Y-57114167D01*
X101519087Y-57322509D01*
X101521760Y-57328963D01*
X101524346Y-57333183D01*
X101643241Y-57527202D01*
X101643245Y-57527208D01*
X101645824Y-57531416D01*
X101800031Y-57711969D01*
X101803787Y-57715177D01*
X101803788Y-57715178D01*
X101817332Y-57726746D01*
X101856140Y-57786197D01*
X101861500Y-57822556D01*
X101861500Y-59347075D01*
X101841498Y-59415196D01*
X101824595Y-59436170D01*
X93371171Y-67889595D01*
X93308859Y-67923621D01*
X93282076Y-67926500D01*
X90331116Y-67926500D01*
X90262995Y-67906498D01*
X90216502Y-67852842D01*
X90206398Y-67782568D01*
X90235892Y-67717988D01*
X90295618Y-67679604D01*
X90321449Y-67674871D01*
X90339830Y-67673457D01*
X90339834Y-67673456D01*
X90345972Y-67672984D01*
X90536463Y-67619798D01*
X90541967Y-67617018D01*
X90541969Y-67617017D01*
X90707495Y-67533404D01*
X90707497Y-67533403D01*
X90712996Y-67530625D01*
X90868847Y-67408861D01*
X90983782Y-67275707D01*
X90994049Y-67263813D01*
X90994050Y-67263811D01*
X90998078Y-67259145D01*
X91095769Y-67087179D01*
X91158197Y-66899513D01*
X91182985Y-66703295D01*
X91183380Y-66675000D01*
X91164080Y-66478167D01*
X91106916Y-66288831D01*
X91014066Y-66114204D01*
X90929079Y-66010000D01*
X90892960Y-65965713D01*
X90892957Y-65965710D01*
X90889065Y-65960938D01*
X90881544Y-65954716D01*
X90741425Y-65838799D01*
X90741421Y-65838797D01*
X90736675Y-65834870D01*
X90562701Y-65740802D01*
X90373768Y-65682318D01*
X90367643Y-65681674D01*
X90367642Y-65681674D01*
X90183204Y-65662289D01*
X90183202Y-65662289D01*
X90177075Y-65661645D01*
X90094576Y-65669153D01*
X89986251Y-65679011D01*
X89986248Y-65679012D01*
X89980112Y-65679570D01*
X89974206Y-65681308D01*
X89974202Y-65681309D01*
X89874802Y-65710564D01*
X89803805Y-65710608D01*
X89750132Y-65678785D01*
X89283770Y-65212423D01*
X89271383Y-65198010D01*
X89263463Y-65187248D01*
X89259122Y-65181349D01*
X89220302Y-65148369D01*
X89212786Y-65141439D01*
X89207402Y-65136055D01*
X89204541Y-65133792D01*
X89204536Y-65133787D01*
X89185931Y-65119068D01*
X89182529Y-65116279D01*
X89134350Y-65075347D01*
X89134346Y-65075344D01*
X89128771Y-65070608D01*
X89122250Y-65067279D01*
X89117571Y-65064158D01*
X89112817Y-65061222D01*
X89107079Y-65056682D01*
X89043169Y-65026811D01*
X89039261Y-65024901D01*
X88976440Y-64992824D01*
X88969328Y-64991084D01*
X88964042Y-64989118D01*
X88958756Y-64987360D01*
X88952127Y-64984261D01*
X88944962Y-64982771D01*
X88944960Y-64982770D01*
X88923292Y-64978263D01*
X88903841Y-64974218D01*
X88841222Y-64940763D01*
X88806629Y-64878765D01*
X88803500Y-64850858D01*
X88803500Y-64761866D01*
X88799091Y-64721280D01*
X88799091Y-64694067D01*
X88802631Y-64661483D01*
X88803000Y-64654672D01*
X88803000Y-64497147D01*
X88823002Y-64429026D01*
X88859914Y-64391776D01*
X88912752Y-64357133D01*
X88916474Y-64354785D01*
X88971946Y-64321124D01*
X88971947Y-64321123D01*
X88976743Y-64318213D01*
X88984853Y-64311051D01*
X88984868Y-64311068D01*
X88988178Y-64308134D01*
X88990685Y-64306038D01*
X88996804Y-64302026D01*
X89048264Y-64247704D01*
X89050642Y-64245262D01*
X90007581Y-63288323D01*
X90021994Y-63275936D01*
X90032752Y-63268019D01*
X90038651Y-63263678D01*
X90071625Y-63224865D01*
X90078555Y-63217349D01*
X90083946Y-63211958D01*
X90100959Y-63190454D01*
X90103736Y-63187068D01*
X90144649Y-63138911D01*
X90144653Y-63138906D01*
X90149392Y-63133327D01*
X90152722Y-63126805D01*
X90155834Y-63122139D01*
X90158775Y-63117377D01*
X90163318Y-63111635D01*
X90193194Y-63047710D01*
X90195102Y-63043809D01*
X90227177Y-62980995D01*
X90228094Y-62981463D01*
X90244138Y-62953897D01*
X90371154Y-62802526D01*
X90374121Y-62797128D01*
X90374125Y-62797123D01*
X90463467Y-62634608D01*
X90466433Y-62629213D01*
X90468816Y-62621703D01*
X90524373Y-62446564D01*
X90524373Y-62446563D01*
X90526235Y-62440694D01*
X90543500Y-62286773D01*
X90543500Y-59711850D01*
X90544237Y-59698242D01*
X90547659Y-59666739D01*
X90548325Y-59660612D01*
X90543947Y-59610570D01*
X90543621Y-59605788D01*
X90543500Y-59603310D01*
X90543500Y-59600231D01*
X90543201Y-59597177D01*
X90543200Y-59597166D01*
X90539313Y-59557529D01*
X90539191Y-59556215D01*
X90534803Y-59506062D01*
X92583493Y-59506062D01*
X92592789Y-59518077D01*
X92643994Y-59553931D01*
X92653489Y-59559414D01*
X92850947Y-59651490D01*
X92861239Y-59655236D01*
X93071688Y-59711625D01*
X93082481Y-59713528D01*
X93299525Y-59732517D01*
X93310475Y-59732517D01*
X93527519Y-59713528D01*
X93538312Y-59711625D01*
X93748761Y-59655236D01*
X93759053Y-59651490D01*
X93956511Y-59559414D01*
X93966006Y-59553931D01*
X94018048Y-59517491D01*
X94026424Y-59507012D01*
X94019356Y-59493566D01*
X93317812Y-58792022D01*
X93303868Y-58784408D01*
X93302035Y-58784539D01*
X93295420Y-58788790D01*
X92589923Y-59494287D01*
X92583493Y-59506062D01*
X90534803Y-59506062D01*
X90532928Y-59484633D01*
X90531087Y-59463587D01*
X90529600Y-59458468D01*
X90529080Y-59453167D01*
X90502209Y-59364166D01*
X90501874Y-59363033D01*
X90477630Y-59279586D01*
X90477628Y-59279582D01*
X90475909Y-59273664D01*
X90473456Y-59268932D01*
X90471916Y-59263831D01*
X90445264Y-59213704D01*
X90428269Y-59181740D01*
X90427657Y-59180574D01*
X90387729Y-59103547D01*
X90384892Y-59098074D01*
X90381569Y-59093911D01*
X90379066Y-59089204D01*
X90320261Y-59017102D01*
X90319433Y-59016075D01*
X90290469Y-58979792D01*
X90290464Y-58979787D01*
X90288262Y-58977028D01*
X90285761Y-58974527D01*
X90285119Y-58973809D01*
X90281406Y-58969461D01*
X90273642Y-58959941D01*
X90254065Y-58935938D01*
X90249323Y-58932015D01*
X90249321Y-58932013D01*
X90218727Y-58906703D01*
X90209947Y-58898713D01*
X89736709Y-58425475D01*
X91992483Y-58425475D01*
X92011472Y-58642519D01*
X92013375Y-58653312D01*
X92069764Y-58863761D01*
X92073510Y-58874053D01*
X92165586Y-59071511D01*
X92171069Y-59081006D01*
X92207509Y-59133048D01*
X92217988Y-59141424D01*
X92231434Y-59134356D01*
X92932978Y-58432812D01*
X92940592Y-58418868D01*
X92940461Y-58417035D01*
X92936210Y-58410420D01*
X92230713Y-57704923D01*
X92218938Y-57698493D01*
X92206923Y-57707789D01*
X92171069Y-57758994D01*
X92165586Y-57768489D01*
X92073510Y-57965947D01*
X92069764Y-57976239D01*
X92013375Y-58186688D01*
X92011472Y-58197481D01*
X91992483Y-58414525D01*
X91992483Y-58425475D01*
X89736709Y-58425475D01*
X89640118Y-58328884D01*
X89606092Y-58266572D01*
X89603692Y-58250770D01*
X89599022Y-58197392D01*
X89598543Y-58191913D01*
X89539284Y-57970757D01*
X89536961Y-57965775D01*
X89444849Y-57768238D01*
X89444846Y-57768233D01*
X89442523Y-57763251D01*
X89336287Y-57611531D01*
X89313500Y-57539260D01*
X89313500Y-57332988D01*
X92583576Y-57332988D01*
X92590644Y-57346434D01*
X93292188Y-58047978D01*
X93306132Y-58055592D01*
X93307965Y-58055461D01*
X93314580Y-58051210D01*
X94020077Y-57345713D01*
X94026507Y-57333938D01*
X94017211Y-57321923D01*
X93966006Y-57286069D01*
X93956511Y-57280586D01*
X93759053Y-57188510D01*
X93748761Y-57184764D01*
X93538312Y-57128375D01*
X93527519Y-57126472D01*
X93310475Y-57107483D01*
X93299525Y-57107483D01*
X93082481Y-57126472D01*
X93071688Y-57128375D01*
X92861239Y-57184764D01*
X92850947Y-57188510D01*
X92653489Y-57280586D01*
X92643994Y-57286069D01*
X92591952Y-57322509D01*
X92583576Y-57332988D01*
X89313500Y-57332988D01*
X89313500Y-56506500D01*
X89333502Y-56438379D01*
X89387158Y-56391886D01*
X89439500Y-56380500D01*
X90610226Y-56380500D01*
X90625145Y-56381386D01*
X90656777Y-56385158D01*
X90662912Y-56384686D01*
X90662914Y-56384686D01*
X90712489Y-56380871D01*
X90722156Y-56380500D01*
X93510075Y-56380500D01*
X93578196Y-56400502D01*
X93599170Y-56417405D01*
X94712595Y-57530829D01*
X94746620Y-57593141D01*
X94749500Y-57619924D01*
X94749500Y-57854399D01*
X94729498Y-57922520D01*
X94675842Y-57969013D01*
X94605568Y-57979117D01*
X94540988Y-57949623D01*
X94509305Y-57907649D01*
X94444414Y-57768489D01*
X94438931Y-57758994D01*
X94402491Y-57706952D01*
X94392012Y-57698576D01*
X94378566Y-57705644D01*
X93677022Y-58407188D01*
X93669408Y-58421132D01*
X93669539Y-58422965D01*
X93673790Y-58429580D01*
X94379287Y-59135077D01*
X94391062Y-59141507D01*
X94403077Y-59132211D01*
X94438931Y-59081006D01*
X94444414Y-59071511D01*
X94509305Y-58932351D01*
X94556222Y-58879066D01*
X94624500Y-58859605D01*
X94692460Y-58880147D01*
X94738525Y-58934170D01*
X94749500Y-58985601D01*
X94749500Y-60236076D01*
X94729498Y-60304197D01*
X94712595Y-60325171D01*
X93888884Y-61148882D01*
X93826572Y-61182908D01*
X93810773Y-61185308D01*
X93751913Y-61190457D01*
X93636060Y-61221500D01*
X93536067Y-61248293D01*
X93536065Y-61248294D01*
X93530757Y-61249716D01*
X93525776Y-61252039D01*
X93525775Y-61252039D01*
X93328238Y-61344151D01*
X93328233Y-61344154D01*
X93323251Y-61346477D01*
X93258839Y-61391579D01*
X93140211Y-61474643D01*
X93140208Y-61474645D01*
X93135700Y-61477802D01*
X92973802Y-61639700D01*
X92970645Y-61644208D01*
X92970643Y-61644211D01*
X92945186Y-61680568D01*
X92842477Y-61827251D01*
X92840154Y-61832233D01*
X92840151Y-61832238D01*
X92834238Y-61844919D01*
X92745716Y-62034757D01*
X92686457Y-62255913D01*
X92666502Y-62484000D01*
X92686457Y-62712087D01*
X92687881Y-62717400D01*
X92687881Y-62717402D01*
X92730318Y-62875776D01*
X92745716Y-62933243D01*
X92748039Y-62938224D01*
X92748039Y-62938225D01*
X92840151Y-63135762D01*
X92840154Y-63135767D01*
X92842477Y-63140749D01*
X92877294Y-63190472D01*
X92941090Y-63281582D01*
X92973802Y-63328300D01*
X93135700Y-63490198D01*
X93140208Y-63493355D01*
X93140211Y-63493357D01*
X93218389Y-63548098D01*
X93323251Y-63621523D01*
X93328233Y-63623846D01*
X93328238Y-63623849D01*
X93525775Y-63715961D01*
X93530757Y-63718284D01*
X93536065Y-63719706D01*
X93536067Y-63719707D01*
X93746598Y-63776119D01*
X93746600Y-63776119D01*
X93751913Y-63777543D01*
X93980000Y-63797498D01*
X94208087Y-63777543D01*
X94213400Y-63776119D01*
X94213402Y-63776119D01*
X94423933Y-63719707D01*
X94423935Y-63719706D01*
X94429243Y-63718284D01*
X94434225Y-63715961D01*
X94631762Y-63623849D01*
X94631767Y-63623846D01*
X94636749Y-63621523D01*
X94741611Y-63548098D01*
X94819789Y-63493357D01*
X94819792Y-63493355D01*
X94824300Y-63490198D01*
X94986198Y-63328300D01*
X95018911Y-63281582D01*
X95082706Y-63190472D01*
X95117523Y-63140749D01*
X95119846Y-63135767D01*
X95119849Y-63135762D01*
X95211961Y-62938225D01*
X95211961Y-62938224D01*
X95214284Y-62933243D01*
X95273543Y-62712087D01*
X95278692Y-62653229D01*
X95304555Y-62587112D01*
X95315118Y-62575116D01*
X96427379Y-61462855D01*
X96437522Y-61453753D01*
X96462218Y-61433897D01*
X96467025Y-61430032D01*
X96499292Y-61391578D01*
X96502472Y-61387931D01*
X96504115Y-61386119D01*
X96506309Y-61383925D01*
X96533642Y-61350651D01*
X96534348Y-61349800D01*
X96534488Y-61349634D01*
X96594154Y-61278526D01*
X96596722Y-61273856D01*
X96600103Y-61269739D01*
X96644015Y-61187842D01*
X96644624Y-61186720D01*
X96686466Y-61110611D01*
X96686468Y-61110606D01*
X96689433Y-61105213D01*
X96691044Y-61100135D01*
X96693563Y-61095437D01*
X96720753Y-61006502D01*
X96721136Y-61005272D01*
X96741015Y-60942608D01*
X96749235Y-60916694D01*
X96749828Y-60911403D01*
X96751388Y-60906302D01*
X96760795Y-60813689D01*
X96760915Y-60812569D01*
X96766500Y-60762773D01*
X96766500Y-60759244D01*
X96766555Y-60758261D01*
X96767004Y-60752556D01*
X96770752Y-60715664D01*
X96770752Y-60715661D01*
X96771374Y-60709537D01*
X96767059Y-60663888D01*
X96766500Y-60652031D01*
X96766500Y-57211850D01*
X96767237Y-57198242D01*
X96770659Y-57166739D01*
X96771325Y-57160612D01*
X96766947Y-57110570D01*
X96766621Y-57105788D01*
X96766500Y-57103310D01*
X96766500Y-57100231D01*
X96766201Y-57097177D01*
X96766200Y-57097166D01*
X96762313Y-57057529D01*
X96762191Y-57056215D01*
X96754623Y-56969718D01*
X96754087Y-56963587D01*
X96752600Y-56958468D01*
X96752080Y-56953167D01*
X96725209Y-56864166D01*
X96724874Y-56863033D01*
X96700630Y-56779586D01*
X96700628Y-56779582D01*
X96698909Y-56773664D01*
X96696456Y-56768932D01*
X96694916Y-56763831D01*
X96672747Y-56722136D01*
X96651269Y-56681740D01*
X96650657Y-56680574D01*
X96610729Y-56603547D01*
X96607892Y-56598074D01*
X96604569Y-56593911D01*
X96602066Y-56589204D01*
X96578192Y-56559931D01*
X96543261Y-56517102D01*
X96542433Y-56516075D01*
X96513469Y-56479792D01*
X96513464Y-56479787D01*
X96511262Y-56477028D01*
X96508761Y-56474527D01*
X96508119Y-56473809D01*
X96504406Y-56469461D01*
X96484600Y-56445177D01*
X96477065Y-56435938D01*
X96472323Y-56432015D01*
X96472321Y-56432013D01*
X96441727Y-56406703D01*
X96432947Y-56398713D01*
X94736855Y-54702621D01*
X94727753Y-54692478D01*
X94707897Y-54667782D01*
X94704032Y-54662975D01*
X94665578Y-54630708D01*
X94661931Y-54627528D01*
X94660119Y-54625885D01*
X94657925Y-54623691D01*
X94624651Y-54596358D01*
X94623853Y-54595696D01*
X94552526Y-54535846D01*
X94547856Y-54533278D01*
X94543739Y-54529897D01*
X94485855Y-54498860D01*
X94461914Y-54486023D01*
X94460755Y-54485394D01*
X94384619Y-54443538D01*
X94384611Y-54443535D01*
X94379213Y-54440567D01*
X94374131Y-54438955D01*
X94369437Y-54436438D01*
X94280469Y-54409238D01*
X94279441Y-54408918D01*
X94190694Y-54380765D01*
X94185398Y-54380171D01*
X94180302Y-54378613D01*
X94087743Y-54369210D01*
X94086607Y-54369089D01*
X94052992Y-54365319D01*
X94040270Y-54363892D01*
X94040266Y-54363892D01*
X94036773Y-54363500D01*
X94033246Y-54363500D01*
X94032261Y-54363445D01*
X94026581Y-54362998D01*
X93997175Y-54360011D01*
X93989663Y-54359248D01*
X93989661Y-54359248D01*
X93983538Y-54358626D01*
X93941259Y-54362623D01*
X93937891Y-54362941D01*
X93926033Y-54363500D01*
X90737873Y-54363500D01*
X90724703Y-54362810D01*
X90691204Y-54359289D01*
X90691202Y-54359289D01*
X90685075Y-54358645D01*
X90637430Y-54362981D01*
X90626010Y-54363500D01*
X89064556Y-54363500D01*
X88996435Y-54343498D01*
X88968746Y-54319332D01*
X88957178Y-54305788D01*
X88957177Y-54305787D01*
X88953969Y-54302031D01*
X88773416Y-54147824D01*
X88769208Y-54145245D01*
X88769202Y-54145241D01*
X88575183Y-54026346D01*
X88570963Y-54023760D01*
X88566393Y-54021867D01*
X88566389Y-54021865D01*
X88356167Y-53934789D01*
X88356165Y-53934788D01*
X88351594Y-53932895D01*
X88223936Y-53902247D01*
X88125524Y-53878620D01*
X88125518Y-53878619D01*
X88120711Y-53877465D01*
X87884000Y-53858835D01*
X87879070Y-53859223D01*
X87799603Y-53865477D01*
X87730123Y-53850881D01*
X87679563Y-53801038D01*
X87663977Y-53731774D01*
X87688312Y-53665078D01*
X87700622Y-53650770D01*
X90027514Y-51323878D01*
X90092054Y-51290278D01*
X90091972Y-51289984D01*
X90093365Y-51289595D01*
X90097907Y-51288327D01*
X90097912Y-51288326D01*
X90186057Y-51263715D01*
X90282463Y-51236798D01*
X90287967Y-51234018D01*
X90287969Y-51234017D01*
X90453495Y-51150404D01*
X90453497Y-51150403D01*
X90458996Y-51147625D01*
X90614847Y-51025861D01*
X90744078Y-50876145D01*
X90841769Y-50704179D01*
X90874733Y-50605085D01*
X97007000Y-50605085D01*
X97007193Y-50610010D01*
X97012786Y-50681069D01*
X97014733Y-50692403D01*
X97060931Y-50864817D01*
X97065635Y-50877070D01*
X97146295Y-51035375D01*
X97153448Y-51046390D01*
X97265255Y-51184459D01*
X97274541Y-51193745D01*
X97412610Y-51305552D01*
X97423625Y-51312705D01*
X97581930Y-51393365D01*
X97594183Y-51398069D01*
X97766597Y-51444267D01*
X97777931Y-51446214D01*
X97848990Y-51451807D01*
X97853915Y-51452000D01*
X98042885Y-51452000D01*
X98058124Y-51447525D01*
X98059329Y-51446135D01*
X98061000Y-51438452D01*
X98061000Y-49216115D01*
X98056525Y-49200876D01*
X98055135Y-49199671D01*
X98047452Y-49198000D01*
X97025115Y-49198000D01*
X97009876Y-49202475D01*
X97008671Y-49203865D01*
X97007000Y-49211548D01*
X97007000Y-50605085D01*
X90874733Y-50605085D01*
X90904197Y-50516513D01*
X90908814Y-50479968D01*
X90937194Y-50414895D01*
X90944724Y-50406668D01*
X92679507Y-48671885D01*
X97007000Y-48671885D01*
X97011475Y-48687124D01*
X97012865Y-48688329D01*
X97020548Y-48690000D01*
X98042885Y-48690000D01*
X98058124Y-48685525D01*
X98059329Y-48684135D01*
X98061000Y-48676452D01*
X98061000Y-46454115D01*
X98056525Y-46438876D01*
X98055135Y-46437671D01*
X98047452Y-46436000D01*
X97853916Y-46436000D01*
X97848990Y-46436193D01*
X97777931Y-46441786D01*
X97766597Y-46443733D01*
X97594183Y-46489931D01*
X97581930Y-46494635D01*
X97423625Y-46575295D01*
X97412610Y-46582448D01*
X97274541Y-46694255D01*
X97265255Y-46703541D01*
X97153448Y-46841610D01*
X97146295Y-46852625D01*
X97065635Y-47010930D01*
X97060931Y-47023183D01*
X97014733Y-47195597D01*
X97012786Y-47206931D01*
X97007193Y-47277990D01*
X97007000Y-47282916D01*
X97007000Y-48671885D01*
X92679507Y-48671885D01*
X96105987Y-45245405D01*
X96168299Y-45211379D01*
X96195082Y-45208500D01*
X97214930Y-45208500D01*
X97233880Y-45209933D01*
X97248115Y-45212099D01*
X97248119Y-45212099D01*
X97255349Y-45213199D01*
X97262641Y-45212606D01*
X97262644Y-45212606D01*
X97308018Y-45208915D01*
X97318233Y-45208500D01*
X97326293Y-45208500D01*
X97339583Y-45206951D01*
X97354507Y-45205211D01*
X97358882Y-45204778D01*
X97424339Y-45199454D01*
X97424342Y-45199453D01*
X97431637Y-45198860D01*
X97438601Y-45196604D01*
X97444560Y-45195413D01*
X97450415Y-45194029D01*
X97457681Y-45193182D01*
X97526327Y-45168265D01*
X97530455Y-45166848D01*
X97592936Y-45146607D01*
X97592938Y-45146606D01*
X97599899Y-45144351D01*
X97606154Y-45140555D01*
X97611628Y-45138049D01*
X97617058Y-45135330D01*
X97623937Y-45132833D01*
X97630058Y-45128820D01*
X97684976Y-45092814D01*
X97688680Y-45090477D01*
X97751107Y-45052595D01*
X97759484Y-45045197D01*
X97759508Y-45045224D01*
X97762500Y-45042571D01*
X97765733Y-45039868D01*
X97771852Y-45035856D01*
X97825128Y-44979617D01*
X97827506Y-44977175D01*
X98278911Y-44525770D01*
X98293323Y-44513384D01*
X98304918Y-44504851D01*
X98304923Y-44504846D01*
X98310818Y-44500508D01*
X98315557Y-44494930D01*
X98315560Y-44494927D01*
X98345035Y-44460232D01*
X98351965Y-44452716D01*
X98357660Y-44447021D01*
X98375281Y-44424749D01*
X98378072Y-44421345D01*
X98420591Y-44371297D01*
X98420592Y-44371295D01*
X98425333Y-44365715D01*
X98428661Y-44359199D01*
X98432020Y-44354162D01*
X98435194Y-44349023D01*
X98439734Y-44343284D01*
X98463408Y-44292629D01*
X98470636Y-44277163D01*
X98472569Y-44273209D01*
X98489159Y-44240720D01*
X98537952Y-44189148D01*
X98606882Y-44172142D01*
X98646323Y-44180312D01*
X98671194Y-44189809D01*
X98681091Y-44192684D01*
X98788248Y-44214485D01*
X98802300Y-44213290D01*
X98806000Y-44202945D01*
X98806000Y-42742000D01*
X98826002Y-42673879D01*
X98879658Y-42627386D01*
X98932000Y-42616000D01*
X99188000Y-42616000D01*
X99256121Y-42636002D01*
X99302614Y-42689658D01*
X99314000Y-42742000D01*
X99314000Y-44202229D01*
X99318064Y-44216071D01*
X99331479Y-44218105D01*
X99341025Y-44216882D01*
X99351095Y-44214742D01*
X99557225Y-44152900D01*
X99566832Y-44149134D01*
X99760076Y-44054464D01*
X99768934Y-44049185D01*
X99944141Y-43924211D01*
X99952003Y-43917567D01*
X100104445Y-43765656D01*
X100111122Y-43757811D01*
X100229086Y-43593646D01*
X100285081Y-43549998D01*
X100355784Y-43543552D01*
X100418749Y-43576355D01*
X100438842Y-43601337D01*
X100474131Y-43658923D01*
X100488975Y-43683147D01*
X100636702Y-43853687D01*
X100640679Y-43856989D01*
X100644374Y-43860607D01*
X100643104Y-43861904D01*
X100678316Y-43914233D01*
X100679814Y-43985213D01*
X100640027Y-44048085D01*
X100553757Y-44121767D01*
X100530031Y-44142031D01*
X100375824Y-44322584D01*
X100373245Y-44326792D01*
X100373241Y-44326798D01*
X100266791Y-44500508D01*
X100251760Y-44525037D01*
X100249867Y-44529607D01*
X100249865Y-44529611D01*
X100170510Y-44721192D01*
X100160895Y-44744406D01*
X100158053Y-44756243D01*
X100114423Y-44937978D01*
X100105465Y-44975289D01*
X100086835Y-45212000D01*
X100105465Y-45448711D01*
X100106619Y-45453518D01*
X100106620Y-45453524D01*
X100130549Y-45553194D01*
X100160895Y-45679594D01*
X100162788Y-45684165D01*
X100162789Y-45684167D01*
X100248530Y-45891164D01*
X100251760Y-45898963D01*
X100254346Y-45903183D01*
X100373241Y-46097202D01*
X100373245Y-46097208D01*
X100375824Y-46101416D01*
X100379031Y-46105171D01*
X100379034Y-46105175D01*
X100413921Y-46146022D01*
X100483656Y-46227671D01*
X100512686Y-46292459D01*
X100502081Y-46362659D01*
X100455207Y-46415981D01*
X100387844Y-46435500D01*
X99857958Y-46435501D01*
X99851420Y-46435501D01*
X99802053Y-46439386D01*
X99777850Y-46441290D01*
X99777848Y-46441290D01*
X99772096Y-46441743D01*
X99587629Y-46491171D01*
X99581749Y-46494167D01*
X99423351Y-46574874D01*
X99423347Y-46574876D01*
X99417470Y-46577871D01*
X99393896Y-46596961D01*
X99328370Y-46624285D01*
X99258472Y-46611845D01*
X99235310Y-46596960D01*
X99217386Y-46582446D01*
X99206376Y-46575296D01*
X99048070Y-46494635D01*
X99035817Y-46489931D01*
X98863403Y-46443733D01*
X98852069Y-46441786D01*
X98781010Y-46436193D01*
X98776084Y-46436000D01*
X98587115Y-46436000D01*
X98571876Y-46440475D01*
X98570671Y-46441865D01*
X98569000Y-46449548D01*
X98569000Y-51433885D01*
X98573475Y-51449124D01*
X98574865Y-51450329D01*
X98582548Y-51452000D01*
X98776085Y-51452000D01*
X98781010Y-51451807D01*
X98852069Y-51446214D01*
X98863403Y-51444267D01*
X99035817Y-51398069D01*
X99048070Y-51393365D01*
X99206376Y-51312704D01*
X99217386Y-51305554D01*
X99235310Y-51291040D01*
X99300838Y-51263715D01*
X99370736Y-51276155D01*
X99393893Y-51291037D01*
X99417470Y-51310129D01*
X99423347Y-51313124D01*
X99423351Y-51313126D01*
X99580830Y-51393365D01*
X99587629Y-51396829D01*
X99594002Y-51398537D01*
X99594003Y-51398537D01*
X99766519Y-51444763D01*
X99766523Y-51444764D01*
X99772096Y-51446257D01*
X99777852Y-51446710D01*
X99848963Y-51452307D01*
X99848970Y-51452307D01*
X99851419Y-51452500D01*
X100314812Y-51452500D01*
X100778580Y-51452499D01*
X100827947Y-51448614D01*
X100852150Y-51446710D01*
X100852152Y-51446710D01*
X100857904Y-51446257D01*
X101042371Y-51396829D01*
X101212530Y-51310129D01*
X101235705Y-51291362D01*
X101301232Y-51264036D01*
X101371131Y-51276475D01*
X101394294Y-51291361D01*
X101417470Y-51310129D01*
X101587629Y-51396829D01*
X101594002Y-51398537D01*
X101594003Y-51398537D01*
X101766519Y-51444763D01*
X101766523Y-51444764D01*
X101772096Y-51446257D01*
X101777852Y-51446710D01*
X101848963Y-51452307D01*
X101848970Y-51452307D01*
X101851419Y-51452500D01*
X102314812Y-51452500D01*
X102778580Y-51452499D01*
X102827947Y-51448614D01*
X102852150Y-51446710D01*
X102852152Y-51446710D01*
X102857904Y-51446257D01*
X103042371Y-51396829D01*
X103212530Y-51310129D01*
X103235705Y-51291362D01*
X103301232Y-51264036D01*
X103371131Y-51276475D01*
X103394294Y-51291361D01*
X103417470Y-51310129D01*
X103587629Y-51396829D01*
X103594002Y-51398537D01*
X103594003Y-51398537D01*
X103766519Y-51444763D01*
X103766523Y-51444764D01*
X103772096Y-51446257D01*
X103777852Y-51446710D01*
X103848963Y-51452307D01*
X103848970Y-51452307D01*
X103851419Y-51452500D01*
X104314812Y-51452500D01*
X104778580Y-51452499D01*
X104827947Y-51448614D01*
X104852150Y-51446710D01*
X104852152Y-51446710D01*
X104857904Y-51446257D01*
X105042371Y-51396829D01*
X105212530Y-51310129D01*
X105235705Y-51291362D01*
X105301232Y-51264036D01*
X105371131Y-51276475D01*
X105394294Y-51291361D01*
X105417470Y-51310129D01*
X105587629Y-51396829D01*
X105594002Y-51398537D01*
X105594003Y-51398537D01*
X105766519Y-51444763D01*
X105766523Y-51444764D01*
X105772096Y-51446257D01*
X105777852Y-51446710D01*
X105848963Y-51452307D01*
X105848970Y-51452307D01*
X105851419Y-51452500D01*
X106314812Y-51452500D01*
X106778580Y-51452499D01*
X106827947Y-51448614D01*
X106852150Y-51446710D01*
X106852152Y-51446710D01*
X106857904Y-51446257D01*
X107042371Y-51396829D01*
X107212530Y-51310129D01*
X107235705Y-51291362D01*
X107301232Y-51264036D01*
X107371131Y-51276475D01*
X107394294Y-51291361D01*
X107417470Y-51310129D01*
X107587629Y-51396829D01*
X107594002Y-51398537D01*
X107594003Y-51398537D01*
X107766519Y-51444763D01*
X107766523Y-51444764D01*
X107772096Y-51446257D01*
X107777852Y-51446710D01*
X107848963Y-51452307D01*
X107848970Y-51452307D01*
X107851419Y-51452500D01*
X108314812Y-51452500D01*
X108778580Y-51452499D01*
X108827947Y-51448614D01*
X108852150Y-51446710D01*
X108852152Y-51446710D01*
X108857904Y-51446257D01*
X109042371Y-51396829D01*
X109212530Y-51310129D01*
X109235705Y-51291362D01*
X109301232Y-51264036D01*
X109371131Y-51276475D01*
X109394294Y-51291361D01*
X109417470Y-51310129D01*
X109587629Y-51396829D01*
X109594002Y-51398537D01*
X109594003Y-51398537D01*
X109766519Y-51444763D01*
X109766523Y-51444764D01*
X109772096Y-51446257D01*
X109777852Y-51446710D01*
X109848963Y-51452307D01*
X109848970Y-51452307D01*
X109851419Y-51452500D01*
X110314812Y-51452500D01*
X110778580Y-51452499D01*
X110827947Y-51448614D01*
X110852150Y-51446710D01*
X110852152Y-51446710D01*
X110857904Y-51446257D01*
X111042371Y-51396829D01*
X111212530Y-51310129D01*
X111235705Y-51291362D01*
X111301232Y-51264036D01*
X111371131Y-51276475D01*
X111394294Y-51291361D01*
X111417470Y-51310129D01*
X111587629Y-51396829D01*
X111594002Y-51398537D01*
X111594003Y-51398537D01*
X111766519Y-51444763D01*
X111766523Y-51444764D01*
X111772096Y-51446257D01*
X111777852Y-51446710D01*
X111848963Y-51452307D01*
X111848970Y-51452307D01*
X111851419Y-51452500D01*
X112314812Y-51452500D01*
X112778580Y-51452499D01*
X112827947Y-51448614D01*
X112852150Y-51446710D01*
X112852152Y-51446710D01*
X112857904Y-51446257D01*
X113042371Y-51396829D01*
X113212530Y-51310129D01*
X113235705Y-51291362D01*
X113301232Y-51264036D01*
X113371131Y-51276475D01*
X113394294Y-51291361D01*
X113417470Y-51310129D01*
X113587629Y-51396829D01*
X113594002Y-51398537D01*
X113594003Y-51398537D01*
X113766519Y-51444763D01*
X113766523Y-51444764D01*
X113772096Y-51446257D01*
X113777852Y-51446710D01*
X113848963Y-51452307D01*
X113848970Y-51452307D01*
X113851419Y-51452500D01*
X114314812Y-51452500D01*
X114778580Y-51452499D01*
X114827947Y-51448614D01*
X114852150Y-51446710D01*
X114852152Y-51446710D01*
X114857904Y-51446257D01*
X115042371Y-51396829D01*
X115212530Y-51310129D01*
X115235705Y-51291362D01*
X115301232Y-51264036D01*
X115371131Y-51276475D01*
X115394294Y-51291361D01*
X115417470Y-51310129D01*
X115587629Y-51396829D01*
X115594002Y-51398537D01*
X115594003Y-51398537D01*
X115766519Y-51444763D01*
X115766523Y-51444764D01*
X115772096Y-51446257D01*
X115777852Y-51446710D01*
X115848963Y-51452307D01*
X115848970Y-51452307D01*
X115851419Y-51452500D01*
X116314812Y-51452500D01*
X116778580Y-51452499D01*
X116827947Y-51448614D01*
X116852150Y-51446710D01*
X116852152Y-51446710D01*
X116857904Y-51446257D01*
X117042371Y-51396829D01*
X117049170Y-51393365D01*
X117206649Y-51313126D01*
X117206653Y-51313124D01*
X117212530Y-51310129D01*
X117217660Y-51305975D01*
X117217663Y-51305973D01*
X117355814Y-51194100D01*
X117360945Y-51189945D01*
X117405611Y-51134787D01*
X117476973Y-51046663D01*
X117476976Y-51046659D01*
X117481129Y-51041530D01*
X117484266Y-51035375D01*
X117564833Y-50877251D01*
X117567829Y-50871371D01*
X117590744Y-50785851D01*
X117615763Y-50692481D01*
X117615764Y-50692477D01*
X117617257Y-50686904D01*
X117623500Y-50607581D01*
X117623499Y-47280420D01*
X117619038Y-47223726D01*
X117617710Y-47206850D01*
X117617710Y-47206848D01*
X117617257Y-47201096D01*
X117567829Y-47016629D01*
X117542938Y-46967777D01*
X117484126Y-46852351D01*
X117484124Y-46852347D01*
X117481129Y-46846470D01*
X117476976Y-46841341D01*
X117476973Y-46841337D01*
X117365100Y-46703186D01*
X117360945Y-46698055D01*
X117269847Y-46624285D01*
X117217663Y-46582027D01*
X117217659Y-46582024D01*
X117212530Y-46577871D01*
X117206653Y-46574876D01*
X117206649Y-46574874D01*
X117048251Y-46494167D01*
X117042371Y-46491171D01*
X117035997Y-46489463D01*
X116863481Y-46443237D01*
X116863477Y-46443236D01*
X116857904Y-46441743D01*
X116841793Y-46440475D01*
X116781037Y-46435693D01*
X116781030Y-46435693D01*
X116778581Y-46435500D01*
X116315188Y-46435500D01*
X115851420Y-46435501D01*
X115802053Y-46439386D01*
X115777850Y-46441290D01*
X115777848Y-46441290D01*
X115772096Y-46441743D01*
X115587629Y-46491171D01*
X115417470Y-46577871D01*
X115412341Y-46582024D01*
X115412340Y-46582025D01*
X115394295Y-46596638D01*
X115328768Y-46623964D01*
X115258869Y-46611525D01*
X115235705Y-46596638D01*
X115217660Y-46582025D01*
X115217659Y-46582024D01*
X115212530Y-46577871D01*
X115042371Y-46491171D01*
X115035997Y-46489463D01*
X114863481Y-46443237D01*
X114863477Y-46443236D01*
X114857904Y-46441743D01*
X114841793Y-46440475D01*
X114781037Y-46435693D01*
X114781030Y-46435693D01*
X114778581Y-46435500D01*
X114315188Y-46435500D01*
X113851420Y-46435501D01*
X113802053Y-46439386D01*
X113777850Y-46441290D01*
X113777848Y-46441290D01*
X113772096Y-46441743D01*
X113587629Y-46491171D01*
X113417470Y-46577871D01*
X113412341Y-46582024D01*
X113412340Y-46582025D01*
X113394295Y-46596638D01*
X113328768Y-46623964D01*
X113258869Y-46611525D01*
X113235705Y-46596638D01*
X113217660Y-46582025D01*
X113217659Y-46582024D01*
X113212530Y-46577871D01*
X113042371Y-46491171D01*
X113035997Y-46489463D01*
X112863481Y-46443237D01*
X112863477Y-46443236D01*
X112857904Y-46441743D01*
X112841793Y-46440475D01*
X112781037Y-46435693D01*
X112781030Y-46435693D01*
X112778581Y-46435500D01*
X112315188Y-46435500D01*
X111851420Y-46435501D01*
X111802053Y-46439386D01*
X111777850Y-46441290D01*
X111777848Y-46441290D01*
X111772096Y-46441743D01*
X111587629Y-46491171D01*
X111417470Y-46577871D01*
X111412341Y-46582024D01*
X111412340Y-46582025D01*
X111394295Y-46596638D01*
X111328768Y-46623964D01*
X111258869Y-46611525D01*
X111235705Y-46596638D01*
X111217660Y-46582025D01*
X111217659Y-46582024D01*
X111212530Y-46577871D01*
X111042371Y-46491171D01*
X111035997Y-46489463D01*
X110863481Y-46443237D01*
X110863477Y-46443236D01*
X110857904Y-46441743D01*
X110841793Y-46440475D01*
X110781037Y-46435693D01*
X110781030Y-46435693D01*
X110778581Y-46435500D01*
X110315188Y-46435500D01*
X109851420Y-46435501D01*
X109802053Y-46439386D01*
X109777850Y-46441290D01*
X109777848Y-46441290D01*
X109772096Y-46441743D01*
X109587629Y-46491171D01*
X109417470Y-46577871D01*
X109412341Y-46582024D01*
X109412340Y-46582025D01*
X109394295Y-46596638D01*
X109328768Y-46623964D01*
X109258869Y-46611525D01*
X109235705Y-46596638D01*
X109217660Y-46582025D01*
X109217659Y-46582024D01*
X109212530Y-46577871D01*
X109042371Y-46491171D01*
X109035997Y-46489463D01*
X108863481Y-46443237D01*
X108863477Y-46443236D01*
X108857904Y-46441743D01*
X108841793Y-46440475D01*
X108781037Y-46435693D01*
X108781030Y-46435693D01*
X108778581Y-46435500D01*
X108315188Y-46435500D01*
X107851420Y-46435501D01*
X107802053Y-46439386D01*
X107777850Y-46441290D01*
X107777848Y-46441290D01*
X107772096Y-46441743D01*
X107587629Y-46491171D01*
X107417470Y-46577871D01*
X107412341Y-46582024D01*
X107412340Y-46582025D01*
X107394295Y-46596638D01*
X107328768Y-46623964D01*
X107258869Y-46611525D01*
X107235705Y-46596638D01*
X107217660Y-46582025D01*
X107217659Y-46582024D01*
X107212530Y-46577871D01*
X107042371Y-46491171D01*
X107035997Y-46489463D01*
X106863481Y-46443237D01*
X106863477Y-46443236D01*
X106857904Y-46441743D01*
X106841793Y-46440475D01*
X106781037Y-46435693D01*
X106781030Y-46435693D01*
X106778581Y-46435500D01*
X106315188Y-46435500D01*
X105851420Y-46435501D01*
X105802053Y-46439386D01*
X105777850Y-46441290D01*
X105777848Y-46441290D01*
X105772096Y-46441743D01*
X105587629Y-46491171D01*
X105417470Y-46577871D01*
X105412341Y-46582024D01*
X105412340Y-46582025D01*
X105394295Y-46596638D01*
X105328768Y-46623964D01*
X105258869Y-46611525D01*
X105235705Y-46596638D01*
X105217660Y-46582025D01*
X105217659Y-46582024D01*
X105212530Y-46577871D01*
X105042371Y-46491171D01*
X105035997Y-46489463D01*
X104863481Y-46443237D01*
X104863477Y-46443236D01*
X104857904Y-46441743D01*
X104841793Y-46440475D01*
X104781037Y-46435693D01*
X104781030Y-46435693D01*
X104778581Y-46435500D01*
X104747339Y-46435500D01*
X103922224Y-46435501D01*
X103854103Y-46415499D01*
X103807610Y-46361843D01*
X103797506Y-46291569D01*
X103826999Y-46226989D01*
X103885805Y-46188880D01*
X103917834Y-46179209D01*
X103918967Y-46178874D01*
X104002414Y-46154630D01*
X104002418Y-46154628D01*
X104008336Y-46152909D01*
X104013068Y-46150456D01*
X104018169Y-46148916D01*
X104023612Y-46146022D01*
X104100260Y-46105269D01*
X104101426Y-46104657D01*
X104178453Y-46064729D01*
X104183926Y-46061892D01*
X104188089Y-46058569D01*
X104192796Y-46056066D01*
X104264918Y-45997245D01*
X104265774Y-45996554D01*
X104304973Y-45965262D01*
X104307477Y-45962758D01*
X104308195Y-45962116D01*
X104312528Y-45958415D01*
X104346062Y-45931065D01*
X104375288Y-45895737D01*
X104383277Y-45886958D01*
X104809384Y-45460851D01*
X104819527Y-45451749D01*
X104844218Y-45431897D01*
X104849025Y-45428032D01*
X104881312Y-45389554D01*
X104884467Y-45385938D01*
X104886123Y-45384112D01*
X104888309Y-45381926D01*
X104890264Y-45379546D01*
X104890273Y-45379536D01*
X104915576Y-45348732D01*
X104916418Y-45347717D01*
X104959062Y-45296895D01*
X104976154Y-45276526D01*
X104978723Y-45271852D01*
X104982102Y-45267739D01*
X105025975Y-45185915D01*
X105026584Y-45184793D01*
X105028997Y-45180405D01*
X105055149Y-45132833D01*
X105068464Y-45108614D01*
X105068465Y-45108612D01*
X105071433Y-45103213D01*
X105073045Y-45098131D01*
X105075562Y-45093437D01*
X105102762Y-45004469D01*
X105103108Y-45003358D01*
X105110448Y-44980223D01*
X105131235Y-44914694D01*
X105131829Y-44909398D01*
X105133387Y-44904302D01*
X105142785Y-44811778D01*
X105142905Y-44810658D01*
X105148500Y-44760773D01*
X105148500Y-44757246D01*
X105148556Y-44756243D01*
X105149003Y-44750559D01*
X105153373Y-44707538D01*
X105149059Y-44661899D01*
X105148500Y-44650043D01*
X105148500Y-43854500D01*
X105168502Y-43786379D01*
X105181660Y-43770080D01*
X105181473Y-43769921D01*
X105184827Y-43765980D01*
X105188487Y-43762333D01*
X105191737Y-43757811D01*
X105309370Y-43594107D01*
X105365364Y-43550459D01*
X105436068Y-43544013D01*
X105499032Y-43576816D01*
X105519125Y-43601799D01*
X105566275Y-43678743D01*
X105566279Y-43678748D01*
X105568975Y-43683147D01*
X105716702Y-43853687D01*
X105890299Y-43997810D01*
X105894751Y-44000412D01*
X105894756Y-44000415D01*
X106047516Y-44089681D01*
X106085103Y-44111645D01*
X106295884Y-44192134D01*
X106300952Y-44193165D01*
X106300955Y-44193166D01*
X106349021Y-44202945D01*
X106516981Y-44237117D01*
X106522156Y-44237307D01*
X106522158Y-44237307D01*
X106737292Y-44245196D01*
X106737296Y-44245196D01*
X106742456Y-44245385D01*
X106747576Y-44244729D01*
X106747578Y-44244729D01*
X106816985Y-44235838D01*
X106966253Y-44216716D01*
X106971202Y-44215231D01*
X106971208Y-44215230D01*
X107177413Y-44153365D01*
X107177412Y-44153365D01*
X107182363Y-44151880D01*
X107334192Y-44077500D01*
X107380331Y-44054897D01*
X107380336Y-44054894D01*
X107384982Y-44052618D01*
X107389192Y-44049615D01*
X107389197Y-44049612D01*
X107564455Y-43924601D01*
X107564459Y-43924597D01*
X107568667Y-43921596D01*
X107728487Y-43762333D01*
X107849370Y-43594107D01*
X107905364Y-43550459D01*
X107976068Y-43544013D01*
X108039032Y-43576816D01*
X108059125Y-43601799D01*
X108106275Y-43678743D01*
X108106279Y-43678748D01*
X108108975Y-43683147D01*
X108256702Y-43853687D01*
X108430299Y-43997810D01*
X108434751Y-44000412D01*
X108434756Y-44000415D01*
X108587516Y-44089681D01*
X108625103Y-44111645D01*
X108835884Y-44192134D01*
X108840952Y-44193165D01*
X108840955Y-44193166D01*
X108889021Y-44202945D01*
X109056981Y-44237117D01*
X109062156Y-44237307D01*
X109062158Y-44237307D01*
X109277292Y-44245196D01*
X109277296Y-44245196D01*
X109282456Y-44245385D01*
X109287576Y-44244729D01*
X109287578Y-44244729D01*
X109356985Y-44235838D01*
X109506253Y-44216716D01*
X109511202Y-44215231D01*
X109511208Y-44215230D01*
X109717413Y-44153365D01*
X109717412Y-44153365D01*
X109722363Y-44151880D01*
X109874192Y-44077500D01*
X109920331Y-44054897D01*
X109920336Y-44054894D01*
X109924982Y-44052618D01*
X109929192Y-44049615D01*
X109929197Y-44049612D01*
X110104455Y-43924601D01*
X110104459Y-43924597D01*
X110108667Y-43921596D01*
X110268487Y-43762333D01*
X110389370Y-43594107D01*
X110445364Y-43550459D01*
X110516068Y-43544013D01*
X110579032Y-43576816D01*
X110599125Y-43601799D01*
X110646275Y-43678743D01*
X110646279Y-43678748D01*
X110648975Y-43683147D01*
X110796702Y-43853687D01*
X110970299Y-43997810D01*
X110974751Y-44000412D01*
X110974756Y-44000415D01*
X111127516Y-44089681D01*
X111165103Y-44111645D01*
X111375884Y-44192134D01*
X111380952Y-44193165D01*
X111380955Y-44193166D01*
X111429021Y-44202945D01*
X111596981Y-44237117D01*
X111602156Y-44237307D01*
X111602158Y-44237307D01*
X111817292Y-44245196D01*
X111817296Y-44245196D01*
X111822456Y-44245385D01*
X111827576Y-44244729D01*
X111827578Y-44244729D01*
X111896985Y-44235838D01*
X112046253Y-44216716D01*
X112051202Y-44215231D01*
X112051208Y-44215230D01*
X112257413Y-44153365D01*
X112257412Y-44153365D01*
X112262363Y-44151880D01*
X112414192Y-44077500D01*
X112460331Y-44054897D01*
X112460336Y-44054894D01*
X112464982Y-44052618D01*
X112469192Y-44049615D01*
X112469197Y-44049612D01*
X112644455Y-43924601D01*
X112644459Y-43924597D01*
X112648667Y-43921596D01*
X112808487Y-43762333D01*
X112929370Y-43594107D01*
X112985364Y-43550459D01*
X113056068Y-43544013D01*
X113119032Y-43576816D01*
X113139125Y-43601799D01*
X113186275Y-43678743D01*
X113186279Y-43678748D01*
X113188975Y-43683147D01*
X113336702Y-43853687D01*
X113510299Y-43997810D01*
X113514751Y-44000412D01*
X113514756Y-44000415D01*
X113667516Y-44089681D01*
X113705103Y-44111645D01*
X113915884Y-44192134D01*
X113920952Y-44193165D01*
X113920955Y-44193166D01*
X113969021Y-44202945D01*
X114136981Y-44237117D01*
X114142156Y-44237307D01*
X114142158Y-44237307D01*
X114357292Y-44245196D01*
X114357296Y-44245196D01*
X114362456Y-44245385D01*
X114367576Y-44244729D01*
X114367578Y-44244729D01*
X114436985Y-44235838D01*
X114586253Y-44216716D01*
X114591202Y-44215231D01*
X114591208Y-44215230D01*
X114797413Y-44153365D01*
X114797412Y-44153365D01*
X114802363Y-44151880D01*
X114954192Y-44077500D01*
X115000331Y-44054897D01*
X115000336Y-44054894D01*
X115004982Y-44052618D01*
X115009192Y-44049615D01*
X115009197Y-44049612D01*
X115184455Y-43924601D01*
X115184459Y-43924597D01*
X115188667Y-43921596D01*
X115348487Y-43762333D01*
X115469370Y-43594107D01*
X115525364Y-43550459D01*
X115596068Y-43544013D01*
X115659032Y-43576816D01*
X115679125Y-43601799D01*
X115726275Y-43678743D01*
X115726279Y-43678748D01*
X115728975Y-43683147D01*
X115876702Y-43853687D01*
X116050299Y-43997810D01*
X116054751Y-44000412D01*
X116054756Y-44000415D01*
X116207516Y-44089681D01*
X116245103Y-44111645D01*
X116455884Y-44192134D01*
X116460952Y-44193165D01*
X116460955Y-44193166D01*
X116509021Y-44202945D01*
X116676981Y-44237117D01*
X116682156Y-44237307D01*
X116682158Y-44237307D01*
X116897292Y-44245196D01*
X116897296Y-44245196D01*
X116902456Y-44245385D01*
X116907576Y-44244729D01*
X116907578Y-44244729D01*
X116976985Y-44235838D01*
X117126253Y-44216716D01*
X117131202Y-44215231D01*
X117131208Y-44215230D01*
X117337413Y-44153365D01*
X117337412Y-44153365D01*
X117342363Y-44151880D01*
X117494192Y-44077500D01*
X117540331Y-44054897D01*
X117540336Y-44054894D01*
X117544982Y-44052618D01*
X117549192Y-44049615D01*
X117549197Y-44049612D01*
X117724455Y-43924601D01*
X117724459Y-43924597D01*
X117728667Y-43921596D01*
X117888487Y-43762333D01*
X118020150Y-43579105D01*
X118111721Y-43393825D01*
X118117824Y-43381477D01*
X118117825Y-43381475D01*
X118120118Y-43376835D01*
X118185708Y-43160952D01*
X118198786Y-43061614D01*
X118214721Y-42940578D01*
X118214722Y-42940572D01*
X118215158Y-42937256D01*
X118216802Y-42870000D01*
X118198315Y-42645132D01*
X118143349Y-42426304D01*
X118053380Y-42219391D01*
X118003913Y-42142926D01*
X117933634Y-42034291D01*
X117933632Y-42034288D01*
X117930826Y-42029951D01*
X117778977Y-41863071D01*
X117774926Y-41859872D01*
X117774922Y-41859868D01*
X117605966Y-41726434D01*
X117605962Y-41726432D01*
X117601911Y-41723232D01*
X117597383Y-41720732D01*
X117578535Y-41710328D01*
X117528564Y-41659896D01*
X117513792Y-41590453D01*
X117538908Y-41524047D01*
X117566259Y-41497441D01*
X117567506Y-41496552D01*
X117602354Y-41471695D01*
X117724455Y-41384601D01*
X117724459Y-41384597D01*
X117728667Y-41381596D01*
X117888487Y-41222333D01*
X118020150Y-41039105D01*
X118114575Y-40848051D01*
X118117824Y-40841477D01*
X118117825Y-40841475D01*
X118120118Y-40836835D01*
X118185708Y-40620952D01*
X118186383Y-40615826D01*
X118214721Y-40400578D01*
X118214722Y-40400572D01*
X118215158Y-40397256D01*
X118215240Y-40393903D01*
X118216720Y-40333364D01*
X118216720Y-40333360D01*
X118216802Y-40330000D01*
X118198315Y-40105132D01*
X118143349Y-39886304D01*
X118053380Y-39679391D01*
X118003913Y-39602926D01*
X117933634Y-39494291D01*
X117933632Y-39494288D01*
X117930826Y-39489951D01*
X117778977Y-39323071D01*
X117774924Y-39319870D01*
X117774922Y-39319868D01*
X117605966Y-39186434D01*
X117605962Y-39186432D01*
X117601911Y-39183232D01*
X117404383Y-39074191D01*
X117191698Y-38998876D01*
X117162795Y-38993727D01*
X116974657Y-38960214D01*
X116974653Y-38960214D01*
X116969569Y-38959308D01*
X116894584Y-38958392D01*
X116749129Y-38956615D01*
X116749127Y-38956615D01*
X116743959Y-38956552D01*
X116520929Y-38990680D01*
X116306468Y-39060777D01*
X116284018Y-39072464D01*
X116118209Y-39158779D01*
X116106335Y-39164960D01*
X116102202Y-39168063D01*
X116102199Y-39168065D01*
X115930040Y-39297325D01*
X115925905Y-39300430D01*
X115770024Y-39463550D01*
X115767109Y-39467824D01*
X115767106Y-39467827D01*
X115673503Y-39605043D01*
X115618592Y-39650046D01*
X115548067Y-39658217D01*
X115484320Y-39626963D01*
X115463623Y-39602479D01*
X115453921Y-39587481D01*
X115420865Y-39536385D01*
X115393634Y-39494291D01*
X115393632Y-39494288D01*
X115390826Y-39489951D01*
X115238977Y-39323071D01*
X115234924Y-39319870D01*
X115234922Y-39319868D01*
X115065966Y-39186434D01*
X115065962Y-39186432D01*
X115061911Y-39183232D01*
X114864383Y-39074191D01*
X114651698Y-38998876D01*
X114622795Y-38993727D01*
X114434657Y-38960214D01*
X114434653Y-38960214D01*
X114429569Y-38959308D01*
X114354584Y-38958392D01*
X114209129Y-38956615D01*
X114209127Y-38956615D01*
X114203959Y-38956552D01*
X113980929Y-38990680D01*
X113766468Y-39060777D01*
X113744018Y-39072464D01*
X113578209Y-39158779D01*
X113566335Y-39164960D01*
X113562202Y-39168063D01*
X113562199Y-39168065D01*
X113390040Y-39297325D01*
X113385905Y-39300430D01*
X113230024Y-39463550D01*
X113227109Y-39467824D01*
X113227106Y-39467827D01*
X113133503Y-39605043D01*
X113078592Y-39650046D01*
X113008067Y-39658217D01*
X112944320Y-39626963D01*
X112923623Y-39602479D01*
X112913921Y-39587481D01*
X112880865Y-39536385D01*
X112853634Y-39494291D01*
X112853632Y-39494288D01*
X112850826Y-39489951D01*
X112698977Y-39323071D01*
X112694924Y-39319870D01*
X112694922Y-39319868D01*
X112525966Y-39186434D01*
X112525962Y-39186432D01*
X112521911Y-39183232D01*
X112324383Y-39074191D01*
X112111698Y-38998876D01*
X112082795Y-38993727D01*
X111894657Y-38960214D01*
X111894653Y-38960214D01*
X111889569Y-38959308D01*
X111814584Y-38958392D01*
X111669129Y-38956615D01*
X111669127Y-38956615D01*
X111663959Y-38956552D01*
X111440929Y-38990680D01*
X111226468Y-39060777D01*
X111204018Y-39072464D01*
X111038209Y-39158779D01*
X111026335Y-39164960D01*
X111022202Y-39168063D01*
X111022199Y-39168065D01*
X110850040Y-39297325D01*
X110845905Y-39300430D01*
X110690024Y-39463550D01*
X110687109Y-39467824D01*
X110687106Y-39467827D01*
X110593503Y-39605043D01*
X110538592Y-39650046D01*
X110468067Y-39658217D01*
X110404320Y-39626963D01*
X110383623Y-39602479D01*
X110373921Y-39587481D01*
X110340865Y-39536385D01*
X110313634Y-39494291D01*
X110313632Y-39494288D01*
X110310826Y-39489951D01*
X110158977Y-39323071D01*
X110154924Y-39319870D01*
X110154922Y-39319868D01*
X109985966Y-39186434D01*
X109985962Y-39186432D01*
X109981911Y-39183232D01*
X109784383Y-39074191D01*
X109571698Y-38998876D01*
X109542795Y-38993727D01*
X109354657Y-38960214D01*
X109354653Y-38960214D01*
X109349569Y-38959308D01*
X109274584Y-38958392D01*
X109129129Y-38956615D01*
X109129127Y-38956615D01*
X109123959Y-38956552D01*
X108900929Y-38990680D01*
X108686468Y-39060777D01*
X108664018Y-39072464D01*
X108498209Y-39158779D01*
X108486335Y-39164960D01*
X108482202Y-39168063D01*
X108482199Y-39168065D01*
X108310040Y-39297325D01*
X108305905Y-39300430D01*
X108150024Y-39463550D01*
X108147109Y-39467824D01*
X108147106Y-39467827D01*
X108053503Y-39605043D01*
X107998592Y-39650046D01*
X107928067Y-39658217D01*
X107864320Y-39626963D01*
X107843623Y-39602479D01*
X107833921Y-39587481D01*
X107800865Y-39536385D01*
X107773634Y-39494291D01*
X107773632Y-39494288D01*
X107770826Y-39489951D01*
X107618977Y-39323071D01*
X107614924Y-39319870D01*
X107614922Y-39319868D01*
X107445966Y-39186434D01*
X107445962Y-39186432D01*
X107441911Y-39183232D01*
X107244383Y-39074191D01*
X107031698Y-38998876D01*
X107002795Y-38993727D01*
X106814657Y-38960214D01*
X106814653Y-38960214D01*
X106809569Y-38959308D01*
X106734584Y-38958392D01*
X106589129Y-38956615D01*
X106589127Y-38956615D01*
X106583959Y-38956552D01*
X106360929Y-38990680D01*
X106146468Y-39060777D01*
X106124018Y-39072464D01*
X105958209Y-39158779D01*
X105946335Y-39164960D01*
X105942202Y-39168063D01*
X105942199Y-39168065D01*
X105770040Y-39297325D01*
X105765905Y-39300430D01*
X105610024Y-39463550D01*
X105607109Y-39467824D01*
X105607106Y-39467827D01*
X105513503Y-39605043D01*
X105458592Y-39650046D01*
X105388067Y-39658217D01*
X105324320Y-39626963D01*
X105303623Y-39602479D01*
X105293921Y-39587481D01*
X105260865Y-39536385D01*
X105233634Y-39494291D01*
X105233632Y-39494288D01*
X105230826Y-39489951D01*
X105078977Y-39323071D01*
X105074924Y-39319870D01*
X105074922Y-39319868D01*
X104905966Y-39186434D01*
X104905962Y-39186432D01*
X104901911Y-39183232D01*
X104704383Y-39074191D01*
X104491698Y-38998876D01*
X104462795Y-38993727D01*
X104274657Y-38960214D01*
X104274653Y-38960214D01*
X104269569Y-38959308D01*
X104194584Y-38958392D01*
X104049129Y-38956615D01*
X104049127Y-38956615D01*
X104043959Y-38956552D01*
X103820929Y-38990680D01*
X103606468Y-39060777D01*
X103584018Y-39072464D01*
X103418209Y-39158779D01*
X103406335Y-39164960D01*
X103402202Y-39168063D01*
X103402199Y-39168065D01*
X103230040Y-39297325D01*
X103225905Y-39300430D01*
X103070024Y-39463550D01*
X103067109Y-39467824D01*
X103067106Y-39467827D01*
X102973503Y-39605043D01*
X102918592Y-39650046D01*
X102848067Y-39658217D01*
X102784320Y-39626963D01*
X102763623Y-39602479D01*
X102753921Y-39587481D01*
X102720865Y-39536385D01*
X102693634Y-39494291D01*
X102693632Y-39494288D01*
X102690826Y-39489951D01*
X102538977Y-39323071D01*
X102534924Y-39319870D01*
X102534922Y-39319868D01*
X102365966Y-39186434D01*
X102365962Y-39186432D01*
X102361911Y-39183232D01*
X102164383Y-39074191D01*
X101951698Y-38998876D01*
X101922795Y-38993727D01*
X101734657Y-38960214D01*
X101734653Y-38960214D01*
X101729569Y-38959308D01*
X101654584Y-38958392D01*
X101509129Y-38956615D01*
X101509127Y-38956615D01*
X101503959Y-38956552D01*
X101280929Y-38990680D01*
X101066468Y-39060777D01*
X101044018Y-39072464D01*
X100878209Y-39158779D01*
X100866335Y-39164960D01*
X100862202Y-39168063D01*
X100862199Y-39168065D01*
X100690040Y-39297325D01*
X100685905Y-39300430D01*
X100530024Y-39463550D01*
X100527109Y-39467824D01*
X100527106Y-39467827D01*
X100433503Y-39605043D01*
X100378592Y-39650046D01*
X100308067Y-39658217D01*
X100244320Y-39626963D01*
X100223623Y-39602479D01*
X100213921Y-39587481D01*
X100180865Y-39536385D01*
X100153634Y-39494291D01*
X100153632Y-39494288D01*
X100150826Y-39489951D01*
X99998977Y-39323071D01*
X99994924Y-39319870D01*
X99994922Y-39319868D01*
X99825966Y-39186434D01*
X99825962Y-39186432D01*
X99821911Y-39183232D01*
X99624383Y-39074191D01*
X99411698Y-38998876D01*
X99382795Y-38993727D01*
X99194657Y-38960214D01*
X99194653Y-38960214D01*
X99189569Y-38959308D01*
X99114584Y-38958392D01*
X98969129Y-38956615D01*
X98969127Y-38956615D01*
X98963959Y-38956552D01*
X98740929Y-38990680D01*
X98526468Y-39060777D01*
X98504018Y-39072464D01*
X98338209Y-39158779D01*
X98326335Y-39164960D01*
X98322202Y-39168063D01*
X98322199Y-39168065D01*
X98150040Y-39297325D01*
X98145905Y-39300430D01*
X97990024Y-39463550D01*
X97987109Y-39467824D01*
X97987106Y-39467827D01*
X97893503Y-39605043D01*
X97838592Y-39650046D01*
X97768067Y-39658217D01*
X97704320Y-39626963D01*
X97683623Y-39602479D01*
X97673921Y-39587481D01*
X97640865Y-39536385D01*
X97613634Y-39494291D01*
X97613632Y-39494288D01*
X97610826Y-39489951D01*
X97458977Y-39323071D01*
X97454924Y-39319870D01*
X97454922Y-39319868D01*
X97285966Y-39186434D01*
X97285962Y-39186432D01*
X97281911Y-39183232D01*
X97084383Y-39074191D01*
X96871698Y-38998876D01*
X96842795Y-38993727D01*
X96654657Y-38960214D01*
X96654653Y-38960214D01*
X96649569Y-38959308D01*
X96574584Y-38958392D01*
X96429129Y-38956615D01*
X96429127Y-38956615D01*
X96423959Y-38956552D01*
X96200929Y-38990680D01*
X95986468Y-39060777D01*
X95964018Y-39072464D01*
X95798209Y-39158779D01*
X95786335Y-39164960D01*
X95782202Y-39168063D01*
X95782199Y-39168065D01*
X95610040Y-39297325D01*
X95605905Y-39300430D01*
X95450024Y-39463550D01*
X95447109Y-39467824D01*
X95447106Y-39467827D01*
X95353503Y-39605043D01*
X95298592Y-39650046D01*
X95228067Y-39658217D01*
X95164320Y-39626963D01*
X95143623Y-39602479D01*
X95133921Y-39587481D01*
X95100865Y-39536385D01*
X95073634Y-39494291D01*
X95073632Y-39494288D01*
X95070826Y-39489951D01*
X94918977Y-39323071D01*
X94914924Y-39319870D01*
X94914922Y-39319868D01*
X94745966Y-39186434D01*
X94745962Y-39186432D01*
X94741911Y-39183232D01*
X94544383Y-39074191D01*
X94331698Y-38998876D01*
X94302795Y-38993727D01*
X94114657Y-38960214D01*
X94114653Y-38960214D01*
X94109569Y-38959308D01*
X94034584Y-38958392D01*
X93889129Y-38956615D01*
X93889127Y-38956615D01*
X93883959Y-38956552D01*
X93769453Y-38974074D01*
X93699092Y-38964606D01*
X93661300Y-38938619D01*
X92800765Y-38078084D01*
X92766739Y-38015772D01*
X92771804Y-37944957D01*
X92814351Y-37888121D01*
X92880871Y-37863310D01*
X92889860Y-37862989D01*
X118582407Y-37862989D01*
X118650528Y-37882991D01*
X118671502Y-37899894D01*
X121074595Y-40302986D01*
X121108620Y-40365298D01*
X121111500Y-40392081D01*
X121111500Y-40819676D01*
X121091498Y-40887797D01*
X121051336Y-40927107D01*
X121030584Y-40939824D01*
X121026822Y-40943037D01*
X120857409Y-41087730D01*
X120850031Y-41094031D01*
X120695824Y-41274584D01*
X120693245Y-41278792D01*
X120693241Y-41278798D01*
X120618533Y-41400711D01*
X120571760Y-41477037D01*
X120569867Y-41481607D01*
X120569865Y-41481611D01*
X120489171Y-41676425D01*
X120480895Y-41696406D01*
X120474479Y-41723130D01*
X120430367Y-41906872D01*
X120425465Y-41927289D01*
X120406835Y-42164000D01*
X120425465Y-42400711D01*
X120480895Y-42631594D01*
X120482788Y-42636165D01*
X120482789Y-42636167D01*
X120504946Y-42689658D01*
X120571760Y-42850963D01*
X120574346Y-42855183D01*
X120693241Y-43049202D01*
X120693245Y-43049208D01*
X120695824Y-43053416D01*
X120850031Y-43233969D01*
X121030584Y-43388176D01*
X121034792Y-43390755D01*
X121034798Y-43390759D01*
X121228817Y-43509654D01*
X121233037Y-43512240D01*
X121237607Y-43514133D01*
X121237611Y-43514135D01*
X121447833Y-43601211D01*
X121452406Y-43603105D01*
X121532609Y-43622360D01*
X121678476Y-43657380D01*
X121678482Y-43657381D01*
X121683289Y-43658535D01*
X121920000Y-43677165D01*
X122156711Y-43658535D01*
X122161518Y-43657381D01*
X122161524Y-43657380D01*
X122307391Y-43622360D01*
X122387594Y-43603105D01*
X122392167Y-43601211D01*
X122602389Y-43514135D01*
X122602393Y-43514133D01*
X122606963Y-43512240D01*
X122611183Y-43509654D01*
X122805202Y-43390759D01*
X122805208Y-43390755D01*
X122809416Y-43388176D01*
X122989969Y-43233969D01*
X123144176Y-43053416D01*
X123146755Y-43049208D01*
X123146759Y-43049202D01*
X123265654Y-42855183D01*
X123268240Y-42850963D01*
X123335055Y-42689658D01*
X123357211Y-42636167D01*
X123357212Y-42636165D01*
X123359105Y-42631594D01*
X123414535Y-42400711D01*
X123433165Y-42164000D01*
X123414535Y-41927289D01*
X123409634Y-41906872D01*
X123365521Y-41723130D01*
X123359105Y-41696406D01*
X123350829Y-41676425D01*
X123270135Y-41481611D01*
X123270133Y-41481607D01*
X123268240Y-41477037D01*
X123221467Y-41400711D01*
X123146759Y-41278798D01*
X123146755Y-41278792D01*
X123144176Y-41274584D01*
X122989969Y-41094031D01*
X122982592Y-41087730D01*
X122813178Y-40943037D01*
X122809416Y-40939824D01*
X122788664Y-40927107D01*
X122741034Y-40874462D01*
X122728500Y-40819676D01*
X122728500Y-40014260D01*
X122728507Y-40012941D01*
X122729377Y-39929826D01*
X122729451Y-39922779D01*
X122720289Y-39880403D01*
X122718230Y-39867832D01*
X122714182Y-39831744D01*
X122713397Y-39824745D01*
X122707647Y-39808231D01*
X122702367Y-39793070D01*
X122698204Y-39778258D01*
X122692609Y-39752381D01*
X122691119Y-39745490D01*
X122672793Y-39706189D01*
X122668008Y-39694406D01*
X122653745Y-39653448D01*
X122635979Y-39625016D01*
X122628640Y-39611499D01*
X122617440Y-39587481D01*
X122617438Y-39587477D01*
X122614463Y-39581098D01*
X122610146Y-39575532D01*
X122587891Y-39546840D01*
X122580597Y-39536385D01*
X122561359Y-39505598D01*
X122557626Y-39499624D01*
X122552330Y-39494291D01*
X122529024Y-39470821D01*
X122528439Y-39470196D01*
X122527922Y-39469530D01*
X122501932Y-39443540D01*
X122429815Y-39370918D01*
X122428778Y-39370260D01*
X122427549Y-39369157D01*
X119547723Y-36489331D01*
X119546795Y-36488394D01*
X119488646Y-36429014D01*
X119488645Y-36429013D01*
X119483718Y-36423982D01*
X119447268Y-36400491D01*
X119436943Y-36393072D01*
X119403046Y-36366013D01*
X119372851Y-36351416D01*
X119359434Y-36343887D01*
X119357431Y-36342596D01*
X119331251Y-36325724D01*
X119324634Y-36323316D01*
X119324629Y-36323313D01*
X119290516Y-36310897D01*
X119278773Y-36305936D01*
X119246086Y-36290135D01*
X119246081Y-36290133D01*
X119239740Y-36287068D01*
X119232882Y-36285485D01*
X119232880Y-36285484D01*
X119207063Y-36279524D01*
X119192320Y-36275157D01*
X119160804Y-36263686D01*
X119153814Y-36262803D01*
X119153806Y-36262801D01*
X119117788Y-36258251D01*
X119105236Y-36256015D01*
X119069875Y-36247851D01*
X119069872Y-36247851D01*
X119063004Y-36246265D01*
X119055958Y-36246240D01*
X119055955Y-36246240D01*
X119022433Y-36246123D01*
X119021551Y-36246094D01*
X119020720Y-36245989D01*
X118984070Y-36245989D01*
X118983630Y-36245988D01*
X118885146Y-36245644D01*
X118885141Y-36245644D01*
X118881619Y-36245632D01*
X118880419Y-36245900D01*
X118878782Y-36245989D01*
X78016771Y-36245989D01*
X78015452Y-36245982D01*
X77925290Y-36245038D01*
X77918404Y-36246527D01*
X77918402Y-36246527D01*
X77912279Y-36247851D01*
X77882914Y-36254200D01*
X77870348Y-36256258D01*
X77827256Y-36261092D01*
X77820605Y-36263408D01*
X77820601Y-36263409D01*
X77795581Y-36272122D01*
X77780768Y-36276285D01*
X77748001Y-36283370D01*
X77708700Y-36301696D01*
X77696917Y-36306481D01*
X77655959Y-36320744D01*
X77641881Y-36329541D01*
X77627527Y-36338510D01*
X77614010Y-36345849D01*
X77589992Y-36357049D01*
X77589988Y-36357051D01*
X77583609Y-36360026D01*
X77578045Y-36364342D01*
X77578043Y-36364343D01*
X77549351Y-36386598D01*
X77538896Y-36393892D01*
X77502135Y-36416863D01*
X77497138Y-36421825D01*
X77497137Y-36421826D01*
X77473332Y-36445465D01*
X77472707Y-36446050D01*
X77472041Y-36446567D01*
X77446051Y-36472557D01*
X77373429Y-36544674D01*
X77372771Y-36545711D01*
X77371668Y-36546940D01*
X75634842Y-38283766D01*
X75633905Y-38284694D01*
X75569493Y-38347771D01*
X75546002Y-38384221D01*
X75538583Y-38394546D01*
X75511524Y-38428443D01*
X75508459Y-38434784D01*
X75508458Y-38434785D01*
X75496928Y-38458637D01*
X75489399Y-38472054D01*
X75471235Y-38500238D01*
X75468827Y-38506855D01*
X75468824Y-38506860D01*
X75456408Y-38540973D01*
X75451447Y-38552716D01*
X75435646Y-38585403D01*
X75435644Y-38585408D01*
X75432579Y-38591749D01*
X75430996Y-38598607D01*
X75430995Y-38598609D01*
X75425035Y-38624426D01*
X75420668Y-38639169D01*
X75409197Y-38670685D01*
X75408314Y-38677675D01*
X75408312Y-38677683D01*
X75403762Y-38713701D01*
X75401526Y-38726253D01*
X75394237Y-38757827D01*
X75391776Y-38768485D01*
X75391751Y-38775531D01*
X75391751Y-38775534D01*
X75391634Y-38809056D01*
X75391605Y-38809938D01*
X75391500Y-38810769D01*
X75391500Y-38847419D01*
X75391499Y-38847859D01*
X75391185Y-38937934D01*
X75391143Y-38949870D01*
X75391411Y-38951070D01*
X75391500Y-38952707D01*
X75391500Y-39158189D01*
X75371498Y-39226310D01*
X75341157Y-39258945D01*
X75285905Y-39300430D01*
X75130024Y-39463550D01*
X75127109Y-39467824D01*
X75127106Y-39467827D01*
X75033198Y-39605490D01*
X74978287Y-39650493D01*
X74907762Y-39658664D01*
X74844015Y-39627410D01*
X74823318Y-39602926D01*
X74753239Y-39494601D01*
X74746947Y-39486430D01*
X74602113Y-39327260D01*
X74594580Y-39320234D01*
X74425691Y-39186855D01*
X74417104Y-39181150D01*
X74228711Y-39077151D01*
X74219299Y-39072921D01*
X74016445Y-39001086D01*
X74006474Y-38998452D01*
X73931837Y-38985157D01*
X73918540Y-38986617D01*
X73914000Y-39001174D01*
X73914000Y-40458000D01*
X73893998Y-40526121D01*
X73840342Y-40572614D01*
X73788000Y-40584000D01*
X73532000Y-40584000D01*
X73463879Y-40563998D01*
X73417386Y-40510342D01*
X73406000Y-40458000D01*
X73406000Y-38999343D01*
X73402082Y-38985999D01*
X73387806Y-38984012D01*
X73346161Y-38990385D01*
X73336125Y-38992776D01*
X73131576Y-39059633D01*
X73122079Y-39063625D01*
X72931189Y-39162995D01*
X72922464Y-39168490D01*
X72750373Y-39297700D01*
X72742666Y-39304543D01*
X72593984Y-39460129D01*
X72587498Y-39468139D01*
X72493798Y-39605498D01*
X72438887Y-39650501D01*
X72368362Y-39658672D01*
X72304615Y-39627418D01*
X72283918Y-39602934D01*
X72213634Y-39494291D01*
X72213632Y-39494288D01*
X72210826Y-39489951D01*
X72058977Y-39323071D01*
X72054924Y-39319870D01*
X72054922Y-39319868D01*
X71885966Y-39186434D01*
X71885962Y-39186432D01*
X71881911Y-39183232D01*
X71684383Y-39074191D01*
X71471698Y-38998876D01*
X71442795Y-38993727D01*
X71254657Y-38960214D01*
X71254653Y-38960214D01*
X71249569Y-38959308D01*
X71174584Y-38958392D01*
X71029129Y-38956615D01*
X71029127Y-38956615D01*
X71023959Y-38956552D01*
X70800929Y-38990680D01*
X70586468Y-39060777D01*
X70564018Y-39072464D01*
X70398209Y-39158779D01*
X70386335Y-39164960D01*
X70382202Y-39168063D01*
X70382199Y-39168065D01*
X70211459Y-39296260D01*
X70144974Y-39321166D01*
X70135806Y-39321500D01*
X69560743Y-39321500D01*
X69492622Y-39301498D01*
X69482651Y-39294382D01*
X69345966Y-39186434D01*
X69345962Y-39186432D01*
X69341911Y-39183232D01*
X69144383Y-39074191D01*
X68931698Y-38998876D01*
X68902795Y-38993727D01*
X68714657Y-38960214D01*
X68714653Y-38960214D01*
X68709569Y-38959308D01*
X68634584Y-38958392D01*
X68489129Y-38956615D01*
X68489127Y-38956615D01*
X68483959Y-38956552D01*
X68260929Y-38990680D01*
X68046468Y-39060777D01*
X68024018Y-39072464D01*
X67858209Y-39158779D01*
X67846335Y-39164960D01*
X67842202Y-39168063D01*
X67842199Y-39168065D01*
X67671459Y-39296260D01*
X67604974Y-39321166D01*
X67595806Y-39321500D01*
X67427850Y-39321500D01*
X67414242Y-39320763D01*
X67413662Y-39320700D01*
X67376612Y-39316675D01*
X67326570Y-39321053D01*
X67321788Y-39321379D01*
X67319310Y-39321500D01*
X67316231Y-39321500D01*
X67313177Y-39321799D01*
X67313166Y-39321800D01*
X67273529Y-39325687D01*
X67272215Y-39325809D01*
X67236688Y-39328917D01*
X67179587Y-39333913D01*
X67174468Y-39335400D01*
X67169167Y-39335920D01*
X67080166Y-39362791D01*
X67079033Y-39363126D01*
X66995586Y-39387370D01*
X66995582Y-39387372D01*
X66989664Y-39389091D01*
X66984932Y-39391544D01*
X66979831Y-39393084D01*
X66974388Y-39395978D01*
X66897740Y-39436731D01*
X66896574Y-39437343D01*
X66831990Y-39470821D01*
X66814074Y-39480108D01*
X66809911Y-39483431D01*
X66805204Y-39485934D01*
X66800429Y-39489828D01*
X66800428Y-39489829D01*
X66733102Y-39544739D01*
X66732075Y-39545567D01*
X66695792Y-39574531D01*
X66695787Y-39574536D01*
X66693028Y-39576738D01*
X66690527Y-39579239D01*
X66689809Y-39579881D01*
X66685461Y-39583594D01*
X66651938Y-39610935D01*
X66648015Y-39615677D01*
X66648013Y-39615679D01*
X66622703Y-39646273D01*
X66614713Y-39655053D01*
X65878621Y-40391145D01*
X65868478Y-40400247D01*
X65838975Y-40423968D01*
X65835008Y-40428696D01*
X65806709Y-40462421D01*
X65803528Y-40466069D01*
X65801885Y-40467881D01*
X65799691Y-40470075D01*
X65772358Y-40503349D01*
X65771696Y-40504147D01*
X65711846Y-40575474D01*
X65709278Y-40580144D01*
X65705897Y-40584261D01*
X65688972Y-40615826D01*
X65662023Y-40666086D01*
X65661394Y-40667245D01*
X65619538Y-40743381D01*
X65619535Y-40743389D01*
X65616567Y-40748787D01*
X65614955Y-40753869D01*
X65612438Y-40758563D01*
X65585238Y-40847531D01*
X65584918Y-40848559D01*
X65556765Y-40937306D01*
X65556171Y-40942602D01*
X65554613Y-40947698D01*
X65545799Y-41034469D01*
X65545218Y-41040187D01*
X65545089Y-41041393D01*
X65539500Y-41091227D01*
X65539500Y-41094754D01*
X65539445Y-41095739D01*
X65538998Y-41101419D01*
X65534626Y-41144462D01*
X65537014Y-41169724D01*
X65538941Y-41190109D01*
X65539500Y-41201967D01*
X65539500Y-45330351D01*
X65519498Y-45398472D01*
X65465842Y-45444965D01*
X65453345Y-45449885D01*
X64702168Y-45700277D01*
X64631217Y-45702843D01*
X64573228Y-45669838D01*
X64573177Y-45669787D01*
X64569969Y-45666031D01*
X64389416Y-45511824D01*
X64385208Y-45509245D01*
X64385202Y-45509241D01*
X64191183Y-45390346D01*
X64186963Y-45387760D01*
X64182393Y-45385867D01*
X64182389Y-45385865D01*
X63972167Y-45298789D01*
X63972165Y-45298788D01*
X63967594Y-45296895D01*
X63865686Y-45272429D01*
X63741524Y-45242620D01*
X63741518Y-45242619D01*
X63736711Y-45241465D01*
X63500000Y-45222835D01*
X63263289Y-45241465D01*
X63258482Y-45242619D01*
X63258476Y-45242620D01*
X63134314Y-45272429D01*
X63032406Y-45296895D01*
X63027835Y-45298788D01*
X63027833Y-45298789D01*
X62817611Y-45385865D01*
X62817607Y-45385867D01*
X62813037Y-45387760D01*
X62808817Y-45390346D01*
X62614798Y-45509241D01*
X62614792Y-45509245D01*
X62610584Y-45511824D01*
X62430031Y-45666031D01*
X62426823Y-45669787D01*
X62422557Y-45674782D01*
X62275824Y-45846584D01*
X62273245Y-45850792D01*
X62273241Y-45850798D01*
X62201749Y-45967462D01*
X62151760Y-46049037D01*
X62149867Y-46053607D01*
X62149865Y-46053611D01*
X62076536Y-46230645D01*
X62060895Y-46268406D01*
X62054054Y-46296900D01*
X62006695Y-46494167D01*
X62005465Y-46499289D01*
X61986835Y-46736000D01*
X60737146Y-46736000D01*
X60753904Y-38101694D01*
X60755404Y-38082556D01*
X60757805Y-38067140D01*
X60757805Y-38067139D01*
X60759186Y-38058270D01*
X60756941Y-38041101D01*
X60756108Y-38017161D01*
X60771710Y-37759230D01*
X60773544Y-37744126D01*
X60825038Y-37463127D01*
X60828679Y-37448353D01*
X60913674Y-37175596D01*
X60919070Y-37161370D01*
X61036314Y-36900864D01*
X61043385Y-36887391D01*
X61191182Y-36642905D01*
X61199825Y-36630383D01*
X61376016Y-36405493D01*
X61386106Y-36394105D01*
X61588105Y-36192106D01*
X61599493Y-36182016D01*
X61824383Y-36005825D01*
X61836905Y-35997182D01*
X62081391Y-35849385D01*
X62094860Y-35842316D01*
X62355373Y-35725069D01*
X62369592Y-35719675D01*
X62642359Y-35634678D01*
X62657121Y-35631040D01*
X62867352Y-35592514D01*
X62938126Y-35579544D01*
X62953230Y-35577710D01*
X63203929Y-35562545D01*
X63230639Y-35563802D01*
X63230859Y-35563805D01*
X63239730Y-35565186D01*
X63248632Y-35564022D01*
X63248635Y-35564022D01*
X63271251Y-35561064D01*
X63287589Y-35560000D01*
X122172672Y-35560000D01*
X122192057Y-35561500D01*
G37*
%TD.AperFunction*%
%TA.AperFunction,Conductor*%
G36*
X78936121Y-42636002D02*
G01*
X78982614Y-42689658D01*
X78994000Y-42742000D01*
X78994000Y-44202229D01*
X78998064Y-44216071D01*
X79011479Y-44218105D01*
X79021025Y-44216882D01*
X79031095Y-44214742D01*
X79237225Y-44152900D01*
X79246832Y-44149134D01*
X79440076Y-44054464D01*
X79448934Y-44049185D01*
X79624141Y-43924211D01*
X79632003Y-43917567D01*
X79784445Y-43765656D01*
X79791122Y-43757811D01*
X79909086Y-43593646D01*
X79965081Y-43549998D01*
X80035784Y-43543552D01*
X80098749Y-43576355D01*
X80118842Y-43601337D01*
X80154131Y-43658923D01*
X80168975Y-43683147D01*
X80316702Y-43853687D01*
X80490299Y-43997810D01*
X80494751Y-44000412D01*
X80494756Y-44000415D01*
X80647516Y-44089681D01*
X80685103Y-44111645D01*
X80895884Y-44192134D01*
X80900952Y-44193165D01*
X80900955Y-44193166D01*
X80949021Y-44202945D01*
X81116981Y-44237117D01*
X81122156Y-44237307D01*
X81122158Y-44237307D01*
X81337292Y-44245196D01*
X81337296Y-44245196D01*
X81342456Y-44245385D01*
X81347576Y-44244729D01*
X81347578Y-44244729D01*
X81416985Y-44235838D01*
X81566253Y-44216716D01*
X81571202Y-44215231D01*
X81571208Y-44215230D01*
X81777413Y-44153365D01*
X81777412Y-44153365D01*
X81782363Y-44151880D01*
X81934192Y-44077500D01*
X81980331Y-44054897D01*
X81980336Y-44054894D01*
X81984982Y-44052618D01*
X81989192Y-44049615D01*
X81989197Y-44049612D01*
X82164455Y-43924601D01*
X82164459Y-43924597D01*
X82168667Y-43921596D01*
X82328487Y-43762333D01*
X82449370Y-43594107D01*
X82505364Y-43550459D01*
X82576068Y-43544013D01*
X82639032Y-43576816D01*
X82659125Y-43601799D01*
X82706275Y-43678743D01*
X82706279Y-43678748D01*
X82708975Y-43683147D01*
X82856702Y-43853687D01*
X83030299Y-43997810D01*
X83034751Y-44000412D01*
X83034756Y-44000415D01*
X83187516Y-44089681D01*
X83225103Y-44111645D01*
X83435884Y-44192134D01*
X83440952Y-44193165D01*
X83440955Y-44193166D01*
X83489021Y-44202945D01*
X83656981Y-44237117D01*
X83662156Y-44237307D01*
X83662158Y-44237307D01*
X83877292Y-44245196D01*
X83877296Y-44245196D01*
X83882456Y-44245385D01*
X83887576Y-44244729D01*
X83887578Y-44244729D01*
X83956985Y-44235838D01*
X84106253Y-44216716D01*
X84111202Y-44215231D01*
X84111208Y-44215230D01*
X84317413Y-44153365D01*
X84317412Y-44153365D01*
X84322363Y-44151880D01*
X84474192Y-44077500D01*
X84520331Y-44054897D01*
X84520336Y-44054894D01*
X84524982Y-44052618D01*
X84529192Y-44049615D01*
X84529197Y-44049612D01*
X84704455Y-43924601D01*
X84704459Y-43924597D01*
X84708667Y-43921596D01*
X84868487Y-43762333D01*
X84989370Y-43594107D01*
X85045364Y-43550459D01*
X85116068Y-43544013D01*
X85179032Y-43576816D01*
X85199125Y-43601799D01*
X85246275Y-43678743D01*
X85246279Y-43678748D01*
X85248975Y-43683147D01*
X85396702Y-43853687D01*
X85570299Y-43997810D01*
X85574751Y-44000412D01*
X85574756Y-44000415D01*
X85727516Y-44089681D01*
X85765103Y-44111645D01*
X85975884Y-44192134D01*
X85980952Y-44193165D01*
X85980955Y-44193166D01*
X86029021Y-44202945D01*
X86196981Y-44237117D01*
X86202156Y-44237307D01*
X86202158Y-44237307D01*
X86417292Y-44245196D01*
X86417296Y-44245196D01*
X86422456Y-44245385D01*
X86427576Y-44244729D01*
X86427578Y-44244729D01*
X86496985Y-44235838D01*
X86646253Y-44216716D01*
X86752405Y-44184869D01*
X86823399Y-44184453D01*
X86883349Y-44222485D01*
X86913221Y-44286891D01*
X86914611Y-44305555D01*
X86914611Y-45112807D01*
X86894609Y-45180928D01*
X86877706Y-45201902D01*
X85868264Y-46211344D01*
X85805952Y-46245370D01*
X85766001Y-46247559D01*
X85605075Y-46230645D01*
X85522576Y-46238153D01*
X85414251Y-46248011D01*
X85414248Y-46248012D01*
X85408112Y-46248570D01*
X85402206Y-46250308D01*
X85402202Y-46250309D01*
X85324364Y-46273218D01*
X85218381Y-46304410D01*
X85212923Y-46307263D01*
X85212919Y-46307265D01*
X85122147Y-46354720D01*
X85043110Y-46396040D01*
X84888975Y-46519968D01*
X84761846Y-46671474D01*
X84758879Y-46676872D01*
X84758875Y-46676877D01*
X84723662Y-46740930D01*
X84666567Y-46844787D01*
X84664706Y-46850654D01*
X84664705Y-46850656D01*
X84613863Y-47010930D01*
X84606765Y-47033306D01*
X84584719Y-47229851D01*
X84585235Y-47235995D01*
X84600356Y-47416077D01*
X84586124Y-47485633D01*
X84563893Y-47515715D01*
X81057053Y-51022555D01*
X81054864Y-51025298D01*
X81054857Y-51025305D01*
X80995908Y-51099151D01*
X80972524Y-51128443D01*
X80893579Y-51291749D01*
X80852776Y-51468485D01*
X80852143Y-51649870D01*
X80891711Y-51826887D01*
X80894733Y-51833251D01*
X80895635Y-51835871D01*
X80902500Y-51876894D01*
X80902500Y-52498800D01*
X80882498Y-52566921D01*
X80828842Y-52613414D01*
X80758568Y-52623518D01*
X80693988Y-52594024D01*
X80669068Y-52564635D01*
X80601765Y-52454807D01*
X80601758Y-52454797D01*
X80599176Y-52450584D01*
X80444969Y-52270031D01*
X80264416Y-52115824D01*
X80260208Y-52113245D01*
X80260202Y-52113241D01*
X80066183Y-51994346D01*
X80061963Y-51991760D01*
X80057393Y-51989867D01*
X80057389Y-51989865D01*
X79847167Y-51902789D01*
X79847165Y-51902788D01*
X79842594Y-51900895D01*
X79762391Y-51881640D01*
X79616524Y-51846620D01*
X79616518Y-51846619D01*
X79611711Y-51845465D01*
X79375000Y-51826835D01*
X79138289Y-51845465D01*
X79133482Y-51846619D01*
X79133476Y-51846620D01*
X78987609Y-51881640D01*
X78907406Y-51900895D01*
X78902835Y-51902788D01*
X78902833Y-51902789D01*
X78692611Y-51989865D01*
X78692607Y-51989867D01*
X78688037Y-51991760D01*
X78683817Y-51994346D01*
X78489798Y-52113241D01*
X78489792Y-52113245D01*
X78485584Y-52115824D01*
X78305031Y-52270031D01*
X78150824Y-52450584D01*
X78148245Y-52454792D01*
X78148241Y-52454798D01*
X78121277Y-52498800D01*
X78026760Y-52653037D01*
X77935895Y-52872406D01*
X77880465Y-53103289D01*
X77861835Y-53340000D01*
X77862223Y-53344930D01*
X77862223Y-53344931D01*
X77863620Y-53362682D01*
X77849024Y-53432162D01*
X77827103Y-53461663D01*
X77395621Y-53893145D01*
X77385478Y-53902247D01*
X77355975Y-53925968D01*
X77323709Y-53964421D01*
X77320528Y-53968069D01*
X77318885Y-53969881D01*
X77316691Y-53972075D01*
X77289358Y-54005349D01*
X77288696Y-54006147D01*
X77228846Y-54077474D01*
X77226278Y-54082144D01*
X77222897Y-54086261D01*
X77207292Y-54115365D01*
X77179023Y-54168086D01*
X77178394Y-54169245D01*
X77136538Y-54245381D01*
X77136535Y-54245389D01*
X77133567Y-54250787D01*
X77131955Y-54255869D01*
X77129438Y-54260563D01*
X77102238Y-54349531D01*
X77101918Y-54350559D01*
X77073765Y-54439306D01*
X77073171Y-54444602D01*
X77071613Y-54449698D01*
X77062712Y-54537328D01*
X77062218Y-54542187D01*
X77062089Y-54543393D01*
X77056500Y-54593227D01*
X77056500Y-54596754D01*
X77056445Y-54597739D01*
X77055998Y-54603419D01*
X77051626Y-54646462D01*
X77055273Y-54685037D01*
X77055941Y-54692109D01*
X77056500Y-54703967D01*
X77056500Y-57539260D01*
X77033713Y-57611531D01*
X76927477Y-57763251D01*
X76925154Y-57768233D01*
X76925151Y-57768238D01*
X76833039Y-57965775D01*
X76830716Y-57970757D01*
X76771457Y-58191913D01*
X76770978Y-58197392D01*
X76766308Y-58250770D01*
X76740445Y-58316888D01*
X76729882Y-58328884D01*
X75906171Y-59152595D01*
X75843859Y-59186621D01*
X75817076Y-59189500D01*
X74347175Y-59189500D01*
X74279054Y-59169498D01*
X74232561Y-59115842D01*
X74222457Y-59045568D01*
X74232980Y-59010250D01*
X74296490Y-58874053D01*
X74300236Y-58863761D01*
X74356625Y-58653312D01*
X74358528Y-58642519D01*
X74377517Y-58425475D01*
X74377517Y-58414525D01*
X74358528Y-58197481D01*
X74356625Y-58186688D01*
X74300236Y-57976239D01*
X74296490Y-57965947D01*
X74204414Y-57768489D01*
X74198931Y-57758994D01*
X74162491Y-57706952D01*
X74152012Y-57698576D01*
X74138566Y-57705644D01*
X73154095Y-58690115D01*
X73091783Y-58724141D01*
X73020968Y-58719076D01*
X72975905Y-58690115D01*
X71990713Y-57704923D01*
X71978938Y-57698493D01*
X71966923Y-57707789D01*
X71931069Y-57758994D01*
X71925586Y-57768489D01*
X71860695Y-57907649D01*
X71813778Y-57960934D01*
X71745500Y-57980395D01*
X71677540Y-57959853D01*
X71631475Y-57905830D01*
X71620500Y-57854399D01*
X71620500Y-57332988D01*
X72343576Y-57332988D01*
X72350644Y-57346434D01*
X73052188Y-58047978D01*
X73066132Y-58055592D01*
X73067965Y-58055461D01*
X73074580Y-58051210D01*
X73780077Y-57345713D01*
X73786507Y-57333938D01*
X73777211Y-57321923D01*
X73726006Y-57286069D01*
X73716511Y-57280586D01*
X73519053Y-57188510D01*
X73508761Y-57184764D01*
X73298312Y-57128375D01*
X73287519Y-57126472D01*
X73070475Y-57107483D01*
X73059525Y-57107483D01*
X72842481Y-57126472D01*
X72831688Y-57128375D01*
X72621239Y-57184764D01*
X72610947Y-57188510D01*
X72413489Y-57280586D01*
X72403994Y-57286069D01*
X72351952Y-57322509D01*
X72343576Y-57332988D01*
X71620500Y-57332988D01*
X71620500Y-49845843D01*
X71621237Y-49832236D01*
X71624659Y-49800738D01*
X71624659Y-49800733D01*
X71625324Y-49794612D01*
X71620950Y-49744612D01*
X71620621Y-49739786D01*
X71620500Y-49737314D01*
X71620500Y-49734231D01*
X71619326Y-49722262D01*
X71616310Y-49691494D01*
X71616188Y-49690181D01*
X71608623Y-49603718D01*
X71608087Y-49597587D01*
X71606600Y-49592468D01*
X71606080Y-49587167D01*
X71579209Y-49498166D01*
X71578874Y-49497033D01*
X71554630Y-49413586D01*
X71554628Y-49413582D01*
X71552909Y-49407664D01*
X71550456Y-49402932D01*
X71548916Y-49397831D01*
X71505269Y-49315740D01*
X71504657Y-49314574D01*
X71464729Y-49237547D01*
X71461892Y-49232074D01*
X71458569Y-49227911D01*
X71456066Y-49223204D01*
X71397245Y-49151082D01*
X71396554Y-49150226D01*
X71365262Y-49111027D01*
X71362758Y-49108523D01*
X71362116Y-49107805D01*
X71358415Y-49103472D01*
X71331065Y-49069938D01*
X71295737Y-49040712D01*
X71286958Y-49032723D01*
X69625405Y-47371171D01*
X69591380Y-47308859D01*
X69588500Y-47282076D01*
X69588500Y-44309707D01*
X69608502Y-44241586D01*
X69662158Y-44195093D01*
X69670257Y-44191731D01*
X69690305Y-44184215D01*
X69697484Y-44178835D01*
X69697487Y-44178833D01*
X69787135Y-44111645D01*
X69806861Y-44096861D01*
X69894215Y-43980305D01*
X69917735Y-43917567D01*
X69932213Y-43878946D01*
X69974854Y-43822181D01*
X70041416Y-43797481D01*
X70110765Y-43812688D01*
X70145431Y-43840676D01*
X70156702Y-43853687D01*
X70330299Y-43997810D01*
X70334751Y-44000412D01*
X70334756Y-44000415D01*
X70487516Y-44089681D01*
X70525103Y-44111645D01*
X70735884Y-44192134D01*
X70740952Y-44193165D01*
X70740955Y-44193166D01*
X70789021Y-44202945D01*
X70956981Y-44237117D01*
X70962156Y-44237307D01*
X70962158Y-44237307D01*
X71177292Y-44245196D01*
X71177296Y-44245196D01*
X71182456Y-44245385D01*
X71187576Y-44244729D01*
X71187578Y-44244729D01*
X71256985Y-44235838D01*
X71406253Y-44216716D01*
X71411202Y-44215231D01*
X71411208Y-44215230D01*
X71617413Y-44153365D01*
X71617412Y-44153365D01*
X71622363Y-44151880D01*
X71774192Y-44077500D01*
X71820331Y-44054897D01*
X71820336Y-44054894D01*
X71824982Y-44052618D01*
X71829192Y-44049615D01*
X71829197Y-44049612D01*
X72004455Y-43924601D01*
X72004459Y-43924597D01*
X72008667Y-43921596D01*
X72168487Y-43762333D01*
X72289370Y-43594107D01*
X72345364Y-43550459D01*
X72416068Y-43544013D01*
X72479032Y-43576816D01*
X72499125Y-43601799D01*
X72546275Y-43678743D01*
X72546279Y-43678748D01*
X72548975Y-43683147D01*
X72696702Y-43853687D01*
X72870299Y-43997810D01*
X72874751Y-44000412D01*
X72874756Y-44000415D01*
X73027516Y-44089681D01*
X73065103Y-44111645D01*
X73275884Y-44192134D01*
X73280952Y-44193165D01*
X73280955Y-44193166D01*
X73329021Y-44202945D01*
X73496981Y-44237117D01*
X73502156Y-44237307D01*
X73502158Y-44237307D01*
X73717292Y-44245196D01*
X73717296Y-44245196D01*
X73722456Y-44245385D01*
X73727576Y-44244729D01*
X73727578Y-44244729D01*
X73796985Y-44235838D01*
X73946253Y-44216716D01*
X73951202Y-44215231D01*
X73951208Y-44215230D01*
X74157413Y-44153365D01*
X74157412Y-44153365D01*
X74162363Y-44151880D01*
X74314192Y-44077500D01*
X74360331Y-44054897D01*
X74360336Y-44054894D01*
X74364982Y-44052618D01*
X74369192Y-44049615D01*
X74369197Y-44049612D01*
X74544455Y-43924601D01*
X74544459Y-43924597D01*
X74548667Y-43921596D01*
X74708487Y-43762333D01*
X74829370Y-43594107D01*
X74885364Y-43550459D01*
X74956068Y-43544013D01*
X75019032Y-43576816D01*
X75039125Y-43601799D01*
X75086274Y-43678741D01*
X75086279Y-43678748D01*
X75088975Y-43683147D01*
X75092355Y-43687049D01*
X75092356Y-43687050D01*
X75160737Y-43765991D01*
X75190220Y-43830577D01*
X75191500Y-43848489D01*
X75191500Y-44510162D01*
X75171498Y-44578283D01*
X75154600Y-44599252D01*
X74231975Y-45521878D01*
X74169664Y-45555902D01*
X74098849Y-45550838D01*
X74061053Y-45528595D01*
X74045180Y-45515039D01*
X74041416Y-45511824D01*
X73838963Y-45387760D01*
X73834393Y-45385867D01*
X73834389Y-45385865D01*
X73624167Y-45298789D01*
X73624165Y-45298788D01*
X73619594Y-45296895D01*
X73517686Y-45272429D01*
X73393524Y-45242620D01*
X73393518Y-45242619D01*
X73388711Y-45241465D01*
X73152000Y-45222835D01*
X72915289Y-45241465D01*
X72910482Y-45242619D01*
X72910476Y-45242620D01*
X72786314Y-45272429D01*
X72684406Y-45296895D01*
X72679835Y-45298788D01*
X72679833Y-45298789D01*
X72469611Y-45385865D01*
X72469607Y-45385867D01*
X72465037Y-45387760D01*
X72460817Y-45390346D01*
X72266798Y-45509241D01*
X72266792Y-45509245D01*
X72262584Y-45511824D01*
X72082031Y-45666031D01*
X72078823Y-45669787D01*
X72074557Y-45674782D01*
X71927824Y-45846584D01*
X71925245Y-45850792D01*
X71925241Y-45850798D01*
X71853749Y-45967462D01*
X71803760Y-46049037D01*
X71801867Y-46053607D01*
X71801865Y-46053611D01*
X71728536Y-46230645D01*
X71712895Y-46268406D01*
X71706054Y-46296900D01*
X71658695Y-46494167D01*
X71657465Y-46499289D01*
X71638835Y-46736000D01*
X71657465Y-46972711D01*
X71658619Y-46977518D01*
X71658620Y-46977524D01*
X71693640Y-47123391D01*
X71712895Y-47203594D01*
X71714788Y-47208165D01*
X71714789Y-47208167D01*
X71800908Y-47416077D01*
X71803760Y-47422963D01*
X71806346Y-47427183D01*
X71925241Y-47621202D01*
X71925245Y-47621208D01*
X71927824Y-47625416D01*
X72082031Y-47805969D01*
X72262584Y-47960176D01*
X72266792Y-47962755D01*
X72266798Y-47962759D01*
X72460817Y-48081654D01*
X72465037Y-48084240D01*
X72469607Y-48086133D01*
X72469611Y-48086135D01*
X72679833Y-48173211D01*
X72684406Y-48175105D01*
X72764609Y-48194360D01*
X72910476Y-48229380D01*
X72910482Y-48229381D01*
X72915289Y-48230535D01*
X73152000Y-48249165D01*
X73388711Y-48230535D01*
X73393518Y-48229381D01*
X73393524Y-48229380D01*
X73539391Y-48194360D01*
X73619594Y-48175105D01*
X73624167Y-48173211D01*
X73834389Y-48086135D01*
X73834393Y-48086133D01*
X73838963Y-48084240D01*
X73843183Y-48081654D01*
X74037202Y-47962759D01*
X74037208Y-47962755D01*
X74041416Y-47960176D01*
X74221969Y-47805969D01*
X74225556Y-47801769D01*
X74236746Y-47788668D01*
X74296197Y-47749860D01*
X74332556Y-47744500D01*
X74382244Y-47744500D01*
X74395851Y-47745237D01*
X74427349Y-47748659D01*
X74427354Y-47748659D01*
X74433475Y-47749324D01*
X74459725Y-47747027D01*
X74483475Y-47744950D01*
X74488301Y-47744621D01*
X74490773Y-47744500D01*
X74493856Y-47744500D01*
X74505825Y-47743326D01*
X74536593Y-47740310D01*
X74537906Y-47740188D01*
X74582171Y-47736315D01*
X74630500Y-47732087D01*
X74635619Y-47730600D01*
X74640920Y-47730080D01*
X74729921Y-47703209D01*
X74731054Y-47702874D01*
X74814501Y-47678630D01*
X74814505Y-47678628D01*
X74820423Y-47676909D01*
X74825155Y-47674456D01*
X74830256Y-47672916D01*
X74835699Y-47670022D01*
X74912347Y-47629269D01*
X74913513Y-47628657D01*
X74990540Y-47588729D01*
X74996013Y-47585892D01*
X75000176Y-47582569D01*
X75004883Y-47580066D01*
X75077005Y-47521245D01*
X75077861Y-47520554D01*
X75117060Y-47489262D01*
X75119564Y-47486758D01*
X75120282Y-47486116D01*
X75124615Y-47482415D01*
X75158149Y-47455065D01*
X75187375Y-47419737D01*
X75195364Y-47410958D01*
X76869379Y-45736942D01*
X76879522Y-45727840D01*
X76904218Y-45707984D01*
X76909025Y-45704119D01*
X76941292Y-45665665D01*
X76944472Y-45662018D01*
X76946115Y-45660206D01*
X76948309Y-45658012D01*
X76975642Y-45624738D01*
X76976348Y-45623887D01*
X77032195Y-45557331D01*
X77036154Y-45552613D01*
X77038722Y-45547943D01*
X77042103Y-45543826D01*
X77085977Y-45462001D01*
X77086606Y-45460842D01*
X77128462Y-45384706D01*
X77128465Y-45384698D01*
X77131433Y-45379300D01*
X77133045Y-45374218D01*
X77135562Y-45369524D01*
X77162762Y-45280556D01*
X77163108Y-45279445D01*
X77163848Y-45277115D01*
X77191235Y-45190781D01*
X77191829Y-45185485D01*
X77193387Y-45180389D01*
X77202790Y-45087830D01*
X77202911Y-45086694D01*
X77207776Y-45043316D01*
X77208108Y-45040357D01*
X77208108Y-45040353D01*
X77208500Y-45036860D01*
X77208500Y-45033333D01*
X77208555Y-45032348D01*
X77209002Y-45026668D01*
X77213374Y-44983625D01*
X77209059Y-44937978D01*
X77208500Y-44926120D01*
X77208500Y-43854500D01*
X77228502Y-43786379D01*
X77241660Y-43770080D01*
X77241473Y-43769921D01*
X77244827Y-43765980D01*
X77248487Y-43762333D01*
X77251737Y-43757811D01*
X77363843Y-43601799D01*
X77369686Y-43593667D01*
X77425680Y-43550019D01*
X77496384Y-43543573D01*
X77559348Y-43576376D01*
X77579441Y-43601358D01*
X77626682Y-43678448D01*
X77632765Y-43686759D01*
X77773665Y-43849417D01*
X77781032Y-43856633D01*
X77946606Y-43994095D01*
X77955053Y-44000010D01*
X78140859Y-44108586D01*
X78150146Y-44113036D01*
X78351198Y-44189810D01*
X78361091Y-44192684D01*
X78468248Y-44214485D01*
X78482300Y-44213290D01*
X78486000Y-44202945D01*
X78486000Y-42742000D01*
X78506002Y-42673879D01*
X78559658Y-42627386D01*
X78612000Y-42616000D01*
X78868000Y-42616000D01*
X78936121Y-42636002D01*
G37*
%TD.AperFunction*%
%TA.AperFunction,Conductor*%
G36*
X77559032Y-41036816D02*
G01*
X77579125Y-41061799D01*
X77626275Y-41138743D01*
X77626279Y-41138748D01*
X77628975Y-41143147D01*
X77776702Y-41313687D01*
X77950299Y-41457810D01*
X77954751Y-41460412D01*
X77954756Y-41460415D01*
X78004555Y-41489515D01*
X78053278Y-41541154D01*
X78066349Y-41610937D01*
X78039617Y-41676709D01*
X78008131Y-41704920D01*
X78002471Y-41708485D01*
X77830373Y-41837700D01*
X77822666Y-41844543D01*
X77673984Y-42000129D01*
X77667498Y-42008139D01*
X77573798Y-42145498D01*
X77518887Y-42190501D01*
X77448362Y-42198672D01*
X77384615Y-42167418D01*
X77363918Y-42142934D01*
X77293634Y-42034291D01*
X77293632Y-42034288D01*
X77290826Y-42029951D01*
X77138977Y-41863071D01*
X77134926Y-41859872D01*
X77134922Y-41859868D01*
X76965966Y-41726434D01*
X76965962Y-41726432D01*
X76961911Y-41723232D01*
X76957383Y-41720732D01*
X76938535Y-41710328D01*
X76888564Y-41659896D01*
X76873792Y-41590453D01*
X76898908Y-41524047D01*
X76926259Y-41497441D01*
X76927506Y-41496552D01*
X76962354Y-41471695D01*
X77084455Y-41384601D01*
X77084459Y-41384597D01*
X77088667Y-41381596D01*
X77248487Y-41222333D01*
X77274166Y-41186596D01*
X77369370Y-41054107D01*
X77425364Y-41010459D01*
X77496068Y-41004013D01*
X77559032Y-41036816D01*
G37*
%TD.AperFunction*%
%TA.AperFunction,Conductor*%
G36*
X75018749Y-41036355D02*
G01*
X75038842Y-41061337D01*
X75055016Y-41087730D01*
X75088975Y-41143147D01*
X75236702Y-41313687D01*
X75410299Y-41457810D01*
X75414751Y-41460412D01*
X75414756Y-41460415D01*
X75464069Y-41489231D01*
X75512792Y-41540870D01*
X75525863Y-41610653D01*
X75499131Y-41676425D01*
X75468595Y-41703783D01*
X75466335Y-41704960D01*
X75285905Y-41840430D01*
X75130024Y-42003550D01*
X75127109Y-42007824D01*
X75127106Y-42007827D01*
X75033503Y-42145043D01*
X74978592Y-42190046D01*
X74908067Y-42198217D01*
X74844320Y-42166963D01*
X74823623Y-42142479D01*
X74753634Y-42034291D01*
X74753632Y-42034288D01*
X74750826Y-42029951D01*
X74598977Y-41863071D01*
X74594926Y-41859872D01*
X74594922Y-41859868D01*
X74425966Y-41726434D01*
X74425962Y-41726432D01*
X74421911Y-41723232D01*
X74417387Y-41720734D01*
X74417383Y-41720732D01*
X74398048Y-41710058D01*
X74348079Y-41659625D01*
X74333308Y-41590182D01*
X74358426Y-41523777D01*
X74385776Y-41497172D01*
X74544136Y-41384216D01*
X74552003Y-41377567D01*
X74704445Y-41225656D01*
X74711122Y-41217811D01*
X74829086Y-41053646D01*
X74885081Y-41009998D01*
X74955784Y-41003552D01*
X75018749Y-41036355D01*
G37*
%TD.AperFunction*%
%TD*%
M02*
