G04 #@! TF.GenerationSoftware,KiCad,Pcbnew,(6.0.0)*
G04 #@! TF.CreationDate,2022-05-07T20:36:52+02:00*
G04 #@! TF.ProjectId,RPi_Hat,5250695f-4861-4742-9e6b-696361645f70,rev?*
G04 #@! TF.SameCoordinates,Original*
G04 #@! TF.FileFunction,Paste,Top*
G04 #@! TF.FilePolarity,Positive*
%FSLAX46Y46*%
G04 Gerber Fmt 4.6, Leading zero omitted, Abs format (unit mm)*
G04 Created by KiCad (PCBNEW (6.0.0)) date 2022-05-07 20:36:52*
%MOMM*%
%LPD*%
G01*
G04 APERTURE LIST*
G04 Aperture macros list*
%AMRoundRect*
0 Rectangle with rounded corners*
0 $1 Rounding radius*
0 $2 $3 $4 $5 $6 $7 $8 $9 X,Y pos of 4 corners*
0 Add a 4 corners polygon primitive as box body*
4,1,4,$2,$3,$4,$5,$6,$7,$8,$9,$2,$3,0*
0 Add four circle primitives for the rounded corners*
1,1,$1+$1,$2,$3*
1,1,$1+$1,$4,$5*
1,1,$1+$1,$6,$7*
1,1,$1+$1,$8,$9*
0 Add four rect primitives between the rounded corners*
20,1,$1+$1,$2,$3,$4,$5,0*
20,1,$1+$1,$4,$5,$6,$7,0*
20,1,$1+$1,$6,$7,$8,$9,0*
20,1,$1+$1,$8,$9,$2,$3,0*%
G04 Aperture macros list end*
G04 #@! TA.AperFunction,Profile*
%ADD10C,0.100000*%
G04 #@! TD*
%ADD11RoundRect,0.250000X-0.650000X0.325000X-0.650000X-0.325000X0.650000X-0.325000X0.650000X0.325000X0*%
%ADD12RoundRect,0.250000X-0.325000X-0.650000X0.325000X-0.650000X0.325000X0.650000X-0.325000X0.650000X0*%
%ADD13R,1.750000X0.450000*%
G04 APERTURE END LIST*
D10*
X125222000Y-38052000D02*
G75*
G03*
X122222000Y-35052000I-3000001J-1D01*
G01*
X63246000Y-35052000D02*
G75*
G03*
X60246000Y-38052000I1J-3000001D01*
G01*
X60210000Y-91100000D02*
G75*
G03*
X63210000Y-94100000I3000001J1D01*
G01*
X122210000Y-94100000D02*
G75*
G03*
X125210000Y-91100000I-1J3000001D01*
G01*
X106210000Y-75100000D02*
X106210000Y-90100000D01*
X104210000Y-90100000D02*
G75*
G03*
X106210000Y-90100000I1000000J0D01*
G01*
X60210000Y-56600000D02*
X60210000Y-75600000D01*
X125210000Y-40600000D02*
X125210000Y-91100000D01*
X125222000Y-38052000D02*
X125210000Y-40600000D01*
X63246000Y-35052000D02*
X122222000Y-35052000D01*
X60246000Y-38052000D02*
X60210000Y-56600000D01*
X104210000Y-75100000D02*
X104210000Y-90100000D01*
X106210000Y-75100000D02*
G75*
G03*
X104210000Y-75100000I-1000000J0D01*
G01*
X60210000Y-75600000D02*
X60210000Y-91100000D01*
X63210000Y-94100000D02*
X122210000Y-94100000D01*
D11*
X93472000Y-84123000D03*
X93472000Y-87073000D03*
D12*
X73709000Y-55372000D03*
X76659000Y-55372000D03*
D13*
X80220000Y-63085000D03*
X80220000Y-63735000D03*
X80220000Y-64385000D03*
X80220000Y-65035000D03*
X80220000Y-65685000D03*
X80220000Y-66335000D03*
X80220000Y-66985000D03*
X80220000Y-67635000D03*
X80220000Y-68285000D03*
X80220000Y-68935000D03*
X80220000Y-69585000D03*
X80220000Y-70235000D03*
X80220000Y-70885000D03*
X80220000Y-71535000D03*
X87420000Y-71535000D03*
X87420000Y-70885000D03*
X87420000Y-70235000D03*
X87420000Y-69585000D03*
X87420000Y-68935000D03*
X87420000Y-68285000D03*
X87420000Y-67635000D03*
X87420000Y-66985000D03*
X87420000Y-66335000D03*
X87420000Y-65685000D03*
X87420000Y-65035000D03*
X87420000Y-64385000D03*
X87420000Y-63735000D03*
X87420000Y-63085000D03*
D11*
X69850000Y-84377000D03*
X69850000Y-87327000D03*
D12*
X89711000Y-61468000D03*
X92661000Y-61468000D03*
M02*
