%FSLAX45Y45*%
G04 Gerber Fmt 4.5, Leading zero omitted, Abs format (unit mm)*
G04 Created by KiCad (PCBNEW (6.0.0)) date 2022-05-09 08:38:40*
%MOMM*%
%LPD*%
G01*
G04 APERTURE LIST*
%TA.AperFunction,Profile*%
%ADD10C,0.100000*%
%TD*%
%ADD11C,0.200000*%
%ADD12C,0.300000*%
%ADD13C,0.320000*%
%ADD14C,0.350000*%
G04 APERTURE END LIST*
D10*
X18700000Y-3500000D02*
G75*
G03*
X18500000Y-3300000I-200000J0D01*
G01*
X14300000Y-10100000D02*
X14300000Y-3500000D01*
X14500000Y-3300000D02*
X18500000Y-3300000D01*
X18500000Y-10300000D02*
X14500000Y-10300000D01*
X14500000Y-3300000D02*
G75*
G03*
X14300000Y-3500000I0J-200000D01*
G01*
X18700000Y-3500000D02*
X18700000Y-10100000D01*
X18500000Y-10300000D02*
G75*
G03*
X18700000Y-10100000I0J200000D01*
G01*
X14300000Y-10100000D02*
G75*
G03*
X14500000Y-10300000I200000J0D01*
G01*
D11*
D12*
X17523600Y-3942500D02*
X17823600Y-4242500D01*
X17823600Y-3942500D02*
X17523600Y-4242500D01*
D13*
X14710000Y-3550000D02*
G75*
G03*
X14710000Y-3550000I-160000J0D01*
G01*
X14710000Y-10050000D02*
G75*
G03*
X14710000Y-10050000I-160000J0D01*
G01*
X18610000Y-3550000D02*
G75*
G03*
X18610000Y-3550000I-160000J0D01*
G01*
X18610000Y-10050000D02*
G75*
G03*
X18610000Y-10050000I-160000J0D01*
G01*
D14*
X14634000Y-8842000D02*
X14634000Y-9192000D01*
X14459000Y-9017000D02*
X14809000Y-9017000D01*
D11*
X14552619Y-10615476D02*
X14552619Y-10415476D01*
X14600238Y-10415476D01*
X14628809Y-10425000D01*
X14647857Y-10444048D01*
X14657381Y-10463095D01*
X14666905Y-10501190D01*
X14666905Y-10529762D01*
X14657381Y-10567857D01*
X14647857Y-10586905D01*
X14628809Y-10605952D01*
X14600238Y-10615476D01*
X14552619Y-10615476D01*
X14752619Y-10615476D02*
X14752619Y-10482143D01*
X14752619Y-10520238D02*
X14762143Y-10501190D01*
X14771667Y-10491667D01*
X14790714Y-10482143D01*
X14809762Y-10482143D01*
X14876428Y-10615476D02*
X14876428Y-10482143D01*
X14876428Y-10415476D02*
X14866905Y-10425000D01*
X14876428Y-10434524D01*
X14885952Y-10425000D01*
X14876428Y-10415476D01*
X14876428Y-10434524D01*
X15000238Y-10615476D02*
X14981190Y-10605952D01*
X14971667Y-10586905D01*
X14971667Y-10415476D01*
X15105000Y-10615476D02*
X15085952Y-10605952D01*
X15076428Y-10586905D01*
X15076428Y-10415476D01*
X15333571Y-10615476D02*
X15333571Y-10415476D01*
X15400238Y-10558333D01*
X15466905Y-10415476D01*
X15466905Y-10615476D01*
X15647857Y-10615476D02*
X15647857Y-10510714D01*
X15638333Y-10491667D01*
X15619286Y-10482143D01*
X15581190Y-10482143D01*
X15562143Y-10491667D01*
X15647857Y-10605952D02*
X15628809Y-10615476D01*
X15581190Y-10615476D01*
X15562143Y-10605952D01*
X15552619Y-10586905D01*
X15552619Y-10567857D01*
X15562143Y-10548810D01*
X15581190Y-10539286D01*
X15628809Y-10539286D01*
X15647857Y-10529762D01*
X15743095Y-10482143D02*
X15743095Y-10682143D01*
X15743095Y-10491667D02*
X15762143Y-10482143D01*
X15800238Y-10482143D01*
X15819286Y-10491667D01*
X15828809Y-10501190D01*
X15838333Y-10520238D01*
X15838333Y-10577381D01*
X15828809Y-10596429D01*
X15819286Y-10605952D01*
X15800238Y-10615476D01*
X15762143Y-10615476D01*
X15743095Y-10605952D01*
X15924048Y-10596429D02*
X15933571Y-10605952D01*
X15924048Y-10615476D01*
X15914524Y-10605952D01*
X15924048Y-10596429D01*
X15924048Y-10615476D01*
X15924048Y-10491667D02*
X15933571Y-10501190D01*
X15924048Y-10510714D01*
X15914524Y-10501190D01*
X15924048Y-10491667D01*
X15924048Y-10510714D01*
X14095000Y-10845000D02*
X14295000Y-11045000D01*
X14295000Y-10845000D02*
X14095000Y-11045000D01*
X14533571Y-10835476D02*
X14657381Y-10835476D01*
X14590714Y-10911667D01*
X14619286Y-10911667D01*
X14638333Y-10921190D01*
X14647857Y-10930714D01*
X14657381Y-10949762D01*
X14657381Y-10997381D01*
X14647857Y-11016429D01*
X14638333Y-11025952D01*
X14619286Y-11035476D01*
X14562143Y-11035476D01*
X14543095Y-11025952D01*
X14533571Y-11016429D01*
X14743095Y-11016429D02*
X14752619Y-11025952D01*
X14743095Y-11035476D01*
X14733571Y-11025952D01*
X14743095Y-11016429D01*
X14743095Y-11035476D01*
X14876428Y-10835476D02*
X14895476Y-10835476D01*
X14914524Y-10845000D01*
X14924048Y-10854524D01*
X14933571Y-10873571D01*
X14943095Y-10911667D01*
X14943095Y-10959286D01*
X14933571Y-10997381D01*
X14924048Y-11016429D01*
X14914524Y-11025952D01*
X14895476Y-11035476D01*
X14876428Y-11035476D01*
X14857381Y-11025952D01*
X14847857Y-11016429D01*
X14838333Y-10997381D01*
X14828809Y-10959286D01*
X14828809Y-10911667D01*
X14838333Y-10873571D01*
X14847857Y-10854524D01*
X14857381Y-10845000D01*
X14876428Y-10835476D01*
X15066905Y-10835476D02*
X15085952Y-10835476D01*
X15105000Y-10845000D01*
X15114524Y-10854524D01*
X15124048Y-10873571D01*
X15133571Y-10911667D01*
X15133571Y-10959286D01*
X15124048Y-10997381D01*
X15114524Y-11016429D01*
X15105000Y-11025952D01*
X15085952Y-11035476D01*
X15066905Y-11035476D01*
X15047857Y-11025952D01*
X15038333Y-11016429D01*
X15028809Y-10997381D01*
X15019286Y-10959286D01*
X15019286Y-10911667D01*
X15028809Y-10873571D01*
X15038333Y-10854524D01*
X15047857Y-10845000D01*
X15066905Y-10835476D01*
X15257381Y-10835476D02*
X15276428Y-10835476D01*
X15295476Y-10845000D01*
X15305000Y-10854524D01*
X15314524Y-10873571D01*
X15324048Y-10911667D01*
X15324048Y-10959286D01*
X15314524Y-10997381D01*
X15305000Y-11016429D01*
X15295476Y-11025952D01*
X15276428Y-11035476D01*
X15257381Y-11035476D01*
X15238333Y-11025952D01*
X15228809Y-11016429D01*
X15219286Y-10997381D01*
X15209762Y-10959286D01*
X15209762Y-10911667D01*
X15219286Y-10873571D01*
X15228809Y-10854524D01*
X15238333Y-10845000D01*
X15257381Y-10835476D01*
X15409762Y-11035476D02*
X15409762Y-10902143D01*
X15409762Y-10921190D02*
X15419286Y-10911667D01*
X15438333Y-10902143D01*
X15466905Y-10902143D01*
X15485952Y-10911667D01*
X15495476Y-10930714D01*
X15495476Y-11035476D01*
X15495476Y-10930714D02*
X15505000Y-10911667D01*
X15524048Y-10902143D01*
X15552619Y-10902143D01*
X15571667Y-10911667D01*
X15581190Y-10930714D01*
X15581190Y-11035476D01*
X15676428Y-11035476D02*
X15676428Y-10902143D01*
X15676428Y-10921190D02*
X15685952Y-10911667D01*
X15705000Y-10902143D01*
X15733571Y-10902143D01*
X15752619Y-10911667D01*
X15762143Y-10930714D01*
X15762143Y-11035476D01*
X15762143Y-10930714D02*
X15771667Y-10911667D01*
X15790714Y-10902143D01*
X15819286Y-10902143D01*
X15838333Y-10911667D01*
X15847857Y-10930714D01*
X15847857Y-11035476D01*
X16238333Y-10825952D02*
X16066905Y-11083095D01*
X16495476Y-10835476D02*
X16514524Y-10835476D01*
X16533571Y-10845000D01*
X16543095Y-10854524D01*
X16552619Y-10873571D01*
X16562143Y-10911667D01*
X16562143Y-10959286D01*
X16552619Y-10997381D01*
X16543095Y-11016429D01*
X16533571Y-11025952D01*
X16514524Y-11035476D01*
X16495476Y-11035476D01*
X16476428Y-11025952D01*
X16466905Y-11016429D01*
X16457381Y-10997381D01*
X16447857Y-10959286D01*
X16447857Y-10911667D01*
X16457381Y-10873571D01*
X16466905Y-10854524D01*
X16476428Y-10845000D01*
X16495476Y-10835476D01*
X16647857Y-11016429D02*
X16657381Y-11025952D01*
X16647857Y-11035476D01*
X16638333Y-11025952D01*
X16647857Y-11016429D01*
X16647857Y-11035476D01*
X16847857Y-11035476D02*
X16733571Y-11035476D01*
X16790714Y-11035476D02*
X16790714Y-10835476D01*
X16771667Y-10864048D01*
X16752619Y-10883095D01*
X16733571Y-10892619D01*
X17038333Y-11035476D02*
X16924048Y-11035476D01*
X16981190Y-11035476D02*
X16981190Y-10835476D01*
X16962143Y-10864048D01*
X16943095Y-10883095D01*
X16924048Y-10892619D01*
X17152619Y-10921190D02*
X17133571Y-10911667D01*
X17124048Y-10902143D01*
X17114524Y-10883095D01*
X17114524Y-10873571D01*
X17124048Y-10854524D01*
X17133571Y-10845000D01*
X17152619Y-10835476D01*
X17190714Y-10835476D01*
X17209762Y-10845000D01*
X17219286Y-10854524D01*
X17228810Y-10873571D01*
X17228810Y-10883095D01*
X17219286Y-10902143D01*
X17209762Y-10911667D01*
X17190714Y-10921190D01*
X17152619Y-10921190D01*
X17133571Y-10930714D01*
X17124048Y-10940238D01*
X17114524Y-10959286D01*
X17114524Y-10997381D01*
X17124048Y-11016429D01*
X17133571Y-11025952D01*
X17152619Y-11035476D01*
X17190714Y-11035476D01*
X17209762Y-11025952D01*
X17219286Y-11016429D01*
X17228810Y-10997381D01*
X17228810Y-10959286D01*
X17219286Y-10940238D01*
X17209762Y-10930714D01*
X17190714Y-10921190D01*
X17419286Y-11035476D02*
X17305000Y-11035476D01*
X17362143Y-11035476D02*
X17362143Y-10835476D01*
X17343095Y-10864048D01*
X17324048Y-10883095D01*
X17305000Y-10892619D01*
X17495476Y-10835476D02*
X17495476Y-10873571D01*
X17571667Y-10835476D02*
X17571667Y-10873571D01*
X17866905Y-11111667D02*
X17857381Y-11102143D01*
X17838333Y-11073571D01*
X17828810Y-11054524D01*
X17819286Y-11025952D01*
X17809762Y-10978333D01*
X17809762Y-10940238D01*
X17819286Y-10892619D01*
X17828810Y-10864048D01*
X17838333Y-10845000D01*
X17857381Y-10816429D01*
X17866905Y-10806905D01*
X18047857Y-11035476D02*
X17933571Y-11035476D01*
X17990714Y-11035476D02*
X17990714Y-10835476D01*
X17971667Y-10864048D01*
X17952619Y-10883095D01*
X17933571Y-10892619D01*
X18285952Y-11035476D02*
X18285952Y-10835476D01*
X18371667Y-11035476D02*
X18371667Y-10930714D01*
X18362143Y-10911667D01*
X18343095Y-10902143D01*
X18314524Y-10902143D01*
X18295476Y-10911667D01*
X18285952Y-10921190D01*
X18495476Y-11035476D02*
X18476429Y-11025952D01*
X18466905Y-11016429D01*
X18457381Y-10997381D01*
X18457381Y-10940238D01*
X18466905Y-10921190D01*
X18476429Y-10911667D01*
X18495476Y-10902143D01*
X18524048Y-10902143D01*
X18543095Y-10911667D01*
X18552619Y-10921190D01*
X18562143Y-10940238D01*
X18562143Y-10997381D01*
X18552619Y-11016429D01*
X18543095Y-11025952D01*
X18524048Y-11035476D01*
X18495476Y-11035476D01*
X18676429Y-11035476D02*
X18657381Y-11025952D01*
X18647857Y-11006905D01*
X18647857Y-10835476D01*
X18828810Y-11025952D02*
X18809762Y-11035476D01*
X18771667Y-11035476D01*
X18752619Y-11025952D01*
X18743095Y-11006905D01*
X18743095Y-10930714D01*
X18752619Y-10911667D01*
X18771667Y-10902143D01*
X18809762Y-10902143D01*
X18828810Y-10911667D01*
X18838333Y-10930714D01*
X18838333Y-10949762D01*
X18743095Y-10968810D01*
X18905000Y-11111667D02*
X18914524Y-11102143D01*
X18933571Y-11073571D01*
X18943095Y-11054524D01*
X18952619Y-11025952D01*
X18962143Y-10978333D01*
X18962143Y-10940238D01*
X18952619Y-10892619D01*
X18943095Y-10864048D01*
X18933571Y-10845000D01*
X18914524Y-10816429D01*
X18905000Y-10806905D01*
X19266905Y-11111667D02*
X19257381Y-11102143D01*
X19238333Y-11073571D01*
X19228810Y-11054524D01*
X19219286Y-11025952D01*
X19209762Y-10978333D01*
X19209762Y-10940238D01*
X19219286Y-10892619D01*
X19228810Y-10864048D01*
X19238333Y-10845000D01*
X19257381Y-10816429D01*
X19266905Y-10806905D01*
X19343095Y-10902143D02*
X19343095Y-11035476D01*
X19343095Y-10921190D02*
X19352619Y-10911667D01*
X19371667Y-10902143D01*
X19400238Y-10902143D01*
X19419286Y-10911667D01*
X19428810Y-10930714D01*
X19428810Y-11035476D01*
X19552619Y-11035476D02*
X19533571Y-11025952D01*
X19524048Y-11016429D01*
X19514524Y-10997381D01*
X19514524Y-10940238D01*
X19524048Y-10921190D01*
X19533571Y-10911667D01*
X19552619Y-10902143D01*
X19581190Y-10902143D01*
X19600238Y-10911667D01*
X19609762Y-10921190D01*
X19619286Y-10940238D01*
X19619286Y-10997381D01*
X19609762Y-11016429D01*
X19600238Y-11025952D01*
X19581190Y-11035476D01*
X19552619Y-11035476D01*
X19676429Y-10902143D02*
X19752619Y-10902143D01*
X19705000Y-10835476D02*
X19705000Y-11006905D01*
X19714524Y-11025952D01*
X19733571Y-11035476D01*
X19752619Y-11035476D01*
X19971667Y-10902143D02*
X19971667Y-11102143D01*
X19971667Y-10911667D02*
X19990714Y-10902143D01*
X20028810Y-10902143D01*
X20047857Y-10911667D01*
X20057381Y-10921190D01*
X20066905Y-10940238D01*
X20066905Y-10997381D01*
X20057381Y-11016429D01*
X20047857Y-11025952D01*
X20028810Y-11035476D01*
X19990714Y-11035476D01*
X19971667Y-11025952D01*
X20181190Y-11035476D02*
X20162143Y-11025952D01*
X20152619Y-11006905D01*
X20152619Y-10835476D01*
X20343095Y-11035476D02*
X20343095Y-10930714D01*
X20333571Y-10911667D01*
X20314524Y-10902143D01*
X20276429Y-10902143D01*
X20257381Y-10911667D01*
X20343095Y-11025952D02*
X20324048Y-11035476D01*
X20276429Y-11035476D01*
X20257381Y-11025952D01*
X20247857Y-11006905D01*
X20247857Y-10987857D01*
X20257381Y-10968810D01*
X20276429Y-10959286D01*
X20324048Y-10959286D01*
X20343095Y-10949762D01*
X20409762Y-10902143D02*
X20485952Y-10902143D01*
X20438333Y-10835476D02*
X20438333Y-11006905D01*
X20447857Y-11025952D01*
X20466905Y-11035476D01*
X20485952Y-11035476D01*
X20628810Y-11025952D02*
X20609762Y-11035476D01*
X20571667Y-11035476D01*
X20552619Y-11025952D01*
X20543095Y-11006905D01*
X20543095Y-10930714D01*
X20552619Y-10911667D01*
X20571667Y-10902143D01*
X20609762Y-10902143D01*
X20628810Y-10911667D01*
X20638333Y-10930714D01*
X20638333Y-10949762D01*
X20543095Y-10968810D01*
X20809762Y-11035476D02*
X20809762Y-10835476D01*
X20809762Y-11025952D02*
X20790714Y-11035476D01*
X20752619Y-11035476D01*
X20733571Y-11025952D01*
X20724048Y-11016429D01*
X20714524Y-10997381D01*
X20714524Y-10940238D01*
X20724048Y-10921190D01*
X20733571Y-10911667D01*
X20752619Y-10902143D01*
X20790714Y-10902143D01*
X20809762Y-10911667D01*
X20885952Y-11111667D02*
X20895476Y-11102143D01*
X20914524Y-11073571D01*
X20924048Y-11054524D01*
X20933571Y-11025952D01*
X20943095Y-10978333D01*
X20943095Y-10940238D01*
X20933571Y-10892619D01*
X20924048Y-10864048D01*
X20914524Y-10845000D01*
X20895476Y-10816429D01*
X20885952Y-10806905D01*
X14295000Y-11265000D02*
G75*
G03*
X14295000Y-11265000I-100000J0D01*
G01*
X14533571Y-11155476D02*
X14657381Y-11155476D01*
X14590714Y-11231667D01*
X14619286Y-11231667D01*
X14638333Y-11241190D01*
X14647857Y-11250714D01*
X14657381Y-11269762D01*
X14657381Y-11317381D01*
X14647857Y-11336428D01*
X14638333Y-11345952D01*
X14619286Y-11355476D01*
X14562143Y-11355476D01*
X14543095Y-11345952D01*
X14533571Y-11336428D01*
X14743095Y-11336428D02*
X14752619Y-11345952D01*
X14743095Y-11355476D01*
X14733571Y-11345952D01*
X14743095Y-11336428D01*
X14743095Y-11355476D01*
X14828809Y-11174524D02*
X14838333Y-11165000D01*
X14857381Y-11155476D01*
X14905000Y-11155476D01*
X14924048Y-11165000D01*
X14933571Y-11174524D01*
X14943095Y-11193571D01*
X14943095Y-11212619D01*
X14933571Y-11241190D01*
X14819286Y-11355476D01*
X14943095Y-11355476D01*
X15066905Y-11155476D02*
X15085952Y-11155476D01*
X15105000Y-11165000D01*
X15114524Y-11174524D01*
X15124048Y-11193571D01*
X15133571Y-11231667D01*
X15133571Y-11279286D01*
X15124048Y-11317381D01*
X15114524Y-11336428D01*
X15105000Y-11345952D01*
X15085952Y-11355476D01*
X15066905Y-11355476D01*
X15047857Y-11345952D01*
X15038333Y-11336428D01*
X15028809Y-11317381D01*
X15019286Y-11279286D01*
X15019286Y-11231667D01*
X15028809Y-11193571D01*
X15038333Y-11174524D01*
X15047857Y-11165000D01*
X15066905Y-11155476D01*
X15257381Y-11155476D02*
X15276428Y-11155476D01*
X15295476Y-11165000D01*
X15305000Y-11174524D01*
X15314524Y-11193571D01*
X15324048Y-11231667D01*
X15324048Y-11279286D01*
X15314524Y-11317381D01*
X15305000Y-11336428D01*
X15295476Y-11345952D01*
X15276428Y-11355476D01*
X15257381Y-11355476D01*
X15238333Y-11345952D01*
X15228809Y-11336428D01*
X15219286Y-11317381D01*
X15209762Y-11279286D01*
X15209762Y-11231667D01*
X15219286Y-11193571D01*
X15228809Y-11174524D01*
X15238333Y-11165000D01*
X15257381Y-11155476D01*
X15409762Y-11355476D02*
X15409762Y-11222143D01*
X15409762Y-11241190D02*
X15419286Y-11231667D01*
X15438333Y-11222143D01*
X15466905Y-11222143D01*
X15485952Y-11231667D01*
X15495476Y-11250714D01*
X15495476Y-11355476D01*
X15495476Y-11250714D02*
X15505000Y-11231667D01*
X15524048Y-11222143D01*
X15552619Y-11222143D01*
X15571667Y-11231667D01*
X15581190Y-11250714D01*
X15581190Y-11355476D01*
X15676428Y-11355476D02*
X15676428Y-11222143D01*
X15676428Y-11241190D02*
X15685952Y-11231667D01*
X15705000Y-11222143D01*
X15733571Y-11222143D01*
X15752619Y-11231667D01*
X15762143Y-11250714D01*
X15762143Y-11355476D01*
X15762143Y-11250714D02*
X15771667Y-11231667D01*
X15790714Y-11222143D01*
X15819286Y-11222143D01*
X15838333Y-11231667D01*
X15847857Y-11250714D01*
X15847857Y-11355476D01*
X16238333Y-11145952D02*
X16066905Y-11403095D01*
X16495476Y-11155476D02*
X16514524Y-11155476D01*
X16533571Y-11165000D01*
X16543095Y-11174524D01*
X16552619Y-11193571D01*
X16562143Y-11231667D01*
X16562143Y-11279286D01*
X16552619Y-11317381D01*
X16543095Y-11336428D01*
X16533571Y-11345952D01*
X16514524Y-11355476D01*
X16495476Y-11355476D01*
X16476428Y-11345952D01*
X16466905Y-11336428D01*
X16457381Y-11317381D01*
X16447857Y-11279286D01*
X16447857Y-11231667D01*
X16457381Y-11193571D01*
X16466905Y-11174524D01*
X16476428Y-11165000D01*
X16495476Y-11155476D01*
X16647857Y-11336428D02*
X16657381Y-11345952D01*
X16647857Y-11355476D01*
X16638333Y-11345952D01*
X16647857Y-11336428D01*
X16647857Y-11355476D01*
X16847857Y-11355476D02*
X16733571Y-11355476D01*
X16790714Y-11355476D02*
X16790714Y-11155476D01*
X16771667Y-11184048D01*
X16752619Y-11203095D01*
X16733571Y-11212619D01*
X16924048Y-11174524D02*
X16933571Y-11165000D01*
X16952619Y-11155476D01*
X17000238Y-11155476D01*
X17019286Y-11165000D01*
X17028810Y-11174524D01*
X17038333Y-11193571D01*
X17038333Y-11212619D01*
X17028810Y-11241190D01*
X16914524Y-11355476D01*
X17038333Y-11355476D01*
X17209762Y-11155476D02*
X17171667Y-11155476D01*
X17152619Y-11165000D01*
X17143095Y-11174524D01*
X17124048Y-11203095D01*
X17114524Y-11241190D01*
X17114524Y-11317381D01*
X17124048Y-11336428D01*
X17133571Y-11345952D01*
X17152619Y-11355476D01*
X17190714Y-11355476D01*
X17209762Y-11345952D01*
X17219286Y-11336428D01*
X17228810Y-11317381D01*
X17228810Y-11269762D01*
X17219286Y-11250714D01*
X17209762Y-11241190D01*
X17190714Y-11231667D01*
X17152619Y-11231667D01*
X17133571Y-11241190D01*
X17124048Y-11250714D01*
X17114524Y-11269762D01*
X17352619Y-11155476D02*
X17371667Y-11155476D01*
X17390714Y-11165000D01*
X17400238Y-11174524D01*
X17409762Y-11193571D01*
X17419286Y-11231667D01*
X17419286Y-11279286D01*
X17409762Y-11317381D01*
X17400238Y-11336428D01*
X17390714Y-11345952D01*
X17371667Y-11355476D01*
X17352619Y-11355476D01*
X17333571Y-11345952D01*
X17324048Y-11336428D01*
X17314524Y-11317381D01*
X17305000Y-11279286D01*
X17305000Y-11231667D01*
X17314524Y-11193571D01*
X17324048Y-11174524D01*
X17333571Y-11165000D01*
X17352619Y-11155476D01*
X17495476Y-11155476D02*
X17495476Y-11193571D01*
X17571667Y-11155476D02*
X17571667Y-11193571D01*
X17866905Y-11431667D02*
X17857381Y-11422143D01*
X17838333Y-11393571D01*
X17828810Y-11374524D01*
X17819286Y-11345952D01*
X17809762Y-11298333D01*
X17809762Y-11260238D01*
X17819286Y-11212619D01*
X17828810Y-11184048D01*
X17838333Y-11165000D01*
X17857381Y-11136429D01*
X17866905Y-11126905D01*
X18028810Y-11222143D02*
X18028810Y-11355476D01*
X17981190Y-11145952D02*
X17933571Y-11288809D01*
X18057381Y-11288809D01*
X18285952Y-11355476D02*
X18285952Y-11155476D01*
X18371667Y-11355476D02*
X18371667Y-11250714D01*
X18362143Y-11231667D01*
X18343095Y-11222143D01*
X18314524Y-11222143D01*
X18295476Y-11231667D01*
X18285952Y-11241190D01*
X18495476Y-11355476D02*
X18476429Y-11345952D01*
X18466905Y-11336428D01*
X18457381Y-11317381D01*
X18457381Y-11260238D01*
X18466905Y-11241190D01*
X18476429Y-11231667D01*
X18495476Y-11222143D01*
X18524048Y-11222143D01*
X18543095Y-11231667D01*
X18552619Y-11241190D01*
X18562143Y-11260238D01*
X18562143Y-11317381D01*
X18552619Y-11336428D01*
X18543095Y-11345952D01*
X18524048Y-11355476D01*
X18495476Y-11355476D01*
X18676429Y-11355476D02*
X18657381Y-11345952D01*
X18647857Y-11326905D01*
X18647857Y-11155476D01*
X18828810Y-11345952D02*
X18809762Y-11355476D01*
X18771667Y-11355476D01*
X18752619Y-11345952D01*
X18743095Y-11326905D01*
X18743095Y-11250714D01*
X18752619Y-11231667D01*
X18771667Y-11222143D01*
X18809762Y-11222143D01*
X18828810Y-11231667D01*
X18838333Y-11250714D01*
X18838333Y-11269762D01*
X18743095Y-11288809D01*
X18914524Y-11345952D02*
X18933571Y-11355476D01*
X18971667Y-11355476D01*
X18990714Y-11345952D01*
X19000238Y-11326905D01*
X19000238Y-11317381D01*
X18990714Y-11298333D01*
X18971667Y-11288809D01*
X18943095Y-11288809D01*
X18924048Y-11279286D01*
X18914524Y-11260238D01*
X18914524Y-11250714D01*
X18924048Y-11231667D01*
X18943095Y-11222143D01*
X18971667Y-11222143D01*
X18990714Y-11231667D01*
X19066905Y-11431667D02*
X19076429Y-11422143D01*
X19095476Y-11393571D01*
X19105000Y-11374524D01*
X19114524Y-11345952D01*
X19124048Y-11298333D01*
X19124048Y-11260238D01*
X19114524Y-11212619D01*
X19105000Y-11184048D01*
X19095476Y-11165000D01*
X19076429Y-11136429D01*
X19066905Y-11126905D01*
X19428810Y-11431667D02*
X19419286Y-11422143D01*
X19400238Y-11393571D01*
X19390714Y-11374524D01*
X19381190Y-11345952D01*
X19371667Y-11298333D01*
X19371667Y-11260238D01*
X19381190Y-11212619D01*
X19390714Y-11184048D01*
X19400238Y-11165000D01*
X19419286Y-11136429D01*
X19428810Y-11126905D01*
X19505000Y-11222143D02*
X19505000Y-11355476D01*
X19505000Y-11241190D02*
X19514524Y-11231667D01*
X19533571Y-11222143D01*
X19562143Y-11222143D01*
X19581190Y-11231667D01*
X19590714Y-11250714D01*
X19590714Y-11355476D01*
X19714524Y-11355476D02*
X19695476Y-11345952D01*
X19685952Y-11336428D01*
X19676429Y-11317381D01*
X19676429Y-11260238D01*
X19685952Y-11241190D01*
X19695476Y-11231667D01*
X19714524Y-11222143D01*
X19743095Y-11222143D01*
X19762143Y-11231667D01*
X19771667Y-11241190D01*
X19781190Y-11260238D01*
X19781190Y-11317381D01*
X19771667Y-11336428D01*
X19762143Y-11345952D01*
X19743095Y-11355476D01*
X19714524Y-11355476D01*
X19838333Y-11222143D02*
X19914524Y-11222143D01*
X19866905Y-11155476D02*
X19866905Y-11326905D01*
X19876429Y-11345952D01*
X19895476Y-11355476D01*
X19914524Y-11355476D01*
X20133571Y-11222143D02*
X20133571Y-11422143D01*
X20133571Y-11231667D02*
X20152619Y-11222143D01*
X20190714Y-11222143D01*
X20209762Y-11231667D01*
X20219286Y-11241190D01*
X20228810Y-11260238D01*
X20228810Y-11317381D01*
X20219286Y-11336428D01*
X20209762Y-11345952D01*
X20190714Y-11355476D01*
X20152619Y-11355476D01*
X20133571Y-11345952D01*
X20343095Y-11355476D02*
X20324048Y-11345952D01*
X20314524Y-11326905D01*
X20314524Y-11155476D01*
X20505000Y-11355476D02*
X20505000Y-11250714D01*
X20495476Y-11231667D01*
X20476429Y-11222143D01*
X20438333Y-11222143D01*
X20419286Y-11231667D01*
X20505000Y-11345952D02*
X20485952Y-11355476D01*
X20438333Y-11355476D01*
X20419286Y-11345952D01*
X20409762Y-11326905D01*
X20409762Y-11307857D01*
X20419286Y-11288809D01*
X20438333Y-11279286D01*
X20485952Y-11279286D01*
X20505000Y-11269762D01*
X20571667Y-11222143D02*
X20647857Y-11222143D01*
X20600238Y-11155476D02*
X20600238Y-11326905D01*
X20609762Y-11345952D01*
X20628810Y-11355476D01*
X20647857Y-11355476D01*
X20790714Y-11345952D02*
X20771667Y-11355476D01*
X20733571Y-11355476D01*
X20714524Y-11345952D01*
X20705000Y-11326905D01*
X20705000Y-11250714D01*
X20714524Y-11231667D01*
X20733571Y-11222143D01*
X20771667Y-11222143D01*
X20790714Y-11231667D01*
X20800238Y-11250714D01*
X20800238Y-11269762D01*
X20705000Y-11288809D01*
X20971667Y-11355476D02*
X20971667Y-11155476D01*
X20971667Y-11345952D02*
X20952619Y-11355476D01*
X20914524Y-11355476D01*
X20895476Y-11345952D01*
X20885952Y-11336428D01*
X20876429Y-11317381D01*
X20876429Y-11260238D01*
X20885952Y-11241190D01*
X20895476Y-11231667D01*
X20914524Y-11222143D01*
X20952619Y-11222143D01*
X20971667Y-11231667D01*
X21047857Y-11431667D02*
X21057381Y-11422143D01*
X21076429Y-11393571D01*
X21085952Y-11374524D01*
X21095476Y-11345952D01*
X21105000Y-11298333D01*
X21105000Y-11260238D01*
X21095476Y-11212619D01*
X21085952Y-11184048D01*
X21076429Y-11165000D01*
X21057381Y-11136429D01*
X21047857Y-11126905D01*
X14195000Y-11485000D02*
X14195000Y-11685000D01*
X14095000Y-11585000D02*
X14295000Y-11585000D01*
X14533571Y-11475476D02*
X14657381Y-11475476D01*
X14590714Y-11551667D01*
X14619286Y-11551667D01*
X14638333Y-11561190D01*
X14647857Y-11570714D01*
X14657381Y-11589762D01*
X14657381Y-11637381D01*
X14647857Y-11656428D01*
X14638333Y-11665952D01*
X14619286Y-11675476D01*
X14562143Y-11675476D01*
X14543095Y-11665952D01*
X14533571Y-11656428D01*
X14743095Y-11656428D02*
X14752619Y-11665952D01*
X14743095Y-11675476D01*
X14733571Y-11665952D01*
X14743095Y-11656428D01*
X14743095Y-11675476D01*
X14933571Y-11475476D02*
X14838333Y-11475476D01*
X14828809Y-11570714D01*
X14838333Y-11561190D01*
X14857381Y-11551667D01*
X14905000Y-11551667D01*
X14924048Y-11561190D01*
X14933571Y-11570714D01*
X14943095Y-11589762D01*
X14943095Y-11637381D01*
X14933571Y-11656428D01*
X14924048Y-11665952D01*
X14905000Y-11675476D01*
X14857381Y-11675476D01*
X14838333Y-11665952D01*
X14828809Y-11656428D01*
X15066905Y-11475476D02*
X15085952Y-11475476D01*
X15105000Y-11485000D01*
X15114524Y-11494524D01*
X15124048Y-11513571D01*
X15133571Y-11551667D01*
X15133571Y-11599286D01*
X15124048Y-11637381D01*
X15114524Y-11656428D01*
X15105000Y-11665952D01*
X15085952Y-11675476D01*
X15066905Y-11675476D01*
X15047857Y-11665952D01*
X15038333Y-11656428D01*
X15028809Y-11637381D01*
X15019286Y-11599286D01*
X15019286Y-11551667D01*
X15028809Y-11513571D01*
X15038333Y-11494524D01*
X15047857Y-11485000D01*
X15066905Y-11475476D01*
X15257381Y-11475476D02*
X15276428Y-11475476D01*
X15295476Y-11485000D01*
X15305000Y-11494524D01*
X15314524Y-11513571D01*
X15324048Y-11551667D01*
X15324048Y-11599286D01*
X15314524Y-11637381D01*
X15305000Y-11656428D01*
X15295476Y-11665952D01*
X15276428Y-11675476D01*
X15257381Y-11675476D01*
X15238333Y-11665952D01*
X15228809Y-11656428D01*
X15219286Y-11637381D01*
X15209762Y-11599286D01*
X15209762Y-11551667D01*
X15219286Y-11513571D01*
X15228809Y-11494524D01*
X15238333Y-11485000D01*
X15257381Y-11475476D01*
X15409762Y-11675476D02*
X15409762Y-11542143D01*
X15409762Y-11561190D02*
X15419286Y-11551667D01*
X15438333Y-11542143D01*
X15466905Y-11542143D01*
X15485952Y-11551667D01*
X15495476Y-11570714D01*
X15495476Y-11675476D01*
X15495476Y-11570714D02*
X15505000Y-11551667D01*
X15524048Y-11542143D01*
X15552619Y-11542143D01*
X15571667Y-11551667D01*
X15581190Y-11570714D01*
X15581190Y-11675476D01*
X15676428Y-11675476D02*
X15676428Y-11542143D01*
X15676428Y-11561190D02*
X15685952Y-11551667D01*
X15705000Y-11542143D01*
X15733571Y-11542143D01*
X15752619Y-11551667D01*
X15762143Y-11570714D01*
X15762143Y-11675476D01*
X15762143Y-11570714D02*
X15771667Y-11551667D01*
X15790714Y-11542143D01*
X15819286Y-11542143D01*
X15838333Y-11551667D01*
X15847857Y-11570714D01*
X15847857Y-11675476D01*
X16238333Y-11465952D02*
X16066905Y-11723095D01*
X16495476Y-11475476D02*
X16514524Y-11475476D01*
X16533571Y-11485000D01*
X16543095Y-11494524D01*
X16552619Y-11513571D01*
X16562143Y-11551667D01*
X16562143Y-11599286D01*
X16552619Y-11637381D01*
X16543095Y-11656428D01*
X16533571Y-11665952D01*
X16514524Y-11675476D01*
X16495476Y-11675476D01*
X16476428Y-11665952D01*
X16466905Y-11656428D01*
X16457381Y-11637381D01*
X16447857Y-11599286D01*
X16447857Y-11551667D01*
X16457381Y-11513571D01*
X16466905Y-11494524D01*
X16476428Y-11485000D01*
X16495476Y-11475476D01*
X16647857Y-11656428D02*
X16657381Y-11665952D01*
X16647857Y-11675476D01*
X16638333Y-11665952D01*
X16647857Y-11656428D01*
X16647857Y-11675476D01*
X16847857Y-11675476D02*
X16733571Y-11675476D01*
X16790714Y-11675476D02*
X16790714Y-11475476D01*
X16771667Y-11504048D01*
X16752619Y-11523095D01*
X16733571Y-11532619D01*
X16914524Y-11475476D02*
X17038333Y-11475476D01*
X16971667Y-11551667D01*
X17000238Y-11551667D01*
X17019286Y-11561190D01*
X17028810Y-11570714D01*
X17038333Y-11589762D01*
X17038333Y-11637381D01*
X17028810Y-11656428D01*
X17019286Y-11665952D01*
X17000238Y-11675476D01*
X16943095Y-11675476D01*
X16924048Y-11665952D01*
X16914524Y-11656428D01*
X17105000Y-11475476D02*
X17238333Y-11475476D01*
X17152619Y-11675476D01*
X17343095Y-11561190D02*
X17324048Y-11551667D01*
X17314524Y-11542143D01*
X17305000Y-11523095D01*
X17305000Y-11513571D01*
X17314524Y-11494524D01*
X17324048Y-11485000D01*
X17343095Y-11475476D01*
X17381190Y-11475476D01*
X17400238Y-11485000D01*
X17409762Y-11494524D01*
X17419286Y-11513571D01*
X17419286Y-11523095D01*
X17409762Y-11542143D01*
X17400238Y-11551667D01*
X17381190Y-11561190D01*
X17343095Y-11561190D01*
X17324048Y-11570714D01*
X17314524Y-11580238D01*
X17305000Y-11599286D01*
X17305000Y-11637381D01*
X17314524Y-11656428D01*
X17324048Y-11665952D01*
X17343095Y-11675476D01*
X17381190Y-11675476D01*
X17400238Y-11665952D01*
X17409762Y-11656428D01*
X17419286Y-11637381D01*
X17419286Y-11599286D01*
X17409762Y-11580238D01*
X17400238Y-11570714D01*
X17381190Y-11561190D01*
X17495476Y-11475476D02*
X17495476Y-11513571D01*
X17571667Y-11475476D02*
X17571667Y-11513571D01*
X17866905Y-11751667D02*
X17857381Y-11742143D01*
X17838333Y-11713571D01*
X17828810Y-11694524D01*
X17819286Y-11665952D01*
X17809762Y-11618333D01*
X17809762Y-11580238D01*
X17819286Y-11532619D01*
X17828810Y-11504048D01*
X17838333Y-11485000D01*
X17857381Y-11456428D01*
X17866905Y-11446905D01*
X18047857Y-11675476D02*
X17933571Y-11675476D01*
X17990714Y-11675476D02*
X17990714Y-11475476D01*
X17971667Y-11504048D01*
X17952619Y-11523095D01*
X17933571Y-11532619D01*
X18285952Y-11675476D02*
X18285952Y-11475476D01*
X18371667Y-11675476D02*
X18371667Y-11570714D01*
X18362143Y-11551667D01*
X18343095Y-11542143D01*
X18314524Y-11542143D01*
X18295476Y-11551667D01*
X18285952Y-11561190D01*
X18495476Y-11675476D02*
X18476429Y-11665952D01*
X18466905Y-11656428D01*
X18457381Y-11637381D01*
X18457381Y-11580238D01*
X18466905Y-11561190D01*
X18476429Y-11551667D01*
X18495476Y-11542143D01*
X18524048Y-11542143D01*
X18543095Y-11551667D01*
X18552619Y-11561190D01*
X18562143Y-11580238D01*
X18562143Y-11637381D01*
X18552619Y-11656428D01*
X18543095Y-11665952D01*
X18524048Y-11675476D01*
X18495476Y-11675476D01*
X18676429Y-11675476D02*
X18657381Y-11665952D01*
X18647857Y-11646905D01*
X18647857Y-11475476D01*
X18828810Y-11665952D02*
X18809762Y-11675476D01*
X18771667Y-11675476D01*
X18752619Y-11665952D01*
X18743095Y-11646905D01*
X18743095Y-11570714D01*
X18752619Y-11551667D01*
X18771667Y-11542143D01*
X18809762Y-11542143D01*
X18828810Y-11551667D01*
X18838333Y-11570714D01*
X18838333Y-11589762D01*
X18743095Y-11608809D01*
X18905000Y-11751667D02*
X18914524Y-11742143D01*
X18933571Y-11713571D01*
X18943095Y-11694524D01*
X18952619Y-11665952D01*
X18962143Y-11618333D01*
X18962143Y-11580238D01*
X18952619Y-11532619D01*
X18943095Y-11504048D01*
X18933571Y-11485000D01*
X18914524Y-11456428D01*
X18905000Y-11446905D01*
X19266905Y-11751667D02*
X19257381Y-11742143D01*
X19238333Y-11713571D01*
X19228810Y-11694524D01*
X19219286Y-11665952D01*
X19209762Y-11618333D01*
X19209762Y-11580238D01*
X19219286Y-11532619D01*
X19228810Y-11504048D01*
X19238333Y-11485000D01*
X19257381Y-11456428D01*
X19266905Y-11446905D01*
X19343095Y-11542143D02*
X19343095Y-11675476D01*
X19343095Y-11561190D02*
X19352619Y-11551667D01*
X19371667Y-11542143D01*
X19400238Y-11542143D01*
X19419286Y-11551667D01*
X19428810Y-11570714D01*
X19428810Y-11675476D01*
X19552619Y-11675476D02*
X19533571Y-11665952D01*
X19524048Y-11656428D01*
X19514524Y-11637381D01*
X19514524Y-11580238D01*
X19524048Y-11561190D01*
X19533571Y-11551667D01*
X19552619Y-11542143D01*
X19581190Y-11542143D01*
X19600238Y-11551667D01*
X19609762Y-11561190D01*
X19619286Y-11580238D01*
X19619286Y-11637381D01*
X19609762Y-11656428D01*
X19600238Y-11665952D01*
X19581190Y-11675476D01*
X19552619Y-11675476D01*
X19676429Y-11542143D02*
X19752619Y-11542143D01*
X19705000Y-11475476D02*
X19705000Y-11646905D01*
X19714524Y-11665952D01*
X19733571Y-11675476D01*
X19752619Y-11675476D01*
X19971667Y-11542143D02*
X19971667Y-11742143D01*
X19971667Y-11551667D02*
X19990714Y-11542143D01*
X20028810Y-11542143D01*
X20047857Y-11551667D01*
X20057381Y-11561190D01*
X20066905Y-11580238D01*
X20066905Y-11637381D01*
X20057381Y-11656428D01*
X20047857Y-11665952D01*
X20028810Y-11675476D01*
X19990714Y-11675476D01*
X19971667Y-11665952D01*
X20181190Y-11675476D02*
X20162143Y-11665952D01*
X20152619Y-11646905D01*
X20152619Y-11475476D01*
X20343095Y-11675476D02*
X20343095Y-11570714D01*
X20333571Y-11551667D01*
X20314524Y-11542143D01*
X20276429Y-11542143D01*
X20257381Y-11551667D01*
X20343095Y-11665952D02*
X20324048Y-11675476D01*
X20276429Y-11675476D01*
X20257381Y-11665952D01*
X20247857Y-11646905D01*
X20247857Y-11627857D01*
X20257381Y-11608809D01*
X20276429Y-11599286D01*
X20324048Y-11599286D01*
X20343095Y-11589762D01*
X20409762Y-11542143D02*
X20485952Y-11542143D01*
X20438333Y-11475476D02*
X20438333Y-11646905D01*
X20447857Y-11665952D01*
X20466905Y-11675476D01*
X20485952Y-11675476D01*
X20628810Y-11665952D02*
X20609762Y-11675476D01*
X20571667Y-11675476D01*
X20552619Y-11665952D01*
X20543095Y-11646905D01*
X20543095Y-11570714D01*
X20552619Y-11551667D01*
X20571667Y-11542143D01*
X20609762Y-11542143D01*
X20628810Y-11551667D01*
X20638333Y-11570714D01*
X20638333Y-11589762D01*
X20543095Y-11608809D01*
X20809762Y-11675476D02*
X20809762Y-11475476D01*
X20809762Y-11665952D02*
X20790714Y-11675476D01*
X20752619Y-11675476D01*
X20733571Y-11665952D01*
X20724048Y-11656428D01*
X20714524Y-11637381D01*
X20714524Y-11580238D01*
X20724048Y-11561190D01*
X20733571Y-11551667D01*
X20752619Y-11542143D01*
X20790714Y-11542143D01*
X20809762Y-11551667D01*
X20885952Y-11751667D02*
X20895476Y-11742143D01*
X20914524Y-11713571D01*
X20924048Y-11694524D01*
X20933571Y-11665952D01*
X20943095Y-11618333D01*
X20943095Y-11580238D01*
X20933571Y-11532619D01*
X20924048Y-11504048D01*
X20914524Y-11485000D01*
X20895476Y-11456428D01*
X20885952Y-11446905D01*
M02*
