%TF.GenerationSoftware,KiCad,Pcbnew,(6.0.0)*%
%TF.CreationDate,2022-05-13T15:13:29+02:00*%
%TF.ProjectId,RPi_Hat,5250695f-4861-4742-9e6b-696361645f70,rev?*%
%TF.SameCoordinates,Original*%
%TF.FileFunction,Copper,L2,Bot*%
%TF.FilePolarity,Positive*%
%FSLAX46Y46*%
G04 Gerber Fmt 4.6, Leading zero omitted, Abs format (unit mm)*
G04 Created by KiCad (PCBNEW (6.0.0)) date 2022-05-13 15:13:29*
%MOMM*%
%LPD*%
G01*
G04 APERTURE LIST*
G04 Aperture macros list*
%AMRoundRect*
0 Rectangle with rounded corners*
0 $1 Rounding radius*
0 $2 $3 $4 $5 $6 $7 $8 $9 X,Y pos of 4 corners*
0 Add a 4 corners polygon primitive as box body*
4,1,4,$2,$3,$4,$5,$6,$7,$8,$9,$2,$3,0*
0 Add four circle primitives for the rounded corners*
1,1,$1+$1,$2,$3*
1,1,$1+$1,$4,$5*
1,1,$1+$1,$6,$7*
1,1,$1+$1,$8,$9*
0 Add four rect primitives between the rounded corners*
20,1,$1+$1,$2,$3,$4,$5,0*
20,1,$1+$1,$4,$5,$6,$7,0*
20,1,$1+$1,$6,$7,$8,$9,0*
20,1,$1+$1,$8,$9,$2,$3,0*%
G04 Aperture macros list end*
%TA.AperFunction,ComponentPad*%
%ADD10R,1.727200X1.727200*%
%TD*%
%TA.AperFunction,ComponentPad*%
%ADD11O,1.727200X1.727200*%
%TD*%
%TA.AperFunction,ComponentPad*%
%ADD12RoundRect,0.312500X0.437500X0.687500X-0.437500X0.687500X-0.437500X-0.687500X0.437500X-0.687500X0*%
%TD*%
%TA.AperFunction,ComponentPad*%
%ADD13O,1.500000X2.000000*%
%TD*%
%TA.AperFunction,ComponentPad*%
%ADD14RoundRect,0.312500X0.687500X-0.437500X0.687500X0.437500X-0.687500X0.437500X-0.687500X-0.437500X0*%
%TD*%
%TA.AperFunction,ComponentPad*%
%ADD15O,2.000000X1.500000*%
%TD*%
%TA.AperFunction,ComponentPad*%
%ADD16C,1.600000*%
%TD*%
%TA.AperFunction,ComponentPad*%
%ADD17O,1.600000X1.600000*%
%TD*%
%TA.AperFunction,ComponentPad*%
%ADD18R,1.700000X1.700000*%
%TD*%
%TA.AperFunction,ComponentPad*%
%ADD19C,2.000000*%
%TD*%
%TA.AperFunction,ComponentPad*%
%ADD20RoundRect,0.312500X-0.787500X0.437500X-0.787500X-0.437500X0.787500X-0.437500X0.787500X0.437500X0*%
%TD*%
%TA.AperFunction,ComponentPad*%
%ADD21RoundRect,0.312500X0.787500X-0.437500X0.787500X0.437500X-0.787500X0.437500X-0.787500X-0.437500X0*%
%TD*%
%TA.AperFunction,ComponentPad*%
%ADD22RoundRect,0.400000X-0.400000X1.600000X-0.400000X-1.600000X0.400000X-1.600000X0.400000X1.600000X0*%
%TD*%
%TA.AperFunction,SMDPad,CuDef*%
%ADD23C,1.000000*%
%TD*%
%TA.AperFunction,SMDPad,CuDef*%
%ADD24C,2.000000*%
%TD*%
%TA.AperFunction,ViaPad*%
%ADD25C,1.600000*%
%TD*%
%TA.AperFunction,ViaPad*%
%ADD26C,2.000000*%
%TD*%
%TA.AperFunction,Conductor*%
%ADD27C,1.000000*%
%TD*%
%TA.AperFunction,Conductor*%
%ADD28C,0.600000*%
%TD*%
G04 APERTURE END LIST*
D10*
%TO.P,J6,1,3.3V*%
%TO.N,+3.3VA*%
X68580000Y-42870000D03*
D11*
%TO.P,J6,2,5V*%
%TO.N,+5V*%
X68580000Y-40330000D03*
%TO.P,J6,3,BCM2_SDA*%
%TO.N,SDA*%
X71120000Y-42870000D03*
%TO.P,J6,4,5V*%
%TO.N,+5V*%
X71120000Y-40330000D03*
%TO.P,J6,5,BCM3_SCL*%
%TO.N,SCL*%
X73660000Y-42870000D03*
%TO.P,J6,6,GND*%
%TO.N,GND*%
X73660000Y-40330000D03*
%TO.P,J6,7,BCM4_GPCLK0*%
%TO.N,unconnected-(J6-Pad7)*%
X76200000Y-42870000D03*
%TO.P,J6,8,BCM14_TXD*%
%TO.N,/RPi_GPIO/BCM14_TXD*%
X76200000Y-40330000D03*
%TO.P,J6,9,GND*%
%TO.N,GND*%
X78740000Y-42870000D03*
%TO.P,J6,10,BCM15_RXD*%
%TO.N,/RPi_GPIO/BCM15_RXD*%
X78740000Y-40330000D03*
%TO.P,J6,11,BCM17*%
%TO.N,unconnected-(J6-Pad11)*%
X81280000Y-42870000D03*
%TO.P,J6,12,BCM18_PCM_C*%
%TO.N,unconnected-(J6-Pad12)*%
X81280000Y-40330000D03*
%TO.P,J6,13,BCM27*%
%TO.N,cmd_relais*%
X83820000Y-42870000D03*
%TO.P,J6,14,GND*%
%TO.N,unconnected-(J6-Pad14)*%
X83820000Y-40330000D03*
%TO.P,J6,15,BCM22*%
%TO.N,/RPi_GPIO/cmd_relais_RPI*%
X86360000Y-42870000D03*
%TO.P,J6,16,BCM23*%
%TO.N,unconnected-(J6-Pad16)*%
X86360000Y-40330000D03*
%TO.P,J6,17,3.3V*%
%TO.N,unconnected-(J6-Pad17)*%
X88900000Y-42870000D03*
%TO.P,J6,18,BCM24*%
%TO.N,unconnected-(J6-Pad18)*%
X88900000Y-40330000D03*
%TO.P,J6,19,BCM10_MOSI*%
%TO.N,MOSI*%
X91440000Y-42870000D03*
%TO.P,J6,20,GND*%
%TO.N,unconnected-(J6-Pad20)*%
X91440000Y-40330000D03*
%TO.P,J6,21,BCM9_MISO*%
%TO.N,MISO*%
X93980000Y-42870000D03*
%TO.P,J6,22,BCM25*%
%TO.N,INT*%
X93980000Y-40330000D03*
%TO.P,J6,23,BCM11_SCLK*%
%TO.N,CLK*%
X96520000Y-42870000D03*
%TO.P,J6,24,BCM8_CE0*%
%TO.N,CS*%
X96520000Y-40330000D03*
%TO.P,J6,25,GND*%
%TO.N,GND*%
X99060000Y-42870000D03*
%TO.P,J6,26,BCM7_CE1*%
%TO.N,unconnected-(J6-Pad26)*%
X99060000Y-40330000D03*
%TO.P,J6,27,BCM0_ID_SD*%
%TO.N,unconnected-(J6-Pad27)*%
X101600000Y-42870000D03*
%TO.P,J6,28,BCM1_ID_SC*%
%TO.N,unconnected-(J6-Pad28)*%
X101600000Y-40330000D03*
%TO.P,J6,29,BCM5*%
%TO.N,/RPi_GPIO/Starter*%
X104140000Y-42870000D03*
%TO.P,J6,30,GND*%
%TO.N,unconnected-(J6-Pad30)*%
X104140000Y-40330000D03*
%TO.P,J6,31,BCM6*%
%TO.N,unconnected-(J6-Pad31)*%
X106680000Y-42870000D03*
%TO.P,J6,32,BCM12_PWM0*%
%TO.N,unconnected-(J6-Pad32)*%
X106680000Y-40330000D03*
%TO.P,J6,33,BCM13_PWM1*%
%TO.N,unconnected-(J6-Pad33)*%
X109220000Y-42870000D03*
%TO.P,J6,34,GND*%
%TO.N,unconnected-(J6-Pad34)*%
X109220000Y-40330000D03*
%TO.P,J6,35,BCM19_MISO_PCM_FS*%
%TO.N,unconnected-(J6-Pad35)*%
X111760000Y-42870000D03*
%TO.P,J6,36,BCM16*%
%TO.N,unconnected-(J6-Pad36)*%
X111760000Y-40330000D03*
%TO.P,J6,37,BCM26*%
%TO.N,unconnected-(J6-Pad37)*%
X114300000Y-42870000D03*
%TO.P,J6,38,BCM20_MOSI_PCM_DI*%
%TO.N,unconnected-(J6-Pad38)*%
X114300000Y-40330000D03*
%TO.P,J6,39,GND*%
%TO.N,unconnected-(J6-Pad39)*%
X116840000Y-42870000D03*
%TO.P,J6,40,BCM21_SCLK_PCM_DO*%
%TO.N,unconnected-(J6-Pad40)*%
X116840000Y-40330000D03*
%TD*%
D12*
%TO.P,J2,1,Pin_1*%
%TO.N,GND*%
X80391000Y-48260000D03*
D13*
%TO.P,J2,2,Pin_2*%
%TO.N,SCL*%
X78391000Y-48260000D03*
%TO.P,J2,3,Pin_3*%
%TO.N,SDA*%
X76391000Y-48260000D03*
%TO.P,J2,4,Pin_4*%
%TO.N,Net-(J2-Pad4)*%
X74391000Y-48260000D03*
%TD*%
D14*
%TO.P,J3,1,Pin_1*%
%TO.N,GND*%
X66760000Y-80756000D03*
D15*
%TO.P,J3,2,Pin_2*%
%TO.N,/RPi_GPIO/Starter*%
X66760000Y-78756000D03*
%TD*%
D16*
%TO.P,C2,1*%
%TO.N,+5V*%
X88305000Y-58420000D03*
%TO.P,C2,2*%
%TO.N,GND*%
X93305000Y-58420000D03*
%TD*%
%TO.P,C1,1*%
%TO.N,GND*%
X73065000Y-58420000D03*
%TO.P,C1,2*%
%TO.N,+3.3VA*%
X78065000Y-58420000D03*
%TD*%
%TO.P,R2,1*%
%TO.N,+5V*%
X92710000Y-64516000D03*
D17*
%TO.P,R2,2*%
%TO.N,Net-(R2-Pad2)*%
X92710000Y-74676000D03*
%TD*%
D16*
%TO.P,Y1,1,1*%
%TO.N,Net-(C3-Pad1)*%
X79175000Y-76835000D03*
%TO.P,Y1,2,2*%
%TO.N,Net-(C4-Pad1)*%
X84075000Y-76835000D03*
%TD*%
%TO.P,R1,1*%
%TO.N,can_L*%
X75946000Y-66548000D03*
D17*
%TO.P,R1,2*%
%TO.N,can_H*%
X75946000Y-64008000D03*
%TD*%
D14*
%TO.P,J1,1,Pin_1*%
%TO.N,cmd_relais*%
X66548000Y-61976000D03*
D15*
%TO.P,J1,2,Pin_2*%
%TO.N,/RPi_GPIO/cmd_relais_RPI*%
X66548000Y-59976000D03*
%TD*%
D16*
%TO.P,C4,1*%
%TO.N,Net-(C4-Pad1)*%
X90170000Y-83225000D03*
%TO.P,C4,2*%
%TO.N,GND*%
X90170000Y-88225000D03*
%TD*%
D18*
%TO.P,J4,1,Pin_1*%
%TO.N,Net-(J2-Pad4)*%
X69850000Y-46736000D03*
D19*
%TO.P,J4,2,Pin_2*%
X69850000Y-49276000D03*
%TO.P,J4,3,Pin_3*%
%TO.N,+3.3VA*%
X67310000Y-46736000D03*
%TO.P,J4,4,Pin_4*%
%TO.N,+5V*%
X67310000Y-49276000D03*
%TD*%
D16*
%TO.P,C3,1*%
%TO.N,Net-(C3-Pad1)*%
X73025000Y-83225000D03*
%TO.P,C3,2*%
%TO.N,GND*%
X73025000Y-88225000D03*
%TD*%
D20*
%TO.P,J5,1,Pin_1*%
%TO.N,can_H*%
X68626000Y-67564000D03*
D21*
%TO.P,J5,2,Pin_2*%
%TO.N,+5V*%
X66026000Y-67564000D03*
D20*
%TO.P,J5,3,Pin_3*%
%TO.N,can_L*%
X68626000Y-69564000D03*
D21*
%TO.P,J5,4,Pin_4*%
%TO.N,cmd_relais*%
X66026000Y-69564000D03*
D20*
%TO.P,J5,5,Pin_5*%
%TO.N,unconnected-(J5-Pad5)*%
X68626000Y-71564000D03*
D21*
%TO.P,J5,6,Pin_6*%
%TO.N,GND*%
X66026000Y-71564000D03*
%TD*%
D22*
%TO.P,U1,1,VCC*%
%TO.N,+3.3VA*%
X116315000Y-48944000D03*
%TO.P,U1,2,DOUT*%
%TO.N,/RPi_GPIO/BCM15_RXD*%
X114315000Y-48944000D03*
%TO.P,U1,3,DIN*%
%TO.N,/RPi_GPIO/BCM14_TXD*%
X112315000Y-48944000D03*
%TO.P,U1,4,DIO12*%
%TO.N,unconnected-(U1-Pad4)*%
X110315000Y-48944000D03*
%TO.P,U1,5,RST*%
%TO.N,unconnected-(U1-Pad5)*%
X108315000Y-48944000D03*
%TO.P,U1,6,RSSI_PWM_/DIO10*%
%TO.N,unconnected-(U1-Pad6)*%
X106315000Y-48944000D03*
%TO.P,U1,7,DIO11*%
%TO.N,unconnected-(U1-Pad7)*%
X104315000Y-48944000D03*
%TO.P,U1,8,RESERVED*%
%TO.N,unconnected-(U1-Pad8)*%
X102315000Y-48944000D03*
%TO.P,U1,9,!DTR_/_SLEEP_RQ/_DIO8*%
%TO.N,unconnected-(U1-Pad9)*%
X100315000Y-48944000D03*
%TO.P,U1,10,GND*%
%TO.N,GND*%
X98315000Y-48944000D03*
%TO.P,U1,11,DIO4*%
%TO.N,unconnected-(U1-Pad11)*%
X98315000Y-70944000D03*
%TO.P,U1,12,!CTS_/_DIO7*%
%TO.N,unconnected-(U1-Pad12)*%
X100315000Y-70944000D03*
%TO.P,U1,13,ON_/_!SLEEP*%
%TO.N,unconnected-(U1-Pad13)*%
X102315000Y-70944000D03*
%TO.P,U1,14,VREF*%
%TO.N,unconnected-(U1-Pad14)*%
X104315000Y-70944000D03*
%TO.P,U1,15,Associate_/_DIO5*%
%TO.N,unconnected-(U1-Pad15)*%
X106315000Y-70944000D03*
%TO.P,U1,16,!RTS_/_DIO6_*%
%TO.N,unconnected-(U1-Pad16)*%
X108315000Y-70944000D03*
%TO.P,U1,17,AD3_/_DIO3*%
%TO.N,unconnected-(U1-Pad17)*%
X110315000Y-70944000D03*
%TO.P,U1,18,AD2_/_DIO2*%
%TO.N,unconnected-(U1-Pad18)*%
X112315000Y-70944000D03*
%TO.P,U1,19,AD1_/_DIO1*%
%TO.N,unconnected-(U1-Pad19)*%
X114315000Y-70944000D03*
%TO.P,U1,20,AD0_/_DIO0_/Com8Button*%
%TO.N,unconnected-(U1-Pad20)*%
X116315000Y-70944000D03*
%TD*%
D23*
%TO.P,TP11,1,1*%
%TO.N,+3.3VA*%
X114554000Y-53340000D03*
%TD*%
%TO.P,TP4,1,1*%
%TO.N,/RPi_GPIO/BCM14_TXD*%
X119380000Y-41148000D03*
%TD*%
%TO.P,TP3,1,1*%
%TO.N,/RPi_GPIO/BCM15_RXD*%
X121158000Y-44958000D03*
%TD*%
%TO.P,TP1,1,1*%
%TO.N,cmd_relais*%
X64770000Y-63754000D03*
%TD*%
%TO.P,TP2,1,1*%
%TO.N,/RPi_GPIO/cmd_relais_RPI*%
X67056000Y-57912000D03*
%TD*%
D24*
%TO.P,,1,1*%
%TO.N,GND*%
X100076000Y-86868000D03*
%TD*%
%TO.P,TP16,1,1*%
%TO.N,GND*%
X100076000Y-86868000D03*
%TD*%
D25*
%TO.N,can_L*%
X72390000Y-69596000D03*
D26*
%TO.N,cmd_relais*%
X82550000Y-45720000D03*
%TO.N,GND*%
X62484000Y-74676000D03*
X81625000Y-84836000D03*
X66675000Y-37465000D03*
X62738000Y-83225000D03*
X121666000Y-69850000D03*
X95504000Y-60452000D03*
X108458000Y-57404000D03*
X97028000Y-77216000D03*
X121666000Y-82550000D03*
X61976000Y-54864000D03*
X121666000Y-57150000D03*
%TO.N,/RPi_GPIO/Starter*%
X98425000Y-57785000D03*
D25*
%TO.N,/RPi_GPIO/BCM14_TXD*%
X76200000Y-38100000D03*
D26*
%TO.N,/RPi_GPIO/BCM15_RXD*%
X121920000Y-42164000D03*
%TO.N,+3.3VA*%
X78994000Y-54356000D03*
X65405000Y-44450000D03*
X102870000Y-55372000D03*
%TO.N,+5V*%
X88392000Y-56134000D03*
X70104000Y-57658000D03*
X64516000Y-52324000D03*
%TO.N,/RPi_GPIO/cmd_relais_RPI*%
X85060570Y-45631711D03*
%TD*%
D27*
%TO.N,can_H*%
X75946000Y-64008000D02*
X75438000Y-64516000D01*
X75438000Y-64516000D02*
X71374000Y-64516000D01*
X71374000Y-64516000D02*
X68326000Y-67564000D01*
%TO.N,can_L*%
X72930000Y-69564000D02*
X75946000Y-66548000D01*
X68326000Y-69564000D02*
X72930000Y-69564000D01*
%TO.N,cmd_relais*%
X66548000Y-61976000D02*
X64008000Y-64516000D01*
D28*
X71755000Y-50800000D02*
X64135000Y-58420000D01*
D27*
X64008000Y-64516000D02*
X64008000Y-68834000D01*
X64008000Y-68834000D02*
X64738000Y-69564000D01*
D28*
X82550000Y-48895000D02*
X80645000Y-50800000D01*
X65786000Y-61976000D02*
X66548000Y-61976000D01*
D27*
X64738000Y-69564000D02*
X66326000Y-69564000D01*
D28*
X64135000Y-60325000D02*
X65786000Y-61976000D01*
X64135000Y-58420000D02*
X64135000Y-60325000D01*
X80645000Y-50800000D02*
X71755000Y-50800000D01*
X82550000Y-45720000D02*
X82550000Y-48895000D01*
D27*
%TO.N,/RPi_GPIO/Starter*%
X70840000Y-74676000D02*
X66760000Y-78756000D01*
X98425000Y-57785000D02*
X98425000Y-62230000D01*
X98425000Y-62230000D02*
X85979000Y-74676000D01*
X85979000Y-74676000D02*
X70840000Y-74676000D01*
D28*
%TO.N,/RPi_GPIO/BCM14_TXD*%
X118872000Y-44704000D02*
X113284000Y-44704000D01*
X113284000Y-44704000D02*
X112315000Y-45673000D01*
X119380000Y-39624000D02*
X117221000Y-37465000D01*
X112315000Y-45673000D02*
X112315000Y-47420000D01*
X117221000Y-37465000D02*
X76835000Y-37465000D01*
X119380000Y-44196000D02*
X118872000Y-44704000D01*
X119380000Y-44196000D02*
X119380000Y-39624000D01*
X76835000Y-37465000D02*
X76200000Y-38100000D01*
%TO.N,/RPi_GPIO/BCM15_RXD*%
X114315000Y-46340000D02*
X114315000Y-47420000D01*
X120396000Y-45720000D02*
X114935000Y-45720000D01*
X114935000Y-45720000D02*
X114315000Y-46340000D01*
X121920000Y-44196000D02*
X120396000Y-45720000D01*
X121920000Y-42164000D02*
X121920000Y-44196000D01*
D27*
%TO.N,+3.3VA*%
X116315000Y-51325000D02*
X116315000Y-48944000D01*
X102870000Y-55372000D02*
X104140000Y-55372000D01*
X104140000Y-55372000D02*
X106172000Y-53340000D01*
X67310000Y-46228000D02*
X67310000Y-46736000D01*
X106172000Y-53340000D02*
X114300000Y-53340000D01*
X65405000Y-44450000D02*
X65532000Y-44450000D01*
X101600000Y-55372000D02*
X102870000Y-55372000D01*
X78994000Y-54356000D02*
X100584000Y-54356000D01*
X100584000Y-54356000D02*
X101600000Y-55372000D01*
X65532000Y-44450000D02*
X67310000Y-46228000D01*
X114300000Y-53340000D02*
X116315000Y-51325000D01*
%TO.N,+5V*%
X69342000Y-62992000D02*
X66326000Y-66008000D01*
X70104000Y-57658000D02*
X69342000Y-58420000D01*
X64516000Y-52324000D02*
X64516000Y-52070000D01*
X69342000Y-58420000D02*
X69342000Y-62992000D01*
X88392000Y-56134000D02*
X71628000Y-56134000D01*
X71628000Y-56134000D02*
X70104000Y-57658000D01*
X66326000Y-66008000D02*
X66326000Y-67564000D01*
X64516000Y-52070000D02*
X67310000Y-49276000D01*
%TO.N,/RPi_GPIO/cmd_relais_RPI*%
X85060570Y-45631711D02*
X85060570Y-48162430D01*
X85060570Y-48162430D02*
X81153000Y-52070000D01*
X66548000Y-58420000D02*
X66548000Y-59976000D01*
X72898000Y-52070000D02*
X66548000Y-58420000D01*
X81153000Y-52070000D02*
X72898000Y-52070000D01*
%TO.N,Net-(J2-Pad4)*%
X71120000Y-48006000D02*
X74137000Y-48006000D01*
X69850000Y-46736000D02*
X71120000Y-48006000D01*
X69850000Y-49276000D02*
X71120000Y-48006000D01*
X74137000Y-48006000D02*
X74391000Y-48260000D01*
%TD*%
%TA.AperFunction,Conductor*%
%TO.N,GND*%
G36*
X122192057Y-35561500D02*
G01*
X122206858Y-35563805D01*
X122206861Y-35563805D01*
X122215730Y-35565186D01*
X122232899Y-35562941D01*
X122256839Y-35562108D01*
X122514770Y-35577710D01*
X122529874Y-35579544D01*
X122600648Y-35592514D01*
X122810879Y-35631040D01*
X122825641Y-35634678D01*
X123098408Y-35719675D01*
X123112627Y-35725069D01*
X123373140Y-35842316D01*
X123386609Y-35849385D01*
X123631095Y-35997182D01*
X123643617Y-36005825D01*
X123868507Y-36182016D01*
X123879895Y-36192106D01*
X124081894Y-36394105D01*
X124091984Y-36405493D01*
X124268175Y-36630383D01*
X124276818Y-36642905D01*
X124424615Y-36887391D01*
X124431684Y-36900860D01*
X124490909Y-37032453D01*
X124548930Y-37161370D01*
X124554325Y-37175592D01*
X124579288Y-37255700D01*
X124639321Y-37448353D01*
X124642962Y-37463127D01*
X124694456Y-37744126D01*
X124696290Y-37759230D01*
X124711455Y-38009929D01*
X124710198Y-38036639D01*
X124710195Y-38036859D01*
X124708814Y-38045730D01*
X124710454Y-38058270D01*
X124712740Y-38075750D01*
X124713803Y-38092682D01*
X124702190Y-40558553D01*
X124702154Y-40559439D01*
X124702000Y-40560423D01*
X124702000Y-40598455D01*
X124701999Y-40599048D01*
X124701834Y-40634084D01*
X124701970Y-40635066D01*
X124702000Y-40635971D01*
X124702000Y-89109613D01*
X124681998Y-89177734D01*
X124628342Y-89224227D01*
X124558068Y-89234331D01*
X124493488Y-89204837D01*
X124467157Y-89173089D01*
X124371666Y-89009348D01*
X124299687Y-88885924D01*
X124089001Y-88603781D01*
X124086557Y-88601183D01*
X124086552Y-88601177D01*
X123850180Y-88349907D01*
X123850176Y-88349904D01*
X123847730Y-88347303D01*
X123701923Y-88223868D01*
X123581698Y-88122090D01*
X123581694Y-88122087D01*
X123578976Y-88119786D01*
X123565181Y-88110568D01*
X123289170Y-87926144D01*
X123289168Y-87926143D01*
X123286193Y-87924155D01*
X123283009Y-87922515D01*
X122976330Y-87764564D01*
X122976325Y-87764562D01*
X122973147Y-87762925D01*
X122969806Y-87761659D01*
X122969801Y-87761657D01*
X122647205Y-87639437D01*
X122647206Y-87639437D01*
X122643861Y-87638170D01*
X122640397Y-87637290D01*
X122640393Y-87637289D01*
X122306037Y-87552373D01*
X122306029Y-87552371D01*
X122302570Y-87551493D01*
X122130848Y-87528122D01*
X121956653Y-87504415D01*
X121956646Y-87504414D01*
X121953660Y-87504008D01*
X121838919Y-87499500D01*
X121620802Y-87499500D01*
X121479244Y-87507538D01*
X121362008Y-87514195D01*
X121362001Y-87514196D01*
X121358440Y-87514398D01*
X121220117Y-87538166D01*
X121014918Y-87573425D01*
X121014910Y-87573427D01*
X121011400Y-87574030D01*
X121007975Y-87575028D01*
X121007972Y-87575029D01*
X120794370Y-87637289D01*
X120673341Y-87672566D01*
X120348610Y-87808737D01*
X120269612Y-87852978D01*
X120044498Y-87979047D01*
X120044493Y-87979050D01*
X120041381Y-87980793D01*
X120038485Y-87982878D01*
X120038480Y-87982881D01*
X119892059Y-88088290D01*
X119755605Y-88186523D01*
X119752969Y-88188917D01*
X119752967Y-88188919D01*
X119575733Y-88349907D01*
X119494954Y-88423281D01*
X119262781Y-88688023D01*
X119062071Y-88977347D01*
X118895402Y-89287532D01*
X118764919Y-89614590D01*
X118672299Y-89954317D01*
X118671757Y-89957839D01*
X118630277Y-90227339D01*
X118618732Y-90302345D01*
X118618592Y-90305909D01*
X118609027Y-90549370D01*
X118604908Y-90654200D01*
X118614757Y-90786735D01*
X118629484Y-90984899D01*
X118631004Y-91005358D01*
X118696684Y-91351304D01*
X118697742Y-91354713D01*
X118697744Y-91354719D01*
X118727233Y-91449687D01*
X118801104Y-91687592D01*
X118942921Y-92009897D01*
X119120313Y-92314076D01*
X119330999Y-92596219D01*
X119333443Y-92598817D01*
X119333448Y-92598823D01*
X119569820Y-92850093D01*
X119572270Y-92852697D01*
X119574999Y-92855007D01*
X119806859Y-93051291D01*
X119841024Y-93080214D01*
X120133807Y-93275845D01*
X120136989Y-93277484D01*
X120136991Y-93277485D01*
X120285523Y-93353984D01*
X120336925Y-93402957D01*
X120353691Y-93471945D01*
X120330497Y-93539047D01*
X120274707Y-93582956D01*
X120227831Y-93592000D01*
X65195807Y-93592000D01*
X65127686Y-93571998D01*
X65081193Y-93518342D01*
X65071089Y-93448068D01*
X65100583Y-93383488D01*
X65134241Y-93356065D01*
X65375502Y-93220953D01*
X65375507Y-93220950D01*
X65378619Y-93219207D01*
X65381515Y-93217122D01*
X65381520Y-93217119D01*
X65528239Y-93111496D01*
X65664395Y-93013477D01*
X65838858Y-92855007D01*
X65922405Y-92779118D01*
X65922406Y-92779117D01*
X65925046Y-92776719D01*
X66157219Y-92511977D01*
X66204326Y-92444073D01*
X66296652Y-92310984D01*
X66357929Y-92222653D01*
X66524598Y-91912468D01*
X66655081Y-91585410D01*
X66747701Y-91245683D01*
X66762487Y-91149618D01*
X66800726Y-90901178D01*
X66800726Y-90901174D01*
X66801268Y-90897655D01*
X66810833Y-90654200D01*
X66814952Y-90549370D01*
X66814952Y-90549365D01*
X66815092Y-90545800D01*
X66788996Y-90194642D01*
X66723316Y-89848696D01*
X66618896Y-89512408D01*
X66530302Y-89311062D01*
X72303493Y-89311062D01*
X72312789Y-89323077D01*
X72363994Y-89358931D01*
X72373489Y-89364414D01*
X72570947Y-89456490D01*
X72581239Y-89460236D01*
X72791688Y-89516625D01*
X72802481Y-89518528D01*
X73019525Y-89537517D01*
X73030475Y-89537517D01*
X73247519Y-89518528D01*
X73258312Y-89516625D01*
X73468761Y-89460236D01*
X73479053Y-89456490D01*
X73676511Y-89364414D01*
X73686006Y-89358931D01*
X73738048Y-89322491D01*
X73746424Y-89312012D01*
X73745925Y-89311062D01*
X89448493Y-89311062D01*
X89457789Y-89323077D01*
X89508994Y-89358931D01*
X89518489Y-89364414D01*
X89715947Y-89456490D01*
X89726239Y-89460236D01*
X89936688Y-89516625D01*
X89947481Y-89518528D01*
X90164525Y-89537517D01*
X90175475Y-89537517D01*
X90392519Y-89518528D01*
X90403312Y-89516625D01*
X90613761Y-89460236D01*
X90624053Y-89456490D01*
X90821511Y-89364414D01*
X90831006Y-89358931D01*
X90883048Y-89322491D01*
X90891424Y-89312012D01*
X90884356Y-89298566D01*
X90182812Y-88597022D01*
X90168868Y-88589408D01*
X90167035Y-88589539D01*
X90160420Y-88593790D01*
X89454923Y-89299287D01*
X89448493Y-89311062D01*
X73745925Y-89311062D01*
X73739356Y-89298566D01*
X73037812Y-88597022D01*
X73023868Y-88589408D01*
X73022035Y-88589539D01*
X73015420Y-88593790D01*
X72309923Y-89299287D01*
X72303493Y-89311062D01*
X66530302Y-89311062D01*
X66492094Y-89224227D01*
X66478522Y-89193382D01*
X66478520Y-89193379D01*
X66477079Y-89190103D01*
X66299687Y-88885924D01*
X66089001Y-88603781D01*
X66086557Y-88601183D01*
X66086552Y-88601177D01*
X65850180Y-88349907D01*
X65850176Y-88349904D01*
X65847730Y-88347303D01*
X65709727Y-88230475D01*
X71712483Y-88230475D01*
X71731472Y-88447519D01*
X71733375Y-88458312D01*
X71789764Y-88668761D01*
X71793510Y-88679053D01*
X71885586Y-88876511D01*
X71891069Y-88886006D01*
X71927509Y-88938048D01*
X71937988Y-88946424D01*
X71951434Y-88939356D01*
X72652978Y-88237812D01*
X72659356Y-88226132D01*
X73389408Y-88226132D01*
X73389539Y-88227965D01*
X73393790Y-88234580D01*
X74099287Y-88940077D01*
X74111062Y-88946507D01*
X74123077Y-88937211D01*
X74158931Y-88886006D01*
X74164414Y-88876511D01*
X74256490Y-88679053D01*
X74260236Y-88668761D01*
X74316625Y-88458312D01*
X74318528Y-88447519D01*
X74337517Y-88230475D01*
X88857483Y-88230475D01*
X88876472Y-88447519D01*
X88878375Y-88458312D01*
X88934764Y-88668761D01*
X88938510Y-88679053D01*
X89030586Y-88876511D01*
X89036069Y-88886006D01*
X89072509Y-88938048D01*
X89082988Y-88946424D01*
X89096434Y-88939356D01*
X89797978Y-88237812D01*
X89804356Y-88226132D01*
X90534408Y-88226132D01*
X90534539Y-88227965D01*
X90538790Y-88234580D01*
X91244287Y-88940077D01*
X91256062Y-88946507D01*
X91268077Y-88937211D01*
X91303931Y-88886006D01*
X91309414Y-88876511D01*
X91401490Y-88679053D01*
X91405236Y-88668761D01*
X91461625Y-88458312D01*
X91463528Y-88447519D01*
X91482517Y-88230475D01*
X91482517Y-88219525D01*
X91472118Y-88100670D01*
X99208160Y-88100670D01*
X99213887Y-88108320D01*
X99385042Y-88213205D01*
X99393837Y-88217687D01*
X99603988Y-88304734D01*
X99613373Y-88307783D01*
X99834554Y-88360885D01*
X99844301Y-88362428D01*
X100071070Y-88380275D01*
X100080930Y-88380275D01*
X100307699Y-88362428D01*
X100317446Y-88360885D01*
X100538627Y-88307783D01*
X100548012Y-88304734D01*
X100758163Y-88217687D01*
X100766958Y-88213205D01*
X100934445Y-88110568D01*
X100943907Y-88100110D01*
X100940124Y-88091334D01*
X100088812Y-87240022D01*
X100074868Y-87232408D01*
X100073035Y-87232539D01*
X100066420Y-87236790D01*
X99214920Y-88088290D01*
X99208160Y-88100670D01*
X91472118Y-88100670D01*
X91463528Y-88002481D01*
X91461625Y-87991688D01*
X91405236Y-87781239D01*
X91401490Y-87770947D01*
X91309414Y-87573489D01*
X91303931Y-87563994D01*
X91267491Y-87511952D01*
X91257012Y-87503576D01*
X91243566Y-87510644D01*
X90542022Y-88212188D01*
X90534408Y-88226132D01*
X89804356Y-88226132D01*
X89805592Y-88223868D01*
X89805461Y-88222035D01*
X89801210Y-88215420D01*
X89095713Y-87509923D01*
X89083938Y-87503493D01*
X89071923Y-87512789D01*
X89036069Y-87563994D01*
X89030586Y-87573489D01*
X88938510Y-87770947D01*
X88934764Y-87781239D01*
X88878375Y-87991688D01*
X88876472Y-88002481D01*
X88857483Y-88219525D01*
X88857483Y-88230475D01*
X74337517Y-88230475D01*
X74337517Y-88219525D01*
X74318528Y-88002481D01*
X74316625Y-87991688D01*
X74260236Y-87781239D01*
X74256490Y-87770947D01*
X74164414Y-87573489D01*
X74158931Y-87563994D01*
X74122491Y-87511952D01*
X74112012Y-87503576D01*
X74098566Y-87510644D01*
X73397022Y-88212188D01*
X73389408Y-88226132D01*
X72659356Y-88226132D01*
X72660592Y-88223868D01*
X72660461Y-88222035D01*
X72656210Y-88215420D01*
X71950713Y-87509923D01*
X71938938Y-87503493D01*
X71926923Y-87512789D01*
X71891069Y-87563994D01*
X71885586Y-87573489D01*
X71793510Y-87770947D01*
X71789764Y-87781239D01*
X71733375Y-87991688D01*
X71731472Y-88002481D01*
X71712483Y-88219525D01*
X71712483Y-88230475D01*
X65709727Y-88230475D01*
X65701923Y-88223868D01*
X65581698Y-88122090D01*
X65581694Y-88122087D01*
X65578976Y-88119786D01*
X65565181Y-88110568D01*
X65289170Y-87926144D01*
X65289168Y-87926143D01*
X65286193Y-87924155D01*
X65283009Y-87922515D01*
X64976330Y-87764564D01*
X64976325Y-87764562D01*
X64973147Y-87762925D01*
X64969806Y-87761659D01*
X64969801Y-87761657D01*
X64647205Y-87639437D01*
X64647206Y-87639437D01*
X64643861Y-87638170D01*
X64640397Y-87637290D01*
X64640393Y-87637289D01*
X64306037Y-87552373D01*
X64306029Y-87552371D01*
X64302570Y-87551493D01*
X64130848Y-87528122D01*
X63956653Y-87504415D01*
X63956646Y-87504414D01*
X63953660Y-87504008D01*
X63838919Y-87499500D01*
X63620802Y-87499500D01*
X63479244Y-87507538D01*
X63362008Y-87514195D01*
X63362001Y-87514196D01*
X63358440Y-87514398D01*
X63220117Y-87538166D01*
X63014918Y-87573425D01*
X63014910Y-87573427D01*
X63011400Y-87574030D01*
X63007975Y-87575028D01*
X63007972Y-87575029D01*
X62794370Y-87637289D01*
X62673341Y-87672566D01*
X62348610Y-87808737D01*
X62269612Y-87852978D01*
X62044498Y-87979047D01*
X62044493Y-87979050D01*
X62041381Y-87980793D01*
X62038485Y-87982878D01*
X62038480Y-87982881D01*
X61892059Y-88088290D01*
X61755605Y-88186523D01*
X61752969Y-88188917D01*
X61752967Y-88188919D01*
X61575733Y-88349907D01*
X61494954Y-88423281D01*
X61262781Y-88688023D01*
X61062071Y-88977347D01*
X61060380Y-88980494D01*
X61060377Y-88980499D01*
X60954992Y-89176630D01*
X60905130Y-89227170D01*
X60835859Y-89242729D01*
X60769173Y-89218367D01*
X60726244Y-89161819D01*
X60718000Y-89116992D01*
X60718000Y-87137988D01*
X72303576Y-87137988D01*
X72310644Y-87151434D01*
X73012188Y-87852978D01*
X73026132Y-87860592D01*
X73027965Y-87860461D01*
X73034580Y-87856210D01*
X73740077Y-87150713D01*
X73746507Y-87138938D01*
X73745772Y-87137988D01*
X89448576Y-87137988D01*
X89455644Y-87151434D01*
X90157188Y-87852978D01*
X90171132Y-87860592D01*
X90172965Y-87860461D01*
X90179580Y-87856210D01*
X90885077Y-87150713D01*
X90891507Y-87138938D01*
X90882211Y-87126923D01*
X90831006Y-87091069D01*
X90821511Y-87085586D01*
X90624053Y-86993510D01*
X90613761Y-86989764D01*
X90403312Y-86933375D01*
X90392519Y-86931472D01*
X90175475Y-86912483D01*
X90164525Y-86912483D01*
X89947481Y-86931472D01*
X89936688Y-86933375D01*
X89726239Y-86989764D01*
X89715947Y-86993510D01*
X89518489Y-87085586D01*
X89508994Y-87091069D01*
X89456952Y-87127509D01*
X89448576Y-87137988D01*
X73745772Y-87137988D01*
X73737211Y-87126923D01*
X73686006Y-87091069D01*
X73676511Y-87085586D01*
X73479053Y-86993510D01*
X73468761Y-86989764D01*
X73258312Y-86933375D01*
X73247519Y-86931472D01*
X73030475Y-86912483D01*
X73019525Y-86912483D01*
X72802481Y-86931472D01*
X72791688Y-86933375D01*
X72581239Y-86989764D01*
X72570947Y-86993510D01*
X72373489Y-87085586D01*
X72363994Y-87091069D01*
X72311952Y-87127509D01*
X72303576Y-87137988D01*
X60718000Y-87137988D01*
X60718000Y-86872930D01*
X98563725Y-86872930D01*
X98581572Y-87099699D01*
X98583115Y-87109446D01*
X98636217Y-87330627D01*
X98639266Y-87340012D01*
X98726313Y-87550163D01*
X98730795Y-87558958D01*
X98833432Y-87726445D01*
X98843890Y-87735907D01*
X98852666Y-87732124D01*
X99703978Y-86880812D01*
X99710356Y-86869132D01*
X100440408Y-86869132D01*
X100440539Y-86870965D01*
X100444790Y-86877580D01*
X101296290Y-87729080D01*
X101308670Y-87735840D01*
X101316320Y-87730113D01*
X101421205Y-87558958D01*
X101425687Y-87550163D01*
X101512734Y-87340012D01*
X101515783Y-87330627D01*
X101568885Y-87109446D01*
X101570428Y-87099699D01*
X101588275Y-86872930D01*
X101588275Y-86863070D01*
X101570428Y-86636301D01*
X101568885Y-86626554D01*
X101515783Y-86405373D01*
X101512734Y-86395988D01*
X101425687Y-86185837D01*
X101421205Y-86177042D01*
X101318568Y-86009555D01*
X101308110Y-86000093D01*
X101299334Y-86003876D01*
X100448022Y-86855188D01*
X100440408Y-86869132D01*
X99710356Y-86869132D01*
X99711592Y-86866868D01*
X99711461Y-86865035D01*
X99707210Y-86858420D01*
X98855710Y-86006920D01*
X98843330Y-86000160D01*
X98835680Y-86005887D01*
X98730795Y-86177042D01*
X98726313Y-86185837D01*
X98639266Y-86395988D01*
X98636217Y-86405373D01*
X98583115Y-86626554D01*
X98581572Y-86636301D01*
X98563725Y-86863070D01*
X98563725Y-86872930D01*
X60718000Y-86872930D01*
X60718000Y-85635890D01*
X99208093Y-85635890D01*
X99211876Y-85644666D01*
X100063188Y-86495978D01*
X100077132Y-86503592D01*
X100078965Y-86503461D01*
X100085580Y-86499210D01*
X100937080Y-85647710D01*
X100943840Y-85635330D01*
X100938113Y-85627680D01*
X100766958Y-85522795D01*
X100758163Y-85518313D01*
X100548012Y-85431266D01*
X100538627Y-85428217D01*
X100317446Y-85375115D01*
X100307699Y-85373572D01*
X100080930Y-85355725D01*
X100071070Y-85355725D01*
X99844301Y-85373572D01*
X99834554Y-85375115D01*
X99613373Y-85428217D01*
X99603988Y-85431266D01*
X99393837Y-85518313D01*
X99385042Y-85522795D01*
X99217555Y-85625432D01*
X99208093Y-85635890D01*
X60718000Y-85635890D01*
X60718000Y-83225000D01*
X71711502Y-83225000D01*
X71731457Y-83453087D01*
X71790716Y-83674243D01*
X71793039Y-83679224D01*
X71793039Y-83679225D01*
X71885151Y-83876762D01*
X71885154Y-83876767D01*
X71887477Y-83881749D01*
X72018802Y-84069300D01*
X72180700Y-84231198D01*
X72185208Y-84234355D01*
X72185211Y-84234357D01*
X72263389Y-84289098D01*
X72368251Y-84362523D01*
X72373233Y-84364846D01*
X72373238Y-84364849D01*
X72570775Y-84456961D01*
X72575757Y-84459284D01*
X72581065Y-84460706D01*
X72581067Y-84460707D01*
X72791598Y-84517119D01*
X72791600Y-84517119D01*
X72796913Y-84518543D01*
X73025000Y-84538498D01*
X73253087Y-84518543D01*
X73258400Y-84517119D01*
X73258402Y-84517119D01*
X73468933Y-84460707D01*
X73468935Y-84460706D01*
X73474243Y-84459284D01*
X73479225Y-84456961D01*
X73676762Y-84364849D01*
X73676767Y-84364846D01*
X73681749Y-84362523D01*
X73786611Y-84289098D01*
X73864789Y-84234357D01*
X73864792Y-84234355D01*
X73869300Y-84231198D01*
X74031198Y-84069300D01*
X74162523Y-83881749D01*
X74164846Y-83876767D01*
X74164849Y-83876762D01*
X74256961Y-83679225D01*
X74256961Y-83679224D01*
X74259284Y-83674243D01*
X74318543Y-83453087D01*
X74338498Y-83225000D01*
X88856502Y-83225000D01*
X88876457Y-83453087D01*
X88935716Y-83674243D01*
X88938039Y-83679224D01*
X88938039Y-83679225D01*
X89030151Y-83876762D01*
X89030154Y-83876767D01*
X89032477Y-83881749D01*
X89163802Y-84069300D01*
X89325700Y-84231198D01*
X89330208Y-84234355D01*
X89330211Y-84234357D01*
X89408389Y-84289098D01*
X89513251Y-84362523D01*
X89518233Y-84364846D01*
X89518238Y-84364849D01*
X89715775Y-84456961D01*
X89720757Y-84459284D01*
X89726065Y-84460706D01*
X89726067Y-84460707D01*
X89936598Y-84517119D01*
X89936600Y-84517119D01*
X89941913Y-84518543D01*
X90170000Y-84538498D01*
X90398087Y-84518543D01*
X90403400Y-84517119D01*
X90403402Y-84517119D01*
X90613933Y-84460707D01*
X90613935Y-84460706D01*
X90619243Y-84459284D01*
X90624225Y-84456961D01*
X90821762Y-84364849D01*
X90821767Y-84364846D01*
X90826749Y-84362523D01*
X90931611Y-84289098D01*
X91009789Y-84234357D01*
X91009792Y-84234355D01*
X91014300Y-84231198D01*
X91176198Y-84069300D01*
X91307523Y-83881749D01*
X91309846Y-83876767D01*
X91309849Y-83876762D01*
X91401961Y-83679225D01*
X91401961Y-83679224D01*
X91404284Y-83674243D01*
X91463543Y-83453087D01*
X91483498Y-83225000D01*
X91463543Y-82996913D01*
X91404284Y-82775757D01*
X91401961Y-82770775D01*
X91309849Y-82573238D01*
X91309846Y-82573233D01*
X91307523Y-82568251D01*
X91176198Y-82380700D01*
X91014300Y-82218802D01*
X91009792Y-82215645D01*
X91009789Y-82215643D01*
X90931611Y-82160902D01*
X90826749Y-82087477D01*
X90821767Y-82085154D01*
X90821762Y-82085151D01*
X90624225Y-81993039D01*
X90624224Y-81993039D01*
X90619243Y-81990716D01*
X90613935Y-81989294D01*
X90613933Y-81989293D01*
X90403402Y-81932881D01*
X90403400Y-81932881D01*
X90398087Y-81931457D01*
X90170000Y-81911502D01*
X89941913Y-81931457D01*
X89936600Y-81932881D01*
X89936598Y-81932881D01*
X89726067Y-81989293D01*
X89726065Y-81989294D01*
X89720757Y-81990716D01*
X89715776Y-81993039D01*
X89715775Y-81993039D01*
X89518238Y-82085151D01*
X89518233Y-82085154D01*
X89513251Y-82087477D01*
X89408389Y-82160902D01*
X89330211Y-82215643D01*
X89330208Y-82215645D01*
X89325700Y-82218802D01*
X89163802Y-82380700D01*
X89032477Y-82568251D01*
X89030154Y-82573233D01*
X89030151Y-82573238D01*
X88938039Y-82770775D01*
X88935716Y-82775757D01*
X88876457Y-82996913D01*
X88856502Y-83225000D01*
X74338498Y-83225000D01*
X74318543Y-82996913D01*
X74259284Y-82775757D01*
X74256961Y-82770775D01*
X74164849Y-82573238D01*
X74164846Y-82573233D01*
X74162523Y-82568251D01*
X74031198Y-82380700D01*
X73869300Y-82218802D01*
X73864792Y-82215645D01*
X73864789Y-82215643D01*
X73786611Y-82160902D01*
X73681749Y-82087477D01*
X73676767Y-82085154D01*
X73676762Y-82085151D01*
X73479225Y-81993039D01*
X73479224Y-81993039D01*
X73474243Y-81990716D01*
X73468935Y-81989294D01*
X73468933Y-81989293D01*
X73258402Y-81932881D01*
X73258400Y-81932881D01*
X73253087Y-81931457D01*
X73025000Y-81911502D01*
X72796913Y-81931457D01*
X72791600Y-81932881D01*
X72791598Y-81932881D01*
X72581067Y-81989293D01*
X72581065Y-81989294D01*
X72575757Y-81990716D01*
X72570776Y-81993039D01*
X72570775Y-81993039D01*
X72373238Y-82085151D01*
X72373233Y-82085154D01*
X72368251Y-82087477D01*
X72263389Y-82160902D01*
X72185211Y-82215643D01*
X72185208Y-82215645D01*
X72180700Y-82218802D01*
X72018802Y-82380700D01*
X71887477Y-82568251D01*
X71885154Y-82573233D01*
X71885151Y-82573238D01*
X71793039Y-82770775D01*
X71790716Y-82775757D01*
X71731457Y-82996913D01*
X71711502Y-83225000D01*
X60718000Y-83225000D01*
X60718000Y-81281753D01*
X65252001Y-81281753D01*
X65252055Y-81283644D01*
X65253480Y-81293600D01*
X65292105Y-81460902D01*
X65296755Y-81474105D01*
X65370738Y-81627148D01*
X65378202Y-81639000D01*
X65484255Y-81771849D01*
X65494151Y-81781745D01*
X65627000Y-81887798D01*
X65638852Y-81895262D01*
X65791895Y-81969245D01*
X65805098Y-81973895D01*
X65972399Y-82012520D01*
X65982347Y-82013944D01*
X65984277Y-82014000D01*
X66487885Y-82014000D01*
X66503124Y-82009525D01*
X66504329Y-82008135D01*
X66506000Y-82000452D01*
X66506000Y-81995884D01*
X67014000Y-81995884D01*
X67018475Y-82011123D01*
X67019865Y-82012328D01*
X67027548Y-82013999D01*
X67535753Y-82013999D01*
X67537644Y-82013945D01*
X67547600Y-82012520D01*
X67714902Y-81973895D01*
X67728105Y-81969245D01*
X67881148Y-81895262D01*
X67893000Y-81887798D01*
X68025849Y-81781745D01*
X68035745Y-81771849D01*
X68141798Y-81639000D01*
X68149262Y-81627148D01*
X68223245Y-81474105D01*
X68227895Y-81460902D01*
X68266520Y-81293601D01*
X68267944Y-81283653D01*
X68268000Y-81281723D01*
X68268000Y-81028115D01*
X68263525Y-81012876D01*
X68262135Y-81011671D01*
X68254452Y-81010000D01*
X67032115Y-81010000D01*
X67016876Y-81014475D01*
X67015671Y-81015865D01*
X67014000Y-81023548D01*
X67014000Y-81995884D01*
X66506000Y-81995884D01*
X66506000Y-81028115D01*
X66501525Y-81012876D01*
X66500135Y-81011671D01*
X66492452Y-81010000D01*
X65270116Y-81010000D01*
X65254877Y-81014475D01*
X65253672Y-81015865D01*
X65252001Y-81023548D01*
X65252001Y-81281753D01*
X60718000Y-81281753D01*
X60718000Y-78795690D01*
X65247037Y-78795690D01*
X65274025Y-79018715D01*
X65340082Y-79233435D01*
X65342652Y-79238415D01*
X65342654Y-79238419D01*
X65407852Y-79364738D01*
X65443118Y-79433064D01*
X65446531Y-79437511D01*
X65446531Y-79437512D01*
X65528676Y-79544566D01*
X65554276Y-79610787D01*
X65540011Y-79680335D01*
X65507321Y-79719742D01*
X65494150Y-79730256D01*
X65484255Y-79740151D01*
X65378202Y-79873000D01*
X65370738Y-79884852D01*
X65296755Y-80037895D01*
X65292105Y-80051098D01*
X65253480Y-80218399D01*
X65252056Y-80228347D01*
X65252000Y-80230277D01*
X65252000Y-80483885D01*
X65256475Y-80499124D01*
X65257865Y-80500329D01*
X65265548Y-80502000D01*
X68249884Y-80502000D01*
X68265123Y-80497525D01*
X68266328Y-80496135D01*
X68267999Y-80488452D01*
X68267999Y-80230247D01*
X68267945Y-80228356D01*
X68266520Y-80218400D01*
X68227895Y-80051098D01*
X68223245Y-80037895D01*
X68149262Y-79884852D01*
X68141798Y-79873000D01*
X68035745Y-79740151D01*
X68025851Y-79730257D01*
X68015989Y-79722384D01*
X67975232Y-79664252D01*
X67972372Y-79593313D01*
X67993045Y-79551909D01*
X67991992Y-79551201D01*
X68114164Y-79369390D01*
X68117290Y-79364738D01*
X68207588Y-79159033D01*
X68260032Y-78940589D01*
X68272963Y-78716310D01*
X68275166Y-78716437D01*
X68290599Y-78656990D01*
X68309601Y-78632633D01*
X71220829Y-75721405D01*
X71283141Y-75687379D01*
X71309924Y-75684500D01*
X78170812Y-75684500D01*
X78238933Y-75704502D01*
X78285426Y-75758158D01*
X78295530Y-75828432D01*
X78266036Y-75893012D01*
X78259907Y-75899595D01*
X78168802Y-75990700D01*
X78037477Y-76178251D01*
X78035154Y-76183233D01*
X78035151Y-76183238D01*
X77943039Y-76380775D01*
X77940716Y-76385757D01*
X77881457Y-76606913D01*
X77861502Y-76835000D01*
X77881457Y-77063087D01*
X77940716Y-77284243D01*
X77943039Y-77289224D01*
X77943039Y-77289225D01*
X78035151Y-77486762D01*
X78035154Y-77486767D01*
X78037477Y-77491749D01*
X78168802Y-77679300D01*
X78330700Y-77841198D01*
X78335208Y-77844355D01*
X78335211Y-77844357D01*
X78413389Y-77899098D01*
X78518251Y-77972523D01*
X78523233Y-77974846D01*
X78523238Y-77974849D01*
X78720775Y-78066961D01*
X78725757Y-78069284D01*
X78731065Y-78070706D01*
X78731067Y-78070707D01*
X78941598Y-78127119D01*
X78941600Y-78127119D01*
X78946913Y-78128543D01*
X79175000Y-78148498D01*
X79403087Y-78128543D01*
X79408400Y-78127119D01*
X79408402Y-78127119D01*
X79618933Y-78070707D01*
X79618935Y-78070706D01*
X79624243Y-78069284D01*
X79629225Y-78066961D01*
X79826762Y-77974849D01*
X79826767Y-77974846D01*
X79831749Y-77972523D01*
X79936611Y-77899098D01*
X80014789Y-77844357D01*
X80014792Y-77844355D01*
X80019300Y-77841198D01*
X80181198Y-77679300D01*
X80312523Y-77491749D01*
X80314846Y-77486767D01*
X80314849Y-77486762D01*
X80406961Y-77289225D01*
X80406961Y-77289224D01*
X80409284Y-77284243D01*
X80468543Y-77063087D01*
X80488498Y-76835000D01*
X80468543Y-76606913D01*
X80409284Y-76385757D01*
X80406961Y-76380775D01*
X80314849Y-76183238D01*
X80314846Y-76183233D01*
X80312523Y-76178251D01*
X80181198Y-75990700D01*
X80090093Y-75899595D01*
X80056067Y-75837283D01*
X80061132Y-75766468D01*
X80103679Y-75709632D01*
X80170199Y-75684821D01*
X80179188Y-75684500D01*
X83070812Y-75684500D01*
X83138933Y-75704502D01*
X83185426Y-75758158D01*
X83195530Y-75828432D01*
X83166036Y-75893012D01*
X83159907Y-75899595D01*
X83068802Y-75990700D01*
X82937477Y-76178251D01*
X82935154Y-76183233D01*
X82935151Y-76183238D01*
X82843039Y-76380775D01*
X82840716Y-76385757D01*
X82781457Y-76606913D01*
X82761502Y-76835000D01*
X82781457Y-77063087D01*
X82840716Y-77284243D01*
X82843039Y-77289224D01*
X82843039Y-77289225D01*
X82935151Y-77486762D01*
X82935154Y-77486767D01*
X82937477Y-77491749D01*
X83068802Y-77679300D01*
X83230700Y-77841198D01*
X83235208Y-77844355D01*
X83235211Y-77844357D01*
X83313389Y-77899098D01*
X83418251Y-77972523D01*
X83423233Y-77974846D01*
X83423238Y-77974849D01*
X83620775Y-78066961D01*
X83625757Y-78069284D01*
X83631065Y-78070706D01*
X83631067Y-78070707D01*
X83841598Y-78127119D01*
X83841600Y-78127119D01*
X83846913Y-78128543D01*
X84075000Y-78148498D01*
X84303087Y-78128543D01*
X84308400Y-78127119D01*
X84308402Y-78127119D01*
X84518933Y-78070707D01*
X84518935Y-78070706D01*
X84524243Y-78069284D01*
X84529225Y-78066961D01*
X84726762Y-77974849D01*
X84726767Y-77974846D01*
X84731749Y-77972523D01*
X84836611Y-77899098D01*
X84914789Y-77844357D01*
X84914792Y-77844355D01*
X84919300Y-77841198D01*
X85081198Y-77679300D01*
X85212523Y-77491749D01*
X85214846Y-77486767D01*
X85214849Y-77486762D01*
X85306961Y-77289225D01*
X85306961Y-77289224D01*
X85309284Y-77284243D01*
X85368543Y-77063087D01*
X85388498Y-76835000D01*
X85368543Y-76606913D01*
X85309284Y-76385757D01*
X85306961Y-76380775D01*
X85214849Y-76183238D01*
X85214846Y-76183233D01*
X85212523Y-76178251D01*
X85081198Y-75990700D01*
X84990093Y-75899595D01*
X84956067Y-75837283D01*
X84961132Y-75766468D01*
X85003679Y-75709632D01*
X85070199Y-75684821D01*
X85079188Y-75684500D01*
X85917157Y-75684500D01*
X85930764Y-75685237D01*
X85962262Y-75688659D01*
X85962267Y-75688659D01*
X85968388Y-75689324D01*
X85994638Y-75687027D01*
X86018388Y-75684950D01*
X86023214Y-75684621D01*
X86025686Y-75684500D01*
X86028769Y-75684500D01*
X86040738Y-75683326D01*
X86071506Y-75680310D01*
X86072819Y-75680188D01*
X86117084Y-75676315D01*
X86165413Y-75672087D01*
X86170532Y-75670600D01*
X86175833Y-75670080D01*
X86264834Y-75643209D01*
X86265967Y-75642874D01*
X86349414Y-75618630D01*
X86349418Y-75618628D01*
X86355336Y-75616909D01*
X86360068Y-75614456D01*
X86365169Y-75612916D01*
X86370612Y-75610022D01*
X86447260Y-75569269D01*
X86448426Y-75568657D01*
X86525453Y-75528729D01*
X86530926Y-75525892D01*
X86535089Y-75522569D01*
X86539796Y-75520066D01*
X86611918Y-75461245D01*
X86612774Y-75460554D01*
X86651973Y-75429262D01*
X86654477Y-75426758D01*
X86655195Y-75426116D01*
X86659528Y-75422415D01*
X86693062Y-75395065D01*
X86722288Y-75359737D01*
X86730277Y-75350958D01*
X87405235Y-74676000D01*
X91396502Y-74676000D01*
X91416457Y-74904087D01*
X91475716Y-75125243D01*
X91478039Y-75130224D01*
X91478039Y-75130225D01*
X91570151Y-75327762D01*
X91570154Y-75327767D01*
X91572477Y-75332749D01*
X91703802Y-75520300D01*
X91865700Y-75682198D01*
X91870208Y-75685355D01*
X91870211Y-75685357D01*
X91921693Y-75721405D01*
X92053251Y-75813523D01*
X92058233Y-75815846D01*
X92058238Y-75815849D01*
X92237834Y-75899595D01*
X92260757Y-75910284D01*
X92266065Y-75911706D01*
X92266067Y-75911707D01*
X92476598Y-75968119D01*
X92476600Y-75968119D01*
X92481913Y-75969543D01*
X92710000Y-75989498D01*
X92938087Y-75969543D01*
X92943400Y-75968119D01*
X92943402Y-75968119D01*
X93153933Y-75911707D01*
X93153935Y-75911706D01*
X93159243Y-75910284D01*
X93182166Y-75899595D01*
X93361762Y-75815849D01*
X93361767Y-75815846D01*
X93366749Y-75813523D01*
X93498307Y-75721405D01*
X93549789Y-75685357D01*
X93549792Y-75685355D01*
X93554300Y-75682198D01*
X93716198Y-75520300D01*
X93847523Y-75332749D01*
X93849846Y-75327767D01*
X93849849Y-75327762D01*
X93941961Y-75130225D01*
X93941961Y-75130224D01*
X93944284Y-75125243D01*
X94003543Y-74904087D01*
X94023498Y-74676000D01*
X94003543Y-74447913D01*
X93994259Y-74413265D01*
X93945707Y-74232067D01*
X93945706Y-74232065D01*
X93944284Y-74226757D01*
X93854467Y-74034142D01*
X93849849Y-74024238D01*
X93849846Y-74024233D01*
X93847523Y-74019251D01*
X93749628Y-73879443D01*
X93719357Y-73836211D01*
X93719355Y-73836208D01*
X93716198Y-73831700D01*
X93554300Y-73669802D01*
X93549792Y-73666645D01*
X93549789Y-73666643D01*
X93462570Y-73605572D01*
X93366749Y-73538477D01*
X93361767Y-73536154D01*
X93361762Y-73536151D01*
X93164225Y-73444039D01*
X93164224Y-73444039D01*
X93159243Y-73441716D01*
X93153935Y-73440294D01*
X93153933Y-73440293D01*
X92943402Y-73383881D01*
X92943400Y-73383881D01*
X92938087Y-73382457D01*
X92710000Y-73362502D01*
X92481913Y-73382457D01*
X92476600Y-73383881D01*
X92476598Y-73383881D01*
X92266067Y-73440293D01*
X92266065Y-73440294D01*
X92260757Y-73441716D01*
X92255776Y-73444039D01*
X92255775Y-73444039D01*
X92058238Y-73536151D01*
X92058233Y-73536154D01*
X92053251Y-73538477D01*
X91957430Y-73605572D01*
X91870211Y-73666643D01*
X91870208Y-73666645D01*
X91865700Y-73669802D01*
X91703802Y-73831700D01*
X91700645Y-73836208D01*
X91700643Y-73836211D01*
X91670372Y-73879443D01*
X91572477Y-74019251D01*
X91570154Y-74024233D01*
X91570151Y-74024238D01*
X91565533Y-74034142D01*
X91475716Y-74226757D01*
X91474294Y-74232065D01*
X91474293Y-74232067D01*
X91425741Y-74413265D01*
X91416457Y-74447913D01*
X91396502Y-74676000D01*
X87405235Y-74676000D01*
X92800816Y-69280419D01*
X97006500Y-69280419D01*
X97006501Y-72607580D01*
X97012743Y-72686904D01*
X97062171Y-72871371D01*
X97148871Y-73041530D01*
X97153024Y-73046659D01*
X97153027Y-73046663D01*
X97264900Y-73184814D01*
X97269055Y-73189945D01*
X97274186Y-73194100D01*
X97412337Y-73305973D01*
X97412340Y-73305975D01*
X97417470Y-73310129D01*
X97423347Y-73313124D01*
X97423351Y-73313126D01*
X97558482Y-73381978D01*
X97587629Y-73396829D01*
X97594002Y-73398537D01*
X97594003Y-73398537D01*
X97766519Y-73444763D01*
X97766523Y-73444764D01*
X97772096Y-73446257D01*
X97777852Y-73446710D01*
X97848963Y-73452307D01*
X97848970Y-73452307D01*
X97851419Y-73452500D01*
X98314812Y-73452500D01*
X98778580Y-73452499D01*
X98827947Y-73448614D01*
X98852150Y-73446710D01*
X98852152Y-73446710D01*
X98857904Y-73446257D01*
X99042371Y-73396829D01*
X99212530Y-73310129D01*
X99235705Y-73291362D01*
X99301232Y-73264036D01*
X99371131Y-73276475D01*
X99394294Y-73291361D01*
X99417470Y-73310129D01*
X99587629Y-73396829D01*
X99594002Y-73398537D01*
X99594003Y-73398537D01*
X99766519Y-73444763D01*
X99766523Y-73444764D01*
X99772096Y-73446257D01*
X99777852Y-73446710D01*
X99848963Y-73452307D01*
X99848970Y-73452307D01*
X99851419Y-73452500D01*
X100314812Y-73452500D01*
X100778580Y-73452499D01*
X100827947Y-73448614D01*
X100852150Y-73446710D01*
X100852152Y-73446710D01*
X100857904Y-73446257D01*
X101042371Y-73396829D01*
X101212530Y-73310129D01*
X101235705Y-73291362D01*
X101301232Y-73264036D01*
X101371131Y-73276475D01*
X101394294Y-73291361D01*
X101417470Y-73310129D01*
X101587629Y-73396829D01*
X101594002Y-73398537D01*
X101594003Y-73398537D01*
X101766519Y-73444763D01*
X101766523Y-73444764D01*
X101772096Y-73446257D01*
X101777852Y-73446710D01*
X101848963Y-73452307D01*
X101848970Y-73452307D01*
X101851419Y-73452500D01*
X102314812Y-73452500D01*
X102778580Y-73452499D01*
X102827947Y-73448614D01*
X102852150Y-73446710D01*
X102852152Y-73446710D01*
X102857904Y-73446257D01*
X103042371Y-73396829D01*
X103212530Y-73310129D01*
X103235705Y-73291362D01*
X103301232Y-73264036D01*
X103371131Y-73276475D01*
X103394294Y-73291361D01*
X103417470Y-73310129D01*
X103587629Y-73396829D01*
X103594002Y-73398537D01*
X103594003Y-73398537D01*
X103766519Y-73444763D01*
X103766523Y-73444764D01*
X103772096Y-73446257D01*
X103777852Y-73446710D01*
X103848963Y-73452307D01*
X103848970Y-73452307D01*
X103851419Y-73452500D01*
X103865072Y-73452500D01*
X104613380Y-73452499D01*
X104681500Y-73472501D01*
X104727993Y-73526157D01*
X104738097Y-73596431D01*
X104708604Y-73661011D01*
X104661597Y-73694908D01*
X104527837Y-73750313D01*
X104527835Y-73750314D01*
X104523265Y-73752207D01*
X104320879Y-73876230D01*
X104317117Y-73879443D01*
X104158702Y-74014743D01*
X104140386Y-74030386D01*
X103986230Y-74210879D01*
X103862207Y-74413265D01*
X103860314Y-74417835D01*
X103860313Y-74417837D01*
X103773266Y-74627988D01*
X103771372Y-74632561D01*
X103760943Y-74676000D01*
X103717115Y-74858554D01*
X103717114Y-74858560D01*
X103715960Y-74863367D01*
X103707359Y-74972661D01*
X103699244Y-75075771D01*
X103698291Y-75083910D01*
X103698328Y-75084003D01*
X103696814Y-75093730D01*
X103697449Y-75098583D01*
X103697337Y-75100000D01*
X103697634Y-75100000D01*
X103698882Y-75109544D01*
X103700936Y-75125250D01*
X103702000Y-75141588D01*
X103702000Y-90050672D01*
X103700500Y-90070056D01*
X103696814Y-90093730D01*
X103697634Y-90100000D01*
X103697337Y-90100000D01*
X103697920Y-90107409D01*
X103697920Y-90107413D01*
X103704509Y-90191130D01*
X103715960Y-90336633D01*
X103717114Y-90341440D01*
X103717115Y-90341446D01*
X103742672Y-90447897D01*
X103771372Y-90567439D01*
X103773265Y-90572010D01*
X103773266Y-90572012D01*
X103805831Y-90650630D01*
X103862207Y-90786735D01*
X103986230Y-90989121D01*
X103989443Y-90992883D01*
X104102080Y-91124763D01*
X104140386Y-91169614D01*
X104144142Y-91172822D01*
X104317117Y-91320557D01*
X104320879Y-91323770D01*
X104523265Y-91447793D01*
X104527835Y-91449686D01*
X104527837Y-91449687D01*
X104737988Y-91536734D01*
X104742561Y-91538628D01*
X104823660Y-91558098D01*
X104968554Y-91592885D01*
X104968560Y-91592886D01*
X104973367Y-91594040D01*
X105210000Y-91612663D01*
X105446633Y-91594040D01*
X105451440Y-91592886D01*
X105451446Y-91592885D01*
X105596340Y-91558098D01*
X105677439Y-91538628D01*
X105682012Y-91536734D01*
X105892163Y-91449687D01*
X105892165Y-91449686D01*
X105896735Y-91447793D01*
X106099121Y-91323770D01*
X106102883Y-91320557D01*
X106275858Y-91172822D01*
X106279614Y-91169614D01*
X106317921Y-91124763D01*
X106430557Y-90992883D01*
X106433770Y-90989121D01*
X106557793Y-90786735D01*
X106614170Y-90650630D01*
X106646734Y-90572012D01*
X106646735Y-90572010D01*
X106648628Y-90567439D01*
X106677328Y-90447897D01*
X106702885Y-90341446D01*
X106702886Y-90341440D01*
X106704040Y-90336633D01*
X106720014Y-90133657D01*
X106721372Y-90122637D01*
X106722265Y-90117330D01*
X106722265Y-90117329D01*
X106723071Y-90112539D01*
X106723224Y-90100000D01*
X106719273Y-90072412D01*
X106718000Y-90054549D01*
X106718000Y-75153207D01*
X106719746Y-75132303D01*
X106720279Y-75129137D01*
X106723071Y-75112539D01*
X106723224Y-75100000D01*
X106722534Y-75095184D01*
X106722529Y-75095100D01*
X106721665Y-75087314D01*
X106720667Y-75074634D01*
X106704040Y-74863367D01*
X106702886Y-74858560D01*
X106702885Y-74858554D01*
X106659057Y-74676000D01*
X106648628Y-74632561D01*
X106646734Y-74627988D01*
X106559687Y-74417837D01*
X106559686Y-74417835D01*
X106557793Y-74413265D01*
X106433770Y-74210879D01*
X106279614Y-74030386D01*
X106261299Y-74014743D01*
X106102883Y-73879443D01*
X106099121Y-73876230D01*
X105896735Y-73752207D01*
X105892165Y-73750314D01*
X105892163Y-73750313D01*
X105749059Y-73691038D01*
X105693778Y-73646490D01*
X105671357Y-73579127D01*
X105688915Y-73510335D01*
X105740877Y-73461957D01*
X105807163Y-73449017D01*
X105848962Y-73452307D01*
X105848971Y-73452307D01*
X105851419Y-73452500D01*
X106314812Y-73452500D01*
X106778580Y-73452499D01*
X106827947Y-73448614D01*
X106852150Y-73446710D01*
X106852152Y-73446710D01*
X106857904Y-73446257D01*
X107042371Y-73396829D01*
X107212530Y-73310129D01*
X107235705Y-73291362D01*
X107301232Y-73264036D01*
X107371131Y-73276475D01*
X107394294Y-73291361D01*
X107417470Y-73310129D01*
X107587629Y-73396829D01*
X107594002Y-73398537D01*
X107594003Y-73398537D01*
X107766519Y-73444763D01*
X107766523Y-73444764D01*
X107772096Y-73446257D01*
X107777852Y-73446710D01*
X107848963Y-73452307D01*
X107848970Y-73452307D01*
X107851419Y-73452500D01*
X108314812Y-73452500D01*
X108778580Y-73452499D01*
X108827947Y-73448614D01*
X108852150Y-73446710D01*
X108852152Y-73446710D01*
X108857904Y-73446257D01*
X109042371Y-73396829D01*
X109212530Y-73310129D01*
X109235705Y-73291362D01*
X109301232Y-73264036D01*
X109371131Y-73276475D01*
X109394294Y-73291361D01*
X109417470Y-73310129D01*
X109587629Y-73396829D01*
X109594002Y-73398537D01*
X109594003Y-73398537D01*
X109766519Y-73444763D01*
X109766523Y-73444764D01*
X109772096Y-73446257D01*
X109777852Y-73446710D01*
X109848963Y-73452307D01*
X109848970Y-73452307D01*
X109851419Y-73452500D01*
X110314812Y-73452500D01*
X110778580Y-73452499D01*
X110827947Y-73448614D01*
X110852150Y-73446710D01*
X110852152Y-73446710D01*
X110857904Y-73446257D01*
X111042371Y-73396829D01*
X111212530Y-73310129D01*
X111235705Y-73291362D01*
X111301232Y-73264036D01*
X111371131Y-73276475D01*
X111394294Y-73291361D01*
X111417470Y-73310129D01*
X111587629Y-73396829D01*
X111594002Y-73398537D01*
X111594003Y-73398537D01*
X111766519Y-73444763D01*
X111766523Y-73444764D01*
X111772096Y-73446257D01*
X111777852Y-73446710D01*
X111848963Y-73452307D01*
X111848970Y-73452307D01*
X111851419Y-73452500D01*
X112314812Y-73452500D01*
X112778580Y-73452499D01*
X112827947Y-73448614D01*
X112852150Y-73446710D01*
X112852152Y-73446710D01*
X112857904Y-73446257D01*
X113042371Y-73396829D01*
X113212530Y-73310129D01*
X113235705Y-73291362D01*
X113301232Y-73264036D01*
X113371131Y-73276475D01*
X113394294Y-73291361D01*
X113417470Y-73310129D01*
X113587629Y-73396829D01*
X113594002Y-73398537D01*
X113594003Y-73398537D01*
X113766519Y-73444763D01*
X113766523Y-73444764D01*
X113772096Y-73446257D01*
X113777852Y-73446710D01*
X113848963Y-73452307D01*
X113848970Y-73452307D01*
X113851419Y-73452500D01*
X114314812Y-73452500D01*
X114778580Y-73452499D01*
X114827947Y-73448614D01*
X114852150Y-73446710D01*
X114852152Y-73446710D01*
X114857904Y-73446257D01*
X115042371Y-73396829D01*
X115212530Y-73310129D01*
X115235705Y-73291362D01*
X115301232Y-73264036D01*
X115371131Y-73276475D01*
X115394294Y-73291361D01*
X115417470Y-73310129D01*
X115587629Y-73396829D01*
X115594002Y-73398537D01*
X115594003Y-73398537D01*
X115766519Y-73444763D01*
X115766523Y-73444764D01*
X115772096Y-73446257D01*
X115777852Y-73446710D01*
X115848963Y-73452307D01*
X115848970Y-73452307D01*
X115851419Y-73452500D01*
X116314812Y-73452500D01*
X116778580Y-73452499D01*
X116827947Y-73448614D01*
X116852150Y-73446710D01*
X116852152Y-73446710D01*
X116857904Y-73446257D01*
X117042371Y-73396829D01*
X117071518Y-73381978D01*
X117206649Y-73313126D01*
X117206653Y-73313124D01*
X117212530Y-73310129D01*
X117217660Y-73305975D01*
X117217663Y-73305973D01*
X117355814Y-73194100D01*
X117360945Y-73189945D01*
X117365100Y-73184814D01*
X117476973Y-73046663D01*
X117476976Y-73046659D01*
X117481129Y-73041530D01*
X117567829Y-72871371D01*
X117591804Y-72781895D01*
X117615763Y-72692481D01*
X117615764Y-72692477D01*
X117617257Y-72686904D01*
X117618051Y-72676810D01*
X117623307Y-72610037D01*
X117623307Y-72610030D01*
X117623500Y-72607581D01*
X117623499Y-69280420D01*
X117618402Y-69215643D01*
X117617710Y-69206850D01*
X117617710Y-69206848D01*
X117617257Y-69201096D01*
X117567829Y-69016629D01*
X117500134Y-68883769D01*
X117484126Y-68852351D01*
X117484124Y-68852347D01*
X117481129Y-68846470D01*
X117476976Y-68841341D01*
X117476973Y-68841337D01*
X117365100Y-68703186D01*
X117360945Y-68698055D01*
X117315001Y-68660850D01*
X117217663Y-68582027D01*
X117217659Y-68582024D01*
X117212530Y-68577871D01*
X117206653Y-68574876D01*
X117206649Y-68574874D01*
X117048251Y-68494167D01*
X117042371Y-68491171D01*
X117007555Y-68481842D01*
X116863481Y-68443237D01*
X116863477Y-68443236D01*
X116857904Y-68441743D01*
X116848175Y-68440977D01*
X116781037Y-68435693D01*
X116781030Y-68435693D01*
X116778581Y-68435500D01*
X116315188Y-68435500D01*
X115851420Y-68435501D01*
X115802053Y-68439386D01*
X115777850Y-68441290D01*
X115777848Y-68441290D01*
X115772096Y-68441743D01*
X115587629Y-68491171D01*
X115417470Y-68577871D01*
X115412341Y-68582024D01*
X115412340Y-68582025D01*
X115394295Y-68596638D01*
X115328768Y-68623964D01*
X115258869Y-68611525D01*
X115235705Y-68596638D01*
X115217660Y-68582025D01*
X115217659Y-68582024D01*
X115212530Y-68577871D01*
X115042371Y-68491171D01*
X115007555Y-68481842D01*
X114863481Y-68443237D01*
X114863477Y-68443236D01*
X114857904Y-68441743D01*
X114848175Y-68440977D01*
X114781037Y-68435693D01*
X114781030Y-68435693D01*
X114778581Y-68435500D01*
X114315188Y-68435500D01*
X113851420Y-68435501D01*
X113802053Y-68439386D01*
X113777850Y-68441290D01*
X113777848Y-68441290D01*
X113772096Y-68441743D01*
X113587629Y-68491171D01*
X113417470Y-68577871D01*
X113412341Y-68582024D01*
X113412340Y-68582025D01*
X113394295Y-68596638D01*
X113328768Y-68623964D01*
X113258869Y-68611525D01*
X113235705Y-68596638D01*
X113217660Y-68582025D01*
X113217659Y-68582024D01*
X113212530Y-68577871D01*
X113042371Y-68491171D01*
X113007555Y-68481842D01*
X112863481Y-68443237D01*
X112863477Y-68443236D01*
X112857904Y-68441743D01*
X112848175Y-68440977D01*
X112781037Y-68435693D01*
X112781030Y-68435693D01*
X112778581Y-68435500D01*
X112315188Y-68435500D01*
X111851420Y-68435501D01*
X111802053Y-68439386D01*
X111777850Y-68441290D01*
X111777848Y-68441290D01*
X111772096Y-68441743D01*
X111587629Y-68491171D01*
X111417470Y-68577871D01*
X111412341Y-68582024D01*
X111412340Y-68582025D01*
X111394295Y-68596638D01*
X111328768Y-68623964D01*
X111258869Y-68611525D01*
X111235705Y-68596638D01*
X111217660Y-68582025D01*
X111217659Y-68582024D01*
X111212530Y-68577871D01*
X111042371Y-68491171D01*
X111007555Y-68481842D01*
X110863481Y-68443237D01*
X110863477Y-68443236D01*
X110857904Y-68441743D01*
X110848175Y-68440977D01*
X110781037Y-68435693D01*
X110781030Y-68435693D01*
X110778581Y-68435500D01*
X110315188Y-68435500D01*
X109851420Y-68435501D01*
X109802053Y-68439386D01*
X109777850Y-68441290D01*
X109777848Y-68441290D01*
X109772096Y-68441743D01*
X109587629Y-68491171D01*
X109417470Y-68577871D01*
X109412341Y-68582024D01*
X109412340Y-68582025D01*
X109394295Y-68596638D01*
X109328768Y-68623964D01*
X109258869Y-68611525D01*
X109235705Y-68596638D01*
X109217660Y-68582025D01*
X109217659Y-68582024D01*
X109212530Y-68577871D01*
X109042371Y-68491171D01*
X109007555Y-68481842D01*
X108863481Y-68443237D01*
X108863477Y-68443236D01*
X108857904Y-68441743D01*
X108848175Y-68440977D01*
X108781037Y-68435693D01*
X108781030Y-68435693D01*
X108778581Y-68435500D01*
X108315188Y-68435500D01*
X107851420Y-68435501D01*
X107802053Y-68439386D01*
X107777850Y-68441290D01*
X107777848Y-68441290D01*
X107772096Y-68441743D01*
X107587629Y-68491171D01*
X107417470Y-68577871D01*
X107412341Y-68582024D01*
X107412340Y-68582025D01*
X107394295Y-68596638D01*
X107328768Y-68623964D01*
X107258869Y-68611525D01*
X107235705Y-68596638D01*
X107217660Y-68582025D01*
X107217659Y-68582024D01*
X107212530Y-68577871D01*
X107042371Y-68491171D01*
X107007555Y-68481842D01*
X106863481Y-68443237D01*
X106863477Y-68443236D01*
X106857904Y-68441743D01*
X106848175Y-68440977D01*
X106781037Y-68435693D01*
X106781030Y-68435693D01*
X106778581Y-68435500D01*
X106315188Y-68435500D01*
X105851420Y-68435501D01*
X105802053Y-68439386D01*
X105777850Y-68441290D01*
X105777848Y-68441290D01*
X105772096Y-68441743D01*
X105587629Y-68491171D01*
X105417470Y-68577871D01*
X105412341Y-68582024D01*
X105412340Y-68582025D01*
X105394295Y-68596638D01*
X105328768Y-68623964D01*
X105258869Y-68611525D01*
X105235705Y-68596638D01*
X105217660Y-68582025D01*
X105217659Y-68582024D01*
X105212530Y-68577871D01*
X105042371Y-68491171D01*
X105007555Y-68481842D01*
X104863481Y-68443237D01*
X104863477Y-68443236D01*
X104857904Y-68441743D01*
X104848175Y-68440977D01*
X104781037Y-68435693D01*
X104781030Y-68435693D01*
X104778581Y-68435500D01*
X104315188Y-68435500D01*
X103851420Y-68435501D01*
X103802053Y-68439386D01*
X103777850Y-68441290D01*
X103777848Y-68441290D01*
X103772096Y-68441743D01*
X103587629Y-68491171D01*
X103417470Y-68577871D01*
X103412341Y-68582024D01*
X103412340Y-68582025D01*
X103394295Y-68596638D01*
X103328768Y-68623964D01*
X103258869Y-68611525D01*
X103235705Y-68596638D01*
X103217660Y-68582025D01*
X103217659Y-68582024D01*
X103212530Y-68577871D01*
X103042371Y-68491171D01*
X103007555Y-68481842D01*
X102863481Y-68443237D01*
X102863477Y-68443236D01*
X102857904Y-68441743D01*
X102848175Y-68440977D01*
X102781037Y-68435693D01*
X102781030Y-68435693D01*
X102778581Y-68435500D01*
X102315188Y-68435500D01*
X101851420Y-68435501D01*
X101802053Y-68439386D01*
X101777850Y-68441290D01*
X101777848Y-68441290D01*
X101772096Y-68441743D01*
X101587629Y-68491171D01*
X101417470Y-68577871D01*
X101412341Y-68582024D01*
X101412340Y-68582025D01*
X101394295Y-68596638D01*
X101328768Y-68623964D01*
X101258869Y-68611525D01*
X101235705Y-68596638D01*
X101217660Y-68582025D01*
X101217659Y-68582024D01*
X101212530Y-68577871D01*
X101042371Y-68491171D01*
X101007555Y-68481842D01*
X100863481Y-68443237D01*
X100863477Y-68443236D01*
X100857904Y-68441743D01*
X100848175Y-68440977D01*
X100781037Y-68435693D01*
X100781030Y-68435693D01*
X100778581Y-68435500D01*
X100315188Y-68435500D01*
X99851420Y-68435501D01*
X99802053Y-68439386D01*
X99777850Y-68441290D01*
X99777848Y-68441290D01*
X99772096Y-68441743D01*
X99587629Y-68491171D01*
X99417470Y-68577871D01*
X99412341Y-68582024D01*
X99412340Y-68582025D01*
X99394295Y-68596638D01*
X99328768Y-68623964D01*
X99258869Y-68611525D01*
X99235705Y-68596638D01*
X99217660Y-68582025D01*
X99217659Y-68582024D01*
X99212530Y-68577871D01*
X99042371Y-68491171D01*
X99007555Y-68481842D01*
X98863481Y-68443237D01*
X98863477Y-68443236D01*
X98857904Y-68441743D01*
X98848175Y-68440977D01*
X98781037Y-68435693D01*
X98781030Y-68435693D01*
X98778581Y-68435500D01*
X98315188Y-68435500D01*
X97851420Y-68435501D01*
X97802053Y-68439386D01*
X97777850Y-68441290D01*
X97777848Y-68441290D01*
X97772096Y-68441743D01*
X97587629Y-68491171D01*
X97581749Y-68494167D01*
X97423351Y-68574874D01*
X97423347Y-68574876D01*
X97417470Y-68577871D01*
X97412341Y-68582024D01*
X97412337Y-68582027D01*
X97314999Y-68660850D01*
X97269055Y-68698055D01*
X97264900Y-68703186D01*
X97153027Y-68841337D01*
X97153024Y-68841341D01*
X97148871Y-68846470D01*
X97145876Y-68852347D01*
X97145874Y-68852351D01*
X97129866Y-68883769D01*
X97062171Y-69016629D01*
X97060463Y-69023002D01*
X97060463Y-69023003D01*
X97034214Y-69120967D01*
X97012743Y-69201096D01*
X97012290Y-69206850D01*
X97012290Y-69206852D01*
X97006694Y-69277960D01*
X97006500Y-69280419D01*
X92800816Y-69280419D01*
X99094379Y-62986855D01*
X99104522Y-62977753D01*
X99129218Y-62957897D01*
X99134025Y-62954032D01*
X99166292Y-62915578D01*
X99169472Y-62911931D01*
X99171115Y-62910119D01*
X99173309Y-62907925D01*
X99200642Y-62874651D01*
X99201348Y-62873800D01*
X99201488Y-62873634D01*
X99261154Y-62802526D01*
X99263722Y-62797856D01*
X99267103Y-62793739D01*
X99310977Y-62711914D01*
X99311606Y-62710755D01*
X99353462Y-62634619D01*
X99353465Y-62634611D01*
X99356433Y-62629213D01*
X99358045Y-62624131D01*
X99360562Y-62619437D01*
X99387762Y-62530469D01*
X99388108Y-62529358D01*
X99389054Y-62526378D01*
X99416235Y-62440694D01*
X99416829Y-62435398D01*
X99418387Y-62430302D01*
X99427790Y-62337743D01*
X99427911Y-62336607D01*
X99433500Y-62286773D01*
X99433500Y-62283246D01*
X99433555Y-62282261D01*
X99434002Y-62276581D01*
X99438374Y-62233538D01*
X99434059Y-62187891D01*
X99433500Y-62176033D01*
X99433500Y-58965556D01*
X99453502Y-58897435D01*
X99477668Y-58869746D01*
X99491212Y-58858178D01*
X99491213Y-58858177D01*
X99494969Y-58854969D01*
X99649176Y-58674416D01*
X99651755Y-58670208D01*
X99651759Y-58670202D01*
X99770654Y-58476183D01*
X99773240Y-58471963D01*
X99777322Y-58462110D01*
X99862211Y-58257167D01*
X99862212Y-58257165D01*
X99864105Y-58252594D01*
X99898167Y-58110716D01*
X99918380Y-58026524D01*
X99918381Y-58026518D01*
X99919535Y-58021711D01*
X99938165Y-57785000D01*
X99919535Y-57548289D01*
X99917796Y-57541042D01*
X99867553Y-57331769D01*
X99864105Y-57317406D01*
X99817118Y-57203969D01*
X99775135Y-57102611D01*
X99775133Y-57102607D01*
X99773240Y-57098037D01*
X99770654Y-57093817D01*
X99651759Y-56899798D01*
X99651755Y-56899792D01*
X99649176Y-56895584D01*
X99494969Y-56715031D01*
X99314416Y-56560824D01*
X99310208Y-56558245D01*
X99310202Y-56558241D01*
X99116183Y-56439346D01*
X99111963Y-56436760D01*
X99107393Y-56434867D01*
X99107389Y-56434865D01*
X98897167Y-56347789D01*
X98897165Y-56347788D01*
X98892594Y-56345895D01*
X98762366Y-56314630D01*
X98666524Y-56291620D01*
X98666518Y-56291619D01*
X98661711Y-56290465D01*
X98425000Y-56271835D01*
X98188289Y-56290465D01*
X98183482Y-56291619D01*
X98183476Y-56291620D01*
X98087634Y-56314630D01*
X97957406Y-56345895D01*
X97952835Y-56347788D01*
X97952833Y-56347789D01*
X97742611Y-56434865D01*
X97742607Y-56434867D01*
X97738037Y-56436760D01*
X97733817Y-56439346D01*
X97539798Y-56558241D01*
X97539792Y-56558245D01*
X97535584Y-56560824D01*
X97355031Y-56715031D01*
X97200824Y-56895584D01*
X97198245Y-56899792D01*
X97198241Y-56899798D01*
X97079346Y-57093817D01*
X97076760Y-57098037D01*
X97074867Y-57102607D01*
X97074865Y-57102611D01*
X97032882Y-57203969D01*
X96985895Y-57317406D01*
X96982447Y-57331769D01*
X96932205Y-57541042D01*
X96930465Y-57548289D01*
X96911835Y-57785000D01*
X96930465Y-58021711D01*
X96931619Y-58026518D01*
X96931620Y-58026524D01*
X96951833Y-58110716D01*
X96985895Y-58252594D01*
X96987788Y-58257165D01*
X96987789Y-58257167D01*
X97072679Y-58462110D01*
X97076760Y-58471963D01*
X97079346Y-58476183D01*
X97198241Y-58670202D01*
X97198245Y-58670208D01*
X97200824Y-58674416D01*
X97355031Y-58854969D01*
X97358787Y-58858177D01*
X97358788Y-58858178D01*
X97372332Y-58869746D01*
X97411140Y-58929197D01*
X97416500Y-58965556D01*
X97416500Y-61760075D01*
X97396498Y-61828196D01*
X97379595Y-61849170D01*
X94159943Y-65068822D01*
X94097631Y-65102848D01*
X94026816Y-65097783D01*
X93969980Y-65055236D01*
X93945169Y-64988716D01*
X93949141Y-64947115D01*
X94003543Y-64744087D01*
X94023498Y-64516000D01*
X94003543Y-64287913D01*
X93984446Y-64216642D01*
X93945707Y-64072067D01*
X93945706Y-64072065D01*
X93944284Y-64066757D01*
X93929349Y-64034728D01*
X93849849Y-63864238D01*
X93849846Y-63864233D01*
X93847523Y-63859251D01*
X93716198Y-63671700D01*
X93554300Y-63509802D01*
X93549792Y-63506645D01*
X93549789Y-63506643D01*
X93471611Y-63451902D01*
X93366749Y-63378477D01*
X93361767Y-63376154D01*
X93361762Y-63376151D01*
X93164225Y-63284039D01*
X93164224Y-63284039D01*
X93159243Y-63281716D01*
X93153935Y-63280294D01*
X93153933Y-63280293D01*
X92943402Y-63223881D01*
X92943400Y-63223881D01*
X92938087Y-63222457D01*
X92710000Y-63202502D01*
X92481913Y-63222457D01*
X92476600Y-63223881D01*
X92476598Y-63223881D01*
X92266067Y-63280293D01*
X92266065Y-63280294D01*
X92260757Y-63281716D01*
X92255776Y-63284039D01*
X92255775Y-63284039D01*
X92058238Y-63376151D01*
X92058233Y-63376154D01*
X92053251Y-63378477D01*
X91948389Y-63451902D01*
X91870211Y-63506643D01*
X91870208Y-63506645D01*
X91865700Y-63509802D01*
X91703802Y-63671700D01*
X91572477Y-63859251D01*
X91570154Y-63864233D01*
X91570151Y-63864238D01*
X91490651Y-64034728D01*
X91475716Y-64066757D01*
X91474294Y-64072065D01*
X91474293Y-64072067D01*
X91435554Y-64216642D01*
X91416457Y-64287913D01*
X91396502Y-64516000D01*
X91416457Y-64744087D01*
X91417880Y-64749399D01*
X91417881Y-64749402D01*
X91470859Y-64947115D01*
X91475716Y-64965243D01*
X91478039Y-64970224D01*
X91478039Y-64970225D01*
X91570151Y-65167762D01*
X91570154Y-65167767D01*
X91572477Y-65172749D01*
X91575634Y-65177257D01*
X91680047Y-65326374D01*
X91703802Y-65360300D01*
X91865700Y-65522198D01*
X91870208Y-65525355D01*
X91870211Y-65525357D01*
X91921693Y-65561405D01*
X92053251Y-65653523D01*
X92058233Y-65655846D01*
X92058238Y-65655849D01*
X92255775Y-65747961D01*
X92260757Y-65750284D01*
X92266065Y-65751706D01*
X92266067Y-65751707D01*
X92476598Y-65808119D01*
X92476600Y-65808119D01*
X92481913Y-65809543D01*
X92710000Y-65829498D01*
X92938087Y-65809543D01*
X93141116Y-65755141D01*
X93212092Y-65756831D01*
X93270888Y-65796625D01*
X93298836Y-65861889D01*
X93287063Y-65931903D01*
X93262822Y-65965943D01*
X85598171Y-73630595D01*
X85535859Y-73664621D01*
X85509076Y-73667500D01*
X70901842Y-73667500D01*
X70888235Y-73666763D01*
X70856737Y-73663341D01*
X70856732Y-73663341D01*
X70850611Y-73662676D01*
X70832611Y-73664251D01*
X70800609Y-73667050D01*
X70795784Y-73667379D01*
X70793313Y-73667500D01*
X70790231Y-73667500D01*
X70767763Y-73669703D01*
X70747489Y-73671691D01*
X70746174Y-73671813D01*
X70713913Y-73674636D01*
X70653587Y-73679913D01*
X70648468Y-73681400D01*
X70643167Y-73681920D01*
X70554194Y-73708782D01*
X70553054Y-73709120D01*
X70463663Y-73735091D01*
X70458929Y-73737545D01*
X70453831Y-73739084D01*
X70448387Y-73741978D01*
X70448386Y-73741979D01*
X70371831Y-73782684D01*
X70370663Y-73783298D01*
X70288074Y-73826108D01*
X70283911Y-73829431D01*
X70279204Y-73831934D01*
X70207082Y-73890755D01*
X70206226Y-73891446D01*
X70167027Y-73922738D01*
X70164523Y-73925242D01*
X70163805Y-73925884D01*
X70159472Y-73929585D01*
X70125938Y-73956935D01*
X70122011Y-73961682D01*
X70122009Y-73961684D01*
X70096713Y-73992262D01*
X70088723Y-74001042D01*
X66629171Y-77460595D01*
X66566859Y-77494621D01*
X66540076Y-77497500D01*
X66453001Y-77497500D01*
X66450214Y-77497749D01*
X66450208Y-77497749D01*
X66380071Y-77504009D01*
X66286238Y-77512383D01*
X66280824Y-77513864D01*
X66280819Y-77513865D01*
X66153088Y-77548809D01*
X66069549Y-77571663D01*
X66064491Y-77574075D01*
X66064487Y-77574077D01*
X65968165Y-77620021D01*
X65866782Y-77668378D01*
X65684346Y-77799471D01*
X65528008Y-77960799D01*
X65402710Y-78147262D01*
X65312412Y-78352967D01*
X65259968Y-78571411D01*
X65247037Y-78795690D01*
X60718000Y-78795690D01*
X60718000Y-72089753D01*
X64418001Y-72089753D01*
X64418055Y-72091644D01*
X64419480Y-72101600D01*
X64458105Y-72268902D01*
X64462755Y-72282105D01*
X64536738Y-72435148D01*
X64544202Y-72447000D01*
X64650255Y-72579849D01*
X64660151Y-72589745D01*
X64793000Y-72695798D01*
X64804852Y-72703262D01*
X64957895Y-72777245D01*
X64971098Y-72781895D01*
X65138399Y-72820520D01*
X65148347Y-72821944D01*
X65150277Y-72822000D01*
X65753885Y-72822000D01*
X65769124Y-72817525D01*
X65770329Y-72816135D01*
X65772000Y-72808452D01*
X65772000Y-71836115D01*
X65767525Y-71820876D01*
X65766135Y-71819671D01*
X65758452Y-71818000D01*
X64436116Y-71818000D01*
X64420877Y-71822475D01*
X64419672Y-71823865D01*
X64418001Y-71831548D01*
X64418001Y-72089753D01*
X60718000Y-72089753D01*
X60718000Y-64512462D01*
X62994626Y-64512462D01*
X62995206Y-64518593D01*
X62998941Y-64558109D01*
X62999500Y-64569967D01*
X62999500Y-68772157D01*
X62998763Y-68785764D01*
X62994676Y-68823388D01*
X62995213Y-68829523D01*
X62999050Y-68873388D01*
X62999379Y-68878214D01*
X62999500Y-68880686D01*
X62999500Y-68883769D01*
X62999801Y-68886837D01*
X63003690Y-68926506D01*
X63003812Y-68927819D01*
X63011913Y-69020413D01*
X63013400Y-69025532D01*
X63013920Y-69030833D01*
X63040791Y-69119834D01*
X63041126Y-69120967D01*
X63062787Y-69195521D01*
X63067091Y-69210336D01*
X63069544Y-69215068D01*
X63071084Y-69220169D01*
X63073978Y-69225612D01*
X63114731Y-69302260D01*
X63115343Y-69303426D01*
X63158108Y-69385926D01*
X63161431Y-69390089D01*
X63163934Y-69394796D01*
X63222755Y-69466918D01*
X63223446Y-69467774D01*
X63254738Y-69506973D01*
X63257242Y-69509477D01*
X63257884Y-69510195D01*
X63261585Y-69514528D01*
X63288935Y-69548062D01*
X63324267Y-69577291D01*
X63333037Y-69585272D01*
X63981149Y-70233383D01*
X63990251Y-70243527D01*
X64013968Y-70273025D01*
X64018696Y-70276992D01*
X64052421Y-70305291D01*
X64056069Y-70308472D01*
X64057881Y-70310115D01*
X64060075Y-70312309D01*
X64093349Y-70339642D01*
X64094147Y-70340304D01*
X64165474Y-70400154D01*
X64170144Y-70402722D01*
X64174261Y-70406103D01*
X64194079Y-70416729D01*
X64256086Y-70449977D01*
X64257245Y-70450606D01*
X64333381Y-70492462D01*
X64333389Y-70492465D01*
X64338787Y-70495433D01*
X64343869Y-70497045D01*
X64348563Y-70499562D01*
X64354454Y-70501363D01*
X64437477Y-70526747D01*
X64438738Y-70527140D01*
X64454518Y-70532146D01*
X64513401Y-70571810D01*
X64541493Y-70637013D01*
X64529857Y-70707086D01*
X64462755Y-70845895D01*
X64458105Y-70859098D01*
X64419480Y-71026399D01*
X64418056Y-71036347D01*
X64418000Y-71038277D01*
X64418000Y-71291885D01*
X64422475Y-71307124D01*
X64423865Y-71308329D01*
X64431548Y-71310000D01*
X66154000Y-71310000D01*
X66222121Y-71330002D01*
X66268614Y-71383658D01*
X66280000Y-71436000D01*
X66280000Y-72803884D01*
X66284475Y-72819123D01*
X66285865Y-72820328D01*
X66293548Y-72821999D01*
X66901753Y-72821999D01*
X66903644Y-72821945D01*
X66913600Y-72820520D01*
X67080902Y-72781895D01*
X67094105Y-72777245D01*
X67247145Y-72703263D01*
X67258383Y-72696186D01*
X67326685Y-72676810D01*
X67392674Y-72696187D01*
X67392729Y-72696222D01*
X67398240Y-72700621D01*
X67564070Y-72780786D01*
X67570931Y-72782370D01*
X67738341Y-72821020D01*
X67738344Y-72821020D01*
X67743540Y-72822220D01*
X67748396Y-72822500D01*
X69503604Y-72822500D01*
X69508460Y-72822220D01*
X69513656Y-72821020D01*
X69513659Y-72821020D01*
X69681069Y-72782370D01*
X69687930Y-72780786D01*
X69853760Y-72700621D01*
X69997708Y-72585708D01*
X70112621Y-72441760D01*
X70115818Y-72435148D01*
X70189720Y-72282272D01*
X70192786Y-72275930D01*
X70234220Y-72096460D01*
X70234500Y-72091604D01*
X70234500Y-71036396D01*
X70234220Y-71031540D01*
X70192786Y-70852070D01*
X70145058Y-70753339D01*
X70133418Y-70683303D01*
X70161490Y-70618092D01*
X70220362Y-70578410D01*
X70258498Y-70572500D01*
X71465193Y-70572500D01*
X71533314Y-70592502D01*
X71543515Y-70600013D01*
X71545700Y-70602198D01*
X71733251Y-70733523D01*
X71738233Y-70735846D01*
X71738238Y-70735849D01*
X71924064Y-70822500D01*
X71940757Y-70830284D01*
X71946065Y-70831706D01*
X71946067Y-70831707D01*
X72156598Y-70888119D01*
X72156600Y-70888119D01*
X72161913Y-70889543D01*
X72390000Y-70909498D01*
X72618087Y-70889543D01*
X72623400Y-70888119D01*
X72623402Y-70888119D01*
X72833933Y-70831707D01*
X72833935Y-70831706D01*
X72839243Y-70830284D01*
X72855936Y-70822500D01*
X73041762Y-70735849D01*
X73041767Y-70735846D01*
X73046749Y-70733523D01*
X73211601Y-70618092D01*
X73229789Y-70605357D01*
X73229794Y-70605353D01*
X73234300Y-70602198D01*
X73344305Y-70492193D01*
X73374248Y-70470036D01*
X73398294Y-70457251D01*
X73399460Y-70456639D01*
X73476453Y-70416729D01*
X73481926Y-70413892D01*
X73486089Y-70410569D01*
X73490796Y-70408066D01*
X73562918Y-70349245D01*
X73563774Y-70348554D01*
X73602973Y-70317262D01*
X73605477Y-70314758D01*
X73606195Y-70314116D01*
X73610528Y-70310415D01*
X73644062Y-70283065D01*
X73673288Y-70247737D01*
X73681277Y-70238958D01*
X76037116Y-67883118D01*
X76099428Y-67849093D01*
X76115227Y-67846692D01*
X76174087Y-67841543D01*
X76321859Y-67801947D01*
X76389933Y-67783707D01*
X76389935Y-67783706D01*
X76395243Y-67782284D01*
X76400225Y-67779961D01*
X76597762Y-67687849D01*
X76597767Y-67687846D01*
X76602749Y-67685523D01*
X76707611Y-67612098D01*
X76785789Y-67557357D01*
X76785792Y-67557355D01*
X76790300Y-67554198D01*
X76952198Y-67392300D01*
X77083523Y-67204749D01*
X77085846Y-67199767D01*
X77085849Y-67199762D01*
X77177961Y-67002225D01*
X77177961Y-67002224D01*
X77180284Y-66997243D01*
X77239543Y-66776087D01*
X77259498Y-66548000D01*
X77239543Y-66319913D01*
X77230881Y-66287587D01*
X77181707Y-66104067D01*
X77181706Y-66104065D01*
X77180284Y-66098757D01*
X77177961Y-66093775D01*
X77085849Y-65896238D01*
X77085846Y-65896233D01*
X77083523Y-65891251D01*
X76989401Y-65756831D01*
X76955357Y-65708211D01*
X76955355Y-65708208D01*
X76952198Y-65703700D01*
X76790300Y-65541802D01*
X76785792Y-65538645D01*
X76785789Y-65538643D01*
X76658752Y-65449691D01*
X76602749Y-65410477D01*
X76597767Y-65408154D01*
X76597762Y-65408151D01*
X76563543Y-65392195D01*
X76510258Y-65345278D01*
X76490797Y-65277001D01*
X76511339Y-65209041D01*
X76563543Y-65163805D01*
X76597762Y-65147849D01*
X76597767Y-65147846D01*
X76602749Y-65145523D01*
X76731692Y-65055236D01*
X76785789Y-65017357D01*
X76785792Y-65017355D01*
X76790300Y-65014198D01*
X76952198Y-64852300D01*
X77083523Y-64664749D01*
X77085846Y-64659767D01*
X77085849Y-64659762D01*
X77177961Y-64462225D01*
X77177961Y-64462224D01*
X77180284Y-64457243D01*
X77185635Y-64437275D01*
X77238119Y-64241402D01*
X77238119Y-64241400D01*
X77239543Y-64236087D01*
X77259498Y-64008000D01*
X77239543Y-63779913D01*
X77234941Y-63762738D01*
X77181707Y-63564067D01*
X77181706Y-63564065D01*
X77180284Y-63558757D01*
X77159273Y-63513699D01*
X77085849Y-63356238D01*
X77085846Y-63356233D01*
X77083523Y-63351251D01*
X77001734Y-63234444D01*
X76955357Y-63168211D01*
X76955355Y-63168208D01*
X76952198Y-63163700D01*
X76790300Y-63001802D01*
X76785792Y-62998645D01*
X76785789Y-62998643D01*
X76661951Y-62911931D01*
X76602749Y-62870477D01*
X76597767Y-62868154D01*
X76597762Y-62868151D01*
X76400225Y-62776039D01*
X76400224Y-62776039D01*
X76395243Y-62773716D01*
X76389935Y-62772294D01*
X76389933Y-62772293D01*
X76179402Y-62715881D01*
X76179400Y-62715881D01*
X76174087Y-62714457D01*
X75946000Y-62694502D01*
X75717913Y-62714457D01*
X75712600Y-62715881D01*
X75712598Y-62715881D01*
X75502067Y-62772293D01*
X75502065Y-62772294D01*
X75496757Y-62773716D01*
X75491776Y-62776039D01*
X75491775Y-62776039D01*
X75294238Y-62868151D01*
X75294233Y-62868154D01*
X75289251Y-62870477D01*
X75230049Y-62911931D01*
X75106211Y-62998643D01*
X75106208Y-62998645D01*
X75101700Y-63001802D01*
X74939802Y-63163700D01*
X74936645Y-63168208D01*
X74936643Y-63168211D01*
X74890266Y-63234444D01*
X74808477Y-63351251D01*
X74806154Y-63356233D01*
X74806151Y-63356238D01*
X74769541Y-63434750D01*
X74722624Y-63488035D01*
X74655346Y-63507500D01*
X71435843Y-63507500D01*
X71422236Y-63506763D01*
X71390738Y-63503341D01*
X71390733Y-63503341D01*
X71384612Y-63502676D01*
X71358362Y-63504973D01*
X71334612Y-63507050D01*
X71329786Y-63507379D01*
X71327314Y-63507500D01*
X71324231Y-63507500D01*
X71312262Y-63508674D01*
X71281494Y-63511690D01*
X71280181Y-63511812D01*
X71235916Y-63515685D01*
X71187587Y-63519913D01*
X71182468Y-63521400D01*
X71177167Y-63521920D01*
X71088166Y-63548791D01*
X71087033Y-63549126D01*
X71003586Y-63573370D01*
X71003582Y-63573372D01*
X70997664Y-63575091D01*
X70992932Y-63577544D01*
X70987831Y-63579084D01*
X70982388Y-63581978D01*
X70905740Y-63622731D01*
X70904574Y-63623343D01*
X70827547Y-63663271D01*
X70822074Y-63666108D01*
X70817911Y-63669431D01*
X70813204Y-63671934D01*
X70741082Y-63730755D01*
X70740226Y-63731446D01*
X70701027Y-63762738D01*
X70698523Y-63765242D01*
X70697805Y-63765884D01*
X70693472Y-63769585D01*
X70659938Y-63796935D01*
X70656011Y-63801682D01*
X70656009Y-63801684D01*
X70630713Y-63832262D01*
X70622723Y-63841042D01*
X69394944Y-65068822D01*
X68195171Y-66268595D01*
X68132859Y-66302620D01*
X68106076Y-66305500D01*
X67758925Y-66305500D01*
X67690804Y-66285498D01*
X67644311Y-66231842D01*
X67634207Y-66161568D01*
X67663701Y-66096988D01*
X67669830Y-66090405D01*
X70011379Y-63748855D01*
X70021522Y-63739753D01*
X70046218Y-63719897D01*
X70051025Y-63716032D01*
X70083292Y-63677578D01*
X70086472Y-63673931D01*
X70088115Y-63672119D01*
X70090309Y-63669925D01*
X70117642Y-63636651D01*
X70118348Y-63635800D01*
X70129315Y-63622731D01*
X70178154Y-63564526D01*
X70180722Y-63559856D01*
X70184103Y-63555739D01*
X70227977Y-63473914D01*
X70228606Y-63472755D01*
X70270462Y-63396619D01*
X70270465Y-63396611D01*
X70273433Y-63391213D01*
X70275045Y-63386131D01*
X70277562Y-63381437D01*
X70304762Y-63292469D01*
X70305108Y-63291358D01*
X70308619Y-63280293D01*
X70333235Y-63202694D01*
X70333829Y-63197398D01*
X70335387Y-63192302D01*
X70344790Y-63099743D01*
X70344911Y-63098607D01*
X70350500Y-63048773D01*
X70350500Y-63045246D01*
X70350555Y-63044261D01*
X70351002Y-63038581D01*
X70355374Y-62995538D01*
X70351059Y-62949891D01*
X70350500Y-62938033D01*
X70350500Y-59506062D01*
X72343493Y-59506062D01*
X72352789Y-59518077D01*
X72403994Y-59553931D01*
X72413489Y-59559414D01*
X72610947Y-59651490D01*
X72621239Y-59655236D01*
X72831688Y-59711625D01*
X72842481Y-59713528D01*
X73059525Y-59732517D01*
X73070475Y-59732517D01*
X73287519Y-59713528D01*
X73298312Y-59711625D01*
X73508761Y-59655236D01*
X73519053Y-59651490D01*
X73716511Y-59559414D01*
X73726006Y-59553931D01*
X73778048Y-59517491D01*
X73786424Y-59507012D01*
X73779356Y-59493566D01*
X73077812Y-58792022D01*
X73063868Y-58784408D01*
X73062035Y-58784539D01*
X73055420Y-58788790D01*
X72349923Y-59494287D01*
X72343493Y-59506062D01*
X70350500Y-59506062D01*
X70350500Y-59249516D01*
X70370502Y-59181395D01*
X70424158Y-59134902D01*
X70447086Y-59126997D01*
X70506839Y-59112651D01*
X70571594Y-59097105D01*
X70610461Y-59081006D01*
X70786389Y-59008135D01*
X70786393Y-59008133D01*
X70790963Y-59006240D01*
X70848117Y-58971216D01*
X70989202Y-58884759D01*
X70989208Y-58884755D01*
X70993416Y-58882176D01*
X71173969Y-58727969D01*
X71328176Y-58547416D01*
X71330755Y-58543208D01*
X71330759Y-58543202D01*
X71449654Y-58349183D01*
X71452240Y-58344963D01*
X71465545Y-58312843D01*
X71527317Y-58163710D01*
X71571865Y-58108429D01*
X71639228Y-58086008D01*
X71708020Y-58103566D01*
X71756398Y-58155528D01*
X71769247Y-58222909D01*
X71752483Y-58414525D01*
X71752483Y-58425475D01*
X71771472Y-58642519D01*
X71773375Y-58653312D01*
X71829764Y-58863761D01*
X71833510Y-58874053D01*
X71925586Y-59071511D01*
X71931069Y-59081006D01*
X71967509Y-59133048D01*
X71977988Y-59141424D01*
X71991434Y-59134356D01*
X72692978Y-58432812D01*
X72699356Y-58421132D01*
X73429408Y-58421132D01*
X73429539Y-58422965D01*
X73433790Y-58429580D01*
X74139287Y-59135077D01*
X74151062Y-59141507D01*
X74163077Y-59132211D01*
X74198931Y-59081006D01*
X74204414Y-59071511D01*
X74296490Y-58874053D01*
X74300236Y-58863761D01*
X74356625Y-58653312D01*
X74358528Y-58642519D01*
X74377517Y-58425475D01*
X74377517Y-58414525D01*
X74358528Y-58197481D01*
X74356625Y-58186688D01*
X74300236Y-57976239D01*
X74296490Y-57965947D01*
X74204414Y-57768489D01*
X74198931Y-57758994D01*
X74162491Y-57706952D01*
X74152012Y-57698576D01*
X74138566Y-57705644D01*
X73437022Y-58407188D01*
X73429408Y-58421132D01*
X72699356Y-58421132D01*
X72700592Y-58418868D01*
X72700461Y-58417035D01*
X72696210Y-58410420D01*
X71990713Y-57704923D01*
X71978938Y-57698493D01*
X71966923Y-57707789D01*
X71931069Y-57758994D01*
X71925586Y-57768489D01*
X71838556Y-57955126D01*
X71791639Y-58008411D01*
X71723361Y-58027872D01*
X71655401Y-58007330D01*
X71609336Y-57953307D01*
X71598749Y-57891990D01*
X71616777Y-57662930D01*
X71617165Y-57658000D01*
X71615380Y-57635319D01*
X71629976Y-57565839D01*
X71651897Y-57536338D01*
X72008830Y-57179405D01*
X72071142Y-57145379D01*
X72097925Y-57142500D01*
X72233817Y-57142500D01*
X72301938Y-57162502D01*
X72348431Y-57216158D01*
X72358535Y-57286432D01*
X72343445Y-57321287D01*
X72342455Y-57330854D01*
X72350644Y-57346434D01*
X73052188Y-58047978D01*
X73066132Y-58055592D01*
X73067965Y-58055461D01*
X73074580Y-58051210D01*
X73780077Y-57345713D01*
X73787691Y-57331769D01*
X73787148Y-57324175D01*
X73769666Y-57279480D01*
X73783656Y-57209875D01*
X73833056Y-57158884D01*
X73895187Y-57142500D01*
X77208538Y-57142500D01*
X77276659Y-57162502D01*
X77323152Y-57216158D01*
X77333256Y-57286432D01*
X77303762Y-57351012D01*
X77280809Y-57371713D01*
X77225211Y-57410643D01*
X77225208Y-57410645D01*
X77220700Y-57413802D01*
X77058802Y-57575700D01*
X76927477Y-57763251D01*
X76925154Y-57768233D01*
X76925151Y-57768238D01*
X76845824Y-57938357D01*
X76830716Y-57970757D01*
X76829294Y-57976065D01*
X76829293Y-57976067D01*
X76789227Y-58125594D01*
X76771457Y-58191913D01*
X76751502Y-58420000D01*
X76771457Y-58648087D01*
X76772881Y-58653400D01*
X76772881Y-58653402D01*
X76818005Y-58821804D01*
X76830716Y-58869243D01*
X76833039Y-58874224D01*
X76833039Y-58874225D01*
X76925151Y-59071762D01*
X76925154Y-59071767D01*
X76927477Y-59076749D01*
X77058802Y-59264300D01*
X77220700Y-59426198D01*
X77225208Y-59429355D01*
X77225211Y-59429357D01*
X77263116Y-59455898D01*
X77408251Y-59557523D01*
X77413233Y-59559846D01*
X77413238Y-59559849D01*
X77609765Y-59651490D01*
X77615757Y-59654284D01*
X77621065Y-59655706D01*
X77621067Y-59655707D01*
X77831598Y-59712119D01*
X77831600Y-59712119D01*
X77836913Y-59713543D01*
X78065000Y-59733498D01*
X78293087Y-59713543D01*
X78298400Y-59712119D01*
X78298402Y-59712119D01*
X78508933Y-59655707D01*
X78508935Y-59655706D01*
X78514243Y-59654284D01*
X78520235Y-59651490D01*
X78716762Y-59559849D01*
X78716767Y-59559846D01*
X78721749Y-59557523D01*
X78866884Y-59455898D01*
X78904789Y-59429357D01*
X78904792Y-59429355D01*
X78909300Y-59426198D01*
X79071198Y-59264300D01*
X79202523Y-59076749D01*
X79204846Y-59071767D01*
X79204849Y-59071762D01*
X79296961Y-58874225D01*
X79296961Y-58874224D01*
X79299284Y-58869243D01*
X79311996Y-58821804D01*
X79357119Y-58653402D01*
X79357119Y-58653400D01*
X79358543Y-58648087D01*
X79378498Y-58420000D01*
X79358543Y-58191913D01*
X79340773Y-58125594D01*
X79300707Y-57976067D01*
X79300706Y-57976065D01*
X79299284Y-57970757D01*
X79284176Y-57938357D01*
X79204849Y-57768238D01*
X79204846Y-57768233D01*
X79202523Y-57763251D01*
X79071198Y-57575700D01*
X78909300Y-57413802D01*
X78904792Y-57410645D01*
X78904789Y-57410643D01*
X78849191Y-57371713D01*
X78804863Y-57316256D01*
X78797554Y-57245636D01*
X78829585Y-57182276D01*
X78890786Y-57146291D01*
X78921462Y-57142500D01*
X87211444Y-57142500D01*
X87279565Y-57162502D01*
X87307254Y-57186668D01*
X87318822Y-57200212D01*
X87322031Y-57203969D01*
X87325787Y-57207177D01*
X87325792Y-57207182D01*
X87406348Y-57275983D01*
X87445157Y-57335433D01*
X87445665Y-57406428D01*
X87413613Y-57460889D01*
X87298802Y-57575700D01*
X87167477Y-57763251D01*
X87165154Y-57768233D01*
X87165151Y-57768238D01*
X87085824Y-57938357D01*
X87070716Y-57970757D01*
X87069294Y-57976065D01*
X87069293Y-57976067D01*
X87029227Y-58125594D01*
X87011457Y-58191913D01*
X86991502Y-58420000D01*
X87011457Y-58648087D01*
X87012881Y-58653400D01*
X87012881Y-58653402D01*
X87058005Y-58821804D01*
X87070716Y-58869243D01*
X87073039Y-58874224D01*
X87073039Y-58874225D01*
X87165151Y-59071762D01*
X87165154Y-59071767D01*
X87167477Y-59076749D01*
X87298802Y-59264300D01*
X87460700Y-59426198D01*
X87465208Y-59429355D01*
X87465211Y-59429357D01*
X87503116Y-59455898D01*
X87648251Y-59557523D01*
X87653233Y-59559846D01*
X87653238Y-59559849D01*
X87849765Y-59651490D01*
X87855757Y-59654284D01*
X87861065Y-59655706D01*
X87861067Y-59655707D01*
X88071598Y-59712119D01*
X88071600Y-59712119D01*
X88076913Y-59713543D01*
X88305000Y-59733498D01*
X88533087Y-59713543D01*
X88538400Y-59712119D01*
X88538402Y-59712119D01*
X88748933Y-59655707D01*
X88748935Y-59655706D01*
X88754243Y-59654284D01*
X88760235Y-59651490D01*
X88956762Y-59559849D01*
X88956767Y-59559846D01*
X88961749Y-59557523D01*
X89035243Y-59506062D01*
X92583493Y-59506062D01*
X92592789Y-59518077D01*
X92643994Y-59553931D01*
X92653489Y-59559414D01*
X92850947Y-59651490D01*
X92861239Y-59655236D01*
X93071688Y-59711625D01*
X93082481Y-59713528D01*
X93299525Y-59732517D01*
X93310475Y-59732517D01*
X93527519Y-59713528D01*
X93538312Y-59711625D01*
X93748761Y-59655236D01*
X93759053Y-59651490D01*
X93956511Y-59559414D01*
X93966006Y-59553931D01*
X94018048Y-59517491D01*
X94026424Y-59507012D01*
X94019356Y-59493566D01*
X93317812Y-58792022D01*
X93303868Y-58784408D01*
X93302035Y-58784539D01*
X93295420Y-58788790D01*
X92589923Y-59494287D01*
X92583493Y-59506062D01*
X89035243Y-59506062D01*
X89106884Y-59455898D01*
X89144789Y-59429357D01*
X89144792Y-59429355D01*
X89149300Y-59426198D01*
X89311198Y-59264300D01*
X89442523Y-59076749D01*
X89444846Y-59071767D01*
X89444849Y-59071762D01*
X89536961Y-58874225D01*
X89536961Y-58874224D01*
X89539284Y-58869243D01*
X89551996Y-58821804D01*
X89597119Y-58653402D01*
X89597119Y-58653400D01*
X89598543Y-58648087D01*
X89618019Y-58425475D01*
X91992483Y-58425475D01*
X92011472Y-58642519D01*
X92013375Y-58653312D01*
X92069764Y-58863761D01*
X92073510Y-58874053D01*
X92165586Y-59071511D01*
X92171069Y-59081006D01*
X92207509Y-59133048D01*
X92217988Y-59141424D01*
X92231434Y-59134356D01*
X92932978Y-58432812D01*
X92939356Y-58421132D01*
X93669408Y-58421132D01*
X93669539Y-58422965D01*
X93673790Y-58429580D01*
X94379287Y-59135077D01*
X94391062Y-59141507D01*
X94403077Y-59132211D01*
X94438931Y-59081006D01*
X94444414Y-59071511D01*
X94536490Y-58874053D01*
X94540236Y-58863761D01*
X94596625Y-58653312D01*
X94598528Y-58642519D01*
X94617517Y-58425475D01*
X94617517Y-58414525D01*
X94598528Y-58197481D01*
X94596625Y-58186688D01*
X94540236Y-57976239D01*
X94536490Y-57965947D01*
X94444414Y-57768489D01*
X94438931Y-57758994D01*
X94402491Y-57706952D01*
X94392012Y-57698576D01*
X94378566Y-57705644D01*
X93677022Y-58407188D01*
X93669408Y-58421132D01*
X92939356Y-58421132D01*
X92940592Y-58418868D01*
X92940461Y-58417035D01*
X92936210Y-58410420D01*
X92230713Y-57704923D01*
X92218938Y-57698493D01*
X92206923Y-57707789D01*
X92171069Y-57758994D01*
X92165586Y-57768489D01*
X92073510Y-57965947D01*
X92069764Y-57976239D01*
X92013375Y-58186688D01*
X92011472Y-58197481D01*
X91992483Y-58414525D01*
X91992483Y-58425475D01*
X89618019Y-58425475D01*
X89618498Y-58420000D01*
X89598543Y-58191913D01*
X89580773Y-58125594D01*
X89540707Y-57976067D01*
X89540706Y-57976065D01*
X89539284Y-57970757D01*
X89524176Y-57938357D01*
X89444849Y-57768238D01*
X89444846Y-57768233D01*
X89442523Y-57763251D01*
X89311198Y-57575700D01*
X89276540Y-57541042D01*
X89242514Y-57478730D01*
X89247579Y-57407915D01*
X89283805Y-57356136D01*
X89310908Y-57332988D01*
X92583576Y-57332988D01*
X92590644Y-57346434D01*
X93292188Y-58047978D01*
X93306132Y-58055592D01*
X93307965Y-58055461D01*
X93314580Y-58051210D01*
X94020077Y-57345713D01*
X94026507Y-57333938D01*
X94017211Y-57321923D01*
X93966006Y-57286069D01*
X93956511Y-57280586D01*
X93759053Y-57188510D01*
X93748761Y-57184764D01*
X93538312Y-57128375D01*
X93527519Y-57126472D01*
X93310475Y-57107483D01*
X93299525Y-57107483D01*
X93082481Y-57126472D01*
X93071688Y-57128375D01*
X92861239Y-57184764D01*
X92850947Y-57188510D01*
X92653489Y-57280586D01*
X92643994Y-57286069D01*
X92591952Y-57322509D01*
X92583576Y-57332988D01*
X89310908Y-57332988D01*
X89458208Y-57207182D01*
X89458213Y-57207177D01*
X89461969Y-57203969D01*
X89616176Y-57023416D01*
X89618755Y-57019208D01*
X89618759Y-57019202D01*
X89737654Y-56825183D01*
X89740240Y-56820963D01*
X89744324Y-56811105D01*
X89829211Y-56606167D01*
X89829212Y-56606165D01*
X89831105Y-56601594D01*
X89850360Y-56521391D01*
X89885380Y-56375524D01*
X89885381Y-56375518D01*
X89886535Y-56370711D01*
X89905165Y-56134000D01*
X89886535Y-55897289D01*
X89831105Y-55666406D01*
X89778215Y-55538717D01*
X89770626Y-55468128D01*
X89802405Y-55404641D01*
X89863463Y-55368414D01*
X89894624Y-55364500D01*
X100114074Y-55364500D01*
X100182195Y-55384502D01*
X100203169Y-55401404D01*
X100843149Y-56041383D01*
X100852251Y-56051527D01*
X100875968Y-56081025D01*
X100880696Y-56084992D01*
X100914421Y-56113291D01*
X100918069Y-56116472D01*
X100919881Y-56118115D01*
X100922075Y-56120309D01*
X100955349Y-56147642D01*
X100956147Y-56148304D01*
X101027474Y-56208154D01*
X101032144Y-56210722D01*
X101036261Y-56214103D01*
X101056079Y-56224729D01*
X101118086Y-56257977D01*
X101119245Y-56258606D01*
X101195381Y-56300462D01*
X101195389Y-56300465D01*
X101200787Y-56303433D01*
X101205869Y-56305045D01*
X101210563Y-56307562D01*
X101299531Y-56334762D01*
X101300559Y-56335082D01*
X101389306Y-56363235D01*
X101394602Y-56363829D01*
X101399698Y-56365387D01*
X101492257Y-56374790D01*
X101493393Y-56374911D01*
X101527008Y-56378681D01*
X101539730Y-56380108D01*
X101539734Y-56380108D01*
X101543227Y-56380500D01*
X101546754Y-56380500D01*
X101547739Y-56380555D01*
X101553419Y-56381002D01*
X101582825Y-56383989D01*
X101590337Y-56384752D01*
X101590339Y-56384752D01*
X101596462Y-56385374D01*
X101642108Y-56381059D01*
X101653967Y-56380500D01*
X101689444Y-56380500D01*
X101757565Y-56400502D01*
X101785254Y-56424668D01*
X101795582Y-56436760D01*
X101800031Y-56441969D01*
X101980584Y-56596176D01*
X101984792Y-56598755D01*
X101984798Y-56598759D01*
X102045549Y-56635987D01*
X102183037Y-56720240D01*
X102187607Y-56722133D01*
X102187611Y-56722135D01*
X102397833Y-56809211D01*
X102402406Y-56811105D01*
X102482609Y-56830360D01*
X102628476Y-56865380D01*
X102628482Y-56865381D01*
X102633289Y-56866535D01*
X102870000Y-56885165D01*
X103106711Y-56866535D01*
X103111518Y-56865381D01*
X103111524Y-56865380D01*
X103257391Y-56830360D01*
X103337594Y-56811105D01*
X103342167Y-56809211D01*
X103552389Y-56722135D01*
X103552393Y-56722133D01*
X103556963Y-56720240D01*
X103694451Y-56635987D01*
X103755202Y-56598759D01*
X103755208Y-56598755D01*
X103759416Y-56596176D01*
X103939969Y-56441969D01*
X103944418Y-56436760D01*
X103954746Y-56424668D01*
X104014197Y-56385860D01*
X104050556Y-56380500D01*
X104078157Y-56380500D01*
X104091764Y-56381237D01*
X104123262Y-56384659D01*
X104123267Y-56384659D01*
X104129388Y-56385324D01*
X104155638Y-56383027D01*
X104179388Y-56380950D01*
X104184214Y-56380621D01*
X104186686Y-56380500D01*
X104189769Y-56380500D01*
X104201738Y-56379326D01*
X104232506Y-56376310D01*
X104233819Y-56376188D01*
X104278084Y-56372315D01*
X104326413Y-56368087D01*
X104331532Y-56366600D01*
X104336833Y-56366080D01*
X104425834Y-56339209D01*
X104426967Y-56338874D01*
X104510414Y-56314630D01*
X104510418Y-56314628D01*
X104516336Y-56312909D01*
X104521068Y-56310456D01*
X104526169Y-56308916D01*
X104533173Y-56305192D01*
X104608260Y-56265269D01*
X104609426Y-56264657D01*
X104686453Y-56224729D01*
X104691926Y-56221892D01*
X104696089Y-56218569D01*
X104700796Y-56216066D01*
X104772918Y-56157245D01*
X104773774Y-56156554D01*
X104812973Y-56125262D01*
X104815477Y-56122758D01*
X104816195Y-56122116D01*
X104820528Y-56118415D01*
X104854062Y-56091065D01*
X104883288Y-56055737D01*
X104891277Y-56046958D01*
X106552829Y-54385405D01*
X106615141Y-54351380D01*
X106641924Y-54348500D01*
X114238157Y-54348500D01*
X114251764Y-54349237D01*
X114283262Y-54352659D01*
X114283267Y-54352659D01*
X114289388Y-54353324D01*
X114315638Y-54351027D01*
X114339388Y-54348950D01*
X114344214Y-54348621D01*
X114346686Y-54348500D01*
X114349769Y-54348500D01*
X114392529Y-54344307D01*
X114393839Y-54344186D01*
X114417613Y-54342107D01*
X114443508Y-54342514D01*
X114515266Y-54351070D01*
X114532777Y-54353158D01*
X114538912Y-54352686D01*
X114538914Y-54352686D01*
X114723830Y-54338457D01*
X114723834Y-54338456D01*
X114729972Y-54337984D01*
X114920463Y-54284798D01*
X114925967Y-54282018D01*
X114925969Y-54282017D01*
X115091495Y-54198404D01*
X115091497Y-54198403D01*
X115096996Y-54195625D01*
X115252847Y-54073861D01*
X115346489Y-53965376D01*
X115378049Y-53928813D01*
X115378050Y-53928811D01*
X115382078Y-53924145D01*
X115479769Y-53752179D01*
X115507427Y-53669037D01*
X115540250Y-53570367D01*
X115540251Y-53570364D01*
X115542197Y-53564513D01*
X115542970Y-53558394D01*
X115544334Y-53552390D01*
X115546205Y-53552815D01*
X115571026Y-53495906D01*
X115578554Y-53487681D01*
X116984379Y-52081855D01*
X116994522Y-52072753D01*
X117019218Y-52052897D01*
X117024025Y-52049032D01*
X117056320Y-52010544D01*
X117059478Y-52006925D01*
X117061124Y-52005110D01*
X117063309Y-52002925D01*
X117065264Y-52000545D01*
X117065273Y-52000535D01*
X117090549Y-51969764D01*
X117091391Y-51968749D01*
X117147194Y-51902245D01*
X117151154Y-51897526D01*
X117153723Y-51892852D01*
X117157102Y-51888739D01*
X117200975Y-51806915D01*
X117201584Y-51805793D01*
X117243464Y-51729614D01*
X117243465Y-51729612D01*
X117246433Y-51724213D01*
X117248045Y-51719131D01*
X117250562Y-51714437D01*
X117277762Y-51625469D01*
X117278108Y-51624358D01*
X117304373Y-51541563D01*
X117306235Y-51535694D01*
X117306829Y-51530398D01*
X117308387Y-51525302D01*
X117317790Y-51432743D01*
X117317911Y-51431607D01*
X117323500Y-51381773D01*
X117323500Y-51378246D01*
X117323555Y-51377261D01*
X117324002Y-51371581D01*
X117328374Y-51328538D01*
X117324713Y-51289809D01*
X117338216Y-51220108D01*
X117359269Y-51191302D01*
X117360945Y-51189945D01*
X117365102Y-51184812D01*
X117476973Y-51046663D01*
X117476976Y-51046659D01*
X117481129Y-51041530D01*
X117484266Y-51035375D01*
X117564833Y-50877251D01*
X117567829Y-50871371D01*
X117579916Y-50826263D01*
X117615763Y-50692481D01*
X117615764Y-50692477D01*
X117617257Y-50686904D01*
X117622189Y-50624240D01*
X117623307Y-50610037D01*
X117623307Y-50610030D01*
X117623500Y-50607581D01*
X117623499Y-47280420D01*
X117619614Y-47231053D01*
X117617710Y-47206850D01*
X117617710Y-47206848D01*
X117617257Y-47201096D01*
X117567829Y-47016629D01*
X117557860Y-46997063D01*
X117484126Y-46852351D01*
X117484124Y-46852347D01*
X117481129Y-46846470D01*
X117398269Y-46744146D01*
X117389886Y-46733794D01*
X117362560Y-46668267D01*
X117375000Y-46598368D01*
X117423254Y-46546291D01*
X117487806Y-46528500D01*
X120386786Y-46528500D01*
X120388106Y-46528507D01*
X120478221Y-46529451D01*
X120520597Y-46520289D01*
X120533163Y-46518231D01*
X120576255Y-46513397D01*
X120582906Y-46511081D01*
X120582910Y-46511080D01*
X120607930Y-46502367D01*
X120622742Y-46498204D01*
X120648619Y-46492609D01*
X120655510Y-46491119D01*
X120694813Y-46472792D01*
X120706589Y-46468010D01*
X120747552Y-46453745D01*
X120753527Y-46450011D01*
X120753530Y-46450010D01*
X120775995Y-46435973D01*
X120789512Y-46428634D01*
X120813514Y-46417441D01*
X120813515Y-46417440D01*
X120819902Y-46414462D01*
X120835467Y-46402389D01*
X120854153Y-46387894D01*
X120864612Y-46380598D01*
X120895404Y-46361358D01*
X120895407Y-46361356D01*
X120901376Y-46357626D01*
X120930179Y-46329024D01*
X120930804Y-46328439D01*
X120931470Y-46327922D01*
X120957460Y-46301932D01*
X121030082Y-46229815D01*
X121030740Y-46228778D01*
X121031843Y-46227549D01*
X121269514Y-45989878D01*
X121334054Y-45956278D01*
X121333972Y-45955984D01*
X121335365Y-45955595D01*
X121339907Y-45954327D01*
X121339912Y-45954326D01*
X121419463Y-45932114D01*
X121524463Y-45902798D01*
X121529967Y-45900018D01*
X121529969Y-45900017D01*
X121695495Y-45816404D01*
X121695497Y-45816403D01*
X121700996Y-45813625D01*
X121856847Y-45691861D01*
X121959778Y-45572614D01*
X121982049Y-45546813D01*
X121982050Y-45546811D01*
X121986078Y-45542145D01*
X122083769Y-45370179D01*
X122146197Y-45182513D01*
X122150814Y-45145968D01*
X122179194Y-45080895D01*
X122186724Y-45072668D01*
X122485158Y-44774234D01*
X122486095Y-44773306D01*
X122545475Y-44715157D01*
X122545476Y-44715156D01*
X122550507Y-44710229D01*
X122573998Y-44673779D01*
X122581417Y-44663454D01*
X122608476Y-44629557D01*
X122611540Y-44623218D01*
X122611543Y-44623214D01*
X122623074Y-44599362D01*
X122630601Y-44585949D01*
X122644947Y-44563687D01*
X122644948Y-44563684D01*
X122648765Y-44557762D01*
X122651176Y-44551139D01*
X122663592Y-44517027D01*
X122668553Y-44505283D01*
X122684352Y-44472601D01*
X122684353Y-44472599D01*
X122687421Y-44466252D01*
X122694966Y-44433573D01*
X122699334Y-44418825D01*
X122710803Y-44387315D01*
X122711685Y-44380329D01*
X122711687Y-44380323D01*
X122716238Y-44344299D01*
X122718474Y-44331747D01*
X122726638Y-44296386D01*
X122726638Y-44296383D01*
X122728224Y-44289515D01*
X122728256Y-44280543D01*
X122728366Y-44248944D01*
X122728395Y-44248062D01*
X122728500Y-44247231D01*
X122728500Y-44210428D01*
X122728572Y-44189810D01*
X122728845Y-44111657D01*
X122728845Y-44111652D01*
X122728857Y-44108130D01*
X122728589Y-44106930D01*
X122728500Y-44105293D01*
X122728500Y-43508324D01*
X122748502Y-43440203D01*
X122788664Y-43400893D01*
X122809416Y-43388176D01*
X122822709Y-43376823D01*
X122986213Y-43237177D01*
X122989969Y-43233969D01*
X122996926Y-43225824D01*
X123052331Y-43160952D01*
X123144176Y-43053416D01*
X123146755Y-43049208D01*
X123146759Y-43049202D01*
X123265654Y-42855183D01*
X123268240Y-42850963D01*
X123335055Y-42689658D01*
X123357211Y-42636167D01*
X123357212Y-42636165D01*
X123359105Y-42631594D01*
X123378360Y-42551391D01*
X123413380Y-42405524D01*
X123413381Y-42405518D01*
X123414535Y-42400711D01*
X123433165Y-42164000D01*
X123414535Y-41927289D01*
X123409634Y-41906872D01*
X123362447Y-41710328D01*
X123359105Y-41696406D01*
X123357211Y-41691833D01*
X123270135Y-41481611D01*
X123270133Y-41481607D01*
X123268240Y-41477037D01*
X123211359Y-41384216D01*
X123146759Y-41278798D01*
X123146755Y-41278792D01*
X123144176Y-41274584D01*
X122989969Y-41094031D01*
X122809416Y-40939824D01*
X122805208Y-40937245D01*
X122805202Y-40937241D01*
X122611183Y-40818346D01*
X122606963Y-40815760D01*
X122602393Y-40813867D01*
X122602389Y-40813865D01*
X122392167Y-40726789D01*
X122392165Y-40726788D01*
X122387594Y-40724895D01*
X122307391Y-40705640D01*
X122161524Y-40670620D01*
X122161518Y-40670619D01*
X122156711Y-40669465D01*
X121920000Y-40650835D01*
X121683289Y-40669465D01*
X121678482Y-40670619D01*
X121678476Y-40670620D01*
X121532609Y-40705640D01*
X121452406Y-40724895D01*
X121447835Y-40726788D01*
X121447833Y-40726789D01*
X121237611Y-40813865D01*
X121237607Y-40813867D01*
X121233037Y-40815760D01*
X121228817Y-40818346D01*
X121034798Y-40937241D01*
X121034792Y-40937245D01*
X121030584Y-40939824D01*
X120850031Y-41094031D01*
X120695824Y-41274584D01*
X120693242Y-41278797D01*
X120693235Y-41278807D01*
X120604490Y-41423625D01*
X120551843Y-41471256D01*
X120481801Y-41482863D01*
X120416604Y-41454760D01*
X120376950Y-41395869D01*
X120372052Y-41341998D01*
X120387169Y-41222333D01*
X120392985Y-41176295D01*
X120393380Y-41148000D01*
X120374080Y-40951167D01*
X120370656Y-40939824D01*
X120344691Y-40853825D01*
X120316916Y-40761831D01*
X120224066Y-40587204D01*
X120216857Y-40578365D01*
X120189303Y-40512934D01*
X120188500Y-40498729D01*
X120188500Y-39633214D01*
X120188507Y-39631894D01*
X120188559Y-39626963D01*
X120189451Y-39541779D01*
X120180289Y-39499403D01*
X120178230Y-39486832D01*
X120178152Y-39486131D01*
X120173397Y-39443745D01*
X120162367Y-39412070D01*
X120158204Y-39397258D01*
X120152609Y-39371381D01*
X120151119Y-39364490D01*
X120132792Y-39325187D01*
X120128010Y-39313411D01*
X120113745Y-39272448D01*
X120110010Y-39266470D01*
X120095973Y-39244005D01*
X120088634Y-39230488D01*
X120077441Y-39206486D01*
X120077440Y-39206485D01*
X120074462Y-39200098D01*
X120059443Y-39180735D01*
X120047894Y-39165847D01*
X120040598Y-39155388D01*
X120021358Y-39124596D01*
X120021356Y-39124593D01*
X120017626Y-39118624D01*
X119989024Y-39089821D01*
X119988439Y-39089196D01*
X119987922Y-39088530D01*
X119961932Y-39062540D01*
X119889815Y-38989918D01*
X119888778Y-38989260D01*
X119887549Y-38988157D01*
X117799234Y-36899842D01*
X117798306Y-36898905D01*
X117740157Y-36839525D01*
X117740156Y-36839524D01*
X117735229Y-36834493D01*
X117698779Y-36811002D01*
X117688454Y-36803583D01*
X117654557Y-36776524D01*
X117624362Y-36761927D01*
X117610945Y-36754398D01*
X117608942Y-36753107D01*
X117582762Y-36736235D01*
X117576145Y-36733827D01*
X117576140Y-36733824D01*
X117542027Y-36721408D01*
X117530284Y-36716447D01*
X117497597Y-36700646D01*
X117497592Y-36700644D01*
X117491251Y-36697579D01*
X117484393Y-36695996D01*
X117484391Y-36695995D01*
X117458574Y-36690035D01*
X117443831Y-36685668D01*
X117412315Y-36674197D01*
X117405325Y-36673314D01*
X117405317Y-36673312D01*
X117369299Y-36668762D01*
X117356747Y-36666526D01*
X117321386Y-36658362D01*
X117321383Y-36658362D01*
X117314515Y-36656776D01*
X117307469Y-36656751D01*
X117307466Y-36656751D01*
X117273944Y-36656634D01*
X117273062Y-36656605D01*
X117272231Y-36656500D01*
X117235581Y-36656500D01*
X117235141Y-36656499D01*
X117136657Y-36656155D01*
X117136652Y-36656155D01*
X117133130Y-36656143D01*
X117131930Y-36656411D01*
X117130293Y-36656500D01*
X76844260Y-36656500D01*
X76842941Y-36656493D01*
X76752779Y-36655549D01*
X76745893Y-36657038D01*
X76745891Y-36657038D01*
X76739768Y-36658362D01*
X76710403Y-36664711D01*
X76697837Y-36666769D01*
X76654745Y-36671603D01*
X76648094Y-36673919D01*
X76648090Y-36673920D01*
X76623070Y-36682633D01*
X76608257Y-36686796D01*
X76575490Y-36693881D01*
X76536189Y-36712207D01*
X76524406Y-36716992D01*
X76483448Y-36731255D01*
X76469370Y-36740052D01*
X76455016Y-36749021D01*
X76441499Y-36756360D01*
X76417481Y-36767560D01*
X76417477Y-36767562D01*
X76411098Y-36770537D01*
X76405536Y-36774851D01*
X76399519Y-36778524D01*
X76397994Y-36776025D01*
X76344093Y-36797166D01*
X76322014Y-36797177D01*
X76205475Y-36786981D01*
X76200000Y-36786502D01*
X75971913Y-36806457D01*
X75966600Y-36807881D01*
X75966598Y-36807881D01*
X75756067Y-36864293D01*
X75756065Y-36864294D01*
X75750757Y-36865716D01*
X75745776Y-36868039D01*
X75745775Y-36868039D01*
X75548238Y-36960151D01*
X75548233Y-36960154D01*
X75543251Y-36962477D01*
X75443315Y-37032453D01*
X75360211Y-37090643D01*
X75360208Y-37090645D01*
X75355700Y-37093802D01*
X75193802Y-37255700D01*
X75062477Y-37443251D01*
X75060154Y-37448233D01*
X75060151Y-37448238D01*
X74968039Y-37645775D01*
X74965716Y-37650757D01*
X74964294Y-37656065D01*
X74964293Y-37656067D01*
X74907881Y-37866598D01*
X74906457Y-37871913D01*
X74886502Y-38100000D01*
X74906457Y-38328087D01*
X74965716Y-38549243D01*
X74968039Y-38554224D01*
X74968039Y-38554225D01*
X75060151Y-38751762D01*
X75060154Y-38751767D01*
X75062477Y-38756749D01*
X75193802Y-38944300D01*
X75334033Y-39084531D01*
X75368059Y-39146843D01*
X75362994Y-39217658D01*
X75320591Y-39274386D01*
X75290046Y-39297320D01*
X75290040Y-39297325D01*
X75285905Y-39300430D01*
X75130024Y-39463550D01*
X75127112Y-39467819D01*
X75127106Y-39467827D01*
X75033198Y-39605490D01*
X74978287Y-39650493D01*
X74907762Y-39658664D01*
X74844015Y-39627410D01*
X74823318Y-39602926D01*
X74753239Y-39494601D01*
X74746947Y-39486430D01*
X74602113Y-39327260D01*
X74594580Y-39320234D01*
X74425691Y-39186855D01*
X74417104Y-39181150D01*
X74228711Y-39077151D01*
X74219299Y-39072921D01*
X74016445Y-39001086D01*
X74006474Y-38998452D01*
X73931837Y-38985157D01*
X73918540Y-38986617D01*
X73914000Y-39001174D01*
X73914000Y-40458000D01*
X73893998Y-40526121D01*
X73840342Y-40572614D01*
X73788000Y-40584000D01*
X73532000Y-40584000D01*
X73463879Y-40563998D01*
X73417386Y-40510342D01*
X73406000Y-40458000D01*
X73406000Y-38999343D01*
X73402082Y-38985999D01*
X73387806Y-38984012D01*
X73346161Y-38990385D01*
X73336125Y-38992776D01*
X73131576Y-39059633D01*
X73122079Y-39063625D01*
X72931189Y-39162995D01*
X72922464Y-39168490D01*
X72750373Y-39297700D01*
X72742666Y-39304543D01*
X72593984Y-39460129D01*
X72587498Y-39468139D01*
X72493798Y-39605498D01*
X72438887Y-39650501D01*
X72368362Y-39658672D01*
X72304615Y-39627418D01*
X72283918Y-39602934D01*
X72213634Y-39494291D01*
X72213632Y-39494288D01*
X72210826Y-39489951D01*
X72058977Y-39323071D01*
X72054923Y-39319869D01*
X72054922Y-39319868D01*
X71885966Y-39186434D01*
X71885962Y-39186432D01*
X71881911Y-39183232D01*
X71684383Y-39074191D01*
X71471698Y-38998876D01*
X71442795Y-38993727D01*
X71254657Y-38960214D01*
X71254653Y-38960214D01*
X71249569Y-38959308D01*
X71177574Y-38958429D01*
X71029129Y-38956615D01*
X71029127Y-38956615D01*
X71023959Y-38956552D01*
X70800929Y-38990680D01*
X70586468Y-39060777D01*
X70536359Y-39086862D01*
X70394319Y-39160804D01*
X70386335Y-39164960D01*
X70382202Y-39168063D01*
X70382199Y-39168065D01*
X70234319Y-39279096D01*
X70205905Y-39300430D01*
X70050024Y-39463550D01*
X70047112Y-39467819D01*
X70047106Y-39467827D01*
X69953503Y-39605043D01*
X69898592Y-39650046D01*
X69828067Y-39658217D01*
X69764320Y-39626963D01*
X69743623Y-39602479D01*
X69673634Y-39494291D01*
X69673632Y-39494288D01*
X69670826Y-39489951D01*
X69518977Y-39323071D01*
X69514923Y-39319869D01*
X69514922Y-39319868D01*
X69345966Y-39186434D01*
X69345962Y-39186432D01*
X69341911Y-39183232D01*
X69144383Y-39074191D01*
X68931698Y-38998876D01*
X68902795Y-38993727D01*
X68714657Y-38960214D01*
X68714653Y-38960214D01*
X68709569Y-38959308D01*
X68637574Y-38958429D01*
X68489129Y-38956615D01*
X68489127Y-38956615D01*
X68483959Y-38956552D01*
X68260929Y-38990680D01*
X68046468Y-39060777D01*
X67996359Y-39086862D01*
X67854319Y-39160804D01*
X67846335Y-39164960D01*
X67842202Y-39168063D01*
X67842199Y-39168065D01*
X67694319Y-39279096D01*
X67665905Y-39300430D01*
X67510024Y-39463550D01*
X67382878Y-39649940D01*
X67380704Y-39654624D01*
X67380702Y-39654627D01*
X67309402Y-39808231D01*
X67287881Y-39854593D01*
X67227585Y-40072013D01*
X67203609Y-40296362D01*
X67203906Y-40301514D01*
X67203906Y-40301518D01*
X67209618Y-40400578D01*
X67216597Y-40521614D01*
X67217734Y-40526660D01*
X67217735Y-40526666D01*
X67238984Y-40620952D01*
X67266200Y-40741720D01*
X67268142Y-40746502D01*
X67268143Y-40746506D01*
X67349142Y-40945982D01*
X67351086Y-40950769D01*
X67468975Y-41143147D01*
X67613909Y-41310462D01*
X67613909Y-41310463D01*
X67616702Y-41313687D01*
X67616036Y-41314264D01*
X67648456Y-41372187D01*
X67644131Y-41443052D01*
X67602181Y-41500330D01*
X67569851Y-41518238D01*
X67478105Y-41552632D01*
X67478104Y-41552633D01*
X67469695Y-41555785D01*
X67353139Y-41643139D01*
X67265785Y-41759695D01*
X67214655Y-41896084D01*
X67207900Y-41958266D01*
X67207900Y-43781734D01*
X67214655Y-43843916D01*
X67265785Y-43980305D01*
X67353139Y-44096861D01*
X67469695Y-44184215D01*
X67606084Y-44235345D01*
X67668266Y-44242100D01*
X69491734Y-44242100D01*
X69553916Y-44235345D01*
X69690305Y-44184215D01*
X69806861Y-44096861D01*
X69894215Y-43980305D01*
X69899224Y-43966945D01*
X69932213Y-43878946D01*
X69974854Y-43822181D01*
X70041416Y-43797481D01*
X70110765Y-43812688D01*
X70145431Y-43840676D01*
X70156702Y-43853687D01*
X70330299Y-43997810D01*
X70334751Y-44000412D01*
X70334756Y-44000415D01*
X70498463Y-44096078D01*
X70525103Y-44111645D01*
X70735884Y-44192134D01*
X70740952Y-44193165D01*
X70740955Y-44193166D01*
X70825801Y-44210428D01*
X70956981Y-44237117D01*
X70962156Y-44237307D01*
X70962158Y-44237307D01*
X71177292Y-44245196D01*
X71177296Y-44245196D01*
X71182456Y-44245385D01*
X71187576Y-44244729D01*
X71187578Y-44244729D01*
X71282485Y-44232571D01*
X71406253Y-44216716D01*
X71411202Y-44215231D01*
X71411208Y-44215230D01*
X71617413Y-44153365D01*
X71617412Y-44153365D01*
X71622363Y-44151880D01*
X71749327Y-44089681D01*
X71820331Y-44054897D01*
X71820336Y-44054894D01*
X71824982Y-44052618D01*
X71829195Y-44049613D01*
X71829197Y-44049612D01*
X72004455Y-43924601D01*
X72004459Y-43924597D01*
X72008667Y-43921596D01*
X72168487Y-43762333D01*
X72289370Y-43594107D01*
X72345364Y-43550459D01*
X72416068Y-43544013D01*
X72479032Y-43576816D01*
X72499125Y-43601799D01*
X72546275Y-43678743D01*
X72546279Y-43678748D01*
X72548975Y-43683147D01*
X72696702Y-43853687D01*
X72870299Y-43997810D01*
X72874751Y-44000412D01*
X72874756Y-44000415D01*
X73038463Y-44096078D01*
X73065103Y-44111645D01*
X73275884Y-44192134D01*
X73280952Y-44193165D01*
X73280955Y-44193166D01*
X73365801Y-44210428D01*
X73496981Y-44237117D01*
X73502156Y-44237307D01*
X73502158Y-44237307D01*
X73717292Y-44245196D01*
X73717296Y-44245196D01*
X73722456Y-44245385D01*
X73727576Y-44244729D01*
X73727578Y-44244729D01*
X73822485Y-44232571D01*
X73946253Y-44216716D01*
X73951202Y-44215231D01*
X73951208Y-44215230D01*
X74157413Y-44153365D01*
X74157412Y-44153365D01*
X74162363Y-44151880D01*
X74289327Y-44089681D01*
X74360331Y-44054897D01*
X74360336Y-44054894D01*
X74364982Y-44052618D01*
X74369195Y-44049613D01*
X74369197Y-44049612D01*
X74544455Y-43924601D01*
X74544459Y-43924597D01*
X74548667Y-43921596D01*
X74708487Y-43762333D01*
X74829370Y-43594107D01*
X74885364Y-43550459D01*
X74956068Y-43544013D01*
X75019032Y-43576816D01*
X75039125Y-43601799D01*
X75086275Y-43678743D01*
X75086279Y-43678748D01*
X75088975Y-43683147D01*
X75236702Y-43853687D01*
X75410299Y-43997810D01*
X75414751Y-44000412D01*
X75414756Y-44000415D01*
X75578463Y-44096078D01*
X75605103Y-44111645D01*
X75815884Y-44192134D01*
X75820952Y-44193165D01*
X75820955Y-44193166D01*
X75905801Y-44210428D01*
X76036981Y-44237117D01*
X76042156Y-44237307D01*
X76042158Y-44237307D01*
X76257292Y-44245196D01*
X76257296Y-44245196D01*
X76262456Y-44245385D01*
X76267576Y-44244729D01*
X76267578Y-44244729D01*
X76362485Y-44232571D01*
X76486253Y-44216716D01*
X76491202Y-44215231D01*
X76491208Y-44215230D01*
X76697413Y-44153365D01*
X76697412Y-44153365D01*
X76702363Y-44151880D01*
X76829327Y-44089681D01*
X76900331Y-44054897D01*
X76900336Y-44054894D01*
X76904982Y-44052618D01*
X76909195Y-44049613D01*
X76909197Y-44049612D01*
X77084455Y-43924601D01*
X77084459Y-43924597D01*
X77088667Y-43921596D01*
X77248487Y-43762333D01*
X77369686Y-43593667D01*
X77425680Y-43550019D01*
X77496384Y-43543573D01*
X77559348Y-43576376D01*
X77579441Y-43601358D01*
X77626682Y-43678448D01*
X77632765Y-43686759D01*
X77773665Y-43849417D01*
X77781032Y-43856633D01*
X77946606Y-43994095D01*
X77955053Y-44000010D01*
X78140859Y-44108586D01*
X78150146Y-44113036D01*
X78351198Y-44189810D01*
X78361091Y-44192684D01*
X78468248Y-44214485D01*
X78482300Y-44213290D01*
X78486000Y-44202945D01*
X78486000Y-42742000D01*
X78506002Y-42673879D01*
X78559658Y-42627386D01*
X78612000Y-42616000D01*
X78868000Y-42616000D01*
X78936121Y-42636002D01*
X78982614Y-42689658D01*
X78994000Y-42742000D01*
X78994000Y-44202229D01*
X78998064Y-44216071D01*
X79011479Y-44218105D01*
X79021025Y-44216882D01*
X79031095Y-44214742D01*
X79237225Y-44152900D01*
X79246832Y-44149134D01*
X79440076Y-44054464D01*
X79448934Y-44049185D01*
X79624141Y-43924211D01*
X79632003Y-43917567D01*
X79784445Y-43765656D01*
X79791122Y-43757811D01*
X79909086Y-43593646D01*
X79965081Y-43549998D01*
X80035784Y-43543552D01*
X80098749Y-43576355D01*
X80118842Y-43601337D01*
X80168975Y-43683147D01*
X80316702Y-43853687D01*
X80490299Y-43997810D01*
X80494751Y-44000412D01*
X80494756Y-44000415D01*
X80658463Y-44096078D01*
X80685103Y-44111645D01*
X80895884Y-44192134D01*
X80900952Y-44193165D01*
X80900955Y-44193166D01*
X80985801Y-44210428D01*
X81116981Y-44237117D01*
X81122156Y-44237307D01*
X81122158Y-44237307D01*
X81337292Y-44245196D01*
X81337296Y-44245196D01*
X81342456Y-44245385D01*
X81347576Y-44244729D01*
X81347578Y-44244729D01*
X81442485Y-44232571D01*
X81566253Y-44216716D01*
X81571204Y-44215231D01*
X81571207Y-44215230D01*
X81714159Y-44172342D01*
X81785154Y-44171926D01*
X81845104Y-44209958D01*
X81874976Y-44274364D01*
X81865285Y-44344696D01*
X81816201Y-44400460D01*
X81664807Y-44493235D01*
X81664799Y-44493241D01*
X81660584Y-44495824D01*
X81480031Y-44650031D01*
X81325824Y-44830584D01*
X81323245Y-44834792D01*
X81323241Y-44834798D01*
X81258450Y-44940528D01*
X81201760Y-45033037D01*
X81199867Y-45037607D01*
X81199865Y-45037611D01*
X81118543Y-45233942D01*
X81110895Y-45252406D01*
X81091640Y-45332609D01*
X81065154Y-45442932D01*
X81055465Y-45483289D01*
X81036835Y-45720000D01*
X81055465Y-45956711D01*
X81056619Y-45961518D01*
X81056620Y-45961524D01*
X81073232Y-46030716D01*
X81110895Y-46187594D01*
X81112788Y-46192165D01*
X81112789Y-46192167D01*
X81169288Y-46328567D01*
X81201760Y-46406963D01*
X81204346Y-46411183D01*
X81323241Y-46605202D01*
X81323245Y-46605208D01*
X81325824Y-46609416D01*
X81338249Y-46623964D01*
X81360747Y-46650306D01*
X81389777Y-46715096D01*
X81379172Y-46785296D01*
X81332296Y-46838618D01*
X81264034Y-46858133D01*
X81210096Y-46845576D01*
X81109105Y-46796755D01*
X81095902Y-46792105D01*
X80928601Y-46753480D01*
X80918653Y-46752056D01*
X80916723Y-46752000D01*
X80663115Y-46752000D01*
X80647876Y-46756475D01*
X80646671Y-46757865D01*
X80645000Y-46765548D01*
X80645000Y-48388000D01*
X80624998Y-48456121D01*
X80571342Y-48502614D01*
X80519000Y-48514000D01*
X80263000Y-48514000D01*
X80194879Y-48493998D01*
X80148386Y-48440342D01*
X80137000Y-48388000D01*
X80137000Y-46770116D01*
X80132525Y-46754877D01*
X80131135Y-46753672D01*
X80123452Y-46752001D01*
X79865247Y-46752001D01*
X79863356Y-46752055D01*
X79853400Y-46753480D01*
X79686098Y-46792105D01*
X79672895Y-46796755D01*
X79519852Y-46870738D01*
X79508000Y-46878202D01*
X79375151Y-46984255D01*
X79365257Y-46994149D01*
X79357384Y-47004011D01*
X79299252Y-47044768D01*
X79228313Y-47047628D01*
X79186909Y-47026955D01*
X79186201Y-47028008D01*
X79004390Y-46905836D01*
X78999738Y-46902710D01*
X78794033Y-46812412D01*
X78788582Y-46811103D01*
X78788578Y-46811102D01*
X78581046Y-46761278D01*
X78581045Y-46761278D01*
X78575589Y-46759968D01*
X78487289Y-46754877D01*
X78356917Y-46747360D01*
X78356914Y-46747360D01*
X78351310Y-46747037D01*
X78128285Y-46774025D01*
X77913565Y-46840082D01*
X77908585Y-46842652D01*
X77908581Y-46842654D01*
X77718919Y-46940546D01*
X77713936Y-46943118D01*
X77535708Y-47079877D01*
X77531937Y-47084022D01*
X77531933Y-47084025D01*
X77484520Y-47136131D01*
X77423879Y-47173054D01*
X77352904Y-47171331D01*
X77303642Y-47141817D01*
X77223676Y-47064324D01*
X77190229Y-47031911D01*
X77190226Y-47031909D01*
X77186201Y-47028008D01*
X76999738Y-46902710D01*
X76794033Y-46812412D01*
X76788582Y-46811103D01*
X76788578Y-46811102D01*
X76581046Y-46761278D01*
X76581045Y-46761278D01*
X76575589Y-46759968D01*
X76487289Y-46754877D01*
X76356917Y-46747360D01*
X76356914Y-46747360D01*
X76351310Y-46747037D01*
X76128285Y-46774025D01*
X75913565Y-46840082D01*
X75908585Y-46842652D01*
X75908581Y-46842654D01*
X75718919Y-46940546D01*
X75713936Y-46943118D01*
X75535708Y-47079877D01*
X75531937Y-47084022D01*
X75531933Y-47084025D01*
X75484520Y-47136131D01*
X75423879Y-47173054D01*
X75352904Y-47171331D01*
X75303642Y-47141817D01*
X75223676Y-47064324D01*
X75190229Y-47031911D01*
X75190226Y-47031909D01*
X75186201Y-47028008D01*
X74999738Y-46902710D01*
X74794033Y-46812412D01*
X74788582Y-46811103D01*
X74788578Y-46811102D01*
X74581046Y-46761278D01*
X74581045Y-46761278D01*
X74575589Y-46759968D01*
X74487289Y-46754877D01*
X74356917Y-46747360D01*
X74356914Y-46747360D01*
X74351310Y-46747037D01*
X74128285Y-46774025D01*
X73913565Y-46840082D01*
X73908585Y-46842652D01*
X73908581Y-46842654D01*
X73718919Y-46940546D01*
X73713936Y-46943118D01*
X73709489Y-46946531D01*
X73709488Y-46946531D01*
X73676996Y-46971463D01*
X73610776Y-46997063D01*
X73600292Y-46997500D01*
X71589925Y-46997500D01*
X71521804Y-46977498D01*
X71500830Y-46960595D01*
X71245405Y-46705170D01*
X71211379Y-46642858D01*
X71208500Y-46616075D01*
X71208500Y-45837866D01*
X71201745Y-45775684D01*
X71150615Y-45639295D01*
X71063261Y-45522739D01*
X70946705Y-45435385D01*
X70810316Y-45384255D01*
X70748134Y-45377500D01*
X68951866Y-45377500D01*
X68889684Y-45384255D01*
X68753295Y-45435385D01*
X68636739Y-45522739D01*
X68631358Y-45529919D01*
X68551587Y-45636357D01*
X68494728Y-45678872D01*
X68423909Y-45683898D01*
X68368930Y-45656603D01*
X68368730Y-45656432D01*
X68199416Y-45511824D01*
X68195208Y-45509245D01*
X68195202Y-45509241D01*
X68001183Y-45390346D01*
X67996963Y-45387760D01*
X67992393Y-45385867D01*
X67992389Y-45385865D01*
X67847752Y-45325955D01*
X67806875Y-45298641D01*
X66947612Y-44439378D01*
X66913586Y-44377066D01*
X66911095Y-44360169D01*
X66907902Y-44319601D01*
X66899535Y-44213289D01*
X66895281Y-44195567D01*
X66861697Y-44055682D01*
X66844105Y-43982406D01*
X66837701Y-43966945D01*
X66755135Y-43767611D01*
X66755133Y-43767607D01*
X66753240Y-43763037D01*
X66750235Y-43758133D01*
X66631759Y-43564798D01*
X66631755Y-43564792D01*
X66629176Y-43560584D01*
X66484132Y-43390760D01*
X66478177Y-43383787D01*
X66474969Y-43380031D01*
X66294416Y-43225824D01*
X66290208Y-43223245D01*
X66290202Y-43223241D01*
X66096183Y-43104346D01*
X66091963Y-43101760D01*
X66087393Y-43099867D01*
X66087389Y-43099865D01*
X65877167Y-43012789D01*
X65877165Y-43012788D01*
X65872594Y-43010895D01*
X65792391Y-42991640D01*
X65646524Y-42956620D01*
X65646518Y-42956619D01*
X65641711Y-42955465D01*
X65405000Y-42936835D01*
X65168289Y-42955465D01*
X65163482Y-42956619D01*
X65163476Y-42956620D01*
X65017609Y-42991640D01*
X64937406Y-43010895D01*
X64932835Y-43012788D01*
X64932833Y-43012789D01*
X64722611Y-43099865D01*
X64722607Y-43099867D01*
X64718037Y-43101760D01*
X64713817Y-43104346D01*
X64519798Y-43223241D01*
X64519792Y-43223245D01*
X64515584Y-43225824D01*
X64335031Y-43380031D01*
X64331823Y-43383787D01*
X64325868Y-43390760D01*
X64180824Y-43560584D01*
X64178245Y-43564792D01*
X64178241Y-43564798D01*
X64059765Y-43758133D01*
X64056760Y-43763037D01*
X64054867Y-43767607D01*
X64054865Y-43767611D01*
X63972299Y-43966945D01*
X63965895Y-43982406D01*
X63948303Y-44055682D01*
X63914720Y-44195567D01*
X63910465Y-44213289D01*
X63891835Y-44450000D01*
X63910465Y-44686711D01*
X63911619Y-44691518D01*
X63911620Y-44691524D01*
X63931477Y-44774234D01*
X63965895Y-44917594D01*
X63967788Y-44922165D01*
X63967789Y-44922167D01*
X64039282Y-45094766D01*
X64056760Y-45136963D01*
X64059346Y-45141183D01*
X64178241Y-45335202D01*
X64178245Y-45335208D01*
X64180824Y-45339416D01*
X64269235Y-45442932D01*
X64328075Y-45511824D01*
X64335031Y-45519969D01*
X64515584Y-45674176D01*
X64519792Y-45676755D01*
X64519798Y-45676759D01*
X64669155Y-45768285D01*
X64718037Y-45798240D01*
X64722607Y-45800133D01*
X64722611Y-45800135D01*
X64885420Y-45867572D01*
X64937406Y-45889105D01*
X64982858Y-45900017D01*
X65163476Y-45943380D01*
X65163482Y-45943381D01*
X65168289Y-45944535D01*
X65405000Y-45963165D01*
X65409930Y-45962777D01*
X65545414Y-45952114D01*
X65614894Y-45966710D01*
X65644395Y-45988630D01*
X65740660Y-46084894D01*
X65831314Y-46175549D01*
X65865338Y-46237859D01*
X65864737Y-46294056D01*
X65856452Y-46328567D01*
X65816695Y-46494167D01*
X65815465Y-46499289D01*
X65796835Y-46736000D01*
X65815465Y-46972711D01*
X65816619Y-46977518D01*
X65816620Y-46977524D01*
X65841193Y-47079877D01*
X65870895Y-47203594D01*
X65872788Y-47208165D01*
X65872789Y-47208167D01*
X65903741Y-47282891D01*
X65961760Y-47422963D01*
X65964346Y-47427183D01*
X66083241Y-47621202D01*
X66083245Y-47621208D01*
X66085824Y-47625416D01*
X66240031Y-47805969D01*
X66243787Y-47809177D01*
X66243792Y-47809182D01*
X66362056Y-47910189D01*
X66400866Y-47969639D01*
X66401372Y-48040634D01*
X66362056Y-48101811D01*
X66243792Y-48202818D01*
X66243787Y-48202823D01*
X66240031Y-48206031D01*
X66236823Y-48209787D01*
X66232650Y-48214673D01*
X66085824Y-48386584D01*
X66083245Y-48390792D01*
X66083241Y-48390798D01*
X66038965Y-48463050D01*
X65961760Y-48589037D01*
X65959867Y-48593607D01*
X65959865Y-48593611D01*
X65905044Y-48725963D01*
X65870895Y-48808406D01*
X65862335Y-48844062D01*
X65846462Y-48910179D01*
X65815465Y-49039289D01*
X65796835Y-49276000D01*
X65797223Y-49280930D01*
X65797223Y-49280931D01*
X65798620Y-49298682D01*
X65784024Y-49368162D01*
X65762103Y-49397663D01*
X64367529Y-50792237D01*
X64305217Y-50826263D01*
X64288323Y-50828753D01*
X64284234Y-50829075D01*
X64284224Y-50829077D01*
X64279289Y-50829465D01*
X64274482Y-50830619D01*
X64274476Y-50830620D01*
X64132037Y-50864817D01*
X64048406Y-50884895D01*
X64043835Y-50886788D01*
X64043833Y-50886789D01*
X63833611Y-50973865D01*
X63833607Y-50973867D01*
X63829037Y-50975760D01*
X63824817Y-50978346D01*
X63630798Y-51097241D01*
X63630792Y-51097245D01*
X63626584Y-51099824D01*
X63446031Y-51254031D01*
X63291824Y-51434584D01*
X63289245Y-51438792D01*
X63289241Y-51438798D01*
X63229863Y-51535694D01*
X63167760Y-51637037D01*
X63165867Y-51641607D01*
X63165865Y-51641611D01*
X63097859Y-51805793D01*
X63076895Y-51856406D01*
X63075740Y-51861218D01*
X63022770Y-52081855D01*
X63021465Y-52087289D01*
X63002835Y-52324000D01*
X63021465Y-52560711D01*
X63022619Y-52565518D01*
X63022620Y-52565524D01*
X63057640Y-52711391D01*
X63076895Y-52791594D01*
X63078788Y-52796165D01*
X63078789Y-52796167D01*
X63148005Y-52963269D01*
X63167760Y-53010963D01*
X63170346Y-53015183D01*
X63289241Y-53209202D01*
X63289245Y-53209208D01*
X63291824Y-53213416D01*
X63446031Y-53393969D01*
X63626584Y-53548176D01*
X63630792Y-53550755D01*
X63630798Y-53550759D01*
X63735155Y-53614709D01*
X63829037Y-53672240D01*
X63833607Y-53674133D01*
X63833611Y-53674135D01*
X64043833Y-53761211D01*
X64048406Y-53763105D01*
X64128609Y-53782360D01*
X64274476Y-53817380D01*
X64274482Y-53817381D01*
X64279289Y-53818535D01*
X64516000Y-53837165D01*
X64752711Y-53818535D01*
X64757518Y-53817381D01*
X64757524Y-53817380D01*
X64903391Y-53782360D01*
X64983594Y-53763105D01*
X64988167Y-53761211D01*
X65198389Y-53674135D01*
X65198393Y-53674133D01*
X65202963Y-53672240D01*
X65296845Y-53614709D01*
X65401202Y-53550759D01*
X65401208Y-53550755D01*
X65405416Y-53548176D01*
X65585969Y-53393969D01*
X65740176Y-53213416D01*
X65742755Y-53209208D01*
X65742759Y-53209202D01*
X65861654Y-53015183D01*
X65864240Y-53010963D01*
X65883996Y-52963269D01*
X65953211Y-52796167D01*
X65953212Y-52796165D01*
X65955105Y-52791594D01*
X65974360Y-52711391D01*
X66009380Y-52565524D01*
X66009381Y-52565518D01*
X66010535Y-52560711D01*
X66029165Y-52324000D01*
X66010535Y-52087289D01*
X66009379Y-52082475D01*
X66008605Y-52077586D01*
X66010953Y-52077214D01*
X66013933Y-52016121D01*
X66043861Y-51968374D01*
X67188337Y-50823897D01*
X67250649Y-50789872D01*
X67287318Y-50787380D01*
X67305069Y-50788777D01*
X67305070Y-50788777D01*
X67310000Y-50789165D01*
X67546711Y-50770535D01*
X67551518Y-50769381D01*
X67551524Y-50769380D01*
X67697391Y-50734360D01*
X67777594Y-50715105D01*
X67845678Y-50686904D01*
X67992389Y-50626135D01*
X67992393Y-50626133D01*
X67996963Y-50624240D01*
X68028221Y-50605085D01*
X68195202Y-50502759D01*
X68195208Y-50502755D01*
X68199416Y-50500176D01*
X68379969Y-50345969D01*
X68383177Y-50342213D01*
X68383182Y-50342208D01*
X68484189Y-50223944D01*
X68543639Y-50185134D01*
X68614634Y-50184628D01*
X68675811Y-50223944D01*
X68776818Y-50342208D01*
X68776823Y-50342213D01*
X68780031Y-50345969D01*
X68960584Y-50500176D01*
X68964792Y-50502755D01*
X68964798Y-50502759D01*
X69131779Y-50605085D01*
X69163037Y-50624240D01*
X69167607Y-50626133D01*
X69167611Y-50626135D01*
X69314322Y-50686904D01*
X69382406Y-50715105D01*
X69462609Y-50734360D01*
X69608476Y-50769380D01*
X69608482Y-50769381D01*
X69613289Y-50770535D01*
X69850000Y-50789165D01*
X70086711Y-50770535D01*
X70091518Y-50769381D01*
X70091524Y-50769380D01*
X70237391Y-50734360D01*
X70317594Y-50715105D01*
X70322161Y-50713213D01*
X70322168Y-50713211D01*
X70379208Y-50689584D01*
X70449798Y-50681995D01*
X70513285Y-50713775D01*
X70549512Y-50774833D01*
X70546978Y-50845784D01*
X70516521Y-50895088D01*
X67026203Y-54385405D01*
X63569842Y-57841766D01*
X63568905Y-57842694D01*
X63518566Y-57891990D01*
X63504493Y-57905771D01*
X63481002Y-57942221D01*
X63473583Y-57952546D01*
X63446524Y-57986443D01*
X63443459Y-57992784D01*
X63443458Y-57992785D01*
X63431928Y-58016637D01*
X63424399Y-58030054D01*
X63406235Y-58058238D01*
X63403827Y-58064855D01*
X63403824Y-58064860D01*
X63391408Y-58098973D01*
X63386447Y-58110716D01*
X63370646Y-58143403D01*
X63370644Y-58143408D01*
X63367579Y-58149749D01*
X63365996Y-58156607D01*
X63365995Y-58156609D01*
X63360035Y-58182426D01*
X63355668Y-58197169D01*
X63344197Y-58228685D01*
X63343314Y-58235675D01*
X63343312Y-58235683D01*
X63338762Y-58271701D01*
X63336526Y-58284253D01*
X63329926Y-58312843D01*
X63326776Y-58326485D01*
X63326751Y-58333531D01*
X63326751Y-58333534D01*
X63326634Y-58367056D01*
X63326605Y-58367938D01*
X63326500Y-58368769D01*
X63326500Y-58405419D01*
X63326499Y-58405859D01*
X63326254Y-58476183D01*
X63326143Y-58507870D01*
X63326411Y-58509070D01*
X63326500Y-58510707D01*
X63326500Y-60315786D01*
X63326493Y-60317106D01*
X63325549Y-60407221D01*
X63334711Y-60449597D01*
X63336769Y-60462163D01*
X63341603Y-60505255D01*
X63343919Y-60511906D01*
X63343920Y-60511910D01*
X63352633Y-60536930D01*
X63356796Y-60551742D01*
X63363881Y-60584510D01*
X63382208Y-60623813D01*
X63386990Y-60635589D01*
X63401255Y-60676552D01*
X63404989Y-60682527D01*
X63404990Y-60682530D01*
X63419027Y-60704995D01*
X63426366Y-60718512D01*
X63437559Y-60742514D01*
X63440538Y-60748902D01*
X63444855Y-60754467D01*
X63444856Y-60754469D01*
X63467106Y-60783153D01*
X63474402Y-60793612D01*
X63497374Y-60830376D01*
X63502334Y-60835371D01*
X63502335Y-60835372D01*
X63525976Y-60859179D01*
X63526561Y-60859804D01*
X63527078Y-60860470D01*
X63553066Y-60886458D01*
X63625185Y-60959082D01*
X63626222Y-60959740D01*
X63627451Y-60960843D01*
X64793092Y-62126484D01*
X64827118Y-62188796D01*
X64822053Y-62259611D01*
X64793092Y-62304674D01*
X64100621Y-62997145D01*
X64090478Y-63006247D01*
X64060975Y-63029968D01*
X64049603Y-63043521D01*
X64028928Y-63068160D01*
X64021502Y-63076264D01*
X63338621Y-63759145D01*
X63328478Y-63768247D01*
X63298975Y-63791968D01*
X63266709Y-63830421D01*
X63263528Y-63834069D01*
X63261885Y-63835881D01*
X63259691Y-63838075D01*
X63232358Y-63871349D01*
X63231696Y-63872147D01*
X63171846Y-63943474D01*
X63169278Y-63948144D01*
X63165897Y-63952261D01*
X63138946Y-64002525D01*
X63122023Y-64034086D01*
X63121394Y-64035245D01*
X63079538Y-64111381D01*
X63079535Y-64111389D01*
X63076567Y-64116787D01*
X63074955Y-64121869D01*
X63072438Y-64126563D01*
X63045238Y-64215531D01*
X63044918Y-64216559D01*
X63016765Y-64305306D01*
X63016171Y-64310602D01*
X63014613Y-64315698D01*
X63013990Y-64321834D01*
X63005218Y-64408187D01*
X63005089Y-64409393D01*
X62999500Y-64459227D01*
X62999500Y-64462754D01*
X62999445Y-64463739D01*
X62998998Y-64469419D01*
X62994626Y-64512462D01*
X60718000Y-64512462D01*
X60718000Y-56600376D01*
X60718078Y-56560423D01*
X60753904Y-38101694D01*
X60755404Y-38082556D01*
X60757805Y-38067140D01*
X60757805Y-38067139D01*
X60759186Y-38058270D01*
X60756941Y-38041101D01*
X60756108Y-38017161D01*
X60771710Y-37759230D01*
X60773544Y-37744126D01*
X60825038Y-37463127D01*
X60828679Y-37448353D01*
X60888713Y-37255700D01*
X60913675Y-37175592D01*
X60919070Y-37161370D01*
X60977091Y-37032453D01*
X61036316Y-36900860D01*
X61043385Y-36887391D01*
X61191182Y-36642905D01*
X61199825Y-36630383D01*
X61376016Y-36405493D01*
X61386106Y-36394105D01*
X61588105Y-36192106D01*
X61599493Y-36182016D01*
X61824383Y-36005825D01*
X61836905Y-35997182D01*
X62081391Y-35849385D01*
X62094860Y-35842316D01*
X62355373Y-35725069D01*
X62369592Y-35719675D01*
X62642359Y-35634678D01*
X62657121Y-35631040D01*
X62867352Y-35592514D01*
X62938126Y-35579544D01*
X62953230Y-35577710D01*
X63203929Y-35562545D01*
X63230639Y-35563802D01*
X63230859Y-35563805D01*
X63239730Y-35565186D01*
X63248632Y-35564022D01*
X63248635Y-35564022D01*
X63271251Y-35561064D01*
X63287589Y-35560000D01*
X122172672Y-35560000D01*
X122192057Y-35561500D01*
G37*
%TD.AperFunction*%
%TA.AperFunction,Conductor*%
G36*
X99256121Y-42636002D02*
G01*
X99302614Y-42689658D01*
X99314000Y-42742000D01*
X99314000Y-44202229D01*
X99318064Y-44216071D01*
X99331479Y-44218105D01*
X99341025Y-44216882D01*
X99351095Y-44214742D01*
X99557225Y-44152900D01*
X99566832Y-44149134D01*
X99760076Y-44054464D01*
X99768934Y-44049185D01*
X99944141Y-43924211D01*
X99952003Y-43917567D01*
X100104445Y-43765656D01*
X100111122Y-43757811D01*
X100229086Y-43593646D01*
X100285081Y-43549998D01*
X100355784Y-43543552D01*
X100418749Y-43576355D01*
X100438842Y-43601337D01*
X100488975Y-43683147D01*
X100636702Y-43853687D01*
X100810299Y-43997810D01*
X100814751Y-44000412D01*
X100814756Y-44000415D01*
X100978463Y-44096078D01*
X101005103Y-44111645D01*
X101215884Y-44192134D01*
X101220952Y-44193165D01*
X101220955Y-44193166D01*
X101305801Y-44210428D01*
X101436981Y-44237117D01*
X101442156Y-44237307D01*
X101442158Y-44237307D01*
X101657292Y-44245196D01*
X101657296Y-44245196D01*
X101662456Y-44245385D01*
X101667576Y-44244729D01*
X101667578Y-44244729D01*
X101762485Y-44232571D01*
X101886253Y-44216716D01*
X101891202Y-44215231D01*
X101891208Y-44215230D01*
X102097413Y-44153365D01*
X102097412Y-44153365D01*
X102102363Y-44151880D01*
X102229327Y-44089681D01*
X102300331Y-44054897D01*
X102300336Y-44054894D01*
X102304982Y-44052618D01*
X102309195Y-44049613D01*
X102309197Y-44049612D01*
X102484455Y-43924601D01*
X102484459Y-43924597D01*
X102488667Y-43921596D01*
X102648487Y-43762333D01*
X102769370Y-43594107D01*
X102825364Y-43550459D01*
X102896068Y-43544013D01*
X102959032Y-43576816D01*
X102979125Y-43601799D01*
X103026275Y-43678743D01*
X103026279Y-43678748D01*
X103028975Y-43683147D01*
X103176702Y-43853687D01*
X103350299Y-43997810D01*
X103354751Y-44000412D01*
X103354756Y-44000415D01*
X103518463Y-44096078D01*
X103545103Y-44111645D01*
X103755884Y-44192134D01*
X103760952Y-44193165D01*
X103760955Y-44193166D01*
X103845801Y-44210428D01*
X103976981Y-44237117D01*
X103982156Y-44237307D01*
X103982158Y-44237307D01*
X104197292Y-44245196D01*
X104197296Y-44245196D01*
X104202456Y-44245385D01*
X104207576Y-44244729D01*
X104207578Y-44244729D01*
X104302485Y-44232571D01*
X104426253Y-44216716D01*
X104431202Y-44215231D01*
X104431208Y-44215230D01*
X104637413Y-44153365D01*
X104637412Y-44153365D01*
X104642363Y-44151880D01*
X104769327Y-44089681D01*
X104840331Y-44054897D01*
X104840336Y-44054894D01*
X104844982Y-44052618D01*
X104849195Y-44049613D01*
X104849197Y-44049612D01*
X105024455Y-43924601D01*
X105024459Y-43924597D01*
X105028667Y-43921596D01*
X105188487Y-43762333D01*
X105309370Y-43594107D01*
X105365364Y-43550459D01*
X105436068Y-43544013D01*
X105499032Y-43576816D01*
X105519125Y-43601799D01*
X105566275Y-43678743D01*
X105566279Y-43678748D01*
X105568975Y-43683147D01*
X105716702Y-43853687D01*
X105890299Y-43997810D01*
X105894751Y-44000412D01*
X105894756Y-44000415D01*
X106058463Y-44096078D01*
X106085103Y-44111645D01*
X106295884Y-44192134D01*
X106300952Y-44193165D01*
X106300955Y-44193166D01*
X106385801Y-44210428D01*
X106516981Y-44237117D01*
X106522156Y-44237307D01*
X106522158Y-44237307D01*
X106737292Y-44245196D01*
X106737296Y-44245196D01*
X106742456Y-44245385D01*
X106747576Y-44244729D01*
X106747578Y-44244729D01*
X106842485Y-44232571D01*
X106966253Y-44216716D01*
X106971202Y-44215231D01*
X106971208Y-44215230D01*
X107177413Y-44153365D01*
X107177412Y-44153365D01*
X107182363Y-44151880D01*
X107309327Y-44089681D01*
X107380331Y-44054897D01*
X107380336Y-44054894D01*
X107384982Y-44052618D01*
X107389195Y-44049613D01*
X107389197Y-44049612D01*
X107564455Y-43924601D01*
X107564459Y-43924597D01*
X107568667Y-43921596D01*
X107728487Y-43762333D01*
X107849370Y-43594107D01*
X107905364Y-43550459D01*
X107976068Y-43544013D01*
X108039032Y-43576816D01*
X108059125Y-43601799D01*
X108106275Y-43678743D01*
X108106279Y-43678748D01*
X108108975Y-43683147D01*
X108256702Y-43853687D01*
X108430299Y-43997810D01*
X108434751Y-44000412D01*
X108434756Y-44000415D01*
X108598463Y-44096078D01*
X108625103Y-44111645D01*
X108835884Y-44192134D01*
X108840952Y-44193165D01*
X108840955Y-44193166D01*
X108925801Y-44210428D01*
X109056981Y-44237117D01*
X109062156Y-44237307D01*
X109062158Y-44237307D01*
X109277292Y-44245196D01*
X109277296Y-44245196D01*
X109282456Y-44245385D01*
X109287576Y-44244729D01*
X109287578Y-44244729D01*
X109382485Y-44232571D01*
X109506253Y-44216716D01*
X109511202Y-44215231D01*
X109511208Y-44215230D01*
X109717413Y-44153365D01*
X109717412Y-44153365D01*
X109722363Y-44151880D01*
X109849327Y-44089681D01*
X109920331Y-44054897D01*
X109920336Y-44054894D01*
X109924982Y-44052618D01*
X109929195Y-44049613D01*
X109929197Y-44049612D01*
X110104455Y-43924601D01*
X110104459Y-43924597D01*
X110108667Y-43921596D01*
X110268487Y-43762333D01*
X110389370Y-43594107D01*
X110445364Y-43550459D01*
X110516068Y-43544013D01*
X110579032Y-43576816D01*
X110599125Y-43601799D01*
X110646275Y-43678743D01*
X110646279Y-43678748D01*
X110648975Y-43683147D01*
X110796702Y-43853687D01*
X110970299Y-43997810D01*
X110974751Y-44000412D01*
X110974756Y-44000415D01*
X111138463Y-44096078D01*
X111165103Y-44111645D01*
X111375884Y-44192134D01*
X111380952Y-44193165D01*
X111380955Y-44193166D01*
X111465801Y-44210428D01*
X111596981Y-44237117D01*
X111602156Y-44237307D01*
X111602158Y-44237307D01*
X111817292Y-44245196D01*
X111817296Y-44245196D01*
X111822456Y-44245385D01*
X111827576Y-44244729D01*
X111827578Y-44244729D01*
X111922485Y-44232571D01*
X112046253Y-44216716D01*
X112051202Y-44215231D01*
X112051208Y-44215230D01*
X112257413Y-44153365D01*
X112257412Y-44153365D01*
X112262363Y-44151880D01*
X112426235Y-44071600D01*
X112496209Y-44059593D01*
X112561566Y-44087323D01*
X112601556Y-44145986D01*
X112603482Y-44216957D01*
X112570762Y-44273846D01*
X111749842Y-45094766D01*
X111748905Y-45095694D01*
X111706763Y-45136963D01*
X111684493Y-45158771D01*
X111661002Y-45195221D01*
X111653583Y-45205546D01*
X111626524Y-45239443D01*
X111623459Y-45245784D01*
X111623458Y-45245785D01*
X111611928Y-45269637D01*
X111604399Y-45283054D01*
X111586235Y-45311238D01*
X111583827Y-45317855D01*
X111583824Y-45317860D01*
X111571408Y-45351973D01*
X111566447Y-45363716D01*
X111550646Y-45396403D01*
X111550644Y-45396408D01*
X111547579Y-45402749D01*
X111545996Y-45409607D01*
X111545995Y-45409609D01*
X111540035Y-45435426D01*
X111535668Y-45450169D01*
X111524197Y-45481685D01*
X111523314Y-45488675D01*
X111523312Y-45488683D01*
X111518762Y-45524701D01*
X111516526Y-45537253D01*
X111513721Y-45549405D01*
X111506776Y-45579485D01*
X111506751Y-45586531D01*
X111506751Y-45586534D01*
X111506634Y-45620056D01*
X111506605Y-45620938D01*
X111506500Y-45621769D01*
X111506500Y-45658419D01*
X111506499Y-45658859D01*
X111506286Y-45720000D01*
X111506143Y-45760870D01*
X111506411Y-45762070D01*
X111506500Y-45763707D01*
X111506500Y-46455295D01*
X111486498Y-46523416D01*
X111437702Y-46567562D01*
X111425244Y-46573910D01*
X111417470Y-46577871D01*
X111412341Y-46582024D01*
X111412340Y-46582025D01*
X111394295Y-46596638D01*
X111328768Y-46623964D01*
X111258869Y-46611525D01*
X111235705Y-46596638D01*
X111217660Y-46582025D01*
X111217659Y-46582024D01*
X111212530Y-46577871D01*
X111042371Y-46491171D01*
X111031067Y-46488142D01*
X110863481Y-46443237D01*
X110863477Y-46443236D01*
X110857904Y-46441743D01*
X110841793Y-46440475D01*
X110781037Y-46435693D01*
X110781030Y-46435693D01*
X110778581Y-46435500D01*
X110315188Y-46435500D01*
X109851420Y-46435501D01*
X109802053Y-46439386D01*
X109777850Y-46441290D01*
X109777848Y-46441290D01*
X109772096Y-46441743D01*
X109587629Y-46491171D01*
X109417470Y-46577871D01*
X109412341Y-46582024D01*
X109412340Y-46582025D01*
X109394295Y-46596638D01*
X109328768Y-46623964D01*
X109258869Y-46611525D01*
X109235705Y-46596638D01*
X109217660Y-46582025D01*
X109217659Y-46582024D01*
X109212530Y-46577871D01*
X109042371Y-46491171D01*
X109031067Y-46488142D01*
X108863481Y-46443237D01*
X108863477Y-46443236D01*
X108857904Y-46441743D01*
X108841793Y-46440475D01*
X108781037Y-46435693D01*
X108781030Y-46435693D01*
X108778581Y-46435500D01*
X108315188Y-46435500D01*
X107851420Y-46435501D01*
X107802053Y-46439386D01*
X107777850Y-46441290D01*
X107777848Y-46441290D01*
X107772096Y-46441743D01*
X107587629Y-46491171D01*
X107417470Y-46577871D01*
X107412341Y-46582024D01*
X107412340Y-46582025D01*
X107394295Y-46596638D01*
X107328768Y-46623964D01*
X107258869Y-46611525D01*
X107235705Y-46596638D01*
X107217660Y-46582025D01*
X107217659Y-46582024D01*
X107212530Y-46577871D01*
X107042371Y-46491171D01*
X107031067Y-46488142D01*
X106863481Y-46443237D01*
X106863477Y-46443236D01*
X106857904Y-46441743D01*
X106841793Y-46440475D01*
X106781037Y-46435693D01*
X106781030Y-46435693D01*
X106778581Y-46435500D01*
X106315188Y-46435500D01*
X105851420Y-46435501D01*
X105802053Y-46439386D01*
X105777850Y-46441290D01*
X105777848Y-46441290D01*
X105772096Y-46441743D01*
X105587629Y-46491171D01*
X105417470Y-46577871D01*
X105412341Y-46582024D01*
X105412340Y-46582025D01*
X105394295Y-46596638D01*
X105328768Y-46623964D01*
X105258869Y-46611525D01*
X105235705Y-46596638D01*
X105217660Y-46582025D01*
X105217659Y-46582024D01*
X105212530Y-46577871D01*
X105042371Y-46491171D01*
X105031067Y-46488142D01*
X104863481Y-46443237D01*
X104863477Y-46443236D01*
X104857904Y-46441743D01*
X104841793Y-46440475D01*
X104781037Y-46435693D01*
X104781030Y-46435693D01*
X104778581Y-46435500D01*
X104315188Y-46435500D01*
X103851420Y-46435501D01*
X103802053Y-46439386D01*
X103777850Y-46441290D01*
X103777848Y-46441290D01*
X103772096Y-46441743D01*
X103587629Y-46491171D01*
X103417470Y-46577871D01*
X103412341Y-46582024D01*
X103412340Y-46582025D01*
X103394295Y-46596638D01*
X103328768Y-46623964D01*
X103258869Y-46611525D01*
X103235705Y-46596638D01*
X103217660Y-46582025D01*
X103217659Y-46582024D01*
X103212530Y-46577871D01*
X103042371Y-46491171D01*
X103031067Y-46488142D01*
X102863481Y-46443237D01*
X102863477Y-46443236D01*
X102857904Y-46441743D01*
X102841793Y-46440475D01*
X102781037Y-46435693D01*
X102781030Y-46435693D01*
X102778581Y-46435500D01*
X102315188Y-46435500D01*
X101851420Y-46435501D01*
X101802053Y-46439386D01*
X101777850Y-46441290D01*
X101777848Y-46441290D01*
X101772096Y-46441743D01*
X101587629Y-46491171D01*
X101417470Y-46577871D01*
X101412341Y-46582024D01*
X101412340Y-46582025D01*
X101394295Y-46596638D01*
X101328768Y-46623964D01*
X101258869Y-46611525D01*
X101235705Y-46596638D01*
X101217660Y-46582025D01*
X101217659Y-46582024D01*
X101212530Y-46577871D01*
X101042371Y-46491171D01*
X101031067Y-46488142D01*
X100863481Y-46443237D01*
X100863477Y-46443236D01*
X100857904Y-46441743D01*
X100841793Y-46440475D01*
X100781037Y-46435693D01*
X100781030Y-46435693D01*
X100778581Y-46435500D01*
X100315188Y-46435500D01*
X99851420Y-46435501D01*
X99802053Y-46439386D01*
X99777850Y-46441290D01*
X99777848Y-46441290D01*
X99772096Y-46441743D01*
X99587629Y-46491171D01*
X99581749Y-46494167D01*
X99423351Y-46574874D01*
X99423347Y-46574876D01*
X99417470Y-46577871D01*
X99393896Y-46596961D01*
X99328370Y-46624285D01*
X99258472Y-46611845D01*
X99235310Y-46596960D01*
X99217386Y-46582446D01*
X99206376Y-46575296D01*
X99048070Y-46494635D01*
X99035817Y-46489931D01*
X98863403Y-46443733D01*
X98852069Y-46441786D01*
X98781010Y-46436193D01*
X98776084Y-46436000D01*
X98587115Y-46436000D01*
X98571876Y-46440475D01*
X98570671Y-46441865D01*
X98569000Y-46449548D01*
X98569000Y-51433885D01*
X98573475Y-51449124D01*
X98574865Y-51450329D01*
X98582548Y-51452000D01*
X98776085Y-51452000D01*
X98781010Y-51451807D01*
X98852069Y-51446214D01*
X98863403Y-51444267D01*
X99035817Y-51398069D01*
X99048070Y-51393365D01*
X99206376Y-51312704D01*
X99217386Y-51305554D01*
X99235310Y-51291040D01*
X99300838Y-51263715D01*
X99370736Y-51276155D01*
X99393893Y-51291037D01*
X99417470Y-51310129D01*
X99423347Y-51313124D01*
X99423351Y-51313126D01*
X99538022Y-51371553D01*
X99587629Y-51396829D01*
X99594002Y-51398537D01*
X99594003Y-51398537D01*
X99766519Y-51444763D01*
X99766523Y-51444764D01*
X99772096Y-51446257D01*
X99777852Y-51446710D01*
X99848963Y-51452307D01*
X99848970Y-51452307D01*
X99851419Y-51452500D01*
X100314812Y-51452500D01*
X100778580Y-51452499D01*
X100827947Y-51448614D01*
X100852150Y-51446710D01*
X100852152Y-51446710D01*
X100857904Y-51446257D01*
X101042371Y-51396829D01*
X101212530Y-51310129D01*
X101235705Y-51291362D01*
X101301232Y-51264036D01*
X101371131Y-51276475D01*
X101394294Y-51291361D01*
X101417470Y-51310129D01*
X101587629Y-51396829D01*
X101594002Y-51398537D01*
X101594003Y-51398537D01*
X101766519Y-51444763D01*
X101766523Y-51444764D01*
X101772096Y-51446257D01*
X101777852Y-51446710D01*
X101848963Y-51452307D01*
X101848970Y-51452307D01*
X101851419Y-51452500D01*
X102314812Y-51452500D01*
X102778580Y-51452499D01*
X102827947Y-51448614D01*
X102852150Y-51446710D01*
X102852152Y-51446710D01*
X102857904Y-51446257D01*
X103042371Y-51396829D01*
X103212530Y-51310129D01*
X103235705Y-51291362D01*
X103301232Y-51264036D01*
X103371131Y-51276475D01*
X103394294Y-51291361D01*
X103417470Y-51310129D01*
X103587629Y-51396829D01*
X103594002Y-51398537D01*
X103594003Y-51398537D01*
X103766519Y-51444763D01*
X103766523Y-51444764D01*
X103772096Y-51446257D01*
X103777852Y-51446710D01*
X103848963Y-51452307D01*
X103848970Y-51452307D01*
X103851419Y-51452500D01*
X104314812Y-51452500D01*
X104778580Y-51452499D01*
X104827947Y-51448614D01*
X104852150Y-51446710D01*
X104852152Y-51446710D01*
X104857904Y-51446257D01*
X105042371Y-51396829D01*
X105212530Y-51310129D01*
X105235705Y-51291362D01*
X105301232Y-51264036D01*
X105371131Y-51276475D01*
X105394294Y-51291361D01*
X105417470Y-51310129D01*
X105587629Y-51396829D01*
X105594002Y-51398537D01*
X105594003Y-51398537D01*
X105766519Y-51444763D01*
X105766523Y-51444764D01*
X105772096Y-51446257D01*
X105777852Y-51446710D01*
X105848963Y-51452307D01*
X105848970Y-51452307D01*
X105851419Y-51452500D01*
X106314812Y-51452500D01*
X106778580Y-51452499D01*
X106827947Y-51448614D01*
X106852150Y-51446710D01*
X106852152Y-51446710D01*
X106857904Y-51446257D01*
X107042371Y-51396829D01*
X107212530Y-51310129D01*
X107235705Y-51291362D01*
X107301232Y-51264036D01*
X107371131Y-51276475D01*
X107394294Y-51291361D01*
X107417470Y-51310129D01*
X107587629Y-51396829D01*
X107594002Y-51398537D01*
X107594003Y-51398537D01*
X107766519Y-51444763D01*
X107766523Y-51444764D01*
X107772096Y-51446257D01*
X107777852Y-51446710D01*
X107848963Y-51452307D01*
X107848970Y-51452307D01*
X107851419Y-51452500D01*
X108314812Y-51452500D01*
X108778580Y-51452499D01*
X108827947Y-51448614D01*
X108852150Y-51446710D01*
X108852152Y-51446710D01*
X108857904Y-51446257D01*
X109042371Y-51396829D01*
X109212530Y-51310129D01*
X109235705Y-51291362D01*
X109301232Y-51264036D01*
X109371131Y-51276475D01*
X109394294Y-51291361D01*
X109417470Y-51310129D01*
X109587629Y-51396829D01*
X109594002Y-51398537D01*
X109594003Y-51398537D01*
X109766519Y-51444763D01*
X109766523Y-51444764D01*
X109772096Y-51446257D01*
X109777852Y-51446710D01*
X109848963Y-51452307D01*
X109848970Y-51452307D01*
X109851419Y-51452500D01*
X110314812Y-51452500D01*
X110778580Y-51452499D01*
X110827947Y-51448614D01*
X110852150Y-51446710D01*
X110852152Y-51446710D01*
X110857904Y-51446257D01*
X111042371Y-51396829D01*
X111212530Y-51310129D01*
X111235705Y-51291362D01*
X111301232Y-51264036D01*
X111371131Y-51276475D01*
X111394294Y-51291361D01*
X111417470Y-51310129D01*
X111587629Y-51396829D01*
X111594002Y-51398537D01*
X111594003Y-51398537D01*
X111766519Y-51444763D01*
X111766523Y-51444764D01*
X111772096Y-51446257D01*
X111777852Y-51446710D01*
X111848963Y-51452307D01*
X111848970Y-51452307D01*
X111851419Y-51452500D01*
X112314812Y-51452500D01*
X112778580Y-51452499D01*
X112827947Y-51448614D01*
X112852150Y-51446710D01*
X112852152Y-51446710D01*
X112857904Y-51446257D01*
X113042371Y-51396829D01*
X113212530Y-51310129D01*
X113235705Y-51291362D01*
X113301232Y-51264036D01*
X113371131Y-51276475D01*
X113394294Y-51291361D01*
X113417470Y-51310129D01*
X113587629Y-51396829D01*
X113594002Y-51398537D01*
X113594003Y-51398537D01*
X113766519Y-51444763D01*
X113766523Y-51444764D01*
X113772096Y-51446257D01*
X113777852Y-51446710D01*
X113848963Y-51452307D01*
X113848970Y-51452307D01*
X113851419Y-51452500D01*
X113858744Y-51452500D01*
X114457076Y-51452499D01*
X114525196Y-51472501D01*
X114571689Y-51526157D01*
X114581793Y-51596430D01*
X114552300Y-51661011D01*
X114546171Y-51667594D01*
X113919171Y-52294595D01*
X113856858Y-52328620D01*
X113830075Y-52331500D01*
X106233843Y-52331500D01*
X106220236Y-52330763D01*
X106188738Y-52327341D01*
X106188733Y-52327341D01*
X106182612Y-52326676D01*
X106156848Y-52328930D01*
X106132612Y-52331050D01*
X106127786Y-52331379D01*
X106125314Y-52331500D01*
X106122231Y-52331500D01*
X106110262Y-52332674D01*
X106079494Y-52335690D01*
X106078181Y-52335812D01*
X106033916Y-52339685D01*
X105985587Y-52343913D01*
X105980468Y-52345400D01*
X105975167Y-52345920D01*
X105886166Y-52372791D01*
X105885033Y-52373126D01*
X105801586Y-52397370D01*
X105801582Y-52397372D01*
X105795664Y-52399091D01*
X105790932Y-52401544D01*
X105785831Y-52403084D01*
X105780388Y-52405978D01*
X105703740Y-52446731D01*
X105702574Y-52447343D01*
X105625547Y-52487271D01*
X105620074Y-52490108D01*
X105615911Y-52493431D01*
X105611204Y-52495934D01*
X105539082Y-52554755D01*
X105538226Y-52555446D01*
X105499027Y-52586738D01*
X105496523Y-52589242D01*
X105495805Y-52589884D01*
X105491472Y-52593585D01*
X105457938Y-52620935D01*
X105454011Y-52625682D01*
X105454009Y-52625684D01*
X105428713Y-52656262D01*
X105420723Y-52665042D01*
X104658228Y-53427538D01*
X103938063Y-54147703D01*
X103875751Y-54181728D01*
X103804936Y-54176664D01*
X103767133Y-54154415D01*
X103763177Y-54151036D01*
X103763175Y-54151035D01*
X103759416Y-54147824D01*
X103755208Y-54145245D01*
X103755202Y-54145241D01*
X103561183Y-54026346D01*
X103556963Y-54023760D01*
X103552393Y-54021867D01*
X103552389Y-54021865D01*
X103342167Y-53934789D01*
X103342165Y-53934788D01*
X103337594Y-53932895D01*
X103257391Y-53913640D01*
X103111524Y-53878620D01*
X103111518Y-53878619D01*
X103106711Y-53877465D01*
X102870000Y-53858835D01*
X102633289Y-53877465D01*
X102628482Y-53878619D01*
X102628476Y-53878620D01*
X102482609Y-53913640D01*
X102402406Y-53932895D01*
X102397835Y-53934788D01*
X102397833Y-53934789D01*
X102187611Y-54021865D01*
X102187607Y-54021867D01*
X102183037Y-54023760D01*
X102178817Y-54026346D01*
X101984798Y-54145241D01*
X101984792Y-54145245D01*
X101980584Y-54147824D01*
X101976825Y-54151035D01*
X101976823Y-54151036D01*
X101972867Y-54154415D01*
X101908079Y-54183450D01*
X101837878Y-54172848D01*
X101801937Y-54147703D01*
X101340855Y-53686621D01*
X101331753Y-53676478D01*
X101311897Y-53651782D01*
X101308032Y-53646975D01*
X101269578Y-53614708D01*
X101265931Y-53611528D01*
X101264119Y-53609885D01*
X101261925Y-53607691D01*
X101228651Y-53580358D01*
X101227853Y-53579696D01*
X101156526Y-53519846D01*
X101151856Y-53517278D01*
X101147739Y-53513897D01*
X101065914Y-53470023D01*
X101064755Y-53469394D01*
X100988619Y-53427538D01*
X100988611Y-53427535D01*
X100983213Y-53424567D01*
X100978131Y-53422955D01*
X100973437Y-53420438D01*
X100884469Y-53393238D01*
X100883441Y-53392918D01*
X100794694Y-53364765D01*
X100789398Y-53364171D01*
X100784302Y-53362613D01*
X100691743Y-53353210D01*
X100690607Y-53353089D01*
X100656992Y-53349319D01*
X100644270Y-53347892D01*
X100644266Y-53347892D01*
X100640773Y-53347500D01*
X100637246Y-53347500D01*
X100636261Y-53347445D01*
X100630581Y-53346998D01*
X100601175Y-53344011D01*
X100593663Y-53343248D01*
X100593661Y-53343248D01*
X100587538Y-53342626D01*
X100545259Y-53346623D01*
X100541891Y-53346941D01*
X100530033Y-53347500D01*
X80174556Y-53347500D01*
X80106435Y-53327498D01*
X80078747Y-53303333D01*
X80064227Y-53286333D01*
X80035194Y-53221543D01*
X80045798Y-53151343D01*
X80092672Y-53098020D01*
X80160036Y-53078500D01*
X81091157Y-53078500D01*
X81104764Y-53079237D01*
X81136262Y-53082659D01*
X81136267Y-53082659D01*
X81142388Y-53083324D01*
X81168638Y-53081027D01*
X81192388Y-53078950D01*
X81197214Y-53078621D01*
X81199686Y-53078500D01*
X81202769Y-53078500D01*
X81214738Y-53077326D01*
X81245506Y-53074310D01*
X81246819Y-53074188D01*
X81291084Y-53070315D01*
X81339413Y-53066087D01*
X81344532Y-53064600D01*
X81349833Y-53064080D01*
X81438834Y-53037209D01*
X81439967Y-53036874D01*
X81523414Y-53012630D01*
X81523418Y-53012628D01*
X81529336Y-53010909D01*
X81534068Y-53008456D01*
X81539169Y-53006916D01*
X81544612Y-53004022D01*
X81621260Y-52963269D01*
X81622426Y-52962657D01*
X81699453Y-52922729D01*
X81704926Y-52919892D01*
X81709089Y-52916569D01*
X81713796Y-52914066D01*
X81785918Y-52855245D01*
X81786774Y-52854554D01*
X81825973Y-52823262D01*
X81828477Y-52820758D01*
X81829195Y-52820116D01*
X81833528Y-52816415D01*
X81867062Y-52789065D01*
X81896288Y-52753737D01*
X81904277Y-52744958D01*
X84044150Y-50605085D01*
X97007000Y-50605085D01*
X97007193Y-50610010D01*
X97012786Y-50681069D01*
X97014733Y-50692403D01*
X97060931Y-50864817D01*
X97065635Y-50877070D01*
X97146295Y-51035375D01*
X97153448Y-51046390D01*
X97265255Y-51184459D01*
X97274541Y-51193745D01*
X97412610Y-51305552D01*
X97423625Y-51312705D01*
X97581930Y-51393365D01*
X97594183Y-51398069D01*
X97766597Y-51444267D01*
X97777931Y-51446214D01*
X97848990Y-51451807D01*
X97853915Y-51452000D01*
X98042885Y-51452000D01*
X98058124Y-51447525D01*
X98059329Y-51446135D01*
X98061000Y-51438452D01*
X98061000Y-49216115D01*
X98056525Y-49200876D01*
X98055135Y-49199671D01*
X98047452Y-49198000D01*
X97025115Y-49198000D01*
X97009876Y-49202475D01*
X97008671Y-49203865D01*
X97007000Y-49211548D01*
X97007000Y-50605085D01*
X84044150Y-50605085D01*
X85729954Y-48919281D01*
X85740097Y-48910179D01*
X85764788Y-48890327D01*
X85769595Y-48886462D01*
X85801882Y-48847984D01*
X85805037Y-48844368D01*
X85806693Y-48842542D01*
X85808879Y-48840356D01*
X85810834Y-48837976D01*
X85810843Y-48837966D01*
X85836146Y-48807162D01*
X85836988Y-48806147D01*
X85892764Y-48739675D01*
X85896724Y-48734956D01*
X85899293Y-48730282D01*
X85902672Y-48726169D01*
X85931778Y-48671885D01*
X97007000Y-48671885D01*
X97011475Y-48687124D01*
X97012865Y-48688329D01*
X97020548Y-48690000D01*
X98042885Y-48690000D01*
X98058124Y-48685525D01*
X98059329Y-48684135D01*
X98061000Y-48676452D01*
X98061000Y-46454115D01*
X98056525Y-46438876D01*
X98055135Y-46437671D01*
X98047452Y-46436000D01*
X97853916Y-46436000D01*
X97848990Y-46436193D01*
X97777931Y-46441786D01*
X97766597Y-46443733D01*
X97594183Y-46489931D01*
X97581930Y-46494635D01*
X97423625Y-46575295D01*
X97412610Y-46582448D01*
X97274541Y-46694255D01*
X97265255Y-46703541D01*
X97153448Y-46841610D01*
X97146295Y-46852625D01*
X97065635Y-47010930D01*
X97060931Y-47023183D01*
X97014733Y-47195597D01*
X97012786Y-47206931D01*
X97007193Y-47277990D01*
X97007000Y-47282916D01*
X97007000Y-48671885D01*
X85931778Y-48671885D01*
X85946545Y-48644345D01*
X85947154Y-48643223D01*
X85989034Y-48567044D01*
X85989035Y-48567042D01*
X85992003Y-48561643D01*
X85993615Y-48556561D01*
X85996132Y-48551867D01*
X86023332Y-48462899D01*
X86023678Y-48461788D01*
X86023814Y-48461362D01*
X86051805Y-48373124D01*
X86052399Y-48367828D01*
X86053957Y-48362732D01*
X86063355Y-48270208D01*
X86063475Y-48269088D01*
X86069070Y-48219203D01*
X86069070Y-48215676D01*
X86069126Y-48214673D01*
X86069573Y-48208989D01*
X86073943Y-48165968D01*
X86069629Y-48120329D01*
X86069070Y-48108473D01*
X86069070Y-46812267D01*
X86089072Y-46744146D01*
X86113238Y-46716457D01*
X86126782Y-46704889D01*
X86126783Y-46704888D01*
X86130539Y-46701680D01*
X86284746Y-46521127D01*
X86287325Y-46516919D01*
X86287329Y-46516913D01*
X86406224Y-46322894D01*
X86408810Y-46318674D01*
X86421631Y-46287723D01*
X86497781Y-46103878D01*
X86497782Y-46103876D01*
X86499675Y-46099305D01*
X86530162Y-45972316D01*
X86553950Y-45873235D01*
X86553951Y-45873229D01*
X86555105Y-45868422D01*
X86573735Y-45631711D01*
X86555105Y-45395000D01*
X86553192Y-45387029D01*
X86508427Y-45200572D01*
X86499675Y-45164117D01*
X86497461Y-45158771D01*
X86410705Y-44949322D01*
X86410703Y-44949318D01*
X86408810Y-44944748D01*
X86389221Y-44912782D01*
X86287329Y-44746509D01*
X86287325Y-44746503D01*
X86284746Y-44742295D01*
X86130539Y-44561742D01*
X86126783Y-44558534D01*
X86126778Y-44558529D01*
X85981296Y-44434276D01*
X85942486Y-44374826D01*
X85941979Y-44303831D01*
X85979936Y-44243832D01*
X86044304Y-44213879D01*
X86088243Y-44214994D01*
X86196981Y-44237117D01*
X86202156Y-44237307D01*
X86202158Y-44237307D01*
X86417292Y-44245196D01*
X86417296Y-44245196D01*
X86422456Y-44245385D01*
X86427576Y-44244729D01*
X86427578Y-44244729D01*
X86522485Y-44232571D01*
X86646253Y-44216716D01*
X86651202Y-44215231D01*
X86651208Y-44215230D01*
X86857413Y-44153365D01*
X86857412Y-44153365D01*
X86862363Y-44151880D01*
X86989327Y-44089681D01*
X87060331Y-44054897D01*
X87060336Y-44054894D01*
X87064982Y-44052618D01*
X87069195Y-44049613D01*
X87069197Y-44049612D01*
X87244455Y-43924601D01*
X87244459Y-43924597D01*
X87248667Y-43921596D01*
X87408487Y-43762333D01*
X87529370Y-43594107D01*
X87585364Y-43550459D01*
X87656068Y-43544013D01*
X87719032Y-43576816D01*
X87739125Y-43601799D01*
X87786275Y-43678743D01*
X87786279Y-43678748D01*
X87788975Y-43683147D01*
X87936702Y-43853687D01*
X88110299Y-43997810D01*
X88114751Y-44000412D01*
X88114756Y-44000415D01*
X88278463Y-44096078D01*
X88305103Y-44111645D01*
X88515884Y-44192134D01*
X88520952Y-44193165D01*
X88520955Y-44193166D01*
X88605801Y-44210428D01*
X88736981Y-44237117D01*
X88742156Y-44237307D01*
X88742158Y-44237307D01*
X88957292Y-44245196D01*
X88957296Y-44245196D01*
X88962456Y-44245385D01*
X88967576Y-44244729D01*
X88967578Y-44244729D01*
X89062485Y-44232571D01*
X89186253Y-44216716D01*
X89191202Y-44215231D01*
X89191208Y-44215230D01*
X89397413Y-44153365D01*
X89397412Y-44153365D01*
X89402363Y-44151880D01*
X89529327Y-44089681D01*
X89600331Y-44054897D01*
X89600336Y-44054894D01*
X89604982Y-44052618D01*
X89609195Y-44049613D01*
X89609197Y-44049612D01*
X89784455Y-43924601D01*
X89784459Y-43924597D01*
X89788667Y-43921596D01*
X89948487Y-43762333D01*
X90069370Y-43594107D01*
X90125364Y-43550459D01*
X90196068Y-43544013D01*
X90259032Y-43576816D01*
X90279125Y-43601799D01*
X90326275Y-43678743D01*
X90326279Y-43678748D01*
X90328975Y-43683147D01*
X90476702Y-43853687D01*
X90650299Y-43997810D01*
X90654751Y-44000412D01*
X90654756Y-44000415D01*
X90818463Y-44096078D01*
X90845103Y-44111645D01*
X91055884Y-44192134D01*
X91060952Y-44193165D01*
X91060955Y-44193166D01*
X91145801Y-44210428D01*
X91276981Y-44237117D01*
X91282156Y-44237307D01*
X91282158Y-44237307D01*
X91497292Y-44245196D01*
X91497296Y-44245196D01*
X91502456Y-44245385D01*
X91507576Y-44244729D01*
X91507578Y-44244729D01*
X91602485Y-44232571D01*
X91726253Y-44216716D01*
X91731202Y-44215231D01*
X91731208Y-44215230D01*
X91937413Y-44153365D01*
X91937412Y-44153365D01*
X91942363Y-44151880D01*
X92069327Y-44089681D01*
X92140331Y-44054897D01*
X92140336Y-44054894D01*
X92144982Y-44052618D01*
X92149195Y-44049613D01*
X92149197Y-44049612D01*
X92324455Y-43924601D01*
X92324459Y-43924597D01*
X92328667Y-43921596D01*
X92488487Y-43762333D01*
X92609370Y-43594107D01*
X92665364Y-43550459D01*
X92736068Y-43544013D01*
X92799032Y-43576816D01*
X92819125Y-43601799D01*
X92866275Y-43678743D01*
X92866279Y-43678748D01*
X92868975Y-43683147D01*
X93016702Y-43853687D01*
X93190299Y-43997810D01*
X93194751Y-44000412D01*
X93194756Y-44000415D01*
X93358463Y-44096078D01*
X93385103Y-44111645D01*
X93595884Y-44192134D01*
X93600952Y-44193165D01*
X93600955Y-44193166D01*
X93685801Y-44210428D01*
X93816981Y-44237117D01*
X93822156Y-44237307D01*
X93822158Y-44237307D01*
X94037292Y-44245196D01*
X94037296Y-44245196D01*
X94042456Y-44245385D01*
X94047576Y-44244729D01*
X94047578Y-44244729D01*
X94142485Y-44232571D01*
X94266253Y-44216716D01*
X94271202Y-44215231D01*
X94271208Y-44215230D01*
X94477413Y-44153365D01*
X94477412Y-44153365D01*
X94482363Y-44151880D01*
X94609327Y-44089681D01*
X94680331Y-44054897D01*
X94680336Y-44054894D01*
X94684982Y-44052618D01*
X94689195Y-44049613D01*
X94689197Y-44049612D01*
X94864455Y-43924601D01*
X94864459Y-43924597D01*
X94868667Y-43921596D01*
X95028487Y-43762333D01*
X95149370Y-43594107D01*
X95205364Y-43550459D01*
X95276068Y-43544013D01*
X95339032Y-43576816D01*
X95359125Y-43601799D01*
X95406275Y-43678743D01*
X95406279Y-43678748D01*
X95408975Y-43683147D01*
X95556702Y-43853687D01*
X95730299Y-43997810D01*
X95734751Y-44000412D01*
X95734756Y-44000415D01*
X95898463Y-44096078D01*
X95925103Y-44111645D01*
X96135884Y-44192134D01*
X96140952Y-44193165D01*
X96140955Y-44193166D01*
X96225801Y-44210428D01*
X96356981Y-44237117D01*
X96362156Y-44237307D01*
X96362158Y-44237307D01*
X96577292Y-44245196D01*
X96577296Y-44245196D01*
X96582456Y-44245385D01*
X96587576Y-44244729D01*
X96587578Y-44244729D01*
X96682485Y-44232571D01*
X96806253Y-44216716D01*
X96811202Y-44215231D01*
X96811208Y-44215230D01*
X97017413Y-44153365D01*
X97017412Y-44153365D01*
X97022363Y-44151880D01*
X97149327Y-44089681D01*
X97220331Y-44054897D01*
X97220336Y-44054894D01*
X97224982Y-44052618D01*
X97229195Y-44049613D01*
X97229197Y-44049612D01*
X97404455Y-43924601D01*
X97404459Y-43924597D01*
X97408667Y-43921596D01*
X97568487Y-43762333D01*
X97689686Y-43593667D01*
X97745680Y-43550019D01*
X97816384Y-43543573D01*
X97879348Y-43576376D01*
X97899441Y-43601358D01*
X97946682Y-43678448D01*
X97952765Y-43686759D01*
X98093665Y-43849417D01*
X98101032Y-43856633D01*
X98266606Y-43994095D01*
X98275053Y-44000010D01*
X98460859Y-44108586D01*
X98470146Y-44113036D01*
X98671198Y-44189810D01*
X98681091Y-44192684D01*
X98788248Y-44214485D01*
X98802300Y-44213290D01*
X98806000Y-44202945D01*
X98806000Y-42742000D01*
X98826002Y-42673879D01*
X98879658Y-42627386D01*
X98932000Y-42616000D01*
X99188000Y-42616000D01*
X99256121Y-42636002D01*
G37*
%TD.AperFunction*%
%TD*%
M02*
