M48
; DRILL file {KiCad (6.0.0)} date Wed May 11 11:43:05 2022
; FORMAT={-:-/ absolute / metric / decimal}
; #@! TF.CreationDate,2022-05-11T11:43:05+02:00
; #@! TF.GenerationSoftware,Kicad,Pcbnew,(6.0.0)
; #@! TF.FileFunction,Plated,1,2,PTH
FMAT,2
METRIC
; #@! TA.AperFunction,Plated,PTH,ViaDrill
T1C0.800
; #@! TA.AperFunction,Plated,PTH,ComponentDrill
T2C0.950
%
G90
G05
T1
X132.0Y-120.75
X133.75Y-137.0
X137.5Y-94.5
X137.5Y-104.5
X137.5Y-114.25
X137.5Y-120.75
X137.5Y-127.0
X137.5Y-137.0
X137.5Y-143.25
X137.5Y-153.25
X140.0Y-97.0
X140.0Y-102.0
X140.0Y-114.0
X140.0Y-118.25
X140.0Y-129.5
X140.0Y-134.5
X140.0Y-145.75
X140.0Y-150.75
X140.0Y-155.25
X142.5Y-99.5
X142.5Y-115.75
X142.5Y-132.0
X142.5Y-148.25
X142.5Y-155.25
X144.0Y-157.0
X146.0Y-94.5
X146.0Y-127.0
T2
X128.75Y-94.5
X128.75Y-97.0
X128.75Y-99.5
X128.75Y-102.0
X128.75Y-104.5
X128.75Y-110.75
X128.75Y-113.25
X128.75Y-115.75
X128.75Y-118.25
X128.75Y-120.75
X128.75Y-127.0
X128.75Y-129.5
X128.75Y-132.0
X128.75Y-134.5
X128.75Y-137.0
X128.782Y-143.25
X128.782Y-145.75
X128.782Y-148.25
X128.782Y-150.75
X128.782Y-153.25
X133.75Y-107.75
X133.75Y-110.25
X133.75Y-112.75
X134.0Y-160.0
X135.0Y-87.7
X136.5Y-160.0
X136.5Y-165.0
X137.5Y-87.7
X139.0Y-160.0
X139.0Y-165.0
X140.0Y-87.7
X141.5Y-160.0
X141.5Y-165.0
X142.5Y-87.7
X144.0Y-160.0
X146.0Y-107.5
X146.0Y-110.0
X146.0Y-112.5
X150.718Y-94.5
X150.718Y-97.0
X150.718Y-99.5
X150.718Y-102.0
X150.718Y-104.5
X150.718Y-110.75
X150.718Y-113.25
X150.718Y-115.75
X150.718Y-118.25
X150.718Y-120.75
X150.718Y-127.0
X150.718Y-129.5
X150.718Y-132.0
X150.718Y-134.5
X150.718Y-137.0
X150.718Y-143.25
X150.718Y-145.75
X150.718Y-148.25
X150.718Y-150.75
X150.718Y-153.25
T0
M30
