G04 #@! TF.GenerationSoftware,KiCad,Pcbnew,(5.1.5)-3*
G04 #@! TF.CreationDate,2020-03-25T23:07:15+01:00*
G04 #@! TF.ProjectId,carteOdometrie,63617274-654f-4646-9f6d-65747269652e,rev?*
G04 #@! TF.SameCoordinates,Original*
G04 #@! TF.FileFunction,Soldermask,Top*
G04 #@! TF.FilePolarity,Negative*
%FSLAX46Y46*%
G04 Gerber Fmt 4.6, Leading zero omitted, Abs format (unit mm)*
G04 Created by KiCad (PCBNEW (5.1.5)-3) date 2020-03-25 23:07:15*
%MOMM*%
%LPD*%
G04 APERTURE LIST*
%ADD10C,0.100000*%
G04 APERTURE END LIST*
D10*
G36*
X5000000Y22000000D02*
G01*
X-5000000Y22000000D01*
X-5000000Y36000000D01*
X5000000Y36000000D01*
X5000000Y22000000D01*
G37*
X5000000Y22000000D02*
X-5000000Y22000000D01*
X-5000000Y36000000D01*
X5000000Y36000000D01*
X5000000Y22000000D01*
G36*
X37000000Y-5000000D02*
G01*
X22000000Y-5000000D01*
X22000000Y5000000D01*
X37000000Y5000000D01*
X37000000Y-5000000D01*
G37*
X37000000Y-5000000D02*
X22000000Y-5000000D01*
X22000000Y5000000D01*
X37000000Y5000000D01*
X37000000Y-5000000D01*
G36*
X5000000Y-37000000D02*
G01*
X-6000000Y-37000000D01*
X-5000000Y-22000000D01*
X5000000Y-22000000D01*
X5000000Y-37000000D01*
G37*
X5000000Y-37000000D02*
X-6000000Y-37000000D01*
X-5000000Y-22000000D01*
X5000000Y-22000000D01*
X5000000Y-37000000D01*
G36*
X-22000000Y-5000000D02*
G01*
X-37000000Y-5000000D01*
X-37000000Y5000000D01*
X-22000000Y5000000D01*
X-22000000Y-5000000D01*
G37*
X-22000000Y-5000000D02*
X-37000000Y-5000000D01*
X-37000000Y5000000D01*
X-22000000Y5000000D01*
X-22000000Y-5000000D01*
G36*
X375256Y-28391298D02*
G01*
X481579Y-28412447D01*
X782042Y-28536903D01*
X1052451Y-28717585D01*
X1282415Y-28947549D01*
X1463097Y-29217958D01*
X1587553Y-29518421D01*
X1651000Y-29837391D01*
X1651000Y-30162609D01*
X1587553Y-30481579D01*
X1463097Y-30782042D01*
X1282415Y-31052451D01*
X1052451Y-31282415D01*
X782042Y-31463097D01*
X481579Y-31587553D01*
X375256Y-31608702D01*
X162611Y-31651000D01*
X-162611Y-31651000D01*
X-375256Y-31608702D01*
X-481579Y-31587553D01*
X-782042Y-31463097D01*
X-1052451Y-31282415D01*
X-1282415Y-31052451D01*
X-1463097Y-30782042D01*
X-1587553Y-30481579D01*
X-1651000Y-30162609D01*
X-1651000Y-29837391D01*
X-1587553Y-29518421D01*
X-1463097Y-29217958D01*
X-1282415Y-28947549D01*
X-1052451Y-28717585D01*
X-782042Y-28536903D01*
X-481579Y-28412447D01*
X-375256Y-28391298D01*
X-162611Y-28349000D01*
X162611Y-28349000D01*
X375256Y-28391298D01*
G37*
G36*
X1309468Y-19253565D02*
G01*
X1348138Y-19265296D01*
X1383777Y-19284346D01*
X1415017Y-19309983D01*
X1440654Y-19341223D01*
X1459704Y-19376862D01*
X1471435Y-19415532D01*
X1476000Y-19461888D01*
X1476000Y-20538112D01*
X1471435Y-20584468D01*
X1459704Y-20623138D01*
X1440654Y-20658777D01*
X1415017Y-20690017D01*
X1383777Y-20715654D01*
X1348138Y-20734704D01*
X1309468Y-20746435D01*
X1263112Y-20751000D01*
X611888Y-20751000D01*
X565532Y-20746435D01*
X526862Y-20734704D01*
X491223Y-20715654D01*
X459983Y-20690017D01*
X434346Y-20658777D01*
X415296Y-20623138D01*
X403565Y-20584468D01*
X399000Y-20538112D01*
X399000Y-19461888D01*
X403565Y-19415532D01*
X415296Y-19376862D01*
X434346Y-19341223D01*
X459983Y-19309983D01*
X491223Y-19284346D01*
X526862Y-19265296D01*
X565532Y-19253565D01*
X611888Y-19249000D01*
X1263112Y-19249000D01*
X1309468Y-19253565D01*
G37*
G36*
X-565532Y-19253565D02*
G01*
X-526862Y-19265296D01*
X-491223Y-19284346D01*
X-459983Y-19309983D01*
X-434346Y-19341223D01*
X-415296Y-19376862D01*
X-403565Y-19415532D01*
X-399000Y-19461888D01*
X-399000Y-20538112D01*
X-403565Y-20584468D01*
X-415296Y-20623138D01*
X-434346Y-20658777D01*
X-459983Y-20690017D01*
X-491223Y-20715654D01*
X-526862Y-20734704D01*
X-565532Y-20746435D01*
X-611888Y-20751000D01*
X-1263112Y-20751000D01*
X-1309468Y-20746435D01*
X-1348138Y-20734704D01*
X-1383777Y-20715654D01*
X-1415017Y-20690017D01*
X-1440654Y-20658777D01*
X-1459704Y-20623138D01*
X-1471435Y-20584468D01*
X-1476000Y-20538112D01*
X-1476000Y-19461888D01*
X-1471435Y-19415532D01*
X-1459704Y-19376862D01*
X-1440654Y-19341223D01*
X-1415017Y-19309983D01*
X-1383777Y-19284346D01*
X-1348138Y-19265296D01*
X-1309468Y-19253565D01*
X-1263112Y-19249000D01*
X-611888Y-19249000D01*
X-565532Y-19253565D01*
G37*
G36*
X-5144409Y-18147085D02*
G01*
X-5110431Y-18157393D01*
X-5079110Y-18174134D01*
X-5051661Y-18196661D01*
X-5029134Y-18224110D01*
X-5012393Y-18255431D01*
X-5002085Y-18289409D01*
X-4998000Y-18330890D01*
X-4998000Y-19007110D01*
X-5002085Y-19048591D01*
X-5012393Y-19082569D01*
X-5029134Y-19113890D01*
X-5051661Y-19141339D01*
X-5079110Y-19163866D01*
X-5110431Y-19180607D01*
X-5144409Y-19190915D01*
X-5185890Y-19195000D01*
X-5787110Y-19195000D01*
X-5828591Y-19190915D01*
X-5862569Y-19180607D01*
X-5893890Y-19163866D01*
X-5921339Y-19141339D01*
X-5943866Y-19113890D01*
X-5960607Y-19082569D01*
X-5970915Y-19048591D01*
X-5975000Y-19007110D01*
X-5975000Y-18330890D01*
X-5970915Y-18289409D01*
X-5960607Y-18255431D01*
X-5943866Y-18224110D01*
X-5921339Y-18196661D01*
X-5893890Y-18174134D01*
X-5862569Y-18157393D01*
X-5828591Y-18147085D01*
X-5787110Y-18143000D01*
X-5185890Y-18143000D01*
X-5144409Y-18147085D01*
G37*
G36*
X-3569409Y-18147085D02*
G01*
X-3535431Y-18157393D01*
X-3504110Y-18174134D01*
X-3476661Y-18196661D01*
X-3454134Y-18224110D01*
X-3437393Y-18255431D01*
X-3427085Y-18289409D01*
X-3423000Y-18330890D01*
X-3423000Y-19007110D01*
X-3427085Y-19048591D01*
X-3437393Y-19082569D01*
X-3454134Y-19113890D01*
X-3476661Y-19141339D01*
X-3504110Y-19163866D01*
X-3535431Y-19180607D01*
X-3569409Y-19190915D01*
X-3610890Y-19195000D01*
X-4212110Y-19195000D01*
X-4253591Y-19190915D01*
X-4287569Y-19180607D01*
X-4318890Y-19163866D01*
X-4346339Y-19141339D01*
X-4368866Y-19113890D01*
X-4385607Y-19082569D01*
X-4395915Y-19048591D01*
X-4400000Y-19007110D01*
X-4400000Y-18330890D01*
X-4395915Y-18289409D01*
X-4385607Y-18255431D01*
X-4368866Y-18224110D01*
X-4346339Y-18196661D01*
X-4318890Y-18174134D01*
X-4287569Y-18157393D01*
X-4253591Y-18147085D01*
X-4212110Y-18143000D01*
X-3610890Y-18143000D01*
X-3569409Y-18147085D01*
G37*
G36*
X9256631Y-16632419D02*
G01*
X9294456Y-16646655D01*
X9328772Y-16667995D01*
X9358270Y-16695623D01*
X9385400Y-16733481D01*
X9923512Y-17665519D01*
X9942733Y-17707941D01*
X9951912Y-17747305D01*
X9953234Y-17787693D01*
X9946652Y-17827560D01*
X9932416Y-17865385D01*
X9911076Y-17899701D01*
X9883450Y-17929198D01*
X9845583Y-17956333D01*
X9563601Y-18119135D01*
X9330424Y-18253760D01*
X9330420Y-18253762D01*
X9281619Y-18281937D01*
X9239187Y-18301163D01*
X9199826Y-18310341D01*
X9159438Y-18311663D01*
X9119571Y-18305081D01*
X9081746Y-18290845D01*
X9047430Y-18269505D01*
X9017932Y-18241877D01*
X8990802Y-18204019D01*
X8452690Y-17271981D01*
X8433469Y-17229559D01*
X8424290Y-17190195D01*
X8422968Y-17149807D01*
X8429550Y-17109940D01*
X8443786Y-17072115D01*
X8465126Y-17037799D01*
X8492752Y-17008302D01*
X8530619Y-16981167D01*
X8949393Y-16739388D01*
X9045778Y-16683740D01*
X9045782Y-16683738D01*
X9094583Y-16655563D01*
X9137015Y-16636337D01*
X9176376Y-16627159D01*
X9216764Y-16625837D01*
X9256631Y-16632419D01*
G37*
G36*
X-9176376Y-16627159D02*
G01*
X-9137015Y-16636337D01*
X-9094583Y-16655563D01*
X-9045782Y-16683738D01*
X-9045778Y-16683740D01*
X-8949393Y-16739388D01*
X-8530619Y-16981167D01*
X-8492752Y-17008302D01*
X-8465126Y-17037799D01*
X-8443786Y-17072115D01*
X-8429550Y-17109940D01*
X-8422968Y-17149807D01*
X-8424290Y-17190195D01*
X-8433469Y-17229559D01*
X-8452690Y-17271981D01*
X-8990802Y-18204019D01*
X-9017932Y-18241877D01*
X-9047430Y-18269505D01*
X-9081746Y-18290845D01*
X-9119571Y-18305081D01*
X-9159438Y-18311663D01*
X-9199826Y-18310341D01*
X-9239187Y-18301163D01*
X-9281619Y-18281937D01*
X-9330420Y-18253762D01*
X-9330424Y-18253760D01*
X-9563601Y-18119135D01*
X-9845583Y-17956333D01*
X-9883450Y-17929198D01*
X-9911076Y-17899701D01*
X-9932416Y-17865385D01*
X-9946652Y-17827560D01*
X-9953234Y-17787693D01*
X-9951912Y-17747305D01*
X-9942733Y-17707941D01*
X-9923512Y-17665519D01*
X-9385400Y-16733481D01*
X-9358270Y-16695623D01*
X-9328772Y-16667995D01*
X-9294456Y-16646655D01*
X-9256631Y-16632419D01*
X-9216764Y-16625837D01*
X-9176376Y-16627159D01*
G37*
G36*
X-3198000Y-17403000D02*
G01*
X-4200000Y-17403000D01*
X-4200000Y-16501000D01*
X-3198000Y-16501000D01*
X-3198000Y-17403000D01*
G37*
G36*
X-10800174Y-15689659D02*
G01*
X-10760813Y-15698837D01*
X-10718381Y-15718063D01*
X-10669580Y-15746238D01*
X-10669576Y-15746240D01*
X-10573191Y-15801888D01*
X-10154417Y-16043667D01*
X-10116550Y-16070802D01*
X-10088924Y-16100299D01*
X-10067584Y-16134615D01*
X-10053348Y-16172440D01*
X-10046766Y-16212307D01*
X-10048088Y-16252695D01*
X-10057267Y-16292059D01*
X-10076488Y-16334481D01*
X-10614600Y-17266519D01*
X-10641730Y-17304377D01*
X-10671228Y-17332005D01*
X-10705544Y-17353345D01*
X-10743369Y-17367581D01*
X-10783236Y-17374163D01*
X-10823624Y-17372841D01*
X-10862985Y-17363663D01*
X-10905417Y-17344437D01*
X-10954218Y-17316262D01*
X-10954222Y-17316260D01*
X-11300251Y-17116480D01*
X-11469381Y-17018833D01*
X-11507248Y-16991698D01*
X-11534874Y-16962201D01*
X-11556214Y-16927885D01*
X-11570450Y-16890060D01*
X-11577032Y-16850193D01*
X-11575710Y-16809805D01*
X-11566531Y-16770441D01*
X-11547310Y-16728019D01*
X-11009198Y-15795981D01*
X-10982068Y-15758123D01*
X-10952570Y-15730495D01*
X-10918254Y-15709155D01*
X-10880429Y-15694919D01*
X-10840562Y-15688337D01*
X-10800174Y-15689659D01*
G37*
G36*
X10880429Y-15694919D02*
G01*
X10918254Y-15709155D01*
X10952570Y-15730495D01*
X10982068Y-15758123D01*
X11009198Y-15795981D01*
X11547310Y-16728019D01*
X11566531Y-16770441D01*
X11575710Y-16809805D01*
X11577032Y-16850193D01*
X11570450Y-16890060D01*
X11556214Y-16927885D01*
X11534874Y-16962201D01*
X11507248Y-16991698D01*
X11469381Y-17018833D01*
X11300251Y-17116480D01*
X10954222Y-17316260D01*
X10954218Y-17316262D01*
X10905417Y-17344437D01*
X10862985Y-17363663D01*
X10823624Y-17372841D01*
X10783236Y-17374163D01*
X10743369Y-17367581D01*
X10705544Y-17353345D01*
X10671228Y-17332005D01*
X10641730Y-17304377D01*
X10614600Y-17266519D01*
X10076488Y-16334481D01*
X10057267Y-16292059D01*
X10048088Y-16252695D01*
X10046766Y-16212307D01*
X10053348Y-16172440D01*
X10067584Y-16134615D01*
X10088924Y-16100299D01*
X10116550Y-16070802D01*
X10154417Y-16043667D01*
X10573191Y-15801888D01*
X10669576Y-15746240D01*
X10669580Y-15746238D01*
X10718381Y-15718063D01*
X10760813Y-15698837D01*
X10800174Y-15689659D01*
X10840562Y-15688337D01*
X10880429Y-15694919D01*
G37*
G36*
X-2004062Y-16524716D02*
G01*
X-1983443Y-16530971D01*
X-1964447Y-16541124D01*
X-1947792Y-16554792D01*
X-1934124Y-16571447D01*
X-1923971Y-16590443D01*
X-1917716Y-16611062D01*
X-1915000Y-16638640D01*
X-1915000Y-17097360D01*
X-1917716Y-17124938D01*
X-1923971Y-17145557D01*
X-1934124Y-17164553D01*
X-1947792Y-17181208D01*
X-1964447Y-17194876D01*
X-1983443Y-17205029D01*
X-2004062Y-17211284D01*
X-2031640Y-17214000D01*
X-2540360Y-17214000D01*
X-2567938Y-17211284D01*
X-2588557Y-17205029D01*
X-2607553Y-17194876D01*
X-2624208Y-17181208D01*
X-2637876Y-17164553D01*
X-2648029Y-17145557D01*
X-2654284Y-17124938D01*
X-2657000Y-17097360D01*
X-2657000Y-16638640D01*
X-2654284Y-16611062D01*
X-2648029Y-16590443D01*
X-2637876Y-16571447D01*
X-2624208Y-16554792D01*
X-2607553Y-16541124D01*
X-2588557Y-16530971D01*
X-2567938Y-16524716D01*
X-2540360Y-16522000D01*
X-2031640Y-16522000D01*
X-2004062Y-16524716D01*
G37*
G36*
X-861062Y-16524716D02*
G01*
X-840443Y-16530971D01*
X-821447Y-16541124D01*
X-804792Y-16554792D01*
X-791124Y-16571447D01*
X-780971Y-16590443D01*
X-774716Y-16611062D01*
X-772000Y-16638640D01*
X-772000Y-17097360D01*
X-774716Y-17124938D01*
X-780971Y-17145557D01*
X-791124Y-17164553D01*
X-804792Y-17181208D01*
X-821447Y-17194876D01*
X-840443Y-17205029D01*
X-861062Y-17211284D01*
X-888640Y-17214000D01*
X-1397360Y-17214000D01*
X-1424938Y-17211284D01*
X-1445557Y-17205029D01*
X-1464553Y-17194876D01*
X-1481208Y-17181208D01*
X-1494876Y-17164553D01*
X-1505029Y-17145557D01*
X-1511284Y-17124938D01*
X-1514000Y-17097360D01*
X-1514000Y-16638640D01*
X-1511284Y-16611062D01*
X-1505029Y-16590443D01*
X-1494876Y-16571447D01*
X-1481208Y-16554792D01*
X-1464553Y-16541124D01*
X-1445557Y-16530971D01*
X-1424938Y-16524716D01*
X-1397360Y-16522000D01*
X-888640Y-16522000D01*
X-861062Y-16524716D01*
G37*
G36*
X-5198000Y-16453000D02*
G01*
X-6200000Y-16453000D01*
X-6200000Y-15551000D01*
X-5198000Y-15551000D01*
X-5198000Y-16453000D01*
G37*
G36*
X-861062Y-15554716D02*
G01*
X-840443Y-15560971D01*
X-821447Y-15571124D01*
X-804792Y-15584792D01*
X-791124Y-15601447D01*
X-780971Y-15620443D01*
X-774716Y-15641062D01*
X-772000Y-15668640D01*
X-772000Y-16127360D01*
X-774716Y-16154938D01*
X-780971Y-16175557D01*
X-791124Y-16194553D01*
X-804792Y-16211208D01*
X-821447Y-16224876D01*
X-840443Y-16235029D01*
X-861062Y-16241284D01*
X-888640Y-16244000D01*
X-1397360Y-16244000D01*
X-1424938Y-16241284D01*
X-1445557Y-16235029D01*
X-1464553Y-16224876D01*
X-1481208Y-16211208D01*
X-1494876Y-16194553D01*
X-1505029Y-16175557D01*
X-1511284Y-16154938D01*
X-1514000Y-16127360D01*
X-1514000Y-15668640D01*
X-1511284Y-15641062D01*
X-1505029Y-15620443D01*
X-1494876Y-15601447D01*
X-1481208Y-15584792D01*
X-1464553Y-15571124D01*
X-1445557Y-15560971D01*
X-1424938Y-15554716D01*
X-1397360Y-15552000D01*
X-888640Y-15552000D01*
X-861062Y-15554716D01*
G37*
G36*
X-2004062Y-15554716D02*
G01*
X-1983443Y-15560971D01*
X-1964447Y-15571124D01*
X-1947792Y-15584792D01*
X-1934124Y-15601447D01*
X-1923971Y-15620443D01*
X-1917716Y-15641062D01*
X-1915000Y-15668640D01*
X-1915000Y-16127360D01*
X-1917716Y-16154938D01*
X-1923971Y-16175557D01*
X-1934124Y-16194553D01*
X-1947792Y-16211208D01*
X-1964447Y-16224876D01*
X-1983443Y-16235029D01*
X-2004062Y-16241284D01*
X-2031640Y-16244000D01*
X-2540360Y-16244000D01*
X-2567938Y-16241284D01*
X-2588557Y-16235029D01*
X-2607553Y-16224876D01*
X-2624208Y-16211208D01*
X-2637876Y-16194553D01*
X-2648029Y-16175557D01*
X-2654284Y-16154938D01*
X-2657000Y-16127360D01*
X-2657000Y-15668640D01*
X-2654284Y-15641062D01*
X-2648029Y-15620443D01*
X-2637876Y-15601447D01*
X-2624208Y-15584792D01*
X-2607553Y-15571124D01*
X-2588557Y-15560971D01*
X-2567938Y-15554716D01*
X-2540360Y-15552000D01*
X-2031640Y-15552000D01*
X-2004062Y-15554716D01*
G37*
G36*
X-3198000Y-15503000D02*
G01*
X-4200000Y-15503000D01*
X-4200000Y-14601000D01*
X-3198000Y-14601000D01*
X-3198000Y-15503000D01*
G37*
G36*
X-5264532Y-12334565D02*
G01*
X-5225862Y-12346296D01*
X-5190223Y-12365346D01*
X-5158983Y-12390983D01*
X-5133346Y-12422223D01*
X-5114296Y-12457862D01*
X-5102565Y-12496532D01*
X-5098000Y-12542888D01*
X-5098000Y-13619112D01*
X-5102565Y-13665468D01*
X-5114296Y-13704138D01*
X-5133346Y-13739777D01*
X-5158983Y-13771017D01*
X-5190223Y-13796654D01*
X-5225862Y-13815704D01*
X-5264532Y-13827435D01*
X-5310888Y-13832000D01*
X-5962112Y-13832000D01*
X-6008468Y-13827435D01*
X-6047138Y-13815704D01*
X-6082777Y-13796654D01*
X-6114017Y-13771017D01*
X-6139654Y-13739777D01*
X-6158704Y-13704138D01*
X-6170435Y-13665468D01*
X-6175000Y-13619112D01*
X-6175000Y-12542888D01*
X-6170435Y-12496532D01*
X-6158704Y-12457862D01*
X-6139654Y-12422223D01*
X-6114017Y-12390983D01*
X-6082777Y-12365346D01*
X-6047138Y-12346296D01*
X-6008468Y-12334565D01*
X-5962112Y-12330000D01*
X-5310888Y-12330000D01*
X-5264532Y-12334565D01*
G37*
G36*
X-3389532Y-12334565D02*
G01*
X-3350862Y-12346296D01*
X-3315223Y-12365346D01*
X-3283983Y-12390983D01*
X-3258346Y-12422223D01*
X-3239296Y-12457862D01*
X-3227565Y-12496532D01*
X-3223000Y-12542888D01*
X-3223000Y-13619112D01*
X-3227565Y-13665468D01*
X-3239296Y-13704138D01*
X-3258346Y-13739777D01*
X-3283983Y-13771017D01*
X-3315223Y-13796654D01*
X-3350862Y-13815704D01*
X-3389532Y-13827435D01*
X-3435888Y-13832000D01*
X-4087112Y-13832000D01*
X-4133468Y-13827435D01*
X-4172138Y-13815704D01*
X-4207777Y-13796654D01*
X-4239017Y-13771017D01*
X-4264654Y-13739777D01*
X-4283704Y-13704138D01*
X-4295435Y-13665468D01*
X-4300000Y-13619112D01*
X-4300000Y-12542888D01*
X-4295435Y-12496532D01*
X-4283704Y-12457862D01*
X-4264654Y-12422223D01*
X-4239017Y-12390983D01*
X-4207777Y-12365346D01*
X-4172138Y-12346296D01*
X-4133468Y-12334565D01*
X-4087112Y-12330000D01*
X-3435888Y-12330000D01*
X-3389532Y-12334565D01*
G37*
G36*
X-8390000Y-13732000D02*
G01*
X-9392000Y-13732000D01*
X-9392000Y-12430000D01*
X-8390000Y-12430000D01*
X-8390000Y-13732000D01*
G37*
G36*
X-11690000Y-13732000D02*
G01*
X-12692000Y-13732000D01*
X-12692000Y-12430000D01*
X-11690000Y-12430000D01*
X-11690000Y-13732000D01*
G37*
G36*
X4196928Y-10087764D02*
G01*
X4218009Y-10094160D01*
X4237445Y-10104548D01*
X4254476Y-10118524D01*
X4268452Y-10135555D01*
X4278840Y-10154991D01*
X4285236Y-10176072D01*
X4288000Y-10204140D01*
X4288000Y-12017860D01*
X4285236Y-12045928D01*
X4278840Y-12067009D01*
X4268452Y-12086445D01*
X4254476Y-12103476D01*
X4237445Y-12117452D01*
X4218009Y-12127840D01*
X4196928Y-12134236D01*
X4168860Y-12137000D01*
X3705140Y-12137000D01*
X3677072Y-12134236D01*
X3655991Y-12127840D01*
X3636555Y-12117452D01*
X3619524Y-12103476D01*
X3605548Y-12086445D01*
X3595160Y-12067009D01*
X3588764Y-12045928D01*
X3586000Y-12017860D01*
X3586000Y-10204140D01*
X3588764Y-10176072D01*
X3595160Y-10154991D01*
X3605548Y-10135555D01*
X3619524Y-10118524D01*
X3636555Y-10104548D01*
X3655991Y-10094160D01*
X3677072Y-10087764D01*
X3705140Y-10085000D01*
X4168860Y-10085000D01*
X4196928Y-10087764D01*
G37*
G36*
X386928Y-10087764D02*
G01*
X408009Y-10094160D01*
X427445Y-10104548D01*
X444476Y-10118524D01*
X458452Y-10135555D01*
X468840Y-10154991D01*
X475236Y-10176072D01*
X478000Y-10204140D01*
X478000Y-12017860D01*
X475236Y-12045928D01*
X468840Y-12067009D01*
X458452Y-12086445D01*
X444476Y-12103476D01*
X427445Y-12117452D01*
X408009Y-12127840D01*
X386928Y-12134236D01*
X358860Y-12137000D01*
X-104860Y-12137000D01*
X-132928Y-12134236D01*
X-154009Y-12127840D01*
X-173445Y-12117452D01*
X-190476Y-12103476D01*
X-204452Y-12086445D01*
X-214840Y-12067009D01*
X-221236Y-12045928D01*
X-224000Y-12017860D01*
X-224000Y-10204140D01*
X-221236Y-10176072D01*
X-214840Y-10154991D01*
X-204452Y-10135555D01*
X-190476Y-10118524D01*
X-173445Y-10104548D01*
X-154009Y-10094160D01*
X-132928Y-10087764D01*
X-104860Y-10085000D01*
X358860Y-10085000D01*
X386928Y-10087764D01*
G37*
G36*
X2926928Y-10087764D02*
G01*
X2948009Y-10094160D01*
X2967445Y-10104548D01*
X2984476Y-10118524D01*
X2998452Y-10135555D01*
X3008840Y-10154991D01*
X3015236Y-10176072D01*
X3018000Y-10204140D01*
X3018000Y-12017860D01*
X3015236Y-12045928D01*
X3008840Y-12067009D01*
X2998452Y-12086445D01*
X2984476Y-12103476D01*
X2967445Y-12117452D01*
X2948009Y-12127840D01*
X2926928Y-12134236D01*
X2898860Y-12137000D01*
X2435140Y-12137000D01*
X2407072Y-12134236D01*
X2385991Y-12127840D01*
X2366555Y-12117452D01*
X2349524Y-12103476D01*
X2335548Y-12086445D01*
X2325160Y-12067009D01*
X2318764Y-12045928D01*
X2316000Y-12017860D01*
X2316000Y-10204140D01*
X2318764Y-10176072D01*
X2325160Y-10154991D01*
X2335548Y-10135555D01*
X2349524Y-10118524D01*
X2366555Y-10104548D01*
X2385991Y-10094160D01*
X2407072Y-10087764D01*
X2435140Y-10085000D01*
X2898860Y-10085000D01*
X2926928Y-10087764D01*
G37*
G36*
X1656928Y-10087764D02*
G01*
X1678009Y-10094160D01*
X1697445Y-10104548D01*
X1714476Y-10118524D01*
X1728452Y-10135555D01*
X1738840Y-10154991D01*
X1745236Y-10176072D01*
X1748000Y-10204140D01*
X1748000Y-12017860D01*
X1745236Y-12045928D01*
X1738840Y-12067009D01*
X1728452Y-12086445D01*
X1714476Y-12103476D01*
X1697445Y-12117452D01*
X1678009Y-12127840D01*
X1656928Y-12134236D01*
X1628860Y-12137000D01*
X1165140Y-12137000D01*
X1137072Y-12134236D01*
X1115991Y-12127840D01*
X1096555Y-12117452D01*
X1079524Y-12103476D01*
X1065548Y-12086445D01*
X1055160Y-12067009D01*
X1048764Y-12045928D01*
X1046000Y-12017860D01*
X1046000Y-10204140D01*
X1048764Y-10176072D01*
X1055160Y-10154991D01*
X1065548Y-10135555D01*
X1079524Y-10118524D01*
X1096555Y-10104548D01*
X1115991Y-10094160D01*
X1137072Y-10087764D01*
X1165140Y-10085000D01*
X1628860Y-10085000D01*
X1656928Y-10087764D01*
G37*
G36*
X-16444440Y-10467348D02*
G01*
X-16406615Y-10481584D01*
X-16372299Y-10502924D01*
X-16342802Y-10530550D01*
X-16315667Y-10568417D01*
X-16189586Y-10786796D01*
X-16018240Y-11083576D01*
X-16018238Y-11083580D01*
X-15990063Y-11132381D01*
X-15970837Y-11174813D01*
X-15961659Y-11214174D01*
X-15960337Y-11254562D01*
X-15966919Y-11294429D01*
X-15981155Y-11332254D01*
X-16002495Y-11366570D01*
X-16030123Y-11396068D01*
X-16067981Y-11423198D01*
X-17000019Y-11961310D01*
X-17042441Y-11980531D01*
X-17081805Y-11989710D01*
X-17122193Y-11991032D01*
X-17162060Y-11984450D01*
X-17199885Y-11970214D01*
X-17234201Y-11948874D01*
X-17263698Y-11921248D01*
X-17290833Y-11883381D01*
X-17492645Y-11533831D01*
X-17588260Y-11368222D01*
X-17588262Y-11368218D01*
X-17616437Y-11319417D01*
X-17635663Y-11276985D01*
X-17644841Y-11237624D01*
X-17646163Y-11197236D01*
X-17639581Y-11157369D01*
X-17625345Y-11119544D01*
X-17604005Y-11085228D01*
X-17576377Y-11055730D01*
X-17538519Y-11028600D01*
X-16606481Y-10490488D01*
X-16564059Y-10471267D01*
X-16524695Y-10462088D01*
X-16484307Y-10460766D01*
X-16444440Y-10467348D01*
G37*
G36*
X16252695Y-10048088D02*
G01*
X16292059Y-10057267D01*
X16334481Y-10076488D01*
X17266519Y-10614600D01*
X17304377Y-10641730D01*
X17332005Y-10671228D01*
X17353345Y-10705544D01*
X17367581Y-10743369D01*
X17374163Y-10783236D01*
X17372841Y-10823624D01*
X17363663Y-10862985D01*
X17344437Y-10905417D01*
X17316262Y-10954218D01*
X17316260Y-10954222D01*
X17223717Y-11114511D01*
X17018833Y-11469381D01*
X16991698Y-11507248D01*
X16962201Y-11534874D01*
X16927885Y-11556214D01*
X16890060Y-11570450D01*
X16850193Y-11577032D01*
X16809805Y-11575710D01*
X16770441Y-11566531D01*
X16728019Y-11547310D01*
X15795981Y-11009198D01*
X15758123Y-10982068D01*
X15730495Y-10952570D01*
X15709155Y-10918254D01*
X15694919Y-10880429D01*
X15688337Y-10840562D01*
X15689659Y-10800174D01*
X15698837Y-10760813D01*
X15718063Y-10718381D01*
X15746238Y-10669580D01*
X15746240Y-10669576D01*
X15905905Y-10393029D01*
X16043667Y-10154417D01*
X16070802Y-10116550D01*
X16100299Y-10088924D01*
X16134615Y-10067584D01*
X16172440Y-10053348D01*
X16212307Y-10046766D01*
X16252695Y-10048088D01*
G37*
G36*
X-5608062Y-10807716D02*
G01*
X-5587443Y-10813971D01*
X-5568447Y-10824124D01*
X-5551792Y-10837792D01*
X-5538124Y-10854447D01*
X-5527971Y-10873443D01*
X-5521716Y-10894062D01*
X-5519000Y-10921640D01*
X-5519000Y-11430360D01*
X-5521716Y-11457938D01*
X-5527971Y-11478557D01*
X-5538124Y-11497553D01*
X-5551792Y-11514208D01*
X-5568447Y-11527876D01*
X-5587443Y-11538029D01*
X-5608062Y-11544284D01*
X-5635640Y-11547000D01*
X-6094360Y-11547000D01*
X-6121938Y-11544284D01*
X-6142557Y-11538029D01*
X-6161553Y-11527876D01*
X-6178208Y-11514208D01*
X-6191876Y-11497553D01*
X-6202029Y-11478557D01*
X-6208284Y-11457938D01*
X-6211000Y-11430360D01*
X-6211000Y-10921640D01*
X-6208284Y-10894062D01*
X-6202029Y-10873443D01*
X-6191876Y-10854447D01*
X-6178208Y-10837792D01*
X-6161553Y-10824124D01*
X-6142557Y-10813971D01*
X-6121938Y-10807716D01*
X-6094360Y-10805000D01*
X-5635640Y-10805000D01*
X-5608062Y-10807716D01*
G37*
G36*
X-8610062Y-10807716D02*
G01*
X-8589443Y-10813971D01*
X-8570447Y-10824124D01*
X-8553792Y-10837792D01*
X-8540124Y-10854447D01*
X-8529971Y-10873443D01*
X-8523716Y-10894062D01*
X-8521000Y-10921640D01*
X-8521000Y-11430360D01*
X-8523716Y-11457938D01*
X-8529971Y-11478557D01*
X-8540124Y-11497553D01*
X-8553792Y-11514208D01*
X-8570447Y-11527876D01*
X-8589443Y-11538029D01*
X-8610062Y-11544284D01*
X-8637640Y-11547000D01*
X-9096360Y-11547000D01*
X-9123938Y-11544284D01*
X-9144557Y-11538029D01*
X-9163553Y-11527876D01*
X-9180208Y-11514208D01*
X-9193876Y-11497553D01*
X-9204029Y-11478557D01*
X-9210284Y-11457938D01*
X-9213000Y-11430360D01*
X-9213000Y-10921640D01*
X-9210284Y-10894062D01*
X-9204029Y-10873443D01*
X-9193876Y-10854447D01*
X-9180208Y-10837792D01*
X-9163553Y-10824124D01*
X-9144557Y-10813971D01*
X-9123938Y-10807716D01*
X-9096360Y-10805000D01*
X-8637640Y-10805000D01*
X-8610062Y-10807716D01*
G37*
G36*
X-6578062Y-10807716D02*
G01*
X-6557443Y-10813971D01*
X-6538447Y-10824124D01*
X-6521792Y-10837792D01*
X-6508124Y-10854447D01*
X-6497971Y-10873443D01*
X-6491716Y-10894062D01*
X-6489000Y-10921640D01*
X-6489000Y-11430360D01*
X-6491716Y-11457938D01*
X-6497971Y-11478557D01*
X-6508124Y-11497553D01*
X-6521792Y-11514208D01*
X-6538447Y-11527876D01*
X-6557443Y-11538029D01*
X-6578062Y-11544284D01*
X-6605640Y-11547000D01*
X-7064360Y-11547000D01*
X-7091938Y-11544284D01*
X-7112557Y-11538029D01*
X-7131553Y-11527876D01*
X-7148208Y-11514208D01*
X-7161876Y-11497553D01*
X-7172029Y-11478557D01*
X-7178284Y-11457938D01*
X-7181000Y-11430360D01*
X-7181000Y-10921640D01*
X-7178284Y-10894062D01*
X-7172029Y-10873443D01*
X-7161876Y-10854447D01*
X-7148208Y-10837792D01*
X-7131553Y-10824124D01*
X-7112557Y-10813971D01*
X-7091938Y-10807716D01*
X-7064360Y-10805000D01*
X-6605640Y-10805000D01*
X-6578062Y-10807716D01*
G37*
G36*
X-7640062Y-10807716D02*
G01*
X-7619443Y-10813971D01*
X-7600447Y-10824124D01*
X-7583792Y-10837792D01*
X-7570124Y-10854447D01*
X-7559971Y-10873443D01*
X-7553716Y-10894062D01*
X-7551000Y-10921640D01*
X-7551000Y-11430360D01*
X-7553716Y-11457938D01*
X-7559971Y-11478557D01*
X-7570124Y-11497553D01*
X-7583792Y-11514208D01*
X-7600447Y-11527876D01*
X-7619443Y-11538029D01*
X-7640062Y-11544284D01*
X-7667640Y-11547000D01*
X-8126360Y-11547000D01*
X-8153938Y-11544284D01*
X-8174557Y-11538029D01*
X-8193553Y-11527876D01*
X-8210208Y-11514208D01*
X-8223876Y-11497553D01*
X-8234029Y-11478557D01*
X-8240284Y-11457938D01*
X-8243000Y-11430360D01*
X-8243000Y-10921640D01*
X-8240284Y-10894062D01*
X-8234029Y-10873443D01*
X-8223876Y-10854447D01*
X-8210208Y-10837792D01*
X-8193553Y-10824124D01*
X-8174557Y-10813971D01*
X-8153938Y-10807716D01*
X-8126360Y-10805000D01*
X-7667640Y-10805000D01*
X-7640062Y-10807716D01*
G37*
G36*
X-3528062Y-10682716D02*
G01*
X-3507443Y-10688971D01*
X-3488447Y-10699124D01*
X-3471792Y-10712792D01*
X-3458124Y-10729447D01*
X-3447971Y-10748443D01*
X-3441716Y-10769062D01*
X-3439000Y-10796640D01*
X-3439000Y-11255360D01*
X-3441716Y-11282938D01*
X-3447971Y-11303557D01*
X-3458124Y-11322553D01*
X-3471792Y-11339208D01*
X-3488447Y-11352876D01*
X-3507443Y-11363029D01*
X-3528062Y-11369284D01*
X-3555640Y-11372000D01*
X-4064360Y-11372000D01*
X-4091938Y-11369284D01*
X-4112557Y-11363029D01*
X-4131553Y-11352876D01*
X-4148208Y-11339208D01*
X-4161876Y-11322553D01*
X-4172029Y-11303557D01*
X-4178284Y-11282938D01*
X-4181000Y-11255360D01*
X-4181000Y-10796640D01*
X-4178284Y-10769062D01*
X-4172029Y-10748443D01*
X-4161876Y-10729447D01*
X-4148208Y-10712792D01*
X-4131553Y-10699124D01*
X-4112557Y-10688971D01*
X-4091938Y-10682716D01*
X-4064360Y-10680000D01*
X-3555640Y-10680000D01*
X-3528062Y-10682716D01*
G37*
G36*
X-7640062Y-9791716D02*
G01*
X-7619443Y-9797971D01*
X-7600447Y-9808124D01*
X-7583792Y-9821792D01*
X-7570124Y-9838447D01*
X-7559971Y-9857443D01*
X-7553716Y-9878062D01*
X-7551000Y-9905640D01*
X-7551000Y-10414360D01*
X-7553716Y-10441938D01*
X-7559971Y-10462557D01*
X-7570124Y-10481553D01*
X-7583792Y-10498208D01*
X-7600447Y-10511876D01*
X-7619443Y-10522029D01*
X-7640062Y-10528284D01*
X-7667640Y-10531000D01*
X-8126360Y-10531000D01*
X-8153938Y-10528284D01*
X-8174557Y-10522029D01*
X-8193553Y-10511876D01*
X-8210208Y-10498208D01*
X-8223876Y-10481553D01*
X-8234029Y-10462557D01*
X-8240284Y-10441938D01*
X-8243000Y-10414360D01*
X-8243000Y-9905640D01*
X-8240284Y-9878062D01*
X-8234029Y-9857443D01*
X-8223876Y-9838447D01*
X-8210208Y-9821792D01*
X-8193553Y-9808124D01*
X-8174557Y-9797971D01*
X-8153938Y-9791716D01*
X-8126360Y-9789000D01*
X-7667640Y-9789000D01*
X-7640062Y-9791716D01*
G37*
G36*
X-8610062Y-9791716D02*
G01*
X-8589443Y-9797971D01*
X-8570447Y-9808124D01*
X-8553792Y-9821792D01*
X-8540124Y-9838447D01*
X-8529971Y-9857443D01*
X-8523716Y-9878062D01*
X-8521000Y-9905640D01*
X-8521000Y-10414360D01*
X-8523716Y-10441938D01*
X-8529971Y-10462557D01*
X-8540124Y-10481553D01*
X-8553792Y-10498208D01*
X-8570447Y-10511876D01*
X-8589443Y-10522029D01*
X-8610062Y-10528284D01*
X-8637640Y-10531000D01*
X-9096360Y-10531000D01*
X-9123938Y-10528284D01*
X-9144557Y-10522029D01*
X-9163553Y-10511876D01*
X-9180208Y-10498208D01*
X-9193876Y-10481553D01*
X-9204029Y-10462557D01*
X-9210284Y-10441938D01*
X-9213000Y-10414360D01*
X-9213000Y-9905640D01*
X-9210284Y-9878062D01*
X-9204029Y-9857443D01*
X-9193876Y-9838447D01*
X-9180208Y-9821792D01*
X-9163553Y-9808124D01*
X-9144557Y-9797971D01*
X-9123938Y-9791716D01*
X-9096360Y-9789000D01*
X-8637640Y-9789000D01*
X-8610062Y-9791716D01*
G37*
G36*
X-3528062Y-9712716D02*
G01*
X-3507443Y-9718971D01*
X-3488447Y-9729124D01*
X-3471792Y-9742792D01*
X-3458124Y-9759447D01*
X-3447971Y-9778443D01*
X-3441716Y-9799062D01*
X-3439000Y-9826640D01*
X-3439000Y-10285360D01*
X-3441716Y-10312938D01*
X-3447971Y-10333557D01*
X-3458124Y-10352553D01*
X-3471792Y-10369208D01*
X-3488447Y-10382876D01*
X-3507443Y-10393029D01*
X-3528062Y-10399284D01*
X-3555640Y-10402000D01*
X-4064360Y-10402000D01*
X-4091938Y-10399284D01*
X-4112557Y-10393029D01*
X-4131553Y-10382876D01*
X-4148208Y-10369208D01*
X-4161876Y-10352553D01*
X-4172029Y-10333557D01*
X-4178284Y-10312938D01*
X-4181000Y-10285360D01*
X-4181000Y-9826640D01*
X-4178284Y-9799062D01*
X-4172029Y-9778443D01*
X-4161876Y-9759447D01*
X-4148208Y-9742792D01*
X-4131553Y-9729124D01*
X-4112557Y-9718971D01*
X-4091938Y-9712716D01*
X-4064360Y-9710000D01*
X-3555640Y-9710000D01*
X-3528062Y-9712716D01*
G37*
G36*
X-17381940Y-8843550D02*
G01*
X-17344115Y-8857786D01*
X-17309799Y-8879126D01*
X-17280302Y-8906752D01*
X-17253167Y-8944619D01*
X-17120734Y-9174000D01*
X-16955740Y-9459778D01*
X-16955738Y-9459782D01*
X-16927563Y-9508583D01*
X-16908337Y-9551015D01*
X-16899159Y-9590376D01*
X-16897837Y-9630764D01*
X-16904419Y-9670631D01*
X-16918655Y-9708456D01*
X-16939995Y-9742772D01*
X-16967623Y-9772270D01*
X-17005481Y-9799400D01*
X-17937519Y-10337512D01*
X-17979941Y-10356733D01*
X-18019305Y-10365912D01*
X-18059693Y-10367234D01*
X-18099560Y-10360652D01*
X-18137385Y-10346416D01*
X-18171701Y-10325076D01*
X-18201198Y-10297450D01*
X-18228333Y-10259583D01*
X-18411266Y-9942733D01*
X-18525760Y-9744424D01*
X-18525762Y-9744420D01*
X-18553937Y-9695619D01*
X-18573163Y-9653187D01*
X-18582341Y-9613826D01*
X-18583663Y-9573438D01*
X-18577081Y-9533571D01*
X-18562845Y-9495746D01*
X-18541505Y-9461430D01*
X-18513877Y-9431932D01*
X-18476019Y-9404802D01*
X-17543981Y-8866690D01*
X-17501559Y-8847469D01*
X-17462195Y-8838290D01*
X-17421807Y-8836968D01*
X-17381940Y-8843550D01*
G37*
G36*
X6094525Y-8056142D02*
G01*
X6123593Y-8059005D01*
X6226074Y-8090092D01*
X6293437Y-8110526D01*
X6449956Y-8194188D01*
X6449958Y-8194189D01*
X6449957Y-8194189D01*
X6552775Y-8278569D01*
X6721431Y-8447225D01*
X6721435Y-8447230D01*
X6805812Y-8550044D01*
X6889474Y-8706563D01*
X6889475Y-8706567D01*
X6940995Y-8876407D01*
X6942814Y-8894872D01*
X6958392Y-9053033D01*
X6950120Y-9137015D01*
X6940995Y-9229659D01*
X6906216Y-9344312D01*
X6889474Y-9399503D01*
X6805812Y-9556022D01*
X6693218Y-9693218D01*
X6556022Y-9805812D01*
X6399503Y-9889474D01*
X6355310Y-9902880D01*
X6229659Y-9940995D01*
X6200591Y-9943858D01*
X6053033Y-9958392D01*
X5905475Y-9943858D01*
X5876407Y-9940995D01*
X5750756Y-9902880D01*
X5706563Y-9889474D01*
X5550044Y-9805812D01*
X5447230Y-9721435D01*
X5447225Y-9721431D01*
X5278569Y-9552775D01*
X5227636Y-9490713D01*
X5194188Y-9449956D01*
X5110526Y-9293437D01*
X5082130Y-9199826D01*
X5059005Y-9123593D01*
X5054388Y-9076713D01*
X5041608Y-8946967D01*
X5059005Y-8770343D01*
X5059005Y-8770341D01*
X5110525Y-8600501D01*
X5110526Y-8600497D01*
X5194188Y-8443978D01*
X5306782Y-8306782D01*
X5443978Y-8194188D01*
X5600497Y-8110526D01*
X5667860Y-8090092D01*
X5770341Y-8059005D01*
X5799409Y-8056142D01*
X5946967Y-8041608D01*
X6094525Y-8056142D01*
G37*
G36*
X17190195Y-8424290D02*
G01*
X17229559Y-8433469D01*
X17271981Y-8452690D01*
X18204019Y-8990802D01*
X18241877Y-9017932D01*
X18269505Y-9047430D01*
X18290845Y-9081746D01*
X18305081Y-9119571D01*
X18311663Y-9159438D01*
X18310341Y-9199826D01*
X18301163Y-9239187D01*
X18281937Y-9281619D01*
X18253762Y-9330420D01*
X18253760Y-9330424D01*
X18161217Y-9490713D01*
X17956333Y-9845583D01*
X17929198Y-9883450D01*
X17899701Y-9911076D01*
X17865385Y-9932416D01*
X17827560Y-9946652D01*
X17787693Y-9953234D01*
X17747305Y-9951912D01*
X17707941Y-9942733D01*
X17665519Y-9923512D01*
X16733481Y-9385400D01*
X16695623Y-9358270D01*
X16667995Y-9328772D01*
X16646655Y-9294456D01*
X16632419Y-9256631D01*
X16625837Y-9216764D01*
X16627159Y-9176376D01*
X16636337Y-9137015D01*
X16655563Y-9094583D01*
X16683738Y-9045782D01*
X16683740Y-9045778D01*
X16842764Y-8770341D01*
X16981167Y-8530619D01*
X17008302Y-8492752D01*
X17037799Y-8465126D01*
X17072115Y-8443786D01*
X17109940Y-8429550D01*
X17149807Y-8422968D01*
X17190195Y-8424290D01*
G37*
G36*
X-10084396Y-8602347D02*
G01*
X-10047856Y-8613432D01*
X-10014179Y-8631433D01*
X-9984659Y-8655659D01*
X-9960433Y-8685179D01*
X-9942432Y-8718856D01*
X-9931347Y-8755396D01*
X-9927000Y-8799538D01*
X-9927000Y-9748462D01*
X-9931347Y-9792604D01*
X-9942432Y-9829144D01*
X-9960433Y-9862821D01*
X-9984659Y-9892341D01*
X-10014179Y-9916567D01*
X-10047856Y-9934568D01*
X-10084396Y-9945653D01*
X-10128538Y-9950000D01*
X-12477462Y-9950000D01*
X-12521604Y-9945653D01*
X-12558144Y-9934568D01*
X-12591821Y-9916567D01*
X-12621341Y-9892341D01*
X-12645567Y-9862821D01*
X-12663568Y-9829144D01*
X-12674653Y-9792604D01*
X-12679000Y-9748462D01*
X-12679000Y-8799538D01*
X-12674653Y-8755396D01*
X-12663568Y-8718856D01*
X-12645567Y-8685179D01*
X-12621341Y-8655659D01*
X-12591821Y-8631433D01*
X-12558144Y-8613432D01*
X-12521604Y-8602347D01*
X-12477462Y-8598000D01*
X-10128538Y-8598000D01*
X-10084396Y-8602347D01*
G37*
G36*
X-6257000Y-9199000D02*
G01*
X-8909000Y-9199000D01*
X-8909000Y-8037000D01*
X-6257000Y-8037000D01*
X-6257000Y-9199000D01*
G37*
G36*
X-2452000Y-9174000D02*
G01*
X-4914000Y-9174000D01*
X-4914000Y-8012000D01*
X-2452000Y-8012000D01*
X-2452000Y-9174000D01*
G37*
G36*
X13079591Y-8075585D02*
G01*
X13113569Y-8085893D01*
X13144890Y-8102634D01*
X13172339Y-8125161D01*
X13194866Y-8152610D01*
X13211607Y-8183931D01*
X13221915Y-8217909D01*
X13226000Y-8259390D01*
X13226000Y-8860610D01*
X13221915Y-8902091D01*
X13211607Y-8936069D01*
X13194866Y-8967390D01*
X13172339Y-8994839D01*
X13144890Y-9017366D01*
X13113569Y-9034107D01*
X13079591Y-9044415D01*
X13038110Y-9048500D01*
X12361890Y-9048500D01*
X12320409Y-9044415D01*
X12286431Y-9034107D01*
X12255110Y-9017366D01*
X12227661Y-8994839D01*
X12205134Y-8967390D01*
X12188393Y-8936069D01*
X12178085Y-8902091D01*
X12174000Y-8860610D01*
X12174000Y-8259390D01*
X12178085Y-8217909D01*
X12188393Y-8183931D01*
X12205134Y-8152610D01*
X12227661Y-8125161D01*
X12255110Y-8102634D01*
X12286431Y-8085893D01*
X12320409Y-8075585D01*
X12361890Y-8071500D01*
X13038110Y-8071500D01*
X13079591Y-8075585D01*
G37*
G36*
X11428591Y-8075585D02*
G01*
X11462569Y-8085893D01*
X11493890Y-8102634D01*
X11521339Y-8125161D01*
X11543866Y-8152610D01*
X11560607Y-8183931D01*
X11570915Y-8217909D01*
X11575000Y-8259390D01*
X11575000Y-8860610D01*
X11570915Y-8902091D01*
X11560607Y-8936069D01*
X11543866Y-8967390D01*
X11521339Y-8994839D01*
X11493890Y-9017366D01*
X11462569Y-9034107D01*
X11428591Y-9044415D01*
X11387110Y-9048500D01*
X10710890Y-9048500D01*
X10669409Y-9044415D01*
X10635431Y-9034107D01*
X10604110Y-9017366D01*
X10576661Y-8994839D01*
X10554134Y-8967390D01*
X10537393Y-8936069D01*
X10527085Y-8902091D01*
X10523000Y-8860610D01*
X10523000Y-8259390D01*
X10527085Y-8217909D01*
X10537393Y-8183931D01*
X10554134Y-8152610D01*
X10576661Y-8125161D01*
X10604110Y-8102634D01*
X10635431Y-8085893D01*
X10669409Y-8075585D01*
X10710890Y-8071500D01*
X11387110Y-8071500D01*
X11428591Y-8075585D01*
G37*
G36*
X-16697415Y-5478802D02*
G01*
X-16547590Y-5508604D01*
X-16265326Y-5625521D01*
X-16011295Y-5795259D01*
X-15795259Y-6011295D01*
X-15625521Y-6265326D01*
X-15508604Y-6547590D01*
X-15481393Y-6684390D01*
X-15449000Y-6847239D01*
X-15449000Y-7152761D01*
X-15451922Y-7167452D01*
X-15508604Y-7452410D01*
X-15625521Y-7734674D01*
X-15795259Y-7988705D01*
X-16011295Y-8204741D01*
X-16265326Y-8374479D01*
X-16547590Y-8491396D01*
X-16697415Y-8521198D01*
X-16847239Y-8551000D01*
X-17152761Y-8551000D01*
X-17302585Y-8521198D01*
X-17452410Y-8491396D01*
X-17734674Y-8374479D01*
X-17988705Y-8204741D01*
X-18204741Y-7988705D01*
X-18374479Y-7734674D01*
X-18491396Y-7452410D01*
X-18548078Y-7167452D01*
X-18551000Y-7152761D01*
X-18551000Y-6847239D01*
X-18518607Y-6684390D01*
X-18491396Y-6547590D01*
X-18374479Y-6265326D01*
X-18204741Y-6011295D01*
X-17988705Y-5795259D01*
X-17734674Y-5625521D01*
X-17452410Y-5508604D01*
X-17302585Y-5478802D01*
X-17152761Y-5449000D01*
X-16847239Y-5449000D01*
X-16697415Y-5478802D01*
G37*
G36*
X7749099Y-5982201D02*
G01*
X7782151Y-5992227D01*
X7812602Y-6008504D01*
X7844061Y-6034322D01*
X7902111Y-6092372D01*
X7902117Y-6092377D01*
X8907623Y-7097883D01*
X8907628Y-7097889D01*
X8965678Y-7155939D01*
X8991496Y-7187398D01*
X9007773Y-7217849D01*
X9017799Y-7250901D01*
X9021183Y-7285266D01*
X9017799Y-7319631D01*
X9007773Y-7352683D01*
X8991496Y-7383134D01*
X8965678Y-7414593D01*
X8907628Y-7472643D01*
X8907623Y-7472649D01*
X8008183Y-8372089D01*
X8008177Y-8372094D01*
X7950127Y-8430144D01*
X7918668Y-8455962D01*
X7888217Y-8472239D01*
X7855165Y-8482265D01*
X7820800Y-8485649D01*
X7786435Y-8482265D01*
X7753383Y-8472239D01*
X7722932Y-8455962D01*
X7691473Y-8430144D01*
X7633423Y-8372094D01*
X7633417Y-8372089D01*
X6627911Y-7366583D01*
X6627906Y-7366577D01*
X6569856Y-7308527D01*
X6544038Y-7277068D01*
X6527761Y-7246617D01*
X6517735Y-7213565D01*
X6514351Y-7179200D01*
X6517735Y-7144835D01*
X6527761Y-7111783D01*
X6544038Y-7081332D01*
X6569856Y-7049873D01*
X6627906Y-6991823D01*
X6627911Y-6991817D01*
X7527351Y-6092377D01*
X7527357Y-6092372D01*
X7585407Y-6034322D01*
X7616866Y-6008504D01*
X7647317Y-5992227D01*
X7680369Y-5982201D01*
X7714734Y-5978817D01*
X7749099Y-5982201D01*
G37*
G36*
X13079591Y-6500585D02*
G01*
X13113569Y-6510893D01*
X13144890Y-6527634D01*
X13172339Y-6550161D01*
X13194866Y-6577610D01*
X13211607Y-6608931D01*
X13221915Y-6642909D01*
X13226000Y-6684390D01*
X13226000Y-7285610D01*
X13221915Y-7327091D01*
X13211607Y-7361069D01*
X13194866Y-7392390D01*
X13172339Y-7419839D01*
X13144890Y-7442366D01*
X13113569Y-7459107D01*
X13079591Y-7469415D01*
X13038110Y-7473500D01*
X12361890Y-7473500D01*
X12320409Y-7469415D01*
X12286431Y-7459107D01*
X12255110Y-7442366D01*
X12227661Y-7419839D01*
X12205134Y-7392390D01*
X12188393Y-7361069D01*
X12178085Y-7327091D01*
X12174000Y-7285610D01*
X12174000Y-6684390D01*
X12178085Y-6642909D01*
X12188393Y-6608931D01*
X12205134Y-6577610D01*
X12227661Y-6550161D01*
X12255110Y-6527634D01*
X12286431Y-6510893D01*
X12320409Y-6500585D01*
X12361890Y-6496500D01*
X13038110Y-6496500D01*
X13079591Y-6500585D01*
G37*
G36*
X11428591Y-6500585D02*
G01*
X11462569Y-6510893D01*
X11493890Y-6527634D01*
X11521339Y-6550161D01*
X11543866Y-6577610D01*
X11560607Y-6608931D01*
X11570915Y-6642909D01*
X11575000Y-6684390D01*
X11575000Y-7285610D01*
X11570915Y-7327091D01*
X11560607Y-7361069D01*
X11543866Y-7392390D01*
X11521339Y-7419839D01*
X11493890Y-7442366D01*
X11462569Y-7459107D01*
X11428591Y-7469415D01*
X11387110Y-7473500D01*
X10710890Y-7473500D01*
X10669409Y-7469415D01*
X10635431Y-7459107D01*
X10604110Y-7442366D01*
X10576661Y-7419839D01*
X10554134Y-7392390D01*
X10537393Y-7361069D01*
X10527085Y-7327091D01*
X10523000Y-7285610D01*
X10523000Y-6684390D01*
X10527085Y-6642909D01*
X10537393Y-6608931D01*
X10554134Y-6577610D01*
X10576661Y-6550161D01*
X10604110Y-6527634D01*
X10635431Y-6510893D01*
X10669409Y-6500585D01*
X10710890Y-6496500D01*
X11387110Y-6496500D01*
X11428591Y-6500585D01*
G37*
G36*
X386928Y-5137764D02*
G01*
X408009Y-5144160D01*
X427445Y-5154548D01*
X444476Y-5168524D01*
X458452Y-5185555D01*
X468840Y-5204991D01*
X475236Y-5226072D01*
X478000Y-5254140D01*
X478000Y-7067860D01*
X475236Y-7095928D01*
X468840Y-7117009D01*
X458452Y-7136445D01*
X444476Y-7153476D01*
X427445Y-7167452D01*
X408009Y-7177840D01*
X386928Y-7184236D01*
X358860Y-7187000D01*
X-104860Y-7187000D01*
X-132928Y-7184236D01*
X-154009Y-7177840D01*
X-173445Y-7167452D01*
X-190476Y-7153476D01*
X-204452Y-7136445D01*
X-214840Y-7117009D01*
X-221236Y-7095928D01*
X-224000Y-7067860D01*
X-224000Y-5254140D01*
X-221236Y-5226072D01*
X-214840Y-5204991D01*
X-204452Y-5185555D01*
X-190476Y-5168524D01*
X-173445Y-5154548D01*
X-154009Y-5144160D01*
X-132928Y-5137764D01*
X-104860Y-5135000D01*
X358860Y-5135000D01*
X386928Y-5137764D01*
G37*
G36*
X2926928Y-5137764D02*
G01*
X2948009Y-5144160D01*
X2967445Y-5154548D01*
X2984476Y-5168524D01*
X2998452Y-5185555D01*
X3008840Y-5204991D01*
X3015236Y-5226072D01*
X3018000Y-5254140D01*
X3018000Y-7067860D01*
X3015236Y-7095928D01*
X3008840Y-7117009D01*
X2998452Y-7136445D01*
X2984476Y-7153476D01*
X2967445Y-7167452D01*
X2948009Y-7177840D01*
X2926928Y-7184236D01*
X2898860Y-7187000D01*
X2435140Y-7187000D01*
X2407072Y-7184236D01*
X2385991Y-7177840D01*
X2366555Y-7167452D01*
X2349524Y-7153476D01*
X2335548Y-7136445D01*
X2325160Y-7117009D01*
X2318764Y-7095928D01*
X2316000Y-7067860D01*
X2316000Y-5254140D01*
X2318764Y-5226072D01*
X2325160Y-5204991D01*
X2335548Y-5185555D01*
X2349524Y-5168524D01*
X2366555Y-5154548D01*
X2385991Y-5144160D01*
X2407072Y-5137764D01*
X2435140Y-5135000D01*
X2898860Y-5135000D01*
X2926928Y-5137764D01*
G37*
G36*
X1656928Y-5137764D02*
G01*
X1678009Y-5144160D01*
X1697445Y-5154548D01*
X1714476Y-5168524D01*
X1728452Y-5185555D01*
X1738840Y-5204991D01*
X1745236Y-5226072D01*
X1748000Y-5254140D01*
X1748000Y-7067860D01*
X1745236Y-7095928D01*
X1738840Y-7117009D01*
X1728452Y-7136445D01*
X1714476Y-7153476D01*
X1697445Y-7167452D01*
X1678009Y-7177840D01*
X1656928Y-7184236D01*
X1628860Y-7187000D01*
X1165140Y-7187000D01*
X1137072Y-7184236D01*
X1115991Y-7177840D01*
X1096555Y-7167452D01*
X1079524Y-7153476D01*
X1065548Y-7136445D01*
X1055160Y-7117009D01*
X1048764Y-7095928D01*
X1046000Y-7067860D01*
X1046000Y-5254140D01*
X1048764Y-5226072D01*
X1055160Y-5204991D01*
X1065548Y-5185555D01*
X1079524Y-5168524D01*
X1096555Y-5154548D01*
X1115991Y-5144160D01*
X1137072Y-5137764D01*
X1165140Y-5135000D01*
X1628860Y-5135000D01*
X1656928Y-5137764D01*
G37*
G36*
X4196928Y-5137764D02*
G01*
X4218009Y-5144160D01*
X4237445Y-5154548D01*
X4254476Y-5168524D01*
X4268452Y-5185555D01*
X4278840Y-5204991D01*
X4285236Y-5226072D01*
X4288000Y-5254140D01*
X4288000Y-7067860D01*
X4285236Y-7095928D01*
X4278840Y-7117009D01*
X4268452Y-7136445D01*
X4254476Y-7153476D01*
X4237445Y-7167452D01*
X4218009Y-7177840D01*
X4196928Y-7184236D01*
X4168860Y-7187000D01*
X3705140Y-7187000D01*
X3677072Y-7184236D01*
X3655991Y-7177840D01*
X3636555Y-7167452D01*
X3619524Y-7153476D01*
X3605548Y-7136445D01*
X3595160Y-7117009D01*
X3588764Y-7095928D01*
X3586000Y-7067860D01*
X3586000Y-5254140D01*
X3588764Y-5226072D01*
X3595160Y-5204991D01*
X3605548Y-5185555D01*
X3619524Y-5168524D01*
X3636555Y-5154548D01*
X3655991Y-5144160D01*
X3677072Y-5137764D01*
X3705140Y-5135000D01*
X4168860Y-5135000D01*
X4196928Y-5137764D01*
G37*
G36*
X-10084396Y-5802347D02*
G01*
X-10047856Y-5813432D01*
X-10014179Y-5831433D01*
X-9984659Y-5855659D01*
X-9960433Y-5885179D01*
X-9942432Y-5918856D01*
X-9931347Y-5955396D01*
X-9927000Y-5999538D01*
X-9927000Y-6948462D01*
X-9931347Y-6992604D01*
X-9942432Y-7029144D01*
X-9960433Y-7062821D01*
X-9984659Y-7092341D01*
X-10014179Y-7116567D01*
X-10047856Y-7134568D01*
X-10084396Y-7145653D01*
X-10128538Y-7150000D01*
X-12477462Y-7150000D01*
X-12521604Y-7145653D01*
X-12558144Y-7134568D01*
X-12591821Y-7116567D01*
X-12621341Y-7092341D01*
X-12645567Y-7062821D01*
X-12663568Y-7029144D01*
X-12674653Y-6992604D01*
X-12679000Y-6948462D01*
X-12679000Y-5999538D01*
X-12674653Y-5955396D01*
X-12663568Y-5918856D01*
X-12645567Y-5885179D01*
X-12621341Y-5855659D01*
X-12591821Y-5831433D01*
X-12558144Y-5813432D01*
X-12521604Y-5802347D01*
X-12477462Y-5798000D01*
X-10128538Y-5798000D01*
X-10084396Y-5802347D01*
G37*
G36*
X-6257000Y-6999000D02*
G01*
X-7009000Y-6999000D01*
X-7009000Y-5837000D01*
X-6257000Y-5837000D01*
X-6257000Y-6999000D01*
G37*
G36*
X-8157000Y-6999000D02*
G01*
X-8909000Y-6999000D01*
X-8909000Y-5837000D01*
X-8157000Y-5837000D01*
X-8157000Y-6999000D01*
G37*
G36*
X-2452000Y-6974000D02*
G01*
X-4914000Y-6974000D01*
X-4914000Y-5812000D01*
X-2452000Y-5812000D01*
X-2452000Y-6974000D01*
G37*
G36*
X11428591Y-4976585D02*
G01*
X11462569Y-4986893D01*
X11493890Y-5003634D01*
X11521339Y-5026161D01*
X11543866Y-5053610D01*
X11560607Y-5084931D01*
X11570915Y-5118909D01*
X11575000Y-5160390D01*
X11575000Y-5761610D01*
X11570915Y-5803091D01*
X11560607Y-5837069D01*
X11543866Y-5868390D01*
X11521339Y-5895839D01*
X11493890Y-5918366D01*
X11462569Y-5935107D01*
X11428591Y-5945415D01*
X11387110Y-5949500D01*
X10710890Y-5949500D01*
X10669409Y-5945415D01*
X10635431Y-5935107D01*
X10604110Y-5918366D01*
X10576661Y-5895839D01*
X10554134Y-5868390D01*
X10537393Y-5837069D01*
X10527085Y-5803091D01*
X10523000Y-5761610D01*
X10523000Y-5160390D01*
X10527085Y-5118909D01*
X10537393Y-5084931D01*
X10554134Y-5053610D01*
X10576661Y-5026161D01*
X10604110Y-5003634D01*
X10635431Y-4986893D01*
X10669409Y-4976585D01*
X10710890Y-4972500D01*
X11387110Y-4972500D01*
X11428591Y-4976585D01*
G37*
G36*
X13079591Y-4976585D02*
G01*
X13113569Y-4986893D01*
X13144890Y-5003634D01*
X13172339Y-5026161D01*
X13194866Y-5053610D01*
X13211607Y-5084931D01*
X13221915Y-5118909D01*
X13226000Y-5160390D01*
X13226000Y-5761610D01*
X13221915Y-5803091D01*
X13211607Y-5837069D01*
X13194866Y-5868390D01*
X13172339Y-5895839D01*
X13144890Y-5918366D01*
X13113569Y-5935107D01*
X13079591Y-5945415D01*
X13038110Y-5949500D01*
X12361890Y-5949500D01*
X12320409Y-5945415D01*
X12286431Y-5935107D01*
X12255110Y-5918366D01*
X12227661Y-5895839D01*
X12205134Y-5868390D01*
X12188393Y-5837069D01*
X12178085Y-5803091D01*
X12174000Y-5761610D01*
X12174000Y-5160390D01*
X12178085Y-5118909D01*
X12188393Y-5084931D01*
X12205134Y-5053610D01*
X12227661Y-5026161D01*
X12255110Y-5003634D01*
X12286431Y-4986893D01*
X12320409Y-4976585D01*
X12361890Y-4972500D01*
X13038110Y-4972500D01*
X13079591Y-4976585D01*
G37*
G36*
X-12985433Y-3819882D02*
G01*
X-12951843Y-3832524D01*
X-12921366Y-3851476D01*
X-12895180Y-3876002D01*
X-12870673Y-3910201D01*
X-12259492Y-4968799D01*
X-12242130Y-5007117D01*
X-12233981Y-5042067D01*
X-12232807Y-5077935D01*
X-12238652Y-5113337D01*
X-12251294Y-5146927D01*
X-12270246Y-5177404D01*
X-12294772Y-5203590D01*
X-12328971Y-5228097D01*
X-13387569Y-5839278D01*
X-13425887Y-5856640D01*
X-13460837Y-5864789D01*
X-13496705Y-5865963D01*
X-13532107Y-5860118D01*
X-13565697Y-5847476D01*
X-13596174Y-5828524D01*
X-13622360Y-5803998D01*
X-13646867Y-5769799D01*
X-14258048Y-4711201D01*
X-14275410Y-4672883D01*
X-14283559Y-4637933D01*
X-14284733Y-4602065D01*
X-14278888Y-4566663D01*
X-14266246Y-4533073D01*
X-14247294Y-4502596D01*
X-14222768Y-4476410D01*
X-14188569Y-4451903D01*
X-13129971Y-3840722D01*
X-13091653Y-3823360D01*
X-13056703Y-3815211D01*
X-13020835Y-3814037D01*
X-12985433Y-3819882D01*
G37*
G36*
X-6324062Y-4457716D02*
G01*
X-6303443Y-4463971D01*
X-6284447Y-4474124D01*
X-6267792Y-4487792D01*
X-6254124Y-4504447D01*
X-6243971Y-4523443D01*
X-6237716Y-4544062D01*
X-6235000Y-4571640D01*
X-6235000Y-5080360D01*
X-6237716Y-5107938D01*
X-6243971Y-5128557D01*
X-6254124Y-5147553D01*
X-6267792Y-5164208D01*
X-6284447Y-5177876D01*
X-6303443Y-5188029D01*
X-6324062Y-5194284D01*
X-6351640Y-5197000D01*
X-6810360Y-5197000D01*
X-6837938Y-5194284D01*
X-6858557Y-5188029D01*
X-6877553Y-5177876D01*
X-6894208Y-5164208D01*
X-6907876Y-5147553D01*
X-6918029Y-5128557D01*
X-6924284Y-5107938D01*
X-6927000Y-5080360D01*
X-6927000Y-4571640D01*
X-6924284Y-4544062D01*
X-6918029Y-4523443D01*
X-6907876Y-4504447D01*
X-6894208Y-4487792D01*
X-6877553Y-4474124D01*
X-6858557Y-4463971D01*
X-6837938Y-4457716D01*
X-6810360Y-4455000D01*
X-6351640Y-4455000D01*
X-6324062Y-4457716D01*
G37*
G36*
X-5354062Y-4457716D02*
G01*
X-5333443Y-4463971D01*
X-5314447Y-4474124D01*
X-5297792Y-4487792D01*
X-5284124Y-4504447D01*
X-5273971Y-4523443D01*
X-5267716Y-4544062D01*
X-5265000Y-4571640D01*
X-5265000Y-5080360D01*
X-5267716Y-5107938D01*
X-5273971Y-5128557D01*
X-5284124Y-5147553D01*
X-5297792Y-5164208D01*
X-5314447Y-5177876D01*
X-5333443Y-5188029D01*
X-5354062Y-5194284D01*
X-5381640Y-5197000D01*
X-5840360Y-5197000D01*
X-5867938Y-5194284D01*
X-5888557Y-5188029D01*
X-5907553Y-5177876D01*
X-5924208Y-5164208D01*
X-5937876Y-5147553D01*
X-5948029Y-5128557D01*
X-5954284Y-5107938D01*
X-5957000Y-5080360D01*
X-5957000Y-4571640D01*
X-5954284Y-4544062D01*
X-5948029Y-4523443D01*
X-5937876Y-4504447D01*
X-5924208Y-4487792D01*
X-5907553Y-4474124D01*
X-5888557Y-4463971D01*
X-5867938Y-4457716D01*
X-5840360Y-4455000D01*
X-5381640Y-4455000D01*
X-5354062Y-4457716D01*
G37*
G36*
X16410938Y-4228716D02*
G01*
X16431557Y-4234971D01*
X16450553Y-4245124D01*
X16467208Y-4258792D01*
X16480876Y-4275447D01*
X16491029Y-4294443D01*
X16497284Y-4315062D01*
X16500000Y-4342640D01*
X16500000Y-4801360D01*
X16497284Y-4828938D01*
X16491029Y-4849557D01*
X16480876Y-4868553D01*
X16467208Y-4885208D01*
X16450553Y-4898876D01*
X16431557Y-4909029D01*
X16410938Y-4915284D01*
X16383360Y-4918000D01*
X15874640Y-4918000D01*
X15847062Y-4915284D01*
X15826443Y-4909029D01*
X15807447Y-4898876D01*
X15790792Y-4885208D01*
X15777124Y-4868553D01*
X15766971Y-4849557D01*
X15760716Y-4828938D01*
X15758000Y-4801360D01*
X15758000Y-4342640D01*
X15760716Y-4315062D01*
X15766971Y-4294443D01*
X15777124Y-4275447D01*
X15790792Y-4258792D01*
X15807447Y-4245124D01*
X15826443Y-4234971D01*
X15847062Y-4228716D01*
X15874640Y-4226000D01*
X16383360Y-4226000D01*
X16410938Y-4228716D01*
G37*
G36*
X18920999Y-2153737D02*
G01*
X18930608Y-2156652D01*
X18939472Y-2161390D01*
X18947237Y-2167763D01*
X18953610Y-2175528D01*
X18958348Y-2184392D01*
X18961263Y-2194001D01*
X18962852Y-2210140D01*
X18962852Y-3197860D01*
X18961263Y-3213999D01*
X18958348Y-3223608D01*
X18953610Y-3232472D01*
X18947258Y-3240212D01*
X18947237Y-3240237D01*
X18939427Y-3246640D01*
X18939372Y-3246677D01*
X18929853Y-3254480D01*
X18929878Y-3254511D01*
X18916028Y-3265853D01*
X18900463Y-3284779D01*
X18888889Y-3306377D01*
X18881751Y-3329819D01*
X18879324Y-3354202D01*
X18881700Y-3378591D01*
X18888789Y-3402047D01*
X18900318Y-3423670D01*
X18915843Y-3442628D01*
X18934769Y-3458193D01*
X18937825Y-3460029D01*
X18939514Y-3461418D01*
X18939516Y-3461419D01*
X18945712Y-3466515D01*
X18947274Y-3467800D01*
X18953642Y-3475575D01*
X18956791Y-3481483D01*
X18958367Y-3484438D01*
X18961054Y-3493329D01*
X18961282Y-3494085D01*
X18962852Y-3510113D01*
X18962852Y-4647860D01*
X18961263Y-4663999D01*
X18958348Y-4673608D01*
X18953610Y-4682472D01*
X18947237Y-4690237D01*
X18939472Y-4696610D01*
X18930608Y-4701348D01*
X18920999Y-4704263D01*
X18904860Y-4705852D01*
X17417140Y-4705852D01*
X17401001Y-4704263D01*
X17391392Y-4701348D01*
X17382528Y-4696610D01*
X17374763Y-4690237D01*
X17368390Y-4682472D01*
X17363652Y-4673608D01*
X17360737Y-4663999D01*
X17359148Y-4647860D01*
X17359148Y-3510140D01*
X17360737Y-3494001D01*
X17363652Y-3484392D01*
X17368390Y-3475528D01*
X17374763Y-3467763D01*
X17387737Y-3457116D01*
X17396968Y-3450947D01*
X17414294Y-3433619D01*
X17427907Y-3413244D01*
X17437283Y-3390605D01*
X17442063Y-3366572D01*
X17442062Y-3342068D01*
X17437280Y-3318035D01*
X17427902Y-3295396D01*
X17414287Y-3275022D01*
X17396959Y-3257696D01*
X17387683Y-3250825D01*
X17374800Y-3240274D01*
X17373668Y-3238897D01*
X17368419Y-3232516D01*
X17363674Y-3223661D01*
X17362749Y-3220623D01*
X17360758Y-3214085D01*
X17360758Y-3214082D01*
X17360748Y-3214050D01*
X17359753Y-3204000D01*
X17359753Y-3203935D01*
X17359148Y-3197825D01*
X17359148Y-2210140D01*
X17360737Y-2194001D01*
X17363652Y-2184392D01*
X17368390Y-2175528D01*
X17374763Y-2167763D01*
X17382528Y-2161390D01*
X17391392Y-2156652D01*
X17401001Y-2153737D01*
X17417140Y-2152148D01*
X18904860Y-2152148D01*
X18920999Y-2153737D01*
G37*
G36*
X2773938Y-3949716D02*
G01*
X2794557Y-3955971D01*
X2813553Y-3966124D01*
X2830208Y-3979792D01*
X2843876Y-3996447D01*
X2854029Y-4015443D01*
X2860284Y-4036062D01*
X2863000Y-4063640D01*
X2863000Y-4572360D01*
X2860284Y-4599938D01*
X2854029Y-4620557D01*
X2843876Y-4639553D01*
X2830208Y-4656208D01*
X2813553Y-4669876D01*
X2794557Y-4680029D01*
X2773938Y-4686284D01*
X2746360Y-4689000D01*
X2287640Y-4689000D01*
X2260062Y-4686284D01*
X2239443Y-4680029D01*
X2220447Y-4669876D01*
X2203792Y-4656208D01*
X2190124Y-4639553D01*
X2179971Y-4620557D01*
X2173716Y-4599938D01*
X2171000Y-4572360D01*
X2171000Y-4063640D01*
X2173716Y-4036062D01*
X2179971Y-4015443D01*
X2190124Y-3996447D01*
X2203792Y-3979792D01*
X2220447Y-3966124D01*
X2239443Y-3955971D01*
X2260062Y-3949716D01*
X2287640Y-3947000D01*
X2746360Y-3947000D01*
X2773938Y-3949716D01*
G37*
G36*
X1803938Y-3949716D02*
G01*
X1824557Y-3955971D01*
X1843553Y-3966124D01*
X1860208Y-3979792D01*
X1873876Y-3996447D01*
X1884029Y-4015443D01*
X1890284Y-4036062D01*
X1893000Y-4063640D01*
X1893000Y-4572360D01*
X1890284Y-4599938D01*
X1884029Y-4620557D01*
X1873876Y-4639553D01*
X1860208Y-4656208D01*
X1843553Y-4669876D01*
X1824557Y-4680029D01*
X1803938Y-4686284D01*
X1776360Y-4689000D01*
X1317640Y-4689000D01*
X1290062Y-4686284D01*
X1269443Y-4680029D01*
X1250447Y-4669876D01*
X1233792Y-4656208D01*
X1220124Y-4639553D01*
X1209971Y-4620557D01*
X1203716Y-4599938D01*
X1201000Y-4572360D01*
X1201000Y-4063640D01*
X1203716Y-4036062D01*
X1209971Y-4015443D01*
X1220124Y-3996447D01*
X1233792Y-3979792D01*
X1250447Y-3966124D01*
X1269443Y-3955971D01*
X1290062Y-3949716D01*
X1317640Y-3947000D01*
X1776360Y-3947000D01*
X1803938Y-3949716D01*
G37*
G36*
X535938Y-3824716D02*
G01*
X556557Y-3830971D01*
X575553Y-3841124D01*
X592208Y-3854792D01*
X605876Y-3871447D01*
X616029Y-3890443D01*
X622284Y-3911062D01*
X625000Y-3938640D01*
X625000Y-4397360D01*
X622284Y-4424938D01*
X616029Y-4445557D01*
X605876Y-4464553D01*
X592208Y-4481208D01*
X575553Y-4494876D01*
X556557Y-4505029D01*
X535938Y-4511284D01*
X508360Y-4514000D01*
X-360Y-4514000D01*
X-27938Y-4511284D01*
X-48557Y-4505029D01*
X-67553Y-4494876D01*
X-84208Y-4481208D01*
X-97876Y-4464553D01*
X-108029Y-4445557D01*
X-114284Y-4424938D01*
X-117000Y-4397360D01*
X-117000Y-3938640D01*
X-114284Y-3911062D01*
X-108029Y-3890443D01*
X-97876Y-3871447D01*
X-84208Y-3854792D01*
X-67553Y-3841124D01*
X-48557Y-3830971D01*
X-27938Y-3824716D01*
X-360Y-3822000D01*
X508360Y-3822000D01*
X535938Y-3824716D01*
G37*
G36*
X-480062Y-3824716D02*
G01*
X-459443Y-3830971D01*
X-440447Y-3841124D01*
X-423792Y-3854792D01*
X-410124Y-3871447D01*
X-399971Y-3890443D01*
X-393716Y-3911062D01*
X-391000Y-3938640D01*
X-391000Y-4397360D01*
X-393716Y-4424938D01*
X-399971Y-4445557D01*
X-410124Y-4464553D01*
X-423792Y-4481208D01*
X-440447Y-4494876D01*
X-459443Y-4505029D01*
X-480062Y-4511284D01*
X-507640Y-4514000D01*
X-1016360Y-4514000D01*
X-1043938Y-4511284D01*
X-1064557Y-4505029D01*
X-1083553Y-4494876D01*
X-1100208Y-4481208D01*
X-1113876Y-4464553D01*
X-1124029Y-4445557D01*
X-1130284Y-4424938D01*
X-1133000Y-4397360D01*
X-1133000Y-3938640D01*
X-1130284Y-3911062D01*
X-1124029Y-3890443D01*
X-1113876Y-3871447D01*
X-1100208Y-3854792D01*
X-1083553Y-3841124D01*
X-1064557Y-3830971D01*
X-1043938Y-3824716D01*
X-1016360Y-3822000D01*
X-507640Y-3822000D01*
X-480062Y-3824716D01*
G37*
G36*
X11428591Y-3401585D02*
G01*
X11462569Y-3411893D01*
X11493890Y-3428634D01*
X11521339Y-3451161D01*
X11543866Y-3478610D01*
X11560607Y-3509931D01*
X11570915Y-3543909D01*
X11575000Y-3585390D01*
X11575000Y-4186610D01*
X11570915Y-4228091D01*
X11560607Y-4262069D01*
X11543866Y-4293390D01*
X11521339Y-4320839D01*
X11493890Y-4343366D01*
X11462569Y-4360107D01*
X11428591Y-4370415D01*
X11387110Y-4374500D01*
X10710890Y-4374500D01*
X10669409Y-4370415D01*
X10635431Y-4360107D01*
X10604110Y-4343366D01*
X10576661Y-4320839D01*
X10554134Y-4293390D01*
X10537393Y-4262069D01*
X10527085Y-4228091D01*
X10523000Y-4186610D01*
X10523000Y-3585390D01*
X10527085Y-3543909D01*
X10537393Y-3509931D01*
X10554134Y-3478610D01*
X10576661Y-3451161D01*
X10604110Y-3428634D01*
X10635431Y-3411893D01*
X10669409Y-3401585D01*
X10710890Y-3397500D01*
X11387110Y-3397500D01*
X11428591Y-3401585D01*
G37*
G36*
X13079591Y-3401585D02*
G01*
X13113569Y-3411893D01*
X13144890Y-3428634D01*
X13172339Y-3451161D01*
X13194866Y-3478610D01*
X13211607Y-3509931D01*
X13221915Y-3543909D01*
X13226000Y-3585390D01*
X13226000Y-4186610D01*
X13221915Y-4228091D01*
X13211607Y-4262069D01*
X13194866Y-4293390D01*
X13172339Y-4320839D01*
X13144890Y-4343366D01*
X13113569Y-4360107D01*
X13079591Y-4370415D01*
X13038110Y-4374500D01*
X12361890Y-4374500D01*
X12320409Y-4370415D01*
X12286431Y-4360107D01*
X12255110Y-4343366D01*
X12227661Y-4320839D01*
X12205134Y-4293390D01*
X12188393Y-4262069D01*
X12178085Y-4228091D01*
X12174000Y-4186610D01*
X12174000Y-3585390D01*
X12178085Y-3543909D01*
X12188393Y-3509931D01*
X12205134Y-3478610D01*
X12227661Y-3451161D01*
X12255110Y-3428634D01*
X12286431Y-3411893D01*
X12320409Y-3401585D01*
X12361890Y-3397500D01*
X13038110Y-3397500D01*
X13079591Y-3401585D01*
G37*
G36*
X-10427052Y-2569781D02*
G01*
X-10281280Y-2630162D01*
X-10281278Y-2630163D01*
X-10150086Y-2717822D01*
X-10038516Y-2829392D01*
X-9963901Y-2941062D01*
X-9950856Y-2960586D01*
X-9890475Y-3106358D01*
X-9859694Y-3261107D01*
X-9859694Y-3418893D01*
X-9890475Y-3573642D01*
X-9950856Y-3719414D01*
X-9950857Y-3719416D01*
X-10038516Y-3850608D01*
X-10150086Y-3962178D01*
X-10281278Y-4049837D01*
X-10281279Y-4049838D01*
X-10281280Y-4049838D01*
X-10427052Y-4110219D01*
X-10581801Y-4141000D01*
X-10739587Y-4141000D01*
X-10894336Y-4110219D01*
X-11040108Y-4049838D01*
X-11040109Y-4049838D01*
X-11040110Y-4049837D01*
X-11171302Y-3962178D01*
X-11282872Y-3850608D01*
X-11370531Y-3719416D01*
X-11370532Y-3719414D01*
X-11430913Y-3573642D01*
X-11461694Y-3418893D01*
X-11461694Y-3261107D01*
X-11430913Y-3106358D01*
X-11370532Y-2960586D01*
X-11357487Y-2941062D01*
X-11282872Y-2829392D01*
X-11171302Y-2717822D01*
X-11040110Y-2630163D01*
X-11040108Y-2630162D01*
X-10894336Y-2569781D01*
X-10739587Y-2539000D01*
X-10581801Y-2539000D01*
X-10427052Y-2569781D01*
G37*
G36*
X16410938Y-3258716D02*
G01*
X16431557Y-3264971D01*
X16450553Y-3275124D01*
X16467208Y-3288792D01*
X16480876Y-3305447D01*
X16491029Y-3324443D01*
X16497284Y-3345062D01*
X16500000Y-3372640D01*
X16500000Y-3831360D01*
X16497284Y-3858938D01*
X16491029Y-3879557D01*
X16480876Y-3898553D01*
X16467208Y-3915208D01*
X16450553Y-3928876D01*
X16431557Y-3939029D01*
X16410938Y-3945284D01*
X16383360Y-3948000D01*
X15874640Y-3948000D01*
X15847062Y-3945284D01*
X15826443Y-3939029D01*
X15807447Y-3928876D01*
X15790792Y-3915208D01*
X15777124Y-3898553D01*
X15766971Y-3879557D01*
X15760716Y-3858938D01*
X15758000Y-3831360D01*
X15758000Y-3372640D01*
X15760716Y-3345062D01*
X15766971Y-3324443D01*
X15777124Y-3305447D01*
X15790792Y-3288792D01*
X15807447Y-3275124D01*
X15826443Y-3264971D01*
X15847062Y-3258716D01*
X15874640Y-3256000D01*
X16383360Y-3256000D01*
X16410938Y-3258716D01*
G37*
G36*
X535938Y-2854716D02*
G01*
X556557Y-2860971D01*
X575553Y-2871124D01*
X592208Y-2884792D01*
X605876Y-2901447D01*
X616029Y-2920443D01*
X622284Y-2941062D01*
X625000Y-2968640D01*
X625000Y-3427360D01*
X622284Y-3454938D01*
X616029Y-3475557D01*
X605876Y-3494553D01*
X592208Y-3511208D01*
X575553Y-3524876D01*
X556557Y-3535029D01*
X535938Y-3541284D01*
X508360Y-3544000D01*
X-360Y-3544000D01*
X-27938Y-3541284D01*
X-48557Y-3535029D01*
X-67553Y-3524876D01*
X-84208Y-3511208D01*
X-97876Y-3494553D01*
X-108029Y-3475557D01*
X-114284Y-3454938D01*
X-117000Y-3427360D01*
X-117000Y-2968640D01*
X-114284Y-2941062D01*
X-108029Y-2920443D01*
X-97876Y-2901447D01*
X-84208Y-2884792D01*
X-67553Y-2871124D01*
X-48557Y-2860971D01*
X-27938Y-2854716D01*
X-360Y-2852000D01*
X508360Y-2852000D01*
X535938Y-2854716D01*
G37*
G36*
X-480062Y-2854716D02*
G01*
X-459443Y-2860971D01*
X-440447Y-2871124D01*
X-423792Y-2884792D01*
X-410124Y-2901447D01*
X-399971Y-2920443D01*
X-393716Y-2941062D01*
X-391000Y-2968640D01*
X-391000Y-3427360D01*
X-393716Y-3454938D01*
X-399971Y-3475557D01*
X-410124Y-3494553D01*
X-423792Y-3511208D01*
X-440447Y-3524876D01*
X-459443Y-3535029D01*
X-480062Y-3541284D01*
X-507640Y-3544000D01*
X-1016360Y-3544000D01*
X-1043938Y-3541284D01*
X-1064557Y-3535029D01*
X-1083553Y-3524876D01*
X-1100208Y-3511208D01*
X-1113876Y-3494553D01*
X-1124029Y-3475557D01*
X-1130284Y-3454938D01*
X-1133000Y-3427360D01*
X-1133000Y-2968640D01*
X-1130284Y-2941062D01*
X-1124029Y-2920443D01*
X-1113876Y-2901447D01*
X-1100208Y-2884792D01*
X-1083553Y-2871124D01*
X-1064557Y-2860971D01*
X-1043938Y-2854716D01*
X-1016360Y-2852000D01*
X-507640Y-2852000D01*
X-480062Y-2854716D01*
G37*
G36*
X9171938Y-2300716D02*
G01*
X9192557Y-2306971D01*
X9211553Y-2317124D01*
X9228208Y-2330792D01*
X9241876Y-2347447D01*
X9252029Y-2366443D01*
X9258284Y-2387062D01*
X9261000Y-2414640D01*
X9261000Y-2873360D01*
X9258284Y-2900938D01*
X9252029Y-2921557D01*
X9241876Y-2940553D01*
X9228208Y-2957208D01*
X9211553Y-2970876D01*
X9192557Y-2981029D01*
X9171938Y-2987284D01*
X9144360Y-2990000D01*
X8635640Y-2990000D01*
X8608062Y-2987284D01*
X8587443Y-2981029D01*
X8568447Y-2970876D01*
X8551792Y-2957208D01*
X8538124Y-2940553D01*
X8527971Y-2921557D01*
X8521716Y-2900938D01*
X8519000Y-2873360D01*
X8519000Y-2414640D01*
X8521716Y-2387062D01*
X8527971Y-2366443D01*
X8538124Y-2347447D01*
X8551792Y-2330792D01*
X8568447Y-2317124D01*
X8587443Y-2306971D01*
X8608062Y-2300716D01*
X8635640Y-2298000D01*
X9144360Y-2298000D01*
X9171938Y-2300716D01*
G37*
G36*
X10882295Y-1216323D02*
G01*
X10889309Y-1218451D01*
X10903077Y-1225810D01*
X10925716Y-1235187D01*
X10949749Y-1239967D01*
X10974253Y-1239967D01*
X10998286Y-1235186D01*
X11020923Y-1225810D01*
X11034691Y-1218451D01*
X11041705Y-1216323D01*
X11055140Y-1215000D01*
X11368860Y-1215000D01*
X11382295Y-1216323D01*
X11389309Y-1218451D01*
X11403077Y-1225810D01*
X11425716Y-1235187D01*
X11449749Y-1239967D01*
X11474253Y-1239967D01*
X11498286Y-1235186D01*
X11520923Y-1225810D01*
X11534691Y-1218451D01*
X11541705Y-1216323D01*
X11555140Y-1215000D01*
X11868860Y-1215000D01*
X11882295Y-1216323D01*
X11889309Y-1218451D01*
X11903077Y-1225810D01*
X11925716Y-1235187D01*
X11949749Y-1239967D01*
X11974253Y-1239967D01*
X11998286Y-1235186D01*
X12020923Y-1225810D01*
X12034691Y-1218451D01*
X12041705Y-1216323D01*
X12055140Y-1215000D01*
X12368860Y-1215000D01*
X12382295Y-1216323D01*
X12389309Y-1218451D01*
X12403077Y-1225810D01*
X12425716Y-1235187D01*
X12449749Y-1239967D01*
X12474253Y-1239967D01*
X12498286Y-1235186D01*
X12520923Y-1225810D01*
X12534691Y-1218451D01*
X12541705Y-1216323D01*
X12555140Y-1215000D01*
X12868860Y-1215000D01*
X12882295Y-1216323D01*
X12889309Y-1218451D01*
X12903077Y-1225810D01*
X12925716Y-1235187D01*
X12949749Y-1239967D01*
X12974253Y-1239967D01*
X12998286Y-1235186D01*
X13020923Y-1225810D01*
X13034691Y-1218451D01*
X13041705Y-1216323D01*
X13055140Y-1215000D01*
X13368860Y-1215000D01*
X13382295Y-1216323D01*
X13389309Y-1218451D01*
X13403077Y-1225810D01*
X13425716Y-1235187D01*
X13449749Y-1239967D01*
X13474253Y-1239967D01*
X13498286Y-1235186D01*
X13520923Y-1225810D01*
X13534691Y-1218451D01*
X13541705Y-1216323D01*
X13555140Y-1215000D01*
X13868860Y-1215000D01*
X13882295Y-1216323D01*
X13889309Y-1218451D01*
X13903077Y-1225810D01*
X13925716Y-1235187D01*
X13949749Y-1239967D01*
X13974253Y-1239967D01*
X13998286Y-1235186D01*
X14020923Y-1225810D01*
X14034691Y-1218451D01*
X14041705Y-1216323D01*
X14055140Y-1215000D01*
X14368860Y-1215000D01*
X14382295Y-1216323D01*
X14389309Y-1218451D01*
X14403077Y-1225810D01*
X14425716Y-1235187D01*
X14449749Y-1239967D01*
X14474253Y-1239967D01*
X14498286Y-1235186D01*
X14520923Y-1225810D01*
X14534691Y-1218451D01*
X14541705Y-1216323D01*
X14555140Y-1215000D01*
X14868860Y-1215000D01*
X14882295Y-1216323D01*
X14889309Y-1218451D01*
X14903077Y-1225810D01*
X14925716Y-1235187D01*
X14949749Y-1239967D01*
X14974253Y-1239967D01*
X14998286Y-1235186D01*
X15020923Y-1225810D01*
X15034691Y-1218451D01*
X15041705Y-1216323D01*
X15055140Y-1215000D01*
X15368860Y-1215000D01*
X15382295Y-1216323D01*
X15389309Y-1218451D01*
X15403077Y-1225810D01*
X15425716Y-1235187D01*
X15449749Y-1239967D01*
X15474253Y-1239967D01*
X15498286Y-1235186D01*
X15520923Y-1225810D01*
X15534691Y-1218451D01*
X15541705Y-1216323D01*
X15555140Y-1215000D01*
X15868860Y-1215000D01*
X15882295Y-1216323D01*
X15889309Y-1218451D01*
X15903077Y-1225810D01*
X15925716Y-1235187D01*
X15949749Y-1239967D01*
X15974253Y-1239967D01*
X15998286Y-1235186D01*
X16020923Y-1225810D01*
X16034691Y-1218451D01*
X16041705Y-1216323D01*
X16055140Y-1215000D01*
X16368860Y-1215000D01*
X16382295Y-1216323D01*
X16389310Y-1218451D01*
X16395776Y-1221908D01*
X16401442Y-1226558D01*
X16406092Y-1232224D01*
X16409549Y-1238690D01*
X16411677Y-1245705D01*
X16413000Y-1259140D01*
X16413000Y-2747860D01*
X16411677Y-2761295D01*
X16409549Y-2768310D01*
X16406092Y-2774776D01*
X16401442Y-2780442D01*
X16395776Y-2785092D01*
X16389310Y-2788549D01*
X16382295Y-2790677D01*
X16368860Y-2792000D01*
X16055140Y-2792000D01*
X16041705Y-2790677D01*
X16034691Y-2788549D01*
X16020923Y-2781190D01*
X15998284Y-2771813D01*
X15974251Y-2767033D01*
X15949747Y-2767033D01*
X15925714Y-2771814D01*
X15903077Y-2781190D01*
X15889309Y-2788549D01*
X15882295Y-2790677D01*
X15868860Y-2792000D01*
X15555140Y-2792000D01*
X15541705Y-2790677D01*
X15534691Y-2788549D01*
X15520923Y-2781190D01*
X15498284Y-2771813D01*
X15474251Y-2767033D01*
X15449747Y-2767033D01*
X15425714Y-2771814D01*
X15403077Y-2781190D01*
X15389309Y-2788549D01*
X15382295Y-2790677D01*
X15368860Y-2792000D01*
X15055140Y-2792000D01*
X15041705Y-2790677D01*
X15034691Y-2788549D01*
X15020923Y-2781190D01*
X14998284Y-2771813D01*
X14974251Y-2767033D01*
X14949747Y-2767033D01*
X14925714Y-2771814D01*
X14903077Y-2781190D01*
X14889309Y-2788549D01*
X14882295Y-2790677D01*
X14868860Y-2792000D01*
X14555140Y-2792000D01*
X14541705Y-2790677D01*
X14534691Y-2788549D01*
X14520923Y-2781190D01*
X14498284Y-2771813D01*
X14474251Y-2767033D01*
X14449747Y-2767033D01*
X14425714Y-2771814D01*
X14403077Y-2781190D01*
X14389309Y-2788549D01*
X14382295Y-2790677D01*
X14368860Y-2792000D01*
X14055140Y-2792000D01*
X14041705Y-2790677D01*
X14034691Y-2788549D01*
X14020923Y-2781190D01*
X13998284Y-2771813D01*
X13974251Y-2767033D01*
X13949747Y-2767033D01*
X13925714Y-2771814D01*
X13903077Y-2781190D01*
X13889309Y-2788549D01*
X13882295Y-2790677D01*
X13868860Y-2792000D01*
X13555140Y-2792000D01*
X13541705Y-2790677D01*
X13534691Y-2788549D01*
X13520923Y-2781190D01*
X13498284Y-2771813D01*
X13474251Y-2767033D01*
X13449747Y-2767033D01*
X13425714Y-2771814D01*
X13403077Y-2781190D01*
X13389309Y-2788549D01*
X13382295Y-2790677D01*
X13368860Y-2792000D01*
X13055140Y-2792000D01*
X13041705Y-2790677D01*
X13034691Y-2788549D01*
X13020923Y-2781190D01*
X12998284Y-2771813D01*
X12974251Y-2767033D01*
X12949747Y-2767033D01*
X12925714Y-2771814D01*
X12903077Y-2781190D01*
X12889309Y-2788549D01*
X12882295Y-2790677D01*
X12868860Y-2792000D01*
X12555140Y-2792000D01*
X12541705Y-2790677D01*
X12534691Y-2788549D01*
X12520923Y-2781190D01*
X12498284Y-2771813D01*
X12474251Y-2767033D01*
X12449747Y-2767033D01*
X12425714Y-2771814D01*
X12403077Y-2781190D01*
X12389309Y-2788549D01*
X12382295Y-2790677D01*
X12368860Y-2792000D01*
X12055140Y-2792000D01*
X12041705Y-2790677D01*
X12034691Y-2788549D01*
X12020923Y-2781190D01*
X11998284Y-2771813D01*
X11974251Y-2767033D01*
X11949747Y-2767033D01*
X11925714Y-2771814D01*
X11903077Y-2781190D01*
X11889309Y-2788549D01*
X11882295Y-2790677D01*
X11868860Y-2792000D01*
X11555140Y-2792000D01*
X11541705Y-2790677D01*
X11534691Y-2788549D01*
X11520923Y-2781190D01*
X11498284Y-2771813D01*
X11474251Y-2767033D01*
X11449747Y-2767033D01*
X11425714Y-2771814D01*
X11403077Y-2781190D01*
X11389309Y-2788549D01*
X11382295Y-2790677D01*
X11368860Y-2792000D01*
X11055140Y-2792000D01*
X11041705Y-2790677D01*
X11034691Y-2788549D01*
X11020923Y-2781190D01*
X10998284Y-2771813D01*
X10974251Y-2767033D01*
X10949747Y-2767033D01*
X10925714Y-2771814D01*
X10903077Y-2781190D01*
X10889309Y-2788549D01*
X10882295Y-2790677D01*
X10868860Y-2792000D01*
X10555140Y-2792000D01*
X10541705Y-2790677D01*
X10534690Y-2788549D01*
X10528224Y-2785092D01*
X10522558Y-2780442D01*
X10517908Y-2774776D01*
X10514451Y-2768310D01*
X10512323Y-2761295D01*
X10511000Y-2747860D01*
X10511000Y-1259140D01*
X10512323Y-1245705D01*
X10514451Y-1238690D01*
X10517908Y-1232224D01*
X10522558Y-1226558D01*
X10528224Y-1221908D01*
X10534690Y-1218451D01*
X10541705Y-1216323D01*
X10555140Y-1215000D01*
X10868860Y-1215000D01*
X10882295Y-1216323D01*
G37*
G36*
X-1094645Y2399917D02*
G01*
X-1089971Y2398499D01*
X-1085670Y2396200D01*
X-1079298Y2390971D01*
X-1058924Y2377357D01*
X-1036285Y2367980D01*
X-1012251Y2363200D01*
X-987747Y2363200D01*
X-963714Y2367981D01*
X-941075Y2377358D01*
X-920702Y2390971D01*
X-914330Y2396200D01*
X-910029Y2398499D01*
X-905355Y2399917D01*
X-894359Y2401000D01*
X-605641Y2401000D01*
X-594645Y2399917D01*
X-589971Y2398499D01*
X-585670Y2396200D01*
X-579298Y2390971D01*
X-558924Y2377357D01*
X-536285Y2367980D01*
X-512251Y2363200D01*
X-487747Y2363200D01*
X-463714Y2367981D01*
X-441075Y2377358D01*
X-420702Y2390971D01*
X-414330Y2396200D01*
X-410029Y2398499D01*
X-405355Y2399917D01*
X-394359Y2401000D01*
X-105641Y2401000D01*
X-94645Y2399917D01*
X-89971Y2398499D01*
X-85670Y2396200D01*
X-79298Y2390971D01*
X-58924Y2377357D01*
X-36285Y2367980D01*
X-12251Y2363200D01*
X12253Y2363200D01*
X36286Y2367981D01*
X58925Y2377358D01*
X79298Y2390971D01*
X85670Y2396200D01*
X89971Y2398499D01*
X94645Y2399917D01*
X105641Y2401000D01*
X394359Y2401000D01*
X405355Y2399917D01*
X410029Y2398499D01*
X414330Y2396200D01*
X420702Y2390971D01*
X441076Y2377357D01*
X463715Y2367980D01*
X487749Y2363200D01*
X512253Y2363200D01*
X536286Y2367981D01*
X558925Y2377358D01*
X579298Y2390971D01*
X585670Y2396200D01*
X589971Y2398499D01*
X594645Y2399917D01*
X605641Y2401000D01*
X894359Y2401000D01*
X905355Y2399917D01*
X910029Y2398499D01*
X914330Y2396200D01*
X920702Y2390971D01*
X941076Y2377357D01*
X963715Y2367980D01*
X987749Y2363200D01*
X1012253Y2363200D01*
X1036286Y2367981D01*
X1058925Y2377358D01*
X1079298Y2390971D01*
X1085670Y2396200D01*
X1089971Y2398499D01*
X1094645Y2399917D01*
X1105641Y2401000D01*
X1394359Y2401000D01*
X1405355Y2399917D01*
X1410029Y2398499D01*
X1414331Y2396200D01*
X1418104Y2393104D01*
X1421200Y2389331D01*
X1423499Y2385029D01*
X1424917Y2380355D01*
X1426000Y2369359D01*
X1426000Y1550999D01*
X1428402Y1526613D01*
X1435515Y1503164D01*
X1447066Y1481553D01*
X1462611Y1462611D01*
X1481553Y1447066D01*
X1503164Y1435515D01*
X1526613Y1428402D01*
X1550999Y1426000D01*
X2369359Y1426000D01*
X2380355Y1424917D01*
X2385029Y1423499D01*
X2389331Y1421200D01*
X2393104Y1418104D01*
X2396200Y1414331D01*
X2398499Y1410029D01*
X2399917Y1405355D01*
X2401000Y1394359D01*
X2401000Y1105641D01*
X2399917Y1094645D01*
X2398499Y1089971D01*
X2396200Y1085670D01*
X2390971Y1079298D01*
X2377357Y1058924D01*
X2367980Y1036285D01*
X2363200Y1012251D01*
X2363200Y987747D01*
X2367981Y963714D01*
X2377358Y941075D01*
X2390971Y920702D01*
X2396200Y914330D01*
X2398499Y910029D01*
X2399917Y905355D01*
X2401000Y894359D01*
X2401000Y605641D01*
X2399917Y594645D01*
X2398499Y589971D01*
X2396200Y585670D01*
X2390971Y579298D01*
X2377357Y558924D01*
X2367980Y536285D01*
X2363200Y512251D01*
X2363200Y487747D01*
X2367981Y463714D01*
X2377358Y441075D01*
X2390971Y420702D01*
X2396200Y414330D01*
X2398499Y410029D01*
X2399917Y405355D01*
X2401000Y394359D01*
X2401000Y105641D01*
X2399917Y94645D01*
X2398499Y89971D01*
X2396200Y85670D01*
X2390971Y79298D01*
X2377357Y58924D01*
X2367980Y36285D01*
X2363200Y12251D01*
X2363200Y-12253D01*
X2367981Y-36286D01*
X2377358Y-58925D01*
X2390971Y-79298D01*
X2396200Y-85670D01*
X2398499Y-89971D01*
X2399917Y-94645D01*
X2401000Y-105641D01*
X2401000Y-394359D01*
X2399917Y-405355D01*
X2398499Y-410029D01*
X2396200Y-414330D01*
X2390971Y-420702D01*
X2377357Y-441076D01*
X2367980Y-463715D01*
X2363200Y-487749D01*
X2363200Y-512253D01*
X2367981Y-536286D01*
X2377358Y-558925D01*
X2390971Y-579298D01*
X2396200Y-585670D01*
X2398499Y-589971D01*
X2399917Y-594645D01*
X2401000Y-605641D01*
X2401000Y-894359D01*
X2399917Y-905355D01*
X2398499Y-910029D01*
X2396200Y-914330D01*
X2390971Y-920702D01*
X2377357Y-941076D01*
X2367980Y-963715D01*
X2363200Y-987749D01*
X2363200Y-1012253D01*
X2367981Y-1036286D01*
X2377358Y-1058925D01*
X2390971Y-1079298D01*
X2396200Y-1085670D01*
X2398499Y-1089971D01*
X2399917Y-1094645D01*
X2401000Y-1105641D01*
X2401000Y-1394359D01*
X2399917Y-1405355D01*
X2398499Y-1410029D01*
X2396200Y-1414331D01*
X2393104Y-1418104D01*
X2389331Y-1421200D01*
X2385029Y-1423499D01*
X2380355Y-1424917D01*
X2369359Y-1426000D01*
X1550999Y-1426000D01*
X1526613Y-1428402D01*
X1503164Y-1435515D01*
X1481553Y-1447066D01*
X1462611Y-1462611D01*
X1447066Y-1481553D01*
X1435515Y-1503164D01*
X1428402Y-1526613D01*
X1426000Y-1550999D01*
X1426000Y-2369359D01*
X1424917Y-2380355D01*
X1423499Y-2385029D01*
X1421200Y-2389331D01*
X1418104Y-2393104D01*
X1414331Y-2396200D01*
X1410029Y-2398499D01*
X1405355Y-2399917D01*
X1394359Y-2401000D01*
X1105641Y-2401000D01*
X1094645Y-2399917D01*
X1089971Y-2398499D01*
X1085670Y-2396200D01*
X1079298Y-2390971D01*
X1058924Y-2377357D01*
X1036285Y-2367980D01*
X1012251Y-2363200D01*
X987747Y-2363200D01*
X963714Y-2367981D01*
X941075Y-2377358D01*
X920702Y-2390971D01*
X914330Y-2396200D01*
X910029Y-2398499D01*
X905355Y-2399917D01*
X894359Y-2401000D01*
X605641Y-2401000D01*
X594645Y-2399917D01*
X589971Y-2398499D01*
X585670Y-2396200D01*
X579298Y-2390971D01*
X558924Y-2377357D01*
X536285Y-2367980D01*
X512251Y-2363200D01*
X487747Y-2363200D01*
X463714Y-2367981D01*
X441075Y-2377358D01*
X420702Y-2390971D01*
X414330Y-2396200D01*
X410029Y-2398499D01*
X405355Y-2399917D01*
X394359Y-2401000D01*
X105641Y-2401000D01*
X94645Y-2399917D01*
X89971Y-2398499D01*
X85670Y-2396200D01*
X79298Y-2390971D01*
X58924Y-2377357D01*
X36285Y-2367980D01*
X12251Y-2363200D01*
X-12253Y-2363200D01*
X-36286Y-2367981D01*
X-58925Y-2377358D01*
X-79298Y-2390971D01*
X-85670Y-2396200D01*
X-89971Y-2398499D01*
X-94645Y-2399917D01*
X-105641Y-2401000D01*
X-394359Y-2401000D01*
X-405355Y-2399917D01*
X-410029Y-2398499D01*
X-414330Y-2396200D01*
X-420702Y-2390971D01*
X-441076Y-2377357D01*
X-463715Y-2367980D01*
X-487749Y-2363200D01*
X-512253Y-2363200D01*
X-536286Y-2367981D01*
X-558925Y-2377358D01*
X-579298Y-2390971D01*
X-585670Y-2396200D01*
X-589971Y-2398499D01*
X-594645Y-2399917D01*
X-605641Y-2401000D01*
X-894359Y-2401000D01*
X-905355Y-2399917D01*
X-910029Y-2398499D01*
X-914330Y-2396200D01*
X-920702Y-2390971D01*
X-941076Y-2377357D01*
X-963715Y-2367980D01*
X-987749Y-2363200D01*
X-1012253Y-2363200D01*
X-1036286Y-2367981D01*
X-1058925Y-2377358D01*
X-1079298Y-2390971D01*
X-1085670Y-2396200D01*
X-1089971Y-2398499D01*
X-1094645Y-2399917D01*
X-1105641Y-2401000D01*
X-1394359Y-2401000D01*
X-1405355Y-2399917D01*
X-1410029Y-2398499D01*
X-1414331Y-2396200D01*
X-1418104Y-2393104D01*
X-1421200Y-2389331D01*
X-1423499Y-2385029D01*
X-1424917Y-2380355D01*
X-1426000Y-2369359D01*
X-1426000Y-1550999D01*
X-1428402Y-1526613D01*
X-1435515Y-1503164D01*
X-1447066Y-1481553D01*
X-1462611Y-1462611D01*
X-1481553Y-1447066D01*
X-1503164Y-1435515D01*
X-1526613Y-1428402D01*
X-1550999Y-1426000D01*
X-2369359Y-1426000D01*
X-2380355Y-1424917D01*
X-2385029Y-1423499D01*
X-2389331Y-1421200D01*
X-2393104Y-1418104D01*
X-2396200Y-1414331D01*
X-2398499Y-1410029D01*
X-2399917Y-1405355D01*
X-2401000Y-1394359D01*
X-2401000Y-1105641D01*
X-2399917Y-1094645D01*
X-2398499Y-1089971D01*
X-2396200Y-1085670D01*
X-2390971Y-1079298D01*
X-2377357Y-1058924D01*
X-2367980Y-1036285D01*
X-2363200Y-1012251D01*
X-2363200Y-987747D01*
X-2367981Y-963714D01*
X-2377358Y-941075D01*
X-2390971Y-920702D01*
X-2396200Y-914330D01*
X-2398499Y-910029D01*
X-2399917Y-905355D01*
X-2401000Y-894359D01*
X-2401000Y-605641D01*
X-2399917Y-594645D01*
X-2398499Y-589971D01*
X-2396200Y-585670D01*
X-2390971Y-579298D01*
X-2377357Y-558924D01*
X-2367980Y-536285D01*
X-2363200Y-512251D01*
X-2363200Y-487747D01*
X-2367981Y-463714D01*
X-2377358Y-441075D01*
X-2390971Y-420702D01*
X-2396200Y-414330D01*
X-2398499Y-410029D01*
X-2399917Y-405355D01*
X-2401000Y-394359D01*
X-2401000Y-105641D01*
X-2399917Y-94645D01*
X-2398499Y-89971D01*
X-2396200Y-85670D01*
X-2390971Y-79298D01*
X-2377357Y-58924D01*
X-2367980Y-36285D01*
X-2363200Y-12251D01*
X-2363200Y12253D01*
X-2367981Y36286D01*
X-2377358Y58925D01*
X-2390971Y79298D01*
X-2396200Y85670D01*
X-2398499Y89971D01*
X-2399917Y94645D01*
X-2401000Y105641D01*
X-2401000Y394359D01*
X-2399917Y405355D01*
X-2398499Y410029D01*
X-2396200Y414330D01*
X-2390971Y420702D01*
X-2377357Y441076D01*
X-2367980Y463715D01*
X-2363200Y487749D01*
X-2363200Y512253D01*
X-2367981Y536286D01*
X-2377358Y558925D01*
X-2390971Y579298D01*
X-2396200Y585670D01*
X-2398499Y589971D01*
X-2399917Y594645D01*
X-2401000Y605641D01*
X-2401000Y894359D01*
X-2399917Y905355D01*
X-2398499Y910029D01*
X-2396200Y914330D01*
X-2390971Y920702D01*
X-2377357Y941076D01*
X-2367980Y963715D01*
X-2363200Y987749D01*
X-2363200Y1012253D01*
X-2367981Y1036286D01*
X-2377358Y1058925D01*
X-2390971Y1079298D01*
X-2396200Y1085670D01*
X-2398499Y1089971D01*
X-2399917Y1094645D01*
X-2401000Y1105641D01*
X-2401000Y1394359D01*
X-2399917Y1405355D01*
X-2398499Y1410029D01*
X-2396200Y1414331D01*
X-2393104Y1418104D01*
X-2389331Y1421200D01*
X-2385029Y1423499D01*
X-2380355Y1424917D01*
X-2369359Y1426000D01*
X-1550999Y1426000D01*
X-1526613Y1428402D01*
X-1503164Y1435515D01*
X-1481553Y1447066D01*
X-1462611Y1462611D01*
X-1447066Y1481553D01*
X-1435515Y1503164D01*
X-1428402Y1526613D01*
X-1426000Y1550999D01*
X-1426000Y2369359D01*
X-1424917Y2380355D01*
X-1423499Y2385029D01*
X-1421200Y2389331D01*
X-1418104Y2393104D01*
X-1414331Y2396200D01*
X-1410029Y2398499D01*
X-1405355Y2399917D01*
X-1394359Y2401000D01*
X-1105641Y2401000D01*
X-1094645Y2399917D01*
G37*
G36*
X9171938Y-1330716D02*
G01*
X9192557Y-1336971D01*
X9211553Y-1347124D01*
X9228208Y-1360792D01*
X9241876Y-1377447D01*
X9252029Y-1396443D01*
X9258284Y-1417062D01*
X9261000Y-1444640D01*
X9261000Y-1903360D01*
X9258284Y-1930938D01*
X9252029Y-1951557D01*
X9241876Y-1970553D01*
X9228208Y-1987208D01*
X9211553Y-2000876D01*
X9192557Y-2011029D01*
X9171938Y-2017284D01*
X9144360Y-2020000D01*
X8635640Y-2020000D01*
X8608062Y-2017284D01*
X8587443Y-2011029D01*
X8568447Y-2000876D01*
X8551792Y-1987208D01*
X8538124Y-1970553D01*
X8527971Y-1951557D01*
X8521716Y-1930938D01*
X8519000Y-1903360D01*
X8519000Y-1444640D01*
X8521716Y-1417062D01*
X8527971Y-1396443D01*
X8538124Y-1377447D01*
X8551792Y-1360792D01*
X8568447Y-1347124D01*
X8587443Y-1336971D01*
X8608062Y-1330716D01*
X8635640Y-1328000D01*
X9144360Y-1328000D01*
X9171938Y-1330716D01*
G37*
G36*
X30368730Y1610000D02*
G01*
X30481579Y1587553D01*
X30584716Y1544832D01*
X30761913Y1471435D01*
X30782042Y1463097D01*
X31052451Y1282415D01*
X31282415Y1052451D01*
X31425707Y838000D01*
X31463098Y782040D01*
X31483953Y731691D01*
X31587553Y481579D01*
X31595610Y441075D01*
X31651000Y162611D01*
X31651000Y-162611D01*
X31626784Y-284350D01*
X31587553Y-481579D01*
X31463097Y-782042D01*
X31282415Y-1052451D01*
X31052451Y-1282415D01*
X30782042Y-1463097D01*
X30782041Y-1463098D01*
X30782040Y-1463098D01*
X30719915Y-1488831D01*
X30481579Y-1587553D01*
X30377739Y-1608208D01*
X30162611Y-1651000D01*
X29837389Y-1651000D01*
X29622261Y-1608208D01*
X29518421Y-1587553D01*
X29280085Y-1488831D01*
X29217960Y-1463098D01*
X29217959Y-1463098D01*
X29217958Y-1463097D01*
X28947549Y-1282415D01*
X28717585Y-1052451D01*
X28536903Y-782042D01*
X28412447Y-481579D01*
X28373216Y-284350D01*
X28349000Y-162611D01*
X28349000Y162611D01*
X28404390Y441075D01*
X28412447Y481579D01*
X28516047Y731691D01*
X28536902Y782040D01*
X28574293Y838000D01*
X28717585Y1052451D01*
X28947549Y1282415D01*
X29217958Y1463097D01*
X29238088Y1471435D01*
X29415284Y1544832D01*
X29518421Y1587553D01*
X29631270Y1610000D01*
X29837389Y1651000D01*
X30162611Y1651000D01*
X30368730Y1610000D01*
G37*
G36*
X-29631270Y1610000D02*
G01*
X-29518421Y1587553D01*
X-29415284Y1544832D01*
X-29238087Y1471435D01*
X-29217958Y1463097D01*
X-28947549Y1282415D01*
X-28717585Y1052451D01*
X-28574293Y838000D01*
X-28536902Y782040D01*
X-28516047Y731691D01*
X-28412447Y481579D01*
X-28404390Y441075D01*
X-28349000Y162611D01*
X-28349000Y-162611D01*
X-28373216Y-284350D01*
X-28412447Y-481579D01*
X-28536903Y-782042D01*
X-28717585Y-1052451D01*
X-28947549Y-1282415D01*
X-29217958Y-1463097D01*
X-29217959Y-1463098D01*
X-29217960Y-1463098D01*
X-29280085Y-1488831D01*
X-29518421Y-1587553D01*
X-29622261Y-1608208D01*
X-29837389Y-1651000D01*
X-30162611Y-1651000D01*
X-30377739Y-1608208D01*
X-30481579Y-1587553D01*
X-30719915Y-1488831D01*
X-30782040Y-1463098D01*
X-30782041Y-1463098D01*
X-30782042Y-1463097D01*
X-31052451Y-1282415D01*
X-31282415Y-1052451D01*
X-31463097Y-782042D01*
X-31587553Y-481579D01*
X-31626784Y-284350D01*
X-31651000Y-162611D01*
X-31651000Y162611D01*
X-31595610Y441075D01*
X-31587553Y481579D01*
X-31483953Y731691D01*
X-31463098Y782040D01*
X-31425707Y838000D01*
X-31282415Y1052451D01*
X-31052451Y1282415D01*
X-30782042Y1463097D01*
X-30761912Y1471435D01*
X-30584716Y1544832D01*
X-30481579Y1587553D01*
X-30368730Y1610000D01*
X-30162611Y1651000D01*
X-29837389Y1651000D01*
X-29631270Y1610000D01*
G37*
G36*
X3581938Y-901716D02*
G01*
X3602557Y-907971D01*
X3621553Y-918124D01*
X3638208Y-931792D01*
X3651876Y-948447D01*
X3662029Y-967443D01*
X3668284Y-988062D01*
X3671000Y-1015640D01*
X3671000Y-1524360D01*
X3668284Y-1551938D01*
X3662029Y-1572557D01*
X3651876Y-1591553D01*
X3638208Y-1608208D01*
X3621553Y-1621876D01*
X3602557Y-1632029D01*
X3581938Y-1638284D01*
X3554360Y-1641000D01*
X3095640Y-1641000D01*
X3068062Y-1638284D01*
X3047443Y-1632029D01*
X3028447Y-1621876D01*
X3011792Y-1608208D01*
X2998124Y-1591553D01*
X2987971Y-1572557D01*
X2981716Y-1551938D01*
X2979000Y-1524360D01*
X2979000Y-1015640D01*
X2981716Y-988062D01*
X2987971Y-967443D01*
X2998124Y-948447D01*
X3011792Y-931792D01*
X3028447Y-918124D01*
X3047443Y-907971D01*
X3068062Y-901716D01*
X3095640Y-899000D01*
X3554360Y-899000D01*
X3581938Y-901716D01*
G37*
G36*
X4551938Y-901716D02*
G01*
X4572557Y-907971D01*
X4591553Y-918124D01*
X4608208Y-931792D01*
X4621876Y-948447D01*
X4632029Y-967443D01*
X4638284Y-988062D01*
X4641000Y-1015640D01*
X4641000Y-1524360D01*
X4638284Y-1551938D01*
X4632029Y-1572557D01*
X4621876Y-1591553D01*
X4608208Y-1608208D01*
X4591553Y-1621876D01*
X4572557Y-1632029D01*
X4551938Y-1638284D01*
X4524360Y-1641000D01*
X4065640Y-1641000D01*
X4038062Y-1638284D01*
X4017443Y-1632029D01*
X3998447Y-1621876D01*
X3981792Y-1608208D01*
X3968124Y-1591553D01*
X3957971Y-1572557D01*
X3951716Y-1551938D01*
X3949000Y-1524360D01*
X3949000Y-1015640D01*
X3951716Y-988062D01*
X3957971Y-967443D01*
X3968124Y-948447D01*
X3981792Y-931792D01*
X3998447Y-918124D01*
X4017443Y-907971D01*
X4038062Y-901716D01*
X4065640Y-899000D01*
X4524360Y-899000D01*
X4551938Y-901716D01*
G37*
G36*
X20584468Y-403565D02*
G01*
X20623138Y-415296D01*
X20658777Y-434346D01*
X20690017Y-459983D01*
X20715654Y-491223D01*
X20734704Y-526862D01*
X20746435Y-565532D01*
X20751000Y-611888D01*
X20751000Y-1263112D01*
X20746435Y-1309468D01*
X20734704Y-1348138D01*
X20715654Y-1383777D01*
X20690017Y-1415017D01*
X20658777Y-1440654D01*
X20623138Y-1459704D01*
X20584468Y-1471435D01*
X20538112Y-1476000D01*
X19461888Y-1476000D01*
X19415532Y-1471435D01*
X19376862Y-1459704D01*
X19341223Y-1440654D01*
X19309983Y-1415017D01*
X19284346Y-1383777D01*
X19265296Y-1348138D01*
X19253565Y-1309468D01*
X19249000Y-1263112D01*
X19249000Y-611888D01*
X19253565Y-565532D01*
X19265296Y-526862D01*
X19284346Y-491223D01*
X19309983Y-459983D01*
X19341223Y-434346D01*
X19376862Y-415296D01*
X19415532Y-403565D01*
X19461888Y-399000D01*
X20538112Y-399000D01*
X20584468Y-403565D01*
G37*
G36*
X-19415532Y-403565D02*
G01*
X-19376862Y-415296D01*
X-19341223Y-434346D01*
X-19309983Y-459983D01*
X-19284346Y-491223D01*
X-19265296Y-526862D01*
X-19253565Y-565532D01*
X-19249000Y-611888D01*
X-19249000Y-1263112D01*
X-19253565Y-1309468D01*
X-19265296Y-1348138D01*
X-19284346Y-1383777D01*
X-19309983Y-1415017D01*
X-19341223Y-1440654D01*
X-19376862Y-1459704D01*
X-19415532Y-1471435D01*
X-19461888Y-1476000D01*
X-20538112Y-1476000D01*
X-20584468Y-1471435D01*
X-20623138Y-1459704D01*
X-20658777Y-1440654D01*
X-20690017Y-1415017D01*
X-20715654Y-1383777D01*
X-20734704Y-1348138D01*
X-20746435Y-1309468D01*
X-20751000Y-1263112D01*
X-20751000Y-611888D01*
X-20746435Y-565532D01*
X-20734704Y-526862D01*
X-20715654Y-491223D01*
X-20690017Y-459983D01*
X-20658777Y-434346D01*
X-20623138Y-415296D01*
X-20584468Y-403565D01*
X-20538112Y-399000D01*
X-19461888Y-399000D01*
X-19415532Y-403565D01*
G37*
G36*
X10057295Y5108677D02*
G01*
X10064310Y5106549D01*
X10070776Y5103092D01*
X10076442Y5098442D01*
X10081092Y5092776D01*
X10084549Y5086310D01*
X10086677Y5079295D01*
X10088000Y5065860D01*
X10088000Y4752140D01*
X10086677Y4738705D01*
X10084549Y4731691D01*
X10077190Y4717923D01*
X10067813Y4695284D01*
X10063033Y4671251D01*
X10063033Y4646747D01*
X10067814Y4622714D01*
X10077190Y4600077D01*
X10084549Y4586309D01*
X10086677Y4579295D01*
X10088000Y4565860D01*
X10088000Y4252140D01*
X10086677Y4238705D01*
X10084549Y4231691D01*
X10077190Y4217923D01*
X10067813Y4195284D01*
X10063033Y4171251D01*
X10063033Y4146747D01*
X10067814Y4122714D01*
X10077190Y4100077D01*
X10084549Y4086309D01*
X10086677Y4079295D01*
X10088000Y4065860D01*
X10088000Y3752140D01*
X10086677Y3738705D01*
X10084549Y3731691D01*
X10077190Y3717923D01*
X10067813Y3695284D01*
X10063033Y3671251D01*
X10063033Y3646747D01*
X10067814Y3622714D01*
X10077190Y3600077D01*
X10084549Y3586309D01*
X10086677Y3579295D01*
X10088000Y3565860D01*
X10088000Y3252140D01*
X10086677Y3238705D01*
X10084549Y3231691D01*
X10077190Y3217923D01*
X10067813Y3195284D01*
X10063033Y3171251D01*
X10063033Y3146747D01*
X10067814Y3122714D01*
X10077190Y3100077D01*
X10084549Y3086309D01*
X10086677Y3079295D01*
X10088000Y3065860D01*
X10088000Y2752140D01*
X10086677Y2738705D01*
X10084549Y2731691D01*
X10077190Y2717923D01*
X10067813Y2695284D01*
X10063033Y2671251D01*
X10063033Y2646747D01*
X10067814Y2622714D01*
X10077190Y2600077D01*
X10084549Y2586309D01*
X10086677Y2579295D01*
X10088000Y2565860D01*
X10088000Y2252140D01*
X10086677Y2238705D01*
X10084549Y2231691D01*
X10077190Y2217923D01*
X10067813Y2195284D01*
X10063033Y2171251D01*
X10063033Y2146747D01*
X10067814Y2122714D01*
X10077190Y2100077D01*
X10084549Y2086309D01*
X10086677Y2079295D01*
X10088000Y2065860D01*
X10088000Y1752140D01*
X10086677Y1738705D01*
X10084549Y1731691D01*
X10077190Y1717923D01*
X10067813Y1695284D01*
X10063033Y1671251D01*
X10063033Y1646747D01*
X10067814Y1622714D01*
X10077190Y1600077D01*
X10084549Y1586309D01*
X10086677Y1579295D01*
X10088000Y1565860D01*
X10088000Y1252140D01*
X10086677Y1238705D01*
X10084549Y1231691D01*
X10077190Y1217923D01*
X10067813Y1195284D01*
X10063033Y1171251D01*
X10063033Y1146747D01*
X10067814Y1122714D01*
X10077190Y1100077D01*
X10084549Y1086309D01*
X10086677Y1079295D01*
X10088000Y1065860D01*
X10088000Y752140D01*
X10086677Y738705D01*
X10084549Y731691D01*
X10077190Y717923D01*
X10067813Y695284D01*
X10063033Y671251D01*
X10063033Y646747D01*
X10067814Y622714D01*
X10077190Y600077D01*
X10084549Y586309D01*
X10086677Y579295D01*
X10088000Y565860D01*
X10088000Y252140D01*
X10086677Y238705D01*
X10084549Y231691D01*
X10077190Y217923D01*
X10067813Y195284D01*
X10063033Y171251D01*
X10063033Y146747D01*
X10067814Y122714D01*
X10077190Y100077D01*
X10084549Y86309D01*
X10086677Y79295D01*
X10088000Y65860D01*
X10088000Y-247860D01*
X10086677Y-261295D01*
X10084549Y-268309D01*
X10077190Y-282077D01*
X10067813Y-304716D01*
X10063033Y-328749D01*
X10063033Y-353253D01*
X10067814Y-377286D01*
X10077190Y-399923D01*
X10084549Y-413691D01*
X10086677Y-420705D01*
X10088000Y-434140D01*
X10088000Y-747860D01*
X10086677Y-761295D01*
X10084549Y-768310D01*
X10081092Y-774776D01*
X10076442Y-780442D01*
X10070776Y-785092D01*
X10064310Y-788549D01*
X10057295Y-790677D01*
X10043860Y-792000D01*
X8555140Y-792000D01*
X8541705Y-790677D01*
X8534690Y-788549D01*
X8528224Y-785092D01*
X8522558Y-780442D01*
X8517908Y-774776D01*
X8514451Y-768310D01*
X8512323Y-761295D01*
X8511000Y-747860D01*
X8511000Y-434140D01*
X8512323Y-420705D01*
X8514451Y-413691D01*
X8521810Y-399923D01*
X8531187Y-377284D01*
X8535967Y-353251D01*
X8535967Y-328747D01*
X8531186Y-304714D01*
X8521810Y-282077D01*
X8514451Y-268309D01*
X8512323Y-261295D01*
X8511000Y-247860D01*
X8511000Y65860D01*
X8512323Y79295D01*
X8514451Y86309D01*
X8521810Y100077D01*
X8531187Y122716D01*
X8535967Y146749D01*
X8535967Y171253D01*
X8531186Y195286D01*
X8521810Y217923D01*
X8514451Y231691D01*
X8512323Y238705D01*
X8511000Y252140D01*
X8511000Y565860D01*
X8512323Y579295D01*
X8514451Y586309D01*
X8521810Y600077D01*
X8531187Y622716D01*
X8535967Y646749D01*
X8535967Y671253D01*
X8531186Y695286D01*
X8521810Y717923D01*
X8514451Y731691D01*
X8512323Y738705D01*
X8511000Y752140D01*
X8511000Y1065860D01*
X8512323Y1079295D01*
X8514451Y1086309D01*
X8521810Y1100077D01*
X8531187Y1122716D01*
X8535967Y1146749D01*
X8535967Y1171253D01*
X8531186Y1195286D01*
X8521810Y1217923D01*
X8514451Y1231691D01*
X8512323Y1238705D01*
X8511000Y1252140D01*
X8511000Y1565860D01*
X8512323Y1579295D01*
X8514451Y1586309D01*
X8521810Y1600077D01*
X8531187Y1622716D01*
X8535967Y1646749D01*
X8535967Y1671253D01*
X8531186Y1695286D01*
X8521810Y1717923D01*
X8514451Y1731691D01*
X8512323Y1738705D01*
X8511000Y1752140D01*
X8511000Y2065860D01*
X8512323Y2079295D01*
X8514451Y2086309D01*
X8521810Y2100077D01*
X8531187Y2122716D01*
X8535967Y2146749D01*
X8535967Y2171253D01*
X8531186Y2195286D01*
X8521810Y2217923D01*
X8514451Y2231691D01*
X8512323Y2238705D01*
X8511000Y2252140D01*
X8511000Y2565860D01*
X8512323Y2579295D01*
X8514451Y2586309D01*
X8521810Y2600077D01*
X8531187Y2622716D01*
X8535967Y2646749D01*
X8535967Y2671253D01*
X8531186Y2695286D01*
X8521810Y2717923D01*
X8514451Y2731691D01*
X8512323Y2738705D01*
X8511000Y2752140D01*
X8511000Y3065860D01*
X8512323Y3079295D01*
X8514451Y3086309D01*
X8521810Y3100077D01*
X8531187Y3122716D01*
X8535967Y3146749D01*
X8535967Y3171253D01*
X8531186Y3195286D01*
X8521810Y3217923D01*
X8514451Y3231691D01*
X8512323Y3238705D01*
X8511000Y3252140D01*
X8511000Y3565860D01*
X8512323Y3579295D01*
X8514451Y3586309D01*
X8521810Y3600077D01*
X8531187Y3622716D01*
X8535967Y3646749D01*
X8535967Y3671253D01*
X8531186Y3695286D01*
X8521810Y3717923D01*
X8514451Y3731691D01*
X8512323Y3738705D01*
X8511000Y3752140D01*
X8511000Y4065860D01*
X8512323Y4079295D01*
X8514451Y4086309D01*
X8521810Y4100077D01*
X8531187Y4122716D01*
X8535967Y4146749D01*
X8535967Y4171253D01*
X8531186Y4195286D01*
X8521810Y4217923D01*
X8514451Y4231691D01*
X8512323Y4238705D01*
X8511000Y4252140D01*
X8511000Y4565860D01*
X8512323Y4579295D01*
X8514451Y4586309D01*
X8521810Y4600077D01*
X8531187Y4622716D01*
X8535967Y4646749D01*
X8535967Y4671253D01*
X8531186Y4695286D01*
X8521810Y4717923D01*
X8514451Y4731691D01*
X8512323Y4738705D01*
X8511000Y4752140D01*
X8511000Y5065860D01*
X8512323Y5079295D01*
X8514451Y5086310D01*
X8517908Y5092776D01*
X8522558Y5098442D01*
X8528224Y5103092D01*
X8534690Y5106549D01*
X8541705Y5108677D01*
X8555140Y5110000D01*
X10043860Y5110000D01*
X10057295Y5108677D01*
G37*
G36*
X18382295Y5108677D02*
G01*
X18389310Y5106549D01*
X18395776Y5103092D01*
X18401442Y5098442D01*
X18406092Y5092776D01*
X18409549Y5086310D01*
X18411677Y5079295D01*
X18413000Y5065860D01*
X18413000Y4752140D01*
X18411677Y4738705D01*
X18409549Y4731691D01*
X18402190Y4717923D01*
X18392813Y4695284D01*
X18388033Y4671251D01*
X18388033Y4646747D01*
X18392814Y4622714D01*
X18402190Y4600077D01*
X18409549Y4586309D01*
X18411677Y4579295D01*
X18413000Y4565860D01*
X18413000Y4252140D01*
X18411677Y4238705D01*
X18409549Y4231691D01*
X18402190Y4217923D01*
X18392813Y4195284D01*
X18388033Y4171251D01*
X18388033Y4146747D01*
X18392814Y4122714D01*
X18402190Y4100077D01*
X18409549Y4086309D01*
X18411677Y4079295D01*
X18413000Y4065860D01*
X18413000Y3752140D01*
X18411677Y3738705D01*
X18409549Y3731691D01*
X18402190Y3717923D01*
X18392813Y3695284D01*
X18388033Y3671251D01*
X18388033Y3646747D01*
X18392814Y3622714D01*
X18402190Y3600077D01*
X18409549Y3586309D01*
X18411677Y3579295D01*
X18413000Y3565860D01*
X18413000Y3252140D01*
X18411677Y3238705D01*
X18409549Y3231691D01*
X18402190Y3217923D01*
X18392813Y3195284D01*
X18388033Y3171251D01*
X18388033Y3146747D01*
X18392814Y3122714D01*
X18402190Y3100077D01*
X18409549Y3086309D01*
X18411677Y3079295D01*
X18413000Y3065860D01*
X18413000Y2752140D01*
X18411677Y2738705D01*
X18409549Y2731691D01*
X18402190Y2717923D01*
X18392813Y2695284D01*
X18388033Y2671251D01*
X18388033Y2646747D01*
X18392814Y2622714D01*
X18402190Y2600077D01*
X18409549Y2586309D01*
X18411677Y2579295D01*
X18413000Y2565860D01*
X18413000Y2252140D01*
X18411677Y2238705D01*
X18409549Y2231691D01*
X18402190Y2217923D01*
X18392813Y2195284D01*
X18388033Y2171251D01*
X18388033Y2146747D01*
X18392814Y2122714D01*
X18402190Y2100077D01*
X18409549Y2086309D01*
X18411677Y2079295D01*
X18413000Y2065860D01*
X18413000Y1752140D01*
X18411677Y1738705D01*
X18409549Y1731691D01*
X18402190Y1717923D01*
X18392813Y1695284D01*
X18388033Y1671251D01*
X18388033Y1646747D01*
X18392814Y1622714D01*
X18402190Y1600077D01*
X18409549Y1586309D01*
X18411677Y1579295D01*
X18413000Y1565860D01*
X18413000Y1252140D01*
X18411677Y1238705D01*
X18409549Y1231691D01*
X18402190Y1217923D01*
X18392813Y1195284D01*
X18388033Y1171251D01*
X18388033Y1146747D01*
X18392814Y1122714D01*
X18402190Y1100077D01*
X18409549Y1086309D01*
X18411677Y1079295D01*
X18413000Y1065860D01*
X18413000Y752140D01*
X18411677Y738705D01*
X18409549Y731691D01*
X18402190Y717923D01*
X18392813Y695284D01*
X18388033Y671251D01*
X18388033Y646747D01*
X18392814Y622714D01*
X18402190Y600077D01*
X18409549Y586309D01*
X18411677Y579295D01*
X18413000Y565860D01*
X18413000Y252140D01*
X18411677Y238705D01*
X18409549Y231691D01*
X18402190Y217923D01*
X18392813Y195284D01*
X18388033Y171251D01*
X18388033Y146747D01*
X18392814Y122714D01*
X18402190Y100077D01*
X18409549Y86309D01*
X18411677Y79295D01*
X18413000Y65860D01*
X18413000Y-247860D01*
X18411677Y-261295D01*
X18409549Y-268309D01*
X18402190Y-282077D01*
X18392813Y-304716D01*
X18388033Y-328749D01*
X18388033Y-353253D01*
X18392814Y-377286D01*
X18402190Y-399923D01*
X18409549Y-413691D01*
X18411677Y-420705D01*
X18413000Y-434140D01*
X18413000Y-747860D01*
X18411677Y-761295D01*
X18409549Y-768310D01*
X18406092Y-774776D01*
X18401442Y-780442D01*
X18395776Y-785092D01*
X18389310Y-788549D01*
X18382295Y-790677D01*
X18368860Y-792000D01*
X16880140Y-792000D01*
X16866705Y-790677D01*
X16859690Y-788549D01*
X16853224Y-785092D01*
X16847558Y-780442D01*
X16842908Y-774776D01*
X16839451Y-768310D01*
X16837323Y-761295D01*
X16836000Y-747860D01*
X16836000Y-434140D01*
X16837323Y-420705D01*
X16839451Y-413691D01*
X16846810Y-399923D01*
X16856187Y-377284D01*
X16860967Y-353251D01*
X16860967Y-328747D01*
X16856186Y-304714D01*
X16846810Y-282077D01*
X16839451Y-268309D01*
X16837323Y-261295D01*
X16836000Y-247860D01*
X16836000Y65860D01*
X16837323Y79295D01*
X16839451Y86309D01*
X16846810Y100077D01*
X16856187Y122716D01*
X16860967Y146749D01*
X16860967Y171253D01*
X16856186Y195286D01*
X16846810Y217923D01*
X16839451Y231691D01*
X16837323Y238705D01*
X16836000Y252140D01*
X16836000Y565860D01*
X16837323Y579295D01*
X16839451Y586309D01*
X16846810Y600077D01*
X16856187Y622716D01*
X16860967Y646749D01*
X16860967Y671253D01*
X16856186Y695286D01*
X16846810Y717923D01*
X16839451Y731691D01*
X16837323Y738705D01*
X16836000Y752140D01*
X16836000Y1065860D01*
X16837323Y1079295D01*
X16839451Y1086309D01*
X16846810Y1100077D01*
X16856187Y1122716D01*
X16860967Y1146749D01*
X16860967Y1171253D01*
X16856186Y1195286D01*
X16846810Y1217923D01*
X16839451Y1231691D01*
X16837323Y1238705D01*
X16836000Y1252140D01*
X16836000Y1565860D01*
X16837323Y1579295D01*
X16839451Y1586309D01*
X16846810Y1600077D01*
X16856187Y1622716D01*
X16860967Y1646749D01*
X16860967Y1671253D01*
X16856186Y1695286D01*
X16846810Y1717923D01*
X16839451Y1731691D01*
X16837323Y1738705D01*
X16836000Y1752140D01*
X16836000Y2065860D01*
X16837323Y2079295D01*
X16839451Y2086309D01*
X16846810Y2100077D01*
X16856187Y2122716D01*
X16860967Y2146749D01*
X16860967Y2171253D01*
X16856186Y2195286D01*
X16846810Y2217923D01*
X16839451Y2231691D01*
X16837323Y2238705D01*
X16836000Y2252140D01*
X16836000Y2565860D01*
X16837323Y2579295D01*
X16839451Y2586309D01*
X16846810Y2600077D01*
X16856187Y2622716D01*
X16860967Y2646749D01*
X16860967Y2671253D01*
X16856186Y2695286D01*
X16846810Y2717923D01*
X16839451Y2731691D01*
X16837323Y2738705D01*
X16836000Y2752140D01*
X16836000Y3065860D01*
X16837323Y3079295D01*
X16839451Y3086309D01*
X16846810Y3100077D01*
X16856187Y3122716D01*
X16860967Y3146749D01*
X16860967Y3171253D01*
X16856186Y3195286D01*
X16846810Y3217923D01*
X16839451Y3231691D01*
X16837323Y3238705D01*
X16836000Y3252140D01*
X16836000Y3565860D01*
X16837323Y3579295D01*
X16839451Y3586309D01*
X16846810Y3600077D01*
X16856187Y3622716D01*
X16860967Y3646749D01*
X16860967Y3671253D01*
X16856186Y3695286D01*
X16846810Y3717923D01*
X16839451Y3731691D01*
X16837323Y3738705D01*
X16836000Y3752140D01*
X16836000Y4065860D01*
X16837323Y4079295D01*
X16839451Y4086309D01*
X16846810Y4100077D01*
X16856187Y4122716D01*
X16860967Y4146749D01*
X16860967Y4171253D01*
X16856186Y4195286D01*
X16846810Y4217923D01*
X16839451Y4231691D01*
X16837323Y4238705D01*
X16836000Y4252140D01*
X16836000Y4565860D01*
X16837323Y4579295D01*
X16839451Y4586309D01*
X16846810Y4600077D01*
X16856187Y4622716D01*
X16860967Y4646749D01*
X16860967Y4671253D01*
X16856186Y4695286D01*
X16846810Y4717923D01*
X16839451Y4731691D01*
X16837323Y4738705D01*
X16836000Y4752140D01*
X16836000Y5065860D01*
X16837323Y5079295D01*
X16839451Y5086310D01*
X16842908Y5092776D01*
X16847558Y5098442D01*
X16853224Y5103092D01*
X16859690Y5106549D01*
X16866705Y5108677D01*
X16880140Y5110000D01*
X18368860Y5110000D01*
X18382295Y5108677D01*
G37*
G36*
X-19415532Y1471435D02*
G01*
X-19376862Y1459704D01*
X-19341223Y1440654D01*
X-19309983Y1415017D01*
X-19284346Y1383777D01*
X-19265296Y1348138D01*
X-19253565Y1309468D01*
X-19249000Y1263112D01*
X-19249000Y611888D01*
X-19253565Y565532D01*
X-19265296Y526862D01*
X-19284346Y491223D01*
X-19309983Y459983D01*
X-19341223Y434346D01*
X-19376862Y415296D01*
X-19415532Y403565D01*
X-19461888Y399000D01*
X-20538112Y399000D01*
X-20584468Y403565D01*
X-20623138Y415296D01*
X-20658777Y434346D01*
X-20690017Y459983D01*
X-20715654Y491223D01*
X-20734704Y526862D01*
X-20746435Y565532D01*
X-20751000Y611888D01*
X-20751000Y1263112D01*
X-20746435Y1309468D01*
X-20734704Y1348138D01*
X-20715654Y1383777D01*
X-20690017Y1415017D01*
X-20658777Y1440654D01*
X-20623138Y1459704D01*
X-20584468Y1471435D01*
X-20538112Y1476000D01*
X-19461888Y1476000D01*
X-19415532Y1471435D01*
G37*
G36*
X20584468Y1471435D02*
G01*
X20623138Y1459704D01*
X20658777Y1440654D01*
X20690017Y1415017D01*
X20715654Y1383777D01*
X20734704Y1348138D01*
X20746435Y1309468D01*
X20751000Y1263112D01*
X20751000Y611888D01*
X20746435Y565532D01*
X20734704Y526862D01*
X20715654Y491223D01*
X20690017Y459983D01*
X20658777Y434346D01*
X20623138Y415296D01*
X20584468Y403565D01*
X20538112Y399000D01*
X19461888Y399000D01*
X19415532Y403565D01*
X19376862Y415296D01*
X19341223Y434346D01*
X19309983Y459983D01*
X19284346Y491223D01*
X19265296Y526862D01*
X19253565Y565532D01*
X19249000Y611888D01*
X19249000Y1263112D01*
X19253565Y1309468D01*
X19265296Y1348138D01*
X19284346Y1383777D01*
X19309983Y1415017D01*
X19341223Y1440654D01*
X19376862Y1459704D01*
X19415532Y1471435D01*
X19461888Y1476000D01*
X20538112Y1476000D01*
X20584468Y1471435D01*
G37*
G36*
X-6068062Y1763284D02*
G01*
X-6047443Y1757029D01*
X-6028447Y1746876D01*
X-6011792Y1733208D01*
X-5998124Y1716553D01*
X-5987971Y1697557D01*
X-5981716Y1676938D01*
X-5979000Y1649360D01*
X-5979000Y1190640D01*
X-5981716Y1163062D01*
X-5987971Y1142443D01*
X-5998124Y1123447D01*
X-6011792Y1106792D01*
X-6028447Y1093124D01*
X-6047443Y1082971D01*
X-6068062Y1076716D01*
X-6095640Y1074000D01*
X-6604360Y1074000D01*
X-6631938Y1076716D01*
X-6652557Y1082971D01*
X-6671553Y1093124D01*
X-6688208Y1106792D01*
X-6701876Y1123447D01*
X-6712029Y1142443D01*
X-6718284Y1163062D01*
X-6721000Y1190640D01*
X-6721000Y1649360D01*
X-6718284Y1676938D01*
X-6712029Y1697557D01*
X-6701876Y1716553D01*
X-6688208Y1733208D01*
X-6671553Y1746876D01*
X-6652557Y1757029D01*
X-6631938Y1763284D01*
X-6604360Y1766000D01*
X-6095640Y1766000D01*
X-6068062Y1763284D01*
G37*
G36*
X-4925062Y1763284D02*
G01*
X-4904443Y1757029D01*
X-4885447Y1746876D01*
X-4868792Y1733208D01*
X-4855124Y1716553D01*
X-4844971Y1697557D01*
X-4838716Y1676938D01*
X-4836000Y1649360D01*
X-4836000Y1190640D01*
X-4838716Y1163062D01*
X-4844971Y1142443D01*
X-4855124Y1123447D01*
X-4868792Y1106792D01*
X-4885447Y1093124D01*
X-4904443Y1082971D01*
X-4925062Y1076716D01*
X-4952640Y1074000D01*
X-5461360Y1074000D01*
X-5488938Y1076716D01*
X-5509557Y1082971D01*
X-5528553Y1093124D01*
X-5545208Y1106792D01*
X-5558876Y1123447D01*
X-5569029Y1142443D01*
X-5575284Y1163062D01*
X-5578000Y1190640D01*
X-5578000Y1649360D01*
X-5575284Y1676938D01*
X-5569029Y1697557D01*
X-5558876Y1716553D01*
X-5545208Y1733208D01*
X-5528553Y1746876D01*
X-5509557Y1757029D01*
X-5488938Y1763284D01*
X-5461360Y1766000D01*
X-4952640Y1766000D01*
X-4925062Y1763284D01*
G37*
G36*
X-11549000Y1367000D02*
G01*
X-18051000Y1367000D01*
X-18051000Y7269000D01*
X-11549000Y7269000D01*
X-11549000Y1367000D01*
G37*
G36*
X-7349000Y1387000D02*
G01*
X-9651000Y1387000D01*
X-9651000Y2689000D01*
X-7349000Y2689000D01*
X-7349000Y1387000D01*
G37*
G36*
X-4925062Y2733284D02*
G01*
X-4904443Y2727029D01*
X-4885447Y2716876D01*
X-4868792Y2703208D01*
X-4855124Y2686553D01*
X-4844971Y2667557D01*
X-4838716Y2646938D01*
X-4836000Y2619360D01*
X-4836000Y2160640D01*
X-4838716Y2133062D01*
X-4844971Y2112443D01*
X-4855124Y2093447D01*
X-4868792Y2076792D01*
X-4885447Y2063124D01*
X-4904443Y2052971D01*
X-4925062Y2046716D01*
X-4952640Y2044000D01*
X-5461360Y2044000D01*
X-5488938Y2046716D01*
X-5509557Y2052971D01*
X-5528553Y2063124D01*
X-5545208Y2076792D01*
X-5558876Y2093447D01*
X-5569029Y2112443D01*
X-5575284Y2133062D01*
X-5578000Y2160640D01*
X-5578000Y2619360D01*
X-5575284Y2646938D01*
X-5569029Y2667557D01*
X-5558876Y2686553D01*
X-5545208Y2703208D01*
X-5528553Y2716876D01*
X-5509557Y2727029D01*
X-5488938Y2733284D01*
X-5461360Y2736000D01*
X-4952640Y2736000D01*
X-4925062Y2733284D01*
G37*
G36*
X-6068062Y2733284D02*
G01*
X-6047443Y2727029D01*
X-6028447Y2716876D01*
X-6011792Y2703208D01*
X-5998124Y2686553D01*
X-5987971Y2667557D01*
X-5981716Y2646938D01*
X-5979000Y2619360D01*
X-5979000Y2160640D01*
X-5981716Y2133062D01*
X-5987971Y2112443D01*
X-5998124Y2093447D01*
X-6011792Y2076792D01*
X-6028447Y2063124D01*
X-6047443Y2052971D01*
X-6068062Y2046716D01*
X-6095640Y2044000D01*
X-6604360Y2044000D01*
X-6631938Y2046716D01*
X-6652557Y2052971D01*
X-6671553Y2063124D01*
X-6688208Y2076792D01*
X-6701876Y2093447D01*
X-6712029Y2112443D01*
X-6718284Y2133062D01*
X-6721000Y2160640D01*
X-6721000Y2619360D01*
X-6718284Y2646938D01*
X-6712029Y2667557D01*
X-6701876Y2686553D01*
X-6688208Y2703208D01*
X-6671553Y2716876D01*
X-6652557Y2727029D01*
X-6631938Y2733284D01*
X-6604360Y2736000D01*
X-6095640Y2736000D01*
X-6068062Y2733284D01*
G37*
G36*
X3520438Y3477784D02*
G01*
X3541057Y3471529D01*
X3560053Y3461376D01*
X3576708Y3447708D01*
X3590376Y3431053D01*
X3600529Y3412057D01*
X3606784Y3391438D01*
X3609500Y3363860D01*
X3609500Y2905140D01*
X3606784Y2877562D01*
X3600529Y2856943D01*
X3590376Y2837947D01*
X3576708Y2821292D01*
X3560053Y2807624D01*
X3541057Y2797471D01*
X3520438Y2791216D01*
X3492860Y2788500D01*
X2984140Y2788500D01*
X2956562Y2791216D01*
X2935943Y2797471D01*
X2916947Y2807624D01*
X2900292Y2821292D01*
X2886624Y2837947D01*
X2876471Y2856943D01*
X2870216Y2877562D01*
X2867500Y2905140D01*
X2867500Y3363860D01*
X2870216Y3391438D01*
X2876471Y3412057D01*
X2886624Y3431053D01*
X2900292Y3447708D01*
X2916947Y3461376D01*
X2935943Y3471529D01*
X2956562Y3477784D01*
X2984140Y3480500D01*
X3492860Y3480500D01*
X3520438Y3477784D01*
G37*
G36*
X2377438Y3500784D02*
G01*
X2398057Y3494529D01*
X2417053Y3484376D01*
X2433708Y3470708D01*
X2447376Y3454053D01*
X2457529Y3435057D01*
X2463784Y3414438D01*
X2466500Y3386860D01*
X2466500Y2928140D01*
X2463784Y2900562D01*
X2457529Y2879943D01*
X2447376Y2860947D01*
X2433708Y2844292D01*
X2417053Y2830624D01*
X2398057Y2820471D01*
X2377438Y2814216D01*
X2349860Y2811500D01*
X1841140Y2811500D01*
X1813562Y2814216D01*
X1792943Y2820471D01*
X1773947Y2830624D01*
X1757292Y2844292D01*
X1743624Y2860947D01*
X1733471Y2879943D01*
X1727216Y2900562D01*
X1724500Y2928140D01*
X1724500Y3386860D01*
X1727216Y3414438D01*
X1733471Y3435057D01*
X1743624Y3454053D01*
X1757292Y3470708D01*
X1773947Y3484376D01*
X1792943Y3494529D01*
X1813562Y3500784D01*
X1841140Y3503500D01*
X2349860Y3503500D01*
X2377438Y3500784D01*
G37*
G36*
X1043938Y3518284D02*
G01*
X1064557Y3512029D01*
X1083553Y3501876D01*
X1100208Y3488208D01*
X1113876Y3471553D01*
X1124029Y3452557D01*
X1130284Y3431938D01*
X1133000Y3404360D01*
X1133000Y2945640D01*
X1130284Y2918062D01*
X1124029Y2897443D01*
X1113876Y2878447D01*
X1100208Y2861792D01*
X1083553Y2848124D01*
X1064557Y2837971D01*
X1043938Y2831716D01*
X1016360Y2829000D01*
X507640Y2829000D01*
X480062Y2831716D01*
X459443Y2837971D01*
X440447Y2848124D01*
X423792Y2861792D01*
X410124Y2878447D01*
X399971Y2897443D01*
X393716Y2918062D01*
X391000Y2945640D01*
X391000Y3404360D01*
X393716Y3431938D01*
X399971Y3452557D01*
X410124Y3471553D01*
X423792Y3488208D01*
X440447Y3501876D01*
X459443Y3512029D01*
X480062Y3518284D01*
X507640Y3521000D01*
X1016360Y3521000D01*
X1043938Y3518284D01*
G37*
G36*
X3520438Y4447784D02*
G01*
X3541057Y4441529D01*
X3560053Y4431376D01*
X3576708Y4417708D01*
X3590376Y4401053D01*
X3600529Y4382057D01*
X3606784Y4361438D01*
X3609500Y4333860D01*
X3609500Y3875140D01*
X3606784Y3847562D01*
X3600529Y3826943D01*
X3590376Y3807947D01*
X3576708Y3791292D01*
X3560053Y3777624D01*
X3541057Y3767471D01*
X3520438Y3761216D01*
X3492860Y3758500D01*
X2984140Y3758500D01*
X2956562Y3761216D01*
X2935943Y3767471D01*
X2916947Y3777624D01*
X2900292Y3791292D01*
X2886624Y3807947D01*
X2876471Y3826943D01*
X2870216Y3847562D01*
X2867500Y3875140D01*
X2867500Y4333860D01*
X2870216Y4361438D01*
X2876471Y4382057D01*
X2886624Y4401053D01*
X2900292Y4417708D01*
X2916947Y4431376D01*
X2935943Y4441529D01*
X2956562Y4447784D01*
X2984140Y4450500D01*
X3492860Y4450500D01*
X3520438Y4447784D01*
G37*
G36*
X2377438Y4470784D02*
G01*
X2398057Y4464529D01*
X2417053Y4454376D01*
X2433708Y4440708D01*
X2447376Y4424053D01*
X2457529Y4405057D01*
X2463784Y4384438D01*
X2466500Y4356860D01*
X2466500Y3898140D01*
X2463784Y3870562D01*
X2457529Y3849943D01*
X2447376Y3830947D01*
X2433708Y3814292D01*
X2417053Y3800624D01*
X2398057Y3790471D01*
X2377438Y3784216D01*
X2349860Y3781500D01*
X1841140Y3781500D01*
X1813562Y3784216D01*
X1792943Y3790471D01*
X1773947Y3800624D01*
X1757292Y3814292D01*
X1743624Y3830947D01*
X1733471Y3849943D01*
X1727216Y3870562D01*
X1724500Y3898140D01*
X1724500Y4356860D01*
X1727216Y4384438D01*
X1733471Y4405057D01*
X1743624Y4424053D01*
X1757292Y4440708D01*
X1773947Y4454376D01*
X1792943Y4464529D01*
X1813562Y4470784D01*
X1841140Y4473500D01*
X2349860Y4473500D01*
X2377438Y4470784D01*
G37*
G36*
X1043938Y4488284D02*
G01*
X1064557Y4482029D01*
X1083553Y4471876D01*
X1100208Y4458208D01*
X1113876Y4441553D01*
X1124029Y4422557D01*
X1130284Y4401938D01*
X1133000Y4374360D01*
X1133000Y3915640D01*
X1130284Y3888062D01*
X1124029Y3867443D01*
X1113876Y3848447D01*
X1100208Y3831792D01*
X1083553Y3818124D01*
X1064557Y3807971D01*
X1043938Y3801716D01*
X1016360Y3799000D01*
X507640Y3799000D01*
X480062Y3801716D01*
X459443Y3807971D01*
X440447Y3818124D01*
X423792Y3831792D01*
X410124Y3848447D01*
X399971Y3867443D01*
X393716Y3888062D01*
X391000Y3915640D01*
X391000Y4374360D01*
X393716Y4401938D01*
X399971Y4422557D01*
X410124Y4441553D01*
X423792Y4458208D01*
X440447Y4471876D01*
X459443Y4482029D01*
X480062Y4488284D01*
X507640Y4491000D01*
X1016360Y4491000D01*
X1043938Y4488284D01*
G37*
G36*
X-6068062Y5954284D02*
G01*
X-6047443Y5948029D01*
X-6028447Y5937876D01*
X-6011792Y5924208D01*
X-5998124Y5907553D01*
X-5987971Y5888557D01*
X-5981716Y5867938D01*
X-5979000Y5840360D01*
X-5979000Y5381640D01*
X-5981716Y5354062D01*
X-5987971Y5333443D01*
X-5998124Y5314447D01*
X-6011792Y5297792D01*
X-6028447Y5284124D01*
X-6047443Y5273971D01*
X-6068062Y5267716D01*
X-6095640Y5265000D01*
X-6604360Y5265000D01*
X-6631938Y5267716D01*
X-6652557Y5273971D01*
X-6671553Y5284124D01*
X-6688208Y5297792D01*
X-6701876Y5314447D01*
X-6712029Y5333443D01*
X-6718284Y5354062D01*
X-6721000Y5381640D01*
X-6721000Y5840360D01*
X-6718284Y5867938D01*
X-6712029Y5888557D01*
X-6701876Y5907553D01*
X-6688208Y5924208D01*
X-6671553Y5937876D01*
X-6652557Y5948029D01*
X-6631938Y5954284D01*
X-6604360Y5957000D01*
X-6095640Y5957000D01*
X-6068062Y5954284D01*
G37*
G36*
X-4925062Y5954284D02*
G01*
X-4904443Y5948029D01*
X-4885447Y5937876D01*
X-4868792Y5924208D01*
X-4855124Y5907553D01*
X-4844971Y5888557D01*
X-4838716Y5867938D01*
X-4836000Y5840360D01*
X-4836000Y5381640D01*
X-4838716Y5354062D01*
X-4844971Y5333443D01*
X-4855124Y5314447D01*
X-4868792Y5297792D01*
X-4885447Y5284124D01*
X-4904443Y5273971D01*
X-4925062Y5267716D01*
X-4952640Y5265000D01*
X-5461360Y5265000D01*
X-5488938Y5267716D01*
X-5509557Y5273971D01*
X-5528553Y5284124D01*
X-5545208Y5297792D01*
X-5558876Y5314447D01*
X-5569029Y5333443D01*
X-5575284Y5354062D01*
X-5578000Y5381640D01*
X-5578000Y5840360D01*
X-5575284Y5867938D01*
X-5569029Y5888557D01*
X-5558876Y5907553D01*
X-5545208Y5924208D01*
X-5528553Y5937876D01*
X-5509557Y5948029D01*
X-5488938Y5954284D01*
X-5461360Y5957000D01*
X-4952640Y5957000D01*
X-4925062Y5954284D01*
G37*
G36*
X10882295Y7108677D02*
G01*
X10889309Y7106549D01*
X10903077Y7099190D01*
X10925716Y7089813D01*
X10949749Y7085033D01*
X10974253Y7085033D01*
X10998286Y7089814D01*
X11020923Y7099190D01*
X11034691Y7106549D01*
X11041705Y7108677D01*
X11055140Y7110000D01*
X11368860Y7110000D01*
X11382295Y7108677D01*
X11389309Y7106549D01*
X11403077Y7099190D01*
X11425716Y7089813D01*
X11449749Y7085033D01*
X11474253Y7085033D01*
X11498286Y7089814D01*
X11520923Y7099190D01*
X11534691Y7106549D01*
X11541705Y7108677D01*
X11555140Y7110000D01*
X11868860Y7110000D01*
X11882295Y7108677D01*
X11889309Y7106549D01*
X11903077Y7099190D01*
X11925716Y7089813D01*
X11949749Y7085033D01*
X11974253Y7085033D01*
X11998286Y7089814D01*
X12020923Y7099190D01*
X12034691Y7106549D01*
X12041705Y7108677D01*
X12055140Y7110000D01*
X12368860Y7110000D01*
X12382295Y7108677D01*
X12389309Y7106549D01*
X12403077Y7099190D01*
X12425716Y7089813D01*
X12449749Y7085033D01*
X12474253Y7085033D01*
X12498286Y7089814D01*
X12520923Y7099190D01*
X12534691Y7106549D01*
X12541705Y7108677D01*
X12555140Y7110000D01*
X12868860Y7110000D01*
X12882295Y7108677D01*
X12889309Y7106549D01*
X12903077Y7099190D01*
X12925716Y7089813D01*
X12949749Y7085033D01*
X12974253Y7085033D01*
X12998286Y7089814D01*
X13020923Y7099190D01*
X13034691Y7106549D01*
X13041705Y7108677D01*
X13055140Y7110000D01*
X13368860Y7110000D01*
X13382295Y7108677D01*
X13389309Y7106549D01*
X13403077Y7099190D01*
X13425716Y7089813D01*
X13449749Y7085033D01*
X13474253Y7085033D01*
X13498286Y7089814D01*
X13520923Y7099190D01*
X13534691Y7106549D01*
X13541705Y7108677D01*
X13555140Y7110000D01*
X13868860Y7110000D01*
X13882295Y7108677D01*
X13889309Y7106549D01*
X13903077Y7099190D01*
X13925716Y7089813D01*
X13949749Y7085033D01*
X13974253Y7085033D01*
X13998286Y7089814D01*
X14020923Y7099190D01*
X14034691Y7106549D01*
X14041705Y7108677D01*
X14055140Y7110000D01*
X14368860Y7110000D01*
X14382295Y7108677D01*
X14389309Y7106549D01*
X14403077Y7099190D01*
X14425716Y7089813D01*
X14449749Y7085033D01*
X14474253Y7085033D01*
X14498286Y7089814D01*
X14520923Y7099190D01*
X14534691Y7106549D01*
X14541705Y7108677D01*
X14555140Y7110000D01*
X14868860Y7110000D01*
X14882295Y7108677D01*
X14889309Y7106549D01*
X14903077Y7099190D01*
X14925716Y7089813D01*
X14949749Y7085033D01*
X14974253Y7085033D01*
X14998286Y7089814D01*
X15020923Y7099190D01*
X15034691Y7106549D01*
X15041705Y7108677D01*
X15055140Y7110000D01*
X15368860Y7110000D01*
X15382295Y7108677D01*
X15389309Y7106549D01*
X15403077Y7099190D01*
X15425716Y7089813D01*
X15449749Y7085033D01*
X15474253Y7085033D01*
X15498286Y7089814D01*
X15520923Y7099190D01*
X15534691Y7106549D01*
X15541705Y7108677D01*
X15555140Y7110000D01*
X15868860Y7110000D01*
X15882295Y7108677D01*
X15889309Y7106549D01*
X15903077Y7099190D01*
X15925716Y7089813D01*
X15949749Y7085033D01*
X15974253Y7085033D01*
X15998286Y7089814D01*
X16020923Y7099190D01*
X16034691Y7106549D01*
X16041705Y7108677D01*
X16055140Y7110000D01*
X16368860Y7110000D01*
X16382295Y7108677D01*
X16389310Y7106549D01*
X16395776Y7103092D01*
X16401442Y7098442D01*
X16406092Y7092776D01*
X16409549Y7086310D01*
X16411677Y7079295D01*
X16413000Y7065860D01*
X16413000Y5577140D01*
X16411677Y5563705D01*
X16409549Y5556690D01*
X16406092Y5550224D01*
X16401442Y5544558D01*
X16395776Y5539908D01*
X16389310Y5536451D01*
X16382295Y5534323D01*
X16368860Y5533000D01*
X16055140Y5533000D01*
X16041705Y5534323D01*
X16034691Y5536451D01*
X16020923Y5543810D01*
X15998284Y5553187D01*
X15974251Y5557967D01*
X15949747Y5557967D01*
X15925714Y5553186D01*
X15903077Y5543810D01*
X15889309Y5536451D01*
X15882295Y5534323D01*
X15868860Y5533000D01*
X15555140Y5533000D01*
X15541705Y5534323D01*
X15534691Y5536451D01*
X15520923Y5543810D01*
X15498284Y5553187D01*
X15474251Y5557967D01*
X15449747Y5557967D01*
X15425714Y5553186D01*
X15403077Y5543810D01*
X15389309Y5536451D01*
X15382295Y5534323D01*
X15368860Y5533000D01*
X15055140Y5533000D01*
X15041705Y5534323D01*
X15034691Y5536451D01*
X15020923Y5543810D01*
X14998284Y5553187D01*
X14974251Y5557967D01*
X14949747Y5557967D01*
X14925714Y5553186D01*
X14903077Y5543810D01*
X14889309Y5536451D01*
X14882295Y5534323D01*
X14868860Y5533000D01*
X14555140Y5533000D01*
X14541705Y5534323D01*
X14534691Y5536451D01*
X14520923Y5543810D01*
X14498284Y5553187D01*
X14474251Y5557967D01*
X14449747Y5557967D01*
X14425714Y5553186D01*
X14403077Y5543810D01*
X14389309Y5536451D01*
X14382295Y5534323D01*
X14368860Y5533000D01*
X14055140Y5533000D01*
X14041705Y5534323D01*
X14034691Y5536451D01*
X14020923Y5543810D01*
X13998284Y5553187D01*
X13974251Y5557967D01*
X13949747Y5557967D01*
X13925714Y5553186D01*
X13903077Y5543810D01*
X13889309Y5536451D01*
X13882295Y5534323D01*
X13868860Y5533000D01*
X13555140Y5533000D01*
X13541705Y5534323D01*
X13534691Y5536451D01*
X13520923Y5543810D01*
X13498284Y5553187D01*
X13474251Y5557967D01*
X13449747Y5557967D01*
X13425714Y5553186D01*
X13403077Y5543810D01*
X13389309Y5536451D01*
X13382295Y5534323D01*
X13368860Y5533000D01*
X13055140Y5533000D01*
X13041705Y5534323D01*
X13034691Y5536451D01*
X13020923Y5543810D01*
X12998284Y5553187D01*
X12974251Y5557967D01*
X12949747Y5557967D01*
X12925714Y5553186D01*
X12903077Y5543810D01*
X12889309Y5536451D01*
X12882295Y5534323D01*
X12868860Y5533000D01*
X12555140Y5533000D01*
X12541705Y5534323D01*
X12534691Y5536451D01*
X12520923Y5543810D01*
X12498284Y5553187D01*
X12474251Y5557967D01*
X12449747Y5557967D01*
X12425714Y5553186D01*
X12403077Y5543810D01*
X12389309Y5536451D01*
X12382295Y5534323D01*
X12368860Y5533000D01*
X12055140Y5533000D01*
X12041705Y5534323D01*
X12034691Y5536451D01*
X12020923Y5543810D01*
X11998284Y5553187D01*
X11974251Y5557967D01*
X11949747Y5557967D01*
X11925714Y5553186D01*
X11903077Y5543810D01*
X11889309Y5536451D01*
X11882295Y5534323D01*
X11868860Y5533000D01*
X11555140Y5533000D01*
X11541705Y5534323D01*
X11534691Y5536451D01*
X11520923Y5543810D01*
X11498284Y5553187D01*
X11474251Y5557967D01*
X11449747Y5557967D01*
X11425714Y5553186D01*
X11403077Y5543810D01*
X11389309Y5536451D01*
X11382295Y5534323D01*
X11368860Y5533000D01*
X11055140Y5533000D01*
X11041705Y5534323D01*
X11034691Y5536451D01*
X11020923Y5543810D01*
X10998284Y5553187D01*
X10974251Y5557967D01*
X10949747Y5557967D01*
X10925714Y5553186D01*
X10903077Y5543810D01*
X10889309Y5536451D01*
X10882295Y5534323D01*
X10868860Y5533000D01*
X10555140Y5533000D01*
X10541705Y5534323D01*
X10534690Y5536451D01*
X10528224Y5539908D01*
X10522558Y5544558D01*
X10517908Y5550224D01*
X10514451Y5556690D01*
X10512323Y5563705D01*
X10511000Y5577140D01*
X10511000Y7065860D01*
X10512323Y7079295D01*
X10514451Y7086310D01*
X10517908Y7092776D01*
X10522558Y7098442D01*
X10528224Y7103092D01*
X10534690Y7106549D01*
X10541705Y7108677D01*
X10555140Y7110000D01*
X10868860Y7110000D01*
X10882295Y7108677D01*
G37*
G36*
X18059938Y6337284D02*
G01*
X18080557Y6331029D01*
X18099553Y6320876D01*
X18116208Y6307208D01*
X18129876Y6290553D01*
X18140029Y6271557D01*
X18146284Y6250938D01*
X18149000Y6223360D01*
X18149000Y5714640D01*
X18146284Y5687062D01*
X18140029Y5666443D01*
X18129876Y5647447D01*
X18116208Y5630792D01*
X18099553Y5617124D01*
X18080557Y5606971D01*
X18059938Y5600716D01*
X18032360Y5598000D01*
X17573640Y5598000D01*
X17546062Y5600716D01*
X17525443Y5606971D01*
X17506447Y5617124D01*
X17489792Y5630792D01*
X17476124Y5647447D01*
X17465971Y5666443D01*
X17459716Y5687062D01*
X17457000Y5714640D01*
X17457000Y6223360D01*
X17459716Y6250938D01*
X17465971Y6271557D01*
X17476124Y6290553D01*
X17489792Y6307208D01*
X17506447Y6320876D01*
X17525443Y6331029D01*
X17546062Y6337284D01*
X17573640Y6340000D01*
X18032360Y6340000D01*
X18059938Y6337284D01*
G37*
G36*
X19029938Y6337284D02*
G01*
X19050557Y6331029D01*
X19069553Y6320876D01*
X19086208Y6307208D01*
X19099876Y6290553D01*
X19110029Y6271557D01*
X19116284Y6250938D01*
X19119000Y6223360D01*
X19119000Y5714640D01*
X19116284Y5687062D01*
X19110029Y5666443D01*
X19099876Y5647447D01*
X19086208Y5630792D01*
X19069553Y5617124D01*
X19050557Y5606971D01*
X19029938Y5600716D01*
X19002360Y5598000D01*
X18543640Y5598000D01*
X18516062Y5600716D01*
X18495443Y5606971D01*
X18476447Y5617124D01*
X18459792Y5630792D01*
X18446124Y5647447D01*
X18435971Y5666443D01*
X18429716Y5687062D01*
X18427000Y5714640D01*
X18427000Y6223360D01*
X18429716Y6250938D01*
X18435971Y6271557D01*
X18446124Y6290553D01*
X18459792Y6307208D01*
X18476447Y6320876D01*
X18495443Y6331029D01*
X18516062Y6337284D01*
X18543640Y6340000D01*
X19002360Y6340000D01*
X19029938Y6337284D01*
G37*
G36*
X-7349000Y5947000D02*
G01*
X-9651000Y5947000D01*
X-9651000Y7249000D01*
X-7349000Y7249000D01*
X-7349000Y5947000D01*
G37*
G36*
X-6068062Y6924284D02*
G01*
X-6047443Y6918029D01*
X-6028447Y6907876D01*
X-6011792Y6894208D01*
X-5998124Y6877553D01*
X-5987971Y6858557D01*
X-5981716Y6837938D01*
X-5979000Y6810360D01*
X-5979000Y6351640D01*
X-5981716Y6324062D01*
X-5987971Y6303443D01*
X-5998124Y6284447D01*
X-6011792Y6267792D01*
X-6028447Y6254124D01*
X-6047443Y6243971D01*
X-6068062Y6237716D01*
X-6095640Y6235000D01*
X-6604360Y6235000D01*
X-6631938Y6237716D01*
X-6652557Y6243971D01*
X-6671553Y6254124D01*
X-6688208Y6267792D01*
X-6701876Y6284447D01*
X-6712029Y6303443D01*
X-6718284Y6324062D01*
X-6721000Y6351640D01*
X-6721000Y6810360D01*
X-6718284Y6837938D01*
X-6712029Y6858557D01*
X-6701876Y6877553D01*
X-6688208Y6894208D01*
X-6671553Y6907876D01*
X-6652557Y6918029D01*
X-6631938Y6924284D01*
X-6604360Y6927000D01*
X-6095640Y6927000D01*
X-6068062Y6924284D01*
G37*
G36*
X-4925062Y6924284D02*
G01*
X-4904443Y6918029D01*
X-4885447Y6907876D01*
X-4868792Y6894208D01*
X-4855124Y6877553D01*
X-4844971Y6858557D01*
X-4838716Y6837938D01*
X-4836000Y6810360D01*
X-4836000Y6351640D01*
X-4838716Y6324062D01*
X-4844971Y6303443D01*
X-4855124Y6284447D01*
X-4868792Y6267792D01*
X-4885447Y6254124D01*
X-4904443Y6243971D01*
X-4925062Y6237716D01*
X-4952640Y6235000D01*
X-5461360Y6235000D01*
X-5488938Y6237716D01*
X-5509557Y6243971D01*
X-5528553Y6254124D01*
X-5545208Y6267792D01*
X-5558876Y6284447D01*
X-5569029Y6303443D01*
X-5575284Y6324062D01*
X-5578000Y6351640D01*
X-5578000Y6810360D01*
X-5575284Y6837938D01*
X-5569029Y6858557D01*
X-5558876Y6877553D01*
X-5545208Y6894208D01*
X-5528553Y6907876D01*
X-5509557Y6918029D01*
X-5488938Y6924284D01*
X-5461360Y6927000D01*
X-4952640Y6927000D01*
X-4925062Y6924284D01*
G37*
G36*
X11201938Y8242284D02*
G01*
X11222557Y8236029D01*
X11241553Y8225876D01*
X11258208Y8212208D01*
X11271876Y8195553D01*
X11282029Y8176557D01*
X11288284Y8155938D01*
X11291000Y8128360D01*
X11291000Y7619640D01*
X11288284Y7592062D01*
X11282029Y7571443D01*
X11271876Y7552447D01*
X11258208Y7535792D01*
X11241553Y7522124D01*
X11222557Y7511971D01*
X11201938Y7505716D01*
X11174360Y7503000D01*
X10715640Y7503000D01*
X10688062Y7505716D01*
X10667443Y7511971D01*
X10648447Y7522124D01*
X10631792Y7535792D01*
X10618124Y7552447D01*
X10607971Y7571443D01*
X10601716Y7592062D01*
X10599000Y7619640D01*
X10599000Y8128360D01*
X10601716Y8155938D01*
X10607971Y8176557D01*
X10618124Y8195553D01*
X10631792Y8212208D01*
X10648447Y8225876D01*
X10667443Y8236029D01*
X10688062Y8242284D01*
X10715640Y8245000D01*
X11174360Y8245000D01*
X11201938Y8242284D01*
G37*
G36*
X15473938Y8242284D02*
G01*
X15494557Y8236029D01*
X15513553Y8225876D01*
X15530208Y8212208D01*
X15543876Y8195553D01*
X15554029Y8176557D01*
X15560284Y8155938D01*
X15563000Y8128360D01*
X15563000Y7619640D01*
X15560284Y7592062D01*
X15554029Y7571443D01*
X15543876Y7552447D01*
X15530208Y7535792D01*
X15513553Y7522124D01*
X15494557Y7511971D01*
X15473938Y7505716D01*
X15446360Y7503000D01*
X14987640Y7503000D01*
X14960062Y7505716D01*
X14939443Y7511971D01*
X14920447Y7522124D01*
X14903792Y7535792D01*
X14890124Y7552447D01*
X14879971Y7571443D01*
X14873716Y7592062D01*
X14871000Y7619640D01*
X14871000Y8128360D01*
X14873716Y8155938D01*
X14879971Y8176557D01*
X14890124Y8195553D01*
X14903792Y8212208D01*
X14920447Y8225876D01*
X14939443Y8236029D01*
X14960062Y8242284D01*
X14987640Y8245000D01*
X15446360Y8245000D01*
X15473938Y8242284D01*
G37*
G36*
X14503938Y8242284D02*
G01*
X14524557Y8236029D01*
X14543553Y8225876D01*
X14560208Y8212208D01*
X14573876Y8195553D01*
X14584029Y8176557D01*
X14590284Y8155938D01*
X14593000Y8128360D01*
X14593000Y7619640D01*
X14590284Y7592062D01*
X14584029Y7571443D01*
X14573876Y7552447D01*
X14560208Y7535792D01*
X14543553Y7522124D01*
X14524557Y7511971D01*
X14503938Y7505716D01*
X14476360Y7503000D01*
X14017640Y7503000D01*
X13990062Y7505716D01*
X13969443Y7511971D01*
X13950447Y7522124D01*
X13933792Y7535792D01*
X13920124Y7552447D01*
X13909971Y7571443D01*
X13903716Y7592062D01*
X13901000Y7619640D01*
X13901000Y8128360D01*
X13903716Y8155938D01*
X13909971Y8176557D01*
X13920124Y8195553D01*
X13933792Y8212208D01*
X13950447Y8225876D01*
X13969443Y8236029D01*
X13990062Y8242284D01*
X14017640Y8245000D01*
X14476360Y8245000D01*
X14503938Y8242284D01*
G37*
G36*
X12171938Y8242284D02*
G01*
X12192557Y8236029D01*
X12211553Y8225876D01*
X12228208Y8212208D01*
X12241876Y8195553D01*
X12252029Y8176557D01*
X12258284Y8155938D01*
X12261000Y8128360D01*
X12261000Y7619640D01*
X12258284Y7592062D01*
X12252029Y7571443D01*
X12241876Y7552447D01*
X12228208Y7535792D01*
X12211553Y7522124D01*
X12192557Y7511971D01*
X12171938Y7505716D01*
X12144360Y7503000D01*
X11685640Y7503000D01*
X11658062Y7505716D01*
X11637443Y7511971D01*
X11618447Y7522124D01*
X11601792Y7535792D01*
X11588124Y7552447D01*
X11577971Y7571443D01*
X11571716Y7592062D01*
X11569000Y7619640D01*
X11569000Y8128360D01*
X11571716Y8155938D01*
X11577971Y8176557D01*
X11588124Y8195553D01*
X11601792Y8212208D01*
X11618447Y8225876D01*
X11637443Y8236029D01*
X11658062Y8242284D01*
X11685640Y8245000D01*
X12144360Y8245000D01*
X12171938Y8242284D01*
G37*
G36*
X-17747305Y9951912D02*
G01*
X-17707941Y9942733D01*
X-17665519Y9923512D01*
X-16733481Y9385400D01*
X-16695623Y9358270D01*
X-16667995Y9328772D01*
X-16646655Y9294456D01*
X-16632419Y9256631D01*
X-16625837Y9216764D01*
X-16627159Y9176376D01*
X-16636337Y9137015D01*
X-16655563Y9094583D01*
X-16683738Y9045782D01*
X-16683740Y9045778D01*
X-16818365Y8812601D01*
X-16981167Y8530619D01*
X-17008302Y8492752D01*
X-17037799Y8465126D01*
X-17072115Y8443786D01*
X-17109940Y8429550D01*
X-17149807Y8422968D01*
X-17190195Y8424290D01*
X-17229559Y8433469D01*
X-17271981Y8452690D01*
X-18204019Y8990802D01*
X-18241877Y9017932D01*
X-18269505Y9047430D01*
X-18290845Y9081746D01*
X-18305081Y9119571D01*
X-18311663Y9159438D01*
X-18310341Y9199826D01*
X-18301163Y9239187D01*
X-18281937Y9281619D01*
X-18253762Y9330420D01*
X-18253760Y9330424D01*
X-18113583Y9573218D01*
X-17956333Y9845583D01*
X-17929198Y9883450D01*
X-17899701Y9911076D01*
X-17865385Y9932416D01*
X-17827560Y9946652D01*
X-17787693Y9953234D01*
X-17747305Y9951912D01*
G37*
G36*
X17827560Y9946652D02*
G01*
X17865385Y9932416D01*
X17899701Y9911076D01*
X17929198Y9883450D01*
X17956333Y9845583D01*
X18113583Y9573218D01*
X18253760Y9330424D01*
X18253762Y9330420D01*
X18281937Y9281619D01*
X18301163Y9239187D01*
X18310341Y9199826D01*
X18311663Y9159438D01*
X18305081Y9119571D01*
X18290845Y9081746D01*
X18269505Y9047430D01*
X18241877Y9017932D01*
X18204019Y8990802D01*
X17271981Y8452690D01*
X17229559Y8433469D01*
X17190195Y8424290D01*
X17149807Y8422968D01*
X17109940Y8429550D01*
X17072115Y8443786D01*
X17037799Y8465126D01*
X17008302Y8492752D01*
X16981167Y8530619D01*
X16818365Y8812601D01*
X16683740Y9045778D01*
X16683738Y9045782D01*
X16655563Y9094583D01*
X16636337Y9137015D01*
X16627159Y9176376D01*
X16625837Y9216764D01*
X16632419Y9256631D01*
X16646655Y9294456D01*
X16667995Y9328772D01*
X16695623Y9358270D01*
X16733481Y9385400D01*
X17665519Y9923512D01*
X17707941Y9942733D01*
X17747305Y9951912D01*
X17787693Y9953234D01*
X17827560Y9946652D01*
G37*
G36*
X8521000Y9099000D02*
G01*
X6719000Y9099000D01*
X6719000Y10901000D01*
X8521000Y10901000D01*
X8521000Y9099000D01*
G37*
G36*
X-7506488Y10896073D02*
G01*
X-7357188Y10866376D01*
X-7193216Y10798456D01*
X-7045646Y10699853D01*
X-6920147Y10574354D01*
X-6821544Y10426784D01*
X-6753624Y10262812D01*
X-6719000Y10088741D01*
X-6719000Y9911259D01*
X-6753624Y9737188D01*
X-6821544Y9573216D01*
X-6920147Y9425646D01*
X-7045646Y9300147D01*
X-7193216Y9201544D01*
X-7357188Y9133624D01*
X-7506488Y9103927D01*
X-7531258Y9099000D01*
X-7708742Y9099000D01*
X-7733512Y9103927D01*
X-7882812Y9133624D01*
X-8046784Y9201544D01*
X-8194354Y9300147D01*
X-8319853Y9425646D01*
X-8418456Y9573216D01*
X-8486376Y9737188D01*
X-8521000Y9911259D01*
X-8521000Y10088741D01*
X-8486376Y10262812D01*
X-8418456Y10426784D01*
X-8319853Y10574354D01*
X-8194354Y10699853D01*
X-8046784Y10798456D01*
X-7882812Y10866376D01*
X-7733512Y10896073D01*
X-7708742Y10901000D01*
X-7531258Y10901000D01*
X-7506488Y10896073D01*
G37*
G36*
X-4966488Y10896073D02*
G01*
X-4817188Y10866376D01*
X-4653216Y10798456D01*
X-4505646Y10699853D01*
X-4380147Y10574354D01*
X-4281544Y10426784D01*
X-4213624Y10262812D01*
X-4179000Y10088741D01*
X-4179000Y9911259D01*
X-4213624Y9737188D01*
X-4281544Y9573216D01*
X-4380147Y9425646D01*
X-4505646Y9300147D01*
X-4653216Y9201544D01*
X-4817188Y9133624D01*
X-4966488Y9103927D01*
X-4991258Y9099000D01*
X-5168742Y9099000D01*
X-5193512Y9103927D01*
X-5342812Y9133624D01*
X-5506784Y9201544D01*
X-5654354Y9300147D01*
X-5779853Y9425646D01*
X-5878456Y9573216D01*
X-5946376Y9737188D01*
X-5981000Y9911259D01*
X-5981000Y10088741D01*
X-5946376Y10262812D01*
X-5878456Y10426784D01*
X-5779853Y10574354D01*
X-5654354Y10699853D01*
X-5506784Y10798456D01*
X-5342812Y10866376D01*
X-5193512Y10896073D01*
X-5168742Y10901000D01*
X-4991258Y10901000D01*
X-4966488Y10896073D01*
G37*
G36*
X-2426488Y10896073D02*
G01*
X-2277188Y10866376D01*
X-2113216Y10798456D01*
X-1965646Y10699853D01*
X-1840147Y10574354D01*
X-1741544Y10426784D01*
X-1673624Y10262812D01*
X-1639000Y10088741D01*
X-1639000Y9911259D01*
X-1673624Y9737188D01*
X-1741544Y9573216D01*
X-1840147Y9425646D01*
X-1965646Y9300147D01*
X-2113216Y9201544D01*
X-2277188Y9133624D01*
X-2426488Y9103927D01*
X-2451258Y9099000D01*
X-2628742Y9099000D01*
X-2653512Y9103927D01*
X-2802812Y9133624D01*
X-2966784Y9201544D01*
X-3114354Y9300147D01*
X-3239853Y9425646D01*
X-3338456Y9573216D01*
X-3406376Y9737188D01*
X-3441000Y9911259D01*
X-3441000Y10088741D01*
X-3406376Y10262812D01*
X-3338456Y10426784D01*
X-3239853Y10574354D01*
X-3114354Y10699853D01*
X-2966784Y10798456D01*
X-2802812Y10866376D01*
X-2653512Y10896073D01*
X-2628742Y10901000D01*
X-2451258Y10901000D01*
X-2426488Y10896073D01*
G37*
G36*
X113512Y10896073D02*
G01*
X262812Y10866376D01*
X426784Y10798456D01*
X574354Y10699853D01*
X699853Y10574354D01*
X798456Y10426784D01*
X866376Y10262812D01*
X901000Y10088741D01*
X901000Y9911259D01*
X866376Y9737188D01*
X798456Y9573216D01*
X699853Y9425646D01*
X574354Y9300147D01*
X426784Y9201544D01*
X262812Y9133624D01*
X113512Y9103927D01*
X88742Y9099000D01*
X-88742Y9099000D01*
X-113512Y9103927D01*
X-262812Y9133624D01*
X-426784Y9201544D01*
X-574354Y9300147D01*
X-699853Y9425646D01*
X-798456Y9573216D01*
X-866376Y9737188D01*
X-901000Y9911259D01*
X-901000Y10088741D01*
X-866376Y10262812D01*
X-798456Y10426784D01*
X-699853Y10574354D01*
X-574354Y10699853D01*
X-426784Y10798456D01*
X-262812Y10866376D01*
X-113512Y10896073D01*
X-88742Y10901000D01*
X88742Y10901000D01*
X113512Y10896073D01*
G37*
G36*
X2653512Y10896073D02*
G01*
X2802812Y10866376D01*
X2966784Y10798456D01*
X3114354Y10699853D01*
X3239853Y10574354D01*
X3338456Y10426784D01*
X3406376Y10262812D01*
X3441000Y10088741D01*
X3441000Y9911259D01*
X3406376Y9737188D01*
X3338456Y9573216D01*
X3239853Y9425646D01*
X3114354Y9300147D01*
X2966784Y9201544D01*
X2802812Y9133624D01*
X2653512Y9103927D01*
X2628742Y9099000D01*
X2451258Y9099000D01*
X2426488Y9103927D01*
X2277188Y9133624D01*
X2113216Y9201544D01*
X1965646Y9300147D01*
X1840147Y9425646D01*
X1741544Y9573216D01*
X1673624Y9737188D01*
X1639000Y9911259D01*
X1639000Y10088741D01*
X1673624Y10262812D01*
X1741544Y10426784D01*
X1840147Y10574354D01*
X1965646Y10699853D01*
X2113216Y10798456D01*
X2277188Y10866376D01*
X2426488Y10896073D01*
X2451258Y10901000D01*
X2628742Y10901000D01*
X2653512Y10896073D01*
G37*
G36*
X5193512Y10896073D02*
G01*
X5342812Y10866376D01*
X5506784Y10798456D01*
X5654354Y10699853D01*
X5779853Y10574354D01*
X5878456Y10426784D01*
X5946376Y10262812D01*
X5981000Y10088741D01*
X5981000Y9911259D01*
X5946376Y9737188D01*
X5878456Y9573216D01*
X5779853Y9425646D01*
X5654354Y9300147D01*
X5506784Y9201544D01*
X5342812Y9133624D01*
X5193512Y9103927D01*
X5168742Y9099000D01*
X4991258Y9099000D01*
X4966488Y9103927D01*
X4817188Y9133624D01*
X4653216Y9201544D01*
X4505646Y9300147D01*
X4380147Y9425646D01*
X4281544Y9573216D01*
X4213624Y9737188D01*
X4179000Y9911259D01*
X4179000Y10088741D01*
X4213624Y10262812D01*
X4281544Y10426784D01*
X4380147Y10574354D01*
X4505646Y10699853D01*
X4653216Y10798456D01*
X4817188Y10866376D01*
X4966488Y10896073D01*
X4991258Y10901000D01*
X5168742Y10901000D01*
X5193512Y10896073D01*
G37*
G36*
X11589000Y9294000D02*
G01*
X10087000Y9294000D01*
X10087000Y10596000D01*
X11589000Y10596000D01*
X11589000Y9294000D01*
G37*
G36*
X13789000Y9294000D02*
G01*
X12287000Y9294000D01*
X12287000Y10596000D01*
X13789000Y10596000D01*
X13789000Y9294000D01*
G37*
G36*
X-16809805Y11575710D02*
G01*
X-16770441Y11566531D01*
X-16728019Y11547310D01*
X-15795981Y11009198D01*
X-15758123Y10982068D01*
X-15730495Y10952570D01*
X-15709155Y10918254D01*
X-15694919Y10880429D01*
X-15688337Y10840562D01*
X-15689659Y10800174D01*
X-15698837Y10760813D01*
X-15718063Y10718381D01*
X-15746238Y10669580D01*
X-15746240Y10669576D01*
X-15801217Y10574354D01*
X-16043667Y10154417D01*
X-16070802Y10116550D01*
X-16100299Y10088924D01*
X-16134615Y10067584D01*
X-16172440Y10053348D01*
X-16212307Y10046766D01*
X-16252695Y10048088D01*
X-16292059Y10057267D01*
X-16334481Y10076488D01*
X-17266519Y10614600D01*
X-17304377Y10641730D01*
X-17332005Y10671228D01*
X-17353345Y10705544D01*
X-17367581Y10743369D01*
X-17374163Y10783236D01*
X-17372841Y10823624D01*
X-17363663Y10862985D01*
X-17344437Y10905417D01*
X-17316262Y10954218D01*
X-17316260Y10954222D01*
X-17181635Y11187399D01*
X-17018833Y11469381D01*
X-16991698Y11507248D01*
X-16962201Y11534874D01*
X-16927885Y11556214D01*
X-16890060Y11570450D01*
X-16850193Y11577032D01*
X-16809805Y11575710D01*
G37*
G36*
X16890060Y11570450D02*
G01*
X16927885Y11556214D01*
X16962201Y11534874D01*
X16991698Y11507248D01*
X17018833Y11469381D01*
X17181635Y11187399D01*
X17316260Y10954222D01*
X17316262Y10954218D01*
X17344437Y10905417D01*
X17363663Y10862985D01*
X17372841Y10823624D01*
X17374163Y10783236D01*
X17367581Y10743369D01*
X17353345Y10705544D01*
X17332005Y10671228D01*
X17304377Y10641730D01*
X17266519Y10614600D01*
X16334481Y10076488D01*
X16292059Y10057267D01*
X16252695Y10048088D01*
X16212307Y10046766D01*
X16172440Y10053348D01*
X16134615Y10067584D01*
X16100299Y10088924D01*
X16070802Y10116550D01*
X16043667Y10154417D01*
X15801217Y10574354D01*
X15746240Y10669576D01*
X15746238Y10669580D01*
X15718063Y10718381D01*
X15698837Y10760813D01*
X15689659Y10800174D01*
X15688337Y10840562D01*
X15694919Y10880429D01*
X15709155Y10918254D01*
X15730495Y10952570D01*
X15758123Y10982068D01*
X15795981Y11009198D01*
X16728019Y11547310D01*
X16770441Y11566531D01*
X16809805Y11575710D01*
X16850193Y11577032D01*
X16890060Y11570450D01*
G37*
G36*
X13789000Y10994000D02*
G01*
X12287000Y10994000D01*
X12287000Y12296000D01*
X13789000Y12296000D01*
X13789000Y10994000D01*
G37*
G36*
X11589000Y10994000D02*
G01*
X10087000Y10994000D01*
X10087000Y12296000D01*
X11589000Y12296000D01*
X11589000Y10994000D01*
G37*
G36*
X10035938Y13449284D02*
G01*
X10056557Y13443029D01*
X10075553Y13432876D01*
X10092208Y13419208D01*
X10105876Y13402553D01*
X10116029Y13383557D01*
X10122284Y13362938D01*
X10125000Y13335360D01*
X10125000Y12826640D01*
X10122284Y12799062D01*
X10116029Y12778443D01*
X10105876Y12759447D01*
X10092208Y12742792D01*
X10075553Y12729124D01*
X10056557Y12718971D01*
X10035938Y12712716D01*
X10008360Y12710000D01*
X9549640Y12710000D01*
X9522062Y12712716D01*
X9501443Y12718971D01*
X9482447Y12729124D01*
X9465792Y12742792D01*
X9452124Y12759447D01*
X9441971Y12778443D01*
X9435716Y12799062D01*
X9433000Y12826640D01*
X9433000Y13335360D01*
X9435716Y13362938D01*
X9441971Y13383557D01*
X9452124Y13402553D01*
X9465792Y13419208D01*
X9482447Y13432876D01*
X9501443Y13443029D01*
X9522062Y13449284D01*
X9549640Y13452000D01*
X10008360Y13452000D01*
X10035938Y13449284D01*
G37*
G36*
X11005938Y13449284D02*
G01*
X11026557Y13443029D01*
X11045553Y13432876D01*
X11062208Y13419208D01*
X11075876Y13402553D01*
X11086029Y13383557D01*
X11092284Y13362938D01*
X11095000Y13335360D01*
X11095000Y12826640D01*
X11092284Y12799062D01*
X11086029Y12778443D01*
X11075876Y12759447D01*
X11062208Y12742792D01*
X11045553Y12729124D01*
X11026557Y12718971D01*
X11005938Y12712716D01*
X10978360Y12710000D01*
X10519640Y12710000D01*
X10492062Y12712716D01*
X10471443Y12718971D01*
X10452447Y12729124D01*
X10435792Y12742792D01*
X10422124Y12759447D01*
X10411971Y12778443D01*
X10405716Y12799062D01*
X10403000Y12826640D01*
X10403000Y13335360D01*
X10405716Y13362938D01*
X10411971Y13383557D01*
X10422124Y13402553D01*
X10435792Y13419208D01*
X10452447Y13432876D01*
X10471443Y13443029D01*
X10492062Y13449284D01*
X10519640Y13452000D01*
X10978360Y13452000D01*
X11005938Y13449284D01*
G37*
G36*
X5279042Y15099738D02*
G01*
X5427001Y15038451D01*
X5560155Y14949481D01*
X5673401Y14836235D01*
X5762371Y14703081D01*
X5823658Y14555122D01*
X5854900Y14398055D01*
X5854900Y14237905D01*
X5823658Y14080838D01*
X5762371Y13932879D01*
X5673401Y13799725D01*
X5560155Y13686479D01*
X5427001Y13597509D01*
X5279042Y13536222D01*
X5121975Y13504980D01*
X4961825Y13504980D01*
X4804758Y13536222D01*
X4656799Y13597509D01*
X4523645Y13686479D01*
X4410399Y13799725D01*
X4321429Y13932879D01*
X4260142Y14080838D01*
X4228900Y14237905D01*
X4228900Y14398055D01*
X4260142Y14555122D01*
X4321429Y14703081D01*
X4410399Y14836235D01*
X4523645Y14949481D01*
X4656799Y15038451D01*
X4804758Y15099738D01*
X4961825Y15130980D01*
X5121975Y15130980D01*
X5279042Y15099738D01*
G37*
G36*
X2739042Y15099738D02*
G01*
X2887001Y15038451D01*
X3020155Y14949481D01*
X3133401Y14836235D01*
X3222371Y14703081D01*
X3283658Y14555122D01*
X3314900Y14398055D01*
X3314900Y14237905D01*
X3283658Y14080838D01*
X3222371Y13932879D01*
X3133401Y13799725D01*
X3020155Y13686479D01*
X2887001Y13597509D01*
X2739042Y13536222D01*
X2581975Y13504980D01*
X2421825Y13504980D01*
X2264758Y13536222D01*
X2116799Y13597509D01*
X1983645Y13686479D01*
X1870399Y13799725D01*
X1781429Y13932879D01*
X1720142Y14080838D01*
X1688900Y14237905D01*
X1688900Y14398055D01*
X1720142Y14555122D01*
X1781429Y14703081D01*
X1870399Y14836235D01*
X1983645Y14949481D01*
X2116799Y15038451D01*
X2264758Y15099738D01*
X2421825Y15130980D01*
X2581975Y15130980D01*
X2739042Y15099738D01*
G37*
G36*
X-2340958Y15099738D02*
G01*
X-2192999Y15038451D01*
X-2059845Y14949481D01*
X-1946599Y14836235D01*
X-1857629Y14703081D01*
X-1796342Y14555122D01*
X-1765100Y14398055D01*
X-1765100Y14237905D01*
X-1796342Y14080838D01*
X-1857629Y13932879D01*
X-1946599Y13799725D01*
X-2059845Y13686479D01*
X-2192999Y13597509D01*
X-2340958Y13536222D01*
X-2498025Y13504980D01*
X-2658175Y13504980D01*
X-2815242Y13536222D01*
X-2963201Y13597509D01*
X-3096355Y13686479D01*
X-3209601Y13799725D01*
X-3298571Y13932879D01*
X-3359858Y14080838D01*
X-3391100Y14237905D01*
X-3391100Y14398055D01*
X-3359858Y14555122D01*
X-3298571Y14703081D01*
X-3209601Y14836235D01*
X-3096355Y14949481D01*
X-2963201Y15038451D01*
X-2815242Y15099738D01*
X-2658175Y15130980D01*
X-2498025Y15130980D01*
X-2340958Y15099738D01*
G37*
G36*
X199042Y15099738D02*
G01*
X347001Y15038451D01*
X480155Y14949481D01*
X593401Y14836235D01*
X682371Y14703081D01*
X743658Y14555122D01*
X774900Y14398055D01*
X774900Y14237905D01*
X743658Y14080838D01*
X682371Y13932879D01*
X593401Y13799725D01*
X480155Y13686479D01*
X347001Y13597509D01*
X199042Y13536222D01*
X41975Y13504980D01*
X-118175Y13504980D01*
X-275242Y13536222D01*
X-423201Y13597509D01*
X-556355Y13686479D01*
X-669601Y13799725D01*
X-758571Y13932879D01*
X-819858Y14080838D01*
X-851100Y14237905D01*
X-851100Y14398055D01*
X-819858Y14555122D01*
X-758571Y14703081D01*
X-669601Y14836235D01*
X-556355Y14949481D01*
X-423201Y15038451D01*
X-275242Y15099738D01*
X-118175Y15130980D01*
X41975Y15130980D01*
X199042Y15099738D01*
G37*
G36*
X-4880958Y15099738D02*
G01*
X-4732999Y15038451D01*
X-4599845Y14949481D01*
X-4486599Y14836235D01*
X-4397629Y14703081D01*
X-4336342Y14555122D01*
X-4305100Y14398055D01*
X-4305100Y14237905D01*
X-4336342Y14080838D01*
X-4397629Y13932879D01*
X-4486599Y13799725D01*
X-4599845Y13686479D01*
X-4732999Y13597509D01*
X-4880958Y13536222D01*
X-5038025Y13504980D01*
X-5198175Y13504980D01*
X-5355242Y13536222D01*
X-5503201Y13597509D01*
X-5636355Y13686479D01*
X-5749601Y13799725D01*
X-5838571Y13932879D01*
X-5899858Y14080838D01*
X-5931100Y14237905D01*
X-5931100Y14398055D01*
X-5899858Y14555122D01*
X-5838571Y14703081D01*
X-5749601Y14836235D01*
X-5636355Y14949481D01*
X-5503201Y15038451D01*
X-5355242Y15099738D01*
X-5198175Y15130980D01*
X-5038025Y15130980D01*
X-4880958Y15099738D01*
G37*
G36*
X-10743369Y17367581D02*
G01*
X-10705544Y17353345D01*
X-10671228Y17332005D01*
X-10641730Y17304377D01*
X-10614600Y17266519D01*
X-10076488Y16334481D01*
X-10057267Y16292059D01*
X-10048088Y16252695D01*
X-10046766Y16212307D01*
X-10053348Y16172440D01*
X-10067584Y16134615D01*
X-10088924Y16100299D01*
X-10116550Y16070802D01*
X-10154417Y16043667D01*
X-10436399Y15880865D01*
X-10669576Y15746240D01*
X-10669580Y15746238D01*
X-10718381Y15718063D01*
X-10760813Y15698837D01*
X-10800174Y15689659D01*
X-10840562Y15688337D01*
X-10880429Y15694919D01*
X-10918254Y15709155D01*
X-10952570Y15730495D01*
X-10982068Y15758123D01*
X-11009198Y15795981D01*
X-11547310Y16728019D01*
X-11566531Y16770441D01*
X-11575710Y16809805D01*
X-11577032Y16850193D01*
X-11570450Y16890060D01*
X-11556214Y16927885D01*
X-11534874Y16962201D01*
X-11507248Y16991698D01*
X-11469381Y17018833D01*
X-11080973Y17243080D01*
X-10954222Y17316260D01*
X-10954218Y17316262D01*
X-10905417Y17344437D01*
X-10862985Y17363663D01*
X-10823624Y17372841D01*
X-10783236Y17374163D01*
X-10743369Y17367581D01*
G37*
G36*
X10823624Y17372841D02*
G01*
X10862985Y17363663D01*
X10905417Y17344437D01*
X10954218Y17316262D01*
X10954222Y17316260D01*
X11080973Y17243080D01*
X11469381Y17018833D01*
X11507248Y16991698D01*
X11534874Y16962201D01*
X11556214Y16927885D01*
X11570450Y16890060D01*
X11577032Y16850193D01*
X11575710Y16809805D01*
X11566531Y16770441D01*
X11547310Y16728019D01*
X11009198Y15795981D01*
X10982068Y15758123D01*
X10952570Y15730495D01*
X10918254Y15709155D01*
X10880429Y15694919D01*
X10840562Y15688337D01*
X10800174Y15689659D01*
X10760813Y15698837D01*
X10718381Y15718063D01*
X10669580Y15746238D01*
X10669576Y15746240D01*
X10436399Y15880865D01*
X10154417Y16043667D01*
X10116550Y16070802D01*
X10088924Y16100299D01*
X10067584Y16134615D01*
X10053348Y16172440D01*
X10046766Y16212307D01*
X10048088Y16252695D01*
X10057267Y16292059D01*
X10076488Y16334481D01*
X10614600Y17266519D01*
X10641730Y17304377D01*
X10671228Y17332005D01*
X10705544Y17353345D01*
X10743369Y17367581D01*
X10783236Y17374163D01*
X10823624Y17372841D01*
G37*
G36*
X-2340958Y17639738D02*
G01*
X-2192999Y17578451D01*
X-2059845Y17489481D01*
X-1946599Y17376235D01*
X-1857629Y17243081D01*
X-1796342Y17095122D01*
X-1765100Y16938055D01*
X-1765100Y16777905D01*
X-1796342Y16620838D01*
X-1857629Y16472879D01*
X-1946599Y16339725D01*
X-2059845Y16226479D01*
X-2192999Y16137509D01*
X-2340958Y16076222D01*
X-2498025Y16044980D01*
X-2658175Y16044980D01*
X-2815242Y16076222D01*
X-2963201Y16137509D01*
X-3096355Y16226479D01*
X-3209601Y16339725D01*
X-3298571Y16472879D01*
X-3359858Y16620838D01*
X-3391100Y16777905D01*
X-3391100Y16938055D01*
X-3359858Y17095122D01*
X-3298571Y17243081D01*
X-3209601Y17376235D01*
X-3096355Y17489481D01*
X-2963201Y17578451D01*
X-2815242Y17639738D01*
X-2658175Y17670980D01*
X-2498025Y17670980D01*
X-2340958Y17639738D01*
G37*
G36*
X-4880958Y17639738D02*
G01*
X-4732999Y17578451D01*
X-4599845Y17489481D01*
X-4486599Y17376235D01*
X-4397629Y17243081D01*
X-4336342Y17095122D01*
X-4305100Y16938055D01*
X-4305100Y16777905D01*
X-4336342Y16620838D01*
X-4397629Y16472879D01*
X-4486599Y16339725D01*
X-4599845Y16226479D01*
X-4732999Y16137509D01*
X-4880958Y16076222D01*
X-5038025Y16044980D01*
X-5198175Y16044980D01*
X-5355242Y16076222D01*
X-5503201Y16137509D01*
X-5636355Y16226479D01*
X-5749601Y16339725D01*
X-5838571Y16472879D01*
X-5899858Y16620838D01*
X-5931100Y16777905D01*
X-5931100Y16938055D01*
X-5899858Y17095122D01*
X-5838571Y17243081D01*
X-5749601Y17376235D01*
X-5636355Y17489481D01*
X-5503201Y17578451D01*
X-5355242Y17639738D01*
X-5198175Y17670980D01*
X-5038025Y17670980D01*
X-4880958Y17639738D01*
G37*
G36*
X199042Y17639738D02*
G01*
X347001Y17578451D01*
X480155Y17489481D01*
X593401Y17376235D01*
X682371Y17243081D01*
X743658Y17095122D01*
X774900Y16938055D01*
X774900Y16777905D01*
X743658Y16620838D01*
X682371Y16472879D01*
X593401Y16339725D01*
X480155Y16226479D01*
X347001Y16137509D01*
X199042Y16076222D01*
X41975Y16044980D01*
X-118175Y16044980D01*
X-275242Y16076222D01*
X-423201Y16137509D01*
X-556355Y16226479D01*
X-669601Y16339725D01*
X-758571Y16472879D01*
X-819858Y16620838D01*
X-851100Y16777905D01*
X-851100Y16938055D01*
X-819858Y17095122D01*
X-758571Y17243081D01*
X-669601Y17376235D01*
X-556355Y17489481D01*
X-423201Y17578451D01*
X-275242Y17639738D01*
X-118175Y17670980D01*
X41975Y17670980D01*
X199042Y17639738D01*
G37*
G36*
X5279042Y17639738D02*
G01*
X5427001Y17578451D01*
X5560155Y17489481D01*
X5673401Y17376235D01*
X5762371Y17243081D01*
X5823658Y17095122D01*
X5854900Y16938055D01*
X5854900Y16777905D01*
X5823658Y16620838D01*
X5762371Y16472879D01*
X5673401Y16339725D01*
X5560155Y16226479D01*
X5427001Y16137509D01*
X5279042Y16076222D01*
X5121975Y16044980D01*
X4961825Y16044980D01*
X4804758Y16076222D01*
X4656799Y16137509D01*
X4523645Y16226479D01*
X4410399Y16339725D01*
X4321429Y16472879D01*
X4260142Y16620838D01*
X4228900Y16777905D01*
X4228900Y16938055D01*
X4260142Y17095122D01*
X4321429Y17243081D01*
X4410399Y17376235D01*
X4523645Y17489481D01*
X4656799Y17578451D01*
X4804758Y17639738D01*
X4961825Y17670980D01*
X5121975Y17670980D01*
X5279042Y17639738D01*
G37*
G36*
X2739042Y17639738D02*
G01*
X2887001Y17578451D01*
X3020155Y17489481D01*
X3133401Y17376235D01*
X3222371Y17243081D01*
X3283658Y17095122D01*
X3314900Y16938055D01*
X3314900Y16777905D01*
X3283658Y16620838D01*
X3222371Y16472879D01*
X3133401Y16339725D01*
X3020155Y16226479D01*
X2887001Y16137509D01*
X2739042Y16076222D01*
X2581975Y16044980D01*
X2421825Y16044980D01*
X2264758Y16076222D01*
X2116799Y16137509D01*
X1983645Y16226479D01*
X1870399Y16339725D01*
X1781429Y16472879D01*
X1720142Y16620838D01*
X1688900Y16777905D01*
X1688900Y16938055D01*
X1720142Y17095122D01*
X1781429Y17243081D01*
X1870399Y17376235D01*
X1983645Y17489481D01*
X2116799Y17578451D01*
X2264758Y17639738D01*
X2421825Y17670980D01*
X2581975Y17670980D01*
X2739042Y17639738D01*
G37*
G36*
X-9119571Y18305081D02*
G01*
X-9081746Y18290845D01*
X-9047430Y18269505D01*
X-9017932Y18241877D01*
X-8990802Y18204019D01*
X-8452690Y17271981D01*
X-8433469Y17229559D01*
X-8424290Y17190195D01*
X-8422968Y17149807D01*
X-8429550Y17109940D01*
X-8443786Y17072115D01*
X-8465126Y17037799D01*
X-8492752Y17008302D01*
X-8530619Y16981167D01*
X-8699749Y16883520D01*
X-9045778Y16683740D01*
X-9045782Y16683738D01*
X-9094583Y16655563D01*
X-9137015Y16636337D01*
X-9176376Y16627159D01*
X-9216764Y16625837D01*
X-9256631Y16632419D01*
X-9294456Y16646655D01*
X-9328772Y16667995D01*
X-9358270Y16695623D01*
X-9385400Y16733481D01*
X-9923512Y17665519D01*
X-9942733Y17707941D01*
X-9951912Y17747305D01*
X-9953234Y17787693D01*
X-9946652Y17827560D01*
X-9932416Y17865385D01*
X-9911076Y17899701D01*
X-9883450Y17929198D01*
X-9845583Y17956333D01*
X-9426809Y18198112D01*
X-9330424Y18253760D01*
X-9330420Y18253762D01*
X-9281619Y18281937D01*
X-9239187Y18301163D01*
X-9199826Y18310341D01*
X-9159438Y18311663D01*
X-9119571Y18305081D01*
G37*
G36*
X9199826Y18310341D02*
G01*
X9239187Y18301163D01*
X9281619Y18281937D01*
X9330420Y18253762D01*
X9330424Y18253760D01*
X9426809Y18198112D01*
X9845583Y17956333D01*
X9883450Y17929198D01*
X9911076Y17899701D01*
X9932416Y17865385D01*
X9946652Y17827560D01*
X9953234Y17787693D01*
X9951912Y17747305D01*
X9942733Y17707941D01*
X9923512Y17665519D01*
X9385400Y16733481D01*
X9358270Y16695623D01*
X9328772Y16667995D01*
X9294456Y16646655D01*
X9256631Y16632419D01*
X9216764Y16625837D01*
X9176376Y16627159D01*
X9137015Y16636337D01*
X9094583Y16655563D01*
X9045782Y16683738D01*
X9045778Y16683740D01*
X8699749Y16883520D01*
X8530619Y16981167D01*
X8492752Y17008302D01*
X8465126Y17037799D01*
X8443786Y17072115D01*
X8429550Y17109940D01*
X8422968Y17149807D01*
X8424290Y17190195D01*
X8433469Y17229559D01*
X8452690Y17271981D01*
X8990802Y18204019D01*
X9017932Y18241877D01*
X9047430Y18269505D01*
X9081746Y18290845D01*
X9119571Y18305081D01*
X9159438Y18311663D01*
X9199826Y18310341D01*
G37*
G36*
X1309468Y20746435D02*
G01*
X1348138Y20734704D01*
X1383777Y20715654D01*
X1415017Y20690017D01*
X1440654Y20658777D01*
X1459704Y20623138D01*
X1471435Y20584468D01*
X1476000Y20538112D01*
X1476000Y19461888D01*
X1471435Y19415532D01*
X1459704Y19376862D01*
X1440654Y19341223D01*
X1415017Y19309983D01*
X1383777Y19284346D01*
X1348138Y19265296D01*
X1309468Y19253565D01*
X1263112Y19249000D01*
X611888Y19249000D01*
X565532Y19253565D01*
X526862Y19265296D01*
X491223Y19284346D01*
X459983Y19309983D01*
X434346Y19341223D01*
X415296Y19376862D01*
X403565Y19415532D01*
X399000Y19461888D01*
X399000Y20538112D01*
X403565Y20584468D01*
X415296Y20623138D01*
X434346Y20658777D01*
X459983Y20690017D01*
X491223Y20715654D01*
X526862Y20734704D01*
X565532Y20746435D01*
X611888Y20751000D01*
X1263112Y20751000D01*
X1309468Y20746435D01*
G37*
G36*
X-565532Y20746435D02*
G01*
X-526862Y20734704D01*
X-491223Y20715654D01*
X-459983Y20690017D01*
X-434346Y20658777D01*
X-415296Y20623138D01*
X-403565Y20584468D01*
X-399000Y20538112D01*
X-399000Y19461888D01*
X-403565Y19415532D01*
X-415296Y19376862D01*
X-434346Y19341223D01*
X-459983Y19309983D01*
X-491223Y19284346D01*
X-526862Y19265296D01*
X-565532Y19253565D01*
X-611888Y19249000D01*
X-1263112Y19249000D01*
X-1309468Y19253565D01*
X-1348138Y19265296D01*
X-1383777Y19284346D01*
X-1415017Y19309983D01*
X-1440654Y19341223D01*
X-1459704Y19376862D01*
X-1471435Y19415532D01*
X-1476000Y19461888D01*
X-1476000Y20538112D01*
X-1471435Y20584468D01*
X-1459704Y20623138D01*
X-1440654Y20658777D01*
X-1415017Y20690017D01*
X-1383777Y20715654D01*
X-1348138Y20734704D01*
X-1309468Y20746435D01*
X-1263112Y20751000D01*
X-611888Y20751000D01*
X-565532Y20746435D01*
G37*
G36*
X375256Y31608702D02*
G01*
X481579Y31587553D01*
X782042Y31463097D01*
X1052451Y31282415D01*
X1282415Y31052451D01*
X1463097Y30782042D01*
X1587553Y30481579D01*
X1651000Y30162609D01*
X1651000Y29837391D01*
X1587553Y29518421D01*
X1463097Y29217958D01*
X1282415Y28947549D01*
X1052451Y28717585D01*
X782042Y28536903D01*
X481579Y28412447D01*
X375256Y28391298D01*
X162611Y28349000D01*
X-162611Y28349000D01*
X-375256Y28391298D01*
X-481579Y28412447D01*
X-782042Y28536903D01*
X-1052451Y28717585D01*
X-1282415Y28947549D01*
X-1463097Y29217958D01*
X-1587553Y29518421D01*
X-1651000Y29837391D01*
X-1651000Y30162609D01*
X-1587553Y30481579D01*
X-1463097Y30782042D01*
X-1282415Y31052451D01*
X-1052451Y31282415D01*
X-782042Y31463097D01*
X-481579Y31587553D01*
X-375256Y31608702D01*
X-162611Y31651000D01*
X162611Y31651000D01*
X375256Y31608702D01*
G37*
M02*
