G04 #@! TF.GenerationSoftware,KiCad,Pcbnew,(5.1.5)-3*
G04 #@! TF.CreationDate,2020-03-25T23:07:15+01:00*
G04 #@! TF.ProjectId,carteOdometrie,63617274-654f-4646-9f6d-65747269652e,rev?*
G04 #@! TF.SameCoordinates,Original*
G04 #@! TF.FileFunction,Legend,Bot*
G04 #@! TF.FilePolarity,Positive*
%FSLAX46Y46*%
G04 Gerber Fmt 4.6, Leading zero omitted, Abs format (unit mm)*
G04 Created by KiCad (PCBNEW (5.1.5)-3) date 2020-03-25 23:07:15*
%MOMM*%
%LPD*%
G04 APERTURE LIST*
%ADD10C,0.150000*%
%ADD11C,0.300000*%
%ADD12C,0.120000*%
%ADD13C,0.010000*%
G04 APERTURE END LIST*
D10*
X-10239761Y1007619D02*
X-9906428Y1483809D01*
X-9668333Y1007619D02*
X-9668333Y2007619D01*
X-10049285Y2007619D01*
X-10144523Y1960000D01*
X-10192142Y1912380D01*
X-10239761Y1817142D01*
X-10239761Y1674285D01*
X-10192142Y1579047D01*
X-10144523Y1531428D01*
X-10049285Y1483809D01*
X-9668333Y1483809D01*
X-10858809Y2007619D02*
X-11049285Y2007619D01*
X-11144523Y1960000D01*
X-11239761Y1864761D01*
X-11287380Y1674285D01*
X-11287380Y1340952D01*
X-11239761Y1150476D01*
X-11144523Y1055238D01*
X-11049285Y1007619D01*
X-10858809Y1007619D01*
X-10763571Y1055238D01*
X-10668333Y1150476D01*
X-10620714Y1340952D01*
X-10620714Y1674285D01*
X-10668333Y1864761D01*
X-10763571Y1960000D01*
X-10858809Y2007619D01*
X-12049285Y1531428D02*
X-12192142Y1483809D01*
X-12239761Y1436190D01*
X-12287380Y1340952D01*
X-12287380Y1198095D01*
X-12239761Y1102857D01*
X-12192142Y1055238D01*
X-12096904Y1007619D01*
X-11715952Y1007619D01*
X-11715952Y2007619D01*
X-12049285Y2007619D01*
X-12144523Y1960000D01*
X-12192142Y1912380D01*
X-12239761Y1817142D01*
X-12239761Y1721904D01*
X-12192142Y1626666D01*
X-12144523Y1579047D01*
X-12049285Y1531428D01*
X-11715952Y1531428D01*
X-12906428Y2007619D02*
X-13096904Y2007619D01*
X-13192142Y1960000D01*
X-13287380Y1864761D01*
X-13334999Y1674285D01*
X-13334999Y1340952D01*
X-13287380Y1150476D01*
X-13192142Y1055238D01*
X-13096904Y1007619D01*
X-12906428Y1007619D01*
X-12811190Y1055238D01*
X-12715952Y1150476D01*
X-12668333Y1340952D01*
X-12668333Y1674285D01*
X-12715952Y1864761D01*
X-12811190Y1960000D01*
X-12906428Y2007619D01*
X-13620714Y2007619D02*
X-14192142Y2007619D01*
X-13906428Y1007619D02*
X-13906428Y2007619D01*
X-14525476Y1531428D02*
X-14858809Y1531428D01*
X-15001666Y1007619D02*
X-14525476Y1007619D01*
X-14525476Y2007619D01*
X-15001666Y2007619D01*
X-16001666Y1102857D02*
X-15954047Y1055238D01*
X-15811190Y1007619D01*
X-15715952Y1007619D01*
X-15573095Y1055238D01*
X-15477857Y1150476D01*
X-15430238Y1245714D01*
X-15382619Y1436190D01*
X-15382619Y1579047D01*
X-15430238Y1769523D01*
X-15477857Y1864761D01*
X-15573095Y1960000D01*
X-15715952Y2007619D01*
X-15811190Y2007619D01*
X-15954047Y1960000D01*
X-16001666Y1912380D01*
X-16430238Y1007619D02*
X-16430238Y2007619D01*
X-16430238Y1531428D02*
X-17001666Y1531428D01*
X-17001666Y1007619D02*
X-17001666Y2007619D01*
X-8882619Y-642380D02*
X-8882619Y357619D01*
X-9454047Y-642380D01*
X-9454047Y357619D01*
X-9882619Y-356666D02*
X-10358809Y-356666D01*
X-9787380Y-642380D02*
X-10120714Y357619D01*
X-10454047Y-642380D01*
X-10787380Y-642380D02*
X-10787380Y357619D01*
X-11358809Y-642380D01*
X-11358809Y357619D01*
X-12406428Y-547142D02*
X-12358809Y-594761D01*
X-12215952Y-642380D01*
X-12120714Y-642380D01*
X-11977857Y-594761D01*
X-11882619Y-499523D01*
X-11835000Y-404285D01*
X-11787380Y-213809D01*
X-11787380Y-70952D01*
X-11835000Y119523D01*
X-11882619Y214761D01*
X-11977857Y310000D01*
X-12120714Y357619D01*
X-12215952Y357619D01*
X-12358809Y310000D01*
X-12406428Y262380D01*
X-13025476Y-166190D02*
X-13025476Y-642380D01*
X-12692142Y357619D02*
X-13025476Y-166190D01*
X-13358809Y357619D01*
X-14406428Y262380D02*
X-14454047Y310000D01*
X-14549285Y357619D01*
X-14787380Y357619D01*
X-14882619Y310000D01*
X-14930238Y262380D01*
X-14977857Y167142D01*
X-14977857Y71904D01*
X-14930238Y-70952D01*
X-14358809Y-642380D01*
X-14977857Y-642380D01*
X-15596904Y357619D02*
X-15692142Y357619D01*
X-15787380Y310000D01*
X-15835000Y262380D01*
X-15882619Y167142D01*
X-15930238Y-23333D01*
X-15930238Y-261428D01*
X-15882619Y-451904D01*
X-15835000Y-547142D01*
X-15787380Y-594761D01*
X-15692142Y-642380D01*
X-15596904Y-642380D01*
X-15501666Y-594761D01*
X-15454047Y-547142D01*
X-15406428Y-451904D01*
X-15358809Y-261428D01*
X-15358809Y-23333D01*
X-15406428Y167142D01*
X-15454047Y262380D01*
X-15501666Y310000D01*
X-15596904Y357619D01*
X-16311190Y262380D02*
X-16358809Y310000D01*
X-16454047Y357619D01*
X-16692142Y357619D01*
X-16787380Y310000D01*
X-16835000Y262380D01*
X-16882619Y167142D01*
X-16882619Y71904D01*
X-16835000Y-70952D01*
X-16263571Y-642380D01*
X-16882619Y-642380D01*
X-17501666Y357619D02*
X-17596904Y357619D01*
X-17692142Y310000D01*
X-17739761Y262380D01*
X-17787380Y167142D01*
X-17835000Y-23333D01*
X-17835000Y-261428D01*
X-17787380Y-451904D01*
X-17739761Y-547142D01*
X-17692142Y-594761D01*
X-17596904Y-642380D01*
X-17501666Y-642380D01*
X-17406428Y-594761D01*
X-17358809Y-547142D01*
X-17311190Y-451904D01*
X-17263571Y-261428D01*
X-17263571Y-23333D01*
X-17311190Y167142D01*
X-17358809Y262380D01*
X-17406428Y310000D01*
X-17501666Y357619D01*
X20485952Y-404761D02*
X20343095Y-452380D01*
X20105000Y-452380D01*
X20009761Y-404761D01*
X19962142Y-357142D01*
X19914523Y-261904D01*
X19914523Y-166666D01*
X19962142Y-71428D01*
X20009761Y-23809D01*
X20105000Y23809D01*
X20295476Y71428D01*
X20390714Y119047D01*
X20438333Y166666D01*
X20485952Y261904D01*
X20485952Y357142D01*
X20438333Y452380D01*
X20390714Y500000D01*
X20295476Y547619D01*
X20057380Y547619D01*
X19914523Y500000D01*
X19628809Y547619D02*
X19057380Y547619D01*
X19343095Y-452380D02*
X19343095Y547619D01*
X18724047Y-452380D02*
X18724047Y547619D01*
X18390714Y-166666D01*
X18057380Y547619D01*
X18057380Y-452380D01*
X17676428Y547619D02*
X17057380Y547619D01*
X17390714Y166666D01*
X17247857Y166666D01*
X17152619Y119047D01*
X17105000Y71428D01*
X17057380Y-23809D01*
X17057380Y-261904D01*
X17105000Y-357142D01*
X17152619Y-404761D01*
X17247857Y-452380D01*
X17533571Y-452380D01*
X17628809Y-404761D01*
X17676428Y-357142D01*
X16676428Y452380D02*
X16628809Y500000D01*
X16533571Y547619D01*
X16295476Y547619D01*
X16200238Y500000D01*
X16152619Y452380D01*
X16105000Y357142D01*
X16105000Y261904D01*
X16152619Y119047D01*
X16724047Y-452380D01*
X16105000Y-452380D01*
X15343095Y71428D02*
X15676428Y71428D01*
X15676428Y-452380D02*
X15676428Y547619D01*
X15200238Y547619D01*
X14295476Y-452380D02*
X14866904Y-452380D01*
X14581190Y-452380D02*
X14581190Y547619D01*
X14676428Y404761D01*
X14771666Y309523D01*
X14866904Y261904D01*
X13676428Y547619D02*
X13581190Y547619D01*
X13485952Y500000D01*
X13438333Y452380D01*
X13390714Y357142D01*
X13343095Y166666D01*
X13343095Y-71428D01*
X13390714Y-261904D01*
X13438333Y-357142D01*
X13485952Y-404761D01*
X13581190Y-452380D01*
X13676428Y-452380D01*
X13771666Y-404761D01*
X13819285Y-357142D01*
X13866904Y-261904D01*
X13914523Y-71428D01*
X13914523Y166666D01*
X13866904Y357142D01*
X13819285Y452380D01*
X13771666Y500000D01*
X13676428Y547619D01*
X13009761Y547619D02*
X12390714Y547619D01*
X12724047Y166666D01*
X12581190Y166666D01*
X12485952Y119047D01*
X12438333Y71428D01*
X12390714Y-23809D01*
X12390714Y-261904D01*
X12438333Y-357142D01*
X12485952Y-404761D01*
X12581190Y-452380D01*
X12866904Y-452380D01*
X12962142Y-404761D01*
X13009761Y-357142D01*
X11390714Y-357142D02*
X11438333Y-404761D01*
X11581190Y-452380D01*
X11676428Y-452380D01*
X11819285Y-404761D01*
X11914523Y-309523D01*
X11962142Y-214285D01*
X12009761Y-23809D01*
X12009761Y119047D01*
X11962142Y309523D01*
X11914523Y404761D01*
X11819285Y500000D01*
X11676428Y547619D01*
X11581190Y547619D01*
X11438333Y500000D01*
X11390714Y452380D01*
X10819285Y119047D02*
X10914523Y166666D01*
X10962142Y214285D01*
X11009761Y309523D01*
X11009761Y357142D01*
X10962142Y452380D01*
X10914523Y500000D01*
X10819285Y547619D01*
X10628809Y547619D01*
X10533571Y500000D01*
X10485952Y452380D01*
X10438333Y357142D01*
X10438333Y309523D01*
X10485952Y214285D01*
X10533571Y166666D01*
X10628809Y119047D01*
X10819285Y119047D01*
X10914523Y71428D01*
X10962142Y23809D01*
X11009761Y-71428D01*
X11009761Y-261904D01*
X10962142Y-357142D01*
X10914523Y-404761D01*
X10819285Y-452380D01*
X10628809Y-452380D01*
X10533571Y-404761D01*
X10485952Y-357142D01*
X10438333Y-261904D01*
X10438333Y-71428D01*
X10485952Y23809D01*
X10533571Y71428D01*
X10628809Y119047D01*
X10152619Y547619D02*
X9581190Y547619D01*
X9866904Y-452380D02*
X9866904Y547619D01*
X8819285Y547619D02*
X9009761Y547619D01*
X9105000Y500000D01*
X9152619Y452380D01*
X9247857Y309523D01*
X9295476Y119047D01*
X9295476Y-261904D01*
X9247857Y-357142D01*
X9200238Y-404761D01*
X9105000Y-452380D01*
X8914523Y-452380D01*
X8819285Y-404761D01*
X8771666Y-357142D01*
X8724047Y-261904D01*
X8724047Y-23809D01*
X8771666Y71428D01*
X8819285Y119047D01*
X8914523Y166666D01*
X9105000Y166666D01*
X9200238Y119047D01*
X9247857Y71428D01*
X9295476Y-23809D01*
D11*
X364285Y-11859761D02*
X-16666Y-11859761D01*
X-207142Y-11955000D01*
X-397619Y-12145476D01*
X-492857Y-12526428D01*
X-492857Y-13193095D01*
X-397619Y-13574047D01*
X-207142Y-13764523D01*
X-16666Y-13859761D01*
X364285Y-13859761D01*
X554761Y-13764523D01*
X745238Y-13574047D01*
X840476Y-13193095D01*
X840476Y-12526428D01*
X745238Y-12145476D01*
X554761Y-11955000D01*
X364285Y-11859761D01*
X-2207142Y-13859761D02*
X-2207142Y-11859761D01*
X-2207142Y-13764523D02*
X-2016666Y-13859761D01*
X-1635714Y-13859761D01*
X-1445238Y-13764523D01*
X-1350000Y-13669285D01*
X-1254761Y-13478809D01*
X-1254761Y-12907380D01*
X-1350000Y-12716904D01*
X-1445238Y-12621666D01*
X-1635714Y-12526428D01*
X-2016666Y-12526428D01*
X-2207142Y-12621666D01*
X-3445238Y-13859761D02*
X-3254761Y-13764523D01*
X-3159523Y-13669285D01*
X-3064285Y-13478809D01*
X-3064285Y-12907380D01*
X-3159523Y-12716904D01*
X-3254761Y-12621666D01*
X-3445238Y-12526428D01*
X-3730952Y-12526428D01*
X-3921428Y-12621666D01*
X-4016666Y-12716904D01*
X-4111904Y-12907380D01*
X-4111904Y-13478809D01*
X-4016666Y-13669285D01*
X-3921428Y-13764523D01*
X-3730952Y-13859761D01*
X-3445238Y-13859761D01*
X-4969047Y-13859761D02*
X-4969047Y-12526428D01*
X-4969047Y-12716904D02*
X-5064285Y-12621666D01*
X-5254761Y-12526428D01*
X-5540476Y-12526428D01*
X-5730952Y-12621666D01*
X-5826190Y-12812142D01*
X-5826190Y-13859761D01*
X-5826190Y-12812142D02*
X-5921428Y-12621666D01*
X-6111904Y-12526428D01*
X-6397619Y-12526428D01*
X-6588095Y-12621666D01*
X-6683333Y-12812142D01*
X-6683333Y-13859761D01*
X-8397619Y-13764523D02*
X-8207142Y-13859761D01*
X-7826190Y-13859761D01*
X-7635714Y-13764523D01*
X-7540476Y-13574047D01*
X-7540476Y-12812142D01*
X-7635714Y-12621666D01*
X-7826190Y-12526428D01*
X-8207142Y-12526428D01*
X-8397619Y-12621666D01*
X-8492857Y-12812142D01*
X-8492857Y-13002619D01*
X-7540476Y-13193095D01*
X-9064285Y-12526428D02*
X-9826190Y-12526428D01*
X-9350000Y-11859761D02*
X-9350000Y-13574047D01*
X-9445238Y-13764523D01*
X-9635714Y-13859761D01*
X-9826190Y-13859761D01*
X-10492857Y-13859761D02*
X-10492857Y-12526428D01*
X-10492857Y-12907380D02*
X-10588095Y-12716904D01*
X-10683333Y-12621666D01*
X-10873809Y-12526428D01*
X-11064285Y-12526428D01*
X-11730952Y-13859761D02*
X-11730952Y-12526428D01*
X-11730952Y-11859761D02*
X-11635714Y-11955000D01*
X-11730952Y-12050238D01*
X-11826190Y-11955000D01*
X-11730952Y-11859761D01*
X-11730952Y-12050238D01*
X-13445238Y-13764523D02*
X-13254761Y-13859761D01*
X-12873809Y-13859761D01*
X-12683333Y-13764523D01*
X-12588095Y-13574047D01*
X-12588095Y-12812142D01*
X-12683333Y-12621666D01*
X-12873809Y-12526428D01*
X-13254761Y-12526428D01*
X-13445238Y-12621666D01*
X-13540476Y-12812142D01*
X-13540476Y-13002619D01*
X-12588095Y-13193095D01*
X-2016666Y-17159761D02*
X-1350000Y-16207380D01*
X-873809Y-17159761D02*
X-873809Y-15159761D01*
X-1635714Y-15159761D01*
X-1826190Y-15255000D01*
X-1921428Y-15350238D01*
X-2016666Y-15540714D01*
X-2016666Y-15826428D01*
X-1921428Y-16016904D01*
X-1826190Y-16112142D01*
X-1635714Y-16207380D01*
X-873809Y-16207380D01*
X-3635714Y-17064523D02*
X-3445238Y-17159761D01*
X-3064285Y-17159761D01*
X-2873809Y-17064523D01*
X-2778571Y-16874047D01*
X-2778571Y-16112142D01*
X-2873809Y-15921666D01*
X-3064285Y-15826428D01*
X-3445238Y-15826428D01*
X-3635714Y-15921666D01*
X-3730952Y-16112142D01*
X-3730952Y-16302619D01*
X-2778571Y-16493095D01*
X-4873809Y-17159761D02*
X-4683333Y-17064523D01*
X-4588095Y-16874047D01*
X-4588095Y-15159761D01*
X-6492857Y-17159761D02*
X-6492857Y-16112142D01*
X-6397619Y-15921666D01*
X-6207142Y-15826428D01*
X-5826190Y-15826428D01*
X-5635714Y-15921666D01*
X-6492857Y-17064523D02*
X-6302380Y-17159761D01*
X-5826190Y-17159761D01*
X-5635714Y-17064523D01*
X-5540476Y-16874047D01*
X-5540476Y-16683571D01*
X-5635714Y-16493095D01*
X-5826190Y-16397857D01*
X-6302380Y-16397857D01*
X-6492857Y-16302619D01*
X-7159523Y-15826428D02*
X-7921428Y-15826428D01*
X-7445238Y-15159761D02*
X-7445238Y-16874047D01*
X-7540476Y-17064523D01*
X-7730952Y-17159761D01*
X-7921428Y-17159761D01*
X-8588095Y-17159761D02*
X-8588095Y-15826428D01*
X-8588095Y-15159761D02*
X-8492857Y-15255000D01*
X-8588095Y-15350238D01*
X-8683333Y-15255000D01*
X-8588095Y-15159761D01*
X-8588095Y-15350238D01*
X-9350000Y-15826428D02*
X-9826190Y-17159761D01*
X-10302380Y-15826428D01*
X-11826190Y-17064523D02*
X-11635714Y-17159761D01*
X-11254761Y-17159761D01*
X-11064285Y-17064523D01*
X-10969047Y-16874047D01*
X-10969047Y-16112142D01*
X-11064285Y-15921666D01*
X-11254761Y-15826428D01*
X-11635714Y-15826428D01*
X-11826190Y-15921666D01*
X-11921428Y-16112142D01*
X-11921428Y-16302619D01*
X-10969047Y-16493095D01*
D12*
X134000000Y85000000D02*
X134000000Y16000000D01*
X167000000Y51000000D02*
X99000000Y51000000D01*
D13*
G36*
X-217094Y4779386D02*
G01*
X-368301Y4771337D01*
X-498979Y4758759D01*
X-548261Y4751690D01*
X-868086Y4684219D01*
X-1191643Y4585453D01*
X-1519425Y4455131D01*
X-1851925Y4292993D01*
X-2189633Y4098779D01*
X-2533044Y3872226D01*
X-2882649Y3613076D01*
X-3217333Y3339548D01*
X-3399552Y3178580D01*
X-3592392Y2998193D01*
X-3789749Y2804665D01*
X-3985519Y2604276D01*
X-4173600Y2403305D01*
X-4347888Y2208032D01*
X-4502282Y2024736D01*
X-4536194Y1982601D01*
X-4613137Y1883982D01*
X-4668830Y1806208D01*
X-4704648Y1744927D01*
X-4721967Y1695784D01*
X-4722164Y1654427D01*
X-4706614Y1616501D01*
X-4676693Y1577653D01*
X-4667367Y1567540D01*
X-4605170Y1520681D01*
X-4539609Y1505966D01*
X-4474627Y1523875D01*
X-4448846Y1540934D01*
X-4416274Y1564343D01*
X-4396210Y1574766D01*
X-4395714Y1574801D01*
X-4399678Y1560668D01*
X-4417104Y1521596D01*
X-4445606Y1462574D01*
X-4482796Y1388590D01*
X-4511195Y1333501D01*
X-4561381Y1234359D01*
X-4617053Y1119830D01*
X-4675424Y996087D01*
X-4733706Y869304D01*
X-4789110Y745653D01*
X-4838849Y631308D01*
X-4880135Y532441D01*
X-4910181Y455226D01*
X-4918422Y431800D01*
X-4934555Y384807D01*
X-4959189Y314449D01*
X-4989331Y229220D01*
X-5021987Y137612D01*
X-5031857Y110067D01*
X-5098937Y-83757D01*
X-5151332Y-251181D01*
X-5189942Y-395874D01*
X-5215669Y-521501D01*
X-5229413Y-631732D01*
X-5232400Y-706460D01*
X-5228990Y-808926D01*
X-5216696Y-883720D01*
X-5192417Y-936537D01*
X-5153051Y-973074D01*
X-5095498Y-999027D01*
X-5068732Y-1007155D01*
X-5030850Y-1006757D01*
X-4970631Y-993629D01*
X-4896143Y-969951D01*
X-4820539Y-940114D01*
X-4820050Y-949170D01*
X-4836527Y-982164D01*
X-4867657Y-1035192D01*
X-4911123Y-1104350D01*
X-4964612Y-1185734D01*
X-4977821Y-1205375D01*
X-5050195Y-1314371D01*
X-5102989Y-1398730D01*
X-5137079Y-1460809D01*
X-5153335Y-1502964D01*
X-5152631Y-1527553D01*
X-5135840Y-1536933D01*
X-5103835Y-1533460D01*
X-5098871Y-1532256D01*
X-5051312Y-1520827D01*
X-4979950Y-1504394D01*
X-4894100Y-1485038D01*
X-4803076Y-1464843D01*
X-4716194Y-1445890D01*
X-4642767Y-1430261D01*
X-4639733Y-1429628D01*
X-4493397Y-1410026D01*
X-4341167Y-1409003D01*
X-4191850Y-1425500D01*
X-4054251Y-1458458D01*
X-3937176Y-1506821D01*
X-3920733Y-1516037D01*
X-3864519Y-1556270D01*
X-3800678Y-1613113D01*
X-3736988Y-1678349D01*
X-3681231Y-1743760D01*
X-3641186Y-1801127D01*
X-3629890Y-1823249D01*
X-3615538Y-1875296D01*
X-3607454Y-1938948D01*
X-3606800Y-1959681D01*
X-3606800Y-2040850D01*
X-2319866Y-3477018D01*
X-2124242Y-3695617D01*
X-1941654Y-3900231D01*
X-1773022Y-4089810D01*
X-1619266Y-4263305D01*
X-1481303Y-4419667D01*
X-1360053Y-4557846D01*
X-1256436Y-4676793D01*
X-1171370Y-4775459D01*
X-1105774Y-4852795D01*
X-1060567Y-4907750D01*
X-1036669Y-4939276D01*
X-1032933Y-4946388D01*
X-1023849Y-4984913D01*
X-1005585Y-5021329D01*
X-978238Y-5063066D01*
X961305Y-5063066D01*
X988653Y-5021329D01*
X1008964Y-4979300D01*
X1016000Y-4946388D01*
X1027225Y-4928815D01*
X1060287Y-4887208D01*
X1114267Y-4822618D01*
X1188245Y-4736094D01*
X1281304Y-4628685D01*
X1392523Y-4501441D01*
X1520984Y-4355410D01*
X1665768Y-4191642D01*
X1825955Y-4011187D01*
X2000627Y-3815093D01*
X2188865Y-3604411D01*
X2302934Y-3477018D01*
X3589867Y-2040850D01*
X3589867Y-1959681D01*
X3595645Y-1887100D01*
X3600898Y-1870186D01*
X3251201Y-1870186D01*
X3245071Y-1884947D01*
X3226019Y-1913167D01*
X3193051Y-1955999D01*
X3145172Y-2014598D01*
X3081389Y-2090115D01*
X3000707Y-2183705D01*
X2902133Y-2296520D01*
X2784672Y-2429713D01*
X2647330Y-2584439D01*
X2489113Y-2761849D01*
X2309648Y-2962404D01*
X2165664Y-3122895D01*
X2028033Y-3275918D01*
X1898444Y-3419619D01*
X1778585Y-3552143D01*
X1670144Y-3671637D01*
X1574809Y-3776247D01*
X1494268Y-3864118D01*
X1430209Y-3933396D01*
X1384321Y-3982227D01*
X1358292Y-4008757D01*
X1352914Y-4013200D01*
X1340132Y-3999213D01*
X1337933Y-3983566D01*
X1340030Y-3961421D01*
X1345975Y-3908960D01*
X1355370Y-3829463D01*
X1367816Y-3726214D01*
X1382914Y-3602495D01*
X1400264Y-3461589D01*
X1419467Y-3306776D01*
X1440126Y-3141340D01*
X1446511Y-3090419D01*
X1504437Y-2628884D01*
X1161120Y-2628884D01*
X1159081Y-2650066D01*
X1155555Y-2675695D01*
X1148255Y-2731841D01*
X1137571Y-2815410D01*
X1123894Y-2923309D01*
X1107613Y-3052446D01*
X1089118Y-3199727D01*
X1068799Y-3362059D01*
X1047046Y-3536350D01*
X1024836Y-3714789D01*
X1002186Y-3896200D01*
X980614Y-4067439D01*
X960501Y-4225584D01*
X942228Y-4367709D01*
X926175Y-4490891D01*
X912724Y-4592206D01*
X902256Y-4668730D01*
X895153Y-4717541D01*
X891794Y-4735713D01*
X891771Y-4735740D01*
X873668Y-4738679D01*
X827224Y-4743052D01*
X757917Y-4748511D01*
X671224Y-4754711D01*
X572624Y-4761303D01*
X467596Y-4767940D01*
X361617Y-4774276D01*
X260166Y-4779963D01*
X168720Y-4784654D01*
X92759Y-4788001D01*
X42334Y-4789575D01*
X-3233Y-4789133D01*
X-76494Y-4786804D01*
X-171349Y-4782854D01*
X-281693Y-4777553D01*
X-401426Y-4771167D01*
X-481074Y-4766582D01*
X-596918Y-4759478D01*
X-701116Y-4752645D01*
X-789043Y-4746421D01*
X-856075Y-4741145D01*
X-897588Y-4737159D01*
X-909307Y-4735137D01*
X-912487Y-4717642D01*
X-919426Y-4669455D01*
X-929742Y-4593498D01*
X-943058Y-4492692D01*
X-958993Y-4369958D01*
X-977169Y-4228219D01*
X-997206Y-4070395D01*
X-1007496Y-3988627D01*
X-1358028Y-3988627D01*
X-1358955Y-4003296D01*
X-1361435Y-4010536D01*
X-1365205Y-4012965D01*
X-1369855Y-4013200D01*
X-1383488Y-4000913D01*
X-1417738Y-3965457D01*
X-1470681Y-3908935D01*
X-1540392Y-3833452D01*
X-1624945Y-3741114D01*
X-1722415Y-3634024D01*
X-1830878Y-3514286D01*
X-1948409Y-3384007D01*
X-2073083Y-3245290D01*
X-2116820Y-3196507D01*
X-2243774Y-3054537D01*
X-2364161Y-2919356D01*
X-2476048Y-2793174D01*
X-2577496Y-2678201D01*
X-2666572Y-2576646D01*
X-2741340Y-2490717D01*
X-2799863Y-2422624D01*
X-2840207Y-2374577D01*
X-2860435Y-2348784D01*
X-2862337Y-2345607D01*
X-2877959Y-2321870D01*
X-2912323Y-2278219D01*
X-2961260Y-2219678D01*
X-3020599Y-2151275D01*
X-3063638Y-2102944D01*
X-3138704Y-2017496D01*
X-3195197Y-1949008D01*
X-3232431Y-1898772D01*
X-3249717Y-1868086D01*
X-3246370Y-1858245D01*
X-3221701Y-1870545D01*
X-3175024Y-1906281D01*
X-3162300Y-1916936D01*
X-3006453Y-2048214D01*
X-2863442Y-2167165D01*
X-2735097Y-2272334D01*
X-2623247Y-2362264D01*
X-2529723Y-2435500D01*
X-2456355Y-2490586D01*
X-2404971Y-2526065D01*
X-2379245Y-2539962D01*
X-2328975Y-2549764D01*
X-2279837Y-2540139D01*
X-2261442Y-2532976D01*
X-2227595Y-2515452D01*
X-2201271Y-2491714D01*
X-2181267Y-2457371D01*
X-2166383Y-2408033D01*
X-2155413Y-2339309D01*
X-2147157Y-2246807D01*
X-2140412Y-2126137D01*
X-2138518Y-2084129D01*
X-2125133Y-1776293D01*
X-1904999Y-1952944D01*
X-1826588Y-2016065D01*
X-1753166Y-2075532D01*
X-1690695Y-2126489D01*
X-1645133Y-2164084D01*
X-1628344Y-2178249D01*
X-1571822Y-2226905D01*
X-1463443Y-3090419D01*
X-1438433Y-3289736D01*
X-1417367Y-3458066D01*
X-1399979Y-3598027D01*
X-1386004Y-3712237D01*
X-1375176Y-3803313D01*
X-1367230Y-3873872D01*
X-1361900Y-3926532D01*
X-1358921Y-3963911D01*
X-1358028Y-3988627D01*
X-1007496Y-3988627D01*
X-1018725Y-3899409D01*
X-1041347Y-3718180D01*
X-1041768Y-3714789D01*
X-1064543Y-3531820D01*
X-1086265Y-3357794D01*
X-1106542Y-3195804D01*
X-1124986Y-3048944D01*
X-1141206Y-2920306D01*
X-1154813Y-2812983D01*
X-1165415Y-2730070D01*
X-1172625Y-2674658D01*
X-1176013Y-2650066D01*
X-1178033Y-2628618D01*
X-1172452Y-2622283D01*
X-1155467Y-2633566D01*
X-1123273Y-2664975D01*
X-1073206Y-2717799D01*
X-1016203Y-2780672D01*
X-947728Y-2859226D01*
X-877219Y-2942502D01*
X-825297Y-3005643D01*
X-688404Y-3174954D01*
X-768597Y-3186425D01*
X-852161Y-3207058D01*
X-908889Y-3242952D01*
X-943633Y-3297415D01*
X-947589Y-3308414D01*
X-958097Y-3360084D01*
X-948846Y-3408787D01*
X-942067Y-3426184D01*
X-920445Y-3467719D01*
X-892250Y-3496316D01*
X-851462Y-3514031D01*
X-792057Y-3522921D01*
X-708013Y-3525043D01*
X-654994Y-3524211D01*
X-557213Y-3523986D01*
X-489125Y-3529197D01*
X-446866Y-3540690D01*
X-426575Y-3559312D01*
X-423333Y-3575006D01*
X-439099Y-3581098D01*
X-481743Y-3585980D01*
X-544280Y-3589072D01*
X-601677Y-3589866D01*
X-711696Y-3592707D01*
X-793367Y-3602405D01*
X-851825Y-3620726D01*
X-892202Y-3649435D01*
X-919634Y-3690296D01*
X-924310Y-3700776D01*
X-940188Y-3752892D01*
X-936770Y-3799660D01*
X-930656Y-3820518D01*
X-915979Y-3858187D01*
X-897102Y-3886442D01*
X-869380Y-3906544D01*
X-828170Y-3919755D01*
X-768826Y-3927337D01*
X-686706Y-3930551D01*
X-577164Y-3930660D01*
X-527108Y-3930145D01*
X-226466Y-3926564D01*
X-206366Y-3970678D01*
X-191804Y-4005034D01*
X-186266Y-4022463D01*
X-202284Y-4024978D01*
X-246674Y-4027146D01*
X-313945Y-4028822D01*
X-398602Y-4029860D01*
X-474677Y-4030133D01*
X-601490Y-4031168D01*
X-699012Y-4035047D01*
X-771780Y-4042932D01*
X-824328Y-4055987D01*
X-861190Y-4075373D01*
X-886902Y-4102253D01*
X-905998Y-4137790D01*
X-907376Y-4141042D01*
X-923255Y-4193159D01*
X-919837Y-4239927D01*
X-913722Y-4260785D01*
X-905697Y-4285150D01*
X-897182Y-4305601D01*
X-885343Y-4322480D01*
X-867345Y-4336130D01*
X-840354Y-4346893D01*
X-801536Y-4355112D01*
X-748057Y-4361128D01*
X-677082Y-4365285D01*
X-585778Y-4367924D01*
X-471310Y-4369389D01*
X-330843Y-4370021D01*
X-161544Y-4370163D01*
X-8466Y-4370154D01*
X185164Y-4370156D01*
X347762Y-4369934D01*
X482162Y-4369145D01*
X591198Y-4367447D01*
X677705Y-4364498D01*
X744517Y-4359955D01*
X794467Y-4353475D01*
X830391Y-4344717D01*
X855122Y-4333337D01*
X871495Y-4318994D01*
X882344Y-4301345D01*
X890504Y-4280047D01*
X896790Y-4260785D01*
X907235Y-4210376D01*
X898819Y-4162840D01*
X890444Y-4141042D01*
X871681Y-4104763D01*
X846666Y-4077233D01*
X810862Y-4057290D01*
X759737Y-4043771D01*
X688754Y-4035515D01*
X593379Y-4031358D01*
X469077Y-4030138D01*
X457744Y-4030133D01*
X363182Y-4029707D01*
X281639Y-4028526D01*
X218607Y-4026737D01*
X179580Y-4024486D01*
X169334Y-4022463D01*
X175614Y-4003123D01*
X189434Y-3970678D01*
X209534Y-3926564D01*
X510176Y-3930145D01*
X631418Y-3930891D01*
X723465Y-3929012D01*
X790961Y-3923247D01*
X838550Y-3912335D01*
X870877Y-3895014D01*
X892584Y-3870023D01*
X908317Y-3836099D01*
X913723Y-3820518D01*
X924168Y-3770109D01*
X915752Y-3722574D01*
X907377Y-3700776D01*
X882047Y-3657088D01*
X844868Y-3625930D01*
X790707Y-3605537D01*
X714429Y-3594144D01*
X610901Y-3589985D01*
X584744Y-3589866D01*
X511637Y-3588552D01*
X453039Y-3584999D01*
X415932Y-3579789D01*
X406400Y-3575006D01*
X414886Y-3551481D01*
X442917Y-3535616D01*
X494356Y-3526564D01*
X573064Y-3523480D01*
X638061Y-3524211D01*
X736650Y-3524697D01*
X807595Y-3519441D01*
X856919Y-3506386D01*
X890644Y-3483475D01*
X914792Y-3448652D01*
X925135Y-3426184D01*
X940514Y-3373962D01*
X935816Y-3325557D01*
X930657Y-3308414D01*
X899074Y-3250570D01*
X846306Y-3211840D01*
X767504Y-3188917D01*
X751665Y-3186425D01*
X671472Y-3174954D01*
X808365Y-3005643D01*
X873638Y-2926543D01*
X944490Y-2843325D01*
X1011483Y-2766949D01*
X1056274Y-2717799D01*
X1107095Y-2664199D01*
X1138973Y-2633184D01*
X1155714Y-2622248D01*
X1161120Y-2628884D01*
X1504437Y-2628884D01*
X1554890Y-2226905D01*
X1611412Y-2178249D01*
X1643912Y-2151045D01*
X1696912Y-2107555D01*
X1764451Y-2052633D01*
X1840571Y-1991132D01*
X1888067Y-1952944D01*
X2108200Y-1776293D01*
X2121585Y-2084129D01*
X2128113Y-2214032D01*
X2135794Y-2314460D01*
X2145830Y-2389802D01*
X2159424Y-2444452D01*
X2177778Y-2482799D01*
X2202095Y-2509234D01*
X2233577Y-2528149D01*
X2244510Y-2532976D01*
X2297464Y-2548900D01*
X2344997Y-2545083D01*
X2362570Y-2539878D01*
X2389296Y-2524635D01*
X2438227Y-2490287D01*
X2505736Y-2439634D01*
X2588197Y-2375476D01*
X2681984Y-2300610D01*
X2783472Y-2217837D01*
X2835251Y-2174959D01*
X2951296Y-2078663D01*
X3044046Y-2002497D01*
X3115992Y-1944636D01*
X3169626Y-1903254D01*
X3207439Y-1876527D01*
X3231921Y-1862629D01*
X3245564Y-1859734D01*
X3250858Y-1866019D01*
X3251201Y-1870186D01*
X3600898Y-1870186D01*
X3615728Y-1822440D01*
X3654238Y-1757140D01*
X3715299Y-1682639D01*
X3732222Y-1664107D01*
X3823286Y-1576011D01*
X3914207Y-1512430D01*
X4016903Y-1466230D01*
X4108979Y-1438656D01*
X4209490Y-1417129D01*
X4308139Y-1405722D01*
X4410604Y-1404916D01*
X4522561Y-1415191D01*
X4649687Y-1437026D01*
X4797660Y-1470902D01*
X4942591Y-1509115D01*
X5028834Y-1532284D01*
X5103492Y-1551311D01*
X5160503Y-1564732D01*
X5193806Y-1571080D01*
X5199520Y-1571214D01*
X5194201Y-1556561D01*
X5171957Y-1518178D01*
X5135329Y-1460049D01*
X5086858Y-1386155D01*
X5029085Y-1300481D01*
X4996535Y-1253066D01*
X4934484Y-1162718D01*
X4879763Y-1082099D01*
X4835040Y-1015220D01*
X4802983Y-966089D01*
X4786259Y-938714D01*
X4784488Y-934428D01*
X4800516Y-938560D01*
X4837821Y-954731D01*
X4879040Y-974801D01*
X4977491Y-1012294D01*
X5065334Y-1020345D01*
X5138779Y-999328D01*
X5179540Y-969656D01*
X5207205Y-928019D01*
X5223802Y-868437D01*
X5231360Y-784930D01*
X5232400Y-723393D01*
X5230328Y-641732D01*
X5226428Y-602500D01*
X4889544Y-602500D01*
X4872162Y-600680D01*
X4830899Y-591412D01*
X4774408Y-576655D01*
X4769865Y-575400D01*
X4681858Y-555306D01*
X4573062Y-536800D01*
X4456555Y-521602D01*
X4345416Y-511434D01*
X4257781Y-508000D01*
X4199058Y-513830D01*
X4146987Y-528417D01*
X4134347Y-534620D01*
X4106939Y-559019D01*
X4066789Y-604955D01*
X4019580Y-665546D01*
X3976989Y-725120D01*
X3864578Y-889000D01*
X4256332Y-857846D01*
X4349721Y-958089D01*
X4443109Y-1058333D01*
X4291109Y-1069109D01*
X4205296Y-1077630D01*
X4116301Y-1090389D01*
X4041020Y-1104896D01*
X4029587Y-1107663D01*
X3956435Y-1130244D01*
X3871940Y-1162450D01*
X3786619Y-1199648D01*
X3710992Y-1237204D01*
X3655577Y-1270487D01*
X3649134Y-1275225D01*
X3635995Y-1284229D01*
X3626670Y-1284722D01*
X3620367Y-1272142D01*
X3616295Y-1241928D01*
X3615058Y-1217291D01*
X3268134Y-1217291D01*
X3268134Y-1419773D01*
X3209047Y-1439273D01*
X3180051Y-1455286D01*
X3129536Y-1490080D01*
X3061735Y-1540447D01*
X2980887Y-1603178D01*
X2891226Y-1675065D01*
X2816463Y-1736625D01*
X2726272Y-1811522D01*
X2645090Y-1878470D01*
X2576388Y-1934643D01*
X2523639Y-1977215D01*
X2490315Y-2003362D01*
X2479814Y-2010538D01*
X2477899Y-1993158D01*
X2474794Y-1948110D01*
X2470877Y-1881555D01*
X2466525Y-1799657D01*
X2464940Y-1767916D01*
X2453219Y-1529233D01*
X2661710Y-1392913D01*
X2756585Y-1331301D01*
X2855871Y-1267558D01*
X2954221Y-1205047D01*
X2995644Y-1178987D01*
X1692781Y-1178987D01*
X1590901Y-1171618D01*
X1495402Y-1174763D01*
X1380822Y-1194391D01*
X1255970Y-1227775D01*
X1129658Y-1272185D01*
X1010694Y-1324896D01*
X908181Y-1382989D01*
X758408Y-1485070D01*
X638676Y-1575929D01*
X547643Y-1657072D01*
X483966Y-1730005D01*
X446302Y-1796235D01*
X433309Y-1857266D01*
X440944Y-1907051D01*
X465446Y-1954643D01*
X498642Y-1990577D01*
X500771Y-1992034D01*
X541320Y-2018603D01*
X465233Y-2122668D01*
X403004Y-2211286D01*
X330860Y-2319610D01*
X254835Y-2438089D01*
X180961Y-2557172D01*
X115271Y-2667310D01*
X66566Y-2753795D01*
X-7577Y-2891390D01*
X-105227Y-2715450D01*
X-158348Y-2622709D01*
X-220324Y-2519012D01*
X-281455Y-2420434D01*
X-310918Y-2374655D01*
X-362501Y-2296921D01*
X-415702Y-2218374D01*
X-463100Y-2149896D01*
X-488564Y-2114174D01*
X-558170Y-2018549D01*
X-517662Y-1992007D01*
X-473010Y-1944103D01*
X-451488Y-1880339D01*
X-456208Y-1812173D01*
X-463392Y-1792152D01*
X-489690Y-1742588D01*
X-526228Y-1694808D01*
X-578483Y-1642956D01*
X-651933Y-1581180D01*
X-685800Y-1554462D01*
X-718154Y-1530540D01*
X-2467659Y-1530540D01*
X-2478429Y-1682271D01*
X-2483493Y-1764452D01*
X-2487278Y-1846519D01*
X-2489120Y-1913466D01*
X-2489199Y-1925687D01*
X-2489199Y-2017372D01*
X-2539689Y-1981421D01*
X-2571771Y-1954243D01*
X-2586277Y-1933227D01*
X-2586256Y-1930611D01*
X-2597211Y-1914278D01*
X-2630618Y-1881058D01*
X-2681998Y-1834604D01*
X-2746877Y-1778569D01*
X-2820777Y-1716606D01*
X-2899222Y-1652369D01*
X-2977736Y-1589511D01*
X-3051844Y-1531684D01*
X-3117067Y-1482543D01*
X-3168931Y-1445740D01*
X-3202959Y-1424928D01*
X-3209048Y-1422339D01*
X-3268133Y-1402840D01*
X-3268133Y-1217886D01*
X-3267269Y-1143322D01*
X-3264926Y-1083142D01*
X-3261480Y-1044205D01*
X-3258008Y-1032933D01*
X-3238609Y-1041843D01*
X-3194510Y-1067075D01*
X-3129337Y-1106382D01*
X-3046711Y-1157515D01*
X-2950257Y-1218229D01*
X-2843597Y-1286274D01*
X-2730355Y-1359403D01*
X-2702796Y-1377333D01*
X-2467659Y-1530540D01*
X-718154Y-1530540D01*
X-838363Y-1441660D01*
X-973639Y-1354856D01*
X-1094115Y-1292552D01*
X-1170647Y-1262824D01*
X-1290578Y-1224552D01*
X-1385431Y-1197498D01*
X-1461586Y-1180331D01*
X-1525420Y-1171720D01*
X-1583313Y-1170334D01*
X-1607834Y-1171618D01*
X-1709713Y-1178987D01*
X-1670509Y-1128151D01*
X-1618163Y-1083588D01*
X-1540545Y-1046890D01*
X-1445612Y-1019387D01*
X-1341322Y-1002407D01*
X-1235632Y-997279D01*
X-1136502Y-1005330D01*
X-1057258Y-1025777D01*
X-1009127Y-1041510D01*
X-973448Y-1042678D01*
X-932157Y-1029409D01*
X-925631Y-1026713D01*
X-899634Y-1014709D01*
X-878610Y-999984D01*
X-859729Y-977579D01*
X-840161Y-942537D01*
X-817075Y-889901D01*
X-787643Y-814713D01*
X-754807Y-727459D01*
X-675776Y-547834D01*
X-580574Y-385423D01*
X-473519Y-247339D01*
X-444918Y-216954D01*
X-350279Y-120641D01*
X-320623Y-174620D01*
X-266124Y-278629D01*
X-229138Y-361493D01*
X-207179Y-429399D01*
X-198657Y-478122D01*
X-180316Y-562338D01*
X-143550Y-620470D01*
X-85594Y-656464D01*
X-69973Y-661729D01*
X-8844Y-672854D01*
X48860Y-663716D01*
X57696Y-660918D01*
X119118Y-627592D01*
X158923Y-573139D01*
X179929Y-493406D01*
X181724Y-478122D01*
X193243Y-417851D01*
X217757Y-347679D01*
X257751Y-261420D01*
X303691Y-174620D01*
X333347Y-120641D01*
X427986Y-216954D01*
X537367Y-347716D01*
X635993Y-504614D01*
X719546Y-680536D01*
X737875Y-727459D01*
X775099Y-826207D01*
X803522Y-898106D01*
X825976Y-948112D01*
X845289Y-981185D01*
X864293Y-1002280D01*
X885816Y-1016357D01*
X908699Y-1026713D01*
X951983Y-1041796D01*
X987375Y-1042458D01*
X1032937Y-1028572D01*
X1040326Y-1025777D01*
X1126237Y-1004293D01*
X1226097Y-997224D01*
X1331950Y-1003240D01*
X1435837Y-1021012D01*
X1529801Y-1049213D01*
X1605884Y-1086514D01*
X1653577Y-1128151D01*
X1692781Y-1178987D01*
X2995644Y-1178987D01*
X3046285Y-1147129D01*
X3126716Y-1097167D01*
X3190165Y-1058522D01*
X3231284Y-1034557D01*
X3234734Y-1032683D01*
X3248817Y-1026633D01*
X3258257Y-1029788D01*
X3263981Y-1047274D01*
X3266917Y-1084216D01*
X3267991Y-1145738D01*
X3268134Y-1217291D01*
X3615058Y-1217291D01*
X3613662Y-1189517D01*
X3611676Y-1110349D01*
X3610558Y-1052922D01*
X3609723Y-947280D01*
X3611615Y-868096D01*
X3616116Y-817820D01*
X3623031Y-798923D01*
X3648139Y-784692D01*
X3676949Y-763448D01*
X3692362Y-749633D01*
X3696569Y-737388D01*
X3685579Y-722694D01*
X3655402Y-701530D01*
X3602047Y-669878D01*
X3560222Y-645882D01*
X3425269Y-574562D01*
X3301212Y-522827D01*
X3175516Y-485808D01*
X3113533Y-472349D01*
X3065245Y-461834D01*
X3039017Y-452252D01*
X3036908Y-441946D01*
X3060981Y-429254D01*
X3113295Y-412519D01*
X3195911Y-390082D01*
X3225210Y-382433D01*
X3362306Y-350431D01*
X3494816Y-327857D01*
X3630668Y-314113D01*
X3777789Y-308599D01*
X3944106Y-310719D01*
X4090119Y-317171D01*
X4193355Y-322476D01*
X4284490Y-326570D01*
X4358336Y-329269D01*
X4409706Y-330387D01*
X4433411Y-329741D01*
X4434349Y-329415D01*
X4430417Y-312530D01*
X4415894Y-268710D01*
X4392442Y-202592D01*
X4361717Y-118816D01*
X4325380Y-22019D01*
X4309229Y20393D01*
X4301966Y38735D01*
X3941492Y38735D01*
X3710646Y29313D01*
X3411431Y1136D01*
X3122437Y-58942D01*
X2840811Y-151624D01*
X2661631Y-229080D01*
X2531346Y-293049D01*
X2430672Y-348500D01*
X2357165Y-397846D01*
X2308383Y-443502D01*
X2281882Y-487884D01*
X2275220Y-533406D01*
X2285954Y-582482D01*
X2291010Y-595447D01*
X2314746Y-640413D01*
X2340516Y-673334D01*
X2342307Y-674893D01*
X2367605Y-684773D01*
X2420397Y-697790D01*
X2494596Y-712701D01*
X2584114Y-728262D01*
X2662430Y-740308D01*
X2777262Y-757330D01*
X2861738Y-770827D01*
X2919098Y-781541D01*
X2952583Y-790212D01*
X2965434Y-797581D01*
X2960892Y-804388D01*
X2954867Y-807144D01*
X2934649Y-818459D01*
X2892270Y-844286D01*
X2834006Y-880746D01*
X2768600Y-922371D01*
X2701853Y-964755D01*
X2645786Y-999570D01*
X2606343Y-1023180D01*
X2589519Y-1031945D01*
X2572559Y-1021519D01*
X2543914Y-994705D01*
X2539747Y-990330D01*
X2502723Y-959322D01*
X2441247Y-917059D01*
X2361392Y-866956D01*
X2269232Y-812430D01*
X2170837Y-756896D01*
X2072282Y-703770D01*
X1979638Y-656467D01*
X1898979Y-618403D01*
X1836377Y-592993D01*
X1828801Y-590446D01*
X1778289Y-572716D01*
X1759225Y-557999D01*
X1770650Y-539460D01*
X1811610Y-510264D01*
X1817077Y-506638D01*
X1940584Y-405727D01*
X2046618Y-280768D01*
X2129305Y-139534D01*
X2167732Y-42739D01*
X2190056Y14923D01*
X2216281Y68325D01*
X2219966Y74598D01*
X2238207Y111741D01*
X2242673Y136571D01*
X2241981Y138196D01*
X2242364Y160033D01*
X2251248Y204780D01*
X2266749Y263110D01*
X2268258Y268218D01*
X2286368Y341512D01*
X2290086Y368300D01*
X1794775Y368300D01*
X1793958Y287338D01*
X1790452Y230568D01*
X1782407Y188326D01*
X1767977Y150949D01*
X1745312Y108773D01*
X1745054Y108323D01*
X1681713Y20366D01*
X1594076Y-69771D01*
X1490382Y-154877D01*
X1378873Y-227742D01*
X1332758Y-252429D01*
X1251015Y-291288D01*
X1193495Y-313515D01*
X1155608Y-320270D01*
X1132762Y-312715D01*
X1126023Y-304728D01*
X1128344Y-282203D01*
X1144202Y-236505D01*
X1170599Y-174019D01*
X1204540Y-101131D01*
X1243029Y-24225D01*
X1283070Y50314D01*
X1321667Y116101D01*
X1323201Y118534D01*
X-1067117Y118534D01*
X-1077855Y71955D01*
X-1106227Y10764D01*
X-1146471Y-55167D01*
X-1192823Y-115966D01*
X-1221801Y-146471D01*
X-1279856Y-193431D01*
X-1344195Y-233643D01*
X-1404404Y-261373D01*
X-1447799Y-270933D01*
X-1483701Y-263234D01*
X-1532359Y-243947D01*
X-1549650Y-235371D01*
X-1607332Y-199279D01*
X-1663978Y-155362D01*
X-1673798Y-146471D01*
X-1721045Y-93708D01*
X-1765720Y-29756D01*
X-1802059Y35514D01*
X-1824300Y92229D01*
X-1828482Y118534D01*
X-1817744Y165112D01*
X-1789372Y226303D01*
X-1749128Y292235D01*
X-1702776Y353033D01*
X-1673798Y383539D01*
X-1615743Y430498D01*
X-1551404Y470711D01*
X-1491195Y498441D01*
X-1447799Y508000D01*
X-1400904Y497161D01*
X-1340123Y468468D01*
X-1275873Y427657D01*
X-1221801Y383539D01*
X-1174554Y330776D01*
X-1129879Y266823D01*
X-1093540Y201554D01*
X-1071299Y144839D01*
X-1067117Y118534D01*
X1323201Y118534D01*
X1328792Y127399D01*
X1382092Y202030D01*
X1446825Y279294D01*
X1517930Y354493D01*
X1590346Y422927D01*
X1659009Y479897D01*
X1718860Y520706D01*
X1764836Y540653D01*
X1775250Y541867D01*
X1785188Y528356D01*
X1791518Y486397D01*
X1794479Y413854D01*
X1794775Y368300D01*
X2290086Y368300D01*
X2297300Y420275D01*
X2302283Y515538D01*
X2302934Y579266D01*
X2304479Y662501D01*
X2308666Y737998D01*
X2314819Y796500D01*
X2320874Y825342D01*
X2327712Y892112D01*
X2305885Y955805D01*
X2259946Y1006755D01*
X2226501Y1025656D01*
X2188195Y1038977D01*
X2152067Y1042452D01*
X2105183Y1036132D01*
X2060792Y1026323D01*
X1982963Y1010493D01*
X1898515Y996977D01*
X1854201Y991621D01*
X1782555Y981538D01*
X1710736Y966718D01*
X1676401Y957259D01*
X1613878Y937692D01*
X1541182Y915523D01*
X1507067Y905328D01*
X1435912Y878880D01*
X1362466Y843502D01*
X1333561Y826620D01*
X1254085Y765783D01*
X1167639Y682349D01*
X1081439Y584473D01*
X1002703Y480309D01*
X942235Y384466D01*
X887761Y294739D01*
X840572Y234429D01*
X797593Y200708D01*
X755747Y190752D01*
X734618Y193718D01*
X704171Y209476D01*
X657503Y242901D01*
X602646Y288023D01*
X577335Y310638D01*
X512643Y365558D01*
X441694Y415807D01*
X356289Y466634D01*
X248227Y523287D01*
X234100Y530351D01*
X153592Y569965D01*
X83513Y603521D01*
X29567Y628361D01*
X-2541Y641825D01*
X-8466Y643467D01*
X-28330Y636267D01*
X-72731Y616433D01*
X-135987Y586617D01*
X-212414Y549471D01*
X-252426Y529657D01*
X-365295Y471075D01*
X-453571Y419362D01*
X-524522Y369901D01*
X-585280Y318202D01*
X-689663Y220556D01*
X-698331Y328535D01*
X-723716Y457661D01*
X-776038Y579840D01*
X-850869Y687473D01*
X-943782Y772958D01*
X-965929Y787861D01*
X-1013481Y812265D01*
X-1079705Y839333D01*
X-1150474Y863303D01*
X-1152185Y863815D01*
X-1218331Y881202D01*
X-1306161Y900999D01*
X-1408442Y921911D01*
X-1517941Y942645D01*
X-1627422Y961906D01*
X-1729653Y978402D01*
X-1817398Y990838D01*
X-1883425Y997921D01*
X-1908455Y999067D01*
X-1966225Y1003089D01*
X-2030187Y1013524D01*
X-2089846Y1027924D01*
X-2134705Y1043840D01*
X-2152935Y1056089D01*
X-2173310Y1058750D01*
X-2211729Y1047233D01*
X-2229135Y1039437D01*
X-2290697Y994907D01*
X-2330929Y936024D01*
X-2345544Y871126D01*
X-2338346Y826890D01*
X-2331549Y790669D01*
X-2325878Y728580D01*
X-2321841Y648615D01*
X-2319946Y558769D01*
X-2319866Y536510D01*
X-2318927Y431571D01*
X-2315256Y349216D01*
X-2307576Y278193D01*
X-2294608Y207252D01*
X-2275074Y125141D01*
X-2271577Y111470D01*
X-2249734Y26100D01*
X-2228791Y-56582D01*
X-2211531Y-125550D01*
X-2202864Y-160866D01*
X-2170412Y-253409D01*
X-2119993Y-347877D01*
X-2057882Y-435362D01*
X-1990352Y-506958D01*
X-1927439Y-551864D01*
X-1894497Y-572431D01*
X-1880272Y-588340D01*
X-1880258Y-588868D01*
X-1894843Y-600835D01*
X-1933678Y-623391D01*
X-1990264Y-652928D01*
X-2036892Y-675796D01*
X-2206600Y-760424D01*
X-2345879Y-837213D01*
X-2454014Y-905742D01*
X-2530290Y-965590D01*
X-2533657Y-968725D01*
X-2586581Y-1018554D01*
X-2778593Y-898743D01*
X-2847533Y-855016D01*
X-2903046Y-818431D01*
X-2940415Y-792205D01*
X-2954924Y-779557D01*
X-2954269Y-778887D01*
X-2932766Y-776509D01*
X-2883731Y-769961D01*
X-2813127Y-760075D01*
X-2726918Y-747680D01*
X-2661597Y-738120D01*
X-2548650Y-720740D01*
X-2464212Y-705120D01*
X-2403157Y-689052D01*
X-2360362Y-670326D01*
X-2330701Y-646734D01*
X-2309050Y-616067D01*
X-2291295Y-578514D01*
X-2276441Y-528267D01*
X-2278436Y-482137D01*
X-2299714Y-437717D01*
X-2342709Y-392599D01*
X-2409854Y-344376D01*
X-2503582Y-290640D01*
X-2626328Y-228983D01*
X-2661630Y-212146D01*
X-2940017Y-98048D01*
X-3223929Y-17009D01*
X-3516221Y31676D01*
X-3710645Y46246D01*
X-3941491Y55669D01*
X-3841628Y300427D01*
X-3693872Y649164D01*
X-3544620Y975145D01*
X-3394947Y1276327D01*
X-3245928Y1550671D01*
X-3098635Y1796137D01*
X-2954143Y2010684D01*
X-2909295Y2071648D01*
X-2831467Y2168192D01*
X-2743699Y2265727D01*
X-2652260Y2358123D01*
X-2563421Y2439251D01*
X-2483450Y2502980D01*
X-2436975Y2533457D01*
X-2370104Y2571745D01*
X-2299502Y2611933D01*
X-2263772Y2632159D01*
X-2195822Y2678131D01*
X-2151545Y2729820D01*
X-2126746Y2795299D01*
X-2117231Y2882638D01*
X-2116729Y2915182D01*
X-2117206Y2980456D01*
X-2120092Y3018449D01*
X-2127448Y3035745D01*
X-2141340Y3038929D01*
X-2154766Y3036568D01*
X-2162970Y3039524D01*
X-2144967Y3056654D01*
X-2104188Y3085743D01*
X-2044064Y3124578D01*
X-1968026Y3170943D01*
X-1879504Y3222624D01*
X-1781930Y3277407D01*
X-1779859Y3278547D01*
X-1676788Y3332743D01*
X-1551798Y3394532D01*
X-1414329Y3459574D01*
X-1273823Y3523527D01*
X-1139719Y3582051D01*
X-1021458Y3630805D01*
X-973666Y3649248D01*
X-907650Y3673982D01*
X-825856Y3704655D01*
X-744211Y3735295D01*
X-731211Y3740176D01*
X-664605Y3763968D01*
X-607745Y3782066D01*
X-569716Y3791662D01*
X-561878Y3792493D01*
X-541367Y3779127D01*
X-505889Y3743026D01*
X-459488Y3689484D01*
X-406207Y3623792D01*
X-350093Y3551243D01*
X-295188Y3477129D01*
X-245537Y3406742D01*
X-205186Y3345376D01*
X-178178Y3298321D01*
X-170402Y3280234D01*
X-134695Y3216237D01*
X-82378Y3175964D01*
X-21009Y3159415D01*
X41854Y3166589D01*
X98652Y3197486D01*
X141827Y3252108D01*
X153470Y3280234D01*
X171266Y3316992D01*
X204663Y3371018D01*
X249619Y3437020D01*
X302088Y3509704D01*
X358025Y3583780D01*
X413387Y3653954D01*
X464129Y3714935D01*
X506207Y3761429D01*
X535575Y3788145D01*
X544945Y3792493D01*
X573025Y3787031D01*
X623527Y3771958D01*
X687366Y3750081D01*
X714279Y3740176D01*
X794273Y3710152D01*
X877185Y3679056D01*
X947087Y3652860D01*
X956734Y3649248D01*
X1064189Y3606640D01*
X1191962Y3552205D01*
X1330611Y3490283D01*
X1470696Y3425216D01*
X1602777Y3361344D01*
X1717412Y3303009D01*
X1762927Y3278547D01*
X1860651Y3223724D01*
X1949392Y3171957D01*
X2025721Y3125460D01*
X2086205Y3086449D01*
X2127415Y3057138D01*
X2145920Y3039740D01*
X2138288Y3036471D01*
X2137834Y3036568D01*
X2118620Y3039003D01*
X2107275Y3031582D01*
X2101735Y3007721D01*
X2099937Y2960835D01*
X2099797Y2915182D01*
X2105450Y2819486D01*
X2125096Y2748137D01*
X2162930Y2693062D01*
X2223144Y2646190D01*
X2246839Y2632159D01*
X2309700Y2596531D01*
X2381303Y2555716D01*
X2420172Y2533457D01*
X2487122Y2487505D01*
X2567928Y2420217D01*
X2656458Y2337597D01*
X2746577Y2245647D01*
X2832152Y2150370D01*
X2907051Y2057768D01*
X2909354Y2054715D01*
X3053058Y1849792D01*
X3199869Y1613291D01*
X3348717Y1347244D01*
X3498533Y1053681D01*
X3648249Y734632D01*
X3796794Y392130D01*
X3841629Y283494D01*
X3941492Y38735D01*
X4301966Y38735D01*
X4155264Y409178D01*
X4000111Y773581D01*
X3844412Y1112422D01*
X3688806Y1424517D01*
X3533931Y1708684D01*
X3380429Y1963741D01*
X3228938Y2188505D01*
X3080097Y2381795D01*
X2957685Y2518869D01*
X2839010Y2641670D01*
X2999280Y2788814D01*
X2883940Y2899692D01*
X2702629Y3062413D01*
X2506206Y3215649D01*
X2290161Y3362434D01*
X2049986Y3505806D01*
X1781174Y3648802D01*
X1744134Y3667400D01*
X1517873Y3775662D01*
X1280585Y3880711D01*
X1041466Y3978809D01*
X809709Y4066221D01*
X594512Y4139209D01*
X545765Y4154343D01*
X405730Y4196930D01*
X206038Y3939965D01*
X143271Y3860144D01*
X87041Y3790424D01*
X40787Y3734926D01*
X7950Y3697771D01*
X-8029Y3683082D01*
X-8466Y3683000D01*
X-22988Y3695767D01*
X-54636Y3731320D01*
X-99968Y3785537D01*
X-155545Y3854298D01*
X-217926Y3933480D01*
X-222970Y3939965D01*
X-422663Y4196930D01*
X-562698Y4154343D01*
X-772483Y4085423D01*
X-1001061Y4001172D01*
X-1239238Y3905327D01*
X-1477816Y3801624D01*
X-1707602Y3693798D01*
X-1761066Y3667400D01*
X-2023169Y3530270D01*
X-2257290Y3393778D01*
X-2469026Y3254159D01*
X-2663975Y3107651D01*
X-2847733Y2950490D01*
X-2901900Y2900340D01*
X-3018266Y2790700D01*
X-2855942Y2641670D01*
X-2974618Y2518869D01*
X-3120739Y2352910D01*
X-3270048Y2154483D01*
X-3421906Y1924772D01*
X-3575672Y1664958D01*
X-3730707Y1376224D01*
X-3886371Y1059752D01*
X-4042026Y716725D01*
X-4197031Y348324D01*
X-4326162Y20393D01*
X-4364322Y-80404D01*
X-4397551Y-170085D01*
X-4424188Y-244011D01*
X-4442576Y-297542D01*
X-4451055Y-326042D01*
X-4451281Y-329415D01*
X-4433242Y-330406D01*
X-4386583Y-329599D01*
X-4316490Y-327178D01*
X-4228152Y-323327D01*
X-4126757Y-318231D01*
X-4107051Y-317171D01*
X-3920614Y-309585D01*
X-3759465Y-309169D01*
X-3615670Y-316522D01*
X-3481294Y-332241D01*
X-3348405Y-356927D01*
X-3241979Y-382452D01*
X-3159077Y-404322D01*
X-3105032Y-419747D01*
X-3075811Y-430347D01*
X-3067379Y-437744D01*
X-3075701Y-443557D01*
X-3083676Y-446043D01*
X-3110293Y-453395D01*
X-3160115Y-467102D01*
X-3223685Y-484564D01*
X-3242733Y-489792D01*
X-3301190Y-509470D01*
X-3373781Y-539242D01*
X-3453589Y-575623D01*
X-3533693Y-615126D01*
X-3607176Y-654266D01*
X-3667118Y-689558D01*
X-3706601Y-717516D01*
X-3717336Y-728894D01*
X-3711145Y-747098D01*
X-3682763Y-770647D01*
X-3675737Y-774857D01*
X-3623947Y-804333D01*
X-3623840Y-1035129D01*
X-3623733Y-1265926D01*
X-3771900Y-1191572D01*
X-3911319Y-1129534D01*
X-4046918Y-1087423D01*
X-4192579Y-1061510D01*
X-4290711Y-1052176D01*
X-4442315Y-1041400D01*
X-4273361Y-857838D01*
X-4074130Y-873419D01*
X-3995866Y-878981D01*
X-3930910Y-882543D01*
X-3886122Y-883800D01*
X-3868415Y-882509D01*
X-3871418Y-872066D01*
X-3877733Y-872066D01*
X-3886200Y-880533D01*
X-3894666Y-872066D01*
X-3886200Y-863600D01*
X-3877733Y-872066D01*
X-3871418Y-872066D01*
X-3873339Y-865390D01*
X-3895036Y-828051D01*
X-3929025Y-776641D01*
X-3970826Y-717308D01*
X-4015957Y-656198D01*
X-4059936Y-599460D01*
X-4098283Y-553241D01*
X-4126516Y-523689D01*
X-4134346Y-517687D01*
X-4179525Y-501109D01*
X-4238248Y-491801D01*
X-4257780Y-491066D01*
X-4352025Y-494961D01*
X-4463889Y-505498D01*
X-4580296Y-520956D01*
X-4688166Y-539613D01*
X-4769864Y-558466D01*
X-4827138Y-573552D01*
X-4869822Y-583293D01*
X-4889266Y-585730D01*
X-4889543Y-585567D01*
X-4887834Y-566964D01*
X-4876853Y-521765D01*
X-4858285Y-455418D01*
X-4833819Y-373373D01*
X-4805140Y-281078D01*
X-4773934Y-183982D01*
X-4741888Y-87532D01*
X-4710688Y2821D01*
X-4688019Y65572D01*
X-4588112Y324591D01*
X-4482491Y578731D01*
X-4373146Y823974D01*
X-4262064Y1056306D01*
X-4151234Y1271710D01*
X-4042643Y1466172D01*
X-3938281Y1635674D01*
X-3842910Y1772523D01*
X-3797468Y1824464D01*
X-3735516Y1884404D01*
X-3668596Y1941368D01*
X-3651418Y1954630D01*
X-3560086Y2032929D01*
X-3501917Y2105650D01*
X-3476760Y2173299D01*
X-3484461Y2236384D01*
X-3524869Y2295411D01*
X-3543765Y2312756D01*
X-3587712Y2342750D01*
X-3631510Y2351421D01*
X-3665287Y2348951D01*
X-3718271Y2340614D01*
X-3761643Y2330764D01*
X-3767666Y2328869D01*
X-3767523Y2335842D01*
X-3745693Y2362819D01*
X-3705294Y2406744D01*
X-3649445Y2464563D01*
X-3581264Y2533220D01*
X-3503869Y2609662D01*
X-3420377Y2690832D01*
X-3333908Y2773677D01*
X-3247579Y2855141D01*
X-3164508Y2932169D01*
X-3087813Y3001708D01*
X-3021093Y3060289D01*
X-2676917Y3342795D01*
X-2340253Y3592783D01*
X-2010465Y3810611D01*
X-1686920Y3996634D01*
X-1368985Y4151208D01*
X-1056026Y4274689D01*
X-747410Y4367433D01*
X-656186Y4389180D01*
X-601686Y4400829D01*
X-551099Y4409906D01*
X-499152Y4416726D01*
X-440576Y4421607D01*
X-370099Y4424865D01*
X-282450Y4426815D01*
X-172358Y4427776D01*
X-34552Y4428063D01*
X-8466Y4428067D01*
X134482Y4427862D01*
X248836Y4427036D01*
X339866Y4425273D01*
X412844Y4422255D01*
X473041Y4417668D01*
X525728Y4411193D01*
X576176Y4402515D01*
X629655Y4391318D01*
X639253Y4389180D01*
X946121Y4305719D01*
X1257087Y4191758D01*
X1572813Y4046928D01*
X1893959Y3870855D01*
X2221187Y3663170D01*
X2555155Y3423501D01*
X2896526Y3151477D01*
X3004228Y3060289D01*
X3070606Y3001990D01*
X3146837Y2932820D01*
X3229823Y2855818D01*
X3316465Y2774022D01*
X3403663Y2690469D01*
X3488320Y2608196D01*
X3567335Y2530242D01*
X3637610Y2459645D01*
X3696047Y2399441D01*
X3739546Y2352670D01*
X3765008Y2322367D01*
X3769335Y2311572D01*
X3767667Y2311922D01*
X3728845Y2321602D01*
X3676227Y2330585D01*
X3665288Y2332017D01*
X3612246Y2333123D01*
X3570800Y2316406D01*
X3543766Y2295822D01*
X3493366Y2236937D01*
X3476313Y2173620D01*
X3492457Y2106438D01*
X3541648Y2035959D01*
X3623738Y1962750D01*
X3633219Y1955691D01*
X3694297Y1907973D01*
X3752048Y1858011D01*
X3794521Y1816177D01*
X3796333Y1814139D01*
X3871711Y1718326D01*
X3955430Y1593819D01*
X4045665Y1444231D01*
X4140592Y1273173D01*
X4238387Y1084257D01*
X4337226Y881094D01*
X4435284Y667298D01*
X4530738Y446479D01*
X4621763Y222249D01*
X4688020Y48638D01*
X4717389Y-33175D01*
X4748920Y-125336D01*
X4780926Y-222394D01*
X4811721Y-318903D01*
X4839619Y-409412D01*
X4862933Y-488473D01*
X4879977Y-550638D01*
X4889065Y-590457D01*
X4889544Y-602500D01*
X5226428Y-602500D01*
X5222895Y-566978D01*
X5208274Y-487491D01*
X5184640Y-391629D01*
X5174507Y-354253D01*
X5108116Y-133088D01*
X5025679Y108639D01*
X4930201Y363493D01*
X4824685Y624035D01*
X4712138Y882829D01*
X4595562Y1132438D01*
X4485839Y1350434D01*
X4445607Y1428465D01*
X4412688Y1494697D01*
X4389548Y1543972D01*
X4378654Y1571129D01*
X4378582Y1574800D01*
X4397708Y1565345D01*
X4429991Y1542438D01*
X4431913Y1540934D01*
X4495502Y1509390D01*
X4561301Y1510669D01*
X4625368Y1544290D01*
X4650434Y1567540D01*
X4683653Y1607273D01*
X4702837Y1645023D01*
X4706610Y1685141D01*
X4693595Y1731983D01*
X4662418Y1789901D01*
X4611702Y1863248D01*
X4540071Y1956380D01*
X4519262Y1982601D01*
X4367578Y2165668D01*
X4194363Y2362018D01*
X4005730Y2565366D01*
X3807788Y2769426D01*
X3606648Y2967913D01*
X3408421Y3154543D01*
X3219218Y3323028D01*
X3200401Y3339174D01*
X2842921Y3630860D01*
X2491564Y3889495D01*
X2145970Y4115269D01*
X1805780Y4308374D01*
X1470636Y4468998D01*
X1140177Y4597332D01*
X814044Y4693567D01*
X531328Y4751690D01*
X412709Y4766288D01*
X269541Y4776357D01*
X110842Y4781896D01*
X-54375Y4782906D01*
X-217094Y4779386D01*
G37*
X-217094Y4779386D02*
X-368301Y4771337D01*
X-498979Y4758759D01*
X-548261Y4751690D01*
X-868086Y4684219D01*
X-1191643Y4585453D01*
X-1519425Y4455131D01*
X-1851925Y4292993D01*
X-2189633Y4098779D01*
X-2533044Y3872226D01*
X-2882649Y3613076D01*
X-3217333Y3339548D01*
X-3399552Y3178580D01*
X-3592392Y2998193D01*
X-3789749Y2804665D01*
X-3985519Y2604276D01*
X-4173600Y2403305D01*
X-4347888Y2208032D01*
X-4502282Y2024736D01*
X-4536194Y1982601D01*
X-4613137Y1883982D01*
X-4668830Y1806208D01*
X-4704648Y1744927D01*
X-4721967Y1695784D01*
X-4722164Y1654427D01*
X-4706614Y1616501D01*
X-4676693Y1577653D01*
X-4667367Y1567540D01*
X-4605170Y1520681D01*
X-4539609Y1505966D01*
X-4474627Y1523875D01*
X-4448846Y1540934D01*
X-4416274Y1564343D01*
X-4396210Y1574766D01*
X-4395714Y1574801D01*
X-4399678Y1560668D01*
X-4417104Y1521596D01*
X-4445606Y1462574D01*
X-4482796Y1388590D01*
X-4511195Y1333501D01*
X-4561381Y1234359D01*
X-4617053Y1119830D01*
X-4675424Y996087D01*
X-4733706Y869304D01*
X-4789110Y745653D01*
X-4838849Y631308D01*
X-4880135Y532441D01*
X-4910181Y455226D01*
X-4918422Y431800D01*
X-4934555Y384807D01*
X-4959189Y314449D01*
X-4989331Y229220D01*
X-5021987Y137612D01*
X-5031857Y110067D01*
X-5098937Y-83757D01*
X-5151332Y-251181D01*
X-5189942Y-395874D01*
X-5215669Y-521501D01*
X-5229413Y-631732D01*
X-5232400Y-706460D01*
X-5228990Y-808926D01*
X-5216696Y-883720D01*
X-5192417Y-936537D01*
X-5153051Y-973074D01*
X-5095498Y-999027D01*
X-5068732Y-1007155D01*
X-5030850Y-1006757D01*
X-4970631Y-993629D01*
X-4896143Y-969951D01*
X-4820539Y-940114D01*
X-4820050Y-949170D01*
X-4836527Y-982164D01*
X-4867657Y-1035192D01*
X-4911123Y-1104350D01*
X-4964612Y-1185734D01*
X-4977821Y-1205375D01*
X-5050195Y-1314371D01*
X-5102989Y-1398730D01*
X-5137079Y-1460809D01*
X-5153335Y-1502964D01*
X-5152631Y-1527553D01*
X-5135840Y-1536933D01*
X-5103835Y-1533460D01*
X-5098871Y-1532256D01*
X-5051312Y-1520827D01*
X-4979950Y-1504394D01*
X-4894100Y-1485038D01*
X-4803076Y-1464843D01*
X-4716194Y-1445890D01*
X-4642767Y-1430261D01*
X-4639733Y-1429628D01*
X-4493397Y-1410026D01*
X-4341167Y-1409003D01*
X-4191850Y-1425500D01*
X-4054251Y-1458458D01*
X-3937176Y-1506821D01*
X-3920733Y-1516037D01*
X-3864519Y-1556270D01*
X-3800678Y-1613113D01*
X-3736988Y-1678349D01*
X-3681231Y-1743760D01*
X-3641186Y-1801127D01*
X-3629890Y-1823249D01*
X-3615538Y-1875296D01*
X-3607454Y-1938948D01*
X-3606800Y-1959681D01*
X-3606800Y-2040850D01*
X-2319866Y-3477018D01*
X-2124242Y-3695617D01*
X-1941654Y-3900231D01*
X-1773022Y-4089810D01*
X-1619266Y-4263305D01*
X-1481303Y-4419667D01*
X-1360053Y-4557846D01*
X-1256436Y-4676793D01*
X-1171370Y-4775459D01*
X-1105774Y-4852795D01*
X-1060567Y-4907750D01*
X-1036669Y-4939276D01*
X-1032933Y-4946388D01*
X-1023849Y-4984913D01*
X-1005585Y-5021329D01*
X-978238Y-5063066D01*
X961305Y-5063066D01*
X988653Y-5021329D01*
X1008964Y-4979300D01*
X1016000Y-4946388D01*
X1027225Y-4928815D01*
X1060287Y-4887208D01*
X1114267Y-4822618D01*
X1188245Y-4736094D01*
X1281304Y-4628685D01*
X1392523Y-4501441D01*
X1520984Y-4355410D01*
X1665768Y-4191642D01*
X1825955Y-4011187D01*
X2000627Y-3815093D01*
X2188865Y-3604411D01*
X2302934Y-3477018D01*
X3589867Y-2040850D01*
X3589867Y-1959681D01*
X3595645Y-1887100D01*
X3600898Y-1870186D01*
X3251201Y-1870186D01*
X3245071Y-1884947D01*
X3226019Y-1913167D01*
X3193051Y-1955999D01*
X3145172Y-2014598D01*
X3081389Y-2090115D01*
X3000707Y-2183705D01*
X2902133Y-2296520D01*
X2784672Y-2429713D01*
X2647330Y-2584439D01*
X2489113Y-2761849D01*
X2309648Y-2962404D01*
X2165664Y-3122895D01*
X2028033Y-3275918D01*
X1898444Y-3419619D01*
X1778585Y-3552143D01*
X1670144Y-3671637D01*
X1574809Y-3776247D01*
X1494268Y-3864118D01*
X1430209Y-3933396D01*
X1384321Y-3982227D01*
X1358292Y-4008757D01*
X1352914Y-4013200D01*
X1340132Y-3999213D01*
X1337933Y-3983566D01*
X1340030Y-3961421D01*
X1345975Y-3908960D01*
X1355370Y-3829463D01*
X1367816Y-3726214D01*
X1382914Y-3602495D01*
X1400264Y-3461589D01*
X1419467Y-3306776D01*
X1440126Y-3141340D01*
X1446511Y-3090419D01*
X1504437Y-2628884D01*
X1161120Y-2628884D01*
X1159081Y-2650066D01*
X1155555Y-2675695D01*
X1148255Y-2731841D01*
X1137571Y-2815410D01*
X1123894Y-2923309D01*
X1107613Y-3052446D01*
X1089118Y-3199727D01*
X1068799Y-3362059D01*
X1047046Y-3536350D01*
X1024836Y-3714789D01*
X1002186Y-3896200D01*
X980614Y-4067439D01*
X960501Y-4225584D01*
X942228Y-4367709D01*
X926175Y-4490891D01*
X912724Y-4592206D01*
X902256Y-4668730D01*
X895153Y-4717541D01*
X891794Y-4735713D01*
X891771Y-4735740D01*
X873668Y-4738679D01*
X827224Y-4743052D01*
X757917Y-4748511D01*
X671224Y-4754711D01*
X572624Y-4761303D01*
X467596Y-4767940D01*
X361617Y-4774276D01*
X260166Y-4779963D01*
X168720Y-4784654D01*
X92759Y-4788001D01*
X42334Y-4789575D01*
X-3233Y-4789133D01*
X-76494Y-4786804D01*
X-171349Y-4782854D01*
X-281693Y-4777553D01*
X-401426Y-4771167D01*
X-481074Y-4766582D01*
X-596918Y-4759478D01*
X-701116Y-4752645D01*
X-789043Y-4746421D01*
X-856075Y-4741145D01*
X-897588Y-4737159D01*
X-909307Y-4735137D01*
X-912487Y-4717642D01*
X-919426Y-4669455D01*
X-929742Y-4593498D01*
X-943058Y-4492692D01*
X-958993Y-4369958D01*
X-977169Y-4228219D01*
X-997206Y-4070395D01*
X-1007496Y-3988627D01*
X-1358028Y-3988627D01*
X-1358955Y-4003296D01*
X-1361435Y-4010536D01*
X-1365205Y-4012965D01*
X-1369855Y-4013200D01*
X-1383488Y-4000913D01*
X-1417738Y-3965457D01*
X-1470681Y-3908935D01*
X-1540392Y-3833452D01*
X-1624945Y-3741114D01*
X-1722415Y-3634024D01*
X-1830878Y-3514286D01*
X-1948409Y-3384007D01*
X-2073083Y-3245290D01*
X-2116820Y-3196507D01*
X-2243774Y-3054537D01*
X-2364161Y-2919356D01*
X-2476048Y-2793174D01*
X-2577496Y-2678201D01*
X-2666572Y-2576646D01*
X-2741340Y-2490717D01*
X-2799863Y-2422624D01*
X-2840207Y-2374577D01*
X-2860435Y-2348784D01*
X-2862337Y-2345607D01*
X-2877959Y-2321870D01*
X-2912323Y-2278219D01*
X-2961260Y-2219678D01*
X-3020599Y-2151275D01*
X-3063638Y-2102944D01*
X-3138704Y-2017496D01*
X-3195197Y-1949008D01*
X-3232431Y-1898772D01*
X-3249717Y-1868086D01*
X-3246370Y-1858245D01*
X-3221701Y-1870545D01*
X-3175024Y-1906281D01*
X-3162300Y-1916936D01*
X-3006453Y-2048214D01*
X-2863442Y-2167165D01*
X-2735097Y-2272334D01*
X-2623247Y-2362264D01*
X-2529723Y-2435500D01*
X-2456355Y-2490586D01*
X-2404971Y-2526065D01*
X-2379245Y-2539962D01*
X-2328975Y-2549764D01*
X-2279837Y-2540139D01*
X-2261442Y-2532976D01*
X-2227595Y-2515452D01*
X-2201271Y-2491714D01*
X-2181267Y-2457371D01*
X-2166383Y-2408033D01*
X-2155413Y-2339309D01*
X-2147157Y-2246807D01*
X-2140412Y-2126137D01*
X-2138518Y-2084129D01*
X-2125133Y-1776293D01*
X-1904999Y-1952944D01*
X-1826588Y-2016065D01*
X-1753166Y-2075532D01*
X-1690695Y-2126489D01*
X-1645133Y-2164084D01*
X-1628344Y-2178249D01*
X-1571822Y-2226905D01*
X-1463443Y-3090419D01*
X-1438433Y-3289736D01*
X-1417367Y-3458066D01*
X-1399979Y-3598027D01*
X-1386004Y-3712237D01*
X-1375176Y-3803313D01*
X-1367230Y-3873872D01*
X-1361900Y-3926532D01*
X-1358921Y-3963911D01*
X-1358028Y-3988627D01*
X-1007496Y-3988627D01*
X-1018725Y-3899409D01*
X-1041347Y-3718180D01*
X-1041768Y-3714789D01*
X-1064543Y-3531820D01*
X-1086265Y-3357794D01*
X-1106542Y-3195804D01*
X-1124986Y-3048944D01*
X-1141206Y-2920306D01*
X-1154813Y-2812983D01*
X-1165415Y-2730070D01*
X-1172625Y-2674658D01*
X-1176013Y-2650066D01*
X-1178033Y-2628618D01*
X-1172452Y-2622283D01*
X-1155467Y-2633566D01*
X-1123273Y-2664975D01*
X-1073206Y-2717799D01*
X-1016203Y-2780672D01*
X-947728Y-2859226D01*
X-877219Y-2942502D01*
X-825297Y-3005643D01*
X-688404Y-3174954D01*
X-768597Y-3186425D01*
X-852161Y-3207058D01*
X-908889Y-3242952D01*
X-943633Y-3297415D01*
X-947589Y-3308414D01*
X-958097Y-3360084D01*
X-948846Y-3408787D01*
X-942067Y-3426184D01*
X-920445Y-3467719D01*
X-892250Y-3496316D01*
X-851462Y-3514031D01*
X-792057Y-3522921D01*
X-708013Y-3525043D01*
X-654994Y-3524211D01*
X-557213Y-3523986D01*
X-489125Y-3529197D01*
X-446866Y-3540690D01*
X-426575Y-3559312D01*
X-423333Y-3575006D01*
X-439099Y-3581098D01*
X-481743Y-3585980D01*
X-544280Y-3589072D01*
X-601677Y-3589866D01*
X-711696Y-3592707D01*
X-793367Y-3602405D01*
X-851825Y-3620726D01*
X-892202Y-3649435D01*
X-919634Y-3690296D01*
X-924310Y-3700776D01*
X-940188Y-3752892D01*
X-936770Y-3799660D01*
X-930656Y-3820518D01*
X-915979Y-3858187D01*
X-897102Y-3886442D01*
X-869380Y-3906544D01*
X-828170Y-3919755D01*
X-768826Y-3927337D01*
X-686706Y-3930551D01*
X-577164Y-3930660D01*
X-527108Y-3930145D01*
X-226466Y-3926564D01*
X-206366Y-3970678D01*
X-191804Y-4005034D01*
X-186266Y-4022463D01*
X-202284Y-4024978D01*
X-246674Y-4027146D01*
X-313945Y-4028822D01*
X-398602Y-4029860D01*
X-474677Y-4030133D01*
X-601490Y-4031168D01*
X-699012Y-4035047D01*
X-771780Y-4042932D01*
X-824328Y-4055987D01*
X-861190Y-4075373D01*
X-886902Y-4102253D01*
X-905998Y-4137790D01*
X-907376Y-4141042D01*
X-923255Y-4193159D01*
X-919837Y-4239927D01*
X-913722Y-4260785D01*
X-905697Y-4285150D01*
X-897182Y-4305601D01*
X-885343Y-4322480D01*
X-867345Y-4336130D01*
X-840354Y-4346893D01*
X-801536Y-4355112D01*
X-748057Y-4361128D01*
X-677082Y-4365285D01*
X-585778Y-4367924D01*
X-471310Y-4369389D01*
X-330843Y-4370021D01*
X-161544Y-4370163D01*
X-8466Y-4370154D01*
X185164Y-4370156D01*
X347762Y-4369934D01*
X482162Y-4369145D01*
X591198Y-4367447D01*
X677705Y-4364498D01*
X744517Y-4359955D01*
X794467Y-4353475D01*
X830391Y-4344717D01*
X855122Y-4333337D01*
X871495Y-4318994D01*
X882344Y-4301345D01*
X890504Y-4280047D01*
X896790Y-4260785D01*
X907235Y-4210376D01*
X898819Y-4162840D01*
X890444Y-4141042D01*
X871681Y-4104763D01*
X846666Y-4077233D01*
X810862Y-4057290D01*
X759737Y-4043771D01*
X688754Y-4035515D01*
X593379Y-4031358D01*
X469077Y-4030138D01*
X457744Y-4030133D01*
X363182Y-4029707D01*
X281639Y-4028526D01*
X218607Y-4026737D01*
X179580Y-4024486D01*
X169334Y-4022463D01*
X175614Y-4003123D01*
X189434Y-3970678D01*
X209534Y-3926564D01*
X510176Y-3930145D01*
X631418Y-3930891D01*
X723465Y-3929012D01*
X790961Y-3923247D01*
X838550Y-3912335D01*
X870877Y-3895014D01*
X892584Y-3870023D01*
X908317Y-3836099D01*
X913723Y-3820518D01*
X924168Y-3770109D01*
X915752Y-3722574D01*
X907377Y-3700776D01*
X882047Y-3657088D01*
X844868Y-3625930D01*
X790707Y-3605537D01*
X714429Y-3594144D01*
X610901Y-3589985D01*
X584744Y-3589866D01*
X511637Y-3588552D01*
X453039Y-3584999D01*
X415932Y-3579789D01*
X406400Y-3575006D01*
X414886Y-3551481D01*
X442917Y-3535616D01*
X494356Y-3526564D01*
X573064Y-3523480D01*
X638061Y-3524211D01*
X736650Y-3524697D01*
X807595Y-3519441D01*
X856919Y-3506386D01*
X890644Y-3483475D01*
X914792Y-3448652D01*
X925135Y-3426184D01*
X940514Y-3373962D01*
X935816Y-3325557D01*
X930657Y-3308414D01*
X899074Y-3250570D01*
X846306Y-3211840D01*
X767504Y-3188917D01*
X751665Y-3186425D01*
X671472Y-3174954D01*
X808365Y-3005643D01*
X873638Y-2926543D01*
X944490Y-2843325D01*
X1011483Y-2766949D01*
X1056274Y-2717799D01*
X1107095Y-2664199D01*
X1138973Y-2633184D01*
X1155714Y-2622248D01*
X1161120Y-2628884D01*
X1504437Y-2628884D01*
X1554890Y-2226905D01*
X1611412Y-2178249D01*
X1643912Y-2151045D01*
X1696912Y-2107555D01*
X1764451Y-2052633D01*
X1840571Y-1991132D01*
X1888067Y-1952944D01*
X2108200Y-1776293D01*
X2121585Y-2084129D01*
X2128113Y-2214032D01*
X2135794Y-2314460D01*
X2145830Y-2389802D01*
X2159424Y-2444452D01*
X2177778Y-2482799D01*
X2202095Y-2509234D01*
X2233577Y-2528149D01*
X2244510Y-2532976D01*
X2297464Y-2548900D01*
X2344997Y-2545083D01*
X2362570Y-2539878D01*
X2389296Y-2524635D01*
X2438227Y-2490287D01*
X2505736Y-2439634D01*
X2588197Y-2375476D01*
X2681984Y-2300610D01*
X2783472Y-2217837D01*
X2835251Y-2174959D01*
X2951296Y-2078663D01*
X3044046Y-2002497D01*
X3115992Y-1944636D01*
X3169626Y-1903254D01*
X3207439Y-1876527D01*
X3231921Y-1862629D01*
X3245564Y-1859734D01*
X3250858Y-1866019D01*
X3251201Y-1870186D01*
X3600898Y-1870186D01*
X3615728Y-1822440D01*
X3654238Y-1757140D01*
X3715299Y-1682639D01*
X3732222Y-1664107D01*
X3823286Y-1576011D01*
X3914207Y-1512430D01*
X4016903Y-1466230D01*
X4108979Y-1438656D01*
X4209490Y-1417129D01*
X4308139Y-1405722D01*
X4410604Y-1404916D01*
X4522561Y-1415191D01*
X4649687Y-1437026D01*
X4797660Y-1470902D01*
X4942591Y-1509115D01*
X5028834Y-1532284D01*
X5103492Y-1551311D01*
X5160503Y-1564732D01*
X5193806Y-1571080D01*
X5199520Y-1571214D01*
X5194201Y-1556561D01*
X5171957Y-1518178D01*
X5135329Y-1460049D01*
X5086858Y-1386155D01*
X5029085Y-1300481D01*
X4996535Y-1253066D01*
X4934484Y-1162718D01*
X4879763Y-1082099D01*
X4835040Y-1015220D01*
X4802983Y-966089D01*
X4786259Y-938714D01*
X4784488Y-934428D01*
X4800516Y-938560D01*
X4837821Y-954731D01*
X4879040Y-974801D01*
X4977491Y-1012294D01*
X5065334Y-1020345D01*
X5138779Y-999328D01*
X5179540Y-969656D01*
X5207205Y-928019D01*
X5223802Y-868437D01*
X5231360Y-784930D01*
X5232400Y-723393D01*
X5230328Y-641732D01*
X5226428Y-602500D01*
X4889544Y-602500D01*
X4872162Y-600680D01*
X4830899Y-591412D01*
X4774408Y-576655D01*
X4769865Y-575400D01*
X4681858Y-555306D01*
X4573062Y-536800D01*
X4456555Y-521602D01*
X4345416Y-511434D01*
X4257781Y-508000D01*
X4199058Y-513830D01*
X4146987Y-528417D01*
X4134347Y-534620D01*
X4106939Y-559019D01*
X4066789Y-604955D01*
X4019580Y-665546D01*
X3976989Y-725120D01*
X3864578Y-889000D01*
X4256332Y-857846D01*
X4349721Y-958089D01*
X4443109Y-1058333D01*
X4291109Y-1069109D01*
X4205296Y-1077630D01*
X4116301Y-1090389D01*
X4041020Y-1104896D01*
X4029587Y-1107663D01*
X3956435Y-1130244D01*
X3871940Y-1162450D01*
X3786619Y-1199648D01*
X3710992Y-1237204D01*
X3655577Y-1270487D01*
X3649134Y-1275225D01*
X3635995Y-1284229D01*
X3626670Y-1284722D01*
X3620367Y-1272142D01*
X3616295Y-1241928D01*
X3615058Y-1217291D01*
X3268134Y-1217291D01*
X3268134Y-1419773D01*
X3209047Y-1439273D01*
X3180051Y-1455286D01*
X3129536Y-1490080D01*
X3061735Y-1540447D01*
X2980887Y-1603178D01*
X2891226Y-1675065D01*
X2816463Y-1736625D01*
X2726272Y-1811522D01*
X2645090Y-1878470D01*
X2576388Y-1934643D01*
X2523639Y-1977215D01*
X2490315Y-2003362D01*
X2479814Y-2010538D01*
X2477899Y-1993158D01*
X2474794Y-1948110D01*
X2470877Y-1881555D01*
X2466525Y-1799657D01*
X2464940Y-1767916D01*
X2453219Y-1529233D01*
X2661710Y-1392913D01*
X2756585Y-1331301D01*
X2855871Y-1267558D01*
X2954221Y-1205047D01*
X2995644Y-1178987D01*
X1692781Y-1178987D01*
X1590901Y-1171618D01*
X1495402Y-1174763D01*
X1380822Y-1194391D01*
X1255970Y-1227775D01*
X1129658Y-1272185D01*
X1010694Y-1324896D01*
X908181Y-1382989D01*
X758408Y-1485070D01*
X638676Y-1575929D01*
X547643Y-1657072D01*
X483966Y-1730005D01*
X446302Y-1796235D01*
X433309Y-1857266D01*
X440944Y-1907051D01*
X465446Y-1954643D01*
X498642Y-1990577D01*
X500771Y-1992034D01*
X541320Y-2018603D01*
X465233Y-2122668D01*
X403004Y-2211286D01*
X330860Y-2319610D01*
X254835Y-2438089D01*
X180961Y-2557172D01*
X115271Y-2667310D01*
X66566Y-2753795D01*
X-7577Y-2891390D01*
X-105227Y-2715450D01*
X-158348Y-2622709D01*
X-220324Y-2519012D01*
X-281455Y-2420434D01*
X-310918Y-2374655D01*
X-362501Y-2296921D01*
X-415702Y-2218374D01*
X-463100Y-2149896D01*
X-488564Y-2114174D01*
X-558170Y-2018549D01*
X-517662Y-1992007D01*
X-473010Y-1944103D01*
X-451488Y-1880339D01*
X-456208Y-1812173D01*
X-463392Y-1792152D01*
X-489690Y-1742588D01*
X-526228Y-1694808D01*
X-578483Y-1642956D01*
X-651933Y-1581180D01*
X-685800Y-1554462D01*
X-718154Y-1530540D01*
X-2467659Y-1530540D01*
X-2478429Y-1682271D01*
X-2483493Y-1764452D01*
X-2487278Y-1846519D01*
X-2489120Y-1913466D01*
X-2489199Y-1925687D01*
X-2489199Y-2017372D01*
X-2539689Y-1981421D01*
X-2571771Y-1954243D01*
X-2586277Y-1933227D01*
X-2586256Y-1930611D01*
X-2597211Y-1914278D01*
X-2630618Y-1881058D01*
X-2681998Y-1834604D01*
X-2746877Y-1778569D01*
X-2820777Y-1716606D01*
X-2899222Y-1652369D01*
X-2977736Y-1589511D01*
X-3051844Y-1531684D01*
X-3117067Y-1482543D01*
X-3168931Y-1445740D01*
X-3202959Y-1424928D01*
X-3209048Y-1422339D01*
X-3268133Y-1402840D01*
X-3268133Y-1217886D01*
X-3267269Y-1143322D01*
X-3264926Y-1083142D01*
X-3261480Y-1044205D01*
X-3258008Y-1032933D01*
X-3238609Y-1041843D01*
X-3194510Y-1067075D01*
X-3129337Y-1106382D01*
X-3046711Y-1157515D01*
X-2950257Y-1218229D01*
X-2843597Y-1286274D01*
X-2730355Y-1359403D01*
X-2702796Y-1377333D01*
X-2467659Y-1530540D01*
X-718154Y-1530540D01*
X-838363Y-1441660D01*
X-973639Y-1354856D01*
X-1094115Y-1292552D01*
X-1170647Y-1262824D01*
X-1290578Y-1224552D01*
X-1385431Y-1197498D01*
X-1461586Y-1180331D01*
X-1525420Y-1171720D01*
X-1583313Y-1170334D01*
X-1607834Y-1171618D01*
X-1709713Y-1178987D01*
X-1670509Y-1128151D01*
X-1618163Y-1083588D01*
X-1540545Y-1046890D01*
X-1445612Y-1019387D01*
X-1341322Y-1002407D01*
X-1235632Y-997279D01*
X-1136502Y-1005330D01*
X-1057258Y-1025777D01*
X-1009127Y-1041510D01*
X-973448Y-1042678D01*
X-932157Y-1029409D01*
X-925631Y-1026713D01*
X-899634Y-1014709D01*
X-878610Y-999984D01*
X-859729Y-977579D01*
X-840161Y-942537D01*
X-817075Y-889901D01*
X-787643Y-814713D01*
X-754807Y-727459D01*
X-675776Y-547834D01*
X-580574Y-385423D01*
X-473519Y-247339D01*
X-444918Y-216954D01*
X-350279Y-120641D01*
X-320623Y-174620D01*
X-266124Y-278629D01*
X-229138Y-361493D01*
X-207179Y-429399D01*
X-198657Y-478122D01*
X-180316Y-562338D01*
X-143550Y-620470D01*
X-85594Y-656464D01*
X-69973Y-661729D01*
X-8844Y-672854D01*
X48860Y-663716D01*
X57696Y-660918D01*
X119118Y-627592D01*
X158923Y-573139D01*
X179929Y-493406D01*
X181724Y-478122D01*
X193243Y-417851D01*
X217757Y-347679D01*
X257751Y-261420D01*
X303691Y-174620D01*
X333347Y-120641D01*
X427986Y-216954D01*
X537367Y-347716D01*
X635993Y-504614D01*
X719546Y-680536D01*
X737875Y-727459D01*
X775099Y-826207D01*
X803522Y-898106D01*
X825976Y-948112D01*
X845289Y-981185D01*
X864293Y-1002280D01*
X885816Y-1016357D01*
X908699Y-1026713D01*
X951983Y-1041796D01*
X987375Y-1042458D01*
X1032937Y-1028572D01*
X1040326Y-1025777D01*
X1126237Y-1004293D01*
X1226097Y-997224D01*
X1331950Y-1003240D01*
X1435837Y-1021012D01*
X1529801Y-1049213D01*
X1605884Y-1086514D01*
X1653577Y-1128151D01*
X1692781Y-1178987D01*
X2995644Y-1178987D01*
X3046285Y-1147129D01*
X3126716Y-1097167D01*
X3190165Y-1058522D01*
X3231284Y-1034557D01*
X3234734Y-1032683D01*
X3248817Y-1026633D01*
X3258257Y-1029788D01*
X3263981Y-1047274D01*
X3266917Y-1084216D01*
X3267991Y-1145738D01*
X3268134Y-1217291D01*
X3615058Y-1217291D01*
X3613662Y-1189517D01*
X3611676Y-1110349D01*
X3610558Y-1052922D01*
X3609723Y-947280D01*
X3611615Y-868096D01*
X3616116Y-817820D01*
X3623031Y-798923D01*
X3648139Y-784692D01*
X3676949Y-763448D01*
X3692362Y-749633D01*
X3696569Y-737388D01*
X3685579Y-722694D01*
X3655402Y-701530D01*
X3602047Y-669878D01*
X3560222Y-645882D01*
X3425269Y-574562D01*
X3301212Y-522827D01*
X3175516Y-485808D01*
X3113533Y-472349D01*
X3065245Y-461834D01*
X3039017Y-452252D01*
X3036908Y-441946D01*
X3060981Y-429254D01*
X3113295Y-412519D01*
X3195911Y-390082D01*
X3225210Y-382433D01*
X3362306Y-350431D01*
X3494816Y-327857D01*
X3630668Y-314113D01*
X3777789Y-308599D01*
X3944106Y-310719D01*
X4090119Y-317171D01*
X4193355Y-322476D01*
X4284490Y-326570D01*
X4358336Y-329269D01*
X4409706Y-330387D01*
X4433411Y-329741D01*
X4434349Y-329415D01*
X4430417Y-312530D01*
X4415894Y-268710D01*
X4392442Y-202592D01*
X4361717Y-118816D01*
X4325380Y-22019D01*
X4309229Y20393D01*
X4301966Y38735D01*
X3941492Y38735D01*
X3710646Y29313D01*
X3411431Y1136D01*
X3122437Y-58942D01*
X2840811Y-151624D01*
X2661631Y-229080D01*
X2531346Y-293049D01*
X2430672Y-348500D01*
X2357165Y-397846D01*
X2308383Y-443502D01*
X2281882Y-487884D01*
X2275220Y-533406D01*
X2285954Y-582482D01*
X2291010Y-595447D01*
X2314746Y-640413D01*
X2340516Y-673334D01*
X2342307Y-674893D01*
X2367605Y-684773D01*
X2420397Y-697790D01*
X2494596Y-712701D01*
X2584114Y-728262D01*
X2662430Y-740308D01*
X2777262Y-757330D01*
X2861738Y-770827D01*
X2919098Y-781541D01*
X2952583Y-790212D01*
X2965434Y-797581D01*
X2960892Y-804388D01*
X2954867Y-807144D01*
X2934649Y-818459D01*
X2892270Y-844286D01*
X2834006Y-880746D01*
X2768600Y-922371D01*
X2701853Y-964755D01*
X2645786Y-999570D01*
X2606343Y-1023180D01*
X2589519Y-1031945D01*
X2572559Y-1021519D01*
X2543914Y-994705D01*
X2539747Y-990330D01*
X2502723Y-959322D01*
X2441247Y-917059D01*
X2361392Y-866956D01*
X2269232Y-812430D01*
X2170837Y-756896D01*
X2072282Y-703770D01*
X1979638Y-656467D01*
X1898979Y-618403D01*
X1836377Y-592993D01*
X1828801Y-590446D01*
X1778289Y-572716D01*
X1759225Y-557999D01*
X1770650Y-539460D01*
X1811610Y-510264D01*
X1817077Y-506638D01*
X1940584Y-405727D01*
X2046618Y-280768D01*
X2129305Y-139534D01*
X2167732Y-42739D01*
X2190056Y14923D01*
X2216281Y68325D01*
X2219966Y74598D01*
X2238207Y111741D01*
X2242673Y136571D01*
X2241981Y138196D01*
X2242364Y160033D01*
X2251248Y204780D01*
X2266749Y263110D01*
X2268258Y268218D01*
X2286368Y341512D01*
X2290086Y368300D01*
X1794775Y368300D01*
X1793958Y287338D01*
X1790452Y230568D01*
X1782407Y188326D01*
X1767977Y150949D01*
X1745312Y108773D01*
X1745054Y108323D01*
X1681713Y20366D01*
X1594076Y-69771D01*
X1490382Y-154877D01*
X1378873Y-227742D01*
X1332758Y-252429D01*
X1251015Y-291288D01*
X1193495Y-313515D01*
X1155608Y-320270D01*
X1132762Y-312715D01*
X1126023Y-304728D01*
X1128344Y-282203D01*
X1144202Y-236505D01*
X1170599Y-174019D01*
X1204540Y-101131D01*
X1243029Y-24225D01*
X1283070Y50314D01*
X1321667Y116101D01*
X1323201Y118534D01*
X-1067117Y118534D01*
X-1077855Y71955D01*
X-1106227Y10764D01*
X-1146471Y-55167D01*
X-1192823Y-115966D01*
X-1221801Y-146471D01*
X-1279856Y-193431D01*
X-1344195Y-233643D01*
X-1404404Y-261373D01*
X-1447799Y-270933D01*
X-1483701Y-263234D01*
X-1532359Y-243947D01*
X-1549650Y-235371D01*
X-1607332Y-199279D01*
X-1663978Y-155362D01*
X-1673798Y-146471D01*
X-1721045Y-93708D01*
X-1765720Y-29756D01*
X-1802059Y35514D01*
X-1824300Y92229D01*
X-1828482Y118534D01*
X-1817744Y165112D01*
X-1789372Y226303D01*
X-1749128Y292235D01*
X-1702776Y353033D01*
X-1673798Y383539D01*
X-1615743Y430498D01*
X-1551404Y470711D01*
X-1491195Y498441D01*
X-1447799Y508000D01*
X-1400904Y497161D01*
X-1340123Y468468D01*
X-1275873Y427657D01*
X-1221801Y383539D01*
X-1174554Y330776D01*
X-1129879Y266823D01*
X-1093540Y201554D01*
X-1071299Y144839D01*
X-1067117Y118534D01*
X1323201Y118534D01*
X1328792Y127399D01*
X1382092Y202030D01*
X1446825Y279294D01*
X1517930Y354493D01*
X1590346Y422927D01*
X1659009Y479897D01*
X1718860Y520706D01*
X1764836Y540653D01*
X1775250Y541867D01*
X1785188Y528356D01*
X1791518Y486397D01*
X1794479Y413854D01*
X1794775Y368300D01*
X2290086Y368300D01*
X2297300Y420275D01*
X2302283Y515538D01*
X2302934Y579266D01*
X2304479Y662501D01*
X2308666Y737998D01*
X2314819Y796500D01*
X2320874Y825342D01*
X2327712Y892112D01*
X2305885Y955805D01*
X2259946Y1006755D01*
X2226501Y1025656D01*
X2188195Y1038977D01*
X2152067Y1042452D01*
X2105183Y1036132D01*
X2060792Y1026323D01*
X1982963Y1010493D01*
X1898515Y996977D01*
X1854201Y991621D01*
X1782555Y981538D01*
X1710736Y966718D01*
X1676401Y957259D01*
X1613878Y937692D01*
X1541182Y915523D01*
X1507067Y905328D01*
X1435912Y878880D01*
X1362466Y843502D01*
X1333561Y826620D01*
X1254085Y765783D01*
X1167639Y682349D01*
X1081439Y584473D01*
X1002703Y480309D01*
X942235Y384466D01*
X887761Y294739D01*
X840572Y234429D01*
X797593Y200708D01*
X755747Y190752D01*
X734618Y193718D01*
X704171Y209476D01*
X657503Y242901D01*
X602646Y288023D01*
X577335Y310638D01*
X512643Y365558D01*
X441694Y415807D01*
X356289Y466634D01*
X248227Y523287D01*
X234100Y530351D01*
X153592Y569965D01*
X83513Y603521D01*
X29567Y628361D01*
X-2541Y641825D01*
X-8466Y643467D01*
X-28330Y636267D01*
X-72731Y616433D01*
X-135987Y586617D01*
X-212414Y549471D01*
X-252426Y529657D01*
X-365295Y471075D01*
X-453571Y419362D01*
X-524522Y369901D01*
X-585280Y318202D01*
X-689663Y220556D01*
X-698331Y328535D01*
X-723716Y457661D01*
X-776038Y579840D01*
X-850869Y687473D01*
X-943782Y772958D01*
X-965929Y787861D01*
X-1013481Y812265D01*
X-1079705Y839333D01*
X-1150474Y863303D01*
X-1152185Y863815D01*
X-1218331Y881202D01*
X-1306161Y900999D01*
X-1408442Y921911D01*
X-1517941Y942645D01*
X-1627422Y961906D01*
X-1729653Y978402D01*
X-1817398Y990838D01*
X-1883425Y997921D01*
X-1908455Y999067D01*
X-1966225Y1003089D01*
X-2030187Y1013524D01*
X-2089846Y1027924D01*
X-2134705Y1043840D01*
X-2152935Y1056089D01*
X-2173310Y1058750D01*
X-2211729Y1047233D01*
X-2229135Y1039437D01*
X-2290697Y994907D01*
X-2330929Y936024D01*
X-2345544Y871126D01*
X-2338346Y826890D01*
X-2331549Y790669D01*
X-2325878Y728580D01*
X-2321841Y648615D01*
X-2319946Y558769D01*
X-2319866Y536510D01*
X-2318927Y431571D01*
X-2315256Y349216D01*
X-2307576Y278193D01*
X-2294608Y207252D01*
X-2275074Y125141D01*
X-2271577Y111470D01*
X-2249734Y26100D01*
X-2228791Y-56582D01*
X-2211531Y-125550D01*
X-2202864Y-160866D01*
X-2170412Y-253409D01*
X-2119993Y-347877D01*
X-2057882Y-435362D01*
X-1990352Y-506958D01*
X-1927439Y-551864D01*
X-1894497Y-572431D01*
X-1880272Y-588340D01*
X-1880258Y-588868D01*
X-1894843Y-600835D01*
X-1933678Y-623391D01*
X-1990264Y-652928D01*
X-2036892Y-675796D01*
X-2206600Y-760424D01*
X-2345879Y-837213D01*
X-2454014Y-905742D01*
X-2530290Y-965590D01*
X-2533657Y-968725D01*
X-2586581Y-1018554D01*
X-2778593Y-898743D01*
X-2847533Y-855016D01*
X-2903046Y-818431D01*
X-2940415Y-792205D01*
X-2954924Y-779557D01*
X-2954269Y-778887D01*
X-2932766Y-776509D01*
X-2883731Y-769961D01*
X-2813127Y-760075D01*
X-2726918Y-747680D01*
X-2661597Y-738120D01*
X-2548650Y-720740D01*
X-2464212Y-705120D01*
X-2403157Y-689052D01*
X-2360362Y-670326D01*
X-2330701Y-646734D01*
X-2309050Y-616067D01*
X-2291295Y-578514D01*
X-2276441Y-528267D01*
X-2278436Y-482137D01*
X-2299714Y-437717D01*
X-2342709Y-392599D01*
X-2409854Y-344376D01*
X-2503582Y-290640D01*
X-2626328Y-228983D01*
X-2661630Y-212146D01*
X-2940017Y-98048D01*
X-3223929Y-17009D01*
X-3516221Y31676D01*
X-3710645Y46246D01*
X-3941491Y55669D01*
X-3841628Y300427D01*
X-3693872Y649164D01*
X-3544620Y975145D01*
X-3394947Y1276327D01*
X-3245928Y1550671D01*
X-3098635Y1796137D01*
X-2954143Y2010684D01*
X-2909295Y2071648D01*
X-2831467Y2168192D01*
X-2743699Y2265727D01*
X-2652260Y2358123D01*
X-2563421Y2439251D01*
X-2483450Y2502980D01*
X-2436975Y2533457D01*
X-2370104Y2571745D01*
X-2299502Y2611933D01*
X-2263772Y2632159D01*
X-2195822Y2678131D01*
X-2151545Y2729820D01*
X-2126746Y2795299D01*
X-2117231Y2882638D01*
X-2116729Y2915182D01*
X-2117206Y2980456D01*
X-2120092Y3018449D01*
X-2127448Y3035745D01*
X-2141340Y3038929D01*
X-2154766Y3036568D01*
X-2162970Y3039524D01*
X-2144967Y3056654D01*
X-2104188Y3085743D01*
X-2044064Y3124578D01*
X-1968026Y3170943D01*
X-1879504Y3222624D01*
X-1781930Y3277407D01*
X-1779859Y3278547D01*
X-1676788Y3332743D01*
X-1551798Y3394532D01*
X-1414329Y3459574D01*
X-1273823Y3523527D01*
X-1139719Y3582051D01*
X-1021458Y3630805D01*
X-973666Y3649248D01*
X-907650Y3673982D01*
X-825856Y3704655D01*
X-744211Y3735295D01*
X-731211Y3740176D01*
X-664605Y3763968D01*
X-607745Y3782066D01*
X-569716Y3791662D01*
X-561878Y3792493D01*
X-541367Y3779127D01*
X-505889Y3743026D01*
X-459488Y3689484D01*
X-406207Y3623792D01*
X-350093Y3551243D01*
X-295188Y3477129D01*
X-245537Y3406742D01*
X-205186Y3345376D01*
X-178178Y3298321D01*
X-170402Y3280234D01*
X-134695Y3216237D01*
X-82378Y3175964D01*
X-21009Y3159415D01*
X41854Y3166589D01*
X98652Y3197486D01*
X141827Y3252108D01*
X153470Y3280234D01*
X171266Y3316992D01*
X204663Y3371018D01*
X249619Y3437020D01*
X302088Y3509704D01*
X358025Y3583780D01*
X413387Y3653954D01*
X464129Y3714935D01*
X506207Y3761429D01*
X535575Y3788145D01*
X544945Y3792493D01*
X573025Y3787031D01*
X623527Y3771958D01*
X687366Y3750081D01*
X714279Y3740176D01*
X794273Y3710152D01*
X877185Y3679056D01*
X947087Y3652860D01*
X956734Y3649248D01*
X1064189Y3606640D01*
X1191962Y3552205D01*
X1330611Y3490283D01*
X1470696Y3425216D01*
X1602777Y3361344D01*
X1717412Y3303009D01*
X1762927Y3278547D01*
X1860651Y3223724D01*
X1949392Y3171957D01*
X2025721Y3125460D01*
X2086205Y3086449D01*
X2127415Y3057138D01*
X2145920Y3039740D01*
X2138288Y3036471D01*
X2137834Y3036568D01*
X2118620Y3039003D01*
X2107275Y3031582D01*
X2101735Y3007721D01*
X2099937Y2960835D01*
X2099797Y2915182D01*
X2105450Y2819486D01*
X2125096Y2748137D01*
X2162930Y2693062D01*
X2223144Y2646190D01*
X2246839Y2632159D01*
X2309700Y2596531D01*
X2381303Y2555716D01*
X2420172Y2533457D01*
X2487122Y2487505D01*
X2567928Y2420217D01*
X2656458Y2337597D01*
X2746577Y2245647D01*
X2832152Y2150370D01*
X2907051Y2057768D01*
X2909354Y2054715D01*
X3053058Y1849792D01*
X3199869Y1613291D01*
X3348717Y1347244D01*
X3498533Y1053681D01*
X3648249Y734632D01*
X3796794Y392130D01*
X3841629Y283494D01*
X3941492Y38735D01*
X4301966Y38735D01*
X4155264Y409178D01*
X4000111Y773581D01*
X3844412Y1112422D01*
X3688806Y1424517D01*
X3533931Y1708684D01*
X3380429Y1963741D01*
X3228938Y2188505D01*
X3080097Y2381795D01*
X2957685Y2518869D01*
X2839010Y2641670D01*
X2999280Y2788814D01*
X2883940Y2899692D01*
X2702629Y3062413D01*
X2506206Y3215649D01*
X2290161Y3362434D01*
X2049986Y3505806D01*
X1781174Y3648802D01*
X1744134Y3667400D01*
X1517873Y3775662D01*
X1280585Y3880711D01*
X1041466Y3978809D01*
X809709Y4066221D01*
X594512Y4139209D01*
X545765Y4154343D01*
X405730Y4196930D01*
X206038Y3939965D01*
X143271Y3860144D01*
X87041Y3790424D01*
X40787Y3734926D01*
X7950Y3697771D01*
X-8029Y3683082D01*
X-8466Y3683000D01*
X-22988Y3695767D01*
X-54636Y3731320D01*
X-99968Y3785537D01*
X-155545Y3854298D01*
X-217926Y3933480D01*
X-222970Y3939965D01*
X-422663Y4196930D01*
X-562698Y4154343D01*
X-772483Y4085423D01*
X-1001061Y4001172D01*
X-1239238Y3905327D01*
X-1477816Y3801624D01*
X-1707602Y3693798D01*
X-1761066Y3667400D01*
X-2023169Y3530270D01*
X-2257290Y3393778D01*
X-2469026Y3254159D01*
X-2663975Y3107651D01*
X-2847733Y2950490D01*
X-2901900Y2900340D01*
X-3018266Y2790700D01*
X-2855942Y2641670D01*
X-2974618Y2518869D01*
X-3120739Y2352910D01*
X-3270048Y2154483D01*
X-3421906Y1924772D01*
X-3575672Y1664958D01*
X-3730707Y1376224D01*
X-3886371Y1059752D01*
X-4042026Y716725D01*
X-4197031Y348324D01*
X-4326162Y20393D01*
X-4364322Y-80404D01*
X-4397551Y-170085D01*
X-4424188Y-244011D01*
X-4442576Y-297542D01*
X-4451055Y-326042D01*
X-4451281Y-329415D01*
X-4433242Y-330406D01*
X-4386583Y-329599D01*
X-4316490Y-327178D01*
X-4228152Y-323327D01*
X-4126757Y-318231D01*
X-4107051Y-317171D01*
X-3920614Y-309585D01*
X-3759465Y-309169D01*
X-3615670Y-316522D01*
X-3481294Y-332241D01*
X-3348405Y-356927D01*
X-3241979Y-382452D01*
X-3159077Y-404322D01*
X-3105032Y-419747D01*
X-3075811Y-430347D01*
X-3067379Y-437744D01*
X-3075701Y-443557D01*
X-3083676Y-446043D01*
X-3110293Y-453395D01*
X-3160115Y-467102D01*
X-3223685Y-484564D01*
X-3242733Y-489792D01*
X-3301190Y-509470D01*
X-3373781Y-539242D01*
X-3453589Y-575623D01*
X-3533693Y-615126D01*
X-3607176Y-654266D01*
X-3667118Y-689558D01*
X-3706601Y-717516D01*
X-3717336Y-728894D01*
X-3711145Y-747098D01*
X-3682763Y-770647D01*
X-3675737Y-774857D01*
X-3623947Y-804333D01*
X-3623840Y-1035129D01*
X-3623733Y-1265926D01*
X-3771900Y-1191572D01*
X-3911319Y-1129534D01*
X-4046918Y-1087423D01*
X-4192579Y-1061510D01*
X-4290711Y-1052176D01*
X-4442315Y-1041400D01*
X-4273361Y-857838D01*
X-4074130Y-873419D01*
X-3995866Y-878981D01*
X-3930910Y-882543D01*
X-3886122Y-883800D01*
X-3868415Y-882509D01*
X-3871418Y-872066D01*
X-3877733Y-872066D01*
X-3886200Y-880533D01*
X-3894666Y-872066D01*
X-3886200Y-863600D01*
X-3877733Y-872066D01*
X-3871418Y-872066D01*
X-3873339Y-865390D01*
X-3895036Y-828051D01*
X-3929025Y-776641D01*
X-3970826Y-717308D01*
X-4015957Y-656198D01*
X-4059936Y-599460D01*
X-4098283Y-553241D01*
X-4126516Y-523689D01*
X-4134346Y-517687D01*
X-4179525Y-501109D01*
X-4238248Y-491801D01*
X-4257780Y-491066D01*
X-4352025Y-494961D01*
X-4463889Y-505498D01*
X-4580296Y-520956D01*
X-4688166Y-539613D01*
X-4769864Y-558466D01*
X-4827138Y-573552D01*
X-4869822Y-583293D01*
X-4889266Y-585730D01*
X-4889543Y-585567D01*
X-4887834Y-566964D01*
X-4876853Y-521765D01*
X-4858285Y-455418D01*
X-4833819Y-373373D01*
X-4805140Y-281078D01*
X-4773934Y-183982D01*
X-4741888Y-87532D01*
X-4710688Y2821D01*
X-4688019Y65572D01*
X-4588112Y324591D01*
X-4482491Y578731D01*
X-4373146Y823974D01*
X-4262064Y1056306D01*
X-4151234Y1271710D01*
X-4042643Y1466172D01*
X-3938281Y1635674D01*
X-3842910Y1772523D01*
X-3797468Y1824464D01*
X-3735516Y1884404D01*
X-3668596Y1941368D01*
X-3651418Y1954630D01*
X-3560086Y2032929D01*
X-3501917Y2105650D01*
X-3476760Y2173299D01*
X-3484461Y2236384D01*
X-3524869Y2295411D01*
X-3543765Y2312756D01*
X-3587712Y2342750D01*
X-3631510Y2351421D01*
X-3665287Y2348951D01*
X-3718271Y2340614D01*
X-3761643Y2330764D01*
X-3767666Y2328869D01*
X-3767523Y2335842D01*
X-3745693Y2362819D01*
X-3705294Y2406744D01*
X-3649445Y2464563D01*
X-3581264Y2533220D01*
X-3503869Y2609662D01*
X-3420377Y2690832D01*
X-3333908Y2773677D01*
X-3247579Y2855141D01*
X-3164508Y2932169D01*
X-3087813Y3001708D01*
X-3021093Y3060289D01*
X-2676917Y3342795D01*
X-2340253Y3592783D01*
X-2010465Y3810611D01*
X-1686920Y3996634D01*
X-1368985Y4151208D01*
X-1056026Y4274689D01*
X-747410Y4367433D01*
X-656186Y4389180D01*
X-601686Y4400829D01*
X-551099Y4409906D01*
X-499152Y4416726D01*
X-440576Y4421607D01*
X-370099Y4424865D01*
X-282450Y4426815D01*
X-172358Y4427776D01*
X-34552Y4428063D01*
X-8466Y4428067D01*
X134482Y4427862D01*
X248836Y4427036D01*
X339866Y4425273D01*
X412844Y4422255D01*
X473041Y4417668D01*
X525728Y4411193D01*
X576176Y4402515D01*
X629655Y4391318D01*
X639253Y4389180D01*
X946121Y4305719D01*
X1257087Y4191758D01*
X1572813Y4046928D01*
X1893959Y3870855D01*
X2221187Y3663170D01*
X2555155Y3423501D01*
X2896526Y3151477D01*
X3004228Y3060289D01*
X3070606Y3001990D01*
X3146837Y2932820D01*
X3229823Y2855818D01*
X3316465Y2774022D01*
X3403663Y2690469D01*
X3488320Y2608196D01*
X3567335Y2530242D01*
X3637610Y2459645D01*
X3696047Y2399441D01*
X3739546Y2352670D01*
X3765008Y2322367D01*
X3769335Y2311572D01*
X3767667Y2311922D01*
X3728845Y2321602D01*
X3676227Y2330585D01*
X3665288Y2332017D01*
X3612246Y2333123D01*
X3570800Y2316406D01*
X3543766Y2295822D01*
X3493366Y2236937D01*
X3476313Y2173620D01*
X3492457Y2106438D01*
X3541648Y2035959D01*
X3623738Y1962750D01*
X3633219Y1955691D01*
X3694297Y1907973D01*
X3752048Y1858011D01*
X3794521Y1816177D01*
X3796333Y1814139D01*
X3871711Y1718326D01*
X3955430Y1593819D01*
X4045665Y1444231D01*
X4140592Y1273173D01*
X4238387Y1084257D01*
X4337226Y881094D01*
X4435284Y667298D01*
X4530738Y446479D01*
X4621763Y222249D01*
X4688020Y48638D01*
X4717389Y-33175D01*
X4748920Y-125336D01*
X4780926Y-222394D01*
X4811721Y-318903D01*
X4839619Y-409412D01*
X4862933Y-488473D01*
X4879977Y-550638D01*
X4889065Y-590457D01*
X4889544Y-602500D01*
X5226428Y-602500D01*
X5222895Y-566978D01*
X5208274Y-487491D01*
X5184640Y-391629D01*
X5174507Y-354253D01*
X5108116Y-133088D01*
X5025679Y108639D01*
X4930201Y363493D01*
X4824685Y624035D01*
X4712138Y882829D01*
X4595562Y1132438D01*
X4485839Y1350434D01*
X4445607Y1428465D01*
X4412688Y1494697D01*
X4389548Y1543972D01*
X4378654Y1571129D01*
X4378582Y1574800D01*
X4397708Y1565345D01*
X4429991Y1542438D01*
X4431913Y1540934D01*
X4495502Y1509390D01*
X4561301Y1510669D01*
X4625368Y1544290D01*
X4650434Y1567540D01*
X4683653Y1607273D01*
X4702837Y1645023D01*
X4706610Y1685141D01*
X4693595Y1731983D01*
X4662418Y1789901D01*
X4611702Y1863248D01*
X4540071Y1956380D01*
X4519262Y1982601D01*
X4367578Y2165668D01*
X4194363Y2362018D01*
X4005730Y2565366D01*
X3807788Y2769426D01*
X3606648Y2967913D01*
X3408421Y3154543D01*
X3219218Y3323028D01*
X3200401Y3339174D01*
X2842921Y3630860D01*
X2491564Y3889495D01*
X2145970Y4115269D01*
X1805780Y4308374D01*
X1470636Y4468998D01*
X1140177Y4597332D01*
X814044Y4693567D01*
X531328Y4751690D01*
X412709Y4766288D01*
X269541Y4776357D01*
X110842Y4781896D01*
X-54375Y4782906D01*
X-217094Y4779386D01*
G36*
X4758267Y-3201899D02*
G01*
X4664409Y-3203809D01*
X4593182Y-3209003D01*
X4533391Y-3219100D01*
X4473841Y-3235719D01*
X4436534Y-3248439D01*
X4372279Y-3272259D01*
X4330905Y-3292647D01*
X4303172Y-3316910D01*
X4279841Y-3352353D01*
X4261726Y-3386666D01*
X4239698Y-3432136D01*
X4226095Y-3470936D01*
X4219303Y-3513165D01*
X4217703Y-3568920D01*
X4219679Y-3648299D01*
X4219708Y-3649133D01*
X4224860Y-3741532D01*
X4234009Y-3809391D01*
X4248748Y-3861950D01*
X4261324Y-3890770D01*
X4297152Y-3963074D01*
X4215576Y-4073583D01*
X4170596Y-4137944D01*
X4128784Y-4203607D01*
X4098670Y-4257125D01*
X4097049Y-4260422D01*
X4075575Y-4309265D01*
X4069250Y-4343948D01*
X4076585Y-4379807D01*
X4083543Y-4399343D01*
X4122525Y-4461055D01*
X4180219Y-4500091D01*
X4248261Y-4512258D01*
X4292766Y-4504212D01*
X4340272Y-4480938D01*
X4375977Y-4450657D01*
X4378084Y-4447832D01*
X4405700Y-4408760D01*
X4446893Y-4350926D01*
X4495431Y-4283039D01*
X4545080Y-4213803D01*
X4589607Y-4151927D01*
X4619248Y-4110966D01*
X4655514Y-4069029D01*
X4690672Y-4050551D01*
X4720167Y-4047466D01*
X4775201Y-4047066D01*
X4775201Y-4208477D01*
X4778765Y-4316767D01*
X4790644Y-4396806D01*
X4812615Y-4453572D01*
X4846458Y-4492041D01*
X4884114Y-4513342D01*
X4929107Y-4530949D01*
X4959639Y-4535396D01*
X4992490Y-4526598D01*
X5025601Y-4512621D01*
X5053621Y-4498711D01*
X5076186Y-4481495D01*
X5093882Y-4457409D01*
X5107297Y-4422891D01*
X5117018Y-4374378D01*
X5123631Y-4308307D01*
X5127723Y-4221116D01*
X5129880Y-4109242D01*
X5130690Y-3969122D01*
X5130774Y-3874043D01*
X5130575Y-3728733D01*
X5129849Y-3613261D01*
X5128914Y-3556000D01*
X4775201Y-3556000D01*
X4775201Y-3691466D01*
X4572000Y-3691466D01*
X4572000Y-3556000D01*
X4775201Y-3556000D01*
X5128914Y-3556000D01*
X5128384Y-3523601D01*
X5125963Y-3455727D01*
X5122372Y-3405612D01*
X5117395Y-3369230D01*
X5110819Y-3342553D01*
X5102427Y-3321557D01*
X5101141Y-3318933D01*
X5071318Y-3272593D01*
X5031784Y-3239586D01*
X4977073Y-3218044D01*
X4901717Y-3206103D01*
X4800250Y-3201895D01*
X4758267Y-3201899D01*
G37*
X4758267Y-3201899D02*
X4664409Y-3203809D01*
X4593182Y-3209003D01*
X4533391Y-3219100D01*
X4473841Y-3235719D01*
X4436534Y-3248439D01*
X4372279Y-3272259D01*
X4330905Y-3292647D01*
X4303172Y-3316910D01*
X4279841Y-3352353D01*
X4261726Y-3386666D01*
X4239698Y-3432136D01*
X4226095Y-3470936D01*
X4219303Y-3513165D01*
X4217703Y-3568920D01*
X4219679Y-3648299D01*
X4219708Y-3649133D01*
X4224860Y-3741532D01*
X4234009Y-3809391D01*
X4248748Y-3861950D01*
X4261324Y-3890770D01*
X4297152Y-3963074D01*
X4215576Y-4073583D01*
X4170596Y-4137944D01*
X4128784Y-4203607D01*
X4098670Y-4257125D01*
X4097049Y-4260422D01*
X4075575Y-4309265D01*
X4069250Y-4343948D01*
X4076585Y-4379807D01*
X4083543Y-4399343D01*
X4122525Y-4461055D01*
X4180219Y-4500091D01*
X4248261Y-4512258D01*
X4292766Y-4504212D01*
X4340272Y-4480938D01*
X4375977Y-4450657D01*
X4378084Y-4447832D01*
X4405700Y-4408760D01*
X4446893Y-4350926D01*
X4495431Y-4283039D01*
X4545080Y-4213803D01*
X4589607Y-4151927D01*
X4619248Y-4110966D01*
X4655514Y-4069029D01*
X4690672Y-4050551D01*
X4720167Y-4047466D01*
X4775201Y-4047066D01*
X4775201Y-4208477D01*
X4778765Y-4316767D01*
X4790644Y-4396806D01*
X4812615Y-4453572D01*
X4846458Y-4492041D01*
X4884114Y-4513342D01*
X4929107Y-4530949D01*
X4959639Y-4535396D01*
X4992490Y-4526598D01*
X5025601Y-4512621D01*
X5053621Y-4498711D01*
X5076186Y-4481495D01*
X5093882Y-4457409D01*
X5107297Y-4422891D01*
X5117018Y-4374378D01*
X5123631Y-4308307D01*
X5127723Y-4221116D01*
X5129880Y-4109242D01*
X5130690Y-3969122D01*
X5130774Y-3874043D01*
X5130575Y-3728733D01*
X5129849Y-3613261D01*
X5128914Y-3556000D01*
X4775201Y-3556000D01*
X4775201Y-3691466D01*
X4572000Y-3691466D01*
X4572000Y-3556000D01*
X4775201Y-3556000D01*
X5128914Y-3556000D01*
X5128384Y-3523601D01*
X5125963Y-3455727D01*
X5122372Y-3405612D01*
X5117395Y-3369230D01*
X5110819Y-3342553D01*
X5102427Y-3321557D01*
X5101141Y-3318933D01*
X5071318Y-3272593D01*
X5031784Y-3239586D01*
X4977073Y-3218044D01*
X4901717Y-3206103D01*
X4800250Y-3201895D01*
X4758267Y-3201899D01*
G36*
X3794991Y-3229314D02*
G01*
X3752997Y-3253783D01*
X3704061Y-3296552D01*
X3644389Y-3360143D01*
X3570189Y-3447082D01*
X3525827Y-3500860D01*
X3458535Y-3582902D01*
X3395798Y-3659241D01*
X3341884Y-3724697D01*
X3301061Y-3774086D01*
X3278185Y-3801533D01*
X3235294Y-3852333D01*
X3234754Y-3615266D01*
X3232713Y-3496853D01*
X3226170Y-3407341D01*
X3213580Y-3341892D01*
X3193398Y-3295670D01*
X3164079Y-3263837D01*
X3124076Y-3241557D01*
X3114094Y-3237609D01*
X3067400Y-3224198D01*
X3027917Y-3227336D01*
X2990718Y-3240813D01*
X2962239Y-3254236D01*
X2939206Y-3270634D01*
X2920928Y-3293593D01*
X2906716Y-3326702D01*
X2895881Y-3373549D01*
X2887733Y-3437721D01*
X2881582Y-3522807D01*
X2876740Y-3632393D01*
X2872516Y-3770069D01*
X2869951Y-3869266D01*
X2866311Y-4027543D01*
X2864491Y-4155551D01*
X2865065Y-4256867D01*
X2868609Y-4335066D01*
X2875699Y-4393723D01*
X2886910Y-4436416D01*
X2902816Y-4466718D01*
X2923994Y-4488205D01*
X2951018Y-4504455D01*
X2973784Y-4514653D01*
X3017284Y-4529935D01*
X3052477Y-4530873D01*
X3097385Y-4517367D01*
X3106523Y-4513917D01*
X3128055Y-4504460D01*
X3149973Y-4491218D01*
X3174723Y-4471502D01*
X3204752Y-4442624D01*
X3242506Y-4401896D01*
X3290431Y-4346628D01*
X3350974Y-4274133D01*
X3426582Y-4181721D01*
X3519699Y-4066704D01*
X3568466Y-4006236D01*
X3649134Y-3906139D01*
X3657600Y-4158636D01*
X3662334Y-4270833D01*
X3669006Y-4354325D01*
X3679225Y-4414273D01*
X3694601Y-4455838D01*
X3716744Y-4484180D01*
X3747264Y-4504460D01*
X3768486Y-4514166D01*
X3812502Y-4531309D01*
X3842710Y-4535378D01*
X3875930Y-4526185D01*
X3908001Y-4512621D01*
X3934716Y-4499201D01*
X3956344Y-4482169D01*
X3973537Y-4457946D01*
X3986945Y-4422952D01*
X3997219Y-4373610D01*
X4005010Y-4306340D01*
X4010969Y-4217564D01*
X4015746Y-4103703D01*
X4019992Y-3961178D01*
X4021916Y-3886200D01*
X4025560Y-3727947D01*
X4027388Y-3599960D01*
X4026822Y-3498661D01*
X4023280Y-3420472D01*
X4016184Y-3361815D01*
X4004953Y-3319113D01*
X3989007Y-3288786D01*
X3967767Y-3267257D01*
X3940652Y-3250949D01*
X3917257Y-3240468D01*
X3873327Y-3225180D01*
X3833836Y-3220621D01*
X3794991Y-3229314D01*
G37*
X3794991Y-3229314D02*
X3752997Y-3253783D01*
X3704061Y-3296552D01*
X3644389Y-3360143D01*
X3570189Y-3447082D01*
X3525827Y-3500860D01*
X3458535Y-3582902D01*
X3395798Y-3659241D01*
X3341884Y-3724697D01*
X3301061Y-3774086D01*
X3278185Y-3801533D01*
X3235294Y-3852333D01*
X3234754Y-3615266D01*
X3232713Y-3496853D01*
X3226170Y-3407341D01*
X3213580Y-3341892D01*
X3193398Y-3295670D01*
X3164079Y-3263837D01*
X3124076Y-3241557D01*
X3114094Y-3237609D01*
X3067400Y-3224198D01*
X3027917Y-3227336D01*
X2990718Y-3240813D01*
X2962239Y-3254236D01*
X2939206Y-3270634D01*
X2920928Y-3293593D01*
X2906716Y-3326702D01*
X2895881Y-3373549D01*
X2887733Y-3437721D01*
X2881582Y-3522807D01*
X2876740Y-3632393D01*
X2872516Y-3770069D01*
X2869951Y-3869266D01*
X2866311Y-4027543D01*
X2864491Y-4155551D01*
X2865065Y-4256867D01*
X2868609Y-4335066D01*
X2875699Y-4393723D01*
X2886910Y-4436416D01*
X2902816Y-4466718D01*
X2923994Y-4488205D01*
X2951018Y-4504455D01*
X2973784Y-4514653D01*
X3017284Y-4529935D01*
X3052477Y-4530873D01*
X3097385Y-4517367D01*
X3106523Y-4513917D01*
X3128055Y-4504460D01*
X3149973Y-4491218D01*
X3174723Y-4471502D01*
X3204752Y-4442624D01*
X3242506Y-4401896D01*
X3290431Y-4346628D01*
X3350974Y-4274133D01*
X3426582Y-4181721D01*
X3519699Y-4066704D01*
X3568466Y-4006236D01*
X3649134Y-3906139D01*
X3657600Y-4158636D01*
X3662334Y-4270833D01*
X3669006Y-4354325D01*
X3679225Y-4414273D01*
X3694601Y-4455838D01*
X3716744Y-4484180D01*
X3747264Y-4504460D01*
X3768486Y-4514166D01*
X3812502Y-4531309D01*
X3842710Y-4535378D01*
X3875930Y-4526185D01*
X3908001Y-4512621D01*
X3934716Y-4499201D01*
X3956344Y-4482169D01*
X3973537Y-4457946D01*
X3986945Y-4422952D01*
X3997219Y-4373610D01*
X4005010Y-4306340D01*
X4010969Y-4217564D01*
X4015746Y-4103703D01*
X4019992Y-3961178D01*
X4021916Y-3886200D01*
X4025560Y-3727947D01*
X4027388Y-3599960D01*
X4026822Y-3498661D01*
X4023280Y-3420472D01*
X4016184Y-3361815D01*
X4004953Y-3319113D01*
X3989007Y-3288786D01*
X3967767Y-3267257D01*
X3940652Y-3250949D01*
X3917257Y-3240468D01*
X3873327Y-3225180D01*
X3833836Y-3220621D01*
X3794991Y-3229314D01*
G36*
X1709764Y-2243958D02*
G01*
X1658248Y-2285880D01*
X1632624Y-2329176D01*
X1617882Y-2400693D01*
X1631145Y-2465258D01*
X1666831Y-2517631D01*
X1719357Y-2552576D01*
X1783140Y-2564854D01*
X1852598Y-2549227D01*
X1862247Y-2544622D01*
X1919612Y-2497662D01*
X1944578Y-2452152D01*
X1958043Y-2407716D01*
X1956120Y-2372441D01*
X1937623Y-2327709D01*
X1936531Y-2325478D01*
X1892455Y-2267526D01*
X1834728Y-2234685D01*
X1771210Y-2226861D01*
X1709764Y-2243958D01*
G37*
X1709764Y-2243958D02*
X1658248Y-2285880D01*
X1632624Y-2329176D01*
X1617882Y-2400693D01*
X1631145Y-2465258D01*
X1666831Y-2517631D01*
X1719357Y-2552576D01*
X1783140Y-2564854D01*
X1852598Y-2549227D01*
X1862247Y-2544622D01*
X1919612Y-2497662D01*
X1944578Y-2452152D01*
X1958043Y-2407716D01*
X1956120Y-2372441D01*
X1937623Y-2327709D01*
X1936531Y-2325478D01*
X1892455Y-2267526D01*
X1834728Y-2234685D01*
X1771210Y-2226861D01*
X1709764Y-2243958D01*
G36*
X-1880103Y-2243958D02*
G01*
X-1931619Y-2285880D01*
X-1957243Y-2329176D01*
X-1971985Y-2400693D01*
X-1958721Y-2465258D01*
X-1923036Y-2517631D01*
X-1870510Y-2552576D01*
X-1806727Y-2564854D01*
X-1737268Y-2549227D01*
X-1727620Y-2544622D01*
X-1670254Y-2497662D01*
X-1645289Y-2452152D01*
X-1631823Y-2407716D01*
X-1633747Y-2372441D01*
X-1652243Y-2327709D01*
X-1653336Y-2325478D01*
X-1697412Y-2267526D01*
X-1755139Y-2234685D01*
X-1818656Y-2226861D01*
X-1880103Y-2243958D01*
G37*
X-1880103Y-2243958D02*
X-1931619Y-2285880D01*
X-1957243Y-2329176D01*
X-1971985Y-2400693D01*
X-1958721Y-2465258D01*
X-1923036Y-2517631D01*
X-1870510Y-2552576D01*
X-1806727Y-2564854D01*
X-1737268Y-2549227D01*
X-1727620Y-2544622D01*
X-1670254Y-2497662D01*
X-1645289Y-2452152D01*
X-1631823Y-2407716D01*
X-1633747Y-2372441D01*
X-1652243Y-2327709D01*
X-1653336Y-2325478D01*
X-1697412Y-2267526D01*
X-1755139Y-2234685D01*
X-1818656Y-2226861D01*
X-1880103Y-2243958D01*
D12*
X8580940Y-4000755D02*
X6876812Y-5704882D01*
X10285067Y-5704882D02*
X8580940Y-4000755D01*
X3192786Y-9813173D02*
X8580940Y-4425019D01*
X8934493Y-15554880D02*
X3192786Y-9813173D01*
X14322647Y-10166726D02*
X8934493Y-15554880D01*
X8580940Y-4425019D02*
X14322647Y-10166726D01*
X-2578100Y11777980D02*
X-10198100Y11777980D01*
X10121900Y11777980D02*
X2501900Y11777980D01*
X10121900Y19397980D02*
X10121900Y11777980D01*
X-10198100Y19397980D02*
X10121900Y19397980D01*
X-10198100Y11777980D02*
X-10198100Y19397980D01*
X-10463642Y-7481304D02*
X-14148642Y-1098696D01*
X-18370454Y-12046304D02*
X-10463642Y-7481304D01*
X-19736479Y-11680278D02*
X-18370454Y-12046304D01*
X-22421479Y-7029722D02*
X-19736479Y-11680278D01*
X-22055454Y-5663696D02*
X-22421479Y-7029722D01*
X-14148642Y-1098696D02*
X-22055454Y-5663696D01*
D10*
X6253748Y-15013824D02*
X6253748Y-15081167D01*
X6321091Y-15215854D01*
X6388435Y-15283198D01*
X6523122Y-15350541D01*
X6657809Y-15350541D01*
X6758824Y-15316870D01*
X6927183Y-15215854D01*
X7028198Y-15114839D01*
X7129213Y-14946480D01*
X7162885Y-14845465D01*
X7162885Y-14710778D01*
X7095541Y-14576091D01*
X7028198Y-14508748D01*
X6893511Y-14441404D01*
X6826167Y-14441404D01*
X6119061Y-14609763D02*
X5782343Y-14273045D01*
X5984374Y-14879137D02*
X6455778Y-13936328D01*
X5512969Y-14407732D01*
X5277267Y-14172030D02*
X5984374Y-13464923D01*
X4873206Y-13767969D01*
X5580312Y-13060862D01*
X4166099Y-13060862D02*
X4570160Y-13464923D01*
X4368129Y-13262893D02*
X5075236Y-12555786D01*
X5041564Y-12724145D01*
X5041564Y-12858832D01*
X5075236Y-12959847D01*
X1809523Y20593095D02*
X1809523Y21393095D01*
X1504761Y21393095D01*
X1428571Y21355000D01*
X1390476Y21316904D01*
X1352380Y21240714D01*
X1352380Y21126428D01*
X1390476Y21050238D01*
X1428571Y21012142D01*
X1504761Y20974047D01*
X1809523Y20974047D01*
X552380Y20593095D02*
X819047Y20974047D01*
X1009523Y20593095D02*
X1009523Y21393095D01*
X704761Y21393095D01*
X628571Y21355000D01*
X590476Y21316904D01*
X552380Y21240714D01*
X552380Y21126428D01*
X590476Y21050238D01*
X628571Y21012142D01*
X704761Y20974047D01*
X1009523Y20974047D01*
X57142Y21393095D02*
X-95238Y21393095D01*
X-171428Y21355000D01*
X-247619Y21278809D01*
X-285714Y21126428D01*
X-285714Y20859761D01*
X-247619Y20707380D01*
X-171428Y20631190D01*
X-95238Y20593095D01*
X57142Y20593095D01*
X133333Y20631190D01*
X209523Y20707380D01*
X247619Y20859761D01*
X247619Y21126428D01*
X209523Y21278809D01*
X133333Y21355000D01*
X57142Y21393095D01*
X-1047619Y21355000D02*
X-971428Y21393095D01*
X-857142Y21393095D01*
X-742857Y21355000D01*
X-666666Y21278809D01*
X-628571Y21202619D01*
X-590476Y21050238D01*
X-590476Y20935952D01*
X-628571Y20783571D01*
X-666666Y20707380D01*
X-742857Y20631190D01*
X-857142Y20593095D01*
X-933333Y20593095D01*
X-1047619Y20631190D01*
X-1085714Y20669285D01*
X-1085714Y20935952D01*
X-933333Y20935952D01*
X-1847619Y20593095D02*
X-1390476Y20593095D01*
X-1619047Y20593095D02*
X-1619047Y21393095D01*
X-1542857Y21278809D01*
X-1466666Y21202619D01*
X-1390476Y21164523D01*
X-13955134Y-10154081D02*
X-13597991Y-10772670D01*
X-13485323Y-10872579D01*
X-13355225Y-10907438D01*
X-13207698Y-10877249D01*
X-13125219Y-10829630D01*
X-14278669Y-10450845D02*
X-14343717Y-10433415D01*
X-14450006Y-10439795D01*
X-14656202Y-10558843D01*
X-14714871Y-10647701D01*
X-14732301Y-10712750D01*
X-14725921Y-10819038D01*
X-14678302Y-10901517D01*
X-14565634Y-11001425D01*
X-13785048Y-11210582D01*
X-14321159Y-11520106D01*
M02*
