G04 #@! TF.GenerationSoftware,KiCad,Pcbnew,(5.1.5)-3*
G04 #@! TF.CreationDate,2020-11-16T12:55:27+01:00*
G04 #@! TF.ProjectId,bus_raspi,6275735f-7261-4737-9069-2e6b69636164,rev?*
G04 #@! TF.SameCoordinates,Original*
G04 #@! TF.FileFunction,Legend,Top*
G04 #@! TF.FilePolarity,Positive*
%FSLAX46Y46*%
G04 Gerber Fmt 4.6, Leading zero omitted, Abs format (unit mm)*
G04 Created by KiCad (PCBNEW (5.1.5)-3) date 2020-11-16 12:55:27*
%MOMM*%
%LPD*%
G04 APERTURE LIST*
%ADD10C,0.375000*%
%ADD11C,0.250000*%
%ADD12C,0.010000*%
%ADD13C,0.100000*%
%ADD14C,0.120000*%
%ADD15C,0.150000*%
G04 APERTURE END LIST*
D10*
X42232571Y-39540571D02*
X41732571Y-38826285D01*
X41375428Y-39540571D02*
X41375428Y-38040571D01*
X41946857Y-38040571D01*
X42089714Y-38112000D01*
X42161142Y-38183428D01*
X42232571Y-38326285D01*
X42232571Y-38540571D01*
X42161142Y-38683428D01*
X42089714Y-38754857D01*
X41946857Y-38826285D01*
X41375428Y-38826285D01*
X43161142Y-38040571D02*
X43446857Y-38040571D01*
X43589714Y-38112000D01*
X43732571Y-38254857D01*
X43804000Y-38540571D01*
X43804000Y-39040571D01*
X43732571Y-39326285D01*
X43589714Y-39469142D01*
X43446857Y-39540571D01*
X43161142Y-39540571D01*
X43018285Y-39469142D01*
X42875428Y-39326285D01*
X42804000Y-39040571D01*
X42804000Y-38540571D01*
X42875428Y-38254857D01*
X43018285Y-38112000D01*
X43161142Y-38040571D01*
X44946857Y-38754857D02*
X45161142Y-38826285D01*
X45232571Y-38897714D01*
X45304000Y-39040571D01*
X45304000Y-39254857D01*
X45232571Y-39397714D01*
X45161142Y-39469142D01*
X45018285Y-39540571D01*
X44446857Y-39540571D01*
X44446857Y-38040571D01*
X44946857Y-38040571D01*
X45089714Y-38112000D01*
X45161142Y-38183428D01*
X45232571Y-38326285D01*
X45232571Y-38469142D01*
X45161142Y-38612000D01*
X45089714Y-38683428D01*
X44946857Y-38754857D01*
X44446857Y-38754857D01*
X46232571Y-38040571D02*
X46518285Y-38040571D01*
X46661142Y-38112000D01*
X46804000Y-38254857D01*
X46875428Y-38540571D01*
X46875428Y-39040571D01*
X46804000Y-39326285D01*
X46661142Y-39469142D01*
X46518285Y-39540571D01*
X46232571Y-39540571D01*
X46089714Y-39469142D01*
X45946857Y-39326285D01*
X45875428Y-39040571D01*
X45875428Y-38540571D01*
X45946857Y-38254857D01*
X46089714Y-38112000D01*
X46232571Y-38040571D01*
X47304000Y-38040571D02*
X48161142Y-38040571D01*
X47732571Y-39540571D02*
X47732571Y-38040571D01*
X48661142Y-38754857D02*
X49161142Y-38754857D01*
X49375428Y-39540571D02*
X48661142Y-39540571D01*
X48661142Y-38040571D01*
X49375428Y-38040571D01*
X50875428Y-39397714D02*
X50804000Y-39469142D01*
X50589714Y-39540571D01*
X50446857Y-39540571D01*
X50232571Y-39469142D01*
X50089714Y-39326285D01*
X50018285Y-39183428D01*
X49946857Y-38897714D01*
X49946857Y-38683428D01*
X50018285Y-38397714D01*
X50089714Y-38254857D01*
X50232571Y-38112000D01*
X50446857Y-38040571D01*
X50589714Y-38040571D01*
X50804000Y-38112000D01*
X50875428Y-38183428D01*
X51518285Y-39540571D02*
X51518285Y-38040571D01*
X51518285Y-38754857D02*
X52375428Y-38754857D01*
X52375428Y-39540571D02*
X52375428Y-38040571D01*
X54232571Y-39540571D02*
X54232571Y-38040571D01*
X55089714Y-39540571D01*
X55089714Y-38040571D01*
X55732571Y-39112000D02*
X56446857Y-39112000D01*
X55589714Y-39540571D02*
X56089714Y-38040571D01*
X56589714Y-39540571D01*
X57089714Y-39540571D02*
X57089714Y-38040571D01*
X57946857Y-39540571D01*
X57946857Y-38040571D01*
X59518285Y-39397714D02*
X59446857Y-39469142D01*
X59232571Y-39540571D01*
X59089714Y-39540571D01*
X58875428Y-39469142D01*
X58732571Y-39326285D01*
X58661142Y-39183428D01*
X58589714Y-38897714D01*
X58589714Y-38683428D01*
X58661142Y-38397714D01*
X58732571Y-38254857D01*
X58875428Y-38112000D01*
X59089714Y-38040571D01*
X59232571Y-38040571D01*
X59446857Y-38112000D01*
X59518285Y-38183428D01*
X60446857Y-38826285D02*
X60446857Y-39540571D01*
X59946857Y-38040571D02*
X60446857Y-38826285D01*
X60946857Y-38040571D01*
D11*
X54618000Y-16763904D02*
X54570380Y-16859142D01*
X54570380Y-17002000D01*
X54618000Y-17144857D01*
X54713238Y-17240095D01*
X54808476Y-17287714D01*
X54998952Y-17335333D01*
X55141809Y-17335333D01*
X55332285Y-17287714D01*
X55427523Y-17240095D01*
X55522761Y-17144857D01*
X55570380Y-17002000D01*
X55570380Y-16906761D01*
X55522761Y-16763904D01*
X55475142Y-16716285D01*
X55141809Y-16716285D01*
X55141809Y-16906761D01*
X55570380Y-16287714D02*
X54570380Y-16287714D01*
X55570380Y-15716285D01*
X54570380Y-15716285D01*
X55570380Y-15240095D02*
X54570380Y-15240095D01*
X54570380Y-15002000D01*
X54618000Y-14859142D01*
X54713238Y-14763904D01*
X54808476Y-14716285D01*
X54998952Y-14668666D01*
X55141809Y-14668666D01*
X55332285Y-14716285D01*
X55427523Y-14763904D01*
X55522761Y-14859142D01*
X55570380Y-15002000D01*
X55570380Y-15240095D01*
X42886380Y-17240095D02*
X42886380Y-16621047D01*
X43267333Y-16954380D01*
X43267333Y-16811523D01*
X43314952Y-16716285D01*
X43362571Y-16668666D01*
X43457809Y-16621047D01*
X43695904Y-16621047D01*
X43791142Y-16668666D01*
X43838761Y-16716285D01*
X43886380Y-16811523D01*
X43886380Y-17097238D01*
X43838761Y-17192476D01*
X43791142Y-17240095D01*
X42886380Y-16335333D02*
X43886380Y-16002000D01*
X42886380Y-15668666D01*
X42886380Y-15430571D02*
X42886380Y-14811523D01*
X43267333Y-15144857D01*
X43267333Y-15002000D01*
X43314952Y-14906761D01*
X43362571Y-14859142D01*
X43457809Y-14811523D01*
X43695904Y-14811523D01*
X43791142Y-14859142D01*
X43838761Y-14906761D01*
X43886380Y-15002000D01*
X43886380Y-15287714D01*
X43838761Y-15382952D01*
X43791142Y-15430571D01*
X10954095Y-48712380D02*
X10620761Y-48236190D01*
X10382666Y-48712380D02*
X10382666Y-47712380D01*
X10763619Y-47712380D01*
X10858857Y-47760000D01*
X10906476Y-47807619D01*
X10954095Y-47902857D01*
X10954095Y-48045714D01*
X10906476Y-48140952D01*
X10858857Y-48188571D01*
X10763619Y-48236190D01*
X10382666Y-48236190D01*
X11335047Y-48664761D02*
X11477904Y-48712380D01*
X11716000Y-48712380D01*
X11811238Y-48664761D01*
X11858857Y-48617142D01*
X11906476Y-48521904D01*
X11906476Y-48426666D01*
X11858857Y-48331428D01*
X11811238Y-48283809D01*
X11716000Y-48236190D01*
X11525523Y-48188571D01*
X11430285Y-48140952D01*
X11382666Y-48093333D01*
X11335047Y-47998095D01*
X11335047Y-47902857D01*
X11382666Y-47807619D01*
X11430285Y-47760000D01*
X11525523Y-47712380D01*
X11763619Y-47712380D01*
X11906476Y-47760000D01*
X12192190Y-47712380D02*
X12763619Y-47712380D01*
X12477904Y-48712380D02*
X12477904Y-47712380D01*
X13763619Y-47712380D02*
X14430285Y-48712380D01*
X14430285Y-47712380D02*
X13763619Y-48712380D01*
X15144571Y-48188571D02*
X15287428Y-48236190D01*
X15335047Y-48283809D01*
X15382666Y-48379047D01*
X15382666Y-48521904D01*
X15335047Y-48617142D01*
X15287428Y-48664761D01*
X15192190Y-48712380D01*
X14811238Y-48712380D01*
X14811238Y-47712380D01*
X15144571Y-47712380D01*
X15239809Y-47760000D01*
X15287428Y-47807619D01*
X15335047Y-47902857D01*
X15335047Y-47998095D01*
X15287428Y-48093333D01*
X15239809Y-48140952D01*
X15144571Y-48188571D01*
X14811238Y-48188571D01*
X16192190Y-48664761D02*
X16096952Y-48712380D01*
X15906476Y-48712380D01*
X15811238Y-48664761D01*
X15763619Y-48569523D01*
X15763619Y-48188571D01*
X15811238Y-48093333D01*
X15906476Y-48045714D01*
X16096952Y-48045714D01*
X16192190Y-48093333D01*
X16239809Y-48188571D01*
X16239809Y-48283809D01*
X15763619Y-48379047D01*
X17049333Y-48664761D02*
X16954095Y-48712380D01*
X16763619Y-48712380D01*
X16668380Y-48664761D01*
X16620761Y-48569523D01*
X16620761Y-48188571D01*
X16668380Y-48093333D01*
X16763619Y-48045714D01*
X16954095Y-48045714D01*
X17049333Y-48093333D01*
X17096952Y-48188571D01*
X17096952Y-48283809D01*
X16620761Y-48379047D01*
X2238666Y-49192571D02*
X1905333Y-48478285D01*
X1667238Y-49192571D02*
X1667238Y-47692571D01*
X2048190Y-47692571D01*
X2143428Y-47764000D01*
X2191047Y-47835428D01*
X2238666Y-47978285D01*
X2238666Y-48192571D01*
X2191047Y-48335428D01*
X2143428Y-48406857D01*
X2048190Y-48478285D01*
X1667238Y-48478285D01*
X2667238Y-49192571D02*
X2667238Y-47692571D01*
X3048190Y-47692571D01*
X3143428Y-47764000D01*
X3191047Y-47835428D01*
X3238666Y-47978285D01*
X3238666Y-48192571D01*
X3191047Y-48335428D01*
X3143428Y-48406857D01*
X3048190Y-48478285D01*
X2667238Y-48478285D01*
X3667238Y-49192571D02*
X3667238Y-48192571D01*
X3667238Y-47692571D02*
X3619619Y-47764000D01*
X3667238Y-47835428D01*
X3714857Y-47764000D01*
X3667238Y-47692571D01*
X3667238Y-47835428D01*
X4381523Y-49692571D02*
X4381523Y-47549714D01*
X5048190Y-49121142D02*
X5191047Y-49192571D01*
X5429142Y-49192571D01*
X5524380Y-49121142D01*
X5572000Y-49049714D01*
X5619619Y-48906857D01*
X5619619Y-48764000D01*
X5572000Y-48621142D01*
X5524380Y-48549714D01*
X5429142Y-48478285D01*
X5238666Y-48406857D01*
X5143428Y-48335428D01*
X5095809Y-48264000D01*
X5048190Y-48121142D01*
X5048190Y-47978285D01*
X5095809Y-47835428D01*
X5143428Y-47764000D01*
X5238666Y-47692571D01*
X5476761Y-47692571D01*
X5619619Y-47764000D01*
X5905333Y-47692571D02*
X6476761Y-47692571D01*
X6191047Y-49192571D02*
X6191047Y-47692571D01*
X6810095Y-49192571D02*
X6810095Y-47692571D01*
X7143428Y-48764000D01*
X7476761Y-47692571D01*
X7476761Y-49192571D01*
D12*
G36*
X29541305Y-8900478D02*
G01*
X29893845Y-8932847D01*
X30233037Y-8995089D01*
X30558335Y-9087235D01*
X30869194Y-9209320D01*
X31165066Y-9361378D01*
X31245944Y-9409820D01*
X31473920Y-9566088D01*
X31688324Y-9743203D01*
X31883299Y-9935656D01*
X32052987Y-10137939D01*
X32120391Y-10231967D01*
X32174960Y-10312400D01*
X30381373Y-10312400D01*
X30300009Y-10198100D01*
X30144871Y-10009064D01*
X29965408Y-9843389D01*
X29762221Y-9701504D01*
X29535908Y-9583839D01*
X29338184Y-9507294D01*
X29197779Y-9463845D01*
X29063082Y-9430354D01*
X28926614Y-9405789D01*
X28780897Y-9389119D01*
X28618454Y-9379310D01*
X28431805Y-9375332D01*
X28380267Y-9375128D01*
X28067587Y-9383565D01*
X27757551Y-9410220D01*
X27444928Y-9456050D01*
X27124489Y-9522014D01*
X26791004Y-9609068D01*
X26439245Y-9718171D01*
X26358792Y-9745260D01*
X26260744Y-9778696D01*
X26172022Y-9808923D01*
X26098276Y-9834017D01*
X26045157Y-9852056D01*
X26018315Y-9861117D01*
X26018067Y-9861200D01*
X26022292Y-9857480D01*
X26053083Y-9840773D01*
X26106619Y-9813047D01*
X26179082Y-9776270D01*
X26266650Y-9732410D01*
X26305934Y-9712886D01*
X26745613Y-9507487D01*
X27176310Y-9331692D01*
X27597479Y-9185534D01*
X28008575Y-9069047D01*
X28409051Y-8982264D01*
X28798362Y-8925220D01*
X29175962Y-8897946D01*
X29541305Y-8900478D01*
G37*
X29541305Y-8900478D02*
X29893845Y-8932847D01*
X30233037Y-8995089D01*
X30558335Y-9087235D01*
X30869194Y-9209320D01*
X31165066Y-9361378D01*
X31245944Y-9409820D01*
X31473920Y-9566088D01*
X31688324Y-9743203D01*
X31883299Y-9935656D01*
X32052987Y-10137939D01*
X32120391Y-10231967D01*
X32174960Y-10312400D01*
X30381373Y-10312400D01*
X30300009Y-10198100D01*
X30144871Y-10009064D01*
X29965408Y-9843389D01*
X29762221Y-9701504D01*
X29535908Y-9583839D01*
X29338184Y-9507294D01*
X29197779Y-9463845D01*
X29063082Y-9430354D01*
X28926614Y-9405789D01*
X28780897Y-9389119D01*
X28618454Y-9379310D01*
X28431805Y-9375332D01*
X28380267Y-9375128D01*
X28067587Y-9383565D01*
X27757551Y-9410220D01*
X27444928Y-9456050D01*
X27124489Y-9522014D01*
X26791004Y-9609068D01*
X26439245Y-9718171D01*
X26358792Y-9745260D01*
X26260744Y-9778696D01*
X26172022Y-9808923D01*
X26098276Y-9834017D01*
X26045157Y-9852056D01*
X26018315Y-9861117D01*
X26018067Y-9861200D01*
X26022292Y-9857480D01*
X26053083Y-9840773D01*
X26106619Y-9813047D01*
X26179082Y-9776270D01*
X26266650Y-9732410D01*
X26305934Y-9712886D01*
X26745613Y-9507487D01*
X27176310Y-9331692D01*
X27597479Y-9185534D01*
X28008575Y-9069047D01*
X28409051Y-8982264D01*
X28798362Y-8925220D01*
X29175962Y-8897946D01*
X29541305Y-8900478D01*
G36*
X29764404Y-10532680D02*
G01*
X29837757Y-10533566D01*
X29887281Y-10535863D01*
X29917994Y-10540243D01*
X29934915Y-10547378D01*
X29943063Y-10557938D01*
X29946971Y-10570633D01*
X29945586Y-10594249D01*
X29938057Y-10647777D01*
X29924971Y-10727942D01*
X29906916Y-10831465D01*
X29884481Y-10955070D01*
X29858252Y-11095478D01*
X29828818Y-11249413D01*
X29796766Y-11413597D01*
X29786427Y-11465877D01*
X29753573Y-11631859D01*
X29722810Y-11787983D01*
X29694755Y-11931060D01*
X29670026Y-12057903D01*
X29649243Y-12165324D01*
X29633024Y-12250136D01*
X29621986Y-12309151D01*
X29616750Y-12339182D01*
X29616400Y-12342177D01*
X29627499Y-12348323D01*
X29662151Y-12353177D01*
X29722389Y-12356823D01*
X29810244Y-12359342D01*
X29927749Y-12360818D01*
X30076937Y-12361331D01*
X30088460Y-12361334D01*
X30229498Y-12361541D01*
X30340428Y-12362300D01*
X30425004Y-12363814D01*
X30486984Y-12366286D01*
X30530124Y-12369919D01*
X30558178Y-12374917D01*
X30574904Y-12381483D01*
X30582738Y-12388105D01*
X30592271Y-12410196D01*
X30594640Y-12447864D01*
X30589429Y-12505106D01*
X30576222Y-12585917D01*
X30554599Y-12694291D01*
X30547085Y-12729634D01*
X30527994Y-12818534D01*
X29752537Y-12818534D01*
X29562318Y-12818348D01*
X29403453Y-12817745D01*
X29273433Y-12816657D01*
X29169748Y-12815013D01*
X29089887Y-12812744D01*
X29031340Y-12809782D01*
X28991598Y-12806057D01*
X28968150Y-12801501D01*
X28958940Y-12796676D01*
X28957079Y-12781923D01*
X28959944Y-12746655D01*
X28967798Y-12689403D01*
X28980902Y-12608702D01*
X28999521Y-12503083D01*
X29023918Y-12371081D01*
X29054355Y-12211227D01*
X29091095Y-12022056D01*
X29134401Y-11802101D01*
X29163858Y-11653676D01*
X29386917Y-10532533D01*
X29662203Y-10532533D01*
X29764404Y-10532680D01*
G37*
X29764404Y-10532680D02*
X29837757Y-10533566D01*
X29887281Y-10535863D01*
X29917994Y-10540243D01*
X29934915Y-10547378D01*
X29943063Y-10557938D01*
X29946971Y-10570633D01*
X29945586Y-10594249D01*
X29938057Y-10647777D01*
X29924971Y-10727942D01*
X29906916Y-10831465D01*
X29884481Y-10955070D01*
X29858252Y-11095478D01*
X29828818Y-11249413D01*
X29796766Y-11413597D01*
X29786427Y-11465877D01*
X29753573Y-11631859D01*
X29722810Y-11787983D01*
X29694755Y-11931060D01*
X29670026Y-12057903D01*
X29649243Y-12165324D01*
X29633024Y-12250136D01*
X29621986Y-12309151D01*
X29616750Y-12339182D01*
X29616400Y-12342177D01*
X29627499Y-12348323D01*
X29662151Y-12353177D01*
X29722389Y-12356823D01*
X29810244Y-12359342D01*
X29927749Y-12360818D01*
X30076937Y-12361331D01*
X30088460Y-12361334D01*
X30229498Y-12361541D01*
X30340428Y-12362300D01*
X30425004Y-12363814D01*
X30486984Y-12366286D01*
X30530124Y-12369919D01*
X30558178Y-12374917D01*
X30574904Y-12381483D01*
X30582738Y-12388105D01*
X30592271Y-12410196D01*
X30594640Y-12447864D01*
X30589429Y-12505106D01*
X30576222Y-12585917D01*
X30554599Y-12694291D01*
X30547085Y-12729634D01*
X30527994Y-12818534D01*
X29752537Y-12818534D01*
X29562318Y-12818348D01*
X29403453Y-12817745D01*
X29273433Y-12816657D01*
X29169748Y-12815013D01*
X29089887Y-12812744D01*
X29031340Y-12809782D01*
X28991598Y-12806057D01*
X28968150Y-12801501D01*
X28958940Y-12796676D01*
X28957079Y-12781923D01*
X28959944Y-12746655D01*
X28967798Y-12689403D01*
X28980902Y-12608702D01*
X28999521Y-12503083D01*
X29023918Y-12371081D01*
X29054355Y-12211227D01*
X29091095Y-12022056D01*
X29134401Y-11802101D01*
X29163858Y-11653676D01*
X29386917Y-10532533D01*
X29662203Y-10532533D01*
X29764404Y-10532680D01*
G36*
X32545403Y-10509764D02*
G01*
X32709010Y-10556344D01*
X32856449Y-10628582D01*
X32983804Y-10725286D01*
X33008298Y-10749273D01*
X33072796Y-10815405D01*
X32923631Y-10948416D01*
X32860928Y-11004270D01*
X32804164Y-11054728D01*
X32760050Y-11093830D01*
X32737026Y-11114113D01*
X32713700Y-11132488D01*
X32694860Y-11135283D01*
X32670029Y-11120113D01*
X32636198Y-11091145D01*
X32582833Y-11051357D01*
X32517029Y-11011606D01*
X32481498Y-10993686D01*
X32431134Y-10972768D01*
X32385986Y-10961024D01*
X32333988Y-10956692D01*
X32263073Y-10958010D01*
X32243366Y-10958901D01*
X32157214Y-10965534D01*
X32089870Y-10978109D01*
X32026371Y-11000061D01*
X31986774Y-11017796D01*
X31847798Y-11101874D01*
X31728190Y-11212677D01*
X31629872Y-11347899D01*
X31554767Y-11505239D01*
X31536861Y-11557000D01*
X31498900Y-11709668D01*
X31483059Y-11855333D01*
X31488892Y-11989676D01*
X31515955Y-12108377D01*
X31563802Y-12207116D01*
X31609509Y-12262125D01*
X31682883Y-12323134D01*
X31757089Y-12362103D01*
X31843782Y-12383863D01*
X31922111Y-12391684D01*
X32076133Y-12384624D01*
X32226035Y-12344591D01*
X32373285Y-12271172D01*
X32391857Y-12259447D01*
X32447229Y-12226569D01*
X32494426Y-12203748D01*
X32524251Y-12195350D01*
X32526402Y-12195552D01*
X32547277Y-12210542D01*
X32582841Y-12247135D01*
X32627833Y-12299569D01*
X32669686Y-12352456D01*
X32785475Y-12504065D01*
X32729171Y-12551834D01*
X32648814Y-12611377D01*
X32548185Y-12673296D01*
X32439611Y-12730789D01*
X32335421Y-12777059D01*
X32292612Y-12792619D01*
X32097131Y-12843699D01*
X31907028Y-12864486D01*
X31714171Y-12855740D01*
X31674321Y-12850481D01*
X31500682Y-12810866D01*
X31342683Y-12746069D01*
X31203668Y-12658351D01*
X31086980Y-12549974D01*
X30995961Y-12423198D01*
X30970508Y-12374309D01*
X30930728Y-12278445D01*
X30904892Y-12184296D01*
X30891406Y-12082088D01*
X30888677Y-11962047D01*
X30891076Y-11887200D01*
X30917266Y-11664720D01*
X30973642Y-11454947D01*
X31058217Y-11260012D01*
X31169004Y-11082049D01*
X31304015Y-10923190D01*
X31461264Y-10785568D01*
X31638762Y-10671314D01*
X31834523Y-10582562D01*
X32046558Y-10521444D01*
X32185355Y-10498360D01*
X32369546Y-10490038D01*
X32545403Y-10509764D01*
G37*
X32545403Y-10509764D02*
X32709010Y-10556344D01*
X32856449Y-10628582D01*
X32983804Y-10725286D01*
X33008298Y-10749273D01*
X33072796Y-10815405D01*
X32923631Y-10948416D01*
X32860928Y-11004270D01*
X32804164Y-11054728D01*
X32760050Y-11093830D01*
X32737026Y-11114113D01*
X32713700Y-11132488D01*
X32694860Y-11135283D01*
X32670029Y-11120113D01*
X32636198Y-11091145D01*
X32582833Y-11051357D01*
X32517029Y-11011606D01*
X32481498Y-10993686D01*
X32431134Y-10972768D01*
X32385986Y-10961024D01*
X32333988Y-10956692D01*
X32263073Y-10958010D01*
X32243366Y-10958901D01*
X32157214Y-10965534D01*
X32089870Y-10978109D01*
X32026371Y-11000061D01*
X31986774Y-11017796D01*
X31847798Y-11101874D01*
X31728190Y-11212677D01*
X31629872Y-11347899D01*
X31554767Y-11505239D01*
X31536861Y-11557000D01*
X31498900Y-11709668D01*
X31483059Y-11855333D01*
X31488892Y-11989676D01*
X31515955Y-12108377D01*
X31563802Y-12207116D01*
X31609509Y-12262125D01*
X31682883Y-12323134D01*
X31757089Y-12362103D01*
X31843782Y-12383863D01*
X31922111Y-12391684D01*
X32076133Y-12384624D01*
X32226035Y-12344591D01*
X32373285Y-12271172D01*
X32391857Y-12259447D01*
X32447229Y-12226569D01*
X32494426Y-12203748D01*
X32524251Y-12195350D01*
X32526402Y-12195552D01*
X32547277Y-12210542D01*
X32582841Y-12247135D01*
X32627833Y-12299569D01*
X32669686Y-12352456D01*
X32785475Y-12504065D01*
X32729171Y-12551834D01*
X32648814Y-12611377D01*
X32548185Y-12673296D01*
X32439611Y-12730789D01*
X32335421Y-12777059D01*
X32292612Y-12792619D01*
X32097131Y-12843699D01*
X31907028Y-12864486D01*
X31714171Y-12855740D01*
X31674321Y-12850481D01*
X31500682Y-12810866D01*
X31342683Y-12746069D01*
X31203668Y-12658351D01*
X31086980Y-12549974D01*
X30995961Y-12423198D01*
X30970508Y-12374309D01*
X30930728Y-12278445D01*
X30904892Y-12184296D01*
X30891406Y-12082088D01*
X30888677Y-11962047D01*
X30891076Y-11887200D01*
X30917266Y-11664720D01*
X30973642Y-11454947D01*
X31058217Y-11260012D01*
X31169004Y-11082049D01*
X31304015Y-10923190D01*
X31461264Y-10785568D01*
X31638762Y-10671314D01*
X31834523Y-10582562D01*
X32046558Y-10521444D01*
X32185355Y-10498360D01*
X32369546Y-10490038D01*
X32545403Y-10509764D01*
G36*
X26175189Y-10583333D02*
G01*
X26172874Y-10608107D01*
X26164400Y-10662607D01*
X26150405Y-10743384D01*
X26131530Y-10846987D01*
X26108413Y-10969966D01*
X26081694Y-11108870D01*
X26052012Y-11260250D01*
X26020860Y-11416408D01*
X25983005Y-11603858D01*
X25950802Y-11761304D01*
X25923471Y-11891995D01*
X25900235Y-11999178D01*
X25880315Y-12086100D01*
X25862933Y-12156008D01*
X25847310Y-12212151D01*
X25832669Y-12257777D01*
X25818232Y-12296131D01*
X25803219Y-12330463D01*
X25800341Y-12336581D01*
X25735833Y-12447109D01*
X25651219Y-12555076D01*
X25554859Y-12651443D01*
X25455114Y-12727173D01*
X25420136Y-12747565D01*
X25280204Y-12805901D01*
X25122077Y-12844593D01*
X24956117Y-12862198D01*
X24792688Y-12857278D01*
X24714200Y-12845735D01*
X24561574Y-12801782D01*
X24428898Y-12733233D01*
X24318711Y-12641814D01*
X24233553Y-12529251D01*
X24224239Y-12512761D01*
X24204497Y-12477379D01*
X24192128Y-12450757D01*
X24190362Y-12428994D01*
X24202434Y-12408187D01*
X24231575Y-12384435D01*
X24281018Y-12353836D01*
X24353997Y-12312487D01*
X24421471Y-12274689D01*
X24502943Y-12229702D01*
X24561263Y-12201426D01*
X24602526Y-12189489D01*
X24632824Y-12193519D01*
X24658249Y-12213145D01*
X24684893Y-12247997D01*
X24691891Y-12258210D01*
X24740252Y-12319833D01*
X24790286Y-12358647D01*
X24851649Y-12379315D01*
X24934002Y-12386498D01*
X24958132Y-12386734D01*
X25027648Y-12385471D01*
X25074532Y-12379814D01*
X25109979Y-12366955D01*
X25145187Y-12344088D01*
X25153609Y-12337745D01*
X25179492Y-12316305D01*
X25202571Y-12292157D01*
X25223695Y-12262464D01*
X25243712Y-12224389D01*
X25263470Y-12175098D01*
X25283818Y-12111753D01*
X25305604Y-12031519D01*
X25329676Y-11931559D01*
X25356883Y-11809037D01*
X25388073Y-11661117D01*
X25424094Y-11484964D01*
X25455876Y-11327203D01*
X25613650Y-10541000D01*
X26170467Y-10541000D01*
X26175189Y-10583333D01*
G37*
X26175189Y-10583333D02*
X26172874Y-10608107D01*
X26164400Y-10662607D01*
X26150405Y-10743384D01*
X26131530Y-10846987D01*
X26108413Y-10969966D01*
X26081694Y-11108870D01*
X26052012Y-11260250D01*
X26020860Y-11416408D01*
X25983005Y-11603858D01*
X25950802Y-11761304D01*
X25923471Y-11891995D01*
X25900235Y-11999178D01*
X25880315Y-12086100D01*
X25862933Y-12156008D01*
X25847310Y-12212151D01*
X25832669Y-12257777D01*
X25818232Y-12296131D01*
X25803219Y-12330463D01*
X25800341Y-12336581D01*
X25735833Y-12447109D01*
X25651219Y-12555076D01*
X25554859Y-12651443D01*
X25455114Y-12727173D01*
X25420136Y-12747565D01*
X25280204Y-12805901D01*
X25122077Y-12844593D01*
X24956117Y-12862198D01*
X24792688Y-12857278D01*
X24714200Y-12845735D01*
X24561574Y-12801782D01*
X24428898Y-12733233D01*
X24318711Y-12641814D01*
X24233553Y-12529251D01*
X24224239Y-12512761D01*
X24204497Y-12477379D01*
X24192128Y-12450757D01*
X24190362Y-12428994D01*
X24202434Y-12408187D01*
X24231575Y-12384435D01*
X24281018Y-12353836D01*
X24353997Y-12312487D01*
X24421471Y-12274689D01*
X24502943Y-12229702D01*
X24561263Y-12201426D01*
X24602526Y-12189489D01*
X24632824Y-12193519D01*
X24658249Y-12213145D01*
X24684893Y-12247997D01*
X24691891Y-12258210D01*
X24740252Y-12319833D01*
X24790286Y-12358647D01*
X24851649Y-12379315D01*
X24934002Y-12386498D01*
X24958132Y-12386734D01*
X25027648Y-12385471D01*
X25074532Y-12379814D01*
X25109979Y-12366955D01*
X25145187Y-12344088D01*
X25153609Y-12337745D01*
X25179492Y-12316305D01*
X25202571Y-12292157D01*
X25223695Y-12262464D01*
X25243712Y-12224389D01*
X25263470Y-12175098D01*
X25283818Y-12111753D01*
X25305604Y-12031519D01*
X25329676Y-11931559D01*
X25356883Y-11809037D01*
X25388073Y-11661117D01*
X25424094Y-11484964D01*
X25455876Y-11327203D01*
X25613650Y-10541000D01*
X26170467Y-10541000D01*
X26175189Y-10583333D01*
G36*
X27874780Y-10813381D02*
G01*
X27968410Y-10815234D01*
X28041047Y-10819254D01*
X28099118Y-10825892D01*
X28149049Y-10835596D01*
X28177067Y-10842879D01*
X28349310Y-10904618D01*
X28493460Y-10985182D01*
X28609712Y-11084770D01*
X28698257Y-11203582D01*
X28759291Y-11341819D01*
X28790010Y-11476996D01*
X28796242Y-11634485D01*
X28771674Y-11791343D01*
X28719275Y-11944377D01*
X28642016Y-12090394D01*
X28542866Y-12226203D01*
X28424795Y-12348611D01*
X28290772Y-12454426D01*
X28143768Y-12540455D01*
X27986751Y-12603505D01*
X27822692Y-12640386D01*
X27699803Y-12648950D01*
X27608666Y-12644929D01*
X27544053Y-12630888D01*
X27499521Y-12604568D01*
X27471480Y-12568850D01*
X27444626Y-12522060D01*
X27329197Y-12579356D01*
X27203740Y-12627177D01*
X27077809Y-12648576D01*
X26956322Y-12644494D01*
X26844193Y-12615867D01*
X26746339Y-12563635D01*
X26667676Y-12488736D01*
X26639767Y-12447747D01*
X26614093Y-12397268D01*
X26600420Y-12348054D01*
X26595474Y-12285710D01*
X26595213Y-12251825D01*
X26602837Y-12179497D01*
X26960439Y-12179497D01*
X26963702Y-12268253D01*
X26982524Y-12326030D01*
X27025607Y-12377233D01*
X27088090Y-12414143D01*
X27153760Y-12428404D01*
X27189383Y-12424063D01*
X27242788Y-12412216D01*
X27279387Y-12402161D01*
X27366408Y-12360812D01*
X27452507Y-12292057D01*
X27533352Y-12202185D01*
X27604609Y-12097486D01*
X27661946Y-11984249D01*
X27701031Y-11868762D01*
X27717097Y-11766796D01*
X27719762Y-11704695D01*
X27716680Y-11664885D01*
X27704300Y-11635866D01*
X27679068Y-11606133D01*
X27662237Y-11589117D01*
X27627313Y-11556007D01*
X27598609Y-11538284D01*
X27563930Y-11532057D01*
X27511080Y-11533437D01*
X27491469Y-11534650D01*
X27424953Y-11541742D01*
X27372978Y-11556697D01*
X27319813Y-11585128D01*
X27284299Y-11608589D01*
X27202133Y-11678122D01*
X27127858Y-11765952D01*
X27064011Y-11866042D01*
X27013133Y-11972354D01*
X26977762Y-12078852D01*
X26960439Y-12179497D01*
X26602837Y-12179497D01*
X26611444Y-12097859D01*
X26659332Y-11947904D01*
X26739523Y-11800597D01*
X26852666Y-11654579D01*
X26907525Y-11595994D01*
X26981189Y-11523722D01*
X27042942Y-11470660D01*
X27102184Y-11429699D01*
X27168318Y-11393730D01*
X27186864Y-11384763D01*
X27255475Y-11353731D01*
X27311037Y-11334088D01*
X27366681Y-11322739D01*
X27435542Y-11316583D01*
X27485961Y-11314202D01*
X27567239Y-11312026D01*
X27624708Y-11314076D01*
X27668294Y-11321594D01*
X27707925Y-11335822D01*
X27726055Y-11344231D01*
X27777493Y-11375197D01*
X27819130Y-11410660D01*
X27830338Y-11424527D01*
X27858947Y-11468190D01*
X27895739Y-11402529D01*
X27932532Y-11336867D01*
X28114535Y-11332056D01*
X28296537Y-11327245D01*
X28273159Y-11382856D01*
X28260475Y-11412405D01*
X28236157Y-11468490D01*
X28202159Y-11546626D01*
X28160435Y-11642328D01*
X28112940Y-11751110D01*
X28061628Y-11868486D01*
X28050779Y-11893284D01*
X27993282Y-12025183D01*
X27948408Y-12129607D01*
X27914923Y-12209983D01*
X27891591Y-12269739D01*
X27877175Y-12312299D01*
X27870441Y-12341092D01*
X27870152Y-12359543D01*
X27875073Y-12371079D01*
X27877487Y-12373811D01*
X27917509Y-12391358D01*
X27973622Y-12384970D01*
X28041612Y-12357814D01*
X28117264Y-12313059D01*
X28196362Y-12253872D01*
X28274691Y-12183421D01*
X28348037Y-12104874D01*
X28412183Y-12021399D01*
X28462916Y-11936164D01*
X28464772Y-11932429D01*
X28521534Y-11787217D01*
X28546492Y-11649865D01*
X28541128Y-11521984D01*
X28506923Y-11405188D01*
X28445359Y-11301088D01*
X28357918Y-11211297D01*
X28246080Y-11137427D01*
X28111329Y-11081090D01*
X27955145Y-11043899D01*
X27779010Y-11027465D01*
X27635200Y-11029703D01*
X27410469Y-11056473D01*
X27201905Y-11108938D01*
X27011933Y-11186092D01*
X26842976Y-11286931D01*
X26697457Y-11410448D01*
X26684130Y-11424174D01*
X26578176Y-11551455D01*
X26487537Y-11692633D01*
X26414547Y-11841691D01*
X26361543Y-11992614D01*
X26330859Y-12139386D01*
X26324831Y-12275993D01*
X26330995Y-12333856D01*
X26368955Y-12478763D01*
X26432949Y-12604101D01*
X26523815Y-12710692D01*
X26642392Y-12799358D01*
X26789516Y-12870919D01*
X26924000Y-12915218D01*
X27001231Y-12929966D01*
X27104146Y-12940240D01*
X27224872Y-12946119D01*
X27355535Y-12947684D01*
X27488259Y-12945013D01*
X27615171Y-12938186D01*
X27728397Y-12927284D01*
X27820061Y-12912384D01*
X27846867Y-12905894D01*
X27979027Y-12862740D01*
X28109290Y-12807612D01*
X28226432Y-12745723D01*
X28306298Y-12692465D01*
X28347007Y-12662822D01*
X28380726Y-12644954D01*
X28418335Y-12635889D01*
X28470714Y-12632655D01*
X28526635Y-12632267D01*
X28591070Y-12633852D01*
X28640142Y-12638077D01*
X28666011Y-12644146D01*
X28668134Y-12646623D01*
X28656006Y-12666259D01*
X28623760Y-12701459D01*
X28577599Y-12746476D01*
X28523726Y-12795565D01*
X28468344Y-12842978D01*
X28417657Y-12882971D01*
X28397200Y-12897583D01*
X28218302Y-13000680D01*
X28016444Y-13083098D01*
X27797005Y-13142698D01*
X27764065Y-13149315D01*
X27666519Y-13163544D01*
X27546266Y-13174261D01*
X27414193Y-13181106D01*
X27281189Y-13183717D01*
X27158141Y-13181733D01*
X27055938Y-13174794D01*
X27042533Y-13173235D01*
X26823296Y-13134592D01*
X26632082Y-13076931D01*
X26468890Y-13000253D01*
X26333719Y-12904557D01*
X26226568Y-12789840D01*
X26147435Y-12656103D01*
X26096319Y-12503343D01*
X26073219Y-12331561D01*
X26071753Y-12266823D01*
X26089293Y-12074209D01*
X26140257Y-11879062D01*
X26196234Y-11740332D01*
X26253472Y-11625304D01*
X26312719Y-11527405D01*
X26381898Y-11435178D01*
X26468933Y-11337161D01*
X26491101Y-11313852D01*
X26657455Y-11161709D01*
X26838984Y-11037185D01*
X27039410Y-10938121D01*
X27262452Y-10862359D01*
X27276115Y-10858647D01*
X27339072Y-10842580D01*
X27395098Y-10830885D01*
X27451704Y-10822847D01*
X27516401Y-10817752D01*
X27596698Y-10814887D01*
X27700108Y-10813538D01*
X27753733Y-10813245D01*
X27874780Y-10813381D01*
G37*
X27874780Y-10813381D02*
X27968410Y-10815234D01*
X28041047Y-10819254D01*
X28099118Y-10825892D01*
X28149049Y-10835596D01*
X28177067Y-10842879D01*
X28349310Y-10904618D01*
X28493460Y-10985182D01*
X28609712Y-11084770D01*
X28698257Y-11203582D01*
X28759291Y-11341819D01*
X28790010Y-11476996D01*
X28796242Y-11634485D01*
X28771674Y-11791343D01*
X28719275Y-11944377D01*
X28642016Y-12090394D01*
X28542866Y-12226203D01*
X28424795Y-12348611D01*
X28290772Y-12454426D01*
X28143768Y-12540455D01*
X27986751Y-12603505D01*
X27822692Y-12640386D01*
X27699803Y-12648950D01*
X27608666Y-12644929D01*
X27544053Y-12630888D01*
X27499521Y-12604568D01*
X27471480Y-12568850D01*
X27444626Y-12522060D01*
X27329197Y-12579356D01*
X27203740Y-12627177D01*
X27077809Y-12648576D01*
X26956322Y-12644494D01*
X26844193Y-12615867D01*
X26746339Y-12563635D01*
X26667676Y-12488736D01*
X26639767Y-12447747D01*
X26614093Y-12397268D01*
X26600420Y-12348054D01*
X26595474Y-12285710D01*
X26595213Y-12251825D01*
X26602837Y-12179497D01*
X26960439Y-12179497D01*
X26963702Y-12268253D01*
X26982524Y-12326030D01*
X27025607Y-12377233D01*
X27088090Y-12414143D01*
X27153760Y-12428404D01*
X27189383Y-12424063D01*
X27242788Y-12412216D01*
X27279387Y-12402161D01*
X27366408Y-12360812D01*
X27452507Y-12292057D01*
X27533352Y-12202185D01*
X27604609Y-12097486D01*
X27661946Y-11984249D01*
X27701031Y-11868762D01*
X27717097Y-11766796D01*
X27719762Y-11704695D01*
X27716680Y-11664885D01*
X27704300Y-11635866D01*
X27679068Y-11606133D01*
X27662237Y-11589117D01*
X27627313Y-11556007D01*
X27598609Y-11538284D01*
X27563930Y-11532057D01*
X27511080Y-11533437D01*
X27491469Y-11534650D01*
X27424953Y-11541742D01*
X27372978Y-11556697D01*
X27319813Y-11585128D01*
X27284299Y-11608589D01*
X27202133Y-11678122D01*
X27127858Y-11765952D01*
X27064011Y-11866042D01*
X27013133Y-11972354D01*
X26977762Y-12078852D01*
X26960439Y-12179497D01*
X26602837Y-12179497D01*
X26611444Y-12097859D01*
X26659332Y-11947904D01*
X26739523Y-11800597D01*
X26852666Y-11654579D01*
X26907525Y-11595994D01*
X26981189Y-11523722D01*
X27042942Y-11470660D01*
X27102184Y-11429699D01*
X27168318Y-11393730D01*
X27186864Y-11384763D01*
X27255475Y-11353731D01*
X27311037Y-11334088D01*
X27366681Y-11322739D01*
X27435542Y-11316583D01*
X27485961Y-11314202D01*
X27567239Y-11312026D01*
X27624708Y-11314076D01*
X27668294Y-11321594D01*
X27707925Y-11335822D01*
X27726055Y-11344231D01*
X27777493Y-11375197D01*
X27819130Y-11410660D01*
X27830338Y-11424527D01*
X27858947Y-11468190D01*
X27895739Y-11402529D01*
X27932532Y-11336867D01*
X28114535Y-11332056D01*
X28296537Y-11327245D01*
X28273159Y-11382856D01*
X28260475Y-11412405D01*
X28236157Y-11468490D01*
X28202159Y-11546626D01*
X28160435Y-11642328D01*
X28112940Y-11751110D01*
X28061628Y-11868486D01*
X28050779Y-11893284D01*
X27993282Y-12025183D01*
X27948408Y-12129607D01*
X27914923Y-12209983D01*
X27891591Y-12269739D01*
X27877175Y-12312299D01*
X27870441Y-12341092D01*
X27870152Y-12359543D01*
X27875073Y-12371079D01*
X27877487Y-12373811D01*
X27917509Y-12391358D01*
X27973622Y-12384970D01*
X28041612Y-12357814D01*
X28117264Y-12313059D01*
X28196362Y-12253872D01*
X28274691Y-12183421D01*
X28348037Y-12104874D01*
X28412183Y-12021399D01*
X28462916Y-11936164D01*
X28464772Y-11932429D01*
X28521534Y-11787217D01*
X28546492Y-11649865D01*
X28541128Y-11521984D01*
X28506923Y-11405188D01*
X28445359Y-11301088D01*
X28357918Y-11211297D01*
X28246080Y-11137427D01*
X28111329Y-11081090D01*
X27955145Y-11043899D01*
X27779010Y-11027465D01*
X27635200Y-11029703D01*
X27410469Y-11056473D01*
X27201905Y-11108938D01*
X27011933Y-11186092D01*
X26842976Y-11286931D01*
X26697457Y-11410448D01*
X26684130Y-11424174D01*
X26578176Y-11551455D01*
X26487537Y-11692633D01*
X26414547Y-11841691D01*
X26361543Y-11992614D01*
X26330859Y-12139386D01*
X26324831Y-12275993D01*
X26330995Y-12333856D01*
X26368955Y-12478763D01*
X26432949Y-12604101D01*
X26523815Y-12710692D01*
X26642392Y-12799358D01*
X26789516Y-12870919D01*
X26924000Y-12915218D01*
X27001231Y-12929966D01*
X27104146Y-12940240D01*
X27224872Y-12946119D01*
X27355535Y-12947684D01*
X27488259Y-12945013D01*
X27615171Y-12938186D01*
X27728397Y-12927284D01*
X27820061Y-12912384D01*
X27846867Y-12905894D01*
X27979027Y-12862740D01*
X28109290Y-12807612D01*
X28226432Y-12745723D01*
X28306298Y-12692465D01*
X28347007Y-12662822D01*
X28380726Y-12644954D01*
X28418335Y-12635889D01*
X28470714Y-12632655D01*
X28526635Y-12632267D01*
X28591070Y-12633852D01*
X28640142Y-12638077D01*
X28666011Y-12644146D01*
X28668134Y-12646623D01*
X28656006Y-12666259D01*
X28623760Y-12701459D01*
X28577599Y-12746476D01*
X28523726Y-12795565D01*
X28468344Y-12842978D01*
X28417657Y-12882971D01*
X28397200Y-12897583D01*
X28218302Y-13000680D01*
X28016444Y-13083098D01*
X27797005Y-13142698D01*
X27764065Y-13149315D01*
X27666519Y-13163544D01*
X27546266Y-13174261D01*
X27414193Y-13181106D01*
X27281189Y-13183717D01*
X27158141Y-13181733D01*
X27055938Y-13174794D01*
X27042533Y-13173235D01*
X26823296Y-13134592D01*
X26632082Y-13076931D01*
X26468890Y-13000253D01*
X26333719Y-12904557D01*
X26226568Y-12789840D01*
X26147435Y-12656103D01*
X26096319Y-12503343D01*
X26073219Y-12331561D01*
X26071753Y-12266823D01*
X26089293Y-12074209D01*
X26140257Y-11879062D01*
X26196234Y-11740332D01*
X26253472Y-11625304D01*
X26312719Y-11527405D01*
X26381898Y-11435178D01*
X26468933Y-11337161D01*
X26491101Y-11313852D01*
X26657455Y-11161709D01*
X26838984Y-11037185D01*
X27039410Y-10938121D01*
X27262452Y-10862359D01*
X27276115Y-10858647D01*
X27339072Y-10842580D01*
X27395098Y-10830885D01*
X27451704Y-10822847D01*
X27516401Y-10817752D01*
X27596698Y-10814887D01*
X27700108Y-10813538D01*
X27753733Y-10813245D01*
X27874780Y-10813381D01*
G36*
X31968993Y-13085234D02*
G01*
X31769245Y-13388688D01*
X31539927Y-13678309D01*
X31283039Y-13952516D01*
X31000583Y-14209730D01*
X30694559Y-14448373D01*
X30366970Y-14666864D01*
X30019815Y-14863625D01*
X29655097Y-15037077D01*
X29334451Y-15164394D01*
X29056452Y-15257781D01*
X28768499Y-15340668D01*
X28475712Y-15412195D01*
X28183209Y-15471501D01*
X27896112Y-15517722D01*
X27619537Y-15549998D01*
X27358606Y-15567468D01*
X27118437Y-15569269D01*
X26974800Y-15561539D01*
X26660659Y-15527447D01*
X26367713Y-15478025D01*
X26086047Y-15411325D01*
X25852261Y-15340964D01*
X25553873Y-15228085D01*
X25280615Y-15094378D01*
X25033071Y-14940306D01*
X24811824Y-14766334D01*
X24617457Y-14572924D01*
X24450556Y-14360541D01*
X24311702Y-14129649D01*
X24300311Y-14107403D01*
X24256062Y-14008669D01*
X24210283Y-13887443D01*
X24166491Y-13754719D01*
X24128198Y-13621495D01*
X24098920Y-13498767D01*
X24089017Y-13446316D01*
X24073930Y-13351788D01*
X24066113Y-13289041D01*
X24065980Y-13256687D01*
X24073947Y-13253341D01*
X24090429Y-13277617D01*
X24115844Y-13328129D01*
X24121115Y-13339295D01*
X24219189Y-13518871D01*
X24343637Y-13699772D01*
X24488135Y-13874515D01*
X24646356Y-14035619D01*
X24811972Y-14175600D01*
X24855075Y-14207336D01*
X25086269Y-14352077D01*
X25337662Y-14470793D01*
X25609605Y-14563569D01*
X25902452Y-14630487D01*
X26216554Y-14671634D01*
X26552264Y-14687092D01*
X26839507Y-14680877D01*
X27236973Y-14648420D01*
X27619787Y-14591469D01*
X27986515Y-14510699D01*
X28335720Y-14406786D01*
X28665968Y-14280405D01*
X28975823Y-14132231D01*
X29263850Y-13962938D01*
X29528613Y-13773203D01*
X29768678Y-13563700D01*
X29982608Y-13335104D01*
X30141939Y-13127567D01*
X30215734Y-13021734D01*
X32006762Y-13021734D01*
X31968993Y-13085234D01*
G37*
X31968993Y-13085234D02*
X31769245Y-13388688D01*
X31539927Y-13678309D01*
X31283039Y-13952516D01*
X31000583Y-14209730D01*
X30694559Y-14448373D01*
X30366970Y-14666864D01*
X30019815Y-14863625D01*
X29655097Y-15037077D01*
X29334451Y-15164394D01*
X29056452Y-15257781D01*
X28768499Y-15340668D01*
X28475712Y-15412195D01*
X28183209Y-15471501D01*
X27896112Y-15517722D01*
X27619537Y-15549998D01*
X27358606Y-15567468D01*
X27118437Y-15569269D01*
X26974800Y-15561539D01*
X26660659Y-15527447D01*
X26367713Y-15478025D01*
X26086047Y-15411325D01*
X25852261Y-15340964D01*
X25553873Y-15228085D01*
X25280615Y-15094378D01*
X25033071Y-14940306D01*
X24811824Y-14766334D01*
X24617457Y-14572924D01*
X24450556Y-14360541D01*
X24311702Y-14129649D01*
X24300311Y-14107403D01*
X24256062Y-14008669D01*
X24210283Y-13887443D01*
X24166491Y-13754719D01*
X24128198Y-13621495D01*
X24098920Y-13498767D01*
X24089017Y-13446316D01*
X24073930Y-13351788D01*
X24066113Y-13289041D01*
X24065980Y-13256687D01*
X24073947Y-13253341D01*
X24090429Y-13277617D01*
X24115844Y-13328129D01*
X24121115Y-13339295D01*
X24219189Y-13518871D01*
X24343637Y-13699772D01*
X24488135Y-13874515D01*
X24646356Y-14035619D01*
X24811972Y-14175600D01*
X24855075Y-14207336D01*
X25086269Y-14352077D01*
X25337662Y-14470793D01*
X25609605Y-14563569D01*
X25902452Y-14630487D01*
X26216554Y-14671634D01*
X26552264Y-14687092D01*
X26839507Y-14680877D01*
X27236973Y-14648420D01*
X27619787Y-14591469D01*
X27986515Y-14510699D01*
X28335720Y-14406786D01*
X28665968Y-14280405D01*
X28975823Y-14132231D01*
X29263850Y-13962938D01*
X29528613Y-13773203D01*
X29768678Y-13563700D01*
X29982608Y-13335104D01*
X30141939Y-13127567D01*
X30215734Y-13021734D01*
X32006762Y-13021734D01*
X31968993Y-13085234D01*
G36*
X15451958Y-26821897D02*
G01*
X15493880Y-26770381D01*
X15537176Y-26744757D01*
X15608693Y-26730015D01*
X15673258Y-26743279D01*
X15725631Y-26778964D01*
X15760576Y-26831490D01*
X15772854Y-26895273D01*
X15757227Y-26964732D01*
X15752622Y-26974380D01*
X15705662Y-27031746D01*
X15660152Y-27056711D01*
X15615716Y-27070177D01*
X15580441Y-27068253D01*
X15535709Y-27049757D01*
X15533478Y-27048664D01*
X15475526Y-27004588D01*
X15442685Y-26946861D01*
X15434861Y-26883344D01*
X15451958Y-26821897D01*
G37*
X15451958Y-26821897D02*
X15493880Y-26770381D01*
X15537176Y-26744757D01*
X15608693Y-26730015D01*
X15673258Y-26743279D01*
X15725631Y-26778964D01*
X15760576Y-26831490D01*
X15772854Y-26895273D01*
X15757227Y-26964732D01*
X15752622Y-26974380D01*
X15705662Y-27031746D01*
X15660152Y-27056711D01*
X15615716Y-27070177D01*
X15580441Y-27068253D01*
X15535709Y-27049757D01*
X15533478Y-27048664D01*
X15475526Y-27004588D01*
X15442685Y-26946861D01*
X15434861Y-26883344D01*
X15451958Y-26821897D01*
G36*
X15451958Y-30411764D02*
G01*
X15493880Y-30360248D01*
X15537176Y-30334624D01*
X15608693Y-30319882D01*
X15673258Y-30333145D01*
X15725631Y-30368831D01*
X15760576Y-30421357D01*
X15772854Y-30485140D01*
X15757227Y-30554598D01*
X15752622Y-30564247D01*
X15705662Y-30621612D01*
X15660152Y-30646578D01*
X15615716Y-30660043D01*
X15580441Y-30658120D01*
X15535709Y-30639623D01*
X15533478Y-30638531D01*
X15475526Y-30594455D01*
X15442685Y-30536728D01*
X15434861Y-30473210D01*
X15451958Y-30411764D01*
G37*
X15451958Y-30411764D02*
X15493880Y-30360248D01*
X15537176Y-30334624D01*
X15608693Y-30319882D01*
X15673258Y-30333145D01*
X15725631Y-30368831D01*
X15760576Y-30421357D01*
X15772854Y-30485140D01*
X15757227Y-30554598D01*
X15752622Y-30564247D01*
X15705662Y-30621612D01*
X15660152Y-30646578D01*
X15615716Y-30660043D01*
X15580441Y-30658120D01*
X15535709Y-30639623D01*
X15533478Y-30638531D01*
X15475526Y-30594455D01*
X15442685Y-30536728D01*
X15434861Y-30473210D01*
X15451958Y-30411764D01*
G36*
X16437314Y-32496991D02*
G01*
X16461783Y-32454997D01*
X16504552Y-32406061D01*
X16568143Y-32346389D01*
X16655082Y-32272189D01*
X16708860Y-32227827D01*
X16790902Y-32160535D01*
X16867241Y-32097798D01*
X16932697Y-32043884D01*
X16982086Y-32003061D01*
X17009533Y-31980185D01*
X17060333Y-31937294D01*
X16823266Y-31936754D01*
X16704853Y-31934713D01*
X16615341Y-31928170D01*
X16549892Y-31915580D01*
X16503670Y-31895398D01*
X16471837Y-31866079D01*
X16449557Y-31826076D01*
X16445609Y-31816094D01*
X16432198Y-31769400D01*
X16435336Y-31729917D01*
X16448813Y-31692718D01*
X16462236Y-31664239D01*
X16478634Y-31641206D01*
X16501593Y-31622928D01*
X16534702Y-31608716D01*
X16581549Y-31597881D01*
X16645721Y-31589733D01*
X16730807Y-31583582D01*
X16840393Y-31578740D01*
X16978069Y-31574516D01*
X17077266Y-31571951D01*
X17235543Y-31568311D01*
X17363551Y-31566491D01*
X17464867Y-31567065D01*
X17543066Y-31570609D01*
X17601723Y-31577699D01*
X17644416Y-31588910D01*
X17674718Y-31604816D01*
X17696205Y-31625994D01*
X17712455Y-31653018D01*
X17722653Y-31675784D01*
X17737935Y-31719284D01*
X17738873Y-31754477D01*
X17725367Y-31799385D01*
X17721917Y-31808523D01*
X17712460Y-31830055D01*
X17699218Y-31851973D01*
X17679502Y-31876723D01*
X17650624Y-31906752D01*
X17609896Y-31944506D01*
X17554628Y-31992431D01*
X17482133Y-32052974D01*
X17389721Y-32128582D01*
X17274704Y-32221699D01*
X17214236Y-32270466D01*
X17114139Y-32351134D01*
X17366636Y-32359600D01*
X17478833Y-32364334D01*
X17562325Y-32371006D01*
X17622273Y-32381225D01*
X17663838Y-32396601D01*
X17692180Y-32418744D01*
X17712460Y-32449264D01*
X17722166Y-32470486D01*
X17739309Y-32514502D01*
X17743378Y-32544710D01*
X17734185Y-32577930D01*
X17720621Y-32610001D01*
X17707201Y-32636716D01*
X17690169Y-32658344D01*
X17665946Y-32675537D01*
X17630952Y-32688945D01*
X17581610Y-32699219D01*
X17514340Y-32707010D01*
X17425564Y-32712969D01*
X17311703Y-32717746D01*
X17169178Y-32721992D01*
X17094200Y-32723916D01*
X16935947Y-32727560D01*
X16807960Y-32729388D01*
X16706661Y-32728822D01*
X16628472Y-32725280D01*
X16569815Y-32718184D01*
X16527113Y-32706953D01*
X16496786Y-32691007D01*
X16475257Y-32669767D01*
X16458949Y-32642652D01*
X16448468Y-32619257D01*
X16433180Y-32575327D01*
X16428621Y-32535836D01*
X16437314Y-32496991D01*
G37*
X16437314Y-32496991D02*
X16461783Y-32454997D01*
X16504552Y-32406061D01*
X16568143Y-32346389D01*
X16655082Y-32272189D01*
X16708860Y-32227827D01*
X16790902Y-32160535D01*
X16867241Y-32097798D01*
X16932697Y-32043884D01*
X16982086Y-32003061D01*
X17009533Y-31980185D01*
X17060333Y-31937294D01*
X16823266Y-31936754D01*
X16704853Y-31934713D01*
X16615341Y-31928170D01*
X16549892Y-31915580D01*
X16503670Y-31895398D01*
X16471837Y-31866079D01*
X16449557Y-31826076D01*
X16445609Y-31816094D01*
X16432198Y-31769400D01*
X16435336Y-31729917D01*
X16448813Y-31692718D01*
X16462236Y-31664239D01*
X16478634Y-31641206D01*
X16501593Y-31622928D01*
X16534702Y-31608716D01*
X16581549Y-31597881D01*
X16645721Y-31589733D01*
X16730807Y-31583582D01*
X16840393Y-31578740D01*
X16978069Y-31574516D01*
X17077266Y-31571951D01*
X17235543Y-31568311D01*
X17363551Y-31566491D01*
X17464867Y-31567065D01*
X17543066Y-31570609D01*
X17601723Y-31577699D01*
X17644416Y-31588910D01*
X17674718Y-31604816D01*
X17696205Y-31625994D01*
X17712455Y-31653018D01*
X17722653Y-31675784D01*
X17737935Y-31719284D01*
X17738873Y-31754477D01*
X17725367Y-31799385D01*
X17721917Y-31808523D01*
X17712460Y-31830055D01*
X17699218Y-31851973D01*
X17679502Y-31876723D01*
X17650624Y-31906752D01*
X17609896Y-31944506D01*
X17554628Y-31992431D01*
X17482133Y-32052974D01*
X17389721Y-32128582D01*
X17274704Y-32221699D01*
X17214236Y-32270466D01*
X17114139Y-32351134D01*
X17366636Y-32359600D01*
X17478833Y-32364334D01*
X17562325Y-32371006D01*
X17622273Y-32381225D01*
X17663838Y-32396601D01*
X17692180Y-32418744D01*
X17712460Y-32449264D01*
X17722166Y-32470486D01*
X17739309Y-32514502D01*
X17743378Y-32544710D01*
X17734185Y-32577930D01*
X17720621Y-32610001D01*
X17707201Y-32636716D01*
X17690169Y-32658344D01*
X17665946Y-32675537D01*
X17630952Y-32688945D01*
X17581610Y-32699219D01*
X17514340Y-32707010D01*
X17425564Y-32712969D01*
X17311703Y-32717746D01*
X17169178Y-32721992D01*
X17094200Y-32723916D01*
X16935947Y-32727560D01*
X16807960Y-32729388D01*
X16706661Y-32728822D01*
X16628472Y-32725280D01*
X16569815Y-32718184D01*
X16527113Y-32706953D01*
X16496786Y-32691007D01*
X16475257Y-32669767D01*
X16458949Y-32642652D01*
X16448468Y-32619257D01*
X16433180Y-32575327D01*
X16428621Y-32535836D01*
X16437314Y-32496991D01*
G36*
X16409899Y-33460267D02*
G01*
X16411809Y-33366409D01*
X16417003Y-33295182D01*
X16427100Y-33235391D01*
X16443719Y-33175841D01*
X16456439Y-33138534D01*
X16480259Y-33074279D01*
X16500647Y-33032905D01*
X16524910Y-33005172D01*
X16560353Y-32981841D01*
X16594666Y-32963726D01*
X16640136Y-32941698D01*
X16678936Y-32928095D01*
X16721165Y-32921303D01*
X16776920Y-32919703D01*
X16856299Y-32921679D01*
X16857133Y-32921708D01*
X16949532Y-32926860D01*
X17017391Y-32936009D01*
X17069950Y-32950748D01*
X17098770Y-32963324D01*
X17171074Y-32999152D01*
X17281583Y-32917576D01*
X17345944Y-32872596D01*
X17411607Y-32830784D01*
X17465125Y-32800670D01*
X17468422Y-32799049D01*
X17517265Y-32777575D01*
X17551948Y-32771250D01*
X17587807Y-32778585D01*
X17607343Y-32785543D01*
X17669055Y-32824525D01*
X17708091Y-32882219D01*
X17720258Y-32950261D01*
X17712212Y-32994766D01*
X17688938Y-33042272D01*
X17658657Y-33077977D01*
X17655832Y-33080084D01*
X17616760Y-33107700D01*
X17558926Y-33148893D01*
X17491039Y-33197431D01*
X17421803Y-33247080D01*
X17359927Y-33291607D01*
X17318966Y-33321248D01*
X17277029Y-33357514D01*
X17258551Y-33392672D01*
X17255466Y-33422167D01*
X17255066Y-33477201D01*
X17416477Y-33477201D01*
X17524767Y-33480765D01*
X17604806Y-33492644D01*
X17661572Y-33514615D01*
X17700041Y-33548458D01*
X17721342Y-33586114D01*
X17738949Y-33631107D01*
X17743396Y-33661639D01*
X17734598Y-33694490D01*
X17720621Y-33727601D01*
X17706711Y-33755621D01*
X17689495Y-33778186D01*
X17665409Y-33795882D01*
X17630891Y-33809297D01*
X17582378Y-33819018D01*
X17516307Y-33825631D01*
X17429116Y-33829723D01*
X17317242Y-33831880D01*
X17177122Y-33832690D01*
X17082043Y-33832774D01*
X16936733Y-33832575D01*
X16821261Y-33831849D01*
X16764000Y-33830914D01*
X16764000Y-33477201D01*
X16899466Y-33477201D01*
X16899466Y-33274000D01*
X16764000Y-33274000D01*
X16764000Y-33477201D01*
X16764000Y-33830914D01*
X16731601Y-33830384D01*
X16663727Y-33827963D01*
X16613612Y-33824372D01*
X16577230Y-33819395D01*
X16550553Y-33812819D01*
X16529557Y-33804427D01*
X16526933Y-33803141D01*
X16480593Y-33773318D01*
X16447586Y-33733784D01*
X16426044Y-33679073D01*
X16414103Y-33603717D01*
X16409895Y-33502250D01*
X16409899Y-33460267D01*
G37*
X16409899Y-33460267D02*
X16411809Y-33366409D01*
X16417003Y-33295182D01*
X16427100Y-33235391D01*
X16443719Y-33175841D01*
X16456439Y-33138534D01*
X16480259Y-33074279D01*
X16500647Y-33032905D01*
X16524910Y-33005172D01*
X16560353Y-32981841D01*
X16594666Y-32963726D01*
X16640136Y-32941698D01*
X16678936Y-32928095D01*
X16721165Y-32921303D01*
X16776920Y-32919703D01*
X16856299Y-32921679D01*
X16857133Y-32921708D01*
X16949532Y-32926860D01*
X17017391Y-32936009D01*
X17069950Y-32950748D01*
X17098770Y-32963324D01*
X17171074Y-32999152D01*
X17281583Y-32917576D01*
X17345944Y-32872596D01*
X17411607Y-32830784D01*
X17465125Y-32800670D01*
X17468422Y-32799049D01*
X17517265Y-32777575D01*
X17551948Y-32771250D01*
X17587807Y-32778585D01*
X17607343Y-32785543D01*
X17669055Y-32824525D01*
X17708091Y-32882219D01*
X17720258Y-32950261D01*
X17712212Y-32994766D01*
X17688938Y-33042272D01*
X17658657Y-33077977D01*
X17655832Y-33080084D01*
X17616760Y-33107700D01*
X17558926Y-33148893D01*
X17491039Y-33197431D01*
X17421803Y-33247080D01*
X17359927Y-33291607D01*
X17318966Y-33321248D01*
X17277029Y-33357514D01*
X17258551Y-33392672D01*
X17255466Y-33422167D01*
X17255066Y-33477201D01*
X17416477Y-33477201D01*
X17524767Y-33480765D01*
X17604806Y-33492644D01*
X17661572Y-33514615D01*
X17700041Y-33548458D01*
X17721342Y-33586114D01*
X17738949Y-33631107D01*
X17743396Y-33661639D01*
X17734598Y-33694490D01*
X17720621Y-33727601D01*
X17706711Y-33755621D01*
X17689495Y-33778186D01*
X17665409Y-33795882D01*
X17630891Y-33809297D01*
X17582378Y-33819018D01*
X17516307Y-33825631D01*
X17429116Y-33829723D01*
X17317242Y-33831880D01*
X17177122Y-33832690D01*
X17082043Y-33832774D01*
X16936733Y-33832575D01*
X16821261Y-33831849D01*
X16764000Y-33830914D01*
X16764000Y-33477201D01*
X16899466Y-33477201D01*
X16899466Y-33274000D01*
X16764000Y-33274000D01*
X16764000Y-33477201D01*
X16764000Y-33830914D01*
X16731601Y-33830384D01*
X16663727Y-33827963D01*
X16613612Y-33824372D01*
X16577230Y-33819395D01*
X16550553Y-33812819D01*
X16529557Y-33804427D01*
X16526933Y-33803141D01*
X16480593Y-33773318D01*
X16447586Y-33733784D01*
X16426044Y-33679073D01*
X16414103Y-33603717D01*
X16409895Y-33502250D01*
X16409899Y-33460267D01*
G36*
X8428614Y-28484906D02*
G01*
X8436663Y-28333699D01*
X8449241Y-28203021D01*
X8456310Y-28153739D01*
X8523781Y-27833914D01*
X8622547Y-27510357D01*
X8752869Y-27182575D01*
X8915007Y-26850075D01*
X9109221Y-26512367D01*
X9335774Y-26168956D01*
X9594924Y-25819351D01*
X9868452Y-25484667D01*
X10029420Y-25302448D01*
X10209807Y-25109608D01*
X10403335Y-24912251D01*
X10603724Y-24716481D01*
X10804695Y-24528400D01*
X10999968Y-24354112D01*
X11183264Y-24199718D01*
X11225399Y-24165806D01*
X11324018Y-24088863D01*
X11401792Y-24033170D01*
X11463073Y-23997352D01*
X11512216Y-23980033D01*
X11553573Y-23979836D01*
X11591499Y-23995386D01*
X11630347Y-24025307D01*
X11640460Y-24034633D01*
X11687319Y-24096830D01*
X11702034Y-24162391D01*
X11684125Y-24227373D01*
X11667066Y-24253154D01*
X11643657Y-24285726D01*
X11633234Y-24305790D01*
X11633199Y-24306286D01*
X11647332Y-24302322D01*
X11686404Y-24284896D01*
X11745426Y-24256394D01*
X11819410Y-24219204D01*
X11874499Y-24190805D01*
X11973641Y-24140619D01*
X12088170Y-24084947D01*
X12211913Y-24026576D01*
X12338696Y-23968294D01*
X12462347Y-23912890D01*
X12576692Y-23863151D01*
X12675559Y-23821865D01*
X12752774Y-23791819D01*
X12776200Y-23783578D01*
X12823193Y-23767445D01*
X12893551Y-23742811D01*
X12978780Y-23712669D01*
X13070388Y-23680013D01*
X13097933Y-23670143D01*
X13291757Y-23603063D01*
X13459181Y-23550668D01*
X13603874Y-23512058D01*
X13729501Y-23486331D01*
X13839732Y-23472587D01*
X13914460Y-23469600D01*
X14016926Y-23473010D01*
X14091720Y-23485304D01*
X14144537Y-23509583D01*
X14181074Y-23548949D01*
X14207027Y-23606502D01*
X14215155Y-23633268D01*
X14214757Y-23671150D01*
X14201629Y-23731369D01*
X14177951Y-23805857D01*
X14148114Y-23881461D01*
X14157170Y-23881950D01*
X14190164Y-23865473D01*
X14243192Y-23834343D01*
X14312350Y-23790877D01*
X14393734Y-23737388D01*
X14413375Y-23724179D01*
X14522371Y-23651805D01*
X14606730Y-23599011D01*
X14668809Y-23564921D01*
X14710964Y-23548665D01*
X14735553Y-23549369D01*
X14744933Y-23566160D01*
X14741460Y-23598165D01*
X14740256Y-23603129D01*
X14728827Y-23650688D01*
X14712394Y-23722050D01*
X14693038Y-23807900D01*
X14672843Y-23898924D01*
X14653890Y-23985806D01*
X14638261Y-24059233D01*
X14637628Y-24062267D01*
X14618026Y-24208603D01*
X14617003Y-24360833D01*
X14633500Y-24510150D01*
X14666458Y-24647749D01*
X14714821Y-24764824D01*
X14724037Y-24781267D01*
X14764270Y-24837481D01*
X14821113Y-24901322D01*
X14886349Y-24965012D01*
X14951760Y-25020769D01*
X15009127Y-25060814D01*
X15031249Y-25072110D01*
X15083296Y-25086462D01*
X15146948Y-25094546D01*
X15167681Y-25095200D01*
X15248850Y-25095200D01*
X16685018Y-26382134D01*
X16903617Y-26577758D01*
X17108231Y-26760346D01*
X17297810Y-26928978D01*
X17471305Y-27082734D01*
X17627667Y-27220697D01*
X17765846Y-27341947D01*
X17884793Y-27445564D01*
X17983459Y-27530630D01*
X18060795Y-27596226D01*
X18115750Y-27641433D01*
X18147276Y-27665331D01*
X18154388Y-27669067D01*
X18192913Y-27678151D01*
X18229329Y-27696415D01*
X18271066Y-27723762D01*
X18271066Y-29663305D01*
X18229329Y-29690653D01*
X18187300Y-29710964D01*
X18154388Y-29718000D01*
X18136815Y-29729225D01*
X18095208Y-29762287D01*
X18030618Y-29816267D01*
X17944094Y-29890245D01*
X17836685Y-29983304D01*
X17709441Y-30094523D01*
X17563410Y-30222984D01*
X17399642Y-30367768D01*
X17219187Y-30527955D01*
X17023093Y-30702627D01*
X16812411Y-30890865D01*
X16685018Y-31004934D01*
X15248850Y-32291867D01*
X15167681Y-32291867D01*
X15095100Y-32297645D01*
X15078186Y-32302898D01*
X15078186Y-31953201D01*
X15092947Y-31947071D01*
X15121167Y-31928019D01*
X15163999Y-31895051D01*
X15222598Y-31847172D01*
X15298115Y-31783389D01*
X15391705Y-31702707D01*
X15504520Y-31604133D01*
X15637713Y-31486672D01*
X15792439Y-31349330D01*
X15969849Y-31191113D01*
X16170404Y-31011648D01*
X16330895Y-30867664D01*
X16483918Y-30730033D01*
X16627619Y-30600444D01*
X16760143Y-30480585D01*
X16879637Y-30372144D01*
X16984247Y-30276809D01*
X17072118Y-30196268D01*
X17141396Y-30132209D01*
X17190227Y-30086321D01*
X17216757Y-30060292D01*
X17221200Y-30054914D01*
X17207213Y-30042132D01*
X17191566Y-30039933D01*
X17169421Y-30042030D01*
X17116960Y-30047975D01*
X17037463Y-30057370D01*
X16934214Y-30069816D01*
X16810495Y-30084914D01*
X16669589Y-30102264D01*
X16514776Y-30121467D01*
X16349340Y-30142126D01*
X16298419Y-30148511D01*
X15836884Y-30206437D01*
X15836884Y-29863120D01*
X15858066Y-29861081D01*
X15883695Y-29857555D01*
X15939841Y-29850255D01*
X16023410Y-29839571D01*
X16131309Y-29825894D01*
X16260446Y-29809613D01*
X16407727Y-29791118D01*
X16570059Y-29770799D01*
X16744350Y-29749046D01*
X16922789Y-29726836D01*
X17104200Y-29704186D01*
X17275439Y-29682614D01*
X17433584Y-29662501D01*
X17575709Y-29644228D01*
X17698891Y-29628175D01*
X17800206Y-29614724D01*
X17876730Y-29604256D01*
X17925541Y-29597153D01*
X17943713Y-29593794D01*
X17943740Y-29593771D01*
X17946679Y-29575668D01*
X17951052Y-29529224D01*
X17956511Y-29459917D01*
X17962711Y-29373224D01*
X17969303Y-29274624D01*
X17975940Y-29169596D01*
X17982276Y-29063617D01*
X17987963Y-28962166D01*
X17992654Y-28870720D01*
X17996001Y-28794759D01*
X17997575Y-28744334D01*
X17997133Y-28698767D01*
X17994804Y-28625506D01*
X17990854Y-28530651D01*
X17985553Y-28420307D01*
X17979167Y-28300574D01*
X17974582Y-28220926D01*
X17967478Y-28105082D01*
X17960645Y-28000884D01*
X17954421Y-27912957D01*
X17949145Y-27845925D01*
X17945159Y-27804412D01*
X17943137Y-27792693D01*
X17925642Y-27789513D01*
X17877455Y-27782574D01*
X17801498Y-27772258D01*
X17700692Y-27758942D01*
X17577958Y-27743007D01*
X17436219Y-27724831D01*
X17278395Y-27704794D01*
X17196627Y-27694504D01*
X17196627Y-27343972D01*
X17211296Y-27343045D01*
X17218536Y-27340565D01*
X17220965Y-27336795D01*
X17221200Y-27332145D01*
X17208913Y-27318512D01*
X17173457Y-27284262D01*
X17116935Y-27231319D01*
X17041452Y-27161608D01*
X16949114Y-27077055D01*
X16842024Y-26979585D01*
X16722286Y-26871122D01*
X16592007Y-26753591D01*
X16453290Y-26628917D01*
X16404507Y-26585180D01*
X16262537Y-26458226D01*
X16127356Y-26337839D01*
X16001174Y-26225952D01*
X15886201Y-26124504D01*
X15784646Y-26035428D01*
X15698717Y-25960660D01*
X15630624Y-25902137D01*
X15582577Y-25861793D01*
X15556784Y-25841565D01*
X15553607Y-25839663D01*
X15529870Y-25824041D01*
X15486219Y-25789677D01*
X15427678Y-25740740D01*
X15359275Y-25681401D01*
X15310944Y-25638362D01*
X15225496Y-25563296D01*
X15157008Y-25506803D01*
X15106772Y-25469569D01*
X15076086Y-25452283D01*
X15066245Y-25455630D01*
X15078545Y-25480299D01*
X15114281Y-25526976D01*
X15124936Y-25539700D01*
X15256214Y-25695547D01*
X15375165Y-25838558D01*
X15480334Y-25966903D01*
X15570264Y-26078753D01*
X15643500Y-26172277D01*
X15698586Y-26245645D01*
X15734065Y-26297029D01*
X15747962Y-26322755D01*
X15757764Y-26373025D01*
X15748139Y-26422163D01*
X15740976Y-26440558D01*
X15723452Y-26474405D01*
X15699714Y-26500729D01*
X15665371Y-26520733D01*
X15616033Y-26535617D01*
X15547309Y-26546587D01*
X15454807Y-26554843D01*
X15334137Y-26561588D01*
X15292129Y-26563482D01*
X14984293Y-26576867D01*
X15160944Y-26797001D01*
X15224065Y-26875412D01*
X15283532Y-26948834D01*
X15334489Y-27011305D01*
X15372084Y-27056867D01*
X15386249Y-27073656D01*
X15434905Y-27130178D01*
X16298419Y-27238557D01*
X16497736Y-27263567D01*
X16666066Y-27284633D01*
X16806027Y-27302021D01*
X16920237Y-27315996D01*
X17011313Y-27326824D01*
X17081872Y-27334770D01*
X17134532Y-27340100D01*
X17171911Y-27343079D01*
X17196627Y-27343972D01*
X17196627Y-27694504D01*
X17107409Y-27683275D01*
X16926180Y-27660653D01*
X16922789Y-27660232D01*
X16739820Y-27637457D01*
X16565794Y-27615735D01*
X16403804Y-27595458D01*
X16256944Y-27577014D01*
X16128306Y-27560794D01*
X16020983Y-27547187D01*
X15938070Y-27536585D01*
X15882658Y-27529375D01*
X15858066Y-27525987D01*
X15836618Y-27523967D01*
X15830283Y-27529548D01*
X15841566Y-27546533D01*
X15872975Y-27578727D01*
X15925799Y-27628794D01*
X15988672Y-27685797D01*
X16067226Y-27754272D01*
X16150502Y-27824781D01*
X16213643Y-27876703D01*
X16382954Y-28013596D01*
X16394425Y-27933403D01*
X16415058Y-27849839D01*
X16450952Y-27793111D01*
X16505415Y-27758367D01*
X16516414Y-27754411D01*
X16568084Y-27743903D01*
X16616787Y-27753154D01*
X16634184Y-27759933D01*
X16675719Y-27781555D01*
X16704316Y-27809750D01*
X16722031Y-27850538D01*
X16730921Y-27909943D01*
X16733043Y-27993987D01*
X16732211Y-28047006D01*
X16731986Y-28144787D01*
X16737197Y-28212875D01*
X16748690Y-28255134D01*
X16767312Y-28275425D01*
X16783006Y-28278667D01*
X16789098Y-28262901D01*
X16793980Y-28220257D01*
X16797072Y-28157720D01*
X16797866Y-28100323D01*
X16800707Y-27990304D01*
X16810405Y-27908633D01*
X16828726Y-27850175D01*
X16857435Y-27809798D01*
X16898296Y-27782366D01*
X16908776Y-27777690D01*
X16960892Y-27761812D01*
X17007660Y-27765230D01*
X17028518Y-27771344D01*
X17066187Y-27786021D01*
X17094442Y-27804898D01*
X17114544Y-27832620D01*
X17127755Y-27873830D01*
X17135337Y-27933174D01*
X17138551Y-28015294D01*
X17138660Y-28124836D01*
X17138145Y-28174892D01*
X17134564Y-28475534D01*
X17178678Y-28495634D01*
X17213034Y-28510196D01*
X17230463Y-28515734D01*
X17232978Y-28499716D01*
X17235146Y-28455326D01*
X17236822Y-28388055D01*
X17237860Y-28303398D01*
X17238133Y-28227323D01*
X17239168Y-28100510D01*
X17243047Y-28002988D01*
X17250932Y-27930220D01*
X17263987Y-27877672D01*
X17283373Y-27840810D01*
X17310253Y-27815098D01*
X17345790Y-27796002D01*
X17349042Y-27794624D01*
X17401159Y-27778745D01*
X17447927Y-27782163D01*
X17468785Y-27788278D01*
X17493150Y-27796303D01*
X17513601Y-27804818D01*
X17530480Y-27816657D01*
X17544130Y-27834655D01*
X17554893Y-27861646D01*
X17563112Y-27900464D01*
X17569128Y-27953943D01*
X17573285Y-28024918D01*
X17575924Y-28116222D01*
X17577389Y-28230690D01*
X17578021Y-28371157D01*
X17578163Y-28540456D01*
X17578154Y-28693534D01*
X17578156Y-28887164D01*
X17577934Y-29049762D01*
X17577145Y-29184162D01*
X17575447Y-29293198D01*
X17572498Y-29379705D01*
X17567955Y-29446517D01*
X17561475Y-29496467D01*
X17552717Y-29532391D01*
X17541337Y-29557122D01*
X17526994Y-29573495D01*
X17509345Y-29584344D01*
X17488047Y-29592504D01*
X17468785Y-29598790D01*
X17418376Y-29609235D01*
X17370840Y-29600819D01*
X17349042Y-29592444D01*
X17312763Y-29573681D01*
X17285233Y-29548666D01*
X17265290Y-29512862D01*
X17251771Y-29461737D01*
X17243515Y-29390754D01*
X17239358Y-29295379D01*
X17238138Y-29171077D01*
X17238133Y-29159744D01*
X17237707Y-29065182D01*
X17236526Y-28983639D01*
X17234737Y-28920607D01*
X17232486Y-28881580D01*
X17230463Y-28871334D01*
X17211123Y-28877614D01*
X17178678Y-28891434D01*
X17134564Y-28911534D01*
X17138145Y-29212176D01*
X17138891Y-29333418D01*
X17137012Y-29425465D01*
X17131247Y-29492961D01*
X17120335Y-29540550D01*
X17103014Y-29572877D01*
X17078023Y-29594584D01*
X17044099Y-29610317D01*
X17028518Y-29615723D01*
X16978109Y-29626168D01*
X16930574Y-29617752D01*
X16908776Y-29609377D01*
X16865088Y-29584047D01*
X16833930Y-29546868D01*
X16813537Y-29492707D01*
X16802144Y-29416429D01*
X16797985Y-29312901D01*
X16797866Y-29286744D01*
X16796552Y-29213637D01*
X16792999Y-29155039D01*
X16787789Y-29117932D01*
X16783006Y-29108400D01*
X16759481Y-29116886D01*
X16743616Y-29144917D01*
X16734564Y-29196356D01*
X16731480Y-29275064D01*
X16732211Y-29340061D01*
X16732697Y-29438650D01*
X16727441Y-29509595D01*
X16714386Y-29558919D01*
X16691475Y-29592644D01*
X16656652Y-29616792D01*
X16634184Y-29627135D01*
X16581962Y-29642514D01*
X16533557Y-29637816D01*
X16516414Y-29632657D01*
X16458570Y-29601074D01*
X16419840Y-29548306D01*
X16396917Y-29469504D01*
X16394425Y-29453665D01*
X16382954Y-29373472D01*
X16213643Y-29510365D01*
X16134543Y-29575638D01*
X16051325Y-29646490D01*
X15974949Y-29713483D01*
X15925799Y-29758274D01*
X15872199Y-29809095D01*
X15841184Y-29840973D01*
X15830248Y-29857714D01*
X15836884Y-29863120D01*
X15836884Y-30206437D01*
X15434905Y-30256890D01*
X15386249Y-30313412D01*
X15359045Y-30345912D01*
X15315555Y-30398912D01*
X15260633Y-30466451D01*
X15199132Y-30542571D01*
X15160944Y-30590067D01*
X14984293Y-30810200D01*
X15292129Y-30823585D01*
X15422032Y-30830113D01*
X15522460Y-30837794D01*
X15597802Y-30847830D01*
X15652452Y-30861424D01*
X15690799Y-30879778D01*
X15717234Y-30904095D01*
X15736149Y-30935577D01*
X15740976Y-30946510D01*
X15756900Y-30999464D01*
X15753083Y-31046997D01*
X15747878Y-31064570D01*
X15732635Y-31091296D01*
X15698287Y-31140227D01*
X15647634Y-31207736D01*
X15583476Y-31290197D01*
X15508610Y-31383984D01*
X15425837Y-31485472D01*
X15382959Y-31537251D01*
X15286663Y-31653296D01*
X15210497Y-31746046D01*
X15152636Y-31817992D01*
X15111254Y-31871626D01*
X15084527Y-31909439D01*
X15070629Y-31933921D01*
X15067734Y-31947564D01*
X15074019Y-31952858D01*
X15078186Y-31953201D01*
X15078186Y-32302898D01*
X15030440Y-32317728D01*
X14965140Y-32356238D01*
X14890639Y-32417299D01*
X14872107Y-32434222D01*
X14784011Y-32525286D01*
X14720430Y-32616207D01*
X14674230Y-32718903D01*
X14646656Y-32810979D01*
X14625129Y-32911490D01*
X14613722Y-33010139D01*
X14612916Y-33112604D01*
X14623191Y-33224561D01*
X14645026Y-33351687D01*
X14678902Y-33499660D01*
X14717115Y-33644591D01*
X14740284Y-33730834D01*
X14759311Y-33805492D01*
X14772732Y-33862503D01*
X14779080Y-33895806D01*
X14779214Y-33901520D01*
X14764561Y-33896201D01*
X14726178Y-33873957D01*
X14668049Y-33837329D01*
X14594155Y-33788858D01*
X14508481Y-33731085D01*
X14461066Y-33698535D01*
X14370718Y-33636484D01*
X14290099Y-33581763D01*
X14223220Y-33537040D01*
X14174089Y-33504983D01*
X14146714Y-33488259D01*
X14142428Y-33486488D01*
X14146560Y-33502516D01*
X14162731Y-33539821D01*
X14182801Y-33581040D01*
X14220294Y-33679491D01*
X14228345Y-33767334D01*
X14207328Y-33840779D01*
X14177656Y-33881540D01*
X14136019Y-33909205D01*
X14076437Y-33925802D01*
X13992930Y-33933360D01*
X13931393Y-33934400D01*
X13849732Y-33932328D01*
X13810500Y-33928428D01*
X13810500Y-33591544D01*
X13808680Y-33574162D01*
X13799412Y-33532899D01*
X13784655Y-33476408D01*
X13783400Y-33471865D01*
X13763306Y-33383858D01*
X13744800Y-33275062D01*
X13729602Y-33158555D01*
X13719434Y-33047416D01*
X13716000Y-32959781D01*
X13721830Y-32901058D01*
X13736417Y-32848987D01*
X13742620Y-32836347D01*
X13767019Y-32808939D01*
X13812955Y-32768789D01*
X13873546Y-32721580D01*
X13933120Y-32678989D01*
X14097000Y-32566578D01*
X14065846Y-32958332D01*
X14166089Y-33051721D01*
X14266333Y-33145109D01*
X14277109Y-32993109D01*
X14285630Y-32907296D01*
X14298389Y-32818301D01*
X14312896Y-32743020D01*
X14315663Y-32731587D01*
X14338244Y-32658435D01*
X14370450Y-32573940D01*
X14407648Y-32488619D01*
X14445204Y-32412992D01*
X14478487Y-32357577D01*
X14483225Y-32351134D01*
X14492229Y-32337995D01*
X14492722Y-32328670D01*
X14480142Y-32322367D01*
X14449928Y-32318295D01*
X14425291Y-32317058D01*
X14425291Y-31970134D01*
X14627773Y-31970134D01*
X14647273Y-31911047D01*
X14663286Y-31882051D01*
X14698080Y-31831536D01*
X14748447Y-31763735D01*
X14811178Y-31682887D01*
X14883065Y-31593226D01*
X14944625Y-31518463D01*
X15019522Y-31428272D01*
X15086470Y-31347090D01*
X15142643Y-31278388D01*
X15185215Y-31225639D01*
X15211362Y-31192315D01*
X15218538Y-31181814D01*
X15201158Y-31179899D01*
X15156110Y-31176794D01*
X15089555Y-31172877D01*
X15007657Y-31168525D01*
X14975916Y-31166940D01*
X14737233Y-31155219D01*
X14600913Y-31363710D01*
X14539301Y-31458585D01*
X14475558Y-31557871D01*
X14413047Y-31656221D01*
X14386987Y-31697644D01*
X14386987Y-30394781D01*
X14379618Y-30292901D01*
X14382763Y-30197402D01*
X14402391Y-30082822D01*
X14435775Y-29957970D01*
X14480185Y-29831658D01*
X14532896Y-29712694D01*
X14590989Y-29610181D01*
X14693070Y-29460408D01*
X14783929Y-29340676D01*
X14865072Y-29249643D01*
X14938005Y-29185966D01*
X15004235Y-29148302D01*
X15065266Y-29135309D01*
X15115051Y-29142944D01*
X15162643Y-29167446D01*
X15198577Y-29200642D01*
X15200034Y-29202771D01*
X15226603Y-29243320D01*
X15330668Y-29167233D01*
X15419286Y-29105004D01*
X15527610Y-29032860D01*
X15646089Y-28956835D01*
X15765172Y-28882961D01*
X15875310Y-28817271D01*
X15961795Y-28768566D01*
X16099390Y-28694423D01*
X15923450Y-28596773D01*
X15830709Y-28543652D01*
X15727012Y-28481676D01*
X15628434Y-28420545D01*
X15582655Y-28391082D01*
X15504921Y-28339499D01*
X15426374Y-28286298D01*
X15357896Y-28238900D01*
X15322174Y-28213436D01*
X15226549Y-28143830D01*
X15200007Y-28184338D01*
X15152103Y-28228990D01*
X15088339Y-28250512D01*
X15020173Y-28245792D01*
X15000152Y-28238608D01*
X14950588Y-28212310D01*
X14902808Y-28175772D01*
X14850956Y-28123517D01*
X14789180Y-28050067D01*
X14762462Y-28016200D01*
X14738540Y-27983846D01*
X14738540Y-26234341D01*
X14890271Y-26223571D01*
X14972452Y-26218507D01*
X15054519Y-26214722D01*
X15121466Y-26212880D01*
X15133687Y-26212801D01*
X15225372Y-26212801D01*
X15189421Y-26162311D01*
X15162243Y-26130229D01*
X15141227Y-26115723D01*
X15138611Y-26115744D01*
X15122278Y-26104789D01*
X15089058Y-26071382D01*
X15042604Y-26020002D01*
X14986569Y-25955123D01*
X14924606Y-25881223D01*
X14860369Y-25802778D01*
X14797511Y-25724264D01*
X14739684Y-25650156D01*
X14690543Y-25584933D01*
X14653740Y-25533069D01*
X14632928Y-25499041D01*
X14630339Y-25492952D01*
X14610840Y-25433867D01*
X14425886Y-25433867D01*
X14351322Y-25434731D01*
X14291142Y-25437074D01*
X14252205Y-25440520D01*
X14240933Y-25443992D01*
X14249843Y-25463391D01*
X14275075Y-25507490D01*
X14314382Y-25572663D01*
X14365515Y-25655289D01*
X14426229Y-25751743D01*
X14494274Y-25858403D01*
X14567403Y-25971645D01*
X14585333Y-25999204D01*
X14738540Y-26234341D01*
X14738540Y-27983846D01*
X14649660Y-27863637D01*
X14562856Y-27728361D01*
X14500552Y-27607885D01*
X14470824Y-27531353D01*
X14432552Y-27411422D01*
X14405498Y-27316569D01*
X14388331Y-27240414D01*
X14379720Y-27176580D01*
X14378334Y-27118687D01*
X14379618Y-27094166D01*
X14386987Y-26992287D01*
X14336151Y-27031491D01*
X14291588Y-27083837D01*
X14254890Y-27161455D01*
X14227387Y-27256388D01*
X14210407Y-27360678D01*
X14205279Y-27466368D01*
X14213330Y-27565498D01*
X14233777Y-27644742D01*
X14249510Y-27692873D01*
X14250678Y-27728552D01*
X14237409Y-27769843D01*
X14234713Y-27776369D01*
X14222709Y-27802366D01*
X14207984Y-27823390D01*
X14185579Y-27842271D01*
X14150537Y-27861839D01*
X14097901Y-27884925D01*
X14022713Y-27914357D01*
X13935459Y-27947193D01*
X13755834Y-28026224D01*
X13593423Y-28121426D01*
X13455339Y-28228481D01*
X13424954Y-28257082D01*
X13328641Y-28351721D01*
X13382620Y-28381377D01*
X13486629Y-28435876D01*
X13569493Y-28472862D01*
X13637399Y-28494821D01*
X13686122Y-28503343D01*
X13770338Y-28521684D01*
X13828470Y-28558450D01*
X13864464Y-28616406D01*
X13869729Y-28632027D01*
X13880854Y-28693156D01*
X13871716Y-28750860D01*
X13868918Y-28759696D01*
X13835592Y-28821118D01*
X13781139Y-28860923D01*
X13701406Y-28881929D01*
X13686122Y-28883724D01*
X13625851Y-28895243D01*
X13555679Y-28919757D01*
X13469420Y-28959751D01*
X13382620Y-29005691D01*
X13328641Y-29035347D01*
X13424954Y-29129986D01*
X13555716Y-29239367D01*
X13712614Y-29337993D01*
X13888536Y-29421546D01*
X13935459Y-29439875D01*
X14034207Y-29477099D01*
X14106106Y-29505522D01*
X14156112Y-29527976D01*
X14189185Y-29547289D01*
X14210280Y-29566293D01*
X14224357Y-29587816D01*
X14234713Y-29610699D01*
X14249796Y-29653983D01*
X14250458Y-29689375D01*
X14236572Y-29734937D01*
X14233777Y-29742326D01*
X14212293Y-29828237D01*
X14205224Y-29928097D01*
X14211240Y-30033950D01*
X14229012Y-30137837D01*
X14257213Y-30231801D01*
X14294514Y-30307884D01*
X14336151Y-30355577D01*
X14386987Y-30394781D01*
X14386987Y-31697644D01*
X14355129Y-31748285D01*
X14305167Y-31828716D01*
X14266522Y-31892165D01*
X14242557Y-31933284D01*
X14240683Y-31936734D01*
X14234633Y-31950817D01*
X14237788Y-31960257D01*
X14255274Y-31965981D01*
X14292216Y-31968917D01*
X14353738Y-31969991D01*
X14425291Y-31970134D01*
X14425291Y-32317058D01*
X14397517Y-32315662D01*
X14318349Y-32313676D01*
X14260922Y-32312558D01*
X14155280Y-32311723D01*
X14076096Y-32313615D01*
X14025820Y-32318116D01*
X14006923Y-32325031D01*
X13992692Y-32350139D01*
X13971448Y-32378949D01*
X13957633Y-32394362D01*
X13945388Y-32398569D01*
X13930694Y-32387579D01*
X13909530Y-32357402D01*
X13877878Y-32304047D01*
X13853882Y-32262222D01*
X13782562Y-32127269D01*
X13730827Y-32003212D01*
X13693808Y-31877516D01*
X13680349Y-31815533D01*
X13669834Y-31767245D01*
X13660252Y-31741017D01*
X13649946Y-31738908D01*
X13637254Y-31762981D01*
X13620519Y-31815295D01*
X13598082Y-31897911D01*
X13590433Y-31927210D01*
X13558431Y-32064306D01*
X13535857Y-32196816D01*
X13522113Y-32332668D01*
X13516599Y-32479789D01*
X13518719Y-32646106D01*
X13525171Y-32792119D01*
X13530476Y-32895355D01*
X13534570Y-32986490D01*
X13537269Y-33060336D01*
X13538387Y-33111706D01*
X13537741Y-33135411D01*
X13537415Y-33136349D01*
X13520530Y-33132417D01*
X13476710Y-33117894D01*
X13410592Y-33094442D01*
X13326816Y-33063717D01*
X13230019Y-33027380D01*
X13187607Y-33011229D01*
X13169265Y-33003966D01*
X13169265Y-32643492D01*
X13178687Y-32412646D01*
X13206864Y-32113431D01*
X13266942Y-31824437D01*
X13359624Y-31542811D01*
X13437080Y-31363631D01*
X13501049Y-31233346D01*
X13556500Y-31132672D01*
X13605846Y-31059165D01*
X13651502Y-31010383D01*
X13695884Y-30983882D01*
X13741406Y-30977220D01*
X13790482Y-30987954D01*
X13803447Y-30993010D01*
X13848413Y-31016746D01*
X13881334Y-31042516D01*
X13882893Y-31044307D01*
X13892773Y-31069605D01*
X13905790Y-31122397D01*
X13920701Y-31196596D01*
X13936262Y-31286114D01*
X13948308Y-31364430D01*
X13965330Y-31479262D01*
X13978827Y-31563738D01*
X13989541Y-31621098D01*
X13998212Y-31654583D01*
X14005581Y-31667434D01*
X14012388Y-31662892D01*
X14015144Y-31656867D01*
X14026459Y-31636649D01*
X14052286Y-31594270D01*
X14088746Y-31536006D01*
X14130371Y-31470600D01*
X14172755Y-31403853D01*
X14207570Y-31347786D01*
X14231180Y-31308343D01*
X14239945Y-31291519D01*
X14229519Y-31274559D01*
X14202705Y-31245914D01*
X14198330Y-31241747D01*
X14167322Y-31204723D01*
X14125059Y-31143247D01*
X14074956Y-31063392D01*
X14020430Y-30971232D01*
X13964896Y-30872837D01*
X13911770Y-30774282D01*
X13864467Y-30681638D01*
X13826403Y-30600979D01*
X13800993Y-30538377D01*
X13798446Y-30530801D01*
X13780716Y-30480289D01*
X13765999Y-30461225D01*
X13747460Y-30472650D01*
X13718264Y-30513610D01*
X13714638Y-30519077D01*
X13613727Y-30642584D01*
X13488768Y-30748618D01*
X13347534Y-30831305D01*
X13250739Y-30869732D01*
X13193077Y-30892056D01*
X13139675Y-30918281D01*
X13133402Y-30921966D01*
X13096259Y-30940207D01*
X13071429Y-30944673D01*
X13069804Y-30943981D01*
X13047967Y-30944364D01*
X13003220Y-30953248D01*
X12944890Y-30968749D01*
X12939782Y-30970258D01*
X12866488Y-30988368D01*
X12839700Y-30992086D01*
X12839700Y-30496775D01*
X12920662Y-30495958D01*
X12977432Y-30492452D01*
X13019674Y-30484407D01*
X13057051Y-30469977D01*
X13099227Y-30447312D01*
X13099677Y-30447054D01*
X13187634Y-30383713D01*
X13277771Y-30296076D01*
X13362877Y-30192382D01*
X13435742Y-30080873D01*
X13460429Y-30034758D01*
X13499288Y-29953015D01*
X13521515Y-29895495D01*
X13528270Y-29857608D01*
X13520715Y-29834762D01*
X13512728Y-29828023D01*
X13490203Y-29830344D01*
X13444505Y-29846202D01*
X13382019Y-29872599D01*
X13309131Y-29906540D01*
X13232225Y-29945029D01*
X13157686Y-29985070D01*
X13091899Y-30023667D01*
X13089466Y-30025201D01*
X13089466Y-27634883D01*
X13136045Y-27624145D01*
X13197236Y-27595773D01*
X13263167Y-27555529D01*
X13323966Y-27509177D01*
X13354471Y-27480199D01*
X13401431Y-27422144D01*
X13441643Y-27357805D01*
X13469373Y-27297596D01*
X13478933Y-27254201D01*
X13471234Y-27218299D01*
X13451947Y-27169641D01*
X13443371Y-27152350D01*
X13407279Y-27094668D01*
X13363362Y-27038022D01*
X13354471Y-27028202D01*
X13301708Y-26980955D01*
X13237756Y-26936280D01*
X13172486Y-26899941D01*
X13115771Y-26877700D01*
X13089466Y-26873518D01*
X13042888Y-26884256D01*
X12981697Y-26912628D01*
X12915765Y-26952872D01*
X12854967Y-26999224D01*
X12824461Y-27028202D01*
X12777502Y-27086257D01*
X12737289Y-27150596D01*
X12709559Y-27210805D01*
X12700000Y-27254201D01*
X12710839Y-27301096D01*
X12739532Y-27361877D01*
X12780343Y-27426127D01*
X12824461Y-27480199D01*
X12877224Y-27527446D01*
X12941177Y-27572121D01*
X13006446Y-27608460D01*
X13063161Y-27630701D01*
X13089466Y-27634883D01*
X13089466Y-30025201D01*
X13080601Y-30030792D01*
X13005970Y-30084092D01*
X12928706Y-30148825D01*
X12853507Y-30219930D01*
X12785073Y-30292346D01*
X12728103Y-30361009D01*
X12687294Y-30420860D01*
X12667347Y-30466836D01*
X12666133Y-30477250D01*
X12679644Y-30487188D01*
X12721603Y-30493518D01*
X12794146Y-30496479D01*
X12839700Y-30496775D01*
X12839700Y-30992086D01*
X12787725Y-30999300D01*
X12692462Y-31004283D01*
X12628734Y-31004934D01*
X12545499Y-31006479D01*
X12470002Y-31010666D01*
X12411500Y-31016819D01*
X12382658Y-31022874D01*
X12315888Y-31029712D01*
X12252195Y-31007885D01*
X12201245Y-30961946D01*
X12182344Y-30928501D01*
X12169023Y-30890195D01*
X12165548Y-30854067D01*
X12171868Y-30807183D01*
X12181677Y-30762792D01*
X12197507Y-30684963D01*
X12211023Y-30600515D01*
X12216379Y-30556201D01*
X12226462Y-30484555D01*
X12241282Y-30412736D01*
X12250741Y-30378401D01*
X12270308Y-30315878D01*
X12292477Y-30243182D01*
X12302672Y-30209067D01*
X12329120Y-30137912D01*
X12364498Y-30064466D01*
X12381380Y-30035561D01*
X12442217Y-29956085D01*
X12525651Y-29869639D01*
X12623527Y-29783439D01*
X12727691Y-29704703D01*
X12823534Y-29644235D01*
X12913261Y-29589761D01*
X12973571Y-29542572D01*
X13007292Y-29499593D01*
X13017248Y-29457747D01*
X13014282Y-29436618D01*
X12998524Y-29406171D01*
X12965099Y-29359503D01*
X12919977Y-29304646D01*
X12897362Y-29279335D01*
X12842442Y-29214643D01*
X12792193Y-29143694D01*
X12741366Y-29058289D01*
X12684713Y-28950227D01*
X12677649Y-28936100D01*
X12638035Y-28855592D01*
X12604479Y-28785513D01*
X12579639Y-28731567D01*
X12566175Y-28699459D01*
X12564533Y-28693534D01*
X12571733Y-28673670D01*
X12591567Y-28629269D01*
X12621383Y-28566013D01*
X12658529Y-28489586D01*
X12678343Y-28449574D01*
X12736925Y-28336705D01*
X12788638Y-28248429D01*
X12838099Y-28177478D01*
X12889798Y-28116720D01*
X12987444Y-28012337D01*
X12879465Y-28003669D01*
X12750339Y-27978284D01*
X12628160Y-27925962D01*
X12520527Y-27851131D01*
X12435042Y-27758218D01*
X12420139Y-27736071D01*
X12395735Y-27688519D01*
X12368667Y-27622295D01*
X12344697Y-27551526D01*
X12344185Y-27549815D01*
X12326798Y-27483669D01*
X12307001Y-27395839D01*
X12286089Y-27293558D01*
X12265355Y-27184059D01*
X12246094Y-27074578D01*
X12229598Y-26972347D01*
X12217162Y-26884602D01*
X12210079Y-26818575D01*
X12208933Y-26793545D01*
X12204911Y-26735775D01*
X12194476Y-26671813D01*
X12180076Y-26612154D01*
X12164160Y-26567295D01*
X12151911Y-26549065D01*
X12149250Y-26528690D01*
X12160767Y-26490271D01*
X12168563Y-26472865D01*
X12213093Y-26411303D01*
X12271976Y-26371071D01*
X12336874Y-26356456D01*
X12381110Y-26363654D01*
X12417331Y-26370451D01*
X12479420Y-26376122D01*
X12559385Y-26380159D01*
X12649231Y-26382054D01*
X12671490Y-26382134D01*
X12776429Y-26383073D01*
X12858784Y-26386744D01*
X12929807Y-26394424D01*
X13000748Y-26407392D01*
X13082859Y-26426926D01*
X13096530Y-26430423D01*
X13181900Y-26452266D01*
X13264582Y-26473209D01*
X13333550Y-26490469D01*
X13368866Y-26499136D01*
X13461409Y-26531588D01*
X13555877Y-26582007D01*
X13643362Y-26644118D01*
X13714958Y-26711648D01*
X13759864Y-26774561D01*
X13780431Y-26807503D01*
X13796340Y-26821728D01*
X13796868Y-26821742D01*
X13808835Y-26807157D01*
X13831391Y-26768322D01*
X13860928Y-26711736D01*
X13883796Y-26665108D01*
X13968424Y-26495400D01*
X14045213Y-26356121D01*
X14113742Y-26247986D01*
X14173590Y-26171710D01*
X14176725Y-26168343D01*
X14226554Y-26115419D01*
X14106743Y-25923407D01*
X14063016Y-25854467D01*
X14026431Y-25798954D01*
X14000205Y-25761585D01*
X13987557Y-25747076D01*
X13986887Y-25747731D01*
X13984509Y-25769234D01*
X13977961Y-25818269D01*
X13968075Y-25888873D01*
X13955680Y-25975082D01*
X13946120Y-26040403D01*
X13928740Y-26153350D01*
X13913120Y-26237788D01*
X13897052Y-26298843D01*
X13878326Y-26341638D01*
X13854734Y-26371299D01*
X13824067Y-26392950D01*
X13786514Y-26410705D01*
X13736267Y-26425559D01*
X13690137Y-26423564D01*
X13645717Y-26402286D01*
X13600599Y-26359291D01*
X13552376Y-26292146D01*
X13498640Y-26198418D01*
X13436983Y-26075672D01*
X13420146Y-26040370D01*
X13306048Y-25761983D01*
X13225009Y-25478071D01*
X13176324Y-25185779D01*
X13161754Y-24991355D01*
X13152331Y-24760509D01*
X12907573Y-24860372D01*
X12558836Y-25008128D01*
X12232855Y-25157380D01*
X11931673Y-25307053D01*
X11657329Y-25456072D01*
X11411863Y-25603365D01*
X11197316Y-25747857D01*
X11136352Y-25792705D01*
X11039808Y-25870533D01*
X10942273Y-25958301D01*
X10849877Y-26049740D01*
X10768749Y-26138579D01*
X10705020Y-26218550D01*
X10674543Y-26265025D01*
X10636255Y-26331896D01*
X10596067Y-26402498D01*
X10575841Y-26438228D01*
X10529869Y-26506178D01*
X10478180Y-26550455D01*
X10412701Y-26575254D01*
X10325362Y-26584769D01*
X10292818Y-26585271D01*
X10227544Y-26584794D01*
X10189551Y-26581908D01*
X10172255Y-26574552D01*
X10169071Y-26560660D01*
X10171432Y-26547234D01*
X10168476Y-26539030D01*
X10151346Y-26557033D01*
X10122257Y-26597812D01*
X10083422Y-26657936D01*
X10037057Y-26733974D01*
X9985376Y-26822496D01*
X9930593Y-26920070D01*
X9929453Y-26922141D01*
X9875257Y-27025212D01*
X9813468Y-27150202D01*
X9748426Y-27287671D01*
X9684473Y-27428177D01*
X9625949Y-27562281D01*
X9577195Y-27680542D01*
X9558752Y-27728334D01*
X9534018Y-27794350D01*
X9503345Y-27876144D01*
X9472705Y-27957789D01*
X9467824Y-27970789D01*
X9444032Y-28037395D01*
X9425934Y-28094255D01*
X9416338Y-28132284D01*
X9415507Y-28140122D01*
X9428873Y-28160633D01*
X9464974Y-28196111D01*
X9518516Y-28242512D01*
X9584208Y-28295793D01*
X9656757Y-28351907D01*
X9730871Y-28406812D01*
X9801258Y-28456463D01*
X9862624Y-28496814D01*
X9909679Y-28523822D01*
X9927766Y-28531598D01*
X9991763Y-28567305D01*
X10032036Y-28619622D01*
X10048585Y-28680991D01*
X10041411Y-28743854D01*
X10010514Y-28800652D01*
X9955892Y-28843827D01*
X9927766Y-28855470D01*
X9891008Y-28873266D01*
X9836982Y-28906663D01*
X9770980Y-28951619D01*
X9698296Y-29004088D01*
X9624220Y-29060025D01*
X9554046Y-29115387D01*
X9493065Y-29166129D01*
X9446571Y-29208207D01*
X9419855Y-29237575D01*
X9415507Y-29246945D01*
X9420969Y-29275025D01*
X9436042Y-29325527D01*
X9457919Y-29389366D01*
X9467824Y-29416279D01*
X9497848Y-29496273D01*
X9528944Y-29579185D01*
X9555140Y-29649087D01*
X9558752Y-29658734D01*
X9601360Y-29766189D01*
X9655795Y-29893962D01*
X9717717Y-30032611D01*
X9782784Y-30172696D01*
X9846656Y-30304777D01*
X9904991Y-30419412D01*
X9929453Y-30464927D01*
X9984276Y-30562651D01*
X10036043Y-30651392D01*
X10082540Y-30727721D01*
X10121551Y-30788205D01*
X10150862Y-30829415D01*
X10168260Y-30847920D01*
X10171529Y-30840288D01*
X10171432Y-30839834D01*
X10168997Y-30820620D01*
X10176418Y-30809275D01*
X10200279Y-30803735D01*
X10247165Y-30801937D01*
X10292818Y-30801797D01*
X10388514Y-30807450D01*
X10459863Y-30827096D01*
X10514938Y-30864930D01*
X10561810Y-30925144D01*
X10575841Y-30948839D01*
X10611469Y-31011700D01*
X10652284Y-31083303D01*
X10674543Y-31122172D01*
X10720495Y-31189122D01*
X10787783Y-31269928D01*
X10870403Y-31358458D01*
X10962353Y-31448577D01*
X11057630Y-31534152D01*
X11150232Y-31609051D01*
X11153285Y-31611354D01*
X11358208Y-31755058D01*
X11594709Y-31901869D01*
X11860756Y-32050717D01*
X12154319Y-32200533D01*
X12473368Y-32350249D01*
X12815870Y-32498794D01*
X12924506Y-32543629D01*
X13169265Y-32643492D01*
X13169265Y-33003966D01*
X12798822Y-32857264D01*
X12434419Y-32702111D01*
X12095578Y-32546412D01*
X11783483Y-32390806D01*
X11499316Y-32235931D01*
X11244259Y-32082429D01*
X11019495Y-31930938D01*
X10826205Y-31782097D01*
X10689131Y-31659685D01*
X10566330Y-31541010D01*
X10419186Y-31701280D01*
X10308308Y-31585940D01*
X10145587Y-31404629D01*
X9992351Y-31208206D01*
X9845566Y-30992161D01*
X9702194Y-30751986D01*
X9559198Y-30483174D01*
X9540600Y-30446134D01*
X9432338Y-30219873D01*
X9327289Y-29982585D01*
X9229191Y-29743466D01*
X9141779Y-29511709D01*
X9068791Y-29296512D01*
X9053657Y-29247765D01*
X9011070Y-29107730D01*
X9268035Y-28908038D01*
X9347856Y-28845271D01*
X9417576Y-28789041D01*
X9473074Y-28742787D01*
X9510229Y-28709950D01*
X9524918Y-28693971D01*
X9525000Y-28693534D01*
X9512233Y-28679012D01*
X9476680Y-28647364D01*
X9422463Y-28602032D01*
X9353702Y-28546455D01*
X9274520Y-28484074D01*
X9268035Y-28479030D01*
X9011070Y-28279337D01*
X9053657Y-28139302D01*
X9122577Y-27929517D01*
X9206828Y-27700939D01*
X9302673Y-27462762D01*
X9406376Y-27224184D01*
X9514202Y-26994398D01*
X9540600Y-26940934D01*
X9677730Y-26678831D01*
X9814222Y-26444710D01*
X9953841Y-26232974D01*
X10100349Y-26038025D01*
X10257510Y-25854267D01*
X10307660Y-25800100D01*
X10417300Y-25683734D01*
X10566330Y-25846058D01*
X10689131Y-25727382D01*
X10855090Y-25581261D01*
X11053517Y-25431952D01*
X11283228Y-25280094D01*
X11543042Y-25126328D01*
X11831776Y-24971293D01*
X12148248Y-24815629D01*
X12491275Y-24659974D01*
X12859676Y-24504969D01*
X13187607Y-24375838D01*
X13288404Y-24337678D01*
X13378085Y-24304449D01*
X13452011Y-24277812D01*
X13505542Y-24259424D01*
X13534042Y-24250945D01*
X13537415Y-24250719D01*
X13538406Y-24268758D01*
X13537599Y-24315417D01*
X13535178Y-24385510D01*
X13531327Y-24473848D01*
X13526231Y-24575243D01*
X13525171Y-24594949D01*
X13517585Y-24781386D01*
X13517169Y-24942535D01*
X13524522Y-25086330D01*
X13540241Y-25220706D01*
X13564927Y-25353595D01*
X13590452Y-25460021D01*
X13612322Y-25542923D01*
X13627747Y-25596968D01*
X13638347Y-25626189D01*
X13645744Y-25634621D01*
X13651557Y-25626299D01*
X13654043Y-25618324D01*
X13661395Y-25591707D01*
X13675102Y-25541885D01*
X13692564Y-25478315D01*
X13697792Y-25459267D01*
X13717470Y-25400810D01*
X13747242Y-25328219D01*
X13783623Y-25248411D01*
X13823126Y-25168307D01*
X13862266Y-25094824D01*
X13897558Y-25034882D01*
X13925516Y-24995399D01*
X13936894Y-24984664D01*
X13955098Y-24990855D01*
X13978647Y-25019237D01*
X13982857Y-25026263D01*
X14012333Y-25078053D01*
X14243129Y-25078160D01*
X14473926Y-25078267D01*
X14399572Y-24930100D01*
X14337534Y-24790681D01*
X14295423Y-24655082D01*
X14269510Y-24509421D01*
X14260176Y-24411289D01*
X14249400Y-24259685D01*
X14065838Y-24428639D01*
X14081419Y-24627870D01*
X14086981Y-24706134D01*
X14090543Y-24771090D01*
X14091800Y-24815878D01*
X14090509Y-24833585D01*
X14080066Y-24830582D01*
X14080066Y-24824267D01*
X14088533Y-24815800D01*
X14080066Y-24807334D01*
X14071600Y-24815800D01*
X14080066Y-24824267D01*
X14080066Y-24830582D01*
X14073390Y-24828661D01*
X14036051Y-24806964D01*
X13984641Y-24772975D01*
X13925308Y-24731174D01*
X13864198Y-24686043D01*
X13807460Y-24642064D01*
X13761241Y-24603717D01*
X13731689Y-24575484D01*
X13725687Y-24567654D01*
X13709109Y-24522475D01*
X13699801Y-24463752D01*
X13699066Y-24444220D01*
X13702961Y-24349975D01*
X13713498Y-24238111D01*
X13728956Y-24121704D01*
X13747613Y-24013834D01*
X13766466Y-23932136D01*
X13781552Y-23874862D01*
X13791293Y-23832178D01*
X13793730Y-23812734D01*
X13793567Y-23812457D01*
X13774964Y-23814166D01*
X13729765Y-23825147D01*
X13663418Y-23843715D01*
X13581373Y-23868181D01*
X13489078Y-23896860D01*
X13391982Y-23928066D01*
X13295532Y-23960112D01*
X13205179Y-23991312D01*
X13142428Y-24013981D01*
X12883409Y-24113888D01*
X12629269Y-24219509D01*
X12384026Y-24328854D01*
X12151694Y-24439936D01*
X11936290Y-24550766D01*
X11741828Y-24659357D01*
X11572326Y-24763719D01*
X11435477Y-24859090D01*
X11383536Y-24904532D01*
X11323596Y-24966484D01*
X11266632Y-25033404D01*
X11253370Y-25050582D01*
X11175071Y-25141914D01*
X11102350Y-25200083D01*
X11034701Y-25225240D01*
X10971616Y-25217539D01*
X10912589Y-25177131D01*
X10895244Y-25158235D01*
X10865250Y-25114288D01*
X10856579Y-25070490D01*
X10859049Y-25036713D01*
X10867386Y-24983729D01*
X10877236Y-24940357D01*
X10879131Y-24934334D01*
X10872158Y-24934477D01*
X10845181Y-24956307D01*
X10801256Y-24996706D01*
X10743437Y-25052555D01*
X10674780Y-25120736D01*
X10598338Y-25198131D01*
X10517168Y-25281623D01*
X10434323Y-25368092D01*
X10352859Y-25454421D01*
X10275831Y-25537492D01*
X10206292Y-25614187D01*
X10147711Y-25680907D01*
X9865205Y-26025083D01*
X9615217Y-26361747D01*
X9397389Y-26691535D01*
X9211366Y-27015080D01*
X9056792Y-27333015D01*
X8933311Y-27645974D01*
X8840567Y-27954590D01*
X8818820Y-28045814D01*
X8807171Y-28100314D01*
X8798094Y-28150901D01*
X8791274Y-28202848D01*
X8786393Y-28261424D01*
X8783135Y-28331901D01*
X8781185Y-28419550D01*
X8780224Y-28529642D01*
X8779937Y-28667448D01*
X8779933Y-28693534D01*
X8780138Y-28836482D01*
X8780964Y-28950836D01*
X8782727Y-29041866D01*
X8785745Y-29114844D01*
X8790332Y-29175041D01*
X8796807Y-29227728D01*
X8805485Y-29278176D01*
X8816682Y-29331655D01*
X8818820Y-29341253D01*
X8902281Y-29648121D01*
X9016242Y-29959087D01*
X9161072Y-30274813D01*
X9337145Y-30595959D01*
X9544830Y-30923187D01*
X9784499Y-31257155D01*
X10056523Y-31598526D01*
X10147711Y-31706228D01*
X10206010Y-31772606D01*
X10275180Y-31848837D01*
X10352182Y-31931823D01*
X10433978Y-32018465D01*
X10517531Y-32105663D01*
X10599804Y-32190320D01*
X10677758Y-32269335D01*
X10748355Y-32339610D01*
X10808559Y-32398047D01*
X10855330Y-32441546D01*
X10885633Y-32467008D01*
X10896428Y-32471335D01*
X10896078Y-32469667D01*
X10886398Y-32430845D01*
X10877415Y-32378227D01*
X10875983Y-32367288D01*
X10874877Y-32314246D01*
X10891594Y-32272800D01*
X10912178Y-32245766D01*
X10971063Y-32195366D01*
X11034380Y-32178313D01*
X11101562Y-32194457D01*
X11172041Y-32243648D01*
X11245250Y-32325738D01*
X11252309Y-32335219D01*
X11300027Y-32396297D01*
X11349989Y-32454048D01*
X11391823Y-32496521D01*
X11393861Y-32498333D01*
X11489674Y-32573711D01*
X11614181Y-32657430D01*
X11763769Y-32747665D01*
X11934827Y-32842592D01*
X12123743Y-32940387D01*
X12326906Y-33039226D01*
X12540702Y-33137284D01*
X12761521Y-33232738D01*
X12985751Y-33323763D01*
X13159362Y-33390020D01*
X13241175Y-33419389D01*
X13333336Y-33450920D01*
X13430394Y-33482926D01*
X13526903Y-33513721D01*
X13617412Y-33541619D01*
X13696473Y-33564933D01*
X13758638Y-33581977D01*
X13798457Y-33591065D01*
X13810500Y-33591544D01*
X13810500Y-33928428D01*
X13774978Y-33924895D01*
X13695491Y-33910274D01*
X13599629Y-33886640D01*
X13562253Y-33876507D01*
X13341088Y-33810116D01*
X13099361Y-33727679D01*
X12844507Y-33632201D01*
X12583965Y-33526685D01*
X12325171Y-33414138D01*
X12075562Y-33297562D01*
X11857566Y-33187839D01*
X11779535Y-33147607D01*
X11713303Y-33114688D01*
X11664028Y-33091548D01*
X11636871Y-33080654D01*
X11633200Y-33080582D01*
X11642655Y-33099708D01*
X11665562Y-33131991D01*
X11667066Y-33133913D01*
X11698610Y-33197502D01*
X11697331Y-33263301D01*
X11663710Y-33327368D01*
X11640460Y-33352434D01*
X11600727Y-33385653D01*
X11562977Y-33404837D01*
X11522859Y-33408610D01*
X11476017Y-33395595D01*
X11418099Y-33364418D01*
X11344752Y-33313702D01*
X11251620Y-33242071D01*
X11225399Y-33221262D01*
X11042332Y-33069578D01*
X10845982Y-32896363D01*
X10642634Y-32707730D01*
X10438574Y-32509788D01*
X10240087Y-32308648D01*
X10053457Y-32110421D01*
X9884972Y-31921218D01*
X9868826Y-31902401D01*
X9577140Y-31544921D01*
X9318505Y-31193564D01*
X9092731Y-30847970D01*
X8899626Y-30507780D01*
X8739002Y-30172636D01*
X8610668Y-29842177D01*
X8514433Y-29516044D01*
X8456310Y-29233328D01*
X8441712Y-29114709D01*
X8431643Y-28971541D01*
X8426104Y-28812842D01*
X8425094Y-28647625D01*
X8428614Y-28484906D01*
G37*
X8428614Y-28484906D02*
X8436663Y-28333699D01*
X8449241Y-28203021D01*
X8456310Y-28153739D01*
X8523781Y-27833914D01*
X8622547Y-27510357D01*
X8752869Y-27182575D01*
X8915007Y-26850075D01*
X9109221Y-26512367D01*
X9335774Y-26168956D01*
X9594924Y-25819351D01*
X9868452Y-25484667D01*
X10029420Y-25302448D01*
X10209807Y-25109608D01*
X10403335Y-24912251D01*
X10603724Y-24716481D01*
X10804695Y-24528400D01*
X10999968Y-24354112D01*
X11183264Y-24199718D01*
X11225399Y-24165806D01*
X11324018Y-24088863D01*
X11401792Y-24033170D01*
X11463073Y-23997352D01*
X11512216Y-23980033D01*
X11553573Y-23979836D01*
X11591499Y-23995386D01*
X11630347Y-24025307D01*
X11640460Y-24034633D01*
X11687319Y-24096830D01*
X11702034Y-24162391D01*
X11684125Y-24227373D01*
X11667066Y-24253154D01*
X11643657Y-24285726D01*
X11633234Y-24305790D01*
X11633199Y-24306286D01*
X11647332Y-24302322D01*
X11686404Y-24284896D01*
X11745426Y-24256394D01*
X11819410Y-24219204D01*
X11874499Y-24190805D01*
X11973641Y-24140619D01*
X12088170Y-24084947D01*
X12211913Y-24026576D01*
X12338696Y-23968294D01*
X12462347Y-23912890D01*
X12576692Y-23863151D01*
X12675559Y-23821865D01*
X12752774Y-23791819D01*
X12776200Y-23783578D01*
X12823193Y-23767445D01*
X12893551Y-23742811D01*
X12978780Y-23712669D01*
X13070388Y-23680013D01*
X13097933Y-23670143D01*
X13291757Y-23603063D01*
X13459181Y-23550668D01*
X13603874Y-23512058D01*
X13729501Y-23486331D01*
X13839732Y-23472587D01*
X13914460Y-23469600D01*
X14016926Y-23473010D01*
X14091720Y-23485304D01*
X14144537Y-23509583D01*
X14181074Y-23548949D01*
X14207027Y-23606502D01*
X14215155Y-23633268D01*
X14214757Y-23671150D01*
X14201629Y-23731369D01*
X14177951Y-23805857D01*
X14148114Y-23881461D01*
X14157170Y-23881950D01*
X14190164Y-23865473D01*
X14243192Y-23834343D01*
X14312350Y-23790877D01*
X14393734Y-23737388D01*
X14413375Y-23724179D01*
X14522371Y-23651805D01*
X14606730Y-23599011D01*
X14668809Y-23564921D01*
X14710964Y-23548665D01*
X14735553Y-23549369D01*
X14744933Y-23566160D01*
X14741460Y-23598165D01*
X14740256Y-23603129D01*
X14728827Y-23650688D01*
X14712394Y-23722050D01*
X14693038Y-23807900D01*
X14672843Y-23898924D01*
X14653890Y-23985806D01*
X14638261Y-24059233D01*
X14637628Y-24062267D01*
X14618026Y-24208603D01*
X14617003Y-24360833D01*
X14633500Y-24510150D01*
X14666458Y-24647749D01*
X14714821Y-24764824D01*
X14724037Y-24781267D01*
X14764270Y-24837481D01*
X14821113Y-24901322D01*
X14886349Y-24965012D01*
X14951760Y-25020769D01*
X15009127Y-25060814D01*
X15031249Y-25072110D01*
X15083296Y-25086462D01*
X15146948Y-25094546D01*
X15167681Y-25095200D01*
X15248850Y-25095200D01*
X16685018Y-26382134D01*
X16903617Y-26577758D01*
X17108231Y-26760346D01*
X17297810Y-26928978D01*
X17471305Y-27082734D01*
X17627667Y-27220697D01*
X17765846Y-27341947D01*
X17884793Y-27445564D01*
X17983459Y-27530630D01*
X18060795Y-27596226D01*
X18115750Y-27641433D01*
X18147276Y-27665331D01*
X18154388Y-27669067D01*
X18192913Y-27678151D01*
X18229329Y-27696415D01*
X18271066Y-27723762D01*
X18271066Y-29663305D01*
X18229329Y-29690653D01*
X18187300Y-29710964D01*
X18154388Y-29718000D01*
X18136815Y-29729225D01*
X18095208Y-29762287D01*
X18030618Y-29816267D01*
X17944094Y-29890245D01*
X17836685Y-29983304D01*
X17709441Y-30094523D01*
X17563410Y-30222984D01*
X17399642Y-30367768D01*
X17219187Y-30527955D01*
X17023093Y-30702627D01*
X16812411Y-30890865D01*
X16685018Y-31004934D01*
X15248850Y-32291867D01*
X15167681Y-32291867D01*
X15095100Y-32297645D01*
X15078186Y-32302898D01*
X15078186Y-31953201D01*
X15092947Y-31947071D01*
X15121167Y-31928019D01*
X15163999Y-31895051D01*
X15222598Y-31847172D01*
X15298115Y-31783389D01*
X15391705Y-31702707D01*
X15504520Y-31604133D01*
X15637713Y-31486672D01*
X15792439Y-31349330D01*
X15969849Y-31191113D01*
X16170404Y-31011648D01*
X16330895Y-30867664D01*
X16483918Y-30730033D01*
X16627619Y-30600444D01*
X16760143Y-30480585D01*
X16879637Y-30372144D01*
X16984247Y-30276809D01*
X17072118Y-30196268D01*
X17141396Y-30132209D01*
X17190227Y-30086321D01*
X17216757Y-30060292D01*
X17221200Y-30054914D01*
X17207213Y-30042132D01*
X17191566Y-30039933D01*
X17169421Y-30042030D01*
X17116960Y-30047975D01*
X17037463Y-30057370D01*
X16934214Y-30069816D01*
X16810495Y-30084914D01*
X16669589Y-30102264D01*
X16514776Y-30121467D01*
X16349340Y-30142126D01*
X16298419Y-30148511D01*
X15836884Y-30206437D01*
X15836884Y-29863120D01*
X15858066Y-29861081D01*
X15883695Y-29857555D01*
X15939841Y-29850255D01*
X16023410Y-29839571D01*
X16131309Y-29825894D01*
X16260446Y-29809613D01*
X16407727Y-29791118D01*
X16570059Y-29770799D01*
X16744350Y-29749046D01*
X16922789Y-29726836D01*
X17104200Y-29704186D01*
X17275439Y-29682614D01*
X17433584Y-29662501D01*
X17575709Y-29644228D01*
X17698891Y-29628175D01*
X17800206Y-29614724D01*
X17876730Y-29604256D01*
X17925541Y-29597153D01*
X17943713Y-29593794D01*
X17943740Y-29593771D01*
X17946679Y-29575668D01*
X17951052Y-29529224D01*
X17956511Y-29459917D01*
X17962711Y-29373224D01*
X17969303Y-29274624D01*
X17975940Y-29169596D01*
X17982276Y-29063617D01*
X17987963Y-28962166D01*
X17992654Y-28870720D01*
X17996001Y-28794759D01*
X17997575Y-28744334D01*
X17997133Y-28698767D01*
X17994804Y-28625506D01*
X17990854Y-28530651D01*
X17985553Y-28420307D01*
X17979167Y-28300574D01*
X17974582Y-28220926D01*
X17967478Y-28105082D01*
X17960645Y-28000884D01*
X17954421Y-27912957D01*
X17949145Y-27845925D01*
X17945159Y-27804412D01*
X17943137Y-27792693D01*
X17925642Y-27789513D01*
X17877455Y-27782574D01*
X17801498Y-27772258D01*
X17700692Y-27758942D01*
X17577958Y-27743007D01*
X17436219Y-27724831D01*
X17278395Y-27704794D01*
X17196627Y-27694504D01*
X17196627Y-27343972D01*
X17211296Y-27343045D01*
X17218536Y-27340565D01*
X17220965Y-27336795D01*
X17221200Y-27332145D01*
X17208913Y-27318512D01*
X17173457Y-27284262D01*
X17116935Y-27231319D01*
X17041452Y-27161608D01*
X16949114Y-27077055D01*
X16842024Y-26979585D01*
X16722286Y-26871122D01*
X16592007Y-26753591D01*
X16453290Y-26628917D01*
X16404507Y-26585180D01*
X16262537Y-26458226D01*
X16127356Y-26337839D01*
X16001174Y-26225952D01*
X15886201Y-26124504D01*
X15784646Y-26035428D01*
X15698717Y-25960660D01*
X15630624Y-25902137D01*
X15582577Y-25861793D01*
X15556784Y-25841565D01*
X15553607Y-25839663D01*
X15529870Y-25824041D01*
X15486219Y-25789677D01*
X15427678Y-25740740D01*
X15359275Y-25681401D01*
X15310944Y-25638362D01*
X15225496Y-25563296D01*
X15157008Y-25506803D01*
X15106772Y-25469569D01*
X15076086Y-25452283D01*
X15066245Y-25455630D01*
X15078545Y-25480299D01*
X15114281Y-25526976D01*
X15124936Y-25539700D01*
X15256214Y-25695547D01*
X15375165Y-25838558D01*
X15480334Y-25966903D01*
X15570264Y-26078753D01*
X15643500Y-26172277D01*
X15698586Y-26245645D01*
X15734065Y-26297029D01*
X15747962Y-26322755D01*
X15757764Y-26373025D01*
X15748139Y-26422163D01*
X15740976Y-26440558D01*
X15723452Y-26474405D01*
X15699714Y-26500729D01*
X15665371Y-26520733D01*
X15616033Y-26535617D01*
X15547309Y-26546587D01*
X15454807Y-26554843D01*
X15334137Y-26561588D01*
X15292129Y-26563482D01*
X14984293Y-26576867D01*
X15160944Y-26797001D01*
X15224065Y-26875412D01*
X15283532Y-26948834D01*
X15334489Y-27011305D01*
X15372084Y-27056867D01*
X15386249Y-27073656D01*
X15434905Y-27130178D01*
X16298419Y-27238557D01*
X16497736Y-27263567D01*
X16666066Y-27284633D01*
X16806027Y-27302021D01*
X16920237Y-27315996D01*
X17011313Y-27326824D01*
X17081872Y-27334770D01*
X17134532Y-27340100D01*
X17171911Y-27343079D01*
X17196627Y-27343972D01*
X17196627Y-27694504D01*
X17107409Y-27683275D01*
X16926180Y-27660653D01*
X16922789Y-27660232D01*
X16739820Y-27637457D01*
X16565794Y-27615735D01*
X16403804Y-27595458D01*
X16256944Y-27577014D01*
X16128306Y-27560794D01*
X16020983Y-27547187D01*
X15938070Y-27536585D01*
X15882658Y-27529375D01*
X15858066Y-27525987D01*
X15836618Y-27523967D01*
X15830283Y-27529548D01*
X15841566Y-27546533D01*
X15872975Y-27578727D01*
X15925799Y-27628794D01*
X15988672Y-27685797D01*
X16067226Y-27754272D01*
X16150502Y-27824781D01*
X16213643Y-27876703D01*
X16382954Y-28013596D01*
X16394425Y-27933403D01*
X16415058Y-27849839D01*
X16450952Y-27793111D01*
X16505415Y-27758367D01*
X16516414Y-27754411D01*
X16568084Y-27743903D01*
X16616787Y-27753154D01*
X16634184Y-27759933D01*
X16675719Y-27781555D01*
X16704316Y-27809750D01*
X16722031Y-27850538D01*
X16730921Y-27909943D01*
X16733043Y-27993987D01*
X16732211Y-28047006D01*
X16731986Y-28144787D01*
X16737197Y-28212875D01*
X16748690Y-28255134D01*
X16767312Y-28275425D01*
X16783006Y-28278667D01*
X16789098Y-28262901D01*
X16793980Y-28220257D01*
X16797072Y-28157720D01*
X16797866Y-28100323D01*
X16800707Y-27990304D01*
X16810405Y-27908633D01*
X16828726Y-27850175D01*
X16857435Y-27809798D01*
X16898296Y-27782366D01*
X16908776Y-27777690D01*
X16960892Y-27761812D01*
X17007660Y-27765230D01*
X17028518Y-27771344D01*
X17066187Y-27786021D01*
X17094442Y-27804898D01*
X17114544Y-27832620D01*
X17127755Y-27873830D01*
X17135337Y-27933174D01*
X17138551Y-28015294D01*
X17138660Y-28124836D01*
X17138145Y-28174892D01*
X17134564Y-28475534D01*
X17178678Y-28495634D01*
X17213034Y-28510196D01*
X17230463Y-28515734D01*
X17232978Y-28499716D01*
X17235146Y-28455326D01*
X17236822Y-28388055D01*
X17237860Y-28303398D01*
X17238133Y-28227323D01*
X17239168Y-28100510D01*
X17243047Y-28002988D01*
X17250932Y-27930220D01*
X17263987Y-27877672D01*
X17283373Y-27840810D01*
X17310253Y-27815098D01*
X17345790Y-27796002D01*
X17349042Y-27794624D01*
X17401159Y-27778745D01*
X17447927Y-27782163D01*
X17468785Y-27788278D01*
X17493150Y-27796303D01*
X17513601Y-27804818D01*
X17530480Y-27816657D01*
X17544130Y-27834655D01*
X17554893Y-27861646D01*
X17563112Y-27900464D01*
X17569128Y-27953943D01*
X17573285Y-28024918D01*
X17575924Y-28116222D01*
X17577389Y-28230690D01*
X17578021Y-28371157D01*
X17578163Y-28540456D01*
X17578154Y-28693534D01*
X17578156Y-28887164D01*
X17577934Y-29049762D01*
X17577145Y-29184162D01*
X17575447Y-29293198D01*
X17572498Y-29379705D01*
X17567955Y-29446517D01*
X17561475Y-29496467D01*
X17552717Y-29532391D01*
X17541337Y-29557122D01*
X17526994Y-29573495D01*
X17509345Y-29584344D01*
X17488047Y-29592504D01*
X17468785Y-29598790D01*
X17418376Y-29609235D01*
X17370840Y-29600819D01*
X17349042Y-29592444D01*
X17312763Y-29573681D01*
X17285233Y-29548666D01*
X17265290Y-29512862D01*
X17251771Y-29461737D01*
X17243515Y-29390754D01*
X17239358Y-29295379D01*
X17238138Y-29171077D01*
X17238133Y-29159744D01*
X17237707Y-29065182D01*
X17236526Y-28983639D01*
X17234737Y-28920607D01*
X17232486Y-28881580D01*
X17230463Y-28871334D01*
X17211123Y-28877614D01*
X17178678Y-28891434D01*
X17134564Y-28911534D01*
X17138145Y-29212176D01*
X17138891Y-29333418D01*
X17137012Y-29425465D01*
X17131247Y-29492961D01*
X17120335Y-29540550D01*
X17103014Y-29572877D01*
X17078023Y-29594584D01*
X17044099Y-29610317D01*
X17028518Y-29615723D01*
X16978109Y-29626168D01*
X16930574Y-29617752D01*
X16908776Y-29609377D01*
X16865088Y-29584047D01*
X16833930Y-29546868D01*
X16813537Y-29492707D01*
X16802144Y-29416429D01*
X16797985Y-29312901D01*
X16797866Y-29286744D01*
X16796552Y-29213637D01*
X16792999Y-29155039D01*
X16787789Y-29117932D01*
X16783006Y-29108400D01*
X16759481Y-29116886D01*
X16743616Y-29144917D01*
X16734564Y-29196356D01*
X16731480Y-29275064D01*
X16732211Y-29340061D01*
X16732697Y-29438650D01*
X16727441Y-29509595D01*
X16714386Y-29558919D01*
X16691475Y-29592644D01*
X16656652Y-29616792D01*
X16634184Y-29627135D01*
X16581962Y-29642514D01*
X16533557Y-29637816D01*
X16516414Y-29632657D01*
X16458570Y-29601074D01*
X16419840Y-29548306D01*
X16396917Y-29469504D01*
X16394425Y-29453665D01*
X16382954Y-29373472D01*
X16213643Y-29510365D01*
X16134543Y-29575638D01*
X16051325Y-29646490D01*
X15974949Y-29713483D01*
X15925799Y-29758274D01*
X15872199Y-29809095D01*
X15841184Y-29840973D01*
X15830248Y-29857714D01*
X15836884Y-29863120D01*
X15836884Y-30206437D01*
X15434905Y-30256890D01*
X15386249Y-30313412D01*
X15359045Y-30345912D01*
X15315555Y-30398912D01*
X15260633Y-30466451D01*
X15199132Y-30542571D01*
X15160944Y-30590067D01*
X14984293Y-30810200D01*
X15292129Y-30823585D01*
X15422032Y-30830113D01*
X15522460Y-30837794D01*
X15597802Y-30847830D01*
X15652452Y-30861424D01*
X15690799Y-30879778D01*
X15717234Y-30904095D01*
X15736149Y-30935577D01*
X15740976Y-30946510D01*
X15756900Y-30999464D01*
X15753083Y-31046997D01*
X15747878Y-31064570D01*
X15732635Y-31091296D01*
X15698287Y-31140227D01*
X15647634Y-31207736D01*
X15583476Y-31290197D01*
X15508610Y-31383984D01*
X15425837Y-31485472D01*
X15382959Y-31537251D01*
X15286663Y-31653296D01*
X15210497Y-31746046D01*
X15152636Y-31817992D01*
X15111254Y-31871626D01*
X15084527Y-31909439D01*
X15070629Y-31933921D01*
X15067734Y-31947564D01*
X15074019Y-31952858D01*
X15078186Y-31953201D01*
X15078186Y-32302898D01*
X15030440Y-32317728D01*
X14965140Y-32356238D01*
X14890639Y-32417299D01*
X14872107Y-32434222D01*
X14784011Y-32525286D01*
X14720430Y-32616207D01*
X14674230Y-32718903D01*
X14646656Y-32810979D01*
X14625129Y-32911490D01*
X14613722Y-33010139D01*
X14612916Y-33112604D01*
X14623191Y-33224561D01*
X14645026Y-33351687D01*
X14678902Y-33499660D01*
X14717115Y-33644591D01*
X14740284Y-33730834D01*
X14759311Y-33805492D01*
X14772732Y-33862503D01*
X14779080Y-33895806D01*
X14779214Y-33901520D01*
X14764561Y-33896201D01*
X14726178Y-33873957D01*
X14668049Y-33837329D01*
X14594155Y-33788858D01*
X14508481Y-33731085D01*
X14461066Y-33698535D01*
X14370718Y-33636484D01*
X14290099Y-33581763D01*
X14223220Y-33537040D01*
X14174089Y-33504983D01*
X14146714Y-33488259D01*
X14142428Y-33486488D01*
X14146560Y-33502516D01*
X14162731Y-33539821D01*
X14182801Y-33581040D01*
X14220294Y-33679491D01*
X14228345Y-33767334D01*
X14207328Y-33840779D01*
X14177656Y-33881540D01*
X14136019Y-33909205D01*
X14076437Y-33925802D01*
X13992930Y-33933360D01*
X13931393Y-33934400D01*
X13849732Y-33932328D01*
X13810500Y-33928428D01*
X13810500Y-33591544D01*
X13808680Y-33574162D01*
X13799412Y-33532899D01*
X13784655Y-33476408D01*
X13783400Y-33471865D01*
X13763306Y-33383858D01*
X13744800Y-33275062D01*
X13729602Y-33158555D01*
X13719434Y-33047416D01*
X13716000Y-32959781D01*
X13721830Y-32901058D01*
X13736417Y-32848987D01*
X13742620Y-32836347D01*
X13767019Y-32808939D01*
X13812955Y-32768789D01*
X13873546Y-32721580D01*
X13933120Y-32678989D01*
X14097000Y-32566578D01*
X14065846Y-32958332D01*
X14166089Y-33051721D01*
X14266333Y-33145109D01*
X14277109Y-32993109D01*
X14285630Y-32907296D01*
X14298389Y-32818301D01*
X14312896Y-32743020D01*
X14315663Y-32731587D01*
X14338244Y-32658435D01*
X14370450Y-32573940D01*
X14407648Y-32488619D01*
X14445204Y-32412992D01*
X14478487Y-32357577D01*
X14483225Y-32351134D01*
X14492229Y-32337995D01*
X14492722Y-32328670D01*
X14480142Y-32322367D01*
X14449928Y-32318295D01*
X14425291Y-32317058D01*
X14425291Y-31970134D01*
X14627773Y-31970134D01*
X14647273Y-31911047D01*
X14663286Y-31882051D01*
X14698080Y-31831536D01*
X14748447Y-31763735D01*
X14811178Y-31682887D01*
X14883065Y-31593226D01*
X14944625Y-31518463D01*
X15019522Y-31428272D01*
X15086470Y-31347090D01*
X15142643Y-31278388D01*
X15185215Y-31225639D01*
X15211362Y-31192315D01*
X15218538Y-31181814D01*
X15201158Y-31179899D01*
X15156110Y-31176794D01*
X15089555Y-31172877D01*
X15007657Y-31168525D01*
X14975916Y-31166940D01*
X14737233Y-31155219D01*
X14600913Y-31363710D01*
X14539301Y-31458585D01*
X14475558Y-31557871D01*
X14413047Y-31656221D01*
X14386987Y-31697644D01*
X14386987Y-30394781D01*
X14379618Y-30292901D01*
X14382763Y-30197402D01*
X14402391Y-30082822D01*
X14435775Y-29957970D01*
X14480185Y-29831658D01*
X14532896Y-29712694D01*
X14590989Y-29610181D01*
X14693070Y-29460408D01*
X14783929Y-29340676D01*
X14865072Y-29249643D01*
X14938005Y-29185966D01*
X15004235Y-29148302D01*
X15065266Y-29135309D01*
X15115051Y-29142944D01*
X15162643Y-29167446D01*
X15198577Y-29200642D01*
X15200034Y-29202771D01*
X15226603Y-29243320D01*
X15330668Y-29167233D01*
X15419286Y-29105004D01*
X15527610Y-29032860D01*
X15646089Y-28956835D01*
X15765172Y-28882961D01*
X15875310Y-28817271D01*
X15961795Y-28768566D01*
X16099390Y-28694423D01*
X15923450Y-28596773D01*
X15830709Y-28543652D01*
X15727012Y-28481676D01*
X15628434Y-28420545D01*
X15582655Y-28391082D01*
X15504921Y-28339499D01*
X15426374Y-28286298D01*
X15357896Y-28238900D01*
X15322174Y-28213436D01*
X15226549Y-28143830D01*
X15200007Y-28184338D01*
X15152103Y-28228990D01*
X15088339Y-28250512D01*
X15020173Y-28245792D01*
X15000152Y-28238608D01*
X14950588Y-28212310D01*
X14902808Y-28175772D01*
X14850956Y-28123517D01*
X14789180Y-28050067D01*
X14762462Y-28016200D01*
X14738540Y-27983846D01*
X14738540Y-26234341D01*
X14890271Y-26223571D01*
X14972452Y-26218507D01*
X15054519Y-26214722D01*
X15121466Y-26212880D01*
X15133687Y-26212801D01*
X15225372Y-26212801D01*
X15189421Y-26162311D01*
X15162243Y-26130229D01*
X15141227Y-26115723D01*
X15138611Y-26115744D01*
X15122278Y-26104789D01*
X15089058Y-26071382D01*
X15042604Y-26020002D01*
X14986569Y-25955123D01*
X14924606Y-25881223D01*
X14860369Y-25802778D01*
X14797511Y-25724264D01*
X14739684Y-25650156D01*
X14690543Y-25584933D01*
X14653740Y-25533069D01*
X14632928Y-25499041D01*
X14630339Y-25492952D01*
X14610840Y-25433867D01*
X14425886Y-25433867D01*
X14351322Y-25434731D01*
X14291142Y-25437074D01*
X14252205Y-25440520D01*
X14240933Y-25443992D01*
X14249843Y-25463391D01*
X14275075Y-25507490D01*
X14314382Y-25572663D01*
X14365515Y-25655289D01*
X14426229Y-25751743D01*
X14494274Y-25858403D01*
X14567403Y-25971645D01*
X14585333Y-25999204D01*
X14738540Y-26234341D01*
X14738540Y-27983846D01*
X14649660Y-27863637D01*
X14562856Y-27728361D01*
X14500552Y-27607885D01*
X14470824Y-27531353D01*
X14432552Y-27411422D01*
X14405498Y-27316569D01*
X14388331Y-27240414D01*
X14379720Y-27176580D01*
X14378334Y-27118687D01*
X14379618Y-27094166D01*
X14386987Y-26992287D01*
X14336151Y-27031491D01*
X14291588Y-27083837D01*
X14254890Y-27161455D01*
X14227387Y-27256388D01*
X14210407Y-27360678D01*
X14205279Y-27466368D01*
X14213330Y-27565498D01*
X14233777Y-27644742D01*
X14249510Y-27692873D01*
X14250678Y-27728552D01*
X14237409Y-27769843D01*
X14234713Y-27776369D01*
X14222709Y-27802366D01*
X14207984Y-27823390D01*
X14185579Y-27842271D01*
X14150537Y-27861839D01*
X14097901Y-27884925D01*
X14022713Y-27914357D01*
X13935459Y-27947193D01*
X13755834Y-28026224D01*
X13593423Y-28121426D01*
X13455339Y-28228481D01*
X13424954Y-28257082D01*
X13328641Y-28351721D01*
X13382620Y-28381377D01*
X13486629Y-28435876D01*
X13569493Y-28472862D01*
X13637399Y-28494821D01*
X13686122Y-28503343D01*
X13770338Y-28521684D01*
X13828470Y-28558450D01*
X13864464Y-28616406D01*
X13869729Y-28632027D01*
X13880854Y-28693156D01*
X13871716Y-28750860D01*
X13868918Y-28759696D01*
X13835592Y-28821118D01*
X13781139Y-28860923D01*
X13701406Y-28881929D01*
X13686122Y-28883724D01*
X13625851Y-28895243D01*
X13555679Y-28919757D01*
X13469420Y-28959751D01*
X13382620Y-29005691D01*
X13328641Y-29035347D01*
X13424954Y-29129986D01*
X13555716Y-29239367D01*
X13712614Y-29337993D01*
X13888536Y-29421546D01*
X13935459Y-29439875D01*
X14034207Y-29477099D01*
X14106106Y-29505522D01*
X14156112Y-29527976D01*
X14189185Y-29547289D01*
X14210280Y-29566293D01*
X14224357Y-29587816D01*
X14234713Y-29610699D01*
X14249796Y-29653983D01*
X14250458Y-29689375D01*
X14236572Y-29734937D01*
X14233777Y-29742326D01*
X14212293Y-29828237D01*
X14205224Y-29928097D01*
X14211240Y-30033950D01*
X14229012Y-30137837D01*
X14257213Y-30231801D01*
X14294514Y-30307884D01*
X14336151Y-30355577D01*
X14386987Y-30394781D01*
X14386987Y-31697644D01*
X14355129Y-31748285D01*
X14305167Y-31828716D01*
X14266522Y-31892165D01*
X14242557Y-31933284D01*
X14240683Y-31936734D01*
X14234633Y-31950817D01*
X14237788Y-31960257D01*
X14255274Y-31965981D01*
X14292216Y-31968917D01*
X14353738Y-31969991D01*
X14425291Y-31970134D01*
X14425291Y-32317058D01*
X14397517Y-32315662D01*
X14318349Y-32313676D01*
X14260922Y-32312558D01*
X14155280Y-32311723D01*
X14076096Y-32313615D01*
X14025820Y-32318116D01*
X14006923Y-32325031D01*
X13992692Y-32350139D01*
X13971448Y-32378949D01*
X13957633Y-32394362D01*
X13945388Y-32398569D01*
X13930694Y-32387579D01*
X13909530Y-32357402D01*
X13877878Y-32304047D01*
X13853882Y-32262222D01*
X13782562Y-32127269D01*
X13730827Y-32003212D01*
X13693808Y-31877516D01*
X13680349Y-31815533D01*
X13669834Y-31767245D01*
X13660252Y-31741017D01*
X13649946Y-31738908D01*
X13637254Y-31762981D01*
X13620519Y-31815295D01*
X13598082Y-31897911D01*
X13590433Y-31927210D01*
X13558431Y-32064306D01*
X13535857Y-32196816D01*
X13522113Y-32332668D01*
X13516599Y-32479789D01*
X13518719Y-32646106D01*
X13525171Y-32792119D01*
X13530476Y-32895355D01*
X13534570Y-32986490D01*
X13537269Y-33060336D01*
X13538387Y-33111706D01*
X13537741Y-33135411D01*
X13537415Y-33136349D01*
X13520530Y-33132417D01*
X13476710Y-33117894D01*
X13410592Y-33094442D01*
X13326816Y-33063717D01*
X13230019Y-33027380D01*
X13187607Y-33011229D01*
X13169265Y-33003966D01*
X13169265Y-32643492D01*
X13178687Y-32412646D01*
X13206864Y-32113431D01*
X13266942Y-31824437D01*
X13359624Y-31542811D01*
X13437080Y-31363631D01*
X13501049Y-31233346D01*
X13556500Y-31132672D01*
X13605846Y-31059165D01*
X13651502Y-31010383D01*
X13695884Y-30983882D01*
X13741406Y-30977220D01*
X13790482Y-30987954D01*
X13803447Y-30993010D01*
X13848413Y-31016746D01*
X13881334Y-31042516D01*
X13882893Y-31044307D01*
X13892773Y-31069605D01*
X13905790Y-31122397D01*
X13920701Y-31196596D01*
X13936262Y-31286114D01*
X13948308Y-31364430D01*
X13965330Y-31479262D01*
X13978827Y-31563738D01*
X13989541Y-31621098D01*
X13998212Y-31654583D01*
X14005581Y-31667434D01*
X14012388Y-31662892D01*
X14015144Y-31656867D01*
X14026459Y-31636649D01*
X14052286Y-31594270D01*
X14088746Y-31536006D01*
X14130371Y-31470600D01*
X14172755Y-31403853D01*
X14207570Y-31347786D01*
X14231180Y-31308343D01*
X14239945Y-31291519D01*
X14229519Y-31274559D01*
X14202705Y-31245914D01*
X14198330Y-31241747D01*
X14167322Y-31204723D01*
X14125059Y-31143247D01*
X14074956Y-31063392D01*
X14020430Y-30971232D01*
X13964896Y-30872837D01*
X13911770Y-30774282D01*
X13864467Y-30681638D01*
X13826403Y-30600979D01*
X13800993Y-30538377D01*
X13798446Y-30530801D01*
X13780716Y-30480289D01*
X13765999Y-30461225D01*
X13747460Y-30472650D01*
X13718264Y-30513610D01*
X13714638Y-30519077D01*
X13613727Y-30642584D01*
X13488768Y-30748618D01*
X13347534Y-30831305D01*
X13250739Y-30869732D01*
X13193077Y-30892056D01*
X13139675Y-30918281D01*
X13133402Y-30921966D01*
X13096259Y-30940207D01*
X13071429Y-30944673D01*
X13069804Y-30943981D01*
X13047967Y-30944364D01*
X13003220Y-30953248D01*
X12944890Y-30968749D01*
X12939782Y-30970258D01*
X12866488Y-30988368D01*
X12839700Y-30992086D01*
X12839700Y-30496775D01*
X12920662Y-30495958D01*
X12977432Y-30492452D01*
X13019674Y-30484407D01*
X13057051Y-30469977D01*
X13099227Y-30447312D01*
X13099677Y-30447054D01*
X13187634Y-30383713D01*
X13277771Y-30296076D01*
X13362877Y-30192382D01*
X13435742Y-30080873D01*
X13460429Y-30034758D01*
X13499288Y-29953015D01*
X13521515Y-29895495D01*
X13528270Y-29857608D01*
X13520715Y-29834762D01*
X13512728Y-29828023D01*
X13490203Y-29830344D01*
X13444505Y-29846202D01*
X13382019Y-29872599D01*
X13309131Y-29906540D01*
X13232225Y-29945029D01*
X13157686Y-29985070D01*
X13091899Y-30023667D01*
X13089466Y-30025201D01*
X13089466Y-27634883D01*
X13136045Y-27624145D01*
X13197236Y-27595773D01*
X13263167Y-27555529D01*
X13323966Y-27509177D01*
X13354471Y-27480199D01*
X13401431Y-27422144D01*
X13441643Y-27357805D01*
X13469373Y-27297596D01*
X13478933Y-27254201D01*
X13471234Y-27218299D01*
X13451947Y-27169641D01*
X13443371Y-27152350D01*
X13407279Y-27094668D01*
X13363362Y-27038022D01*
X13354471Y-27028202D01*
X13301708Y-26980955D01*
X13237756Y-26936280D01*
X13172486Y-26899941D01*
X13115771Y-26877700D01*
X13089466Y-26873518D01*
X13042888Y-26884256D01*
X12981697Y-26912628D01*
X12915765Y-26952872D01*
X12854967Y-26999224D01*
X12824461Y-27028202D01*
X12777502Y-27086257D01*
X12737289Y-27150596D01*
X12709559Y-27210805D01*
X12700000Y-27254201D01*
X12710839Y-27301096D01*
X12739532Y-27361877D01*
X12780343Y-27426127D01*
X12824461Y-27480199D01*
X12877224Y-27527446D01*
X12941177Y-27572121D01*
X13006446Y-27608460D01*
X13063161Y-27630701D01*
X13089466Y-27634883D01*
X13089466Y-30025201D01*
X13080601Y-30030792D01*
X13005970Y-30084092D01*
X12928706Y-30148825D01*
X12853507Y-30219930D01*
X12785073Y-30292346D01*
X12728103Y-30361009D01*
X12687294Y-30420860D01*
X12667347Y-30466836D01*
X12666133Y-30477250D01*
X12679644Y-30487188D01*
X12721603Y-30493518D01*
X12794146Y-30496479D01*
X12839700Y-30496775D01*
X12839700Y-30992086D01*
X12787725Y-30999300D01*
X12692462Y-31004283D01*
X12628734Y-31004934D01*
X12545499Y-31006479D01*
X12470002Y-31010666D01*
X12411500Y-31016819D01*
X12382658Y-31022874D01*
X12315888Y-31029712D01*
X12252195Y-31007885D01*
X12201245Y-30961946D01*
X12182344Y-30928501D01*
X12169023Y-30890195D01*
X12165548Y-30854067D01*
X12171868Y-30807183D01*
X12181677Y-30762792D01*
X12197507Y-30684963D01*
X12211023Y-30600515D01*
X12216379Y-30556201D01*
X12226462Y-30484555D01*
X12241282Y-30412736D01*
X12250741Y-30378401D01*
X12270308Y-30315878D01*
X12292477Y-30243182D01*
X12302672Y-30209067D01*
X12329120Y-30137912D01*
X12364498Y-30064466D01*
X12381380Y-30035561D01*
X12442217Y-29956085D01*
X12525651Y-29869639D01*
X12623527Y-29783439D01*
X12727691Y-29704703D01*
X12823534Y-29644235D01*
X12913261Y-29589761D01*
X12973571Y-29542572D01*
X13007292Y-29499593D01*
X13017248Y-29457747D01*
X13014282Y-29436618D01*
X12998524Y-29406171D01*
X12965099Y-29359503D01*
X12919977Y-29304646D01*
X12897362Y-29279335D01*
X12842442Y-29214643D01*
X12792193Y-29143694D01*
X12741366Y-29058289D01*
X12684713Y-28950227D01*
X12677649Y-28936100D01*
X12638035Y-28855592D01*
X12604479Y-28785513D01*
X12579639Y-28731567D01*
X12566175Y-28699459D01*
X12564533Y-28693534D01*
X12571733Y-28673670D01*
X12591567Y-28629269D01*
X12621383Y-28566013D01*
X12658529Y-28489586D01*
X12678343Y-28449574D01*
X12736925Y-28336705D01*
X12788638Y-28248429D01*
X12838099Y-28177478D01*
X12889798Y-28116720D01*
X12987444Y-28012337D01*
X12879465Y-28003669D01*
X12750339Y-27978284D01*
X12628160Y-27925962D01*
X12520527Y-27851131D01*
X12435042Y-27758218D01*
X12420139Y-27736071D01*
X12395735Y-27688519D01*
X12368667Y-27622295D01*
X12344697Y-27551526D01*
X12344185Y-27549815D01*
X12326798Y-27483669D01*
X12307001Y-27395839D01*
X12286089Y-27293558D01*
X12265355Y-27184059D01*
X12246094Y-27074578D01*
X12229598Y-26972347D01*
X12217162Y-26884602D01*
X12210079Y-26818575D01*
X12208933Y-26793545D01*
X12204911Y-26735775D01*
X12194476Y-26671813D01*
X12180076Y-26612154D01*
X12164160Y-26567295D01*
X12151911Y-26549065D01*
X12149250Y-26528690D01*
X12160767Y-26490271D01*
X12168563Y-26472865D01*
X12213093Y-26411303D01*
X12271976Y-26371071D01*
X12336874Y-26356456D01*
X12381110Y-26363654D01*
X12417331Y-26370451D01*
X12479420Y-26376122D01*
X12559385Y-26380159D01*
X12649231Y-26382054D01*
X12671490Y-26382134D01*
X12776429Y-26383073D01*
X12858784Y-26386744D01*
X12929807Y-26394424D01*
X13000748Y-26407392D01*
X13082859Y-26426926D01*
X13096530Y-26430423D01*
X13181900Y-26452266D01*
X13264582Y-26473209D01*
X13333550Y-26490469D01*
X13368866Y-26499136D01*
X13461409Y-26531588D01*
X13555877Y-26582007D01*
X13643362Y-26644118D01*
X13714958Y-26711648D01*
X13759864Y-26774561D01*
X13780431Y-26807503D01*
X13796340Y-26821728D01*
X13796868Y-26821742D01*
X13808835Y-26807157D01*
X13831391Y-26768322D01*
X13860928Y-26711736D01*
X13883796Y-26665108D01*
X13968424Y-26495400D01*
X14045213Y-26356121D01*
X14113742Y-26247986D01*
X14173590Y-26171710D01*
X14176725Y-26168343D01*
X14226554Y-26115419D01*
X14106743Y-25923407D01*
X14063016Y-25854467D01*
X14026431Y-25798954D01*
X14000205Y-25761585D01*
X13987557Y-25747076D01*
X13986887Y-25747731D01*
X13984509Y-25769234D01*
X13977961Y-25818269D01*
X13968075Y-25888873D01*
X13955680Y-25975082D01*
X13946120Y-26040403D01*
X13928740Y-26153350D01*
X13913120Y-26237788D01*
X13897052Y-26298843D01*
X13878326Y-26341638D01*
X13854734Y-26371299D01*
X13824067Y-26392950D01*
X13786514Y-26410705D01*
X13736267Y-26425559D01*
X13690137Y-26423564D01*
X13645717Y-26402286D01*
X13600599Y-26359291D01*
X13552376Y-26292146D01*
X13498640Y-26198418D01*
X13436983Y-26075672D01*
X13420146Y-26040370D01*
X13306048Y-25761983D01*
X13225009Y-25478071D01*
X13176324Y-25185779D01*
X13161754Y-24991355D01*
X13152331Y-24760509D01*
X12907573Y-24860372D01*
X12558836Y-25008128D01*
X12232855Y-25157380D01*
X11931673Y-25307053D01*
X11657329Y-25456072D01*
X11411863Y-25603365D01*
X11197316Y-25747857D01*
X11136352Y-25792705D01*
X11039808Y-25870533D01*
X10942273Y-25958301D01*
X10849877Y-26049740D01*
X10768749Y-26138579D01*
X10705020Y-26218550D01*
X10674543Y-26265025D01*
X10636255Y-26331896D01*
X10596067Y-26402498D01*
X10575841Y-26438228D01*
X10529869Y-26506178D01*
X10478180Y-26550455D01*
X10412701Y-26575254D01*
X10325362Y-26584769D01*
X10292818Y-26585271D01*
X10227544Y-26584794D01*
X10189551Y-26581908D01*
X10172255Y-26574552D01*
X10169071Y-26560660D01*
X10171432Y-26547234D01*
X10168476Y-26539030D01*
X10151346Y-26557033D01*
X10122257Y-26597812D01*
X10083422Y-26657936D01*
X10037057Y-26733974D01*
X9985376Y-26822496D01*
X9930593Y-26920070D01*
X9929453Y-26922141D01*
X9875257Y-27025212D01*
X9813468Y-27150202D01*
X9748426Y-27287671D01*
X9684473Y-27428177D01*
X9625949Y-27562281D01*
X9577195Y-27680542D01*
X9558752Y-27728334D01*
X9534018Y-27794350D01*
X9503345Y-27876144D01*
X9472705Y-27957789D01*
X9467824Y-27970789D01*
X9444032Y-28037395D01*
X9425934Y-28094255D01*
X9416338Y-28132284D01*
X9415507Y-28140122D01*
X9428873Y-28160633D01*
X9464974Y-28196111D01*
X9518516Y-28242512D01*
X9584208Y-28295793D01*
X9656757Y-28351907D01*
X9730871Y-28406812D01*
X9801258Y-28456463D01*
X9862624Y-28496814D01*
X9909679Y-28523822D01*
X9927766Y-28531598D01*
X9991763Y-28567305D01*
X10032036Y-28619622D01*
X10048585Y-28680991D01*
X10041411Y-28743854D01*
X10010514Y-28800652D01*
X9955892Y-28843827D01*
X9927766Y-28855470D01*
X9891008Y-28873266D01*
X9836982Y-28906663D01*
X9770980Y-28951619D01*
X9698296Y-29004088D01*
X9624220Y-29060025D01*
X9554046Y-29115387D01*
X9493065Y-29166129D01*
X9446571Y-29208207D01*
X9419855Y-29237575D01*
X9415507Y-29246945D01*
X9420969Y-29275025D01*
X9436042Y-29325527D01*
X9457919Y-29389366D01*
X9467824Y-29416279D01*
X9497848Y-29496273D01*
X9528944Y-29579185D01*
X9555140Y-29649087D01*
X9558752Y-29658734D01*
X9601360Y-29766189D01*
X9655795Y-29893962D01*
X9717717Y-30032611D01*
X9782784Y-30172696D01*
X9846656Y-30304777D01*
X9904991Y-30419412D01*
X9929453Y-30464927D01*
X9984276Y-30562651D01*
X10036043Y-30651392D01*
X10082540Y-30727721D01*
X10121551Y-30788205D01*
X10150862Y-30829415D01*
X10168260Y-30847920D01*
X10171529Y-30840288D01*
X10171432Y-30839834D01*
X10168997Y-30820620D01*
X10176418Y-30809275D01*
X10200279Y-30803735D01*
X10247165Y-30801937D01*
X10292818Y-30801797D01*
X10388514Y-30807450D01*
X10459863Y-30827096D01*
X10514938Y-30864930D01*
X10561810Y-30925144D01*
X10575841Y-30948839D01*
X10611469Y-31011700D01*
X10652284Y-31083303D01*
X10674543Y-31122172D01*
X10720495Y-31189122D01*
X10787783Y-31269928D01*
X10870403Y-31358458D01*
X10962353Y-31448577D01*
X11057630Y-31534152D01*
X11150232Y-31609051D01*
X11153285Y-31611354D01*
X11358208Y-31755058D01*
X11594709Y-31901869D01*
X11860756Y-32050717D01*
X12154319Y-32200533D01*
X12473368Y-32350249D01*
X12815870Y-32498794D01*
X12924506Y-32543629D01*
X13169265Y-32643492D01*
X13169265Y-33003966D01*
X12798822Y-32857264D01*
X12434419Y-32702111D01*
X12095578Y-32546412D01*
X11783483Y-32390806D01*
X11499316Y-32235931D01*
X11244259Y-32082429D01*
X11019495Y-31930938D01*
X10826205Y-31782097D01*
X10689131Y-31659685D01*
X10566330Y-31541010D01*
X10419186Y-31701280D01*
X10308308Y-31585940D01*
X10145587Y-31404629D01*
X9992351Y-31208206D01*
X9845566Y-30992161D01*
X9702194Y-30751986D01*
X9559198Y-30483174D01*
X9540600Y-30446134D01*
X9432338Y-30219873D01*
X9327289Y-29982585D01*
X9229191Y-29743466D01*
X9141779Y-29511709D01*
X9068791Y-29296512D01*
X9053657Y-29247765D01*
X9011070Y-29107730D01*
X9268035Y-28908038D01*
X9347856Y-28845271D01*
X9417576Y-28789041D01*
X9473074Y-28742787D01*
X9510229Y-28709950D01*
X9524918Y-28693971D01*
X9525000Y-28693534D01*
X9512233Y-28679012D01*
X9476680Y-28647364D01*
X9422463Y-28602032D01*
X9353702Y-28546455D01*
X9274520Y-28484074D01*
X9268035Y-28479030D01*
X9011070Y-28279337D01*
X9053657Y-28139302D01*
X9122577Y-27929517D01*
X9206828Y-27700939D01*
X9302673Y-27462762D01*
X9406376Y-27224184D01*
X9514202Y-26994398D01*
X9540600Y-26940934D01*
X9677730Y-26678831D01*
X9814222Y-26444710D01*
X9953841Y-26232974D01*
X10100349Y-26038025D01*
X10257510Y-25854267D01*
X10307660Y-25800100D01*
X10417300Y-25683734D01*
X10566330Y-25846058D01*
X10689131Y-25727382D01*
X10855090Y-25581261D01*
X11053517Y-25431952D01*
X11283228Y-25280094D01*
X11543042Y-25126328D01*
X11831776Y-24971293D01*
X12148248Y-24815629D01*
X12491275Y-24659974D01*
X12859676Y-24504969D01*
X13187607Y-24375838D01*
X13288404Y-24337678D01*
X13378085Y-24304449D01*
X13452011Y-24277812D01*
X13505542Y-24259424D01*
X13534042Y-24250945D01*
X13537415Y-24250719D01*
X13538406Y-24268758D01*
X13537599Y-24315417D01*
X13535178Y-24385510D01*
X13531327Y-24473848D01*
X13526231Y-24575243D01*
X13525171Y-24594949D01*
X13517585Y-24781386D01*
X13517169Y-24942535D01*
X13524522Y-25086330D01*
X13540241Y-25220706D01*
X13564927Y-25353595D01*
X13590452Y-25460021D01*
X13612322Y-25542923D01*
X13627747Y-25596968D01*
X13638347Y-25626189D01*
X13645744Y-25634621D01*
X13651557Y-25626299D01*
X13654043Y-25618324D01*
X13661395Y-25591707D01*
X13675102Y-25541885D01*
X13692564Y-25478315D01*
X13697792Y-25459267D01*
X13717470Y-25400810D01*
X13747242Y-25328219D01*
X13783623Y-25248411D01*
X13823126Y-25168307D01*
X13862266Y-25094824D01*
X13897558Y-25034882D01*
X13925516Y-24995399D01*
X13936894Y-24984664D01*
X13955098Y-24990855D01*
X13978647Y-25019237D01*
X13982857Y-25026263D01*
X14012333Y-25078053D01*
X14243129Y-25078160D01*
X14473926Y-25078267D01*
X14399572Y-24930100D01*
X14337534Y-24790681D01*
X14295423Y-24655082D01*
X14269510Y-24509421D01*
X14260176Y-24411289D01*
X14249400Y-24259685D01*
X14065838Y-24428639D01*
X14081419Y-24627870D01*
X14086981Y-24706134D01*
X14090543Y-24771090D01*
X14091800Y-24815878D01*
X14090509Y-24833585D01*
X14080066Y-24830582D01*
X14080066Y-24824267D01*
X14088533Y-24815800D01*
X14080066Y-24807334D01*
X14071600Y-24815800D01*
X14080066Y-24824267D01*
X14080066Y-24830582D01*
X14073390Y-24828661D01*
X14036051Y-24806964D01*
X13984641Y-24772975D01*
X13925308Y-24731174D01*
X13864198Y-24686043D01*
X13807460Y-24642064D01*
X13761241Y-24603717D01*
X13731689Y-24575484D01*
X13725687Y-24567654D01*
X13709109Y-24522475D01*
X13699801Y-24463752D01*
X13699066Y-24444220D01*
X13702961Y-24349975D01*
X13713498Y-24238111D01*
X13728956Y-24121704D01*
X13747613Y-24013834D01*
X13766466Y-23932136D01*
X13781552Y-23874862D01*
X13791293Y-23832178D01*
X13793730Y-23812734D01*
X13793567Y-23812457D01*
X13774964Y-23814166D01*
X13729765Y-23825147D01*
X13663418Y-23843715D01*
X13581373Y-23868181D01*
X13489078Y-23896860D01*
X13391982Y-23928066D01*
X13295532Y-23960112D01*
X13205179Y-23991312D01*
X13142428Y-24013981D01*
X12883409Y-24113888D01*
X12629269Y-24219509D01*
X12384026Y-24328854D01*
X12151694Y-24439936D01*
X11936290Y-24550766D01*
X11741828Y-24659357D01*
X11572326Y-24763719D01*
X11435477Y-24859090D01*
X11383536Y-24904532D01*
X11323596Y-24966484D01*
X11266632Y-25033404D01*
X11253370Y-25050582D01*
X11175071Y-25141914D01*
X11102350Y-25200083D01*
X11034701Y-25225240D01*
X10971616Y-25217539D01*
X10912589Y-25177131D01*
X10895244Y-25158235D01*
X10865250Y-25114288D01*
X10856579Y-25070490D01*
X10859049Y-25036713D01*
X10867386Y-24983729D01*
X10877236Y-24940357D01*
X10879131Y-24934334D01*
X10872158Y-24934477D01*
X10845181Y-24956307D01*
X10801256Y-24996706D01*
X10743437Y-25052555D01*
X10674780Y-25120736D01*
X10598338Y-25198131D01*
X10517168Y-25281623D01*
X10434323Y-25368092D01*
X10352859Y-25454421D01*
X10275831Y-25537492D01*
X10206292Y-25614187D01*
X10147711Y-25680907D01*
X9865205Y-26025083D01*
X9615217Y-26361747D01*
X9397389Y-26691535D01*
X9211366Y-27015080D01*
X9056792Y-27333015D01*
X8933311Y-27645974D01*
X8840567Y-27954590D01*
X8818820Y-28045814D01*
X8807171Y-28100314D01*
X8798094Y-28150901D01*
X8791274Y-28202848D01*
X8786393Y-28261424D01*
X8783135Y-28331901D01*
X8781185Y-28419550D01*
X8780224Y-28529642D01*
X8779937Y-28667448D01*
X8779933Y-28693534D01*
X8780138Y-28836482D01*
X8780964Y-28950836D01*
X8782727Y-29041866D01*
X8785745Y-29114844D01*
X8790332Y-29175041D01*
X8796807Y-29227728D01*
X8805485Y-29278176D01*
X8816682Y-29331655D01*
X8818820Y-29341253D01*
X8902281Y-29648121D01*
X9016242Y-29959087D01*
X9161072Y-30274813D01*
X9337145Y-30595959D01*
X9544830Y-30923187D01*
X9784499Y-31257155D01*
X10056523Y-31598526D01*
X10147711Y-31706228D01*
X10206010Y-31772606D01*
X10275180Y-31848837D01*
X10352182Y-31931823D01*
X10433978Y-32018465D01*
X10517531Y-32105663D01*
X10599804Y-32190320D01*
X10677758Y-32269335D01*
X10748355Y-32339610D01*
X10808559Y-32398047D01*
X10855330Y-32441546D01*
X10885633Y-32467008D01*
X10896428Y-32471335D01*
X10896078Y-32469667D01*
X10886398Y-32430845D01*
X10877415Y-32378227D01*
X10875983Y-32367288D01*
X10874877Y-32314246D01*
X10891594Y-32272800D01*
X10912178Y-32245766D01*
X10971063Y-32195366D01*
X11034380Y-32178313D01*
X11101562Y-32194457D01*
X11172041Y-32243648D01*
X11245250Y-32325738D01*
X11252309Y-32335219D01*
X11300027Y-32396297D01*
X11349989Y-32454048D01*
X11391823Y-32496521D01*
X11393861Y-32498333D01*
X11489674Y-32573711D01*
X11614181Y-32657430D01*
X11763769Y-32747665D01*
X11934827Y-32842592D01*
X12123743Y-32940387D01*
X12326906Y-33039226D01*
X12540702Y-33137284D01*
X12761521Y-33232738D01*
X12985751Y-33323763D01*
X13159362Y-33390020D01*
X13241175Y-33419389D01*
X13333336Y-33450920D01*
X13430394Y-33482926D01*
X13526903Y-33513721D01*
X13617412Y-33541619D01*
X13696473Y-33564933D01*
X13758638Y-33581977D01*
X13798457Y-33591065D01*
X13810500Y-33591544D01*
X13810500Y-33928428D01*
X13774978Y-33924895D01*
X13695491Y-33910274D01*
X13599629Y-33886640D01*
X13562253Y-33876507D01*
X13341088Y-33810116D01*
X13099361Y-33727679D01*
X12844507Y-33632201D01*
X12583965Y-33526685D01*
X12325171Y-33414138D01*
X12075562Y-33297562D01*
X11857566Y-33187839D01*
X11779535Y-33147607D01*
X11713303Y-33114688D01*
X11664028Y-33091548D01*
X11636871Y-33080654D01*
X11633200Y-33080582D01*
X11642655Y-33099708D01*
X11665562Y-33131991D01*
X11667066Y-33133913D01*
X11698610Y-33197502D01*
X11697331Y-33263301D01*
X11663710Y-33327368D01*
X11640460Y-33352434D01*
X11600727Y-33385653D01*
X11562977Y-33404837D01*
X11522859Y-33408610D01*
X11476017Y-33395595D01*
X11418099Y-33364418D01*
X11344752Y-33313702D01*
X11251620Y-33242071D01*
X11225399Y-33221262D01*
X11042332Y-33069578D01*
X10845982Y-32896363D01*
X10642634Y-32707730D01*
X10438574Y-32509788D01*
X10240087Y-32308648D01*
X10053457Y-32110421D01*
X9884972Y-31921218D01*
X9868826Y-31902401D01*
X9577140Y-31544921D01*
X9318505Y-31193564D01*
X9092731Y-30847970D01*
X8899626Y-30507780D01*
X8739002Y-30172636D01*
X8610668Y-29842177D01*
X8514433Y-29516044D01*
X8456310Y-29233328D01*
X8441712Y-29114709D01*
X8431643Y-28971541D01*
X8426104Y-28812842D01*
X8425094Y-28647625D01*
X8428614Y-28484906D01*
D13*
X29100000Y-16100000D02*
X29100000Y-16600000D01*
X29100000Y-16100000D02*
X28600000Y-16100000D01*
X29100000Y-40900000D02*
X29100000Y-40400000D01*
X29100000Y-40900000D02*
X28600000Y-40900000D01*
X3500000Y-40900000D02*
X4000000Y-40900000D01*
X3500000Y-40900000D02*
X3100000Y-40500000D01*
X3500000Y-16100000D02*
X3100000Y-16500000D01*
X3500000Y-16100000D02*
X4000000Y-16100000D01*
X-4100000Y-33300000D02*
X-3700000Y-33700000D01*
X-4100000Y-33300000D02*
X-4100000Y-32800000D01*
X-4100000Y-23700000D02*
X-4100000Y-24200000D01*
X-4100000Y-23700000D02*
X-3700000Y-23300000D01*
X13000000Y-40900000D02*
X16800000Y-40900000D01*
X13000000Y-16100000D02*
X16800000Y-16100000D01*
D14*
X43271221Y-27434000D02*
X43596779Y-27434000D01*
X43271221Y-26414000D02*
X43596779Y-26414000D01*
X12989779Y-36828000D02*
X12664221Y-36828000D01*
X12989779Y-37848000D02*
X12664221Y-37848000D01*
X28040000Y-30230000D02*
X28040000Y-26780000D01*
X28040000Y-30230000D02*
X28040000Y-32180000D01*
X22920000Y-30230000D02*
X22920000Y-28280000D01*
X22920000Y-30230000D02*
X22920000Y-32180000D01*
X46682000Y-26050000D02*
X45392000Y-26050000D01*
X46682000Y-25600000D02*
X46682000Y-26050000D01*
X47132000Y-25600000D02*
X46682000Y-25600000D01*
X53902000Y-25600000D02*
X53902000Y-26050000D01*
X53452000Y-25600000D02*
X53902000Y-25600000D01*
X46682000Y-32820000D02*
X46682000Y-32370000D01*
X47132000Y-32820000D02*
X46682000Y-32820000D01*
X53902000Y-32820000D02*
X53902000Y-32370000D01*
X53452000Y-32820000D02*
X53902000Y-32820000D01*
X8998000Y-51864000D02*
X8998000Y-53364000D01*
X10248000Y-55864000D02*
X14748000Y-55864000D01*
X15998000Y-53364000D02*
X15998000Y-51864000D01*
X14748000Y-49364000D02*
X10248000Y-49364000D01*
X49534000Y-51610000D02*
X49534000Y-53110000D01*
X50784000Y-55610000D02*
X55284000Y-55610000D01*
X56534000Y-53110000D02*
X56534000Y-51610000D01*
X55284000Y-49110000D02*
X50784000Y-49110000D01*
X22990000Y-24837221D02*
X22990000Y-25162779D01*
X24010000Y-24837221D02*
X24010000Y-25162779D01*
X21490000Y-35337221D02*
X21490000Y-35662779D01*
X22510000Y-35337221D02*
X22510000Y-35662779D01*
X24010000Y-35662779D02*
X24010000Y-35337221D01*
X22990000Y-35662779D02*
X22990000Y-35337221D01*
X20490000Y-42337221D02*
X20490000Y-42662779D01*
X21510000Y-42337221D02*
X21510000Y-42662779D01*
X24510000Y-42662779D02*
X24510000Y-42337221D01*
X23490000Y-42662779D02*
X23490000Y-42337221D01*
X28510000Y-25162779D02*
X28510000Y-24837221D01*
X27490000Y-25162779D02*
X27490000Y-24837221D01*
X28490000Y-35337221D02*
X28490000Y-35662779D01*
X29510000Y-35337221D02*
X29510000Y-35662779D01*
X32928779Y-42670000D02*
X32603221Y-42670000D01*
X32928779Y-43690000D02*
X32603221Y-43690000D01*
X32603221Y-45214000D02*
X32928779Y-45214000D01*
X32603221Y-44194000D02*
X32928779Y-44194000D01*
X34034000Y-28285221D02*
X34034000Y-28610779D01*
X35054000Y-28285221D02*
X35054000Y-28610779D01*
X32510000Y-28285221D02*
X32510000Y-28610779D01*
X33530000Y-28285221D02*
X33530000Y-28610779D01*
X30986000Y-28285221D02*
X30986000Y-28610779D01*
X32006000Y-28285221D02*
X32006000Y-28610779D01*
X40132000Y-55880000D02*
X47752000Y-55880000D01*
X27432000Y-55880000D02*
X35052000Y-55880000D01*
X27432000Y-48260000D02*
X27432000Y-55880000D01*
X47752000Y-48260000D02*
X27432000Y-48260000D01*
X47752000Y-55880000D02*
X47752000Y-48260000D01*
X4135000Y-8680000D02*
X4135000Y-9930000D01*
X5385000Y-8680000D02*
X4135000Y-8680000D01*
X13785000Y-14180000D02*
X9485000Y-14180000D01*
X13785000Y-11230000D02*
X13785000Y-14180000D01*
X14535000Y-11230000D02*
X13785000Y-11230000D01*
X5185000Y-14180000D02*
X9485000Y-14180000D01*
X5185000Y-11230000D02*
X5185000Y-14180000D01*
X4435000Y-11230000D02*
X5185000Y-11230000D01*
X14535000Y-8980000D02*
X12735000Y-8980000D01*
X14535000Y-9730000D02*
X14535000Y-8980000D01*
X12735000Y-9730000D02*
X14535000Y-9730000D01*
X12735000Y-8980000D02*
X12735000Y-9730000D01*
X6235000Y-8980000D02*
X4435000Y-8980000D01*
X6235000Y-9730000D02*
X6235000Y-8980000D01*
X4435000Y-9730000D02*
X6235000Y-9730000D01*
X4435000Y-8980000D02*
X4435000Y-9730000D01*
X11235000Y-8980000D02*
X7735000Y-8980000D01*
X11235000Y-9730000D02*
X11235000Y-8980000D01*
X7735000Y-9730000D02*
X11235000Y-9730000D01*
X7735000Y-8980000D02*
X7735000Y-9730000D01*
X14545000Y-8970000D02*
X4425000Y-8970000D01*
X14545000Y-14940000D02*
X14545000Y-8970000D01*
X4425000Y-14940000D02*
X14545000Y-14940000D01*
X4425000Y-8970000D02*
X4425000Y-14940000D01*
X36770000Y-10160000D02*
X36770000Y-8830000D01*
X36770000Y-8830000D02*
X38100000Y-8830000D01*
X36770000Y-11430000D02*
X39370000Y-11430000D01*
X39370000Y-11430000D02*
X39370000Y-8830000D01*
X39370000Y-8830000D02*
X62290000Y-8830000D01*
X62290000Y-14030000D02*
X62290000Y-8830000D01*
X36770000Y-14030000D02*
X62290000Y-14030000D01*
X36770000Y-14030000D02*
X36770000Y-11430000D01*
X36770000Y-43180000D02*
X36770000Y-41850000D01*
X36770000Y-41850000D02*
X38100000Y-41850000D01*
X36770000Y-44450000D02*
X39370000Y-44450000D01*
X39370000Y-44450000D02*
X39370000Y-41850000D01*
X39370000Y-41850000D02*
X62290000Y-41850000D01*
X62290000Y-47050000D02*
X62290000Y-41850000D01*
X36770000Y-47050000D02*
X62290000Y-47050000D01*
X36770000Y-47050000D02*
X36770000Y-44450000D01*
X7420000Y-6360000D02*
X7420000Y-5030000D01*
X8750000Y-6360000D02*
X7420000Y-6360000D01*
X7420000Y-3760000D02*
X7420000Y-1160000D01*
X10020000Y-3760000D02*
X7420000Y-3760000D01*
X10020000Y-6360000D02*
X10020000Y-3760000D01*
X7420000Y-1160000D02*
X58340000Y-1160000D01*
X10020000Y-6360000D02*
X58340000Y-6360000D01*
X58340000Y-6360000D02*
X58340000Y-1160000D01*
X26350000Y-56250000D02*
X26350000Y-55000000D01*
X25100000Y-56250000D02*
X26350000Y-56250000D01*
X19200000Y-50750000D02*
X22250000Y-50750000D01*
X19200000Y-53700000D02*
X19200000Y-50750000D01*
X18450000Y-53700000D02*
X19200000Y-53700000D01*
X25300000Y-50750000D02*
X22250000Y-50750000D01*
X25300000Y-53700000D02*
X25300000Y-50750000D01*
X26050000Y-53700000D02*
X25300000Y-53700000D01*
X18450000Y-55950000D02*
X20250000Y-55950000D01*
X18450000Y-55200000D02*
X18450000Y-55950000D01*
X20250000Y-55200000D02*
X18450000Y-55200000D01*
X20250000Y-55950000D02*
X20250000Y-55200000D01*
X24250000Y-55950000D02*
X26050000Y-55950000D01*
X24250000Y-55200000D02*
X24250000Y-55950000D01*
X26050000Y-55200000D02*
X24250000Y-55200000D01*
X26050000Y-55950000D02*
X26050000Y-55200000D01*
X21750000Y-55950000D02*
X22750000Y-55950000D01*
X21750000Y-55200000D02*
X21750000Y-55950000D01*
X22750000Y-55200000D02*
X21750000Y-55200000D01*
X22750000Y-55950000D02*
X22750000Y-55200000D01*
X18440000Y-55960000D02*
X26060000Y-55960000D01*
X18440000Y-49990000D02*
X18440000Y-55960000D01*
X26060000Y-49990000D02*
X18440000Y-49990000D01*
X26060000Y-55960000D02*
X26060000Y-49990000D01*
X24080000Y-45740000D02*
X24080000Y-47200000D01*
X20920000Y-45740000D02*
X20920000Y-47900000D01*
X20920000Y-45740000D02*
X21850000Y-45740000D01*
X24080000Y-45740000D02*
X23150000Y-45740000D01*
X33809000Y-30471000D02*
X33809000Y-32931000D01*
X35279000Y-30471000D02*
X33809000Y-30471000D01*
X35279000Y-32931000D02*
X35279000Y-30471000D01*
X32285000Y-30471000D02*
X32285000Y-32931000D01*
X33755000Y-30471000D02*
X32285000Y-30471000D01*
X33755000Y-32931000D02*
X33755000Y-30471000D01*
X30761000Y-30471000D02*
X30761000Y-32931000D01*
X32231000Y-30471000D02*
X30761000Y-30471000D01*
X32231000Y-32931000D02*
X32231000Y-30471000D01*
X2284000Y-13172221D02*
X2284000Y-13497779D01*
X3304000Y-13172221D02*
X3304000Y-13497779D01*
X760000Y-13172221D02*
X760000Y-13497779D01*
X1780000Y-13172221D02*
X1780000Y-13497779D01*
X21010000Y-35662779D02*
X21010000Y-35337221D01*
X19990000Y-35662779D02*
X19990000Y-35337221D01*
X19490000Y-46337221D02*
X19490000Y-46662779D01*
X20510000Y-46337221D02*
X20510000Y-46662779D01*
X21990000Y-42337221D02*
X21990000Y-42662779D01*
X23010000Y-42337221D02*
X23010000Y-42662779D01*
X25510000Y-46662779D02*
X25510000Y-46337221D01*
X24490000Y-46662779D02*
X24490000Y-46337221D01*
X30010000Y-25162779D02*
X30010000Y-24837221D01*
X28990000Y-25162779D02*
X28990000Y-24837221D01*
X26990000Y-35337221D02*
X26990000Y-35662779D01*
X28010000Y-35337221D02*
X28010000Y-35662779D01*
X25510000Y-25162779D02*
X25510000Y-24837221D01*
X24490000Y-25162779D02*
X24490000Y-24837221D01*
X27010000Y-25162779D02*
X27010000Y-24837221D01*
X25990000Y-25162779D02*
X25990000Y-24837221D01*
X43596779Y-27938000D02*
X43271221Y-27938000D01*
X43596779Y-28958000D02*
X43271221Y-28958000D01*
X43596779Y-30986000D02*
X43271221Y-30986000D01*
X43596779Y-32006000D02*
X43271221Y-32006000D01*
X43571279Y-29462000D02*
X43245721Y-29462000D01*
X43571279Y-30482000D02*
X43245721Y-30482000D01*
X55370000Y-34381221D02*
X55370000Y-34706779D01*
X56390000Y-34381221D02*
X56390000Y-34706779D01*
X46738000Y-24038779D02*
X46738000Y-23713221D01*
X45718000Y-24038779D02*
X45718000Y-23713221D01*
X53846000Y-34381221D02*
X53846000Y-34706779D01*
X54866000Y-34381221D02*
X54866000Y-34706779D01*
X55463221Y-25656000D02*
X55788779Y-25656000D01*
X55463221Y-24636000D02*
X55788779Y-24636000D01*
X12664221Y-36324000D02*
X12989779Y-36324000D01*
X12664221Y-35304000D02*
X12989779Y-35304000D01*
D15*
X-6037619Y-30214285D02*
X-5228095Y-30214285D01*
X-5132857Y-30166666D01*
X-5085238Y-30119047D01*
X-5037619Y-30023809D01*
X-5037619Y-29833333D01*
X-5085238Y-29738095D01*
X-5132857Y-29690476D01*
X-5228095Y-29642857D01*
X-6037619Y-29642857D01*
X-5942380Y-29214285D02*
X-5990000Y-29166666D01*
X-6037619Y-29071428D01*
X-6037619Y-28833333D01*
X-5990000Y-28738095D01*
X-5942380Y-28690476D01*
X-5847142Y-28642857D01*
X-5751904Y-28642857D01*
X-5609047Y-28690476D01*
X-5037619Y-29261904D01*
X-5037619Y-28642857D01*
X-6037619Y-28023809D02*
X-6037619Y-27928571D01*
X-5990000Y-27833333D01*
X-5942380Y-27785714D01*
X-5847142Y-27738095D01*
X-5656666Y-27690476D01*
X-5418571Y-27690476D01*
X-5228095Y-27738095D01*
X-5132857Y-27785714D01*
X-5085238Y-27833333D01*
X-5037619Y-27928571D01*
X-5037619Y-28023809D01*
X-5085238Y-28119047D01*
X-5132857Y-28166666D01*
X-5228095Y-28214285D01*
X-5418571Y-28261904D01*
X-5656666Y-28261904D01*
X-5847142Y-28214285D01*
X-5942380Y-28166666D01*
X-5990000Y-28119047D01*
X-6037619Y-28023809D01*
X-5037619Y-26738095D02*
X-5037619Y-27309523D01*
X-5037619Y-27023809D02*
X-6037619Y-27023809D01*
X-5894761Y-27119047D01*
X-5799523Y-27214285D01*
X-5751904Y-27309523D01*
X47442666Y-17962571D02*
X47585523Y-18010190D01*
X47633142Y-18057809D01*
X47680761Y-18153047D01*
X47680761Y-18295904D01*
X47633142Y-18391142D01*
X47585523Y-18438761D01*
X47490285Y-18486380D01*
X47109333Y-18486380D01*
X47109333Y-17486380D01*
X47442666Y-17486380D01*
X47537904Y-17534000D01*
X47585523Y-17581619D01*
X47633142Y-17676857D01*
X47633142Y-17772095D01*
X47585523Y-17867333D01*
X47537904Y-17914952D01*
X47442666Y-17962571D01*
X47109333Y-17962571D01*
X48299809Y-17486380D02*
X48490285Y-17486380D01*
X48585523Y-17534000D01*
X48680761Y-17629238D01*
X48728380Y-17819714D01*
X48728380Y-18153047D01*
X48680761Y-18343523D01*
X48585523Y-18438761D01*
X48490285Y-18486380D01*
X48299809Y-18486380D01*
X48204571Y-18438761D01*
X48109333Y-18343523D01*
X48061714Y-18153047D01*
X48061714Y-17819714D01*
X48109333Y-17629238D01*
X48204571Y-17534000D01*
X48299809Y-17486380D01*
X49347428Y-17486380D02*
X49537904Y-17486380D01*
X49633142Y-17534000D01*
X49728380Y-17629238D01*
X49776000Y-17819714D01*
X49776000Y-18153047D01*
X49728380Y-18343523D01*
X49633142Y-18438761D01*
X49537904Y-18486380D01*
X49347428Y-18486380D01*
X49252190Y-18438761D01*
X49156952Y-18343523D01*
X49109333Y-18153047D01*
X49109333Y-17819714D01*
X49156952Y-17629238D01*
X49252190Y-17534000D01*
X49347428Y-17486380D01*
X50061714Y-17486380D02*
X50633142Y-17486380D01*
X50347428Y-18486380D02*
X50347428Y-17486380D01*
X51156952Y-17486380D02*
X51252190Y-17486380D01*
X51347428Y-17534000D01*
X51395047Y-17581619D01*
X51442666Y-17676857D01*
X51490285Y-17867333D01*
X51490285Y-18105428D01*
X51442666Y-18295904D01*
X51395047Y-18391142D01*
X51347428Y-18438761D01*
X51252190Y-18486380D01*
X51156952Y-18486380D01*
X51061714Y-18438761D01*
X51014095Y-18391142D01*
X50966476Y-18295904D01*
X50918857Y-18105428D01*
X50918857Y-17867333D01*
X50966476Y-17676857D01*
X51014095Y-17581619D01*
X51061714Y-17534000D01*
X51156952Y-17486380D01*
X38250952Y-27376380D02*
X37917619Y-26900190D01*
X37679523Y-27376380D02*
X37679523Y-26376380D01*
X38060476Y-26376380D01*
X38155714Y-26424000D01*
X38203333Y-26471619D01*
X38250952Y-26566857D01*
X38250952Y-26709714D01*
X38203333Y-26804952D01*
X38155714Y-26852571D01*
X38060476Y-26900190D01*
X37679523Y-26900190D01*
X38584285Y-26376380D02*
X39203333Y-26376380D01*
X38870000Y-26757333D01*
X39012857Y-26757333D01*
X39108095Y-26804952D01*
X39155714Y-26852571D01*
X39203333Y-26947809D01*
X39203333Y-27185904D01*
X39155714Y-27281142D01*
X39108095Y-27328761D01*
X39012857Y-27376380D01*
X38727142Y-27376380D01*
X38631904Y-27328761D01*
X38584285Y-27281142D01*
X39822380Y-26376380D02*
X39917619Y-26376380D01*
X40012857Y-26424000D01*
X40060476Y-26471619D01*
X40108095Y-26566857D01*
X40155714Y-26757333D01*
X40155714Y-26995428D01*
X40108095Y-27185904D01*
X40060476Y-27281142D01*
X40012857Y-27328761D01*
X39917619Y-27376380D01*
X39822380Y-27376380D01*
X39727142Y-27328761D01*
X39679523Y-27281142D01*
X39631904Y-27185904D01*
X39584285Y-26995428D01*
X39584285Y-26757333D01*
X39631904Y-26566857D01*
X39679523Y-26471619D01*
X39727142Y-26424000D01*
X39822380Y-26376380D01*
X41108095Y-27376380D02*
X40536666Y-27376380D01*
X40822380Y-27376380D02*
X40822380Y-26376380D01*
X40727142Y-26519238D01*
X40631904Y-26614476D01*
X40536666Y-26662095D01*
X15771952Y-37790380D02*
X15438619Y-37314190D01*
X15200523Y-37790380D02*
X15200523Y-36790380D01*
X15581476Y-36790380D01*
X15676714Y-36838000D01*
X15724333Y-36885619D01*
X15771952Y-36980857D01*
X15771952Y-37123714D01*
X15724333Y-37218952D01*
X15676714Y-37266571D01*
X15581476Y-37314190D01*
X15200523Y-37314190D01*
X16152904Y-36885619D02*
X16200523Y-36838000D01*
X16295761Y-36790380D01*
X16533857Y-36790380D01*
X16629095Y-36838000D01*
X16676714Y-36885619D01*
X16724333Y-36980857D01*
X16724333Y-37076095D01*
X16676714Y-37218952D01*
X16105285Y-37790380D01*
X16724333Y-37790380D01*
X17343380Y-36790380D02*
X17438619Y-36790380D01*
X17533857Y-36838000D01*
X17581476Y-36885619D01*
X17629095Y-36980857D01*
X17676714Y-37171333D01*
X17676714Y-37409428D01*
X17629095Y-37599904D01*
X17581476Y-37695142D01*
X17533857Y-37742761D01*
X17438619Y-37790380D01*
X17343380Y-37790380D01*
X17248142Y-37742761D01*
X17200523Y-37695142D01*
X17152904Y-37599904D01*
X17105285Y-37409428D01*
X17105285Y-37171333D01*
X17152904Y-36980857D01*
X17200523Y-36885619D01*
X17248142Y-36838000D01*
X17343380Y-36790380D01*
X18629095Y-37790380D02*
X18057666Y-37790380D01*
X18343380Y-37790380D02*
X18343380Y-36790380D01*
X18248142Y-36933238D01*
X18152904Y-37028476D01*
X18057666Y-37076095D01*
X28332380Y-31944285D02*
X29141904Y-31944285D01*
X29237142Y-31896666D01*
X29284761Y-31849047D01*
X29332380Y-31753809D01*
X29332380Y-31563333D01*
X29284761Y-31468095D01*
X29237142Y-31420476D01*
X29141904Y-31372857D01*
X28332380Y-31372857D01*
X28665714Y-30468095D02*
X29332380Y-30468095D01*
X28284761Y-30706190D02*
X28999047Y-30944285D01*
X28999047Y-30325238D01*
X28332380Y-29753809D02*
X28332380Y-29658571D01*
X28380000Y-29563333D01*
X28427619Y-29515714D01*
X28522857Y-29468095D01*
X28713333Y-29420476D01*
X28951428Y-29420476D01*
X29141904Y-29468095D01*
X29237142Y-29515714D01*
X29284761Y-29563333D01*
X29332380Y-29658571D01*
X29332380Y-29753809D01*
X29284761Y-29849047D01*
X29237142Y-29896666D01*
X29141904Y-29944285D01*
X28951428Y-29991904D01*
X28713333Y-29991904D01*
X28522857Y-29944285D01*
X28427619Y-29896666D01*
X28380000Y-29849047D01*
X28332380Y-29753809D01*
X29332380Y-28468095D02*
X29332380Y-29039523D01*
X29332380Y-28753809D02*
X28332380Y-28753809D01*
X28475238Y-28849047D01*
X28570476Y-28944285D01*
X28618095Y-29039523D01*
X48577714Y-22812380D02*
X48577714Y-23621904D01*
X48625333Y-23717142D01*
X48672952Y-23764761D01*
X48768190Y-23812380D01*
X48958666Y-23812380D01*
X49053904Y-23764761D01*
X49101523Y-23717142D01*
X49149142Y-23621904D01*
X49149142Y-22812380D01*
X49530095Y-22812380D02*
X50149142Y-22812380D01*
X49815809Y-23193333D01*
X49958666Y-23193333D01*
X50053904Y-23240952D01*
X50101523Y-23288571D01*
X50149142Y-23383809D01*
X50149142Y-23621904D01*
X50101523Y-23717142D01*
X50053904Y-23764761D01*
X49958666Y-23812380D01*
X49672952Y-23812380D01*
X49577714Y-23764761D01*
X49530095Y-23717142D01*
X50768190Y-22812380D02*
X50863428Y-22812380D01*
X50958666Y-22860000D01*
X51006285Y-22907619D01*
X51053904Y-23002857D01*
X51101523Y-23193333D01*
X51101523Y-23431428D01*
X51053904Y-23621904D01*
X51006285Y-23717142D01*
X50958666Y-23764761D01*
X50863428Y-23812380D01*
X50768190Y-23812380D01*
X50672952Y-23764761D01*
X50625333Y-23717142D01*
X50577714Y-23621904D01*
X50530095Y-23431428D01*
X50530095Y-23193333D01*
X50577714Y-23002857D01*
X50625333Y-22907619D01*
X50672952Y-22860000D01*
X50768190Y-22812380D01*
X52053904Y-23812380D02*
X51482476Y-23812380D01*
X51768190Y-23812380D02*
X51768190Y-22812380D01*
X51672952Y-22955238D01*
X51577714Y-23050476D01*
X51482476Y-23098095D01*
X23952380Y-22119047D02*
X23476190Y-22452380D01*
X23952380Y-22690476D02*
X22952380Y-22690476D01*
X22952380Y-22309523D01*
X23000000Y-22214285D01*
X23047619Y-22166666D01*
X23142857Y-22119047D01*
X23285714Y-22119047D01*
X23380952Y-22166666D01*
X23428571Y-22214285D01*
X23476190Y-22309523D01*
X23476190Y-22690476D01*
X23285714Y-21261904D02*
X23952380Y-21261904D01*
X22904761Y-21500000D02*
X23619047Y-21738095D01*
X23619047Y-21119047D01*
X22952380Y-20547619D02*
X22952380Y-20452380D01*
X23000000Y-20357142D01*
X23047619Y-20309523D01*
X23142857Y-20261904D01*
X23333333Y-20214285D01*
X23571428Y-20214285D01*
X23761904Y-20261904D01*
X23857142Y-20309523D01*
X23904761Y-20357142D01*
X23952380Y-20452380D01*
X23952380Y-20547619D01*
X23904761Y-20642857D01*
X23857142Y-20690476D01*
X23761904Y-20738095D01*
X23571428Y-20785714D01*
X23333333Y-20785714D01*
X23142857Y-20738095D01*
X23047619Y-20690476D01*
X23000000Y-20642857D01*
X22952380Y-20547619D01*
X23380952Y-19642857D02*
X23333333Y-19738095D01*
X23285714Y-19785714D01*
X23190476Y-19833333D01*
X23142857Y-19833333D01*
X23047619Y-19785714D01*
X23000000Y-19738095D01*
X22952380Y-19642857D01*
X22952380Y-19452380D01*
X23000000Y-19357142D01*
X23047619Y-19309523D01*
X23142857Y-19261904D01*
X23190476Y-19261904D01*
X23285714Y-19309523D01*
X23333333Y-19357142D01*
X23380952Y-19452380D01*
X23380952Y-19642857D01*
X23428571Y-19738095D01*
X23476190Y-19785714D01*
X23571428Y-19833333D01*
X23761904Y-19833333D01*
X23857142Y-19785714D01*
X23904761Y-19738095D01*
X23952380Y-19642857D01*
X23952380Y-19452380D01*
X23904761Y-19357142D01*
X23857142Y-19309523D01*
X23761904Y-19261904D01*
X23571428Y-19261904D01*
X23476190Y-19309523D01*
X23428571Y-19357142D01*
X23380952Y-19452380D01*
X22452380Y-32619047D02*
X21976190Y-32952380D01*
X22452380Y-33190476D02*
X21452380Y-33190476D01*
X21452380Y-32809523D01*
X21500000Y-32714285D01*
X21547619Y-32666666D01*
X21642857Y-32619047D01*
X21785714Y-32619047D01*
X21880952Y-32666666D01*
X21928571Y-32714285D01*
X21976190Y-32809523D01*
X21976190Y-33190476D01*
X21785714Y-31761904D02*
X22452380Y-31761904D01*
X21404761Y-32000000D02*
X22119047Y-32238095D01*
X22119047Y-31619047D01*
X21452380Y-31047619D02*
X21452380Y-30952380D01*
X21500000Y-30857142D01*
X21547619Y-30809523D01*
X21642857Y-30761904D01*
X21833333Y-30714285D01*
X22071428Y-30714285D01*
X22261904Y-30761904D01*
X22357142Y-30809523D01*
X22404761Y-30857142D01*
X22452380Y-30952380D01*
X22452380Y-31047619D01*
X22404761Y-31142857D01*
X22357142Y-31190476D01*
X22261904Y-31238095D01*
X22071428Y-31285714D01*
X21833333Y-31285714D01*
X21642857Y-31238095D01*
X21547619Y-31190476D01*
X21500000Y-31142857D01*
X21452380Y-31047619D01*
X21452380Y-30380952D02*
X21452380Y-29714285D01*
X22452380Y-30142857D01*
X25452380Y-37119047D02*
X24976190Y-37452380D01*
X25452380Y-37690476D02*
X24452380Y-37690476D01*
X24452380Y-37309523D01*
X24500000Y-37214285D01*
X24547619Y-37166666D01*
X24642857Y-37119047D01*
X24785714Y-37119047D01*
X24880952Y-37166666D01*
X24928571Y-37214285D01*
X24976190Y-37309523D01*
X24976190Y-37690476D01*
X24785714Y-36261904D02*
X25452380Y-36261904D01*
X24404761Y-36500000D02*
X25119047Y-36738095D01*
X25119047Y-36119047D01*
X24452380Y-35547619D02*
X24452380Y-35452380D01*
X24500000Y-35357142D01*
X24547619Y-35309523D01*
X24642857Y-35261904D01*
X24833333Y-35214285D01*
X25071428Y-35214285D01*
X25261904Y-35261904D01*
X25357142Y-35309523D01*
X25404761Y-35357142D01*
X25452380Y-35452380D01*
X25452380Y-35547619D01*
X25404761Y-35642857D01*
X25357142Y-35690476D01*
X25261904Y-35738095D01*
X25071428Y-35785714D01*
X24833333Y-35785714D01*
X24642857Y-35738095D01*
X24547619Y-35690476D01*
X24500000Y-35642857D01*
X24452380Y-35547619D01*
X24452380Y-34357142D02*
X24452380Y-34547619D01*
X24500000Y-34642857D01*
X24547619Y-34690476D01*
X24690476Y-34785714D01*
X24880952Y-34833333D01*
X25261904Y-34833333D01*
X25357142Y-34785714D01*
X25404761Y-34738095D01*
X25452380Y-34642857D01*
X25452380Y-34452380D01*
X25404761Y-34357142D01*
X25357142Y-34309523D01*
X25261904Y-34261904D01*
X25023809Y-34261904D01*
X24928571Y-34309523D01*
X24880952Y-34357142D01*
X24833333Y-34452380D01*
X24833333Y-34642857D01*
X24880952Y-34738095D01*
X24928571Y-34785714D01*
X25023809Y-34833333D01*
X15946380Y-44045047D02*
X15470190Y-44378380D01*
X15946380Y-44616476D02*
X14946380Y-44616476D01*
X14946380Y-44235523D01*
X14994000Y-44140285D01*
X15041619Y-44092666D01*
X15136857Y-44045047D01*
X15279714Y-44045047D01*
X15374952Y-44092666D01*
X15422571Y-44140285D01*
X15470190Y-44235523D01*
X15470190Y-44616476D01*
X15279714Y-43187904D02*
X15946380Y-43187904D01*
X14898761Y-43426000D02*
X15613047Y-43664095D01*
X15613047Y-43045047D01*
X14946380Y-42473619D02*
X14946380Y-42378380D01*
X14994000Y-42283142D01*
X15041619Y-42235523D01*
X15136857Y-42187904D01*
X15327333Y-42140285D01*
X15565428Y-42140285D01*
X15755904Y-42187904D01*
X15851142Y-42235523D01*
X15898761Y-42283142D01*
X15946380Y-42378380D01*
X15946380Y-42473619D01*
X15898761Y-42568857D01*
X15851142Y-42616476D01*
X15755904Y-42664095D01*
X15565428Y-42711714D01*
X15327333Y-42711714D01*
X15136857Y-42664095D01*
X15041619Y-42616476D01*
X14994000Y-42568857D01*
X14946380Y-42473619D01*
X14946380Y-41235523D02*
X14946380Y-41711714D01*
X15422571Y-41759333D01*
X15374952Y-41711714D01*
X15327333Y-41616476D01*
X15327333Y-41378380D01*
X15374952Y-41283142D01*
X15422571Y-41235523D01*
X15517809Y-41187904D01*
X15755904Y-41187904D01*
X15851142Y-41235523D01*
X15898761Y-41283142D01*
X15946380Y-41378380D01*
X15946380Y-41616476D01*
X15898761Y-41711714D01*
X15851142Y-41759333D01*
X18952380Y-44045047D02*
X18476190Y-44378380D01*
X18952380Y-44616476D02*
X17952380Y-44616476D01*
X17952380Y-44235523D01*
X18000000Y-44140285D01*
X18047619Y-44092666D01*
X18142857Y-44045047D01*
X18285714Y-44045047D01*
X18380952Y-44092666D01*
X18428571Y-44140285D01*
X18476190Y-44235523D01*
X18476190Y-44616476D01*
X18285714Y-43187904D02*
X18952380Y-43187904D01*
X17904761Y-43426000D02*
X18619047Y-43664095D01*
X18619047Y-43045047D01*
X17952380Y-42473619D02*
X17952380Y-42378380D01*
X18000000Y-42283142D01*
X18047619Y-42235523D01*
X18142857Y-42187904D01*
X18333333Y-42140285D01*
X18571428Y-42140285D01*
X18761904Y-42187904D01*
X18857142Y-42235523D01*
X18904761Y-42283142D01*
X18952380Y-42378380D01*
X18952380Y-42473619D01*
X18904761Y-42568857D01*
X18857142Y-42616476D01*
X18761904Y-42664095D01*
X18571428Y-42711714D01*
X18333333Y-42711714D01*
X18142857Y-42664095D01*
X18047619Y-42616476D01*
X18000000Y-42568857D01*
X17952380Y-42473619D01*
X18285714Y-41283142D02*
X18952380Y-41283142D01*
X17904761Y-41521238D02*
X18619047Y-41759333D01*
X18619047Y-41140285D01*
X28452380Y-22119047D02*
X27976190Y-22452380D01*
X28452380Y-22690476D02*
X27452380Y-22690476D01*
X27452380Y-22309523D01*
X27500000Y-22214285D01*
X27547619Y-22166666D01*
X27642857Y-22119047D01*
X27785714Y-22119047D01*
X27880952Y-22166666D01*
X27928571Y-22214285D01*
X27976190Y-22309523D01*
X27976190Y-22690476D01*
X27785714Y-21261904D02*
X28452380Y-21261904D01*
X27404761Y-21500000D02*
X28119047Y-21738095D01*
X28119047Y-21119047D01*
X27452380Y-20547619D02*
X27452380Y-20452380D01*
X27500000Y-20357142D01*
X27547619Y-20309523D01*
X27642857Y-20261904D01*
X27833333Y-20214285D01*
X28071428Y-20214285D01*
X28261904Y-20261904D01*
X28357142Y-20309523D01*
X28404761Y-20357142D01*
X28452380Y-20452380D01*
X28452380Y-20547619D01*
X28404761Y-20642857D01*
X28357142Y-20690476D01*
X28261904Y-20738095D01*
X28071428Y-20785714D01*
X27833333Y-20785714D01*
X27642857Y-20738095D01*
X27547619Y-20690476D01*
X27500000Y-20642857D01*
X27452380Y-20547619D01*
X27452380Y-19880952D02*
X27452380Y-19261904D01*
X27833333Y-19595238D01*
X27833333Y-19452380D01*
X27880952Y-19357142D01*
X27928571Y-19309523D01*
X28023809Y-19261904D01*
X28261904Y-19261904D01*
X28357142Y-19309523D01*
X28404761Y-19357142D01*
X28452380Y-19452380D01*
X28452380Y-19738095D01*
X28404761Y-19833333D01*
X28357142Y-19880952D01*
X29452380Y-40619047D02*
X28976190Y-40952380D01*
X29452380Y-41190476D02*
X28452380Y-41190476D01*
X28452380Y-40809523D01*
X28500000Y-40714285D01*
X28547619Y-40666666D01*
X28642857Y-40619047D01*
X28785714Y-40619047D01*
X28880952Y-40666666D01*
X28928571Y-40714285D01*
X28976190Y-40809523D01*
X28976190Y-41190476D01*
X28785714Y-39761904D02*
X29452380Y-39761904D01*
X28404761Y-40000000D02*
X29119047Y-40238095D01*
X29119047Y-39619047D01*
X28452380Y-39047619D02*
X28452380Y-38952380D01*
X28500000Y-38857142D01*
X28547619Y-38809523D01*
X28642857Y-38761904D01*
X28833333Y-38714285D01*
X29071428Y-38714285D01*
X29261904Y-38761904D01*
X29357142Y-38809523D01*
X29404761Y-38857142D01*
X29452380Y-38952380D01*
X29452380Y-39047619D01*
X29404761Y-39142857D01*
X29357142Y-39190476D01*
X29261904Y-39238095D01*
X29071428Y-39285714D01*
X28833333Y-39285714D01*
X28642857Y-39238095D01*
X28547619Y-39190476D01*
X28500000Y-39142857D01*
X28452380Y-39047619D01*
X28547619Y-38333333D02*
X28500000Y-38285714D01*
X28452380Y-38190476D01*
X28452380Y-37952380D01*
X28500000Y-37857142D01*
X28547619Y-37809523D01*
X28642857Y-37761904D01*
X28738095Y-37761904D01*
X28880952Y-37809523D01*
X29452380Y-38380952D01*
X29452380Y-37761904D01*
X28090952Y-43759380D02*
X27757619Y-43283190D01*
X27519523Y-43759380D02*
X27519523Y-42759380D01*
X27900476Y-42759380D01*
X27995714Y-42807000D01*
X28043333Y-42854619D01*
X28090952Y-42949857D01*
X28090952Y-43092714D01*
X28043333Y-43187952D01*
X27995714Y-43235571D01*
X27900476Y-43283190D01*
X27519523Y-43283190D01*
X28424285Y-42759380D02*
X29043333Y-42759380D01*
X28710000Y-43140333D01*
X28852857Y-43140333D01*
X28948095Y-43187952D01*
X28995714Y-43235571D01*
X29043333Y-43330809D01*
X29043333Y-43568904D01*
X28995714Y-43664142D01*
X28948095Y-43711761D01*
X28852857Y-43759380D01*
X28567142Y-43759380D01*
X28471904Y-43711761D01*
X28424285Y-43664142D01*
X29662380Y-42759380D02*
X29757619Y-42759380D01*
X29852857Y-42807000D01*
X29900476Y-42854619D01*
X29948095Y-42949857D01*
X29995714Y-43140333D01*
X29995714Y-43378428D01*
X29948095Y-43568904D01*
X29900476Y-43664142D01*
X29852857Y-43711761D01*
X29757619Y-43759380D01*
X29662380Y-43759380D01*
X29567142Y-43711761D01*
X29519523Y-43664142D01*
X29471904Y-43568904D01*
X29424285Y-43378428D01*
X29424285Y-43140333D01*
X29471904Y-42949857D01*
X29519523Y-42854619D01*
X29567142Y-42807000D01*
X29662380Y-42759380D01*
X30852857Y-42759380D02*
X30662380Y-42759380D01*
X30567142Y-42807000D01*
X30519523Y-42854619D01*
X30424285Y-42997476D01*
X30376666Y-43187952D01*
X30376666Y-43568904D01*
X30424285Y-43664142D01*
X30471904Y-43711761D01*
X30567142Y-43759380D01*
X30757619Y-43759380D01*
X30852857Y-43711761D01*
X30900476Y-43664142D01*
X30948095Y-43568904D01*
X30948095Y-43330809D01*
X30900476Y-43235571D01*
X30852857Y-43187952D01*
X30757619Y-43140333D01*
X30567142Y-43140333D01*
X30471904Y-43187952D01*
X30424285Y-43235571D01*
X30376666Y-43330809D01*
X28090952Y-45156380D02*
X27757619Y-44680190D01*
X27519523Y-45156380D02*
X27519523Y-44156380D01*
X27900476Y-44156380D01*
X27995714Y-44204000D01*
X28043333Y-44251619D01*
X28090952Y-44346857D01*
X28090952Y-44489714D01*
X28043333Y-44584952D01*
X27995714Y-44632571D01*
X27900476Y-44680190D01*
X27519523Y-44680190D01*
X28424285Y-44156380D02*
X29043333Y-44156380D01*
X28710000Y-44537333D01*
X28852857Y-44537333D01*
X28948095Y-44584952D01*
X28995714Y-44632571D01*
X29043333Y-44727809D01*
X29043333Y-44965904D01*
X28995714Y-45061142D01*
X28948095Y-45108761D01*
X28852857Y-45156380D01*
X28567142Y-45156380D01*
X28471904Y-45108761D01*
X28424285Y-45061142D01*
X29662380Y-44156380D02*
X29757619Y-44156380D01*
X29852857Y-44204000D01*
X29900476Y-44251619D01*
X29948095Y-44346857D01*
X29995714Y-44537333D01*
X29995714Y-44775428D01*
X29948095Y-44965904D01*
X29900476Y-45061142D01*
X29852857Y-45108761D01*
X29757619Y-45156380D01*
X29662380Y-45156380D01*
X29567142Y-45108761D01*
X29519523Y-45061142D01*
X29471904Y-44965904D01*
X29424285Y-44775428D01*
X29424285Y-44537333D01*
X29471904Y-44346857D01*
X29519523Y-44251619D01*
X29567142Y-44204000D01*
X29662380Y-44156380D01*
X30900476Y-44156380D02*
X30424285Y-44156380D01*
X30376666Y-44632571D01*
X30424285Y-44584952D01*
X30519523Y-44537333D01*
X30757619Y-44537333D01*
X30852857Y-44584952D01*
X30900476Y-44632571D01*
X30948095Y-44727809D01*
X30948095Y-44965904D01*
X30900476Y-45061142D01*
X30852857Y-45108761D01*
X30757619Y-45156380D01*
X30519523Y-45156380D01*
X30424285Y-45108761D01*
X30376666Y-45061142D01*
X34996380Y-26011047D02*
X34520190Y-26344380D01*
X34996380Y-26582476D02*
X33996380Y-26582476D01*
X33996380Y-26201523D01*
X34044000Y-26106285D01*
X34091619Y-26058666D01*
X34186857Y-26011047D01*
X34329714Y-26011047D01*
X34424952Y-26058666D01*
X34472571Y-26106285D01*
X34520190Y-26201523D01*
X34520190Y-26582476D01*
X33996380Y-25677714D02*
X33996380Y-25058666D01*
X34377333Y-25392000D01*
X34377333Y-25249142D01*
X34424952Y-25153904D01*
X34472571Y-25106285D01*
X34567809Y-25058666D01*
X34805904Y-25058666D01*
X34901142Y-25106285D01*
X34948761Y-25153904D01*
X34996380Y-25249142D01*
X34996380Y-25534857D01*
X34948761Y-25630095D01*
X34901142Y-25677714D01*
X33996380Y-24439619D02*
X33996380Y-24344380D01*
X34044000Y-24249142D01*
X34091619Y-24201523D01*
X34186857Y-24153904D01*
X34377333Y-24106285D01*
X34615428Y-24106285D01*
X34805904Y-24153904D01*
X34901142Y-24201523D01*
X34948761Y-24249142D01*
X34996380Y-24344380D01*
X34996380Y-24439619D01*
X34948761Y-24534857D01*
X34901142Y-24582476D01*
X34805904Y-24630095D01*
X34615428Y-24677714D01*
X34377333Y-24677714D01*
X34186857Y-24630095D01*
X34091619Y-24582476D01*
X34044000Y-24534857D01*
X33996380Y-24439619D01*
X34329714Y-23249142D02*
X34996380Y-23249142D01*
X33948761Y-23487238D02*
X34663047Y-23725333D01*
X34663047Y-23106285D01*
X33472380Y-26011047D02*
X32996190Y-26344380D01*
X33472380Y-26582476D02*
X32472380Y-26582476D01*
X32472380Y-26201523D01*
X32520000Y-26106285D01*
X32567619Y-26058666D01*
X32662857Y-26011047D01*
X32805714Y-26011047D01*
X32900952Y-26058666D01*
X32948571Y-26106285D01*
X32996190Y-26201523D01*
X32996190Y-26582476D01*
X32472380Y-25677714D02*
X32472380Y-25058666D01*
X32853333Y-25392000D01*
X32853333Y-25249142D01*
X32900952Y-25153904D01*
X32948571Y-25106285D01*
X33043809Y-25058666D01*
X33281904Y-25058666D01*
X33377142Y-25106285D01*
X33424761Y-25153904D01*
X33472380Y-25249142D01*
X33472380Y-25534857D01*
X33424761Y-25630095D01*
X33377142Y-25677714D01*
X32472380Y-24439619D02*
X32472380Y-24344380D01*
X32520000Y-24249142D01*
X32567619Y-24201523D01*
X32662857Y-24153904D01*
X32853333Y-24106285D01*
X33091428Y-24106285D01*
X33281904Y-24153904D01*
X33377142Y-24201523D01*
X33424761Y-24249142D01*
X33472380Y-24344380D01*
X33472380Y-24439619D01*
X33424761Y-24534857D01*
X33377142Y-24582476D01*
X33281904Y-24630095D01*
X33091428Y-24677714D01*
X32853333Y-24677714D01*
X32662857Y-24630095D01*
X32567619Y-24582476D01*
X32520000Y-24534857D01*
X32472380Y-24439619D01*
X32472380Y-23772952D02*
X32472380Y-23153904D01*
X32853333Y-23487238D01*
X32853333Y-23344380D01*
X32900952Y-23249142D01*
X32948571Y-23201523D01*
X33043809Y-23153904D01*
X33281904Y-23153904D01*
X33377142Y-23201523D01*
X33424761Y-23249142D01*
X33472380Y-23344380D01*
X33472380Y-23630095D01*
X33424761Y-23725333D01*
X33377142Y-23772952D01*
X31948380Y-26011047D02*
X31472190Y-26344380D01*
X31948380Y-26582476D02*
X30948380Y-26582476D01*
X30948380Y-26201523D01*
X30996000Y-26106285D01*
X31043619Y-26058666D01*
X31138857Y-26011047D01*
X31281714Y-26011047D01*
X31376952Y-26058666D01*
X31424571Y-26106285D01*
X31472190Y-26201523D01*
X31472190Y-26582476D01*
X30948380Y-25677714D02*
X30948380Y-25058666D01*
X31329333Y-25392000D01*
X31329333Y-25249142D01*
X31376952Y-25153904D01*
X31424571Y-25106285D01*
X31519809Y-25058666D01*
X31757904Y-25058666D01*
X31853142Y-25106285D01*
X31900761Y-25153904D01*
X31948380Y-25249142D01*
X31948380Y-25534857D01*
X31900761Y-25630095D01*
X31853142Y-25677714D01*
X30948380Y-24439619D02*
X30948380Y-24344380D01*
X30996000Y-24249142D01*
X31043619Y-24201523D01*
X31138857Y-24153904D01*
X31329333Y-24106285D01*
X31567428Y-24106285D01*
X31757904Y-24153904D01*
X31853142Y-24201523D01*
X31900761Y-24249142D01*
X31948380Y-24344380D01*
X31948380Y-24439619D01*
X31900761Y-24534857D01*
X31853142Y-24582476D01*
X31757904Y-24630095D01*
X31567428Y-24677714D01*
X31329333Y-24677714D01*
X31138857Y-24630095D01*
X31043619Y-24582476D01*
X30996000Y-24534857D01*
X30948380Y-24439619D01*
X31043619Y-23725333D02*
X30996000Y-23677714D01*
X30948380Y-23582476D01*
X30948380Y-23344380D01*
X30996000Y-23249142D01*
X31043619Y-23201523D01*
X31138857Y-23153904D01*
X31234095Y-23153904D01*
X31376952Y-23201523D01*
X31948380Y-23772952D01*
X31948380Y-23153904D01*
X28285714Y-47952380D02*
X28285714Y-46952380D01*
X28666666Y-46952380D01*
X28761904Y-47000000D01*
X28809523Y-47047619D01*
X28857142Y-47142857D01*
X28857142Y-47285714D01*
X28809523Y-47380952D01*
X28761904Y-47428571D01*
X28666666Y-47476190D01*
X28285714Y-47476190D01*
X29857142Y-47952380D02*
X29523809Y-47476190D01*
X29285714Y-47952380D02*
X29285714Y-46952380D01*
X29666666Y-46952380D01*
X29761904Y-47000000D01*
X29809523Y-47047619D01*
X29857142Y-47142857D01*
X29857142Y-47285714D01*
X29809523Y-47380952D01*
X29761904Y-47428571D01*
X29666666Y-47476190D01*
X29285714Y-47476190D01*
X30476190Y-46952380D02*
X30666666Y-46952380D01*
X30761904Y-47000000D01*
X30857142Y-47095238D01*
X30904761Y-47285714D01*
X30904761Y-47619047D01*
X30857142Y-47809523D01*
X30761904Y-47904761D01*
X30666666Y-47952380D01*
X30476190Y-47952380D01*
X30380952Y-47904761D01*
X30285714Y-47809523D01*
X30238095Y-47619047D01*
X30238095Y-47285714D01*
X30285714Y-47095238D01*
X30380952Y-47000000D01*
X30476190Y-46952380D01*
X31857142Y-47000000D02*
X31761904Y-46952380D01*
X31619047Y-46952380D01*
X31476190Y-47000000D01*
X31380952Y-47095238D01*
X31333333Y-47190476D01*
X31285714Y-47380952D01*
X31285714Y-47523809D01*
X31333333Y-47714285D01*
X31380952Y-47809523D01*
X31476190Y-47904761D01*
X31619047Y-47952380D01*
X31714285Y-47952380D01*
X31857142Y-47904761D01*
X31904761Y-47857142D01*
X31904761Y-47523809D01*
X31714285Y-47523809D01*
X32238095Y-46952380D02*
X32857142Y-46952380D01*
X32523809Y-47333333D01*
X32666666Y-47333333D01*
X32761904Y-47380952D01*
X32809523Y-47428571D01*
X32857142Y-47523809D01*
X32857142Y-47761904D01*
X32809523Y-47857142D01*
X32761904Y-47904761D01*
X32666666Y-47952380D01*
X32380952Y-47952380D01*
X32285714Y-47904761D01*
X32238095Y-47857142D01*
X33476190Y-46952380D02*
X33571428Y-46952380D01*
X33666666Y-47000000D01*
X33714285Y-47047619D01*
X33761904Y-47142857D01*
X33809523Y-47333333D01*
X33809523Y-47571428D01*
X33761904Y-47761904D01*
X33714285Y-47857142D01*
X33666666Y-47904761D01*
X33571428Y-47952380D01*
X33476190Y-47952380D01*
X33380952Y-47904761D01*
X33333333Y-47857142D01*
X33285714Y-47761904D01*
X33238095Y-47571428D01*
X33238095Y-47333333D01*
X33285714Y-47142857D01*
X33333333Y-47047619D01*
X33380952Y-47000000D01*
X33476190Y-46952380D01*
X34761904Y-47952380D02*
X34190476Y-47952380D01*
X34476190Y-47952380D02*
X34476190Y-46952380D01*
X34380952Y-47095238D01*
X34285714Y-47190476D01*
X34190476Y-47238095D01*
X5746904Y-8332380D02*
X5746904Y-7332380D01*
X6127857Y-7332380D01*
X6223095Y-7380000D01*
X6270714Y-7427619D01*
X6318333Y-7522857D01*
X6318333Y-7665714D01*
X6270714Y-7760952D01*
X6223095Y-7808571D01*
X6127857Y-7856190D01*
X5746904Y-7856190D01*
X6937380Y-7332380D02*
X7127857Y-7332380D01*
X7223095Y-7380000D01*
X7318333Y-7475238D01*
X7365952Y-7665714D01*
X7365952Y-7999047D01*
X7318333Y-8189523D01*
X7223095Y-8284761D01*
X7127857Y-8332380D01*
X6937380Y-8332380D01*
X6842142Y-8284761D01*
X6746904Y-8189523D01*
X6699285Y-7999047D01*
X6699285Y-7665714D01*
X6746904Y-7475238D01*
X6842142Y-7380000D01*
X6937380Y-7332380D01*
X7699285Y-7332380D02*
X7937380Y-8332380D01*
X8127857Y-7618095D01*
X8318333Y-8332380D01*
X8556428Y-7332380D01*
X8937380Y-7808571D02*
X9270714Y-7808571D01*
X9413571Y-8332380D02*
X8937380Y-8332380D01*
X8937380Y-7332380D01*
X9413571Y-7332380D01*
X10413571Y-8332380D02*
X10080238Y-7856190D01*
X9842142Y-8332380D02*
X9842142Y-7332380D01*
X10223095Y-7332380D01*
X10318333Y-7380000D01*
X10365952Y-7427619D01*
X10413571Y-7522857D01*
X10413571Y-7665714D01*
X10365952Y-7760952D01*
X10318333Y-7808571D01*
X10223095Y-7856190D01*
X9842142Y-7856190D01*
X11365952Y-8332380D02*
X10794523Y-8332380D01*
X11080238Y-8332380D02*
X11080238Y-7332380D01*
X10985000Y-7475238D01*
X10889761Y-7570476D01*
X10794523Y-7618095D01*
X11985000Y-7332380D02*
X12080238Y-7332380D01*
X12175476Y-7380000D01*
X12223095Y-7427619D01*
X12270714Y-7522857D01*
X12318333Y-7713333D01*
X12318333Y-7951428D01*
X12270714Y-8141904D01*
X12223095Y-8237142D01*
X12175476Y-8284761D01*
X12080238Y-8332380D01*
X11985000Y-8332380D01*
X11889761Y-8284761D01*
X11842142Y-8237142D01*
X11794523Y-8141904D01*
X11746904Y-7951428D01*
X11746904Y-7713333D01*
X11794523Y-7522857D01*
X11842142Y-7427619D01*
X11889761Y-7380000D01*
X11985000Y-7332380D01*
X12699285Y-7427619D02*
X12746904Y-7380000D01*
X12842142Y-7332380D01*
X13080238Y-7332380D01*
X13175476Y-7380000D01*
X13223095Y-7427619D01*
X13270714Y-7522857D01*
X13270714Y-7618095D01*
X13223095Y-7760952D01*
X12651666Y-8332380D01*
X13270714Y-8332380D01*
X37076285Y-14692380D02*
X37076285Y-15406666D01*
X37028666Y-15549523D01*
X36933428Y-15644761D01*
X36790571Y-15692380D01*
X36695333Y-15692380D01*
X38123904Y-15692380D02*
X37790571Y-15216190D01*
X37552476Y-15692380D02*
X37552476Y-14692380D01*
X37933428Y-14692380D01*
X38028666Y-14740000D01*
X38076285Y-14787619D01*
X38123904Y-14882857D01*
X38123904Y-15025714D01*
X38076285Y-15120952D01*
X38028666Y-15168571D01*
X37933428Y-15216190D01*
X37552476Y-15216190D01*
X38981047Y-14692380D02*
X38790571Y-14692380D01*
X38695333Y-14740000D01*
X38647714Y-14787619D01*
X38552476Y-14930476D01*
X38504857Y-15120952D01*
X38504857Y-15501904D01*
X38552476Y-15597142D01*
X38600095Y-15644761D01*
X38695333Y-15692380D01*
X38885809Y-15692380D01*
X38981047Y-15644761D01*
X39028666Y-15597142D01*
X39076285Y-15501904D01*
X39076285Y-15263809D01*
X39028666Y-15168571D01*
X38981047Y-15120952D01*
X38885809Y-15073333D01*
X38695333Y-15073333D01*
X38600095Y-15120952D01*
X38552476Y-15168571D01*
X38504857Y-15263809D01*
X39695333Y-14692380D02*
X39790571Y-14692380D01*
X39885809Y-14740000D01*
X39933428Y-14787619D01*
X39981047Y-14882857D01*
X40028666Y-15073333D01*
X40028666Y-15311428D01*
X39981047Y-15501904D01*
X39933428Y-15597142D01*
X39885809Y-15644761D01*
X39790571Y-15692380D01*
X39695333Y-15692380D01*
X39600095Y-15644761D01*
X39552476Y-15597142D01*
X39504857Y-15501904D01*
X39457238Y-15311428D01*
X39457238Y-15073333D01*
X39504857Y-14882857D01*
X39552476Y-14787619D01*
X39600095Y-14740000D01*
X39695333Y-14692380D01*
X40981047Y-15692380D02*
X40409619Y-15692380D01*
X40695333Y-15692380D02*
X40695333Y-14692380D01*
X40600095Y-14835238D01*
X40504857Y-14930476D01*
X40409619Y-14978095D01*
X34782380Y-46140476D02*
X35496666Y-46140476D01*
X35639523Y-46188095D01*
X35734761Y-46283333D01*
X35782380Y-46426190D01*
X35782380Y-46521428D01*
X35782380Y-45188095D02*
X35782380Y-45664285D01*
X34782380Y-45664285D01*
X34782380Y-44426190D02*
X34782380Y-44616666D01*
X34830000Y-44711904D01*
X34877619Y-44759523D01*
X35020476Y-44854761D01*
X35210952Y-44902380D01*
X35591904Y-44902380D01*
X35687142Y-44854761D01*
X35734761Y-44807142D01*
X35782380Y-44711904D01*
X35782380Y-44521428D01*
X35734761Y-44426190D01*
X35687142Y-44378571D01*
X35591904Y-44330952D01*
X35353809Y-44330952D01*
X35258571Y-44378571D01*
X35210952Y-44426190D01*
X35163333Y-44521428D01*
X35163333Y-44711904D01*
X35210952Y-44807142D01*
X35258571Y-44854761D01*
X35353809Y-44902380D01*
X34782380Y-43711904D02*
X34782380Y-43616666D01*
X34830000Y-43521428D01*
X34877619Y-43473809D01*
X34972857Y-43426190D01*
X35163333Y-43378571D01*
X35401428Y-43378571D01*
X35591904Y-43426190D01*
X35687142Y-43473809D01*
X35734761Y-43521428D01*
X35782380Y-43616666D01*
X35782380Y-43711904D01*
X35734761Y-43807142D01*
X35687142Y-43854761D01*
X35591904Y-43902380D01*
X35401428Y-43950000D01*
X35163333Y-43950000D01*
X34972857Y-43902380D01*
X34877619Y-43854761D01*
X34830000Y-43807142D01*
X34782380Y-43711904D01*
X35782380Y-42426190D02*
X35782380Y-42997619D01*
X35782380Y-42711904D02*
X34782380Y-42711904D01*
X34925238Y-42807142D01*
X35020476Y-42902380D01*
X35068095Y-42997619D01*
X27162285Y-6564380D02*
X27162285Y-7278666D01*
X27114666Y-7421523D01*
X27019428Y-7516761D01*
X26876571Y-7564380D01*
X26781333Y-7564380D01*
X28114666Y-6564380D02*
X27638476Y-6564380D01*
X27590857Y-7040571D01*
X27638476Y-6992952D01*
X27733714Y-6945333D01*
X27971809Y-6945333D01*
X28067047Y-6992952D01*
X28114666Y-7040571D01*
X28162285Y-7135809D01*
X28162285Y-7373904D01*
X28114666Y-7469142D01*
X28067047Y-7516761D01*
X27971809Y-7564380D01*
X27733714Y-7564380D01*
X27638476Y-7516761D01*
X27590857Y-7469142D01*
X28781333Y-6564380D02*
X28876571Y-6564380D01*
X28971809Y-6612000D01*
X29019428Y-6659619D01*
X29067047Y-6754857D01*
X29114666Y-6945333D01*
X29114666Y-7183428D01*
X29067047Y-7373904D01*
X29019428Y-7469142D01*
X28971809Y-7516761D01*
X28876571Y-7564380D01*
X28781333Y-7564380D01*
X28686095Y-7516761D01*
X28638476Y-7469142D01*
X28590857Y-7373904D01*
X28543238Y-7183428D01*
X28543238Y-6945333D01*
X28590857Y-6754857D01*
X28638476Y-6659619D01*
X28686095Y-6612000D01*
X28781333Y-6564380D01*
X30067047Y-7564380D02*
X29495619Y-7564380D01*
X29781333Y-7564380D02*
X29781333Y-6564380D01*
X29686095Y-6707238D01*
X29590857Y-6802476D01*
X29495619Y-6850095D01*
X20964285Y-56502380D02*
X20964285Y-57216666D01*
X20916666Y-57359523D01*
X20821428Y-57454761D01*
X20678571Y-57502380D01*
X20583333Y-57502380D01*
X21869047Y-56835714D02*
X21869047Y-57502380D01*
X21630952Y-56454761D02*
X21392857Y-57169047D01*
X22011904Y-57169047D01*
X22583333Y-56502380D02*
X22678571Y-56502380D01*
X22773809Y-56550000D01*
X22821428Y-56597619D01*
X22869047Y-56692857D01*
X22916666Y-56883333D01*
X22916666Y-57121428D01*
X22869047Y-57311904D01*
X22821428Y-57407142D01*
X22773809Y-57454761D01*
X22678571Y-57502380D01*
X22583333Y-57502380D01*
X22488095Y-57454761D01*
X22440476Y-57407142D01*
X22392857Y-57311904D01*
X22345238Y-57121428D01*
X22345238Y-56883333D01*
X22392857Y-56692857D01*
X22440476Y-56597619D01*
X22488095Y-56550000D01*
X22583333Y-56502380D01*
X23869047Y-57502380D02*
X23297619Y-57502380D01*
X23583333Y-57502380D02*
X23583333Y-56502380D01*
X23488095Y-56645238D01*
X23392857Y-56740476D01*
X23297619Y-56788095D01*
X20809523Y-49452380D02*
X20809523Y-48452380D01*
X21047619Y-48452380D01*
X21190476Y-48500000D01*
X21285714Y-48595238D01*
X21333333Y-48690476D01*
X21380952Y-48880952D01*
X21380952Y-49023809D01*
X21333333Y-49214285D01*
X21285714Y-49309523D01*
X21190476Y-49404761D01*
X21047619Y-49452380D01*
X20809523Y-49452380D01*
X22238095Y-48785714D02*
X22238095Y-49452380D01*
X22000000Y-48404761D02*
X21761904Y-49119047D01*
X22380952Y-49119047D01*
X22952380Y-48452380D02*
X23047619Y-48452380D01*
X23142857Y-48500000D01*
X23190476Y-48547619D01*
X23238095Y-48642857D01*
X23285714Y-48833333D01*
X23285714Y-49071428D01*
X23238095Y-49261904D01*
X23190476Y-49357142D01*
X23142857Y-49404761D01*
X23047619Y-49452380D01*
X22952380Y-49452380D01*
X22857142Y-49404761D01*
X22809523Y-49357142D01*
X22761904Y-49261904D01*
X22714285Y-49071428D01*
X22714285Y-48833333D01*
X22761904Y-48642857D01*
X22809523Y-48547619D01*
X22857142Y-48500000D01*
X22952380Y-48452380D01*
X24238095Y-49452380D02*
X23666666Y-49452380D01*
X23952380Y-49452380D02*
X23952380Y-48452380D01*
X23857142Y-48595238D01*
X23761904Y-48690476D01*
X23666666Y-48738095D01*
X34996380Y-37758476D02*
X33996380Y-37758476D01*
X33996380Y-37520380D01*
X34044000Y-37377523D01*
X34139238Y-37282285D01*
X34234476Y-37234666D01*
X34424952Y-37187047D01*
X34567809Y-37187047D01*
X34758285Y-37234666D01*
X34853523Y-37282285D01*
X34948761Y-37377523D01*
X34996380Y-37520380D01*
X34996380Y-37758476D01*
X33996380Y-36853714D02*
X33996380Y-36234666D01*
X34377333Y-36568000D01*
X34377333Y-36425142D01*
X34424952Y-36329904D01*
X34472571Y-36282285D01*
X34567809Y-36234666D01*
X34805904Y-36234666D01*
X34901142Y-36282285D01*
X34948761Y-36329904D01*
X34996380Y-36425142D01*
X34996380Y-36710857D01*
X34948761Y-36806095D01*
X34901142Y-36853714D01*
X33996380Y-35615619D02*
X33996380Y-35520380D01*
X34044000Y-35425142D01*
X34091619Y-35377523D01*
X34186857Y-35329904D01*
X34377333Y-35282285D01*
X34615428Y-35282285D01*
X34805904Y-35329904D01*
X34901142Y-35377523D01*
X34948761Y-35425142D01*
X34996380Y-35520380D01*
X34996380Y-35615619D01*
X34948761Y-35710857D01*
X34901142Y-35758476D01*
X34805904Y-35806095D01*
X34615428Y-35853714D01*
X34377333Y-35853714D01*
X34186857Y-35806095D01*
X34091619Y-35758476D01*
X34044000Y-35710857D01*
X33996380Y-35615619D01*
X33996380Y-34948952D02*
X33996380Y-34329904D01*
X34377333Y-34663238D01*
X34377333Y-34520380D01*
X34424952Y-34425142D01*
X34472571Y-34377523D01*
X34567809Y-34329904D01*
X34805904Y-34329904D01*
X34901142Y-34377523D01*
X34948761Y-34425142D01*
X34996380Y-34520380D01*
X34996380Y-34806095D01*
X34948761Y-34901333D01*
X34901142Y-34948952D01*
X33472380Y-37758476D02*
X32472380Y-37758476D01*
X32472380Y-37520380D01*
X32520000Y-37377523D01*
X32615238Y-37282285D01*
X32710476Y-37234666D01*
X32900952Y-37187047D01*
X33043809Y-37187047D01*
X33234285Y-37234666D01*
X33329523Y-37282285D01*
X33424761Y-37377523D01*
X33472380Y-37520380D01*
X33472380Y-37758476D01*
X32472380Y-36853714D02*
X32472380Y-36234666D01*
X32853333Y-36568000D01*
X32853333Y-36425142D01*
X32900952Y-36329904D01*
X32948571Y-36282285D01*
X33043809Y-36234666D01*
X33281904Y-36234666D01*
X33377142Y-36282285D01*
X33424761Y-36329904D01*
X33472380Y-36425142D01*
X33472380Y-36710857D01*
X33424761Y-36806095D01*
X33377142Y-36853714D01*
X32472380Y-35615619D02*
X32472380Y-35520380D01*
X32520000Y-35425142D01*
X32567619Y-35377523D01*
X32662857Y-35329904D01*
X32853333Y-35282285D01*
X33091428Y-35282285D01*
X33281904Y-35329904D01*
X33377142Y-35377523D01*
X33424761Y-35425142D01*
X33472380Y-35520380D01*
X33472380Y-35615619D01*
X33424761Y-35710857D01*
X33377142Y-35758476D01*
X33281904Y-35806095D01*
X33091428Y-35853714D01*
X32853333Y-35853714D01*
X32662857Y-35806095D01*
X32567619Y-35758476D01*
X32520000Y-35710857D01*
X32472380Y-35615619D01*
X32567619Y-34901333D02*
X32520000Y-34853714D01*
X32472380Y-34758476D01*
X32472380Y-34520380D01*
X32520000Y-34425142D01*
X32567619Y-34377523D01*
X32662857Y-34329904D01*
X32758095Y-34329904D01*
X32900952Y-34377523D01*
X33472380Y-34948952D01*
X33472380Y-34329904D01*
X31948380Y-37758476D02*
X30948380Y-37758476D01*
X30948380Y-37520380D01*
X30996000Y-37377523D01*
X31091238Y-37282285D01*
X31186476Y-37234666D01*
X31376952Y-37187047D01*
X31519809Y-37187047D01*
X31710285Y-37234666D01*
X31805523Y-37282285D01*
X31900761Y-37377523D01*
X31948380Y-37520380D01*
X31948380Y-37758476D01*
X30948380Y-36853714D02*
X30948380Y-36234666D01*
X31329333Y-36568000D01*
X31329333Y-36425142D01*
X31376952Y-36329904D01*
X31424571Y-36282285D01*
X31519809Y-36234666D01*
X31757904Y-36234666D01*
X31853142Y-36282285D01*
X31900761Y-36329904D01*
X31948380Y-36425142D01*
X31948380Y-36710857D01*
X31900761Y-36806095D01*
X31853142Y-36853714D01*
X30948380Y-35615619D02*
X30948380Y-35520380D01*
X30996000Y-35425142D01*
X31043619Y-35377523D01*
X31138857Y-35329904D01*
X31329333Y-35282285D01*
X31567428Y-35282285D01*
X31757904Y-35329904D01*
X31853142Y-35377523D01*
X31900761Y-35425142D01*
X31948380Y-35520380D01*
X31948380Y-35615619D01*
X31900761Y-35710857D01*
X31853142Y-35758476D01*
X31757904Y-35806095D01*
X31567428Y-35853714D01*
X31329333Y-35853714D01*
X31138857Y-35806095D01*
X31043619Y-35758476D01*
X30996000Y-35710857D01*
X30948380Y-35615619D01*
X31948380Y-34329904D02*
X31948380Y-34901333D01*
X31948380Y-34615619D02*
X30948380Y-34615619D01*
X31091238Y-34710857D01*
X31186476Y-34806095D01*
X31234095Y-34901333D01*
X3151142Y-10517047D02*
X3198761Y-10564666D01*
X3246380Y-10707523D01*
X3246380Y-10802761D01*
X3198761Y-10945619D01*
X3103523Y-11040857D01*
X3008285Y-11088476D01*
X2817809Y-11136095D01*
X2674952Y-11136095D01*
X2484476Y-11088476D01*
X2389238Y-11040857D01*
X2294000Y-10945619D01*
X2246380Y-10802761D01*
X2246380Y-10707523D01*
X2294000Y-10564666D01*
X2341619Y-10517047D01*
X2246380Y-9612285D02*
X2246380Y-10088476D01*
X2722571Y-10136095D01*
X2674952Y-10088476D01*
X2627333Y-9993238D01*
X2627333Y-9755142D01*
X2674952Y-9659904D01*
X2722571Y-9612285D01*
X2817809Y-9564666D01*
X3055904Y-9564666D01*
X3151142Y-9612285D01*
X3198761Y-9659904D01*
X3246380Y-9755142D01*
X3246380Y-9993238D01*
X3198761Y-10088476D01*
X3151142Y-10136095D01*
X2246380Y-8945619D02*
X2246380Y-8850380D01*
X2294000Y-8755142D01*
X2341619Y-8707523D01*
X2436857Y-8659904D01*
X2627333Y-8612285D01*
X2865428Y-8612285D01*
X3055904Y-8659904D01*
X3151142Y-8707523D01*
X3198761Y-8755142D01*
X3246380Y-8850380D01*
X3246380Y-8945619D01*
X3198761Y-9040857D01*
X3151142Y-9088476D01*
X3055904Y-9136095D01*
X2865428Y-9183714D01*
X2627333Y-9183714D01*
X2436857Y-9136095D01*
X2341619Y-9088476D01*
X2294000Y-9040857D01*
X2246380Y-8945619D01*
X2341619Y-8231333D02*
X2294000Y-8183714D01*
X2246380Y-8088476D01*
X2246380Y-7850380D01*
X2294000Y-7755142D01*
X2341619Y-7707523D01*
X2436857Y-7659904D01*
X2532095Y-7659904D01*
X2674952Y-7707523D01*
X3246380Y-8278952D01*
X3246380Y-7659904D01*
X1627142Y-10517047D02*
X1674761Y-10564666D01*
X1722380Y-10707523D01*
X1722380Y-10802761D01*
X1674761Y-10945619D01*
X1579523Y-11040857D01*
X1484285Y-11088476D01*
X1293809Y-11136095D01*
X1150952Y-11136095D01*
X960476Y-11088476D01*
X865238Y-11040857D01*
X769999Y-10945619D01*
X722380Y-10802761D01*
X722380Y-10707523D01*
X770000Y-10564666D01*
X817619Y-10517047D01*
X722380Y-9612285D02*
X722380Y-10088476D01*
X1198571Y-10136095D01*
X1150952Y-10088476D01*
X1103333Y-9993238D01*
X1103333Y-9755142D01*
X1150952Y-9659904D01*
X1198571Y-9612285D01*
X1293809Y-9564666D01*
X1531904Y-9564666D01*
X1627142Y-9612285D01*
X1674761Y-9659904D01*
X1722380Y-9755142D01*
X1722380Y-9993238D01*
X1674761Y-10088476D01*
X1627142Y-10136095D01*
X722380Y-8945619D02*
X722380Y-8850380D01*
X770000Y-8755142D01*
X817619Y-8707523D01*
X912857Y-8659904D01*
X1103333Y-8612285D01*
X1341428Y-8612285D01*
X1531904Y-8659904D01*
X1627142Y-8707523D01*
X1674761Y-8755142D01*
X1722380Y-8850380D01*
X1722380Y-8945619D01*
X1674761Y-9040857D01*
X1627142Y-9088476D01*
X1531904Y-9136095D01*
X1341428Y-9183714D01*
X1103333Y-9183714D01*
X912857Y-9136095D01*
X817619Y-9088476D01*
X770000Y-9040857D01*
X722380Y-8945619D01*
X1722380Y-7659904D02*
X1722380Y-8231333D01*
X1722380Y-7945619D02*
X722380Y-7945619D01*
X865238Y-8040857D01*
X960476Y-8136095D01*
X1008095Y-8231333D01*
X20857142Y-32619047D02*
X20904761Y-32666666D01*
X20952380Y-32809523D01*
X20952380Y-32904761D01*
X20904761Y-33047619D01*
X20809523Y-33142857D01*
X20714285Y-33190476D01*
X20523809Y-33238095D01*
X20380952Y-33238095D01*
X20190476Y-33190476D01*
X20095238Y-33142857D01*
X20000000Y-33047619D01*
X19952380Y-32904761D01*
X19952380Y-32809523D01*
X20000000Y-32666666D01*
X20047619Y-32619047D01*
X20285714Y-31761904D02*
X20952380Y-31761904D01*
X19904761Y-32000000D02*
X20619047Y-32238095D01*
X20619047Y-31619047D01*
X19952380Y-31047619D02*
X19952380Y-30952380D01*
X20000000Y-30857142D01*
X20047619Y-30809523D01*
X20142857Y-30761904D01*
X20333333Y-30714285D01*
X20571428Y-30714285D01*
X20761904Y-30761904D01*
X20857142Y-30809523D01*
X20904761Y-30857142D01*
X20952380Y-30952380D01*
X20952380Y-31047619D01*
X20904761Y-31142857D01*
X20857142Y-31190476D01*
X20761904Y-31238095D01*
X20571428Y-31285714D01*
X20333333Y-31285714D01*
X20142857Y-31238095D01*
X20047619Y-31190476D01*
X20000000Y-31142857D01*
X19952380Y-31047619D01*
X20380952Y-30142857D02*
X20333333Y-30238095D01*
X20285714Y-30285714D01*
X20190476Y-30333333D01*
X20142857Y-30333333D01*
X20047619Y-30285714D01*
X20000000Y-30238095D01*
X19952380Y-30142857D01*
X19952380Y-29952380D01*
X20000000Y-29857142D01*
X20047619Y-29809523D01*
X20142857Y-29761904D01*
X20190476Y-29761904D01*
X20285714Y-29809523D01*
X20333333Y-29857142D01*
X20380952Y-29952380D01*
X20380952Y-30142857D01*
X20428571Y-30238095D01*
X20476190Y-30285714D01*
X20571428Y-30333333D01*
X20761904Y-30333333D01*
X20857142Y-30285714D01*
X20904761Y-30238095D01*
X20952380Y-30142857D01*
X20952380Y-29952380D01*
X20904761Y-29857142D01*
X20857142Y-29809523D01*
X20761904Y-29761904D01*
X20571428Y-29761904D01*
X20476190Y-29809523D01*
X20428571Y-29857142D01*
X20380952Y-29952380D01*
X18899142Y-48109047D02*
X18946761Y-48156666D01*
X18994380Y-48299523D01*
X18994380Y-48394761D01*
X18946761Y-48537619D01*
X18851523Y-48632857D01*
X18756285Y-48680476D01*
X18565809Y-48728095D01*
X18422952Y-48728095D01*
X18232476Y-48680476D01*
X18137238Y-48632857D01*
X18042000Y-48537619D01*
X17994380Y-48394761D01*
X17994380Y-48299523D01*
X18042000Y-48156666D01*
X18089619Y-48109047D01*
X18327714Y-47251904D02*
X18994380Y-47251904D01*
X17946761Y-47490000D02*
X18661047Y-47728095D01*
X18661047Y-47109047D01*
X17994380Y-46537619D02*
X17994380Y-46442380D01*
X18042000Y-46347142D01*
X18089619Y-46299523D01*
X18184857Y-46251904D01*
X18375333Y-46204285D01*
X18613428Y-46204285D01*
X18803904Y-46251904D01*
X18899142Y-46299523D01*
X18946761Y-46347142D01*
X18994380Y-46442380D01*
X18994380Y-46537619D01*
X18946761Y-46632857D01*
X18899142Y-46680476D01*
X18803904Y-46728095D01*
X18613428Y-46775714D01*
X18375333Y-46775714D01*
X18184857Y-46728095D01*
X18089619Y-46680476D01*
X18042000Y-46632857D01*
X17994380Y-46537619D01*
X17994380Y-45870952D02*
X17994380Y-45204285D01*
X18994380Y-45632857D01*
X17357142Y-44045047D02*
X17404761Y-44092666D01*
X17452380Y-44235523D01*
X17452380Y-44330761D01*
X17404761Y-44473619D01*
X17309523Y-44568857D01*
X17214285Y-44616476D01*
X17023809Y-44664095D01*
X16880952Y-44664095D01*
X16690476Y-44616476D01*
X16595238Y-44568857D01*
X16500000Y-44473619D01*
X16452380Y-44330761D01*
X16452380Y-44235523D01*
X16500000Y-44092666D01*
X16547619Y-44045047D01*
X16785714Y-43187904D02*
X17452380Y-43187904D01*
X16404761Y-43426000D02*
X17119047Y-43664095D01*
X17119047Y-43045047D01*
X16452380Y-42473619D02*
X16452380Y-42378380D01*
X16500000Y-42283142D01*
X16547619Y-42235523D01*
X16642857Y-42187904D01*
X16833333Y-42140285D01*
X17071428Y-42140285D01*
X17261904Y-42187904D01*
X17357142Y-42235523D01*
X17404761Y-42283142D01*
X17452380Y-42378380D01*
X17452380Y-42473619D01*
X17404761Y-42568857D01*
X17357142Y-42616476D01*
X17261904Y-42664095D01*
X17071428Y-42711714D01*
X16833333Y-42711714D01*
X16642857Y-42664095D01*
X16547619Y-42616476D01*
X16500000Y-42568857D01*
X16452380Y-42473619D01*
X16452380Y-41283142D02*
X16452380Y-41473619D01*
X16500000Y-41568857D01*
X16547619Y-41616476D01*
X16690476Y-41711714D01*
X16880952Y-41759333D01*
X17261904Y-41759333D01*
X17357142Y-41711714D01*
X17404761Y-41664095D01*
X17452380Y-41568857D01*
X17452380Y-41378380D01*
X17404761Y-41283142D01*
X17357142Y-41235523D01*
X17261904Y-41187904D01*
X17023809Y-41187904D01*
X16928571Y-41235523D01*
X16880952Y-41283142D01*
X16833333Y-41378380D01*
X16833333Y-41568857D01*
X16880952Y-41664095D01*
X16928571Y-41711714D01*
X17023809Y-41759333D01*
X26857142Y-47619047D02*
X26904761Y-47666666D01*
X26952380Y-47809523D01*
X26952380Y-47904761D01*
X26904761Y-48047619D01*
X26809523Y-48142857D01*
X26714285Y-48190476D01*
X26523809Y-48238095D01*
X26380952Y-48238095D01*
X26190476Y-48190476D01*
X26095238Y-48142857D01*
X26000000Y-48047619D01*
X25952380Y-47904761D01*
X25952380Y-47809523D01*
X26000000Y-47666666D01*
X26047619Y-47619047D01*
X26285714Y-46761904D02*
X26952380Y-46761904D01*
X25904761Y-47000000D02*
X26619047Y-47238095D01*
X26619047Y-46619047D01*
X25952380Y-46047619D02*
X25952380Y-45952380D01*
X26000000Y-45857142D01*
X26047619Y-45809523D01*
X26142857Y-45761904D01*
X26333333Y-45714285D01*
X26571428Y-45714285D01*
X26761904Y-45761904D01*
X26857142Y-45809523D01*
X26904761Y-45857142D01*
X26952380Y-45952380D01*
X26952380Y-46047619D01*
X26904761Y-46142857D01*
X26857142Y-46190476D01*
X26761904Y-46238095D01*
X26571428Y-46285714D01*
X26333333Y-46285714D01*
X26142857Y-46238095D01*
X26047619Y-46190476D01*
X26000000Y-46142857D01*
X25952380Y-46047619D01*
X25952380Y-44809523D02*
X25952380Y-45285714D01*
X26428571Y-45333333D01*
X26380952Y-45285714D01*
X26333333Y-45190476D01*
X26333333Y-44952380D01*
X26380952Y-44857142D01*
X26428571Y-44809523D01*
X26523809Y-44761904D01*
X26761904Y-44761904D01*
X26857142Y-44809523D01*
X26904761Y-44857142D01*
X26952380Y-44952380D01*
X26952380Y-45190476D01*
X26904761Y-45285714D01*
X26857142Y-45333333D01*
X29857142Y-22119047D02*
X29904761Y-22166666D01*
X29952380Y-22309523D01*
X29952380Y-22404761D01*
X29904761Y-22547619D01*
X29809523Y-22642857D01*
X29714285Y-22690476D01*
X29523809Y-22738095D01*
X29380952Y-22738095D01*
X29190476Y-22690476D01*
X29095238Y-22642857D01*
X29000000Y-22547619D01*
X28952380Y-22404761D01*
X28952380Y-22309523D01*
X29000000Y-22166666D01*
X29047619Y-22119047D01*
X29285714Y-21261904D02*
X29952380Y-21261904D01*
X28904761Y-21500000D02*
X29619047Y-21738095D01*
X29619047Y-21119047D01*
X28952380Y-20547619D02*
X28952380Y-20452380D01*
X29000000Y-20357142D01*
X29047619Y-20309523D01*
X29142857Y-20261904D01*
X29333333Y-20214285D01*
X29571428Y-20214285D01*
X29761904Y-20261904D01*
X29857142Y-20309523D01*
X29904761Y-20357142D01*
X29952380Y-20452380D01*
X29952380Y-20547619D01*
X29904761Y-20642857D01*
X29857142Y-20690476D01*
X29761904Y-20738095D01*
X29571428Y-20785714D01*
X29333333Y-20785714D01*
X29142857Y-20738095D01*
X29047619Y-20690476D01*
X29000000Y-20642857D01*
X28952380Y-20547619D01*
X29285714Y-19357142D02*
X29952380Y-19357142D01*
X28904761Y-19595238D02*
X29619047Y-19833333D01*
X29619047Y-19214285D01*
X27857142Y-40619047D02*
X27904761Y-40666666D01*
X27952380Y-40809523D01*
X27952380Y-40904761D01*
X27904761Y-41047619D01*
X27809523Y-41142857D01*
X27714285Y-41190476D01*
X27523809Y-41238095D01*
X27380952Y-41238095D01*
X27190476Y-41190476D01*
X27095238Y-41142857D01*
X27000000Y-41047619D01*
X26952380Y-40904761D01*
X26952380Y-40809523D01*
X27000000Y-40666666D01*
X27047619Y-40619047D01*
X27285714Y-39761904D02*
X27952380Y-39761904D01*
X26904761Y-40000000D02*
X27619047Y-40238095D01*
X27619047Y-39619047D01*
X26952380Y-39047619D02*
X26952380Y-38952380D01*
X27000000Y-38857142D01*
X27047619Y-38809523D01*
X27142857Y-38761904D01*
X27333333Y-38714285D01*
X27571428Y-38714285D01*
X27761904Y-38761904D01*
X27857142Y-38809523D01*
X27904761Y-38857142D01*
X27952380Y-38952380D01*
X27952380Y-39047619D01*
X27904761Y-39142857D01*
X27857142Y-39190476D01*
X27761904Y-39238095D01*
X27571428Y-39285714D01*
X27333333Y-39285714D01*
X27142857Y-39238095D01*
X27047619Y-39190476D01*
X27000000Y-39142857D01*
X26952380Y-39047619D01*
X26952380Y-38380952D02*
X26952380Y-37761904D01*
X27333333Y-38095238D01*
X27333333Y-37952380D01*
X27380952Y-37857142D01*
X27428571Y-37809523D01*
X27523809Y-37761904D01*
X27761904Y-37761904D01*
X27857142Y-37809523D01*
X27904761Y-37857142D01*
X27952380Y-37952380D01*
X27952380Y-38238095D01*
X27904761Y-38333333D01*
X27857142Y-38380952D01*
X25357142Y-22119047D02*
X25404761Y-22166666D01*
X25452380Y-22309523D01*
X25452380Y-22404761D01*
X25404761Y-22547619D01*
X25309523Y-22642857D01*
X25214285Y-22690476D01*
X25023809Y-22738095D01*
X24880952Y-22738095D01*
X24690476Y-22690476D01*
X24595238Y-22642857D01*
X24500000Y-22547619D01*
X24452380Y-22404761D01*
X24452380Y-22309523D01*
X24500000Y-22166666D01*
X24547619Y-22119047D01*
X24785714Y-21261904D02*
X25452380Y-21261904D01*
X24404761Y-21500000D02*
X25119047Y-21738095D01*
X25119047Y-21119047D01*
X24452380Y-20547619D02*
X24452380Y-20452380D01*
X24500000Y-20357142D01*
X24547619Y-20309523D01*
X24642857Y-20261904D01*
X24833333Y-20214285D01*
X25071428Y-20214285D01*
X25261904Y-20261904D01*
X25357142Y-20309523D01*
X25404761Y-20357142D01*
X25452380Y-20452380D01*
X25452380Y-20547619D01*
X25404761Y-20642857D01*
X25357142Y-20690476D01*
X25261904Y-20738095D01*
X25071428Y-20785714D01*
X24833333Y-20785714D01*
X24642857Y-20738095D01*
X24547619Y-20690476D01*
X24500000Y-20642857D01*
X24452380Y-20547619D01*
X24547619Y-19833333D02*
X24500000Y-19785714D01*
X24452380Y-19690476D01*
X24452380Y-19452380D01*
X24500000Y-19357142D01*
X24547619Y-19309523D01*
X24642857Y-19261904D01*
X24738095Y-19261904D01*
X24880952Y-19309523D01*
X25452380Y-19880952D01*
X25452380Y-19261904D01*
X26857142Y-22119047D02*
X26904761Y-22166666D01*
X26952380Y-22309523D01*
X26952380Y-22404761D01*
X26904761Y-22547619D01*
X26809523Y-22642857D01*
X26714285Y-22690476D01*
X26523809Y-22738095D01*
X26380952Y-22738095D01*
X26190476Y-22690476D01*
X26095238Y-22642857D01*
X26000000Y-22547619D01*
X25952380Y-22404761D01*
X25952380Y-22309523D01*
X26000000Y-22166666D01*
X26047619Y-22119047D01*
X26285714Y-21261904D02*
X26952380Y-21261904D01*
X25904761Y-21500000D02*
X26619047Y-21738095D01*
X26619047Y-21119047D01*
X25952380Y-20547619D02*
X25952380Y-20452380D01*
X26000000Y-20357142D01*
X26047619Y-20309523D01*
X26142857Y-20261904D01*
X26333333Y-20214285D01*
X26571428Y-20214285D01*
X26761904Y-20261904D01*
X26857142Y-20309523D01*
X26904761Y-20357142D01*
X26952380Y-20452380D01*
X26952380Y-20547619D01*
X26904761Y-20642857D01*
X26857142Y-20690476D01*
X26761904Y-20738095D01*
X26571428Y-20785714D01*
X26333333Y-20785714D01*
X26142857Y-20738095D01*
X26047619Y-20690476D01*
X26000000Y-20642857D01*
X25952380Y-20547619D01*
X26952380Y-19261904D02*
X26952380Y-19833333D01*
X26952380Y-19547619D02*
X25952380Y-19547619D01*
X26095238Y-19642857D01*
X26190476Y-19738095D01*
X26238095Y-19833333D01*
X37996952Y-28805142D02*
X37949333Y-28852761D01*
X37806476Y-28900380D01*
X37711238Y-28900380D01*
X37568380Y-28852761D01*
X37473142Y-28757523D01*
X37425523Y-28662285D01*
X37377904Y-28471809D01*
X37377904Y-28328952D01*
X37425523Y-28138476D01*
X37473142Y-28043238D01*
X37568380Y-27948000D01*
X37711238Y-27900380D01*
X37806476Y-27900380D01*
X37949333Y-27948000D01*
X37996952Y-27995619D01*
X38330285Y-27900380D02*
X38949333Y-27900380D01*
X38616000Y-28281333D01*
X38758857Y-28281333D01*
X38854095Y-28328952D01*
X38901714Y-28376571D01*
X38949333Y-28471809D01*
X38949333Y-28709904D01*
X38901714Y-28805142D01*
X38854095Y-28852761D01*
X38758857Y-28900380D01*
X38473142Y-28900380D01*
X38377904Y-28852761D01*
X38330285Y-28805142D01*
X39568380Y-27900380D02*
X39663619Y-27900380D01*
X39758857Y-27948000D01*
X39806476Y-27995619D01*
X39854095Y-28090857D01*
X39901714Y-28281333D01*
X39901714Y-28519428D01*
X39854095Y-28709904D01*
X39806476Y-28805142D01*
X39758857Y-28852761D01*
X39663619Y-28900380D01*
X39568380Y-28900380D01*
X39473142Y-28852761D01*
X39425523Y-28805142D01*
X39377904Y-28709904D01*
X39330285Y-28519428D01*
X39330285Y-28281333D01*
X39377904Y-28090857D01*
X39425523Y-27995619D01*
X39473142Y-27948000D01*
X39568380Y-27900380D01*
X40235047Y-27900380D02*
X40901714Y-27900380D01*
X40473142Y-28900380D01*
X37996952Y-31853142D02*
X37949333Y-31900761D01*
X37806476Y-31948380D01*
X37711238Y-31948380D01*
X37568380Y-31900761D01*
X37473142Y-31805523D01*
X37425523Y-31710285D01*
X37377904Y-31519809D01*
X37377904Y-31376952D01*
X37425523Y-31186476D01*
X37473142Y-31091238D01*
X37568380Y-30996000D01*
X37711238Y-30948380D01*
X37806476Y-30948380D01*
X37949333Y-30996000D01*
X37996952Y-31043619D01*
X38330285Y-30948380D02*
X38949333Y-30948380D01*
X38616000Y-31329333D01*
X38758857Y-31329333D01*
X38854095Y-31376952D01*
X38901714Y-31424571D01*
X38949333Y-31519809D01*
X38949333Y-31757904D01*
X38901714Y-31853142D01*
X38854095Y-31900761D01*
X38758857Y-31948380D01*
X38473142Y-31948380D01*
X38377904Y-31900761D01*
X38330285Y-31853142D01*
X39568380Y-30948380D02*
X39663619Y-30948380D01*
X39758857Y-30996000D01*
X39806476Y-31043619D01*
X39854095Y-31138857D01*
X39901714Y-31329333D01*
X39901714Y-31567428D01*
X39854095Y-31757904D01*
X39806476Y-31853142D01*
X39758857Y-31900761D01*
X39663619Y-31948380D01*
X39568380Y-31948380D01*
X39473142Y-31900761D01*
X39425523Y-31853142D01*
X39377904Y-31757904D01*
X39330285Y-31567428D01*
X39330285Y-31329333D01*
X39377904Y-31138857D01*
X39425523Y-31043619D01*
X39473142Y-30996000D01*
X39568380Y-30948380D01*
X40758857Y-30948380D02*
X40568380Y-30948380D01*
X40473142Y-30996000D01*
X40425523Y-31043619D01*
X40330285Y-31186476D01*
X40282666Y-31376952D01*
X40282666Y-31757904D01*
X40330285Y-31853142D01*
X40377904Y-31900761D01*
X40473142Y-31948380D01*
X40663619Y-31948380D01*
X40758857Y-31900761D01*
X40806476Y-31853142D01*
X40854095Y-31757904D01*
X40854095Y-31519809D01*
X40806476Y-31424571D01*
X40758857Y-31376952D01*
X40663619Y-31329333D01*
X40473142Y-31329333D01*
X40377904Y-31376952D01*
X40330285Y-31424571D01*
X40282666Y-31519809D01*
X37996952Y-30329142D02*
X37949333Y-30376761D01*
X37806476Y-30424380D01*
X37711238Y-30424380D01*
X37568380Y-30376761D01*
X37473142Y-30281523D01*
X37425523Y-30186285D01*
X37377904Y-29995809D01*
X37377904Y-29852952D01*
X37425523Y-29662476D01*
X37473142Y-29567238D01*
X37568380Y-29472000D01*
X37711238Y-29424380D01*
X37806476Y-29424380D01*
X37949333Y-29472000D01*
X37996952Y-29519619D01*
X38330285Y-29424380D02*
X38949333Y-29424380D01*
X38616000Y-29805333D01*
X38758857Y-29805333D01*
X38854095Y-29852952D01*
X38901714Y-29900571D01*
X38949333Y-29995809D01*
X38949333Y-30233904D01*
X38901714Y-30329142D01*
X38854095Y-30376761D01*
X38758857Y-30424380D01*
X38473142Y-30424380D01*
X38377904Y-30376761D01*
X38330285Y-30329142D01*
X39568380Y-29424380D02*
X39663619Y-29424380D01*
X39758857Y-29472000D01*
X39806476Y-29519619D01*
X39854095Y-29614857D01*
X39901714Y-29805333D01*
X39901714Y-30043428D01*
X39854095Y-30233904D01*
X39806476Y-30329142D01*
X39758857Y-30376761D01*
X39663619Y-30424380D01*
X39568380Y-30424380D01*
X39473142Y-30376761D01*
X39425523Y-30329142D01*
X39377904Y-30233904D01*
X39330285Y-30043428D01*
X39330285Y-29805333D01*
X39377904Y-29614857D01*
X39425523Y-29519619D01*
X39473142Y-29472000D01*
X39568380Y-29424380D01*
X40806476Y-29424380D02*
X40330285Y-29424380D01*
X40282666Y-29900571D01*
X40330285Y-29852952D01*
X40425523Y-29805333D01*
X40663619Y-29805333D01*
X40758857Y-29852952D01*
X40806476Y-29900571D01*
X40854095Y-29995809D01*
X40854095Y-30233904D01*
X40806476Y-30329142D01*
X40758857Y-30376761D01*
X40663619Y-30424380D01*
X40425523Y-30424380D01*
X40330285Y-30376761D01*
X40282666Y-30329142D01*
X57667142Y-35663047D02*
X57714761Y-35710666D01*
X57762380Y-35853523D01*
X57762380Y-35948761D01*
X57714761Y-36091619D01*
X57619523Y-36186857D01*
X57524285Y-36234476D01*
X57333809Y-36282095D01*
X57190952Y-36282095D01*
X57000476Y-36234476D01*
X56905238Y-36186857D01*
X56810000Y-36091619D01*
X56762380Y-35948761D01*
X56762380Y-35853523D01*
X56810000Y-35710666D01*
X56857619Y-35663047D01*
X56762380Y-35329714D02*
X56762380Y-34710666D01*
X57143333Y-35044000D01*
X57143333Y-34901142D01*
X57190952Y-34805904D01*
X57238571Y-34758285D01*
X57333809Y-34710666D01*
X57571904Y-34710666D01*
X57667142Y-34758285D01*
X57714761Y-34805904D01*
X57762380Y-34901142D01*
X57762380Y-35186857D01*
X57714761Y-35282095D01*
X57667142Y-35329714D01*
X56762380Y-34091619D02*
X56762380Y-33996380D01*
X56810000Y-33901142D01*
X56857619Y-33853523D01*
X56952857Y-33805904D01*
X57143333Y-33758285D01*
X57381428Y-33758285D01*
X57571904Y-33805904D01*
X57667142Y-33853523D01*
X57714761Y-33901142D01*
X57762380Y-33996380D01*
X57762380Y-34091619D01*
X57714761Y-34186857D01*
X57667142Y-34234476D01*
X57571904Y-34282095D01*
X57381428Y-34329714D01*
X57143333Y-34329714D01*
X56952857Y-34282095D01*
X56857619Y-34234476D01*
X56810000Y-34186857D01*
X56762380Y-34091619D01*
X57095714Y-32901142D02*
X57762380Y-32901142D01*
X56714761Y-33139238D02*
X57429047Y-33377333D01*
X57429047Y-32758285D01*
X45155142Y-23217047D02*
X45202761Y-23264666D01*
X45250380Y-23407523D01*
X45250380Y-23502761D01*
X45202761Y-23645619D01*
X45107523Y-23740857D01*
X45012285Y-23788476D01*
X44821809Y-23836095D01*
X44678952Y-23836095D01*
X44488476Y-23788476D01*
X44393238Y-23740857D01*
X44298000Y-23645619D01*
X44250380Y-23502761D01*
X44250380Y-23407523D01*
X44298000Y-23264666D01*
X44345619Y-23217047D01*
X44250380Y-22883714D02*
X44250380Y-22264666D01*
X44631333Y-22598000D01*
X44631333Y-22455142D01*
X44678952Y-22359904D01*
X44726571Y-22312285D01*
X44821809Y-22264666D01*
X45059904Y-22264666D01*
X45155142Y-22312285D01*
X45202761Y-22359904D01*
X45250380Y-22455142D01*
X45250380Y-22740857D01*
X45202761Y-22836095D01*
X45155142Y-22883714D01*
X44250380Y-21645619D02*
X44250380Y-21550380D01*
X44298000Y-21455142D01*
X44345619Y-21407523D01*
X44440857Y-21359904D01*
X44631333Y-21312285D01*
X44869428Y-21312285D01*
X45059904Y-21359904D01*
X45155142Y-21407523D01*
X45202761Y-21455142D01*
X45250380Y-21550380D01*
X45250380Y-21645619D01*
X45202761Y-21740857D01*
X45155142Y-21788476D01*
X45059904Y-21836095D01*
X44869428Y-21883714D01*
X44631333Y-21883714D01*
X44440857Y-21836095D01*
X44345619Y-21788476D01*
X44298000Y-21740857D01*
X44250380Y-21645619D01*
X44250380Y-20978952D02*
X44250380Y-20359904D01*
X44631333Y-20693238D01*
X44631333Y-20550380D01*
X44678952Y-20455142D01*
X44726571Y-20407523D01*
X44821809Y-20359904D01*
X45059904Y-20359904D01*
X45155142Y-20407523D01*
X45202761Y-20455142D01*
X45250380Y-20550380D01*
X45250380Y-20836095D01*
X45202761Y-20931333D01*
X45155142Y-20978952D01*
X50442952Y-35917142D02*
X50395333Y-35964761D01*
X50252476Y-36012380D01*
X50157238Y-36012380D01*
X50014380Y-35964761D01*
X49919142Y-35869523D01*
X49871523Y-35774285D01*
X49823904Y-35583809D01*
X49823904Y-35440952D01*
X49871523Y-35250476D01*
X49919142Y-35155238D01*
X50014380Y-35060000D01*
X50157238Y-35012380D01*
X50252476Y-35012380D01*
X50395333Y-35060000D01*
X50442952Y-35107619D01*
X50776285Y-35012380D02*
X51395333Y-35012380D01*
X51062000Y-35393333D01*
X51204857Y-35393333D01*
X51300095Y-35440952D01*
X51347714Y-35488571D01*
X51395333Y-35583809D01*
X51395333Y-35821904D01*
X51347714Y-35917142D01*
X51300095Y-35964761D01*
X51204857Y-36012380D01*
X50919142Y-36012380D01*
X50823904Y-35964761D01*
X50776285Y-35917142D01*
X52014380Y-35012380D02*
X52109619Y-35012380D01*
X52204857Y-35060000D01*
X52252476Y-35107619D01*
X52300095Y-35202857D01*
X52347714Y-35393333D01*
X52347714Y-35631428D01*
X52300095Y-35821904D01*
X52252476Y-35917142D01*
X52204857Y-35964761D01*
X52109619Y-36012380D01*
X52014380Y-36012380D01*
X51919142Y-35964761D01*
X51871523Y-35917142D01*
X51823904Y-35821904D01*
X51776285Y-35631428D01*
X51776285Y-35393333D01*
X51823904Y-35202857D01*
X51871523Y-35107619D01*
X51919142Y-35060000D01*
X52014380Y-35012380D01*
X52728666Y-35107619D02*
X52776285Y-35060000D01*
X52871523Y-35012380D01*
X53109619Y-35012380D01*
X53204857Y-35060000D01*
X53252476Y-35107619D01*
X53300095Y-35202857D01*
X53300095Y-35298095D01*
X53252476Y-35440952D01*
X52681047Y-36012380D01*
X53300095Y-36012380D01*
X54506952Y-24073142D02*
X54459333Y-24120761D01*
X54316476Y-24168380D01*
X54221238Y-24168380D01*
X54078380Y-24120761D01*
X53983142Y-24025523D01*
X53935523Y-23930285D01*
X53887904Y-23739809D01*
X53887904Y-23596952D01*
X53935523Y-23406476D01*
X53983142Y-23311238D01*
X54078380Y-23216000D01*
X54221238Y-23168380D01*
X54316476Y-23168380D01*
X54459333Y-23216000D01*
X54506952Y-23263619D01*
X54840285Y-23168380D02*
X55459333Y-23168380D01*
X55126000Y-23549333D01*
X55268857Y-23549333D01*
X55364095Y-23596952D01*
X55411714Y-23644571D01*
X55459333Y-23739809D01*
X55459333Y-23977904D01*
X55411714Y-24073142D01*
X55364095Y-24120761D01*
X55268857Y-24168380D01*
X54983142Y-24168380D01*
X54887904Y-24120761D01*
X54840285Y-24073142D01*
X56078380Y-23168380D02*
X56173619Y-23168380D01*
X56268857Y-23216000D01*
X56316476Y-23263619D01*
X56364095Y-23358857D01*
X56411714Y-23549333D01*
X56411714Y-23787428D01*
X56364095Y-23977904D01*
X56316476Y-24073142D01*
X56268857Y-24120761D01*
X56173619Y-24168380D01*
X56078380Y-24168380D01*
X55983142Y-24120761D01*
X55935523Y-24073142D01*
X55887904Y-23977904D01*
X55840285Y-23787428D01*
X55840285Y-23549333D01*
X55887904Y-23358857D01*
X55935523Y-23263619D01*
X55983142Y-23216000D01*
X56078380Y-23168380D01*
X57364095Y-24168380D02*
X56792666Y-24168380D01*
X57078380Y-24168380D02*
X57078380Y-23168380D01*
X56983142Y-23311238D01*
X56887904Y-23406476D01*
X56792666Y-23454095D01*
X15771952Y-36171142D02*
X15724333Y-36218761D01*
X15581476Y-36266380D01*
X15486238Y-36266380D01*
X15343380Y-36218761D01*
X15248142Y-36123523D01*
X15200523Y-36028285D01*
X15152904Y-35837809D01*
X15152904Y-35694952D01*
X15200523Y-35504476D01*
X15248142Y-35409238D01*
X15343380Y-35314000D01*
X15486238Y-35266380D01*
X15581476Y-35266380D01*
X15724333Y-35314000D01*
X15771952Y-35361619D01*
X16152904Y-35361619D02*
X16200523Y-35314000D01*
X16295761Y-35266380D01*
X16533857Y-35266380D01*
X16629095Y-35314000D01*
X16676714Y-35361619D01*
X16724333Y-35456857D01*
X16724333Y-35552095D01*
X16676714Y-35694952D01*
X16105285Y-36266380D01*
X16724333Y-36266380D01*
X17343380Y-35266380D02*
X17438619Y-35266380D01*
X17533857Y-35314000D01*
X17581476Y-35361619D01*
X17629095Y-35456857D01*
X17676714Y-35647333D01*
X17676714Y-35885428D01*
X17629095Y-36075904D01*
X17581476Y-36171142D01*
X17533857Y-36218761D01*
X17438619Y-36266380D01*
X17343380Y-36266380D01*
X17248142Y-36218761D01*
X17200523Y-36171142D01*
X17152904Y-36075904D01*
X17105285Y-35885428D01*
X17105285Y-35647333D01*
X17152904Y-35456857D01*
X17200523Y-35361619D01*
X17248142Y-35314000D01*
X17343380Y-35266380D01*
X18629095Y-36266380D02*
X18057666Y-36266380D01*
X18343380Y-36266380D02*
X18343380Y-35266380D01*
X18248142Y-35409238D01*
X18152904Y-35504476D01*
X18057666Y-35552095D01*
M02*
