M48
; DRILL file {KiCad (5.1.5)-3} date 31/05/2020 15:00:34
; FORMAT={-:-/ absolute / inch / decimal}
; #@! TF.CreationDate,2020-05-31T15:00:34+02:00
; #@! TF.GenerationSoftware,Kicad,Pcbnew,(5.1.5)-3
; #@! TF.FileFunction,Plated,1,2,PTH
FMAT,2
INCH
T1C0.0157
T2C0.0197
T3C0.0300
T4C0.0374
T5C0.0394
T6C0.0472
T7C0.1260
%
G90
G05
T1
X1.739Y-4.7591
X1.7913Y-4.4892
X1.8008Y-4.0303
X1.8821Y-3.8411
X1.8843Y-3.9409
X1.9933Y-3.7429
X2.2177Y-4.5819
X2.2185Y-4.7358
X2.239Y-4.248
X2.3571Y-4.7713
X2.4189Y-4.4768
X2.4193Y-4.4283
X2.5287Y-5.0268
X2.5811Y-4.4516
X2.6169Y-4.6429
X2.6606Y-4.5508
X2.7461Y-5.1425
X2.7866Y-4.8059
X2.7882Y-4.8437
X2.8244Y-4.8102
X2.8244Y-4.8445
X2.8921Y-4.7717
T2
X1.2441Y-3.5039
X1.2718Y-3.4371
X1.2718Y-3.5708
X1.3386Y-3.4094
X1.3386Y-3.5984
X1.4054Y-3.4371
X1.4054Y-3.5708
X1.4331Y-3.5039
X1.2441Y-5.1575
X1.2718Y-5.0907
X1.2718Y-5.2243
X1.3386Y-5.063
X1.3386Y-5.252
X1.4054Y-5.0907
X1.4054Y-5.2243
X1.4331Y-5.1575
X3.2913Y-3.5039
X3.319Y-3.4371
X3.319Y-3.5708
X3.3858Y-3.4094
X3.3858Y-3.5984
X3.4526Y-3.4371
X3.4526Y-3.5708
X3.4803Y-3.5039
X3.2913Y-5.1575
X3.319Y-5.0907
X3.319Y-5.2243
X3.3858Y-5.063
X3.3858Y-5.252
X3.4526Y-5.0907
X3.4526Y-5.2243
X3.4803Y-5.1575
T3
X1.313Y-4.0937
X1.313Y-4.1937
X1.313Y-4.2937
X1.313Y-4.3937
X1.313Y-4.4937
X1.413Y-4.0937
X1.413Y-4.1937
X1.413Y-4.2937
X1.413Y-4.3937
X1.413Y-4.4937
X2.7303Y-3.7315
X2.7303Y-4.2315
X2.8303Y-3.7315
X2.8303Y-4.2315
X2.9303Y-3.7315
X2.9303Y-4.2315
X3.0303Y-3.7315
X3.0303Y-4.2315
X3.1303Y-3.7315
X3.1303Y-4.2315
X3.2303Y-3.7315
X3.2303Y-4.2315
X3.3303Y-3.7315
X3.3303Y-4.2315
X3.4303Y-3.7315
X3.4303Y-4.2315
T4
X2.9315Y-4.9386
X3.0299Y-4.9386
X3.1283Y-4.9386
X2.9323Y-4.6874
X3.0307Y-4.6874
X3.1291Y-4.6874
X2.9327Y-4.4386
X3.0311Y-4.4386
X3.1295Y-4.4386
X3.228Y-4.4386
T5
X2.9311Y-5.1972
X3.0295Y-5.1972
T6
X1.6563Y-3.5689
X1.7547Y-3.5689
X1.6929Y-5.0925
X1.7913Y-5.0925
X1.8898Y-5.0925
X1.9638Y-3.5685
X2.0622Y-3.5685
T7
X1.3386Y-3.5039
X1.3386Y-5.1575
X3.3858Y-3.5039
X3.3858Y-5.1575
T0
M30
