M48
; DRILL file {KiCad (6.0.0)} date Mon May  9 15:37:36 2022
; FORMAT={-:-/ absolute / metric / decimal}
; #@! TF.CreationDate,2022-05-09T15:37:36+02:00
; #@! TF.GenerationSoftware,Kicad,Pcbnew,(6.0.0)
; #@! TF.FileFunction,Plated,1,2,PTH
FMAT,2
METRIC
; #@! TA.AperFunction,Plated,PTH,ViaDrill
T1C0.300
; #@! TA.AperFunction,Plated,PTH,ViaDrill
T2C1.000
; #@! TA.AperFunction,Plated,PTH,ComponentDrill
T3C1.000
%
G90
G05
T1
X108.475Y-79.915
X108.475Y-80.715
X108.475Y-81.515
X108.475Y-82.315
X109.275Y-79.515
X109.275Y-80.315
X109.275Y-81.115
X109.275Y-81.915
X109.275Y-82.715
X110.075Y-79.915
X110.075Y-80.715
X110.075Y-81.515
X110.075Y-82.315
X111.975Y-79.915
X111.975Y-80.715
X111.975Y-81.515
X111.975Y-82.315
X112.775Y-79.515
X112.775Y-80.315
X112.775Y-81.115
X112.775Y-81.915
X112.775Y-82.715
X113.575Y-79.915
X113.575Y-80.715
X113.575Y-81.515
X113.575Y-82.315
T2
X81.025Y-74.93
X81.025Y-95.631
X81.025Y-117.729
X84.2Y-81.534
X84.2Y-102.616
X86.614Y-66.802
X92.201Y-112.776
X93.98Y-115.316
X94.233Y-101.092
X94.233Y-107.696
X94.742Y-88.392
X97.027Y-72.136
X97.281Y-112.776
X97.281Y-115.316
X99.313Y-75.057
X105.663Y-114.808
X108.076Y-86.106
X111.759Y-65.532
X112.013Y-107.442
X112.521Y-73.533
X112.521Y-86.106
X114.807Y-96.266
X116.585Y-118.364
X119.379Y-71.73
X125.221Y-81.534
X125.221Y-84.074
X125.221Y-102.616
X125.221Y-105.156
X127.761Y-73.533
X128.397Y-117.221
X128.778Y-81.534
X128.778Y-88.9
X128.778Y-102.616
X128.778Y-110.744
X129.031Y-96.52
X130.428Y-84.074
X130.788Y-105.156
X133.095Y-118.364
X135.381Y-66.294
X138.429Y-94.234
X138.429Y-115.316
X139.953Y-74.422
X141.224Y-78.232
X141.224Y-97.79
X141.224Y-117.856
T3
X81.788Y-84.074
X81.788Y-86.614
X81.788Y-89.154
X81.788Y-91.694
X81.788Y-105.156
X81.788Y-107.696
X81.788Y-110.236
X81.788Y-112.776
X86.614Y-78.994
X86.614Y-81.534
X86.614Y-84.074
X86.614Y-86.614
X86.614Y-89.154
X86.614Y-91.694
X86.614Y-94.234
X86.614Y-96.774
X86.614Y-100.076
X86.614Y-102.616
X86.614Y-105.156
X86.614Y-107.696
X86.614Y-110.236
X86.614Y-112.776
X86.614Y-115.316
X86.614Y-117.856
X90.931Y-82.804
X90.931Y-104.14
X94.431Y-82.804
X94.431Y-104.14
X99.314Y-78.994
X99.314Y-81.534
X99.314Y-84.074
X99.314Y-86.614
X99.314Y-89.154
X99.314Y-91.694
X99.314Y-94.234
X99.314Y-96.774
X99.314Y-100.076
X99.314Y-102.616
X99.314Y-105.156
X99.314Y-107.696
X99.314Y-110.236
X99.314Y-112.776
X99.314Y-115.316
X99.314Y-117.856
X103.631Y-75.946
X103.631Y-78.486
X103.631Y-81.026
X103.631Y-83.566
X103.631Y-86.106
X103.631Y-88.646
X103.631Y-91.186
X103.631Y-93.726
X103.631Y-96.266
X103.631Y-98.806
X103.631Y-101.346
X103.631Y-103.886
X103.631Y-106.426
X103.631Y-108.966
X103.631Y-111.506
X107.695Y-98.806
X107.695Y-101.346
X107.695Y-103.886
X107.695Y-106.426
X112.521Y-88.392
X112.521Y-96.012
X115.316Y-98.806
X115.316Y-101.346
X115.316Y-103.886
X115.316Y-106.426
X118.871Y-75.946
X118.871Y-78.486
X118.871Y-81.026
X118.871Y-83.566
X118.871Y-86.106
X118.871Y-88.646
X118.871Y-91.186
X118.871Y-93.726
X118.871Y-96.266
X118.871Y-98.806
X118.871Y-101.346
X118.871Y-103.886
X118.871Y-106.426
X118.871Y-108.966
X118.871Y-111.506
X123.19Y-78.994
X123.19Y-81.534
X123.19Y-84.074
X123.19Y-86.614
X123.19Y-89.154
X123.19Y-91.694
X123.19Y-94.234
X123.19Y-96.774
X123.19Y-100.076
X123.19Y-102.616
X123.19Y-105.156
X123.19Y-107.696
X123.19Y-110.236
X123.19Y-112.776
X123.19Y-115.316
X123.19Y-117.856
X124.671Y-71.771
X124.671Y-73.771
X128.326Y-91.948
X128.326Y-113.792
X131.571Y-75.105
X131.826Y-91.948
X131.826Y-113.792
X134.112Y-75.105
X135.89Y-78.994
X135.89Y-81.534
X135.89Y-84.074
X135.89Y-86.614
X135.89Y-89.154
X135.89Y-91.694
X135.89Y-94.234
X135.89Y-96.774
X135.89Y-100.076
X135.89Y-102.616
X135.89Y-105.156
X135.89Y-107.696
X135.89Y-110.236
X135.89Y-112.776
X135.89Y-115.316
X135.89Y-117.856
X136.651Y-75.105
X140.716Y-84.074
X140.716Y-86.614
X140.716Y-89.154
X140.716Y-91.694
X140.716Y-105.156
X140.716Y-107.696
X140.716Y-110.236
X140.716Y-112.776
T3
G00X86.804Y-72.686
M15
G01X86.804Y-71.586
M16
G05
G00X90.804Y-72.686
M15
G01X90.804Y-71.586
M16
G05
G00X94.804Y-72.686
M15
G01X94.804Y-71.586
M16
G05
T0
M30
