M48
; DRILL file {KiCad (6.0.0)} date Mon May  9 15:00:25 2022
; FORMAT={-:-/ absolute / metric / decimal}
; #@! TF.CreationDate,2022-05-09T15:00:25+02:00
; #@! TF.GenerationSoftware,Kicad,Pcbnew,(6.0.0)
; #@! TF.FileFunction,Plated,1,2,PTH
FMAT,2
METRIC
; #@! TA.AperFunction,Plated,PTH,ViaDrill
T1C0.800
; #@! TA.AperFunction,Plated,PTH,ComponentDrill
T2C0.800
; #@! TA.AperFunction,Plated,PTH,ComponentDrill
T3C1.000
%
G90
G05
T1
X135.4Y-101.5
X143.0Y-101.6
X146.05Y-114.96
X151.7Y-114.9
X154.3Y-99.1
X154.315Y-105.3
X156.3Y-133.7
X159.7Y-79.9
X168.3Y-74.7
X179.6Y-85.5
X179.6Y-94.3
X180.0Y-108.5
X180.086Y-102.87
X185.42Y-102.87
X187.147Y-108.5
X188.1Y-90.0
X190.5Y-106.5
X193.0Y-133.6
X194.2Y-89.9
X195.6Y-103.7
X197.0Y-106.5
X202.2Y-103.7
T2
X135.8Y-138.6
X145.218Y-87.535
X145.218Y-89.535
X145.218Y-91.535
X145.218Y-93.535
X145.218Y-95.535
X145.96Y-138.6
X148.6Y-138.6
X154.525Y-73.575
X154.525Y-75.575
X154.525Y-77.575
X154.525Y-79.575
X158.76Y-138.6
X181.92Y-72.0
X183.6Y-83.8
X185.6Y-83.8
X187.6Y-83.8
X188.2Y-93.18
X188.2Y-100.8
X189.6Y-83.8
X190.74Y-93.18
X190.74Y-100.8
X192.08Y-72.0
X193.084Y-112.617
X193.084Y-114.617
X193.084Y-116.617
X193.084Y-118.617
X193.084Y-120.617
X193.084Y-122.617
X193.084Y-124.617
X193.28Y-93.18
X193.28Y-100.8
X195.82Y-93.18
X195.82Y-100.8
T3
X137.623Y-107.335
X137.623Y-109.875
X137.623Y-112.415
X137.623Y-114.955
X137.623Y-117.495
X137.623Y-120.035
X137.623Y-122.575
X140.96Y-142.8
X143.5Y-142.8
X146.04Y-142.8
X148.58Y-142.8
X151.12Y-142.8
X153.66Y-142.8
X156.2Y-142.8
X158.74Y-142.8
X161.093Y-83.82
X161.093Y-86.36
X161.093Y-88.9
X161.093Y-91.44
X161.093Y-93.98
X161.093Y-96.52
X161.093Y-99.06
X161.093Y-101.6
X161.093Y-104.14
X161.093Y-106.68
X161.093Y-109.22
X161.093Y-111.76
X161.093Y-114.3
X161.093Y-116.84
X161.093Y-119.38
X173.7Y-141.4
X173.7Y-143.9
X173.7Y-146.4
X176.333Y-83.82
X176.333Y-86.36
X176.333Y-88.9
X176.333Y-91.44
X176.333Y-93.98
X176.333Y-96.52
X176.333Y-99.06
X176.333Y-101.6
X176.333Y-104.14
X176.333Y-106.68
X176.333Y-109.22
X176.333Y-111.76
X176.333Y-114.3
X176.333Y-116.84
X176.333Y-119.38
X186.7Y-125.4
X186.7Y-127.9
X186.7Y-130.4
X186.8Y-137.1
X186.8Y-139.6
X186.8Y-142.1
T0
M30
