M48
; DRILL file {KiCad (6.0.0)} date Fri May 13 18:03:07 2022
; FORMAT={-:-/ absolute / inch / decimal}
; #@! TF.CreationDate,2022-05-13T18:03:07+02:00
; #@! TF.GenerationSoftware,Kicad,Pcbnew,(6.0.0)
; #@! TF.FileFunction,Plated,1,2,PTH
FMAT,2
INCH
; #@! TA.AperFunction,Plated,PTH,ViaDrill
T1C0.0118
; #@! TA.AperFunction,Plated,PTH,ViaDrill
T2C0.0394
; #@! TA.AperFunction,Plated,PTH,ComponentDrill
T3C0.0394
%
G90
G05
T1
X4.2707Y-3.1463
X4.2707Y-3.1778
X4.2707Y-3.2093
X4.2707Y-3.2408
X4.3022Y-3.1305
X4.3022Y-3.162
X4.3022Y-3.1935
X4.3022Y-3.225
X4.3022Y-3.2565
X4.3337Y-3.1463
X4.3337Y-3.1778
X4.3337Y-3.2093
X4.3337Y-3.2408
X4.4085Y-3.1463
X4.4085Y-3.1778
X4.4085Y-3.2093
X4.4085Y-3.2408
X4.44Y-3.1305
X4.44Y-3.162
X4.44Y-3.1935
X4.44Y-3.225
X4.44Y-3.2565
X4.4715Y-3.1463
X4.4715Y-3.1778
X4.4715Y-3.2093
X4.4715Y-3.2408
T2
X3.19Y-2.95
X3.19Y-3.765
X3.19Y-4.635
X3.315Y-3.21
X3.315Y-4.04
X3.41Y-2.63
X3.63Y-4.44
X3.7Y-4.54
X3.71Y-3.98
X3.71Y-4.24
X3.73Y-3.48
X3.82Y-2.84
X3.83Y-4.44
X3.83Y-4.54
X3.91Y-2.955
X4.16Y-4.52
X4.255Y-3.39
X4.4Y-2.58
X4.41Y-4.23
X4.43Y-2.895
X4.43Y-3.39
X4.52Y-3.79
X4.59Y-4.66
X4.7Y-2.824
X4.93Y-3.21
X4.93Y-3.31
X4.93Y-4.04
X4.93Y-4.14
X5.03Y-2.895
X5.055Y-4.615
X5.07Y-3.21
X5.07Y-3.5
X5.07Y-3.8
X5.07Y-4.04
X5.07Y-4.36
X5.13Y-4.14
X5.135Y-3.31
X5.23Y-4.84
X5.24Y-4.66
X5.33Y-2.61
X5.45Y-3.71
X5.45Y-4.54
X5.51Y-2.93
X5.56Y-3.08
X5.56Y-3.85
X5.56Y-4.64
T3
X3.22Y-3.31
X3.22Y-3.41
X3.22Y-3.51
X3.22Y-3.61
X3.22Y-4.14
X3.22Y-4.24
X3.22Y-4.34
X3.22Y-4.44
X3.41Y-3.11
X3.41Y-3.21
X3.41Y-3.31
X3.41Y-3.41
X3.41Y-3.51
X3.41Y-3.61
X3.41Y-3.71
X3.41Y-3.81
X3.41Y-3.94
X3.41Y-4.04
X3.41Y-4.14
X3.41Y-4.24
X3.41Y-4.34
X3.41Y-4.44
X3.41Y-4.54
X3.41Y-4.64
X3.58Y-3.26
X3.58Y-4.1
X3.7178Y-3.26
X3.7178Y-4.1
X3.91Y-3.11
X3.91Y-3.21
X3.91Y-3.31
X3.91Y-3.41
X3.91Y-3.51
X3.91Y-3.61
X3.91Y-3.71
X3.91Y-3.81
X3.91Y-3.94
X3.91Y-4.04
X3.91Y-4.14
X3.91Y-4.24
X3.91Y-4.34
X3.91Y-4.44
X3.91Y-4.54
X3.91Y-4.64
X4.08Y-2.99
X4.08Y-3.09
X4.08Y-3.19
X4.08Y-3.29
X4.08Y-3.39
X4.08Y-3.49
X4.08Y-3.59
X4.08Y-3.69
X4.08Y-3.79
X4.08Y-3.89
X4.08Y-3.99
X4.08Y-4.09
X4.08Y-4.19
X4.08Y-4.29
X4.08Y-4.39
X4.24Y-3.89
X4.24Y-3.99
X4.24Y-4.09
X4.24Y-4.19
X4.43Y-3.48
X4.43Y-3.78
X4.54Y-3.89
X4.54Y-3.99
X4.54Y-4.09
X4.54Y-4.19
X4.68Y-2.99
X4.68Y-3.09
X4.68Y-3.19
X4.68Y-3.29
X4.68Y-3.39
X4.68Y-3.49
X4.68Y-3.59
X4.68Y-3.69
X4.68Y-3.79
X4.68Y-3.89
X4.68Y-3.99
X4.68Y-4.09
X4.68Y-4.19
X4.68Y-4.29
X4.68Y-4.39
X4.85Y-3.11
X4.85Y-3.21
X4.85Y-3.31
X4.85Y-3.41
X4.85Y-3.51
X4.85Y-3.61
X4.85Y-3.71
X4.85Y-3.81
X4.85Y-3.94
X4.85Y-4.04
X4.85Y-4.14
X4.85Y-4.24
X4.85Y-4.34
X4.85Y-4.44
X4.85Y-4.54
X4.85Y-4.64
X4.9083Y-2.8256
X4.9083Y-2.9044
X5.0522Y-3.62
X5.0522Y-4.48
X5.18Y-2.9569
X5.19Y-3.62
X5.19Y-4.48
X5.28Y-2.9569
X5.35Y-3.11
X5.35Y-3.21
X5.35Y-3.31
X5.35Y-3.41
X5.35Y-3.51
X5.35Y-3.61
X5.35Y-3.71
X5.35Y-3.81
X5.35Y-3.94
X5.35Y-4.04
X5.35Y-4.14
X5.35Y-4.24
X5.35Y-4.34
X5.35Y-4.44
X5.35Y-4.54
X5.35Y-4.64
X5.38Y-2.9569
X5.54Y-3.31
X5.54Y-3.41
X5.54Y-3.51
X5.54Y-3.61
X5.54Y-4.14
X5.54Y-4.24
X5.54Y-4.34
X5.54Y-4.44
T3
G00X3.4175Y-2.8617
M15
G01X3.4175Y-2.8183
M16
G05
G00X3.575Y-2.8617
M15
G01X3.575Y-2.8183
M16
G05
G00X3.7325Y-2.8617
M15
G01X3.7325Y-2.8183
M16
G05
T0
M30
