%TF.GenerationSoftware,KiCad,Pcbnew,(6.0.0)*%
%TF.CreationDate,2022-05-13T11:55:21+02:00*%
%TF.ProjectId,Carte Bras ENORME Robot,43617274-6520-4427-9261-7320454e4f52,rev?*%
%TF.SameCoordinates,Original*%
%TF.FileFunction,Soldermask,Bot*%
%TF.FilePolarity,Negative*%
%FSLAX46Y46*%
G04 Gerber Fmt 4.6, Leading zero omitted, Abs format (unit mm)*
G04 Created by KiCad (PCBNEW (6.0.0)) date 2022-05-13 11:55:21*
%MOMM*%
%LPD*%
G01*
G04 APERTURE LIST*
G04 Aperture macros list*
%AMRoundRect*
0 Rectangle with rounded corners*
0 $1 Rounding radius*
0 $2 $3 $4 $5 $6 $7 $8 $9 X,Y pos of 4 corners*
0 Add a 4 corners polygon primitive as box body*
4,1,4,$2,$3,$4,$5,$6,$7,$8,$9,$2,$3,0*
0 Add four circle primitives for the rounded corners*
1,1,$1+$1,$2,$3*
1,1,$1+$1,$4,$5*
1,1,$1+$1,$6,$7*
1,1,$1+$1,$8,$9*
0 Add four rect primitives between the rounded corners*
20,1,$1+$1,$2,$3,$4,$5,0*
20,1,$1+$1,$4,$5,$6,$7,0*
20,1,$1+$1,$6,$7,$8,$9,0*
20,1,$1+$1,$8,$9,$2,$3,0*%
G04 Aperture macros list end*
%ADD10C,3.200000*%
%ADD11RoundRect,0.250000X0.350000X0.625000X-0.350000X0.625000X-0.350000X-0.625000X0.350000X-0.625000X0*%
%ADD12O,1.200000X1.750000*%
%ADD13R,2.000000X2.000000*%
%ADD14C,2.000000*%
%ADD15C,1.600000*%
%ADD16O,1.600000X1.600000*%
%ADD17R,1.050000X2.000000*%
%ADD18O,1.050000X2.000000*%
%ADD19R,1.800000X1.800000*%
%ADD20O,1.800000X1.800000*%
%ADD21RoundRect,0.250000X-0.350000X-0.625000X0.350000X-0.625000X0.350000X0.625000X-0.350000X0.625000X0*%
%ADD22O,3.500000X3.500000*%
%ADD23R,2.000000X1.905000*%
%ADD24O,2.000000X1.905000*%
%ADD25R,1.600000X1.600000*%
%ADD26C,3.000000*%
%ADD27RoundRect,0.250001X-0.499999X-0.759999X0.499999X-0.759999X0.499999X0.759999X-0.499999X0.759999X0*%
%ADD28O,1.500000X2.020000*%
%ADD29RoundRect,0.250000X-0.625000X0.350000X-0.625000X-0.350000X0.625000X-0.350000X0.625000X0.350000X0*%
%ADD30O,1.750000X1.200000*%
%ADD31RoundRect,0.250000X-0.325000X-0.650000X0.325000X-0.650000X0.325000X0.650000X-0.325000X0.650000X0*%
G04 APERTURE END LIST*
D10*
%TO.C,*%
X145500000Y-35500000D03*
%TD*%
%TO.C,*%
X145500000Y-100500000D03*
%TD*%
D11*
%TO.C,BUS_CAN1*%
X159000000Y-47514400D03*
D12*
X157000000Y-47514400D03*
X155000000Y-47514400D03*
X153000000Y-47514400D03*
X151000000Y-47514400D03*
%TD*%
D13*
%TO.C,STM32FM303K8*%
X168880000Y-54720000D03*
D14*
X168880000Y-57260000D03*
X168880000Y-59800000D03*
X168880000Y-62340000D03*
X168880000Y-64880000D03*
X168880000Y-67420000D03*
X168880000Y-69960000D03*
X168880000Y-72500000D03*
X168880000Y-75040000D03*
X168880000Y-77580000D03*
X168880000Y-80120000D03*
X168880000Y-82660000D03*
X168880000Y-85200000D03*
X168880000Y-87740000D03*
X168880000Y-90280000D03*
D13*
X184120000Y-54720000D03*
D14*
X184120000Y-57260000D03*
X184120000Y-59800000D03*
X184120000Y-62340000D03*
X184120000Y-64880000D03*
X184120000Y-67420000D03*
X184120000Y-69960000D03*
X184120000Y-72500000D03*
X184120000Y-75040000D03*
X184120000Y-77580000D03*
X184120000Y-80120000D03*
X184120000Y-82660000D03*
X184120000Y-85200000D03*
X184120000Y-87740000D03*
X184120000Y-90280000D03*
%TD*%
D15*
%TO.C,R1*%
X167005000Y-99695000D03*
D16*
X177165000Y-99695000D03*
%TD*%
D17*
%TO.C,Q1*%
X152724000Y-98425000D03*
D18*
X151200000Y-98425000D03*
X149676000Y-98425000D03*
%TD*%
D19*
%TO.C,D1*%
X151130000Y-70485000D03*
D20*
X151130000Y-83185000D03*
%TD*%
D15*
%TO.C,R4*%
X161290000Y-73660000D03*
D16*
X161290000Y-83820000D03*
%TD*%
D21*
%TO.C,SERVO2*%
X158000000Y-98425000D03*
D12*
X160000000Y-98425000D03*
X162000000Y-98425000D03*
%TD*%
D15*
%TO.C,R2*%
X163068000Y-40005000D03*
D16*
X150368000Y-40005000D03*
%TD*%
D10*
%TO.C,*%
X184500000Y-35500000D03*
%TD*%
D11*
%TO.C,PompeAVide1*%
X147574000Y-71120000D03*
D12*
X145574000Y-71120000D03*
%TD*%
D15*
%TO.C,R3*%
X156845000Y-73660000D03*
D16*
X156845000Y-83820000D03*
%TD*%
D22*
%TO.C,U2*%
X146340000Y-90170000D03*
D23*
X163000000Y-92710000D03*
D24*
X163000000Y-90170000D03*
X163000000Y-87630000D03*
%TD*%
D25*
%TO.C,U1*%
X151350000Y-66600000D03*
D16*
X153890000Y-66600000D03*
X156430000Y-66600000D03*
X158970000Y-66600000D03*
X158970000Y-58980000D03*
X156430000Y-58980000D03*
X153890000Y-58980000D03*
X151350000Y-58980000D03*
%TD*%
D10*
%TO.C,*%
X184500000Y-100500000D03*
%TD*%
D26*
%TO.C,JS1*%
X176736000Y-40925000D03*
D27*
X173736000Y-45245000D03*
D28*
X176736000Y-45245000D03*
X179736000Y-45245000D03*
%TD*%
D29*
%TO.C,SERVO1*%
X167640000Y-38500000D03*
D30*
X167640000Y-40500000D03*
X167640000Y-42500000D03*
%TD*%
D14*
%TO.C,TP4*%
X160274000Y-42418000D03*
%TD*%
%TO.C,TP8*%
X154686000Y-97282000D03*
%TD*%
D31*
%TO.C,C2*%
X162525000Y-59000000D03*
X165475000Y-59000000D03*
%TD*%
D14*
%TO.C,TP7*%
X165862000Y-71882000D03*
%TD*%
%TO.C,TP2*%
X148590000Y-76200000D03*
%TD*%
%TO.C,*%
X182118000Y-41656000D03*
%TD*%
D31*
%TO.C,C4*%
X178435000Y-66675000D03*
X181385000Y-66675000D03*
%TD*%
D14*
%TO.C,TP6*%
X147574000Y-52070000D03*
%TD*%
D31*
%TO.C,C3*%
X178435000Y-64175000D03*
X181385000Y-64175000D03*
%TD*%
%TO.C,C1*%
X162525000Y-62000000D03*
X165475000Y-62000000D03*
%TD*%
D14*
%TO.C,TP5*%
X154178000Y-42418000D03*
%TD*%
%TO.C,TP3*%
X148082000Y-41402000D03*
%TD*%
M02*
