M48
; DRILL file {KiCad (6.0.0)} date Fri May 13 11:55:21 2022
; FORMAT={-:-/ absolute / inch / decimal}
; #@! TF.CreationDate,2022-05-13T11:55:21+02:00
; #@! TF.GenerationSoftware,Kicad,Pcbnew,(6.0.0)
; #@! TF.FileFunction,Plated,1,2,PTH
FMAT,2
INCH
; #@! TA.AperFunction,Plated,PTH,ViaDrill
T1C0.0315
; #@! TA.AperFunction,Plated,PTH,ComponentDrill
T2C0.0315
; #@! TA.AperFunction,Plated,PTH,ComponentDrill
T3C0.0394
%
G90
G05
T1
X5.72Y-3.4
X5.75Y-1.82
X5.82Y-2.58
X5.97Y-3.43
X6.05Y-3.075
X6.05Y-3.275
X6.06Y-2.83
X6.075Y-2.725
X6.19Y-1.55
X6.24Y-3.38
X6.26Y-3.1
X6.2835Y-2.1024
X6.3661Y-2.7283
X6.4961Y-2.1063
X6.5039Y-3.1181
X6.51Y-3.84
X6.69Y-3.77
X6.76Y-2.16
X6.89Y-1.49
X7.04Y-3.03
T2
X5.7313Y-2.8
X5.81Y-2.8
X5.8928Y-3.875
X5.92Y-1.575
X5.9449Y-1.8706
X5.9528Y-3.875
X5.9587Y-2.322
X5.9587Y-2.622
X6.0128Y-3.875
X6.0236Y-1.8706
X6.0587Y-2.322
X6.0587Y-2.622
X6.1024Y-1.8706
X6.1587Y-2.322
X6.1587Y-2.622
X6.175Y-2.9
X6.175Y-3.3
X6.1811Y-1.8706
X6.2205Y-3.875
X6.2587Y-2.322
X6.2587Y-2.622
X6.2598Y-1.8706
X6.2992Y-3.875
X6.35Y-2.9
X6.35Y-3.3
X6.378Y-3.875
X6.42Y-1.575
X6.575Y-3.925
X6.6Y-1.5157
X6.6Y-1.5945
X6.6Y-1.6732
X6.975Y-3.925
T3
X5.95Y-2.775
X5.95Y-3.275
X6.4173Y-3.45
X6.4173Y-3.55
X6.4173Y-3.65
X6.6488Y-2.1543
X6.6488Y-2.2543
X6.6488Y-2.3543
X6.6488Y-2.4543
X6.6488Y-2.5543
X6.6488Y-2.6543
X6.6488Y-2.7543
X6.6488Y-2.8543
X6.6488Y-2.9543
X6.6488Y-3.0543
X6.6488Y-3.1543
X6.6488Y-3.2543
X6.6488Y-3.3543
X6.6488Y-3.4543
X6.6488Y-3.5543
X6.84Y-1.7813
X6.9581Y-1.7813
X7.0762Y-1.7813
X7.2488Y-2.1543
X7.2488Y-2.2543
X7.2488Y-2.3543
X7.2488Y-2.4543
X7.2488Y-2.5543
X7.2488Y-2.6543
X7.2488Y-2.7543
X7.2488Y-2.8543
X7.2488Y-2.9543
X7.2488Y-3.0543
X7.2488Y-3.1543
X7.2488Y-3.2543
X7.2488Y-3.3543
X7.2488Y-3.4543
X7.2488Y-3.5543
T0
M30
