M48
; DRILL file {KiCad (5.1.5)-3} date 20/05/2020 23:32:46
; FORMAT={-:-/ absolute / inch / decimal}
; #@! TF.CreationDate,2020-05-20T23:32:46+02:00
; #@! TF.GenerationSoftware,Kicad,Pcbnew,(5.1.5)-3
; #@! TF.FileFunction,Plated,1,2,PTH
FMAT,2
INCH
T1C0.0157
T2C0.0197
T3C0.0394
T4C0.0402
T5C0.0433
T6C0.1260
%
G90
G05
T1
X3.2Y-2.75
X3.23Y-2.49
X3.2307Y-2.2232
X3.2661Y-2.1533
X3.2819Y-2.6989
X3.3Y-2.75
X3.3047Y-2.224
X3.3449Y-2.8551
X3.3646Y-2.6287
X3.3646Y-2.6681
X3.3719Y-2.582
X3.3743Y-2.5398
X3.4844Y-2.8436
X3.5122Y-2.8157
X3.5488Y-2.2118
X3.5555Y-2.4634
X3.5811Y-2.8157
X3.6008Y-2.5205
X3.6106Y-3.3177
X3.6303Y-2.8157
X3.6691Y-2.4014
X3.6697Y-2.4417
X3.6994Y-2.4721
X3.7062Y-2.3719
X3.7386Y-2.3236
X3.7681Y-2.2843
X3.778Y-3.1967
X3.7878Y-3.2783
X3.8Y-2.9
X3.8665Y-2.2843
X3.9217Y-2.4819
X3.9303Y-2.0299
X3.9344Y-2.8994
X3.9581Y-2.6996
X3.9736Y-2.2008
X3.9811Y-1.8433
X4.0043Y-2.672
X4.0063Y-2.4496
X4.0437Y-3.0028
X4.0506Y-2.9447
X4.0929Y-2.737
X4.0929Y-3.0224
X4.1225Y-2.6465
X4.1953Y-2.1386
X4.2012Y-2.9831
X4.2243Y-2.6521
X4.2307Y-2.7567
X4.2504Y-2.2055
X4.2539Y-2.6781
X4.2589Y-2.1593
X4.2898Y-2.7567
X4.3094Y-2.4811
X4.3193Y-2.363
X4.3419Y-2.2055
X4.35Y-2.45
X4.3685Y-2.4122
X4.3719Y-2.3611
X4.3882Y-2.7665
X4.4059Y-2.7272
X4.4311Y-2.7784
X4.4571Y-2.2055
X4.5043Y-2.1602
X4.5063Y-2.9831
X4.5555Y-3.0224
X4.587Y-2.6701
X4.65Y-3.15
T2
X4.7701Y-3.2508
X4.7978Y-3.184
X4.7978Y-3.3176
X4.8646Y-3.1563
X4.8646Y-3.3453
X4.9314Y-3.184
X4.9314Y-3.3176
X4.9591Y-3.2508
X2.8736Y-3.2512
X2.9013Y-3.1844
X2.9013Y-3.318
X2.9681Y-3.1567
X2.9681Y-3.3457
X3.0349Y-3.1844
X3.0349Y-3.318
X3.0626Y-3.2512
X2.873Y-1.8622
X2.9007Y-1.7954
X2.9007Y-1.929
X2.9675Y-1.7677
X2.9675Y-1.9567
X3.0343Y-1.7954
X3.0343Y-1.929
X3.062Y-1.8622
X4.778Y-1.8602
X4.8056Y-1.7934
X4.8056Y-1.927
X4.8724Y-1.7657
X4.8724Y-1.9547
X4.9393Y-1.7934
X4.9393Y-1.927
X4.9669Y-1.8602
T3
X4.8244Y-2.9421
X4.9228Y-2.9421
X3.2563Y-1.7921
X3.3563Y-1.7921
X3.4563Y-1.7921
X3.5563Y-1.7921
X3.6563Y-1.7921
X3.7563Y-1.7921
X4.8244Y-2.7354
X4.9228Y-2.7354
X4.8244Y-2.5307
X4.9228Y-2.5307
X4.824Y-2.326
X4.9224Y-2.326
X3.4433Y-2.0087
X3.5417Y-2.0087
X4.8236Y-2.1201
X4.922Y-2.1201
T4
X3.1014Y-2.8317
X3.1014Y-2.9498
T5
X2.8445Y-2.0925
X2.8445Y-2.2697
X3.1004Y-2.0925
X3.1004Y-2.2697
T6
X4.8646Y-3.2508
X2.9681Y-3.2512
X2.9675Y-1.8622
X4.8724Y-1.8602
T0
M30
