G04 #@! TF.GenerationSoftware,KiCad,Pcbnew,(5.1.5)-3*
G04 #@! TF.CreationDate,2019-12-18T01:06:06+01:00*
G04 #@! TF.ProjectId,CarteMoteur,43617274-654d-46f7-9465-75722e6b6963,rev?*
G04 #@! TF.SameCoordinates,Original*
G04 #@! TF.FileFunction,Legend,Top*
G04 #@! TF.FilePolarity,Positive*
%FSLAX46Y46*%
G04 Gerber Fmt 4.6, Leading zero omitted, Abs format (unit mm)*
G04 Created by KiCad (PCBNEW (5.1.5)-3) date 2019-12-18 01:06:06*
%MOMM*%
%LPD*%
G04 APERTURE LIST*
%ADD10C,0.600000*%
%ADD11C,0.120000*%
%ADD12C,0.150000*%
%ADD13C,0.400000*%
%ADD14C,0.375000*%
G04 APERTURE END LIST*
D10*
X95401038Y-44579552D02*
X96829609Y-44579552D01*
X96115323Y-47079552D02*
X96115323Y-44579552D01*
X97662942Y-47079552D02*
X97662942Y-44579552D01*
X98496276Y-46365266D01*
X99329609Y-44579552D01*
X99329609Y-47079552D01*
X101948657Y-46841457D02*
X101829609Y-46960504D01*
X101472466Y-47079552D01*
X101234371Y-47079552D01*
X100877228Y-46960504D01*
X100639133Y-46722409D01*
X100520085Y-46484314D01*
X100401038Y-46008123D01*
X100401038Y-45650980D01*
X100520085Y-45174790D01*
X100639133Y-44936695D01*
X100877228Y-44698600D01*
X101234371Y-44579552D01*
X101472466Y-44579552D01*
X101829609Y-44698600D01*
X101948657Y-44817647D01*
X102901038Y-44817647D02*
X103020085Y-44698600D01*
X103258180Y-44579552D01*
X103853419Y-44579552D01*
X104091514Y-44698600D01*
X104210561Y-44817647D01*
X104329609Y-45055742D01*
X104329609Y-45293838D01*
X104210561Y-45650980D01*
X102781990Y-47079552D01*
X104329609Y-47079552D01*
X106472466Y-44579552D02*
X105996276Y-44579552D01*
X105758180Y-44698600D01*
X105639133Y-44817647D01*
X105401038Y-45174790D01*
X105281990Y-45650980D01*
X105281990Y-46603361D01*
X105401038Y-46841457D01*
X105520085Y-46960504D01*
X105758180Y-47079552D01*
X106234371Y-47079552D01*
X106472466Y-46960504D01*
X106591514Y-46841457D01*
X106710561Y-46603361D01*
X106710561Y-46008123D01*
X106591514Y-45770028D01*
X106472466Y-45650980D01*
X106234371Y-45531933D01*
X105758180Y-45531933D01*
X105520085Y-45650980D01*
X105401038Y-45770028D01*
X105281990Y-46008123D01*
X108853419Y-44579552D02*
X108377228Y-44579552D01*
X108139133Y-44698600D01*
X108020085Y-44817647D01*
X107781990Y-45174790D01*
X107662942Y-45650980D01*
X107662942Y-46603361D01*
X107781990Y-46841457D01*
X107901038Y-46960504D01*
X108139133Y-47079552D01*
X108615323Y-47079552D01*
X108853419Y-46960504D01*
X108972466Y-46841457D01*
X109091514Y-46603361D01*
X109091514Y-46008123D01*
X108972466Y-45770028D01*
X108853419Y-45650980D01*
X108615323Y-45531933D01*
X108139133Y-45531933D01*
X107901038Y-45650980D01*
X107781990Y-45770028D01*
X107662942Y-46008123D01*
X110639133Y-44579552D02*
X110877228Y-44579552D01*
X111115323Y-44698600D01*
X111234371Y-44817647D01*
X111353419Y-45055742D01*
X111472466Y-45531933D01*
X111472466Y-46127171D01*
X111353419Y-46603361D01*
X111234371Y-46841457D01*
X111115323Y-46960504D01*
X110877228Y-47079552D01*
X110639133Y-47079552D01*
X110401038Y-46960504D01*
X110281990Y-46841457D01*
X110162942Y-46603361D01*
X110043895Y-46127171D01*
X110043895Y-45531933D01*
X110162942Y-45055742D01*
X110281990Y-44817647D01*
X110401038Y-44698600D01*
X110639133Y-44579552D01*
D11*
X90347800Y-43383200D02*
X94538800Y-43383200D01*
D12*
X123540780Y-44409714D02*
X122540780Y-44409714D01*
X122540780Y-44171619D01*
X122588400Y-44028761D01*
X122683638Y-43933523D01*
X122778876Y-43885904D01*
X122969352Y-43838285D01*
X123112209Y-43838285D01*
X123302685Y-43885904D01*
X123397923Y-43933523D01*
X123493161Y-44028761D01*
X123540780Y-44171619D01*
X123540780Y-44409714D01*
X123016971Y-43409714D02*
X123016971Y-43076380D01*
X123540780Y-42933523D02*
X123540780Y-43409714D01*
X122540780Y-43409714D01*
X122540780Y-42933523D01*
X123016971Y-42171619D02*
X123064590Y-42028761D01*
X123112209Y-41981142D01*
X123207447Y-41933523D01*
X123350304Y-41933523D01*
X123445542Y-41981142D01*
X123493161Y-42028761D01*
X123540780Y-42124000D01*
X123540780Y-42504952D01*
X122540780Y-42504952D01*
X122540780Y-42171619D01*
X122588400Y-42076380D01*
X122636019Y-42028761D01*
X122731257Y-41981142D01*
X122826495Y-41981142D01*
X122921733Y-42028761D01*
X122969352Y-42076380D01*
X123016971Y-42171619D01*
X123016971Y-42504952D01*
X122540780Y-41504952D02*
X123350304Y-41504952D01*
X123445542Y-41457333D01*
X123493161Y-41409714D01*
X123540780Y-41314476D01*
X123540780Y-41124000D01*
X123493161Y-41028761D01*
X123445542Y-40981142D01*
X123350304Y-40933523D01*
X122540780Y-40933523D01*
X122588400Y-39933523D02*
X122540780Y-40028761D01*
X122540780Y-40171619D01*
X122588400Y-40314476D01*
X122683638Y-40409714D01*
X122778876Y-40457333D01*
X122969352Y-40504952D01*
X123112209Y-40504952D01*
X123302685Y-40457333D01*
X123397923Y-40409714D01*
X123493161Y-40314476D01*
X123540780Y-40171619D01*
X123540780Y-40076380D01*
X123493161Y-39933523D01*
X123445542Y-39885904D01*
X123112209Y-39885904D01*
X123112209Y-40076380D01*
X122493161Y-38743047D02*
X123778876Y-39600190D01*
X123540780Y-38409714D02*
X122540780Y-38409714D01*
X122540780Y-38028761D01*
X122588400Y-37933523D01*
X122636019Y-37885904D01*
X122731257Y-37838285D01*
X122874114Y-37838285D01*
X122969352Y-37885904D01*
X123016971Y-37933523D01*
X123064590Y-38028761D01*
X123064590Y-38409714D01*
X123540780Y-36838285D02*
X123064590Y-37171619D01*
X123540780Y-37409714D02*
X122540780Y-37409714D01*
X122540780Y-37028761D01*
X122588400Y-36933523D01*
X122636019Y-36885904D01*
X122731257Y-36838285D01*
X122874114Y-36838285D01*
X122969352Y-36885904D01*
X123016971Y-36933523D01*
X123064590Y-37028761D01*
X123064590Y-37409714D01*
X122540780Y-36219238D02*
X122540780Y-36028761D01*
X122588400Y-35933523D01*
X122683638Y-35838285D01*
X122874114Y-35790666D01*
X123207447Y-35790666D01*
X123397923Y-35838285D01*
X123493161Y-35933523D01*
X123540780Y-36028761D01*
X123540780Y-36219238D01*
X123493161Y-36314476D01*
X123397923Y-36409714D01*
X123207447Y-36457333D01*
X122874114Y-36457333D01*
X122683638Y-36409714D01*
X122588400Y-36314476D01*
X122540780Y-36219238D01*
X122588400Y-34838285D02*
X122540780Y-34933523D01*
X122540780Y-35076380D01*
X122588400Y-35219238D01*
X122683638Y-35314476D01*
X122778876Y-35362095D01*
X122969352Y-35409714D01*
X123112209Y-35409714D01*
X123302685Y-35362095D01*
X123397923Y-35314476D01*
X123493161Y-35219238D01*
X123540780Y-35076380D01*
X123540780Y-34981142D01*
X123493161Y-34838285D01*
X123445542Y-34790666D01*
X123112209Y-34790666D01*
X123112209Y-34981142D01*
X90952819Y-44699180D02*
X90619485Y-44222990D01*
X90381390Y-44699180D02*
X90381390Y-43699180D01*
X90762342Y-43699180D01*
X90857580Y-43746800D01*
X90905200Y-43794419D01*
X90952819Y-43889657D01*
X90952819Y-44032514D01*
X90905200Y-44127752D01*
X90857580Y-44175371D01*
X90762342Y-44222990D01*
X90381390Y-44222990D01*
X91381390Y-44175371D02*
X91714723Y-44175371D01*
X91857580Y-44699180D02*
X91381390Y-44699180D01*
X91381390Y-43699180D01*
X91857580Y-43699180D01*
X92238533Y-44651561D02*
X92381390Y-44699180D01*
X92619485Y-44699180D01*
X92714723Y-44651561D01*
X92762342Y-44603942D01*
X92809961Y-44508704D01*
X92809961Y-44413466D01*
X92762342Y-44318228D01*
X92714723Y-44270609D01*
X92619485Y-44222990D01*
X92429009Y-44175371D01*
X92333771Y-44127752D01*
X92286152Y-44080133D01*
X92238533Y-43984895D01*
X92238533Y-43889657D01*
X92286152Y-43794419D01*
X92333771Y-43746800D01*
X92429009Y-43699180D01*
X92667104Y-43699180D01*
X92809961Y-43746800D01*
X93238533Y-44175371D02*
X93571866Y-44175371D01*
X93714723Y-44699180D02*
X93238533Y-44699180D01*
X93238533Y-43699180D01*
X93714723Y-43699180D01*
X94000438Y-43699180D02*
X94571866Y-43699180D01*
X94286152Y-44699180D02*
X94286152Y-43699180D01*
D13*
X155733952Y-71923161D02*
X155733952Y-69923161D01*
X156400619Y-71351733D01*
X157067285Y-69923161D01*
X157067285Y-71923161D01*
X158876809Y-70589828D02*
X158876809Y-71923161D01*
X158400619Y-69827923D02*
X157924428Y-71256495D01*
X159162523Y-71256495D01*
X134016952Y-71948561D02*
X134016952Y-69948561D01*
X134683619Y-71377133D01*
X135350285Y-69948561D01*
X135350285Y-71948561D01*
X136112190Y-69948561D02*
X137350285Y-69948561D01*
X136683619Y-70710466D01*
X136969333Y-70710466D01*
X137159809Y-70805704D01*
X137255047Y-70900942D01*
X137350285Y-71091419D01*
X137350285Y-71567609D01*
X137255047Y-71758085D01*
X137159809Y-71853323D01*
X136969333Y-71948561D01*
X136397904Y-71948561D01*
X136207428Y-71853323D01*
X136112190Y-71758085D01*
X112376152Y-71923161D02*
X112376152Y-69923161D01*
X113042819Y-71351733D01*
X113709485Y-69923161D01*
X113709485Y-71923161D01*
X114566628Y-70113638D02*
X114661866Y-70018400D01*
X114852342Y-69923161D01*
X115328533Y-69923161D01*
X115519009Y-70018400D01*
X115614247Y-70113638D01*
X115709485Y-70304114D01*
X115709485Y-70494590D01*
X115614247Y-70780304D01*
X114471390Y-71923161D01*
X115709485Y-71923161D01*
X90684552Y-71872361D02*
X90684552Y-69872361D01*
X91351219Y-71300933D01*
X92017885Y-69872361D01*
X92017885Y-71872361D01*
X94017885Y-71872361D02*
X92875028Y-71872361D01*
X93446457Y-71872361D02*
X93446457Y-69872361D01*
X93255980Y-70158076D01*
X93065504Y-70348552D01*
X92875028Y-70443790D01*
X127553533Y-42626085D02*
X127472580Y-42721323D01*
X127229723Y-42816561D01*
X127067819Y-42816561D01*
X126824961Y-42721323D01*
X126663057Y-42530847D01*
X126582104Y-42340371D01*
X126501152Y-41959419D01*
X126501152Y-41673704D01*
X126582104Y-41292752D01*
X126663057Y-41102276D01*
X126824961Y-40911800D01*
X127067819Y-40816561D01*
X127229723Y-40816561D01*
X127472580Y-40911800D01*
X127553533Y-41007038D01*
X128201152Y-42245133D02*
X129010676Y-42245133D01*
X128039247Y-42816561D02*
X128605914Y-40816561D01*
X129172580Y-42816561D01*
X130710676Y-42816561D02*
X130144009Y-41864180D01*
X129739247Y-42816561D02*
X129739247Y-40816561D01*
X130386866Y-40816561D01*
X130548771Y-40911800D01*
X130629723Y-41007038D01*
X130710676Y-41197514D01*
X130710676Y-41483228D01*
X130629723Y-41673704D01*
X130548771Y-41768942D01*
X130386866Y-41864180D01*
X129739247Y-41864180D01*
X131196390Y-40816561D02*
X132167819Y-40816561D01*
X131682104Y-42816561D02*
X131682104Y-40816561D01*
X132734485Y-41768942D02*
X133301152Y-41768942D01*
X133544009Y-42816561D02*
X132734485Y-42816561D01*
X132734485Y-40816561D01*
X133544009Y-40816561D01*
X135567819Y-42816561D02*
X135567819Y-40816561D01*
X136134485Y-42245133D01*
X136701152Y-40816561D01*
X136701152Y-42816561D01*
X137834485Y-40816561D02*
X138158295Y-40816561D01*
X138320200Y-40911800D01*
X138482104Y-41102276D01*
X138563057Y-41483228D01*
X138563057Y-42149895D01*
X138482104Y-42530847D01*
X138320200Y-42721323D01*
X138158295Y-42816561D01*
X137834485Y-42816561D01*
X137672580Y-42721323D01*
X137510676Y-42530847D01*
X137429723Y-42149895D01*
X137429723Y-41483228D01*
X137510676Y-41102276D01*
X137672580Y-40911800D01*
X137834485Y-40816561D01*
X139048771Y-40816561D02*
X140020200Y-40816561D01*
X139534485Y-42816561D02*
X139534485Y-40816561D01*
X140586866Y-41768942D02*
X141153533Y-41768942D01*
X141396390Y-42816561D02*
X140586866Y-42816561D01*
X140586866Y-40816561D01*
X141396390Y-40816561D01*
X142124961Y-40816561D02*
X142124961Y-42435609D01*
X142205914Y-42626085D01*
X142286866Y-42721323D01*
X142448771Y-42816561D01*
X142772580Y-42816561D01*
X142934485Y-42721323D01*
X143015438Y-42626085D01*
X143096390Y-42435609D01*
X143096390Y-40816561D01*
X144877342Y-42816561D02*
X144310676Y-41864180D01*
X143905914Y-42816561D02*
X143905914Y-40816561D01*
X144553533Y-40816561D01*
X144715438Y-40911800D01*
X144796390Y-41007038D01*
X144877342Y-41197514D01*
X144877342Y-41483228D01*
X144796390Y-41673704D01*
X144715438Y-41768942D01*
X144553533Y-41864180D01*
X143905914Y-41864180D01*
X146739247Y-41483228D02*
X147144009Y-42816561D01*
X147548771Y-41483228D01*
X149086866Y-42816561D02*
X148115438Y-42816561D01*
X148601152Y-42816561D02*
X148601152Y-40816561D01*
X148439247Y-41102276D01*
X148277342Y-41292752D01*
X148115438Y-41387990D01*
X149815438Y-42626085D02*
X149896390Y-42721323D01*
X149815438Y-42816561D01*
X149734485Y-42721323D01*
X149815438Y-42626085D01*
X149815438Y-42816561D01*
X150948771Y-40816561D02*
X151110676Y-40816561D01*
X151272580Y-40911800D01*
X151353533Y-41007038D01*
X151434485Y-41197514D01*
X151515438Y-41578466D01*
X151515438Y-42054657D01*
X151434485Y-42435609D01*
X151353533Y-42626085D01*
X151272580Y-42721323D01*
X151110676Y-42816561D01*
X150948771Y-42816561D01*
X150786866Y-42721323D01*
X150705914Y-42626085D01*
X150624961Y-42435609D01*
X150544009Y-42054657D01*
X150544009Y-41578466D01*
X150624961Y-41197514D01*
X150705914Y-41007038D01*
X150786866Y-40911800D01*
X150948771Y-40816561D01*
X153539247Y-42816561D02*
X153539247Y-40816561D01*
X154186866Y-40816561D01*
X154348771Y-40911800D01*
X154429723Y-41007038D01*
X154510676Y-41197514D01*
X154510676Y-41483228D01*
X154429723Y-41673704D01*
X154348771Y-41768942D01*
X154186866Y-41864180D01*
X153539247Y-41864180D01*
X155239247Y-42816561D02*
X155239247Y-41483228D01*
X155239247Y-41864180D02*
X155320200Y-41673704D01*
X155401152Y-41578466D01*
X155563057Y-41483228D01*
X155724961Y-41483228D01*
X156534485Y-42816561D02*
X156372580Y-42721323D01*
X156291628Y-42626085D01*
X156210676Y-42435609D01*
X156210676Y-41864180D01*
X156291628Y-41673704D01*
X156372580Y-41578466D01*
X156534485Y-41483228D01*
X156777342Y-41483228D01*
X156939247Y-41578466D01*
X157020200Y-41673704D01*
X157101152Y-41864180D01*
X157101152Y-42435609D01*
X157020200Y-42626085D01*
X156939247Y-42721323D01*
X156777342Y-42816561D01*
X156534485Y-42816561D01*
X158558295Y-42816561D02*
X158558295Y-40816561D01*
X158558295Y-42721323D02*
X158396390Y-42816561D01*
X158072580Y-42816561D01*
X157910676Y-42721323D01*
X157829723Y-42626085D01*
X157748771Y-42435609D01*
X157748771Y-41864180D01*
X157829723Y-41673704D01*
X157910676Y-41578466D01*
X158072580Y-41483228D01*
X158396390Y-41483228D01*
X158558295Y-41578466D01*
X129739247Y-46216561D02*
X129172580Y-45264180D01*
X128767819Y-46216561D02*
X128767819Y-44216561D01*
X129415438Y-44216561D01*
X129577342Y-44311800D01*
X129658295Y-44407038D01*
X129739247Y-44597514D01*
X129739247Y-44883228D01*
X129658295Y-45073704D01*
X129577342Y-45168942D01*
X129415438Y-45264180D01*
X128767819Y-45264180D01*
X130710676Y-46216561D02*
X130548771Y-46121323D01*
X130467819Y-46026085D01*
X130386866Y-45835609D01*
X130386866Y-45264180D01*
X130467819Y-45073704D01*
X130548771Y-44978466D01*
X130710676Y-44883228D01*
X130953533Y-44883228D01*
X131115438Y-44978466D01*
X131196390Y-45073704D01*
X131277342Y-45264180D01*
X131277342Y-45835609D01*
X131196390Y-46026085D01*
X131115438Y-46121323D01*
X130953533Y-46216561D01*
X130710676Y-46216561D01*
X132005914Y-46216561D02*
X132005914Y-44216561D01*
X132005914Y-44978466D02*
X132167819Y-44883228D01*
X132491628Y-44883228D01*
X132653533Y-44978466D01*
X132734485Y-45073704D01*
X132815438Y-45264180D01*
X132815438Y-45835609D01*
X132734485Y-46026085D01*
X132653533Y-46121323D01*
X132491628Y-46216561D01*
X132167819Y-46216561D01*
X132005914Y-46121323D01*
X133786866Y-46216561D02*
X133624961Y-46121323D01*
X133544009Y-46026085D01*
X133463057Y-45835609D01*
X133463057Y-45264180D01*
X133544009Y-45073704D01*
X133624961Y-44978466D01*
X133786866Y-44883228D01*
X134029723Y-44883228D01*
X134191628Y-44978466D01*
X134272580Y-45073704D01*
X134353533Y-45264180D01*
X134353533Y-45835609D01*
X134272580Y-46026085D01*
X134191628Y-46121323D01*
X134029723Y-46216561D01*
X133786866Y-46216561D01*
X134839247Y-44883228D02*
X135486866Y-44883228D01*
X135082104Y-44216561D02*
X135082104Y-45930847D01*
X135163057Y-46121323D01*
X135324961Y-46216561D01*
X135486866Y-46216561D01*
X136701152Y-46121323D02*
X136539247Y-46216561D01*
X136215438Y-46216561D01*
X136053533Y-46121323D01*
X135972580Y-45930847D01*
X135972580Y-45168942D01*
X136053533Y-44978466D01*
X136215438Y-44883228D01*
X136539247Y-44883228D01*
X136701152Y-44978466D01*
X136782104Y-45168942D01*
X136782104Y-45359419D01*
X135972580Y-45549895D01*
X138239247Y-46121323D02*
X138077342Y-46216561D01*
X137753533Y-46216561D01*
X137591628Y-46121323D01*
X137510676Y-46026085D01*
X137429723Y-45835609D01*
X137429723Y-45264180D01*
X137510676Y-45073704D01*
X137591628Y-44978466D01*
X137753533Y-44883228D01*
X138077342Y-44883228D01*
X138239247Y-44978466D01*
X138967819Y-46216561D02*
X138967819Y-44216561D01*
X139696390Y-46216561D02*
X139696390Y-45168942D01*
X139615438Y-44978466D01*
X139453533Y-44883228D01*
X139210676Y-44883228D01*
X139048771Y-44978466D01*
X138967819Y-45073704D01*
X141801152Y-46216561D02*
X141801152Y-44216561D01*
X142772580Y-46216561D01*
X142772580Y-44216561D01*
X144310676Y-46216561D02*
X144310676Y-45168942D01*
X144229723Y-44978466D01*
X144067819Y-44883228D01*
X143744009Y-44883228D01*
X143582104Y-44978466D01*
X144310676Y-46121323D02*
X144148771Y-46216561D01*
X143744009Y-46216561D01*
X143582104Y-46121323D01*
X143501152Y-45930847D01*
X143501152Y-45740371D01*
X143582104Y-45549895D01*
X143744009Y-45454657D01*
X144148771Y-45454657D01*
X144310676Y-45359419D01*
X145120200Y-44883228D02*
X145120200Y-46216561D01*
X145120200Y-45073704D02*
X145201152Y-44978466D01*
X145363057Y-44883228D01*
X145605914Y-44883228D01*
X145767819Y-44978466D01*
X145848771Y-45168942D01*
X145848771Y-46216561D01*
X147386866Y-46121323D02*
X147224961Y-46216561D01*
X146901152Y-46216561D01*
X146739247Y-46121323D01*
X146658295Y-46026085D01*
X146577342Y-45835609D01*
X146577342Y-45264180D01*
X146658295Y-45073704D01*
X146739247Y-44978466D01*
X146901152Y-44883228D01*
X147224961Y-44883228D01*
X147386866Y-44978466D01*
X147953533Y-44883228D02*
X148358295Y-46216561D01*
X148763057Y-44883228D02*
X148358295Y-46216561D01*
X148196390Y-46692752D01*
X148115438Y-46787990D01*
X147953533Y-46883228D01*
X150624961Y-44407038D02*
X150705914Y-44311800D01*
X150867819Y-44216561D01*
X151272580Y-44216561D01*
X151434485Y-44311800D01*
X151515438Y-44407038D01*
X151596390Y-44597514D01*
X151596390Y-44787990D01*
X151515438Y-45073704D01*
X150544009Y-46216561D01*
X151596390Y-46216561D01*
X152648771Y-44216561D02*
X152810676Y-44216561D01*
X152972580Y-44311800D01*
X153053533Y-44407038D01*
X153134485Y-44597514D01*
X153215438Y-44978466D01*
X153215438Y-45454657D01*
X153134485Y-45835609D01*
X153053533Y-46026085D01*
X152972580Y-46121323D01*
X152810676Y-46216561D01*
X152648771Y-46216561D01*
X152486866Y-46121323D01*
X152405914Y-46026085D01*
X152324961Y-45835609D01*
X152244009Y-45454657D01*
X152244009Y-44978466D01*
X152324961Y-44597514D01*
X152405914Y-44407038D01*
X152486866Y-44311800D01*
X152648771Y-44216561D01*
X153863057Y-44407038D02*
X153944009Y-44311800D01*
X154105914Y-44216561D01*
X154510676Y-44216561D01*
X154672580Y-44311800D01*
X154753533Y-44407038D01*
X154834485Y-44597514D01*
X154834485Y-44787990D01*
X154753533Y-45073704D01*
X153782104Y-46216561D01*
X154834485Y-46216561D01*
X155886866Y-44216561D02*
X156048771Y-44216561D01*
X156210676Y-44311800D01*
X156291628Y-44407038D01*
X156372580Y-44597514D01*
X156453533Y-44978466D01*
X156453533Y-45454657D01*
X156372580Y-45835609D01*
X156291628Y-46026085D01*
X156210676Y-46121323D01*
X156048771Y-46216561D01*
X155886866Y-46216561D01*
X155724961Y-46121323D01*
X155644009Y-46026085D01*
X155563057Y-45835609D01*
X155482104Y-45454657D01*
X155482104Y-44978466D01*
X155563057Y-44597514D01*
X155644009Y-44407038D01*
X155724961Y-44311800D01*
X155886866Y-44216561D01*
D14*
X140137642Y-37093114D02*
X140209071Y-36878828D01*
X140209071Y-36521685D01*
X140137642Y-36378828D01*
X140066214Y-36307400D01*
X139923357Y-36235971D01*
X139780500Y-36235971D01*
X139637642Y-36307400D01*
X139566214Y-36378828D01*
X139494785Y-36521685D01*
X139423357Y-36807400D01*
X139351928Y-36950257D01*
X139280500Y-37021685D01*
X139137642Y-37093114D01*
X138994785Y-37093114D01*
X138851928Y-37021685D01*
X138780500Y-36950257D01*
X138709071Y-36807400D01*
X138709071Y-36450257D01*
X138780500Y-36235971D01*
X138709071Y-35807400D02*
X138709071Y-34950257D01*
X140209071Y-35378828D02*
X138709071Y-35378828D01*
X140209071Y-34450257D02*
X138709071Y-34450257D01*
X139780500Y-33950257D01*
X138709071Y-33450257D01*
X140209071Y-33450257D01*
X138709071Y-32878828D02*
X138709071Y-31950257D01*
X139280500Y-32450257D01*
X139280500Y-32235971D01*
X139351928Y-32093114D01*
X139423357Y-32021685D01*
X139566214Y-31950257D01*
X139923357Y-31950257D01*
X140066214Y-32021685D01*
X140137642Y-32093114D01*
X140209071Y-32235971D01*
X140209071Y-32664542D01*
X140137642Y-32807400D01*
X140066214Y-32878828D01*
X138851928Y-31378828D02*
X138780500Y-31307400D01*
X138709071Y-31164542D01*
X138709071Y-30807400D01*
X138780500Y-30664542D01*
X138851928Y-30593114D01*
X138994785Y-30521685D01*
X139137642Y-30521685D01*
X139351928Y-30593114D01*
X140209071Y-31450257D01*
X140209071Y-30521685D01*
X142048357Y-38485971D02*
X142048357Y-38985971D01*
X142834071Y-38985971D02*
X141334071Y-38985971D01*
X141334071Y-38271685D01*
X141334071Y-37843114D02*
X141334071Y-36914542D01*
X141905500Y-37414542D01*
X141905500Y-37200257D01*
X141976928Y-37057400D01*
X142048357Y-36985971D01*
X142191214Y-36914542D01*
X142548357Y-36914542D01*
X142691214Y-36985971D01*
X142762642Y-37057400D01*
X142834071Y-37200257D01*
X142834071Y-37628828D01*
X142762642Y-37771685D01*
X142691214Y-37843114D01*
X141334071Y-35985971D02*
X141334071Y-35843114D01*
X141405500Y-35700257D01*
X141476928Y-35628828D01*
X141619785Y-35557400D01*
X141905500Y-35485971D01*
X142262642Y-35485971D01*
X142548357Y-35557400D01*
X142691214Y-35628828D01*
X142762642Y-35700257D01*
X142834071Y-35843114D01*
X142834071Y-35985971D01*
X142762642Y-36128828D01*
X142691214Y-36200257D01*
X142548357Y-36271685D01*
X142262642Y-36343114D01*
X141905500Y-36343114D01*
X141619785Y-36271685D01*
X141476928Y-36200257D01*
X141405500Y-36128828D01*
X141334071Y-35985971D01*
X141334071Y-34985971D02*
X141334071Y-34057400D01*
X141905500Y-34557400D01*
X141905500Y-34343114D01*
X141976928Y-34200257D01*
X142048357Y-34128828D01*
X142191214Y-34057400D01*
X142548357Y-34057400D01*
X142691214Y-34128828D01*
X142762642Y-34200257D01*
X142834071Y-34343114D01*
X142834071Y-34771685D01*
X142762642Y-34914542D01*
X142691214Y-34985971D01*
X142834071Y-33414542D02*
X141334071Y-33414542D01*
X142834071Y-32557400D02*
X141976928Y-33200257D01*
X141334071Y-32557400D02*
X142191214Y-33414542D01*
X141976928Y-31700257D02*
X141905500Y-31843114D01*
X141834071Y-31914542D01*
X141691214Y-31985971D01*
X141619785Y-31985971D01*
X141476928Y-31914542D01*
X141405500Y-31843114D01*
X141334071Y-31700257D01*
X141334071Y-31414542D01*
X141405500Y-31271685D01*
X141476928Y-31200257D01*
X141619785Y-31128828D01*
X141691214Y-31128828D01*
X141834071Y-31200257D01*
X141905500Y-31271685D01*
X141976928Y-31414542D01*
X141976928Y-31700257D01*
X142048357Y-31843114D01*
X142119785Y-31914542D01*
X142262642Y-31985971D01*
X142548357Y-31985971D01*
X142691214Y-31914542D01*
X142762642Y-31843114D01*
X142834071Y-31700257D01*
X142834071Y-31414542D01*
X142762642Y-31271685D01*
X142691214Y-31200257D01*
X142548357Y-31128828D01*
X142262642Y-31128828D01*
X142119785Y-31200257D01*
X142048357Y-31271685D01*
X141976928Y-31414542D01*
X141334071Y-30700257D02*
X141334071Y-29843114D01*
X142834071Y-30271685D02*
X141334071Y-30271685D01*
X141334071Y-28700257D02*
X141334071Y-28985971D01*
X141405500Y-29128828D01*
X141476928Y-29200257D01*
X141691214Y-29343114D01*
X141976928Y-29414542D01*
X142548357Y-29414542D01*
X142691214Y-29343114D01*
X142762642Y-29271685D01*
X142834071Y-29128828D01*
X142834071Y-28843114D01*
X142762642Y-28700257D01*
X142691214Y-28628828D01*
X142548357Y-28557400D01*
X142191214Y-28557400D01*
X142048357Y-28628828D01*
X141976928Y-28700257D01*
X141905500Y-28843114D01*
X141905500Y-29128828D01*
X141976928Y-29271685D01*
X142048357Y-29343114D01*
X142191214Y-29414542D01*
D12*
X160408200Y-54541542D02*
X160455819Y-54589161D01*
X160408200Y-54636780D01*
X160360580Y-54589161D01*
X160408200Y-54541542D01*
X160408200Y-54636780D01*
X138736200Y-54541542D02*
X138783819Y-54589161D01*
X138736200Y-54636780D01*
X138688580Y-54589161D01*
X138736200Y-54541542D01*
X138736200Y-54636780D01*
X117064200Y-54541542D02*
X117111819Y-54589161D01*
X117064200Y-54636780D01*
X117016580Y-54589161D01*
X117064200Y-54541542D01*
X117064200Y-54636780D01*
X95402400Y-54484542D02*
X95450019Y-54532161D01*
X95402400Y-54579780D01*
X95354780Y-54532161D01*
X95402400Y-54484542D01*
X95402400Y-54579780D01*
X97896847Y-36875980D02*
X97896847Y-35875980D01*
X98277800Y-35875980D01*
X98373038Y-35923600D01*
X98420657Y-35971219D01*
X98468276Y-36066457D01*
X98468276Y-36209314D01*
X98420657Y-36304552D01*
X98373038Y-36352171D01*
X98277800Y-36399790D01*
X97896847Y-36399790D01*
X98896847Y-35875980D02*
X98896847Y-36685504D01*
X98944466Y-36780742D01*
X98992085Y-36828361D01*
X99087323Y-36875980D01*
X99277800Y-36875980D01*
X99373038Y-36828361D01*
X99420657Y-36780742D01*
X99468276Y-36685504D01*
X99468276Y-35875980D01*
X99944466Y-36875980D02*
X99944466Y-35875980D01*
X100373038Y-36828361D02*
X100515895Y-36875980D01*
X100753990Y-36875980D01*
X100849228Y-36828361D01*
X100896847Y-36780742D01*
X100944466Y-36685504D01*
X100944466Y-36590266D01*
X100896847Y-36495028D01*
X100849228Y-36447409D01*
X100753990Y-36399790D01*
X100563514Y-36352171D01*
X100468276Y-36304552D01*
X100420657Y-36256933D01*
X100373038Y-36161695D01*
X100373038Y-36066457D01*
X100420657Y-35971219D01*
X100468276Y-35923600D01*
X100563514Y-35875980D01*
X100801609Y-35875980D01*
X100944466Y-35923600D01*
X101325419Y-36828361D02*
X101468276Y-36875980D01*
X101706371Y-36875980D01*
X101801609Y-36828361D01*
X101849228Y-36780742D01*
X101896847Y-36685504D01*
X101896847Y-36590266D01*
X101849228Y-36495028D01*
X101801609Y-36447409D01*
X101706371Y-36399790D01*
X101515895Y-36352171D01*
X101420657Y-36304552D01*
X101373038Y-36256933D01*
X101325419Y-36161695D01*
X101325419Y-36066457D01*
X101373038Y-35971219D01*
X101420657Y-35923600D01*
X101515895Y-35875980D01*
X101753990Y-35875980D01*
X101896847Y-35923600D01*
X102277800Y-36590266D02*
X102753990Y-36590266D01*
X102182561Y-36875980D02*
X102515895Y-35875980D01*
X102849228Y-36875980D01*
X103182561Y-36875980D02*
X103182561Y-35875980D01*
X103753990Y-36875980D01*
X103753990Y-35875980D01*
X104801609Y-36780742D02*
X104753990Y-36828361D01*
X104611133Y-36875980D01*
X104515895Y-36875980D01*
X104373038Y-36828361D01*
X104277800Y-36733123D01*
X104230180Y-36637885D01*
X104182561Y-36447409D01*
X104182561Y-36304552D01*
X104230180Y-36114076D01*
X104277800Y-36018838D01*
X104373038Y-35923600D01*
X104515895Y-35875980D01*
X104611133Y-35875980D01*
X104753990Y-35923600D01*
X104801609Y-35971219D01*
X105230180Y-36352171D02*
X105563514Y-36352171D01*
X105706371Y-36875980D02*
X105230180Y-36875980D01*
X105230180Y-35875980D01*
X105706371Y-35875980D01*
X166889228Y-36720971D02*
X167032085Y-36768590D01*
X167079704Y-36816209D01*
X167127323Y-36911447D01*
X167127323Y-37054304D01*
X167079704Y-37149542D01*
X167032085Y-37197161D01*
X166936847Y-37244780D01*
X166555895Y-37244780D01*
X166555895Y-36244780D01*
X166889228Y-36244780D01*
X166984466Y-36292400D01*
X167032085Y-36340019D01*
X167079704Y-36435257D01*
X167079704Y-36530495D01*
X167032085Y-36625733D01*
X166984466Y-36673352D01*
X166889228Y-36720971D01*
X166555895Y-36720971D01*
X167555895Y-36244780D02*
X167555895Y-37054304D01*
X167603514Y-37149542D01*
X167651133Y-37197161D01*
X167746371Y-37244780D01*
X167936847Y-37244780D01*
X168032085Y-37197161D01*
X168079704Y-37149542D01*
X168127323Y-37054304D01*
X168127323Y-36244780D01*
X168555895Y-37197161D02*
X168698752Y-37244780D01*
X168936847Y-37244780D01*
X169032085Y-37197161D01*
X169079704Y-37149542D01*
X169127323Y-37054304D01*
X169127323Y-36959066D01*
X169079704Y-36863828D01*
X169032085Y-36816209D01*
X168936847Y-36768590D01*
X168746371Y-36720971D01*
X168651133Y-36673352D01*
X168603514Y-36625733D01*
X168555895Y-36530495D01*
X168555895Y-36435257D01*
X168603514Y-36340019D01*
X168651133Y-36292400D01*
X168746371Y-36244780D01*
X168984466Y-36244780D01*
X169127323Y-36292400D01*
X166817800Y-37894780D02*
X167008276Y-37894780D01*
X167103514Y-37942400D01*
X167198752Y-38037638D01*
X167246371Y-38228114D01*
X167246371Y-38561447D01*
X167198752Y-38751923D01*
X167103514Y-38847161D01*
X167008276Y-38894780D01*
X166817800Y-38894780D01*
X166722561Y-38847161D01*
X166627323Y-38751923D01*
X166579704Y-38561447D01*
X166579704Y-38228114D01*
X166627323Y-38037638D01*
X166722561Y-37942400D01*
X166817800Y-37894780D01*
X167674942Y-37894780D02*
X167674942Y-38704304D01*
X167722561Y-38799542D01*
X167770180Y-38847161D01*
X167865419Y-38894780D01*
X168055895Y-38894780D01*
X168151133Y-38847161D01*
X168198752Y-38799542D01*
X168246371Y-38704304D01*
X168246371Y-37894780D01*
X168579704Y-37894780D02*
X169151133Y-37894780D01*
X168865419Y-38894780D02*
X168865419Y-37894780D01*
X146010428Y-36619371D02*
X146153285Y-36666990D01*
X146200904Y-36714609D01*
X146248523Y-36809847D01*
X146248523Y-36952704D01*
X146200904Y-37047942D01*
X146153285Y-37095561D01*
X146058047Y-37143180D01*
X145677095Y-37143180D01*
X145677095Y-36143180D01*
X146010428Y-36143180D01*
X146105666Y-36190800D01*
X146153285Y-36238419D01*
X146200904Y-36333657D01*
X146200904Y-36428895D01*
X146153285Y-36524133D01*
X146105666Y-36571752D01*
X146010428Y-36619371D01*
X145677095Y-36619371D01*
X146677095Y-36143180D02*
X146677095Y-36952704D01*
X146724714Y-37047942D01*
X146772333Y-37095561D01*
X146867571Y-37143180D01*
X147058047Y-37143180D01*
X147153285Y-37095561D01*
X147200904Y-37047942D01*
X147248523Y-36952704D01*
X147248523Y-36143180D01*
X147677095Y-37095561D02*
X147819952Y-37143180D01*
X148058047Y-37143180D01*
X148153285Y-37095561D01*
X148200904Y-37047942D01*
X148248523Y-36952704D01*
X148248523Y-36857466D01*
X148200904Y-36762228D01*
X148153285Y-36714609D01*
X148058047Y-36666990D01*
X147867571Y-36619371D01*
X147772333Y-36571752D01*
X147724714Y-36524133D01*
X147677095Y-36428895D01*
X147677095Y-36333657D01*
X147724714Y-36238419D01*
X147772333Y-36190800D01*
X147867571Y-36143180D01*
X148105666Y-36143180D01*
X148248523Y-36190800D01*
X146415190Y-38793180D02*
X146415190Y-37793180D01*
X146891380Y-38793180D02*
X146891380Y-37793180D01*
X147462809Y-38793180D01*
X147462809Y-37793180D01*
X106838904Y-41228971D02*
X107172238Y-41228971D01*
X107315095Y-41752780D02*
X106838904Y-41752780D01*
X106838904Y-40752780D01*
X107315095Y-40752780D01*
X107600809Y-41086114D02*
X107981761Y-41086114D01*
X107743666Y-40752780D02*
X107743666Y-41609923D01*
X107791285Y-41705161D01*
X107886523Y-41752780D01*
X107981761Y-41752780D01*
X108743666Y-41752780D02*
X108743666Y-41228971D01*
X108696047Y-41133733D01*
X108600809Y-41086114D01*
X108410333Y-41086114D01*
X108315095Y-41133733D01*
X108743666Y-41705161D02*
X108648428Y-41752780D01*
X108410333Y-41752780D01*
X108315095Y-41705161D01*
X108267476Y-41609923D01*
X108267476Y-41514685D01*
X108315095Y-41419447D01*
X108410333Y-41371828D01*
X108648428Y-41371828D01*
X108743666Y-41324209D01*
X109077000Y-41086114D02*
X109457952Y-41086114D01*
X109219857Y-40752780D02*
X109219857Y-41609923D01*
X109267476Y-41705161D01*
X109362714Y-41752780D01*
X109457952Y-41752780D01*
X118659447Y-44956361D02*
X118802304Y-45003980D01*
X119040400Y-45003980D01*
X119135638Y-44956361D01*
X119183257Y-44908742D01*
X119230876Y-44813504D01*
X119230876Y-44718266D01*
X119183257Y-44623028D01*
X119135638Y-44575409D01*
X119040400Y-44527790D01*
X118849923Y-44480171D01*
X118754685Y-44432552D01*
X118707066Y-44384933D01*
X118659447Y-44289695D01*
X118659447Y-44194457D01*
X118707066Y-44099219D01*
X118754685Y-44051600D01*
X118849923Y-44003980D01*
X119088019Y-44003980D01*
X119230876Y-44051600D01*
X119564209Y-44003980D02*
X119802304Y-45003980D01*
X119992780Y-44289695D01*
X120183257Y-45003980D01*
X120421352Y-44003980D01*
X120992780Y-44003980D02*
X121183257Y-44003980D01*
X121278495Y-44051600D01*
X121373733Y-44146838D01*
X121421352Y-44337314D01*
X121421352Y-44670647D01*
X121373733Y-44861123D01*
X121278495Y-44956361D01*
X121183257Y-45003980D01*
X120992780Y-45003980D01*
X120897542Y-44956361D01*
X120802304Y-44861123D01*
X120754685Y-44670647D01*
X120754685Y-44337314D01*
X120802304Y-44146838D01*
X120897542Y-44051600D01*
X120992780Y-44003980D01*
X119746780Y-42667180D02*
X119413447Y-42190990D01*
X119175352Y-42667180D02*
X119175352Y-41667180D01*
X119556304Y-41667180D01*
X119651542Y-41714800D01*
X119699161Y-41762419D01*
X119746780Y-41857657D01*
X119746780Y-42000514D01*
X119699161Y-42095752D01*
X119651542Y-42143371D01*
X119556304Y-42190990D01*
X119175352Y-42190990D01*
X120127733Y-42619561D02*
X120270590Y-42667180D01*
X120508685Y-42667180D01*
X120603923Y-42619561D01*
X120651542Y-42571942D01*
X120699161Y-42476704D01*
X120699161Y-42381466D01*
X120651542Y-42286228D01*
X120603923Y-42238609D01*
X120508685Y-42190990D01*
X120318209Y-42143371D01*
X120222971Y-42095752D01*
X120175352Y-42048133D01*
X120127733Y-41952895D01*
X120127733Y-41857657D01*
X120175352Y-41762419D01*
X120222971Y-41714800D01*
X120318209Y-41667180D01*
X120556304Y-41667180D01*
X120699161Y-41714800D01*
X120984876Y-41667180D02*
X121556304Y-41667180D01*
X121270590Y-42667180D02*
X121270590Y-41667180D01*
X117286352Y-40028761D02*
X117429209Y-40076380D01*
X117667304Y-40076380D01*
X117762542Y-40028761D01*
X117810161Y-39981142D01*
X117857780Y-39885904D01*
X117857780Y-39790666D01*
X117810161Y-39695428D01*
X117762542Y-39647809D01*
X117667304Y-39600190D01*
X117476828Y-39552571D01*
X117381590Y-39504952D01*
X117333971Y-39457333D01*
X117286352Y-39362095D01*
X117286352Y-39266857D01*
X117333971Y-39171619D01*
X117381590Y-39124000D01*
X117476828Y-39076380D01*
X117714923Y-39076380D01*
X117857780Y-39124000D01*
X118191114Y-39076380D02*
X118429209Y-40076380D01*
X118619685Y-39362095D01*
X118810161Y-40076380D01*
X119048257Y-39076380D01*
X119429209Y-40076380D02*
X119429209Y-39076380D01*
X119667304Y-39076380D01*
X119810161Y-39124000D01*
X119905400Y-39219238D01*
X119953019Y-39314476D01*
X120000638Y-39504952D01*
X120000638Y-39647809D01*
X119953019Y-39838285D01*
X119905400Y-39933523D01*
X119810161Y-40028761D01*
X119667304Y-40076380D01*
X119429209Y-40076380D01*
X120429209Y-40076380D02*
X120429209Y-39076380D01*
X121095876Y-39076380D02*
X121286352Y-39076380D01*
X121381590Y-39124000D01*
X121476828Y-39219238D01*
X121524447Y-39409714D01*
X121524447Y-39743047D01*
X121476828Y-39933523D01*
X121381590Y-40028761D01*
X121286352Y-40076380D01*
X121095876Y-40076380D01*
X121000638Y-40028761D01*
X120905400Y-39933523D01*
X120857780Y-39743047D01*
X120857780Y-39409714D01*
X120905400Y-39219238D01*
X121000638Y-39124000D01*
X121095876Y-39076380D01*
X119557895Y-36609400D02*
X119462657Y-36561780D01*
X119319800Y-36561780D01*
X119176942Y-36609400D01*
X119081704Y-36704638D01*
X119034085Y-36799876D01*
X118986466Y-36990352D01*
X118986466Y-37133209D01*
X119034085Y-37323685D01*
X119081704Y-37418923D01*
X119176942Y-37514161D01*
X119319800Y-37561780D01*
X119415038Y-37561780D01*
X119557895Y-37514161D01*
X119605514Y-37466542D01*
X119605514Y-37133209D01*
X119415038Y-37133209D01*
X120034085Y-37561780D02*
X120034085Y-36561780D01*
X120605514Y-37561780D01*
X120605514Y-36561780D01*
X121081704Y-37561780D02*
X121081704Y-36561780D01*
X121319800Y-36561780D01*
X121462657Y-36609400D01*
X121557895Y-36704638D01*
X121605514Y-36799876D01*
X121653133Y-36990352D01*
X121653133Y-37133209D01*
X121605514Y-37323685D01*
X121557895Y-37418923D01*
X121462657Y-37514161D01*
X121319800Y-37561780D01*
X121081704Y-37561780D01*
X117321295Y-34948761D02*
X117464152Y-34996380D01*
X117702247Y-34996380D01*
X117797485Y-34948761D01*
X117845104Y-34901142D01*
X117892723Y-34805904D01*
X117892723Y-34710666D01*
X117845104Y-34615428D01*
X117797485Y-34567809D01*
X117702247Y-34520190D01*
X117511771Y-34472571D01*
X117416533Y-34424952D01*
X117368914Y-34377333D01*
X117321295Y-34282095D01*
X117321295Y-34186857D01*
X117368914Y-34091619D01*
X117416533Y-34044000D01*
X117511771Y-33996380D01*
X117749866Y-33996380D01*
X117892723Y-34044000D01*
X118226057Y-33996380D02*
X118464152Y-34996380D01*
X118654628Y-34282095D01*
X118845104Y-34996380D01*
X119083200Y-33996380D01*
X120035580Y-34901142D02*
X119987961Y-34948761D01*
X119845104Y-34996380D01*
X119749866Y-34996380D01*
X119607009Y-34948761D01*
X119511771Y-34853523D01*
X119464152Y-34758285D01*
X119416533Y-34567809D01*
X119416533Y-34424952D01*
X119464152Y-34234476D01*
X119511771Y-34139238D01*
X119607009Y-34044000D01*
X119749866Y-33996380D01*
X119845104Y-33996380D01*
X119987961Y-34044000D01*
X120035580Y-34091619D01*
X120940342Y-34996380D02*
X120464152Y-34996380D01*
X120464152Y-33996380D01*
X121273676Y-34996380D02*
X121273676Y-33996380D01*
X121845104Y-34996380D02*
X121416533Y-34424952D01*
X121845104Y-33996380D02*
X121273676Y-34567809D01*
X118758104Y-31507180D02*
X119091438Y-32507180D01*
X119424771Y-31507180D01*
X119758104Y-32507180D02*
X119758104Y-31507180D01*
X119996200Y-31507180D01*
X120139057Y-31554800D01*
X120234295Y-31650038D01*
X120281914Y-31745276D01*
X120329533Y-31935752D01*
X120329533Y-32078609D01*
X120281914Y-32269085D01*
X120234295Y-32364323D01*
X120139057Y-32459561D01*
X119996200Y-32507180D01*
X119758104Y-32507180D01*
X120758104Y-32507180D02*
X120758104Y-31507180D01*
X120996200Y-31507180D01*
X121139057Y-31554800D01*
X121234295Y-31650038D01*
X121281914Y-31745276D01*
X121329533Y-31935752D01*
X121329533Y-32078609D01*
X121281914Y-32269085D01*
X121234295Y-32364323D01*
X121139057Y-32459561D01*
X120996200Y-32507180D01*
X120758104Y-32507180D01*
X123043819Y-31554800D02*
X122948580Y-31507180D01*
X122805723Y-31507180D01*
X122662866Y-31554800D01*
X122567628Y-31650038D01*
X122520009Y-31745276D01*
X122472390Y-31935752D01*
X122472390Y-32078609D01*
X122520009Y-32269085D01*
X122567628Y-32364323D01*
X122662866Y-32459561D01*
X122805723Y-32507180D01*
X122900961Y-32507180D01*
X123043819Y-32459561D01*
X123091438Y-32411942D01*
X123091438Y-32078609D01*
X122900961Y-32078609D01*
X123520009Y-32507180D02*
X123520009Y-31507180D01*
X124091438Y-32507180D01*
X124091438Y-31507180D01*
X124567628Y-32507180D02*
X124567628Y-31507180D01*
X124805723Y-31507180D01*
X124948580Y-31554800D01*
X125043819Y-31650038D01*
X125091438Y-31745276D01*
X125139057Y-31935752D01*
X125139057Y-32078609D01*
X125091438Y-32269085D01*
X125043819Y-32364323D01*
X124948580Y-32459561D01*
X124805723Y-32507180D01*
X124567628Y-32507180D01*
X125998457Y-29722771D02*
X126141314Y-29770390D01*
X126188933Y-29818009D01*
X126236552Y-29913247D01*
X126236552Y-30056104D01*
X126188933Y-30151342D01*
X126141314Y-30198961D01*
X126046076Y-30246580D01*
X125665123Y-30246580D01*
X125665123Y-29246580D01*
X125998457Y-29246580D01*
X126093695Y-29294200D01*
X126141314Y-29341819D01*
X126188933Y-29437057D01*
X126188933Y-29532295D01*
X126141314Y-29627533D01*
X126093695Y-29675152D01*
X125998457Y-29722771D01*
X125665123Y-29722771D01*
X126855600Y-29246580D02*
X127046076Y-29246580D01*
X127141314Y-29294200D01*
X127236552Y-29389438D01*
X127284171Y-29579914D01*
X127284171Y-29913247D01*
X127236552Y-30103723D01*
X127141314Y-30198961D01*
X127046076Y-30246580D01*
X126855600Y-30246580D01*
X126760361Y-30198961D01*
X126665123Y-30103723D01*
X126617504Y-29913247D01*
X126617504Y-29579914D01*
X126665123Y-29389438D01*
X126760361Y-29294200D01*
X126855600Y-29246580D01*
X127903219Y-29246580D02*
X128093695Y-29246580D01*
X128188933Y-29294200D01*
X128284171Y-29389438D01*
X128331790Y-29579914D01*
X128331790Y-29913247D01*
X128284171Y-30103723D01*
X128188933Y-30198961D01*
X128093695Y-30246580D01*
X127903219Y-30246580D01*
X127807980Y-30198961D01*
X127712742Y-30103723D01*
X127665123Y-29913247D01*
X127665123Y-29579914D01*
X127712742Y-29389438D01*
X127807980Y-29294200D01*
X127903219Y-29246580D01*
X128617504Y-29246580D02*
X129188933Y-29246580D01*
X128903219Y-30246580D02*
X128903219Y-29246580D01*
D11*
X114902064Y-28554000D02*
X113697936Y-28554000D01*
X114902064Y-30374000D02*
X113697936Y-30374000D01*
X103029936Y-40280000D02*
X104234064Y-40280000D01*
X103029936Y-38460000D02*
X104234064Y-38460000D01*
X106173000Y-40505000D02*
X110058000Y-40505000D01*
X106173000Y-38235000D02*
X106173000Y-40505000D01*
X110058000Y-38235000D02*
X106173000Y-38235000D01*
X157977736Y-39190000D02*
X158402000Y-38890000D01*
X157977736Y-38590000D02*
X157977736Y-39190000D01*
X158402000Y-38890000D02*
X157977736Y-38590000D01*
X164662000Y-35280000D02*
X164662000Y-34580000D01*
X164362000Y-35280000D02*
X164662000Y-35280000D01*
X164362000Y-34580000D02*
X164362000Y-35280000D01*
X164662000Y-34580000D02*
X164362000Y-34580000D01*
X162162000Y-35280000D02*
X162162000Y-34580000D01*
X161862000Y-35280000D02*
X162162000Y-35280000D01*
X161862000Y-34580000D02*
X161862000Y-35280000D01*
X162162000Y-34580000D02*
X161862000Y-34580000D01*
X159662000Y-35280000D02*
X159662000Y-34580000D01*
X159362000Y-35280000D02*
X159662000Y-35280000D01*
X159362000Y-34580000D02*
X159362000Y-35280000D01*
X159662000Y-34580000D02*
X159362000Y-34580000D01*
X157682000Y-25900000D02*
X157682000Y-34580000D01*
X166342000Y-25900000D02*
X157682000Y-25900000D01*
X166342000Y-34580000D02*
X166342000Y-25900000D01*
X157682000Y-34580000D02*
X166342000Y-34580000D01*
X148325736Y-39190000D02*
X148750000Y-38890000D01*
X148325736Y-38590000D02*
X148325736Y-39190000D01*
X148750000Y-38890000D02*
X148325736Y-38590000D01*
X155010000Y-35280000D02*
X155010000Y-34580000D01*
X154710000Y-35280000D02*
X155010000Y-35280000D01*
X154710000Y-34580000D02*
X154710000Y-35280000D01*
X155010000Y-34580000D02*
X154710000Y-34580000D01*
X152510000Y-35280000D02*
X152510000Y-34580000D01*
X152210000Y-35280000D02*
X152510000Y-35280000D01*
X152210000Y-34580000D02*
X152210000Y-35280000D01*
X152510000Y-34580000D02*
X152210000Y-34580000D01*
X150010000Y-35280000D02*
X150010000Y-34580000D01*
X149710000Y-35280000D02*
X150010000Y-35280000D01*
X149710000Y-34580000D02*
X149710000Y-35280000D01*
X150010000Y-34580000D02*
X149710000Y-34580000D01*
X148030000Y-25900000D02*
X148030000Y-34580000D01*
X156690000Y-25900000D02*
X148030000Y-25900000D01*
X156690000Y-34580000D02*
X156690000Y-25900000D01*
X148030000Y-34580000D02*
X156690000Y-34580000D01*
X96008000Y-39902000D02*
X96008000Y-38402000D01*
X94758000Y-35902000D02*
X90258000Y-35902000D01*
X89008000Y-38402000D02*
X89008000Y-39902000D01*
X90258000Y-42402000D02*
X94758000Y-42402000D01*
X114363000Y-40384000D02*
X114363000Y-43944000D01*
X114363000Y-35304000D02*
X114363000Y-38864000D01*
X114363000Y-45464000D02*
X114363000Y-46034000D01*
X117023000Y-30674000D02*
X117023000Y-31244000D01*
X117023000Y-31244000D02*
X118543000Y-31244000D01*
X114363000Y-30674000D02*
X114363000Y-33784000D01*
X117023000Y-42924000D02*
X117023000Y-46034000D01*
X117023000Y-37844000D02*
X117023000Y-41404000D01*
X117023000Y-32764000D02*
X117023000Y-36324000D01*
X114363000Y-46034000D02*
X117023000Y-46034000D01*
X114363000Y-30674000D02*
X117023000Y-30674000D01*
X125328000Y-32033936D02*
X125328000Y-33238064D01*
X127148000Y-32033936D02*
X127148000Y-33238064D01*
X125282000Y-28642000D02*
X125282000Y-29972000D01*
X123952000Y-28642000D02*
X125282000Y-28642000D01*
X122682000Y-28642000D02*
X122682000Y-31302000D01*
X122682000Y-31302000D02*
X117542000Y-31302000D01*
X122682000Y-28642000D02*
X117542000Y-28642000D01*
X117542000Y-28642000D02*
X117542000Y-31302000D01*
X105801767Y-35090000D02*
X107498233Y-35090000D01*
X102801767Y-35090000D02*
X104498233Y-35090000D01*
X100160000Y-35090000D02*
X101498233Y-35090000D01*
X111585000Y-35090000D02*
X108801767Y-35090000D01*
X95715000Y-35090000D02*
X98140000Y-35090000D01*
X111585000Y-25970000D02*
X111585000Y-35090000D01*
X110585000Y-24970000D02*
X111585000Y-25970000D01*
X96715000Y-24970000D02*
X110585000Y-24970000D01*
X95715000Y-25970000D02*
X96715000Y-24970000D01*
X95715000Y-35090000D02*
X95715000Y-25970000D01*
D12*
X159951000Y-54159000D02*
X159951000Y-54734000D01*
X170301000Y-54159000D02*
X170301000Y-54834000D01*
X170301000Y-64509000D02*
X170301000Y-63834000D01*
X159951000Y-64509000D02*
X159951000Y-63834000D01*
X159951000Y-54159000D02*
X160626000Y-54159000D01*
X159951000Y-64509000D02*
X160626000Y-64509000D01*
X170301000Y-64509000D02*
X169626000Y-64509000D01*
X170301000Y-54159000D02*
X169626000Y-54159000D01*
X159951000Y-54734000D02*
X158676000Y-54734000D01*
X138279000Y-54159000D02*
X138279000Y-54734000D01*
X148629000Y-54159000D02*
X148629000Y-54834000D01*
X148629000Y-64509000D02*
X148629000Y-63834000D01*
X138279000Y-64509000D02*
X138279000Y-63834000D01*
X138279000Y-54159000D02*
X138954000Y-54159000D01*
X138279000Y-64509000D02*
X138954000Y-64509000D01*
X148629000Y-64509000D02*
X147954000Y-64509000D01*
X148629000Y-54159000D02*
X147954000Y-54159000D01*
X138279000Y-54734000D02*
X137004000Y-54734000D01*
X116607000Y-54159000D02*
X116607000Y-54734000D01*
X126957000Y-54159000D02*
X126957000Y-54834000D01*
X126957000Y-64509000D02*
X126957000Y-63834000D01*
X116607000Y-64509000D02*
X116607000Y-63834000D01*
X116607000Y-54159000D02*
X117282000Y-54159000D01*
X116607000Y-64509000D02*
X117282000Y-64509000D01*
X126957000Y-64509000D02*
X126282000Y-64509000D01*
X126957000Y-54159000D02*
X126282000Y-54159000D01*
X116607000Y-54734000D02*
X115332000Y-54734000D01*
D11*
X169980000Y-65590936D02*
X169980000Y-66795064D01*
X171800000Y-65590936D02*
X171800000Y-66795064D01*
X172139000Y-65587936D02*
X172139000Y-66792064D01*
X173959000Y-65587936D02*
X173959000Y-66792064D01*
X156518000Y-62923936D02*
X156518000Y-64128064D01*
X158338000Y-62923936D02*
X158338000Y-64128064D01*
X154232000Y-62923936D02*
X154232000Y-64128064D01*
X156052000Y-62923936D02*
X156052000Y-64128064D01*
X148308000Y-65590936D02*
X148308000Y-66795064D01*
X150128000Y-65590936D02*
X150128000Y-66795064D01*
X150467000Y-65587936D02*
X150467000Y-66792064D01*
X152287000Y-65587936D02*
X152287000Y-66792064D01*
X134846000Y-62923936D02*
X134846000Y-64128064D01*
X136666000Y-62923936D02*
X136666000Y-64128064D01*
X132560000Y-62923936D02*
X132560000Y-64128064D01*
X134380000Y-62923936D02*
X134380000Y-64128064D01*
X126636000Y-65590936D02*
X126636000Y-66795064D01*
X128456000Y-65590936D02*
X128456000Y-66795064D01*
X128795000Y-65587936D02*
X128795000Y-66792064D01*
X130615000Y-65587936D02*
X130615000Y-66792064D01*
X113174000Y-62923936D02*
X113174000Y-64128064D01*
X114994000Y-62923936D02*
X114994000Y-64128064D01*
X110888000Y-62923936D02*
X110888000Y-64128064D01*
X112708000Y-62923936D02*
X112708000Y-64128064D01*
X161140000Y-70140000D02*
X161140000Y-68925000D01*
X161200000Y-74100000D02*
X161200000Y-76360000D01*
X161700000Y-74100000D02*
X161700000Y-76360000D01*
X168300000Y-72500000D02*
X169300000Y-72500000D01*
X168300000Y-74100000D02*
X168300000Y-72500000D01*
X169300000Y-74100000D02*
X168300000Y-74100000D01*
X169300000Y-72500000D02*
X169300000Y-74100000D01*
X161700000Y-72500000D02*
X160700000Y-72500000D01*
X161700000Y-74100000D02*
X161700000Y-72500000D01*
X160700000Y-74100000D02*
X161700000Y-74100000D01*
X160700000Y-72500000D02*
X160700000Y-74100000D01*
X170060000Y-70140000D02*
X169140000Y-70140000D01*
X159940000Y-70140000D02*
X160860000Y-70140000D01*
X167500000Y-72000000D02*
X167500000Y-76360000D01*
X162500000Y-72000000D02*
X167500000Y-72000000D01*
X162500000Y-76360000D02*
X162500000Y-72000000D01*
X169140000Y-70140000D02*
X168860000Y-70140000D01*
X169140000Y-68540000D02*
X169140000Y-70140000D01*
X170060000Y-68540000D02*
X169140000Y-68540000D01*
X170060000Y-76360000D02*
X170060000Y-68540000D01*
X159940000Y-76360000D02*
X170060000Y-76360000D01*
X159940000Y-68540000D02*
X159940000Y-76360000D01*
X160860000Y-68540000D02*
X159940000Y-68540000D01*
X160860000Y-70140000D02*
X160860000Y-68540000D01*
X161140000Y-70140000D02*
X160860000Y-70140000D01*
X139468000Y-70140000D02*
X139468000Y-68925000D01*
X139528000Y-74100000D02*
X139528000Y-76360000D01*
X140028000Y-74100000D02*
X140028000Y-76360000D01*
X146628000Y-72500000D02*
X147628000Y-72500000D01*
X146628000Y-74100000D02*
X146628000Y-72500000D01*
X147628000Y-74100000D02*
X146628000Y-74100000D01*
X147628000Y-72500000D02*
X147628000Y-74100000D01*
X140028000Y-72500000D02*
X139028000Y-72500000D01*
X140028000Y-74100000D02*
X140028000Y-72500000D01*
X139028000Y-74100000D02*
X140028000Y-74100000D01*
X139028000Y-72500000D02*
X139028000Y-74100000D01*
X148388000Y-70140000D02*
X147468000Y-70140000D01*
X138268000Y-70140000D02*
X139188000Y-70140000D01*
X145828000Y-72000000D02*
X145828000Y-76360000D01*
X140828000Y-72000000D02*
X145828000Y-72000000D01*
X140828000Y-76360000D02*
X140828000Y-72000000D01*
X147468000Y-70140000D02*
X147188000Y-70140000D01*
X147468000Y-68540000D02*
X147468000Y-70140000D01*
X148388000Y-68540000D02*
X147468000Y-68540000D01*
X148388000Y-76360000D02*
X148388000Y-68540000D01*
X138268000Y-76360000D02*
X148388000Y-76360000D01*
X138268000Y-68540000D02*
X138268000Y-76360000D01*
X139188000Y-68540000D02*
X138268000Y-68540000D01*
X139188000Y-70140000D02*
X139188000Y-68540000D01*
X139468000Y-70140000D02*
X139188000Y-70140000D01*
X117796000Y-70140000D02*
X117796000Y-68925000D01*
X117856000Y-74100000D02*
X117856000Y-76360000D01*
X118356000Y-74100000D02*
X118356000Y-76360000D01*
X124956000Y-72500000D02*
X125956000Y-72500000D01*
X124956000Y-74100000D02*
X124956000Y-72500000D01*
X125956000Y-74100000D02*
X124956000Y-74100000D01*
X125956000Y-72500000D02*
X125956000Y-74100000D01*
X118356000Y-72500000D02*
X117356000Y-72500000D01*
X118356000Y-74100000D02*
X118356000Y-72500000D01*
X117356000Y-74100000D02*
X118356000Y-74100000D01*
X117356000Y-72500000D02*
X117356000Y-74100000D01*
X126716000Y-70140000D02*
X125796000Y-70140000D01*
X116596000Y-70140000D02*
X117516000Y-70140000D01*
X124156000Y-72000000D02*
X124156000Y-76360000D01*
X119156000Y-72000000D02*
X124156000Y-72000000D01*
X119156000Y-76360000D02*
X119156000Y-72000000D01*
X125796000Y-70140000D02*
X125516000Y-70140000D01*
X125796000Y-68540000D02*
X125796000Y-70140000D01*
X126716000Y-68540000D02*
X125796000Y-68540000D01*
X126716000Y-76360000D02*
X126716000Y-68540000D01*
X116596000Y-76360000D02*
X126716000Y-76360000D01*
X116596000Y-68540000D02*
X116596000Y-76360000D01*
X117516000Y-68540000D02*
X116596000Y-68540000D01*
X117516000Y-70140000D02*
X117516000Y-68540000D01*
X117796000Y-70140000D02*
X117516000Y-70140000D01*
X159176064Y-66423000D02*
X157971936Y-66423000D01*
X159176064Y-68243000D02*
X157971936Y-68243000D01*
X165323000Y-50412064D02*
X165323000Y-49207936D01*
X163503000Y-50412064D02*
X163503000Y-49207936D01*
X157957000Y-50412064D02*
X157957000Y-49207936D01*
X156137000Y-50412064D02*
X156137000Y-49207936D01*
X160624000Y-50412064D02*
X160624000Y-49207936D01*
X158804000Y-50412064D02*
X158804000Y-49207936D01*
X172181000Y-50412064D02*
X172181000Y-49207936D01*
X170361000Y-50412064D02*
X170361000Y-49207936D01*
X169641000Y-50412064D02*
X169641000Y-49207936D01*
X167821000Y-50412064D02*
X167821000Y-49207936D01*
X137504064Y-66423000D02*
X136299936Y-66423000D01*
X137504064Y-68243000D02*
X136299936Y-68243000D01*
X143651000Y-50412064D02*
X143651000Y-49207936D01*
X141831000Y-50412064D02*
X141831000Y-49207936D01*
X136285000Y-50412064D02*
X136285000Y-49207936D01*
X134465000Y-50412064D02*
X134465000Y-49207936D01*
X138952000Y-50412064D02*
X138952000Y-49207936D01*
X137132000Y-50412064D02*
X137132000Y-49207936D01*
X150509000Y-50412064D02*
X150509000Y-49207936D01*
X148689000Y-50412064D02*
X148689000Y-49207936D01*
X147969000Y-50412064D02*
X147969000Y-49207936D01*
X146149000Y-50412064D02*
X146149000Y-49207936D01*
X115832064Y-66423000D02*
X114627936Y-66423000D01*
X115832064Y-68243000D02*
X114627936Y-68243000D01*
X121979000Y-50412064D02*
X121979000Y-49207936D01*
X120159000Y-50412064D02*
X120159000Y-49207936D01*
X114613000Y-50412064D02*
X114613000Y-49207936D01*
X112793000Y-50412064D02*
X112793000Y-49207936D01*
X117280000Y-50412064D02*
X117280000Y-49207936D01*
X115460000Y-50412064D02*
X115460000Y-49207936D01*
X128837000Y-50412064D02*
X128837000Y-49207936D01*
X127017000Y-50412064D02*
X127017000Y-49207936D01*
X126297000Y-50412064D02*
X126297000Y-49207936D01*
X124477000Y-50412064D02*
X124477000Y-49207936D01*
D12*
X94935000Y-54085000D02*
X94935000Y-54660000D01*
X105285000Y-54085000D02*
X105285000Y-54760000D01*
X105285000Y-64435000D02*
X105285000Y-63760000D01*
X94935000Y-64435000D02*
X94935000Y-63760000D01*
X94935000Y-54085000D02*
X95610000Y-54085000D01*
X94935000Y-64435000D02*
X95610000Y-64435000D01*
X105285000Y-64435000D02*
X104610000Y-64435000D01*
X105285000Y-54085000D02*
X104610000Y-54085000D01*
X94935000Y-54660000D02*
X93660000Y-54660000D01*
D11*
X129416000Y-30869000D02*
X128101000Y-30869000D01*
X129416000Y-30569000D02*
X129416000Y-30869000D01*
X129716000Y-30569000D02*
X129416000Y-30569000D01*
X136636000Y-30569000D02*
X136636000Y-30869000D01*
X136336000Y-30569000D02*
X136636000Y-30569000D01*
X129416000Y-37789000D02*
X129416000Y-37489000D01*
X129716000Y-37789000D02*
X129416000Y-37789000D01*
X136636000Y-37789000D02*
X136636000Y-37489000D01*
X136336000Y-37789000D02*
X136636000Y-37789000D01*
X104964000Y-65516936D02*
X104964000Y-66721064D01*
X106784000Y-65516936D02*
X106784000Y-66721064D01*
X107123000Y-65513936D02*
X107123000Y-66718064D01*
X108943000Y-65513936D02*
X108943000Y-66718064D01*
X91502000Y-62849936D02*
X91502000Y-64054064D01*
X93322000Y-62849936D02*
X93322000Y-64054064D01*
X89216000Y-62849936D02*
X89216000Y-64054064D01*
X91036000Y-62849936D02*
X91036000Y-64054064D01*
X96124000Y-70066000D02*
X96124000Y-68851000D01*
X96184000Y-74026000D02*
X96184000Y-76286000D01*
X96684000Y-74026000D02*
X96684000Y-76286000D01*
X103284000Y-72426000D02*
X104284000Y-72426000D01*
X103284000Y-74026000D02*
X103284000Y-72426000D01*
X104284000Y-74026000D02*
X103284000Y-74026000D01*
X104284000Y-72426000D02*
X104284000Y-74026000D01*
X96684000Y-72426000D02*
X95684000Y-72426000D01*
X96684000Y-74026000D02*
X96684000Y-72426000D01*
X95684000Y-74026000D02*
X96684000Y-74026000D01*
X95684000Y-72426000D02*
X95684000Y-74026000D01*
X105044000Y-70066000D02*
X104124000Y-70066000D01*
X94924000Y-70066000D02*
X95844000Y-70066000D01*
X102484000Y-71926000D02*
X102484000Y-76286000D01*
X97484000Y-71926000D02*
X102484000Y-71926000D01*
X97484000Y-76286000D02*
X97484000Y-71926000D01*
X104124000Y-70066000D02*
X103844000Y-70066000D01*
X104124000Y-68466000D02*
X104124000Y-70066000D01*
X105044000Y-68466000D02*
X104124000Y-68466000D01*
X105044000Y-76286000D02*
X105044000Y-68466000D01*
X94924000Y-76286000D02*
X105044000Y-76286000D01*
X94924000Y-68466000D02*
X94924000Y-76286000D01*
X95844000Y-68466000D02*
X94924000Y-68466000D01*
X95844000Y-70066000D02*
X95844000Y-68466000D01*
X96124000Y-70066000D02*
X95844000Y-70066000D01*
X94160064Y-66349000D02*
X92955936Y-66349000D01*
X94160064Y-68169000D02*
X92955936Y-68169000D01*
X100307000Y-50338064D02*
X100307000Y-49133936D01*
X98487000Y-50338064D02*
X98487000Y-49133936D01*
X92941000Y-50338064D02*
X92941000Y-49133936D01*
X91121000Y-50338064D02*
X91121000Y-49133936D01*
X95608000Y-50338064D02*
X95608000Y-49133936D01*
X93788000Y-50338064D02*
X93788000Y-49133936D01*
X107165000Y-50338064D02*
X107165000Y-49133936D01*
X105345000Y-50338064D02*
X105345000Y-49133936D01*
X104625000Y-50338064D02*
X104625000Y-49133936D01*
X102805000Y-50338064D02*
X102805000Y-49133936D01*
M02*
