%FSLAX45Y45*%
G04 Gerber Fmt 4.5, Leading zero omitted, Abs format (unit mm)*
G04 Created by KiCad (PCBNEW (6.0.0)) date 2022-05-09 15:37:38*
%MOMM*%
%LPD*%
G01*
G04 APERTURE LIST*
%TA.AperFunction,Profile*%
%ADD10C,0.050000*%
%TD*%
%ADD11C,0.200000*%
%ADD12C,0.030000*%
%ADD13C,0.100000*%
G04 APERTURE END LIST*
D10*
X7825150Y-12172600D02*
X7825150Y-6672600D01*
X8125150Y-12472600D02*
X14125150Y-12472600D01*
X14425150Y-12172600D02*
X14425150Y-6672600D01*
X14125150Y-6372600D02*
X8125150Y-6372600D01*
X7825150Y-12172600D02*
G75*
G03*
X8125150Y-12472600I300000J0D01*
G01*
X14425150Y-6672600D02*
G75*
G03*
X14125150Y-6372600I-300000J0D01*
G01*
X8125150Y-6372600D02*
G75*
G03*
X7825150Y-6672600I0J-300000D01*
G01*
X14125150Y-12472600D02*
G75*
G03*
X14425150Y-12172600I0J300000D01*
G01*
D11*
D12*
X10832550Y-7976530D02*
X10862550Y-8006530D01*
X10862550Y-7976530D02*
X10832550Y-8006530D01*
X10832550Y-8056530D02*
X10862550Y-8086530D01*
X10862550Y-8056530D02*
X10832550Y-8086530D01*
X10832550Y-8136530D02*
X10862550Y-8166530D01*
X10862550Y-8136530D02*
X10832550Y-8166530D01*
X10832550Y-8216530D02*
X10862550Y-8246530D01*
X10862550Y-8216530D02*
X10832550Y-8246530D01*
X10912550Y-7936530D02*
X10942550Y-7966530D01*
X10942550Y-7936530D02*
X10912550Y-7966530D01*
X10912550Y-8016530D02*
X10942550Y-8046530D01*
X10942550Y-8016530D02*
X10912550Y-8046530D01*
X10912550Y-8096530D02*
X10942550Y-8126530D01*
X10942550Y-8096530D02*
X10912550Y-8126530D01*
X10912550Y-8176530D02*
X10942550Y-8206530D01*
X10942550Y-8176530D02*
X10912550Y-8206530D01*
X10912550Y-8256530D02*
X10942550Y-8286530D01*
X10942550Y-8256530D02*
X10912550Y-8286530D01*
X10992550Y-7976530D02*
X11022550Y-8006530D01*
X11022550Y-7976530D02*
X10992550Y-8006530D01*
X10992550Y-8056530D02*
X11022550Y-8086530D01*
X11022550Y-8056530D02*
X10992550Y-8086530D01*
X10992550Y-8136530D02*
X11022550Y-8166530D01*
X11022550Y-8136530D02*
X10992550Y-8166530D01*
X10992550Y-8216530D02*
X11022550Y-8246530D01*
X11022550Y-8216530D02*
X10992550Y-8246530D01*
X11182550Y-7976530D02*
X11212550Y-8006530D01*
X11212550Y-7976530D02*
X11182550Y-8006530D01*
X11182550Y-8056530D02*
X11212550Y-8086530D01*
X11212550Y-8056530D02*
X11182550Y-8086530D01*
X11182550Y-8136530D02*
X11212550Y-8166530D01*
X11212550Y-8136530D02*
X11182550Y-8166530D01*
X11182550Y-8216530D02*
X11212550Y-8246530D01*
X11212550Y-8216530D02*
X11182550Y-8246530D01*
X11262550Y-7936530D02*
X11292550Y-7966530D01*
X11292550Y-7936530D02*
X11262550Y-7966530D01*
X11262550Y-8016530D02*
X11292550Y-8046530D01*
X11292550Y-8016530D02*
X11262550Y-8046530D01*
X11262550Y-8096530D02*
X11292550Y-8126530D01*
X11292550Y-8096530D02*
X11262550Y-8126530D01*
X11262550Y-8176530D02*
X11292550Y-8206530D01*
X11292550Y-8176530D02*
X11262550Y-8206530D01*
X11262550Y-8256530D02*
X11292550Y-8286530D01*
X11292550Y-8256530D02*
X11262550Y-8286530D01*
X11342550Y-7976530D02*
X11372550Y-8006530D01*
X11372550Y-7976530D02*
X11342550Y-8006530D01*
X11342550Y-8056530D02*
X11372550Y-8086530D01*
X11372550Y-8056530D02*
X11342550Y-8086530D01*
X11342550Y-8136530D02*
X11372550Y-8166530D01*
X11372550Y-8136530D02*
X11342550Y-8166530D01*
X11342550Y-8216530D02*
X11372550Y-8246530D01*
X11372550Y-8216530D02*
X11342550Y-8246530D01*
D13*
X8152550Y-7493000D02*
G75*
G03*
X8152550Y-7493000I-50000J0D01*
G01*
X8152550Y-9563100D02*
G75*
G03*
X8152550Y-9563100I-50000J0D01*
G01*
X8152550Y-11772900D02*
G75*
G03*
X8152550Y-11772900I-50000J0D01*
G01*
X8470050Y-8153400D02*
G75*
G03*
X8470050Y-8153400I-50000J0D01*
G01*
X8470050Y-10261600D02*
G75*
G03*
X8470050Y-10261600I-50000J0D01*
G01*
X8711350Y-6680200D02*
G75*
G03*
X8711350Y-6680200I-50000J0D01*
G01*
X9270150Y-11277600D02*
G75*
G03*
X9270150Y-11277600I-50000J0D01*
G01*
X9447950Y-11531600D02*
G75*
G03*
X9447950Y-11531600I-50000J0D01*
G01*
X9473350Y-10109200D02*
G75*
G03*
X9473350Y-10109200I-50000J0D01*
G01*
X9473350Y-10769600D02*
G75*
G03*
X9473350Y-10769600I-50000J0D01*
G01*
X9524150Y-8839200D02*
G75*
G03*
X9524150Y-8839200I-50000J0D01*
G01*
X9752750Y-7213600D02*
G75*
G03*
X9752750Y-7213600I-50000J0D01*
G01*
X9778150Y-11277600D02*
G75*
G03*
X9778150Y-11277600I-50000J0D01*
G01*
X9778150Y-11531600D02*
G75*
G03*
X9778150Y-11531600I-50000J0D01*
G01*
X9981350Y-7505700D02*
G75*
G03*
X9981350Y-7505700I-50000J0D01*
G01*
X10616350Y-11480800D02*
G75*
G03*
X10616350Y-11480800I-50000J0D01*
G01*
X10857650Y-8610600D02*
G75*
G03*
X10857650Y-8610600I-50000J0D01*
G01*
X11225950Y-6553200D02*
G75*
G03*
X11225950Y-6553200I-50000J0D01*
G01*
X11251350Y-10744200D02*
G75*
G03*
X11251350Y-10744200I-50000J0D01*
G01*
X11302150Y-7353300D02*
G75*
G03*
X11302150Y-7353300I-50000J0D01*
G01*
X11302150Y-8610600D02*
G75*
G03*
X11302150Y-8610600I-50000J0D01*
G01*
X11530750Y-9626600D02*
G75*
G03*
X11530750Y-9626600I-50000J0D01*
G01*
X11708550Y-11836400D02*
G75*
G03*
X11708550Y-11836400I-50000J0D01*
G01*
X11987950Y-7173050D02*
G75*
G03*
X11987950Y-7173050I-50000J0D01*
G01*
X12572150Y-8153400D02*
G75*
G03*
X12572150Y-8153400I-50000J0D01*
G01*
X12572150Y-8407400D02*
G75*
G03*
X12572150Y-8407400I-50000J0D01*
G01*
X12572150Y-10261600D02*
G75*
G03*
X12572150Y-10261600I-50000J0D01*
G01*
X12572150Y-10515600D02*
G75*
G03*
X12572150Y-10515600I-50000J0D01*
G01*
X12826150Y-7353300D02*
G75*
G03*
X12826150Y-7353300I-50000J0D01*
G01*
X12889650Y-11722100D02*
G75*
G03*
X12889650Y-11722100I-50000J0D01*
G01*
X12927750Y-8153400D02*
G75*
G03*
X12927750Y-8153400I-50000J0D01*
G01*
X12927750Y-8890000D02*
G75*
G03*
X12927750Y-8890000I-50000J0D01*
G01*
X12927750Y-10261600D02*
G75*
G03*
X12927750Y-10261600I-50000J0D01*
G01*
X12927750Y-11074400D02*
G75*
G03*
X12927750Y-11074400I-50000J0D01*
G01*
X12953150Y-9652000D02*
G75*
G03*
X12953150Y-9652000I-50000J0D01*
G01*
X13092850Y-8407400D02*
G75*
G03*
X13092850Y-8407400I-50000J0D01*
G01*
X13128800Y-10515600D02*
G75*
G03*
X13128800Y-10515600I-50000J0D01*
G01*
X13359550Y-11836400D02*
G75*
G03*
X13359550Y-11836400I-50000J0D01*
G01*
X13588150Y-6629400D02*
G75*
G03*
X13588150Y-6629400I-50000J0D01*
G01*
X13892950Y-9423400D02*
G75*
G03*
X13892950Y-9423400I-50000J0D01*
G01*
X13892950Y-11531600D02*
G75*
G03*
X13892950Y-11531600I-50000J0D01*
G01*
X14045350Y-7442200D02*
G75*
G03*
X14045350Y-7442200I-50000J0D01*
G01*
X14172350Y-7823200D02*
G75*
G03*
X14172350Y-7823200I-50000J0D01*
G01*
X14172350Y-9779000D02*
G75*
G03*
X14172350Y-9779000I-50000J0D01*
G01*
X14172350Y-11785600D02*
G75*
G03*
X14172350Y-11785600I-50000J0D01*
G01*
X8178800Y-8357400D02*
X8178800Y-8457400D01*
X8128800Y-8407400D02*
X8228800Y-8407400D01*
X8178800Y-8611400D02*
X8178800Y-8711400D01*
X8128800Y-8661400D02*
X8228800Y-8661400D01*
X8178800Y-8865400D02*
X8178800Y-8965400D01*
X8128800Y-8915400D02*
X8228800Y-8915400D01*
X8178800Y-9119400D02*
X8178800Y-9219400D01*
X8128800Y-9169400D02*
X8228800Y-9169400D01*
X8178800Y-10465600D02*
X8178800Y-10565600D01*
X8128800Y-10515600D02*
X8228800Y-10515600D01*
X8178800Y-10719600D02*
X8178800Y-10819600D01*
X8128800Y-10769600D02*
X8228800Y-10769600D01*
X8178800Y-10973600D02*
X8178800Y-11073600D01*
X8128800Y-11023600D02*
X8228800Y-11023600D01*
X8178800Y-11227600D02*
X8178800Y-11327600D01*
X8128800Y-11277600D02*
X8228800Y-11277600D01*
X8661400Y-7849400D02*
X8661400Y-7949400D01*
X8611400Y-7899400D02*
X8711400Y-7899400D01*
X8661400Y-8103400D02*
X8661400Y-8203400D01*
X8611400Y-8153400D02*
X8711400Y-8153400D01*
X8661400Y-8357400D02*
X8661400Y-8457400D01*
X8611400Y-8407400D02*
X8711400Y-8407400D01*
X8661400Y-8611400D02*
X8661400Y-8711400D01*
X8611400Y-8661400D02*
X8711400Y-8661400D01*
X8661400Y-8865400D02*
X8661400Y-8965400D01*
X8611400Y-8915400D02*
X8711400Y-8915400D01*
X8661400Y-9119400D02*
X8661400Y-9219400D01*
X8611400Y-9169400D02*
X8711400Y-9169400D01*
X8661400Y-9373400D02*
X8661400Y-9473400D01*
X8611400Y-9423400D02*
X8711400Y-9423400D01*
X8661400Y-9627400D02*
X8661400Y-9727400D01*
X8611400Y-9677400D02*
X8711400Y-9677400D01*
X8661400Y-9957600D02*
X8661400Y-10057600D01*
X8611400Y-10007600D02*
X8711400Y-10007600D01*
X8661400Y-10211600D02*
X8661400Y-10311600D01*
X8611400Y-10261600D02*
X8711400Y-10261600D01*
X8661400Y-10465600D02*
X8661400Y-10565600D01*
X8611400Y-10515600D02*
X8711400Y-10515600D01*
X8661400Y-10719600D02*
X8661400Y-10819600D01*
X8611400Y-10769600D02*
X8711400Y-10769600D01*
X8661400Y-10973600D02*
X8661400Y-11073600D01*
X8611400Y-11023600D02*
X8711400Y-11023600D01*
X8661400Y-11227600D02*
X8661400Y-11327600D01*
X8611400Y-11277600D02*
X8711400Y-11277600D01*
X8661400Y-11481600D02*
X8661400Y-11581600D01*
X8611400Y-11531600D02*
X8711400Y-11531600D01*
X8661400Y-11735600D02*
X8661400Y-11835600D01*
X8611400Y-11785600D02*
X8711400Y-11785600D01*
X8680450Y-7163600D02*
X8680450Y-7263600D01*
X8630450Y-7213600D02*
X8730450Y-7213600D01*
D11*
X8720450Y-7268600D02*
X8720450Y-7158600D01*
X8640450Y-7268600D02*
X8640450Y-7158600D01*
X8720450Y-7158600D02*
G75*
G03*
X8640450Y-7158600I-40000J0D01*
G01*
X8640450Y-7268600D02*
G75*
G03*
X8720450Y-7268600I40000J0D01*
G01*
D13*
X9080450Y-7163600D02*
X9080450Y-7263600D01*
X9030450Y-7213600D02*
X9130450Y-7213600D01*
D11*
X9120450Y-7268600D02*
X9120450Y-7158600D01*
X9040450Y-7268600D02*
X9040450Y-7158600D01*
X9120450Y-7158600D02*
G75*
G03*
X9040450Y-7158600I-40000J0D01*
G01*
X9040450Y-7268600D02*
G75*
G03*
X9120450Y-7268600I40000J0D01*
G01*
D13*
X9093150Y-8230400D02*
X9093150Y-8330400D01*
X9043150Y-8280400D02*
X9143150Y-8280400D01*
X9093150Y-10364000D02*
X9093150Y-10464000D01*
X9043150Y-10414000D02*
X9143150Y-10414000D01*
X9443150Y-8230400D02*
X9443150Y-8330400D01*
X9393150Y-8280400D02*
X9493150Y-8280400D01*
X9443150Y-10364000D02*
X9443150Y-10464000D01*
X9393150Y-10414000D02*
X9493150Y-10414000D01*
X9480450Y-7163600D02*
X9480450Y-7263600D01*
X9430450Y-7213600D02*
X9530450Y-7213600D01*
D11*
X9520450Y-7268600D02*
X9520450Y-7158600D01*
X9440450Y-7268600D02*
X9440450Y-7158600D01*
X9520450Y-7158600D02*
G75*
G03*
X9440450Y-7158600I-40000J0D01*
G01*
X9440450Y-7268600D02*
G75*
G03*
X9520450Y-7268600I40000J0D01*
G01*
D13*
X9931400Y-7849400D02*
X9931400Y-7949400D01*
X9881400Y-7899400D02*
X9981400Y-7899400D01*
X9931400Y-8103400D02*
X9931400Y-8203400D01*
X9881400Y-8153400D02*
X9981400Y-8153400D01*
X9931400Y-8357400D02*
X9931400Y-8457400D01*
X9881400Y-8407400D02*
X9981400Y-8407400D01*
X9931400Y-8611400D02*
X9931400Y-8711400D01*
X9881400Y-8661400D02*
X9981400Y-8661400D01*
X9931400Y-8865400D02*
X9931400Y-8965400D01*
X9881400Y-8915400D02*
X9981400Y-8915400D01*
X9931400Y-9119400D02*
X9931400Y-9219400D01*
X9881400Y-9169400D02*
X9981400Y-9169400D01*
X9931400Y-9373400D02*
X9931400Y-9473400D01*
X9881400Y-9423400D02*
X9981400Y-9423400D01*
X9931400Y-9627400D02*
X9931400Y-9727400D01*
X9881400Y-9677400D02*
X9981400Y-9677400D01*
X9931400Y-9957600D02*
X9931400Y-10057600D01*
X9881400Y-10007600D02*
X9981400Y-10007600D01*
X9931400Y-10211600D02*
X9931400Y-10311600D01*
X9881400Y-10261600D02*
X9981400Y-10261600D01*
X9931400Y-10465600D02*
X9931400Y-10565600D01*
X9881400Y-10515600D02*
X9981400Y-10515600D01*
X9931400Y-10719600D02*
X9931400Y-10819600D01*
X9881400Y-10769600D02*
X9981400Y-10769600D01*
X9931400Y-10973600D02*
X9931400Y-11073600D01*
X9881400Y-11023600D02*
X9981400Y-11023600D01*
X9931400Y-11227600D02*
X9931400Y-11327600D01*
X9881400Y-11277600D02*
X9981400Y-11277600D01*
X9931400Y-11481600D02*
X9931400Y-11581600D01*
X9881400Y-11531600D02*
X9981400Y-11531600D01*
X9931400Y-11735600D02*
X9931400Y-11835600D01*
X9881400Y-11785600D02*
X9981400Y-11785600D01*
X10363150Y-7544600D02*
X10363150Y-7644600D01*
X10313150Y-7594600D02*
X10413150Y-7594600D01*
X10363150Y-7798600D02*
X10363150Y-7898600D01*
X10313150Y-7848600D02*
X10413150Y-7848600D01*
X10363150Y-8052600D02*
X10363150Y-8152600D01*
X10313150Y-8102600D02*
X10413150Y-8102600D01*
X10363150Y-8306600D02*
X10363150Y-8406600D01*
X10313150Y-8356600D02*
X10413150Y-8356600D01*
X10363150Y-8560600D02*
X10363150Y-8660600D01*
X10313150Y-8610600D02*
X10413150Y-8610600D01*
X10363150Y-8814600D02*
X10363150Y-8914600D01*
X10313150Y-8864600D02*
X10413150Y-8864600D01*
X10363150Y-9068600D02*
X10363150Y-9168600D01*
X10313150Y-9118600D02*
X10413150Y-9118600D01*
X10363150Y-9322600D02*
X10363150Y-9422600D01*
X10313150Y-9372600D02*
X10413150Y-9372600D01*
X10363150Y-9576600D02*
X10363150Y-9676600D01*
X10313150Y-9626600D02*
X10413150Y-9626600D01*
X10363150Y-9830600D02*
X10363150Y-9930600D01*
X10313150Y-9880600D02*
X10413150Y-9880600D01*
X10363150Y-10084600D02*
X10363150Y-10184600D01*
X10313150Y-10134600D02*
X10413150Y-10134600D01*
X10363150Y-10338600D02*
X10363150Y-10438600D01*
X10313150Y-10388600D02*
X10413150Y-10388600D01*
X10363150Y-10592600D02*
X10363150Y-10692600D01*
X10313150Y-10642600D02*
X10413150Y-10642600D01*
X10363150Y-10846600D02*
X10363150Y-10946600D01*
X10313150Y-10896600D02*
X10413150Y-10896600D01*
X10363150Y-11100600D02*
X10363150Y-11200600D01*
X10313150Y-11150600D02*
X10413150Y-11150600D01*
X10769550Y-9830600D02*
X10769550Y-9930600D01*
X10719550Y-9880600D02*
X10819550Y-9880600D01*
X10769550Y-10084600D02*
X10769550Y-10184600D01*
X10719550Y-10134600D02*
X10819550Y-10134600D01*
X10769550Y-10338600D02*
X10769550Y-10438600D01*
X10719550Y-10388600D02*
X10819550Y-10388600D01*
X10769550Y-10592600D02*
X10769550Y-10692600D01*
X10719550Y-10642600D02*
X10819550Y-10642600D01*
X11252150Y-8789200D02*
X11252150Y-8889200D01*
X11202150Y-8839200D02*
X11302150Y-8839200D01*
X11252150Y-9551200D02*
X11252150Y-9651200D01*
X11202150Y-9601200D02*
X11302150Y-9601200D01*
X11531550Y-9830600D02*
X11531550Y-9930600D01*
X11481550Y-9880600D02*
X11581550Y-9880600D01*
X11531550Y-10084600D02*
X11531550Y-10184600D01*
X11481550Y-10134600D02*
X11581550Y-10134600D01*
X11531550Y-10338600D02*
X11531550Y-10438600D01*
X11481550Y-10388600D02*
X11581550Y-10388600D01*
X11531550Y-10592600D02*
X11531550Y-10692600D01*
X11481550Y-10642600D02*
X11581550Y-10642600D01*
X11887150Y-7544600D02*
X11887150Y-7644600D01*
X11837150Y-7594600D02*
X11937150Y-7594600D01*
X11887150Y-7798600D02*
X11887150Y-7898600D01*
X11837150Y-7848600D02*
X11937150Y-7848600D01*
X11887150Y-8052600D02*
X11887150Y-8152600D01*
X11837150Y-8102600D02*
X11937150Y-8102600D01*
X11887150Y-8306600D02*
X11887150Y-8406600D01*
X11837150Y-8356600D02*
X11937150Y-8356600D01*
X11887150Y-8560600D02*
X11887150Y-8660600D01*
X11837150Y-8610600D02*
X11937150Y-8610600D01*
X11887150Y-8814600D02*
X11887150Y-8914600D01*
X11837150Y-8864600D02*
X11937150Y-8864600D01*
X11887150Y-9068600D02*
X11887150Y-9168600D01*
X11837150Y-9118600D02*
X11937150Y-9118600D01*
X11887150Y-9322600D02*
X11887150Y-9422600D01*
X11837150Y-9372600D02*
X11937150Y-9372600D01*
X11887150Y-9576600D02*
X11887150Y-9676600D01*
X11837150Y-9626600D02*
X11937150Y-9626600D01*
X11887150Y-9830600D02*
X11887150Y-9930600D01*
X11837150Y-9880600D02*
X11937150Y-9880600D01*
X11887150Y-10084600D02*
X11887150Y-10184600D01*
X11837150Y-10134600D02*
X11937150Y-10134600D01*
X11887150Y-10338600D02*
X11887150Y-10438600D01*
X11837150Y-10388600D02*
X11937150Y-10388600D01*
X11887150Y-10592600D02*
X11887150Y-10692600D01*
X11837150Y-10642600D02*
X11937150Y-10642600D01*
X11887150Y-10846600D02*
X11887150Y-10946600D01*
X11837150Y-10896600D02*
X11937150Y-10896600D01*
X11887150Y-11100600D02*
X11887150Y-11200600D01*
X11837150Y-11150600D02*
X11937150Y-11150600D01*
X12319000Y-7849400D02*
X12319000Y-7949400D01*
X12269000Y-7899400D02*
X12369000Y-7899400D01*
X12319000Y-8103400D02*
X12319000Y-8203400D01*
X12269000Y-8153400D02*
X12369000Y-8153400D01*
X12319000Y-8357400D02*
X12319000Y-8457400D01*
X12269000Y-8407400D02*
X12369000Y-8407400D01*
X12319000Y-8611400D02*
X12319000Y-8711400D01*
X12269000Y-8661400D02*
X12369000Y-8661400D01*
X12319000Y-8865400D02*
X12319000Y-8965400D01*
X12269000Y-8915400D02*
X12369000Y-8915400D01*
X12319000Y-9119400D02*
X12319000Y-9219400D01*
X12269000Y-9169400D02*
X12369000Y-9169400D01*
X12319000Y-9373400D02*
X12319000Y-9473400D01*
X12269000Y-9423400D02*
X12369000Y-9423400D01*
X12319000Y-9627400D02*
X12319000Y-9727400D01*
X12269000Y-9677400D02*
X12369000Y-9677400D01*
X12319000Y-9957600D02*
X12319000Y-10057600D01*
X12269000Y-10007600D02*
X12369000Y-10007600D01*
X12319000Y-10211600D02*
X12319000Y-10311600D01*
X12269000Y-10261600D02*
X12369000Y-10261600D01*
X12319000Y-10465600D02*
X12319000Y-10565600D01*
X12269000Y-10515600D02*
X12369000Y-10515600D01*
X12319000Y-10719600D02*
X12319000Y-10819600D01*
X12269000Y-10769600D02*
X12369000Y-10769600D01*
X12319000Y-10973600D02*
X12319000Y-11073600D01*
X12269000Y-11023600D02*
X12369000Y-11023600D01*
X12319000Y-11227600D02*
X12319000Y-11327600D01*
X12269000Y-11277600D02*
X12369000Y-11277600D01*
X12319000Y-11481600D02*
X12319000Y-11581600D01*
X12269000Y-11531600D02*
X12369000Y-11531600D01*
X12319000Y-11735600D02*
X12319000Y-11835600D01*
X12269000Y-11785600D02*
X12369000Y-11785600D01*
X12467150Y-7127100D02*
X12467150Y-7227100D01*
X12417150Y-7177100D02*
X12517150Y-7177100D01*
X12467150Y-7327100D02*
X12467150Y-7427100D01*
X12417150Y-7377100D02*
X12517150Y-7377100D01*
X12832550Y-9144800D02*
X12832550Y-9244800D01*
X12782550Y-9194800D02*
X12882550Y-9194800D01*
X12832550Y-11329200D02*
X12832550Y-11429200D01*
X12782550Y-11379200D02*
X12882550Y-11379200D01*
X13157150Y-7460550D02*
X13157150Y-7560550D01*
X13107150Y-7510550D02*
X13207150Y-7510550D01*
X13182550Y-9144800D02*
X13182550Y-9244800D01*
X13132550Y-9194800D02*
X13232550Y-9194800D01*
X13182550Y-11329200D02*
X13182550Y-11429200D01*
X13132550Y-11379200D02*
X13232550Y-11379200D01*
X13411150Y-7460550D02*
X13411150Y-7560550D01*
X13361150Y-7510550D02*
X13461150Y-7510550D01*
X13589000Y-7849400D02*
X13589000Y-7949400D01*
X13539000Y-7899400D02*
X13639000Y-7899400D01*
X13589000Y-8103400D02*
X13589000Y-8203400D01*
X13539000Y-8153400D02*
X13639000Y-8153400D01*
X13589000Y-8357400D02*
X13589000Y-8457400D01*
X13539000Y-8407400D02*
X13639000Y-8407400D01*
X13589000Y-8611400D02*
X13589000Y-8711400D01*
X13539000Y-8661400D02*
X13639000Y-8661400D01*
X13589000Y-8865400D02*
X13589000Y-8965400D01*
X13539000Y-8915400D02*
X13639000Y-8915400D01*
X13589000Y-9119400D02*
X13589000Y-9219400D01*
X13539000Y-9169400D02*
X13639000Y-9169400D01*
X13589000Y-9373400D02*
X13589000Y-9473400D01*
X13539000Y-9423400D02*
X13639000Y-9423400D01*
X13589000Y-9627400D02*
X13589000Y-9727400D01*
X13539000Y-9677400D02*
X13639000Y-9677400D01*
X13589000Y-9957600D02*
X13589000Y-10057600D01*
X13539000Y-10007600D02*
X13639000Y-10007600D01*
X13589000Y-10211600D02*
X13589000Y-10311600D01*
X13539000Y-10261600D02*
X13639000Y-10261600D01*
X13589000Y-10465600D02*
X13589000Y-10565600D01*
X13539000Y-10515600D02*
X13639000Y-10515600D01*
X13589000Y-10719600D02*
X13589000Y-10819600D01*
X13539000Y-10769600D02*
X13639000Y-10769600D01*
X13589000Y-10973600D02*
X13589000Y-11073600D01*
X13539000Y-11023600D02*
X13639000Y-11023600D01*
X13589000Y-11227600D02*
X13589000Y-11327600D01*
X13539000Y-11277600D02*
X13639000Y-11277600D01*
X13589000Y-11481600D02*
X13589000Y-11581600D01*
X13539000Y-11531600D02*
X13639000Y-11531600D01*
X13589000Y-11735600D02*
X13589000Y-11835600D01*
X13539000Y-11785600D02*
X13639000Y-11785600D01*
X13665150Y-7460550D02*
X13665150Y-7560550D01*
X13615150Y-7510550D02*
X13715150Y-7510550D01*
X14071600Y-8357400D02*
X14071600Y-8457400D01*
X14021600Y-8407400D02*
X14121600Y-8407400D01*
X14071600Y-8611400D02*
X14071600Y-8711400D01*
X14021600Y-8661400D02*
X14121600Y-8661400D01*
X14071600Y-8865400D02*
X14071600Y-8965400D01*
X14021600Y-8915400D02*
X14121600Y-8915400D01*
X14071600Y-9119400D02*
X14071600Y-9219400D01*
X14021600Y-9169400D02*
X14121600Y-9169400D01*
X14071600Y-10465600D02*
X14071600Y-10565600D01*
X14021600Y-10515600D02*
X14121600Y-10515600D01*
X14071600Y-10719600D02*
X14071600Y-10819600D01*
X14021600Y-10769600D02*
X14121600Y-10769600D01*
X14071600Y-10973600D02*
X14071600Y-11073600D01*
X14021600Y-11023600D02*
X14121600Y-11023600D01*
X14071600Y-11227600D02*
X14071600Y-11327600D01*
X14021600Y-11277600D02*
X14121600Y-11277600D01*
D11*
X8080269Y-12785576D02*
X8080269Y-12585576D01*
X8127888Y-12585576D01*
X8156459Y-12595100D01*
X8175507Y-12614148D01*
X8185031Y-12633195D01*
X8194555Y-12671290D01*
X8194555Y-12699862D01*
X8185031Y-12737957D01*
X8175507Y-12757005D01*
X8156459Y-12776052D01*
X8127888Y-12785576D01*
X8080269Y-12785576D01*
X8280269Y-12785576D02*
X8280269Y-12652243D01*
X8280269Y-12690338D02*
X8289793Y-12671290D01*
X8299317Y-12661767D01*
X8318364Y-12652243D01*
X8337412Y-12652243D01*
X8404079Y-12785576D02*
X8404079Y-12652243D01*
X8404079Y-12585576D02*
X8394555Y-12595100D01*
X8404079Y-12604624D01*
X8413602Y-12595100D01*
X8404079Y-12585576D01*
X8404079Y-12604624D01*
X8527888Y-12785576D02*
X8508840Y-12776052D01*
X8499317Y-12757005D01*
X8499317Y-12585576D01*
X8632650Y-12785576D02*
X8613602Y-12776052D01*
X8604079Y-12757005D01*
X8604079Y-12585576D01*
X8861221Y-12785576D02*
X8861221Y-12585576D01*
X8927888Y-12728433D01*
X8994555Y-12585576D01*
X8994555Y-12785576D01*
X9175507Y-12785576D02*
X9175507Y-12680814D01*
X9165983Y-12661767D01*
X9146936Y-12652243D01*
X9108840Y-12652243D01*
X9089793Y-12661767D01*
X9175507Y-12776052D02*
X9156460Y-12785576D01*
X9108840Y-12785576D01*
X9089793Y-12776052D01*
X9080269Y-12757005D01*
X9080269Y-12737957D01*
X9089793Y-12718909D01*
X9108840Y-12709386D01*
X9156460Y-12709386D01*
X9175507Y-12699862D01*
X9270745Y-12652243D02*
X9270745Y-12852243D01*
X9270745Y-12661767D02*
X9289793Y-12652243D01*
X9327888Y-12652243D01*
X9346936Y-12661767D01*
X9356460Y-12671290D01*
X9365983Y-12690338D01*
X9365983Y-12747481D01*
X9356460Y-12766528D01*
X9346936Y-12776052D01*
X9327888Y-12785576D01*
X9289793Y-12785576D01*
X9270745Y-12776052D01*
X9451698Y-12766528D02*
X9461221Y-12776052D01*
X9451698Y-12785576D01*
X9442174Y-12776052D01*
X9451698Y-12766528D01*
X9451698Y-12785576D01*
X9451698Y-12661767D02*
X9461221Y-12671290D01*
X9451698Y-12680814D01*
X9442174Y-12671290D01*
X9451698Y-12661767D01*
X9451698Y-12680814D01*
D12*
X7792650Y-13100100D02*
X7822650Y-13130100D01*
X7822650Y-13100100D02*
X7792650Y-13130100D01*
D11*
X8118364Y-13005576D02*
X8137412Y-13005576D01*
X8156459Y-13015100D01*
X8165983Y-13024624D01*
X8175507Y-13043671D01*
X8185031Y-13081767D01*
X8185031Y-13129386D01*
X8175507Y-13167481D01*
X8165983Y-13186528D01*
X8156459Y-13196052D01*
X8137412Y-13205576D01*
X8118364Y-13205576D01*
X8099317Y-13196052D01*
X8089793Y-13186528D01*
X8080269Y-13167481D01*
X8070745Y-13129386D01*
X8070745Y-13081767D01*
X8080269Y-13043671D01*
X8089793Y-13024624D01*
X8099317Y-13015100D01*
X8118364Y-13005576D01*
X8270745Y-13186528D02*
X8280269Y-13196052D01*
X8270745Y-13205576D01*
X8261221Y-13196052D01*
X8270745Y-13186528D01*
X8270745Y-13205576D01*
X8346936Y-13005576D02*
X8470745Y-13005576D01*
X8404079Y-13081767D01*
X8432650Y-13081767D01*
X8451698Y-13091290D01*
X8461221Y-13100814D01*
X8470745Y-13119862D01*
X8470745Y-13167481D01*
X8461221Y-13186528D01*
X8451698Y-13196052D01*
X8432650Y-13205576D01*
X8375507Y-13205576D01*
X8356459Y-13196052D01*
X8346936Y-13186528D01*
X8594555Y-13005576D02*
X8613602Y-13005576D01*
X8632650Y-13015100D01*
X8642174Y-13024624D01*
X8651698Y-13043671D01*
X8661221Y-13081767D01*
X8661221Y-13129386D01*
X8651698Y-13167481D01*
X8642174Y-13186528D01*
X8632650Y-13196052D01*
X8613602Y-13205576D01*
X8594555Y-13205576D01*
X8575507Y-13196052D01*
X8565983Y-13186528D01*
X8556460Y-13167481D01*
X8546936Y-13129386D01*
X8546936Y-13081767D01*
X8556460Y-13043671D01*
X8565983Y-13024624D01*
X8575507Y-13015100D01*
X8594555Y-13005576D01*
X8785031Y-13005576D02*
X8804079Y-13005576D01*
X8823126Y-13015100D01*
X8832650Y-13024624D01*
X8842174Y-13043671D01*
X8851698Y-13081767D01*
X8851698Y-13129386D01*
X8842174Y-13167481D01*
X8832650Y-13186528D01*
X8823126Y-13196052D01*
X8804079Y-13205576D01*
X8785031Y-13205576D01*
X8765983Y-13196052D01*
X8756460Y-13186528D01*
X8746936Y-13167481D01*
X8737412Y-13129386D01*
X8737412Y-13081767D01*
X8746936Y-13043671D01*
X8756460Y-13024624D01*
X8765983Y-13015100D01*
X8785031Y-13005576D01*
X8937412Y-13205576D02*
X8937412Y-13072243D01*
X8937412Y-13091290D02*
X8946936Y-13081767D01*
X8965983Y-13072243D01*
X8994555Y-13072243D01*
X9013602Y-13081767D01*
X9023126Y-13100814D01*
X9023126Y-13205576D01*
X9023126Y-13100814D02*
X9032650Y-13081767D01*
X9051698Y-13072243D01*
X9080269Y-13072243D01*
X9099317Y-13081767D01*
X9108840Y-13100814D01*
X9108840Y-13205576D01*
X9204079Y-13205576D02*
X9204079Y-13072243D01*
X9204079Y-13091290D02*
X9213602Y-13081767D01*
X9232650Y-13072243D01*
X9261221Y-13072243D01*
X9280269Y-13081767D01*
X9289793Y-13100814D01*
X9289793Y-13205576D01*
X9289793Y-13100814D02*
X9299317Y-13081767D01*
X9318364Y-13072243D01*
X9346936Y-13072243D01*
X9365983Y-13081767D01*
X9375507Y-13100814D01*
X9375507Y-13205576D01*
X9765983Y-12996052D02*
X9594555Y-13253195D01*
X10023126Y-13005576D02*
X10042174Y-13005576D01*
X10061221Y-13015100D01*
X10070745Y-13024624D01*
X10080269Y-13043671D01*
X10089793Y-13081767D01*
X10089793Y-13129386D01*
X10080269Y-13167481D01*
X10070745Y-13186528D01*
X10061221Y-13196052D01*
X10042174Y-13205576D01*
X10023126Y-13205576D01*
X10004079Y-13196052D01*
X9994555Y-13186528D01*
X9985031Y-13167481D01*
X9975507Y-13129386D01*
X9975507Y-13081767D01*
X9985031Y-13043671D01*
X9994555Y-13024624D01*
X10004079Y-13015100D01*
X10023126Y-13005576D01*
X10175507Y-13186528D02*
X10185031Y-13196052D01*
X10175507Y-13205576D01*
X10165983Y-13196052D01*
X10175507Y-13186528D01*
X10175507Y-13205576D01*
X10308840Y-13005576D02*
X10327888Y-13005576D01*
X10346936Y-13015100D01*
X10356460Y-13024624D01*
X10365983Y-13043671D01*
X10375507Y-13081767D01*
X10375507Y-13129386D01*
X10365983Y-13167481D01*
X10356460Y-13186528D01*
X10346936Y-13196052D01*
X10327888Y-13205576D01*
X10308840Y-13205576D01*
X10289793Y-13196052D01*
X10280269Y-13186528D01*
X10270745Y-13167481D01*
X10261221Y-13129386D01*
X10261221Y-13081767D01*
X10270745Y-13043671D01*
X10280269Y-13024624D01*
X10289793Y-13015100D01*
X10308840Y-13005576D01*
X10565983Y-13205576D02*
X10451698Y-13205576D01*
X10508840Y-13205576D02*
X10508840Y-13005576D01*
X10489793Y-13034148D01*
X10470745Y-13053195D01*
X10451698Y-13062719D01*
X10756460Y-13205576D02*
X10642174Y-13205576D01*
X10699317Y-13205576D02*
X10699317Y-13005576D01*
X10680269Y-13034148D01*
X10661221Y-13053195D01*
X10642174Y-13062719D01*
X10870745Y-13091290D02*
X10851698Y-13081767D01*
X10842174Y-13072243D01*
X10832650Y-13053195D01*
X10832650Y-13043671D01*
X10842174Y-13024624D01*
X10851698Y-13015100D01*
X10870745Y-13005576D01*
X10908840Y-13005576D01*
X10927888Y-13015100D01*
X10937412Y-13024624D01*
X10946936Y-13043671D01*
X10946936Y-13053195D01*
X10937412Y-13072243D01*
X10927888Y-13081767D01*
X10908840Y-13091290D01*
X10870745Y-13091290D01*
X10851698Y-13100814D01*
X10842174Y-13110338D01*
X10832650Y-13129386D01*
X10832650Y-13167481D01*
X10842174Y-13186528D01*
X10851698Y-13196052D01*
X10870745Y-13205576D01*
X10908840Y-13205576D01*
X10927888Y-13196052D01*
X10937412Y-13186528D01*
X10946936Y-13167481D01*
X10946936Y-13129386D01*
X10937412Y-13110338D01*
X10927888Y-13100814D01*
X10908840Y-13091290D01*
X11023126Y-13005576D02*
X11023126Y-13043671D01*
X11099317Y-13005576D02*
X11099317Y-13043671D01*
X11394555Y-13281767D02*
X11385031Y-13272243D01*
X11365983Y-13243671D01*
X11356459Y-13224624D01*
X11346936Y-13196052D01*
X11337412Y-13148433D01*
X11337412Y-13110338D01*
X11346936Y-13062719D01*
X11356459Y-13034148D01*
X11365983Y-13015100D01*
X11385031Y-12986528D01*
X11394555Y-12977005D01*
X11461221Y-13024624D02*
X11470745Y-13015100D01*
X11489793Y-13005576D01*
X11537412Y-13005576D01*
X11556459Y-13015100D01*
X11565983Y-13024624D01*
X11575507Y-13043671D01*
X11575507Y-13062719D01*
X11565983Y-13091290D01*
X11451698Y-13205576D01*
X11575507Y-13205576D01*
X11746936Y-13005576D02*
X11708840Y-13005576D01*
X11689793Y-13015100D01*
X11680269Y-13024624D01*
X11661221Y-13053195D01*
X11651698Y-13091290D01*
X11651698Y-13167481D01*
X11661221Y-13186528D01*
X11670745Y-13196052D01*
X11689793Y-13205576D01*
X11727888Y-13205576D01*
X11746936Y-13196052D01*
X11756459Y-13186528D01*
X11765983Y-13167481D01*
X11765983Y-13119862D01*
X11756459Y-13100814D01*
X11746936Y-13091290D01*
X11727888Y-13081767D01*
X11689793Y-13081767D01*
X11670745Y-13091290D01*
X11661221Y-13100814D01*
X11651698Y-13119862D01*
X12004078Y-13205576D02*
X12004078Y-13005576D01*
X12089793Y-13205576D02*
X12089793Y-13100814D01*
X12080269Y-13081767D01*
X12061221Y-13072243D01*
X12032650Y-13072243D01*
X12013602Y-13081767D01*
X12004078Y-13091290D01*
X12213602Y-13205576D02*
X12194555Y-13196052D01*
X12185031Y-13186528D01*
X12175507Y-13167481D01*
X12175507Y-13110338D01*
X12185031Y-13091290D01*
X12194555Y-13081767D01*
X12213602Y-13072243D01*
X12242174Y-13072243D01*
X12261221Y-13081767D01*
X12270745Y-13091290D01*
X12280269Y-13110338D01*
X12280269Y-13167481D01*
X12270745Y-13186528D01*
X12261221Y-13196052D01*
X12242174Y-13205576D01*
X12213602Y-13205576D01*
X12394555Y-13205576D02*
X12375507Y-13196052D01*
X12365983Y-13177005D01*
X12365983Y-13005576D01*
X12546936Y-13196052D02*
X12527888Y-13205576D01*
X12489793Y-13205576D01*
X12470745Y-13196052D01*
X12461221Y-13177005D01*
X12461221Y-13100814D01*
X12470745Y-13081767D01*
X12489793Y-13072243D01*
X12527888Y-13072243D01*
X12546936Y-13081767D01*
X12556459Y-13100814D01*
X12556459Y-13119862D01*
X12461221Y-13138909D01*
X12632650Y-13196052D02*
X12651698Y-13205576D01*
X12689793Y-13205576D01*
X12708840Y-13196052D01*
X12718364Y-13177005D01*
X12718364Y-13167481D01*
X12708840Y-13148433D01*
X12689793Y-13138909D01*
X12661221Y-13138909D01*
X12642174Y-13129386D01*
X12632650Y-13110338D01*
X12632650Y-13100814D01*
X12642174Y-13081767D01*
X12661221Y-13072243D01*
X12689793Y-13072243D01*
X12708840Y-13081767D01*
X12785031Y-13281767D02*
X12794555Y-13272243D01*
X12813602Y-13243671D01*
X12823126Y-13224624D01*
X12832650Y-13196052D01*
X12842174Y-13148433D01*
X12842174Y-13110338D01*
X12832650Y-13062719D01*
X12823126Y-13034148D01*
X12813602Y-13015100D01*
X12794555Y-12986528D01*
X12785031Y-12977005D01*
D13*
X7822650Y-13379100D02*
G75*
G03*
X7822650Y-13379100I-50000J0D01*
G01*
D11*
X8185031Y-13469576D02*
X8070745Y-13469576D01*
X8127888Y-13469576D02*
X8127888Y-13269576D01*
X8108840Y-13298148D01*
X8089793Y-13317195D01*
X8070745Y-13326719D01*
X8270745Y-13450528D02*
X8280269Y-13460052D01*
X8270745Y-13469576D01*
X8261221Y-13460052D01*
X8270745Y-13450528D01*
X8270745Y-13469576D01*
X8404079Y-13269576D02*
X8423126Y-13269576D01*
X8442174Y-13279100D01*
X8451698Y-13288624D01*
X8461221Y-13307671D01*
X8470745Y-13345767D01*
X8470745Y-13393386D01*
X8461221Y-13431481D01*
X8451698Y-13450528D01*
X8442174Y-13460052D01*
X8423126Y-13469576D01*
X8404079Y-13469576D01*
X8385031Y-13460052D01*
X8375507Y-13450528D01*
X8365983Y-13431481D01*
X8356459Y-13393386D01*
X8356459Y-13345767D01*
X8365983Y-13307671D01*
X8375507Y-13288624D01*
X8385031Y-13279100D01*
X8404079Y-13269576D01*
X8594555Y-13269576D02*
X8613602Y-13269576D01*
X8632650Y-13279100D01*
X8642174Y-13288624D01*
X8651698Y-13307671D01*
X8661221Y-13345767D01*
X8661221Y-13393386D01*
X8651698Y-13431481D01*
X8642174Y-13450528D01*
X8632650Y-13460052D01*
X8613602Y-13469576D01*
X8594555Y-13469576D01*
X8575507Y-13460052D01*
X8565983Y-13450528D01*
X8556460Y-13431481D01*
X8546936Y-13393386D01*
X8546936Y-13345767D01*
X8556460Y-13307671D01*
X8565983Y-13288624D01*
X8575507Y-13279100D01*
X8594555Y-13269576D01*
X8785031Y-13269576D02*
X8804079Y-13269576D01*
X8823126Y-13279100D01*
X8832650Y-13288624D01*
X8842174Y-13307671D01*
X8851698Y-13345767D01*
X8851698Y-13393386D01*
X8842174Y-13431481D01*
X8832650Y-13450528D01*
X8823126Y-13460052D01*
X8804079Y-13469576D01*
X8785031Y-13469576D01*
X8765983Y-13460052D01*
X8756460Y-13450528D01*
X8746936Y-13431481D01*
X8737412Y-13393386D01*
X8737412Y-13345767D01*
X8746936Y-13307671D01*
X8756460Y-13288624D01*
X8765983Y-13279100D01*
X8785031Y-13269576D01*
X8937412Y-13469576D02*
X8937412Y-13336243D01*
X8937412Y-13355290D02*
X8946936Y-13345767D01*
X8965983Y-13336243D01*
X8994555Y-13336243D01*
X9013602Y-13345767D01*
X9023126Y-13364814D01*
X9023126Y-13469576D01*
X9023126Y-13364814D02*
X9032650Y-13345767D01*
X9051698Y-13336243D01*
X9080269Y-13336243D01*
X9099317Y-13345767D01*
X9108840Y-13364814D01*
X9108840Y-13469576D01*
X9204079Y-13469576D02*
X9204079Y-13336243D01*
X9204079Y-13355290D02*
X9213602Y-13345767D01*
X9232650Y-13336243D01*
X9261221Y-13336243D01*
X9280269Y-13345767D01*
X9289793Y-13364814D01*
X9289793Y-13469576D01*
X9289793Y-13364814D02*
X9299317Y-13345767D01*
X9318364Y-13336243D01*
X9346936Y-13336243D01*
X9365983Y-13345767D01*
X9375507Y-13364814D01*
X9375507Y-13469576D01*
X9765983Y-13260052D02*
X9594555Y-13517195D01*
X10023126Y-13269576D02*
X10042174Y-13269576D01*
X10061221Y-13279100D01*
X10070745Y-13288624D01*
X10080269Y-13307671D01*
X10089793Y-13345767D01*
X10089793Y-13393386D01*
X10080269Y-13431481D01*
X10070745Y-13450528D01*
X10061221Y-13460052D01*
X10042174Y-13469576D01*
X10023126Y-13469576D01*
X10004079Y-13460052D01*
X9994555Y-13450528D01*
X9985031Y-13431481D01*
X9975507Y-13393386D01*
X9975507Y-13345767D01*
X9985031Y-13307671D01*
X9994555Y-13288624D01*
X10004079Y-13279100D01*
X10023126Y-13269576D01*
X10175507Y-13450528D02*
X10185031Y-13460052D01*
X10175507Y-13469576D01*
X10165983Y-13460052D01*
X10175507Y-13450528D01*
X10175507Y-13469576D01*
X10308840Y-13269576D02*
X10327888Y-13269576D01*
X10346936Y-13279100D01*
X10356460Y-13288624D01*
X10365983Y-13307671D01*
X10375507Y-13345767D01*
X10375507Y-13393386D01*
X10365983Y-13431481D01*
X10356460Y-13450528D01*
X10346936Y-13460052D01*
X10327888Y-13469576D01*
X10308840Y-13469576D01*
X10289793Y-13460052D01*
X10280269Y-13450528D01*
X10270745Y-13431481D01*
X10261221Y-13393386D01*
X10261221Y-13345767D01*
X10270745Y-13307671D01*
X10280269Y-13288624D01*
X10289793Y-13279100D01*
X10308840Y-13269576D01*
X10442174Y-13269576D02*
X10565983Y-13269576D01*
X10499317Y-13345767D01*
X10527888Y-13345767D01*
X10546936Y-13355290D01*
X10556460Y-13364814D01*
X10565983Y-13383862D01*
X10565983Y-13431481D01*
X10556460Y-13450528D01*
X10546936Y-13460052D01*
X10527888Y-13469576D01*
X10470745Y-13469576D01*
X10451698Y-13460052D01*
X10442174Y-13450528D01*
X10661221Y-13469576D02*
X10699317Y-13469576D01*
X10718364Y-13460052D01*
X10727888Y-13450528D01*
X10746936Y-13421957D01*
X10756460Y-13383862D01*
X10756460Y-13307671D01*
X10746936Y-13288624D01*
X10737412Y-13279100D01*
X10718364Y-13269576D01*
X10680269Y-13269576D01*
X10661221Y-13279100D01*
X10651698Y-13288624D01*
X10642174Y-13307671D01*
X10642174Y-13355290D01*
X10651698Y-13374338D01*
X10661221Y-13383862D01*
X10680269Y-13393386D01*
X10718364Y-13393386D01*
X10737412Y-13383862D01*
X10746936Y-13374338D01*
X10756460Y-13355290D01*
X10927888Y-13336243D02*
X10927888Y-13469576D01*
X10880269Y-13260052D02*
X10832650Y-13402909D01*
X10956460Y-13402909D01*
X11023126Y-13269576D02*
X11023126Y-13307671D01*
X11099317Y-13269576D02*
X11099317Y-13307671D01*
X11394555Y-13545767D02*
X11385031Y-13536243D01*
X11365983Y-13507671D01*
X11356459Y-13488624D01*
X11346936Y-13460052D01*
X11337412Y-13412433D01*
X11337412Y-13374338D01*
X11346936Y-13326719D01*
X11356459Y-13298148D01*
X11365983Y-13279100D01*
X11385031Y-13250528D01*
X11394555Y-13241005D01*
X11556459Y-13336243D02*
X11556459Y-13469576D01*
X11508840Y-13260052D02*
X11461221Y-13402909D01*
X11585031Y-13402909D01*
X11756459Y-13269576D02*
X11661221Y-13269576D01*
X11651698Y-13364814D01*
X11661221Y-13355290D01*
X11680269Y-13345767D01*
X11727888Y-13345767D01*
X11746936Y-13355290D01*
X11756459Y-13364814D01*
X11765983Y-13383862D01*
X11765983Y-13431481D01*
X11756459Y-13450528D01*
X11746936Y-13460052D01*
X11727888Y-13469576D01*
X11680269Y-13469576D01*
X11661221Y-13460052D01*
X11651698Y-13450528D01*
X12004078Y-13469576D02*
X12004078Y-13269576D01*
X12089793Y-13469576D02*
X12089793Y-13364814D01*
X12080269Y-13345767D01*
X12061221Y-13336243D01*
X12032650Y-13336243D01*
X12013602Y-13345767D01*
X12004078Y-13355290D01*
X12213602Y-13469576D02*
X12194555Y-13460052D01*
X12185031Y-13450528D01*
X12175507Y-13431481D01*
X12175507Y-13374338D01*
X12185031Y-13355290D01*
X12194555Y-13345767D01*
X12213602Y-13336243D01*
X12242174Y-13336243D01*
X12261221Y-13345767D01*
X12270745Y-13355290D01*
X12280269Y-13374338D01*
X12280269Y-13431481D01*
X12270745Y-13450528D01*
X12261221Y-13460052D01*
X12242174Y-13469576D01*
X12213602Y-13469576D01*
X12394555Y-13469576D02*
X12375507Y-13460052D01*
X12365983Y-13441005D01*
X12365983Y-13269576D01*
X12546936Y-13460052D02*
X12527888Y-13469576D01*
X12489793Y-13469576D01*
X12470745Y-13460052D01*
X12461221Y-13441005D01*
X12461221Y-13364814D01*
X12470745Y-13345767D01*
X12489793Y-13336243D01*
X12527888Y-13336243D01*
X12546936Y-13345767D01*
X12556459Y-13364814D01*
X12556459Y-13383862D01*
X12461221Y-13402909D01*
X12632650Y-13460052D02*
X12651698Y-13469576D01*
X12689793Y-13469576D01*
X12708840Y-13460052D01*
X12718364Y-13441005D01*
X12718364Y-13431481D01*
X12708840Y-13412433D01*
X12689793Y-13402909D01*
X12661221Y-13402909D01*
X12642174Y-13393386D01*
X12632650Y-13374338D01*
X12632650Y-13364814D01*
X12642174Y-13345767D01*
X12661221Y-13336243D01*
X12689793Y-13336243D01*
X12708840Y-13345767D01*
X12785031Y-13545767D02*
X12794555Y-13536243D01*
X12813602Y-13507671D01*
X12823126Y-13488624D01*
X12832650Y-13460052D01*
X12842174Y-13412433D01*
X12842174Y-13374338D01*
X12832650Y-13326719D01*
X12823126Y-13298148D01*
X12813602Y-13279100D01*
X12794555Y-13250528D01*
X12785031Y-13241005D01*
D13*
X7772650Y-13593100D02*
X7772650Y-13693100D01*
X7722650Y-13643100D02*
X7822650Y-13643100D01*
D11*
X8185031Y-13733576D02*
X8070745Y-13733576D01*
X8127888Y-13733576D02*
X8127888Y-13533576D01*
X8108840Y-13562148D01*
X8089793Y-13581195D01*
X8070745Y-13590719D01*
X8270745Y-13714528D02*
X8280269Y-13724052D01*
X8270745Y-13733576D01*
X8261221Y-13724052D01*
X8270745Y-13714528D01*
X8270745Y-13733576D01*
X8404079Y-13533576D02*
X8423126Y-13533576D01*
X8442174Y-13543100D01*
X8451698Y-13552624D01*
X8461221Y-13571671D01*
X8470745Y-13609767D01*
X8470745Y-13657386D01*
X8461221Y-13695481D01*
X8451698Y-13714528D01*
X8442174Y-13724052D01*
X8423126Y-13733576D01*
X8404079Y-13733576D01*
X8385031Y-13724052D01*
X8375507Y-13714528D01*
X8365983Y-13695481D01*
X8356459Y-13657386D01*
X8356459Y-13609767D01*
X8365983Y-13571671D01*
X8375507Y-13552624D01*
X8385031Y-13543100D01*
X8404079Y-13533576D01*
X8594555Y-13533576D02*
X8613602Y-13533576D01*
X8632650Y-13543100D01*
X8642174Y-13552624D01*
X8651698Y-13571671D01*
X8661221Y-13609767D01*
X8661221Y-13657386D01*
X8651698Y-13695481D01*
X8642174Y-13714528D01*
X8632650Y-13724052D01*
X8613602Y-13733576D01*
X8594555Y-13733576D01*
X8575507Y-13724052D01*
X8565983Y-13714528D01*
X8556460Y-13695481D01*
X8546936Y-13657386D01*
X8546936Y-13609767D01*
X8556460Y-13571671D01*
X8565983Y-13552624D01*
X8575507Y-13543100D01*
X8594555Y-13533576D01*
X8785031Y-13533576D02*
X8804079Y-13533576D01*
X8823126Y-13543100D01*
X8832650Y-13552624D01*
X8842174Y-13571671D01*
X8851698Y-13609767D01*
X8851698Y-13657386D01*
X8842174Y-13695481D01*
X8832650Y-13714528D01*
X8823126Y-13724052D01*
X8804079Y-13733576D01*
X8785031Y-13733576D01*
X8765983Y-13724052D01*
X8756460Y-13714528D01*
X8746936Y-13695481D01*
X8737412Y-13657386D01*
X8737412Y-13609767D01*
X8746936Y-13571671D01*
X8756460Y-13552624D01*
X8765983Y-13543100D01*
X8785031Y-13533576D01*
X8937412Y-13733576D02*
X8937412Y-13600243D01*
X8937412Y-13619290D02*
X8946936Y-13609767D01*
X8965983Y-13600243D01*
X8994555Y-13600243D01*
X9013602Y-13609767D01*
X9023126Y-13628814D01*
X9023126Y-13733576D01*
X9023126Y-13628814D02*
X9032650Y-13609767D01*
X9051698Y-13600243D01*
X9080269Y-13600243D01*
X9099317Y-13609767D01*
X9108840Y-13628814D01*
X9108840Y-13733576D01*
X9204079Y-13733576D02*
X9204079Y-13600243D01*
X9204079Y-13619290D02*
X9213602Y-13609767D01*
X9232650Y-13600243D01*
X9261221Y-13600243D01*
X9280269Y-13609767D01*
X9289793Y-13628814D01*
X9289793Y-13733576D01*
X9289793Y-13628814D02*
X9299317Y-13609767D01*
X9318364Y-13600243D01*
X9346936Y-13600243D01*
X9365983Y-13609767D01*
X9375507Y-13628814D01*
X9375507Y-13733576D01*
X9765983Y-13524052D02*
X9594555Y-13781195D01*
X10023126Y-13533576D02*
X10042174Y-13533576D01*
X10061221Y-13543100D01*
X10070745Y-13552624D01*
X10080269Y-13571671D01*
X10089793Y-13609767D01*
X10089793Y-13657386D01*
X10080269Y-13695481D01*
X10070745Y-13714528D01*
X10061221Y-13724052D01*
X10042174Y-13733576D01*
X10023126Y-13733576D01*
X10004079Y-13724052D01*
X9994555Y-13714528D01*
X9985031Y-13695481D01*
X9975507Y-13657386D01*
X9975507Y-13609767D01*
X9985031Y-13571671D01*
X9994555Y-13552624D01*
X10004079Y-13543100D01*
X10023126Y-13533576D01*
X10175507Y-13714528D02*
X10185031Y-13724052D01*
X10175507Y-13733576D01*
X10165983Y-13724052D01*
X10175507Y-13714528D01*
X10175507Y-13733576D01*
X10308840Y-13533576D02*
X10327888Y-13533576D01*
X10346936Y-13543100D01*
X10356460Y-13552624D01*
X10365983Y-13571671D01*
X10375507Y-13609767D01*
X10375507Y-13657386D01*
X10365983Y-13695481D01*
X10356460Y-13714528D01*
X10346936Y-13724052D01*
X10327888Y-13733576D01*
X10308840Y-13733576D01*
X10289793Y-13724052D01*
X10280269Y-13714528D01*
X10270745Y-13695481D01*
X10261221Y-13657386D01*
X10261221Y-13609767D01*
X10270745Y-13571671D01*
X10280269Y-13552624D01*
X10289793Y-13543100D01*
X10308840Y-13533576D01*
X10442174Y-13533576D02*
X10565983Y-13533576D01*
X10499317Y-13609767D01*
X10527888Y-13609767D01*
X10546936Y-13619290D01*
X10556460Y-13628814D01*
X10565983Y-13647862D01*
X10565983Y-13695481D01*
X10556460Y-13714528D01*
X10546936Y-13724052D01*
X10527888Y-13733576D01*
X10470745Y-13733576D01*
X10451698Y-13724052D01*
X10442174Y-13714528D01*
X10661221Y-13733576D02*
X10699317Y-13733576D01*
X10718364Y-13724052D01*
X10727888Y-13714528D01*
X10746936Y-13685957D01*
X10756460Y-13647862D01*
X10756460Y-13571671D01*
X10746936Y-13552624D01*
X10737412Y-13543100D01*
X10718364Y-13533576D01*
X10680269Y-13533576D01*
X10661221Y-13543100D01*
X10651698Y-13552624D01*
X10642174Y-13571671D01*
X10642174Y-13619290D01*
X10651698Y-13638338D01*
X10661221Y-13647862D01*
X10680269Y-13657386D01*
X10718364Y-13657386D01*
X10737412Y-13647862D01*
X10746936Y-13638338D01*
X10756460Y-13619290D01*
X10927888Y-13600243D02*
X10927888Y-13733576D01*
X10880269Y-13524052D02*
X10832650Y-13666909D01*
X10956460Y-13666909D01*
X11023126Y-13533576D02*
X11023126Y-13571671D01*
X11099317Y-13533576D02*
X11099317Y-13571671D01*
X11394555Y-13809767D02*
X11385031Y-13800243D01*
X11365983Y-13771671D01*
X11356459Y-13752624D01*
X11346936Y-13724052D01*
X11337412Y-13676433D01*
X11337412Y-13638338D01*
X11346936Y-13590719D01*
X11356459Y-13562148D01*
X11365983Y-13543100D01*
X11385031Y-13514528D01*
X11394555Y-13505005D01*
X11575507Y-13733576D02*
X11461221Y-13733576D01*
X11518364Y-13733576D02*
X11518364Y-13533576D01*
X11499317Y-13562148D01*
X11480269Y-13581195D01*
X11461221Y-13590719D01*
X11642174Y-13533576D02*
X11765983Y-13533576D01*
X11699317Y-13609767D01*
X11727888Y-13609767D01*
X11746936Y-13619290D01*
X11756459Y-13628814D01*
X11765983Y-13647862D01*
X11765983Y-13695481D01*
X11756459Y-13714528D01*
X11746936Y-13724052D01*
X11727888Y-13733576D01*
X11670745Y-13733576D01*
X11651698Y-13724052D01*
X11642174Y-13714528D01*
X11832650Y-13533576D02*
X11956459Y-13533576D01*
X11889793Y-13609767D01*
X11918364Y-13609767D01*
X11937412Y-13619290D01*
X11946936Y-13628814D01*
X11956459Y-13647862D01*
X11956459Y-13695481D01*
X11946936Y-13714528D01*
X11937412Y-13724052D01*
X11918364Y-13733576D01*
X11861221Y-13733576D01*
X11842174Y-13724052D01*
X11832650Y-13714528D01*
X12194555Y-13733576D02*
X12194555Y-13533576D01*
X12280269Y-13733576D02*
X12280269Y-13628814D01*
X12270745Y-13609767D01*
X12251698Y-13600243D01*
X12223126Y-13600243D01*
X12204078Y-13609767D01*
X12194555Y-13619290D01*
X12404078Y-13733576D02*
X12385031Y-13724052D01*
X12375507Y-13714528D01*
X12365983Y-13695481D01*
X12365983Y-13638338D01*
X12375507Y-13619290D01*
X12385031Y-13609767D01*
X12404078Y-13600243D01*
X12432650Y-13600243D01*
X12451698Y-13609767D01*
X12461221Y-13619290D01*
X12470745Y-13638338D01*
X12470745Y-13695481D01*
X12461221Y-13714528D01*
X12451698Y-13724052D01*
X12432650Y-13733576D01*
X12404078Y-13733576D01*
X12585031Y-13733576D02*
X12565983Y-13724052D01*
X12556459Y-13705005D01*
X12556459Y-13533576D01*
X12737412Y-13724052D02*
X12718364Y-13733576D01*
X12680269Y-13733576D01*
X12661221Y-13724052D01*
X12651698Y-13705005D01*
X12651698Y-13628814D01*
X12661221Y-13609767D01*
X12680269Y-13600243D01*
X12718364Y-13600243D01*
X12737412Y-13609767D01*
X12746936Y-13628814D01*
X12746936Y-13647862D01*
X12651698Y-13666909D01*
X12823126Y-13724052D02*
X12842174Y-13733576D01*
X12880269Y-13733576D01*
X12899317Y-13724052D01*
X12908840Y-13705005D01*
X12908840Y-13695481D01*
X12899317Y-13676433D01*
X12880269Y-13666909D01*
X12851698Y-13666909D01*
X12832650Y-13657386D01*
X12823126Y-13638338D01*
X12823126Y-13628814D01*
X12832650Y-13609767D01*
X12851698Y-13600243D01*
X12880269Y-13600243D01*
X12899317Y-13609767D01*
X13146936Y-13657386D02*
X13299317Y-13657386D01*
X13223126Y-13733576D02*
X13223126Y-13581195D01*
X13527888Y-13533576D02*
X13651698Y-13533576D01*
X13585031Y-13609767D01*
X13613602Y-13609767D01*
X13632650Y-13619290D01*
X13642174Y-13628814D01*
X13651698Y-13647862D01*
X13651698Y-13695481D01*
X13642174Y-13714528D01*
X13632650Y-13724052D01*
X13613602Y-13733576D01*
X13556459Y-13733576D01*
X13537412Y-13724052D01*
X13527888Y-13714528D01*
X13880269Y-13724052D02*
X13899317Y-13733576D01*
X13937412Y-13733576D01*
X13956459Y-13724052D01*
X13965983Y-13705005D01*
X13965983Y-13695481D01*
X13956459Y-13676433D01*
X13937412Y-13666909D01*
X13908840Y-13666909D01*
X13889793Y-13657386D01*
X13880269Y-13638338D01*
X13880269Y-13628814D01*
X13889793Y-13609767D01*
X13908840Y-13600243D01*
X13937412Y-13600243D01*
X13956459Y-13609767D01*
X14080269Y-13733576D02*
X14061221Y-13724052D01*
X14051698Y-13705005D01*
X14051698Y-13533576D01*
X14185031Y-13733576D02*
X14165983Y-13724052D01*
X14156459Y-13714528D01*
X14146936Y-13695481D01*
X14146936Y-13638338D01*
X14156459Y-13619290D01*
X14165983Y-13609767D01*
X14185031Y-13600243D01*
X14213602Y-13600243D01*
X14232650Y-13609767D01*
X14242174Y-13619290D01*
X14251698Y-13638338D01*
X14251698Y-13695481D01*
X14242174Y-13714528D01*
X14232650Y-13724052D01*
X14213602Y-13733576D01*
X14185031Y-13733576D01*
X14308840Y-13600243D02*
X14385031Y-13600243D01*
X14337412Y-13533576D02*
X14337412Y-13705005D01*
X14346936Y-13724052D01*
X14365983Y-13733576D01*
X14385031Y-13733576D01*
X14442174Y-13724052D02*
X14461221Y-13733576D01*
X14499317Y-13733576D01*
X14518364Y-13724052D01*
X14527888Y-13705005D01*
X14527888Y-13695481D01*
X14518364Y-13676433D01*
X14499317Y-13666909D01*
X14470745Y-13666909D01*
X14451698Y-13657386D01*
X14442174Y-13638338D01*
X14442174Y-13628814D01*
X14451698Y-13609767D01*
X14470745Y-13600243D01*
X14499317Y-13600243D01*
X14518364Y-13609767D01*
X14594555Y-13809767D02*
X14604078Y-13800243D01*
X14623126Y-13771671D01*
X14632650Y-13752624D01*
X14642174Y-13724052D01*
X14651698Y-13676433D01*
X14651698Y-13638338D01*
X14642174Y-13590719D01*
X14632650Y-13562148D01*
X14623126Y-13543100D01*
X14604078Y-13514528D01*
X14594555Y-13505005D01*
M02*
