%FSLAX45Y45*%
G04 Gerber Fmt 4.5, Leading zero omitted, Abs format (unit mm)*
G04 Created by KiCad (PCBNEW (6.0.0)) date 2022-05-09 15:37:38*
%MOMM*%
%LPD*%
G01*
G04 APERTURE LIST*
%TA.AperFunction,Profile*%
%ADD10C,0.050000*%
%TD*%
%ADD11C,0.200000*%
%ADD12C,0.100000*%
%ADD13C,0.320000*%
G04 APERTURE END LIST*
D10*
X7825150Y-12172600D02*
X7825150Y-6672600D01*
X8125150Y-12472600D02*
X14125150Y-12472600D01*
X14425150Y-12172600D02*
X14425150Y-6672600D01*
X14125150Y-6372600D02*
X8125150Y-6372600D01*
X7825150Y-12172600D02*
G75*
G03*
X8125150Y-12472600I300000J0D01*
G01*
X14425150Y-6672600D02*
G75*
G03*
X14125150Y-6372600I-300000J0D01*
G01*
X8125150Y-6372600D02*
G75*
G03*
X7825150Y-6672600I0J-300000D01*
G01*
X14125150Y-12472600D02*
G75*
G03*
X14425150Y-12172600I0J300000D01*
G01*
D11*
D12*
X10682550Y-7531530D02*
X10782550Y-7631530D01*
X10782550Y-7531530D02*
X10682550Y-7631530D01*
D11*
X10692550Y-7506530D02*
X10692550Y-7656530D01*
X10772550Y-7506530D02*
X10772550Y-7656530D01*
X10692550Y-7656530D02*
G75*
G03*
X10772550Y-7656530I40000J0D01*
G01*
X10772550Y-7506530D02*
G75*
G03*
X10692550Y-7506530I-40000J0D01*
G01*
D12*
X11422550Y-7531530D02*
X11522550Y-7631530D01*
X11522550Y-7531530D02*
X11422550Y-7631530D01*
D11*
X11432550Y-7506530D02*
X11432550Y-7656530D01*
X11512550Y-7506530D02*
X11512550Y-7656530D01*
X11432550Y-7656530D02*
G75*
G03*
X11512550Y-7656530I40000J0D01*
G01*
X11512550Y-7506530D02*
G75*
G03*
X11432550Y-7506530I-40000J0D01*
G01*
D13*
X8285150Y-6672600D02*
G75*
G03*
X8285150Y-6672600I-160000J0D01*
G01*
X8285150Y-12172600D02*
G75*
G03*
X8285150Y-12172600I-160000J0D01*
G01*
X14285150Y-6672600D02*
G75*
G03*
X14285150Y-6672600I-160000J0D01*
G01*
X14285150Y-12172600D02*
G75*
G03*
X14285150Y-12172600I-160000J0D01*
G01*
D11*
X8080269Y-12785576D02*
X8080269Y-12585576D01*
X8127888Y-12585576D01*
X8156459Y-12595100D01*
X8175507Y-12614148D01*
X8185031Y-12633195D01*
X8194555Y-12671290D01*
X8194555Y-12699862D01*
X8185031Y-12737957D01*
X8175507Y-12757005D01*
X8156459Y-12776052D01*
X8127888Y-12785576D01*
X8080269Y-12785576D01*
X8280269Y-12785576D02*
X8280269Y-12652243D01*
X8280269Y-12690338D02*
X8289793Y-12671290D01*
X8299317Y-12661767D01*
X8318364Y-12652243D01*
X8337412Y-12652243D01*
X8404079Y-12785576D02*
X8404079Y-12652243D01*
X8404079Y-12585576D02*
X8394555Y-12595100D01*
X8404079Y-12604624D01*
X8413602Y-12595100D01*
X8404079Y-12585576D01*
X8404079Y-12604624D01*
X8527888Y-12785576D02*
X8508840Y-12776052D01*
X8499317Y-12757005D01*
X8499317Y-12585576D01*
X8632650Y-12785576D02*
X8613602Y-12776052D01*
X8604079Y-12757005D01*
X8604079Y-12585576D01*
X8861221Y-12785576D02*
X8861221Y-12585576D01*
X8927888Y-12728433D01*
X8994555Y-12585576D01*
X8994555Y-12785576D01*
X9175507Y-12785576D02*
X9175507Y-12680814D01*
X9165983Y-12661767D01*
X9146936Y-12652243D01*
X9108840Y-12652243D01*
X9089793Y-12661767D01*
X9175507Y-12776052D02*
X9156460Y-12785576D01*
X9108840Y-12785576D01*
X9089793Y-12776052D01*
X9080269Y-12757005D01*
X9080269Y-12737957D01*
X9089793Y-12718909D01*
X9108840Y-12709386D01*
X9156460Y-12709386D01*
X9175507Y-12699862D01*
X9270745Y-12652243D02*
X9270745Y-12852243D01*
X9270745Y-12661767D02*
X9289793Y-12652243D01*
X9327888Y-12652243D01*
X9346936Y-12661767D01*
X9356460Y-12671290D01*
X9365983Y-12690338D01*
X9365983Y-12747481D01*
X9356460Y-12766528D01*
X9346936Y-12776052D01*
X9327888Y-12785576D01*
X9289793Y-12785576D01*
X9270745Y-12776052D01*
X9451698Y-12766528D02*
X9461221Y-12776052D01*
X9451698Y-12785576D01*
X9442174Y-12776052D01*
X9451698Y-12766528D01*
X9451698Y-12785576D01*
X9451698Y-12661767D02*
X9461221Y-12671290D01*
X9451698Y-12680814D01*
X9442174Y-12671290D01*
X9451698Y-12661767D01*
X9451698Y-12680814D01*
D12*
X7722650Y-13065100D02*
X7822650Y-13165100D01*
X7822650Y-13065100D02*
X7722650Y-13165100D01*
D11*
X8185031Y-13205576D02*
X8070745Y-13205576D01*
X8127888Y-13205576D02*
X8127888Y-13005576D01*
X8108840Y-13034148D01*
X8089793Y-13053195D01*
X8070745Y-13062719D01*
X8270745Y-13186528D02*
X8280269Y-13196052D01*
X8270745Y-13205576D01*
X8261221Y-13196052D01*
X8270745Y-13186528D01*
X8270745Y-13205576D01*
X8404079Y-13005576D02*
X8423126Y-13005576D01*
X8442174Y-13015100D01*
X8451698Y-13024624D01*
X8461221Y-13043671D01*
X8470745Y-13081767D01*
X8470745Y-13129386D01*
X8461221Y-13167481D01*
X8451698Y-13186528D01*
X8442174Y-13196052D01*
X8423126Y-13205576D01*
X8404079Y-13205576D01*
X8385031Y-13196052D01*
X8375507Y-13186528D01*
X8365983Y-13167481D01*
X8356459Y-13129386D01*
X8356459Y-13081767D01*
X8365983Y-13043671D01*
X8375507Y-13024624D01*
X8385031Y-13015100D01*
X8404079Y-13005576D01*
X8594555Y-13005576D02*
X8613602Y-13005576D01*
X8632650Y-13015100D01*
X8642174Y-13024624D01*
X8651698Y-13043671D01*
X8661221Y-13081767D01*
X8661221Y-13129386D01*
X8651698Y-13167481D01*
X8642174Y-13186528D01*
X8632650Y-13196052D01*
X8613602Y-13205576D01*
X8594555Y-13205576D01*
X8575507Y-13196052D01*
X8565983Y-13186528D01*
X8556460Y-13167481D01*
X8546936Y-13129386D01*
X8546936Y-13081767D01*
X8556460Y-13043671D01*
X8565983Y-13024624D01*
X8575507Y-13015100D01*
X8594555Y-13005576D01*
X8785031Y-13005576D02*
X8804079Y-13005576D01*
X8823126Y-13015100D01*
X8832650Y-13024624D01*
X8842174Y-13043671D01*
X8851698Y-13081767D01*
X8851698Y-13129386D01*
X8842174Y-13167481D01*
X8832650Y-13186528D01*
X8823126Y-13196052D01*
X8804079Y-13205576D01*
X8785031Y-13205576D01*
X8765983Y-13196052D01*
X8756460Y-13186528D01*
X8746936Y-13167481D01*
X8737412Y-13129386D01*
X8737412Y-13081767D01*
X8746936Y-13043671D01*
X8756460Y-13024624D01*
X8765983Y-13015100D01*
X8785031Y-13005576D01*
X8937412Y-13205576D02*
X8937412Y-13072243D01*
X8937412Y-13091290D02*
X8946936Y-13081767D01*
X8965983Y-13072243D01*
X8994555Y-13072243D01*
X9013602Y-13081767D01*
X9023126Y-13100814D01*
X9023126Y-13205576D01*
X9023126Y-13100814D02*
X9032650Y-13081767D01*
X9051698Y-13072243D01*
X9080269Y-13072243D01*
X9099317Y-13081767D01*
X9108840Y-13100814D01*
X9108840Y-13205576D01*
X9204079Y-13205576D02*
X9204079Y-13072243D01*
X9204079Y-13091290D02*
X9213602Y-13081767D01*
X9232650Y-13072243D01*
X9261221Y-13072243D01*
X9280269Y-13081767D01*
X9289793Y-13100814D01*
X9289793Y-13205576D01*
X9289793Y-13100814D02*
X9299317Y-13081767D01*
X9318364Y-13072243D01*
X9346936Y-13072243D01*
X9365983Y-13081767D01*
X9375507Y-13100814D01*
X9375507Y-13205576D01*
X9765983Y-12996052D02*
X9594555Y-13253195D01*
X10023126Y-13005576D02*
X10042174Y-13005576D01*
X10061221Y-13015100D01*
X10070745Y-13024624D01*
X10080269Y-13043671D01*
X10089793Y-13081767D01*
X10089793Y-13129386D01*
X10080269Y-13167481D01*
X10070745Y-13186528D01*
X10061221Y-13196052D01*
X10042174Y-13205576D01*
X10023126Y-13205576D01*
X10004079Y-13196052D01*
X9994555Y-13186528D01*
X9985031Y-13167481D01*
X9975507Y-13129386D01*
X9975507Y-13081767D01*
X9985031Y-13043671D01*
X9994555Y-13024624D01*
X10004079Y-13015100D01*
X10023126Y-13005576D01*
X10175507Y-13186528D02*
X10185031Y-13196052D01*
X10175507Y-13205576D01*
X10165983Y-13196052D01*
X10175507Y-13186528D01*
X10175507Y-13205576D01*
X10308840Y-13005576D02*
X10327888Y-13005576D01*
X10346936Y-13015100D01*
X10356460Y-13024624D01*
X10365983Y-13043671D01*
X10375507Y-13081767D01*
X10375507Y-13129386D01*
X10365983Y-13167481D01*
X10356460Y-13186528D01*
X10346936Y-13196052D01*
X10327888Y-13205576D01*
X10308840Y-13205576D01*
X10289793Y-13196052D01*
X10280269Y-13186528D01*
X10270745Y-13167481D01*
X10261221Y-13129386D01*
X10261221Y-13081767D01*
X10270745Y-13043671D01*
X10280269Y-13024624D01*
X10289793Y-13015100D01*
X10308840Y-13005576D01*
X10442174Y-13005576D02*
X10565983Y-13005576D01*
X10499317Y-13081767D01*
X10527888Y-13081767D01*
X10546936Y-13091290D01*
X10556460Y-13100814D01*
X10565983Y-13119862D01*
X10565983Y-13167481D01*
X10556460Y-13186528D01*
X10546936Y-13196052D01*
X10527888Y-13205576D01*
X10470745Y-13205576D01*
X10451698Y-13196052D01*
X10442174Y-13186528D01*
X10661221Y-13205576D02*
X10699317Y-13205576D01*
X10718364Y-13196052D01*
X10727888Y-13186528D01*
X10746936Y-13157957D01*
X10756460Y-13119862D01*
X10756460Y-13043671D01*
X10746936Y-13024624D01*
X10737412Y-13015100D01*
X10718364Y-13005576D01*
X10680269Y-13005576D01*
X10661221Y-13015100D01*
X10651698Y-13024624D01*
X10642174Y-13043671D01*
X10642174Y-13091290D01*
X10651698Y-13110338D01*
X10661221Y-13119862D01*
X10680269Y-13129386D01*
X10718364Y-13129386D01*
X10737412Y-13119862D01*
X10746936Y-13110338D01*
X10756460Y-13091290D01*
X10927888Y-13072243D02*
X10927888Y-13205576D01*
X10880269Y-12996052D02*
X10832650Y-13138909D01*
X10956460Y-13138909D01*
X11023126Y-13005576D02*
X11023126Y-13043671D01*
X11099317Y-13005576D02*
X11099317Y-13043671D01*
X11394555Y-13281767D02*
X11385031Y-13272243D01*
X11365983Y-13243671D01*
X11356459Y-13224624D01*
X11346936Y-13196052D01*
X11337412Y-13148433D01*
X11337412Y-13110338D01*
X11346936Y-13062719D01*
X11356459Y-13034148D01*
X11365983Y-13015100D01*
X11385031Y-12986528D01*
X11394555Y-12977005D01*
X11508840Y-13005576D02*
X11527888Y-13005576D01*
X11546936Y-13015100D01*
X11556459Y-13024624D01*
X11565983Y-13043671D01*
X11575507Y-13081767D01*
X11575507Y-13129386D01*
X11565983Y-13167481D01*
X11556459Y-13186528D01*
X11546936Y-13196052D01*
X11527888Y-13205576D01*
X11508840Y-13205576D01*
X11489793Y-13196052D01*
X11480269Y-13186528D01*
X11470745Y-13167481D01*
X11461221Y-13129386D01*
X11461221Y-13081767D01*
X11470745Y-13043671D01*
X11480269Y-13024624D01*
X11489793Y-13015100D01*
X11508840Y-13005576D01*
X11813602Y-13205576D02*
X11813602Y-13005576D01*
X11899317Y-13205576D02*
X11899317Y-13100814D01*
X11889793Y-13081767D01*
X11870745Y-13072243D01*
X11842174Y-13072243D01*
X11823126Y-13081767D01*
X11813602Y-13091290D01*
X12023126Y-13205576D02*
X12004078Y-13196052D01*
X11994555Y-13186528D01*
X11985031Y-13167481D01*
X11985031Y-13110338D01*
X11994555Y-13091290D01*
X12004078Y-13081767D01*
X12023126Y-13072243D01*
X12051698Y-13072243D01*
X12070745Y-13081767D01*
X12080269Y-13091290D01*
X12089793Y-13110338D01*
X12089793Y-13167481D01*
X12080269Y-13186528D01*
X12070745Y-13196052D01*
X12051698Y-13205576D01*
X12023126Y-13205576D01*
X12204078Y-13205576D02*
X12185031Y-13196052D01*
X12175507Y-13177005D01*
X12175507Y-13005576D01*
X12356459Y-13196052D02*
X12337412Y-13205576D01*
X12299317Y-13205576D01*
X12280269Y-13196052D01*
X12270745Y-13177005D01*
X12270745Y-13100814D01*
X12280269Y-13081767D01*
X12299317Y-13072243D01*
X12337412Y-13072243D01*
X12356459Y-13081767D01*
X12365983Y-13100814D01*
X12365983Y-13119862D01*
X12270745Y-13138909D01*
X12442174Y-13196052D02*
X12461221Y-13205576D01*
X12499317Y-13205576D01*
X12518364Y-13196052D01*
X12527888Y-13177005D01*
X12527888Y-13167481D01*
X12518364Y-13148433D01*
X12499317Y-13138909D01*
X12470745Y-13138909D01*
X12451698Y-13129386D01*
X12442174Y-13110338D01*
X12442174Y-13100814D01*
X12451698Y-13081767D01*
X12470745Y-13072243D01*
X12499317Y-13072243D01*
X12518364Y-13081767D01*
X12765983Y-13129386D02*
X12918364Y-13129386D01*
X12842174Y-13205576D02*
X12842174Y-13053195D01*
X13156459Y-13024624D02*
X13165983Y-13015100D01*
X13185031Y-13005576D01*
X13232650Y-13005576D01*
X13251698Y-13015100D01*
X13261221Y-13024624D01*
X13270745Y-13043671D01*
X13270745Y-13062719D01*
X13261221Y-13091290D01*
X13146936Y-13205576D01*
X13270745Y-13205576D01*
X13499317Y-13196052D02*
X13518364Y-13205576D01*
X13556459Y-13205576D01*
X13575507Y-13196052D01*
X13585031Y-13177005D01*
X13585031Y-13167481D01*
X13575507Y-13148433D01*
X13556459Y-13138909D01*
X13527888Y-13138909D01*
X13508840Y-13129386D01*
X13499317Y-13110338D01*
X13499317Y-13100814D01*
X13508840Y-13081767D01*
X13527888Y-13072243D01*
X13556459Y-13072243D01*
X13575507Y-13081767D01*
X13699317Y-13205576D02*
X13680269Y-13196052D01*
X13670745Y-13177005D01*
X13670745Y-13005576D01*
X13804078Y-13205576D02*
X13785031Y-13196052D01*
X13775507Y-13186528D01*
X13765983Y-13167481D01*
X13765983Y-13110338D01*
X13775507Y-13091290D01*
X13785031Y-13081767D01*
X13804078Y-13072243D01*
X13832650Y-13072243D01*
X13851698Y-13081767D01*
X13861221Y-13091290D01*
X13870745Y-13110338D01*
X13870745Y-13167481D01*
X13861221Y-13186528D01*
X13851698Y-13196052D01*
X13832650Y-13205576D01*
X13804078Y-13205576D01*
X13927888Y-13072243D02*
X14004078Y-13072243D01*
X13956459Y-13005576D02*
X13956459Y-13177005D01*
X13965983Y-13196052D01*
X13985031Y-13205576D01*
X14004078Y-13205576D01*
X14061221Y-13196052D02*
X14080269Y-13205576D01*
X14118364Y-13205576D01*
X14137412Y-13196052D01*
X14146936Y-13177005D01*
X14146936Y-13167481D01*
X14137412Y-13148433D01*
X14118364Y-13138909D01*
X14089793Y-13138909D01*
X14070745Y-13129386D01*
X14061221Y-13110338D01*
X14061221Y-13100814D01*
X14070745Y-13081767D01*
X14089793Y-13072243D01*
X14118364Y-13072243D01*
X14137412Y-13081767D01*
X14213602Y-13281767D02*
X14223126Y-13272243D01*
X14242174Y-13243671D01*
X14251698Y-13224624D01*
X14261221Y-13196052D01*
X14270745Y-13148433D01*
X14270745Y-13110338D01*
X14261221Y-13062719D01*
X14251698Y-13034148D01*
X14242174Y-13015100D01*
X14223126Y-12986528D01*
X14213602Y-12977005D01*
X14575507Y-13281767D02*
X14565983Y-13272243D01*
X14546936Y-13243671D01*
X14537412Y-13224624D01*
X14527888Y-13196052D01*
X14518364Y-13148433D01*
X14518364Y-13110338D01*
X14527888Y-13062719D01*
X14537412Y-13034148D01*
X14546936Y-13015100D01*
X14565983Y-12986528D01*
X14575507Y-12977005D01*
X14651698Y-13072243D02*
X14651698Y-13205576D01*
X14651698Y-13091290D02*
X14661221Y-13081767D01*
X14680269Y-13072243D01*
X14708840Y-13072243D01*
X14727888Y-13081767D01*
X14737412Y-13100814D01*
X14737412Y-13205576D01*
X14861221Y-13205576D02*
X14842174Y-13196052D01*
X14832650Y-13186528D01*
X14823126Y-13167481D01*
X14823126Y-13110338D01*
X14832650Y-13091290D01*
X14842174Y-13081767D01*
X14861221Y-13072243D01*
X14889793Y-13072243D01*
X14908840Y-13081767D01*
X14918364Y-13091290D01*
X14927888Y-13110338D01*
X14927888Y-13167481D01*
X14918364Y-13186528D01*
X14908840Y-13196052D01*
X14889793Y-13205576D01*
X14861221Y-13205576D01*
X14985031Y-13072243D02*
X15061221Y-13072243D01*
X15013602Y-13005576D02*
X15013602Y-13177005D01*
X15023126Y-13196052D01*
X15042174Y-13205576D01*
X15061221Y-13205576D01*
X15280269Y-13072243D02*
X15280269Y-13272243D01*
X15280269Y-13081767D02*
X15299317Y-13072243D01*
X15337412Y-13072243D01*
X15356459Y-13081767D01*
X15365983Y-13091290D01*
X15375507Y-13110338D01*
X15375507Y-13167481D01*
X15365983Y-13186528D01*
X15356459Y-13196052D01*
X15337412Y-13205576D01*
X15299317Y-13205576D01*
X15280269Y-13196052D01*
X15489793Y-13205576D02*
X15470745Y-13196052D01*
X15461221Y-13177005D01*
X15461221Y-13005576D01*
X15651698Y-13205576D02*
X15651698Y-13100814D01*
X15642174Y-13081767D01*
X15623126Y-13072243D01*
X15585031Y-13072243D01*
X15565983Y-13081767D01*
X15651698Y-13196052D02*
X15632650Y-13205576D01*
X15585031Y-13205576D01*
X15565983Y-13196052D01*
X15556459Y-13177005D01*
X15556459Y-13157957D01*
X15565983Y-13138909D01*
X15585031Y-13129386D01*
X15632650Y-13129386D01*
X15651698Y-13119862D01*
X15718364Y-13072243D02*
X15794555Y-13072243D01*
X15746936Y-13005576D02*
X15746936Y-13177005D01*
X15756459Y-13196052D01*
X15775507Y-13205576D01*
X15794555Y-13205576D01*
X15937412Y-13196052D02*
X15918364Y-13205576D01*
X15880269Y-13205576D01*
X15861221Y-13196052D01*
X15851698Y-13177005D01*
X15851698Y-13100814D01*
X15861221Y-13081767D01*
X15880269Y-13072243D01*
X15918364Y-13072243D01*
X15937412Y-13081767D01*
X15946936Y-13100814D01*
X15946936Y-13119862D01*
X15851698Y-13138909D01*
X16118364Y-13205576D02*
X16118364Y-13005576D01*
X16118364Y-13196052D02*
X16099317Y-13205576D01*
X16061221Y-13205576D01*
X16042174Y-13196052D01*
X16032650Y-13186528D01*
X16023126Y-13167481D01*
X16023126Y-13110338D01*
X16032650Y-13091290D01*
X16042174Y-13081767D01*
X16061221Y-13072243D01*
X16099317Y-13072243D01*
X16118364Y-13081767D01*
X16194555Y-13281767D02*
X16204078Y-13272243D01*
X16223126Y-13243671D01*
X16232650Y-13224624D01*
X16242174Y-13196052D01*
X16251698Y-13148433D01*
X16251698Y-13110338D01*
X16242174Y-13062719D01*
X16232650Y-13034148D01*
X16223126Y-13015100D01*
X16204078Y-12986528D01*
X16194555Y-12977005D01*
X7822650Y-13379100D02*
G75*
G03*
X7822650Y-13379100I-100000J0D01*
G01*
X8061221Y-13269576D02*
X8185031Y-13269576D01*
X8118364Y-13345767D01*
X8146936Y-13345767D01*
X8165983Y-13355290D01*
X8175507Y-13364814D01*
X8185031Y-13383862D01*
X8185031Y-13431481D01*
X8175507Y-13450528D01*
X8165983Y-13460052D01*
X8146936Y-13469576D01*
X8089793Y-13469576D01*
X8070745Y-13460052D01*
X8061221Y-13450528D01*
X8270745Y-13450528D02*
X8280269Y-13460052D01*
X8270745Y-13469576D01*
X8261221Y-13460052D01*
X8270745Y-13450528D01*
X8270745Y-13469576D01*
X8356459Y-13288624D02*
X8365983Y-13279100D01*
X8385031Y-13269576D01*
X8432650Y-13269576D01*
X8451698Y-13279100D01*
X8461221Y-13288624D01*
X8470745Y-13307671D01*
X8470745Y-13326719D01*
X8461221Y-13355290D01*
X8346936Y-13469576D01*
X8470745Y-13469576D01*
X8594555Y-13269576D02*
X8613602Y-13269576D01*
X8632650Y-13279100D01*
X8642174Y-13288624D01*
X8651698Y-13307671D01*
X8661221Y-13345767D01*
X8661221Y-13393386D01*
X8651698Y-13431481D01*
X8642174Y-13450528D01*
X8632650Y-13460052D01*
X8613602Y-13469576D01*
X8594555Y-13469576D01*
X8575507Y-13460052D01*
X8565983Y-13450528D01*
X8556460Y-13431481D01*
X8546936Y-13393386D01*
X8546936Y-13345767D01*
X8556460Y-13307671D01*
X8565983Y-13288624D01*
X8575507Y-13279100D01*
X8594555Y-13269576D01*
X8785031Y-13269576D02*
X8804079Y-13269576D01*
X8823126Y-13279100D01*
X8832650Y-13288624D01*
X8842174Y-13307671D01*
X8851698Y-13345767D01*
X8851698Y-13393386D01*
X8842174Y-13431481D01*
X8832650Y-13450528D01*
X8823126Y-13460052D01*
X8804079Y-13469576D01*
X8785031Y-13469576D01*
X8765983Y-13460052D01*
X8756460Y-13450528D01*
X8746936Y-13431481D01*
X8737412Y-13393386D01*
X8737412Y-13345767D01*
X8746936Y-13307671D01*
X8756460Y-13288624D01*
X8765983Y-13279100D01*
X8785031Y-13269576D01*
X8937412Y-13469576D02*
X8937412Y-13336243D01*
X8937412Y-13355290D02*
X8946936Y-13345767D01*
X8965983Y-13336243D01*
X8994555Y-13336243D01*
X9013602Y-13345767D01*
X9023126Y-13364814D01*
X9023126Y-13469576D01*
X9023126Y-13364814D02*
X9032650Y-13345767D01*
X9051698Y-13336243D01*
X9080269Y-13336243D01*
X9099317Y-13345767D01*
X9108840Y-13364814D01*
X9108840Y-13469576D01*
X9204079Y-13469576D02*
X9204079Y-13336243D01*
X9204079Y-13355290D02*
X9213602Y-13345767D01*
X9232650Y-13336243D01*
X9261221Y-13336243D01*
X9280269Y-13345767D01*
X9289793Y-13364814D01*
X9289793Y-13469576D01*
X9289793Y-13364814D02*
X9299317Y-13345767D01*
X9318364Y-13336243D01*
X9346936Y-13336243D01*
X9365983Y-13345767D01*
X9375507Y-13364814D01*
X9375507Y-13469576D01*
X9765983Y-13260052D02*
X9594555Y-13517195D01*
X10023126Y-13269576D02*
X10042174Y-13269576D01*
X10061221Y-13279100D01*
X10070745Y-13288624D01*
X10080269Y-13307671D01*
X10089793Y-13345767D01*
X10089793Y-13393386D01*
X10080269Y-13431481D01*
X10070745Y-13450528D01*
X10061221Y-13460052D01*
X10042174Y-13469576D01*
X10023126Y-13469576D01*
X10004079Y-13460052D01*
X9994555Y-13450528D01*
X9985031Y-13431481D01*
X9975507Y-13393386D01*
X9975507Y-13345767D01*
X9985031Y-13307671D01*
X9994555Y-13288624D01*
X10004079Y-13279100D01*
X10023126Y-13269576D01*
X10175507Y-13450528D02*
X10185031Y-13460052D01*
X10175507Y-13469576D01*
X10165983Y-13460052D01*
X10175507Y-13450528D01*
X10175507Y-13469576D01*
X10375507Y-13469576D02*
X10261221Y-13469576D01*
X10318364Y-13469576D02*
X10318364Y-13269576D01*
X10299317Y-13298148D01*
X10280269Y-13317195D01*
X10261221Y-13326719D01*
X10451698Y-13288624D02*
X10461221Y-13279100D01*
X10480269Y-13269576D01*
X10527888Y-13269576D01*
X10546936Y-13279100D01*
X10556460Y-13288624D01*
X10565983Y-13307671D01*
X10565983Y-13326719D01*
X10556460Y-13355290D01*
X10442174Y-13469576D01*
X10565983Y-13469576D01*
X10737412Y-13269576D02*
X10699317Y-13269576D01*
X10680269Y-13279100D01*
X10670745Y-13288624D01*
X10651698Y-13317195D01*
X10642174Y-13355290D01*
X10642174Y-13431481D01*
X10651698Y-13450528D01*
X10661221Y-13460052D01*
X10680269Y-13469576D01*
X10718364Y-13469576D01*
X10737412Y-13460052D01*
X10746936Y-13450528D01*
X10756460Y-13431481D01*
X10756460Y-13383862D01*
X10746936Y-13364814D01*
X10737412Y-13355290D01*
X10718364Y-13345767D01*
X10680269Y-13345767D01*
X10661221Y-13355290D01*
X10651698Y-13364814D01*
X10642174Y-13383862D01*
X10880269Y-13269576D02*
X10899317Y-13269576D01*
X10918364Y-13279100D01*
X10927888Y-13288624D01*
X10937412Y-13307671D01*
X10946936Y-13345767D01*
X10946936Y-13393386D01*
X10937412Y-13431481D01*
X10927888Y-13450528D01*
X10918364Y-13460052D01*
X10899317Y-13469576D01*
X10880269Y-13469576D01*
X10861221Y-13460052D01*
X10851698Y-13450528D01*
X10842174Y-13431481D01*
X10832650Y-13393386D01*
X10832650Y-13345767D01*
X10842174Y-13307671D01*
X10851698Y-13288624D01*
X10861221Y-13279100D01*
X10880269Y-13269576D01*
X11023126Y-13269576D02*
X11023126Y-13307671D01*
X11099317Y-13269576D02*
X11099317Y-13307671D01*
X11394555Y-13545767D02*
X11385031Y-13536243D01*
X11365983Y-13507671D01*
X11356459Y-13488624D01*
X11346936Y-13460052D01*
X11337412Y-13412433D01*
X11337412Y-13374338D01*
X11346936Y-13326719D01*
X11356459Y-13298148D01*
X11365983Y-13279100D01*
X11385031Y-13250528D01*
X11394555Y-13241005D01*
X11556459Y-13336243D02*
X11556459Y-13469576D01*
X11508840Y-13260052D02*
X11461221Y-13402909D01*
X11585031Y-13402909D01*
X11813602Y-13469576D02*
X11813602Y-13269576D01*
X11899317Y-13469576D02*
X11899317Y-13364814D01*
X11889793Y-13345767D01*
X11870745Y-13336243D01*
X11842174Y-13336243D01*
X11823126Y-13345767D01*
X11813602Y-13355290D01*
X12023126Y-13469576D02*
X12004078Y-13460052D01*
X11994555Y-13450528D01*
X11985031Y-13431481D01*
X11985031Y-13374338D01*
X11994555Y-13355290D01*
X12004078Y-13345767D01*
X12023126Y-13336243D01*
X12051698Y-13336243D01*
X12070745Y-13345767D01*
X12080269Y-13355290D01*
X12089793Y-13374338D01*
X12089793Y-13431481D01*
X12080269Y-13450528D01*
X12070745Y-13460052D01*
X12051698Y-13469576D01*
X12023126Y-13469576D01*
X12204078Y-13469576D02*
X12185031Y-13460052D01*
X12175507Y-13441005D01*
X12175507Y-13269576D01*
X12356459Y-13460052D02*
X12337412Y-13469576D01*
X12299317Y-13469576D01*
X12280269Y-13460052D01*
X12270745Y-13441005D01*
X12270745Y-13364814D01*
X12280269Y-13345767D01*
X12299317Y-13336243D01*
X12337412Y-13336243D01*
X12356459Y-13345767D01*
X12365983Y-13364814D01*
X12365983Y-13383862D01*
X12270745Y-13402909D01*
X12442174Y-13460052D02*
X12461221Y-13469576D01*
X12499317Y-13469576D01*
X12518364Y-13460052D01*
X12527888Y-13441005D01*
X12527888Y-13431481D01*
X12518364Y-13412433D01*
X12499317Y-13402909D01*
X12470745Y-13402909D01*
X12451698Y-13393386D01*
X12442174Y-13374338D01*
X12442174Y-13364814D01*
X12451698Y-13345767D01*
X12470745Y-13336243D01*
X12499317Y-13336243D01*
X12518364Y-13345767D01*
X12594555Y-13545767D02*
X12604078Y-13536243D01*
X12623126Y-13507671D01*
X12632650Y-13488624D01*
X12642174Y-13460052D01*
X12651698Y-13412433D01*
X12651698Y-13374338D01*
X12642174Y-13326719D01*
X12632650Y-13298148D01*
X12623126Y-13279100D01*
X12604078Y-13250528D01*
X12594555Y-13241005D01*
X12956459Y-13545767D02*
X12946936Y-13536243D01*
X12927888Y-13507671D01*
X12918364Y-13488624D01*
X12908840Y-13460052D01*
X12899317Y-13412433D01*
X12899317Y-13374338D01*
X12908840Y-13326719D01*
X12918364Y-13298148D01*
X12927888Y-13279100D01*
X12946936Y-13250528D01*
X12956459Y-13241005D01*
X13032650Y-13336243D02*
X13032650Y-13469576D01*
X13032650Y-13355290D02*
X13042174Y-13345767D01*
X13061221Y-13336243D01*
X13089793Y-13336243D01*
X13108840Y-13345767D01*
X13118364Y-13364814D01*
X13118364Y-13469576D01*
X13242174Y-13469576D02*
X13223126Y-13460052D01*
X13213602Y-13450528D01*
X13204078Y-13431481D01*
X13204078Y-13374338D01*
X13213602Y-13355290D01*
X13223126Y-13345767D01*
X13242174Y-13336243D01*
X13270745Y-13336243D01*
X13289793Y-13345767D01*
X13299317Y-13355290D01*
X13308840Y-13374338D01*
X13308840Y-13431481D01*
X13299317Y-13450528D01*
X13289793Y-13460052D01*
X13270745Y-13469576D01*
X13242174Y-13469576D01*
X13365983Y-13336243D02*
X13442174Y-13336243D01*
X13394555Y-13269576D02*
X13394555Y-13441005D01*
X13404078Y-13460052D01*
X13423126Y-13469576D01*
X13442174Y-13469576D01*
X13661221Y-13336243D02*
X13661221Y-13536243D01*
X13661221Y-13345767D02*
X13680269Y-13336243D01*
X13718364Y-13336243D01*
X13737412Y-13345767D01*
X13746936Y-13355290D01*
X13756459Y-13374338D01*
X13756459Y-13431481D01*
X13746936Y-13450528D01*
X13737412Y-13460052D01*
X13718364Y-13469576D01*
X13680269Y-13469576D01*
X13661221Y-13460052D01*
X13870745Y-13469576D02*
X13851698Y-13460052D01*
X13842174Y-13441005D01*
X13842174Y-13269576D01*
X14032650Y-13469576D02*
X14032650Y-13364814D01*
X14023126Y-13345767D01*
X14004078Y-13336243D01*
X13965983Y-13336243D01*
X13946936Y-13345767D01*
X14032650Y-13460052D02*
X14013602Y-13469576D01*
X13965983Y-13469576D01*
X13946936Y-13460052D01*
X13937412Y-13441005D01*
X13937412Y-13421957D01*
X13946936Y-13402909D01*
X13965983Y-13393386D01*
X14013602Y-13393386D01*
X14032650Y-13383862D01*
X14099317Y-13336243D02*
X14175507Y-13336243D01*
X14127888Y-13269576D02*
X14127888Y-13441005D01*
X14137412Y-13460052D01*
X14156459Y-13469576D01*
X14175507Y-13469576D01*
X14318364Y-13460052D02*
X14299317Y-13469576D01*
X14261221Y-13469576D01*
X14242174Y-13460052D01*
X14232650Y-13441005D01*
X14232650Y-13364814D01*
X14242174Y-13345767D01*
X14261221Y-13336243D01*
X14299317Y-13336243D01*
X14318364Y-13345767D01*
X14327888Y-13364814D01*
X14327888Y-13383862D01*
X14232650Y-13402909D01*
X14499317Y-13469576D02*
X14499317Y-13269576D01*
X14499317Y-13460052D02*
X14480269Y-13469576D01*
X14442174Y-13469576D01*
X14423126Y-13460052D01*
X14413602Y-13450528D01*
X14404078Y-13431481D01*
X14404078Y-13374338D01*
X14413602Y-13355290D01*
X14423126Y-13345767D01*
X14442174Y-13336243D01*
X14480269Y-13336243D01*
X14499317Y-13345767D01*
X14575507Y-13545767D02*
X14585031Y-13536243D01*
X14604078Y-13507671D01*
X14613602Y-13488624D01*
X14623126Y-13460052D01*
X14632650Y-13412433D01*
X14632650Y-13374338D01*
X14623126Y-13326719D01*
X14613602Y-13298148D01*
X14604078Y-13279100D01*
X14585031Y-13250528D01*
X14575507Y-13241005D01*
M02*
