G04 #@! TF.GenerationSoftware,KiCad,Pcbnew,(5.1.5)-3*
G04 #@! TF.CreationDate,2020-05-20T23:31:55+02:00*
G04 #@! TF.ProjectId,Carte_Phare,43617274-655f-4506-9861-72652e6b6963,rev?*
G04 #@! TF.SameCoordinates,Original*
G04 #@! TF.FileFunction,Copper,L2,Bot*
G04 #@! TF.FilePolarity,Positive*
%FSLAX46Y46*%
G04 Gerber Fmt 4.6, Leading zero omitted, Abs format (unit mm)*
G04 Created by KiCad (PCBNEW (5.1.5)-3) date 2020-05-20 23:31:55*
%MOMM*%
%LPD*%
G04 APERTURE LIST*
%ADD10C,0.800000*%
%ADD11C,6.400000*%
%ADD12O,1.700000X1.700000*%
%ADD13R,1.700000X1.700000*%
%ADD14C,2.000000*%
%ADD15O,1.700000X2.000000*%
%ADD16C,0.100000*%
%ADD17O,2.020000X1.500000*%
%ADD18C,0.600000*%
%ADD19C,0.400000*%
%ADD20C,0.350000*%
%ADD21C,0.300000*%
%ADD22C,0.254000*%
G04 APERTURE END LIST*
D10*
X125257056Y-80872944D03*
X123560000Y-80170000D03*
X121862944Y-80872944D03*
X121160000Y-82570000D03*
X121862944Y-84267056D03*
X123560000Y-84970000D03*
X125257056Y-84267056D03*
X125960000Y-82570000D03*
D11*
X123560000Y-82570000D03*
D10*
X125457056Y-45552944D03*
X123760000Y-44850000D03*
X122062944Y-45552944D03*
X121360000Y-47250000D03*
X122062944Y-48947056D03*
X123760000Y-49650000D03*
X125457056Y-48947056D03*
X126160000Y-47250000D03*
D11*
X123760000Y-47250000D03*
D10*
X77087056Y-80882944D03*
X75390000Y-80180000D03*
X73692944Y-80882944D03*
X72990000Y-82580000D03*
X73692944Y-84277056D03*
X75390000Y-84980000D03*
X77087056Y-84277056D03*
X77790000Y-82580000D03*
D11*
X75390000Y-82580000D03*
D10*
X77072056Y-45602944D03*
X75375000Y-44900000D03*
X73677944Y-45602944D03*
X72975000Y-47300000D03*
X73677944Y-48997056D03*
X75375000Y-49700000D03*
X77072056Y-48997056D03*
X77775000Y-47300000D03*
D11*
X75375000Y-47300000D03*
D12*
X95410000Y-45520000D03*
X92870000Y-45520000D03*
X90330000Y-45520000D03*
X87790000Y-45520000D03*
X85250000Y-45520000D03*
D13*
X82710000Y-45520000D03*
D14*
X72250000Y-57650000D03*
X72250000Y-53150000D03*
X78750000Y-57650000D03*
X78750000Y-53150000D03*
D15*
X125020000Y-53850000D03*
G04 #@! TA.AperFunction,ComponentPad*
D16*
G36*
X123144504Y-52851204D02*
G01*
X123168773Y-52854804D01*
X123192571Y-52860765D01*
X123215671Y-52869030D01*
X123237849Y-52879520D01*
X123258893Y-52892133D01*
X123278598Y-52906747D01*
X123296777Y-52923223D01*
X123313253Y-52941402D01*
X123327867Y-52961107D01*
X123340480Y-52982151D01*
X123350970Y-53004329D01*
X123359235Y-53027429D01*
X123365196Y-53051227D01*
X123368796Y-53075496D01*
X123370000Y-53100000D01*
X123370000Y-54600000D01*
X123368796Y-54624504D01*
X123365196Y-54648773D01*
X123359235Y-54672571D01*
X123350970Y-54695671D01*
X123340480Y-54717849D01*
X123327867Y-54738893D01*
X123313253Y-54758598D01*
X123296777Y-54776777D01*
X123278598Y-54793253D01*
X123258893Y-54807867D01*
X123237849Y-54820480D01*
X123215671Y-54830970D01*
X123192571Y-54839235D01*
X123168773Y-54845196D01*
X123144504Y-54848796D01*
X123120000Y-54850000D01*
X121920000Y-54850000D01*
X121895496Y-54848796D01*
X121871227Y-54845196D01*
X121847429Y-54839235D01*
X121824329Y-54830970D01*
X121802151Y-54820480D01*
X121781107Y-54807867D01*
X121761402Y-54793253D01*
X121743223Y-54776777D01*
X121726747Y-54758598D01*
X121712133Y-54738893D01*
X121699520Y-54717849D01*
X121689030Y-54695671D01*
X121680765Y-54672571D01*
X121674804Y-54648773D01*
X121671204Y-54624504D01*
X121670000Y-54600000D01*
X121670000Y-53100000D01*
X121671204Y-53075496D01*
X121674804Y-53051227D01*
X121680765Y-53027429D01*
X121689030Y-53004329D01*
X121699520Y-52982151D01*
X121712133Y-52961107D01*
X121726747Y-52941402D01*
X121743223Y-52923223D01*
X121761402Y-52906747D01*
X121781107Y-52892133D01*
X121802151Y-52879520D01*
X121824329Y-52869030D01*
X121847429Y-52860765D01*
X121871227Y-52854804D01*
X121895496Y-52851204D01*
X121920000Y-52850000D01*
X123120000Y-52850000D01*
X123144504Y-52851204D01*
G37*
G04 #@! TD.AperFunction*
D15*
X89960000Y-51020000D03*
G04 #@! TA.AperFunction,ComponentPad*
D16*
G36*
X88084504Y-50021204D02*
G01*
X88108773Y-50024804D01*
X88132571Y-50030765D01*
X88155671Y-50039030D01*
X88177849Y-50049520D01*
X88198893Y-50062133D01*
X88218598Y-50076747D01*
X88236777Y-50093223D01*
X88253253Y-50111402D01*
X88267867Y-50131107D01*
X88280480Y-50152151D01*
X88290970Y-50174329D01*
X88299235Y-50197429D01*
X88305196Y-50221227D01*
X88308796Y-50245496D01*
X88310000Y-50270000D01*
X88310000Y-51770000D01*
X88308796Y-51794504D01*
X88305196Y-51818773D01*
X88299235Y-51842571D01*
X88290970Y-51865671D01*
X88280480Y-51887849D01*
X88267867Y-51908893D01*
X88253253Y-51928598D01*
X88236777Y-51946777D01*
X88218598Y-51963253D01*
X88198893Y-51977867D01*
X88177849Y-51990480D01*
X88155671Y-52000970D01*
X88132571Y-52009235D01*
X88108773Y-52015196D01*
X88084504Y-52018796D01*
X88060000Y-52020000D01*
X86860000Y-52020000D01*
X86835496Y-52018796D01*
X86811227Y-52015196D01*
X86787429Y-52009235D01*
X86764329Y-52000970D01*
X86742151Y-51990480D01*
X86721107Y-51977867D01*
X86701402Y-51963253D01*
X86683223Y-51946777D01*
X86666747Y-51928598D01*
X86652133Y-51908893D01*
X86639520Y-51887849D01*
X86629030Y-51865671D01*
X86620765Y-51842571D01*
X86614804Y-51818773D01*
X86611204Y-51794504D01*
X86610000Y-51770000D01*
X86610000Y-50270000D01*
X86611204Y-50245496D01*
X86614804Y-50221227D01*
X86620765Y-50197429D01*
X86629030Y-50174329D01*
X86639520Y-50152151D01*
X86652133Y-50131107D01*
X86666747Y-50111402D01*
X86683223Y-50093223D01*
X86701402Y-50076747D01*
X86721107Y-50062133D01*
X86742151Y-50049520D01*
X86764329Y-50039030D01*
X86787429Y-50030765D01*
X86811227Y-50024804D01*
X86835496Y-50021204D01*
X86860000Y-50020000D01*
X88060000Y-50020000D01*
X88084504Y-50021204D01*
G37*
G04 #@! TD.AperFunction*
D15*
X125030000Y-59080000D03*
G04 #@! TA.AperFunction,ComponentPad*
D16*
G36*
X123154504Y-58081204D02*
G01*
X123178773Y-58084804D01*
X123202571Y-58090765D01*
X123225671Y-58099030D01*
X123247849Y-58109520D01*
X123268893Y-58122133D01*
X123288598Y-58136747D01*
X123306777Y-58153223D01*
X123323253Y-58171402D01*
X123337867Y-58191107D01*
X123350480Y-58212151D01*
X123360970Y-58234329D01*
X123369235Y-58257429D01*
X123375196Y-58281227D01*
X123378796Y-58305496D01*
X123380000Y-58330000D01*
X123380000Y-59830000D01*
X123378796Y-59854504D01*
X123375196Y-59878773D01*
X123369235Y-59902571D01*
X123360970Y-59925671D01*
X123350480Y-59947849D01*
X123337867Y-59968893D01*
X123323253Y-59988598D01*
X123306777Y-60006777D01*
X123288598Y-60023253D01*
X123268893Y-60037867D01*
X123247849Y-60050480D01*
X123225671Y-60060970D01*
X123202571Y-60069235D01*
X123178773Y-60075196D01*
X123154504Y-60078796D01*
X123130000Y-60080000D01*
X121930000Y-60080000D01*
X121905496Y-60078796D01*
X121881227Y-60075196D01*
X121857429Y-60069235D01*
X121834329Y-60060970D01*
X121812151Y-60050480D01*
X121791107Y-60037867D01*
X121771402Y-60023253D01*
X121753223Y-60006777D01*
X121736747Y-59988598D01*
X121722133Y-59968893D01*
X121709520Y-59947849D01*
X121699030Y-59925671D01*
X121690765Y-59902571D01*
X121684804Y-59878773D01*
X121681204Y-59854504D01*
X121680000Y-59830000D01*
X121680000Y-58330000D01*
X121681204Y-58305496D01*
X121684804Y-58281227D01*
X121690765Y-58257429D01*
X121699030Y-58234329D01*
X121709520Y-58212151D01*
X121722133Y-58191107D01*
X121736747Y-58171402D01*
X121753223Y-58153223D01*
X121771402Y-58136747D01*
X121791107Y-58122133D01*
X121812151Y-58109520D01*
X121834329Y-58099030D01*
X121857429Y-58090765D01*
X121881227Y-58084804D01*
X121905496Y-58081204D01*
X121930000Y-58080000D01*
X123130000Y-58080000D01*
X123154504Y-58081204D01*
G37*
G04 #@! TD.AperFunction*
D15*
X125040000Y-64280000D03*
G04 #@! TA.AperFunction,ComponentPad*
D16*
G36*
X123164504Y-63281204D02*
G01*
X123188773Y-63284804D01*
X123212571Y-63290765D01*
X123235671Y-63299030D01*
X123257849Y-63309520D01*
X123278893Y-63322133D01*
X123298598Y-63336747D01*
X123316777Y-63353223D01*
X123333253Y-63371402D01*
X123347867Y-63391107D01*
X123360480Y-63412151D01*
X123370970Y-63434329D01*
X123379235Y-63457429D01*
X123385196Y-63481227D01*
X123388796Y-63505496D01*
X123390000Y-63530000D01*
X123390000Y-65030000D01*
X123388796Y-65054504D01*
X123385196Y-65078773D01*
X123379235Y-65102571D01*
X123370970Y-65125671D01*
X123360480Y-65147849D01*
X123347867Y-65168893D01*
X123333253Y-65188598D01*
X123316777Y-65206777D01*
X123298598Y-65223253D01*
X123278893Y-65237867D01*
X123257849Y-65250480D01*
X123235671Y-65260970D01*
X123212571Y-65269235D01*
X123188773Y-65275196D01*
X123164504Y-65278796D01*
X123140000Y-65280000D01*
X121940000Y-65280000D01*
X121915496Y-65278796D01*
X121891227Y-65275196D01*
X121867429Y-65269235D01*
X121844329Y-65260970D01*
X121822151Y-65250480D01*
X121801107Y-65237867D01*
X121781402Y-65223253D01*
X121763223Y-65206777D01*
X121746747Y-65188598D01*
X121732133Y-65168893D01*
X121719520Y-65147849D01*
X121709030Y-65125671D01*
X121700765Y-65102571D01*
X121694804Y-65078773D01*
X121691204Y-65054504D01*
X121690000Y-65030000D01*
X121690000Y-63530000D01*
X121691204Y-63505496D01*
X121694804Y-63481227D01*
X121700765Y-63457429D01*
X121709030Y-63434329D01*
X121719520Y-63412151D01*
X121732133Y-63391107D01*
X121746747Y-63371402D01*
X121763223Y-63353223D01*
X121781402Y-63336747D01*
X121801107Y-63322133D01*
X121822151Y-63309520D01*
X121844329Y-63299030D01*
X121867429Y-63290765D01*
X121891227Y-63284804D01*
X121915496Y-63281204D01*
X121940000Y-63280000D01*
X123140000Y-63280000D01*
X123164504Y-63281204D01*
G37*
G04 #@! TD.AperFunction*
D15*
X125040000Y-74730000D03*
G04 #@! TA.AperFunction,ComponentPad*
D16*
G36*
X123164504Y-73731204D02*
G01*
X123188773Y-73734804D01*
X123212571Y-73740765D01*
X123235671Y-73749030D01*
X123257849Y-73759520D01*
X123278893Y-73772133D01*
X123298598Y-73786747D01*
X123316777Y-73803223D01*
X123333253Y-73821402D01*
X123347867Y-73841107D01*
X123360480Y-73862151D01*
X123370970Y-73884329D01*
X123379235Y-73907429D01*
X123385196Y-73931227D01*
X123388796Y-73955496D01*
X123390000Y-73980000D01*
X123390000Y-75480000D01*
X123388796Y-75504504D01*
X123385196Y-75528773D01*
X123379235Y-75552571D01*
X123370970Y-75575671D01*
X123360480Y-75597849D01*
X123347867Y-75618893D01*
X123333253Y-75638598D01*
X123316777Y-75656777D01*
X123298598Y-75673253D01*
X123278893Y-75687867D01*
X123257849Y-75700480D01*
X123235671Y-75710970D01*
X123212571Y-75719235D01*
X123188773Y-75725196D01*
X123164504Y-75728796D01*
X123140000Y-75730000D01*
X121940000Y-75730000D01*
X121915496Y-75728796D01*
X121891227Y-75725196D01*
X121867429Y-75719235D01*
X121844329Y-75710970D01*
X121822151Y-75700480D01*
X121801107Y-75687867D01*
X121781402Y-75673253D01*
X121763223Y-75656777D01*
X121746747Y-75638598D01*
X121732133Y-75618893D01*
X121719520Y-75597849D01*
X121709030Y-75575671D01*
X121700765Y-75552571D01*
X121694804Y-75528773D01*
X121691204Y-75504504D01*
X121690000Y-75480000D01*
X121690000Y-73980000D01*
X121691204Y-73955496D01*
X121694804Y-73931227D01*
X121700765Y-73907429D01*
X121709030Y-73884329D01*
X121719520Y-73862151D01*
X121732133Y-73841107D01*
X121746747Y-73821402D01*
X121763223Y-73803223D01*
X121781402Y-73786747D01*
X121801107Y-73772133D01*
X121822151Y-73759520D01*
X121844329Y-73749030D01*
X121867429Y-73740765D01*
X121891227Y-73734804D01*
X121915496Y-73731204D01*
X121940000Y-73730000D01*
X123140000Y-73730000D01*
X123164504Y-73731204D01*
G37*
G04 #@! TD.AperFunction*
D15*
X125040000Y-69480000D03*
G04 #@! TA.AperFunction,ComponentPad*
D16*
G36*
X123164504Y-68481204D02*
G01*
X123188773Y-68484804D01*
X123212571Y-68490765D01*
X123235671Y-68499030D01*
X123257849Y-68509520D01*
X123278893Y-68522133D01*
X123298598Y-68536747D01*
X123316777Y-68553223D01*
X123333253Y-68571402D01*
X123347867Y-68591107D01*
X123360480Y-68612151D01*
X123370970Y-68634329D01*
X123379235Y-68657429D01*
X123385196Y-68681227D01*
X123388796Y-68705496D01*
X123390000Y-68730000D01*
X123390000Y-70230000D01*
X123388796Y-70254504D01*
X123385196Y-70278773D01*
X123379235Y-70302571D01*
X123370970Y-70325671D01*
X123360480Y-70347849D01*
X123347867Y-70368893D01*
X123333253Y-70388598D01*
X123316777Y-70406777D01*
X123298598Y-70423253D01*
X123278893Y-70437867D01*
X123257849Y-70450480D01*
X123235671Y-70460970D01*
X123212571Y-70469235D01*
X123188773Y-70475196D01*
X123164504Y-70478796D01*
X123140000Y-70480000D01*
X121940000Y-70480000D01*
X121915496Y-70478796D01*
X121891227Y-70475196D01*
X121867429Y-70469235D01*
X121844329Y-70460970D01*
X121822151Y-70450480D01*
X121801107Y-70437867D01*
X121781402Y-70423253D01*
X121763223Y-70406777D01*
X121746747Y-70388598D01*
X121732133Y-70368893D01*
X121719520Y-70347849D01*
X121709030Y-70325671D01*
X121700765Y-70302571D01*
X121694804Y-70278773D01*
X121691204Y-70254504D01*
X121690000Y-70230000D01*
X121690000Y-68730000D01*
X121691204Y-68705496D01*
X121694804Y-68681227D01*
X121700765Y-68657429D01*
X121709030Y-68634329D01*
X121719520Y-68612151D01*
X121732133Y-68591107D01*
X121746747Y-68571402D01*
X121763223Y-68553223D01*
X121781402Y-68536747D01*
X121801107Y-68522133D01*
X121822151Y-68509520D01*
X121844329Y-68499030D01*
X121867429Y-68490765D01*
X121891227Y-68484804D01*
X121915496Y-68481204D01*
X121940000Y-68480000D01*
X123140000Y-68480000D01*
X123164504Y-68481204D01*
G37*
G04 #@! TD.AperFunction*
D17*
X78775000Y-71925000D03*
G04 #@! TA.AperFunction,ComponentPad*
D16*
G36*
X79559504Y-74176204D02*
G01*
X79583773Y-74179804D01*
X79607571Y-74185765D01*
X79630671Y-74194030D01*
X79652849Y-74204520D01*
X79673893Y-74217133D01*
X79693598Y-74231747D01*
X79711777Y-74248223D01*
X79728253Y-74266402D01*
X79742867Y-74286107D01*
X79755480Y-74307151D01*
X79765970Y-74329329D01*
X79774235Y-74352429D01*
X79780196Y-74376227D01*
X79783796Y-74400496D01*
X79785000Y-74425000D01*
X79785000Y-75425000D01*
X79783796Y-75449504D01*
X79780196Y-75473773D01*
X79774235Y-75497571D01*
X79765970Y-75520671D01*
X79755480Y-75542849D01*
X79742867Y-75563893D01*
X79728253Y-75583598D01*
X79711777Y-75601777D01*
X79693598Y-75618253D01*
X79673893Y-75632867D01*
X79652849Y-75645480D01*
X79630671Y-75655970D01*
X79607571Y-75664235D01*
X79583773Y-75670196D01*
X79559504Y-75673796D01*
X79535000Y-75675000D01*
X78015000Y-75675000D01*
X77990496Y-75673796D01*
X77966227Y-75670196D01*
X77942429Y-75664235D01*
X77919329Y-75655970D01*
X77897151Y-75645480D01*
X77876107Y-75632867D01*
X77856402Y-75618253D01*
X77838223Y-75601777D01*
X77821747Y-75583598D01*
X77807133Y-75563893D01*
X77794520Y-75542849D01*
X77784030Y-75520671D01*
X77775765Y-75497571D01*
X77769804Y-75473773D01*
X77766204Y-75449504D01*
X77765000Y-75425000D01*
X77765000Y-74425000D01*
X77766204Y-74400496D01*
X77769804Y-74376227D01*
X77775765Y-74352429D01*
X77784030Y-74329329D01*
X77794520Y-74307151D01*
X77807133Y-74286107D01*
X77821747Y-74266402D01*
X77838223Y-74248223D01*
X77856402Y-74231747D01*
X77876107Y-74217133D01*
X77897151Y-74204520D01*
X77919329Y-74194030D01*
X77942429Y-74185765D01*
X77966227Y-74179804D01*
X77990496Y-74176204D01*
X78015000Y-74175000D01*
X79535000Y-74175000D01*
X79559504Y-74176204D01*
G37*
G04 #@! TD.AperFunction*
D10*
X96520000Y-73660000D03*
X99935000Y-73645000D03*
X99830000Y-51560000D03*
X101120000Y-46820000D03*
X114410000Y-54870000D03*
X108175000Y-54845000D03*
X91710000Y-84270000D03*
X84960000Y-72520000D03*
X96210000Y-83270000D03*
X95961498Y-81194990D03*
X113210000Y-56020000D03*
X98210000Y-58020000D03*
X90140000Y-56180000D03*
X83940000Y-56490000D03*
X82041992Y-63246000D03*
X82060000Y-56470000D03*
X89210000Y-71520000D03*
X107297718Y-67363142D03*
X85707015Y-64511044D03*
X108048335Y-68023897D03*
X85647294Y-65582709D03*
X85460000Y-67770000D03*
X101710000Y-67870000D03*
X101760000Y-62219994D03*
X110490000Y-62230000D03*
X85460000Y-66769997D03*
X107460000Y-70020000D03*
X116510000Y-67819999D03*
X111460000Y-70270000D03*
X90310000Y-62570000D03*
X94960000Y-59020000D03*
X111045888Y-59971078D03*
X112550460Y-70572510D03*
X99610000Y-63040000D03*
X109710000Y-60020012D03*
X94138124Y-60245719D03*
X110960000Y-61270000D03*
X93194737Y-60995020D03*
X111909996Y-69270000D03*
X91460000Y-64020000D03*
X106560000Y-54320000D03*
X100930000Y-55900000D03*
X100535000Y-68570000D03*
X102885000Y-74795000D03*
X104712234Y-67219989D03*
X108960000Y-70020000D03*
X115710000Y-76770000D03*
X109460000Y-63020000D03*
X107959994Y-56020000D03*
X103960000Y-76770000D03*
X103960000Y-69520008D03*
X110285000Y-56020000D03*
X90960000Y-71520000D03*
X92210000Y-71520000D03*
X102710000Y-76270000D03*
X106710000Y-75770000D03*
X114460000Y-75770000D03*
X88502892Y-72227108D03*
X118110000Y-80010000D03*
X83820000Y-69850000D03*
X81280000Y-69850000D03*
X95710000Y-58020000D03*
X93210000Y-62020000D03*
X93965774Y-62790769D03*
X83360000Y-68550791D03*
X82960000Y-54695000D03*
D18*
X96520000Y-73660000D02*
X99920000Y-73660000D01*
X99920000Y-73660000D02*
X99935000Y-73645000D01*
X99830000Y-51560000D02*
X99830000Y-48110000D01*
X99830000Y-48110000D02*
X101120000Y-46820000D01*
X114410000Y-54870000D02*
X108200000Y-54870000D01*
X108200000Y-54870000D02*
X108175000Y-54845000D01*
X91310001Y-83870001D02*
X89060001Y-83870001D01*
X91710000Y-84270000D02*
X91310001Y-83870001D01*
X89060001Y-83870001D02*
X84960000Y-79770000D01*
X84960000Y-79770000D02*
X83460000Y-79770000D01*
X83460000Y-79770000D02*
X82960000Y-79270000D01*
X82960000Y-79270000D02*
X82960000Y-74520000D01*
X82960000Y-74520000D02*
X84960000Y-72520000D01*
X96210000Y-83270000D02*
X96210000Y-81443492D01*
X96210000Y-81443492D02*
X95961498Y-81194990D01*
X111210000Y-58020000D02*
X98210000Y-58020000D01*
X113210000Y-56020000D02*
X111210000Y-58020000D01*
X90140000Y-56180000D02*
X84250000Y-56180000D01*
X84250000Y-56180000D02*
X83940000Y-56490000D01*
X82041992Y-56488008D02*
X82060000Y-56470000D01*
X82041992Y-63246000D02*
X82041992Y-56488008D01*
D19*
X125040000Y-74880000D02*
X125040000Y-74730000D01*
X121180000Y-78740000D02*
X125040000Y-74880000D01*
X89210000Y-71520000D02*
X96430000Y-78740000D01*
X96430000Y-78740000D02*
X121180000Y-78740000D01*
X106897719Y-66963143D02*
X107297718Y-67363142D01*
X85707015Y-64511044D02*
X86718720Y-65522749D01*
X105457325Y-65522749D02*
X106897719Y-66963143D01*
X86718720Y-65522749D02*
X105457325Y-65522749D01*
X108048335Y-68023897D02*
X107852234Y-68219998D01*
X86047293Y-65982708D02*
X85647294Y-65582709D01*
X86334585Y-66270000D02*
X86047293Y-65982708D01*
X104960000Y-66270000D02*
X86334585Y-66270000D01*
X107852234Y-68219998D02*
X106909998Y-68219998D01*
X106909998Y-68219998D02*
X104960000Y-66270000D01*
X85460000Y-67770000D02*
X101610000Y-67770000D01*
X101610000Y-67770000D02*
X101710000Y-67870000D01*
D18*
X110379999Y-62119999D02*
X110490000Y-62230000D01*
X101760000Y-62219994D02*
X102325685Y-62219994D01*
X102425680Y-62119999D02*
X110379999Y-62119999D01*
X102325685Y-62219994D02*
X102425680Y-62119999D01*
D19*
X85986039Y-66769997D02*
X86250237Y-67034195D01*
X85460000Y-66769997D02*
X85986039Y-66769997D01*
X86250237Y-67034195D02*
X98596019Y-67034195D01*
X98596019Y-67034195D02*
X98604532Y-67025682D01*
X98604532Y-67025682D02*
X103333925Y-67025682D01*
X103333925Y-67025682D02*
X106328243Y-70020000D01*
X106894315Y-70020000D02*
X107460000Y-70020000D01*
X106328243Y-70020000D02*
X106894315Y-70020000D01*
X122530000Y-60350000D02*
X122530000Y-59080000D01*
X118110000Y-64770000D02*
X122530000Y-60350000D01*
X116510000Y-67819999D02*
X118110000Y-66219999D01*
X118110000Y-66219999D02*
X118110000Y-64770000D01*
X90310000Y-63135685D02*
X90310000Y-62570000D01*
X106112738Y-64922738D02*
X91222053Y-64922738D01*
X90310000Y-64010685D02*
X90310000Y-63135685D01*
X91222053Y-64922738D02*
X90310000Y-64010685D01*
X111460000Y-70270000D02*
X106112738Y-64922738D01*
D18*
X110094810Y-59020000D02*
X111045888Y-59971078D01*
X94960000Y-59020000D02*
X110094810Y-59020000D01*
D19*
X107045685Y-63040000D02*
X100175685Y-63040000D01*
X100175685Y-63040000D02*
X99610000Y-63040000D01*
X112950459Y-70172511D02*
X112950459Y-68944774D01*
X112950459Y-68944774D02*
X107045685Y-63040000D01*
X112550460Y-70572510D02*
X112950459Y-70172511D01*
D18*
X94363831Y-60020012D02*
X94138124Y-60245719D01*
X109710000Y-60020012D02*
X94363831Y-60020012D01*
X93892004Y-61270000D02*
X93617024Y-60995020D01*
X102842004Y-61270000D02*
X102817004Y-61245000D01*
X102260000Y-61270000D02*
X93892004Y-61270000D01*
X93617024Y-60995020D02*
X93194737Y-60995020D01*
X110960000Y-61270000D02*
X102842004Y-61270000D01*
X102817004Y-61245000D02*
X102285000Y-61245000D01*
X102285000Y-61245000D02*
X102260000Y-61270000D01*
D19*
X100552498Y-64020000D02*
X92025685Y-64020000D01*
X100838251Y-64305753D02*
X100552498Y-64020000D01*
X92025685Y-64020000D02*
X91460000Y-64020000D01*
X111909996Y-69270000D02*
X106945749Y-64305753D01*
X106945749Y-64305753D02*
X100838251Y-64305753D01*
D20*
X104980000Y-55900000D02*
X101495685Y-55900000D01*
X106560000Y-54320000D02*
X104980000Y-55900000D01*
X101495685Y-55900000D02*
X100930000Y-55900000D01*
D18*
X100535000Y-68570000D02*
X100535000Y-72445000D01*
X100535000Y-72445000D02*
X102885000Y-74795000D01*
X108560001Y-69620001D02*
X108960000Y-70020000D01*
X104712234Y-67219989D02*
X106512244Y-69019999D01*
X106512244Y-69019999D02*
X107959999Y-69019999D01*
X107959999Y-69019999D02*
X108560001Y-69620001D01*
X115710000Y-69270000D02*
X109460000Y-63020000D01*
X115710000Y-76770000D02*
X115710000Y-69270000D01*
X103960000Y-76770000D02*
X103960000Y-69520008D01*
X107959994Y-56020000D02*
X110285000Y-56020000D01*
D19*
X97010001Y-77570001D02*
X90960000Y-71520000D01*
X117099999Y-77570001D02*
X97010001Y-77570001D01*
X125040000Y-69630000D02*
X117099999Y-77570001D01*
X125040000Y-69480000D02*
X125040000Y-69630000D01*
X92210000Y-71520000D02*
X97659991Y-76969991D01*
X97659991Y-76969991D02*
X102010009Y-76969991D01*
X102010009Y-76969991D02*
X102710000Y-76270000D01*
X106710000Y-75770000D02*
X114460000Y-75770000D01*
X88502892Y-72227108D02*
X96285784Y-80010000D01*
X96285784Y-80010000D02*
X118110000Y-80010000D01*
D21*
X83820000Y-69850000D02*
X81280000Y-69850000D01*
D19*
X92870000Y-45520000D02*
X92870000Y-55180000D01*
X92870000Y-55180000D02*
X95710000Y-58020000D01*
X92644315Y-62020000D02*
X93210000Y-62020000D01*
X90330000Y-45520000D02*
X92060001Y-47250001D01*
X92060001Y-61435686D02*
X92644315Y-62020000D01*
X92060001Y-47250001D02*
X92060001Y-61435686D01*
X91210000Y-61434227D02*
X91210000Y-50352219D01*
X93965774Y-62790769D02*
X93650791Y-63105752D01*
X91210000Y-50352219D02*
X87627782Y-46770001D01*
X86099999Y-46369999D02*
X85250000Y-45520000D01*
X93650791Y-63105752D02*
X92881525Y-63105752D01*
X86500001Y-46770001D02*
X86099999Y-46369999D01*
X92881525Y-63105752D02*
X91210000Y-61434227D01*
X87627782Y-46770001D02*
X86500001Y-46770001D01*
X83360000Y-68550791D02*
X82960000Y-68150791D01*
X82960000Y-68150791D02*
X82960000Y-55260685D01*
X82960000Y-55260685D02*
X82960000Y-54695000D01*
D22*
G36*
X73254330Y-44082445D02*
G01*
X73213912Y-44109452D01*
X72853724Y-44599119D01*
X75375000Y-47120395D01*
X77896276Y-44599119D01*
X77536088Y-44109452D01*
X77039536Y-43840000D01*
X122004898Y-43840000D01*
X121639330Y-44032445D01*
X121598912Y-44059452D01*
X121238724Y-44549119D01*
X123760000Y-47070395D01*
X126281276Y-44549119D01*
X125921088Y-44059452D01*
X125516677Y-43840000D01*
X128880001Y-43840000D01*
X128880000Y-86970000D01*
X69240000Y-86970000D01*
X69240000Y-85280881D01*
X72868724Y-85280881D01*
X73228912Y-85770548D01*
X73892882Y-86130849D01*
X74614385Y-86354694D01*
X75365695Y-86433480D01*
X76117938Y-86364178D01*
X76842208Y-86149452D01*
X77510670Y-85797555D01*
X77551088Y-85770548D01*
X77911276Y-85280881D01*
X75390000Y-82759605D01*
X72868724Y-85280881D01*
X69240000Y-85280881D01*
X69240000Y-82555695D01*
X71536520Y-82555695D01*
X71605822Y-83307938D01*
X71820548Y-84032208D01*
X72172445Y-84700670D01*
X72199452Y-84741088D01*
X72689119Y-85101276D01*
X75210395Y-82580000D01*
X75569605Y-82580000D01*
X78090881Y-85101276D01*
X78580548Y-84741088D01*
X78940849Y-84077118D01*
X79164694Y-83355615D01*
X79243480Y-82604305D01*
X79174178Y-81852062D01*
X78959452Y-81127792D01*
X78607555Y-80459330D01*
X78580548Y-80418912D01*
X78090881Y-80058724D01*
X75569605Y-82580000D01*
X75210395Y-82580000D01*
X72689119Y-80058724D01*
X72199452Y-80418912D01*
X71839151Y-81082882D01*
X71615306Y-81804385D01*
X71536520Y-82555695D01*
X69240000Y-82555695D01*
X69240000Y-79879119D01*
X72868724Y-79879119D01*
X75390000Y-82400395D01*
X77911276Y-79879119D01*
X77551088Y-79389452D01*
X76887118Y-79029151D01*
X76165615Y-78805306D01*
X75414305Y-78726520D01*
X74662062Y-78795822D01*
X73937792Y-79010548D01*
X73269330Y-79362445D01*
X73228912Y-79389452D01*
X72868724Y-79879119D01*
X69240000Y-79879119D01*
X69240000Y-73214721D01*
X72320000Y-73214721D01*
X72320000Y-73635279D01*
X72402047Y-74047756D01*
X72562988Y-74436302D01*
X72796637Y-74785983D01*
X73094017Y-75083363D01*
X73443698Y-75317012D01*
X73832244Y-75477953D01*
X74244721Y-75560000D01*
X74665279Y-75560000D01*
X75077756Y-75477953D01*
X75466302Y-75317012D01*
X75815983Y-75083363D01*
X76113363Y-74785983D01*
X76347012Y-74436302D01*
X76351693Y-74425000D01*
X77126928Y-74425000D01*
X77126928Y-75425000D01*
X77143992Y-75598254D01*
X77194528Y-75764850D01*
X77276595Y-75918386D01*
X77387038Y-76052962D01*
X77521614Y-76163405D01*
X77675150Y-76245472D01*
X77841746Y-76296008D01*
X78015000Y-76313072D01*
X79535000Y-76313072D01*
X79708254Y-76296008D01*
X79874850Y-76245472D01*
X80028386Y-76163405D01*
X80162962Y-76052962D01*
X80273405Y-75918386D01*
X80355472Y-75764850D01*
X80406008Y-75598254D01*
X80423072Y-75425000D01*
X80423072Y-74520000D01*
X82020476Y-74520000D01*
X82025001Y-74565942D01*
X82025000Y-79224068D01*
X82020476Y-79270000D01*
X82025000Y-79315931D01*
X82038529Y-79453291D01*
X82091993Y-79629539D01*
X82178814Y-79791971D01*
X82295656Y-79934344D01*
X82331342Y-79963631D01*
X82766366Y-80398654D01*
X82795656Y-80434344D01*
X82938028Y-80551186D01*
X83100460Y-80638007D01*
X83161160Y-80656420D01*
X83276708Y-80691472D01*
X83460000Y-80709524D01*
X83505935Y-80705000D01*
X84572711Y-80705000D01*
X88366375Y-84498665D01*
X88395657Y-84534345D01*
X88538029Y-84651187D01*
X88700461Y-84738008D01*
X88873159Y-84790395D01*
X88876709Y-84791472D01*
X89060000Y-84809525D01*
X89105932Y-84805001D01*
X90822693Y-84805001D01*
X90906063Y-84929774D01*
X91050226Y-85073937D01*
X91219744Y-85187205D01*
X91408102Y-85265226D01*
X91608061Y-85305000D01*
X91811939Y-85305000D01*
X91983468Y-85270881D01*
X121038724Y-85270881D01*
X121398912Y-85760548D01*
X122062882Y-86120849D01*
X122784385Y-86344694D01*
X123535695Y-86423480D01*
X124287938Y-86354178D01*
X125012208Y-86139452D01*
X125680670Y-85787555D01*
X125721088Y-85760548D01*
X126081276Y-85270881D01*
X123560000Y-82749605D01*
X121038724Y-85270881D01*
X91983468Y-85270881D01*
X92011898Y-85265226D01*
X92200256Y-85187205D01*
X92369774Y-85073937D01*
X92513937Y-84929774D01*
X92627205Y-84760256D01*
X92705226Y-84571898D01*
X92745000Y-84371939D01*
X92745000Y-84168061D01*
X92705226Y-83968102D01*
X92627205Y-83779744D01*
X92513937Y-83610226D01*
X92369774Y-83466063D01*
X92200256Y-83352795D01*
X92054858Y-83292569D01*
X92003631Y-83241342D01*
X91974345Y-83205657D01*
X91831973Y-83088815D01*
X91669541Y-83001994D01*
X91493293Y-82948530D01*
X91355933Y-82935001D01*
X91310001Y-82930477D01*
X91264069Y-82935001D01*
X89447291Y-82935001D01*
X85653630Y-79141341D01*
X85624344Y-79105656D01*
X85481972Y-78988814D01*
X85319540Y-78901993D01*
X85143292Y-78848529D01*
X85005932Y-78835000D01*
X84960000Y-78830476D01*
X84914068Y-78835000D01*
X83895000Y-78835000D01*
X83895000Y-74907289D01*
X85304859Y-73497431D01*
X85450256Y-73437205D01*
X85619774Y-73323937D01*
X85763937Y-73179774D01*
X85877205Y-73010256D01*
X85955226Y-72821898D01*
X85995000Y-72621939D01*
X85995000Y-72418061D01*
X85955226Y-72218102D01*
X85877205Y-72029744D01*
X85763937Y-71860226D01*
X85619774Y-71716063D01*
X85450256Y-71602795D01*
X85261898Y-71524774D01*
X85061939Y-71485000D01*
X84858061Y-71485000D01*
X84658102Y-71524774D01*
X84469744Y-71602795D01*
X84300226Y-71716063D01*
X84156063Y-71860226D01*
X84042795Y-72029744D01*
X83982569Y-72175141D01*
X82331336Y-73826375D01*
X82295657Y-73855656D01*
X82178815Y-73998028D01*
X82155867Y-74040961D01*
X82091994Y-74160460D01*
X82038529Y-74336709D01*
X82020476Y-74520000D01*
X80423072Y-74520000D01*
X80423072Y-74425000D01*
X80406008Y-74251746D01*
X80355472Y-74085150D01*
X80273405Y-73931614D01*
X80162962Y-73797038D01*
X80028386Y-73686595D01*
X79874850Y-73604528D01*
X79708254Y-73553992D01*
X79535000Y-73536928D01*
X78015000Y-73536928D01*
X77841746Y-73553992D01*
X77675150Y-73604528D01*
X77521614Y-73686595D01*
X77387038Y-73797038D01*
X77276595Y-73931614D01*
X77194528Y-74085150D01*
X77143992Y-74251746D01*
X77126928Y-74425000D01*
X76351693Y-74425000D01*
X76507953Y-74047756D01*
X76590000Y-73635279D01*
X76590000Y-73214721D01*
X76507953Y-72802244D01*
X76347012Y-72413698D01*
X76248448Y-72266185D01*
X77172682Y-72266185D01*
X77186827Y-72337684D01*
X77292858Y-72588868D01*
X77445855Y-72814540D01*
X77639939Y-73006028D01*
X77867651Y-73155972D01*
X78120240Y-73258611D01*
X78388000Y-73310000D01*
X78648000Y-73310000D01*
X78648000Y-72052000D01*
X78902000Y-72052000D01*
X78902000Y-73310000D01*
X79162000Y-73310000D01*
X79429760Y-73258611D01*
X79682349Y-73155972D01*
X79910061Y-73006028D01*
X80104145Y-72814540D01*
X80257142Y-72588868D01*
X80363173Y-72337684D01*
X80377318Y-72266185D01*
X80254656Y-72052000D01*
X78902000Y-72052000D01*
X78648000Y-72052000D01*
X77295344Y-72052000D01*
X77172682Y-72266185D01*
X76248448Y-72266185D01*
X76113363Y-72064017D01*
X75815983Y-71766637D01*
X75542371Y-71583815D01*
X77172682Y-71583815D01*
X77295344Y-71798000D01*
X78648000Y-71798000D01*
X78648000Y-70540000D01*
X78902000Y-70540000D01*
X78902000Y-71798000D01*
X80254656Y-71798000D01*
X80377318Y-71583815D01*
X80363173Y-71512316D01*
X80257142Y-71261132D01*
X80104145Y-71035460D01*
X79910061Y-70843972D01*
X79682349Y-70694028D01*
X79429760Y-70591389D01*
X79162000Y-70540000D01*
X78902000Y-70540000D01*
X78648000Y-70540000D01*
X78388000Y-70540000D01*
X78120240Y-70591389D01*
X77867651Y-70694028D01*
X77639939Y-70843972D01*
X77445855Y-71035460D01*
X77292858Y-71261132D01*
X77186827Y-71512316D01*
X77172682Y-71583815D01*
X75542371Y-71583815D01*
X75466302Y-71532988D01*
X75077756Y-71372047D01*
X74665279Y-71290000D01*
X74244721Y-71290000D01*
X73832244Y-71372047D01*
X73443698Y-71532988D01*
X73094017Y-71766637D01*
X72796637Y-72064017D01*
X72562988Y-72413698D01*
X72402047Y-72802244D01*
X72320000Y-73214721D01*
X69240000Y-73214721D01*
X69240000Y-69748061D01*
X80245000Y-69748061D01*
X80245000Y-69951939D01*
X80284774Y-70151898D01*
X80362795Y-70340256D01*
X80476063Y-70509774D01*
X80620226Y-70653937D01*
X80789744Y-70767205D01*
X80978102Y-70845226D01*
X81178061Y-70885000D01*
X81381939Y-70885000D01*
X81581898Y-70845226D01*
X81770256Y-70767205D01*
X81939774Y-70653937D01*
X81958711Y-70635000D01*
X83141289Y-70635000D01*
X83160226Y-70653937D01*
X83329744Y-70767205D01*
X83518102Y-70845226D01*
X83718061Y-70885000D01*
X83921939Y-70885000D01*
X84121898Y-70845226D01*
X84310256Y-70767205D01*
X84479774Y-70653937D01*
X84623937Y-70509774D01*
X84737205Y-70340256D01*
X84815226Y-70151898D01*
X84855000Y-69951939D01*
X84855000Y-69748061D01*
X84815226Y-69548102D01*
X84737205Y-69359744D01*
X84623937Y-69190226D01*
X84479774Y-69046063D01*
X84319489Y-68938964D01*
X84355226Y-68852689D01*
X84395000Y-68652730D01*
X84395000Y-68448852D01*
X84355226Y-68248893D01*
X84277205Y-68060535D01*
X84163937Y-67891017D01*
X84019774Y-67746854D01*
X83850256Y-67633586D01*
X83795000Y-67610698D01*
X83795000Y-57516435D01*
X83838061Y-57525000D01*
X84041939Y-57525000D01*
X84241898Y-57485226D01*
X84430256Y-57407205D01*
X84599774Y-57293937D01*
X84743937Y-57149774D01*
X84767172Y-57115000D01*
X89692705Y-57115000D01*
X89838102Y-57175226D01*
X90038061Y-57215000D01*
X90241939Y-57215000D01*
X90375000Y-57188533D01*
X90375000Y-61393208D01*
X90370960Y-61434227D01*
X90375000Y-61475245D01*
X90380885Y-61535000D01*
X90208061Y-61535000D01*
X90008102Y-61574774D01*
X89819744Y-61652795D01*
X89650226Y-61766063D01*
X89506063Y-61910226D01*
X89392795Y-62079744D01*
X89314774Y-62268102D01*
X89275000Y-62468061D01*
X89275000Y-62671939D01*
X89314774Y-62871898D01*
X89392795Y-63060256D01*
X89475000Y-63183285D01*
X89475000Y-63969667D01*
X89470960Y-64010685D01*
X89475000Y-64051703D01*
X89487082Y-64174373D01*
X89534828Y-64331771D01*
X89612364Y-64476830D01*
X89716709Y-64603976D01*
X89748578Y-64630130D01*
X89806197Y-64687749D01*
X87064588Y-64687749D01*
X86731107Y-64354269D01*
X86702241Y-64209146D01*
X86624220Y-64020788D01*
X86510952Y-63851270D01*
X86366789Y-63707107D01*
X86197271Y-63593839D01*
X86008913Y-63515818D01*
X85808954Y-63476044D01*
X85605076Y-63476044D01*
X85405117Y-63515818D01*
X85216759Y-63593839D01*
X85047241Y-63707107D01*
X84903078Y-63851270D01*
X84789810Y-64020788D01*
X84711789Y-64209146D01*
X84672015Y-64409105D01*
X84672015Y-64612983D01*
X84711789Y-64812942D01*
X84789810Y-65001300D01*
X84790403Y-65002187D01*
X84730089Y-65092453D01*
X84652068Y-65280811D01*
X84612294Y-65480770D01*
X84612294Y-65684648D01*
X84652068Y-65884607D01*
X84719320Y-66046966D01*
X84656063Y-66110223D01*
X84542795Y-66279741D01*
X84464774Y-66468099D01*
X84425000Y-66668058D01*
X84425000Y-66871936D01*
X84464774Y-67071895D01*
X84542795Y-67260253D01*
X84549307Y-67269999D01*
X84542795Y-67279744D01*
X84464774Y-67468102D01*
X84425000Y-67668061D01*
X84425000Y-67871939D01*
X84464774Y-68071898D01*
X84542795Y-68260256D01*
X84656063Y-68429774D01*
X84800226Y-68573937D01*
X84969744Y-68687205D01*
X85158102Y-68765226D01*
X85358061Y-68805000D01*
X85561939Y-68805000D01*
X85761898Y-68765226D01*
X85950256Y-68687205D01*
X86073285Y-68605000D01*
X99500000Y-68605000D01*
X99500000Y-68671939D01*
X99539774Y-68871898D01*
X99600000Y-69017296D01*
X99600001Y-72399058D01*
X99595476Y-72445000D01*
X99613529Y-72628291D01*
X99662140Y-72788537D01*
X99666994Y-72804540D01*
X99753815Y-72966972D01*
X99870657Y-73109344D01*
X99906336Y-73138625D01*
X101907569Y-75139858D01*
X101967795Y-75285256D01*
X102076760Y-75448334D01*
X102050226Y-75466063D01*
X101906063Y-75610226D01*
X101792795Y-75779744D01*
X101714774Y-75968102D01*
X101685908Y-76113225D01*
X101664141Y-76134991D01*
X98005859Y-76134991D01*
X93234093Y-71363226D01*
X93205226Y-71218102D01*
X93127205Y-71029744D01*
X93013937Y-70860226D01*
X92869774Y-70716063D01*
X92700256Y-70602795D01*
X92511898Y-70524774D01*
X92311939Y-70485000D01*
X92108061Y-70485000D01*
X91908102Y-70524774D01*
X91719744Y-70602795D01*
X91585000Y-70692828D01*
X91450256Y-70602795D01*
X91261898Y-70524774D01*
X91061939Y-70485000D01*
X90858061Y-70485000D01*
X90658102Y-70524774D01*
X90469744Y-70602795D01*
X90300226Y-70716063D01*
X90156063Y-70860226D01*
X90085000Y-70966580D01*
X90013937Y-70860226D01*
X89869774Y-70716063D01*
X89700256Y-70602795D01*
X89511898Y-70524774D01*
X89311939Y-70485000D01*
X89108061Y-70485000D01*
X88908102Y-70524774D01*
X88719744Y-70602795D01*
X88550226Y-70716063D01*
X88406063Y-70860226D01*
X88292795Y-71029744D01*
X88214774Y-71218102D01*
X88212488Y-71229596D01*
X88200994Y-71231882D01*
X88012636Y-71309903D01*
X87843118Y-71423171D01*
X87698955Y-71567334D01*
X87585687Y-71736852D01*
X87507666Y-71925210D01*
X87467892Y-72125169D01*
X87467892Y-72329047D01*
X87507666Y-72529006D01*
X87585687Y-72717364D01*
X87698955Y-72886882D01*
X87843118Y-73031045D01*
X88012636Y-73144313D01*
X88200994Y-73222334D01*
X88346118Y-73251201D01*
X95412171Y-80317255D01*
X95301724Y-80391053D01*
X95157561Y-80535216D01*
X95044293Y-80704734D01*
X94966272Y-80893092D01*
X94926498Y-81093051D01*
X94926498Y-81296929D01*
X94966272Y-81496888D01*
X95044293Y-81685246D01*
X95157561Y-81854764D01*
X95275001Y-81972204D01*
X95275000Y-82822704D01*
X95214774Y-82968102D01*
X95175000Y-83168061D01*
X95175000Y-83371939D01*
X95214774Y-83571898D01*
X95292795Y-83760256D01*
X95406063Y-83929774D01*
X95550226Y-84073937D01*
X95719744Y-84187205D01*
X95908102Y-84265226D01*
X96108061Y-84305000D01*
X96311939Y-84305000D01*
X96511898Y-84265226D01*
X96700256Y-84187205D01*
X96869774Y-84073937D01*
X97013937Y-83929774D01*
X97127205Y-83760256D01*
X97205226Y-83571898D01*
X97245000Y-83371939D01*
X97245000Y-83168061D01*
X97205226Y-82968102D01*
X97145000Y-82822705D01*
X97145000Y-82545695D01*
X119706520Y-82545695D01*
X119775822Y-83297938D01*
X119990548Y-84022208D01*
X120342445Y-84690670D01*
X120369452Y-84731088D01*
X120859119Y-85091276D01*
X123380395Y-82570000D01*
X123739605Y-82570000D01*
X126260881Y-85091276D01*
X126750548Y-84731088D01*
X127110849Y-84067118D01*
X127334694Y-83345615D01*
X127413480Y-82594305D01*
X127344178Y-81842062D01*
X127129452Y-81117792D01*
X126777555Y-80449330D01*
X126750548Y-80408912D01*
X126260881Y-80048724D01*
X123739605Y-82570000D01*
X123380395Y-82570000D01*
X120859119Y-80048724D01*
X120369452Y-80408912D01*
X120009151Y-81072882D01*
X119785306Y-81794385D01*
X119706520Y-82545695D01*
X97145000Y-82545695D01*
X97145000Y-81489424D01*
X97149524Y-81443492D01*
X97131471Y-81260200D01*
X97118188Y-81216413D01*
X97078007Y-81083952D01*
X96991186Y-80921520D01*
X96945380Y-80865705D01*
X96936803Y-80845000D01*
X117496715Y-80845000D01*
X117619744Y-80927205D01*
X117808102Y-81005226D01*
X118008061Y-81045000D01*
X118211939Y-81045000D01*
X118411898Y-81005226D01*
X118600256Y-80927205D01*
X118769774Y-80813937D01*
X118913937Y-80669774D01*
X119027205Y-80500256D01*
X119105226Y-80311898D01*
X119145000Y-80111939D01*
X119145000Y-79908061D01*
X119105226Y-79708102D01*
X119050093Y-79575000D01*
X121138982Y-79575000D01*
X121180000Y-79579040D01*
X121221018Y-79575000D01*
X121221019Y-79575000D01*
X121257731Y-79571384D01*
X121038724Y-79869119D01*
X123560000Y-82390395D01*
X126081276Y-79869119D01*
X125721088Y-79379452D01*
X125057118Y-79019151D01*
X124335615Y-78795306D01*
X123584305Y-78716520D01*
X122832062Y-78785822D01*
X122107792Y-79000548D01*
X122092012Y-79008855D01*
X124756596Y-76344272D01*
X125040000Y-76372185D01*
X125331111Y-76343513D01*
X125611034Y-76258599D01*
X125869014Y-76120706D01*
X126095134Y-75935134D01*
X126280706Y-75709014D01*
X126418599Y-75451033D01*
X126503513Y-75171110D01*
X126525000Y-74952949D01*
X126525000Y-74507050D01*
X126503513Y-74288889D01*
X126418599Y-74008966D01*
X126280706Y-73750986D01*
X126095134Y-73524866D01*
X125869013Y-73339294D01*
X125611033Y-73201401D01*
X125331110Y-73116487D01*
X125040000Y-73087815D01*
X124748889Y-73116487D01*
X124468966Y-73201401D01*
X124210986Y-73339294D01*
X123984866Y-73524866D01*
X123932777Y-73588337D01*
X123878405Y-73486614D01*
X123767962Y-73352038D01*
X123633386Y-73241595D01*
X123479850Y-73159528D01*
X123313254Y-73108992D01*
X123140000Y-73091928D01*
X122758940Y-73091928D01*
X124756596Y-71094272D01*
X125040000Y-71122185D01*
X125331111Y-71093513D01*
X125611034Y-71008599D01*
X125869014Y-70870706D01*
X126095134Y-70685134D01*
X126280706Y-70459014D01*
X126418599Y-70201033D01*
X126503513Y-69921110D01*
X126525000Y-69702949D01*
X126525000Y-69257050D01*
X126503513Y-69038889D01*
X126418599Y-68758966D01*
X126280706Y-68500986D01*
X126095134Y-68274866D01*
X125869013Y-68089294D01*
X125611033Y-67951401D01*
X125331110Y-67866487D01*
X125040000Y-67837815D01*
X124748889Y-67866487D01*
X124468966Y-67951401D01*
X124210986Y-68089294D01*
X123984866Y-68274866D01*
X123932777Y-68338337D01*
X123878405Y-68236614D01*
X123767962Y-68102038D01*
X123633386Y-67991595D01*
X123479850Y-67909528D01*
X123313254Y-67858992D01*
X123140000Y-67841928D01*
X121940000Y-67841928D01*
X121766746Y-67858992D01*
X121600150Y-67909528D01*
X121446614Y-67991595D01*
X121312038Y-68102038D01*
X121201595Y-68236614D01*
X121119528Y-68390150D01*
X121068992Y-68556746D01*
X121051928Y-68730000D01*
X121051928Y-70230000D01*
X121068992Y-70403254D01*
X121119528Y-70569850D01*
X121201595Y-70723386D01*
X121312038Y-70857962D01*
X121446614Y-70968405D01*
X121600150Y-71050472D01*
X121766746Y-71101008D01*
X121940000Y-71118072D01*
X122371060Y-71118072D01*
X116754132Y-76735001D01*
X116745000Y-76735001D01*
X116745000Y-76668061D01*
X116705226Y-76468102D01*
X116645000Y-76322705D01*
X116645000Y-69315935D01*
X116649524Y-69270000D01*
X116631472Y-69086708D01*
X116595492Y-68968102D01*
X116578007Y-68910460D01*
X116548363Y-68854999D01*
X116611939Y-68854999D01*
X116811898Y-68815225D01*
X117000256Y-68737204D01*
X117169774Y-68623936D01*
X117313937Y-68479773D01*
X117427205Y-68310255D01*
X117505226Y-68121897D01*
X117534093Y-67976774D01*
X118671433Y-66839435D01*
X118703291Y-66813290D01*
X118734901Y-66774774D01*
X118807636Y-66686145D01*
X118885172Y-66541086D01*
X118898546Y-66496997D01*
X118932918Y-66383688D01*
X118945000Y-66261018D01*
X118945000Y-66261017D01*
X118949040Y-66219999D01*
X118945000Y-66178981D01*
X118945000Y-65115867D01*
X120530867Y-63530000D01*
X121051928Y-63530000D01*
X121051928Y-65030000D01*
X121068992Y-65203254D01*
X121119528Y-65369850D01*
X121201595Y-65523386D01*
X121312038Y-65657962D01*
X121446614Y-65768405D01*
X121600150Y-65850472D01*
X121766746Y-65901008D01*
X121940000Y-65918072D01*
X123140000Y-65918072D01*
X123313254Y-65901008D01*
X123479850Y-65850472D01*
X123633386Y-65768405D01*
X123767962Y-65657962D01*
X123878405Y-65523386D01*
X123932777Y-65421663D01*
X123984866Y-65485134D01*
X124210987Y-65670706D01*
X124468967Y-65808599D01*
X124748890Y-65893513D01*
X125040000Y-65922185D01*
X125331111Y-65893513D01*
X125611034Y-65808599D01*
X125869014Y-65670706D01*
X126095134Y-65485134D01*
X126280706Y-65259014D01*
X126418599Y-65001033D01*
X126503513Y-64721110D01*
X126525000Y-64502949D01*
X126525000Y-64057050D01*
X126503513Y-63838889D01*
X126418599Y-63558966D01*
X126280706Y-63300986D01*
X126095134Y-63074866D01*
X125869013Y-62889294D01*
X125611033Y-62751401D01*
X125331110Y-62666487D01*
X125040000Y-62637815D01*
X124748889Y-62666487D01*
X124468966Y-62751401D01*
X124210986Y-62889294D01*
X123984866Y-63074866D01*
X123932777Y-63138337D01*
X123878405Y-63036614D01*
X123767962Y-62902038D01*
X123633386Y-62791595D01*
X123479850Y-62709528D01*
X123313254Y-62658992D01*
X123140000Y-62641928D01*
X121940000Y-62641928D01*
X121766746Y-62658992D01*
X121600150Y-62709528D01*
X121446614Y-62791595D01*
X121312038Y-62902038D01*
X121201595Y-63036614D01*
X121119528Y-63190150D01*
X121068992Y-63356746D01*
X121051928Y-63530000D01*
X120530867Y-63530000D01*
X123091433Y-60969436D01*
X123123291Y-60943291D01*
X123150119Y-60910602D01*
X123227636Y-60816146D01*
X123288397Y-60702471D01*
X123303254Y-60701008D01*
X123469850Y-60650472D01*
X123623386Y-60568405D01*
X123757962Y-60457962D01*
X123868405Y-60323386D01*
X123922777Y-60221663D01*
X123974866Y-60285134D01*
X124200987Y-60470706D01*
X124458967Y-60608599D01*
X124738890Y-60693513D01*
X125030000Y-60722185D01*
X125321111Y-60693513D01*
X125601034Y-60608599D01*
X125859014Y-60470706D01*
X126085134Y-60285134D01*
X126270706Y-60059014D01*
X126408599Y-59801033D01*
X126493513Y-59521110D01*
X126515000Y-59302949D01*
X126515000Y-58857050D01*
X126493513Y-58638889D01*
X126408599Y-58358966D01*
X126270706Y-58100986D01*
X126085134Y-57874866D01*
X125859013Y-57689294D01*
X125601033Y-57551401D01*
X125321110Y-57466487D01*
X125030000Y-57437815D01*
X124738889Y-57466487D01*
X124458966Y-57551401D01*
X124200986Y-57689294D01*
X123974866Y-57874866D01*
X123922777Y-57938337D01*
X123868405Y-57836614D01*
X123757962Y-57702038D01*
X123623386Y-57591595D01*
X123469850Y-57509528D01*
X123303254Y-57458992D01*
X123130000Y-57441928D01*
X121930000Y-57441928D01*
X121756746Y-57458992D01*
X121590150Y-57509528D01*
X121436614Y-57591595D01*
X121302038Y-57702038D01*
X121191595Y-57836614D01*
X121109528Y-57990150D01*
X121058992Y-58156746D01*
X121041928Y-58330000D01*
X121041928Y-59830000D01*
X121058992Y-60003254D01*
X121109528Y-60169850D01*
X121191595Y-60323386D01*
X121274601Y-60424530D01*
X117548574Y-64150559D01*
X117516710Y-64176709D01*
X117435907Y-64275168D01*
X117412364Y-64303855D01*
X117334828Y-64448914D01*
X117287082Y-64606312D01*
X117270960Y-64770000D01*
X117275001Y-64811028D01*
X117275000Y-65874130D01*
X116353225Y-66795906D01*
X116208102Y-66824773D01*
X116019744Y-66902794D01*
X115850226Y-67016062D01*
X115706063Y-67160225D01*
X115592795Y-67329743D01*
X115514774Y-67518101D01*
X115475887Y-67713598D01*
X110930220Y-63167931D01*
X110980256Y-63147205D01*
X111149774Y-63033937D01*
X111293937Y-62889774D01*
X111407205Y-62720256D01*
X111485226Y-62531898D01*
X111525000Y-62331939D01*
X111525000Y-62137263D01*
X111619774Y-62073937D01*
X111763937Y-61929774D01*
X111877205Y-61760256D01*
X111955226Y-61571898D01*
X111995000Y-61371939D01*
X111995000Y-61168061D01*
X111955226Y-60968102D01*
X111877205Y-60779744D01*
X111806600Y-60674077D01*
X111849825Y-60630852D01*
X111963093Y-60461334D01*
X112041114Y-60272976D01*
X112080888Y-60073017D01*
X112080888Y-59869139D01*
X112041114Y-59669180D01*
X111963093Y-59480822D01*
X111849825Y-59311304D01*
X111705662Y-59167141D01*
X111536144Y-59053873D01*
X111390747Y-58993647D01*
X111343477Y-58946377D01*
X111393292Y-58941471D01*
X111569540Y-58888007D01*
X111731972Y-58801186D01*
X111874344Y-58684344D01*
X111903630Y-58648659D01*
X113554859Y-56997431D01*
X113700256Y-56937205D01*
X113869774Y-56823937D01*
X114013937Y-56679774D01*
X114127205Y-56510256D01*
X114205226Y-56321898D01*
X114245000Y-56121939D01*
X114245000Y-55918061D01*
X114205226Y-55718102D01*
X114127205Y-55529744D01*
X114013937Y-55360226D01*
X113869774Y-55216063D01*
X113700256Y-55102795D01*
X113511898Y-55024774D01*
X113311939Y-54985000D01*
X113108061Y-54985000D01*
X112908102Y-55024774D01*
X112719744Y-55102795D01*
X112550226Y-55216063D01*
X112406063Y-55360226D01*
X112292795Y-55529744D01*
X112232569Y-55675141D01*
X110822711Y-57085000D01*
X98657295Y-57085000D01*
X98511898Y-57024774D01*
X98311939Y-56985000D01*
X98108061Y-56985000D01*
X97908102Y-57024774D01*
X97719744Y-57102795D01*
X97550226Y-57216063D01*
X97406063Y-57360226D01*
X97292795Y-57529744D01*
X97214774Y-57718102D01*
X97175000Y-57918061D01*
X97175000Y-58085000D01*
X96745000Y-58085000D01*
X96745000Y-57918061D01*
X96705226Y-57718102D01*
X96627205Y-57529744D01*
X96513937Y-57360226D01*
X96369774Y-57216063D01*
X96200256Y-57102795D01*
X96011898Y-57024774D01*
X95866776Y-56995908D01*
X94668929Y-55798061D01*
X99895000Y-55798061D01*
X99895000Y-56001939D01*
X99934774Y-56201898D01*
X100012795Y-56390256D01*
X100126063Y-56559774D01*
X100270226Y-56703937D01*
X100439744Y-56817205D01*
X100628102Y-56895226D01*
X100828061Y-56935000D01*
X101031939Y-56935000D01*
X101231898Y-56895226D01*
X101420256Y-56817205D01*
X101580700Y-56710000D01*
X104940212Y-56710000D01*
X104980000Y-56713919D01*
X105019788Y-56710000D01*
X105019791Y-56710000D01*
X105138788Y-56698280D01*
X105291473Y-56651963D01*
X105432189Y-56576749D01*
X105555528Y-56475528D01*
X105580899Y-56444613D01*
X106107451Y-55918061D01*
X106924994Y-55918061D01*
X106924994Y-56121939D01*
X106964768Y-56321898D01*
X107042789Y-56510256D01*
X107156057Y-56679774D01*
X107300220Y-56823937D01*
X107469738Y-56937205D01*
X107658096Y-57015226D01*
X107858055Y-57055000D01*
X108061933Y-57055000D01*
X108261892Y-57015226D01*
X108407289Y-56955000D01*
X109837705Y-56955000D01*
X109983102Y-57015226D01*
X110183061Y-57055000D01*
X110386939Y-57055000D01*
X110586898Y-57015226D01*
X110775256Y-56937205D01*
X110944774Y-56823937D01*
X111088937Y-56679774D01*
X111202205Y-56510256D01*
X111280226Y-56321898D01*
X111320000Y-56121939D01*
X111320000Y-55918061D01*
X111280226Y-55718102D01*
X111202205Y-55529744D01*
X111088937Y-55360226D01*
X110944774Y-55216063D01*
X110775256Y-55102795D01*
X110586898Y-55024774D01*
X110386939Y-54985000D01*
X110183061Y-54985000D01*
X109983102Y-55024774D01*
X109837705Y-55085000D01*
X108407289Y-55085000D01*
X108261892Y-55024774D01*
X108061933Y-54985000D01*
X107858055Y-54985000D01*
X107658096Y-55024774D01*
X107469738Y-55102795D01*
X107300220Y-55216063D01*
X107156057Y-55360226D01*
X107042789Y-55529744D01*
X106964768Y-55718102D01*
X106924994Y-55918061D01*
X106107451Y-55918061D01*
X106672642Y-55352871D01*
X106861898Y-55315226D01*
X107050256Y-55237205D01*
X107219774Y-55123937D01*
X107363937Y-54979774D01*
X107477205Y-54810256D01*
X107555226Y-54621898D01*
X107595000Y-54421939D01*
X107595000Y-54218061D01*
X107555226Y-54018102D01*
X107477205Y-53829744D01*
X107363937Y-53660226D01*
X107219774Y-53516063D01*
X107050256Y-53402795D01*
X106861898Y-53324774D01*
X106661939Y-53285000D01*
X106458061Y-53285000D01*
X106258102Y-53324774D01*
X106069744Y-53402795D01*
X105900226Y-53516063D01*
X105756063Y-53660226D01*
X105642795Y-53829744D01*
X105564774Y-54018102D01*
X105527129Y-54207358D01*
X104644488Y-55090000D01*
X101580700Y-55090000D01*
X101420256Y-54982795D01*
X101231898Y-54904774D01*
X101031939Y-54865000D01*
X100828061Y-54865000D01*
X100628102Y-54904774D01*
X100439744Y-54982795D01*
X100270226Y-55096063D01*
X100126063Y-55240226D01*
X100012795Y-55409744D01*
X99934774Y-55598102D01*
X99895000Y-55798061D01*
X94668929Y-55798061D01*
X93705000Y-54834133D01*
X93705000Y-53100000D01*
X121031928Y-53100000D01*
X121031928Y-54600000D01*
X121048992Y-54773254D01*
X121099528Y-54939850D01*
X121181595Y-55093386D01*
X121292038Y-55227962D01*
X121426614Y-55338405D01*
X121580150Y-55420472D01*
X121746746Y-55471008D01*
X121920000Y-55488072D01*
X123120000Y-55488072D01*
X123293254Y-55471008D01*
X123459850Y-55420472D01*
X123613386Y-55338405D01*
X123747962Y-55227962D01*
X123858405Y-55093386D01*
X123912777Y-54991663D01*
X123964866Y-55055134D01*
X124190987Y-55240706D01*
X124448967Y-55378599D01*
X124728890Y-55463513D01*
X125020000Y-55492185D01*
X125311111Y-55463513D01*
X125591034Y-55378599D01*
X125849014Y-55240706D01*
X126075134Y-55055134D01*
X126260706Y-54829014D01*
X126398599Y-54571033D01*
X126483513Y-54291110D01*
X126505000Y-54072949D01*
X126505000Y-53627050D01*
X126483513Y-53408889D01*
X126398599Y-53128966D01*
X126260706Y-52870986D01*
X126075134Y-52644866D01*
X125849013Y-52459294D01*
X125591033Y-52321401D01*
X125311110Y-52236487D01*
X125020000Y-52207815D01*
X124728889Y-52236487D01*
X124448966Y-52321401D01*
X124190986Y-52459294D01*
X123964866Y-52644866D01*
X123912777Y-52708337D01*
X123858405Y-52606614D01*
X123747962Y-52472038D01*
X123613386Y-52361595D01*
X123459850Y-52279528D01*
X123293254Y-52228992D01*
X123120000Y-52211928D01*
X121920000Y-52211928D01*
X121746746Y-52228992D01*
X121580150Y-52279528D01*
X121426614Y-52361595D01*
X121292038Y-52472038D01*
X121181595Y-52606614D01*
X121099528Y-52760150D01*
X121048992Y-52926746D01*
X121031928Y-53100000D01*
X93705000Y-53100000D01*
X93705000Y-49950881D01*
X121238724Y-49950881D01*
X121598912Y-50440548D01*
X122262882Y-50800849D01*
X122984385Y-51024694D01*
X123735695Y-51103480D01*
X124487938Y-51034178D01*
X125212208Y-50819452D01*
X125880670Y-50467555D01*
X125921088Y-50440548D01*
X126281276Y-49950881D01*
X123760000Y-47429605D01*
X121238724Y-49950881D01*
X93705000Y-49950881D01*
X93705000Y-47225695D01*
X119906520Y-47225695D01*
X119975822Y-47977938D01*
X120190548Y-48702208D01*
X120542445Y-49370670D01*
X120569452Y-49411088D01*
X121059119Y-49771276D01*
X123580395Y-47250000D01*
X123939605Y-47250000D01*
X126460881Y-49771276D01*
X126950548Y-49411088D01*
X127310849Y-48747118D01*
X127534694Y-48025615D01*
X127613480Y-47274305D01*
X127544178Y-46522062D01*
X127329452Y-45797792D01*
X126977555Y-45129330D01*
X126950548Y-45088912D01*
X126460881Y-44728724D01*
X123939605Y-47250000D01*
X123580395Y-47250000D01*
X121059119Y-44728724D01*
X120569452Y-45088912D01*
X120209151Y-45752882D01*
X119985306Y-46474385D01*
X119906520Y-47225695D01*
X93705000Y-47225695D01*
X93705000Y-46748065D01*
X93816632Y-46673475D01*
X94023475Y-46466632D01*
X94145195Y-46284466D01*
X94214822Y-46401355D01*
X94409731Y-46617588D01*
X94643080Y-46791641D01*
X94905901Y-46916825D01*
X95053110Y-46961476D01*
X95283000Y-46840155D01*
X95283000Y-45647000D01*
X95537000Y-45647000D01*
X95537000Y-46840155D01*
X95766890Y-46961476D01*
X95914099Y-46916825D01*
X96176920Y-46791641D01*
X96410269Y-46617588D01*
X96605178Y-46401355D01*
X96754157Y-46151252D01*
X96851481Y-45876891D01*
X96730814Y-45647000D01*
X95537000Y-45647000D01*
X95283000Y-45647000D01*
X95263000Y-45647000D01*
X95263000Y-45393000D01*
X95283000Y-45393000D01*
X95283000Y-44199845D01*
X95537000Y-44199845D01*
X95537000Y-45393000D01*
X96730814Y-45393000D01*
X96851481Y-45163109D01*
X96754157Y-44888748D01*
X96605178Y-44638645D01*
X96410269Y-44422412D01*
X96176920Y-44248359D01*
X95914099Y-44123175D01*
X95766890Y-44078524D01*
X95537000Y-44199845D01*
X95283000Y-44199845D01*
X95053110Y-44078524D01*
X94905901Y-44123175D01*
X94643080Y-44248359D01*
X94409731Y-44422412D01*
X94214822Y-44638645D01*
X94145195Y-44755534D01*
X94023475Y-44573368D01*
X93816632Y-44366525D01*
X93573411Y-44204010D01*
X93303158Y-44092068D01*
X93016260Y-44035000D01*
X92723740Y-44035000D01*
X92436842Y-44092068D01*
X92166589Y-44204010D01*
X91923368Y-44366525D01*
X91716525Y-44573368D01*
X91600000Y-44747760D01*
X91483475Y-44573368D01*
X91276632Y-44366525D01*
X91033411Y-44204010D01*
X90763158Y-44092068D01*
X90476260Y-44035000D01*
X90183740Y-44035000D01*
X89896842Y-44092068D01*
X89626589Y-44204010D01*
X89383368Y-44366525D01*
X89176525Y-44573368D01*
X89060000Y-44747760D01*
X88943475Y-44573368D01*
X88736632Y-44366525D01*
X88493411Y-44204010D01*
X88223158Y-44092068D01*
X87936260Y-44035000D01*
X87643740Y-44035000D01*
X87356842Y-44092068D01*
X87086589Y-44204010D01*
X86843368Y-44366525D01*
X86636525Y-44573368D01*
X86520000Y-44747760D01*
X86403475Y-44573368D01*
X86196632Y-44366525D01*
X85953411Y-44204010D01*
X85683158Y-44092068D01*
X85396260Y-44035000D01*
X85103740Y-44035000D01*
X84816842Y-44092068D01*
X84546589Y-44204010D01*
X84303368Y-44366525D01*
X84171513Y-44498380D01*
X84149502Y-44425820D01*
X84090537Y-44315506D01*
X84011185Y-44218815D01*
X83914494Y-44139463D01*
X83804180Y-44080498D01*
X83684482Y-44044188D01*
X83560000Y-44031928D01*
X81860000Y-44031928D01*
X81735518Y-44044188D01*
X81615820Y-44080498D01*
X81505506Y-44139463D01*
X81408815Y-44218815D01*
X81329463Y-44315506D01*
X81270498Y-44425820D01*
X81234188Y-44545518D01*
X81221928Y-44670000D01*
X81221928Y-46370000D01*
X81234188Y-46494482D01*
X81270498Y-46614180D01*
X81329463Y-46724494D01*
X81408815Y-46821185D01*
X81505506Y-46900537D01*
X81615820Y-46959502D01*
X81735518Y-46995812D01*
X81860000Y-47008072D01*
X83560000Y-47008072D01*
X83684482Y-46995812D01*
X83804180Y-46959502D01*
X83914494Y-46900537D01*
X84011185Y-46821185D01*
X84090537Y-46724494D01*
X84149502Y-46614180D01*
X84171513Y-46541620D01*
X84303368Y-46673475D01*
X84546589Y-46835990D01*
X84816842Y-46947932D01*
X85103740Y-47005000D01*
X85396260Y-47005000D01*
X85527939Y-46978807D01*
X85538569Y-46989437D01*
X85538575Y-46989442D01*
X85880555Y-47331422D01*
X85906710Y-47363292D01*
X86033855Y-47467637D01*
X86178914Y-47545173D01*
X86336312Y-47592919D01*
X86458982Y-47605001D01*
X86458992Y-47605001D01*
X86500000Y-47609040D01*
X86541008Y-47605001D01*
X87281915Y-47605001D01*
X89245173Y-49568260D01*
X89130986Y-49629294D01*
X88904866Y-49814866D01*
X88852777Y-49878337D01*
X88798405Y-49776614D01*
X88687962Y-49642038D01*
X88553386Y-49531595D01*
X88399850Y-49449528D01*
X88233254Y-49398992D01*
X88060000Y-49381928D01*
X86860000Y-49381928D01*
X86686746Y-49398992D01*
X86520150Y-49449528D01*
X86366614Y-49531595D01*
X86232038Y-49642038D01*
X86121595Y-49776614D01*
X86039528Y-49930150D01*
X85988992Y-50096746D01*
X85971928Y-50270000D01*
X85971928Y-51770000D01*
X85988992Y-51943254D01*
X86039528Y-52109850D01*
X86121595Y-52263386D01*
X86232038Y-52397962D01*
X86366614Y-52508405D01*
X86520150Y-52590472D01*
X86686746Y-52641008D01*
X86860000Y-52658072D01*
X88060000Y-52658072D01*
X88233254Y-52641008D01*
X88399850Y-52590472D01*
X88553386Y-52508405D01*
X88687962Y-52397962D01*
X88798405Y-52263386D01*
X88852777Y-52161663D01*
X88904866Y-52225134D01*
X89130987Y-52410706D01*
X89388967Y-52548599D01*
X89668890Y-52633513D01*
X89960000Y-52662185D01*
X90251111Y-52633513D01*
X90375001Y-52595931D01*
X90375001Y-55171467D01*
X90241939Y-55145000D01*
X90038061Y-55145000D01*
X89838102Y-55184774D01*
X89692705Y-55245000D01*
X84295931Y-55245000D01*
X84249999Y-55240476D01*
X84066707Y-55258529D01*
X84025687Y-55270973D01*
X83890460Y-55311993D01*
X83795000Y-55363017D01*
X83795000Y-55308285D01*
X83877205Y-55185256D01*
X83955226Y-54996898D01*
X83995000Y-54796939D01*
X83995000Y-54593061D01*
X83955226Y-54393102D01*
X83877205Y-54204744D01*
X83763937Y-54035226D01*
X83619774Y-53891063D01*
X83450256Y-53777795D01*
X83261898Y-53699774D01*
X83061939Y-53660000D01*
X82858061Y-53660000D01*
X82658102Y-53699774D01*
X82469744Y-53777795D01*
X82300226Y-53891063D01*
X82156063Y-54035226D01*
X82042795Y-54204744D01*
X81964774Y-54393102D01*
X81925000Y-54593061D01*
X81925000Y-54796939D01*
X81964774Y-54996898D01*
X82042795Y-55185256D01*
X82125001Y-55308286D01*
X82125001Y-55435000D01*
X81958061Y-55435000D01*
X81758102Y-55474774D01*
X81569744Y-55552795D01*
X81400226Y-55666063D01*
X81256063Y-55810226D01*
X81142795Y-55979744D01*
X81064774Y-56168102D01*
X81025000Y-56368061D01*
X81025000Y-56571939D01*
X81064774Y-56771898D01*
X81106993Y-56873823D01*
X81106992Y-62798704D01*
X81046766Y-62944102D01*
X81006992Y-63144061D01*
X81006992Y-63347939D01*
X81046766Y-63547898D01*
X81124787Y-63736256D01*
X81238055Y-63905774D01*
X81382218Y-64049937D01*
X81551736Y-64163205D01*
X81740094Y-64241226D01*
X81940053Y-64281000D01*
X82125000Y-64281000D01*
X82125000Y-68109772D01*
X82120960Y-68150791D01*
X82129630Y-68238814D01*
X82137082Y-68314479D01*
X82184828Y-68471877D01*
X82262364Y-68616936D01*
X82335641Y-68706225D01*
X82364774Y-68852689D01*
X82442795Y-69041047D01*
X82458800Y-69065000D01*
X81958711Y-69065000D01*
X81939774Y-69046063D01*
X81770256Y-68932795D01*
X81581898Y-68854774D01*
X81381939Y-68815000D01*
X81178061Y-68815000D01*
X80978102Y-68854774D01*
X80789744Y-68932795D01*
X80620226Y-69046063D01*
X80476063Y-69190226D01*
X80362795Y-69359744D01*
X80284774Y-69548102D01*
X80245000Y-69748061D01*
X69240000Y-69748061D01*
X69240000Y-57488967D01*
X70615000Y-57488967D01*
X70615000Y-57811033D01*
X70677832Y-58126912D01*
X70801082Y-58424463D01*
X70980013Y-58692252D01*
X71207748Y-58919987D01*
X71475537Y-59098918D01*
X71773088Y-59222168D01*
X72088967Y-59285000D01*
X72411033Y-59285000D01*
X72726912Y-59222168D01*
X73024463Y-59098918D01*
X73292252Y-58919987D01*
X73519987Y-58692252D01*
X73698918Y-58424463D01*
X73822168Y-58126912D01*
X73885000Y-57811033D01*
X73885000Y-57488967D01*
X77115000Y-57488967D01*
X77115000Y-57811033D01*
X77177832Y-58126912D01*
X77301082Y-58424463D01*
X77480013Y-58692252D01*
X77707748Y-58919987D01*
X77975537Y-59098918D01*
X78273088Y-59222168D01*
X78588967Y-59285000D01*
X78911033Y-59285000D01*
X79226912Y-59222168D01*
X79524463Y-59098918D01*
X79792252Y-58919987D01*
X80019987Y-58692252D01*
X80198918Y-58424463D01*
X80322168Y-58126912D01*
X80385000Y-57811033D01*
X80385000Y-57488967D01*
X80322168Y-57173088D01*
X80198918Y-56875537D01*
X80019987Y-56607748D01*
X79792252Y-56380013D01*
X79524463Y-56201082D01*
X79226912Y-56077832D01*
X78911033Y-56015000D01*
X78588967Y-56015000D01*
X78273088Y-56077832D01*
X77975537Y-56201082D01*
X77707748Y-56380013D01*
X77480013Y-56607748D01*
X77301082Y-56875537D01*
X77177832Y-57173088D01*
X77115000Y-57488967D01*
X73885000Y-57488967D01*
X73822168Y-57173088D01*
X73698918Y-56875537D01*
X73519987Y-56607748D01*
X73292252Y-56380013D01*
X73024463Y-56201082D01*
X72726912Y-56077832D01*
X72411033Y-56015000D01*
X72088967Y-56015000D01*
X71773088Y-56077832D01*
X71475537Y-56201082D01*
X71207748Y-56380013D01*
X70980013Y-56607748D01*
X70801082Y-56875537D01*
X70677832Y-57173088D01*
X70615000Y-57488967D01*
X69240000Y-57488967D01*
X69240000Y-54285413D01*
X71294192Y-54285413D01*
X71389956Y-54549814D01*
X71679571Y-54690704D01*
X71991108Y-54772384D01*
X72312595Y-54791718D01*
X72631675Y-54747961D01*
X72936088Y-54642795D01*
X73110044Y-54549814D01*
X73205808Y-54285413D01*
X77794192Y-54285413D01*
X77889956Y-54549814D01*
X78179571Y-54690704D01*
X78491108Y-54772384D01*
X78812595Y-54791718D01*
X79131675Y-54747961D01*
X79436088Y-54642795D01*
X79610044Y-54549814D01*
X79705808Y-54285413D01*
X78750000Y-53329605D01*
X77794192Y-54285413D01*
X73205808Y-54285413D01*
X72250000Y-53329605D01*
X71294192Y-54285413D01*
X69240000Y-54285413D01*
X69240000Y-53212595D01*
X70608282Y-53212595D01*
X70652039Y-53531675D01*
X70757205Y-53836088D01*
X70850186Y-54010044D01*
X71114587Y-54105808D01*
X72070395Y-53150000D01*
X72429605Y-53150000D01*
X73385413Y-54105808D01*
X73649814Y-54010044D01*
X73790704Y-53720429D01*
X73872384Y-53408892D01*
X73884189Y-53212595D01*
X77108282Y-53212595D01*
X77152039Y-53531675D01*
X77257205Y-53836088D01*
X77350186Y-54010044D01*
X77614587Y-54105808D01*
X78570395Y-53150000D01*
X78929605Y-53150000D01*
X79885413Y-54105808D01*
X80149814Y-54010044D01*
X80290704Y-53720429D01*
X80372384Y-53408892D01*
X80391718Y-53087405D01*
X80347961Y-52768325D01*
X80242795Y-52463912D01*
X80149814Y-52289956D01*
X79885413Y-52194192D01*
X78929605Y-53150000D01*
X78570395Y-53150000D01*
X77614587Y-52194192D01*
X77350186Y-52289956D01*
X77209296Y-52579571D01*
X77127616Y-52891108D01*
X77108282Y-53212595D01*
X73884189Y-53212595D01*
X73891718Y-53087405D01*
X73847961Y-52768325D01*
X73742795Y-52463912D01*
X73649814Y-52289956D01*
X73385413Y-52194192D01*
X72429605Y-53150000D01*
X72070395Y-53150000D01*
X71114587Y-52194192D01*
X70850186Y-52289956D01*
X70709296Y-52579571D01*
X70627616Y-52891108D01*
X70608282Y-53212595D01*
X69240000Y-53212595D01*
X69240000Y-52014587D01*
X71294192Y-52014587D01*
X72250000Y-52970395D01*
X73205808Y-52014587D01*
X77794192Y-52014587D01*
X78750000Y-52970395D01*
X79705808Y-52014587D01*
X79610044Y-51750186D01*
X79320429Y-51609296D01*
X79008892Y-51527616D01*
X78687405Y-51508282D01*
X78368325Y-51552039D01*
X78063912Y-51657205D01*
X77889956Y-51750186D01*
X77794192Y-52014587D01*
X73205808Y-52014587D01*
X73110044Y-51750186D01*
X72820429Y-51609296D01*
X72508892Y-51527616D01*
X72187405Y-51508282D01*
X71868325Y-51552039D01*
X71563912Y-51657205D01*
X71389956Y-51750186D01*
X71294192Y-52014587D01*
X69240000Y-52014587D01*
X69240000Y-50000881D01*
X72853724Y-50000881D01*
X73213912Y-50490548D01*
X73877882Y-50850849D01*
X74599385Y-51074694D01*
X75350695Y-51153480D01*
X76102938Y-51084178D01*
X76827208Y-50869452D01*
X77495670Y-50517555D01*
X77536088Y-50490548D01*
X77896276Y-50000881D01*
X75375000Y-47479605D01*
X72853724Y-50000881D01*
X69240000Y-50000881D01*
X69240000Y-47275695D01*
X71521520Y-47275695D01*
X71590822Y-48027938D01*
X71805548Y-48752208D01*
X72157445Y-49420670D01*
X72184452Y-49461088D01*
X72674119Y-49821276D01*
X75195395Y-47300000D01*
X75554605Y-47300000D01*
X78075881Y-49821276D01*
X78565548Y-49461088D01*
X78925849Y-48797118D01*
X79149694Y-48075615D01*
X79228480Y-47324305D01*
X79159178Y-46572062D01*
X78944452Y-45847792D01*
X78592555Y-45179330D01*
X78565548Y-45138912D01*
X78075881Y-44778724D01*
X75554605Y-47300000D01*
X75195395Y-47300000D01*
X72674119Y-44778724D01*
X72184452Y-45138912D01*
X71824151Y-45802882D01*
X71600306Y-46524385D01*
X71521520Y-47275695D01*
X69240000Y-47275695D01*
X69240000Y-43840000D01*
X73714877Y-43840000D01*
X73254330Y-44082445D01*
G37*
X73254330Y-44082445D02*
X73213912Y-44109452D01*
X72853724Y-44599119D01*
X75375000Y-47120395D01*
X77896276Y-44599119D01*
X77536088Y-44109452D01*
X77039536Y-43840000D01*
X122004898Y-43840000D01*
X121639330Y-44032445D01*
X121598912Y-44059452D01*
X121238724Y-44549119D01*
X123760000Y-47070395D01*
X126281276Y-44549119D01*
X125921088Y-44059452D01*
X125516677Y-43840000D01*
X128880001Y-43840000D01*
X128880000Y-86970000D01*
X69240000Y-86970000D01*
X69240000Y-85280881D01*
X72868724Y-85280881D01*
X73228912Y-85770548D01*
X73892882Y-86130849D01*
X74614385Y-86354694D01*
X75365695Y-86433480D01*
X76117938Y-86364178D01*
X76842208Y-86149452D01*
X77510670Y-85797555D01*
X77551088Y-85770548D01*
X77911276Y-85280881D01*
X75390000Y-82759605D01*
X72868724Y-85280881D01*
X69240000Y-85280881D01*
X69240000Y-82555695D01*
X71536520Y-82555695D01*
X71605822Y-83307938D01*
X71820548Y-84032208D01*
X72172445Y-84700670D01*
X72199452Y-84741088D01*
X72689119Y-85101276D01*
X75210395Y-82580000D01*
X75569605Y-82580000D01*
X78090881Y-85101276D01*
X78580548Y-84741088D01*
X78940849Y-84077118D01*
X79164694Y-83355615D01*
X79243480Y-82604305D01*
X79174178Y-81852062D01*
X78959452Y-81127792D01*
X78607555Y-80459330D01*
X78580548Y-80418912D01*
X78090881Y-80058724D01*
X75569605Y-82580000D01*
X75210395Y-82580000D01*
X72689119Y-80058724D01*
X72199452Y-80418912D01*
X71839151Y-81082882D01*
X71615306Y-81804385D01*
X71536520Y-82555695D01*
X69240000Y-82555695D01*
X69240000Y-79879119D01*
X72868724Y-79879119D01*
X75390000Y-82400395D01*
X77911276Y-79879119D01*
X77551088Y-79389452D01*
X76887118Y-79029151D01*
X76165615Y-78805306D01*
X75414305Y-78726520D01*
X74662062Y-78795822D01*
X73937792Y-79010548D01*
X73269330Y-79362445D01*
X73228912Y-79389452D01*
X72868724Y-79879119D01*
X69240000Y-79879119D01*
X69240000Y-73214721D01*
X72320000Y-73214721D01*
X72320000Y-73635279D01*
X72402047Y-74047756D01*
X72562988Y-74436302D01*
X72796637Y-74785983D01*
X73094017Y-75083363D01*
X73443698Y-75317012D01*
X73832244Y-75477953D01*
X74244721Y-75560000D01*
X74665279Y-75560000D01*
X75077756Y-75477953D01*
X75466302Y-75317012D01*
X75815983Y-75083363D01*
X76113363Y-74785983D01*
X76347012Y-74436302D01*
X76351693Y-74425000D01*
X77126928Y-74425000D01*
X77126928Y-75425000D01*
X77143992Y-75598254D01*
X77194528Y-75764850D01*
X77276595Y-75918386D01*
X77387038Y-76052962D01*
X77521614Y-76163405D01*
X77675150Y-76245472D01*
X77841746Y-76296008D01*
X78015000Y-76313072D01*
X79535000Y-76313072D01*
X79708254Y-76296008D01*
X79874850Y-76245472D01*
X80028386Y-76163405D01*
X80162962Y-76052962D01*
X80273405Y-75918386D01*
X80355472Y-75764850D01*
X80406008Y-75598254D01*
X80423072Y-75425000D01*
X80423072Y-74520000D01*
X82020476Y-74520000D01*
X82025001Y-74565942D01*
X82025000Y-79224068D01*
X82020476Y-79270000D01*
X82025000Y-79315931D01*
X82038529Y-79453291D01*
X82091993Y-79629539D01*
X82178814Y-79791971D01*
X82295656Y-79934344D01*
X82331342Y-79963631D01*
X82766366Y-80398654D01*
X82795656Y-80434344D01*
X82938028Y-80551186D01*
X83100460Y-80638007D01*
X83161160Y-80656420D01*
X83276708Y-80691472D01*
X83460000Y-80709524D01*
X83505935Y-80705000D01*
X84572711Y-80705000D01*
X88366375Y-84498665D01*
X88395657Y-84534345D01*
X88538029Y-84651187D01*
X88700461Y-84738008D01*
X88873159Y-84790395D01*
X88876709Y-84791472D01*
X89060000Y-84809525D01*
X89105932Y-84805001D01*
X90822693Y-84805001D01*
X90906063Y-84929774D01*
X91050226Y-85073937D01*
X91219744Y-85187205D01*
X91408102Y-85265226D01*
X91608061Y-85305000D01*
X91811939Y-85305000D01*
X91983468Y-85270881D01*
X121038724Y-85270881D01*
X121398912Y-85760548D01*
X122062882Y-86120849D01*
X122784385Y-86344694D01*
X123535695Y-86423480D01*
X124287938Y-86354178D01*
X125012208Y-86139452D01*
X125680670Y-85787555D01*
X125721088Y-85760548D01*
X126081276Y-85270881D01*
X123560000Y-82749605D01*
X121038724Y-85270881D01*
X91983468Y-85270881D01*
X92011898Y-85265226D01*
X92200256Y-85187205D01*
X92369774Y-85073937D01*
X92513937Y-84929774D01*
X92627205Y-84760256D01*
X92705226Y-84571898D01*
X92745000Y-84371939D01*
X92745000Y-84168061D01*
X92705226Y-83968102D01*
X92627205Y-83779744D01*
X92513937Y-83610226D01*
X92369774Y-83466063D01*
X92200256Y-83352795D01*
X92054858Y-83292569D01*
X92003631Y-83241342D01*
X91974345Y-83205657D01*
X91831973Y-83088815D01*
X91669541Y-83001994D01*
X91493293Y-82948530D01*
X91355933Y-82935001D01*
X91310001Y-82930477D01*
X91264069Y-82935001D01*
X89447291Y-82935001D01*
X85653630Y-79141341D01*
X85624344Y-79105656D01*
X85481972Y-78988814D01*
X85319540Y-78901993D01*
X85143292Y-78848529D01*
X85005932Y-78835000D01*
X84960000Y-78830476D01*
X84914068Y-78835000D01*
X83895000Y-78835000D01*
X83895000Y-74907289D01*
X85304859Y-73497431D01*
X85450256Y-73437205D01*
X85619774Y-73323937D01*
X85763937Y-73179774D01*
X85877205Y-73010256D01*
X85955226Y-72821898D01*
X85995000Y-72621939D01*
X85995000Y-72418061D01*
X85955226Y-72218102D01*
X85877205Y-72029744D01*
X85763937Y-71860226D01*
X85619774Y-71716063D01*
X85450256Y-71602795D01*
X85261898Y-71524774D01*
X85061939Y-71485000D01*
X84858061Y-71485000D01*
X84658102Y-71524774D01*
X84469744Y-71602795D01*
X84300226Y-71716063D01*
X84156063Y-71860226D01*
X84042795Y-72029744D01*
X83982569Y-72175141D01*
X82331336Y-73826375D01*
X82295657Y-73855656D01*
X82178815Y-73998028D01*
X82155867Y-74040961D01*
X82091994Y-74160460D01*
X82038529Y-74336709D01*
X82020476Y-74520000D01*
X80423072Y-74520000D01*
X80423072Y-74425000D01*
X80406008Y-74251746D01*
X80355472Y-74085150D01*
X80273405Y-73931614D01*
X80162962Y-73797038D01*
X80028386Y-73686595D01*
X79874850Y-73604528D01*
X79708254Y-73553992D01*
X79535000Y-73536928D01*
X78015000Y-73536928D01*
X77841746Y-73553992D01*
X77675150Y-73604528D01*
X77521614Y-73686595D01*
X77387038Y-73797038D01*
X77276595Y-73931614D01*
X77194528Y-74085150D01*
X77143992Y-74251746D01*
X77126928Y-74425000D01*
X76351693Y-74425000D01*
X76507953Y-74047756D01*
X76590000Y-73635279D01*
X76590000Y-73214721D01*
X76507953Y-72802244D01*
X76347012Y-72413698D01*
X76248448Y-72266185D01*
X77172682Y-72266185D01*
X77186827Y-72337684D01*
X77292858Y-72588868D01*
X77445855Y-72814540D01*
X77639939Y-73006028D01*
X77867651Y-73155972D01*
X78120240Y-73258611D01*
X78388000Y-73310000D01*
X78648000Y-73310000D01*
X78648000Y-72052000D01*
X78902000Y-72052000D01*
X78902000Y-73310000D01*
X79162000Y-73310000D01*
X79429760Y-73258611D01*
X79682349Y-73155972D01*
X79910061Y-73006028D01*
X80104145Y-72814540D01*
X80257142Y-72588868D01*
X80363173Y-72337684D01*
X80377318Y-72266185D01*
X80254656Y-72052000D01*
X78902000Y-72052000D01*
X78648000Y-72052000D01*
X77295344Y-72052000D01*
X77172682Y-72266185D01*
X76248448Y-72266185D01*
X76113363Y-72064017D01*
X75815983Y-71766637D01*
X75542371Y-71583815D01*
X77172682Y-71583815D01*
X77295344Y-71798000D01*
X78648000Y-71798000D01*
X78648000Y-70540000D01*
X78902000Y-70540000D01*
X78902000Y-71798000D01*
X80254656Y-71798000D01*
X80377318Y-71583815D01*
X80363173Y-71512316D01*
X80257142Y-71261132D01*
X80104145Y-71035460D01*
X79910061Y-70843972D01*
X79682349Y-70694028D01*
X79429760Y-70591389D01*
X79162000Y-70540000D01*
X78902000Y-70540000D01*
X78648000Y-70540000D01*
X78388000Y-70540000D01*
X78120240Y-70591389D01*
X77867651Y-70694028D01*
X77639939Y-70843972D01*
X77445855Y-71035460D01*
X77292858Y-71261132D01*
X77186827Y-71512316D01*
X77172682Y-71583815D01*
X75542371Y-71583815D01*
X75466302Y-71532988D01*
X75077756Y-71372047D01*
X74665279Y-71290000D01*
X74244721Y-71290000D01*
X73832244Y-71372047D01*
X73443698Y-71532988D01*
X73094017Y-71766637D01*
X72796637Y-72064017D01*
X72562988Y-72413698D01*
X72402047Y-72802244D01*
X72320000Y-73214721D01*
X69240000Y-73214721D01*
X69240000Y-69748061D01*
X80245000Y-69748061D01*
X80245000Y-69951939D01*
X80284774Y-70151898D01*
X80362795Y-70340256D01*
X80476063Y-70509774D01*
X80620226Y-70653937D01*
X80789744Y-70767205D01*
X80978102Y-70845226D01*
X81178061Y-70885000D01*
X81381939Y-70885000D01*
X81581898Y-70845226D01*
X81770256Y-70767205D01*
X81939774Y-70653937D01*
X81958711Y-70635000D01*
X83141289Y-70635000D01*
X83160226Y-70653937D01*
X83329744Y-70767205D01*
X83518102Y-70845226D01*
X83718061Y-70885000D01*
X83921939Y-70885000D01*
X84121898Y-70845226D01*
X84310256Y-70767205D01*
X84479774Y-70653937D01*
X84623937Y-70509774D01*
X84737205Y-70340256D01*
X84815226Y-70151898D01*
X84855000Y-69951939D01*
X84855000Y-69748061D01*
X84815226Y-69548102D01*
X84737205Y-69359744D01*
X84623937Y-69190226D01*
X84479774Y-69046063D01*
X84319489Y-68938964D01*
X84355226Y-68852689D01*
X84395000Y-68652730D01*
X84395000Y-68448852D01*
X84355226Y-68248893D01*
X84277205Y-68060535D01*
X84163937Y-67891017D01*
X84019774Y-67746854D01*
X83850256Y-67633586D01*
X83795000Y-67610698D01*
X83795000Y-57516435D01*
X83838061Y-57525000D01*
X84041939Y-57525000D01*
X84241898Y-57485226D01*
X84430256Y-57407205D01*
X84599774Y-57293937D01*
X84743937Y-57149774D01*
X84767172Y-57115000D01*
X89692705Y-57115000D01*
X89838102Y-57175226D01*
X90038061Y-57215000D01*
X90241939Y-57215000D01*
X90375000Y-57188533D01*
X90375000Y-61393208D01*
X90370960Y-61434227D01*
X90375000Y-61475245D01*
X90380885Y-61535000D01*
X90208061Y-61535000D01*
X90008102Y-61574774D01*
X89819744Y-61652795D01*
X89650226Y-61766063D01*
X89506063Y-61910226D01*
X89392795Y-62079744D01*
X89314774Y-62268102D01*
X89275000Y-62468061D01*
X89275000Y-62671939D01*
X89314774Y-62871898D01*
X89392795Y-63060256D01*
X89475000Y-63183285D01*
X89475000Y-63969667D01*
X89470960Y-64010685D01*
X89475000Y-64051703D01*
X89487082Y-64174373D01*
X89534828Y-64331771D01*
X89612364Y-64476830D01*
X89716709Y-64603976D01*
X89748578Y-64630130D01*
X89806197Y-64687749D01*
X87064588Y-64687749D01*
X86731107Y-64354269D01*
X86702241Y-64209146D01*
X86624220Y-64020788D01*
X86510952Y-63851270D01*
X86366789Y-63707107D01*
X86197271Y-63593839D01*
X86008913Y-63515818D01*
X85808954Y-63476044D01*
X85605076Y-63476044D01*
X85405117Y-63515818D01*
X85216759Y-63593839D01*
X85047241Y-63707107D01*
X84903078Y-63851270D01*
X84789810Y-64020788D01*
X84711789Y-64209146D01*
X84672015Y-64409105D01*
X84672015Y-64612983D01*
X84711789Y-64812942D01*
X84789810Y-65001300D01*
X84790403Y-65002187D01*
X84730089Y-65092453D01*
X84652068Y-65280811D01*
X84612294Y-65480770D01*
X84612294Y-65684648D01*
X84652068Y-65884607D01*
X84719320Y-66046966D01*
X84656063Y-66110223D01*
X84542795Y-66279741D01*
X84464774Y-66468099D01*
X84425000Y-66668058D01*
X84425000Y-66871936D01*
X84464774Y-67071895D01*
X84542795Y-67260253D01*
X84549307Y-67269999D01*
X84542795Y-67279744D01*
X84464774Y-67468102D01*
X84425000Y-67668061D01*
X84425000Y-67871939D01*
X84464774Y-68071898D01*
X84542795Y-68260256D01*
X84656063Y-68429774D01*
X84800226Y-68573937D01*
X84969744Y-68687205D01*
X85158102Y-68765226D01*
X85358061Y-68805000D01*
X85561939Y-68805000D01*
X85761898Y-68765226D01*
X85950256Y-68687205D01*
X86073285Y-68605000D01*
X99500000Y-68605000D01*
X99500000Y-68671939D01*
X99539774Y-68871898D01*
X99600000Y-69017296D01*
X99600001Y-72399058D01*
X99595476Y-72445000D01*
X99613529Y-72628291D01*
X99662140Y-72788537D01*
X99666994Y-72804540D01*
X99753815Y-72966972D01*
X99870657Y-73109344D01*
X99906336Y-73138625D01*
X101907569Y-75139858D01*
X101967795Y-75285256D01*
X102076760Y-75448334D01*
X102050226Y-75466063D01*
X101906063Y-75610226D01*
X101792795Y-75779744D01*
X101714774Y-75968102D01*
X101685908Y-76113225D01*
X101664141Y-76134991D01*
X98005859Y-76134991D01*
X93234093Y-71363226D01*
X93205226Y-71218102D01*
X93127205Y-71029744D01*
X93013937Y-70860226D01*
X92869774Y-70716063D01*
X92700256Y-70602795D01*
X92511898Y-70524774D01*
X92311939Y-70485000D01*
X92108061Y-70485000D01*
X91908102Y-70524774D01*
X91719744Y-70602795D01*
X91585000Y-70692828D01*
X91450256Y-70602795D01*
X91261898Y-70524774D01*
X91061939Y-70485000D01*
X90858061Y-70485000D01*
X90658102Y-70524774D01*
X90469744Y-70602795D01*
X90300226Y-70716063D01*
X90156063Y-70860226D01*
X90085000Y-70966580D01*
X90013937Y-70860226D01*
X89869774Y-70716063D01*
X89700256Y-70602795D01*
X89511898Y-70524774D01*
X89311939Y-70485000D01*
X89108061Y-70485000D01*
X88908102Y-70524774D01*
X88719744Y-70602795D01*
X88550226Y-70716063D01*
X88406063Y-70860226D01*
X88292795Y-71029744D01*
X88214774Y-71218102D01*
X88212488Y-71229596D01*
X88200994Y-71231882D01*
X88012636Y-71309903D01*
X87843118Y-71423171D01*
X87698955Y-71567334D01*
X87585687Y-71736852D01*
X87507666Y-71925210D01*
X87467892Y-72125169D01*
X87467892Y-72329047D01*
X87507666Y-72529006D01*
X87585687Y-72717364D01*
X87698955Y-72886882D01*
X87843118Y-73031045D01*
X88012636Y-73144313D01*
X88200994Y-73222334D01*
X88346118Y-73251201D01*
X95412171Y-80317255D01*
X95301724Y-80391053D01*
X95157561Y-80535216D01*
X95044293Y-80704734D01*
X94966272Y-80893092D01*
X94926498Y-81093051D01*
X94926498Y-81296929D01*
X94966272Y-81496888D01*
X95044293Y-81685246D01*
X95157561Y-81854764D01*
X95275001Y-81972204D01*
X95275000Y-82822704D01*
X95214774Y-82968102D01*
X95175000Y-83168061D01*
X95175000Y-83371939D01*
X95214774Y-83571898D01*
X95292795Y-83760256D01*
X95406063Y-83929774D01*
X95550226Y-84073937D01*
X95719744Y-84187205D01*
X95908102Y-84265226D01*
X96108061Y-84305000D01*
X96311939Y-84305000D01*
X96511898Y-84265226D01*
X96700256Y-84187205D01*
X96869774Y-84073937D01*
X97013937Y-83929774D01*
X97127205Y-83760256D01*
X97205226Y-83571898D01*
X97245000Y-83371939D01*
X97245000Y-83168061D01*
X97205226Y-82968102D01*
X97145000Y-82822705D01*
X97145000Y-82545695D01*
X119706520Y-82545695D01*
X119775822Y-83297938D01*
X119990548Y-84022208D01*
X120342445Y-84690670D01*
X120369452Y-84731088D01*
X120859119Y-85091276D01*
X123380395Y-82570000D01*
X123739605Y-82570000D01*
X126260881Y-85091276D01*
X126750548Y-84731088D01*
X127110849Y-84067118D01*
X127334694Y-83345615D01*
X127413480Y-82594305D01*
X127344178Y-81842062D01*
X127129452Y-81117792D01*
X126777555Y-80449330D01*
X126750548Y-80408912D01*
X126260881Y-80048724D01*
X123739605Y-82570000D01*
X123380395Y-82570000D01*
X120859119Y-80048724D01*
X120369452Y-80408912D01*
X120009151Y-81072882D01*
X119785306Y-81794385D01*
X119706520Y-82545695D01*
X97145000Y-82545695D01*
X97145000Y-81489424D01*
X97149524Y-81443492D01*
X97131471Y-81260200D01*
X97118188Y-81216413D01*
X97078007Y-81083952D01*
X96991186Y-80921520D01*
X96945380Y-80865705D01*
X96936803Y-80845000D01*
X117496715Y-80845000D01*
X117619744Y-80927205D01*
X117808102Y-81005226D01*
X118008061Y-81045000D01*
X118211939Y-81045000D01*
X118411898Y-81005226D01*
X118600256Y-80927205D01*
X118769774Y-80813937D01*
X118913937Y-80669774D01*
X119027205Y-80500256D01*
X119105226Y-80311898D01*
X119145000Y-80111939D01*
X119145000Y-79908061D01*
X119105226Y-79708102D01*
X119050093Y-79575000D01*
X121138982Y-79575000D01*
X121180000Y-79579040D01*
X121221018Y-79575000D01*
X121221019Y-79575000D01*
X121257731Y-79571384D01*
X121038724Y-79869119D01*
X123560000Y-82390395D01*
X126081276Y-79869119D01*
X125721088Y-79379452D01*
X125057118Y-79019151D01*
X124335615Y-78795306D01*
X123584305Y-78716520D01*
X122832062Y-78785822D01*
X122107792Y-79000548D01*
X122092012Y-79008855D01*
X124756596Y-76344272D01*
X125040000Y-76372185D01*
X125331111Y-76343513D01*
X125611034Y-76258599D01*
X125869014Y-76120706D01*
X126095134Y-75935134D01*
X126280706Y-75709014D01*
X126418599Y-75451033D01*
X126503513Y-75171110D01*
X126525000Y-74952949D01*
X126525000Y-74507050D01*
X126503513Y-74288889D01*
X126418599Y-74008966D01*
X126280706Y-73750986D01*
X126095134Y-73524866D01*
X125869013Y-73339294D01*
X125611033Y-73201401D01*
X125331110Y-73116487D01*
X125040000Y-73087815D01*
X124748889Y-73116487D01*
X124468966Y-73201401D01*
X124210986Y-73339294D01*
X123984866Y-73524866D01*
X123932777Y-73588337D01*
X123878405Y-73486614D01*
X123767962Y-73352038D01*
X123633386Y-73241595D01*
X123479850Y-73159528D01*
X123313254Y-73108992D01*
X123140000Y-73091928D01*
X122758940Y-73091928D01*
X124756596Y-71094272D01*
X125040000Y-71122185D01*
X125331111Y-71093513D01*
X125611034Y-71008599D01*
X125869014Y-70870706D01*
X126095134Y-70685134D01*
X126280706Y-70459014D01*
X126418599Y-70201033D01*
X126503513Y-69921110D01*
X126525000Y-69702949D01*
X126525000Y-69257050D01*
X126503513Y-69038889D01*
X126418599Y-68758966D01*
X126280706Y-68500986D01*
X126095134Y-68274866D01*
X125869013Y-68089294D01*
X125611033Y-67951401D01*
X125331110Y-67866487D01*
X125040000Y-67837815D01*
X124748889Y-67866487D01*
X124468966Y-67951401D01*
X124210986Y-68089294D01*
X123984866Y-68274866D01*
X123932777Y-68338337D01*
X123878405Y-68236614D01*
X123767962Y-68102038D01*
X123633386Y-67991595D01*
X123479850Y-67909528D01*
X123313254Y-67858992D01*
X123140000Y-67841928D01*
X121940000Y-67841928D01*
X121766746Y-67858992D01*
X121600150Y-67909528D01*
X121446614Y-67991595D01*
X121312038Y-68102038D01*
X121201595Y-68236614D01*
X121119528Y-68390150D01*
X121068992Y-68556746D01*
X121051928Y-68730000D01*
X121051928Y-70230000D01*
X121068992Y-70403254D01*
X121119528Y-70569850D01*
X121201595Y-70723386D01*
X121312038Y-70857962D01*
X121446614Y-70968405D01*
X121600150Y-71050472D01*
X121766746Y-71101008D01*
X121940000Y-71118072D01*
X122371060Y-71118072D01*
X116754132Y-76735001D01*
X116745000Y-76735001D01*
X116745000Y-76668061D01*
X116705226Y-76468102D01*
X116645000Y-76322705D01*
X116645000Y-69315935D01*
X116649524Y-69270000D01*
X116631472Y-69086708D01*
X116595492Y-68968102D01*
X116578007Y-68910460D01*
X116548363Y-68854999D01*
X116611939Y-68854999D01*
X116811898Y-68815225D01*
X117000256Y-68737204D01*
X117169774Y-68623936D01*
X117313937Y-68479773D01*
X117427205Y-68310255D01*
X117505226Y-68121897D01*
X117534093Y-67976774D01*
X118671433Y-66839435D01*
X118703291Y-66813290D01*
X118734901Y-66774774D01*
X118807636Y-66686145D01*
X118885172Y-66541086D01*
X118898546Y-66496997D01*
X118932918Y-66383688D01*
X118945000Y-66261018D01*
X118945000Y-66261017D01*
X118949040Y-66219999D01*
X118945000Y-66178981D01*
X118945000Y-65115867D01*
X120530867Y-63530000D01*
X121051928Y-63530000D01*
X121051928Y-65030000D01*
X121068992Y-65203254D01*
X121119528Y-65369850D01*
X121201595Y-65523386D01*
X121312038Y-65657962D01*
X121446614Y-65768405D01*
X121600150Y-65850472D01*
X121766746Y-65901008D01*
X121940000Y-65918072D01*
X123140000Y-65918072D01*
X123313254Y-65901008D01*
X123479850Y-65850472D01*
X123633386Y-65768405D01*
X123767962Y-65657962D01*
X123878405Y-65523386D01*
X123932777Y-65421663D01*
X123984866Y-65485134D01*
X124210987Y-65670706D01*
X124468967Y-65808599D01*
X124748890Y-65893513D01*
X125040000Y-65922185D01*
X125331111Y-65893513D01*
X125611034Y-65808599D01*
X125869014Y-65670706D01*
X126095134Y-65485134D01*
X126280706Y-65259014D01*
X126418599Y-65001033D01*
X126503513Y-64721110D01*
X126525000Y-64502949D01*
X126525000Y-64057050D01*
X126503513Y-63838889D01*
X126418599Y-63558966D01*
X126280706Y-63300986D01*
X126095134Y-63074866D01*
X125869013Y-62889294D01*
X125611033Y-62751401D01*
X125331110Y-62666487D01*
X125040000Y-62637815D01*
X124748889Y-62666487D01*
X124468966Y-62751401D01*
X124210986Y-62889294D01*
X123984866Y-63074866D01*
X123932777Y-63138337D01*
X123878405Y-63036614D01*
X123767962Y-62902038D01*
X123633386Y-62791595D01*
X123479850Y-62709528D01*
X123313254Y-62658992D01*
X123140000Y-62641928D01*
X121940000Y-62641928D01*
X121766746Y-62658992D01*
X121600150Y-62709528D01*
X121446614Y-62791595D01*
X121312038Y-62902038D01*
X121201595Y-63036614D01*
X121119528Y-63190150D01*
X121068992Y-63356746D01*
X121051928Y-63530000D01*
X120530867Y-63530000D01*
X123091433Y-60969436D01*
X123123291Y-60943291D01*
X123150119Y-60910602D01*
X123227636Y-60816146D01*
X123288397Y-60702471D01*
X123303254Y-60701008D01*
X123469850Y-60650472D01*
X123623386Y-60568405D01*
X123757962Y-60457962D01*
X123868405Y-60323386D01*
X123922777Y-60221663D01*
X123974866Y-60285134D01*
X124200987Y-60470706D01*
X124458967Y-60608599D01*
X124738890Y-60693513D01*
X125030000Y-60722185D01*
X125321111Y-60693513D01*
X125601034Y-60608599D01*
X125859014Y-60470706D01*
X126085134Y-60285134D01*
X126270706Y-60059014D01*
X126408599Y-59801033D01*
X126493513Y-59521110D01*
X126515000Y-59302949D01*
X126515000Y-58857050D01*
X126493513Y-58638889D01*
X126408599Y-58358966D01*
X126270706Y-58100986D01*
X126085134Y-57874866D01*
X125859013Y-57689294D01*
X125601033Y-57551401D01*
X125321110Y-57466487D01*
X125030000Y-57437815D01*
X124738889Y-57466487D01*
X124458966Y-57551401D01*
X124200986Y-57689294D01*
X123974866Y-57874866D01*
X123922777Y-57938337D01*
X123868405Y-57836614D01*
X123757962Y-57702038D01*
X123623386Y-57591595D01*
X123469850Y-57509528D01*
X123303254Y-57458992D01*
X123130000Y-57441928D01*
X121930000Y-57441928D01*
X121756746Y-57458992D01*
X121590150Y-57509528D01*
X121436614Y-57591595D01*
X121302038Y-57702038D01*
X121191595Y-57836614D01*
X121109528Y-57990150D01*
X121058992Y-58156746D01*
X121041928Y-58330000D01*
X121041928Y-59830000D01*
X121058992Y-60003254D01*
X121109528Y-60169850D01*
X121191595Y-60323386D01*
X121274601Y-60424530D01*
X117548574Y-64150559D01*
X117516710Y-64176709D01*
X117435907Y-64275168D01*
X117412364Y-64303855D01*
X117334828Y-64448914D01*
X117287082Y-64606312D01*
X117270960Y-64770000D01*
X117275001Y-64811028D01*
X117275000Y-65874130D01*
X116353225Y-66795906D01*
X116208102Y-66824773D01*
X116019744Y-66902794D01*
X115850226Y-67016062D01*
X115706063Y-67160225D01*
X115592795Y-67329743D01*
X115514774Y-67518101D01*
X115475887Y-67713598D01*
X110930220Y-63167931D01*
X110980256Y-63147205D01*
X111149774Y-63033937D01*
X111293937Y-62889774D01*
X111407205Y-62720256D01*
X111485226Y-62531898D01*
X111525000Y-62331939D01*
X111525000Y-62137263D01*
X111619774Y-62073937D01*
X111763937Y-61929774D01*
X111877205Y-61760256D01*
X111955226Y-61571898D01*
X111995000Y-61371939D01*
X111995000Y-61168061D01*
X111955226Y-60968102D01*
X111877205Y-60779744D01*
X111806600Y-60674077D01*
X111849825Y-60630852D01*
X111963093Y-60461334D01*
X112041114Y-60272976D01*
X112080888Y-60073017D01*
X112080888Y-59869139D01*
X112041114Y-59669180D01*
X111963093Y-59480822D01*
X111849825Y-59311304D01*
X111705662Y-59167141D01*
X111536144Y-59053873D01*
X111390747Y-58993647D01*
X111343477Y-58946377D01*
X111393292Y-58941471D01*
X111569540Y-58888007D01*
X111731972Y-58801186D01*
X111874344Y-58684344D01*
X111903630Y-58648659D01*
X113554859Y-56997431D01*
X113700256Y-56937205D01*
X113869774Y-56823937D01*
X114013937Y-56679774D01*
X114127205Y-56510256D01*
X114205226Y-56321898D01*
X114245000Y-56121939D01*
X114245000Y-55918061D01*
X114205226Y-55718102D01*
X114127205Y-55529744D01*
X114013937Y-55360226D01*
X113869774Y-55216063D01*
X113700256Y-55102795D01*
X113511898Y-55024774D01*
X113311939Y-54985000D01*
X113108061Y-54985000D01*
X112908102Y-55024774D01*
X112719744Y-55102795D01*
X112550226Y-55216063D01*
X112406063Y-55360226D01*
X112292795Y-55529744D01*
X112232569Y-55675141D01*
X110822711Y-57085000D01*
X98657295Y-57085000D01*
X98511898Y-57024774D01*
X98311939Y-56985000D01*
X98108061Y-56985000D01*
X97908102Y-57024774D01*
X97719744Y-57102795D01*
X97550226Y-57216063D01*
X97406063Y-57360226D01*
X97292795Y-57529744D01*
X97214774Y-57718102D01*
X97175000Y-57918061D01*
X97175000Y-58085000D01*
X96745000Y-58085000D01*
X96745000Y-57918061D01*
X96705226Y-57718102D01*
X96627205Y-57529744D01*
X96513937Y-57360226D01*
X96369774Y-57216063D01*
X96200256Y-57102795D01*
X96011898Y-57024774D01*
X95866776Y-56995908D01*
X94668929Y-55798061D01*
X99895000Y-55798061D01*
X99895000Y-56001939D01*
X99934774Y-56201898D01*
X100012795Y-56390256D01*
X100126063Y-56559774D01*
X100270226Y-56703937D01*
X100439744Y-56817205D01*
X100628102Y-56895226D01*
X100828061Y-56935000D01*
X101031939Y-56935000D01*
X101231898Y-56895226D01*
X101420256Y-56817205D01*
X101580700Y-56710000D01*
X104940212Y-56710000D01*
X104980000Y-56713919D01*
X105019788Y-56710000D01*
X105019791Y-56710000D01*
X105138788Y-56698280D01*
X105291473Y-56651963D01*
X105432189Y-56576749D01*
X105555528Y-56475528D01*
X105580899Y-56444613D01*
X106107451Y-55918061D01*
X106924994Y-55918061D01*
X106924994Y-56121939D01*
X106964768Y-56321898D01*
X107042789Y-56510256D01*
X107156057Y-56679774D01*
X107300220Y-56823937D01*
X107469738Y-56937205D01*
X107658096Y-57015226D01*
X107858055Y-57055000D01*
X108061933Y-57055000D01*
X108261892Y-57015226D01*
X108407289Y-56955000D01*
X109837705Y-56955000D01*
X109983102Y-57015226D01*
X110183061Y-57055000D01*
X110386939Y-57055000D01*
X110586898Y-57015226D01*
X110775256Y-56937205D01*
X110944774Y-56823937D01*
X111088937Y-56679774D01*
X111202205Y-56510256D01*
X111280226Y-56321898D01*
X111320000Y-56121939D01*
X111320000Y-55918061D01*
X111280226Y-55718102D01*
X111202205Y-55529744D01*
X111088937Y-55360226D01*
X110944774Y-55216063D01*
X110775256Y-55102795D01*
X110586898Y-55024774D01*
X110386939Y-54985000D01*
X110183061Y-54985000D01*
X109983102Y-55024774D01*
X109837705Y-55085000D01*
X108407289Y-55085000D01*
X108261892Y-55024774D01*
X108061933Y-54985000D01*
X107858055Y-54985000D01*
X107658096Y-55024774D01*
X107469738Y-55102795D01*
X107300220Y-55216063D01*
X107156057Y-55360226D01*
X107042789Y-55529744D01*
X106964768Y-55718102D01*
X106924994Y-55918061D01*
X106107451Y-55918061D01*
X106672642Y-55352871D01*
X106861898Y-55315226D01*
X107050256Y-55237205D01*
X107219774Y-55123937D01*
X107363937Y-54979774D01*
X107477205Y-54810256D01*
X107555226Y-54621898D01*
X107595000Y-54421939D01*
X107595000Y-54218061D01*
X107555226Y-54018102D01*
X107477205Y-53829744D01*
X107363937Y-53660226D01*
X107219774Y-53516063D01*
X107050256Y-53402795D01*
X106861898Y-53324774D01*
X106661939Y-53285000D01*
X106458061Y-53285000D01*
X106258102Y-53324774D01*
X106069744Y-53402795D01*
X105900226Y-53516063D01*
X105756063Y-53660226D01*
X105642795Y-53829744D01*
X105564774Y-54018102D01*
X105527129Y-54207358D01*
X104644488Y-55090000D01*
X101580700Y-55090000D01*
X101420256Y-54982795D01*
X101231898Y-54904774D01*
X101031939Y-54865000D01*
X100828061Y-54865000D01*
X100628102Y-54904774D01*
X100439744Y-54982795D01*
X100270226Y-55096063D01*
X100126063Y-55240226D01*
X100012795Y-55409744D01*
X99934774Y-55598102D01*
X99895000Y-55798061D01*
X94668929Y-55798061D01*
X93705000Y-54834133D01*
X93705000Y-53100000D01*
X121031928Y-53100000D01*
X121031928Y-54600000D01*
X121048992Y-54773254D01*
X121099528Y-54939850D01*
X121181595Y-55093386D01*
X121292038Y-55227962D01*
X121426614Y-55338405D01*
X121580150Y-55420472D01*
X121746746Y-55471008D01*
X121920000Y-55488072D01*
X123120000Y-55488072D01*
X123293254Y-55471008D01*
X123459850Y-55420472D01*
X123613386Y-55338405D01*
X123747962Y-55227962D01*
X123858405Y-55093386D01*
X123912777Y-54991663D01*
X123964866Y-55055134D01*
X124190987Y-55240706D01*
X124448967Y-55378599D01*
X124728890Y-55463513D01*
X125020000Y-55492185D01*
X125311111Y-55463513D01*
X125591034Y-55378599D01*
X125849014Y-55240706D01*
X126075134Y-55055134D01*
X126260706Y-54829014D01*
X126398599Y-54571033D01*
X126483513Y-54291110D01*
X126505000Y-54072949D01*
X126505000Y-53627050D01*
X126483513Y-53408889D01*
X126398599Y-53128966D01*
X126260706Y-52870986D01*
X126075134Y-52644866D01*
X125849013Y-52459294D01*
X125591033Y-52321401D01*
X125311110Y-52236487D01*
X125020000Y-52207815D01*
X124728889Y-52236487D01*
X124448966Y-52321401D01*
X124190986Y-52459294D01*
X123964866Y-52644866D01*
X123912777Y-52708337D01*
X123858405Y-52606614D01*
X123747962Y-52472038D01*
X123613386Y-52361595D01*
X123459850Y-52279528D01*
X123293254Y-52228992D01*
X123120000Y-52211928D01*
X121920000Y-52211928D01*
X121746746Y-52228992D01*
X121580150Y-52279528D01*
X121426614Y-52361595D01*
X121292038Y-52472038D01*
X121181595Y-52606614D01*
X121099528Y-52760150D01*
X121048992Y-52926746D01*
X121031928Y-53100000D01*
X93705000Y-53100000D01*
X93705000Y-49950881D01*
X121238724Y-49950881D01*
X121598912Y-50440548D01*
X122262882Y-50800849D01*
X122984385Y-51024694D01*
X123735695Y-51103480D01*
X124487938Y-51034178D01*
X125212208Y-50819452D01*
X125880670Y-50467555D01*
X125921088Y-50440548D01*
X126281276Y-49950881D01*
X123760000Y-47429605D01*
X121238724Y-49950881D01*
X93705000Y-49950881D01*
X93705000Y-47225695D01*
X119906520Y-47225695D01*
X119975822Y-47977938D01*
X120190548Y-48702208D01*
X120542445Y-49370670D01*
X120569452Y-49411088D01*
X121059119Y-49771276D01*
X123580395Y-47250000D01*
X123939605Y-47250000D01*
X126460881Y-49771276D01*
X126950548Y-49411088D01*
X127310849Y-48747118D01*
X127534694Y-48025615D01*
X127613480Y-47274305D01*
X127544178Y-46522062D01*
X127329452Y-45797792D01*
X126977555Y-45129330D01*
X126950548Y-45088912D01*
X126460881Y-44728724D01*
X123939605Y-47250000D01*
X123580395Y-47250000D01*
X121059119Y-44728724D01*
X120569452Y-45088912D01*
X120209151Y-45752882D01*
X119985306Y-46474385D01*
X119906520Y-47225695D01*
X93705000Y-47225695D01*
X93705000Y-46748065D01*
X93816632Y-46673475D01*
X94023475Y-46466632D01*
X94145195Y-46284466D01*
X94214822Y-46401355D01*
X94409731Y-46617588D01*
X94643080Y-46791641D01*
X94905901Y-46916825D01*
X95053110Y-46961476D01*
X95283000Y-46840155D01*
X95283000Y-45647000D01*
X95537000Y-45647000D01*
X95537000Y-46840155D01*
X95766890Y-46961476D01*
X95914099Y-46916825D01*
X96176920Y-46791641D01*
X96410269Y-46617588D01*
X96605178Y-46401355D01*
X96754157Y-46151252D01*
X96851481Y-45876891D01*
X96730814Y-45647000D01*
X95537000Y-45647000D01*
X95283000Y-45647000D01*
X95263000Y-45647000D01*
X95263000Y-45393000D01*
X95283000Y-45393000D01*
X95283000Y-44199845D01*
X95537000Y-44199845D01*
X95537000Y-45393000D01*
X96730814Y-45393000D01*
X96851481Y-45163109D01*
X96754157Y-44888748D01*
X96605178Y-44638645D01*
X96410269Y-44422412D01*
X96176920Y-44248359D01*
X95914099Y-44123175D01*
X95766890Y-44078524D01*
X95537000Y-44199845D01*
X95283000Y-44199845D01*
X95053110Y-44078524D01*
X94905901Y-44123175D01*
X94643080Y-44248359D01*
X94409731Y-44422412D01*
X94214822Y-44638645D01*
X94145195Y-44755534D01*
X94023475Y-44573368D01*
X93816632Y-44366525D01*
X93573411Y-44204010D01*
X93303158Y-44092068D01*
X93016260Y-44035000D01*
X92723740Y-44035000D01*
X92436842Y-44092068D01*
X92166589Y-44204010D01*
X91923368Y-44366525D01*
X91716525Y-44573368D01*
X91600000Y-44747760D01*
X91483475Y-44573368D01*
X91276632Y-44366525D01*
X91033411Y-44204010D01*
X90763158Y-44092068D01*
X90476260Y-44035000D01*
X90183740Y-44035000D01*
X89896842Y-44092068D01*
X89626589Y-44204010D01*
X89383368Y-44366525D01*
X89176525Y-44573368D01*
X89060000Y-44747760D01*
X88943475Y-44573368D01*
X88736632Y-44366525D01*
X88493411Y-44204010D01*
X88223158Y-44092068D01*
X87936260Y-44035000D01*
X87643740Y-44035000D01*
X87356842Y-44092068D01*
X87086589Y-44204010D01*
X86843368Y-44366525D01*
X86636525Y-44573368D01*
X86520000Y-44747760D01*
X86403475Y-44573368D01*
X86196632Y-44366525D01*
X85953411Y-44204010D01*
X85683158Y-44092068D01*
X85396260Y-44035000D01*
X85103740Y-44035000D01*
X84816842Y-44092068D01*
X84546589Y-44204010D01*
X84303368Y-44366525D01*
X84171513Y-44498380D01*
X84149502Y-44425820D01*
X84090537Y-44315506D01*
X84011185Y-44218815D01*
X83914494Y-44139463D01*
X83804180Y-44080498D01*
X83684482Y-44044188D01*
X83560000Y-44031928D01*
X81860000Y-44031928D01*
X81735518Y-44044188D01*
X81615820Y-44080498D01*
X81505506Y-44139463D01*
X81408815Y-44218815D01*
X81329463Y-44315506D01*
X81270498Y-44425820D01*
X81234188Y-44545518D01*
X81221928Y-44670000D01*
X81221928Y-46370000D01*
X81234188Y-46494482D01*
X81270498Y-46614180D01*
X81329463Y-46724494D01*
X81408815Y-46821185D01*
X81505506Y-46900537D01*
X81615820Y-46959502D01*
X81735518Y-46995812D01*
X81860000Y-47008072D01*
X83560000Y-47008072D01*
X83684482Y-46995812D01*
X83804180Y-46959502D01*
X83914494Y-46900537D01*
X84011185Y-46821185D01*
X84090537Y-46724494D01*
X84149502Y-46614180D01*
X84171513Y-46541620D01*
X84303368Y-46673475D01*
X84546589Y-46835990D01*
X84816842Y-46947932D01*
X85103740Y-47005000D01*
X85396260Y-47005000D01*
X85527939Y-46978807D01*
X85538569Y-46989437D01*
X85538575Y-46989442D01*
X85880555Y-47331422D01*
X85906710Y-47363292D01*
X86033855Y-47467637D01*
X86178914Y-47545173D01*
X86336312Y-47592919D01*
X86458982Y-47605001D01*
X86458992Y-47605001D01*
X86500000Y-47609040D01*
X86541008Y-47605001D01*
X87281915Y-47605001D01*
X89245173Y-49568260D01*
X89130986Y-49629294D01*
X88904866Y-49814866D01*
X88852777Y-49878337D01*
X88798405Y-49776614D01*
X88687962Y-49642038D01*
X88553386Y-49531595D01*
X88399850Y-49449528D01*
X88233254Y-49398992D01*
X88060000Y-49381928D01*
X86860000Y-49381928D01*
X86686746Y-49398992D01*
X86520150Y-49449528D01*
X86366614Y-49531595D01*
X86232038Y-49642038D01*
X86121595Y-49776614D01*
X86039528Y-49930150D01*
X85988992Y-50096746D01*
X85971928Y-50270000D01*
X85971928Y-51770000D01*
X85988992Y-51943254D01*
X86039528Y-52109850D01*
X86121595Y-52263386D01*
X86232038Y-52397962D01*
X86366614Y-52508405D01*
X86520150Y-52590472D01*
X86686746Y-52641008D01*
X86860000Y-52658072D01*
X88060000Y-52658072D01*
X88233254Y-52641008D01*
X88399850Y-52590472D01*
X88553386Y-52508405D01*
X88687962Y-52397962D01*
X88798405Y-52263386D01*
X88852777Y-52161663D01*
X88904866Y-52225134D01*
X89130987Y-52410706D01*
X89388967Y-52548599D01*
X89668890Y-52633513D01*
X89960000Y-52662185D01*
X90251111Y-52633513D01*
X90375001Y-52595931D01*
X90375001Y-55171467D01*
X90241939Y-55145000D01*
X90038061Y-55145000D01*
X89838102Y-55184774D01*
X89692705Y-55245000D01*
X84295931Y-55245000D01*
X84249999Y-55240476D01*
X84066707Y-55258529D01*
X84025687Y-55270973D01*
X83890460Y-55311993D01*
X83795000Y-55363017D01*
X83795000Y-55308285D01*
X83877205Y-55185256D01*
X83955226Y-54996898D01*
X83995000Y-54796939D01*
X83995000Y-54593061D01*
X83955226Y-54393102D01*
X83877205Y-54204744D01*
X83763937Y-54035226D01*
X83619774Y-53891063D01*
X83450256Y-53777795D01*
X83261898Y-53699774D01*
X83061939Y-53660000D01*
X82858061Y-53660000D01*
X82658102Y-53699774D01*
X82469744Y-53777795D01*
X82300226Y-53891063D01*
X82156063Y-54035226D01*
X82042795Y-54204744D01*
X81964774Y-54393102D01*
X81925000Y-54593061D01*
X81925000Y-54796939D01*
X81964774Y-54996898D01*
X82042795Y-55185256D01*
X82125001Y-55308286D01*
X82125001Y-55435000D01*
X81958061Y-55435000D01*
X81758102Y-55474774D01*
X81569744Y-55552795D01*
X81400226Y-55666063D01*
X81256063Y-55810226D01*
X81142795Y-55979744D01*
X81064774Y-56168102D01*
X81025000Y-56368061D01*
X81025000Y-56571939D01*
X81064774Y-56771898D01*
X81106993Y-56873823D01*
X81106992Y-62798704D01*
X81046766Y-62944102D01*
X81006992Y-63144061D01*
X81006992Y-63347939D01*
X81046766Y-63547898D01*
X81124787Y-63736256D01*
X81238055Y-63905774D01*
X81382218Y-64049937D01*
X81551736Y-64163205D01*
X81740094Y-64241226D01*
X81940053Y-64281000D01*
X82125000Y-64281000D01*
X82125000Y-68109772D01*
X82120960Y-68150791D01*
X82129630Y-68238814D01*
X82137082Y-68314479D01*
X82184828Y-68471877D01*
X82262364Y-68616936D01*
X82335641Y-68706225D01*
X82364774Y-68852689D01*
X82442795Y-69041047D01*
X82458800Y-69065000D01*
X81958711Y-69065000D01*
X81939774Y-69046063D01*
X81770256Y-68932795D01*
X81581898Y-68854774D01*
X81381939Y-68815000D01*
X81178061Y-68815000D01*
X80978102Y-68854774D01*
X80789744Y-68932795D01*
X80620226Y-69046063D01*
X80476063Y-69190226D01*
X80362795Y-69359744D01*
X80284774Y-69548102D01*
X80245000Y-69748061D01*
X69240000Y-69748061D01*
X69240000Y-57488967D01*
X70615000Y-57488967D01*
X70615000Y-57811033D01*
X70677832Y-58126912D01*
X70801082Y-58424463D01*
X70980013Y-58692252D01*
X71207748Y-58919987D01*
X71475537Y-59098918D01*
X71773088Y-59222168D01*
X72088967Y-59285000D01*
X72411033Y-59285000D01*
X72726912Y-59222168D01*
X73024463Y-59098918D01*
X73292252Y-58919987D01*
X73519987Y-58692252D01*
X73698918Y-58424463D01*
X73822168Y-58126912D01*
X73885000Y-57811033D01*
X73885000Y-57488967D01*
X77115000Y-57488967D01*
X77115000Y-57811033D01*
X77177832Y-58126912D01*
X77301082Y-58424463D01*
X77480013Y-58692252D01*
X77707748Y-58919987D01*
X77975537Y-59098918D01*
X78273088Y-59222168D01*
X78588967Y-59285000D01*
X78911033Y-59285000D01*
X79226912Y-59222168D01*
X79524463Y-59098918D01*
X79792252Y-58919987D01*
X80019987Y-58692252D01*
X80198918Y-58424463D01*
X80322168Y-58126912D01*
X80385000Y-57811033D01*
X80385000Y-57488967D01*
X80322168Y-57173088D01*
X80198918Y-56875537D01*
X80019987Y-56607748D01*
X79792252Y-56380013D01*
X79524463Y-56201082D01*
X79226912Y-56077832D01*
X78911033Y-56015000D01*
X78588967Y-56015000D01*
X78273088Y-56077832D01*
X77975537Y-56201082D01*
X77707748Y-56380013D01*
X77480013Y-56607748D01*
X77301082Y-56875537D01*
X77177832Y-57173088D01*
X77115000Y-57488967D01*
X73885000Y-57488967D01*
X73822168Y-57173088D01*
X73698918Y-56875537D01*
X73519987Y-56607748D01*
X73292252Y-56380013D01*
X73024463Y-56201082D01*
X72726912Y-56077832D01*
X72411033Y-56015000D01*
X72088967Y-56015000D01*
X71773088Y-56077832D01*
X71475537Y-56201082D01*
X71207748Y-56380013D01*
X70980013Y-56607748D01*
X70801082Y-56875537D01*
X70677832Y-57173088D01*
X70615000Y-57488967D01*
X69240000Y-57488967D01*
X69240000Y-54285413D01*
X71294192Y-54285413D01*
X71389956Y-54549814D01*
X71679571Y-54690704D01*
X71991108Y-54772384D01*
X72312595Y-54791718D01*
X72631675Y-54747961D01*
X72936088Y-54642795D01*
X73110044Y-54549814D01*
X73205808Y-54285413D01*
X77794192Y-54285413D01*
X77889956Y-54549814D01*
X78179571Y-54690704D01*
X78491108Y-54772384D01*
X78812595Y-54791718D01*
X79131675Y-54747961D01*
X79436088Y-54642795D01*
X79610044Y-54549814D01*
X79705808Y-54285413D01*
X78750000Y-53329605D01*
X77794192Y-54285413D01*
X73205808Y-54285413D01*
X72250000Y-53329605D01*
X71294192Y-54285413D01*
X69240000Y-54285413D01*
X69240000Y-53212595D01*
X70608282Y-53212595D01*
X70652039Y-53531675D01*
X70757205Y-53836088D01*
X70850186Y-54010044D01*
X71114587Y-54105808D01*
X72070395Y-53150000D01*
X72429605Y-53150000D01*
X73385413Y-54105808D01*
X73649814Y-54010044D01*
X73790704Y-53720429D01*
X73872384Y-53408892D01*
X73884189Y-53212595D01*
X77108282Y-53212595D01*
X77152039Y-53531675D01*
X77257205Y-53836088D01*
X77350186Y-54010044D01*
X77614587Y-54105808D01*
X78570395Y-53150000D01*
X78929605Y-53150000D01*
X79885413Y-54105808D01*
X80149814Y-54010044D01*
X80290704Y-53720429D01*
X80372384Y-53408892D01*
X80391718Y-53087405D01*
X80347961Y-52768325D01*
X80242795Y-52463912D01*
X80149814Y-52289956D01*
X79885413Y-52194192D01*
X78929605Y-53150000D01*
X78570395Y-53150000D01*
X77614587Y-52194192D01*
X77350186Y-52289956D01*
X77209296Y-52579571D01*
X77127616Y-52891108D01*
X77108282Y-53212595D01*
X73884189Y-53212595D01*
X73891718Y-53087405D01*
X73847961Y-52768325D01*
X73742795Y-52463912D01*
X73649814Y-52289956D01*
X73385413Y-52194192D01*
X72429605Y-53150000D01*
X72070395Y-53150000D01*
X71114587Y-52194192D01*
X70850186Y-52289956D01*
X70709296Y-52579571D01*
X70627616Y-52891108D01*
X70608282Y-53212595D01*
X69240000Y-53212595D01*
X69240000Y-52014587D01*
X71294192Y-52014587D01*
X72250000Y-52970395D01*
X73205808Y-52014587D01*
X77794192Y-52014587D01*
X78750000Y-52970395D01*
X79705808Y-52014587D01*
X79610044Y-51750186D01*
X79320429Y-51609296D01*
X79008892Y-51527616D01*
X78687405Y-51508282D01*
X78368325Y-51552039D01*
X78063912Y-51657205D01*
X77889956Y-51750186D01*
X77794192Y-52014587D01*
X73205808Y-52014587D01*
X73110044Y-51750186D01*
X72820429Y-51609296D01*
X72508892Y-51527616D01*
X72187405Y-51508282D01*
X71868325Y-51552039D01*
X71563912Y-51657205D01*
X71389956Y-51750186D01*
X71294192Y-52014587D01*
X69240000Y-52014587D01*
X69240000Y-50000881D01*
X72853724Y-50000881D01*
X73213912Y-50490548D01*
X73877882Y-50850849D01*
X74599385Y-51074694D01*
X75350695Y-51153480D01*
X76102938Y-51084178D01*
X76827208Y-50869452D01*
X77495670Y-50517555D01*
X77536088Y-50490548D01*
X77896276Y-50000881D01*
X75375000Y-47479605D01*
X72853724Y-50000881D01*
X69240000Y-50000881D01*
X69240000Y-47275695D01*
X71521520Y-47275695D01*
X71590822Y-48027938D01*
X71805548Y-48752208D01*
X72157445Y-49420670D01*
X72184452Y-49461088D01*
X72674119Y-49821276D01*
X75195395Y-47300000D01*
X75554605Y-47300000D01*
X78075881Y-49821276D01*
X78565548Y-49461088D01*
X78925849Y-48797118D01*
X79149694Y-48075615D01*
X79228480Y-47324305D01*
X79159178Y-46572062D01*
X78944452Y-45847792D01*
X78592555Y-45179330D01*
X78565548Y-45138912D01*
X78075881Y-44778724D01*
X75554605Y-47300000D01*
X75195395Y-47300000D01*
X72674119Y-44778724D01*
X72184452Y-45138912D01*
X71824151Y-45802882D01*
X71600306Y-46524385D01*
X71521520Y-47275695D01*
X69240000Y-47275695D01*
X69240000Y-43840000D01*
X73714877Y-43840000D01*
X73254330Y-44082445D01*
M02*
