%TF.GenerationSoftware,KiCad,Pcbnew,(6.0.0)*%
%TF.CreationDate,2022-05-13T18:09:15+02:00*%
%TF.ProjectId,Carte Bras ENORME Robot,43617274-6520-4427-9261-7320454e4f52,rev?*%
%TF.SameCoordinates,Original*%
%TF.FileFunction,Copper,L1,Top*%
%TF.FilePolarity,Positive*%
%FSLAX46Y46*%
G04 Gerber Fmt 4.6, Leading zero omitted, Abs format (unit mm)*
G04 Created by KiCad (PCBNEW (6.0.0)) date 2022-05-13 18:09:15*
%MOMM*%
%LPD*%
G01*
G04 APERTURE LIST*
G04 Aperture macros list*
%AMRoundRect*
0 Rectangle with rounded corners*
0 $1 Rounding radius*
0 $2 $3 $4 $5 $6 $7 $8 $9 X,Y pos of 4 corners*
0 Add a 4 corners polygon primitive as box body*
4,1,4,$2,$3,$4,$5,$6,$7,$8,$9,$2,$3,0*
0 Add four circle primitives for the rounded corners*
1,1,$1+$1,$2,$3*
1,1,$1+$1,$4,$5*
1,1,$1+$1,$6,$7*
1,1,$1+$1,$8,$9*
0 Add four rect primitives between the rounded corners*
20,1,$1+$1,$2,$3,$4,$5,0*
20,1,$1+$1,$4,$5,$6,$7,0*
20,1,$1+$1,$6,$7,$8,$9,0*
20,1,$1+$1,$8,$9,$2,$3,0*%
G04 Aperture macros list end*
%TA.AperFunction,ComponentPad*%
%ADD10RoundRect,0.250000X0.350000X0.625000X-0.350000X0.625000X-0.350000X-0.625000X0.350000X-0.625000X0*%
%TD*%
%TA.AperFunction,ComponentPad*%
%ADD11O,1.200000X1.750000*%
%TD*%
%TA.AperFunction,ComponentPad*%
%ADD12R,2.000000X2.000000*%
%TD*%
%TA.AperFunction,ComponentPad*%
%ADD13C,2.000000*%
%TD*%
%TA.AperFunction,ComponentPad*%
%ADD14C,1.600000*%
%TD*%
%TA.AperFunction,ComponentPad*%
%ADD15O,1.600000X1.600000*%
%TD*%
%TA.AperFunction,ComponentPad*%
%ADD16R,1.050000X2.000000*%
%TD*%
%TA.AperFunction,ComponentPad*%
%ADD17O,1.050000X2.000000*%
%TD*%
%TA.AperFunction,ComponentPad*%
%ADD18R,1.800000X1.800000*%
%TD*%
%TA.AperFunction,ComponentPad*%
%ADD19O,1.800000X1.800000*%
%TD*%
%TA.AperFunction,ComponentPad*%
%ADD20RoundRect,0.250000X-0.350000X-0.625000X0.350000X-0.625000X0.350000X0.625000X-0.350000X0.625000X0*%
%TD*%
%TA.AperFunction,ComponentPad*%
%ADD21R,2.000000X1.905000*%
%TD*%
%TA.AperFunction,ComponentPad*%
%ADD22O,2.000000X1.905000*%
%TD*%
%TA.AperFunction,ComponentPad*%
%ADD23R,1.600000X1.600000*%
%TD*%
%TA.AperFunction,ComponentPad*%
%ADD24RoundRect,0.250001X-0.499999X-0.759999X0.499999X-0.759999X0.499999X0.759999X-0.499999X0.759999X0*%
%TD*%
%TA.AperFunction,ComponentPad*%
%ADD25O,1.500000X2.020000*%
%TD*%
%TA.AperFunction,ComponentPad*%
%ADD26RoundRect,0.250000X-0.625000X0.350000X-0.625000X-0.350000X0.625000X-0.350000X0.625000X0.350000X0*%
%TD*%
%TA.AperFunction,ComponentPad*%
%ADD27O,1.750000X1.200000*%
%TD*%
%TA.AperFunction,SMDPad,CuDef*%
%ADD28C,2.000000*%
%TD*%
%TA.AperFunction,ViaPad*%
%ADD29C,1.600000*%
%TD*%
%TA.AperFunction,Conductor*%
%ADD30C,1.000000*%
%TD*%
G04 APERTURE END LIST*
D10*
%TO.P,BUS_CAN1,1,Pin_1*%
%TO.N,GND*%
X159000000Y-47514400D03*
D11*
%TO.P,BUS_CAN1,2,Pin_2*%
%TO.N,CAN_H*%
X157000000Y-47514400D03*
%TO.P,BUS_CAN1,3,Pin_3*%
%TO.N,CAN_L*%
X155000000Y-47514400D03*
%TO.P,BUS_CAN1,4,Pin_4*%
%TO.N,+5V*%
X153000000Y-47514400D03*
%TO.P,BUS_CAN1,5,Pin_5*%
%TO.N,+12V*%
X151000000Y-47514400D03*
%TD*%
D12*
%TO.P,STM32FM303K8,3.1,PA9*%
%TO.N,unconnected-(STM32FM303K8-Pad3.1)*%
X168880000Y-54720000D03*
D13*
%TO.P,STM32FM303K8,3.2,PA10*%
%TO.N,unconnected-(STM32FM303K8-Pad3.2)*%
X168880000Y-57260000D03*
%TO.P,STM32FM303K8,3.3,NRST*%
%TO.N,unconnected-(STM32FM303K8-Pad3.3)*%
X168880000Y-59800000D03*
%TO.P,STM32FM303K8,3.4,GND*%
%TO.N,GND*%
X168880000Y-62340000D03*
%TO.P,STM32FM303K8,3.5,PA12*%
%TO.N,CAN_TX*%
X168880000Y-64880000D03*
%TO.P,STM32FM303K8,3.6,PB0*%
%TO.N,unconnected-(STM32FM303K8-Pad3.6)*%
X168880000Y-67420000D03*
%TO.P,STM32FM303K8,3.7,PB7*%
%TO.N,unconnected-(STM32FM303K8-Pad3.7)*%
X168880000Y-69960000D03*
%TO.P,STM32FM303K8,3.8,PB6*%
%TO.N,POMPE*%
X168880000Y-72500000D03*
%TO.P,STM32FM303K8,3.9,PB1*%
%TO.N,MOT1*%
X168880000Y-75040000D03*
%TO.P,STM32FM303K8,3.10,PF0*%
%TO.N,MOT2*%
X168880000Y-77580000D03*
%TO.P,STM32FM303K8,3.11,PF1*%
%TO.N,unconnected-(STM32FM303K8-Pad3.11)*%
X168880000Y-80120000D03*
%TO.P,STM32FM303K8,3.12,PA8*%
%TO.N,unconnected-(STM32FM303K8-Pad3.12)*%
X168880000Y-82660000D03*
%TO.P,STM32FM303K8,3.13,PA11*%
%TO.N,CAN_RX*%
X168880000Y-85200000D03*
%TO.P,STM32FM303K8,3.14,PB5*%
%TO.N,unconnected-(STM32FM303K8-Pad3.14)*%
X168880000Y-87740000D03*
%TO.P,STM32FM303K8,3.15,PB4*%
%TO.N,unconnected-(STM32FM303K8-Pad3.15)*%
X168880000Y-90280000D03*
D12*
%TO.P,STM32FM303K8,4.1,VIN*%
%TO.N,unconnected-(STM32FM303K8-Pad4.1)*%
X184120000Y-54720000D03*
D13*
%TO.P,STM32FM303K8,4.2,GND*%
%TO.N,GND*%
X184120000Y-57260000D03*
%TO.P,STM32FM303K8,4.3,NRST*%
%TO.N,unconnected-(STM32FM303K8-Pad4.3)*%
X184120000Y-59800000D03*
%TO.P,STM32FM303K8,4.4,+5V*%
%TO.N,+5V*%
X184120000Y-62340000D03*
%TO.P,STM32FM303K8,4.5,PA2*%
%TO.N,unconnected-(STM32FM303K8-Pad4.5)*%
X184120000Y-64880000D03*
%TO.P,STM32FM303K8,4.6,PA7*%
%TO.N,unconnected-(STM32FM303K8-Pad4.6)*%
X184120000Y-67420000D03*
%TO.P,STM32FM303K8,4.7,PA6*%
%TO.N,unconnected-(STM32FM303K8-Pad4.7)*%
X184120000Y-69960000D03*
%TO.P,STM32FM303K8,4.8,PA5*%
%TO.N,unconnected-(STM32FM303K8-Pad4.8)*%
X184120000Y-72500000D03*
%TO.P,STM32FM303K8,4.9,PA4*%
%TO.N,unconnected-(STM32FM303K8-Pad4.9)*%
X184120000Y-75040000D03*
%TO.P,STM32FM303K8,4.10,PA3*%
%TO.N,unconnected-(STM32FM303K8-Pad4.10)*%
X184120000Y-77580000D03*
%TO.P,STM32FM303K8,4.11,PA1*%
%TO.N,unconnected-(STM32FM303K8-Pad4.11)*%
X184120000Y-80120000D03*
%TO.P,STM32FM303K8,4.12,PA0*%
%TO.N,unconnected-(STM32FM303K8-Pad4.12)*%
X184120000Y-82660000D03*
%TO.P,STM32FM303K8,4.13,AREF*%
%TO.N,unconnected-(STM32FM303K8-Pad4.13)*%
X184120000Y-85200000D03*
%TO.P,STM32FM303K8,4.14,+3V3*%
%TO.N,+3V3*%
X184120000Y-87740000D03*
%TO.P,STM32FM303K8,4.15,PB3*%
%TO.N,unconnected-(STM32FM303K8-Pad4.15)*%
X184120000Y-90280000D03*
%TD*%
D14*
%TO.P,R1,1*%
%TO.N,Net-(Q1-Pad1)*%
X167005000Y-99695000D03*
D15*
%TO.P,R1,2*%
%TO.N,GND*%
X177165000Y-99695000D03*
%TD*%
D16*
%TO.P,Q1,1,C*%
%TO.N,Net-(Q1-Pad1)*%
X153162000Y-98425000D03*
D17*
%TO.P,Q1,2,B*%
%TO.N,Net-(Q1-Pad2)*%
X151638000Y-98425000D03*
%TO.P,Q1,3,E*%
%TO.N,+5V*%
X150114000Y-98425000D03*
%TD*%
D18*
%TO.P,D1,1,K*%
%TO.N,+12V*%
X151384000Y-71120000D03*
D19*
%TO.P,D1,2,A*%
%TO.N,Net-(D1-Pad2)*%
X151384000Y-83820000D03*
%TD*%
D14*
%TO.P,R4,1*%
%TO.N,POMPE*%
X161290000Y-73660000D03*
D15*
%TO.P,R4,2*%
%TO.N,Net-(Q1-Pad2)*%
X161290000Y-83820000D03*
%TD*%
D20*
%TO.P,SERVO2,1,Pin_1*%
%TO.N,GND*%
X158000000Y-98425000D03*
D11*
%TO.P,SERVO2,2,Pin_2*%
%TO.N,+12V*%
X160000000Y-98425000D03*
%TO.P,SERVO2,3,Pin_3*%
%TO.N,MOT2*%
X162000000Y-98425000D03*
%TD*%
D14*
%TO.P,R2,1*%
%TO.N,CAN_H*%
X163068000Y-40005000D03*
D15*
%TO.P,R2,2*%
%TO.N,CAN_L*%
X150368000Y-40005000D03*
%TD*%
D10*
%TO.P,PompeAVide1,1,Pin_1*%
%TO.N,Net-(D1-Pad2)*%
X147574000Y-71120000D03*
D11*
%TO.P,PompeAVide1,2,Pin_2*%
%TO.N,+12V*%
X145574000Y-71120000D03*
%TD*%
D14*
%TO.P,R3,1*%
%TO.N,+5V*%
X156845000Y-73660000D03*
D15*
%TO.P,R3,2*%
%TO.N,Net-(Q1-Pad2)*%
X156845000Y-83820000D03*
%TD*%
D21*
%TO.P,U2,1*%
%TO.N,Net-(Q1-Pad1)*%
X163000000Y-92710000D03*
D22*
%TO.P,U2,2*%
%TO.N,Net-(D1-Pad2)*%
X163000000Y-90170000D03*
%TO.P,U2,3*%
%TO.N,GND*%
X163000000Y-87630000D03*
%TD*%
D23*
%TO.P,U1,1,TXD*%
%TO.N,CAN_TX*%
X151350000Y-66600000D03*
D15*
%TO.P,U1,2,VSS*%
%TO.N,GND*%
X153890000Y-66600000D03*
%TO.P,U1,3,VDD*%
%TO.N,+5V*%
X156430000Y-66600000D03*
%TO.P,U1,4,RXD*%
%TO.N,CAN_RX*%
X158970000Y-66600000D03*
%TO.P,U1,5,Vref*%
%TO.N,unconnected-(U1-Pad5)*%
X158970000Y-58980000D03*
%TO.P,U1,6,CANL*%
%TO.N,CAN_L*%
X156430000Y-58980000D03*
%TO.P,U1,7,CANH*%
%TO.N,CAN_H*%
X153890000Y-58980000D03*
%TO.P,U1,8,Rs*%
%TO.N,GND*%
X151350000Y-58980000D03*
%TD*%
D24*
%TO.P,JS1,1*%
%TO.N,MOT1*%
X173736000Y-45245000D03*
D25*
%TO.P,JS1,2*%
%TO.N,+5V*%
X176736000Y-45245000D03*
%TO.P,JS1,3*%
%TO.N,GND*%
X179736000Y-45245000D03*
%TD*%
D26*
%TO.P,SERVO1,1,Pin_1*%
%TO.N,GND*%
X167640000Y-38500000D03*
D27*
%TO.P,SERVO1,2,Pin_2*%
%TO.N,+5V*%
X167640000Y-40500000D03*
%TO.P,SERVO1,3,Pin_3*%
%TO.N,MOT1*%
X167640000Y-42500000D03*
%TD*%
D28*
%TO.P,,1,1*%
%TO.N,GND*%
X149098000Y-54102000D03*
%TD*%
D29*
%TO.N,GND*%
X145288000Y-86360000D03*
X165200000Y-79200000D03*
X153924000Y-71882000D03*
X164592000Y-94996000D03*
X157226000Y-39370000D03*
X158496000Y-85852000D03*
X171704000Y-54864000D03*
X160274000Y-85852000D03*
X160274000Y-94488000D03*
X173990000Y-81788000D03*
X169926000Y-95758000D03*
X148590000Y-64008000D03*
X165000000Y-53500000D03*
X157734000Y-91440000D03*
X183388000Y-94742000D03*
X151638000Y-87122000D03*
X159004000Y-78740000D03*
X146050000Y-46228000D03*
X178816000Y-76962000D03*
X171704000Y-67818000D03*
X165354000Y-97536000D03*
X175006000Y-37846000D03*
X159600000Y-53400000D03*
%TO.N,+5V*%
X154432000Y-83058000D03*
X154432000Y-77724000D03*
%TO.N,CAN_TX*%
X161700000Y-69300000D03*
X154305000Y-69215000D03*
%TD*%
D30*
%TO.N,+5V*%
X154432000Y-77724000D02*
X154432000Y-83058000D01*
%TO.N,CAN_TX*%
X161615000Y-69215000D02*
X154305000Y-69215000D01*
X161700000Y-69300000D02*
X161615000Y-69215000D01*
%TD*%
%TA.AperFunction,Conductor*%
%TO.N,GND*%
G36*
X183337061Y-33528002D02*
G01*
X183383554Y-33581658D01*
X183393658Y-33651932D01*
X183364164Y-33716512D01*
X183341391Y-33737087D01*
X183169977Y-33857559D01*
X183154892Y-33871577D01*
X182991999Y-34022947D01*
X182959378Y-34053260D01*
X182777287Y-34275732D01*
X182627073Y-34520858D01*
X182511517Y-34784102D01*
X182432756Y-35060594D01*
X182392249Y-35345216D01*
X182392227Y-35349505D01*
X182392226Y-35349512D01*
X182390765Y-35628417D01*
X182390743Y-35632703D01*
X182428268Y-35917734D01*
X182504129Y-36195036D01*
X182616923Y-36459476D01*
X182628693Y-36479142D01*
X182721748Y-36634625D01*
X182764561Y-36706161D01*
X182944313Y-36930528D01*
X183152851Y-37128423D01*
X183386317Y-37296186D01*
X183390112Y-37298195D01*
X183390113Y-37298196D01*
X183411869Y-37309715D01*
X183640392Y-37430712D01*
X183910373Y-37529511D01*
X184191264Y-37590755D01*
X184219841Y-37593004D01*
X184414282Y-37608307D01*
X184414291Y-37608307D01*
X184416739Y-37608500D01*
X184572271Y-37608500D01*
X184574407Y-37608354D01*
X184574418Y-37608354D01*
X184782548Y-37594165D01*
X184782554Y-37594164D01*
X184786825Y-37593873D01*
X184791020Y-37593004D01*
X184791022Y-37593004D01*
X184964401Y-37557099D01*
X185068342Y-37535574D01*
X185339343Y-37439607D01*
X185594812Y-37307750D01*
X185598313Y-37305289D01*
X185598317Y-37305287D01*
X185712418Y-37225095D01*
X185830023Y-37142441D01*
X186040622Y-36946740D01*
X186222713Y-36724268D01*
X186224948Y-36720621D01*
X186224960Y-36720604D01*
X186258568Y-36665760D01*
X186311215Y-36618129D01*
X186381257Y-36606522D01*
X186446454Y-36634625D01*
X186486108Y-36693516D01*
X186492000Y-36731595D01*
X186492000Y-99266636D01*
X186471998Y-99334757D01*
X186418342Y-99381250D01*
X186348068Y-99391354D01*
X186283488Y-99361860D01*
X186257884Y-99331342D01*
X186237643Y-99297521D01*
X186237640Y-99297517D01*
X186235439Y-99293839D01*
X186055687Y-99069472D01*
X185847149Y-98871577D01*
X185613683Y-98703814D01*
X185592691Y-98692699D01*
X185568654Y-98679972D01*
X185359608Y-98569288D01*
X185089627Y-98470489D01*
X184808736Y-98409245D01*
X184777685Y-98406801D01*
X184585718Y-98391693D01*
X184585709Y-98391693D01*
X184583261Y-98391500D01*
X184427729Y-98391500D01*
X184425593Y-98391646D01*
X184425582Y-98391646D01*
X184217452Y-98405835D01*
X184217446Y-98405836D01*
X184213175Y-98406127D01*
X184208980Y-98406996D01*
X184208978Y-98406996D01*
X184112223Y-98427033D01*
X183931658Y-98464426D01*
X183660657Y-98560393D01*
X183405188Y-98692250D01*
X183401687Y-98694711D01*
X183401683Y-98694713D01*
X183287582Y-98774905D01*
X183169977Y-98857559D01*
X183154892Y-98871577D01*
X182969893Y-99043489D01*
X182959378Y-99053260D01*
X182777287Y-99275732D01*
X182627073Y-99520858D01*
X182625347Y-99524791D01*
X182625346Y-99524792D01*
X182513517Y-99779546D01*
X182511517Y-99784102D01*
X182510342Y-99788229D01*
X182510341Y-99788230D01*
X182503509Y-99812213D01*
X182432756Y-100060594D01*
X182392249Y-100345216D01*
X182392227Y-100349505D01*
X182392226Y-100349512D01*
X182390765Y-100628417D01*
X182390743Y-100632703D01*
X182391302Y-100636947D01*
X182391302Y-100636951D01*
X182400126Y-100703972D01*
X182428268Y-100917734D01*
X182429401Y-100921874D01*
X182429401Y-100921876D01*
X182444344Y-100976498D01*
X182504129Y-101195036D01*
X182505813Y-101198984D01*
X182536999Y-101272097D01*
X182616923Y-101459476D01*
X182628693Y-101479142D01*
X182701804Y-101601301D01*
X182764561Y-101706161D01*
X182944313Y-101930528D01*
X183152851Y-102128423D01*
X183329211Y-102255151D01*
X183341078Y-102263678D01*
X183384726Y-102319672D01*
X183391172Y-102390376D01*
X183358369Y-102453340D01*
X183296733Y-102488574D01*
X183267552Y-102492000D01*
X146731060Y-102492000D01*
X146662939Y-102471998D01*
X146616446Y-102418342D01*
X146606342Y-102348068D01*
X146635836Y-102283488D01*
X146658609Y-102262913D01*
X146730670Y-102212268D01*
X146830023Y-102142441D01*
X146908403Y-102069606D01*
X147037479Y-101949661D01*
X147037481Y-101949658D01*
X147040622Y-101946740D01*
X147222713Y-101724268D01*
X147372927Y-101479142D01*
X147488483Y-101215898D01*
X147567244Y-100939406D01*
X147607751Y-100654784D01*
X147607845Y-100636951D01*
X147609235Y-100371583D01*
X147609235Y-100371576D01*
X147609257Y-100367297D01*
X147606521Y-100346511D01*
X147580547Y-100149225D01*
X147571732Y-100082266D01*
X147495871Y-99804964D01*
X147436310Y-99665326D01*
X147384763Y-99544476D01*
X147384761Y-99544472D01*
X147383077Y-99540524D01*
X147288125Y-99381871D01*
X147237643Y-99297521D01*
X147237640Y-99297517D01*
X147235439Y-99293839D01*
X147055687Y-99069472D01*
X146930848Y-98951004D01*
X149080500Y-98951004D01*
X149095277Y-99101713D01*
X149153858Y-99295742D01*
X149249010Y-99474698D01*
X149377110Y-99631763D01*
X149381857Y-99635690D01*
X149381859Y-99635692D01*
X149528528Y-99757027D01*
X149528531Y-99757029D01*
X149533278Y-99760956D01*
X149711565Y-99857356D01*
X149780733Y-99878767D01*
X149899293Y-99915468D01*
X149899296Y-99915469D01*
X149905180Y-99917290D01*
X149911305Y-99917934D01*
X149911306Y-99917934D01*
X150100622Y-99937832D01*
X150100623Y-99937832D01*
X150106750Y-99938476D01*
X150190014Y-99930898D01*
X150302457Y-99920665D01*
X150302460Y-99920664D01*
X150308596Y-99920106D01*
X150314502Y-99918368D01*
X150314506Y-99918367D01*
X150497120Y-99864620D01*
X150497119Y-99864620D01*
X150503029Y-99862881D01*
X150508486Y-99860028D01*
X150508489Y-99860027D01*
X150615902Y-99803873D01*
X150682645Y-99768981D01*
X150797464Y-99676664D01*
X150863086Y-99649568D01*
X150932941Y-99662251D01*
X150956724Y-99677771D01*
X151057278Y-99760956D01*
X151235565Y-99857356D01*
X151304733Y-99878767D01*
X151423293Y-99915468D01*
X151423296Y-99915469D01*
X151429180Y-99917290D01*
X151435305Y-99917934D01*
X151435306Y-99917934D01*
X151624622Y-99937832D01*
X151624623Y-99937832D01*
X151630750Y-99938476D01*
X151714014Y-99930898D01*
X151826457Y-99920665D01*
X151826460Y-99920664D01*
X151832596Y-99920106D01*
X151838502Y-99918368D01*
X151838506Y-99918367D01*
X152021120Y-99864620D01*
X152021119Y-99864620D01*
X152027029Y-99862881D01*
X152032486Y-99860028D01*
X152032489Y-99860027D01*
X152160630Y-99793037D01*
X152230266Y-99779203D01*
X152294570Y-99803873D01*
X152390295Y-99875615D01*
X152526684Y-99926745D01*
X152588866Y-99933500D01*
X153735134Y-99933500D01*
X153797316Y-99926745D01*
X153933705Y-99875615D01*
X154050261Y-99788261D01*
X154137615Y-99671705D01*
X154188745Y-99535316D01*
X154195500Y-99473134D01*
X154195500Y-99097095D01*
X156892001Y-99097095D01*
X156892338Y-99103614D01*
X156902257Y-99199206D01*
X156905149Y-99212600D01*
X156956588Y-99366784D01*
X156962761Y-99379962D01*
X157048063Y-99517807D01*
X157057099Y-99529208D01*
X157171829Y-99643739D01*
X157183240Y-99652751D01*
X157321243Y-99737816D01*
X157334424Y-99743963D01*
X157487854Y-99794854D01*
X157496675Y-99793218D01*
X157500000Y-99780979D01*
X157500000Y-99779546D01*
X158500000Y-99779546D01*
X158504204Y-99793864D01*
X158511577Y-99795072D01*
X158512599Y-99794852D01*
X158666784Y-99743412D01*
X158679962Y-99737239D01*
X158817807Y-99651937D01*
X158829208Y-99642901D01*
X158943739Y-99528171D01*
X158952751Y-99516760D01*
X158980745Y-99471345D01*
X159033517Y-99423852D01*
X159103589Y-99412428D01*
X159168713Y-99440702D01*
X159187088Y-99459625D01*
X159193604Y-99467920D01*
X159198135Y-99471852D01*
X159198138Y-99471855D01*
X159281827Y-99544476D01*
X159353363Y-99606552D01*
X159358549Y-99609552D01*
X159358553Y-99609555D01*
X159449642Y-99662251D01*
X159536454Y-99712473D01*
X159736271Y-99781861D01*
X159742206Y-99782722D01*
X159742208Y-99782722D01*
X159939664Y-99811352D01*
X159939667Y-99811352D01*
X159945604Y-99812213D01*
X160156899Y-99802433D01*
X160329003Y-99760956D01*
X160356701Y-99754281D01*
X160356703Y-99754280D01*
X160362534Y-99752875D01*
X160367992Y-99750393D01*
X160367996Y-99750392D01*
X160525252Y-99678891D01*
X160555087Y-99665326D01*
X160727611Y-99542946D01*
X160873881Y-99390150D01*
X160880459Y-99379962D01*
X160894746Y-99357837D01*
X160948501Y-99311460D01*
X161018797Y-99301507D01*
X161083314Y-99331139D01*
X161099681Y-99348351D01*
X161193604Y-99467920D01*
X161198135Y-99471852D01*
X161198138Y-99471855D01*
X161281827Y-99544476D01*
X161353363Y-99606552D01*
X161358549Y-99609552D01*
X161358553Y-99609555D01*
X161449642Y-99662251D01*
X161536454Y-99712473D01*
X161736271Y-99781861D01*
X161742206Y-99782722D01*
X161742208Y-99782722D01*
X161939664Y-99811352D01*
X161939667Y-99811352D01*
X161945604Y-99812213D01*
X162156899Y-99802433D01*
X162329003Y-99760956D01*
X162356701Y-99754281D01*
X162356703Y-99754280D01*
X162362534Y-99752875D01*
X162367992Y-99750393D01*
X162367996Y-99750392D01*
X162489823Y-99695000D01*
X165691502Y-99695000D01*
X165711457Y-99923087D01*
X165712881Y-99928400D01*
X165712881Y-99928402D01*
X165755250Y-100086522D01*
X165770716Y-100144243D01*
X165773039Y-100149224D01*
X165773039Y-100149225D01*
X165865151Y-100346762D01*
X165865154Y-100346767D01*
X165867477Y-100351749D01*
X165998802Y-100539300D01*
X166160700Y-100701198D01*
X166165208Y-100704355D01*
X166165211Y-100704357D01*
X166243389Y-100759098D01*
X166348251Y-100832523D01*
X166353233Y-100834846D01*
X166353238Y-100834849D01*
X166539870Y-100921876D01*
X166555757Y-100929284D01*
X166561065Y-100930706D01*
X166561067Y-100930707D01*
X166771598Y-100987119D01*
X166771600Y-100987119D01*
X166776913Y-100988543D01*
X167005000Y-101008498D01*
X167233087Y-100988543D01*
X167238400Y-100987119D01*
X167238402Y-100987119D01*
X167448933Y-100930707D01*
X167448935Y-100930706D01*
X167454243Y-100929284D01*
X167470130Y-100921876D01*
X167656762Y-100834849D01*
X167656767Y-100834846D01*
X167661749Y-100832523D01*
X167766611Y-100759098D01*
X167844789Y-100704357D01*
X167844792Y-100704355D01*
X167849300Y-100701198D01*
X168011198Y-100539300D01*
X168142523Y-100351749D01*
X168144846Y-100346767D01*
X168144849Y-100346762D01*
X168236961Y-100149225D01*
X168236961Y-100149224D01*
X168239284Y-100144243D01*
X168254751Y-100086522D01*
X168288245Y-99961522D01*
X175882273Y-99961522D01*
X175929764Y-100138761D01*
X175933510Y-100149053D01*
X176025586Y-100346511D01*
X176031069Y-100356007D01*
X176156028Y-100534467D01*
X176163084Y-100542875D01*
X176317125Y-100696916D01*
X176325533Y-100703972D01*
X176503993Y-100828931D01*
X176513489Y-100834414D01*
X176710947Y-100926490D01*
X176721239Y-100930236D01*
X176893503Y-100976394D01*
X176907599Y-100976058D01*
X176911000Y-100968116D01*
X176911000Y-100962967D01*
X177419000Y-100962967D01*
X177422973Y-100976498D01*
X177431522Y-100977727D01*
X177608761Y-100930236D01*
X177619053Y-100926490D01*
X177816511Y-100834414D01*
X177826007Y-100828931D01*
X178004467Y-100703972D01*
X178012875Y-100696916D01*
X178166916Y-100542875D01*
X178173972Y-100534467D01*
X178298931Y-100356007D01*
X178304414Y-100346511D01*
X178396490Y-100149053D01*
X178400236Y-100138761D01*
X178446394Y-99966497D01*
X178446058Y-99952401D01*
X178438116Y-99949000D01*
X177437115Y-99949000D01*
X177421876Y-99953475D01*
X177420671Y-99954865D01*
X177419000Y-99962548D01*
X177419000Y-100962967D01*
X176911000Y-100962967D01*
X176911000Y-99967115D01*
X176906525Y-99951876D01*
X176905135Y-99950671D01*
X176897452Y-99949000D01*
X175897033Y-99949000D01*
X175883502Y-99952973D01*
X175882273Y-99961522D01*
X168288245Y-99961522D01*
X168297119Y-99928402D01*
X168297119Y-99928400D01*
X168298543Y-99923087D01*
X168318498Y-99695000D01*
X168298543Y-99466913D01*
X168288244Y-99428478D01*
X168286911Y-99423503D01*
X175883606Y-99423503D01*
X175883942Y-99437599D01*
X175891884Y-99441000D01*
X176892885Y-99441000D01*
X176908124Y-99436525D01*
X176909329Y-99435135D01*
X176911000Y-99427452D01*
X176911000Y-99422885D01*
X177419000Y-99422885D01*
X177423475Y-99438124D01*
X177424865Y-99439329D01*
X177432548Y-99441000D01*
X178432967Y-99441000D01*
X178446498Y-99437027D01*
X178447727Y-99428478D01*
X178400236Y-99251239D01*
X178396490Y-99240947D01*
X178304414Y-99043489D01*
X178298931Y-99033993D01*
X178173972Y-98855533D01*
X178166916Y-98847125D01*
X178012875Y-98693084D01*
X178004467Y-98686028D01*
X177826007Y-98561069D01*
X177816511Y-98555586D01*
X177619053Y-98463510D01*
X177608761Y-98459764D01*
X177436497Y-98413606D01*
X177422401Y-98413942D01*
X177419000Y-98421884D01*
X177419000Y-99422885D01*
X176911000Y-99422885D01*
X176911000Y-98427033D01*
X176907027Y-98413502D01*
X176898478Y-98412273D01*
X176721239Y-98459764D01*
X176710947Y-98463510D01*
X176513489Y-98555586D01*
X176503993Y-98561069D01*
X176325533Y-98686028D01*
X176317125Y-98693084D01*
X176163084Y-98847125D01*
X176156028Y-98855533D01*
X176031069Y-99033993D01*
X176025586Y-99043489D01*
X175933510Y-99240947D01*
X175929764Y-99251239D01*
X175883606Y-99423503D01*
X168286911Y-99423503D01*
X168240707Y-99251067D01*
X168240706Y-99251065D01*
X168239284Y-99245757D01*
X168217577Y-99199206D01*
X168144849Y-99043238D01*
X168144846Y-99043233D01*
X168142523Y-99038251D01*
X168027882Y-98874527D01*
X168014357Y-98855211D01*
X168014355Y-98855208D01*
X168011198Y-98850700D01*
X167849300Y-98688802D01*
X167844792Y-98685645D01*
X167844789Y-98685643D01*
X167766611Y-98630902D01*
X167661749Y-98557477D01*
X167656767Y-98555154D01*
X167656762Y-98555151D01*
X167459225Y-98463039D01*
X167459224Y-98463039D01*
X167454243Y-98460716D01*
X167448935Y-98459294D01*
X167448933Y-98459293D01*
X167238402Y-98402881D01*
X167238400Y-98402881D01*
X167233087Y-98401457D01*
X167005000Y-98381502D01*
X166776913Y-98401457D01*
X166771600Y-98402881D01*
X166771598Y-98402881D01*
X166561067Y-98459293D01*
X166561065Y-98459294D01*
X166555757Y-98460716D01*
X166550776Y-98463039D01*
X166550775Y-98463039D01*
X166353238Y-98555151D01*
X166353233Y-98555154D01*
X166348251Y-98557477D01*
X166243389Y-98630902D01*
X166165211Y-98685643D01*
X166165208Y-98685645D01*
X166160700Y-98688802D01*
X165998802Y-98850700D01*
X165995645Y-98855208D01*
X165995643Y-98855211D01*
X165982118Y-98874527D01*
X165867477Y-99038251D01*
X165865154Y-99043233D01*
X165865151Y-99043238D01*
X165792423Y-99199206D01*
X165770716Y-99245757D01*
X165769294Y-99251065D01*
X165769293Y-99251067D01*
X165721756Y-99428478D01*
X165711457Y-99466913D01*
X165691502Y-99695000D01*
X162489823Y-99695000D01*
X162525252Y-99678891D01*
X162555087Y-99665326D01*
X162727611Y-99542946D01*
X162873881Y-99390150D01*
X162988620Y-99212452D01*
X163035721Y-99095580D01*
X163065442Y-99021832D01*
X163065443Y-99021829D01*
X163067686Y-99016263D01*
X163108228Y-98808663D01*
X163108500Y-98803101D01*
X163108500Y-98097154D01*
X163093452Y-97939434D01*
X163033908Y-97736466D01*
X163031164Y-97731138D01*
X162939804Y-97553751D01*
X162939802Y-97553748D01*
X162937058Y-97548420D01*
X162806396Y-97382080D01*
X162801865Y-97378148D01*
X162801862Y-97378145D01*
X162651167Y-97247379D01*
X162646637Y-97243448D01*
X162641451Y-97240448D01*
X162641447Y-97240445D01*
X162468742Y-97140533D01*
X162463546Y-97137527D01*
X162263729Y-97068139D01*
X162257794Y-97067278D01*
X162257792Y-97067278D01*
X162060336Y-97038648D01*
X162060333Y-97038648D01*
X162054396Y-97037787D01*
X161843101Y-97047567D01*
X161716138Y-97078165D01*
X161643299Y-97095719D01*
X161643297Y-97095720D01*
X161637466Y-97097125D01*
X161632008Y-97099607D01*
X161632004Y-97099608D01*
X161516959Y-97151916D01*
X161444913Y-97184674D01*
X161272389Y-97307054D01*
X161126119Y-97459850D01*
X161122866Y-97464888D01*
X161105254Y-97492163D01*
X161051499Y-97538540D01*
X160981203Y-97548493D01*
X160916686Y-97518861D01*
X160900317Y-97501647D01*
X160876435Y-97471243D01*
X160806396Y-97382080D01*
X160801865Y-97378148D01*
X160801862Y-97378145D01*
X160651167Y-97247379D01*
X160646637Y-97243448D01*
X160641451Y-97240448D01*
X160641447Y-97240445D01*
X160468742Y-97140533D01*
X160463546Y-97137527D01*
X160263729Y-97068139D01*
X160257794Y-97067278D01*
X160257792Y-97067278D01*
X160060336Y-97038648D01*
X160060333Y-97038648D01*
X160054396Y-97037787D01*
X159843101Y-97047567D01*
X159716138Y-97078165D01*
X159643299Y-97095719D01*
X159643297Y-97095720D01*
X159637466Y-97097125D01*
X159632008Y-97099607D01*
X159632004Y-97099608D01*
X159516959Y-97151916D01*
X159444913Y-97184674D01*
X159272389Y-97307054D01*
X159268251Y-97311377D01*
X159268246Y-97311381D01*
X159180836Y-97402691D01*
X159119280Y-97438067D01*
X159048371Y-97434548D01*
X158990621Y-97393251D01*
X158982674Y-97381863D01*
X158951937Y-97332193D01*
X158942901Y-97320792D01*
X158828171Y-97206261D01*
X158816760Y-97197249D01*
X158678757Y-97112184D01*
X158665576Y-97106037D01*
X158512146Y-97055146D01*
X158503325Y-97056782D01*
X158500000Y-97069021D01*
X158500000Y-99779546D01*
X157500000Y-99779546D01*
X157500000Y-98943115D01*
X157495525Y-98927876D01*
X157494135Y-98926671D01*
X157486452Y-98925000D01*
X156910116Y-98925000D01*
X156894877Y-98929475D01*
X156893672Y-98930865D01*
X156892001Y-98938548D01*
X156892001Y-99097095D01*
X154195500Y-99097095D01*
X154195500Y-97906885D01*
X156892000Y-97906885D01*
X156896475Y-97922124D01*
X156897865Y-97923329D01*
X156905548Y-97925000D01*
X157481885Y-97925000D01*
X157497124Y-97920525D01*
X157498329Y-97919135D01*
X157500000Y-97911452D01*
X157500000Y-97070454D01*
X157495796Y-97056136D01*
X157488423Y-97054928D01*
X157487401Y-97055148D01*
X157333216Y-97106588D01*
X157320038Y-97112761D01*
X157182193Y-97198063D01*
X157170792Y-97207099D01*
X157056261Y-97321829D01*
X157047249Y-97333240D01*
X156962184Y-97471243D01*
X156956037Y-97484424D01*
X156904862Y-97638710D01*
X156901995Y-97652086D01*
X156892328Y-97746438D01*
X156892000Y-97752855D01*
X156892000Y-97906885D01*
X154195500Y-97906885D01*
X154195500Y-97376866D01*
X154188745Y-97314684D01*
X154137615Y-97178295D01*
X154050261Y-97061739D01*
X153933705Y-96974385D01*
X153797316Y-96923255D01*
X153735134Y-96916500D01*
X152588866Y-96916500D01*
X152526684Y-96923255D01*
X152390295Y-96974385D01*
X152383110Y-96979770D01*
X152383108Y-96979771D01*
X152294061Y-97046508D01*
X152227554Y-97071356D01*
X152158567Y-97056518D01*
X152123925Y-97037787D01*
X152040435Y-96992644D01*
X151943627Y-96962677D01*
X151852707Y-96934532D01*
X151852704Y-96934531D01*
X151846820Y-96932710D01*
X151840695Y-96932066D01*
X151840694Y-96932066D01*
X151651378Y-96912168D01*
X151651377Y-96912168D01*
X151645250Y-96911524D01*
X151561986Y-96919102D01*
X151449543Y-96929335D01*
X151449540Y-96929336D01*
X151443404Y-96929894D01*
X151437498Y-96931632D01*
X151437494Y-96931633D01*
X151302947Y-96971233D01*
X151248971Y-96987119D01*
X151243514Y-96989972D01*
X151243511Y-96989973D01*
X151159163Y-97034069D01*
X151069355Y-97081019D01*
X151064555Y-97084879D01*
X151064554Y-97084879D01*
X150954536Y-97173336D01*
X150888914Y-97200432D01*
X150819059Y-97187749D01*
X150795276Y-97172229D01*
X150694722Y-97089044D01*
X150516435Y-96992644D01*
X150419627Y-96962677D01*
X150328707Y-96934532D01*
X150328704Y-96934531D01*
X150322820Y-96932710D01*
X150316695Y-96932066D01*
X150316694Y-96932066D01*
X150127378Y-96912168D01*
X150127377Y-96912168D01*
X150121250Y-96911524D01*
X150037986Y-96919102D01*
X149925543Y-96929335D01*
X149925540Y-96929336D01*
X149919404Y-96929894D01*
X149913498Y-96931632D01*
X149913494Y-96931633D01*
X149778947Y-96971233D01*
X149724971Y-96987119D01*
X149719514Y-96989972D01*
X149719511Y-96989973D01*
X149635163Y-97034069D01*
X149545355Y-97081019D01*
X149387399Y-97208019D01*
X149257119Y-97363281D01*
X149254155Y-97368673D01*
X149254152Y-97368677D01*
X149171588Y-97518861D01*
X149159477Y-97540891D01*
X149098193Y-97734084D01*
X149080500Y-97891817D01*
X149080500Y-98951004D01*
X146930848Y-98951004D01*
X146847149Y-98871577D01*
X146613683Y-98703814D01*
X146592691Y-98692699D01*
X146568654Y-98679972D01*
X146359608Y-98569288D01*
X146089627Y-98470489D01*
X145808736Y-98409245D01*
X145777685Y-98406801D01*
X145585718Y-98391693D01*
X145585709Y-98391693D01*
X145583261Y-98391500D01*
X145427729Y-98391500D01*
X145425593Y-98391646D01*
X145425582Y-98391646D01*
X145217452Y-98405835D01*
X145217446Y-98405836D01*
X145213175Y-98406127D01*
X145208980Y-98406996D01*
X145208978Y-98406996D01*
X145112223Y-98427033D01*
X144931658Y-98464426D01*
X144660657Y-98560393D01*
X144405188Y-98692250D01*
X144401687Y-98694711D01*
X144401683Y-98694713D01*
X144287582Y-98774905D01*
X144169977Y-98857559D01*
X144154892Y-98871577D01*
X143969893Y-99043489D01*
X143959378Y-99053260D01*
X143777287Y-99275732D01*
X143775052Y-99279379D01*
X143775040Y-99279396D01*
X143741432Y-99334240D01*
X143688785Y-99381871D01*
X143618743Y-99393478D01*
X143553546Y-99365375D01*
X143513892Y-99306484D01*
X143508000Y-99268405D01*
X143508000Y-90170000D01*
X144076654Y-90170000D01*
X144076924Y-90174119D01*
X144083541Y-90275070D01*
X144096017Y-90465426D01*
X144096819Y-90469459D01*
X144096820Y-90469465D01*
X144150256Y-90738101D01*
X144153776Y-90755797D01*
X144155103Y-90759706D01*
X144155104Y-90759710D01*
X144231692Y-90985330D01*
X144248941Y-91036145D01*
X144283528Y-91106281D01*
X144357750Y-91256787D01*
X144379885Y-91301673D01*
X144382179Y-91305106D01*
X144525234Y-91519203D01*
X144544367Y-91547838D01*
X144547081Y-91550932D01*
X144547085Y-91550938D01*
X144736864Y-91767338D01*
X144739573Y-91770427D01*
X144742662Y-91773136D01*
X144959062Y-91962915D01*
X144959068Y-91962919D01*
X144962162Y-91965633D01*
X144965588Y-91967922D01*
X144965593Y-91967926D01*
X145149405Y-92090744D01*
X145208327Y-92130115D01*
X145212026Y-92131939D01*
X145212031Y-92131942D01*
X145348313Y-92199148D01*
X145473855Y-92261059D01*
X145477760Y-92262384D01*
X145477761Y-92262385D01*
X145750290Y-92354896D01*
X145750294Y-92354897D01*
X145754203Y-92356224D01*
X145758247Y-92357028D01*
X145758253Y-92357030D01*
X146040535Y-92413180D01*
X146040541Y-92413181D01*
X146044574Y-92413983D01*
X146048679Y-92414252D01*
X146048686Y-92414253D01*
X146335881Y-92433076D01*
X146340000Y-92433346D01*
X146344119Y-92433076D01*
X146631314Y-92414253D01*
X146631321Y-92414252D01*
X146635426Y-92413983D01*
X146639459Y-92413181D01*
X146639465Y-92413180D01*
X146921747Y-92357030D01*
X146921753Y-92357028D01*
X146925797Y-92356224D01*
X146929706Y-92354897D01*
X146929710Y-92354896D01*
X147202239Y-92262385D01*
X147202240Y-92262384D01*
X147206145Y-92261059D01*
X147331687Y-92199148D01*
X147467969Y-92131942D01*
X147467974Y-92131939D01*
X147471673Y-92130115D01*
X147530595Y-92090744D01*
X147714407Y-91967926D01*
X147714412Y-91967922D01*
X147717838Y-91965633D01*
X147720932Y-91962919D01*
X147720938Y-91962915D01*
X147937338Y-91773136D01*
X147940427Y-91770427D01*
X147943136Y-91767338D01*
X148132915Y-91550938D01*
X148132919Y-91550932D01*
X148135633Y-91547838D01*
X148154767Y-91519203D01*
X148297821Y-91305106D01*
X148300115Y-91301673D01*
X148322251Y-91256787D01*
X148396472Y-91106281D01*
X148431059Y-91036145D01*
X148448308Y-90985330D01*
X148524896Y-90759710D01*
X148524897Y-90759706D01*
X148526224Y-90755797D01*
X148529744Y-90738101D01*
X148583180Y-90469465D01*
X148583181Y-90469459D01*
X148583983Y-90465426D01*
X148596460Y-90275070D01*
X148596644Y-90272263D01*
X161490064Y-90272263D01*
X161526404Y-90509744D01*
X161563094Y-90621997D01*
X161599434Y-90733183D01*
X161599437Y-90733189D01*
X161601042Y-90738101D01*
X161603429Y-90742687D01*
X161603431Y-90742691D01*
X161608364Y-90752167D01*
X161711975Y-90951200D01*
X161828415Y-91106283D01*
X161853320Y-91172765D01*
X161838328Y-91242161D01*
X161788198Y-91292435D01*
X161771885Y-91299915D01*
X161761707Y-91303731D01*
X161761704Y-91303733D01*
X161753295Y-91306885D01*
X161636739Y-91394239D01*
X161549385Y-91510795D01*
X161498255Y-91647184D01*
X161491500Y-91709366D01*
X161491500Y-93710634D01*
X161498255Y-93772816D01*
X161549385Y-93909205D01*
X161636739Y-94025761D01*
X161753295Y-94113115D01*
X161889684Y-94164245D01*
X161951866Y-94171000D01*
X164048134Y-94171000D01*
X164110316Y-94164245D01*
X164246705Y-94113115D01*
X164363261Y-94025761D01*
X164450615Y-93909205D01*
X164501745Y-93772816D01*
X164508500Y-93710634D01*
X164508500Y-91709366D01*
X164501745Y-91647184D01*
X164450615Y-91510795D01*
X164363261Y-91394239D01*
X164246705Y-91306885D01*
X164226811Y-91299427D01*
X164170047Y-91256787D01*
X164145346Y-91190226D01*
X164160553Y-91120877D01*
X164172158Y-91103353D01*
X164265367Y-90985330D01*
X164265370Y-90985325D01*
X164268568Y-90981276D01*
X164276470Y-90966963D01*
X164382177Y-90775474D01*
X164382179Y-90775470D01*
X164384674Y-90770950D01*
X164388655Y-90759710D01*
X164463144Y-90549360D01*
X164463145Y-90549356D01*
X164464870Y-90544485D01*
X164468960Y-90521524D01*
X164506095Y-90313052D01*
X164506096Y-90313046D01*
X164507001Y-90307963D01*
X164507343Y-90280000D01*
X167366835Y-90280000D01*
X167385465Y-90516711D01*
X167440895Y-90747594D01*
X167442788Y-90752165D01*
X167442789Y-90752167D01*
X167525231Y-90951200D01*
X167531760Y-90966963D01*
X167534346Y-90971183D01*
X167653241Y-91165202D01*
X167653245Y-91165208D01*
X167655824Y-91169416D01*
X167810031Y-91349969D01*
X167990584Y-91504176D01*
X167994792Y-91506755D01*
X167994798Y-91506759D01*
X168066892Y-91550938D01*
X168193037Y-91628240D01*
X168197607Y-91630133D01*
X168197611Y-91630135D01*
X168397143Y-91712783D01*
X168412406Y-91719105D01*
X168492609Y-91738360D01*
X168638476Y-91773380D01*
X168638482Y-91773381D01*
X168643289Y-91774535D01*
X168880000Y-91793165D01*
X169116711Y-91774535D01*
X169121518Y-91773381D01*
X169121524Y-91773380D01*
X169267391Y-91738360D01*
X169347594Y-91719105D01*
X169362857Y-91712783D01*
X169562389Y-91630135D01*
X169562393Y-91630133D01*
X169566963Y-91628240D01*
X169693108Y-91550938D01*
X169765202Y-91506759D01*
X169765208Y-91506755D01*
X169769416Y-91504176D01*
X169949969Y-91349969D01*
X170104176Y-91169416D01*
X170106755Y-91165208D01*
X170106759Y-91165202D01*
X170225654Y-90971183D01*
X170228240Y-90966963D01*
X170234770Y-90951200D01*
X170317211Y-90752167D01*
X170317212Y-90752165D01*
X170319105Y-90747594D01*
X170374535Y-90516711D01*
X170393165Y-90280000D01*
X182606835Y-90280000D01*
X182625465Y-90516711D01*
X182680895Y-90747594D01*
X182682788Y-90752165D01*
X182682789Y-90752167D01*
X182765231Y-90951200D01*
X182771760Y-90966963D01*
X182774346Y-90971183D01*
X182893241Y-91165202D01*
X182893245Y-91165208D01*
X182895824Y-91169416D01*
X183050031Y-91349969D01*
X183230584Y-91504176D01*
X183234792Y-91506755D01*
X183234798Y-91506759D01*
X183306892Y-91550938D01*
X183433037Y-91628240D01*
X183437607Y-91630133D01*
X183437611Y-91630135D01*
X183637143Y-91712783D01*
X183652406Y-91719105D01*
X183732609Y-91738360D01*
X183878476Y-91773380D01*
X183878482Y-91773381D01*
X183883289Y-91774535D01*
X184120000Y-91793165D01*
X184356711Y-91774535D01*
X184361518Y-91773381D01*
X184361524Y-91773380D01*
X184507391Y-91738360D01*
X184587594Y-91719105D01*
X184602857Y-91712783D01*
X184802389Y-91630135D01*
X184802393Y-91630133D01*
X184806963Y-91628240D01*
X184933108Y-91550938D01*
X185005202Y-91506759D01*
X185005208Y-91506755D01*
X185009416Y-91504176D01*
X185189969Y-91349969D01*
X185344176Y-91169416D01*
X185346755Y-91165208D01*
X185346759Y-91165202D01*
X185465654Y-90971183D01*
X185468240Y-90966963D01*
X185474770Y-90951200D01*
X185557211Y-90752167D01*
X185557212Y-90752165D01*
X185559105Y-90747594D01*
X185614535Y-90516711D01*
X185633165Y-90280000D01*
X185614535Y-90043289D01*
X185613074Y-90037201D01*
X185574030Y-89874574D01*
X185559105Y-89812406D01*
X185557211Y-89807833D01*
X185470135Y-89597611D01*
X185470133Y-89597607D01*
X185468240Y-89593037D01*
X185465308Y-89588253D01*
X185346759Y-89394798D01*
X185346755Y-89394792D01*
X185344176Y-89390584D01*
X185189969Y-89210031D01*
X185186213Y-89206823D01*
X185186208Y-89206818D01*
X185067944Y-89105811D01*
X185029134Y-89046361D01*
X185028628Y-88975366D01*
X185067944Y-88914189D01*
X185186208Y-88813182D01*
X185186213Y-88813177D01*
X185189969Y-88809969D01*
X185344176Y-88629416D01*
X185346755Y-88625208D01*
X185346759Y-88625202D01*
X185465654Y-88431183D01*
X185468240Y-88426963D01*
X185559105Y-88207594D01*
X185590310Y-88077615D01*
X185613380Y-87981524D01*
X185613381Y-87981518D01*
X185614535Y-87976711D01*
X185633165Y-87740000D01*
X185614535Y-87503289D01*
X185559105Y-87272406D01*
X185557211Y-87267833D01*
X185470135Y-87057611D01*
X185470133Y-87057607D01*
X185468240Y-87053037D01*
X185456656Y-87034134D01*
X185346759Y-86854798D01*
X185346755Y-86854792D01*
X185344176Y-86850584D01*
X185189969Y-86670031D01*
X185186213Y-86666823D01*
X185186208Y-86666818D01*
X185067944Y-86565811D01*
X185029134Y-86506361D01*
X185028628Y-86435366D01*
X185067944Y-86374189D01*
X185186208Y-86273182D01*
X185186213Y-86273177D01*
X185189969Y-86269969D01*
X185344176Y-86089416D01*
X185346755Y-86085208D01*
X185346759Y-86085202D01*
X185465654Y-85891183D01*
X185468240Y-85886963D01*
X185559105Y-85667594D01*
X185614535Y-85436711D01*
X185633165Y-85200000D01*
X185614535Y-84963289D01*
X185599220Y-84899494D01*
X185560260Y-84737216D01*
X185560259Y-84737213D01*
X185559105Y-84732406D01*
X185530895Y-84664300D01*
X185470135Y-84517611D01*
X185470133Y-84517607D01*
X185468240Y-84513037D01*
X185442947Y-84471762D01*
X185346759Y-84314798D01*
X185346755Y-84314792D01*
X185344176Y-84310584D01*
X185189969Y-84130031D01*
X185186213Y-84126823D01*
X185186208Y-84126818D01*
X185067944Y-84025811D01*
X185029134Y-83966361D01*
X185028628Y-83895366D01*
X185067944Y-83834189D01*
X185186208Y-83733182D01*
X185186213Y-83733177D01*
X185189969Y-83729969D01*
X185344176Y-83549416D01*
X185346755Y-83545208D01*
X185346759Y-83545202D01*
X185465654Y-83351183D01*
X185468240Y-83346963D01*
X185476385Y-83327301D01*
X185557211Y-83132167D01*
X185557212Y-83132165D01*
X185559105Y-83127594D01*
X185578360Y-83047391D01*
X185613380Y-82901524D01*
X185613381Y-82901518D01*
X185614535Y-82896711D01*
X185633165Y-82660000D01*
X185614535Y-82423289D01*
X185612270Y-82413851D01*
X185572819Y-82249531D01*
X185559105Y-82192406D01*
X185557211Y-82187833D01*
X185470135Y-81977611D01*
X185470133Y-81977607D01*
X185468240Y-81973037D01*
X185465654Y-81968817D01*
X185346759Y-81774798D01*
X185346755Y-81774792D01*
X185344176Y-81770584D01*
X185189969Y-81590031D01*
X185186213Y-81586823D01*
X185186208Y-81586818D01*
X185067944Y-81485811D01*
X185029134Y-81426361D01*
X185028628Y-81355366D01*
X185067944Y-81294189D01*
X185186208Y-81193182D01*
X185186213Y-81193177D01*
X185189969Y-81189969D01*
X185344176Y-81009416D01*
X185346755Y-81005208D01*
X185346759Y-81005202D01*
X185465654Y-80811183D01*
X185468240Y-80806963D01*
X185559105Y-80587594D01*
X185614535Y-80356711D01*
X185633165Y-80120000D01*
X185614535Y-79883289D01*
X185559105Y-79652406D01*
X185468240Y-79433037D01*
X185465654Y-79428817D01*
X185346759Y-79234798D01*
X185346755Y-79234792D01*
X185344176Y-79230584D01*
X185189969Y-79050031D01*
X185186213Y-79046823D01*
X185186208Y-79046818D01*
X185067944Y-78945811D01*
X185029134Y-78886361D01*
X185028628Y-78815366D01*
X185067944Y-78754189D01*
X185186208Y-78653182D01*
X185186213Y-78653177D01*
X185189969Y-78649969D01*
X185344176Y-78469416D01*
X185346755Y-78465208D01*
X185346759Y-78465202D01*
X185465654Y-78271183D01*
X185468240Y-78266963D01*
X185504997Y-78178225D01*
X185557211Y-78052167D01*
X185557212Y-78052165D01*
X185559105Y-78047594D01*
X185614535Y-77816711D01*
X185633165Y-77580000D01*
X185614535Y-77343289D01*
X185559105Y-77112406D01*
X185542467Y-77072238D01*
X185470135Y-76897611D01*
X185470133Y-76897607D01*
X185468240Y-76893037D01*
X185457679Y-76875803D01*
X185346759Y-76694798D01*
X185346755Y-76694792D01*
X185344176Y-76690584D01*
X185189969Y-76510031D01*
X185186213Y-76506823D01*
X185186208Y-76506818D01*
X185067944Y-76405811D01*
X185029134Y-76346361D01*
X185028628Y-76275366D01*
X185067944Y-76214189D01*
X185186208Y-76113182D01*
X185186213Y-76113177D01*
X185189969Y-76109969D01*
X185344176Y-75929416D01*
X185346755Y-75925208D01*
X185346759Y-75925202D01*
X185465654Y-75731183D01*
X185468240Y-75726963D01*
X185559105Y-75507594D01*
X185614535Y-75276711D01*
X185633165Y-75040000D01*
X185614535Y-74803289D01*
X185559105Y-74572406D01*
X185530895Y-74504300D01*
X185470135Y-74357611D01*
X185470133Y-74357607D01*
X185468240Y-74353037D01*
X185442947Y-74311762D01*
X185346759Y-74154798D01*
X185346755Y-74154792D01*
X185344176Y-74150584D01*
X185189969Y-73970031D01*
X185186213Y-73966823D01*
X185186208Y-73966818D01*
X185067944Y-73865811D01*
X185029134Y-73806361D01*
X185028628Y-73735366D01*
X185067944Y-73674189D01*
X185186208Y-73573182D01*
X185186213Y-73573177D01*
X185189969Y-73569969D01*
X185344176Y-73389416D01*
X185346755Y-73385208D01*
X185346759Y-73385202D01*
X185465654Y-73191183D01*
X185468240Y-73186963D01*
X185544336Y-73003251D01*
X185557211Y-72972167D01*
X185557212Y-72972165D01*
X185559105Y-72967594D01*
X185578360Y-72887391D01*
X185613380Y-72741524D01*
X185613381Y-72741518D01*
X185614535Y-72736711D01*
X185633165Y-72500000D01*
X185614535Y-72263289D01*
X185604979Y-72223483D01*
X185567877Y-72068946D01*
X185559105Y-72032406D01*
X185557211Y-72027833D01*
X185470135Y-71817611D01*
X185470133Y-71817607D01*
X185468240Y-71813037D01*
X185455461Y-71792183D01*
X185346759Y-71614798D01*
X185346755Y-71614792D01*
X185344176Y-71610584D01*
X185189969Y-71430031D01*
X185186213Y-71426823D01*
X185186208Y-71426818D01*
X185067944Y-71325811D01*
X185029134Y-71266361D01*
X185028628Y-71195366D01*
X185067944Y-71134189D01*
X185186208Y-71033182D01*
X185186213Y-71033177D01*
X185189969Y-71029969D01*
X185344176Y-70849416D01*
X185346755Y-70845208D01*
X185346759Y-70845202D01*
X185465654Y-70651183D01*
X185468240Y-70646963D01*
X185514324Y-70535707D01*
X185557211Y-70432167D01*
X185557212Y-70432165D01*
X185559105Y-70427594D01*
X185580587Y-70338114D01*
X185613380Y-70201524D01*
X185613381Y-70201518D01*
X185614535Y-70196711D01*
X185633165Y-69960000D01*
X185614535Y-69723289D01*
X185613327Y-69718255D01*
X185567671Y-69528087D01*
X185559105Y-69492406D01*
X185536407Y-69437607D01*
X185470135Y-69277611D01*
X185470133Y-69277607D01*
X185468240Y-69273037D01*
X185348349Y-69077393D01*
X185346759Y-69074798D01*
X185346755Y-69074792D01*
X185344176Y-69070584D01*
X185189969Y-68890031D01*
X185186213Y-68886823D01*
X185186208Y-68886818D01*
X185067944Y-68785811D01*
X185029134Y-68726361D01*
X185028628Y-68655366D01*
X185067944Y-68594189D01*
X185186208Y-68493182D01*
X185186213Y-68493177D01*
X185189969Y-68489969D01*
X185344176Y-68309416D01*
X185346755Y-68305208D01*
X185346759Y-68305202D01*
X185465654Y-68111183D01*
X185468240Y-68106963D01*
X185472611Y-68096412D01*
X185557211Y-67892167D01*
X185557212Y-67892165D01*
X185559105Y-67887594D01*
X185588955Y-67763261D01*
X185613380Y-67661524D01*
X185613381Y-67661518D01*
X185614535Y-67656711D01*
X185633165Y-67420000D01*
X185614535Y-67183289D01*
X185610084Y-67164747D01*
X185560260Y-66957218D01*
X185559105Y-66952406D01*
X185510059Y-66833998D01*
X185470135Y-66737611D01*
X185470133Y-66737607D01*
X185468240Y-66733037D01*
X185390070Y-66605475D01*
X185346759Y-66534798D01*
X185346755Y-66534792D01*
X185344176Y-66530584D01*
X185189969Y-66350031D01*
X185186213Y-66346823D01*
X185186208Y-66346818D01*
X185067944Y-66245811D01*
X185029134Y-66186361D01*
X185028628Y-66115366D01*
X185067944Y-66054189D01*
X185186208Y-65953182D01*
X185186213Y-65953177D01*
X185189969Y-65949969D01*
X185344176Y-65769416D01*
X185346755Y-65765208D01*
X185346759Y-65765202D01*
X185465654Y-65571183D01*
X185468240Y-65566963D01*
X185473902Y-65553295D01*
X185557211Y-65352167D01*
X185557212Y-65352165D01*
X185559105Y-65347594D01*
X185614535Y-65116711D01*
X185633165Y-64880000D01*
X185614535Y-64643289D01*
X185559105Y-64412406D01*
X185468240Y-64193037D01*
X185465654Y-64188817D01*
X185346759Y-63994798D01*
X185346755Y-63994792D01*
X185344176Y-63990584D01*
X185189969Y-63810031D01*
X185186213Y-63806823D01*
X185186208Y-63806818D01*
X185067944Y-63705811D01*
X185029134Y-63646361D01*
X185028628Y-63575366D01*
X185067944Y-63514189D01*
X185186208Y-63413182D01*
X185186213Y-63413177D01*
X185189969Y-63409969D01*
X185344176Y-63229416D01*
X185346755Y-63225208D01*
X185346759Y-63225202D01*
X185465654Y-63031183D01*
X185468240Y-63026963D01*
X185470229Y-63022163D01*
X185557211Y-62812167D01*
X185557212Y-62812165D01*
X185559105Y-62807594D01*
X185614535Y-62576711D01*
X185633165Y-62340000D01*
X185614535Y-62103289D01*
X185559105Y-61872406D01*
X185557211Y-61867833D01*
X185470135Y-61657611D01*
X185470133Y-61657607D01*
X185468240Y-61653037D01*
X185465654Y-61648817D01*
X185346759Y-61454798D01*
X185346755Y-61454792D01*
X185344176Y-61450584D01*
X185189969Y-61270031D01*
X185186213Y-61266823D01*
X185186208Y-61266818D01*
X185067944Y-61165811D01*
X185029134Y-61106361D01*
X185028628Y-61035366D01*
X185067944Y-60974189D01*
X185186208Y-60873182D01*
X185186213Y-60873177D01*
X185189969Y-60869969D01*
X185344176Y-60689416D01*
X185346755Y-60685208D01*
X185346759Y-60685202D01*
X185465654Y-60491183D01*
X185468240Y-60486963D01*
X185556443Y-60274022D01*
X185557211Y-60272167D01*
X185557212Y-60272165D01*
X185559105Y-60267594D01*
X185578360Y-60187391D01*
X185613380Y-60041524D01*
X185613381Y-60041518D01*
X185614535Y-60036711D01*
X185633165Y-59800000D01*
X185614535Y-59563289D01*
X185610084Y-59544747D01*
X185560260Y-59337218D01*
X185559105Y-59332406D01*
X185519990Y-59237973D01*
X185470135Y-59117611D01*
X185470133Y-59117607D01*
X185468240Y-59113037D01*
X185390070Y-58985475D01*
X185346759Y-58914798D01*
X185346755Y-58914792D01*
X185344176Y-58910584D01*
X185189969Y-58730031D01*
X185186213Y-58726823D01*
X185186208Y-58726818D01*
X185033384Y-58596294D01*
X184994574Y-58536844D01*
X184992360Y-58502442D01*
X184984123Y-58483333D01*
X184132812Y-57632022D01*
X184118868Y-57624408D01*
X184117035Y-57624539D01*
X184110420Y-57628790D01*
X183258920Y-58480290D01*
X183249740Y-58497102D01*
X183235980Y-58560350D01*
X183207224Y-58595775D01*
X183127285Y-58664050D01*
X183050031Y-58730031D01*
X182895824Y-58910584D01*
X182893245Y-58914792D01*
X182893241Y-58914798D01*
X182849930Y-58985475D01*
X182771760Y-59113037D01*
X182769867Y-59117607D01*
X182769865Y-59117611D01*
X182720010Y-59237973D01*
X182680895Y-59332406D01*
X182679740Y-59337218D01*
X182629917Y-59544747D01*
X182625465Y-59563289D01*
X182606835Y-59800000D01*
X182625465Y-60036711D01*
X182626619Y-60041518D01*
X182626620Y-60041524D01*
X182661640Y-60187391D01*
X182680895Y-60267594D01*
X182682788Y-60272165D01*
X182682789Y-60272167D01*
X182683558Y-60274022D01*
X182771760Y-60486963D01*
X182774346Y-60491183D01*
X182893241Y-60685202D01*
X182893245Y-60685208D01*
X182895824Y-60689416D01*
X183050031Y-60869969D01*
X183053787Y-60873177D01*
X183053792Y-60873182D01*
X183172056Y-60974189D01*
X183210866Y-61033639D01*
X183211372Y-61104634D01*
X183172056Y-61165811D01*
X183053792Y-61266818D01*
X183053787Y-61266823D01*
X183050031Y-61270031D01*
X182895824Y-61450584D01*
X182893245Y-61454792D01*
X182893241Y-61454798D01*
X182774346Y-61648817D01*
X182771760Y-61653037D01*
X182769867Y-61657607D01*
X182769865Y-61657611D01*
X182682789Y-61867833D01*
X182680895Y-61872406D01*
X182625465Y-62103289D01*
X182606835Y-62340000D01*
X182625465Y-62576711D01*
X182680895Y-62807594D01*
X182682788Y-62812165D01*
X182682789Y-62812167D01*
X182769772Y-63022163D01*
X182771760Y-63026963D01*
X182774346Y-63031183D01*
X182893241Y-63225202D01*
X182893245Y-63225208D01*
X182895824Y-63229416D01*
X183050031Y-63409969D01*
X183053787Y-63413177D01*
X183053792Y-63413182D01*
X183172056Y-63514189D01*
X183210866Y-63573639D01*
X183211372Y-63644634D01*
X183172056Y-63705811D01*
X183053792Y-63806818D01*
X183053787Y-63806823D01*
X183050031Y-63810031D01*
X182895824Y-63990584D01*
X182893245Y-63994792D01*
X182893241Y-63994798D01*
X182774346Y-64188817D01*
X182771760Y-64193037D01*
X182680895Y-64412406D01*
X182625465Y-64643289D01*
X182606835Y-64880000D01*
X182625465Y-65116711D01*
X182680895Y-65347594D01*
X182682788Y-65352165D01*
X182682789Y-65352167D01*
X182766099Y-65553295D01*
X182771760Y-65566963D01*
X182774346Y-65571183D01*
X182893241Y-65765202D01*
X182893245Y-65765208D01*
X182895824Y-65769416D01*
X183050031Y-65949969D01*
X183053787Y-65953177D01*
X183053792Y-65953182D01*
X183172056Y-66054189D01*
X183210866Y-66113639D01*
X183211372Y-66184634D01*
X183172056Y-66245811D01*
X183053792Y-66346818D01*
X183053787Y-66346823D01*
X183050031Y-66350031D01*
X182895824Y-66530584D01*
X182893245Y-66534792D01*
X182893241Y-66534798D01*
X182849930Y-66605475D01*
X182771760Y-66733037D01*
X182769867Y-66737607D01*
X182769865Y-66737611D01*
X182729941Y-66833998D01*
X182680895Y-66952406D01*
X182679740Y-66957218D01*
X182629917Y-67164747D01*
X182625465Y-67183289D01*
X182606835Y-67420000D01*
X182625465Y-67656711D01*
X182626619Y-67661518D01*
X182626620Y-67661524D01*
X182651045Y-67763261D01*
X182680895Y-67887594D01*
X182682788Y-67892165D01*
X182682789Y-67892167D01*
X182767390Y-68096412D01*
X182771760Y-68106963D01*
X182774346Y-68111183D01*
X182893241Y-68305202D01*
X182893245Y-68305208D01*
X182895824Y-68309416D01*
X183050031Y-68489969D01*
X183053787Y-68493177D01*
X183053792Y-68493182D01*
X183172056Y-68594189D01*
X183210866Y-68653639D01*
X183211372Y-68724634D01*
X183172056Y-68785811D01*
X183053792Y-68886818D01*
X183053787Y-68886823D01*
X183050031Y-68890031D01*
X182895824Y-69070584D01*
X182893245Y-69074792D01*
X182893241Y-69074798D01*
X182891651Y-69077393D01*
X182771760Y-69273037D01*
X182769867Y-69277607D01*
X182769865Y-69277611D01*
X182703593Y-69437607D01*
X182680895Y-69492406D01*
X182672329Y-69528087D01*
X182626674Y-69718255D01*
X182625465Y-69723289D01*
X182606835Y-69960000D01*
X182625465Y-70196711D01*
X182626619Y-70201518D01*
X182626620Y-70201524D01*
X182659413Y-70338114D01*
X182680895Y-70427594D01*
X182682788Y-70432165D01*
X182682789Y-70432167D01*
X182725677Y-70535707D01*
X182771760Y-70646963D01*
X182774346Y-70651183D01*
X182893241Y-70845202D01*
X182893245Y-70845208D01*
X182895824Y-70849416D01*
X183050031Y-71029969D01*
X183053787Y-71033177D01*
X183053792Y-71033182D01*
X183172056Y-71134189D01*
X183210866Y-71193639D01*
X183211372Y-71264634D01*
X183172056Y-71325811D01*
X183053792Y-71426818D01*
X183053787Y-71426823D01*
X183050031Y-71430031D01*
X182895824Y-71610584D01*
X182893245Y-71614792D01*
X182893241Y-71614798D01*
X182784539Y-71792183D01*
X182771760Y-71813037D01*
X182769867Y-71817607D01*
X182769865Y-71817611D01*
X182682789Y-72027833D01*
X182680895Y-72032406D01*
X182672123Y-72068946D01*
X182635022Y-72223483D01*
X182625465Y-72263289D01*
X182606835Y-72500000D01*
X182625465Y-72736711D01*
X182626619Y-72741518D01*
X182626620Y-72741524D01*
X182661640Y-72887391D01*
X182680895Y-72967594D01*
X182682788Y-72972165D01*
X182682789Y-72972167D01*
X182695665Y-73003251D01*
X182771760Y-73186963D01*
X182774346Y-73191183D01*
X182893241Y-73385202D01*
X182893245Y-73385208D01*
X182895824Y-73389416D01*
X183050031Y-73569969D01*
X183053787Y-73573177D01*
X183053792Y-73573182D01*
X183172056Y-73674189D01*
X183210866Y-73733639D01*
X183211372Y-73804634D01*
X183172056Y-73865811D01*
X183053792Y-73966818D01*
X183053787Y-73966823D01*
X183050031Y-73970031D01*
X182895824Y-74150584D01*
X182893245Y-74154792D01*
X182893241Y-74154798D01*
X182797053Y-74311762D01*
X182771760Y-74353037D01*
X182769867Y-74357607D01*
X182769865Y-74357611D01*
X182709105Y-74504300D01*
X182680895Y-74572406D01*
X182625465Y-74803289D01*
X182606835Y-75040000D01*
X182625465Y-75276711D01*
X182680895Y-75507594D01*
X182771760Y-75726963D01*
X182774346Y-75731183D01*
X182893241Y-75925202D01*
X182893245Y-75925208D01*
X182895824Y-75929416D01*
X183050031Y-76109969D01*
X183053787Y-76113177D01*
X183053792Y-76113182D01*
X183172056Y-76214189D01*
X183210866Y-76273639D01*
X183211372Y-76344634D01*
X183172056Y-76405811D01*
X183053792Y-76506818D01*
X183053787Y-76506823D01*
X183050031Y-76510031D01*
X182895824Y-76690584D01*
X182893245Y-76694792D01*
X182893241Y-76694798D01*
X182782321Y-76875803D01*
X182771760Y-76893037D01*
X182769867Y-76897607D01*
X182769865Y-76897611D01*
X182697533Y-77072238D01*
X182680895Y-77112406D01*
X182625465Y-77343289D01*
X182606835Y-77580000D01*
X182625465Y-77816711D01*
X182680895Y-78047594D01*
X182682788Y-78052165D01*
X182682789Y-78052167D01*
X182735004Y-78178225D01*
X182771760Y-78266963D01*
X182774346Y-78271183D01*
X182893241Y-78465202D01*
X182893245Y-78465208D01*
X182895824Y-78469416D01*
X183050031Y-78649969D01*
X183053787Y-78653177D01*
X183053792Y-78653182D01*
X183172056Y-78754189D01*
X183210866Y-78813639D01*
X183211372Y-78884634D01*
X183172056Y-78945811D01*
X183053792Y-79046818D01*
X183053787Y-79046823D01*
X183050031Y-79050031D01*
X182895824Y-79230584D01*
X182893245Y-79234792D01*
X182893241Y-79234798D01*
X182774346Y-79428817D01*
X182771760Y-79433037D01*
X182680895Y-79652406D01*
X182625465Y-79883289D01*
X182606835Y-80120000D01*
X182625465Y-80356711D01*
X182680895Y-80587594D01*
X182771760Y-80806963D01*
X182774346Y-80811183D01*
X182893241Y-81005202D01*
X182893245Y-81005208D01*
X182895824Y-81009416D01*
X183050031Y-81189969D01*
X183053787Y-81193177D01*
X183053792Y-81193182D01*
X183172056Y-81294189D01*
X183210866Y-81353639D01*
X183211372Y-81424634D01*
X183172056Y-81485811D01*
X183053792Y-81586818D01*
X183053787Y-81586823D01*
X183050031Y-81590031D01*
X182895824Y-81770584D01*
X182893245Y-81774792D01*
X182893241Y-81774798D01*
X182774346Y-81968817D01*
X182771760Y-81973037D01*
X182769867Y-81977607D01*
X182769865Y-81977611D01*
X182682789Y-82187833D01*
X182680895Y-82192406D01*
X182667181Y-82249531D01*
X182627731Y-82413851D01*
X182625465Y-82423289D01*
X182606835Y-82660000D01*
X182625465Y-82896711D01*
X182626619Y-82901518D01*
X182626620Y-82901524D01*
X182661640Y-83047391D01*
X182680895Y-83127594D01*
X182682788Y-83132165D01*
X182682789Y-83132167D01*
X182763616Y-83327301D01*
X182771760Y-83346963D01*
X182774346Y-83351183D01*
X182893241Y-83545202D01*
X182893245Y-83545208D01*
X182895824Y-83549416D01*
X183050031Y-83729969D01*
X183053787Y-83733177D01*
X183053792Y-83733182D01*
X183172056Y-83834189D01*
X183210866Y-83893639D01*
X183211372Y-83964634D01*
X183172056Y-84025811D01*
X183053792Y-84126818D01*
X183053787Y-84126823D01*
X183050031Y-84130031D01*
X182895824Y-84310584D01*
X182893245Y-84314792D01*
X182893241Y-84314798D01*
X182797053Y-84471762D01*
X182771760Y-84513037D01*
X182769867Y-84517607D01*
X182769865Y-84517611D01*
X182709105Y-84664300D01*
X182680895Y-84732406D01*
X182679741Y-84737213D01*
X182679740Y-84737216D01*
X182640781Y-84899494D01*
X182625465Y-84963289D01*
X182606835Y-85200000D01*
X182625465Y-85436711D01*
X182680895Y-85667594D01*
X182771760Y-85886963D01*
X182774346Y-85891183D01*
X182893241Y-86085202D01*
X182893245Y-86085208D01*
X182895824Y-86089416D01*
X183050031Y-86269969D01*
X183053787Y-86273177D01*
X183053792Y-86273182D01*
X183172056Y-86374189D01*
X183210866Y-86433639D01*
X183211372Y-86504634D01*
X183172056Y-86565811D01*
X183053792Y-86666818D01*
X183053787Y-86666823D01*
X183050031Y-86670031D01*
X182895824Y-86850584D01*
X182893245Y-86854792D01*
X182893241Y-86854798D01*
X182783344Y-87034134D01*
X182771760Y-87053037D01*
X182769867Y-87057607D01*
X182769865Y-87057611D01*
X182682789Y-87267833D01*
X182680895Y-87272406D01*
X182625465Y-87503289D01*
X182606835Y-87740000D01*
X182625465Y-87976711D01*
X182626619Y-87981518D01*
X182626620Y-87981524D01*
X182649690Y-88077615D01*
X182680895Y-88207594D01*
X182771760Y-88426963D01*
X182774346Y-88431183D01*
X182893241Y-88625202D01*
X182893245Y-88625208D01*
X182895824Y-88629416D01*
X183050031Y-88809969D01*
X183053787Y-88813177D01*
X183053792Y-88813182D01*
X183172056Y-88914189D01*
X183210866Y-88973639D01*
X183211372Y-89044634D01*
X183172056Y-89105811D01*
X183053792Y-89206818D01*
X183053787Y-89206823D01*
X183050031Y-89210031D01*
X182895824Y-89390584D01*
X182893245Y-89394792D01*
X182893241Y-89394798D01*
X182774692Y-89588253D01*
X182771760Y-89593037D01*
X182769867Y-89597607D01*
X182769865Y-89597611D01*
X182682789Y-89807833D01*
X182680895Y-89812406D01*
X182665970Y-89874574D01*
X182626927Y-90037201D01*
X182625465Y-90043289D01*
X182606835Y-90280000D01*
X170393165Y-90280000D01*
X170374535Y-90043289D01*
X170373074Y-90037201D01*
X170334030Y-89874574D01*
X170319105Y-89812406D01*
X170317211Y-89807833D01*
X170230135Y-89597611D01*
X170230133Y-89597607D01*
X170228240Y-89593037D01*
X170225308Y-89588253D01*
X170106759Y-89394798D01*
X170106755Y-89394792D01*
X170104176Y-89390584D01*
X169949969Y-89210031D01*
X169946213Y-89206823D01*
X169946208Y-89206818D01*
X169827944Y-89105811D01*
X169789134Y-89046361D01*
X169788628Y-88975366D01*
X169827944Y-88914189D01*
X169946208Y-88813182D01*
X169946213Y-88813177D01*
X169949969Y-88809969D01*
X170104176Y-88629416D01*
X170106755Y-88625208D01*
X170106759Y-88625202D01*
X170225654Y-88431183D01*
X170228240Y-88426963D01*
X170319105Y-88207594D01*
X170350310Y-88077615D01*
X170373380Y-87981524D01*
X170373381Y-87981518D01*
X170374535Y-87976711D01*
X170393165Y-87740000D01*
X170374535Y-87503289D01*
X170319105Y-87272406D01*
X170317211Y-87267833D01*
X170230135Y-87057611D01*
X170230133Y-87057607D01*
X170228240Y-87053037D01*
X170216656Y-87034134D01*
X170106759Y-86854798D01*
X170106755Y-86854792D01*
X170104176Y-86850584D01*
X169949969Y-86670031D01*
X169946213Y-86666823D01*
X169946208Y-86666818D01*
X169827944Y-86565811D01*
X169789134Y-86506361D01*
X169788628Y-86435366D01*
X169827944Y-86374189D01*
X169946208Y-86273182D01*
X169946213Y-86273177D01*
X169949969Y-86269969D01*
X170104176Y-86089416D01*
X170106755Y-86085208D01*
X170106759Y-86085202D01*
X170225654Y-85891183D01*
X170228240Y-85886963D01*
X170319105Y-85667594D01*
X170374535Y-85436711D01*
X170393165Y-85200000D01*
X170374535Y-84963289D01*
X170359220Y-84899494D01*
X170320260Y-84737216D01*
X170320259Y-84737213D01*
X170319105Y-84732406D01*
X170290895Y-84664300D01*
X170230135Y-84517611D01*
X170230133Y-84517607D01*
X170228240Y-84513037D01*
X170202947Y-84471762D01*
X170106759Y-84314798D01*
X170106755Y-84314792D01*
X170104176Y-84310584D01*
X169949969Y-84130031D01*
X169946213Y-84126823D01*
X169946208Y-84126818D01*
X169827944Y-84025811D01*
X169789134Y-83966361D01*
X169788628Y-83895366D01*
X169827944Y-83834189D01*
X169946208Y-83733182D01*
X169946213Y-83733177D01*
X169949969Y-83729969D01*
X170104176Y-83549416D01*
X170106755Y-83545208D01*
X170106759Y-83545202D01*
X170225654Y-83351183D01*
X170228240Y-83346963D01*
X170236385Y-83327301D01*
X170317211Y-83132167D01*
X170317212Y-83132165D01*
X170319105Y-83127594D01*
X170338360Y-83047391D01*
X170373380Y-82901524D01*
X170373381Y-82901518D01*
X170374535Y-82896711D01*
X170393165Y-82660000D01*
X170374535Y-82423289D01*
X170372270Y-82413851D01*
X170332819Y-82249531D01*
X170319105Y-82192406D01*
X170317211Y-82187833D01*
X170230135Y-81977611D01*
X170230133Y-81977607D01*
X170228240Y-81973037D01*
X170225654Y-81968817D01*
X170106759Y-81774798D01*
X170106755Y-81774792D01*
X170104176Y-81770584D01*
X169949969Y-81590031D01*
X169946213Y-81586823D01*
X169946208Y-81586818D01*
X169827944Y-81485811D01*
X169789134Y-81426361D01*
X169788628Y-81355366D01*
X169827944Y-81294189D01*
X169946208Y-81193182D01*
X169946213Y-81193177D01*
X169949969Y-81189969D01*
X170104176Y-81009416D01*
X170106755Y-81005208D01*
X170106759Y-81005202D01*
X170225654Y-80811183D01*
X170228240Y-80806963D01*
X170319105Y-80587594D01*
X170374535Y-80356711D01*
X170393165Y-80120000D01*
X170374535Y-79883289D01*
X170319105Y-79652406D01*
X170228240Y-79433037D01*
X170225654Y-79428817D01*
X170106759Y-79234798D01*
X170106755Y-79234792D01*
X170104176Y-79230584D01*
X169949969Y-79050031D01*
X169946213Y-79046823D01*
X169946208Y-79046818D01*
X169827944Y-78945811D01*
X169789134Y-78886361D01*
X169788628Y-78815366D01*
X169827944Y-78754189D01*
X169946208Y-78653182D01*
X169946213Y-78653177D01*
X169949969Y-78649969D01*
X170104176Y-78469416D01*
X170106755Y-78465208D01*
X170106759Y-78465202D01*
X170225654Y-78271183D01*
X170228240Y-78266963D01*
X170264997Y-78178225D01*
X170317211Y-78052167D01*
X170317212Y-78052165D01*
X170319105Y-78047594D01*
X170374535Y-77816711D01*
X170393165Y-77580000D01*
X170374535Y-77343289D01*
X170319105Y-77112406D01*
X170302467Y-77072238D01*
X170230135Y-76897611D01*
X170230133Y-76897607D01*
X170228240Y-76893037D01*
X170217679Y-76875803D01*
X170106759Y-76694798D01*
X170106755Y-76694792D01*
X170104176Y-76690584D01*
X169949969Y-76510031D01*
X169946213Y-76506823D01*
X169946208Y-76506818D01*
X169827944Y-76405811D01*
X169789134Y-76346361D01*
X169788628Y-76275366D01*
X169827944Y-76214189D01*
X169946208Y-76113182D01*
X169946213Y-76113177D01*
X169949969Y-76109969D01*
X170104176Y-75929416D01*
X170106755Y-75925208D01*
X170106759Y-75925202D01*
X170225654Y-75731183D01*
X170228240Y-75726963D01*
X170319105Y-75507594D01*
X170374535Y-75276711D01*
X170393165Y-75040000D01*
X170374535Y-74803289D01*
X170319105Y-74572406D01*
X170290895Y-74504300D01*
X170230135Y-74357611D01*
X170230133Y-74357607D01*
X170228240Y-74353037D01*
X170202947Y-74311762D01*
X170106759Y-74154798D01*
X170106755Y-74154792D01*
X170104176Y-74150584D01*
X169949969Y-73970031D01*
X169946213Y-73966823D01*
X169946208Y-73966818D01*
X169827944Y-73865811D01*
X169789134Y-73806361D01*
X169788628Y-73735366D01*
X169827944Y-73674189D01*
X169946208Y-73573182D01*
X169946213Y-73573177D01*
X169949969Y-73569969D01*
X170104176Y-73389416D01*
X170106755Y-73385208D01*
X170106759Y-73385202D01*
X170225654Y-73191183D01*
X170228240Y-73186963D01*
X170304336Y-73003251D01*
X170317211Y-72972167D01*
X170317212Y-72972165D01*
X170319105Y-72967594D01*
X170338360Y-72887391D01*
X170373380Y-72741524D01*
X170373381Y-72741518D01*
X170374535Y-72736711D01*
X170393165Y-72500000D01*
X170374535Y-72263289D01*
X170364979Y-72223483D01*
X170327877Y-72068946D01*
X170319105Y-72032406D01*
X170317211Y-72027833D01*
X170230135Y-71817611D01*
X170230133Y-71817607D01*
X170228240Y-71813037D01*
X170215461Y-71792183D01*
X170106759Y-71614798D01*
X170106755Y-71614792D01*
X170104176Y-71610584D01*
X169949969Y-71430031D01*
X169946213Y-71426823D01*
X169946208Y-71426818D01*
X169827944Y-71325811D01*
X169789134Y-71266361D01*
X169788628Y-71195366D01*
X169827944Y-71134189D01*
X169946208Y-71033182D01*
X169946213Y-71033177D01*
X169949969Y-71029969D01*
X170104176Y-70849416D01*
X170106755Y-70845208D01*
X170106759Y-70845202D01*
X170225654Y-70651183D01*
X170228240Y-70646963D01*
X170274324Y-70535707D01*
X170317211Y-70432167D01*
X170317212Y-70432165D01*
X170319105Y-70427594D01*
X170340587Y-70338114D01*
X170373380Y-70201524D01*
X170373381Y-70201518D01*
X170374535Y-70196711D01*
X170393165Y-69960000D01*
X170374535Y-69723289D01*
X170373327Y-69718255D01*
X170327671Y-69528087D01*
X170319105Y-69492406D01*
X170296407Y-69437607D01*
X170230135Y-69277611D01*
X170230133Y-69277607D01*
X170228240Y-69273037D01*
X170108349Y-69077393D01*
X170106759Y-69074798D01*
X170106755Y-69074792D01*
X170104176Y-69070584D01*
X169949969Y-68890031D01*
X169946213Y-68886823D01*
X169946208Y-68886818D01*
X169827944Y-68785811D01*
X169789134Y-68726361D01*
X169788628Y-68655366D01*
X169827944Y-68594189D01*
X169946208Y-68493182D01*
X169946213Y-68493177D01*
X169949969Y-68489969D01*
X170104176Y-68309416D01*
X170106755Y-68305208D01*
X170106759Y-68305202D01*
X170225654Y-68111183D01*
X170228240Y-68106963D01*
X170232611Y-68096412D01*
X170317211Y-67892167D01*
X170317212Y-67892165D01*
X170319105Y-67887594D01*
X170348955Y-67763261D01*
X170373380Y-67661524D01*
X170373381Y-67661518D01*
X170374535Y-67656711D01*
X170393165Y-67420000D01*
X170374535Y-67183289D01*
X170370084Y-67164747D01*
X170320260Y-66957218D01*
X170319105Y-66952406D01*
X170270059Y-66833998D01*
X170230135Y-66737611D01*
X170230133Y-66737607D01*
X170228240Y-66733037D01*
X170150070Y-66605475D01*
X170106759Y-66534798D01*
X170106755Y-66534792D01*
X170104176Y-66530584D01*
X169949969Y-66350031D01*
X169946213Y-66346823D01*
X169946208Y-66346818D01*
X169827944Y-66245811D01*
X169789134Y-66186361D01*
X169788628Y-66115366D01*
X169827944Y-66054189D01*
X169946208Y-65953182D01*
X169946213Y-65953177D01*
X169949969Y-65949969D01*
X170104176Y-65769416D01*
X170106755Y-65765208D01*
X170106759Y-65765202D01*
X170225654Y-65571183D01*
X170228240Y-65566963D01*
X170233902Y-65553295D01*
X170317211Y-65352167D01*
X170317212Y-65352165D01*
X170319105Y-65347594D01*
X170374535Y-65116711D01*
X170393165Y-64880000D01*
X170374535Y-64643289D01*
X170319105Y-64412406D01*
X170228240Y-64193037D01*
X170225654Y-64188817D01*
X170106759Y-63994798D01*
X170106755Y-63994792D01*
X170104176Y-63990584D01*
X169949969Y-63810031D01*
X169946213Y-63806823D01*
X169946208Y-63806818D01*
X169793384Y-63676294D01*
X169754574Y-63616844D01*
X169752360Y-63582442D01*
X169744123Y-63563333D01*
X168892812Y-62712022D01*
X168878868Y-62704408D01*
X168877035Y-62704539D01*
X168870420Y-62708790D01*
X168018920Y-63560290D01*
X168009740Y-63577102D01*
X167995980Y-63640350D01*
X167967224Y-63675775D01*
X167813793Y-63806818D01*
X167810031Y-63810031D01*
X167655824Y-63990584D01*
X167653245Y-63994792D01*
X167653241Y-63994798D01*
X167534346Y-64188817D01*
X167531760Y-64193037D01*
X167440895Y-64412406D01*
X167385465Y-64643289D01*
X167366835Y-64880000D01*
X167385465Y-65116711D01*
X167440895Y-65347594D01*
X167442788Y-65352165D01*
X167442789Y-65352167D01*
X167526099Y-65553295D01*
X167531760Y-65566963D01*
X167534346Y-65571183D01*
X167653241Y-65765202D01*
X167653245Y-65765208D01*
X167655824Y-65769416D01*
X167810031Y-65949969D01*
X167813787Y-65953177D01*
X167813792Y-65953182D01*
X167932056Y-66054189D01*
X167970866Y-66113639D01*
X167971372Y-66184634D01*
X167932056Y-66245811D01*
X167813792Y-66346818D01*
X167813787Y-66346823D01*
X167810031Y-66350031D01*
X167655824Y-66530584D01*
X167653245Y-66534792D01*
X167653241Y-66534798D01*
X167609930Y-66605475D01*
X167531760Y-66733037D01*
X167529867Y-66737607D01*
X167529865Y-66737611D01*
X167489941Y-66833998D01*
X167440895Y-66952406D01*
X167439740Y-66957218D01*
X167389917Y-67164747D01*
X167385465Y-67183289D01*
X167366835Y-67420000D01*
X167385465Y-67656711D01*
X167386619Y-67661518D01*
X167386620Y-67661524D01*
X167411045Y-67763261D01*
X167440895Y-67887594D01*
X167442788Y-67892165D01*
X167442789Y-67892167D01*
X167527390Y-68096412D01*
X167531760Y-68106963D01*
X167534346Y-68111183D01*
X167653241Y-68305202D01*
X167653245Y-68305208D01*
X167655824Y-68309416D01*
X167810031Y-68489969D01*
X167813787Y-68493177D01*
X167813792Y-68493182D01*
X167932056Y-68594189D01*
X167970866Y-68653639D01*
X167971372Y-68724634D01*
X167932056Y-68785811D01*
X167813792Y-68886818D01*
X167813787Y-68886823D01*
X167810031Y-68890031D01*
X167655824Y-69070584D01*
X167653245Y-69074792D01*
X167653241Y-69074798D01*
X167651651Y-69077393D01*
X167531760Y-69273037D01*
X167529867Y-69277607D01*
X167529865Y-69277611D01*
X167463593Y-69437607D01*
X167440895Y-69492406D01*
X167432329Y-69528087D01*
X167386674Y-69718255D01*
X167385465Y-69723289D01*
X167366835Y-69960000D01*
X167385465Y-70196711D01*
X167386619Y-70201518D01*
X167386620Y-70201524D01*
X167419413Y-70338114D01*
X167440895Y-70427594D01*
X167442788Y-70432165D01*
X167442789Y-70432167D01*
X167485677Y-70535707D01*
X167531760Y-70646963D01*
X167534346Y-70651183D01*
X167653241Y-70845202D01*
X167653245Y-70845208D01*
X167655824Y-70849416D01*
X167810031Y-71029969D01*
X167813787Y-71033177D01*
X167813792Y-71033182D01*
X167932056Y-71134189D01*
X167970866Y-71193639D01*
X167971372Y-71264634D01*
X167932056Y-71325811D01*
X167813792Y-71426818D01*
X167813787Y-71426823D01*
X167810031Y-71430031D01*
X167655824Y-71610584D01*
X167653245Y-71614792D01*
X167653241Y-71614798D01*
X167544539Y-71792183D01*
X167531760Y-71813037D01*
X167529867Y-71817607D01*
X167529865Y-71817611D01*
X167442789Y-72027833D01*
X167440895Y-72032406D01*
X167432123Y-72068946D01*
X167395022Y-72223483D01*
X167385465Y-72263289D01*
X167366835Y-72500000D01*
X167385465Y-72736711D01*
X167386619Y-72741518D01*
X167386620Y-72741524D01*
X167421640Y-72887391D01*
X167440895Y-72967594D01*
X167442788Y-72972165D01*
X167442789Y-72972167D01*
X167455665Y-73003251D01*
X167531760Y-73186963D01*
X167534346Y-73191183D01*
X167653241Y-73385202D01*
X167653245Y-73385208D01*
X167655824Y-73389416D01*
X167810031Y-73569969D01*
X167813787Y-73573177D01*
X167813792Y-73573182D01*
X167932056Y-73674189D01*
X167970866Y-73733639D01*
X167971372Y-73804634D01*
X167932056Y-73865811D01*
X167813792Y-73966818D01*
X167813787Y-73966823D01*
X167810031Y-73970031D01*
X167655824Y-74150584D01*
X167653245Y-74154792D01*
X167653241Y-74154798D01*
X167557053Y-74311762D01*
X167531760Y-74353037D01*
X167529867Y-74357607D01*
X167529865Y-74357611D01*
X167469105Y-74504300D01*
X167440895Y-74572406D01*
X167385465Y-74803289D01*
X167366835Y-75040000D01*
X167385465Y-75276711D01*
X167440895Y-75507594D01*
X167531760Y-75726963D01*
X167534346Y-75731183D01*
X167653241Y-75925202D01*
X167653245Y-75925208D01*
X167655824Y-75929416D01*
X167810031Y-76109969D01*
X167813787Y-76113177D01*
X167813792Y-76113182D01*
X167932056Y-76214189D01*
X167970866Y-76273639D01*
X167971372Y-76344634D01*
X167932056Y-76405811D01*
X167813792Y-76506818D01*
X167813787Y-76506823D01*
X167810031Y-76510031D01*
X167655824Y-76690584D01*
X167653245Y-76694792D01*
X167653241Y-76694798D01*
X167542321Y-76875803D01*
X167531760Y-76893037D01*
X167529867Y-76897607D01*
X167529865Y-76897611D01*
X167457533Y-77072238D01*
X167440895Y-77112406D01*
X167385465Y-77343289D01*
X167366835Y-77580000D01*
X167385465Y-77816711D01*
X167440895Y-78047594D01*
X167442788Y-78052165D01*
X167442789Y-78052167D01*
X167495004Y-78178225D01*
X167531760Y-78266963D01*
X167534346Y-78271183D01*
X167653241Y-78465202D01*
X167653245Y-78465208D01*
X167655824Y-78469416D01*
X167810031Y-78649969D01*
X167813787Y-78653177D01*
X167813792Y-78653182D01*
X167932056Y-78754189D01*
X167970866Y-78813639D01*
X167971372Y-78884634D01*
X167932056Y-78945811D01*
X167813792Y-79046818D01*
X167813787Y-79046823D01*
X167810031Y-79050031D01*
X167655824Y-79230584D01*
X167653245Y-79234792D01*
X167653241Y-79234798D01*
X167534346Y-79428817D01*
X167531760Y-79433037D01*
X167440895Y-79652406D01*
X167385465Y-79883289D01*
X167366835Y-80120000D01*
X167385465Y-80356711D01*
X167440895Y-80587594D01*
X167531760Y-80806963D01*
X167534346Y-80811183D01*
X167653241Y-81005202D01*
X167653245Y-81005208D01*
X167655824Y-81009416D01*
X167810031Y-81189969D01*
X167813787Y-81193177D01*
X167813792Y-81193182D01*
X167932056Y-81294189D01*
X167970866Y-81353639D01*
X167971372Y-81424634D01*
X167932056Y-81485811D01*
X167813792Y-81586818D01*
X167813787Y-81586823D01*
X167810031Y-81590031D01*
X167655824Y-81770584D01*
X167653245Y-81774792D01*
X167653241Y-81774798D01*
X167534346Y-81968817D01*
X167531760Y-81973037D01*
X167529867Y-81977607D01*
X167529865Y-81977611D01*
X167442789Y-82187833D01*
X167440895Y-82192406D01*
X167427181Y-82249531D01*
X167387731Y-82413851D01*
X167385465Y-82423289D01*
X167366835Y-82660000D01*
X167385465Y-82896711D01*
X167386619Y-82901518D01*
X167386620Y-82901524D01*
X167421640Y-83047391D01*
X167440895Y-83127594D01*
X167442788Y-83132165D01*
X167442789Y-83132167D01*
X167523616Y-83327301D01*
X167531760Y-83346963D01*
X167534346Y-83351183D01*
X167653241Y-83545202D01*
X167653245Y-83545208D01*
X167655824Y-83549416D01*
X167810031Y-83729969D01*
X167813787Y-83733177D01*
X167813792Y-83733182D01*
X167932056Y-83834189D01*
X167970866Y-83893639D01*
X167971372Y-83964634D01*
X167932056Y-84025811D01*
X167813792Y-84126818D01*
X167813787Y-84126823D01*
X167810031Y-84130031D01*
X167655824Y-84310584D01*
X167653245Y-84314792D01*
X167653241Y-84314798D01*
X167557053Y-84471762D01*
X167531760Y-84513037D01*
X167529867Y-84517607D01*
X167529865Y-84517611D01*
X167469105Y-84664300D01*
X167440895Y-84732406D01*
X167439741Y-84737213D01*
X167439740Y-84737216D01*
X167400781Y-84899494D01*
X167385465Y-84963289D01*
X167366835Y-85200000D01*
X167385465Y-85436711D01*
X167440895Y-85667594D01*
X167531760Y-85886963D01*
X167534346Y-85891183D01*
X167653241Y-86085202D01*
X167653245Y-86085208D01*
X167655824Y-86089416D01*
X167810031Y-86269969D01*
X167813787Y-86273177D01*
X167813792Y-86273182D01*
X167932056Y-86374189D01*
X167970866Y-86433639D01*
X167971372Y-86504634D01*
X167932056Y-86565811D01*
X167813792Y-86666818D01*
X167813787Y-86666823D01*
X167810031Y-86670031D01*
X167655824Y-86850584D01*
X167653245Y-86854792D01*
X167653241Y-86854798D01*
X167543344Y-87034134D01*
X167531760Y-87053037D01*
X167529867Y-87057607D01*
X167529865Y-87057611D01*
X167442789Y-87267833D01*
X167440895Y-87272406D01*
X167385465Y-87503289D01*
X167366835Y-87740000D01*
X167385465Y-87976711D01*
X167386619Y-87981518D01*
X167386620Y-87981524D01*
X167409690Y-88077615D01*
X167440895Y-88207594D01*
X167531760Y-88426963D01*
X167534346Y-88431183D01*
X167653241Y-88625202D01*
X167653245Y-88625208D01*
X167655824Y-88629416D01*
X167810031Y-88809969D01*
X167813787Y-88813177D01*
X167813792Y-88813182D01*
X167932056Y-88914189D01*
X167970866Y-88973639D01*
X167971372Y-89044634D01*
X167932056Y-89105811D01*
X167813792Y-89206818D01*
X167813787Y-89206823D01*
X167810031Y-89210031D01*
X167655824Y-89390584D01*
X167653245Y-89394792D01*
X167653241Y-89394798D01*
X167534692Y-89588253D01*
X167531760Y-89593037D01*
X167529867Y-89597607D01*
X167529865Y-89597611D01*
X167442789Y-89807833D01*
X167440895Y-89812406D01*
X167425970Y-89874574D01*
X167386927Y-90037201D01*
X167385465Y-90043289D01*
X167366835Y-90280000D01*
X164507343Y-90280000D01*
X164509936Y-90067737D01*
X164473596Y-89830256D01*
X164436906Y-89718003D01*
X164400566Y-89606817D01*
X164400563Y-89606811D01*
X164398958Y-89601899D01*
X164391855Y-89588253D01*
X164290416Y-89393393D01*
X164288025Y-89388800D01*
X164221470Y-89300157D01*
X164146882Y-89200815D01*
X164146880Y-89200812D01*
X164143777Y-89196680D01*
X163970088Y-89030699D01*
X163932649Y-89005160D01*
X163887648Y-88950249D01*
X163879477Y-88879725D01*
X163910731Y-88815978D01*
X163935210Y-88795284D01*
X163937326Y-88793915D01*
X163945498Y-88787622D01*
X164115480Y-88632950D01*
X164122506Y-88625417D01*
X164264945Y-88445056D01*
X164270650Y-88436469D01*
X164381714Y-88235278D01*
X164385944Y-88225866D01*
X164462659Y-88009232D01*
X164465293Y-87999261D01*
X164482647Y-87901837D01*
X164481187Y-87888540D01*
X164466630Y-87884000D01*
X161531904Y-87884000D01*
X161518560Y-87887918D01*
X161516573Y-87902194D01*
X161526110Y-87964515D01*
X161528499Y-87974543D01*
X161599898Y-88192988D01*
X161603895Y-88202497D01*
X161710011Y-88406344D01*
X161715505Y-88415069D01*
X161853493Y-88598852D01*
X161860336Y-88606559D01*
X162026491Y-88765339D01*
X162034498Y-88771823D01*
X162067356Y-88794237D01*
X162112359Y-88849148D01*
X162120532Y-88919672D01*
X162089278Y-88983420D01*
X162064796Y-89004116D01*
X162063181Y-89005161D01*
X162058023Y-89008498D01*
X161880330Y-89170186D01*
X161845896Y-89213787D01*
X161734633Y-89354670D01*
X161734630Y-89354675D01*
X161731432Y-89358724D01*
X161728939Y-89363240D01*
X161728937Y-89363243D01*
X161711518Y-89394798D01*
X161615326Y-89569050D01*
X161613602Y-89573919D01*
X161613600Y-89573923D01*
X161605319Y-89597309D01*
X161535130Y-89795515D01*
X161534223Y-89800608D01*
X161534222Y-89800611D01*
X161528942Y-89830256D01*
X161492999Y-90032037D01*
X161490064Y-90272263D01*
X148596644Y-90272263D01*
X148603076Y-90174119D01*
X148603346Y-90170000D01*
X148596982Y-90072907D01*
X148584253Y-89878686D01*
X148584252Y-89878679D01*
X148583983Y-89874574D01*
X148570708Y-89807833D01*
X148527030Y-89588253D01*
X148527028Y-89588247D01*
X148526224Y-89584203D01*
X148522735Y-89573923D01*
X148432385Y-89307761D01*
X148432384Y-89307760D01*
X148431059Y-89303855D01*
X148363427Y-89166711D01*
X148301942Y-89042031D01*
X148301939Y-89042026D01*
X148300115Y-89038327D01*
X148241263Y-88950249D01*
X148137926Y-88795593D01*
X148137922Y-88795588D01*
X148135633Y-88792162D01*
X148132919Y-88789068D01*
X148132915Y-88789062D01*
X147943136Y-88572662D01*
X147940427Y-88569573D01*
X147937338Y-88566864D01*
X147720938Y-88377085D01*
X147720932Y-88377081D01*
X147717838Y-88374367D01*
X147714412Y-88372078D01*
X147714407Y-88372074D01*
X147475106Y-88212179D01*
X147471673Y-88209885D01*
X147467974Y-88208061D01*
X147467969Y-88208058D01*
X147331687Y-88140852D01*
X147206145Y-88078941D01*
X147202239Y-88077615D01*
X146929710Y-87985104D01*
X146929706Y-87985103D01*
X146925797Y-87983776D01*
X146921753Y-87982972D01*
X146921747Y-87982970D01*
X146639465Y-87926820D01*
X146639459Y-87926819D01*
X146635426Y-87926017D01*
X146631321Y-87925748D01*
X146631314Y-87925747D01*
X146344119Y-87906924D01*
X146340000Y-87906654D01*
X146335881Y-87906924D01*
X146048686Y-87925747D01*
X146048679Y-87925748D01*
X146044574Y-87926017D01*
X146040541Y-87926819D01*
X146040535Y-87926820D01*
X145758253Y-87982970D01*
X145758247Y-87982972D01*
X145754203Y-87983776D01*
X145750294Y-87985103D01*
X145750290Y-87985104D01*
X145477761Y-88077615D01*
X145473855Y-88078941D01*
X145348313Y-88140852D01*
X145212031Y-88208058D01*
X145212026Y-88208061D01*
X145208327Y-88209885D01*
X145204894Y-88212179D01*
X144965593Y-88372074D01*
X144965588Y-88372078D01*
X144962162Y-88374367D01*
X144959068Y-88377081D01*
X144959062Y-88377085D01*
X144742662Y-88566864D01*
X144739573Y-88569573D01*
X144736864Y-88572662D01*
X144547085Y-88789062D01*
X144547081Y-88789068D01*
X144544367Y-88792162D01*
X144542078Y-88795588D01*
X144542074Y-88795593D01*
X144438737Y-88950249D01*
X144379885Y-89038327D01*
X144378061Y-89042026D01*
X144378058Y-89042031D01*
X144316573Y-89166711D01*
X144248941Y-89303855D01*
X144247616Y-89307760D01*
X144247615Y-89307761D01*
X144157266Y-89573923D01*
X144153776Y-89584203D01*
X144152972Y-89588247D01*
X144152970Y-89588253D01*
X144109293Y-89807833D01*
X144096017Y-89874574D01*
X144095748Y-89878679D01*
X144095747Y-89878686D01*
X144083018Y-90072907D01*
X144076654Y-90170000D01*
X143508000Y-90170000D01*
X143508000Y-87358163D01*
X161517353Y-87358163D01*
X161518813Y-87371460D01*
X161533370Y-87376000D01*
X162727885Y-87376000D01*
X162743124Y-87371525D01*
X162744329Y-87370135D01*
X162746000Y-87362452D01*
X162746000Y-87357885D01*
X163254000Y-87357885D01*
X163258475Y-87373124D01*
X163259865Y-87374329D01*
X163267548Y-87376000D01*
X164468096Y-87376000D01*
X164481440Y-87372082D01*
X164483427Y-87357806D01*
X164473890Y-87295485D01*
X164471501Y-87285457D01*
X164400102Y-87067012D01*
X164396105Y-87057503D01*
X164289989Y-86853656D01*
X164284495Y-86844931D01*
X164146507Y-86661148D01*
X164139664Y-86653441D01*
X163973509Y-86494661D01*
X163965499Y-86488174D01*
X163775653Y-86358670D01*
X163766679Y-86353571D01*
X163558231Y-86256813D01*
X163548544Y-86253250D01*
X163327092Y-86191835D01*
X163316970Y-86189904D01*
X163272013Y-86185099D01*
X163257392Y-86187747D01*
X163254000Y-86200124D01*
X163254000Y-87357885D01*
X162746000Y-87357885D01*
X162746000Y-86199588D01*
X162741675Y-86184859D01*
X162729889Y-86182798D01*
X162718296Y-86183751D01*
X162708134Y-86185433D01*
X162485229Y-86241422D01*
X162475481Y-86244741D01*
X162264711Y-86336385D01*
X162255636Y-86341251D01*
X162062673Y-86466085D01*
X162054502Y-86472378D01*
X161884520Y-86627050D01*
X161877494Y-86634583D01*
X161735055Y-86814944D01*
X161729350Y-86823531D01*
X161618286Y-87024722D01*
X161614056Y-87034134D01*
X161537341Y-87250768D01*
X161534707Y-87260739D01*
X161517353Y-87358163D01*
X143508000Y-87358163D01*
X143508000Y-83785469D01*
X149971095Y-83785469D01*
X149971392Y-83790622D01*
X149971392Y-83790625D01*
X149977067Y-83889041D01*
X149984427Y-84016697D01*
X149985564Y-84021743D01*
X149985565Y-84021749D01*
X150009244Y-84126818D01*
X150035346Y-84242642D01*
X150037288Y-84247424D01*
X150037289Y-84247428D01*
X150087474Y-84371019D01*
X150122484Y-84457237D01*
X150243501Y-84654719D01*
X150395147Y-84829784D01*
X150573349Y-84977730D01*
X150773322Y-85094584D01*
X150989694Y-85177209D01*
X150994760Y-85178240D01*
X150994761Y-85178240D01*
X151047846Y-85189040D01*
X151216656Y-85223385D01*
X151347324Y-85228176D01*
X151442949Y-85231683D01*
X151442953Y-85231683D01*
X151448113Y-85231872D01*
X151453233Y-85231216D01*
X151453235Y-85231216D01*
X151526270Y-85221860D01*
X151677847Y-85202442D01*
X151682795Y-85200957D01*
X151682802Y-85200956D01*
X151894747Y-85137369D01*
X151899690Y-85135886D01*
X151904565Y-85133498D01*
X152103049Y-85036262D01*
X152103052Y-85036260D01*
X152107684Y-85033991D01*
X152296243Y-84899494D01*
X152460303Y-84736005D01*
X152595458Y-84547917D01*
X152614783Y-84508817D01*
X152695784Y-84344922D01*
X152695785Y-84344920D01*
X152698078Y-84340280D01*
X152765408Y-84118671D01*
X152795640Y-83889041D01*
X152795759Y-83884176D01*
X152797245Y-83823365D01*
X152797245Y-83823361D01*
X152797327Y-83820000D01*
X152788264Y-83709762D01*
X152778773Y-83594318D01*
X152778772Y-83594312D01*
X152778349Y-83589167D01*
X152724822Y-83376067D01*
X152723184Y-83369544D01*
X152723183Y-83369540D01*
X152721925Y-83364533D01*
X152719866Y-83359797D01*
X152631630Y-83156868D01*
X152631628Y-83156865D01*
X152629570Y-83152131D01*
X152568674Y-83058000D01*
X153118502Y-83058000D01*
X153138457Y-83286087D01*
X153139881Y-83291400D01*
X153139881Y-83291402D01*
X153155900Y-83351183D01*
X153197716Y-83507243D01*
X153200039Y-83512224D01*
X153200039Y-83512225D01*
X153292151Y-83709762D01*
X153292154Y-83709767D01*
X153294477Y-83714749D01*
X153307384Y-83733182D01*
X153420947Y-83895366D01*
X153425802Y-83902300D01*
X153587700Y-84064198D01*
X153592208Y-84067355D01*
X153592211Y-84067357D01*
X153658173Y-84113544D01*
X153775251Y-84195523D01*
X153780233Y-84197846D01*
X153780238Y-84197849D01*
X153921964Y-84263936D01*
X153982757Y-84292284D01*
X153988065Y-84293706D01*
X153988067Y-84293707D01*
X154198598Y-84350119D01*
X154198600Y-84350119D01*
X154203913Y-84351543D01*
X154432000Y-84371498D01*
X154660087Y-84351543D01*
X154665400Y-84350119D01*
X154665402Y-84350119D01*
X154875933Y-84293707D01*
X154875935Y-84293706D01*
X154881243Y-84292284D01*
X154942036Y-84263936D01*
X155083762Y-84197849D01*
X155083767Y-84197846D01*
X155088749Y-84195523D01*
X155205827Y-84113544D01*
X155271789Y-84067357D01*
X155271792Y-84067355D01*
X155276300Y-84064198D01*
X155342396Y-83998102D01*
X155404708Y-83964076D01*
X155475523Y-83969141D01*
X155532359Y-84011688D01*
X155553198Y-84054585D01*
X155610716Y-84269243D01*
X155613039Y-84274224D01*
X155613039Y-84274225D01*
X155705151Y-84471762D01*
X155705154Y-84471767D01*
X155707477Y-84476749D01*
X155736089Y-84517611D01*
X155829012Y-84650318D01*
X155838802Y-84664300D01*
X156000700Y-84826198D01*
X156005208Y-84829355D01*
X156005211Y-84829357D01*
X156005821Y-84829784D01*
X156188251Y-84957523D01*
X156193233Y-84959846D01*
X156193238Y-84959849D01*
X156352238Y-85033991D01*
X156395757Y-85054284D01*
X156401065Y-85055706D01*
X156401067Y-85055707D01*
X156611598Y-85112119D01*
X156611600Y-85112119D01*
X156616913Y-85113543D01*
X156845000Y-85133498D01*
X157073087Y-85113543D01*
X157078400Y-85112119D01*
X157078402Y-85112119D01*
X157288933Y-85055707D01*
X157288935Y-85055706D01*
X157294243Y-85054284D01*
X157337762Y-85033991D01*
X157496762Y-84959849D01*
X157496767Y-84959846D01*
X157501749Y-84957523D01*
X157684179Y-84829784D01*
X157684789Y-84829357D01*
X157684792Y-84829355D01*
X157689300Y-84826198D01*
X157851198Y-84664300D01*
X157860989Y-84650318D01*
X157953911Y-84517611D01*
X157982523Y-84476749D01*
X157984846Y-84471767D01*
X157984849Y-84471762D01*
X158076961Y-84274225D01*
X158076961Y-84274224D01*
X158079284Y-84269243D01*
X158085130Y-84247428D01*
X158137119Y-84053402D01*
X158137119Y-84053400D01*
X158138543Y-84048087D01*
X158158498Y-83820000D01*
X159976502Y-83820000D01*
X159996457Y-84048087D01*
X159997881Y-84053400D01*
X159997881Y-84053402D01*
X160049871Y-84247428D01*
X160055716Y-84269243D01*
X160058039Y-84274224D01*
X160058039Y-84274225D01*
X160150151Y-84471762D01*
X160150154Y-84471767D01*
X160152477Y-84476749D01*
X160181089Y-84517611D01*
X160274012Y-84650318D01*
X160283802Y-84664300D01*
X160445700Y-84826198D01*
X160450208Y-84829355D01*
X160450211Y-84829357D01*
X160450821Y-84829784D01*
X160633251Y-84957523D01*
X160638233Y-84959846D01*
X160638238Y-84959849D01*
X160797238Y-85033991D01*
X160840757Y-85054284D01*
X160846065Y-85055706D01*
X160846067Y-85055707D01*
X161056598Y-85112119D01*
X161056600Y-85112119D01*
X161061913Y-85113543D01*
X161290000Y-85133498D01*
X161518087Y-85113543D01*
X161523400Y-85112119D01*
X161523402Y-85112119D01*
X161733933Y-85055707D01*
X161733935Y-85055706D01*
X161739243Y-85054284D01*
X161782762Y-85033991D01*
X161941762Y-84959849D01*
X161941767Y-84959846D01*
X161946749Y-84957523D01*
X162129179Y-84829784D01*
X162129789Y-84829357D01*
X162129792Y-84829355D01*
X162134300Y-84826198D01*
X162296198Y-84664300D01*
X162305989Y-84650318D01*
X162398911Y-84517611D01*
X162427523Y-84476749D01*
X162429846Y-84471767D01*
X162429849Y-84471762D01*
X162521961Y-84274225D01*
X162521961Y-84274224D01*
X162524284Y-84269243D01*
X162530130Y-84247428D01*
X162582119Y-84053402D01*
X162582119Y-84053400D01*
X162583543Y-84048087D01*
X162603498Y-83820000D01*
X162583543Y-83591913D01*
X162575073Y-83560301D01*
X162525707Y-83376067D01*
X162525706Y-83376065D01*
X162524284Y-83370757D01*
X162504020Y-83327301D01*
X162429849Y-83168238D01*
X162429846Y-83168233D01*
X162427523Y-83163251D01*
X162296198Y-82975700D01*
X162134300Y-82813802D01*
X162129792Y-82810645D01*
X162129789Y-82810643D01*
X162051611Y-82755902D01*
X161946749Y-82682477D01*
X161941767Y-82680154D01*
X161941762Y-82680151D01*
X161744225Y-82588039D01*
X161744224Y-82588039D01*
X161739243Y-82585716D01*
X161733935Y-82584294D01*
X161733933Y-82584293D01*
X161523402Y-82527881D01*
X161523400Y-82527881D01*
X161518087Y-82526457D01*
X161290000Y-82506502D01*
X161061913Y-82526457D01*
X161056600Y-82527881D01*
X161056598Y-82527881D01*
X160846067Y-82584293D01*
X160846065Y-82584294D01*
X160840757Y-82585716D01*
X160835776Y-82588039D01*
X160835775Y-82588039D01*
X160638238Y-82680151D01*
X160638233Y-82680154D01*
X160633251Y-82682477D01*
X160528389Y-82755902D01*
X160450211Y-82810643D01*
X160450208Y-82810645D01*
X160445700Y-82813802D01*
X160283802Y-82975700D01*
X160152477Y-83163251D01*
X160150154Y-83168233D01*
X160150151Y-83168238D01*
X160075980Y-83327301D01*
X160055716Y-83370757D01*
X160054294Y-83376065D01*
X160054293Y-83376067D01*
X160004927Y-83560301D01*
X159996457Y-83591913D01*
X159976502Y-83820000D01*
X158158498Y-83820000D01*
X158138543Y-83591913D01*
X158130073Y-83560301D01*
X158080707Y-83376067D01*
X158080706Y-83376065D01*
X158079284Y-83370757D01*
X158059020Y-83327301D01*
X157984849Y-83168238D01*
X157984846Y-83168233D01*
X157982523Y-83163251D01*
X157851198Y-82975700D01*
X157689300Y-82813802D01*
X157684792Y-82810645D01*
X157684789Y-82810643D01*
X157606611Y-82755902D01*
X157501749Y-82682477D01*
X157496767Y-82680154D01*
X157496762Y-82680151D01*
X157299225Y-82588039D01*
X157299224Y-82588039D01*
X157294243Y-82585716D01*
X157288935Y-82584294D01*
X157288933Y-82584293D01*
X157078402Y-82527881D01*
X157078400Y-82527881D01*
X157073087Y-82526457D01*
X156845000Y-82506502D01*
X156616913Y-82526457D01*
X156611600Y-82527881D01*
X156611598Y-82527881D01*
X156401067Y-82584293D01*
X156401065Y-82584294D01*
X156395757Y-82585716D01*
X156390776Y-82588039D01*
X156390775Y-82588039D01*
X156193238Y-82680151D01*
X156193233Y-82680154D01*
X156188251Y-82682477D01*
X156083389Y-82755902D01*
X156005211Y-82810643D01*
X156005208Y-82810645D01*
X156000700Y-82813802D01*
X155934604Y-82879898D01*
X155872292Y-82913924D01*
X155801477Y-82908859D01*
X155744641Y-82866312D01*
X155723802Y-82823415D01*
X155667706Y-82614064D01*
X155666284Y-82608757D01*
X155623547Y-82517106D01*
X155571849Y-82406238D01*
X155571846Y-82406233D01*
X155569523Y-82401251D01*
X155463287Y-82249531D01*
X155440500Y-82177260D01*
X155440500Y-78604740D01*
X155463287Y-78532469D01*
X155566366Y-78385257D01*
X155569523Y-78380749D01*
X155571846Y-78375767D01*
X155571849Y-78375762D01*
X155663961Y-78178225D01*
X155663961Y-78178224D01*
X155666284Y-78173243D01*
X155698727Y-78052167D01*
X155724119Y-77957402D01*
X155724119Y-77957400D01*
X155725543Y-77952087D01*
X155745498Y-77724000D01*
X155725543Y-77495913D01*
X155666284Y-77274757D01*
X155588447Y-77107833D01*
X155571849Y-77072238D01*
X155571846Y-77072233D01*
X155569523Y-77067251D01*
X155496098Y-76962389D01*
X155441357Y-76884211D01*
X155441355Y-76884208D01*
X155438198Y-76879700D01*
X155276300Y-76717802D01*
X155271792Y-76714645D01*
X155271789Y-76714643D01*
X155193611Y-76659902D01*
X155088749Y-76586477D01*
X155083767Y-76584154D01*
X155083762Y-76584151D01*
X154886225Y-76492039D01*
X154886224Y-76492039D01*
X154881243Y-76489716D01*
X154875935Y-76488294D01*
X154875933Y-76488293D01*
X154665402Y-76431881D01*
X154665400Y-76431881D01*
X154660087Y-76430457D01*
X154432000Y-76410502D01*
X154203913Y-76430457D01*
X154198600Y-76431881D01*
X154198598Y-76431881D01*
X153988067Y-76488293D01*
X153988065Y-76488294D01*
X153982757Y-76489716D01*
X153977776Y-76492039D01*
X153977775Y-76492039D01*
X153780238Y-76584151D01*
X153780233Y-76584154D01*
X153775251Y-76586477D01*
X153670389Y-76659902D01*
X153592211Y-76714643D01*
X153592208Y-76714645D01*
X153587700Y-76717802D01*
X153425802Y-76879700D01*
X153422645Y-76884208D01*
X153422643Y-76884211D01*
X153367902Y-76962389D01*
X153294477Y-77067251D01*
X153292154Y-77072233D01*
X153292151Y-77072238D01*
X153275553Y-77107833D01*
X153197716Y-77274757D01*
X153138457Y-77495913D01*
X153118502Y-77724000D01*
X153138457Y-77952087D01*
X153139881Y-77957400D01*
X153139881Y-77957402D01*
X153165274Y-78052167D01*
X153197716Y-78173243D01*
X153200039Y-78178224D01*
X153200039Y-78178225D01*
X153292151Y-78375762D01*
X153292154Y-78375767D01*
X153294477Y-78380749D01*
X153297634Y-78385257D01*
X153400713Y-78532469D01*
X153423500Y-78604740D01*
X153423500Y-82177260D01*
X153400713Y-82249531D01*
X153294477Y-82401251D01*
X153292154Y-82406233D01*
X153292151Y-82406238D01*
X153240453Y-82517106D01*
X153197716Y-82608757D01*
X153196294Y-82614064D01*
X153196293Y-82614067D01*
X153149103Y-82790181D01*
X153138457Y-82829913D01*
X153118502Y-83058000D01*
X152568674Y-83058000D01*
X152503764Y-82957665D01*
X152347887Y-82786358D01*
X152343836Y-82783159D01*
X152343832Y-82783155D01*
X152170177Y-82646011D01*
X152170172Y-82646008D01*
X152166123Y-82642810D01*
X152161607Y-82640317D01*
X152161604Y-82640315D01*
X151967879Y-82533373D01*
X151967875Y-82533371D01*
X151963355Y-82530876D01*
X151958486Y-82529152D01*
X151958482Y-82529150D01*
X151749903Y-82455288D01*
X151749899Y-82455287D01*
X151745028Y-82453562D01*
X151739935Y-82452655D01*
X151739932Y-82452654D01*
X151522095Y-82413851D01*
X151522089Y-82413850D01*
X151517006Y-82412945D01*
X151444096Y-82412054D01*
X151290581Y-82410179D01*
X151290579Y-82410179D01*
X151285411Y-82410116D01*
X151056464Y-82445150D01*
X150836314Y-82517106D01*
X150831726Y-82519494D01*
X150831722Y-82519496D01*
X150650059Y-82614064D01*
X150630872Y-82624052D01*
X150626739Y-82627155D01*
X150626736Y-82627157D01*
X150449790Y-82760012D01*
X150445655Y-82763117D01*
X150442083Y-82766855D01*
X150301541Y-82913924D01*
X150285639Y-82930564D01*
X150282725Y-82934836D01*
X150282724Y-82934837D01*
X150267152Y-82957665D01*
X150155119Y-83121899D01*
X150057602Y-83331981D01*
X149995707Y-83555169D01*
X149971095Y-83785469D01*
X143508000Y-83785469D01*
X143508000Y-73660000D01*
X155531502Y-73660000D01*
X155551457Y-73888087D01*
X155610716Y-74109243D01*
X155613039Y-74114224D01*
X155613039Y-74114225D01*
X155705151Y-74311762D01*
X155705154Y-74311767D01*
X155707477Y-74316749D01*
X155838802Y-74504300D01*
X156000700Y-74666198D01*
X156005208Y-74669355D01*
X156005211Y-74669357D01*
X156083389Y-74724098D01*
X156188251Y-74797523D01*
X156193233Y-74799846D01*
X156193238Y-74799849D01*
X156390775Y-74891961D01*
X156395757Y-74894284D01*
X156401065Y-74895706D01*
X156401067Y-74895707D01*
X156611598Y-74952119D01*
X156611600Y-74952119D01*
X156616913Y-74953543D01*
X156845000Y-74973498D01*
X157073087Y-74953543D01*
X157078400Y-74952119D01*
X157078402Y-74952119D01*
X157288933Y-74895707D01*
X157288935Y-74895706D01*
X157294243Y-74894284D01*
X157299225Y-74891961D01*
X157496762Y-74799849D01*
X157496767Y-74799846D01*
X157501749Y-74797523D01*
X157606611Y-74724098D01*
X157684789Y-74669357D01*
X157684792Y-74669355D01*
X157689300Y-74666198D01*
X157851198Y-74504300D01*
X157982523Y-74316749D01*
X157984846Y-74311767D01*
X157984849Y-74311762D01*
X158076961Y-74114225D01*
X158076961Y-74114224D01*
X158079284Y-74109243D01*
X158138543Y-73888087D01*
X158158498Y-73660000D01*
X159976502Y-73660000D01*
X159996457Y-73888087D01*
X160055716Y-74109243D01*
X160058039Y-74114224D01*
X160058039Y-74114225D01*
X160150151Y-74311762D01*
X160150154Y-74311767D01*
X160152477Y-74316749D01*
X160283802Y-74504300D01*
X160445700Y-74666198D01*
X160450208Y-74669355D01*
X160450211Y-74669357D01*
X160528389Y-74724098D01*
X160633251Y-74797523D01*
X160638233Y-74799846D01*
X160638238Y-74799849D01*
X160835775Y-74891961D01*
X160840757Y-74894284D01*
X160846065Y-74895706D01*
X160846067Y-74895707D01*
X161056598Y-74952119D01*
X161056600Y-74952119D01*
X161061913Y-74953543D01*
X161290000Y-74973498D01*
X161518087Y-74953543D01*
X161523400Y-74952119D01*
X161523402Y-74952119D01*
X161733933Y-74895707D01*
X161733935Y-74895706D01*
X161739243Y-74894284D01*
X161744225Y-74891961D01*
X161941762Y-74799849D01*
X161941767Y-74799846D01*
X161946749Y-74797523D01*
X162051611Y-74724098D01*
X162129789Y-74669357D01*
X162129792Y-74669355D01*
X162134300Y-74666198D01*
X162296198Y-74504300D01*
X162427523Y-74316749D01*
X162429846Y-74311767D01*
X162429849Y-74311762D01*
X162521961Y-74114225D01*
X162521961Y-74114224D01*
X162524284Y-74109243D01*
X162583543Y-73888087D01*
X162603498Y-73660000D01*
X162583543Y-73431913D01*
X162524284Y-73210757D01*
X162511056Y-73182389D01*
X162429849Y-73008238D01*
X162429846Y-73008233D01*
X162427523Y-73003251D01*
X162296198Y-72815700D01*
X162134300Y-72653802D01*
X162129792Y-72650645D01*
X162129789Y-72650643D01*
X162051611Y-72595902D01*
X161946749Y-72522477D01*
X161941767Y-72520154D01*
X161941762Y-72520151D01*
X161744225Y-72428039D01*
X161744224Y-72428039D01*
X161739243Y-72425716D01*
X161733935Y-72424294D01*
X161733933Y-72424293D01*
X161523402Y-72367881D01*
X161523400Y-72367881D01*
X161518087Y-72366457D01*
X161290000Y-72346502D01*
X161061913Y-72366457D01*
X161056600Y-72367881D01*
X161056598Y-72367881D01*
X160846067Y-72424293D01*
X160846065Y-72424294D01*
X160840757Y-72425716D01*
X160835776Y-72428039D01*
X160835775Y-72428039D01*
X160638238Y-72520151D01*
X160638233Y-72520154D01*
X160633251Y-72522477D01*
X160528389Y-72595902D01*
X160450211Y-72650643D01*
X160450208Y-72650645D01*
X160445700Y-72653802D01*
X160283802Y-72815700D01*
X160152477Y-73003251D01*
X160150154Y-73008233D01*
X160150151Y-73008238D01*
X160068944Y-73182389D01*
X160055716Y-73210757D01*
X159996457Y-73431913D01*
X159976502Y-73660000D01*
X158158498Y-73660000D01*
X158138543Y-73431913D01*
X158079284Y-73210757D01*
X158066056Y-73182389D01*
X157984849Y-73008238D01*
X157984846Y-73008233D01*
X157982523Y-73003251D01*
X157851198Y-72815700D01*
X157689300Y-72653802D01*
X157684792Y-72650645D01*
X157684789Y-72650643D01*
X157606611Y-72595902D01*
X157501749Y-72522477D01*
X157496767Y-72520154D01*
X157496762Y-72520151D01*
X157299225Y-72428039D01*
X157299224Y-72428039D01*
X157294243Y-72425716D01*
X157288935Y-72424294D01*
X157288933Y-72424293D01*
X157078402Y-72367881D01*
X157078400Y-72367881D01*
X157073087Y-72366457D01*
X156845000Y-72346502D01*
X156616913Y-72366457D01*
X156611600Y-72367881D01*
X156611598Y-72367881D01*
X156401067Y-72424293D01*
X156401065Y-72424294D01*
X156395757Y-72425716D01*
X156390776Y-72428039D01*
X156390775Y-72428039D01*
X156193238Y-72520151D01*
X156193233Y-72520154D01*
X156188251Y-72522477D01*
X156083389Y-72595902D01*
X156005211Y-72650643D01*
X156005208Y-72650645D01*
X156000700Y-72653802D01*
X155838802Y-72815700D01*
X155707477Y-73003251D01*
X155705154Y-73008233D01*
X155705151Y-73008238D01*
X155623944Y-73182389D01*
X155610716Y-73210757D01*
X155551457Y-73431913D01*
X155531502Y-73660000D01*
X143508000Y-73660000D01*
X143508000Y-71447846D01*
X144465500Y-71447846D01*
X144480548Y-71605566D01*
X144540092Y-71808534D01*
X144542836Y-71813861D01*
X144542836Y-71813862D01*
X144590491Y-71906389D01*
X144636942Y-71996580D01*
X144767604Y-72162920D01*
X144772135Y-72166852D01*
X144772138Y-72166855D01*
X144858058Y-72241412D01*
X144927363Y-72301552D01*
X144932549Y-72304552D01*
X144932553Y-72304555D01*
X145056191Y-72376081D01*
X145110454Y-72407473D01*
X145310271Y-72476861D01*
X145316206Y-72477722D01*
X145316208Y-72477722D01*
X145513664Y-72506352D01*
X145513667Y-72506352D01*
X145519604Y-72507213D01*
X145730899Y-72497433D01*
X145864526Y-72465229D01*
X145930701Y-72449281D01*
X145930703Y-72449280D01*
X145936534Y-72447875D01*
X145941992Y-72445393D01*
X145941996Y-72445392D01*
X146057041Y-72393084D01*
X146129087Y-72360326D01*
X146301611Y-72237946D01*
X146305753Y-72233619D01*
X146305759Y-72233614D01*
X146392806Y-72142683D01*
X146454361Y-72107306D01*
X146525270Y-72110825D01*
X146583021Y-72152121D01*
X146590965Y-72163504D01*
X146625522Y-72219348D01*
X146750697Y-72344305D01*
X146756927Y-72348145D01*
X146756928Y-72348146D01*
X146894090Y-72432694D01*
X146901262Y-72437115D01*
X146926217Y-72445392D01*
X147062611Y-72490632D01*
X147062613Y-72490632D01*
X147069139Y-72492797D01*
X147075975Y-72493497D01*
X147075978Y-72493498D01*
X147114386Y-72497433D01*
X147173600Y-72503500D01*
X147974400Y-72503500D01*
X147977646Y-72503163D01*
X147977650Y-72503163D01*
X148073308Y-72493238D01*
X148073312Y-72493237D01*
X148080166Y-72492526D01*
X148086702Y-72490345D01*
X148086704Y-72490345D01*
X148221443Y-72445392D01*
X148247946Y-72436550D01*
X148398348Y-72343478D01*
X148523305Y-72218303D01*
X148560352Y-72158202D01*
X148612275Y-72073968D01*
X148612276Y-72073966D01*
X148615871Y-72068134D01*
X149975500Y-72068134D01*
X149982255Y-72130316D01*
X150033385Y-72266705D01*
X150120739Y-72383261D01*
X150237295Y-72470615D01*
X150373684Y-72521745D01*
X150435866Y-72528500D01*
X152332134Y-72528500D01*
X152394316Y-72521745D01*
X152530705Y-72470615D01*
X152647261Y-72383261D01*
X152734615Y-72266705D01*
X152785745Y-72130316D01*
X152792500Y-72068134D01*
X152792500Y-70171866D01*
X152785745Y-70109684D01*
X152734615Y-69973295D01*
X152647261Y-69856739D01*
X152530705Y-69769385D01*
X152394316Y-69718255D01*
X152332134Y-69711500D01*
X150435866Y-69711500D01*
X150373684Y-69718255D01*
X150237295Y-69769385D01*
X150120739Y-69856739D01*
X150033385Y-69973295D01*
X149982255Y-70109684D01*
X149975500Y-70171866D01*
X149975500Y-72068134D01*
X148615871Y-72068134D01*
X148616115Y-72067738D01*
X148671797Y-71899861D01*
X148682500Y-71795400D01*
X148682500Y-70444600D01*
X148673188Y-70354849D01*
X148672238Y-70345692D01*
X148672237Y-70345688D01*
X148671526Y-70338834D01*
X148667749Y-70327511D01*
X148617868Y-70178002D01*
X148615550Y-70171054D01*
X148522478Y-70020652D01*
X148397303Y-69895695D01*
X148334105Y-69856739D01*
X148252968Y-69806725D01*
X148252966Y-69806724D01*
X148246738Y-69802885D01*
X148086254Y-69749655D01*
X148085389Y-69749368D01*
X148085387Y-69749368D01*
X148078861Y-69747203D01*
X148072025Y-69746503D01*
X148072022Y-69746502D01*
X148028969Y-69742091D01*
X147974400Y-69736500D01*
X147173600Y-69736500D01*
X147170354Y-69736837D01*
X147170350Y-69736837D01*
X147074692Y-69746762D01*
X147074688Y-69746763D01*
X147067834Y-69747474D01*
X147061298Y-69749655D01*
X147061296Y-69749655D01*
X147002159Y-69769385D01*
X146900054Y-69803450D01*
X146749652Y-69896522D01*
X146624695Y-70021697D01*
X146620855Y-70027927D01*
X146620854Y-70027928D01*
X146592926Y-70073236D01*
X146540154Y-70120729D01*
X146470082Y-70132153D01*
X146404958Y-70103879D01*
X146386582Y-70084955D01*
X146380396Y-70077080D01*
X146375865Y-70073148D01*
X146375862Y-70073145D01*
X146225167Y-69942379D01*
X146220637Y-69938448D01*
X146215451Y-69935448D01*
X146215447Y-69935445D01*
X146042742Y-69835533D01*
X146037546Y-69832527D01*
X145837729Y-69763139D01*
X145831794Y-69762278D01*
X145831792Y-69762278D01*
X145634336Y-69733648D01*
X145634333Y-69733648D01*
X145628396Y-69732787D01*
X145417101Y-69742567D01*
X145318902Y-69766233D01*
X145217299Y-69790719D01*
X145217297Y-69790720D01*
X145211466Y-69792125D01*
X145206008Y-69794607D01*
X145206004Y-69794608D01*
X145090959Y-69846916D01*
X145018913Y-69879674D01*
X144846389Y-70002054D01*
X144700119Y-70154850D01*
X144585380Y-70332548D01*
X144561160Y-70392646D01*
X144547076Y-70427594D01*
X144506314Y-70528737D01*
X144465772Y-70736337D01*
X144465500Y-70741899D01*
X144465500Y-71447846D01*
X143508000Y-71447846D01*
X143508000Y-67448134D01*
X150041500Y-67448134D01*
X150048255Y-67510316D01*
X150099385Y-67646705D01*
X150186739Y-67763261D01*
X150303295Y-67850615D01*
X150439684Y-67901745D01*
X150501866Y-67908500D01*
X152198134Y-67908500D01*
X152260316Y-67901745D01*
X152396705Y-67850615D01*
X152513261Y-67763261D01*
X152600615Y-67646705D01*
X152651745Y-67510316D01*
X152652999Y-67498771D01*
X152654113Y-67496090D01*
X152654425Y-67494778D01*
X152654637Y-67494828D01*
X152680238Y-67433210D01*
X152738599Y-67392782D01*
X152809553Y-67390323D01*
X152870572Y-67426616D01*
X152879147Y-67437225D01*
X152888084Y-67447875D01*
X153042125Y-67601916D01*
X153050533Y-67608972D01*
X153228993Y-67733931D01*
X153238489Y-67739414D01*
X153435947Y-67831490D01*
X153446239Y-67835236D01*
X153581549Y-67871492D01*
X153642172Y-67908444D01*
X153673193Y-67972304D01*
X153664765Y-68042799D01*
X153621209Y-68096412D01*
X153465211Y-68205643D01*
X153465208Y-68205645D01*
X153460700Y-68208802D01*
X153298802Y-68370700D01*
X153167477Y-68558251D01*
X153165154Y-68563233D01*
X153165151Y-68563238D01*
X153084674Y-68735824D01*
X153070716Y-68765757D01*
X153069294Y-68771065D01*
X153069293Y-68771067D01*
X153036410Y-68893787D01*
X153011457Y-68986913D01*
X152991502Y-69215000D01*
X153011457Y-69443087D01*
X153070716Y-69664243D01*
X153073039Y-69669224D01*
X153073039Y-69669225D01*
X153165151Y-69866762D01*
X153165154Y-69866767D01*
X153167477Y-69871749D01*
X153187865Y-69900866D01*
X153261748Y-70006381D01*
X153298802Y-70059300D01*
X153460700Y-70221198D01*
X153465208Y-70224355D01*
X153465211Y-70224357D01*
X153516693Y-70260405D01*
X153648251Y-70352523D01*
X153653233Y-70354846D01*
X153653238Y-70354849D01*
X153809242Y-70427594D01*
X153855757Y-70449284D01*
X153861065Y-70450706D01*
X153861067Y-70450707D01*
X154071598Y-70507119D01*
X154071600Y-70507119D01*
X154076913Y-70508543D01*
X154305000Y-70528498D01*
X154533087Y-70508543D01*
X154538400Y-70507119D01*
X154538402Y-70507119D01*
X154748933Y-70450707D01*
X154748935Y-70450706D01*
X154754243Y-70449284D01*
X154800758Y-70427594D01*
X154956762Y-70354849D01*
X154956767Y-70354846D01*
X154961749Y-70352523D01*
X155113469Y-70246287D01*
X155185740Y-70223500D01*
X160720812Y-70223500D01*
X160788933Y-70243502D01*
X160809907Y-70260405D01*
X160855700Y-70306198D01*
X160860208Y-70309355D01*
X160860211Y-70309357D01*
X160902309Y-70338834D01*
X161043251Y-70437523D01*
X161048233Y-70439846D01*
X161048238Y-70439849D01*
X161238861Y-70528737D01*
X161250757Y-70534284D01*
X161256065Y-70535706D01*
X161256067Y-70535707D01*
X161466598Y-70592119D01*
X161466600Y-70592119D01*
X161471913Y-70593543D01*
X161700000Y-70613498D01*
X161928087Y-70593543D01*
X161933400Y-70592119D01*
X161933402Y-70592119D01*
X162143933Y-70535707D01*
X162143935Y-70535706D01*
X162149243Y-70534284D01*
X162161139Y-70528737D01*
X162351762Y-70439849D01*
X162351767Y-70439846D01*
X162356749Y-70437523D01*
X162497691Y-70338834D01*
X162539789Y-70309357D01*
X162539792Y-70309355D01*
X162544300Y-70306198D01*
X162706198Y-70144300D01*
X162714704Y-70132153D01*
X162787683Y-70027928D01*
X162837523Y-69956749D01*
X162839846Y-69951767D01*
X162839849Y-69951762D01*
X162931961Y-69754225D01*
X162931961Y-69754224D01*
X162934284Y-69749243D01*
X162938694Y-69732787D01*
X162992119Y-69533402D01*
X162992119Y-69533400D01*
X162993543Y-69528087D01*
X163013498Y-69300000D01*
X162993543Y-69071913D01*
X162934284Y-68850757D01*
X162931961Y-68845775D01*
X162839849Y-68648238D01*
X162839846Y-68648233D01*
X162837523Y-68643251D01*
X162732443Y-68493182D01*
X162709357Y-68460211D01*
X162709355Y-68460208D01*
X162706198Y-68455700D01*
X162544300Y-68293802D01*
X162539792Y-68290645D01*
X162539789Y-68290643D01*
X162387077Y-68183713D01*
X162356749Y-68162477D01*
X162351767Y-68160154D01*
X162351762Y-68160151D01*
X162154225Y-68068039D01*
X162154224Y-68068039D01*
X162149243Y-68065716D01*
X162143935Y-68064294D01*
X162143933Y-68064293D01*
X161933402Y-68007881D01*
X161933400Y-68007881D01*
X161928087Y-68006457D01*
X161700000Y-67986502D01*
X161471913Y-68006457D01*
X161466600Y-68007881D01*
X161466598Y-68007881D01*
X161256067Y-68064293D01*
X161256065Y-68064294D01*
X161250757Y-68065716D01*
X161245776Y-68068039D01*
X161245775Y-68068039D01*
X161048238Y-68160151D01*
X161048233Y-68160154D01*
X161043251Y-68162477D01*
X161013801Y-68183098D01*
X161012923Y-68183713D01*
X160940652Y-68206500D01*
X155185740Y-68206500D01*
X155113469Y-68183713D01*
X155079819Y-68160151D01*
X154961749Y-68077477D01*
X154956767Y-68075154D01*
X154956762Y-68075151D01*
X154759225Y-67983039D01*
X154759224Y-67983039D01*
X154754243Y-67980716D01*
X154748935Y-67979294D01*
X154748933Y-67979293D01*
X154613355Y-67942965D01*
X154552732Y-67906013D01*
X154521711Y-67842152D01*
X154530139Y-67771658D01*
X154573695Y-67718045D01*
X154729467Y-67608972D01*
X154737875Y-67601916D01*
X154891916Y-67447875D01*
X154898972Y-67439467D01*
X155023931Y-67261007D01*
X155029414Y-67251511D01*
X155045529Y-67216951D01*
X155092446Y-67163666D01*
X155160723Y-67144205D01*
X155228683Y-67164747D01*
X155273919Y-67216951D01*
X155290151Y-67251762D01*
X155290154Y-67251767D01*
X155292477Y-67256749D01*
X155295634Y-67261257D01*
X155416037Y-67433210D01*
X155423802Y-67444300D01*
X155585700Y-67606198D01*
X155590208Y-67609355D01*
X155590211Y-67609357D01*
X155631542Y-67638297D01*
X155773251Y-67737523D01*
X155778233Y-67739846D01*
X155778238Y-67739849D01*
X155974765Y-67831490D01*
X155980757Y-67834284D01*
X155986065Y-67835706D01*
X155986067Y-67835707D01*
X156196598Y-67892119D01*
X156196600Y-67892119D01*
X156201913Y-67893543D01*
X156430000Y-67913498D01*
X156658087Y-67893543D01*
X156663400Y-67892119D01*
X156663402Y-67892119D01*
X156873933Y-67835707D01*
X156873935Y-67835706D01*
X156879243Y-67834284D01*
X156885235Y-67831490D01*
X157081762Y-67739849D01*
X157081767Y-67739846D01*
X157086749Y-67737523D01*
X157228458Y-67638297D01*
X157269789Y-67609357D01*
X157269792Y-67609355D01*
X157274300Y-67606198D01*
X157436198Y-67444300D01*
X157443964Y-67433210D01*
X157564366Y-67261257D01*
X157567523Y-67256749D01*
X157569846Y-67251767D01*
X157569849Y-67251762D01*
X157585805Y-67217543D01*
X157632722Y-67164258D01*
X157700999Y-67144797D01*
X157768959Y-67165339D01*
X157814195Y-67217543D01*
X157830151Y-67251762D01*
X157830154Y-67251767D01*
X157832477Y-67256749D01*
X157835634Y-67261257D01*
X157956037Y-67433210D01*
X157963802Y-67444300D01*
X158125700Y-67606198D01*
X158130208Y-67609355D01*
X158130211Y-67609357D01*
X158171542Y-67638297D01*
X158313251Y-67737523D01*
X158318233Y-67739846D01*
X158318238Y-67739849D01*
X158514765Y-67831490D01*
X158520757Y-67834284D01*
X158526065Y-67835706D01*
X158526067Y-67835707D01*
X158736598Y-67892119D01*
X158736600Y-67892119D01*
X158741913Y-67893543D01*
X158970000Y-67913498D01*
X159198087Y-67893543D01*
X159203400Y-67892119D01*
X159203402Y-67892119D01*
X159413933Y-67835707D01*
X159413935Y-67835706D01*
X159419243Y-67834284D01*
X159425235Y-67831490D01*
X159621762Y-67739849D01*
X159621767Y-67739846D01*
X159626749Y-67737523D01*
X159768458Y-67638297D01*
X159809789Y-67609357D01*
X159809792Y-67609355D01*
X159814300Y-67606198D01*
X159976198Y-67444300D01*
X159983964Y-67433210D01*
X160104366Y-67261257D01*
X160107523Y-67256749D01*
X160109846Y-67251767D01*
X160109849Y-67251762D01*
X160201961Y-67054225D01*
X160201961Y-67054224D01*
X160204284Y-67049243D01*
X160259651Y-66842614D01*
X160262119Y-66833402D01*
X160262119Y-66833400D01*
X160263543Y-66828087D01*
X160283498Y-66600000D01*
X160263543Y-66371913D01*
X160213824Y-66186361D01*
X160205707Y-66156067D01*
X160205706Y-66156065D01*
X160204284Y-66150757D01*
X160109966Y-65948489D01*
X160109849Y-65948238D01*
X160109846Y-65948233D01*
X160107523Y-65943251D01*
X159985802Y-65769416D01*
X159979357Y-65760211D01*
X159979355Y-65760208D01*
X159976198Y-65755700D01*
X159814300Y-65593802D01*
X159809792Y-65590645D01*
X159809789Y-65590643D01*
X159731611Y-65535902D01*
X159626749Y-65462477D01*
X159621767Y-65460154D01*
X159621762Y-65460151D01*
X159424225Y-65368039D01*
X159424224Y-65368039D01*
X159419243Y-65365716D01*
X159413935Y-65364294D01*
X159413933Y-65364293D01*
X159203402Y-65307881D01*
X159203400Y-65307881D01*
X159198087Y-65306457D01*
X158970000Y-65286502D01*
X158741913Y-65306457D01*
X158736600Y-65307881D01*
X158736598Y-65307881D01*
X158526067Y-65364293D01*
X158526065Y-65364294D01*
X158520757Y-65365716D01*
X158515776Y-65368039D01*
X158515775Y-65368039D01*
X158318238Y-65460151D01*
X158318233Y-65460154D01*
X158313251Y-65462477D01*
X158208389Y-65535902D01*
X158130211Y-65590643D01*
X158130208Y-65590645D01*
X158125700Y-65593802D01*
X157963802Y-65755700D01*
X157960645Y-65760208D01*
X157960643Y-65760211D01*
X157954198Y-65769416D01*
X157832477Y-65943251D01*
X157830154Y-65948233D01*
X157830151Y-65948238D01*
X157814195Y-65982457D01*
X157767278Y-66035742D01*
X157699001Y-66055203D01*
X157631041Y-66034661D01*
X157585805Y-65982457D01*
X157569849Y-65948238D01*
X157569846Y-65948233D01*
X157567523Y-65943251D01*
X157445802Y-65769416D01*
X157439357Y-65760211D01*
X157439355Y-65760208D01*
X157436198Y-65755700D01*
X157274300Y-65593802D01*
X157269792Y-65590645D01*
X157269789Y-65590643D01*
X157191611Y-65535902D01*
X157086749Y-65462477D01*
X157081767Y-65460154D01*
X157081762Y-65460151D01*
X156884225Y-65368039D01*
X156884224Y-65368039D01*
X156879243Y-65365716D01*
X156873935Y-65364294D01*
X156873933Y-65364293D01*
X156663402Y-65307881D01*
X156663400Y-65307881D01*
X156658087Y-65306457D01*
X156430000Y-65286502D01*
X156201913Y-65306457D01*
X156196600Y-65307881D01*
X156196598Y-65307881D01*
X155986067Y-65364293D01*
X155986065Y-65364294D01*
X155980757Y-65365716D01*
X155975776Y-65368039D01*
X155975775Y-65368039D01*
X155778238Y-65460151D01*
X155778233Y-65460154D01*
X155773251Y-65462477D01*
X155668389Y-65535902D01*
X155590211Y-65590643D01*
X155590208Y-65590645D01*
X155585700Y-65593802D01*
X155423802Y-65755700D01*
X155420645Y-65760208D01*
X155420643Y-65760211D01*
X155414198Y-65769416D01*
X155292477Y-65943251D01*
X155290154Y-65948233D01*
X155290151Y-65948238D01*
X155273919Y-65983049D01*
X155227002Y-66036334D01*
X155158725Y-66055795D01*
X155090765Y-66035253D01*
X155045529Y-65983049D01*
X155029414Y-65948489D01*
X155023931Y-65938993D01*
X154898972Y-65760533D01*
X154891916Y-65752125D01*
X154737875Y-65598084D01*
X154729467Y-65591028D01*
X154551007Y-65466069D01*
X154541511Y-65460586D01*
X154344053Y-65368510D01*
X154333761Y-65364764D01*
X154161497Y-65318606D01*
X154147401Y-65318942D01*
X154144000Y-65326884D01*
X154144000Y-66728000D01*
X154123998Y-66796121D01*
X154070342Y-66842614D01*
X154018000Y-66854000D01*
X153762000Y-66854000D01*
X153693879Y-66833998D01*
X153647386Y-66780342D01*
X153636000Y-66728000D01*
X153636000Y-65332033D01*
X153632027Y-65318502D01*
X153623478Y-65317273D01*
X153446239Y-65364764D01*
X153435947Y-65368510D01*
X153238489Y-65460586D01*
X153228993Y-65466069D01*
X153050533Y-65591028D01*
X153042125Y-65598084D01*
X152888084Y-65752125D01*
X152877493Y-65764746D01*
X152876475Y-65763892D01*
X152826016Y-65804224D01*
X152755397Y-65811532D01*
X152692037Y-65779500D01*
X152656053Y-65718298D01*
X152653000Y-65701238D01*
X152651745Y-65689684D01*
X152600615Y-65553295D01*
X152513261Y-65436739D01*
X152396705Y-65349385D01*
X152260316Y-65298255D01*
X152198134Y-65291500D01*
X150501866Y-65291500D01*
X150439684Y-65298255D01*
X150303295Y-65349385D01*
X150186739Y-65436739D01*
X150099385Y-65553295D01*
X150048255Y-65689684D01*
X150041500Y-65751866D01*
X150041500Y-67448134D01*
X143508000Y-67448134D01*
X143508000Y-62344930D01*
X167367725Y-62344930D01*
X167385572Y-62571699D01*
X167387115Y-62581446D01*
X167440217Y-62802627D01*
X167443266Y-62812012D01*
X167530313Y-63022163D01*
X167534795Y-63030958D01*
X167637432Y-63198445D01*
X167647890Y-63207907D01*
X167656666Y-63204124D01*
X168507978Y-62352812D01*
X168514356Y-62341132D01*
X169244408Y-62341132D01*
X169244539Y-62342965D01*
X169248790Y-62349580D01*
X170100290Y-63201080D01*
X170112670Y-63207840D01*
X170120320Y-63202113D01*
X170225205Y-63030958D01*
X170229687Y-63022163D01*
X170316734Y-62812012D01*
X170319783Y-62802627D01*
X170372885Y-62581446D01*
X170374428Y-62571699D01*
X170392275Y-62344930D01*
X170392275Y-62335070D01*
X170374428Y-62108301D01*
X170372885Y-62098554D01*
X170319783Y-61877373D01*
X170316734Y-61867988D01*
X170229687Y-61657837D01*
X170225205Y-61649042D01*
X170122568Y-61481555D01*
X170112110Y-61472093D01*
X170103334Y-61475876D01*
X169252022Y-62327188D01*
X169244408Y-62341132D01*
X168514356Y-62341132D01*
X168515592Y-62338868D01*
X168515461Y-62337035D01*
X168511210Y-62330420D01*
X167659710Y-61478920D01*
X167647330Y-61472160D01*
X167639680Y-61477887D01*
X167534795Y-61649042D01*
X167530313Y-61657837D01*
X167443266Y-61867988D01*
X167440217Y-61877373D01*
X167387115Y-62098554D01*
X167385572Y-62108301D01*
X167367725Y-62335070D01*
X167367725Y-62344930D01*
X143508000Y-62344930D01*
X143508000Y-59246522D01*
X150067273Y-59246522D01*
X150114764Y-59423761D01*
X150118510Y-59434053D01*
X150210586Y-59631511D01*
X150216069Y-59641007D01*
X150341028Y-59819467D01*
X150348084Y-59827875D01*
X150502125Y-59981916D01*
X150510533Y-59988972D01*
X150688993Y-60113931D01*
X150698489Y-60119414D01*
X150895947Y-60211490D01*
X150906239Y-60215236D01*
X151078503Y-60261394D01*
X151092599Y-60261058D01*
X151096000Y-60253116D01*
X151096000Y-60247967D01*
X151604000Y-60247967D01*
X151607973Y-60261498D01*
X151616522Y-60262727D01*
X151793761Y-60215236D01*
X151804053Y-60211490D01*
X152001511Y-60119414D01*
X152011007Y-60113931D01*
X152189467Y-59988972D01*
X152197875Y-59981916D01*
X152351916Y-59827875D01*
X152358972Y-59819467D01*
X152483931Y-59641007D01*
X152489414Y-59631511D01*
X152505529Y-59596951D01*
X152552446Y-59543666D01*
X152620723Y-59524205D01*
X152688683Y-59544747D01*
X152733919Y-59596951D01*
X152750151Y-59631762D01*
X152750154Y-59631767D01*
X152752477Y-59636749D01*
X152883802Y-59824300D01*
X153045700Y-59986198D01*
X153050208Y-59989355D01*
X153050211Y-59989357D01*
X153110793Y-60031777D01*
X153233251Y-60117523D01*
X153238233Y-60119846D01*
X153238238Y-60119849D01*
X153434765Y-60211490D01*
X153440757Y-60214284D01*
X153446065Y-60215706D01*
X153446067Y-60215707D01*
X153656598Y-60272119D01*
X153656600Y-60272119D01*
X153661913Y-60273543D01*
X153890000Y-60293498D01*
X154118087Y-60273543D01*
X154123400Y-60272119D01*
X154123402Y-60272119D01*
X154333933Y-60215707D01*
X154333935Y-60215706D01*
X154339243Y-60214284D01*
X154345235Y-60211490D01*
X154541762Y-60119849D01*
X154541767Y-60119846D01*
X154546749Y-60117523D01*
X154669207Y-60031777D01*
X154729789Y-59989357D01*
X154729792Y-59989355D01*
X154734300Y-59986198D01*
X154896198Y-59824300D01*
X155027523Y-59636749D01*
X155029846Y-59631767D01*
X155029849Y-59631762D01*
X155045805Y-59597543D01*
X155092722Y-59544258D01*
X155160999Y-59524797D01*
X155228959Y-59545339D01*
X155274195Y-59597543D01*
X155290151Y-59631762D01*
X155290154Y-59631767D01*
X155292477Y-59636749D01*
X155423802Y-59824300D01*
X155585700Y-59986198D01*
X155590208Y-59989355D01*
X155590211Y-59989357D01*
X155650793Y-60031777D01*
X155773251Y-60117523D01*
X155778233Y-60119846D01*
X155778238Y-60119849D01*
X155974765Y-60211490D01*
X155980757Y-60214284D01*
X155986065Y-60215706D01*
X155986067Y-60215707D01*
X156196598Y-60272119D01*
X156196600Y-60272119D01*
X156201913Y-60273543D01*
X156430000Y-60293498D01*
X156658087Y-60273543D01*
X156663400Y-60272119D01*
X156663402Y-60272119D01*
X156873933Y-60215707D01*
X156873935Y-60215706D01*
X156879243Y-60214284D01*
X156885235Y-60211490D01*
X157081762Y-60119849D01*
X157081767Y-60119846D01*
X157086749Y-60117523D01*
X157209207Y-60031777D01*
X157269789Y-59989357D01*
X157269792Y-59989355D01*
X157274300Y-59986198D01*
X157436198Y-59824300D01*
X157567523Y-59636749D01*
X157569846Y-59631767D01*
X157569849Y-59631762D01*
X157585805Y-59597543D01*
X157632722Y-59544258D01*
X157700999Y-59524797D01*
X157768959Y-59545339D01*
X157814195Y-59597543D01*
X157830151Y-59631762D01*
X157830154Y-59631767D01*
X157832477Y-59636749D01*
X157963802Y-59824300D01*
X158125700Y-59986198D01*
X158130208Y-59989355D01*
X158130211Y-59989357D01*
X158190793Y-60031777D01*
X158313251Y-60117523D01*
X158318233Y-60119846D01*
X158318238Y-60119849D01*
X158514765Y-60211490D01*
X158520757Y-60214284D01*
X158526065Y-60215706D01*
X158526067Y-60215707D01*
X158736598Y-60272119D01*
X158736600Y-60272119D01*
X158741913Y-60273543D01*
X158970000Y-60293498D01*
X159198087Y-60273543D01*
X159203400Y-60272119D01*
X159203402Y-60272119D01*
X159413933Y-60215707D01*
X159413935Y-60215706D01*
X159419243Y-60214284D01*
X159425235Y-60211490D01*
X159621762Y-60119849D01*
X159621767Y-60119846D01*
X159626749Y-60117523D01*
X159749207Y-60031777D01*
X159809789Y-59989357D01*
X159809792Y-59989355D01*
X159814300Y-59986198D01*
X159976198Y-59824300D01*
X159993213Y-59800000D01*
X167366835Y-59800000D01*
X167385465Y-60036711D01*
X167386619Y-60041518D01*
X167386620Y-60041524D01*
X167421640Y-60187391D01*
X167440895Y-60267594D01*
X167442788Y-60272165D01*
X167442789Y-60272167D01*
X167443558Y-60274022D01*
X167531760Y-60486963D01*
X167534346Y-60491183D01*
X167653241Y-60685202D01*
X167653245Y-60685208D01*
X167655824Y-60689416D01*
X167810031Y-60869969D01*
X167813787Y-60873177D01*
X167813792Y-60873182D01*
X167966616Y-61003706D01*
X168005426Y-61063156D01*
X168007640Y-61097558D01*
X168015877Y-61116667D01*
X168867188Y-61967978D01*
X168881132Y-61975592D01*
X168882965Y-61975461D01*
X168889580Y-61971210D01*
X169741080Y-61119710D01*
X169750260Y-61102898D01*
X169764020Y-61039650D01*
X169792776Y-61004225D01*
X169946213Y-60873177D01*
X169949969Y-60869969D01*
X170104176Y-60689416D01*
X170106755Y-60685208D01*
X170106759Y-60685202D01*
X170225654Y-60491183D01*
X170228240Y-60486963D01*
X170316443Y-60274022D01*
X170317211Y-60272167D01*
X170317212Y-60272165D01*
X170319105Y-60267594D01*
X170338360Y-60187391D01*
X170373380Y-60041524D01*
X170373381Y-60041518D01*
X170374535Y-60036711D01*
X170393165Y-59800000D01*
X170374535Y-59563289D01*
X170370084Y-59544747D01*
X170320260Y-59337218D01*
X170319105Y-59332406D01*
X170279990Y-59237973D01*
X170230135Y-59117611D01*
X170230133Y-59117607D01*
X170228240Y-59113037D01*
X170150070Y-58985475D01*
X170106759Y-58914798D01*
X170106755Y-58914792D01*
X170104176Y-58910584D01*
X169949969Y-58730031D01*
X169946213Y-58726823D01*
X169946208Y-58726818D01*
X169827944Y-58625811D01*
X169789134Y-58566361D01*
X169788628Y-58495366D01*
X169827944Y-58434189D01*
X169946208Y-58333182D01*
X169946213Y-58333177D01*
X169949969Y-58329969D01*
X170104176Y-58149416D01*
X170106755Y-58145208D01*
X170106759Y-58145202D01*
X170225654Y-57951183D01*
X170228240Y-57946963D01*
X170230229Y-57942163D01*
X170317211Y-57732167D01*
X170317212Y-57732165D01*
X170319105Y-57727594D01*
X170374535Y-57496711D01*
X170392777Y-57264930D01*
X182607725Y-57264930D01*
X182625572Y-57491699D01*
X182627115Y-57501446D01*
X182680217Y-57722627D01*
X182683266Y-57732012D01*
X182770313Y-57942163D01*
X182774795Y-57950958D01*
X182877432Y-58118445D01*
X182887890Y-58127907D01*
X182896666Y-58124124D01*
X184030905Y-56989885D01*
X184093217Y-56955859D01*
X184164032Y-56960924D01*
X184209095Y-56989885D01*
X185340290Y-58121080D01*
X185352670Y-58127840D01*
X185360320Y-58122113D01*
X185465205Y-57950958D01*
X185469687Y-57942163D01*
X185556734Y-57732012D01*
X185559783Y-57722627D01*
X185612885Y-57501446D01*
X185614428Y-57491699D01*
X185632275Y-57264930D01*
X185632275Y-57255070D01*
X185614428Y-57028301D01*
X185612885Y-57018554D01*
X185559783Y-56797373D01*
X185556734Y-56787988D01*
X185469687Y-56577837D01*
X185465205Y-56569042D01*
X185346357Y-56375101D01*
X185340557Y-56367117D01*
X185334381Y-56359886D01*
X185305349Y-56295096D01*
X185315953Y-56224896D01*
X185362177Y-56172312D01*
X185366705Y-56170615D01*
X185483261Y-56083261D01*
X185570615Y-55966705D01*
X185621745Y-55830316D01*
X185628500Y-55768134D01*
X185628500Y-53671866D01*
X185621745Y-53609684D01*
X185570615Y-53473295D01*
X185483261Y-53356739D01*
X185366705Y-53269385D01*
X185230316Y-53218255D01*
X185168134Y-53211500D01*
X183071866Y-53211500D01*
X183009684Y-53218255D01*
X182873295Y-53269385D01*
X182756739Y-53356739D01*
X182669385Y-53473295D01*
X182618255Y-53609684D01*
X182611500Y-53671866D01*
X182611500Y-55768134D01*
X182618255Y-55830316D01*
X182669385Y-55966705D01*
X182756739Y-56083261D01*
X182873295Y-56170615D01*
X182873450Y-56170673D01*
X182920463Y-56217791D01*
X182935478Y-56287182D01*
X182910594Y-56353675D01*
X182905619Y-56359886D01*
X182899443Y-56367117D01*
X182893643Y-56375101D01*
X182774795Y-56569042D01*
X182770313Y-56577837D01*
X182683266Y-56787988D01*
X182680217Y-56797373D01*
X182627115Y-57018554D01*
X182625572Y-57028301D01*
X182607725Y-57255070D01*
X182607725Y-57264930D01*
X170392777Y-57264930D01*
X170393165Y-57260000D01*
X170374535Y-57023289D01*
X170366516Y-56989885D01*
X170320260Y-56797218D01*
X170319105Y-56792406D01*
X170317211Y-56787833D01*
X170230135Y-56577611D01*
X170230133Y-56577607D01*
X170228240Y-56573037D01*
X170225654Y-56568817D01*
X170106759Y-56374798D01*
X170106755Y-56374792D01*
X170104176Y-56370584D01*
X170100960Y-56366818D01*
X170094829Y-56359639D01*
X170065798Y-56294849D01*
X170076403Y-56224649D01*
X170122527Y-56172181D01*
X170126705Y-56170615D01*
X170243261Y-56083261D01*
X170330615Y-55966705D01*
X170381745Y-55830316D01*
X170388500Y-55768134D01*
X170388500Y-53671866D01*
X170381745Y-53609684D01*
X170330615Y-53473295D01*
X170243261Y-53356739D01*
X170126705Y-53269385D01*
X169990316Y-53218255D01*
X169928134Y-53211500D01*
X167831866Y-53211500D01*
X167769684Y-53218255D01*
X167633295Y-53269385D01*
X167516739Y-53356739D01*
X167429385Y-53473295D01*
X167378255Y-53609684D01*
X167371500Y-53671866D01*
X167371500Y-55768134D01*
X167378255Y-55830316D01*
X167429385Y-55966705D01*
X167516739Y-56083261D01*
X167632876Y-56170301D01*
X167633295Y-56170615D01*
X167633250Y-56170675D01*
X167680018Y-56217552D01*
X167695028Y-56286944D01*
X167670140Y-56353435D01*
X167665171Y-56359639D01*
X167659040Y-56366818D01*
X167655824Y-56370584D01*
X167653245Y-56374792D01*
X167653241Y-56374798D01*
X167534346Y-56568817D01*
X167531760Y-56573037D01*
X167529867Y-56577607D01*
X167529865Y-56577611D01*
X167442789Y-56787833D01*
X167440895Y-56792406D01*
X167439740Y-56797218D01*
X167393485Y-56989885D01*
X167385465Y-57023289D01*
X167366835Y-57260000D01*
X167385465Y-57496711D01*
X167440895Y-57727594D01*
X167442788Y-57732165D01*
X167442789Y-57732167D01*
X167529772Y-57942163D01*
X167531760Y-57946963D01*
X167534346Y-57951183D01*
X167653241Y-58145202D01*
X167653245Y-58145208D01*
X167655824Y-58149416D01*
X167810031Y-58329969D01*
X167813787Y-58333177D01*
X167813792Y-58333182D01*
X167932056Y-58434189D01*
X167970866Y-58493639D01*
X167971372Y-58564634D01*
X167932056Y-58625811D01*
X167813792Y-58726818D01*
X167813787Y-58726823D01*
X167810031Y-58730031D01*
X167655824Y-58910584D01*
X167653245Y-58914792D01*
X167653241Y-58914798D01*
X167609930Y-58985475D01*
X167531760Y-59113037D01*
X167529867Y-59117607D01*
X167529865Y-59117611D01*
X167480010Y-59237973D01*
X167440895Y-59332406D01*
X167439740Y-59337218D01*
X167389917Y-59544747D01*
X167385465Y-59563289D01*
X167366835Y-59800000D01*
X159993213Y-59800000D01*
X160107523Y-59636749D01*
X160109846Y-59631767D01*
X160109849Y-59631762D01*
X160201961Y-59434225D01*
X160201961Y-59434224D01*
X160204284Y-59429243D01*
X160263543Y-59208087D01*
X160283498Y-58980000D01*
X160263543Y-58751913D01*
X160255028Y-58720135D01*
X160205707Y-58536067D01*
X160205706Y-58536065D01*
X160204284Y-58530757D01*
X160180751Y-58480290D01*
X160109849Y-58328238D01*
X160109846Y-58328233D01*
X160107523Y-58323251D01*
X159985802Y-58149416D01*
X159979357Y-58140211D01*
X159979355Y-58140208D01*
X159976198Y-58135700D01*
X159814300Y-57973802D01*
X159809792Y-57970645D01*
X159809789Y-57970643D01*
X159731611Y-57915902D01*
X159626749Y-57842477D01*
X159621767Y-57840154D01*
X159621762Y-57840151D01*
X159424225Y-57748039D01*
X159424224Y-57748039D01*
X159419243Y-57745716D01*
X159413935Y-57744294D01*
X159413933Y-57744293D01*
X159203402Y-57687881D01*
X159203400Y-57687881D01*
X159198087Y-57686457D01*
X158970000Y-57666502D01*
X158741913Y-57686457D01*
X158736600Y-57687881D01*
X158736598Y-57687881D01*
X158526067Y-57744293D01*
X158526065Y-57744294D01*
X158520757Y-57745716D01*
X158515776Y-57748039D01*
X158515775Y-57748039D01*
X158318238Y-57840151D01*
X158318233Y-57840154D01*
X158313251Y-57842477D01*
X158208389Y-57915902D01*
X158130211Y-57970643D01*
X158130208Y-57970645D01*
X158125700Y-57973802D01*
X157963802Y-58135700D01*
X157960645Y-58140208D01*
X157960643Y-58140211D01*
X157954198Y-58149416D01*
X157832477Y-58323251D01*
X157830154Y-58328233D01*
X157830151Y-58328238D01*
X157814195Y-58362457D01*
X157767278Y-58415742D01*
X157699001Y-58435203D01*
X157631041Y-58414661D01*
X157585805Y-58362457D01*
X157569849Y-58328238D01*
X157569846Y-58328233D01*
X157567523Y-58323251D01*
X157445802Y-58149416D01*
X157439357Y-58140211D01*
X157439355Y-58140208D01*
X157436198Y-58135700D01*
X157274300Y-57973802D01*
X157269792Y-57970645D01*
X157269789Y-57970643D01*
X157191611Y-57915902D01*
X157086749Y-57842477D01*
X157081767Y-57840154D01*
X157081762Y-57840151D01*
X156884225Y-57748039D01*
X156884224Y-57748039D01*
X156879243Y-57745716D01*
X156873935Y-57744294D01*
X156873933Y-57744293D01*
X156663402Y-57687881D01*
X156663400Y-57687881D01*
X156658087Y-57686457D01*
X156430000Y-57666502D01*
X156201913Y-57686457D01*
X156196600Y-57687881D01*
X156196598Y-57687881D01*
X155986067Y-57744293D01*
X155986065Y-57744294D01*
X155980757Y-57745716D01*
X155975776Y-57748039D01*
X155975775Y-57748039D01*
X155778238Y-57840151D01*
X155778233Y-57840154D01*
X155773251Y-57842477D01*
X155668389Y-57915902D01*
X155590211Y-57970643D01*
X155590208Y-57970645D01*
X155585700Y-57973802D01*
X155423802Y-58135700D01*
X155420645Y-58140208D01*
X155420643Y-58140211D01*
X155414198Y-58149416D01*
X155292477Y-58323251D01*
X155290154Y-58328233D01*
X155290151Y-58328238D01*
X155274195Y-58362457D01*
X155227278Y-58415742D01*
X155159001Y-58435203D01*
X155091041Y-58414661D01*
X155045805Y-58362457D01*
X155029849Y-58328238D01*
X155029846Y-58328233D01*
X155027523Y-58323251D01*
X154905802Y-58149416D01*
X154899357Y-58140211D01*
X154899355Y-58140208D01*
X154896198Y-58135700D01*
X154734300Y-57973802D01*
X154729792Y-57970645D01*
X154729789Y-57970643D01*
X154651611Y-57915902D01*
X154546749Y-57842477D01*
X154541767Y-57840154D01*
X154541762Y-57840151D01*
X154344225Y-57748039D01*
X154344224Y-57748039D01*
X154339243Y-57745716D01*
X154333935Y-57744294D01*
X154333933Y-57744293D01*
X154123402Y-57687881D01*
X154123400Y-57687881D01*
X154118087Y-57686457D01*
X153890000Y-57666502D01*
X153661913Y-57686457D01*
X153656600Y-57687881D01*
X153656598Y-57687881D01*
X153446067Y-57744293D01*
X153446065Y-57744294D01*
X153440757Y-57745716D01*
X153435776Y-57748039D01*
X153435775Y-57748039D01*
X153238238Y-57840151D01*
X153238233Y-57840154D01*
X153233251Y-57842477D01*
X153128389Y-57915902D01*
X153050211Y-57970643D01*
X153050208Y-57970645D01*
X153045700Y-57973802D01*
X152883802Y-58135700D01*
X152880645Y-58140208D01*
X152880643Y-58140211D01*
X152874198Y-58149416D01*
X152752477Y-58323251D01*
X152750154Y-58328233D01*
X152750151Y-58328238D01*
X152733919Y-58363049D01*
X152687002Y-58416334D01*
X152618725Y-58435795D01*
X152550765Y-58415253D01*
X152505529Y-58363049D01*
X152489414Y-58328489D01*
X152483931Y-58318993D01*
X152358972Y-58140533D01*
X152351916Y-58132125D01*
X152197875Y-57978084D01*
X152189467Y-57971028D01*
X152011007Y-57846069D01*
X152001511Y-57840586D01*
X151804053Y-57748510D01*
X151793761Y-57744764D01*
X151621497Y-57698606D01*
X151607401Y-57698942D01*
X151604000Y-57706884D01*
X151604000Y-60247967D01*
X151096000Y-60247967D01*
X151096000Y-59252115D01*
X151091525Y-59236876D01*
X151090135Y-59235671D01*
X151082452Y-59234000D01*
X150082033Y-59234000D01*
X150068502Y-59237973D01*
X150067273Y-59246522D01*
X143508000Y-59246522D01*
X143508000Y-58708503D01*
X150068606Y-58708503D01*
X150068942Y-58722599D01*
X150076884Y-58726000D01*
X151077885Y-58726000D01*
X151093124Y-58721525D01*
X151094329Y-58720135D01*
X151096000Y-58712452D01*
X151096000Y-57712033D01*
X151092027Y-57698502D01*
X151083478Y-57697273D01*
X150906239Y-57744764D01*
X150895947Y-57748510D01*
X150698489Y-57840586D01*
X150688993Y-57846069D01*
X150510533Y-57971028D01*
X150502125Y-57978084D01*
X150348084Y-58132125D01*
X150341028Y-58140533D01*
X150216069Y-58318993D01*
X150210586Y-58328489D01*
X150118510Y-58525947D01*
X150114764Y-58536239D01*
X150068606Y-58708503D01*
X143508000Y-58708503D01*
X143508000Y-55334670D01*
X148230160Y-55334670D01*
X148235887Y-55342320D01*
X148407042Y-55447205D01*
X148415837Y-55451687D01*
X148625988Y-55538734D01*
X148635373Y-55541783D01*
X148856554Y-55594885D01*
X148866301Y-55596428D01*
X149093070Y-55614275D01*
X149102930Y-55614275D01*
X149329699Y-55596428D01*
X149339446Y-55594885D01*
X149560627Y-55541783D01*
X149570012Y-55538734D01*
X149780163Y-55451687D01*
X149788958Y-55447205D01*
X149956445Y-55344568D01*
X149965907Y-55334110D01*
X149962124Y-55325334D01*
X149110812Y-54474022D01*
X149096868Y-54466408D01*
X149095035Y-54466539D01*
X149088420Y-54470790D01*
X148236920Y-55322290D01*
X148230160Y-55334670D01*
X143508000Y-55334670D01*
X143508000Y-54106930D01*
X147585725Y-54106930D01*
X147603572Y-54333699D01*
X147605115Y-54343446D01*
X147658217Y-54564627D01*
X147661266Y-54574012D01*
X147748313Y-54784163D01*
X147752795Y-54792958D01*
X147855432Y-54960445D01*
X147865890Y-54969907D01*
X147874666Y-54966124D01*
X148725978Y-54114812D01*
X148732356Y-54103132D01*
X149462408Y-54103132D01*
X149462539Y-54104965D01*
X149466790Y-54111580D01*
X150318290Y-54963080D01*
X150330670Y-54969840D01*
X150338320Y-54964113D01*
X150443205Y-54792958D01*
X150447687Y-54784163D01*
X150534734Y-54574012D01*
X150537783Y-54564627D01*
X150590885Y-54343446D01*
X150592428Y-54333699D01*
X150610275Y-54106930D01*
X150610275Y-54097070D01*
X150592428Y-53870301D01*
X150590885Y-53860554D01*
X150537783Y-53639373D01*
X150534734Y-53629988D01*
X150447687Y-53419837D01*
X150443205Y-53411042D01*
X150340568Y-53243555D01*
X150330110Y-53234093D01*
X150321334Y-53237876D01*
X149470022Y-54089188D01*
X149462408Y-54103132D01*
X148732356Y-54103132D01*
X148733592Y-54100868D01*
X148733461Y-54099035D01*
X148729210Y-54092420D01*
X147877710Y-53240920D01*
X147865330Y-53234160D01*
X147857680Y-53239887D01*
X147752795Y-53411042D01*
X147748313Y-53419837D01*
X147661266Y-53629988D01*
X147658217Y-53639373D01*
X147605115Y-53860554D01*
X147603572Y-53870301D01*
X147585725Y-54097070D01*
X147585725Y-54106930D01*
X143508000Y-54106930D01*
X143508000Y-52869890D01*
X148230093Y-52869890D01*
X148233876Y-52878666D01*
X149085188Y-53729978D01*
X149099132Y-53737592D01*
X149100965Y-53737461D01*
X149107580Y-53733210D01*
X149959080Y-52881710D01*
X149965840Y-52869330D01*
X149960113Y-52861680D01*
X149788958Y-52756795D01*
X149780163Y-52752313D01*
X149570012Y-52665266D01*
X149560627Y-52662217D01*
X149339446Y-52609115D01*
X149329699Y-52607572D01*
X149102930Y-52589725D01*
X149093070Y-52589725D01*
X148866301Y-52607572D01*
X148856554Y-52609115D01*
X148635373Y-52662217D01*
X148625988Y-52665266D01*
X148415837Y-52752313D01*
X148407042Y-52756795D01*
X148239555Y-52859432D01*
X148230093Y-52869890D01*
X143508000Y-52869890D01*
X143508000Y-47842246D01*
X149891500Y-47842246D01*
X149906548Y-47999966D01*
X149966092Y-48202934D01*
X149968836Y-48208261D01*
X149968836Y-48208262D01*
X150016440Y-48300690D01*
X150062942Y-48390980D01*
X150193604Y-48557320D01*
X150198135Y-48561252D01*
X150198138Y-48561255D01*
X150284058Y-48635812D01*
X150353363Y-48695952D01*
X150358549Y-48698952D01*
X150358553Y-48698955D01*
X150454957Y-48754726D01*
X150536454Y-48801873D01*
X150736271Y-48871261D01*
X150742206Y-48872122D01*
X150742208Y-48872122D01*
X150939664Y-48900752D01*
X150939667Y-48900752D01*
X150945604Y-48901613D01*
X151156899Y-48891833D01*
X151288077Y-48860219D01*
X151356701Y-48843681D01*
X151356703Y-48843680D01*
X151362534Y-48842275D01*
X151367992Y-48839793D01*
X151367996Y-48839792D01*
X151483041Y-48787484D01*
X151555087Y-48754726D01*
X151727611Y-48632346D01*
X151873881Y-48479550D01*
X151877688Y-48473655D01*
X151894746Y-48447237D01*
X151948501Y-48400860D01*
X152018797Y-48390907D01*
X152083314Y-48420539D01*
X152099681Y-48437751D01*
X152193604Y-48557320D01*
X152198135Y-48561252D01*
X152198138Y-48561255D01*
X152284058Y-48635812D01*
X152353363Y-48695952D01*
X152358549Y-48698952D01*
X152358553Y-48698955D01*
X152454957Y-48754726D01*
X152536454Y-48801873D01*
X152736271Y-48871261D01*
X152742206Y-48872122D01*
X152742208Y-48872122D01*
X152939664Y-48900752D01*
X152939667Y-48900752D01*
X152945604Y-48901613D01*
X153156899Y-48891833D01*
X153288077Y-48860219D01*
X153356701Y-48843681D01*
X153356703Y-48843680D01*
X153362534Y-48842275D01*
X153367992Y-48839793D01*
X153367996Y-48839792D01*
X153483041Y-48787484D01*
X153555087Y-48754726D01*
X153727611Y-48632346D01*
X153873881Y-48479550D01*
X153877688Y-48473655D01*
X153894746Y-48447237D01*
X153948501Y-48400860D01*
X154018797Y-48390907D01*
X154083314Y-48420539D01*
X154099681Y-48437751D01*
X154193604Y-48557320D01*
X154198135Y-48561252D01*
X154198138Y-48561255D01*
X154284058Y-48635812D01*
X154353363Y-48695952D01*
X154358549Y-48698952D01*
X154358553Y-48698955D01*
X154454957Y-48754726D01*
X154536454Y-48801873D01*
X154736271Y-48871261D01*
X154742206Y-48872122D01*
X154742208Y-48872122D01*
X154939664Y-48900752D01*
X154939667Y-48900752D01*
X154945604Y-48901613D01*
X155156899Y-48891833D01*
X155288077Y-48860219D01*
X155356701Y-48843681D01*
X155356703Y-48843680D01*
X155362534Y-48842275D01*
X155367992Y-48839793D01*
X155367996Y-48839792D01*
X155483041Y-48787484D01*
X155555087Y-48754726D01*
X155727611Y-48632346D01*
X155873881Y-48479550D01*
X155877688Y-48473655D01*
X155894746Y-48447237D01*
X155948501Y-48400860D01*
X156018797Y-48390907D01*
X156083314Y-48420539D01*
X156099681Y-48437751D01*
X156193604Y-48557320D01*
X156198135Y-48561252D01*
X156198138Y-48561255D01*
X156284058Y-48635812D01*
X156353363Y-48695952D01*
X156358549Y-48698952D01*
X156358553Y-48698955D01*
X156454957Y-48754726D01*
X156536454Y-48801873D01*
X156736271Y-48871261D01*
X156742206Y-48872122D01*
X156742208Y-48872122D01*
X156939664Y-48900752D01*
X156939667Y-48900752D01*
X156945604Y-48901613D01*
X157156899Y-48891833D01*
X157288077Y-48860219D01*
X157356701Y-48843681D01*
X157356703Y-48843680D01*
X157362534Y-48842275D01*
X157367992Y-48839793D01*
X157367996Y-48839792D01*
X157483041Y-48787484D01*
X157555087Y-48754726D01*
X157727611Y-48632346D01*
X157731749Y-48628023D01*
X157731754Y-48628019D01*
X157819164Y-48536709D01*
X157880720Y-48501333D01*
X157951629Y-48504852D01*
X158009379Y-48546149D01*
X158017326Y-48557537D01*
X158048063Y-48607207D01*
X158057099Y-48618608D01*
X158171829Y-48733139D01*
X158183240Y-48742151D01*
X158321243Y-48827216D01*
X158334424Y-48833363D01*
X158488710Y-48884538D01*
X158502086Y-48887405D01*
X158596438Y-48897072D01*
X158602854Y-48897400D01*
X158727885Y-48897400D01*
X158743124Y-48892925D01*
X158744329Y-48891535D01*
X158746000Y-48883852D01*
X158746000Y-48879284D01*
X159254000Y-48879284D01*
X159258475Y-48894523D01*
X159259865Y-48895728D01*
X159267548Y-48897399D01*
X159397095Y-48897399D01*
X159403614Y-48897062D01*
X159499206Y-48887143D01*
X159512600Y-48884251D01*
X159666784Y-48832812D01*
X159679962Y-48826639D01*
X159817807Y-48741337D01*
X159829208Y-48732301D01*
X159943739Y-48617571D01*
X159952751Y-48606160D01*
X160037816Y-48468157D01*
X160043963Y-48454976D01*
X160095138Y-48300690D01*
X160098005Y-48287314D01*
X160107672Y-48192962D01*
X160108000Y-48186546D01*
X160108000Y-47786515D01*
X160103525Y-47771276D01*
X160102135Y-47770071D01*
X160094452Y-47768400D01*
X159272115Y-47768400D01*
X159256876Y-47772875D01*
X159255671Y-47774265D01*
X159254000Y-47781948D01*
X159254000Y-48879284D01*
X158746000Y-48879284D01*
X158746000Y-47242285D01*
X159254000Y-47242285D01*
X159258475Y-47257524D01*
X159259865Y-47258729D01*
X159267548Y-47260400D01*
X160089884Y-47260400D01*
X160105123Y-47255925D01*
X160106328Y-47254535D01*
X160107999Y-47246852D01*
X160107999Y-46842305D01*
X160107662Y-46835786D01*
X160097743Y-46740194D01*
X160094851Y-46726800D01*
X160043412Y-46572616D01*
X160037239Y-46559438D01*
X159951937Y-46421593D01*
X159942901Y-46410192D01*
X159828171Y-46295661D01*
X159816760Y-46286649D01*
X159678757Y-46201584D01*
X159665576Y-46195437D01*
X159511290Y-46144262D01*
X159497914Y-46141395D01*
X159403562Y-46131728D01*
X159397145Y-46131400D01*
X159272115Y-46131400D01*
X159256876Y-46135875D01*
X159255671Y-46137265D01*
X159254000Y-46144948D01*
X159254000Y-47242285D01*
X158746000Y-47242285D01*
X158746000Y-46149516D01*
X158741525Y-46134277D01*
X158740135Y-46133072D01*
X158732452Y-46131401D01*
X158602905Y-46131401D01*
X158596386Y-46131738D01*
X158500794Y-46141657D01*
X158487400Y-46144549D01*
X158333216Y-46195988D01*
X158320038Y-46202161D01*
X158182193Y-46287463D01*
X158170792Y-46296499D01*
X158056261Y-46411229D01*
X158047249Y-46422640D01*
X158019255Y-46468055D01*
X157966483Y-46515548D01*
X157896411Y-46526972D01*
X157831287Y-46498698D01*
X157812912Y-46479775D01*
X157806396Y-46471480D01*
X157801865Y-46467548D01*
X157801862Y-46467545D01*
X157651167Y-46336779D01*
X157646637Y-46332848D01*
X157641451Y-46329848D01*
X157641447Y-46329845D01*
X157468742Y-46229933D01*
X157463546Y-46226927D01*
X157263729Y-46157539D01*
X157257794Y-46156678D01*
X157257792Y-46156678D01*
X157060336Y-46128048D01*
X157060333Y-46128048D01*
X157054396Y-46127187D01*
X156843101Y-46136967D01*
X156721018Y-46166389D01*
X156643299Y-46185119D01*
X156643297Y-46185120D01*
X156637466Y-46186525D01*
X156632008Y-46189007D01*
X156632004Y-46189008D01*
X156516959Y-46241316D01*
X156444913Y-46274074D01*
X156272389Y-46396454D01*
X156126119Y-46549250D01*
X156122868Y-46554285D01*
X156122866Y-46554288D01*
X156105254Y-46581563D01*
X156051499Y-46627940D01*
X155981203Y-46637893D01*
X155916686Y-46608261D01*
X155900317Y-46591047D01*
X155885840Y-46572616D01*
X155806396Y-46471480D01*
X155801865Y-46467548D01*
X155801862Y-46467545D01*
X155651167Y-46336779D01*
X155646637Y-46332848D01*
X155641451Y-46329848D01*
X155641447Y-46329845D01*
X155468742Y-46229933D01*
X155463546Y-46226927D01*
X155263729Y-46157539D01*
X155257794Y-46156678D01*
X155257792Y-46156678D01*
X155060336Y-46128048D01*
X155060333Y-46128048D01*
X155054396Y-46127187D01*
X154843101Y-46136967D01*
X154721018Y-46166389D01*
X154643299Y-46185119D01*
X154643297Y-46185120D01*
X154637466Y-46186525D01*
X154632008Y-46189007D01*
X154632004Y-46189008D01*
X154516959Y-46241316D01*
X154444913Y-46274074D01*
X154272389Y-46396454D01*
X154126119Y-46549250D01*
X154122868Y-46554285D01*
X154122866Y-46554288D01*
X154105254Y-46581563D01*
X154051499Y-46627940D01*
X153981203Y-46637893D01*
X153916686Y-46608261D01*
X153900317Y-46591047D01*
X153885840Y-46572616D01*
X153806396Y-46471480D01*
X153801865Y-46467548D01*
X153801862Y-46467545D01*
X153651167Y-46336779D01*
X153646637Y-46332848D01*
X153641451Y-46329848D01*
X153641447Y-46329845D01*
X153468742Y-46229933D01*
X153463546Y-46226927D01*
X153263729Y-46157539D01*
X153257794Y-46156678D01*
X153257792Y-46156678D01*
X153060336Y-46128048D01*
X153060333Y-46128048D01*
X153054396Y-46127187D01*
X152843101Y-46136967D01*
X152721018Y-46166389D01*
X152643299Y-46185119D01*
X152643297Y-46185120D01*
X152637466Y-46186525D01*
X152632008Y-46189007D01*
X152632004Y-46189008D01*
X152516959Y-46241316D01*
X152444913Y-46274074D01*
X152272389Y-46396454D01*
X152126119Y-46549250D01*
X152122868Y-46554285D01*
X152122866Y-46554288D01*
X152105254Y-46581563D01*
X152051499Y-46627940D01*
X151981203Y-46637893D01*
X151916686Y-46608261D01*
X151900317Y-46591047D01*
X151885840Y-46572616D01*
X151806396Y-46471480D01*
X151801865Y-46467548D01*
X151801862Y-46467545D01*
X151651167Y-46336779D01*
X151646637Y-46332848D01*
X151641451Y-46329848D01*
X151641447Y-46329845D01*
X151468742Y-46229933D01*
X151463546Y-46226927D01*
X151263729Y-46157539D01*
X151257794Y-46156678D01*
X151257792Y-46156678D01*
X151060336Y-46128048D01*
X151060333Y-46128048D01*
X151054396Y-46127187D01*
X150843101Y-46136967D01*
X150721018Y-46166389D01*
X150643299Y-46185119D01*
X150643297Y-46185120D01*
X150637466Y-46186525D01*
X150632008Y-46189007D01*
X150632004Y-46189008D01*
X150516959Y-46241316D01*
X150444913Y-46274074D01*
X150272389Y-46396454D01*
X150126119Y-46549250D01*
X150011380Y-46726948D01*
X149932314Y-46923137D01*
X149891772Y-47130737D01*
X149891500Y-47136299D01*
X149891500Y-47842246D01*
X143508000Y-47842246D01*
X143508000Y-46055400D01*
X172477500Y-46055400D01*
X172477837Y-46058646D01*
X172477837Y-46058650D01*
X172487577Y-46152516D01*
X172488474Y-46161165D01*
X172490655Y-46167701D01*
X172490655Y-46167703D01*
X172527300Y-46277541D01*
X172544450Y-46328945D01*
X172637522Y-46479348D01*
X172762697Y-46604305D01*
X172768927Y-46608145D01*
X172768928Y-46608146D01*
X172906090Y-46692694D01*
X172913262Y-46697115D01*
X172988020Y-46721911D01*
X173074611Y-46750632D01*
X173074613Y-46750632D01*
X173081139Y-46752797D01*
X173087975Y-46753497D01*
X173087978Y-46753498D01*
X173130973Y-46757903D01*
X173185600Y-46763500D01*
X174286400Y-46763500D01*
X174289646Y-46763163D01*
X174289650Y-46763163D01*
X174385307Y-46753238D01*
X174385311Y-46753237D01*
X174392165Y-46752526D01*
X174398701Y-46750345D01*
X174398703Y-46750345D01*
X174550033Y-46699857D01*
X174559945Y-46696550D01*
X174710348Y-46603478D01*
X174835305Y-46478303D01*
X174861922Y-46435123D01*
X174924275Y-46333968D01*
X174924276Y-46333966D01*
X174928115Y-46327738D01*
X174971997Y-46195437D01*
X174981632Y-46166389D01*
X174981632Y-46166387D01*
X174983797Y-46159861D01*
X174984524Y-46152771D01*
X174988909Y-46109969D01*
X174994500Y-46055400D01*
X174994500Y-45561999D01*
X175477500Y-45561999D01*
X175477749Y-45564786D01*
X175477749Y-45564792D01*
X175484009Y-45634929D01*
X175492383Y-45728762D01*
X175551663Y-45945451D01*
X175648378Y-46148218D01*
X175779471Y-46330654D01*
X175843795Y-46392988D01*
X175936362Y-46482692D01*
X175940799Y-46486992D01*
X176127262Y-46612290D01*
X176332967Y-46702588D01*
X176338418Y-46703897D01*
X176338422Y-46703898D01*
X176543938Y-46753238D01*
X176551411Y-46755032D01*
X176635475Y-46759879D01*
X176770083Y-46767640D01*
X176770086Y-46767640D01*
X176775690Y-46767963D01*
X176998715Y-46740975D01*
X177213435Y-46674918D01*
X177218415Y-46672348D01*
X177218419Y-46672346D01*
X177408081Y-46574454D01*
X177408082Y-46574454D01*
X177413064Y-46571882D01*
X177591292Y-46435123D01*
X177742485Y-46268964D01*
X177788263Y-46195988D01*
X177858885Y-46083405D01*
X177861864Y-46078656D01*
X177945656Y-45870217D01*
X177991213Y-45650233D01*
X177994500Y-45593225D01*
X177994500Y-45559175D01*
X178478000Y-45559175D01*
X178478249Y-45564770D01*
X178492378Y-45723078D01*
X178494360Y-45734092D01*
X178550651Y-45939860D01*
X178554549Y-45950341D01*
X178646397Y-46142903D01*
X178652082Y-46152516D01*
X178776575Y-46325767D01*
X178783883Y-46334233D01*
X178937082Y-46482692D01*
X178945779Y-46489735D01*
X179122844Y-46608719D01*
X179132642Y-46614105D01*
X179327990Y-46699857D01*
X179338582Y-46703422D01*
X179464384Y-46733624D01*
X179478470Y-46732919D01*
X179482000Y-46724040D01*
X179482000Y-46723411D01*
X179990000Y-46723411D01*
X179994105Y-46737393D01*
X180003728Y-46738886D01*
X180003973Y-46738834D01*
X180207883Y-46676102D01*
X180218229Y-46671881D01*
X180407814Y-46574029D01*
X180417245Y-46568043D01*
X180586501Y-46438168D01*
X180594724Y-46430607D01*
X180738312Y-46272806D01*
X180745067Y-46263906D01*
X180858434Y-46083185D01*
X180863511Y-46073219D01*
X180943080Y-45875286D01*
X180946315Y-45864571D01*
X180989777Y-45654699D01*
X180990980Y-45645562D01*
X180993895Y-45595010D01*
X180994000Y-45591363D01*
X180994000Y-45517115D01*
X180989525Y-45501876D01*
X180988135Y-45500671D01*
X180980452Y-45499000D01*
X180008115Y-45499000D01*
X179992876Y-45503475D01*
X179991671Y-45504865D01*
X179990000Y-45512548D01*
X179990000Y-46723411D01*
X179482000Y-46723411D01*
X179482000Y-45517115D01*
X179477525Y-45501876D01*
X179476135Y-45500671D01*
X179468452Y-45499000D01*
X178496115Y-45499000D01*
X178480876Y-45503475D01*
X178479671Y-45504865D01*
X178478000Y-45512548D01*
X178478000Y-45559175D01*
X177994500Y-45559175D01*
X177994500Y-44972885D01*
X178478000Y-44972885D01*
X178482475Y-44988124D01*
X178483865Y-44989329D01*
X178491548Y-44991000D01*
X179463885Y-44991000D01*
X179479124Y-44986525D01*
X179480329Y-44985135D01*
X179482000Y-44977452D01*
X179482000Y-44972885D01*
X179990000Y-44972885D01*
X179994475Y-44988124D01*
X179995865Y-44989329D01*
X180003548Y-44991000D01*
X180975885Y-44991000D01*
X180991124Y-44986525D01*
X180992329Y-44985135D01*
X180994000Y-44977452D01*
X180994000Y-44930825D01*
X180993751Y-44925230D01*
X180979622Y-44766922D01*
X180977640Y-44755908D01*
X180921349Y-44550140D01*
X180917451Y-44539659D01*
X180825603Y-44347097D01*
X180819918Y-44337484D01*
X180695425Y-44164233D01*
X180688117Y-44155767D01*
X180534918Y-44007308D01*
X180526221Y-44000265D01*
X180349156Y-43881281D01*
X180339358Y-43875895D01*
X180144010Y-43790143D01*
X180133418Y-43786578D01*
X180007616Y-43756376D01*
X179993530Y-43757081D01*
X179990000Y-43765960D01*
X179990000Y-44972885D01*
X179482000Y-44972885D01*
X179482000Y-43766589D01*
X179477895Y-43752607D01*
X179468272Y-43751114D01*
X179468027Y-43751166D01*
X179264117Y-43813898D01*
X179253771Y-43818119D01*
X179064186Y-43915971D01*
X179054755Y-43921957D01*
X178885499Y-44051832D01*
X178877276Y-44059393D01*
X178733688Y-44217194D01*
X178726933Y-44226094D01*
X178613566Y-44406815D01*
X178608489Y-44416781D01*
X178528920Y-44614714D01*
X178525685Y-44625429D01*
X178482223Y-44835301D01*
X178481020Y-44844438D01*
X178478105Y-44894990D01*
X178478000Y-44898637D01*
X178478000Y-44972885D01*
X177994500Y-44972885D01*
X177994500Y-44928001D01*
X177991880Y-44898637D01*
X177980116Y-44766833D01*
X177979617Y-44761238D01*
X177920337Y-44544549D01*
X177823622Y-44341782D01*
X177692529Y-44159346D01*
X177584726Y-44054877D01*
X177535229Y-44006911D01*
X177535226Y-44006909D01*
X177531201Y-44003008D01*
X177344738Y-43877710D01*
X177139033Y-43787412D01*
X177133582Y-43786103D01*
X177133578Y-43786102D01*
X176926046Y-43736278D01*
X176926045Y-43736278D01*
X176920589Y-43734968D01*
X176836525Y-43730121D01*
X176701917Y-43722360D01*
X176701914Y-43722360D01*
X176696310Y-43722037D01*
X176473285Y-43749025D01*
X176258565Y-43815082D01*
X176253585Y-43817652D01*
X176253581Y-43817654D01*
X176120152Y-43886522D01*
X176058936Y-43918118D01*
X175880708Y-44054877D01*
X175729515Y-44221036D01*
X175726537Y-44225783D01*
X175726535Y-44225786D01*
X175665170Y-44323611D01*
X175610136Y-44411344D01*
X175526344Y-44619783D01*
X175480787Y-44839767D01*
X175477500Y-44896775D01*
X175477500Y-45561999D01*
X174994500Y-45561999D01*
X174994500Y-44434600D01*
X174992651Y-44416781D01*
X174984238Y-44335693D01*
X174984237Y-44335689D01*
X174983526Y-44328835D01*
X174927550Y-44161055D01*
X174834478Y-44010652D01*
X174709303Y-43885695D01*
X174702142Y-43881281D01*
X174564968Y-43796725D01*
X174564966Y-43796724D01*
X174558738Y-43792885D01*
X174437303Y-43752607D01*
X174397389Y-43739368D01*
X174397387Y-43739368D01*
X174390861Y-43737203D01*
X174384025Y-43736503D01*
X174384022Y-43736502D01*
X174340969Y-43732091D01*
X174286400Y-43726500D01*
X173185600Y-43726500D01*
X173182354Y-43726837D01*
X173182350Y-43726837D01*
X173086693Y-43736762D01*
X173086689Y-43736763D01*
X173079835Y-43737474D01*
X173073299Y-43739655D01*
X173073297Y-43739655D01*
X172994452Y-43765960D01*
X172912055Y-43793450D01*
X172761652Y-43886522D01*
X172636695Y-44011697D01*
X172632855Y-44017927D01*
X172632854Y-44017928D01*
X172547889Y-44155767D01*
X172543885Y-44162262D01*
X172488203Y-44330139D01*
X172487503Y-44336975D01*
X172487502Y-44336978D01*
X172487450Y-44337484D01*
X172477500Y-44434600D01*
X172477500Y-46055400D01*
X143508000Y-46055400D01*
X143508000Y-42445604D01*
X166252787Y-42445604D01*
X166262567Y-42656899D01*
X166263971Y-42662724D01*
X166263971Y-42662725D01*
X166288460Y-42764337D01*
X166312125Y-42862534D01*
X166314607Y-42867992D01*
X166314608Y-42867996D01*
X166358053Y-42963546D01*
X166399674Y-43055087D01*
X166522054Y-43227611D01*
X166674850Y-43373881D01*
X166852548Y-43488620D01*
X166858114Y-43490863D01*
X167043168Y-43565442D01*
X167043171Y-43565443D01*
X167048737Y-43567686D01*
X167256337Y-43608228D01*
X167261899Y-43608500D01*
X167967846Y-43608500D01*
X168125566Y-43593452D01*
X168328534Y-43533908D01*
X168412111Y-43490863D01*
X168511249Y-43439804D01*
X168511252Y-43439802D01*
X168516580Y-43437058D01*
X168682920Y-43306396D01*
X168686852Y-43301865D01*
X168686855Y-43301862D01*
X168817621Y-43151167D01*
X168821552Y-43146637D01*
X168824552Y-43141451D01*
X168824555Y-43141447D01*
X168924467Y-42968742D01*
X168927473Y-42963546D01*
X168996861Y-42763729D01*
X169005447Y-42704516D01*
X169026352Y-42560336D01*
X169026352Y-42560333D01*
X169027213Y-42554396D01*
X169017433Y-42343101D01*
X168967875Y-42137466D01*
X168928508Y-42050882D01*
X168882806Y-41950368D01*
X168880326Y-41944913D01*
X168757946Y-41772389D01*
X168605150Y-41626119D01*
X168599255Y-41622312D01*
X168572837Y-41605254D01*
X168526460Y-41551499D01*
X168516507Y-41481203D01*
X168546139Y-41416686D01*
X168563353Y-41400317D01*
X168570446Y-41394746D01*
X168682920Y-41306396D01*
X168686852Y-41301865D01*
X168686855Y-41301862D01*
X168817621Y-41151167D01*
X168821552Y-41146637D01*
X168824552Y-41141451D01*
X168824555Y-41141447D01*
X168924467Y-40968742D01*
X168927473Y-40963546D01*
X168965259Y-40854733D01*
X174723822Y-40854733D01*
X174723975Y-40859121D01*
X174723975Y-40859127D01*
X174730628Y-41049632D01*
X174733625Y-41135458D01*
X174734387Y-41139781D01*
X174734388Y-41139788D01*
X174758164Y-41274624D01*
X174782402Y-41412087D01*
X174869203Y-41679235D01*
X174871131Y-41683188D01*
X174871133Y-41683193D01*
X174926313Y-41796328D01*
X174992340Y-41931702D01*
X174994795Y-41935341D01*
X174994798Y-41935347D01*
X175004930Y-41950368D01*
X175149415Y-42164576D01*
X175337371Y-42373322D01*
X175552550Y-42553879D01*
X175790764Y-42702731D01*
X176047375Y-42816982D01*
X176317390Y-42894407D01*
X176321740Y-42895018D01*
X176321743Y-42895019D01*
X176424690Y-42909487D01*
X176595552Y-42933500D01*
X176806146Y-42933500D01*
X176808332Y-42933347D01*
X176808336Y-42933347D01*
X177011827Y-42919118D01*
X177011832Y-42919117D01*
X177016212Y-42918811D01*
X177290970Y-42860409D01*
X177295099Y-42858906D01*
X177295103Y-42858905D01*
X177550781Y-42765846D01*
X177550785Y-42765844D01*
X177554926Y-42764337D01*
X177802942Y-42632464D01*
X177806503Y-42629877D01*
X178026629Y-42469947D01*
X178026632Y-42469944D01*
X178030192Y-42467358D01*
X178232252Y-42272231D01*
X178405188Y-42050882D01*
X178407384Y-42047078D01*
X178407389Y-42047071D01*
X178543435Y-41811431D01*
X178545636Y-41807619D01*
X178650862Y-41547176D01*
X178662351Y-41501095D01*
X178717753Y-41278893D01*
X178717754Y-41278888D01*
X178718817Y-41274624D01*
X178722532Y-41239284D01*
X178747719Y-40999636D01*
X178747719Y-40999633D01*
X178748178Y-40995267D01*
X178747252Y-40968742D01*
X178738529Y-40718939D01*
X178738528Y-40718933D01*
X178738375Y-40714542D01*
X178729239Y-40662725D01*
X178692477Y-40454243D01*
X178689598Y-40437913D01*
X178602797Y-40170765D01*
X178479660Y-39918298D01*
X178477205Y-39914659D01*
X178477202Y-39914653D01*
X178378449Y-39768246D01*
X178322585Y-39685424D01*
X178269187Y-39626119D01*
X178137566Y-39479940D01*
X178134629Y-39476678D01*
X177919450Y-39296121D01*
X177681236Y-39147269D01*
X177424625Y-39033018D01*
X177154610Y-38955593D01*
X177150260Y-38954982D01*
X177150257Y-38954981D01*
X177047310Y-38940513D01*
X176876448Y-38916500D01*
X176665854Y-38916500D01*
X176663668Y-38916653D01*
X176663664Y-38916653D01*
X176460173Y-38930882D01*
X176460168Y-38930883D01*
X176455788Y-38931189D01*
X176181030Y-38989591D01*
X176176901Y-38991094D01*
X176176897Y-38991095D01*
X175921219Y-39084154D01*
X175921215Y-39084156D01*
X175917074Y-39085663D01*
X175669058Y-39217536D01*
X175665499Y-39220122D01*
X175665497Y-39220123D01*
X175560895Y-39296121D01*
X175441808Y-39382642D01*
X175438644Y-39385698D01*
X175438641Y-39385700D01*
X175390371Y-39432314D01*
X175239748Y-39577769D01*
X175152787Y-39689075D01*
X175083878Y-39777275D01*
X175066812Y-39799118D01*
X175064616Y-39802922D01*
X175064611Y-39802929D01*
X174982637Y-39944913D01*
X174926364Y-40042381D01*
X174821138Y-40302824D01*
X174820073Y-40307097D01*
X174820072Y-40307099D01*
X174782143Y-40459225D01*
X174753183Y-40575376D01*
X174752724Y-40579744D01*
X174752723Y-40579749D01*
X174732791Y-40769393D01*
X174723822Y-40854733D01*
X168965259Y-40854733D01*
X168996861Y-40763729D01*
X169011506Y-40662725D01*
X169026352Y-40560336D01*
X169026352Y-40560333D01*
X169027213Y-40554396D01*
X169017433Y-40343101D01*
X168967875Y-40137466D01*
X168924525Y-40042122D01*
X168882806Y-39950368D01*
X168880326Y-39944913D01*
X168757946Y-39772389D01*
X168753623Y-39768251D01*
X168753619Y-39768246D01*
X168662309Y-39680836D01*
X168626933Y-39619280D01*
X168630452Y-39548371D01*
X168671749Y-39490621D01*
X168683137Y-39482674D01*
X168732807Y-39451937D01*
X168744208Y-39442901D01*
X168858739Y-39328171D01*
X168867751Y-39316760D01*
X168952816Y-39178757D01*
X168958963Y-39165576D01*
X169010138Y-39011290D01*
X169013005Y-38997914D01*
X169022672Y-38903562D01*
X169023000Y-38897146D01*
X169023000Y-38772115D01*
X169018525Y-38756876D01*
X169017135Y-38755671D01*
X169009452Y-38754000D01*
X166275116Y-38754000D01*
X166259877Y-38758475D01*
X166258672Y-38759865D01*
X166257001Y-38767548D01*
X166257001Y-38897095D01*
X166257338Y-38903614D01*
X166267257Y-38999206D01*
X166270149Y-39012600D01*
X166321588Y-39166784D01*
X166327761Y-39179962D01*
X166413063Y-39317807D01*
X166422099Y-39329208D01*
X166536829Y-39443739D01*
X166548240Y-39452751D01*
X166593655Y-39480745D01*
X166641148Y-39533517D01*
X166652572Y-39603589D01*
X166624298Y-39668713D01*
X166605375Y-39687088D01*
X166597080Y-39693604D01*
X166593148Y-39698135D01*
X166593145Y-39698138D01*
X166508526Y-39795653D01*
X166458448Y-39853363D01*
X166455448Y-39858549D01*
X166455445Y-39858553D01*
X166408312Y-39940026D01*
X166352527Y-40036454D01*
X166283139Y-40236271D01*
X166252787Y-40445604D01*
X166262567Y-40656899D01*
X166263971Y-40662724D01*
X166263971Y-40662725D01*
X166308936Y-40849300D01*
X166312125Y-40862534D01*
X166314607Y-40867992D01*
X166314608Y-40867996D01*
X166358053Y-40963546D01*
X166399674Y-41055087D01*
X166522054Y-41227611D01*
X166674850Y-41373881D01*
X166679888Y-41377134D01*
X166707163Y-41394746D01*
X166753540Y-41448501D01*
X166763493Y-41518797D01*
X166733861Y-41583314D01*
X166716649Y-41599681D01*
X166597080Y-41693604D01*
X166593148Y-41698135D01*
X166593145Y-41698138D01*
X166524474Y-41777275D01*
X166458448Y-41853363D01*
X166455448Y-41858549D01*
X166455445Y-41858553D01*
X166411019Y-41935347D01*
X166352527Y-42036454D01*
X166283139Y-42236271D01*
X166252787Y-42445604D01*
X143508000Y-42445604D01*
X143508000Y-40005000D01*
X149054502Y-40005000D01*
X149074457Y-40233087D01*
X149075881Y-40238400D01*
X149075881Y-40238402D01*
X149129810Y-40439664D01*
X149133716Y-40454243D01*
X149136039Y-40459224D01*
X149136039Y-40459225D01*
X149228151Y-40656762D01*
X149228154Y-40656767D01*
X149230477Y-40661749D01*
X149361802Y-40849300D01*
X149523700Y-41011198D01*
X149528208Y-41014355D01*
X149528211Y-41014357D01*
X149578589Y-41049632D01*
X149711251Y-41142523D01*
X149716233Y-41144846D01*
X149716238Y-41144849D01*
X149913775Y-41236961D01*
X149918757Y-41239284D01*
X149924065Y-41240706D01*
X149924067Y-41240707D01*
X150134598Y-41297119D01*
X150134600Y-41297119D01*
X150139913Y-41298543D01*
X150368000Y-41318498D01*
X150596087Y-41298543D01*
X150601400Y-41297119D01*
X150601402Y-41297119D01*
X150811933Y-41240707D01*
X150811935Y-41240706D01*
X150817243Y-41239284D01*
X150822225Y-41236961D01*
X151019762Y-41144849D01*
X151019767Y-41144846D01*
X151024749Y-41142523D01*
X151157411Y-41049632D01*
X151207789Y-41014357D01*
X151207792Y-41014355D01*
X151212300Y-41011198D01*
X151374198Y-40849300D01*
X151505523Y-40661749D01*
X151507846Y-40656767D01*
X151507849Y-40656762D01*
X151599961Y-40459225D01*
X151599961Y-40459224D01*
X151602284Y-40454243D01*
X151606191Y-40439664D01*
X151660119Y-40238402D01*
X151660119Y-40238400D01*
X151661543Y-40233087D01*
X151681498Y-40005000D01*
X161754502Y-40005000D01*
X161774457Y-40233087D01*
X161775881Y-40238400D01*
X161775881Y-40238402D01*
X161829810Y-40439664D01*
X161833716Y-40454243D01*
X161836039Y-40459224D01*
X161836039Y-40459225D01*
X161928151Y-40656762D01*
X161928154Y-40656767D01*
X161930477Y-40661749D01*
X162061802Y-40849300D01*
X162223700Y-41011198D01*
X162228208Y-41014355D01*
X162228211Y-41014357D01*
X162278589Y-41049632D01*
X162411251Y-41142523D01*
X162416233Y-41144846D01*
X162416238Y-41144849D01*
X162613775Y-41236961D01*
X162618757Y-41239284D01*
X162624065Y-41240706D01*
X162624067Y-41240707D01*
X162834598Y-41297119D01*
X162834600Y-41297119D01*
X162839913Y-41298543D01*
X163068000Y-41318498D01*
X163296087Y-41298543D01*
X163301400Y-41297119D01*
X163301402Y-41297119D01*
X163511933Y-41240707D01*
X163511935Y-41240706D01*
X163517243Y-41239284D01*
X163522225Y-41236961D01*
X163719762Y-41144849D01*
X163719767Y-41144846D01*
X163724749Y-41142523D01*
X163857411Y-41049632D01*
X163907789Y-41014357D01*
X163907792Y-41014355D01*
X163912300Y-41011198D01*
X164074198Y-40849300D01*
X164205523Y-40661749D01*
X164207846Y-40656767D01*
X164207849Y-40656762D01*
X164299961Y-40459225D01*
X164299961Y-40459224D01*
X164302284Y-40454243D01*
X164306191Y-40439664D01*
X164360119Y-40238402D01*
X164360119Y-40238400D01*
X164361543Y-40233087D01*
X164381498Y-40005000D01*
X164361543Y-39776913D01*
X164337476Y-39687094D01*
X164303707Y-39561067D01*
X164303706Y-39561065D01*
X164302284Y-39555757D01*
X164298840Y-39548371D01*
X164207849Y-39353238D01*
X164207846Y-39353233D01*
X164205523Y-39348251D01*
X164113995Y-39217536D01*
X164077357Y-39165211D01*
X164077355Y-39165208D01*
X164074198Y-39160700D01*
X163912300Y-38998802D01*
X163907792Y-38995645D01*
X163907789Y-38995643D01*
X163794761Y-38916500D01*
X163724749Y-38867477D01*
X163719767Y-38865154D01*
X163719762Y-38865151D01*
X163522225Y-38773039D01*
X163522224Y-38773039D01*
X163517243Y-38770716D01*
X163511935Y-38769294D01*
X163511933Y-38769293D01*
X163301402Y-38712881D01*
X163301400Y-38712881D01*
X163296087Y-38711457D01*
X163068000Y-38691502D01*
X162839913Y-38711457D01*
X162834600Y-38712881D01*
X162834598Y-38712881D01*
X162624067Y-38769293D01*
X162624065Y-38769294D01*
X162618757Y-38770716D01*
X162613776Y-38773039D01*
X162613775Y-38773039D01*
X162416238Y-38865151D01*
X162416233Y-38865154D01*
X162411251Y-38867477D01*
X162341239Y-38916500D01*
X162228211Y-38995643D01*
X162228208Y-38995645D01*
X162223700Y-38998802D01*
X162061802Y-39160700D01*
X162058645Y-39165208D01*
X162058643Y-39165211D01*
X162022005Y-39217536D01*
X161930477Y-39348251D01*
X161928154Y-39353233D01*
X161928151Y-39353238D01*
X161837160Y-39548371D01*
X161833716Y-39555757D01*
X161832294Y-39561065D01*
X161832293Y-39561067D01*
X161798524Y-39687094D01*
X161774457Y-39776913D01*
X161754502Y-40005000D01*
X151681498Y-40005000D01*
X151661543Y-39776913D01*
X151637476Y-39687094D01*
X151603707Y-39561067D01*
X151603706Y-39561065D01*
X151602284Y-39555757D01*
X151598840Y-39548371D01*
X151507849Y-39353238D01*
X151507846Y-39353233D01*
X151505523Y-39348251D01*
X151413995Y-39217536D01*
X151377357Y-39165211D01*
X151377355Y-39165208D01*
X151374198Y-39160700D01*
X151212300Y-38998802D01*
X151207792Y-38995645D01*
X151207789Y-38995643D01*
X151094761Y-38916500D01*
X151024749Y-38867477D01*
X151019767Y-38865154D01*
X151019762Y-38865151D01*
X150822225Y-38773039D01*
X150822224Y-38773039D01*
X150817243Y-38770716D01*
X150811935Y-38769294D01*
X150811933Y-38769293D01*
X150601402Y-38712881D01*
X150601400Y-38712881D01*
X150596087Y-38711457D01*
X150368000Y-38691502D01*
X150139913Y-38711457D01*
X150134600Y-38712881D01*
X150134598Y-38712881D01*
X149924067Y-38769293D01*
X149924065Y-38769294D01*
X149918757Y-38770716D01*
X149913776Y-38773039D01*
X149913775Y-38773039D01*
X149716238Y-38865151D01*
X149716233Y-38865154D01*
X149711251Y-38867477D01*
X149641239Y-38916500D01*
X149528211Y-38995643D01*
X149528208Y-38995645D01*
X149523700Y-38998802D01*
X149361802Y-39160700D01*
X149358645Y-39165208D01*
X149358643Y-39165211D01*
X149322005Y-39217536D01*
X149230477Y-39348251D01*
X149228154Y-39353233D01*
X149228151Y-39353238D01*
X149137160Y-39548371D01*
X149133716Y-39555757D01*
X149132294Y-39561065D01*
X149132293Y-39561067D01*
X149098524Y-39687094D01*
X149074457Y-39776913D01*
X149054502Y-40005000D01*
X143508000Y-40005000D01*
X143508000Y-38227885D01*
X166257000Y-38227885D01*
X166261475Y-38243124D01*
X166262865Y-38244329D01*
X166270548Y-38246000D01*
X167367885Y-38246000D01*
X167383124Y-38241525D01*
X167384329Y-38240135D01*
X167386000Y-38232452D01*
X167386000Y-38227885D01*
X167894000Y-38227885D01*
X167898475Y-38243124D01*
X167899865Y-38244329D01*
X167907548Y-38246000D01*
X169004884Y-38246000D01*
X169020123Y-38241525D01*
X169021328Y-38240135D01*
X169022999Y-38232452D01*
X169022999Y-38102905D01*
X169022662Y-38096386D01*
X169012743Y-38000794D01*
X169009851Y-37987400D01*
X168958412Y-37833216D01*
X168952239Y-37820038D01*
X168866937Y-37682193D01*
X168857901Y-37670792D01*
X168743171Y-37556261D01*
X168731760Y-37547249D01*
X168593757Y-37462184D01*
X168580576Y-37456037D01*
X168426290Y-37404862D01*
X168412914Y-37401995D01*
X168318562Y-37392328D01*
X168312145Y-37392000D01*
X167912115Y-37392000D01*
X167896876Y-37396475D01*
X167895671Y-37397865D01*
X167894000Y-37405548D01*
X167894000Y-38227885D01*
X167386000Y-38227885D01*
X167386000Y-37410116D01*
X167381525Y-37394877D01*
X167380135Y-37393672D01*
X167372452Y-37392001D01*
X166967905Y-37392001D01*
X166961386Y-37392338D01*
X166865794Y-37402257D01*
X166852400Y-37405149D01*
X166698216Y-37456588D01*
X166685038Y-37462761D01*
X166547193Y-37548063D01*
X166535792Y-37557099D01*
X166421261Y-37671829D01*
X166412249Y-37683240D01*
X166327184Y-37821243D01*
X166321037Y-37834424D01*
X166269862Y-37988710D01*
X166266995Y-38002086D01*
X166257328Y-38096438D01*
X166257000Y-38102855D01*
X166257000Y-38227885D01*
X143508000Y-38227885D01*
X143508000Y-36733364D01*
X143528002Y-36665243D01*
X143581658Y-36618750D01*
X143651932Y-36608646D01*
X143716512Y-36638140D01*
X143742116Y-36668658D01*
X143764561Y-36706161D01*
X143944313Y-36930528D01*
X144152851Y-37128423D01*
X144386317Y-37296186D01*
X144390112Y-37298195D01*
X144390113Y-37298196D01*
X144411869Y-37309715D01*
X144640392Y-37430712D01*
X144910373Y-37529511D01*
X145191264Y-37590755D01*
X145219841Y-37593004D01*
X145414282Y-37608307D01*
X145414291Y-37608307D01*
X145416739Y-37608500D01*
X145572271Y-37608500D01*
X145574407Y-37608354D01*
X145574418Y-37608354D01*
X145782548Y-37594165D01*
X145782554Y-37594164D01*
X145786825Y-37593873D01*
X145791020Y-37593004D01*
X145791022Y-37593004D01*
X145964401Y-37557099D01*
X146068342Y-37535574D01*
X146339343Y-37439607D01*
X146594812Y-37307750D01*
X146598313Y-37305289D01*
X146598317Y-37305287D01*
X146712418Y-37225095D01*
X146830023Y-37142441D01*
X147040622Y-36946740D01*
X147222713Y-36724268D01*
X147372927Y-36479142D01*
X147488483Y-36215898D01*
X147567244Y-35939406D01*
X147607751Y-35654784D01*
X147607845Y-35636951D01*
X147609235Y-35371583D01*
X147609235Y-35371576D01*
X147609257Y-35367297D01*
X147571732Y-35082266D01*
X147495871Y-34804964D01*
X147464659Y-34731788D01*
X147384763Y-34544476D01*
X147384761Y-34544472D01*
X147383077Y-34540524D01*
X147235439Y-34293839D01*
X147055687Y-34069472D01*
X146847149Y-33871577D01*
X146658921Y-33736321D01*
X146615274Y-33680328D01*
X146608828Y-33609624D01*
X146641631Y-33546660D01*
X146703267Y-33511426D01*
X146732448Y-33508000D01*
X183268940Y-33508000D01*
X183337061Y-33528002D01*
G37*
%TD.AperFunction*%
%TD*%
M02*
