%TF.GenerationSoftware,KiCad,Pcbnew,(6.0.0)*%
%TF.CreationDate,2022-05-13T15:55:31+02:00*%
%TF.ProjectId,carte fils araign_e,63617274-6520-4666-996c-732061726169,rev?*%
%TF.SameCoordinates,Original*%
%TF.FileFunction,Copper,L2,Bot*%
%TF.FilePolarity,Positive*%
%FSLAX46Y46*%
G04 Gerber Fmt 4.6, Leading zero omitted, Abs format (unit mm)*
G04 Created by KiCad (PCBNEW (6.0.0)) date 2022-05-13 15:55:31*
%MOMM*%
%LPD*%
G01*
G04 APERTURE LIST*
G04 Aperture macros list*
%AMRoundRect*
0 Rectangle with rounded corners*
0 $1 Rounding radius*
0 $2 $3 $4 $5 $6 $7 $8 $9 X,Y pos of 4 corners*
0 Add a 4 corners polygon primitive as box body*
4,1,4,$2,$3,$4,$5,$6,$7,$8,$9,$2,$3,0*
0 Add four circle primitives for the rounded corners*
1,1,$1+$1,$2,$3*
1,1,$1+$1,$4,$5*
1,1,$1+$1,$6,$7*
1,1,$1+$1,$8,$9*
0 Add four rect primitives between the rounded corners*
20,1,$1+$1,$2,$3,$4,$5,0*
20,1,$1+$1,$4,$5,$6,$7,0*
20,1,$1+$1,$6,$7,$8,$9,0*
20,1,$1+$1,$8,$9,$2,$3,0*%
G04 Aperture macros list end*
%TA.AperFunction,ComponentPad*%
%ADD10RoundRect,0.250000X-0.725000X0.600000X-0.725000X-0.600000X0.725000X-0.600000X0.725000X0.600000X0*%
%TD*%
%TA.AperFunction,ComponentPad*%
%ADD11O,1.950000X1.700000*%
%TD*%
%TA.AperFunction,ComponentPad*%
%ADD12RoundRect,0.250000X1.000000X-0.600000X1.000000X0.600000X-1.000000X0.600000X-1.000000X-0.600000X0*%
%TD*%
%TA.AperFunction,ComponentPad*%
%ADD13O,2.500000X1.700000*%
%TD*%
%TA.AperFunction,ComponentPad*%
%ADD14RoundRect,0.250000X-1.000000X0.600000X-1.000000X-0.600000X1.000000X-0.600000X1.000000X0.600000X0*%
%TD*%
%TA.AperFunction,ComponentPad*%
%ADD15RoundRect,0.250000X-0.600000X-1.000000X0.600000X-1.000000X0.600000X1.000000X-0.600000X1.000000X0*%
%TD*%
%TA.AperFunction,ComponentPad*%
%ADD16O,1.700000X2.500000*%
%TD*%
%TA.AperFunction,ComponentPad*%
%ADD17RoundRect,0.250000X0.725000X-0.600000X0.725000X0.600000X-0.725000X0.600000X-0.725000X-0.600000X0*%
%TD*%
%TA.AperFunction,ViaPad*%
%ADD18C,1.600000*%
%TD*%
%TA.AperFunction,Conductor*%
%ADD19C,1.000000*%
%TD*%
G04 APERTURE END LIST*
D10*
%TO.P,J5,1,Pin_1*%
%TO.N,Xshut9*%
X135255000Y-105410000D03*
D11*
%TO.P,J5,2,Pin_2*%
%TO.N,Xshut8*%
X135255000Y-107910000D03*
%TO.P,J5,3,Pin_3*%
%TO.N,Xshut7*%
X135255000Y-110410000D03*
%TD*%
D12*
%TO.P,J2,1,Pin_1*%
%TO.N,Xshut8*%
X129540000Y-120650000D03*
D13*
%TO.P,J2,2,Pin_2*%
%TO.N,I2C_SDA*%
X129540000Y-118150000D03*
%TO.P,J2,3,Pin_3*%
%TO.N,I2C_SCL*%
X129540000Y-115650000D03*
%TO.P,J2,4,Pin_4*%
%TO.N,GND*%
X129540000Y-113150000D03*
%TO.P,J2,5,Pin_5*%
%TO.N,+5V*%
X129540000Y-110650000D03*
%TD*%
D14*
%TO.P,J13,1,Pin_1*%
%TO.N,Xshut4*%
X151130000Y-143510000D03*
D13*
%TO.P,J13,2,Pin_2*%
%TO.N,I2C_SDA*%
X151130000Y-146010000D03*
%TO.P,J13,3,Pin_3*%
%TO.N,I2C_SCL*%
X151130000Y-148510000D03*
%TO.P,J13,4,Pin_4*%
%TO.N,GND*%
X151130000Y-151010000D03*
%TO.P,J13,5,Pin_5*%
%TO.N,+5V*%
X151130000Y-153510000D03*
%TD*%
D14*
%TO.P,J11,1,Pin_1*%
%TO.N,Xshut2*%
X151130000Y-110490000D03*
D13*
%TO.P,J11,2,Pin_2*%
%TO.N,I2C_SDA*%
X151130000Y-112990000D03*
%TO.P,J11,3,Pin_3*%
%TO.N,I2C_SCL*%
X151130000Y-115490000D03*
%TO.P,J11,4,Pin_4*%
%TO.N,GND*%
X151130000Y-117990000D03*
%TO.P,J11,5,Pin_5*%
%TO.N,+5V*%
X151130000Y-120490000D03*
%TD*%
D15*
%TO.P,J7,1,Pin_1*%
%TO.N,Xshut5*%
X134874000Y-161290000D03*
D16*
%TO.P,J7,2,Pin_2*%
%TO.N,I2C_SDA*%
X137374000Y-161290000D03*
%TO.P,J7,3,Pin_3*%
%TO.N,I2C_SCL*%
X139874000Y-161290000D03*
%TO.P,J7,4,Pin_4*%
%TO.N,GND*%
X142374000Y-161290000D03*
%TO.P,J7,5,Pin_5*%
%TO.N,+5V*%
X144874000Y-161290000D03*
%TD*%
D14*
%TO.P,J10,1,Pin_1*%
%TO.N,Xshut1*%
X151130000Y-93980000D03*
D13*
%TO.P,J10,2,Pin_2*%
%TO.N,I2C_SDA*%
X151130000Y-96480000D03*
%TO.P,J10,3,Pin_3*%
%TO.N,I2C_SCL*%
X151130000Y-98980000D03*
%TO.P,J10,4,Pin_4*%
%TO.N,GND*%
X151130000Y-101480000D03*
%TO.P,J10,5,Pin_5*%
%TO.N,+5V*%
X151130000Y-103980000D03*
%TD*%
D14*
%TO.P,J12,1,Pin_1*%
%TO.N,Xshut3*%
X151130000Y-127000000D03*
D13*
%TO.P,J12,2,Pin_2*%
%TO.N,I2C_SDA*%
X151130000Y-129500000D03*
%TO.P,J12,3,Pin_3*%
%TO.N,I2C_SCL*%
X151130000Y-132000000D03*
%TO.P,J12,4,Pin_4*%
%TO.N,GND*%
X151130000Y-134500000D03*
%TO.P,J12,5,Pin_5*%
%TO.N,+5V*%
X151130000Y-137000000D03*
%TD*%
D17*
%TO.P,J8,1,Pin_1*%
%TO.N,Xshut3*%
X145415000Y-110490000D03*
D11*
%TO.P,J8,2,Pin_2*%
%TO.N,Xshut2*%
X145415000Y-107990000D03*
%TO.P,J8,3,Pin_3*%
%TO.N,Xshut1*%
X145415000Y-105490000D03*
%TD*%
D17*
%TO.P,J6,1,Pin_1*%
%TO.N,Xshut5*%
X145000000Y-126960000D03*
D11*
%TO.P,J6,2,Pin_2*%
%TO.N,Xshut6*%
X145000000Y-124460000D03*
%TO.P,J6,3,Pin_3*%
%TO.N,Xshut4*%
X145000000Y-121960000D03*
%TD*%
D12*
%TO.P,J1,1,Pin_1*%
%TO.N,Xshut9*%
X129532500Y-104060000D03*
D13*
%TO.P,J1,2,Pin_2*%
%TO.N,I2C_SDA*%
X129532500Y-101560000D03*
%TO.P,J1,3,Pin_3*%
%TO.N,I2C_SCL*%
X129532500Y-99060000D03*
%TO.P,J1,4,Pin_4*%
%TO.N,GND*%
X129532500Y-96560000D03*
%TO.P,J1,5,Pin_5*%
%TO.N,+5V*%
X129532500Y-94060000D03*
%TD*%
D15*
%TO.P,J9,1,Pin_1*%
%TO.N,GND*%
X137160000Y-87884000D03*
D16*
%TO.P,J9,2,Pin_2*%
%TO.N,+5V*%
X139660000Y-87884000D03*
%TO.P,J9,3,Pin_3*%
%TO.N,I2C_SDA*%
X142160000Y-87884000D03*
%TO.P,J9,4,Pin_4*%
%TO.N,I2C_SCL*%
X144660000Y-87884000D03*
%TD*%
D12*
%TO.P,J4,1,Pin_1*%
%TO.N,Xshut6*%
X129540000Y-153670000D03*
D13*
%TO.P,J4,2,Pin_2*%
%TO.N,I2C_SDA*%
X129540000Y-151170000D03*
%TO.P,J4,3,Pin_3*%
%TO.N,I2C_SCL*%
X129540000Y-148670000D03*
%TO.P,J4,4,Pin_4*%
%TO.N,GND*%
X129540000Y-146170000D03*
%TO.P,J4,5,Pin_5*%
%TO.N,+5V*%
X129540000Y-143670000D03*
%TD*%
D12*
%TO.P,J3,1,Pin_1*%
%TO.N,Xshut7*%
X129540000Y-137000000D03*
D13*
%TO.P,J3,2,Pin_2*%
%TO.N,I2C_SDA*%
X129540000Y-134500000D03*
%TO.P,J3,3,Pin_3*%
%TO.N,I2C_SCL*%
X129540000Y-132000000D03*
%TO.P,J3,4,Pin_4*%
%TO.N,GND*%
X129540000Y-129500000D03*
%TO.P,J3,5,Pin_5*%
%TO.N,+5V*%
X129540000Y-127000000D03*
%TD*%
D18*
%TO.N,I2C_SDA*%
X140000000Y-145750000D03*
X140000000Y-150750000D03*
X140000000Y-113030000D03*
X140000000Y-118250000D03*
X140000000Y-96520000D03*
X140000000Y-102000000D03*
X140000000Y-129500000D03*
X139065000Y-156210000D03*
X140000000Y-134500000D03*
%TO.N,I2C_SCL*%
X142500000Y-94488000D03*
X142500000Y-99060000D03*
X142500000Y-148250000D03*
X142500000Y-132000000D03*
X142500000Y-156210000D03*
X142500000Y-115570000D03*
%TO.N,GND*%
X151500000Y-107000000D03*
X129000000Y-140000000D03*
X148000000Y-90000000D03*
X152000000Y-158000000D03*
X151500000Y-124000000D03*
X151500000Y-140500000D03*
X129000000Y-107000000D03*
X131000000Y-158000000D03*
X129500000Y-123500000D03*
X133500000Y-88500000D03*
%TO.N,+5V*%
X137500000Y-137000000D03*
X137500000Y-113665000D03*
X137500000Y-93980000D03*
X137500000Y-120750000D03*
X137795000Y-153670000D03*
X137500000Y-127000000D03*
X137500000Y-104140000D03*
X137500000Y-143250000D03*
%TO.N,Xshut8*%
X132080000Y-107950000D03*
X132080000Y-120650000D03*
%TO.N,Xshut7*%
X134620000Y-137000000D03*
X134620000Y-112395000D03*
%TO.N,Xshut6*%
X132080000Y-153670000D03*
X132080000Y-124460000D03*
%TO.N,Xshut5*%
X147066000Y-127000000D03*
X135000000Y-158115000D03*
%TO.N,Xshut4*%
X148590000Y-143510000D03*
X148824951Y-122147972D03*
%TO.N,Xshut3*%
X147320000Y-110490000D03*
X147344500Y-124460000D03*
%TO.N,Xshut1*%
X147320000Y-94234000D03*
X147320000Y-105410000D03*
%TD*%
D19*
%TO.N,Xshut9*%
X133985000Y-104140000D02*
X135255000Y-105410000D01*
X129532500Y-104060000D02*
X129612500Y-104140000D01*
X129612500Y-104140000D02*
X133985000Y-104140000D01*
%TO.N,I2C_SDA*%
X140000000Y-91140000D02*
X142160000Y-88980000D01*
X139040000Y-156210000D02*
X137374000Y-157876000D01*
X129640000Y-118250000D02*
X140000000Y-118250000D01*
X151130000Y-146010000D02*
X150870000Y-145750000D01*
X129540000Y-134500000D02*
X140000000Y-134500000D01*
X129540000Y-151170000D02*
X129960000Y-150750000D01*
X129532500Y-101560000D02*
X129972500Y-102000000D01*
X137374000Y-157876000D02*
X137374000Y-161290000D01*
X140000000Y-113030000D02*
X151130000Y-113030000D01*
X129960000Y-150750000D02*
X140000000Y-150750000D01*
X142160000Y-88980000D02*
X142160000Y-87884000D01*
X129972500Y-102000000D02*
X140000000Y-102000000D01*
X151130000Y-96480000D02*
X151090000Y-96520000D01*
X140000000Y-96520000D02*
X140000000Y-91140000D01*
X151090000Y-96520000D02*
X140000000Y-96520000D01*
X150870000Y-145750000D02*
X140000000Y-145750000D01*
X139065000Y-156210000D02*
X139040000Y-156210000D01*
X129540000Y-118150000D02*
X129640000Y-118250000D01*
X151130000Y-129500000D02*
X140000000Y-129500000D01*
%TO.N,I2C_SCL*%
X142500000Y-115570000D02*
X151050000Y-115570000D01*
X142500000Y-148250000D02*
X150870000Y-148250000D01*
X142500000Y-99060000D02*
X151050000Y-99060000D01*
X142500000Y-94488000D02*
X142500000Y-90805000D01*
X142500000Y-132000000D02*
X151130000Y-132000000D01*
X129639511Y-115749511D02*
X129540000Y-115650000D01*
X129960000Y-148250000D02*
X142500000Y-148250000D01*
X142500000Y-156210000D02*
X142500000Y-156845000D01*
X150870000Y-148250000D02*
X151130000Y-148510000D01*
X142500000Y-99060000D02*
X129532500Y-99060000D01*
X129540000Y-132000000D02*
X142500000Y-132000000D01*
X151050000Y-115570000D02*
X151130000Y-115490000D01*
X142500000Y-90805000D02*
X144660000Y-88645000D01*
X129540000Y-148670000D02*
X129960000Y-148250000D01*
X139874000Y-159471000D02*
X139874000Y-161290000D01*
X142500000Y-156845000D02*
X139874000Y-159471000D01*
X151050000Y-99060000D02*
X151130000Y-98980000D01*
X142320489Y-115749511D02*
X129639511Y-115749511D01*
X144660000Y-88645000D02*
X144660000Y-87884000D01*
X142500000Y-115570000D02*
X142320489Y-115749511D01*
%TO.N,+5V*%
X150970000Y-120650000D02*
X148892640Y-120650000D01*
X133300000Y-114250000D02*
X129700000Y-110650000D01*
X129540000Y-127000000D02*
X137500000Y-127000000D01*
X129612500Y-93980000D02*
X129532500Y-94060000D01*
X129540000Y-143670000D02*
X129960000Y-143250000D01*
X137500000Y-91100000D02*
X139660000Y-88940000D01*
X147955000Y-102235000D02*
X141885630Y-102235000D01*
X150970000Y-153670000D02*
X151130000Y-153510000D01*
X151130000Y-137000000D02*
X137500000Y-137000000D01*
X137795000Y-153670000D02*
X150970000Y-153670000D01*
X139980630Y-104140000D02*
X137500000Y-104140000D01*
X146987640Y-118745000D02*
X144145000Y-118745000D01*
X137500000Y-93980000D02*
X137500000Y-91100000D01*
X144145000Y-118745000D02*
X142140000Y-120750000D01*
X151130000Y-155034000D02*
X151130000Y-153510000D01*
X129960000Y-143250000D02*
X137500000Y-143250000D01*
X148892640Y-120650000D02*
X146987640Y-118745000D01*
X151130000Y-103980000D02*
X149700000Y-103980000D01*
X144874000Y-161290000D02*
X151130000Y-155034000D01*
X129700000Y-110650000D02*
X129540000Y-110650000D01*
X139660000Y-88940000D02*
X139660000Y-87884000D01*
X151130000Y-120490000D02*
X150970000Y-120650000D01*
X137500000Y-113665000D02*
X136915000Y-114250000D01*
X142140000Y-120750000D02*
X137500000Y-120750000D01*
X137500000Y-93980000D02*
X129612500Y-93980000D01*
X149700000Y-103980000D02*
X147955000Y-102235000D01*
X136915000Y-114250000D02*
X133300000Y-114250000D01*
X141885630Y-102235000D02*
X139980630Y-104140000D01*
%TO.N,Xshut8*%
X132120000Y-107910000D02*
X132080000Y-107950000D01*
X135255000Y-107910000D02*
X132120000Y-107910000D01*
X132080000Y-120650000D02*
X129540000Y-120650000D01*
%TO.N,Xshut7*%
X134620000Y-112395000D02*
X134620000Y-111045000D01*
X134620000Y-111045000D02*
X135255000Y-110410000D01*
X129540000Y-137000000D02*
X134620000Y-137000000D01*
%TO.N,Xshut6*%
X145000000Y-124460000D02*
X132080000Y-124460000D01*
X132080000Y-153670000D02*
X129540000Y-153670000D01*
%TO.N,Xshut5*%
X135000000Y-158115000D02*
X135000000Y-161164000D01*
X135000000Y-161164000D02*
X134874000Y-161290000D01*
X145040000Y-127000000D02*
X145000000Y-126960000D01*
X147066000Y-127000000D02*
X145040000Y-127000000D01*
%TO.N,Xshut4*%
X148824951Y-122147972D02*
X148636979Y-121960000D01*
X148590000Y-143510000D02*
X151130000Y-143510000D01*
X148636979Y-121960000D02*
X145000000Y-121960000D01*
%TO.N,Xshut3*%
X149884500Y-127000000D02*
X147344500Y-124460000D01*
X147320000Y-110490000D02*
X145415000Y-110490000D01*
X151130000Y-127000000D02*
X149884500Y-127000000D01*
%TO.N,Xshut2*%
X145415000Y-107990000D02*
X148630000Y-107990000D01*
X148630000Y-107990000D02*
X151130000Y-110490000D01*
%TO.N,Xshut1*%
X145495000Y-105410000D02*
X147240000Y-105410000D01*
X150876000Y-94234000D02*
X151130000Y-93980000D01*
X145415000Y-105490000D02*
X145495000Y-105410000D01*
X147320000Y-94234000D02*
X150876000Y-94234000D01*
%TD*%
%TA.AperFunction,Conductor*%
%TO.N,GND*%
G36*
X150337061Y-85528002D02*
G01*
X150383554Y-85581658D01*
X150393658Y-85651932D01*
X150364164Y-85716512D01*
X150341391Y-85737087D01*
X150169977Y-85857559D01*
X150154892Y-85871577D01*
X149991999Y-86022947D01*
X149959378Y-86053260D01*
X149777287Y-86275732D01*
X149627073Y-86520858D01*
X149511517Y-86784102D01*
X149510342Y-86788229D01*
X149510341Y-86788230D01*
X149498318Y-86830438D01*
X149432756Y-87060594D01*
X149392249Y-87345216D01*
X149392227Y-87349505D01*
X149392226Y-87349512D01*
X149390765Y-87628417D01*
X149390743Y-87632703D01*
X149428268Y-87917734D01*
X149504129Y-88195036D01*
X149616923Y-88459476D01*
X149691473Y-88584040D01*
X149721748Y-88634625D01*
X149764561Y-88706161D01*
X149944313Y-88930528D01*
X150152851Y-89128423D01*
X150386317Y-89296186D01*
X150390112Y-89298195D01*
X150390113Y-89298196D01*
X150411869Y-89309715D01*
X150640392Y-89430712D01*
X150664699Y-89439607D01*
X150889477Y-89521864D01*
X150910373Y-89529511D01*
X151191264Y-89590755D01*
X151219841Y-89593004D01*
X151414282Y-89608307D01*
X151414291Y-89608307D01*
X151416739Y-89608500D01*
X151572271Y-89608500D01*
X151574407Y-89608354D01*
X151574418Y-89608354D01*
X151782548Y-89594165D01*
X151782554Y-89594164D01*
X151786825Y-89593873D01*
X151791020Y-89593004D01*
X151791022Y-89593004D01*
X151998869Y-89549961D01*
X152068342Y-89535574D01*
X152339343Y-89439607D01*
X152594812Y-89307750D01*
X152598313Y-89305289D01*
X152598317Y-89305287D01*
X152747009Y-89200784D01*
X152830023Y-89142441D01*
X153040622Y-88946740D01*
X153222713Y-88724268D01*
X153224948Y-88720621D01*
X153224960Y-88720604D01*
X153258568Y-88665760D01*
X153311215Y-88618129D01*
X153381257Y-88606522D01*
X153446454Y-88634625D01*
X153486108Y-88693516D01*
X153492000Y-88731595D01*
X153492000Y-160266636D01*
X153471998Y-160334757D01*
X153418342Y-160381250D01*
X153348068Y-160391354D01*
X153283488Y-160361860D01*
X153257884Y-160331342D01*
X153237643Y-160297521D01*
X153237640Y-160297517D01*
X153235439Y-160293839D01*
X153055687Y-160069472D01*
X152915381Y-159936327D01*
X152850258Y-159874527D01*
X152850255Y-159874525D01*
X152847149Y-159871577D01*
X152649088Y-159729255D01*
X152617172Y-159706321D01*
X152617171Y-159706320D01*
X152613683Y-159703814D01*
X152591843Y-159692250D01*
X152568654Y-159679972D01*
X152359608Y-159569288D01*
X152206092Y-159513109D01*
X152093658Y-159471964D01*
X152093656Y-159471963D01*
X152089627Y-159470489D01*
X151808736Y-159409245D01*
X151777685Y-159406801D01*
X151585718Y-159391693D01*
X151585709Y-159391693D01*
X151583261Y-159391500D01*
X151427729Y-159391500D01*
X151425593Y-159391646D01*
X151425582Y-159391646D01*
X151217452Y-159405835D01*
X151217446Y-159405836D01*
X151213175Y-159406127D01*
X151208980Y-159406996D01*
X151208978Y-159406996D01*
X151072417Y-159435276D01*
X150931658Y-159464426D01*
X150660657Y-159560393D01*
X150615932Y-159583477D01*
X150453600Y-159667263D01*
X150405188Y-159692250D01*
X150401687Y-159694711D01*
X150401683Y-159694713D01*
X150320478Y-159751785D01*
X150169977Y-159857559D01*
X150154892Y-159871577D01*
X149982117Y-160032130D01*
X149959378Y-160053260D01*
X149777287Y-160275732D01*
X149627073Y-160520858D01*
X149511517Y-160784102D01*
X149510342Y-160788229D01*
X149510341Y-160788230D01*
X149472137Y-160922348D01*
X149432756Y-161060594D01*
X149429672Y-161082266D01*
X149395720Y-161320830D01*
X149392249Y-161345216D01*
X149392227Y-161349505D01*
X149392226Y-161349512D01*
X149391910Y-161409925D01*
X149390743Y-161632703D01*
X149428268Y-161917734D01*
X149504129Y-162195036D01*
X149505813Y-162198984D01*
X149611246Y-162446166D01*
X149616923Y-162459476D01*
X149628693Y-162479142D01*
X149727163Y-162643673D01*
X149764561Y-162706161D01*
X149944313Y-162930528D01*
X150152851Y-163128423D01*
X150329211Y-163255151D01*
X150341078Y-163263678D01*
X150384726Y-163319672D01*
X150391172Y-163390376D01*
X150358369Y-163453340D01*
X150296733Y-163488574D01*
X150267552Y-163492000D01*
X130731060Y-163492000D01*
X130662939Y-163471998D01*
X130616446Y-163418342D01*
X130606342Y-163348068D01*
X130635836Y-163283488D01*
X130658609Y-163262913D01*
X130730670Y-163212268D01*
X130830023Y-163142441D01*
X130936766Y-163043249D01*
X131037479Y-162949661D01*
X131037481Y-162949658D01*
X131040622Y-162946740D01*
X131222713Y-162724268D01*
X131372927Y-162479142D01*
X131384533Y-162452704D01*
X131433831Y-162340400D01*
X133515500Y-162340400D01*
X133515837Y-162343646D01*
X133515837Y-162343650D01*
X133524875Y-162430752D01*
X133526474Y-162446166D01*
X133528655Y-162452702D01*
X133528655Y-162452704D01*
X133560405Y-162547870D01*
X133582450Y-162613946D01*
X133675522Y-162764348D01*
X133800697Y-162889305D01*
X133806927Y-162893145D01*
X133806928Y-162893146D01*
X133944090Y-162977694D01*
X133951262Y-162982115D01*
X133986938Y-162993948D01*
X134112611Y-163035632D01*
X134112613Y-163035632D01*
X134119139Y-163037797D01*
X134125975Y-163038497D01*
X134125978Y-163038498D01*
X134161663Y-163042154D01*
X134223600Y-163048500D01*
X135524400Y-163048500D01*
X135527646Y-163048163D01*
X135527650Y-163048163D01*
X135623308Y-163038238D01*
X135623312Y-163038237D01*
X135630166Y-163037526D01*
X135636702Y-163035345D01*
X135636704Y-163035345D01*
X135768806Y-162991272D01*
X135797946Y-162981550D01*
X135948348Y-162888478D01*
X136073305Y-162763303D01*
X136163081Y-162617660D01*
X136215852Y-162570168D01*
X136285924Y-162558744D01*
X136351048Y-162587018D01*
X136361510Y-162596805D01*
X136403215Y-162640523D01*
X136470576Y-162711135D01*
X136655542Y-162848754D01*
X136660293Y-162851170D01*
X136660297Y-162851172D01*
X136741254Y-162892332D01*
X136861051Y-162953240D01*
X136866145Y-162954822D01*
X136866148Y-162954823D01*
X137031583Y-163006192D01*
X137081227Y-163021607D01*
X137086516Y-163022308D01*
X137304489Y-163051198D01*
X137304494Y-163051198D01*
X137309774Y-163051898D01*
X137315103Y-163051698D01*
X137315105Y-163051698D01*
X137424966Y-163047574D01*
X137540158Y-163043249D01*
X137562802Y-163038498D01*
X137760572Y-162997002D01*
X137765791Y-162995907D01*
X137770750Y-162993949D01*
X137770752Y-162993948D01*
X137975256Y-162913185D01*
X137975258Y-162913184D01*
X137980221Y-162911224D01*
X137985525Y-162908006D01*
X138172757Y-162794390D01*
X138172756Y-162794390D01*
X138177317Y-162791623D01*
X138217134Y-162757072D01*
X138347412Y-162644023D01*
X138347414Y-162644021D01*
X138351445Y-162640523D01*
X138418500Y-162558744D01*
X138494240Y-162466373D01*
X138494244Y-162466367D01*
X138497624Y-162462245D01*
X138515552Y-162430750D01*
X138566632Y-162381445D01*
X138636262Y-162367583D01*
X138702333Y-162393566D01*
X138729573Y-162422716D01*
X138734983Y-162430752D01*
X138811441Y-162544319D01*
X138970576Y-162711135D01*
X139155542Y-162848754D01*
X139160293Y-162851170D01*
X139160297Y-162851172D01*
X139241254Y-162892332D01*
X139361051Y-162953240D01*
X139366145Y-162954822D01*
X139366148Y-162954823D01*
X139531583Y-163006192D01*
X139581227Y-163021607D01*
X139586516Y-163022308D01*
X139804489Y-163051198D01*
X139804494Y-163051198D01*
X139809774Y-163051898D01*
X139815103Y-163051698D01*
X139815105Y-163051698D01*
X139924966Y-163047574D01*
X140040158Y-163043249D01*
X140062802Y-163038498D01*
X140260572Y-162997002D01*
X140265791Y-162995907D01*
X140270750Y-162993949D01*
X140270752Y-162993948D01*
X140475256Y-162913185D01*
X140475258Y-162913184D01*
X140480221Y-162911224D01*
X140485525Y-162908006D01*
X140672757Y-162794390D01*
X140672756Y-162794390D01*
X140677317Y-162791623D01*
X140717134Y-162757072D01*
X140847412Y-162644023D01*
X140847414Y-162644021D01*
X140851445Y-162640523D01*
X140918500Y-162558744D01*
X140994240Y-162466373D01*
X140994244Y-162466367D01*
X140997624Y-162462245D01*
X141010681Y-162439308D01*
X141015829Y-162430265D01*
X141066912Y-162380959D01*
X141136542Y-162367098D01*
X141202613Y-162393082D01*
X141229851Y-162422232D01*
X141308852Y-162539578D01*
X141315519Y-162547870D01*
X141467228Y-162706900D01*
X141475186Y-162713941D01*
X141651525Y-162845141D01*
X141660562Y-162850745D01*
X141856484Y-162950357D01*
X141866335Y-162954357D01*
X142076240Y-163019534D01*
X142086624Y-163021817D01*
X142102043Y-163023861D01*
X142116207Y-163021665D01*
X142120000Y-163008478D01*
X142120000Y-159573808D01*
X142116027Y-159560277D01*
X142105420Y-159558752D01*
X141987579Y-159583477D01*
X141977383Y-159586537D01*
X141772971Y-159667263D01*
X141763439Y-159671994D01*
X141575538Y-159786016D01*
X141566948Y-159792280D01*
X141400948Y-159936327D01*
X141393528Y-159943958D01*
X141254174Y-160113911D01*
X141248152Y-160122674D01*
X141232762Y-160149711D01*
X141181680Y-160199018D01*
X141112049Y-160212880D01*
X141045978Y-160186897D01*
X141018739Y-160157747D01*
X140939542Y-160040111D01*
X140939539Y-160040107D01*
X140936559Y-160035681D01*
X140923370Y-160021856D01*
X140890823Y-159958763D01*
X140897554Y-159888086D01*
X140925445Y-159845790D01*
X143169379Y-157601855D01*
X143179522Y-157592753D01*
X143204218Y-157572897D01*
X143209025Y-157569032D01*
X143241292Y-157530578D01*
X143244472Y-157526931D01*
X143246115Y-157525119D01*
X143248309Y-157522925D01*
X143275642Y-157489651D01*
X143276348Y-157488800D01*
X143277149Y-157487846D01*
X143336154Y-157417526D01*
X143338722Y-157412856D01*
X143342103Y-157408739D01*
X143386015Y-157326842D01*
X143386624Y-157325720D01*
X143428466Y-157249611D01*
X143428468Y-157249606D01*
X143431433Y-157244213D01*
X143433044Y-157239135D01*
X143435563Y-157234437D01*
X143462753Y-157145502D01*
X143463136Y-157144272D01*
X143475689Y-157104701D01*
X143499273Y-157061805D01*
X143502301Y-157058197D01*
X143506198Y-157054300D01*
X143637523Y-156866749D01*
X143639846Y-156861767D01*
X143639849Y-156861762D01*
X143731961Y-156664225D01*
X143731961Y-156664224D01*
X143734284Y-156659243D01*
X143793543Y-156438087D01*
X143813498Y-156210000D01*
X143793543Y-155981913D01*
X143734284Y-155760757D01*
X143715083Y-155719579D01*
X143639849Y-155558238D01*
X143639846Y-155558233D01*
X143637523Y-155553251D01*
X143506198Y-155365700D01*
X143344300Y-155203802D01*
X143339792Y-155200645D01*
X143339789Y-155200643D01*
X143251332Y-155138705D01*
X143156749Y-155072477D01*
X143151767Y-155070154D01*
X143151762Y-155070151D01*
X142954225Y-154978039D01*
X142954224Y-154978039D01*
X142949243Y-154975716D01*
X142943935Y-154974294D01*
X142943933Y-154974293D01*
X142764474Y-154926207D01*
X142703851Y-154889255D01*
X142672830Y-154825394D01*
X142681258Y-154754900D01*
X142726461Y-154700153D01*
X142797085Y-154678500D01*
X149755075Y-154678500D01*
X149823196Y-154698502D01*
X149869689Y-154752158D01*
X149879793Y-154822432D01*
X149850299Y-154887012D01*
X149844170Y-154893595D01*
X145221883Y-159515882D01*
X145159571Y-159549908D01*
X145116236Y-159551695D01*
X145011745Y-159537846D01*
X144943510Y-159528802D01*
X144943506Y-159528802D01*
X144938226Y-159528102D01*
X144932897Y-159528302D01*
X144932895Y-159528302D01*
X144823034Y-159532427D01*
X144707842Y-159536751D01*
X144702623Y-159537846D01*
X144615438Y-159556139D01*
X144482209Y-159584093D01*
X144477250Y-159586051D01*
X144477248Y-159586052D01*
X144272744Y-159666815D01*
X144272742Y-159666816D01*
X144267779Y-159668776D01*
X144263220Y-159671543D01*
X144263217Y-159671544D01*
X144210038Y-159703814D01*
X144070683Y-159788377D01*
X144066653Y-159791874D01*
X143909144Y-159928553D01*
X143896555Y-159939477D01*
X143879134Y-159960724D01*
X143753760Y-160113627D01*
X143753756Y-160113633D01*
X143750376Y-160117755D01*
X143747738Y-160122390D01*
X143747733Y-160122398D01*
X143732171Y-160149735D01*
X143681088Y-160199041D01*
X143611458Y-160212902D01*
X143545387Y-160186918D01*
X143518149Y-160157768D01*
X143439148Y-160040422D01*
X143432481Y-160032130D01*
X143280772Y-159873100D01*
X143272814Y-159866059D01*
X143096475Y-159734859D01*
X143087438Y-159729255D01*
X142891516Y-159629643D01*
X142881665Y-159625643D01*
X142671760Y-159560466D01*
X142661376Y-159558183D01*
X142645957Y-159556139D01*
X142631793Y-159558335D01*
X142628000Y-159571522D01*
X142628000Y-163006192D01*
X142631973Y-163019723D01*
X142642580Y-163021248D01*
X142760421Y-162996523D01*
X142770617Y-162993463D01*
X142975029Y-162912737D01*
X142984561Y-162908006D01*
X143172462Y-162793984D01*
X143181052Y-162787720D01*
X143347052Y-162643673D01*
X143354472Y-162636042D01*
X143493826Y-162466089D01*
X143499848Y-162457326D01*
X143515238Y-162430289D01*
X143566320Y-162380982D01*
X143635951Y-162367120D01*
X143702022Y-162393103D01*
X143729261Y-162422253D01*
X143758773Y-162466089D01*
X143811441Y-162544319D01*
X143970576Y-162711135D01*
X144155542Y-162848754D01*
X144160293Y-162851170D01*
X144160297Y-162851172D01*
X144241254Y-162892332D01*
X144361051Y-162953240D01*
X144366145Y-162954822D01*
X144366148Y-162954823D01*
X144531583Y-163006192D01*
X144581227Y-163021607D01*
X144586516Y-163022308D01*
X144804489Y-163051198D01*
X144804494Y-163051198D01*
X144809774Y-163051898D01*
X144815103Y-163051698D01*
X144815105Y-163051698D01*
X144924966Y-163047574D01*
X145040158Y-163043249D01*
X145062802Y-163038498D01*
X145260572Y-162997002D01*
X145265791Y-162995907D01*
X145270750Y-162993949D01*
X145270752Y-162993948D01*
X145475256Y-162913185D01*
X145475258Y-162913184D01*
X145480221Y-162911224D01*
X145485525Y-162908006D01*
X145672757Y-162794390D01*
X145672756Y-162794390D01*
X145677317Y-162791623D01*
X145717134Y-162757072D01*
X145847412Y-162644023D01*
X145847414Y-162644021D01*
X145851445Y-162640523D01*
X145918500Y-162558744D01*
X145994240Y-162466373D01*
X145994244Y-162466367D01*
X145997624Y-162462245D01*
X146015815Y-162430289D01*
X146109032Y-162266529D01*
X146111675Y-162261886D01*
X146190337Y-162045175D01*
X146198506Y-162000000D01*
X146230623Y-161822392D01*
X146230624Y-161822385D01*
X146231361Y-161818308D01*
X146232500Y-161794156D01*
X146232500Y-161409925D01*
X146252502Y-161341804D01*
X146269405Y-161320830D01*
X151799379Y-155790855D01*
X151809522Y-155781753D01*
X151834218Y-155761897D01*
X151839025Y-155758032D01*
X151871292Y-155719578D01*
X151874472Y-155715931D01*
X151876115Y-155714119D01*
X151878309Y-155711925D01*
X151905642Y-155678651D01*
X151906348Y-155677800D01*
X151962195Y-155611244D01*
X151966154Y-155606526D01*
X151968722Y-155601856D01*
X151972103Y-155597739D01*
X152015977Y-155515914D01*
X152016606Y-155514755D01*
X152058462Y-155438619D01*
X152058465Y-155438611D01*
X152061433Y-155433213D01*
X152063045Y-155428131D01*
X152065562Y-155423437D01*
X152092762Y-155334469D01*
X152093108Y-155333358D01*
X152119373Y-155250563D01*
X152121235Y-155244694D01*
X152121829Y-155239398D01*
X152123387Y-155234302D01*
X152132790Y-155141743D01*
X152132911Y-155140607D01*
X152138500Y-155090773D01*
X152138500Y-155087246D01*
X152138555Y-155086261D01*
X152139002Y-155080581D01*
X152143374Y-155037538D01*
X152139059Y-154991891D01*
X152138500Y-154980033D01*
X152138500Y-154805120D01*
X152158502Y-154736999D01*
X152194133Y-154700600D01*
X152343298Y-154600176D01*
X152384319Y-154572559D01*
X152551135Y-154413424D01*
X152688754Y-154228458D01*
X152793240Y-154022949D01*
X152861607Y-153802773D01*
X152878479Y-153675475D01*
X152891198Y-153579511D01*
X152891198Y-153579506D01*
X152891898Y-153574226D01*
X152883249Y-153343842D01*
X152835907Y-153118209D01*
X152796964Y-153019600D01*
X152753185Y-152908744D01*
X152753184Y-152908742D01*
X152751224Y-152903779D01*
X152703845Y-152825700D01*
X152634390Y-152711243D01*
X152631623Y-152706683D01*
X152544755Y-152606576D01*
X152484023Y-152536588D01*
X152484021Y-152536586D01*
X152480523Y-152532555D01*
X152406088Y-152471522D01*
X152306373Y-152389760D01*
X152306367Y-152389756D01*
X152302245Y-152386376D01*
X152297602Y-152383733D01*
X152270265Y-152368171D01*
X152220959Y-152317088D01*
X152207098Y-152247458D01*
X152233082Y-152181387D01*
X152262232Y-152154149D01*
X152379578Y-152075148D01*
X152387870Y-152068481D01*
X152546900Y-151916772D01*
X152553941Y-151908814D01*
X152685141Y-151732475D01*
X152690745Y-151723438D01*
X152790357Y-151527516D01*
X152794357Y-151517665D01*
X152859534Y-151307760D01*
X152861817Y-151297376D01*
X152863861Y-151281957D01*
X152861665Y-151267793D01*
X152848478Y-151264000D01*
X149413808Y-151264000D01*
X149400277Y-151267973D01*
X149398752Y-151278580D01*
X149423477Y-151396421D01*
X149426537Y-151406617D01*
X149507263Y-151611029D01*
X149511994Y-151620561D01*
X149626016Y-151808462D01*
X149632280Y-151817052D01*
X149776327Y-151983052D01*
X149783958Y-151990472D01*
X149953911Y-152129826D01*
X149962674Y-152135848D01*
X149989711Y-152151238D01*
X150039018Y-152202320D01*
X150052880Y-152271951D01*
X150026897Y-152338022D01*
X149997747Y-152365261D01*
X149995093Y-152367048D01*
X149875681Y-152447441D01*
X149871824Y-152451120D01*
X149871822Y-152451122D01*
X149802464Y-152517287D01*
X149708865Y-152606576D01*
X149705681Y-152610855D01*
X149702146Y-152614851D01*
X149701294Y-152614097D01*
X149649077Y-152653426D01*
X149604698Y-152661500D01*
X138675740Y-152661500D01*
X138603469Y-152638713D01*
X138552363Y-152602928D01*
X138451749Y-152532477D01*
X138446767Y-152530154D01*
X138446762Y-152530151D01*
X138249225Y-152438039D01*
X138249224Y-152438039D01*
X138244243Y-152435716D01*
X138238935Y-152434294D01*
X138238933Y-152434293D01*
X138028402Y-152377881D01*
X138028400Y-152377881D01*
X138023087Y-152376457D01*
X137795000Y-152356502D01*
X137566913Y-152376457D01*
X137561600Y-152377881D01*
X137561598Y-152377881D01*
X137351067Y-152434293D01*
X137351065Y-152434294D01*
X137345757Y-152435716D01*
X137340776Y-152438039D01*
X137340775Y-152438039D01*
X137143238Y-152530151D01*
X137143233Y-152530154D01*
X137138251Y-152532477D01*
X137048028Y-152595652D01*
X136955211Y-152660643D01*
X136955208Y-152660645D01*
X136950700Y-152663802D01*
X136788802Y-152825700D01*
X136657477Y-153013251D01*
X136655154Y-153018233D01*
X136655151Y-153018238D01*
X136606101Y-153123428D01*
X136560716Y-153220757D01*
X136501457Y-153441913D01*
X136481502Y-153670000D01*
X136501457Y-153898087D01*
X136560716Y-154119243D01*
X136563039Y-154124224D01*
X136563039Y-154124225D01*
X136655151Y-154321762D01*
X136655154Y-154321767D01*
X136657477Y-154326749D01*
X136788802Y-154514300D01*
X136950700Y-154676198D01*
X136955208Y-154679355D01*
X136955211Y-154679357D01*
X136996726Y-154708426D01*
X137138251Y-154807523D01*
X137143233Y-154809846D01*
X137143238Y-154809849D01*
X137313527Y-154889255D01*
X137345757Y-154904284D01*
X137351065Y-154905706D01*
X137351067Y-154905707D01*
X137561598Y-154962119D01*
X137561600Y-154962119D01*
X137566913Y-154963543D01*
X137795000Y-154983498D01*
X138023087Y-154963543D01*
X138028400Y-154962119D01*
X138028402Y-154962119D01*
X138208786Y-154913785D01*
X138279762Y-154915475D01*
X138338558Y-154955269D01*
X138366506Y-155020533D01*
X138354733Y-155090547D01*
X138313668Y-155138705D01*
X138225211Y-155200643D01*
X138225208Y-155200645D01*
X138220700Y-155203802D01*
X138058802Y-155365700D01*
X137927477Y-155553251D01*
X137925154Y-155558233D01*
X137925151Y-155558238D01*
X137849917Y-155719579D01*
X137830716Y-155760757D01*
X137771457Y-155981913D01*
X137770978Y-155987393D01*
X137768705Y-156013372D01*
X137742842Y-156079491D01*
X137732279Y-156091487D01*
X136704621Y-157119145D01*
X136694478Y-157128247D01*
X136664975Y-157151968D01*
X136661008Y-157156696D01*
X136632709Y-157190421D01*
X136629528Y-157194069D01*
X136627885Y-157195881D01*
X136625691Y-157198075D01*
X136598358Y-157231349D01*
X136597696Y-157232147D01*
X136537846Y-157303474D01*
X136535278Y-157308144D01*
X136531897Y-157312261D01*
X136514683Y-157344366D01*
X136488023Y-157394086D01*
X136487394Y-157395245D01*
X136445538Y-157471381D01*
X136445535Y-157471389D01*
X136442567Y-157476787D01*
X136440955Y-157481869D01*
X136438438Y-157486563D01*
X136420470Y-157545334D01*
X136381427Y-157604627D01*
X136316523Y-157633402D01*
X136246366Y-157622519D01*
X136193230Y-157575433D01*
X136185782Y-157561743D01*
X136139849Y-157463238D01*
X136139846Y-157463233D01*
X136137523Y-157458251D01*
X136039102Y-157317691D01*
X136009357Y-157275211D01*
X136009355Y-157275208D01*
X136006198Y-157270700D01*
X135844300Y-157108802D01*
X135839792Y-157105645D01*
X135839789Y-157105643D01*
X135760021Y-157049789D01*
X135656749Y-156977477D01*
X135651767Y-156975154D01*
X135651762Y-156975151D01*
X135454225Y-156883039D01*
X135454224Y-156883039D01*
X135449243Y-156880716D01*
X135443935Y-156879294D01*
X135443933Y-156879293D01*
X135233402Y-156822881D01*
X135233400Y-156822881D01*
X135228087Y-156821457D01*
X135000000Y-156801502D01*
X134771913Y-156821457D01*
X134766600Y-156822881D01*
X134766598Y-156822881D01*
X134556067Y-156879293D01*
X134556065Y-156879294D01*
X134550757Y-156880716D01*
X134545776Y-156883039D01*
X134545775Y-156883039D01*
X134348238Y-156975151D01*
X134348233Y-156975154D01*
X134343251Y-156977477D01*
X134239979Y-157049789D01*
X134160211Y-157105643D01*
X134160208Y-157105645D01*
X134155700Y-157108802D01*
X133993802Y-157270700D01*
X133990645Y-157275208D01*
X133990643Y-157275211D01*
X133960898Y-157317691D01*
X133862477Y-157458251D01*
X133860154Y-157463233D01*
X133860151Y-157463238D01*
X133795514Y-157601855D01*
X133765716Y-157665757D01*
X133764294Y-157671065D01*
X133764293Y-157671067D01*
X133723186Y-157824479D01*
X133706457Y-157886913D01*
X133686502Y-158115000D01*
X133706457Y-158343087D01*
X133765716Y-158564243D01*
X133768039Y-158569224D01*
X133768039Y-158569225D01*
X133860151Y-158766762D01*
X133860154Y-158766767D01*
X133862477Y-158771749D01*
X133914318Y-158845785D01*
X133968713Y-158923469D01*
X133991500Y-158995740D01*
X133991500Y-159502600D01*
X133971498Y-159570721D01*
X133931803Y-159609744D01*
X133799652Y-159691522D01*
X133674695Y-159816697D01*
X133670855Y-159822927D01*
X133670854Y-159822928D01*
X133596466Y-159943608D01*
X133581885Y-159967262D01*
X133570887Y-160000420D01*
X133530432Y-160122390D01*
X133526203Y-160135139D01*
X133525503Y-160141975D01*
X133525502Y-160141978D01*
X133523884Y-160157768D01*
X133515500Y-160239600D01*
X133515500Y-162340400D01*
X131433831Y-162340400D01*
X131486757Y-162219830D01*
X131488483Y-162215898D01*
X131567244Y-161939406D01*
X131607751Y-161654784D01*
X131607845Y-161636951D01*
X131609235Y-161371583D01*
X131609235Y-161371576D01*
X131609257Y-161367297D01*
X131571732Y-161082266D01*
X131495871Y-160804964D01*
X131383077Y-160540524D01*
X131288125Y-160381871D01*
X131237643Y-160297521D01*
X131237640Y-160297517D01*
X131235439Y-160293839D01*
X131055687Y-160069472D01*
X130915381Y-159936327D01*
X130850258Y-159874527D01*
X130850255Y-159874525D01*
X130847149Y-159871577D01*
X130649088Y-159729255D01*
X130617172Y-159706321D01*
X130617171Y-159706320D01*
X130613683Y-159703814D01*
X130591843Y-159692250D01*
X130568654Y-159679972D01*
X130359608Y-159569288D01*
X130206092Y-159513109D01*
X130093658Y-159471964D01*
X130093656Y-159471963D01*
X130089627Y-159470489D01*
X129808736Y-159409245D01*
X129777685Y-159406801D01*
X129585718Y-159391693D01*
X129585709Y-159391693D01*
X129583261Y-159391500D01*
X129427729Y-159391500D01*
X129425593Y-159391646D01*
X129425582Y-159391646D01*
X129217452Y-159405835D01*
X129217446Y-159405836D01*
X129213175Y-159406127D01*
X129208980Y-159406996D01*
X129208978Y-159406996D01*
X129072417Y-159435276D01*
X128931658Y-159464426D01*
X128660657Y-159560393D01*
X128615932Y-159583477D01*
X128453600Y-159667263D01*
X128405188Y-159692250D01*
X128401687Y-159694711D01*
X128401683Y-159694713D01*
X128320478Y-159751785D01*
X128169977Y-159857559D01*
X128154892Y-159871577D01*
X127982117Y-160032130D01*
X127959378Y-160053260D01*
X127777287Y-160275732D01*
X127775052Y-160279379D01*
X127775040Y-160279396D01*
X127741432Y-160334240D01*
X127688785Y-160381871D01*
X127618743Y-160393478D01*
X127553546Y-160365375D01*
X127513892Y-160306484D01*
X127508000Y-160268405D01*
X127508000Y-151105774D01*
X127778102Y-151105774D01*
X127786751Y-151336158D01*
X127834093Y-151561791D01*
X127836051Y-151566750D01*
X127836052Y-151566752D01*
X127911778Y-151758500D01*
X127918776Y-151776221D01*
X128038377Y-151973317D01*
X128041874Y-151977347D01*
X128179414Y-152135848D01*
X128189477Y-152147445D01*
X128225120Y-152176670D01*
X128265114Y-152235329D01*
X128267046Y-152306299D01*
X128230302Y-152367048D01*
X128211532Y-152381248D01*
X128119760Y-152438039D01*
X128065652Y-152471522D01*
X127940695Y-152596697D01*
X127936855Y-152602927D01*
X127936854Y-152602928D01*
X127870088Y-152711243D01*
X127847885Y-152747262D01*
X127792203Y-152915139D01*
X127781500Y-153019600D01*
X127781500Y-154320400D01*
X127781837Y-154323646D01*
X127781837Y-154323650D01*
X127791534Y-154417103D01*
X127792474Y-154426166D01*
X127848450Y-154593946D01*
X127941522Y-154744348D01*
X128066697Y-154869305D01*
X128072927Y-154873145D01*
X128072928Y-154873146D01*
X128210090Y-154957694D01*
X128217262Y-154962115D01*
X128280286Y-154983019D01*
X128378611Y-155015632D01*
X128378613Y-155015632D01*
X128385139Y-155017797D01*
X128391975Y-155018497D01*
X128391978Y-155018498D01*
X128435031Y-155022909D01*
X128489600Y-155028500D01*
X130590400Y-155028500D01*
X130593646Y-155028163D01*
X130593650Y-155028163D01*
X130689308Y-155018238D01*
X130689312Y-155018237D01*
X130696166Y-155017526D01*
X130702702Y-155015345D01*
X130702704Y-155015345D01*
X130855029Y-154964525D01*
X130863946Y-154961550D01*
X131014348Y-154868478D01*
X131139305Y-154743303D01*
X131140451Y-154744447D01*
X131191254Y-154708426D01*
X131262177Y-154705192D01*
X131304492Y-154724366D01*
X131423251Y-154807523D01*
X131428233Y-154809846D01*
X131428238Y-154809849D01*
X131598527Y-154889255D01*
X131630757Y-154904284D01*
X131636065Y-154905706D01*
X131636067Y-154905707D01*
X131846598Y-154962119D01*
X131846600Y-154962119D01*
X131851913Y-154963543D01*
X132080000Y-154983498D01*
X132308087Y-154963543D01*
X132313400Y-154962119D01*
X132313402Y-154962119D01*
X132523933Y-154905707D01*
X132523935Y-154905706D01*
X132529243Y-154904284D01*
X132561473Y-154889255D01*
X132731762Y-154809849D01*
X132731767Y-154809846D01*
X132736749Y-154807523D01*
X132878274Y-154708426D01*
X132919789Y-154679357D01*
X132919792Y-154679355D01*
X132924300Y-154676198D01*
X133086198Y-154514300D01*
X133217523Y-154326749D01*
X133219846Y-154321767D01*
X133219849Y-154321762D01*
X133311961Y-154124225D01*
X133311961Y-154124224D01*
X133314284Y-154119243D01*
X133373543Y-153898087D01*
X133393498Y-153670000D01*
X133373543Y-153441913D01*
X133314284Y-153220757D01*
X133268899Y-153123428D01*
X133219849Y-153018238D01*
X133219846Y-153018233D01*
X133217523Y-153013251D01*
X133086198Y-152825700D01*
X132924300Y-152663802D01*
X132919792Y-152660645D01*
X132919789Y-152660643D01*
X132826972Y-152595652D01*
X132736749Y-152532477D01*
X132731767Y-152530154D01*
X132731762Y-152530151D01*
X132534225Y-152438039D01*
X132534224Y-152438039D01*
X132529243Y-152435716D01*
X132523935Y-152434294D01*
X132523933Y-152434293D01*
X132313402Y-152377881D01*
X132313400Y-152377881D01*
X132308087Y-152376457D01*
X132080000Y-152356502D01*
X131851913Y-152376457D01*
X131846600Y-152377881D01*
X131846598Y-152377881D01*
X131636067Y-152434293D01*
X131636065Y-152434294D01*
X131630757Y-152435716D01*
X131625776Y-152438039D01*
X131625775Y-152438039D01*
X131428238Y-152530151D01*
X131428233Y-152530154D01*
X131423251Y-152532477D01*
X131304480Y-152615642D01*
X131237208Y-152638329D01*
X131168348Y-152621044D01*
X131138798Y-152595331D01*
X131138478Y-152595652D01*
X131133803Y-152590985D01*
X131133802Y-152590984D01*
X131013303Y-152470695D01*
X130867660Y-152380919D01*
X130820168Y-152328148D01*
X130808744Y-152258076D01*
X130837018Y-152192952D01*
X130846805Y-152182490D01*
X130957278Y-152077103D01*
X130961135Y-152073424D01*
X131098754Y-151888458D01*
X131129800Y-151827395D01*
X131178503Y-151775737D01*
X131242117Y-151758500D01*
X139119260Y-151758500D01*
X139191531Y-151781287D01*
X139343251Y-151887523D01*
X139348233Y-151889846D01*
X139348238Y-151889849D01*
X139517459Y-151968757D01*
X139550757Y-151984284D01*
X139556065Y-151985706D01*
X139556067Y-151985707D01*
X139766598Y-152042119D01*
X139766600Y-152042119D01*
X139771913Y-152043543D01*
X140000000Y-152063498D01*
X140228087Y-152043543D01*
X140233400Y-152042119D01*
X140233402Y-152042119D01*
X140443933Y-151985707D01*
X140443935Y-151985706D01*
X140449243Y-151984284D01*
X140482541Y-151968757D01*
X140651762Y-151889849D01*
X140651767Y-151889846D01*
X140656749Y-151887523D01*
X140761611Y-151814098D01*
X140839789Y-151759357D01*
X140839792Y-151759355D01*
X140844300Y-151756198D01*
X141006198Y-151594300D01*
X141025488Y-151566752D01*
X141134366Y-151411257D01*
X141137523Y-151406749D01*
X141139846Y-151401767D01*
X141139849Y-151401762D01*
X141231961Y-151204225D01*
X141231961Y-151204224D01*
X141234284Y-151199243D01*
X141293543Y-150978087D01*
X141313498Y-150750000D01*
X141293543Y-150521913D01*
X141288297Y-150502335D01*
X141235707Y-150306067D01*
X141235706Y-150306065D01*
X141234284Y-150300757D01*
X141192681Y-150211538D01*
X141139849Y-150098238D01*
X141139846Y-150098233D01*
X141137523Y-150093251D01*
X141024797Y-149932262D01*
X141009357Y-149910211D01*
X141009355Y-149910208D01*
X141006198Y-149905700D01*
X140844300Y-149743802D01*
X140839792Y-149740645D01*
X140839789Y-149740643D01*
X140706688Y-149647445D01*
X140656749Y-149612477D01*
X140651767Y-149610154D01*
X140651762Y-149610151D01*
X140454225Y-149518039D01*
X140454224Y-149518039D01*
X140449243Y-149515716D01*
X140443935Y-149514294D01*
X140443933Y-149514293D01*
X140413755Y-149506207D01*
X140353132Y-149469255D01*
X140322111Y-149405395D01*
X140330539Y-149334900D01*
X140375742Y-149280153D01*
X140446366Y-149258500D01*
X141619260Y-149258500D01*
X141691531Y-149281287D01*
X141843251Y-149387523D01*
X141848233Y-149389846D01*
X141848238Y-149389849D01*
X142017459Y-149468757D01*
X142050757Y-149484284D01*
X142056065Y-149485706D01*
X142056067Y-149485707D01*
X142266598Y-149542119D01*
X142266600Y-149542119D01*
X142271913Y-149543543D01*
X142500000Y-149563498D01*
X142728087Y-149543543D01*
X142733400Y-149542119D01*
X142733402Y-149542119D01*
X142943933Y-149485707D01*
X142943935Y-149485706D01*
X142949243Y-149484284D01*
X142982541Y-149468757D01*
X143151762Y-149389849D01*
X143151767Y-149389846D01*
X143156749Y-149387523D01*
X143308469Y-149281287D01*
X143380740Y-149258500D01*
X149524900Y-149258500D01*
X149593021Y-149278502D01*
X149626276Y-149309854D01*
X149628377Y-149313317D01*
X149631874Y-149317347D01*
X149763693Y-149469255D01*
X149779477Y-149487445D01*
X149813956Y-149515716D01*
X149953627Y-149630240D01*
X149953633Y-149630244D01*
X149957755Y-149633624D01*
X149962398Y-149636267D01*
X149989735Y-149651829D01*
X150039041Y-149702912D01*
X150052902Y-149772542D01*
X150026918Y-149838613D01*
X149997768Y-149865851D01*
X149880422Y-149944852D01*
X149872130Y-149951519D01*
X149713100Y-150103228D01*
X149706059Y-150111186D01*
X149574859Y-150287525D01*
X149569255Y-150296562D01*
X149469643Y-150492484D01*
X149465643Y-150502335D01*
X149400466Y-150712240D01*
X149398183Y-150722624D01*
X149396139Y-150738043D01*
X149398335Y-150752207D01*
X149411522Y-150756000D01*
X152846192Y-150756000D01*
X152859723Y-150752027D01*
X152861248Y-150741420D01*
X152836523Y-150623579D01*
X152833463Y-150613383D01*
X152752737Y-150408971D01*
X152748006Y-150399439D01*
X152633984Y-150211538D01*
X152627720Y-150202948D01*
X152483673Y-150036948D01*
X152476042Y-150029528D01*
X152306089Y-149890174D01*
X152297326Y-149884152D01*
X152270289Y-149868762D01*
X152220982Y-149817680D01*
X152207120Y-149748049D01*
X152233103Y-149681978D01*
X152262253Y-149654739D01*
X152320337Y-149615634D01*
X152384319Y-149572559D01*
X152393818Y-149563498D01*
X152479290Y-149481961D01*
X152551135Y-149413424D01*
X152688754Y-149228458D01*
X152793240Y-149022949D01*
X152861607Y-148802773D01*
X152862308Y-148797484D01*
X152891198Y-148579511D01*
X152891198Y-148579506D01*
X152891898Y-148574226D01*
X152883249Y-148343842D01*
X152835907Y-148118209D01*
X152833948Y-148113248D01*
X152753185Y-147908744D01*
X152753184Y-147908742D01*
X152751224Y-147903779D01*
X152631623Y-147706683D01*
X152480523Y-147532555D01*
X152357828Y-147431951D01*
X152306373Y-147389760D01*
X152306367Y-147389756D01*
X152302245Y-147386376D01*
X152270750Y-147368448D01*
X152221445Y-147317368D01*
X152207583Y-147247738D01*
X152233566Y-147181667D01*
X152262716Y-147154427D01*
X152320337Y-147115634D01*
X152384319Y-147072559D01*
X152393818Y-147063498D01*
X152547278Y-146917103D01*
X152551135Y-146913424D01*
X152688754Y-146728458D01*
X152714579Y-146677665D01*
X152790822Y-146527704D01*
X152793240Y-146522949D01*
X152819438Y-146438580D01*
X152860024Y-146307871D01*
X152861607Y-146302773D01*
X152875329Y-146199243D01*
X152891198Y-146079511D01*
X152891198Y-146079506D01*
X152891898Y-146074226D01*
X152883249Y-145843842D01*
X152835907Y-145618209D01*
X152816462Y-145568971D01*
X152753185Y-145408744D01*
X152753184Y-145408742D01*
X152751224Y-145403779D01*
X152685686Y-145295775D01*
X152634390Y-145211243D01*
X152631623Y-145206683D01*
X152533192Y-145093251D01*
X152484023Y-145036588D01*
X152484021Y-145036586D01*
X152480523Y-145032555D01*
X152444880Y-145003330D01*
X152404886Y-144944671D01*
X152402954Y-144873701D01*
X152439698Y-144812952D01*
X152458468Y-144798752D01*
X152598120Y-144712332D01*
X152604348Y-144708478D01*
X152729305Y-144583303D01*
X152769250Y-144518500D01*
X152818275Y-144438968D01*
X152818276Y-144438966D01*
X152822115Y-144432738D01*
X152877797Y-144264861D01*
X152888500Y-144160400D01*
X152888500Y-142859600D01*
X152878848Y-142766576D01*
X152878238Y-142760692D01*
X152878237Y-142760688D01*
X152877526Y-142753834D01*
X152821550Y-142586054D01*
X152728478Y-142435652D01*
X152603303Y-142310695D01*
X152558317Y-142282965D01*
X152458968Y-142221725D01*
X152458966Y-142221724D01*
X152452738Y-142217885D01*
X152292254Y-142164655D01*
X152291389Y-142164368D01*
X152291387Y-142164368D01*
X152284861Y-142162203D01*
X152278025Y-142161503D01*
X152278022Y-142161502D01*
X152234969Y-142157091D01*
X152180400Y-142151500D01*
X150079600Y-142151500D01*
X150076354Y-142151837D01*
X150076350Y-142151837D01*
X149980692Y-142161762D01*
X149980688Y-142161763D01*
X149973834Y-142162474D01*
X149967298Y-142164655D01*
X149967296Y-142164655D01*
X149871840Y-142196502D01*
X149806054Y-142218450D01*
X149655652Y-142311522D01*
X149530695Y-142436697D01*
X149529549Y-142435553D01*
X149478746Y-142471574D01*
X149407823Y-142474808D01*
X149365507Y-142455633D01*
X149338464Y-142436697D01*
X149246749Y-142372477D01*
X149241767Y-142370154D01*
X149241762Y-142370151D01*
X149044225Y-142278039D01*
X149044224Y-142278039D01*
X149039243Y-142275716D01*
X149033935Y-142274294D01*
X149033933Y-142274293D01*
X148823402Y-142217881D01*
X148823400Y-142217881D01*
X148818087Y-142216457D01*
X148590000Y-142196502D01*
X148361913Y-142216457D01*
X148356600Y-142217881D01*
X148356598Y-142217881D01*
X148146067Y-142274293D01*
X148146065Y-142274294D01*
X148140757Y-142275716D01*
X148135776Y-142278039D01*
X148135775Y-142278039D01*
X147938238Y-142370151D01*
X147938233Y-142370154D01*
X147933251Y-142372477D01*
X147850416Y-142430479D01*
X147750211Y-142500643D01*
X147750208Y-142500645D01*
X147745700Y-142503802D01*
X147583802Y-142665700D01*
X147452477Y-142853251D01*
X147450154Y-142858233D01*
X147450151Y-142858238D01*
X147373829Y-143021913D01*
X147355716Y-143060757D01*
X147296457Y-143281913D01*
X147276502Y-143510000D01*
X147296457Y-143738087D01*
X147355716Y-143959243D01*
X147358039Y-143964224D01*
X147358039Y-143964225D01*
X147450151Y-144161762D01*
X147450154Y-144161767D01*
X147452477Y-144166749D01*
X147583802Y-144354300D01*
X147745700Y-144516198D01*
X147749841Y-144519097D01*
X147789088Y-144578094D01*
X147790210Y-144649082D01*
X147752776Y-144709408D01*
X147688670Y-144739918D01*
X147668768Y-144741500D01*
X140880740Y-144741500D01*
X140808469Y-144718713D01*
X140709026Y-144649082D01*
X140656749Y-144612477D01*
X140651767Y-144610154D01*
X140651762Y-144610151D01*
X140454225Y-144518039D01*
X140454224Y-144518039D01*
X140449243Y-144515716D01*
X140443935Y-144514294D01*
X140443933Y-144514293D01*
X140233402Y-144457881D01*
X140233400Y-144457881D01*
X140228087Y-144456457D01*
X140000000Y-144436502D01*
X139771913Y-144456457D01*
X139766600Y-144457881D01*
X139766598Y-144457881D01*
X139556067Y-144514293D01*
X139556065Y-144514294D01*
X139550757Y-144515716D01*
X139545776Y-144518039D01*
X139545775Y-144518039D01*
X139348238Y-144610151D01*
X139348233Y-144610154D01*
X139343251Y-144612477D01*
X139290974Y-144649082D01*
X139160211Y-144740643D01*
X139160208Y-144740645D01*
X139155700Y-144743802D01*
X138993802Y-144905700D01*
X138862477Y-145093251D01*
X138860154Y-145098233D01*
X138860151Y-145098238D01*
X138783216Y-145263228D01*
X138765716Y-145300757D01*
X138764294Y-145306065D01*
X138764293Y-145306067D01*
X138738111Y-145403779D01*
X138706457Y-145521913D01*
X138686502Y-145750000D01*
X138706457Y-145978087D01*
X138707881Y-145983400D01*
X138707881Y-145983402D01*
X138732218Y-146074226D01*
X138765716Y-146199243D01*
X138768039Y-146204224D01*
X138768039Y-146204225D01*
X138860151Y-146401762D01*
X138860154Y-146401767D01*
X138862477Y-146406749D01*
X138993802Y-146594300D01*
X139155700Y-146756198D01*
X139160208Y-146759355D01*
X139160211Y-146759357D01*
X139232908Y-146810260D01*
X139343251Y-146887523D01*
X139348233Y-146889846D01*
X139348238Y-146889849D01*
X139545775Y-146981961D01*
X139550757Y-146984284D01*
X139556065Y-146985706D01*
X139556067Y-146985707D01*
X139586245Y-146993793D01*
X139646868Y-147030745D01*
X139677889Y-147094605D01*
X139669461Y-147165100D01*
X139624258Y-147219847D01*
X139553634Y-147241500D01*
X131086255Y-147241500D01*
X131018134Y-147221498D01*
X130971641Y-147167842D01*
X130961537Y-147097568D01*
X130985166Y-147040287D01*
X131095141Y-146892475D01*
X131100745Y-146883438D01*
X131200357Y-146687516D01*
X131204357Y-146677665D01*
X131269534Y-146467760D01*
X131271817Y-146457376D01*
X131273861Y-146441957D01*
X131271665Y-146427793D01*
X131258478Y-146424000D01*
X127823808Y-146424000D01*
X127810277Y-146427973D01*
X127808752Y-146438580D01*
X127833477Y-146556421D01*
X127836537Y-146566617D01*
X127917263Y-146771029D01*
X127921994Y-146780561D01*
X128036016Y-146968462D01*
X128042280Y-146977052D01*
X128186327Y-147143052D01*
X128193958Y-147150472D01*
X128363911Y-147289826D01*
X128372674Y-147295848D01*
X128399711Y-147311238D01*
X128449018Y-147362320D01*
X128462880Y-147431951D01*
X128436897Y-147498022D01*
X128407747Y-147525261D01*
X128401944Y-147529168D01*
X128285681Y-147607441D01*
X128118865Y-147766576D01*
X127981246Y-147951542D01*
X127876760Y-148157051D01*
X127808393Y-148377227D01*
X127807692Y-148382516D01*
X127781583Y-148579511D01*
X127778102Y-148605774D01*
X127786751Y-148836158D01*
X127834093Y-149061791D01*
X127836051Y-149066750D01*
X127836052Y-149066752D01*
X127911778Y-149258500D01*
X127918776Y-149276221D01*
X128038377Y-149473317D01*
X128041874Y-149477347D01*
X128177484Y-149633624D01*
X128189477Y-149647445D01*
X128193608Y-149650832D01*
X128363627Y-149790240D01*
X128363633Y-149790244D01*
X128367755Y-149793624D01*
X128399250Y-149811552D01*
X128448555Y-149862632D01*
X128462417Y-149932262D01*
X128436434Y-149998333D01*
X128407284Y-150025573D01*
X128391602Y-150036130D01*
X128285681Y-150107441D01*
X128118865Y-150266576D01*
X127981246Y-150451542D01*
X127978830Y-150456293D01*
X127978828Y-150456297D01*
X127942681Y-150527393D01*
X127876760Y-150657051D01*
X127875178Y-150662145D01*
X127875177Y-150662148D01*
X127849598Y-150744525D01*
X127808393Y-150877227D01*
X127807692Y-150882516D01*
X127795752Y-150972607D01*
X127778102Y-151105774D01*
X127508000Y-151105774D01*
X127508000Y-143605774D01*
X127778102Y-143605774D01*
X127786751Y-143836158D01*
X127834093Y-144061791D01*
X127836051Y-144066750D01*
X127836052Y-144066752D01*
X127914290Y-144264861D01*
X127918776Y-144276221D01*
X127921543Y-144280780D01*
X127921544Y-144280783D01*
X127968520Y-144358197D01*
X128038377Y-144473317D01*
X128041874Y-144477347D01*
X128138313Y-144588483D01*
X128189477Y-144647445D01*
X128193608Y-144650832D01*
X128363627Y-144790240D01*
X128363633Y-144790244D01*
X128367755Y-144793624D01*
X128372398Y-144796267D01*
X128399735Y-144811829D01*
X128449041Y-144862912D01*
X128462902Y-144932542D01*
X128436918Y-144998613D01*
X128407768Y-145025851D01*
X128290422Y-145104852D01*
X128282130Y-145111519D01*
X128123100Y-145263228D01*
X128116059Y-145271186D01*
X127984859Y-145447525D01*
X127979255Y-145456562D01*
X127879643Y-145652484D01*
X127875643Y-145662335D01*
X127810466Y-145872240D01*
X127808183Y-145882624D01*
X127806139Y-145898043D01*
X127808335Y-145912207D01*
X127821522Y-145916000D01*
X131256192Y-145916000D01*
X131269723Y-145912027D01*
X131271248Y-145901420D01*
X131246523Y-145783579D01*
X131243463Y-145773383D01*
X131162737Y-145568971D01*
X131158006Y-145559439D01*
X131043984Y-145371538D01*
X131037720Y-145362948D01*
X130893673Y-145196948D01*
X130886042Y-145189528D01*
X130716089Y-145050174D01*
X130707326Y-145044152D01*
X130680289Y-145028762D01*
X130630982Y-144977680D01*
X130617120Y-144908049D01*
X130643103Y-144841978D01*
X130672253Y-144814739D01*
X130725532Y-144778869D01*
X130794319Y-144732559D01*
X130808834Y-144718713D01*
X130887769Y-144643412D01*
X130961135Y-144573424D01*
X131098754Y-144388458D01*
X131114140Y-144358197D01*
X131129800Y-144327395D01*
X131178503Y-144275737D01*
X131242117Y-144258500D01*
X136619260Y-144258500D01*
X136691531Y-144281287D01*
X136843251Y-144387523D01*
X136848233Y-144389846D01*
X136848238Y-144389849D01*
X136990054Y-144455978D01*
X137050757Y-144484284D01*
X137056065Y-144485706D01*
X137056067Y-144485707D01*
X137266598Y-144542119D01*
X137266600Y-144542119D01*
X137271913Y-144543543D01*
X137500000Y-144563498D01*
X137728087Y-144543543D01*
X137733400Y-144542119D01*
X137733402Y-144542119D01*
X137943933Y-144485707D01*
X137943935Y-144485706D01*
X137949243Y-144484284D01*
X138009946Y-144455978D01*
X138151762Y-144389849D01*
X138151767Y-144389846D01*
X138156749Y-144387523D01*
X138261611Y-144314098D01*
X138339789Y-144259357D01*
X138339792Y-144259355D01*
X138344300Y-144256198D01*
X138506198Y-144094300D01*
X138525488Y-144066752D01*
X138634366Y-143911257D01*
X138637523Y-143906749D01*
X138639846Y-143901767D01*
X138639849Y-143901762D01*
X138731961Y-143704225D01*
X138731961Y-143704224D01*
X138734284Y-143699243D01*
X138793543Y-143478087D01*
X138813498Y-143250000D01*
X138793543Y-143021913D01*
X138734284Y-142800757D01*
X138673410Y-142670211D01*
X138639849Y-142598238D01*
X138639846Y-142598233D01*
X138637523Y-142593251D01*
X138531532Y-142441880D01*
X138509357Y-142410211D01*
X138509355Y-142410208D01*
X138506198Y-142405700D01*
X138344300Y-142243802D01*
X138339792Y-142240645D01*
X138339789Y-142240643D01*
X138261611Y-142185902D01*
X138156749Y-142112477D01*
X138151767Y-142110154D01*
X138151762Y-142110151D01*
X137954225Y-142018039D01*
X137954224Y-142018039D01*
X137949243Y-142015716D01*
X137943935Y-142014294D01*
X137943933Y-142014293D01*
X137733402Y-141957881D01*
X137733400Y-141957881D01*
X137728087Y-141956457D01*
X137500000Y-141936502D01*
X137271913Y-141956457D01*
X137266600Y-141957881D01*
X137266598Y-141957881D01*
X137056067Y-142014293D01*
X137056065Y-142014294D01*
X137050757Y-142015716D01*
X137045776Y-142018039D01*
X137045775Y-142018039D01*
X136848238Y-142110151D01*
X136848233Y-142110154D01*
X136843251Y-142112477D01*
X136722567Y-142196981D01*
X136691531Y-142218713D01*
X136619260Y-142241500D01*
X130021850Y-142241500D01*
X130008242Y-142240763D01*
X130007137Y-142240643D01*
X129970612Y-142236675D01*
X129920570Y-142241053D01*
X129915788Y-142241379D01*
X129913310Y-142241500D01*
X129910231Y-142241500D01*
X129907177Y-142241799D01*
X129907166Y-142241800D01*
X129867529Y-142245687D01*
X129866215Y-142245809D01*
X129830688Y-142248917D01*
X129773587Y-142253913D01*
X129768468Y-142255400D01*
X129763167Y-142255920D01*
X129674166Y-142282791D01*
X129673033Y-142283126D01*
X129592592Y-142306497D01*
X129557438Y-142311500D01*
X129082110Y-142311500D01*
X129020779Y-142316704D01*
X128915591Y-142325629D01*
X128915587Y-142325630D01*
X128910280Y-142326080D01*
X128905125Y-142327418D01*
X128905119Y-142327419D01*
X128692297Y-142382657D01*
X128692293Y-142382658D01*
X128687128Y-142383999D01*
X128682262Y-142386191D01*
X128682259Y-142386192D01*
X128572682Y-142435553D01*
X128476925Y-142478688D01*
X128285681Y-142607441D01*
X128118865Y-142766576D01*
X127981246Y-142951542D01*
X127978830Y-142956293D01*
X127978828Y-142956297D01*
X127942681Y-143027393D01*
X127876760Y-143157051D01*
X127808393Y-143377227D01*
X127807692Y-143382516D01*
X127790796Y-143510000D01*
X127778102Y-143605774D01*
X127508000Y-143605774D01*
X127508000Y-101495774D01*
X127770602Y-101495774D01*
X127779251Y-101726158D01*
X127826593Y-101951791D01*
X127828551Y-101956750D01*
X127828552Y-101956752D01*
X127890849Y-102114496D01*
X127911276Y-102166221D01*
X127914043Y-102170780D01*
X127914044Y-102170783D01*
X128003545Y-102318276D01*
X128030877Y-102363317D01*
X128034374Y-102367347D01*
X128044325Y-102378814D01*
X128181977Y-102537445D01*
X128217620Y-102566670D01*
X128257614Y-102625329D01*
X128259546Y-102696299D01*
X128222802Y-102757048D01*
X128204032Y-102771248D01*
X128178435Y-102787088D01*
X128058152Y-102861522D01*
X127933195Y-102986697D01*
X127840385Y-103137262D01*
X127827310Y-103176683D01*
X127788071Y-103294986D01*
X127784703Y-103305139D01*
X127774000Y-103409600D01*
X127774000Y-104710400D01*
X127774337Y-104713646D01*
X127774337Y-104713650D01*
X127779900Y-104767260D01*
X127784974Y-104816166D01*
X127787155Y-104822702D01*
X127787155Y-104822704D01*
X127821251Y-104924901D01*
X127840950Y-104983946D01*
X127934022Y-105134348D01*
X128059197Y-105259305D01*
X128065427Y-105263145D01*
X128065428Y-105263146D01*
X128202590Y-105347694D01*
X128209762Y-105352115D01*
X128228518Y-105358336D01*
X128371111Y-105405632D01*
X128371113Y-105405632D01*
X128377639Y-105407797D01*
X128384475Y-105408497D01*
X128384478Y-105408498D01*
X128427531Y-105412909D01*
X128482100Y-105418500D01*
X130582900Y-105418500D01*
X130586146Y-105418163D01*
X130586150Y-105418163D01*
X130681808Y-105408238D01*
X130681812Y-105408237D01*
X130688666Y-105407526D01*
X130695202Y-105405345D01*
X130695204Y-105405345D01*
X130836106Y-105358336D01*
X130856446Y-105351550D01*
X131006848Y-105258478D01*
X131050218Y-105215032D01*
X131079717Y-105185482D01*
X131142000Y-105151403D01*
X131168890Y-105148500D01*
X133515075Y-105148500D01*
X133583196Y-105168502D01*
X133604170Y-105185405D01*
X133734595Y-105315830D01*
X133768621Y-105378142D01*
X133771500Y-105404925D01*
X133771500Y-106060400D01*
X133771837Y-106063646D01*
X133771837Y-106063650D01*
X133775217Y-106096221D01*
X133782474Y-106166166D01*
X133838450Y-106333946D01*
X133931522Y-106484348D01*
X134056697Y-106609305D01*
X134062927Y-106613145D01*
X134062928Y-106613146D01*
X134067983Y-106616262D01*
X134141644Y-106661667D01*
X134152307Y-106668240D01*
X134199800Y-106721012D01*
X134211224Y-106791084D01*
X134182950Y-106856208D01*
X134123956Y-106895707D01*
X134086191Y-106901500D01*
X132903615Y-106901500D01*
X132831344Y-106878713D01*
X132741258Y-106815634D01*
X132741256Y-106815633D01*
X132736749Y-106812477D01*
X132731767Y-106810154D01*
X132731762Y-106810151D01*
X132534225Y-106718039D01*
X132534224Y-106718039D01*
X132529243Y-106715716D01*
X132523935Y-106714294D01*
X132523933Y-106714293D01*
X132313402Y-106657881D01*
X132313400Y-106657881D01*
X132308087Y-106656457D01*
X132080000Y-106636502D01*
X131851913Y-106656457D01*
X131846600Y-106657881D01*
X131846598Y-106657881D01*
X131636067Y-106714293D01*
X131636065Y-106714294D01*
X131630757Y-106715716D01*
X131625776Y-106718039D01*
X131625775Y-106718039D01*
X131428238Y-106810151D01*
X131428233Y-106810154D01*
X131423251Y-106812477D01*
X131318389Y-106885902D01*
X131240211Y-106940643D01*
X131240208Y-106940645D01*
X131235700Y-106943802D01*
X131073802Y-107105700D01*
X131070645Y-107110208D01*
X131070643Y-107110211D01*
X131015902Y-107188389D01*
X130942477Y-107293251D01*
X130940154Y-107298233D01*
X130940151Y-107298238D01*
X130929714Y-107320621D01*
X130845716Y-107500757D01*
X130844294Y-107506065D01*
X130844293Y-107506067D01*
X130791654Y-107702516D01*
X130786457Y-107721913D01*
X130766502Y-107950000D01*
X130786457Y-108178087D01*
X130787881Y-108183400D01*
X130787881Y-108183402D01*
X130794438Y-108207871D01*
X130845716Y-108399243D01*
X130848039Y-108404224D01*
X130848039Y-108404225D01*
X130940151Y-108601762D01*
X130940154Y-108601767D01*
X130942477Y-108606749D01*
X131015902Y-108711611D01*
X131069921Y-108788757D01*
X131073802Y-108794300D01*
X131235700Y-108956198D01*
X131240208Y-108959355D01*
X131240211Y-108959357D01*
X131318389Y-109014098D01*
X131423251Y-109087523D01*
X131428233Y-109089846D01*
X131428238Y-109089849D01*
X131625775Y-109181961D01*
X131630757Y-109184284D01*
X131636065Y-109185706D01*
X131636067Y-109185707D01*
X131846598Y-109242119D01*
X131846600Y-109242119D01*
X131851913Y-109243543D01*
X132080000Y-109263498D01*
X132308087Y-109243543D01*
X132313400Y-109242119D01*
X132313402Y-109242119D01*
X132523933Y-109185707D01*
X132523935Y-109185706D01*
X132529243Y-109184284D01*
X132534225Y-109181961D01*
X132731762Y-109089849D01*
X132731767Y-109089846D01*
X132736749Y-109087523D01*
X132841611Y-109014098D01*
X132919789Y-108959357D01*
X132919792Y-108959355D01*
X132924300Y-108956198D01*
X132928197Y-108952301D01*
X132932400Y-108948774D01*
X132933920Y-108950585D01*
X132987405Y-108921379D01*
X133014188Y-108918500D01*
X134172299Y-108918500D01*
X134240420Y-108938502D01*
X134252190Y-108947066D01*
X134353627Y-109030240D01*
X134353633Y-109030244D01*
X134357755Y-109033624D01*
X134389250Y-109051552D01*
X134438555Y-109102632D01*
X134452417Y-109172262D01*
X134426434Y-109238333D01*
X134397284Y-109265573D01*
X134275681Y-109347441D01*
X134271824Y-109351120D01*
X134271822Y-109351122D01*
X134258324Y-109363999D01*
X134108865Y-109506576D01*
X133971246Y-109691542D01*
X133968830Y-109696293D01*
X133968828Y-109696297D01*
X133949080Y-109735139D01*
X133866760Y-109897051D01*
X133865178Y-109902145D01*
X133865177Y-109902148D01*
X133823685Y-110035775D01*
X133798393Y-110117227D01*
X133797692Y-110122516D01*
X133779217Y-110261913D01*
X133768102Y-110345774D01*
X133768302Y-110351103D01*
X133768302Y-110351104D01*
X133772215Y-110455316D01*
X133757348Y-110519586D01*
X133734002Y-110563126D01*
X133733389Y-110564255D01*
X133688567Y-110645787D01*
X133686955Y-110650869D01*
X133684438Y-110655563D01*
X133657238Y-110744531D01*
X133656918Y-110745559D01*
X133628765Y-110834306D01*
X133628171Y-110839602D01*
X133626613Y-110844698D01*
X133617549Y-110933933D01*
X133617218Y-110937187D01*
X133617089Y-110938393D01*
X133611500Y-110988227D01*
X133611500Y-110991754D01*
X133611445Y-110992739D01*
X133610998Y-110998419D01*
X133606626Y-111041462D01*
X133607206Y-111047593D01*
X133610941Y-111087109D01*
X133611500Y-111098967D01*
X133611500Y-111514260D01*
X133588713Y-111586531D01*
X133482477Y-111738251D01*
X133480154Y-111743233D01*
X133480151Y-111743238D01*
X133401204Y-111912542D01*
X133385716Y-111945757D01*
X133384294Y-111951065D01*
X133384293Y-111951067D01*
X133348445Y-112084852D01*
X133326457Y-112166913D01*
X133306502Y-112395000D01*
X133306981Y-112400475D01*
X133306981Y-112400476D01*
X133318062Y-112527136D01*
X133304073Y-112596740D01*
X133254673Y-112647733D01*
X133185547Y-112663923D01*
X133118642Y-112640170D01*
X133103446Y-112627212D01*
X131332843Y-110856609D01*
X131298817Y-110794297D01*
X131297030Y-110750961D01*
X131301197Y-110719515D01*
X131301898Y-110714226D01*
X131301660Y-110707871D01*
X131293449Y-110489173D01*
X131293249Y-110483842D01*
X131245907Y-110258209D01*
X131243948Y-110253248D01*
X131163185Y-110048744D01*
X131163184Y-110048742D01*
X131161224Y-110043779D01*
X131142698Y-110013248D01*
X131044390Y-109851243D01*
X131041623Y-109846683D01*
X130954755Y-109746576D01*
X130894023Y-109676588D01*
X130894021Y-109676586D01*
X130890523Y-109672555D01*
X130815748Y-109611243D01*
X130716373Y-109529760D01*
X130716367Y-109529756D01*
X130712245Y-109526376D01*
X130707609Y-109523737D01*
X130707606Y-109523735D01*
X130528672Y-109421880D01*
X130511886Y-109412325D01*
X130295175Y-109333663D01*
X130289926Y-109332714D01*
X130289923Y-109332713D01*
X130072392Y-109293377D01*
X130072385Y-109293376D01*
X130068308Y-109292639D01*
X130050586Y-109291803D01*
X130045644Y-109291570D01*
X130045637Y-109291570D01*
X130044156Y-109291500D01*
X129082110Y-109291500D01*
X129020779Y-109296704D01*
X128915591Y-109305629D01*
X128915587Y-109305630D01*
X128910280Y-109306080D01*
X128905125Y-109307418D01*
X128905119Y-109307419D01*
X128692297Y-109362657D01*
X128692293Y-109362658D01*
X128687128Y-109363999D01*
X128682262Y-109366191D01*
X128682259Y-109366192D01*
X128573980Y-109414968D01*
X128476925Y-109458688D01*
X128285681Y-109587441D01*
X128281824Y-109591120D01*
X128281822Y-109591122D01*
X128265510Y-109606683D01*
X128118865Y-109746576D01*
X127981246Y-109931542D01*
X127978830Y-109936293D01*
X127978828Y-109936297D01*
X127937182Y-110018209D01*
X127876760Y-110137051D01*
X127875178Y-110142145D01*
X127875177Y-110142148D01*
X127836287Y-110267393D01*
X127808393Y-110357227D01*
X127807692Y-110362516D01*
X127781024Y-110563728D01*
X127778102Y-110585774D01*
X127786751Y-110816158D01*
X127834093Y-111041791D01*
X127836051Y-111046750D01*
X127836052Y-111046752D01*
X127914290Y-111244861D01*
X127918776Y-111256221D01*
X127921543Y-111260780D01*
X127921544Y-111260783D01*
X127968520Y-111338197D01*
X128038377Y-111453317D01*
X128041874Y-111457347D01*
X128168705Y-111603507D01*
X128189477Y-111627445D01*
X128193608Y-111630832D01*
X128363627Y-111770240D01*
X128363633Y-111770244D01*
X128367755Y-111773624D01*
X128372398Y-111776267D01*
X128399735Y-111791829D01*
X128449041Y-111842912D01*
X128462902Y-111912542D01*
X128436918Y-111978613D01*
X128407768Y-112005851D01*
X128290422Y-112084852D01*
X128282130Y-112091519D01*
X128123100Y-112243228D01*
X128116059Y-112251186D01*
X127984859Y-112427525D01*
X127979255Y-112436562D01*
X127879643Y-112632484D01*
X127875643Y-112642335D01*
X127810466Y-112852240D01*
X127808183Y-112862624D01*
X127806139Y-112878043D01*
X127808335Y-112892207D01*
X127821522Y-112896000D01*
X129668000Y-112896000D01*
X129736121Y-112916002D01*
X129782614Y-112969658D01*
X129794000Y-113022000D01*
X129794000Y-113278000D01*
X129773998Y-113346121D01*
X129720342Y-113392614D01*
X129668000Y-113404000D01*
X127823808Y-113404000D01*
X127810277Y-113407973D01*
X127808752Y-113418580D01*
X127833477Y-113536421D01*
X127836537Y-113546617D01*
X127917263Y-113751029D01*
X127921994Y-113760561D01*
X128036016Y-113948462D01*
X128042280Y-113957052D01*
X128186327Y-114123052D01*
X128193958Y-114130472D01*
X128363911Y-114269826D01*
X128372674Y-114275848D01*
X128399711Y-114291238D01*
X128449018Y-114342320D01*
X128462880Y-114411951D01*
X128436897Y-114478022D01*
X128407747Y-114505261D01*
X128371358Y-114529760D01*
X128285681Y-114587441D01*
X128118865Y-114746576D01*
X127981246Y-114931542D01*
X127876760Y-115137051D01*
X127808393Y-115357227D01*
X127807692Y-115362516D01*
X127781583Y-115559511D01*
X127778102Y-115585774D01*
X127786751Y-115816158D01*
X127834093Y-116041791D01*
X127836051Y-116046750D01*
X127836052Y-116046752D01*
X127898036Y-116203703D01*
X127918776Y-116256221D01*
X128038377Y-116453317D01*
X128041874Y-116457347D01*
X128177484Y-116613624D01*
X128189477Y-116627445D01*
X128193608Y-116630832D01*
X128363627Y-116770240D01*
X128363633Y-116770244D01*
X128367755Y-116773624D01*
X128399250Y-116791552D01*
X128448555Y-116842632D01*
X128462417Y-116912262D01*
X128436434Y-116978333D01*
X128407284Y-117005573D01*
X128394332Y-117014293D01*
X128285681Y-117087441D01*
X128281824Y-117091120D01*
X128281822Y-117091122D01*
X128256127Y-117115634D01*
X128118865Y-117246576D01*
X127981246Y-117431542D01*
X127978830Y-117436293D01*
X127978828Y-117436297D01*
X127929003Y-117534296D01*
X127876760Y-117637051D01*
X127875178Y-117642145D01*
X127875177Y-117642148D01*
X127825425Y-117802374D01*
X127808393Y-117857227D01*
X127807692Y-117862516D01*
X127779448Y-118075621D01*
X127778102Y-118085774D01*
X127786751Y-118316158D01*
X127834093Y-118541791D01*
X127836051Y-118546750D01*
X127836052Y-118546752D01*
X127898242Y-118704225D01*
X127918776Y-118756221D01*
X128038377Y-118953317D01*
X128041874Y-118957347D01*
X128179414Y-119115848D01*
X128189477Y-119127445D01*
X128225120Y-119156670D01*
X128265114Y-119215329D01*
X128267046Y-119286299D01*
X128230302Y-119347048D01*
X128211532Y-119361248D01*
X128109382Y-119424461D01*
X128065652Y-119451522D01*
X127940695Y-119576697D01*
X127936855Y-119582927D01*
X127936854Y-119582928D01*
X127852456Y-119719847D01*
X127847885Y-119727262D01*
X127792203Y-119895139D01*
X127781500Y-119999600D01*
X127781500Y-121300400D01*
X127781837Y-121303646D01*
X127781837Y-121303650D01*
X127791534Y-121397103D01*
X127792474Y-121406166D01*
X127794655Y-121412702D01*
X127794655Y-121412704D01*
X127800147Y-121429164D01*
X127848450Y-121573946D01*
X127941522Y-121724348D01*
X128066697Y-121849305D01*
X128072927Y-121853145D01*
X128072928Y-121853146D01*
X128210090Y-121937694D01*
X128217262Y-121942115D01*
X128280286Y-121963019D01*
X128378611Y-121995632D01*
X128378613Y-121995632D01*
X128385139Y-121997797D01*
X128391975Y-121998497D01*
X128391978Y-121998498D01*
X128435031Y-122002909D01*
X128489600Y-122008500D01*
X130590400Y-122008500D01*
X130593646Y-122008163D01*
X130593650Y-122008163D01*
X130689308Y-121998238D01*
X130689312Y-121998237D01*
X130696166Y-121997526D01*
X130702702Y-121995345D01*
X130702704Y-121995345D01*
X130834806Y-121951272D01*
X130863946Y-121941550D01*
X131014348Y-121848478D01*
X131139305Y-121723303D01*
X131140451Y-121724447D01*
X131191254Y-121688426D01*
X131262177Y-121685192D01*
X131304492Y-121704366D01*
X131423251Y-121787523D01*
X131428233Y-121789846D01*
X131428238Y-121789849D01*
X131625775Y-121881961D01*
X131630757Y-121884284D01*
X131636065Y-121885706D01*
X131636067Y-121885707D01*
X131846598Y-121942119D01*
X131846600Y-121942119D01*
X131851913Y-121943543D01*
X132080000Y-121963498D01*
X132308087Y-121943543D01*
X132313400Y-121942119D01*
X132313402Y-121942119D01*
X132523933Y-121885707D01*
X132523935Y-121885706D01*
X132529243Y-121884284D01*
X132534225Y-121881961D01*
X132731762Y-121789849D01*
X132731767Y-121789846D01*
X132736749Y-121787523D01*
X132874925Y-121690771D01*
X132919789Y-121659357D01*
X132919792Y-121659355D01*
X132924300Y-121656198D01*
X133086198Y-121494300D01*
X133217523Y-121306749D01*
X133219846Y-121301767D01*
X133219849Y-121301762D01*
X133311961Y-121104225D01*
X133311961Y-121104224D01*
X133314284Y-121099243D01*
X133324571Y-121060854D01*
X133372119Y-120883402D01*
X133372119Y-120883400D01*
X133373543Y-120878087D01*
X133393498Y-120650000D01*
X133373543Y-120421913D01*
X133314284Y-120200757D01*
X133266479Y-120098238D01*
X133219849Y-119998238D01*
X133219846Y-119998233D01*
X133217523Y-119993251D01*
X133086198Y-119805700D01*
X132924300Y-119643802D01*
X132919792Y-119640645D01*
X132919789Y-119640643D01*
X132826972Y-119575652D01*
X132736749Y-119512477D01*
X132731764Y-119510153D01*
X132731758Y-119510149D01*
X132707194Y-119498695D01*
X132653908Y-119451778D01*
X132634447Y-119383501D01*
X132654988Y-119315541D01*
X132709011Y-119269475D01*
X132760443Y-119258500D01*
X137053634Y-119258500D01*
X137121755Y-119278502D01*
X137168248Y-119332158D01*
X137178352Y-119402432D01*
X137148858Y-119467012D01*
X137086245Y-119506207D01*
X137056067Y-119514293D01*
X137056065Y-119514294D01*
X137050757Y-119515716D01*
X137045776Y-119518039D01*
X137045775Y-119518039D01*
X136848238Y-119610151D01*
X136848233Y-119610154D01*
X136843251Y-119612477D01*
X136792949Y-119647699D01*
X136660211Y-119740643D01*
X136660208Y-119740645D01*
X136655700Y-119743802D01*
X136493802Y-119905700D01*
X136362477Y-120093251D01*
X136360154Y-120098233D01*
X136360151Y-120098238D01*
X136312346Y-120200757D01*
X136265716Y-120300757D01*
X136206457Y-120521913D01*
X136186502Y-120750000D01*
X136206457Y-120978087D01*
X136207881Y-120983400D01*
X136207881Y-120983402D01*
X136228635Y-121060854D01*
X136265716Y-121199243D01*
X136268039Y-121204224D01*
X136268039Y-121204225D01*
X136360151Y-121401762D01*
X136360154Y-121401767D01*
X136362477Y-121406749D01*
X136430056Y-121503262D01*
X136464575Y-121552559D01*
X136493802Y-121594300D01*
X136655700Y-121756198D01*
X136660208Y-121759355D01*
X136660211Y-121759357D01*
X136701149Y-121788022D01*
X136843251Y-121887523D01*
X136848233Y-121889846D01*
X136848238Y-121889849D01*
X137006181Y-121963498D01*
X137050757Y-121984284D01*
X137056065Y-121985706D01*
X137056067Y-121985707D01*
X137266598Y-122042119D01*
X137266600Y-122042119D01*
X137271913Y-122043543D01*
X137500000Y-122063498D01*
X137728087Y-122043543D01*
X137733400Y-122042119D01*
X137733402Y-122042119D01*
X137943933Y-121985707D01*
X137943935Y-121985706D01*
X137949243Y-121984284D01*
X137993819Y-121963498D01*
X138151762Y-121889849D01*
X138151767Y-121889846D01*
X138156749Y-121887523D01*
X138308469Y-121781287D01*
X138380740Y-121758500D01*
X142078157Y-121758500D01*
X142091764Y-121759237D01*
X142123262Y-121762659D01*
X142123267Y-121762659D01*
X142129388Y-121763324D01*
X142155638Y-121761027D01*
X142179388Y-121758950D01*
X142184214Y-121758621D01*
X142186686Y-121758500D01*
X142189769Y-121758500D01*
X142201738Y-121757326D01*
X142232506Y-121754310D01*
X142233819Y-121754188D01*
X142278084Y-121750315D01*
X142326413Y-121746087D01*
X142331532Y-121744600D01*
X142336833Y-121744080D01*
X142425834Y-121717209D01*
X142426967Y-121716874D01*
X142510414Y-121692630D01*
X142510418Y-121692628D01*
X142516336Y-121690909D01*
X142521068Y-121688456D01*
X142526169Y-121686916D01*
X142572788Y-121662129D01*
X142608260Y-121643269D01*
X142609426Y-121642657D01*
X142686453Y-121602729D01*
X142691926Y-121599892D01*
X142696089Y-121596569D01*
X142700796Y-121594066D01*
X142772918Y-121535245D01*
X142773774Y-121534554D01*
X142812973Y-121503262D01*
X142815477Y-121500758D01*
X142816195Y-121500116D01*
X142820528Y-121496415D01*
X142854062Y-121469065D01*
X142883288Y-121433737D01*
X142891277Y-121424958D01*
X143700606Y-120615629D01*
X144525829Y-119790405D01*
X144588141Y-119756380D01*
X144614924Y-119753500D01*
X146517715Y-119753500D01*
X146585836Y-119773502D01*
X146606805Y-119790400D01*
X147552812Y-120736407D01*
X147586836Y-120798717D01*
X147581772Y-120869532D01*
X147539225Y-120926368D01*
X147472705Y-120951179D01*
X147463716Y-120951500D01*
X146082701Y-120951500D01*
X146014580Y-120931498D01*
X146002810Y-120922934D01*
X145901373Y-120839760D01*
X145901367Y-120839756D01*
X145897245Y-120836376D01*
X145892609Y-120833737D01*
X145892606Y-120833735D01*
X145701529Y-120724968D01*
X145696886Y-120722325D01*
X145480175Y-120643663D01*
X145474926Y-120642714D01*
X145474923Y-120642713D01*
X145257392Y-120603377D01*
X145257385Y-120603376D01*
X145253308Y-120602639D01*
X145235586Y-120601803D01*
X145230644Y-120601570D01*
X145230637Y-120601570D01*
X145229156Y-120601500D01*
X144817110Y-120601500D01*
X144750191Y-120607178D01*
X144650591Y-120615629D01*
X144650587Y-120615630D01*
X144645280Y-120616080D01*
X144640125Y-120617418D01*
X144640119Y-120617419D01*
X144427297Y-120672657D01*
X144427293Y-120672658D01*
X144422128Y-120673999D01*
X144417262Y-120676191D01*
X144417259Y-120676192D01*
X144308980Y-120724968D01*
X144211925Y-120768688D01*
X144020681Y-120897441D01*
X144016824Y-120901120D01*
X144016822Y-120901122D01*
X143990358Y-120926368D01*
X143853865Y-121056576D01*
X143850682Y-121060854D01*
X143822120Y-121099243D01*
X143716246Y-121241542D01*
X143713830Y-121246293D01*
X143713828Y-121246297D01*
X143684669Y-121303650D01*
X143611760Y-121447051D01*
X143610178Y-121452145D01*
X143610177Y-121452148D01*
X143564466Y-121599362D01*
X143543393Y-121667227D01*
X143542692Y-121672516D01*
X143514196Y-121887523D01*
X143513102Y-121895774D01*
X143513302Y-121901103D01*
X143513302Y-121901105D01*
X143514913Y-121944022D01*
X143521751Y-122126158D01*
X143569093Y-122351791D01*
X143653776Y-122566221D01*
X143656543Y-122570780D01*
X143656544Y-122570783D01*
X143675607Y-122602197D01*
X143773377Y-122763317D01*
X143924477Y-122937445D01*
X143928608Y-122940832D01*
X144098627Y-123080240D01*
X144098633Y-123080244D01*
X144102755Y-123083624D01*
X144134250Y-123101552D01*
X144183555Y-123152632D01*
X144197417Y-123222262D01*
X144171434Y-123288333D01*
X144142284Y-123315573D01*
X144025111Y-123394458D01*
X144025107Y-123394461D01*
X144020681Y-123397441D01*
X144016816Y-123401128D01*
X144000525Y-123416669D01*
X143937429Y-123449217D01*
X143913553Y-123451500D01*
X132960740Y-123451500D01*
X132888469Y-123428713D01*
X132818804Y-123379933D01*
X132736749Y-123322477D01*
X132731767Y-123320154D01*
X132731762Y-123320151D01*
X132534225Y-123228039D01*
X132534224Y-123228039D01*
X132529243Y-123225716D01*
X132523935Y-123224294D01*
X132523933Y-123224293D01*
X132313402Y-123167881D01*
X132313400Y-123167881D01*
X132308087Y-123166457D01*
X132080000Y-123146502D01*
X131851913Y-123166457D01*
X131846600Y-123167881D01*
X131846598Y-123167881D01*
X131636067Y-123224293D01*
X131636065Y-123224294D01*
X131630757Y-123225716D01*
X131625776Y-123228039D01*
X131625775Y-123228039D01*
X131428238Y-123320151D01*
X131428233Y-123320154D01*
X131423251Y-123322477D01*
X131341196Y-123379933D01*
X131240211Y-123450643D01*
X131240208Y-123450645D01*
X131235700Y-123453802D01*
X131073802Y-123615700D01*
X130942477Y-123803251D01*
X130940154Y-123808233D01*
X130940151Y-123808238D01*
X130848039Y-124005775D01*
X130845716Y-124010757D01*
X130786457Y-124231913D01*
X130766502Y-124460000D01*
X130786457Y-124688087D01*
X130845716Y-124909243D01*
X130848039Y-124914224D01*
X130848039Y-124914225D01*
X130940151Y-125111762D01*
X130940154Y-125111767D01*
X130942477Y-125116749D01*
X131073802Y-125304300D01*
X131235700Y-125466198D01*
X131240208Y-125469355D01*
X131240211Y-125469357D01*
X131316192Y-125522559D01*
X131423251Y-125597523D01*
X131428233Y-125599846D01*
X131428238Y-125599849D01*
X131607980Y-125683663D01*
X131630757Y-125694284D01*
X131636065Y-125695706D01*
X131636067Y-125695707D01*
X131815526Y-125743793D01*
X131876149Y-125780745D01*
X131907170Y-125844606D01*
X131898742Y-125915100D01*
X131853539Y-125969847D01*
X131782915Y-125991500D01*
X130897701Y-125991500D01*
X130829580Y-125971498D01*
X130817810Y-125962934D01*
X130716373Y-125879760D01*
X130716367Y-125879756D01*
X130712245Y-125876376D01*
X130707609Y-125873737D01*
X130707606Y-125873735D01*
X130516529Y-125764968D01*
X130511886Y-125762325D01*
X130295175Y-125683663D01*
X130289926Y-125682714D01*
X130289923Y-125682713D01*
X130072392Y-125643377D01*
X130072385Y-125643376D01*
X130068308Y-125642639D01*
X130050586Y-125641803D01*
X130045644Y-125641570D01*
X130045637Y-125641570D01*
X130044156Y-125641500D01*
X129082110Y-125641500D01*
X129015191Y-125647178D01*
X128915591Y-125655629D01*
X128915587Y-125655630D01*
X128910280Y-125656080D01*
X128905125Y-125657418D01*
X128905119Y-125657419D01*
X128692297Y-125712657D01*
X128692293Y-125712658D01*
X128687128Y-125713999D01*
X128682262Y-125716191D01*
X128682259Y-125716192D01*
X128567163Y-125768039D01*
X128476925Y-125808688D01*
X128285681Y-125937441D01*
X128281824Y-125941120D01*
X128281822Y-125941122D01*
X128212464Y-126007287D01*
X128118865Y-126096576D01*
X127981246Y-126281542D01*
X127978830Y-126286293D01*
X127978828Y-126286297D01*
X127944983Y-126352866D01*
X127876760Y-126487051D01*
X127875178Y-126492145D01*
X127875177Y-126492148D01*
X127855330Y-126556067D01*
X127808393Y-126707227D01*
X127778102Y-126935774D01*
X127786751Y-127166158D01*
X127834093Y-127391791D01*
X127836051Y-127396750D01*
X127836052Y-127396752D01*
X127858750Y-127454225D01*
X127918776Y-127606221D01*
X127921543Y-127610780D01*
X127921544Y-127610783D01*
X127946411Y-127651762D01*
X128038377Y-127803317D01*
X128041874Y-127807347D01*
X128135977Y-127915791D01*
X128189477Y-127977445D01*
X128193608Y-127980832D01*
X128363627Y-128120240D01*
X128363633Y-128120244D01*
X128367755Y-128123624D01*
X128372398Y-128126267D01*
X128399735Y-128141829D01*
X128449041Y-128192912D01*
X128462902Y-128262542D01*
X128436918Y-128328613D01*
X128407768Y-128355851D01*
X128290422Y-128434852D01*
X128282130Y-128441519D01*
X128123100Y-128593228D01*
X128116059Y-128601186D01*
X127984859Y-128777525D01*
X127979255Y-128786562D01*
X127879643Y-128982484D01*
X127875643Y-128992335D01*
X127810466Y-129202240D01*
X127808183Y-129212624D01*
X127806139Y-129228043D01*
X127808335Y-129242207D01*
X127821522Y-129246000D01*
X131256192Y-129246000D01*
X131269723Y-129242027D01*
X131271248Y-129231420D01*
X131246523Y-129113579D01*
X131243463Y-129103383D01*
X131162737Y-128898971D01*
X131158006Y-128889439D01*
X131043984Y-128701538D01*
X131037720Y-128692948D01*
X130893673Y-128526948D01*
X130886042Y-128519528D01*
X130716089Y-128380174D01*
X130707326Y-128374152D01*
X130680289Y-128358762D01*
X130630982Y-128307680D01*
X130617120Y-128238049D01*
X130643103Y-128171978D01*
X130672253Y-128144739D01*
X130789889Y-128065542D01*
X130789893Y-128065539D01*
X130794319Y-128062559D01*
X130814475Y-128043331D01*
X130877571Y-128010783D01*
X130901447Y-128008500D01*
X136619260Y-128008500D01*
X136691531Y-128031287D01*
X136843251Y-128137523D01*
X136848233Y-128139846D01*
X136848238Y-128139849D01*
X136990054Y-128205978D01*
X137050757Y-128234284D01*
X137056065Y-128235706D01*
X137056067Y-128235707D01*
X137266598Y-128292119D01*
X137266600Y-128292119D01*
X137271913Y-128293543D01*
X137500000Y-128313498D01*
X137728087Y-128293543D01*
X137733400Y-128292119D01*
X137733402Y-128292119D01*
X137943933Y-128235707D01*
X137943935Y-128235706D01*
X137949243Y-128234284D01*
X138009946Y-128205978D01*
X138151762Y-128139849D01*
X138151767Y-128139846D01*
X138156749Y-128137523D01*
X138304098Y-128034348D01*
X138339789Y-128009357D01*
X138339792Y-128009355D01*
X138344300Y-128006198D01*
X138506198Y-127844300D01*
X138512186Y-127835749D01*
X138591341Y-127722704D01*
X138637523Y-127656749D01*
X138639846Y-127651767D01*
X138639849Y-127651762D01*
X138731961Y-127454225D01*
X138731961Y-127454224D01*
X138734284Y-127449243D01*
X138749679Y-127391791D01*
X138792119Y-127233402D01*
X138792119Y-127233400D01*
X138793543Y-127228087D01*
X138813498Y-127000000D01*
X138793543Y-126771913D01*
X138734284Y-126550757D01*
X138731961Y-126545775D01*
X138639849Y-126348238D01*
X138639846Y-126348233D01*
X138637523Y-126343251D01*
X138563332Y-126237296D01*
X138509357Y-126160211D01*
X138509355Y-126160208D01*
X138506198Y-126155700D01*
X138344300Y-125993802D01*
X138339792Y-125990645D01*
X138339789Y-125990643D01*
X138261611Y-125935902D01*
X138156749Y-125862477D01*
X138151767Y-125860154D01*
X138151762Y-125860151D01*
X137954225Y-125768039D01*
X137954224Y-125768039D01*
X137949243Y-125765716D01*
X137943935Y-125764294D01*
X137943933Y-125764293D01*
X137764474Y-125716207D01*
X137703851Y-125679255D01*
X137672830Y-125615394D01*
X137681258Y-125544900D01*
X137726461Y-125490153D01*
X137797085Y-125468500D01*
X143831110Y-125468500D01*
X143899231Y-125488502D01*
X143945724Y-125542158D01*
X143955828Y-125612432D01*
X143926334Y-125677012D01*
X143897413Y-125701644D01*
X143829302Y-125743793D01*
X143800652Y-125761522D01*
X143675695Y-125886697D01*
X143671855Y-125892927D01*
X143671854Y-125892928D01*
X143623423Y-125971498D01*
X143582885Y-126037262D01*
X143527203Y-126205139D01*
X143516500Y-126309600D01*
X143516500Y-127610400D01*
X143516837Y-127613646D01*
X143516837Y-127613650D01*
X143521777Y-127661257D01*
X143527474Y-127716166D01*
X143529655Y-127722702D01*
X143529655Y-127722704D01*
X143547295Y-127775576D01*
X143583450Y-127883946D01*
X143676522Y-128034348D01*
X143801697Y-128159305D01*
X143807927Y-128163145D01*
X143807928Y-128163146D01*
X143853622Y-128191312D01*
X143952262Y-128252115D01*
X143954168Y-128252747D01*
X144005815Y-128298220D01*
X144025278Y-128366496D01*
X144004738Y-128434457D01*
X143950716Y-128480524D01*
X143899282Y-128491500D01*
X140880740Y-128491500D01*
X140808469Y-128468713D01*
X140759852Y-128434671D01*
X140656749Y-128362477D01*
X140651767Y-128360154D01*
X140651762Y-128360151D01*
X140454225Y-128268039D01*
X140454224Y-128268039D01*
X140449243Y-128265716D01*
X140443935Y-128264294D01*
X140443933Y-128264293D01*
X140233402Y-128207881D01*
X140233400Y-128207881D01*
X140228087Y-128206457D01*
X140000000Y-128186502D01*
X139771913Y-128206457D01*
X139766600Y-128207881D01*
X139766598Y-128207881D01*
X139556067Y-128264293D01*
X139556065Y-128264294D01*
X139550757Y-128265716D01*
X139545776Y-128268039D01*
X139545775Y-128268039D01*
X139348238Y-128360151D01*
X139348233Y-128360154D01*
X139343251Y-128362477D01*
X139316678Y-128381084D01*
X139160211Y-128490643D01*
X139160208Y-128490645D01*
X139155700Y-128493802D01*
X138993802Y-128655700D01*
X138990645Y-128660208D01*
X138990643Y-128660211D01*
X138965105Y-128696683D01*
X138862477Y-128843251D01*
X138860154Y-128848233D01*
X138860151Y-128848238D01*
X138797552Y-128982484D01*
X138765716Y-129050757D01*
X138764294Y-129056065D01*
X138764293Y-129056067D01*
X138718212Y-129228043D01*
X138706457Y-129271913D01*
X138686502Y-129500000D01*
X138706457Y-129728087D01*
X138707881Y-129733400D01*
X138707881Y-129733402D01*
X138722344Y-129787376D01*
X138765716Y-129949243D01*
X138768039Y-129954224D01*
X138768039Y-129954225D01*
X138860151Y-130151762D01*
X138860154Y-130151767D01*
X138862477Y-130156749D01*
X138865634Y-130161257D01*
X138967721Y-130307052D01*
X138993802Y-130344300D01*
X139155700Y-130506198D01*
X139160208Y-130509355D01*
X139160211Y-130509357D01*
X139199784Y-130537066D01*
X139343251Y-130637523D01*
X139348233Y-130639846D01*
X139348238Y-130639849D01*
X139518527Y-130719255D01*
X139550757Y-130734284D01*
X139556065Y-130735706D01*
X139556067Y-130735707D01*
X139586245Y-130743793D01*
X139646868Y-130780745D01*
X139677889Y-130844605D01*
X139669461Y-130915100D01*
X139624258Y-130969847D01*
X139553634Y-130991500D01*
X130897701Y-130991500D01*
X130829580Y-130971498D01*
X130817810Y-130962934D01*
X130716373Y-130879760D01*
X130716367Y-130879756D01*
X130712245Y-130876376D01*
X130707602Y-130873733D01*
X130680265Y-130858171D01*
X130630959Y-130807088D01*
X130617098Y-130737458D01*
X130643082Y-130671387D01*
X130672232Y-130644149D01*
X130789578Y-130565148D01*
X130797870Y-130558481D01*
X130956900Y-130406772D01*
X130963941Y-130398814D01*
X131095141Y-130222475D01*
X131100745Y-130213438D01*
X131200357Y-130017516D01*
X131204357Y-130007665D01*
X131269534Y-129797760D01*
X131271817Y-129787376D01*
X131273861Y-129771957D01*
X131271665Y-129757793D01*
X131258478Y-129754000D01*
X127823808Y-129754000D01*
X127810277Y-129757973D01*
X127808752Y-129768580D01*
X127833477Y-129886421D01*
X127836537Y-129896617D01*
X127917263Y-130101029D01*
X127921994Y-130110561D01*
X128036016Y-130298462D01*
X128042280Y-130307052D01*
X128186327Y-130473052D01*
X128193958Y-130480472D01*
X128363911Y-130619826D01*
X128372674Y-130625848D01*
X128399711Y-130641238D01*
X128449018Y-130692320D01*
X128462880Y-130761951D01*
X128436897Y-130828022D01*
X128407747Y-130855261D01*
X128376384Y-130876376D01*
X128285681Y-130937441D01*
X128281824Y-130941120D01*
X128281822Y-130941122D01*
X128251711Y-130969847D01*
X128118865Y-131096576D01*
X127981246Y-131281542D01*
X127876760Y-131487051D01*
X127875178Y-131492145D01*
X127875177Y-131492148D01*
X127813115Y-131692020D01*
X127808393Y-131707227D01*
X127807692Y-131712516D01*
X127792304Y-131828623D01*
X127778102Y-131935774D01*
X127786751Y-132166158D01*
X127834093Y-132391791D01*
X127918776Y-132606221D01*
X128038377Y-132803317D01*
X128041874Y-132807347D01*
X128128438Y-132907103D01*
X128189477Y-132977445D01*
X128193608Y-132980832D01*
X128363627Y-133120240D01*
X128363633Y-133120244D01*
X128367755Y-133123624D01*
X128399250Y-133141552D01*
X128448555Y-133192632D01*
X128462417Y-133262262D01*
X128436434Y-133328333D01*
X128407284Y-133355573D01*
X128285681Y-133437441D01*
X128281824Y-133441120D01*
X128281822Y-133441122D01*
X128212464Y-133507287D01*
X128118865Y-133596576D01*
X127981246Y-133781542D01*
X127978830Y-133786293D01*
X127978828Y-133786297D01*
X127947336Y-133848238D01*
X127876760Y-133987051D01*
X127875178Y-133992145D01*
X127875177Y-133992148D01*
X127855330Y-134056067D01*
X127808393Y-134207227D01*
X127807692Y-134212516D01*
X127805187Y-134231420D01*
X127778102Y-134435774D01*
X127786751Y-134666158D01*
X127834093Y-134891791D01*
X127836051Y-134896750D01*
X127836052Y-134896752D01*
X127916726Y-135101029D01*
X127918776Y-135106221D01*
X128038377Y-135303317D01*
X128189477Y-135477445D01*
X128225120Y-135506670D01*
X128265114Y-135565329D01*
X128267046Y-135636299D01*
X128230302Y-135697048D01*
X128211532Y-135711248D01*
X128119760Y-135768039D01*
X128065652Y-135801522D01*
X127940695Y-135926697D01*
X127936855Y-135932927D01*
X127936854Y-135932928D01*
X127896929Y-135997699D01*
X127847885Y-136077262D01*
X127845581Y-136084209D01*
X127806763Y-136201243D01*
X127792203Y-136245139D01*
X127781500Y-136349600D01*
X127781500Y-137650400D01*
X127781837Y-137653646D01*
X127781837Y-137653650D01*
X127789006Y-137722740D01*
X127792474Y-137756166D01*
X127848450Y-137923946D01*
X127941522Y-138074348D01*
X128066697Y-138199305D01*
X128072927Y-138203145D01*
X128072928Y-138203146D01*
X128210090Y-138287694D01*
X128217262Y-138292115D01*
X128293154Y-138317287D01*
X128378611Y-138345632D01*
X128378613Y-138345632D01*
X128385139Y-138347797D01*
X128391975Y-138348497D01*
X128391978Y-138348498D01*
X128435031Y-138352909D01*
X128489600Y-138358500D01*
X130590400Y-138358500D01*
X130593646Y-138358163D01*
X130593650Y-138358163D01*
X130689308Y-138348238D01*
X130689312Y-138348237D01*
X130696166Y-138347526D01*
X130702702Y-138345345D01*
X130702704Y-138345345D01*
X130834806Y-138301272D01*
X130863946Y-138291550D01*
X131014348Y-138198478D01*
X131139305Y-138073303D01*
X131143146Y-138067072D01*
X131147683Y-138061327D01*
X131149013Y-138062377D01*
X131195107Y-138020892D01*
X131249597Y-138008500D01*
X133739260Y-138008500D01*
X133811531Y-138031287D01*
X133963251Y-138137523D01*
X133968233Y-138139846D01*
X133968238Y-138139849D01*
X134165775Y-138231961D01*
X134170757Y-138234284D01*
X134176065Y-138235706D01*
X134176067Y-138235707D01*
X134386598Y-138292119D01*
X134386600Y-138292119D01*
X134391913Y-138293543D01*
X134620000Y-138313498D01*
X134848087Y-138293543D01*
X134853400Y-138292119D01*
X134853402Y-138292119D01*
X135063933Y-138235707D01*
X135063935Y-138235706D01*
X135069243Y-138234284D01*
X135074225Y-138231961D01*
X135271762Y-138139849D01*
X135271767Y-138139846D01*
X135276749Y-138137523D01*
X135420216Y-138037066D01*
X135459789Y-138009357D01*
X135459792Y-138009355D01*
X135464300Y-138006198D01*
X135626198Y-137844300D01*
X135757523Y-137656749D01*
X135759846Y-137651767D01*
X135759849Y-137651762D01*
X135851961Y-137454225D01*
X135851961Y-137454224D01*
X135854284Y-137449243D01*
X135913543Y-137228087D01*
X135933498Y-137000000D01*
X135913543Y-136771913D01*
X135871077Y-136613428D01*
X135855707Y-136556067D01*
X135855706Y-136556065D01*
X135854284Y-136550757D01*
X135783400Y-136398744D01*
X135759849Y-136348238D01*
X135759846Y-136348233D01*
X135757523Y-136343251D01*
X135626198Y-136155700D01*
X135464300Y-135993802D01*
X135459792Y-135990645D01*
X135459789Y-135990643D01*
X135366972Y-135925652D01*
X135276749Y-135862477D01*
X135271767Y-135860154D01*
X135271762Y-135860151D01*
X135074225Y-135768039D01*
X135074224Y-135768039D01*
X135069243Y-135765716D01*
X135063935Y-135764294D01*
X135063933Y-135764293D01*
X135033755Y-135756207D01*
X134973132Y-135719255D01*
X134942111Y-135655395D01*
X134950539Y-135584900D01*
X134995742Y-135530153D01*
X135066366Y-135508500D01*
X137053634Y-135508500D01*
X137121755Y-135528502D01*
X137168248Y-135582158D01*
X137178352Y-135652432D01*
X137148858Y-135717012D01*
X137086245Y-135756207D01*
X137056067Y-135764293D01*
X137056065Y-135764294D01*
X137050757Y-135765716D01*
X137045776Y-135768039D01*
X137045775Y-135768039D01*
X136848238Y-135860151D01*
X136848233Y-135860154D01*
X136843251Y-135862477D01*
X136753028Y-135925652D01*
X136660211Y-135990643D01*
X136660208Y-135990645D01*
X136655700Y-135993802D01*
X136493802Y-136155700D01*
X136362477Y-136343251D01*
X136360154Y-136348233D01*
X136360151Y-136348238D01*
X136336600Y-136398744D01*
X136265716Y-136550757D01*
X136264294Y-136556065D01*
X136264293Y-136556067D01*
X136248923Y-136613428D01*
X136206457Y-136771913D01*
X136186502Y-137000000D01*
X136206457Y-137228087D01*
X136265716Y-137449243D01*
X136268039Y-137454224D01*
X136268039Y-137454225D01*
X136360151Y-137651762D01*
X136360154Y-137651767D01*
X136362477Y-137656749D01*
X136493802Y-137844300D01*
X136655700Y-138006198D01*
X136660208Y-138009355D01*
X136660211Y-138009357D01*
X136699784Y-138037066D01*
X136843251Y-138137523D01*
X136848233Y-138139846D01*
X136848238Y-138139849D01*
X137045775Y-138231961D01*
X137050757Y-138234284D01*
X137056065Y-138235706D01*
X137056067Y-138235707D01*
X137266598Y-138292119D01*
X137266600Y-138292119D01*
X137271913Y-138293543D01*
X137500000Y-138313498D01*
X137728087Y-138293543D01*
X137733400Y-138292119D01*
X137733402Y-138292119D01*
X137943933Y-138235707D01*
X137943935Y-138235706D01*
X137949243Y-138234284D01*
X137954225Y-138231961D01*
X138151762Y-138139849D01*
X138151767Y-138139846D01*
X138156749Y-138137523D01*
X138308469Y-138031287D01*
X138380740Y-138008500D01*
X149772299Y-138008500D01*
X149840420Y-138028502D01*
X149852190Y-138037066D01*
X149953627Y-138120240D01*
X149953633Y-138120244D01*
X149957755Y-138123624D01*
X149962391Y-138126263D01*
X149962394Y-138126265D01*
X150096025Y-138202332D01*
X150158114Y-138237675D01*
X150374825Y-138316337D01*
X150380074Y-138317286D01*
X150380077Y-138317287D01*
X150597608Y-138356623D01*
X150597615Y-138356624D01*
X150601692Y-138357361D01*
X150618889Y-138358172D01*
X150624356Y-138358430D01*
X150624363Y-138358430D01*
X150625844Y-138358500D01*
X151587890Y-138358500D01*
X151654809Y-138352822D01*
X151754409Y-138344371D01*
X151754413Y-138344370D01*
X151759720Y-138343920D01*
X151764875Y-138342582D01*
X151764881Y-138342581D01*
X151977703Y-138287343D01*
X151977707Y-138287342D01*
X151982872Y-138286001D01*
X151987738Y-138283809D01*
X151987741Y-138283808D01*
X152188202Y-138193507D01*
X152193075Y-138191312D01*
X152384319Y-138062559D01*
X152411043Y-138037066D01*
X152457536Y-137992713D01*
X152551135Y-137903424D01*
X152688754Y-137718458D01*
X152717837Y-137661257D01*
X152790822Y-137517704D01*
X152793240Y-137512949D01*
X152811475Y-137454225D01*
X152860024Y-137297871D01*
X152861607Y-137292773D01*
X152891898Y-137064226D01*
X152883249Y-136833842D01*
X152835907Y-136608209D01*
X152813218Y-136550757D01*
X152753185Y-136398744D01*
X152753184Y-136398742D01*
X152751224Y-136393779D01*
X152724416Y-136349600D01*
X152634390Y-136201243D01*
X152631623Y-136196683D01*
X152592678Y-136151803D01*
X152484023Y-136026588D01*
X152484021Y-136026586D01*
X152480523Y-136022555D01*
X152414858Y-135968713D01*
X152306373Y-135879760D01*
X152306367Y-135879756D01*
X152302245Y-135876376D01*
X152297602Y-135873733D01*
X152270265Y-135858171D01*
X152220959Y-135807088D01*
X152207098Y-135737458D01*
X152233082Y-135671387D01*
X152262232Y-135644149D01*
X152379578Y-135565148D01*
X152387870Y-135558481D01*
X152546900Y-135406772D01*
X152553941Y-135398814D01*
X152685141Y-135222475D01*
X152690745Y-135213438D01*
X152790357Y-135017516D01*
X152794357Y-135007665D01*
X152859534Y-134797760D01*
X152861817Y-134787376D01*
X152863861Y-134771957D01*
X152861665Y-134757793D01*
X152848478Y-134754000D01*
X149413808Y-134754000D01*
X149400277Y-134757973D01*
X149398752Y-134768580D01*
X149423477Y-134886421D01*
X149426537Y-134896617D01*
X149507263Y-135101029D01*
X149511994Y-135110561D01*
X149626016Y-135298462D01*
X149632280Y-135307052D01*
X149776327Y-135473052D01*
X149783958Y-135480472D01*
X149953911Y-135619826D01*
X149962674Y-135625848D01*
X149989711Y-135641238D01*
X150039018Y-135692320D01*
X150052880Y-135761951D01*
X150026897Y-135828022D01*
X149997747Y-135855261D01*
X149880111Y-135934458D01*
X149880107Y-135934461D01*
X149875681Y-135937441D01*
X149871816Y-135941128D01*
X149855525Y-135956669D01*
X149792429Y-135989217D01*
X149768553Y-135991500D01*
X140446366Y-135991500D01*
X140378245Y-135971498D01*
X140331752Y-135917842D01*
X140321648Y-135847568D01*
X140351142Y-135782988D01*
X140413755Y-135743793D01*
X140443933Y-135735707D01*
X140443935Y-135735706D01*
X140449243Y-135734284D01*
X140481473Y-135719255D01*
X140651762Y-135639849D01*
X140651767Y-135639846D01*
X140656749Y-135637523D01*
X140776329Y-135553792D01*
X140839789Y-135509357D01*
X140839792Y-135509355D01*
X140844300Y-135506198D01*
X141006198Y-135344300D01*
X141032280Y-135307052D01*
X141134366Y-135161257D01*
X141137523Y-135156749D01*
X141139846Y-135151767D01*
X141139849Y-135151762D01*
X141231961Y-134954225D01*
X141231961Y-134954224D01*
X141234284Y-134949243D01*
X141249679Y-134891791D01*
X141292119Y-134733402D01*
X141292119Y-134733400D01*
X141293543Y-134728087D01*
X141313498Y-134500000D01*
X141293543Y-134271913D01*
X141281788Y-134228043D01*
X141235707Y-134056067D01*
X141235706Y-134056065D01*
X141234284Y-134050757D01*
X141207042Y-133992335D01*
X141139849Y-133848238D01*
X141139846Y-133848233D01*
X141137523Y-133843251D01*
X141038294Y-133701538D01*
X141009357Y-133660211D01*
X141009355Y-133660208D01*
X141006198Y-133655700D01*
X140844300Y-133493802D01*
X140839792Y-133490645D01*
X140839789Y-133490643D01*
X140760111Y-133434852D01*
X140656749Y-133362477D01*
X140651767Y-133360154D01*
X140651762Y-133360151D01*
X140454225Y-133268039D01*
X140454224Y-133268039D01*
X140449243Y-133265716D01*
X140443935Y-133264294D01*
X140443933Y-133264293D01*
X140413755Y-133256207D01*
X140353132Y-133219255D01*
X140322111Y-133155395D01*
X140330539Y-133084900D01*
X140375742Y-133030153D01*
X140446366Y-133008500D01*
X141619260Y-133008500D01*
X141691531Y-133031287D01*
X141843251Y-133137523D01*
X141848233Y-133139846D01*
X141848238Y-133139849D01*
X142018527Y-133219255D01*
X142050757Y-133234284D01*
X142056065Y-133235706D01*
X142056067Y-133235707D01*
X142266598Y-133292119D01*
X142266600Y-133292119D01*
X142271913Y-133293543D01*
X142500000Y-133313498D01*
X142728087Y-133293543D01*
X142733400Y-133292119D01*
X142733402Y-133292119D01*
X142943933Y-133235707D01*
X142943935Y-133235706D01*
X142949243Y-133234284D01*
X142981473Y-133219255D01*
X143151762Y-133139849D01*
X143151767Y-133139846D01*
X143156749Y-133137523D01*
X143308469Y-133031287D01*
X143380740Y-133008500D01*
X149772299Y-133008500D01*
X149840420Y-133028502D01*
X149852190Y-133037066D01*
X149953627Y-133120240D01*
X149953633Y-133120244D01*
X149957755Y-133123624D01*
X149962398Y-133126267D01*
X149989735Y-133141829D01*
X150039041Y-133192912D01*
X150052902Y-133262542D01*
X150026918Y-133328613D01*
X149997768Y-133355851D01*
X149880422Y-133434852D01*
X149872130Y-133441519D01*
X149713100Y-133593228D01*
X149706059Y-133601186D01*
X149574859Y-133777525D01*
X149569255Y-133786562D01*
X149469643Y-133982484D01*
X149465643Y-133992335D01*
X149400466Y-134202240D01*
X149398183Y-134212624D01*
X149396139Y-134228043D01*
X149398335Y-134242207D01*
X149411522Y-134246000D01*
X152846192Y-134246000D01*
X152859723Y-134242027D01*
X152861248Y-134231420D01*
X152836523Y-134113579D01*
X152833463Y-134103383D01*
X152752737Y-133898971D01*
X152748006Y-133889439D01*
X152633984Y-133701538D01*
X152627720Y-133692948D01*
X152483673Y-133526948D01*
X152476042Y-133519528D01*
X152306089Y-133380174D01*
X152297326Y-133374152D01*
X152270289Y-133358762D01*
X152220982Y-133307680D01*
X152207120Y-133238049D01*
X152233103Y-133171978D01*
X152262253Y-133144739D01*
X152315532Y-133108869D01*
X152384319Y-133062559D01*
X152411043Y-133037066D01*
X152547278Y-132907103D01*
X152551135Y-132903424D01*
X152688754Y-132718458D01*
X152793240Y-132512949D01*
X152829321Y-132396752D01*
X152860024Y-132297871D01*
X152861607Y-132292773D01*
X152862308Y-132287484D01*
X152891198Y-132069511D01*
X152891198Y-132069506D01*
X152891898Y-132064226D01*
X152883249Y-131833842D01*
X152835907Y-131608209D01*
X152751224Y-131393779D01*
X152631623Y-131196683D01*
X152544755Y-131096576D01*
X152484023Y-131026588D01*
X152484021Y-131026586D01*
X152480523Y-131022555D01*
X152407810Y-130962934D01*
X152306373Y-130879760D01*
X152306367Y-130879756D01*
X152302245Y-130876376D01*
X152270750Y-130858448D01*
X152221445Y-130807368D01*
X152207583Y-130737738D01*
X152233566Y-130671667D01*
X152262716Y-130644427D01*
X152299257Y-130619826D01*
X152384319Y-130562559D01*
X152411043Y-130537066D01*
X152547278Y-130407103D01*
X152551135Y-130403424D01*
X152688754Y-130218458D01*
X152691307Y-130213438D01*
X152790822Y-130017704D01*
X152793240Y-130012949D01*
X152811475Y-129954225D01*
X152860024Y-129797871D01*
X152861607Y-129792773D01*
X152864366Y-129771957D01*
X152891198Y-129569511D01*
X152891198Y-129569506D01*
X152891898Y-129564226D01*
X152883249Y-129333842D01*
X152835907Y-129108209D01*
X152813218Y-129050757D01*
X152753185Y-128898744D01*
X152753184Y-128898742D01*
X152751224Y-128893779D01*
X152631623Y-128696683D01*
X152480523Y-128522555D01*
X152444880Y-128493330D01*
X152404886Y-128434671D01*
X152402954Y-128363701D01*
X152439698Y-128302952D01*
X152458468Y-128288752D01*
X152598120Y-128202332D01*
X152604348Y-128198478D01*
X152729305Y-128073303D01*
X152735928Y-128062559D01*
X152818275Y-127928968D01*
X152818276Y-127928966D01*
X152822115Y-127922738D01*
X152861725Y-127803317D01*
X152875632Y-127761389D01*
X152875632Y-127761387D01*
X152877797Y-127754861D01*
X152888500Y-127650400D01*
X152888500Y-126349600D01*
X152887374Y-126338743D01*
X152878238Y-126250692D01*
X152878237Y-126250688D01*
X152877526Y-126243834D01*
X152862439Y-126198611D01*
X152823868Y-126083002D01*
X152821550Y-126076054D01*
X152728478Y-125925652D01*
X152603303Y-125800695D01*
X152574577Y-125782988D01*
X152458968Y-125711725D01*
X152458966Y-125711724D01*
X152452738Y-125707885D01*
X152359658Y-125677012D01*
X152291389Y-125654368D01*
X152291387Y-125654368D01*
X152284861Y-125652203D01*
X152278025Y-125651503D01*
X152278022Y-125651502D01*
X152234969Y-125647091D01*
X152180400Y-125641500D01*
X150079600Y-125641500D01*
X150076356Y-125641837D01*
X150076348Y-125641837D01*
X150023881Y-125647281D01*
X149954060Y-125634416D01*
X149921783Y-125611049D01*
X148679618Y-124368884D01*
X148645592Y-124306572D01*
X148643192Y-124290770D01*
X148638522Y-124237392D01*
X148638043Y-124231913D01*
X148578784Y-124010757D01*
X148576461Y-124005775D01*
X148484349Y-123808238D01*
X148484346Y-123808233D01*
X148482023Y-123803251D01*
X148350698Y-123615700D01*
X148346811Y-123611813D01*
X148318345Y-123546775D01*
X148329561Y-123476670D01*
X148376897Y-123423758D01*
X148445326Y-123404837D01*
X148475942Y-123409114D01*
X148591549Y-123440091D01*
X148591551Y-123440091D01*
X148596864Y-123441515D01*
X148824951Y-123461470D01*
X149053038Y-123441515D01*
X149058351Y-123440091D01*
X149058353Y-123440091D01*
X149268884Y-123383679D01*
X149268886Y-123383678D01*
X149274194Y-123382256D01*
X149372585Y-123336376D01*
X149476713Y-123287821D01*
X149476718Y-123287818D01*
X149481700Y-123285495D01*
X149607120Y-123197675D01*
X149664740Y-123157329D01*
X149664743Y-123157327D01*
X149669251Y-123154170D01*
X149831149Y-122992272D01*
X149847795Y-122968500D01*
X149959317Y-122809229D01*
X149962474Y-122804721D01*
X149964797Y-122799739D01*
X149964800Y-122799734D01*
X150056912Y-122602197D01*
X150056912Y-122602196D01*
X150059235Y-122597215D01*
X150066318Y-122570783D01*
X150117070Y-122381374D01*
X150117070Y-122381372D01*
X150118494Y-122376059D01*
X150138449Y-122147972D01*
X150118494Y-121919885D01*
X150117070Y-121914570D01*
X150116914Y-121913686D01*
X150124783Y-121843127D01*
X150169550Y-121788022D01*
X150237001Y-121765868D01*
X150283991Y-121773366D01*
X150374825Y-121806337D01*
X150380074Y-121807286D01*
X150380077Y-121807287D01*
X150597608Y-121846623D01*
X150597615Y-121846624D01*
X150601692Y-121847361D01*
X150619414Y-121848197D01*
X150624356Y-121848430D01*
X150624363Y-121848430D01*
X150625844Y-121848500D01*
X151587890Y-121848500D01*
X151654809Y-121842822D01*
X151754409Y-121834371D01*
X151754413Y-121834370D01*
X151759720Y-121833920D01*
X151764875Y-121832582D01*
X151764881Y-121832581D01*
X151977703Y-121777343D01*
X151977707Y-121777342D01*
X151982872Y-121776001D01*
X151987738Y-121773809D01*
X151987741Y-121773808D01*
X152134629Y-121707640D01*
X152193075Y-121681312D01*
X152384319Y-121552559D01*
X152402830Y-121534901D01*
X152476821Y-121464316D01*
X152551135Y-121393424D01*
X152688754Y-121208458D01*
X152693440Y-121199243D01*
X152746981Y-121093933D01*
X152793240Y-121002949D01*
X152809216Y-120951500D01*
X152860024Y-120787871D01*
X152861607Y-120782773D01*
X152876024Y-120673999D01*
X152891198Y-120559511D01*
X152891198Y-120559506D01*
X152891898Y-120554226D01*
X152883249Y-120323842D01*
X152879520Y-120306067D01*
X152837002Y-120103428D01*
X152835907Y-120098209D01*
X152796964Y-119999600D01*
X152753185Y-119888744D01*
X152753184Y-119888742D01*
X152751224Y-119883779D01*
X152703845Y-119805700D01*
X152634390Y-119691243D01*
X152631623Y-119686683D01*
X152544755Y-119586576D01*
X152484023Y-119516588D01*
X152484021Y-119516586D01*
X152480523Y-119512555D01*
X152406088Y-119451522D01*
X152306373Y-119369760D01*
X152306367Y-119369756D01*
X152302245Y-119366376D01*
X152297602Y-119363733D01*
X152270265Y-119348171D01*
X152220959Y-119297088D01*
X152207098Y-119227458D01*
X152233082Y-119161387D01*
X152262232Y-119134149D01*
X152379578Y-119055148D01*
X152387870Y-119048481D01*
X152546900Y-118896772D01*
X152553941Y-118888814D01*
X152685141Y-118712475D01*
X152690745Y-118703438D01*
X152790357Y-118507516D01*
X152794357Y-118497665D01*
X152859534Y-118287760D01*
X152861817Y-118277376D01*
X152863861Y-118261957D01*
X152861665Y-118247793D01*
X152848478Y-118244000D01*
X149413808Y-118244000D01*
X149400277Y-118247973D01*
X149398752Y-118258580D01*
X149423477Y-118376421D01*
X149426537Y-118386617D01*
X149507263Y-118591029D01*
X149511994Y-118600561D01*
X149626016Y-118788462D01*
X149632280Y-118797052D01*
X149776327Y-118963052D01*
X149783958Y-118970472D01*
X149953911Y-119109826D01*
X149962674Y-119115848D01*
X149989711Y-119131238D01*
X150039018Y-119182320D01*
X150052880Y-119251951D01*
X150026897Y-119318022D01*
X149997747Y-119345261D01*
X149995093Y-119347048D01*
X149875681Y-119427441D01*
X149871824Y-119431120D01*
X149871822Y-119431122D01*
X149818529Y-119481961D01*
X149708865Y-119586576D01*
X149705681Y-119590855D01*
X149702146Y-119594851D01*
X149701294Y-119594097D01*
X149649077Y-119633426D01*
X149604698Y-119641500D01*
X149362564Y-119641500D01*
X149294443Y-119621498D01*
X149273469Y-119604595D01*
X147744495Y-118075621D01*
X147735393Y-118065478D01*
X147715537Y-118040782D01*
X147711672Y-118035975D01*
X147673218Y-118003708D01*
X147669571Y-118000528D01*
X147667759Y-117998885D01*
X147665565Y-117996691D01*
X147632291Y-117969358D01*
X147631493Y-117968696D01*
X147560166Y-117908846D01*
X147555496Y-117906278D01*
X147551379Y-117902897D01*
X147469554Y-117859023D01*
X147468395Y-117858394D01*
X147392259Y-117816538D01*
X147392251Y-117816535D01*
X147386853Y-117813567D01*
X147381771Y-117811955D01*
X147377077Y-117809438D01*
X147288109Y-117782238D01*
X147287081Y-117781918D01*
X147198334Y-117753765D01*
X147193038Y-117753171D01*
X147187942Y-117751613D01*
X147095383Y-117742210D01*
X147094247Y-117742089D01*
X147060632Y-117738319D01*
X147047910Y-117736892D01*
X147047906Y-117736892D01*
X147044413Y-117736500D01*
X147040886Y-117736500D01*
X147039901Y-117736445D01*
X147034221Y-117735998D01*
X147004815Y-117733011D01*
X146997303Y-117732248D01*
X146997301Y-117732248D01*
X146991178Y-117731626D01*
X146948899Y-117735623D01*
X146945531Y-117735941D01*
X146933673Y-117736500D01*
X144206842Y-117736500D01*
X144193235Y-117735763D01*
X144161737Y-117732341D01*
X144161732Y-117732341D01*
X144155611Y-117731676D01*
X144137611Y-117733251D01*
X144105609Y-117736050D01*
X144100784Y-117736379D01*
X144098313Y-117736500D01*
X144095231Y-117736500D01*
X144072763Y-117738703D01*
X144052489Y-117740691D01*
X144051174Y-117740813D01*
X144018913Y-117743636D01*
X143958587Y-117748913D01*
X143953468Y-117750400D01*
X143948167Y-117750920D01*
X143942262Y-117752703D01*
X143942261Y-117752703D01*
X143922907Y-117758546D01*
X143859194Y-117777782D01*
X143858054Y-117778120D01*
X143768663Y-117804091D01*
X143763929Y-117806545D01*
X143758831Y-117808084D01*
X143753387Y-117810978D01*
X143753386Y-117810979D01*
X143676831Y-117851684D01*
X143675663Y-117852298D01*
X143655951Y-117862516D01*
X143593074Y-117895108D01*
X143588911Y-117898431D01*
X143584204Y-117900934D01*
X143512082Y-117959755D01*
X143511226Y-117960446D01*
X143472027Y-117991738D01*
X143469523Y-117994242D01*
X143468805Y-117994884D01*
X143464472Y-117998585D01*
X143430938Y-118025935D01*
X143427011Y-118030682D01*
X143427009Y-118030684D01*
X143401713Y-118061262D01*
X143393723Y-118070042D01*
X142562004Y-118901762D01*
X141759171Y-119704595D01*
X141696859Y-119738620D01*
X141670076Y-119741500D01*
X140446366Y-119741500D01*
X140378245Y-119721498D01*
X140331752Y-119667842D01*
X140321648Y-119597568D01*
X140351142Y-119532988D01*
X140413755Y-119493793D01*
X140443933Y-119485707D01*
X140443935Y-119485706D01*
X140449243Y-119484284D01*
X140481473Y-119469255D01*
X140651762Y-119389849D01*
X140651767Y-119389846D01*
X140656749Y-119387523D01*
X140778598Y-119302203D01*
X140839789Y-119259357D01*
X140839792Y-119259355D01*
X140844300Y-119256198D01*
X141006198Y-119094300D01*
X141137523Y-118906749D01*
X141139846Y-118901767D01*
X141139849Y-118901762D01*
X141231961Y-118704225D01*
X141231961Y-118704224D01*
X141234284Y-118699243D01*
X141276474Y-118541791D01*
X141292119Y-118483402D01*
X141292119Y-118483400D01*
X141293543Y-118478087D01*
X141313498Y-118250000D01*
X141293543Y-118021913D01*
X141287813Y-118000528D01*
X141235707Y-117806067D01*
X141235706Y-117806065D01*
X141234284Y-117800757D01*
X141231961Y-117795775D01*
X141139849Y-117598238D01*
X141139846Y-117598233D01*
X141137523Y-117593251D01*
X141052961Y-117472484D01*
X141009357Y-117410211D01*
X141009355Y-117410208D01*
X141006198Y-117405700D01*
X140844300Y-117243802D01*
X140839792Y-117240645D01*
X140839789Y-117240643D01*
X140737712Y-117169168D01*
X140656749Y-117112477D01*
X140651767Y-117110154D01*
X140651762Y-117110151D01*
X140454225Y-117018039D01*
X140454224Y-117018039D01*
X140449243Y-117015716D01*
X140443935Y-117014294D01*
X140443933Y-117014293D01*
X140411930Y-117005718D01*
X140351307Y-116968766D01*
X140320286Y-116904906D01*
X140328714Y-116834411D01*
X140373917Y-116779664D01*
X140444541Y-116758011D01*
X141923590Y-116758011D01*
X141976840Y-116769816D01*
X142036595Y-116797680D01*
X142050757Y-116804284D01*
X142056065Y-116805706D01*
X142056067Y-116805707D01*
X142266598Y-116862119D01*
X142266600Y-116862119D01*
X142271913Y-116863543D01*
X142500000Y-116883498D01*
X142728087Y-116863543D01*
X142733400Y-116862119D01*
X142733402Y-116862119D01*
X142943933Y-116805707D01*
X142943935Y-116805706D01*
X142949243Y-116804284D01*
X142954225Y-116801961D01*
X143151762Y-116709849D01*
X143151767Y-116709846D01*
X143156749Y-116707523D01*
X143308469Y-116601287D01*
X143380740Y-116578500D01*
X149869866Y-116578500D01*
X149937987Y-116598502D01*
X149949756Y-116607065D01*
X149957755Y-116613624D01*
X149962398Y-116616267D01*
X149989735Y-116631829D01*
X150039041Y-116682912D01*
X150052902Y-116752542D01*
X150026918Y-116818613D01*
X149997768Y-116845851D01*
X149880422Y-116924852D01*
X149872130Y-116931519D01*
X149713100Y-117083228D01*
X149706059Y-117091186D01*
X149574859Y-117267525D01*
X149569255Y-117276562D01*
X149469643Y-117472484D01*
X149465643Y-117482335D01*
X149400466Y-117692240D01*
X149398183Y-117702624D01*
X149396139Y-117718043D01*
X149398335Y-117732207D01*
X149411522Y-117736000D01*
X152846192Y-117736000D01*
X152859723Y-117732027D01*
X152861248Y-117721420D01*
X152836523Y-117603579D01*
X152833463Y-117593383D01*
X152752737Y-117388971D01*
X152748006Y-117379439D01*
X152633984Y-117191538D01*
X152627720Y-117182948D01*
X152483673Y-117016948D01*
X152476042Y-117009528D01*
X152306089Y-116870174D01*
X152297326Y-116864152D01*
X152270289Y-116848762D01*
X152220982Y-116797680D01*
X152207120Y-116728049D01*
X152233103Y-116661978D01*
X152262253Y-116634739D01*
X152345787Y-116578500D01*
X152384319Y-116552559D01*
X152551135Y-116393424D01*
X152688754Y-116208458D01*
X152793240Y-116002949D01*
X152861607Y-115782773D01*
X152862308Y-115777484D01*
X152891198Y-115559511D01*
X152891198Y-115559506D01*
X152891898Y-115554226D01*
X152883249Y-115323842D01*
X152835907Y-115098209D01*
X152833948Y-115093248D01*
X152753185Y-114888744D01*
X152753184Y-114888742D01*
X152751224Y-114883779D01*
X152631623Y-114686683D01*
X152548700Y-114591122D01*
X152484023Y-114516588D01*
X152484021Y-114516586D01*
X152480523Y-114512555D01*
X152412876Y-114457088D01*
X152306373Y-114369760D01*
X152306367Y-114369756D01*
X152302245Y-114366376D01*
X152270750Y-114348448D01*
X152221445Y-114297368D01*
X152207583Y-114227738D01*
X152233566Y-114161667D01*
X152262716Y-114134427D01*
X152300579Y-114108936D01*
X152384319Y-114052559D01*
X152398159Y-114039357D01*
X152547278Y-113897103D01*
X152551135Y-113893424D01*
X152688754Y-113708458D01*
X152699792Y-113686749D01*
X152790822Y-113507704D01*
X152793240Y-113502949D01*
X152819438Y-113418580D01*
X152860024Y-113287871D01*
X152861607Y-113282773D01*
X152870489Y-113215757D01*
X152891198Y-113059511D01*
X152891198Y-113059506D01*
X152891898Y-113054226D01*
X152883249Y-112823842D01*
X152835907Y-112598209D01*
X152829015Y-112580757D01*
X152753185Y-112388744D01*
X152753184Y-112388742D01*
X152751224Y-112383779D01*
X152744836Y-112373251D01*
X152634390Y-112191243D01*
X152631623Y-112186683D01*
X152614468Y-112166913D01*
X152484023Y-112016588D01*
X152484021Y-112016586D01*
X152480523Y-112012555D01*
X152444880Y-111983330D01*
X152404886Y-111924671D01*
X152402954Y-111853701D01*
X152439698Y-111792952D01*
X152458468Y-111778752D01*
X152598120Y-111692332D01*
X152604348Y-111688478D01*
X152729305Y-111563303D01*
X152770669Y-111496198D01*
X152818275Y-111418968D01*
X152818276Y-111418966D01*
X152822115Y-111412738D01*
X152877797Y-111244861D01*
X152888500Y-111140400D01*
X152888500Y-109839600D01*
X152887374Y-109828743D01*
X152878238Y-109740692D01*
X152878237Y-109740688D01*
X152877526Y-109733834D01*
X152821550Y-109566054D01*
X152728478Y-109415652D01*
X152603303Y-109290695D01*
X152597072Y-109286854D01*
X152458968Y-109201725D01*
X152458966Y-109201724D01*
X152452738Y-109197885D01*
X152341632Y-109161033D01*
X152291389Y-109144368D01*
X152291387Y-109144368D01*
X152284861Y-109142203D01*
X152278025Y-109141503D01*
X152278022Y-109141502D01*
X152234969Y-109137091D01*
X152180400Y-109131500D01*
X151249925Y-109131500D01*
X151181804Y-109111498D01*
X151160830Y-109094595D01*
X149386855Y-107320621D01*
X149377753Y-107310478D01*
X149357897Y-107285782D01*
X149354032Y-107280975D01*
X149315578Y-107248708D01*
X149311931Y-107245528D01*
X149310119Y-107243885D01*
X149307925Y-107241691D01*
X149274651Y-107214358D01*
X149273853Y-107213696D01*
X149202526Y-107153846D01*
X149197856Y-107151278D01*
X149193739Y-107147897D01*
X149123454Y-107110211D01*
X149111914Y-107104023D01*
X149110755Y-107103394D01*
X149034619Y-107061538D01*
X149034611Y-107061535D01*
X149029213Y-107058567D01*
X149024131Y-107056955D01*
X149019437Y-107054438D01*
X148930469Y-107027238D01*
X148929441Y-107026918D01*
X148840694Y-106998765D01*
X148835398Y-106998171D01*
X148830302Y-106996613D01*
X148737743Y-106987210D01*
X148736607Y-106987089D01*
X148702992Y-106983319D01*
X148690270Y-106981892D01*
X148690266Y-106981892D01*
X148686773Y-106981500D01*
X148683246Y-106981500D01*
X148682261Y-106981445D01*
X148676581Y-106980998D01*
X148647175Y-106978011D01*
X148639663Y-106977248D01*
X148639661Y-106977248D01*
X148633538Y-106976626D01*
X148591259Y-106980623D01*
X148587891Y-106980941D01*
X148576033Y-106981500D01*
X146497701Y-106981500D01*
X146429580Y-106961498D01*
X146417810Y-106952934D01*
X146316373Y-106869760D01*
X146316367Y-106869756D01*
X146312245Y-106866376D01*
X146280750Y-106848448D01*
X146231445Y-106797368D01*
X146217583Y-106727738D01*
X146243566Y-106661667D01*
X146272716Y-106634427D01*
X146317712Y-106604134D01*
X146394319Y-106552559D01*
X146402904Y-106544370D01*
X146436515Y-106512306D01*
X146499612Y-106479759D01*
X146570289Y-106486490D01*
X146595751Y-106500259D01*
X146663251Y-106547523D01*
X146668233Y-106549846D01*
X146668238Y-106549849D01*
X146865775Y-106641961D01*
X146870757Y-106644284D01*
X146876065Y-106645706D01*
X146876067Y-106645707D01*
X147086598Y-106702119D01*
X147086600Y-106702119D01*
X147091913Y-106703543D01*
X147320000Y-106723498D01*
X147548087Y-106703543D01*
X147553400Y-106702119D01*
X147553402Y-106702119D01*
X147763933Y-106645707D01*
X147763935Y-106645706D01*
X147769243Y-106644284D01*
X147774225Y-106641961D01*
X147971762Y-106549849D01*
X147971767Y-106549846D01*
X147976749Y-106547523D01*
X148128798Y-106441057D01*
X148159789Y-106419357D01*
X148159792Y-106419355D01*
X148164300Y-106416198D01*
X148326198Y-106254300D01*
X148457523Y-106066749D01*
X148459846Y-106061767D01*
X148459849Y-106061762D01*
X148551961Y-105864225D01*
X148551961Y-105864224D01*
X148554284Y-105859243D01*
X148607303Y-105661377D01*
X148612119Y-105643402D01*
X148612119Y-105643400D01*
X148613543Y-105638087D01*
X148633498Y-105410000D01*
X148613543Y-105181913D01*
X148611291Y-105173507D01*
X148555707Y-104966067D01*
X148555706Y-104966065D01*
X148554284Y-104960757D01*
X148545980Y-104942949D01*
X148459849Y-104758238D01*
X148459846Y-104758233D01*
X148457523Y-104753251D01*
X148326198Y-104565700D01*
X148164300Y-104403802D01*
X148159792Y-104400645D01*
X148159789Y-104400643D01*
X147984452Y-104277871D01*
X147976749Y-104272477D01*
X147971767Y-104270154D01*
X147971762Y-104270151D01*
X147774225Y-104178039D01*
X147774224Y-104178039D01*
X147769243Y-104175716D01*
X147763935Y-104174294D01*
X147763933Y-104174293D01*
X147553402Y-104117881D01*
X147553400Y-104117881D01*
X147548087Y-104116457D01*
X147320000Y-104096502D01*
X147091913Y-104116457D01*
X147086600Y-104117881D01*
X147086598Y-104117881D01*
X146876067Y-104174293D01*
X146876065Y-104174294D01*
X146870757Y-104175716D01*
X146865776Y-104178039D01*
X146865775Y-104178039D01*
X146668238Y-104270151D01*
X146668233Y-104270154D01*
X146663251Y-104272477D01*
X146655548Y-104277871D01*
X146511531Y-104378713D01*
X146439260Y-104401500D01*
X146400134Y-104401500D01*
X146332013Y-104381498D01*
X146320243Y-104372934D01*
X146316372Y-104369760D01*
X146316373Y-104369760D01*
X146312245Y-104366376D01*
X146307609Y-104363737D01*
X146307606Y-104363735D01*
X146116529Y-104254968D01*
X146111886Y-104252325D01*
X145895175Y-104173663D01*
X145889926Y-104172714D01*
X145889923Y-104172713D01*
X145672392Y-104133377D01*
X145672385Y-104133376D01*
X145668308Y-104132639D01*
X145650586Y-104131803D01*
X145645644Y-104131570D01*
X145645637Y-104131570D01*
X145644156Y-104131500D01*
X145232110Y-104131500D01*
X145165191Y-104137178D01*
X145065591Y-104145629D01*
X145065587Y-104145630D01*
X145060280Y-104146080D01*
X145055125Y-104147418D01*
X145055119Y-104147419D01*
X144842297Y-104202657D01*
X144842293Y-104202658D01*
X144837128Y-104203999D01*
X144832262Y-104206191D01*
X144832259Y-104206192D01*
X144723980Y-104254968D01*
X144626925Y-104298688D01*
X144435681Y-104427441D01*
X144268865Y-104586576D01*
X144131246Y-104771542D01*
X144128830Y-104776293D01*
X144128828Y-104776297D01*
X144105477Y-104822226D01*
X144026760Y-104977051D01*
X144025178Y-104982145D01*
X144025177Y-104982148D01*
X143973294Y-105149237D01*
X143958393Y-105197227D01*
X143957692Y-105202516D01*
X143929110Y-105418172D01*
X143928102Y-105425774D01*
X143936751Y-105656158D01*
X143984093Y-105881791D01*
X143986051Y-105886750D01*
X143986052Y-105886752D01*
X144054630Y-106060400D01*
X144068776Y-106096221D01*
X144188377Y-106293317D01*
X144191874Y-106297347D01*
X144316579Y-106441057D01*
X144339477Y-106467445D01*
X144343608Y-106470832D01*
X144513627Y-106610240D01*
X144513633Y-106610244D01*
X144517755Y-106613624D01*
X144549250Y-106631552D01*
X144598555Y-106682632D01*
X144612417Y-106752262D01*
X144586434Y-106818333D01*
X144557284Y-106845573D01*
X144435681Y-106927441D01*
X144431824Y-106931120D01*
X144431822Y-106931122D01*
X144399980Y-106961498D01*
X144268865Y-107086576D01*
X144131246Y-107271542D01*
X144128830Y-107276293D01*
X144128828Y-107276297D01*
X144111450Y-107310478D01*
X144026760Y-107477051D01*
X143958393Y-107697227D01*
X143928102Y-107925774D01*
X143936751Y-108156158D01*
X143984093Y-108381791D01*
X143986051Y-108386750D01*
X143986052Y-108386752D01*
X143992953Y-108404225D01*
X144068776Y-108596221D01*
X144071543Y-108600780D01*
X144071544Y-108600783D01*
X144088338Y-108628458D01*
X144188377Y-108793317D01*
X144191874Y-108797347D01*
X144332459Y-108959357D01*
X144339477Y-108967445D01*
X144375120Y-108996670D01*
X144415114Y-109055329D01*
X144417046Y-109126299D01*
X144380302Y-109187048D01*
X144361532Y-109201248D01*
X144269760Y-109258039D01*
X144215652Y-109291522D01*
X144090695Y-109416697D01*
X144086855Y-109422927D01*
X144086854Y-109422928D01*
X144021002Y-109529760D01*
X143997885Y-109567262D01*
X143942203Y-109735139D01*
X143931500Y-109839600D01*
X143931500Y-111140400D01*
X143942474Y-111246166D01*
X143944655Y-111252702D01*
X143944655Y-111252704D01*
X143970373Y-111329789D01*
X143998450Y-111413946D01*
X144091522Y-111564348D01*
X144216697Y-111689305D01*
X144222927Y-111693145D01*
X144222928Y-111693146D01*
X144264949Y-111719048D01*
X144367262Y-111782115D01*
X144369168Y-111782747D01*
X144420815Y-111828220D01*
X144440278Y-111896496D01*
X144419738Y-111964457D01*
X144365716Y-112010524D01*
X144314282Y-112021500D01*
X140880740Y-112021500D01*
X140808469Y-111998713D01*
X140762231Y-111966337D01*
X140656749Y-111892477D01*
X140651767Y-111890154D01*
X140651762Y-111890151D01*
X140454225Y-111798039D01*
X140454224Y-111798039D01*
X140449243Y-111795716D01*
X140443935Y-111794294D01*
X140443933Y-111794293D01*
X140233402Y-111737881D01*
X140233400Y-111737881D01*
X140228087Y-111736457D01*
X140000000Y-111716502D01*
X139771913Y-111736457D01*
X139766600Y-111737881D01*
X139766598Y-111737881D01*
X139556067Y-111794293D01*
X139556065Y-111794294D01*
X139550757Y-111795716D01*
X139545776Y-111798039D01*
X139545775Y-111798039D01*
X139348238Y-111890151D01*
X139348233Y-111890154D01*
X139343251Y-111892477D01*
X139264182Y-111947842D01*
X139160211Y-112020643D01*
X139160208Y-112020645D01*
X139155700Y-112023802D01*
X138993802Y-112185700D01*
X138990645Y-112190208D01*
X138990643Y-112190211D01*
X138953520Y-112243228D01*
X138862477Y-112373251D01*
X138860154Y-112378233D01*
X138860151Y-112378238D01*
X138768039Y-112575775D01*
X138765716Y-112580757D01*
X138764294Y-112586064D01*
X138716651Y-112763868D01*
X138679699Y-112824490D01*
X138615838Y-112855512D01*
X138545344Y-112847083D01*
X138505849Y-112820351D01*
X138344300Y-112658802D01*
X138339792Y-112655645D01*
X138339789Y-112655643D01*
X138257764Y-112598209D01*
X138156749Y-112527477D01*
X138151767Y-112525154D01*
X138151762Y-112525151D01*
X137954225Y-112433039D01*
X137954224Y-112433039D01*
X137949243Y-112430716D01*
X137943935Y-112429294D01*
X137943933Y-112429293D01*
X137733402Y-112372881D01*
X137733400Y-112372881D01*
X137728087Y-112371457D01*
X137500000Y-112351502D01*
X137271913Y-112371457D01*
X137266600Y-112372881D01*
X137266598Y-112372881D01*
X137056067Y-112429293D01*
X137056065Y-112429294D01*
X137050757Y-112430716D01*
X137045776Y-112433039D01*
X137045775Y-112433039D01*
X136848238Y-112525151D01*
X136848233Y-112525154D01*
X136843251Y-112527477D01*
X136742236Y-112598209D01*
X136660211Y-112655643D01*
X136660208Y-112655645D01*
X136655700Y-112658802D01*
X136493802Y-112820700D01*
X136490645Y-112825208D01*
X136490643Y-112825211D01*
X136471717Y-112852240D01*
X136362477Y-113008251D01*
X136360153Y-113013236D01*
X136360149Y-113013242D01*
X136287636Y-113168749D01*
X136240719Y-113222035D01*
X136173441Y-113241500D01*
X135865655Y-113241500D01*
X135797534Y-113221498D01*
X135751041Y-113167842D01*
X135740937Y-113097568D01*
X135756086Y-113053801D01*
X135757523Y-113051749D01*
X135797283Y-112966483D01*
X135851961Y-112849225D01*
X135851961Y-112849224D01*
X135854284Y-112844243D01*
X135859751Y-112823842D01*
X135912119Y-112628402D01*
X135912119Y-112628400D01*
X135913543Y-112623087D01*
X135933498Y-112395000D01*
X135913543Y-112166913D01*
X135891555Y-112084852D01*
X135855707Y-111951067D01*
X135855706Y-111951065D01*
X135854284Y-111945757D01*
X135851959Y-111940770D01*
X135808273Y-111847084D01*
X135797612Y-111776893D01*
X135826592Y-111712080D01*
X135870718Y-111678953D01*
X136038202Y-111603507D01*
X136043075Y-111601312D01*
X136234319Y-111472559D01*
X136250266Y-111457347D01*
X136397278Y-111317103D01*
X136401135Y-111313424D01*
X136538754Y-111128458D01*
X136580296Y-111046752D01*
X136611829Y-110984730D01*
X136643240Y-110922949D01*
X136663840Y-110856609D01*
X136710024Y-110707871D01*
X136711607Y-110702773D01*
X136730036Y-110563728D01*
X136741198Y-110479511D01*
X136741198Y-110479506D01*
X136741898Y-110474226D01*
X136733249Y-110243842D01*
X136685907Y-110018209D01*
X136653558Y-109936297D01*
X136603185Y-109808744D01*
X136603184Y-109808742D01*
X136601224Y-109803779D01*
X136524043Y-109676588D01*
X136484390Y-109611243D01*
X136481623Y-109606683D01*
X136414873Y-109529760D01*
X136334023Y-109436588D01*
X136334021Y-109436586D01*
X136330523Y-109432555D01*
X136246913Y-109363999D01*
X136156373Y-109289760D01*
X136156367Y-109289756D01*
X136152245Y-109286376D01*
X136120750Y-109268448D01*
X136071445Y-109217368D01*
X136057583Y-109147738D01*
X136083566Y-109081667D01*
X136112716Y-109054427D01*
X136166077Y-109018502D01*
X136234319Y-108972559D01*
X136248159Y-108959357D01*
X136397278Y-108817103D01*
X136401135Y-108813424D01*
X136538754Y-108628458D01*
X136547500Y-108611257D01*
X136640822Y-108427704D01*
X136643240Y-108422949D01*
X136711607Y-108202773D01*
X136741898Y-107974226D01*
X136733249Y-107743842D01*
X136685907Y-107518209D01*
X136679015Y-107500757D01*
X136603185Y-107308744D01*
X136603184Y-107308742D01*
X136601224Y-107303779D01*
X136594836Y-107293251D01*
X136484390Y-107111243D01*
X136481623Y-107106683D01*
X136438788Y-107057320D01*
X136334023Y-106936588D01*
X136334021Y-106936586D01*
X136330523Y-106932555D01*
X136294880Y-106903330D01*
X136254886Y-106844671D01*
X136252954Y-106773701D01*
X136289698Y-106712952D01*
X136308468Y-106698752D01*
X136448120Y-106612332D01*
X136454348Y-106608478D01*
X136579305Y-106483303D01*
X136620669Y-106416198D01*
X136668275Y-106338968D01*
X136668276Y-106338966D01*
X136672115Y-106332738D01*
X136727797Y-106164861D01*
X136738500Y-106060400D01*
X136738500Y-105426457D01*
X136758502Y-105358336D01*
X136812158Y-105311843D01*
X136882432Y-105301739D01*
X136917749Y-105312262D01*
X137050757Y-105374284D01*
X137056065Y-105375706D01*
X137056067Y-105375707D01*
X137266598Y-105432119D01*
X137266600Y-105432119D01*
X137271913Y-105433543D01*
X137500000Y-105453498D01*
X137728087Y-105433543D01*
X137733400Y-105432119D01*
X137733402Y-105432119D01*
X137943933Y-105375707D01*
X137943935Y-105375706D01*
X137949243Y-105374284D01*
X137993026Y-105353868D01*
X138151762Y-105279849D01*
X138151767Y-105279846D01*
X138156749Y-105277523D01*
X138300884Y-105176598D01*
X138308469Y-105171287D01*
X138380740Y-105148500D01*
X139918787Y-105148500D01*
X139932394Y-105149237D01*
X139963892Y-105152659D01*
X139963897Y-105152659D01*
X139970018Y-105153324D01*
X139996268Y-105151027D01*
X140020018Y-105148950D01*
X140024844Y-105148621D01*
X140027316Y-105148500D01*
X140030399Y-105148500D01*
X140042368Y-105147326D01*
X140073136Y-105144310D01*
X140074449Y-105144188D01*
X140118714Y-105140315D01*
X140167043Y-105136087D01*
X140172162Y-105134600D01*
X140177463Y-105134080D01*
X140266464Y-105107209D01*
X140267597Y-105106874D01*
X140351044Y-105082630D01*
X140351048Y-105082628D01*
X140356966Y-105080909D01*
X140361698Y-105078456D01*
X140366799Y-105076916D01*
X140372242Y-105074022D01*
X140448890Y-105033269D01*
X140450056Y-105032657D01*
X140527083Y-104992729D01*
X140532556Y-104989892D01*
X140536719Y-104986569D01*
X140541426Y-104984066D01*
X140613548Y-104925245D01*
X140614404Y-104924554D01*
X140653603Y-104893262D01*
X140656107Y-104890758D01*
X140656825Y-104890116D01*
X140661158Y-104886415D01*
X140694692Y-104859065D01*
X140723918Y-104823737D01*
X140731907Y-104814958D01*
X141498366Y-104048499D01*
X142266459Y-103280405D01*
X142328771Y-103246380D01*
X142355554Y-103243500D01*
X147485075Y-103243500D01*
X147553196Y-103263502D01*
X147574170Y-103280405D01*
X148943145Y-104649379D01*
X148952247Y-104659522D01*
X148975968Y-104689025D01*
X149001442Y-104710400D01*
X149014421Y-104721291D01*
X149018069Y-104724472D01*
X149019881Y-104726115D01*
X149022075Y-104728309D01*
X149055349Y-104755642D01*
X149056147Y-104756304D01*
X149127474Y-104816154D01*
X149132144Y-104818722D01*
X149136261Y-104822103D01*
X149212456Y-104862958D01*
X149218120Y-104865995D01*
X149219280Y-104866624D01*
X149295389Y-104908466D01*
X149295394Y-104908468D01*
X149300787Y-104911433D01*
X149305865Y-104913044D01*
X149310563Y-104915563D01*
X149399498Y-104942753D01*
X149400702Y-104943128D01*
X149489306Y-104971235D01*
X149494597Y-104971828D01*
X149499698Y-104973388D01*
X149592311Y-104982795D01*
X149593431Y-104982915D01*
X149643227Y-104988500D01*
X149646756Y-104988500D01*
X149647739Y-104988555D01*
X149653426Y-104989003D01*
X149673683Y-104991060D01*
X149690336Y-104992752D01*
X149690339Y-104992752D01*
X149696463Y-104993374D01*
X149742112Y-104989059D01*
X149753969Y-104988500D01*
X149772299Y-104988500D01*
X149840420Y-105008502D01*
X149852190Y-105017066D01*
X149953627Y-105100240D01*
X149953633Y-105100244D01*
X149957755Y-105103624D01*
X149962391Y-105106263D01*
X149962394Y-105106265D01*
X150043897Y-105152659D01*
X150158114Y-105217675D01*
X150374825Y-105296337D01*
X150380074Y-105297286D01*
X150380077Y-105297287D01*
X150597608Y-105336623D01*
X150597615Y-105336624D01*
X150601692Y-105337361D01*
X150619414Y-105338197D01*
X150624356Y-105338430D01*
X150624363Y-105338430D01*
X150625844Y-105338500D01*
X151587890Y-105338500D01*
X151654809Y-105332822D01*
X151754409Y-105324371D01*
X151754413Y-105324370D01*
X151759720Y-105323920D01*
X151764875Y-105322582D01*
X151764881Y-105322581D01*
X151977703Y-105267343D01*
X151977707Y-105267342D01*
X151982872Y-105266001D01*
X151987738Y-105263809D01*
X151987741Y-105263808D01*
X152134629Y-105197640D01*
X152193075Y-105171312D01*
X152384319Y-105042559D01*
X152394058Y-105033269D01*
X152515558Y-104917363D01*
X152551135Y-104883424D01*
X152688754Y-104698458D01*
X152793240Y-104492949D01*
X152828712Y-104378713D01*
X152860024Y-104277871D01*
X152861607Y-104272773D01*
X152864559Y-104250503D01*
X152891198Y-104049511D01*
X152891198Y-104049506D01*
X152891898Y-104044226D01*
X152883249Y-103813842D01*
X152835907Y-103588209D01*
X152833948Y-103583248D01*
X152753185Y-103378744D01*
X152753184Y-103378742D01*
X152751224Y-103373779D01*
X152707501Y-103301725D01*
X152634390Y-103181243D01*
X152631623Y-103176683D01*
X152588186Y-103126626D01*
X152484023Y-103006588D01*
X152484021Y-103006586D01*
X152480523Y-103002555D01*
X152438970Y-102968484D01*
X152306373Y-102859760D01*
X152306367Y-102859756D01*
X152302245Y-102856376D01*
X152297602Y-102853733D01*
X152270265Y-102838171D01*
X152220959Y-102787088D01*
X152207098Y-102717458D01*
X152233082Y-102651387D01*
X152262232Y-102624149D01*
X152379578Y-102545148D01*
X152387870Y-102538481D01*
X152546900Y-102386772D01*
X152553941Y-102378814D01*
X152685141Y-102202475D01*
X152690745Y-102193438D01*
X152790357Y-101997516D01*
X152794357Y-101987665D01*
X152859534Y-101777760D01*
X152861817Y-101767376D01*
X152863861Y-101751957D01*
X152861665Y-101737793D01*
X152848478Y-101734000D01*
X149413808Y-101734000D01*
X149400277Y-101737973D01*
X149398752Y-101748580D01*
X149423477Y-101866421D01*
X149426537Y-101876617D01*
X149467017Y-101979120D01*
X149473435Y-102049826D01*
X149440607Y-102112777D01*
X149378957Y-102147987D01*
X149308057Y-102144277D01*
X149260730Y-102114496D01*
X148711855Y-101565621D01*
X148702753Y-101555478D01*
X148682897Y-101530782D01*
X148679032Y-101525975D01*
X148640578Y-101493708D01*
X148636931Y-101490528D01*
X148635119Y-101488885D01*
X148632925Y-101486691D01*
X148599651Y-101459358D01*
X148598853Y-101458696D01*
X148527526Y-101398846D01*
X148522856Y-101396278D01*
X148518739Y-101392897D01*
X148460855Y-101361860D01*
X148436914Y-101349023D01*
X148435755Y-101348394D01*
X148359619Y-101306538D01*
X148359611Y-101306535D01*
X148354213Y-101303567D01*
X148349131Y-101301955D01*
X148344437Y-101299438D01*
X148255469Y-101272238D01*
X148254441Y-101271918D01*
X148165694Y-101243765D01*
X148160398Y-101243171D01*
X148155302Y-101241613D01*
X148062743Y-101232210D01*
X148061607Y-101232089D01*
X148027992Y-101228319D01*
X148015270Y-101226892D01*
X148015266Y-101226892D01*
X148011773Y-101226500D01*
X148008246Y-101226500D01*
X148007261Y-101226445D01*
X148001581Y-101225998D01*
X147972175Y-101223011D01*
X147964663Y-101222248D01*
X147964661Y-101222248D01*
X147958538Y-101221626D01*
X147916259Y-101225623D01*
X147912891Y-101225941D01*
X147901033Y-101226500D01*
X141947473Y-101226500D01*
X141933866Y-101225763D01*
X141902368Y-101222341D01*
X141902363Y-101222341D01*
X141896242Y-101221676D01*
X141869992Y-101223973D01*
X141846242Y-101226050D01*
X141841416Y-101226379D01*
X141838944Y-101226500D01*
X141835861Y-101226500D01*
X141823892Y-101227674D01*
X141793124Y-101230690D01*
X141791811Y-101230812D01*
X141747546Y-101234685D01*
X141699217Y-101238913D01*
X141694098Y-101240400D01*
X141688797Y-101240920D01*
X141599796Y-101267791D01*
X141598663Y-101268126D01*
X141515216Y-101292370D01*
X141515212Y-101292372D01*
X141509294Y-101294091D01*
X141504562Y-101296544D01*
X141499461Y-101298084D01*
X141494018Y-101300978D01*
X141417370Y-101341731D01*
X141416204Y-101342343D01*
X141397096Y-101352248D01*
X141333704Y-101385108D01*
X141329541Y-101388431D01*
X141324834Y-101390934D01*
X141320727Y-101394284D01*
X141253201Y-101415233D01*
X141184784Y-101396271D01*
X141142164Y-101352248D01*
X141139847Y-101348235D01*
X141137523Y-101343251D01*
X141064856Y-101239472D01*
X141009357Y-101160211D01*
X141009355Y-101160208D01*
X141006198Y-101155700D01*
X140844300Y-100993802D01*
X140839792Y-100990645D01*
X140839789Y-100990643D01*
X140754418Y-100930866D01*
X140656749Y-100862477D01*
X140651767Y-100860154D01*
X140651762Y-100860151D01*
X140454225Y-100768039D01*
X140454224Y-100768039D01*
X140449243Y-100765716D01*
X140443935Y-100764294D01*
X140443933Y-100764293D01*
X140233402Y-100707881D01*
X140233400Y-100707881D01*
X140228087Y-100706457D01*
X140000000Y-100686502D01*
X139771913Y-100706457D01*
X139766600Y-100707881D01*
X139766598Y-100707881D01*
X139556067Y-100764293D01*
X139556065Y-100764294D01*
X139550757Y-100765716D01*
X139545776Y-100768039D01*
X139545775Y-100768039D01*
X139348238Y-100860151D01*
X139348233Y-100860154D01*
X139343251Y-100862477D01*
X139245582Y-100930866D01*
X139191531Y-100968713D01*
X139119260Y-100991500D01*
X131247539Y-100991500D01*
X131179418Y-100971498D01*
X131139820Y-100930866D01*
X131036890Y-100761243D01*
X131034123Y-100756683D01*
X130947255Y-100656576D01*
X130886523Y-100586588D01*
X130886521Y-100586586D01*
X130883023Y-100582555D01*
X130790814Y-100506948D01*
X130708873Y-100439760D01*
X130708867Y-100439756D01*
X130704745Y-100436376D01*
X130673250Y-100418448D01*
X130623945Y-100367368D01*
X130610083Y-100297738D01*
X130636066Y-100231667D01*
X130665216Y-100204427D01*
X130782389Y-100125542D01*
X130782393Y-100125539D01*
X130786819Y-100122559D01*
X130806975Y-100103331D01*
X130870071Y-100070783D01*
X130893947Y-100068500D01*
X141619260Y-100068500D01*
X141691531Y-100091287D01*
X141843251Y-100197523D01*
X141848233Y-100199846D01*
X141848238Y-100199849D01*
X142045775Y-100291961D01*
X142050757Y-100294284D01*
X142056065Y-100295706D01*
X142056067Y-100295707D01*
X142266598Y-100352119D01*
X142266600Y-100352119D01*
X142271913Y-100353543D01*
X142500000Y-100373498D01*
X142728087Y-100353543D01*
X142733400Y-100352119D01*
X142733402Y-100352119D01*
X142943933Y-100295707D01*
X142943935Y-100295706D01*
X142949243Y-100294284D01*
X142954225Y-100291961D01*
X143151762Y-100199849D01*
X143151767Y-100199846D01*
X143156749Y-100197523D01*
X143308469Y-100091287D01*
X143380740Y-100068500D01*
X149869866Y-100068500D01*
X149937987Y-100088502D01*
X149949756Y-100097065D01*
X149957755Y-100103624D01*
X149962398Y-100106267D01*
X149989735Y-100121829D01*
X150039041Y-100172912D01*
X150052902Y-100242542D01*
X150026918Y-100308613D01*
X149997768Y-100335851D01*
X149880422Y-100414852D01*
X149872130Y-100421519D01*
X149713100Y-100573228D01*
X149706059Y-100581186D01*
X149574859Y-100757525D01*
X149569255Y-100766562D01*
X149469643Y-100962484D01*
X149465643Y-100972335D01*
X149400466Y-101182240D01*
X149398183Y-101192624D01*
X149396139Y-101208043D01*
X149398335Y-101222207D01*
X149411522Y-101226000D01*
X152846192Y-101226000D01*
X152859723Y-101222027D01*
X152861248Y-101211420D01*
X152836523Y-101093579D01*
X152833463Y-101083383D01*
X152752737Y-100878971D01*
X152748006Y-100869439D01*
X152633984Y-100681538D01*
X152627720Y-100672948D01*
X152483673Y-100506948D01*
X152476042Y-100499528D01*
X152306089Y-100360174D01*
X152297326Y-100354152D01*
X152270289Y-100338762D01*
X152220982Y-100287680D01*
X152207120Y-100218049D01*
X152233103Y-100151978D01*
X152262253Y-100124739D01*
X152345787Y-100068500D01*
X152384319Y-100042559D01*
X152551135Y-99883424D01*
X152688754Y-99698458D01*
X152707669Y-99661256D01*
X152790822Y-99497704D01*
X152793240Y-99492949D01*
X152861607Y-99272773D01*
X152891898Y-99044226D01*
X152883249Y-98813842D01*
X152835907Y-98588209D01*
X152751224Y-98373779D01*
X152734548Y-98346297D01*
X152634390Y-98181243D01*
X152631623Y-98176683D01*
X152521014Y-98049217D01*
X152484023Y-98006588D01*
X152484021Y-98006586D01*
X152480523Y-98002555D01*
X152396589Y-97933733D01*
X152306373Y-97859760D01*
X152306367Y-97859756D01*
X152302245Y-97856376D01*
X152270750Y-97838448D01*
X152221445Y-97787368D01*
X152207583Y-97717738D01*
X152233566Y-97651667D01*
X152262716Y-97624427D01*
X152298636Y-97600244D01*
X152384319Y-97542559D01*
X152398159Y-97529357D01*
X152547278Y-97387103D01*
X152551135Y-97383424D01*
X152688754Y-97198458D01*
X152697500Y-97181257D01*
X152790822Y-96997704D01*
X152793240Y-96992949D01*
X152804522Y-96956617D01*
X152860024Y-96777871D01*
X152861607Y-96772773D01*
X152891898Y-96544226D01*
X152883249Y-96313842D01*
X152835907Y-96088209D01*
X152829015Y-96070757D01*
X152753185Y-95878744D01*
X152753184Y-95878742D01*
X152751224Y-95873779D01*
X152744836Y-95863251D01*
X152634390Y-95681243D01*
X152631623Y-95676683D01*
X152628126Y-95672653D01*
X152484023Y-95506588D01*
X152484021Y-95506586D01*
X152480523Y-95502555D01*
X152444880Y-95473330D01*
X152404886Y-95414671D01*
X152402954Y-95343701D01*
X152439698Y-95282952D01*
X152458468Y-95268752D01*
X152598120Y-95182332D01*
X152604348Y-95178478D01*
X152729305Y-95053303D01*
X152770669Y-94986198D01*
X152818275Y-94908968D01*
X152818276Y-94908966D01*
X152822115Y-94902738D01*
X152877797Y-94734861D01*
X152888500Y-94630400D01*
X152888500Y-93329600D01*
X152877526Y-93223834D01*
X152870480Y-93202713D01*
X152823868Y-93063002D01*
X152821550Y-93056054D01*
X152728478Y-92905652D01*
X152603303Y-92780695D01*
X152590263Y-92772657D01*
X152458968Y-92691725D01*
X152458966Y-92691724D01*
X152452738Y-92687885D01*
X152292254Y-92634655D01*
X152291389Y-92634368D01*
X152291387Y-92634368D01*
X152284861Y-92632203D01*
X152278025Y-92631503D01*
X152278022Y-92631502D01*
X152234969Y-92627091D01*
X152180400Y-92621500D01*
X150079600Y-92621500D01*
X150076354Y-92621837D01*
X150076350Y-92621837D01*
X149980692Y-92631762D01*
X149980688Y-92631763D01*
X149973834Y-92632474D01*
X149967298Y-92634655D01*
X149967296Y-92634655D01*
X149835194Y-92678728D01*
X149806054Y-92688450D01*
X149655652Y-92781522D01*
X149530695Y-92906697D01*
X149526855Y-92912927D01*
X149526854Y-92912928D01*
X149510315Y-92939760D01*
X149437885Y-93057262D01*
X149425650Y-93094151D01*
X149410718Y-93139168D01*
X149370287Y-93197527D01*
X149304723Y-93224764D01*
X149291125Y-93225500D01*
X148200740Y-93225500D01*
X148128469Y-93202713D01*
X148062579Y-93156576D01*
X147976749Y-93096477D01*
X147971767Y-93094154D01*
X147971762Y-93094151D01*
X147774225Y-93002039D01*
X147774224Y-93002039D01*
X147769243Y-92999716D01*
X147763935Y-92998294D01*
X147763933Y-92998293D01*
X147553402Y-92941881D01*
X147553400Y-92941881D01*
X147548087Y-92940457D01*
X147320000Y-92920502D01*
X147091913Y-92940457D01*
X147086600Y-92941881D01*
X147086598Y-92941881D01*
X146876067Y-92998293D01*
X146876065Y-92998294D01*
X146870757Y-92999716D01*
X146865776Y-93002039D01*
X146865775Y-93002039D01*
X146668238Y-93094151D01*
X146668233Y-93094154D01*
X146663251Y-93096477D01*
X146602539Y-93138988D01*
X146480211Y-93224643D01*
X146480208Y-93224645D01*
X146475700Y-93227802D01*
X146313802Y-93389700D01*
X146182477Y-93577251D01*
X146180154Y-93582233D01*
X146180151Y-93582238D01*
X146093890Y-93767227D01*
X146085716Y-93784757D01*
X146084294Y-93790065D01*
X146084293Y-93790067D01*
X146033400Y-93980000D01*
X146026457Y-94005913D01*
X146006502Y-94234000D01*
X146026457Y-94462087D01*
X146027881Y-94467400D01*
X146027881Y-94467402D01*
X146079825Y-94661256D01*
X146085716Y-94683243D01*
X146088039Y-94688224D01*
X146088039Y-94688225D01*
X146180151Y-94885762D01*
X146180154Y-94885767D01*
X146182477Y-94890749D01*
X146213018Y-94934366D01*
X146287567Y-95040832D01*
X146313802Y-95078300D01*
X146475700Y-95240198D01*
X146480208Y-95243355D01*
X146480211Y-95243357D01*
X146535809Y-95282287D01*
X146580137Y-95337744D01*
X146587446Y-95408364D01*
X146555415Y-95471724D01*
X146494214Y-95507709D01*
X146463538Y-95511500D01*
X143622765Y-95511500D01*
X143554644Y-95491498D01*
X143508151Y-95437842D01*
X143498047Y-95367568D01*
X143519552Y-95313229D01*
X143634366Y-95149258D01*
X143634367Y-95149256D01*
X143637523Y-95144749D01*
X143639846Y-95139767D01*
X143639849Y-95139762D01*
X143731961Y-94942225D01*
X143731961Y-94942224D01*
X143734284Y-94937243D01*
X143748079Y-94885762D01*
X143792119Y-94721402D01*
X143792119Y-94721400D01*
X143793543Y-94716087D01*
X143813498Y-94488000D01*
X143793543Y-94259913D01*
X143734284Y-94038757D01*
X143714241Y-93995774D01*
X143639849Y-93836238D01*
X143639846Y-93836233D01*
X143637523Y-93831251D01*
X143531287Y-93679531D01*
X143508500Y-93607260D01*
X143508500Y-91274925D01*
X143528502Y-91206804D01*
X143545405Y-91185830D01*
X145181273Y-89549961D01*
X145224086Y-89521864D01*
X145261256Y-89507185D01*
X145261258Y-89507184D01*
X145266221Y-89505224D01*
X145463317Y-89385623D01*
X145553058Y-89307750D01*
X145633412Y-89238023D01*
X145633414Y-89238021D01*
X145637445Y-89234523D01*
X145715341Y-89139522D01*
X145780240Y-89060373D01*
X145780244Y-89060367D01*
X145783624Y-89056245D01*
X145789115Y-89046600D01*
X145895032Y-88860529D01*
X145897675Y-88855886D01*
X145976337Y-88639175D01*
X145977287Y-88633923D01*
X146016623Y-88416392D01*
X146016624Y-88416385D01*
X146017361Y-88412308D01*
X146018500Y-88388156D01*
X146018500Y-87426110D01*
X146003920Y-87254280D01*
X146002582Y-87249125D01*
X146002581Y-87249119D01*
X145947343Y-87036297D01*
X145947342Y-87036293D01*
X145946001Y-87031128D01*
X145937628Y-87012539D01*
X145853507Y-86825798D01*
X145851312Y-86820925D01*
X145722559Y-86629681D01*
X145674837Y-86579655D01*
X145627446Y-86529977D01*
X145563424Y-86462865D01*
X145378458Y-86325246D01*
X145373707Y-86322830D01*
X145373703Y-86322828D01*
X145251731Y-86260815D01*
X145172949Y-86220760D01*
X145167855Y-86219178D01*
X145167852Y-86219177D01*
X144957871Y-86153976D01*
X144952773Y-86152393D01*
X144947484Y-86151692D01*
X144729511Y-86122802D01*
X144729506Y-86122802D01*
X144724226Y-86122102D01*
X144718897Y-86122302D01*
X144718895Y-86122302D01*
X144620368Y-86126001D01*
X144493842Y-86130751D01*
X144488623Y-86131846D01*
X144468849Y-86135995D01*
X144268209Y-86178093D01*
X144263250Y-86180051D01*
X144263248Y-86180052D01*
X144058744Y-86260815D01*
X144058742Y-86260816D01*
X144053779Y-86262776D01*
X144049220Y-86265543D01*
X144049217Y-86265544D01*
X143950832Y-86325246D01*
X143856683Y-86382377D01*
X143852653Y-86385874D01*
X143692564Y-86524792D01*
X143682555Y-86533477D01*
X143664708Y-86555243D01*
X143539760Y-86707627D01*
X143539756Y-86707633D01*
X143536376Y-86711755D01*
X143518448Y-86743250D01*
X143467368Y-86792555D01*
X143397738Y-86806417D01*
X143331667Y-86780434D01*
X143304427Y-86751284D01*
X143225539Y-86634108D01*
X143222559Y-86629681D01*
X143174837Y-86579655D01*
X143127446Y-86529977D01*
X143063424Y-86462865D01*
X142878458Y-86325246D01*
X142873707Y-86322830D01*
X142873703Y-86322828D01*
X142751731Y-86260815D01*
X142672949Y-86220760D01*
X142667855Y-86219178D01*
X142667852Y-86219177D01*
X142457871Y-86153976D01*
X142452773Y-86152393D01*
X142447484Y-86151692D01*
X142229511Y-86122802D01*
X142229506Y-86122802D01*
X142224226Y-86122102D01*
X142218897Y-86122302D01*
X142218895Y-86122302D01*
X142120368Y-86126001D01*
X141993842Y-86130751D01*
X141988623Y-86131846D01*
X141968849Y-86135995D01*
X141768209Y-86178093D01*
X141763250Y-86180051D01*
X141763248Y-86180052D01*
X141558744Y-86260815D01*
X141558742Y-86260816D01*
X141553779Y-86262776D01*
X141549220Y-86265543D01*
X141549217Y-86265544D01*
X141450832Y-86325246D01*
X141356683Y-86382377D01*
X141352653Y-86385874D01*
X141192564Y-86524792D01*
X141182555Y-86533477D01*
X141164708Y-86555243D01*
X141039760Y-86707627D01*
X141039756Y-86707633D01*
X141036376Y-86711755D01*
X141018448Y-86743250D01*
X140967368Y-86792555D01*
X140897738Y-86806417D01*
X140831667Y-86780434D01*
X140804427Y-86751284D01*
X140725539Y-86634108D01*
X140722559Y-86629681D01*
X140674837Y-86579655D01*
X140627446Y-86529977D01*
X140563424Y-86462865D01*
X140378458Y-86325246D01*
X140373707Y-86322830D01*
X140373703Y-86322828D01*
X140251731Y-86260815D01*
X140172949Y-86220760D01*
X140167855Y-86219178D01*
X140167852Y-86219177D01*
X139957871Y-86153976D01*
X139952773Y-86152393D01*
X139947484Y-86151692D01*
X139729511Y-86122802D01*
X139729506Y-86122802D01*
X139724226Y-86122102D01*
X139718897Y-86122302D01*
X139718895Y-86122302D01*
X139620368Y-86126001D01*
X139493842Y-86130751D01*
X139488623Y-86131846D01*
X139468849Y-86135995D01*
X139268209Y-86178093D01*
X139263250Y-86180051D01*
X139263248Y-86180052D01*
X139058744Y-86260815D01*
X139058742Y-86260816D01*
X139053779Y-86262776D01*
X139049220Y-86265543D01*
X139049217Y-86265544D01*
X138950832Y-86325246D01*
X138856683Y-86382377D01*
X138852653Y-86385874D01*
X138692564Y-86524792D01*
X138682555Y-86533477D01*
X138664708Y-86555243D01*
X138652994Y-86569529D01*
X138594334Y-86609524D01*
X138523364Y-86611455D01*
X138462616Y-86574710D01*
X138448416Y-86555941D01*
X138361937Y-86416193D01*
X138352901Y-86404792D01*
X138238171Y-86290261D01*
X138226760Y-86281249D01*
X138088757Y-86196184D01*
X138075576Y-86190037D01*
X137921290Y-86138862D01*
X137907914Y-86135995D01*
X137813562Y-86126328D01*
X137807145Y-86126000D01*
X137432115Y-86126000D01*
X137416876Y-86130475D01*
X137415671Y-86131865D01*
X137414000Y-86139548D01*
X137414000Y-89623884D01*
X137423780Y-89657192D01*
X137423780Y-89728189D01*
X137391980Y-89781785D01*
X136830617Y-90343149D01*
X136820473Y-90352251D01*
X136790975Y-90375968D01*
X136787008Y-90380696D01*
X136758709Y-90414421D01*
X136755528Y-90418069D01*
X136753885Y-90419881D01*
X136751691Y-90422075D01*
X136724358Y-90455349D01*
X136723696Y-90456147D01*
X136663846Y-90527474D01*
X136661278Y-90532144D01*
X136657897Y-90536261D01*
X136626860Y-90594145D01*
X136614023Y-90618086D01*
X136613394Y-90619245D01*
X136571538Y-90695381D01*
X136571535Y-90695389D01*
X136568567Y-90700787D01*
X136566955Y-90705869D01*
X136564438Y-90710563D01*
X136537238Y-90799531D01*
X136536918Y-90800559D01*
X136508765Y-90889306D01*
X136508171Y-90894602D01*
X136506613Y-90899698D01*
X136505990Y-90905834D01*
X136497218Y-90992187D01*
X136497089Y-90993393D01*
X136491500Y-91043227D01*
X136491500Y-91046754D01*
X136491445Y-91047739D01*
X136490998Y-91053419D01*
X136486626Y-91096462D01*
X136487206Y-91102593D01*
X136490941Y-91142109D01*
X136491500Y-91153967D01*
X136491500Y-92845500D01*
X136471498Y-92913621D01*
X136417842Y-92960114D01*
X136365500Y-92971500D01*
X130792634Y-92971500D01*
X130724513Y-92951498D01*
X130712743Y-92942934D01*
X130708872Y-92939760D01*
X130708873Y-92939760D01*
X130704745Y-92936376D01*
X130700109Y-92933737D01*
X130700106Y-92933735D01*
X130509029Y-92824968D01*
X130504386Y-92822325D01*
X130287675Y-92743663D01*
X130282426Y-92742714D01*
X130282423Y-92742713D01*
X130064892Y-92703377D01*
X130064885Y-92703376D01*
X130060808Y-92702639D01*
X130043086Y-92701803D01*
X130038144Y-92701570D01*
X130038137Y-92701570D01*
X130036656Y-92701500D01*
X129074610Y-92701500D01*
X129007691Y-92707178D01*
X128908091Y-92715629D01*
X128908087Y-92715630D01*
X128902780Y-92716080D01*
X128897625Y-92717418D01*
X128897619Y-92717419D01*
X128684797Y-92772657D01*
X128684793Y-92772658D01*
X128679628Y-92773999D01*
X128674762Y-92776191D01*
X128674759Y-92776192D01*
X128566480Y-92824968D01*
X128469425Y-92868688D01*
X128278181Y-92997441D01*
X128111365Y-93156576D01*
X128108182Y-93160854D01*
X128077038Y-93202713D01*
X127973746Y-93341542D01*
X127971330Y-93346293D01*
X127971328Y-93346297D01*
X127949261Y-93389700D01*
X127869260Y-93547051D01*
X127867678Y-93552145D01*
X127867677Y-93552148D01*
X127805648Y-93751913D01*
X127800893Y-93767227D01*
X127800192Y-93772516D01*
X127772693Y-93980000D01*
X127770602Y-93995774D01*
X127779251Y-94226158D01*
X127826593Y-94451791D01*
X127828551Y-94456750D01*
X127828552Y-94456752D01*
X127897130Y-94630400D01*
X127911276Y-94666221D01*
X128030877Y-94863317D01*
X128034374Y-94867347D01*
X128169729Y-95023330D01*
X128181977Y-95037445D01*
X128186108Y-95040832D01*
X128356127Y-95180240D01*
X128356133Y-95180244D01*
X128360255Y-95183624D01*
X128364898Y-95186267D01*
X128392235Y-95201829D01*
X128441541Y-95252912D01*
X128455402Y-95322542D01*
X128429418Y-95388613D01*
X128400268Y-95415851D01*
X128282922Y-95494852D01*
X128274630Y-95501519D01*
X128115600Y-95653228D01*
X128108559Y-95661186D01*
X127977359Y-95837525D01*
X127971755Y-95846562D01*
X127872143Y-96042484D01*
X127868143Y-96052335D01*
X127802966Y-96262240D01*
X127800683Y-96272624D01*
X127798639Y-96288043D01*
X127800835Y-96302207D01*
X127814022Y-96306000D01*
X131248692Y-96306000D01*
X131262223Y-96302027D01*
X131263748Y-96291420D01*
X131239023Y-96173579D01*
X131235963Y-96163383D01*
X131155237Y-95958971D01*
X131150506Y-95949439D01*
X131036484Y-95761538D01*
X131030220Y-95752948D01*
X130886173Y-95586948D01*
X130878542Y-95579528D01*
X130708589Y-95440174D01*
X130699826Y-95434152D01*
X130672789Y-95418762D01*
X130623482Y-95367680D01*
X130609620Y-95298049D01*
X130635603Y-95231978D01*
X130664753Y-95204739D01*
X130761266Y-95139762D01*
X130786819Y-95122559D01*
X130795408Y-95114366D01*
X130890838Y-95023330D01*
X130953935Y-94990783D01*
X130977810Y-94988500D01*
X136619260Y-94988500D01*
X136691531Y-95011287D01*
X136843251Y-95117523D01*
X136848233Y-95119846D01*
X136848238Y-95119849D01*
X137045775Y-95211961D01*
X137050757Y-95214284D01*
X137056065Y-95215706D01*
X137056067Y-95215707D01*
X137266598Y-95272119D01*
X137266600Y-95272119D01*
X137271913Y-95273543D01*
X137500000Y-95293498D01*
X137728087Y-95273543D01*
X137733400Y-95272119D01*
X137733402Y-95272119D01*
X137943933Y-95215707D01*
X137943935Y-95215706D01*
X137949243Y-95214284D01*
X137954225Y-95211961D01*
X138151762Y-95119849D01*
X138151767Y-95119846D01*
X138156749Y-95117523D01*
X138291270Y-95023330D01*
X138339789Y-94989357D01*
X138339792Y-94989355D01*
X138344300Y-94986198D01*
X138506198Y-94824300D01*
X138516458Y-94809648D01*
X138604967Y-94683243D01*
X138637523Y-94636749D01*
X138639846Y-94631767D01*
X138639849Y-94631762D01*
X138731961Y-94434225D01*
X138731961Y-94434224D01*
X138734284Y-94429243D01*
X138743793Y-94393755D01*
X138780745Y-94333132D01*
X138844605Y-94302111D01*
X138915100Y-94310539D01*
X138969847Y-94355742D01*
X138991500Y-94426366D01*
X138991500Y-95639260D01*
X138968713Y-95711531D01*
X138862477Y-95863251D01*
X138860154Y-95868233D01*
X138860151Y-95868238D01*
X138822287Y-95949439D01*
X138765716Y-96070757D01*
X138764294Y-96076065D01*
X138764293Y-96076067D01*
X138707881Y-96286598D01*
X138706457Y-96291913D01*
X138686502Y-96520000D01*
X138706457Y-96748087D01*
X138707881Y-96753400D01*
X138707881Y-96753402D01*
X138733062Y-96847376D01*
X138765716Y-96969243D01*
X138768039Y-96974224D01*
X138768039Y-96974225D01*
X138860151Y-97171762D01*
X138860154Y-97171767D01*
X138862477Y-97176749D01*
X138993802Y-97364300D01*
X139155700Y-97526198D01*
X139160208Y-97529355D01*
X139160211Y-97529357D01*
X139199784Y-97557066D01*
X139343251Y-97657523D01*
X139348233Y-97659846D01*
X139348238Y-97659849D01*
X139527980Y-97743663D01*
X139550757Y-97754284D01*
X139556065Y-97755706D01*
X139556067Y-97755707D01*
X139689316Y-97791411D01*
X139711884Y-97797458D01*
X139735526Y-97803793D01*
X139796149Y-97840745D01*
X139827170Y-97904606D01*
X139818742Y-97975100D01*
X139773539Y-98029847D01*
X139702915Y-98051500D01*
X130890201Y-98051500D01*
X130822080Y-98031498D01*
X130810310Y-98022934D01*
X130708873Y-97939760D01*
X130708867Y-97939756D01*
X130704745Y-97936376D01*
X130700102Y-97933733D01*
X130672765Y-97918171D01*
X130623459Y-97867088D01*
X130609598Y-97797458D01*
X130635582Y-97731387D01*
X130664732Y-97704149D01*
X130782078Y-97625148D01*
X130790370Y-97618481D01*
X130949400Y-97466772D01*
X130956441Y-97458814D01*
X131087641Y-97282475D01*
X131093245Y-97273438D01*
X131192857Y-97077516D01*
X131196857Y-97067665D01*
X131262034Y-96857760D01*
X131264317Y-96847376D01*
X131266361Y-96831957D01*
X131264165Y-96817793D01*
X131250978Y-96814000D01*
X127816308Y-96814000D01*
X127802777Y-96817973D01*
X127801252Y-96828580D01*
X127825977Y-96946421D01*
X127829037Y-96956617D01*
X127909763Y-97161029D01*
X127914494Y-97170561D01*
X128028516Y-97358462D01*
X128034780Y-97367052D01*
X128178827Y-97533052D01*
X128186458Y-97540472D01*
X128356411Y-97679826D01*
X128365174Y-97685848D01*
X128392211Y-97701238D01*
X128441518Y-97752320D01*
X128455380Y-97821951D01*
X128429397Y-97888022D01*
X128400247Y-97915261D01*
X128389529Y-97922477D01*
X128278181Y-97997441D01*
X128274324Y-98001120D01*
X128274322Y-98001122D01*
X128244211Y-98029847D01*
X128111365Y-98156576D01*
X127973746Y-98341542D01*
X127971330Y-98346293D01*
X127971328Y-98346297D01*
X127921503Y-98444297D01*
X127869260Y-98547051D01*
X127800893Y-98767227D01*
X127770602Y-98995774D01*
X127779251Y-99226158D01*
X127826593Y-99451791D01*
X127911276Y-99666221D01*
X127914043Y-99670780D01*
X127914044Y-99670783D01*
X127930838Y-99698458D01*
X128030877Y-99863317D01*
X128181977Y-100037445D01*
X128219851Y-100068500D01*
X128356127Y-100180240D01*
X128356133Y-100180244D01*
X128360255Y-100183624D01*
X128391750Y-100201552D01*
X128441055Y-100252632D01*
X128454917Y-100322262D01*
X128428934Y-100388333D01*
X128399784Y-100415573D01*
X128278181Y-100497441D01*
X128111365Y-100656576D01*
X127973746Y-100841542D01*
X127971330Y-100846293D01*
X127971328Y-100846297D01*
X127963102Y-100862477D01*
X127869260Y-101047051D01*
X127867678Y-101052145D01*
X127867677Y-101052148D01*
X127814872Y-101222207D01*
X127800893Y-101267227D01*
X127800192Y-101272516D01*
X127771570Y-101488472D01*
X127770602Y-101495774D01*
X127508000Y-101495774D01*
X127508000Y-88733364D01*
X127528002Y-88665243D01*
X127581658Y-88618750D01*
X127651932Y-88608646D01*
X127716512Y-88638140D01*
X127742116Y-88668658D01*
X127764561Y-88706161D01*
X127944313Y-88930528D01*
X128152851Y-89128423D01*
X128386317Y-89296186D01*
X128390112Y-89298195D01*
X128390113Y-89298196D01*
X128411869Y-89309715D01*
X128640392Y-89430712D01*
X128664699Y-89439607D01*
X128889477Y-89521864D01*
X128910373Y-89529511D01*
X129191264Y-89590755D01*
X129219841Y-89593004D01*
X129414282Y-89608307D01*
X129414291Y-89608307D01*
X129416739Y-89608500D01*
X129572271Y-89608500D01*
X129574407Y-89608354D01*
X129574418Y-89608354D01*
X129782548Y-89594165D01*
X129782554Y-89594164D01*
X129786825Y-89593873D01*
X129791020Y-89593004D01*
X129791022Y-89593004D01*
X129998869Y-89549961D01*
X130068342Y-89535574D01*
X130339343Y-89439607D01*
X130594812Y-89307750D01*
X130598313Y-89305289D01*
X130598317Y-89305287D01*
X130747009Y-89200784D01*
X130830023Y-89142441D01*
X131040622Y-88946740D01*
X131053427Y-88931095D01*
X135802001Y-88931095D01*
X135802338Y-88937614D01*
X135812257Y-89033206D01*
X135815149Y-89046600D01*
X135866588Y-89200784D01*
X135872761Y-89213962D01*
X135958063Y-89351807D01*
X135967099Y-89363208D01*
X136081829Y-89477739D01*
X136093240Y-89486751D01*
X136231243Y-89571816D01*
X136244424Y-89577963D01*
X136398710Y-89629138D01*
X136412086Y-89632005D01*
X136506438Y-89641672D01*
X136512854Y-89642000D01*
X136887885Y-89642000D01*
X136903124Y-89637525D01*
X136904329Y-89636135D01*
X136906000Y-89628452D01*
X136906000Y-88156115D01*
X136901525Y-88140876D01*
X136900135Y-88139671D01*
X136892452Y-88138000D01*
X135820116Y-88138000D01*
X135804877Y-88142475D01*
X135803672Y-88143865D01*
X135802001Y-88151548D01*
X135802001Y-88931095D01*
X131053427Y-88931095D01*
X131222713Y-88724268D01*
X131372927Y-88479142D01*
X131488483Y-88215898D01*
X131567244Y-87939406D01*
X131607751Y-87654784D01*
X131607845Y-87636951D01*
X131607976Y-87611885D01*
X135802000Y-87611885D01*
X135806475Y-87627124D01*
X135807865Y-87628329D01*
X135815548Y-87630000D01*
X136887885Y-87630000D01*
X136903124Y-87625525D01*
X136904329Y-87624135D01*
X136906000Y-87616452D01*
X136906000Y-86144116D01*
X136901525Y-86128877D01*
X136900135Y-86127672D01*
X136892452Y-86126001D01*
X136512905Y-86126001D01*
X136506386Y-86126338D01*
X136410794Y-86136257D01*
X136397400Y-86139149D01*
X136243216Y-86190588D01*
X136230038Y-86196761D01*
X136092193Y-86282063D01*
X136080792Y-86291099D01*
X135966261Y-86405829D01*
X135957249Y-86417240D01*
X135872184Y-86555243D01*
X135866037Y-86568424D01*
X135814862Y-86722710D01*
X135811995Y-86736086D01*
X135802328Y-86830438D01*
X135802000Y-86836855D01*
X135802000Y-87611885D01*
X131607976Y-87611885D01*
X131609235Y-87371583D01*
X131609235Y-87371576D01*
X131609257Y-87367297D01*
X131571732Y-87082266D01*
X131495871Y-86804964D01*
X131464659Y-86731788D01*
X131384763Y-86544476D01*
X131384761Y-86544472D01*
X131383077Y-86540524D01*
X131286772Y-86379610D01*
X131237643Y-86297521D01*
X131237640Y-86297517D01*
X131235439Y-86293839D01*
X131055687Y-86069472D01*
X130847149Y-85871577D01*
X130658921Y-85736321D01*
X130615274Y-85680328D01*
X130608828Y-85609624D01*
X130641631Y-85546660D01*
X130703267Y-85511426D01*
X130732448Y-85508000D01*
X150268940Y-85508000D01*
X150337061Y-85528002D01*
G37*
%TD.AperFunction*%
%TD*%
M02*
