%TF.GenerationSoftware,KiCad,Pcbnew,(6.0.0)*%
%TF.CreationDate,2022-05-13T11:59:05+02:00*%
%TF.ProjectId,carte fils araign_e,63617274-6520-4666-996c-732061726169,rev?*%
%TF.SameCoordinates,Original*%
%TF.FileFunction,Copper,L1,Top*%
%TF.FilePolarity,Positive*%
%FSLAX46Y46*%
G04 Gerber Fmt 4.6, Leading zero omitted, Abs format (unit mm)*
G04 Created by KiCad (PCBNEW (6.0.0)) date 2022-05-13 11:59:05*
%MOMM*%
%LPD*%
G01*
G04 APERTURE LIST*
G04 Aperture macros list*
%AMRoundRect*
0 Rectangle with rounded corners*
0 $1 Rounding radius*
0 $2 $3 $4 $5 $6 $7 $8 $9 X,Y pos of 4 corners*
0 Add a 4 corners polygon primitive as box body*
4,1,4,$2,$3,$4,$5,$6,$7,$8,$9,$2,$3,0*
0 Add four circle primitives for the rounded corners*
1,1,$1+$1,$2,$3*
1,1,$1+$1,$4,$5*
1,1,$1+$1,$6,$7*
1,1,$1+$1,$8,$9*
0 Add four rect primitives between the rounded corners*
20,1,$1+$1,$2,$3,$4,$5,0*
20,1,$1+$1,$4,$5,$6,$7,0*
20,1,$1+$1,$6,$7,$8,$9,0*
20,1,$1+$1,$8,$9,$2,$3,0*%
G04 Aperture macros list end*
%TA.AperFunction,ComponentPad*%
%ADD10RoundRect,0.250000X-0.725000X0.600000X-0.725000X-0.600000X0.725000X-0.600000X0.725000X0.600000X0*%
%TD*%
%TA.AperFunction,ComponentPad*%
%ADD11O,1.950000X1.700000*%
%TD*%
%TA.AperFunction,ComponentPad*%
%ADD12RoundRect,0.250000X1.000000X-0.600000X1.000000X0.600000X-1.000000X0.600000X-1.000000X-0.600000X0*%
%TD*%
%TA.AperFunction,ComponentPad*%
%ADD13O,2.500000X1.700000*%
%TD*%
%TA.AperFunction,SMDPad,CuDef*%
%ADD14C,2.000000*%
%TD*%
%TA.AperFunction,ComponentPad*%
%ADD15RoundRect,0.250000X-1.000000X0.600000X-1.000000X-0.600000X1.000000X-0.600000X1.000000X0.600000X0*%
%TD*%
%TA.AperFunction,ComponentPad*%
%ADD16RoundRect,0.250000X-0.600000X-1.000000X0.600000X-1.000000X0.600000X1.000000X-0.600000X1.000000X0*%
%TD*%
%TA.AperFunction,ComponentPad*%
%ADD17O,1.700000X2.500000*%
%TD*%
%TA.AperFunction,ComponentPad*%
%ADD18RoundRect,0.250000X0.725000X-0.600000X0.725000X0.600000X-0.725000X0.600000X-0.725000X-0.600000X0*%
%TD*%
%TA.AperFunction,ViaPad*%
%ADD19C,1.600000*%
%TD*%
%TA.AperFunction,Conductor*%
%ADD20C,1.000000*%
%TD*%
G04 APERTURE END LIST*
D10*
%TO.P,J5,1,Pin_1*%
%TO.N,Xshut9*%
X135255000Y-105410000D03*
D11*
%TO.P,J5,2,Pin_2*%
%TO.N,Xshut8*%
X135255000Y-107910000D03*
%TO.P,J5,3,Pin_3*%
%TO.N,Xshut7*%
X135255000Y-110410000D03*
%TD*%
D12*
%TO.P,J2,1,Pin_1*%
%TO.N,Xshut8*%
X129540000Y-120650000D03*
D13*
%TO.P,J2,2,Pin_2*%
%TO.N,I2C_SDA*%
X129540000Y-118150000D03*
%TO.P,J2,3,Pin_3*%
%TO.N,I2C_SCL*%
X129540000Y-115650000D03*
%TO.P,J2,4,Pin_4*%
%TO.N,GND*%
X129540000Y-113150000D03*
%TO.P,J2,5,Pin_5*%
%TO.N,+5V*%
X129540000Y-110650000D03*
%TD*%
D14*
%TO.P,I2C_SCL1,1,1*%
%TO.N,I2C_SCL*%
X142748000Y-96520000D03*
%TD*%
D15*
%TO.P,J13,1,Pin_1*%
%TO.N,Xshut4*%
X151130000Y-143510000D03*
D13*
%TO.P,J13,2,Pin_2*%
%TO.N,I2C_SDA*%
X151130000Y-146010000D03*
%TO.P,J13,3,Pin_3*%
%TO.N,I2C_SCL*%
X151130000Y-148510000D03*
%TO.P,J13,4,Pin_4*%
%TO.N,GND*%
X151130000Y-151010000D03*
%TO.P,J13,5,Pin_5*%
%TO.N,+5V*%
X151130000Y-153510000D03*
%TD*%
D15*
%TO.P,J11,1,Pin_1*%
%TO.N,Xshut2*%
X151130000Y-110490000D03*
D13*
%TO.P,J11,2,Pin_2*%
%TO.N,I2C_SDA*%
X151130000Y-112990000D03*
%TO.P,J11,3,Pin_3*%
%TO.N,I2C_SCL*%
X151130000Y-115490000D03*
%TO.P,J11,4,Pin_4*%
%TO.N,GND*%
X151130000Y-117990000D03*
%TO.P,J11,5,Pin_5*%
%TO.N,+5V*%
X151130000Y-120490000D03*
%TD*%
D16*
%TO.P,J7,1,Pin_1*%
%TO.N,Xshut5*%
X134874000Y-161290000D03*
D17*
%TO.P,J7,2,Pin_2*%
%TO.N,I2C_SDA*%
X137374000Y-161290000D03*
%TO.P,J7,3,Pin_3*%
%TO.N,I2C_SCL*%
X139874000Y-161290000D03*
%TO.P,J7,4,Pin_4*%
%TO.N,GND*%
X142374000Y-161290000D03*
%TO.P,J7,5,Pin_5*%
%TO.N,+5V*%
X144874000Y-161290000D03*
%TD*%
D14*
%TO.P,I2C_SDA1,1,1*%
%TO.N,I2C_SDA*%
X140050000Y-99568000D03*
%TD*%
D15*
%TO.P,J10,1,Pin_1*%
%TO.N,Xshut1*%
X151130000Y-93980000D03*
D13*
%TO.P,J10,2,Pin_2*%
%TO.N,I2C_SDA*%
X151130000Y-96480000D03*
%TO.P,J10,3,Pin_3*%
%TO.N,I2C_SCL*%
X151130000Y-98980000D03*
%TO.P,J10,4,Pin_4*%
%TO.N,GND*%
X151130000Y-101480000D03*
%TO.P,J10,5,Pin_5*%
%TO.N,+5V*%
X151130000Y-103980000D03*
%TD*%
D14*
%TO.P,GND1,1,1*%
%TO.N,GND*%
X133350000Y-91948000D03*
%TD*%
%TO.P,+5V1,1,1*%
%TO.N,+5V*%
X137160000Y-96520000D03*
%TD*%
D15*
%TO.P,J12,1,Pin_1*%
%TO.N,Xshut3*%
X151130000Y-127000000D03*
D13*
%TO.P,J12,2,Pin_2*%
%TO.N,I2C_SDA*%
X151130000Y-129500000D03*
%TO.P,J12,3,Pin_3*%
%TO.N,I2C_SCL*%
X151130000Y-132000000D03*
%TO.P,J12,4,Pin_4*%
%TO.N,GND*%
X151130000Y-134500000D03*
%TO.P,J12,5,Pin_5*%
%TO.N,+5V*%
X151130000Y-137000000D03*
%TD*%
D18*
%TO.P,J8,1,Pin_1*%
%TO.N,Xshut3*%
X145415000Y-110490000D03*
D11*
%TO.P,J8,2,Pin_2*%
%TO.N,Xshut2*%
X145415000Y-107990000D03*
%TO.P,J8,3,Pin_3*%
%TO.N,Xshut1*%
X145415000Y-105490000D03*
%TD*%
D18*
%TO.P,J6,1,Pin_1*%
%TO.N,Xshut5*%
X145000000Y-126960000D03*
D11*
%TO.P,J6,2,Pin_2*%
%TO.N,Xshut6*%
X145000000Y-124460000D03*
%TO.P,J6,3,Pin_3*%
%TO.N,Xshut4*%
X145000000Y-121960000D03*
%TD*%
D12*
%TO.P,J1,1,Pin_1*%
%TO.N,Xshut9*%
X129532500Y-104060000D03*
D13*
%TO.P,J1,2,Pin_2*%
%TO.N,I2C_SDA*%
X129532500Y-101560000D03*
%TO.P,J1,3,Pin_3*%
%TO.N,I2C_SCL*%
X129532500Y-99060000D03*
%TO.P,J1,4,Pin_4*%
%TO.N,GND*%
X129532500Y-96560000D03*
%TO.P,J1,5,Pin_5*%
%TO.N,+5V*%
X129532500Y-94060000D03*
%TD*%
D16*
%TO.P,J9,1,Pin_1*%
%TO.N,GND*%
X137160000Y-87884000D03*
D17*
%TO.P,J9,2,Pin_2*%
%TO.N,+5V*%
X139660000Y-87884000D03*
%TO.P,J9,3,Pin_3*%
%TO.N,I2C_SDA*%
X142160000Y-87884000D03*
%TO.P,J9,4,Pin_4*%
%TO.N,I2C_SCL*%
X144660000Y-87884000D03*
%TD*%
D12*
%TO.P,J4,1,Pin_1*%
%TO.N,Xshut6*%
X129540000Y-153670000D03*
D13*
%TO.P,J4,2,Pin_2*%
%TO.N,I2C_SDA*%
X129540000Y-151170000D03*
%TO.P,J4,3,Pin_3*%
%TO.N,I2C_SCL*%
X129540000Y-148670000D03*
%TO.P,J4,4,Pin_4*%
%TO.N,GND*%
X129540000Y-146170000D03*
%TO.P,J4,5,Pin_5*%
%TO.N,+5V*%
X129540000Y-143670000D03*
%TD*%
D12*
%TO.P,J3,1,Pin_1*%
%TO.N,Xshut7*%
X129540000Y-137000000D03*
D13*
%TO.P,J3,2,Pin_2*%
%TO.N,I2C_SDA*%
X129540000Y-134500000D03*
%TO.P,J3,3,Pin_3*%
%TO.N,I2C_SCL*%
X129540000Y-132000000D03*
%TO.P,J3,4,Pin_4*%
%TO.N,GND*%
X129540000Y-129500000D03*
%TO.P,J3,5,Pin_5*%
%TO.N,+5V*%
X129540000Y-127000000D03*
%TD*%
D19*
%TO.N,I2C_SDA*%
X140000000Y-145750000D03*
X140000000Y-150750000D03*
X140000000Y-113030000D03*
X140000000Y-118250000D03*
X140000000Y-96520000D03*
X140000000Y-102000000D03*
X140000000Y-129500000D03*
X139065000Y-156210000D03*
X140000000Y-134500000D03*
%TO.N,I2C_SCL*%
X142500000Y-94488000D03*
X142500000Y-99060000D03*
X142500000Y-148250000D03*
X142500000Y-132000000D03*
X142500000Y-156210000D03*
X142500000Y-115570000D03*
%TO.N,GND*%
X151500000Y-107000000D03*
X129000000Y-140000000D03*
X148000000Y-90000000D03*
X152000000Y-158000000D03*
X151500000Y-124000000D03*
X151500000Y-140500000D03*
X129000000Y-107000000D03*
X131000000Y-158000000D03*
X129500000Y-123500000D03*
X133500000Y-88500000D03*
%TO.N,+5V*%
X137500000Y-137000000D03*
X137500000Y-113665000D03*
X137500000Y-93980000D03*
X137500000Y-120750000D03*
X137795000Y-153670000D03*
X137500000Y-127000000D03*
X137500000Y-104140000D03*
X137500000Y-143250000D03*
%TO.N,Xshut8*%
X132080000Y-107950000D03*
X132080000Y-120650000D03*
%TO.N,Xshut7*%
X134620000Y-137000000D03*
X134620000Y-112395000D03*
%TO.N,Xshut6*%
X132080000Y-153670000D03*
X132080000Y-124460000D03*
%TO.N,Xshut5*%
X135000000Y-158115000D03*
%TO.N,Xshut4*%
X148590000Y-143510000D03*
X148824951Y-122147972D03*
%TO.N,Xshut3*%
X147320000Y-110490000D03*
X147320000Y-127000000D03*
%TO.N,Xshut1*%
X147320000Y-94234000D03*
X147320000Y-105410000D03*
%TD*%
D20*
%TO.N,I2C_SDA*%
X140000000Y-113030000D02*
X140000000Y-155275000D01*
X140000000Y-113030000D02*
X140000000Y-102000000D01*
X140000000Y-155275000D02*
X139065000Y-156210000D01*
X140000000Y-102000000D02*
X140000000Y-96520000D01*
%TO.N,I2C_SCL*%
X142500000Y-94488000D02*
X142500000Y-156210000D01*
%TO.N,+5V*%
X137500000Y-113665000D02*
X137500000Y-104140000D01*
X137500000Y-104140000D02*
X137500000Y-93980000D01*
X137500000Y-113665000D02*
X137500000Y-153375000D01*
X137500000Y-153375000D02*
X137795000Y-153670000D01*
%TO.N,Xshut8*%
X132080000Y-107950000D02*
X132080000Y-120650000D01*
%TO.N,Xshut7*%
X134620000Y-137000000D02*
X134620000Y-112395000D01*
%TO.N,Xshut6*%
X132080000Y-124460000D02*
X132080000Y-153670000D01*
%TO.N,Xshut5*%
X143510000Y-158115000D02*
X145000000Y-156625000D01*
X145000000Y-156625000D02*
X145000000Y-126960000D01*
X135000000Y-158115000D02*
X143510000Y-158115000D01*
%TO.N,Xshut4*%
X148824951Y-122147972D02*
X148844000Y-122167021D01*
X148590000Y-129540000D02*
X148590000Y-143510000D01*
X148844000Y-122167021D02*
X148844000Y-129286000D01*
X148844000Y-129286000D02*
X148590000Y-129540000D01*
%TO.N,Xshut3*%
X147320000Y-127000000D02*
X147320000Y-110490000D01*
%TO.N,Xshut1*%
X147320000Y-105410000D02*
X147320000Y-94234000D01*
%TD*%
%TA.AperFunction,Conductor*%
%TO.N,GND*%
G36*
X150337061Y-85528002D02*
G01*
X150383554Y-85581658D01*
X150393658Y-85651932D01*
X150364164Y-85716512D01*
X150341391Y-85737087D01*
X150169977Y-85857559D01*
X150154892Y-85871577D01*
X149991999Y-86022947D01*
X149959378Y-86053260D01*
X149777287Y-86275732D01*
X149627073Y-86520858D01*
X149511517Y-86784102D01*
X149510342Y-86788229D01*
X149510341Y-86788230D01*
X149498318Y-86830438D01*
X149432756Y-87060594D01*
X149392249Y-87345216D01*
X149392227Y-87349505D01*
X149392226Y-87349512D01*
X149390765Y-87628417D01*
X149390743Y-87632703D01*
X149428268Y-87917734D01*
X149504129Y-88195036D01*
X149616923Y-88459476D01*
X149691473Y-88584040D01*
X149721748Y-88634625D01*
X149764561Y-88706161D01*
X149944313Y-88930528D01*
X150152851Y-89128423D01*
X150386317Y-89296186D01*
X150390112Y-89298195D01*
X150390113Y-89298196D01*
X150409230Y-89308318D01*
X150640392Y-89430712D01*
X150679906Y-89445172D01*
X150844006Y-89505224D01*
X150910373Y-89529511D01*
X151191264Y-89590755D01*
X151219841Y-89593004D01*
X151414282Y-89608307D01*
X151414291Y-89608307D01*
X151416739Y-89608500D01*
X151572271Y-89608500D01*
X151574407Y-89608354D01*
X151574418Y-89608354D01*
X151782548Y-89594165D01*
X151782554Y-89594164D01*
X151786825Y-89593873D01*
X151791020Y-89593004D01*
X151791022Y-89593004D01*
X151927584Y-89564723D01*
X152068342Y-89535574D01*
X152339343Y-89439607D01*
X152594812Y-89307750D01*
X152598313Y-89305289D01*
X152598317Y-89305287D01*
X152747009Y-89200784D01*
X152830023Y-89142441D01*
X153040622Y-88946740D01*
X153222713Y-88724268D01*
X153224948Y-88720621D01*
X153224960Y-88720604D01*
X153258568Y-88665760D01*
X153311215Y-88618129D01*
X153381257Y-88606522D01*
X153446454Y-88634625D01*
X153486108Y-88693516D01*
X153492000Y-88731595D01*
X153492000Y-160266636D01*
X153471998Y-160334757D01*
X153418342Y-160381250D01*
X153348068Y-160391354D01*
X153283488Y-160361860D01*
X153257884Y-160331342D01*
X153237643Y-160297521D01*
X153237640Y-160297517D01*
X153235439Y-160293839D01*
X153055687Y-160069472D01*
X152915381Y-159936327D01*
X152850258Y-159874527D01*
X152850255Y-159874525D01*
X152847149Y-159871577D01*
X152613683Y-159703814D01*
X152591843Y-159692250D01*
X152568654Y-159679972D01*
X152359608Y-159569288D01*
X152089627Y-159470489D01*
X151808736Y-159409245D01*
X151773844Y-159406499D01*
X151585718Y-159391693D01*
X151585709Y-159391693D01*
X151583261Y-159391500D01*
X151427729Y-159391500D01*
X151425593Y-159391646D01*
X151425582Y-159391646D01*
X151217452Y-159405835D01*
X151217446Y-159405836D01*
X151213175Y-159406127D01*
X151208980Y-159406996D01*
X151208978Y-159406996D01*
X151105149Y-159428498D01*
X150931658Y-159464426D01*
X150660657Y-159560393D01*
X150615932Y-159583477D01*
X150415643Y-159686854D01*
X150405188Y-159692250D01*
X150401687Y-159694711D01*
X150401683Y-159694713D01*
X150287583Y-159774904D01*
X150169977Y-159857559D01*
X150154892Y-159871577D01*
X149982117Y-160032130D01*
X149959378Y-160053260D01*
X149777287Y-160275732D01*
X149627073Y-160520858D01*
X149511517Y-160784102D01*
X149510342Y-160788229D01*
X149510341Y-160788230D01*
X149497084Y-160834770D01*
X149432756Y-161060594D01*
X149392249Y-161345216D01*
X149392227Y-161349505D01*
X149392226Y-161349512D01*
X149390765Y-161628417D01*
X149390743Y-161632703D01*
X149428268Y-161917734D01*
X149504129Y-162195036D01*
X149505813Y-162198984D01*
X149611246Y-162446166D01*
X149616923Y-162459476D01*
X149628693Y-162479142D01*
X149727163Y-162643673D01*
X149764561Y-162706161D01*
X149944313Y-162930528D01*
X150152851Y-163128423D01*
X150329211Y-163255151D01*
X150341078Y-163263678D01*
X150384726Y-163319672D01*
X150391172Y-163390376D01*
X150358369Y-163453340D01*
X150296733Y-163488574D01*
X150267552Y-163492000D01*
X130731060Y-163492000D01*
X130662939Y-163471998D01*
X130616446Y-163418342D01*
X130606342Y-163348068D01*
X130635836Y-163283488D01*
X130658609Y-163262913D01*
X130730670Y-163212268D01*
X130830023Y-163142441D01*
X130936766Y-163043249D01*
X131037479Y-162949661D01*
X131037481Y-162949658D01*
X131040622Y-162946740D01*
X131222713Y-162724268D01*
X131372927Y-162479142D01*
X131384533Y-162452704D01*
X131486757Y-162219830D01*
X131488483Y-162215898D01*
X131567244Y-161939406D01*
X131607751Y-161654784D01*
X131607845Y-161636951D01*
X131609235Y-161371583D01*
X131609235Y-161371576D01*
X131609257Y-161367297D01*
X131571732Y-161082266D01*
X131495871Y-160804964D01*
X131383077Y-160540524D01*
X131288125Y-160381871D01*
X131237643Y-160297521D01*
X131237640Y-160297517D01*
X131235439Y-160293839D01*
X131055687Y-160069472D01*
X130915381Y-159936327D01*
X130850258Y-159874527D01*
X130850255Y-159874525D01*
X130847149Y-159871577D01*
X130613683Y-159703814D01*
X130591843Y-159692250D01*
X130568654Y-159679972D01*
X130359608Y-159569288D01*
X130089627Y-159470489D01*
X129808736Y-159409245D01*
X129773844Y-159406499D01*
X129585718Y-159391693D01*
X129585709Y-159391693D01*
X129583261Y-159391500D01*
X129427729Y-159391500D01*
X129425593Y-159391646D01*
X129425582Y-159391646D01*
X129217452Y-159405835D01*
X129217446Y-159405836D01*
X129213175Y-159406127D01*
X129208980Y-159406996D01*
X129208978Y-159406996D01*
X129105149Y-159428498D01*
X128931658Y-159464426D01*
X128660657Y-159560393D01*
X128615932Y-159583477D01*
X128415643Y-159686854D01*
X128405188Y-159692250D01*
X128401687Y-159694711D01*
X128401683Y-159694713D01*
X128287583Y-159774904D01*
X128169977Y-159857559D01*
X128154892Y-159871577D01*
X127982117Y-160032130D01*
X127959378Y-160053260D01*
X127777287Y-160275732D01*
X127775052Y-160279379D01*
X127775040Y-160279396D01*
X127741432Y-160334240D01*
X127688785Y-160381871D01*
X127618743Y-160393478D01*
X127553546Y-160365375D01*
X127513892Y-160306484D01*
X127508000Y-160268405D01*
X127508000Y-151105774D01*
X127778102Y-151105774D01*
X127778302Y-151111103D01*
X127778302Y-151111105D01*
X127780279Y-151163755D01*
X127786751Y-151336158D01*
X127834093Y-151561791D01*
X127836051Y-151566750D01*
X127836052Y-151566752D01*
X127857303Y-151620561D01*
X127918776Y-151776221D01*
X128038377Y-151973317D01*
X128041874Y-151977347D01*
X128181941Y-152138760D01*
X128189477Y-152147445D01*
X128225120Y-152176670D01*
X128265114Y-152235329D01*
X128267046Y-152306299D01*
X128230302Y-152367048D01*
X128211532Y-152381248D01*
X128109382Y-152444461D01*
X128065652Y-152471522D01*
X127940695Y-152596697D01*
X127936855Y-152602927D01*
X127936854Y-152602928D01*
X127870088Y-152711243D01*
X127847885Y-152747262D01*
X127792203Y-152915139D01*
X127781500Y-153019600D01*
X127781500Y-154320400D01*
X127781837Y-154323646D01*
X127781837Y-154323650D01*
X127791534Y-154417103D01*
X127792474Y-154426166D01*
X127794655Y-154432702D01*
X127794655Y-154432704D01*
X127834682Y-154552679D01*
X127848450Y-154593946D01*
X127941522Y-154744348D01*
X128066697Y-154869305D01*
X128072927Y-154873145D01*
X128072928Y-154873146D01*
X128210090Y-154957694D01*
X128217262Y-154962115D01*
X128258268Y-154975716D01*
X128378611Y-155015632D01*
X128378613Y-155015632D01*
X128385139Y-155017797D01*
X128391975Y-155018497D01*
X128391978Y-155018498D01*
X128435031Y-155022909D01*
X128489600Y-155028500D01*
X130590400Y-155028500D01*
X130593646Y-155028163D01*
X130593650Y-155028163D01*
X130689308Y-155018238D01*
X130689312Y-155018237D01*
X130696166Y-155017526D01*
X130702702Y-155015345D01*
X130702704Y-155015345D01*
X130855029Y-154964525D01*
X130863946Y-154961550D01*
X131014348Y-154868478D01*
X131139305Y-154743303D01*
X131140451Y-154744447D01*
X131191254Y-154708426D01*
X131262177Y-154705192D01*
X131304491Y-154724366D01*
X131423251Y-154807523D01*
X131428233Y-154809846D01*
X131428238Y-154809849D01*
X131625775Y-154901961D01*
X131630757Y-154904284D01*
X131636065Y-154905706D01*
X131636067Y-154905707D01*
X131846598Y-154962119D01*
X131846600Y-154962119D01*
X131851913Y-154963543D01*
X132080000Y-154983498D01*
X132308087Y-154963543D01*
X132313400Y-154962119D01*
X132313402Y-154962119D01*
X132523933Y-154905707D01*
X132523935Y-154905706D01*
X132529243Y-154904284D01*
X132534225Y-154901961D01*
X132731762Y-154809849D01*
X132731767Y-154809846D01*
X132736749Y-154807523D01*
X132878274Y-154708426D01*
X132919789Y-154679357D01*
X132919792Y-154679355D01*
X132924300Y-154676198D01*
X133086198Y-154514300D01*
X133217523Y-154326749D01*
X133219846Y-154321767D01*
X133219849Y-154321762D01*
X133311961Y-154124225D01*
X133311961Y-154124224D01*
X133314284Y-154119243D01*
X133373543Y-153898087D01*
X133393498Y-153670000D01*
X133373543Y-153441913D01*
X133314284Y-153220757D01*
X133268899Y-153123428D01*
X133219849Y-153018238D01*
X133219846Y-153018233D01*
X133217523Y-153013251D01*
X133111287Y-152861531D01*
X133088500Y-152789260D01*
X133088500Y-137297085D01*
X133108502Y-137228964D01*
X133162158Y-137182471D01*
X133232432Y-137172367D01*
X133297012Y-137201861D01*
X133336207Y-137264474D01*
X133385716Y-137449243D01*
X133388039Y-137454224D01*
X133388039Y-137454225D01*
X133480151Y-137651762D01*
X133480154Y-137651767D01*
X133482477Y-137656749D01*
X133613802Y-137844300D01*
X133775700Y-138006198D01*
X133780208Y-138009355D01*
X133780211Y-138009357D01*
X133805674Y-138027186D01*
X133963251Y-138137523D01*
X133968233Y-138139846D01*
X133968238Y-138139849D01*
X134165775Y-138231961D01*
X134170757Y-138234284D01*
X134176065Y-138235706D01*
X134176067Y-138235707D01*
X134386598Y-138292119D01*
X134386600Y-138292119D01*
X134391913Y-138293543D01*
X134620000Y-138313498D01*
X134848087Y-138293543D01*
X134853400Y-138292119D01*
X134853402Y-138292119D01*
X135063933Y-138235707D01*
X135063935Y-138235706D01*
X135069243Y-138234284D01*
X135074225Y-138231961D01*
X135271762Y-138139849D01*
X135271767Y-138139846D01*
X135276749Y-138137523D01*
X135434326Y-138027186D01*
X135459789Y-138009357D01*
X135459792Y-138009355D01*
X135464300Y-138006198D01*
X135626198Y-137844300D01*
X135757523Y-137656749D01*
X135759846Y-137651767D01*
X135759849Y-137651762D01*
X135851961Y-137454225D01*
X135851961Y-137454224D01*
X135854284Y-137449243D01*
X135913543Y-137228087D01*
X135933498Y-137000000D01*
X135913543Y-136771913D01*
X135871077Y-136613428D01*
X135855707Y-136556067D01*
X135855706Y-136556065D01*
X135854284Y-136550757D01*
X135783400Y-136398744D01*
X135759849Y-136348238D01*
X135759846Y-136348233D01*
X135757523Y-136343251D01*
X135651287Y-136191531D01*
X135628500Y-136119260D01*
X135628500Y-113275740D01*
X135651287Y-113203469D01*
X135754366Y-113056257D01*
X135757523Y-113051749D01*
X135759846Y-113046767D01*
X135759849Y-113046762D01*
X135851961Y-112849225D01*
X135851961Y-112849224D01*
X135854284Y-112844243D01*
X135859712Y-112823988D01*
X135912119Y-112628402D01*
X135912119Y-112628400D01*
X135913543Y-112623087D01*
X135933498Y-112395000D01*
X135913543Y-112166913D01*
X135912119Y-112161598D01*
X135855707Y-111951067D01*
X135855706Y-111951065D01*
X135854284Y-111945757D01*
X135849735Y-111936001D01*
X135808273Y-111847084D01*
X135797612Y-111776893D01*
X135826592Y-111712080D01*
X135870718Y-111678953D01*
X136038202Y-111603507D01*
X136043075Y-111601312D01*
X136234319Y-111472559D01*
X136238177Y-111468879D01*
X136238184Y-111468873D01*
X136278529Y-111430386D01*
X136341625Y-111397839D01*
X136412302Y-111404571D01*
X136468119Y-111448445D01*
X136491500Y-111521556D01*
X136491500Y-112784260D01*
X136468713Y-112856531D01*
X136362477Y-113008251D01*
X136360154Y-113013233D01*
X136360151Y-113013238D01*
X136271446Y-113203469D01*
X136265716Y-113215757D01*
X136264294Y-113221065D01*
X136264293Y-113221067D01*
X136211369Y-113418580D01*
X136206457Y-113436913D01*
X136186502Y-113665000D01*
X136206457Y-113893087D01*
X136207881Y-113898400D01*
X136207881Y-113898402D01*
X136225301Y-113963412D01*
X136265716Y-114114243D01*
X136268039Y-114119224D01*
X136268039Y-114119225D01*
X136360151Y-114316762D01*
X136360154Y-114316767D01*
X136362477Y-114321749D01*
X136425899Y-114412325D01*
X136468713Y-114473469D01*
X136491500Y-114545740D01*
X136491500Y-119869260D01*
X136468713Y-119941531D01*
X136362477Y-120093251D01*
X136360154Y-120098233D01*
X136360151Y-120098238D01*
X136312346Y-120200757D01*
X136265716Y-120300757D01*
X136264294Y-120306065D01*
X136264293Y-120306067D01*
X136231527Y-120428352D01*
X136206457Y-120521913D01*
X136186502Y-120750000D01*
X136206457Y-120978087D01*
X136207881Y-120983400D01*
X136207881Y-120983402D01*
X136228635Y-121060854D01*
X136265716Y-121199243D01*
X136268039Y-121204224D01*
X136268039Y-121204225D01*
X136360151Y-121401762D01*
X136360154Y-121401767D01*
X136362477Y-121406749D01*
X136365634Y-121411257D01*
X136468713Y-121558469D01*
X136491500Y-121630740D01*
X136491500Y-126119260D01*
X136468713Y-126191531D01*
X136362477Y-126343251D01*
X136360154Y-126348233D01*
X136360151Y-126348238D01*
X136268039Y-126545775D01*
X136265716Y-126550757D01*
X136206457Y-126771913D01*
X136186502Y-127000000D01*
X136206457Y-127228087D01*
X136207881Y-127233400D01*
X136207881Y-127233402D01*
X136250322Y-127391791D01*
X136265716Y-127449243D01*
X136268039Y-127454224D01*
X136268039Y-127454225D01*
X136360151Y-127651762D01*
X136360154Y-127651767D01*
X136362477Y-127656749D01*
X136431176Y-127754861D01*
X136468713Y-127808469D01*
X136491500Y-127880740D01*
X136491500Y-136119260D01*
X136468713Y-136191531D01*
X136362477Y-136343251D01*
X136360154Y-136348233D01*
X136360151Y-136348238D01*
X136336600Y-136398744D01*
X136265716Y-136550757D01*
X136264294Y-136556065D01*
X136264293Y-136556067D01*
X136248923Y-136613428D01*
X136206457Y-136771913D01*
X136186502Y-137000000D01*
X136206457Y-137228087D01*
X136265716Y-137449243D01*
X136268039Y-137454224D01*
X136268039Y-137454225D01*
X136360151Y-137651762D01*
X136360154Y-137651767D01*
X136362477Y-137656749D01*
X136408685Y-137722740D01*
X136468713Y-137808469D01*
X136491500Y-137880740D01*
X136491500Y-142369260D01*
X136468713Y-142441531D01*
X136362477Y-142593251D01*
X136360154Y-142598233D01*
X136360151Y-142598238D01*
X136290645Y-142747296D01*
X136265716Y-142800757D01*
X136206457Y-143021913D01*
X136186502Y-143250000D01*
X136206457Y-143478087D01*
X136265716Y-143699243D01*
X136268039Y-143704224D01*
X136268039Y-143704225D01*
X136360151Y-143901762D01*
X136360154Y-143901767D01*
X136362477Y-143906749D01*
X136462287Y-144049292D01*
X136468713Y-144058469D01*
X136491500Y-144130740D01*
X136491500Y-153313157D01*
X136490763Y-153326764D01*
X136488329Y-153349173D01*
X136486676Y-153364388D01*
X136487213Y-153370523D01*
X136491050Y-153414388D01*
X136491379Y-153419214D01*
X136491500Y-153421686D01*
X136491500Y-153424769D01*
X136491801Y-153427837D01*
X136495698Y-153467585D01*
X136495818Y-153468886D01*
X136496496Y-153476627D01*
X136496497Y-153498603D01*
X136481981Y-153664514D01*
X136481981Y-153664525D01*
X136481502Y-153670000D01*
X136501457Y-153898087D01*
X136560716Y-154119243D01*
X136563039Y-154124224D01*
X136563039Y-154124225D01*
X136655151Y-154321762D01*
X136655154Y-154321767D01*
X136657477Y-154326749D01*
X136788802Y-154514300D01*
X136950700Y-154676198D01*
X136955208Y-154679355D01*
X136955211Y-154679357D01*
X136996726Y-154708426D01*
X137138251Y-154807523D01*
X137143233Y-154809846D01*
X137143238Y-154809849D01*
X137340775Y-154901961D01*
X137345757Y-154904284D01*
X137351065Y-154905706D01*
X137351067Y-154905707D01*
X137561598Y-154962119D01*
X137561600Y-154962119D01*
X137566913Y-154963543D01*
X137795000Y-154983498D01*
X138023087Y-154963543D01*
X138028400Y-154962119D01*
X138028402Y-154962119D01*
X138208786Y-154913785D01*
X138279762Y-154915475D01*
X138338558Y-154955269D01*
X138366506Y-155020533D01*
X138354733Y-155090547D01*
X138313668Y-155138705D01*
X138225211Y-155200643D01*
X138225208Y-155200645D01*
X138220700Y-155203802D01*
X138058802Y-155365700D01*
X138055645Y-155370208D01*
X138055643Y-155370211D01*
X138033713Y-155401531D01*
X137927477Y-155553251D01*
X137925154Y-155558233D01*
X137925151Y-155558238D01*
X137833065Y-155755720D01*
X137830716Y-155760757D01*
X137829294Y-155766065D01*
X137829293Y-155766067D01*
X137807578Y-155847107D01*
X137771457Y-155981913D01*
X137751502Y-156210000D01*
X137771457Y-156438087D01*
X137772881Y-156443400D01*
X137772881Y-156443402D01*
X137822489Y-156628538D01*
X137830716Y-156659243D01*
X137833039Y-156664224D01*
X137833039Y-156664225D01*
X137925151Y-156861762D01*
X137925154Y-156861767D01*
X137927477Y-156866749D01*
X137956522Y-156908229D01*
X137979210Y-156975503D01*
X137961925Y-157044363D01*
X137910156Y-157092947D01*
X137853309Y-157106500D01*
X135880740Y-157106500D01*
X135808469Y-157083713D01*
X135766463Y-157054300D01*
X135656749Y-156977477D01*
X135651767Y-156975154D01*
X135651762Y-156975151D01*
X135454225Y-156883039D01*
X135454224Y-156883039D01*
X135449243Y-156880716D01*
X135443935Y-156879294D01*
X135443933Y-156879293D01*
X135233402Y-156822881D01*
X135233400Y-156822881D01*
X135228087Y-156821457D01*
X135000000Y-156801502D01*
X134771913Y-156821457D01*
X134766600Y-156822881D01*
X134766598Y-156822881D01*
X134556067Y-156879293D01*
X134556065Y-156879294D01*
X134550757Y-156880716D01*
X134545776Y-156883039D01*
X134545775Y-156883039D01*
X134348238Y-156975151D01*
X134348233Y-156975154D01*
X134343251Y-156977477D01*
X134275380Y-157025001D01*
X134160211Y-157105643D01*
X134160208Y-157105645D01*
X134155700Y-157108802D01*
X133993802Y-157270700D01*
X133990645Y-157275208D01*
X133990643Y-157275211D01*
X133965878Y-157310579D01*
X133862477Y-157458251D01*
X133860154Y-157463233D01*
X133860151Y-157463238D01*
X133768039Y-157660775D01*
X133765716Y-157665757D01*
X133706457Y-157886913D01*
X133686502Y-158115000D01*
X133706457Y-158343087D01*
X133765716Y-158564243D01*
X133768039Y-158569224D01*
X133768039Y-158569225D01*
X133860151Y-158766762D01*
X133860154Y-158766767D01*
X133862477Y-158771749D01*
X133993802Y-158959300D01*
X134155700Y-159121198D01*
X134160208Y-159124355D01*
X134160211Y-159124357D01*
X134238389Y-159179098D01*
X134343251Y-159252523D01*
X134426420Y-159291305D01*
X134479705Y-159338222D01*
X134499166Y-159406499D01*
X134478624Y-159474459D01*
X134424602Y-159520525D01*
X134373170Y-159531500D01*
X134223600Y-159531500D01*
X134220354Y-159531837D01*
X134220350Y-159531837D01*
X134124692Y-159541762D01*
X134124688Y-159541763D01*
X134117834Y-159542474D01*
X134111298Y-159544655D01*
X134111296Y-159544655D01*
X133979194Y-159588728D01*
X133950054Y-159598450D01*
X133799652Y-159691522D01*
X133674695Y-159816697D01*
X133670855Y-159822927D01*
X133670854Y-159822928D01*
X133596466Y-159943608D01*
X133581885Y-159967262D01*
X133560472Y-160031822D01*
X133530432Y-160122390D01*
X133526203Y-160135139D01*
X133525503Y-160141975D01*
X133525502Y-160141978D01*
X133523884Y-160157768D01*
X133515500Y-160239600D01*
X133515500Y-162340400D01*
X133515837Y-162343646D01*
X133515837Y-162343650D01*
X133524875Y-162430752D01*
X133526474Y-162446166D01*
X133528655Y-162452702D01*
X133528655Y-162452704D01*
X133560405Y-162547870D01*
X133582450Y-162613946D01*
X133675522Y-162764348D01*
X133800697Y-162889305D01*
X133806927Y-162893145D01*
X133806928Y-162893146D01*
X133944090Y-162977694D01*
X133951262Y-162982115D01*
X133986938Y-162993948D01*
X134112611Y-163035632D01*
X134112613Y-163035632D01*
X134119139Y-163037797D01*
X134125975Y-163038497D01*
X134125978Y-163038498D01*
X134161663Y-163042154D01*
X134223600Y-163048500D01*
X135524400Y-163048500D01*
X135527646Y-163048163D01*
X135527650Y-163048163D01*
X135623308Y-163038238D01*
X135623312Y-163038237D01*
X135630166Y-163037526D01*
X135636702Y-163035345D01*
X135636704Y-163035345D01*
X135768806Y-162991272D01*
X135797946Y-162981550D01*
X135948348Y-162888478D01*
X136073305Y-162763303D01*
X136163081Y-162617660D01*
X136215852Y-162570168D01*
X136285924Y-162558744D01*
X136351048Y-162587018D01*
X136361510Y-162596805D01*
X136403215Y-162640523D01*
X136470576Y-162711135D01*
X136655542Y-162848754D01*
X136660293Y-162851170D01*
X136660297Y-162851172D01*
X136741254Y-162892332D01*
X136861051Y-162953240D01*
X136866145Y-162954822D01*
X136866148Y-162954823D01*
X137031583Y-163006192D01*
X137081227Y-163021607D01*
X137086516Y-163022308D01*
X137304489Y-163051198D01*
X137304494Y-163051198D01*
X137309774Y-163051898D01*
X137315103Y-163051698D01*
X137315105Y-163051698D01*
X137424966Y-163047574D01*
X137540158Y-163043249D01*
X137562802Y-163038498D01*
X137760572Y-162997002D01*
X137765791Y-162995907D01*
X137770750Y-162993949D01*
X137770752Y-162993948D01*
X137975256Y-162913185D01*
X137975258Y-162913184D01*
X137980221Y-162911224D01*
X137985525Y-162908006D01*
X138172757Y-162794390D01*
X138172756Y-162794390D01*
X138177317Y-162791623D01*
X138217134Y-162757072D01*
X138347412Y-162644023D01*
X138347414Y-162644021D01*
X138351445Y-162640523D01*
X138418500Y-162558744D01*
X138494240Y-162466373D01*
X138494244Y-162466367D01*
X138497624Y-162462245D01*
X138515552Y-162430750D01*
X138566632Y-162381445D01*
X138636262Y-162367583D01*
X138702333Y-162393566D01*
X138729573Y-162422716D01*
X138734983Y-162430752D01*
X138811441Y-162544319D01*
X138970576Y-162711135D01*
X139155542Y-162848754D01*
X139160293Y-162851170D01*
X139160297Y-162851172D01*
X139241254Y-162892332D01*
X139361051Y-162953240D01*
X139366145Y-162954822D01*
X139366148Y-162954823D01*
X139531583Y-163006192D01*
X139581227Y-163021607D01*
X139586516Y-163022308D01*
X139804489Y-163051198D01*
X139804494Y-163051198D01*
X139809774Y-163051898D01*
X139815103Y-163051698D01*
X139815105Y-163051698D01*
X139924966Y-163047574D01*
X140040158Y-163043249D01*
X140062802Y-163038498D01*
X140260572Y-162997002D01*
X140265791Y-162995907D01*
X140270750Y-162993949D01*
X140270752Y-162993948D01*
X140475256Y-162913185D01*
X140475258Y-162913184D01*
X140480221Y-162911224D01*
X140485525Y-162908006D01*
X140672757Y-162794390D01*
X140672756Y-162794390D01*
X140677317Y-162791623D01*
X140717134Y-162757072D01*
X140847412Y-162644023D01*
X140847414Y-162644021D01*
X140851445Y-162640523D01*
X140918500Y-162558744D01*
X140994240Y-162466373D01*
X140994244Y-162466367D01*
X140997624Y-162462245D01*
X141010681Y-162439308D01*
X141015829Y-162430265D01*
X141066912Y-162380959D01*
X141136542Y-162367098D01*
X141202613Y-162393082D01*
X141229851Y-162422232D01*
X141308852Y-162539578D01*
X141315519Y-162547870D01*
X141467228Y-162706900D01*
X141475186Y-162713941D01*
X141651525Y-162845141D01*
X141660562Y-162850745D01*
X141856484Y-162950357D01*
X141866335Y-162954357D01*
X142076240Y-163019534D01*
X142086624Y-163021817D01*
X142102043Y-163023861D01*
X142116207Y-163021665D01*
X142120000Y-163008478D01*
X142120000Y-163006192D01*
X142628000Y-163006192D01*
X142631973Y-163019723D01*
X142642580Y-163021248D01*
X142760421Y-162996523D01*
X142770617Y-162993463D01*
X142975029Y-162912737D01*
X142984561Y-162908006D01*
X143172462Y-162793984D01*
X143181052Y-162787720D01*
X143347052Y-162643673D01*
X143354472Y-162636042D01*
X143493826Y-162466089D01*
X143499848Y-162457326D01*
X143515238Y-162430289D01*
X143566320Y-162380982D01*
X143635951Y-162367120D01*
X143702022Y-162393103D01*
X143729261Y-162422253D01*
X143758773Y-162466089D01*
X143811441Y-162544319D01*
X143970576Y-162711135D01*
X144155542Y-162848754D01*
X144160293Y-162851170D01*
X144160297Y-162851172D01*
X144241254Y-162892332D01*
X144361051Y-162953240D01*
X144366145Y-162954822D01*
X144366148Y-162954823D01*
X144531583Y-163006192D01*
X144581227Y-163021607D01*
X144586516Y-163022308D01*
X144804489Y-163051198D01*
X144804494Y-163051198D01*
X144809774Y-163051898D01*
X144815103Y-163051698D01*
X144815105Y-163051698D01*
X144924966Y-163047574D01*
X145040158Y-163043249D01*
X145062802Y-163038498D01*
X145260572Y-162997002D01*
X145265791Y-162995907D01*
X145270750Y-162993949D01*
X145270752Y-162993948D01*
X145475256Y-162913185D01*
X145475258Y-162913184D01*
X145480221Y-162911224D01*
X145485525Y-162908006D01*
X145672757Y-162794390D01*
X145672756Y-162794390D01*
X145677317Y-162791623D01*
X145717134Y-162757072D01*
X145847412Y-162644023D01*
X145847414Y-162644021D01*
X145851445Y-162640523D01*
X145918500Y-162558744D01*
X145994240Y-162466373D01*
X145994244Y-162466367D01*
X145997624Y-162462245D01*
X146015815Y-162430289D01*
X146109032Y-162266529D01*
X146111675Y-162261886D01*
X146190337Y-162045175D01*
X146198506Y-162000000D01*
X146230623Y-161822392D01*
X146230624Y-161822385D01*
X146231361Y-161818308D01*
X146232500Y-161794156D01*
X146232500Y-160832110D01*
X146217920Y-160660280D01*
X146216582Y-160655125D01*
X146216581Y-160655119D01*
X146161343Y-160442297D01*
X146161342Y-160442293D01*
X146160001Y-160437128D01*
X146139382Y-160391354D01*
X146067507Y-160231798D01*
X146065312Y-160226925D01*
X145936559Y-160035681D01*
X145877918Y-159974209D01*
X145848725Y-159943608D01*
X145777424Y-159868865D01*
X145592458Y-159731246D01*
X145587707Y-159728830D01*
X145587703Y-159728828D01*
X145469588Y-159668776D01*
X145386949Y-159626760D01*
X145381855Y-159625178D01*
X145381852Y-159625177D01*
X145181980Y-159563115D01*
X145166773Y-159558393D01*
X145161484Y-159557692D01*
X144943511Y-159528802D01*
X144943506Y-159528802D01*
X144938226Y-159528102D01*
X144932897Y-159528302D01*
X144932895Y-159528302D01*
X144823034Y-159532427D01*
X144707842Y-159536751D01*
X144702623Y-159537846D01*
X144680566Y-159542474D01*
X144482209Y-159584093D01*
X144477250Y-159586051D01*
X144477248Y-159586052D01*
X144272744Y-159666815D01*
X144272742Y-159666816D01*
X144267779Y-159668776D01*
X144263220Y-159671543D01*
X144263217Y-159671544D01*
X144168113Y-159729255D01*
X144070683Y-159788377D01*
X144066653Y-159791874D01*
X143971404Y-159874527D01*
X143896555Y-159939477D01*
X143893168Y-159943608D01*
X143753760Y-160113627D01*
X143753756Y-160113633D01*
X143750376Y-160117755D01*
X143747738Y-160122390D01*
X143747733Y-160122398D01*
X143732171Y-160149735D01*
X143681088Y-160199041D01*
X143611458Y-160212902D01*
X143545387Y-160186918D01*
X143518149Y-160157768D01*
X143439148Y-160040422D01*
X143432481Y-160032130D01*
X143280772Y-159873100D01*
X143272814Y-159866059D01*
X143096475Y-159734859D01*
X143087438Y-159729255D01*
X142891516Y-159629643D01*
X142881665Y-159625643D01*
X142671760Y-159560466D01*
X142661376Y-159558183D01*
X142645957Y-159556139D01*
X142631793Y-159558335D01*
X142628000Y-159571522D01*
X142628000Y-163006192D01*
X142120000Y-163006192D01*
X142120000Y-159573808D01*
X142116027Y-159560277D01*
X142105420Y-159558752D01*
X141987579Y-159583477D01*
X141977383Y-159586537D01*
X141772971Y-159667263D01*
X141763439Y-159671994D01*
X141575538Y-159786016D01*
X141566948Y-159792280D01*
X141400948Y-159936327D01*
X141393528Y-159943958D01*
X141254174Y-160113911D01*
X141248152Y-160122674D01*
X141232762Y-160149711D01*
X141181680Y-160199018D01*
X141112049Y-160212880D01*
X141045978Y-160186897D01*
X141018739Y-160157747D01*
X140946427Y-160050339D01*
X140936559Y-160035681D01*
X140877918Y-159974209D01*
X140848725Y-159943608D01*
X140777424Y-159868865D01*
X140592458Y-159731246D01*
X140587707Y-159728830D01*
X140587703Y-159728828D01*
X140469588Y-159668776D01*
X140386949Y-159626760D01*
X140381855Y-159625178D01*
X140381852Y-159625177D01*
X140181980Y-159563115D01*
X140166773Y-159558393D01*
X140161484Y-159557692D01*
X139943511Y-159528802D01*
X139943506Y-159528802D01*
X139938226Y-159528102D01*
X139932897Y-159528302D01*
X139932895Y-159528302D01*
X139823034Y-159532427D01*
X139707842Y-159536751D01*
X139702623Y-159537846D01*
X139680566Y-159542474D01*
X139482209Y-159584093D01*
X139477250Y-159586051D01*
X139477248Y-159586052D01*
X139272744Y-159666815D01*
X139272742Y-159666816D01*
X139267779Y-159668776D01*
X139263220Y-159671543D01*
X139263217Y-159671544D01*
X139168113Y-159729255D01*
X139070683Y-159788377D01*
X139066653Y-159791874D01*
X138971404Y-159874527D01*
X138896555Y-159939477D01*
X138893168Y-159943608D01*
X138753760Y-160113627D01*
X138753756Y-160113633D01*
X138750376Y-160117755D01*
X138732448Y-160149250D01*
X138681368Y-160198555D01*
X138611738Y-160212417D01*
X138545667Y-160186434D01*
X138518427Y-160157284D01*
X138491814Y-160117755D01*
X138436559Y-160035681D01*
X138377918Y-159974209D01*
X138348725Y-159943608D01*
X138277424Y-159868865D01*
X138092458Y-159731246D01*
X138087707Y-159728830D01*
X138087703Y-159728828D01*
X137969588Y-159668776D01*
X137886949Y-159626760D01*
X137881855Y-159625178D01*
X137881852Y-159625177D01*
X137681980Y-159563115D01*
X137666773Y-159558393D01*
X137661484Y-159557692D01*
X137443511Y-159528802D01*
X137443506Y-159528802D01*
X137438226Y-159528102D01*
X137432897Y-159528302D01*
X137432895Y-159528302D01*
X137323034Y-159532427D01*
X137207842Y-159536751D01*
X137202623Y-159537846D01*
X137180566Y-159542474D01*
X136982209Y-159584093D01*
X136977250Y-159586051D01*
X136977248Y-159586052D01*
X136772744Y-159666815D01*
X136772742Y-159666816D01*
X136767779Y-159668776D01*
X136763220Y-159671543D01*
X136763217Y-159671544D01*
X136668113Y-159729255D01*
X136570683Y-159788377D01*
X136566653Y-159791874D01*
X136471404Y-159874527D01*
X136396555Y-159939477D01*
X136367330Y-159975120D01*
X136308671Y-160015114D01*
X136237701Y-160017046D01*
X136176952Y-159980302D01*
X136162752Y-159961532D01*
X136076332Y-159821880D01*
X136072478Y-159815652D01*
X135947303Y-159690695D01*
X135916965Y-159671994D01*
X135802968Y-159601725D01*
X135802966Y-159601724D01*
X135796738Y-159597885D01*
X135683923Y-159560466D01*
X135635389Y-159544368D01*
X135635387Y-159544368D01*
X135628861Y-159542203D01*
X135622025Y-159541503D01*
X135622022Y-159541502D01*
X135596694Y-159538907D01*
X135530967Y-159512065D01*
X135490186Y-159453950D01*
X135487298Y-159383012D01*
X135523220Y-159321774D01*
X135556289Y-159299368D01*
X135651758Y-159254851D01*
X135651764Y-159254847D01*
X135656749Y-159252523D01*
X135808469Y-159146287D01*
X135880740Y-159123500D01*
X143448157Y-159123500D01*
X143461764Y-159124237D01*
X143493262Y-159127659D01*
X143493267Y-159127659D01*
X143499388Y-159128324D01*
X143525638Y-159126027D01*
X143549388Y-159123950D01*
X143554214Y-159123621D01*
X143556686Y-159123500D01*
X143559769Y-159123500D01*
X143571738Y-159122326D01*
X143602506Y-159119310D01*
X143603819Y-159119188D01*
X143648084Y-159115315D01*
X143696413Y-159111087D01*
X143701532Y-159109600D01*
X143706833Y-159109080D01*
X143795834Y-159082209D01*
X143796967Y-159081874D01*
X143880414Y-159057630D01*
X143880418Y-159057628D01*
X143886336Y-159055909D01*
X143891068Y-159053456D01*
X143896169Y-159051916D01*
X143901612Y-159049022D01*
X143978260Y-159008269D01*
X143979426Y-159007657D01*
X144056453Y-158967729D01*
X144061926Y-158964892D01*
X144066089Y-158961569D01*
X144070796Y-158959066D01*
X144142918Y-158900245D01*
X144143774Y-158899554D01*
X144182973Y-158868262D01*
X144185477Y-158865758D01*
X144186195Y-158865116D01*
X144190528Y-158861415D01*
X144224062Y-158834065D01*
X144253288Y-158798737D01*
X144261277Y-158789958D01*
X145669379Y-157381855D01*
X145679522Y-157372753D01*
X145704218Y-157352897D01*
X145709025Y-157349032D01*
X145741292Y-157310578D01*
X145744472Y-157306931D01*
X145746115Y-157305119D01*
X145748309Y-157302925D01*
X145775642Y-157269651D01*
X145776348Y-157268800D01*
X145832195Y-157202244D01*
X145836154Y-157197526D01*
X145838722Y-157192856D01*
X145842103Y-157188739D01*
X145882875Y-157112699D01*
X145885977Y-157106914D01*
X145886606Y-157105755D01*
X145928462Y-157029619D01*
X145928465Y-157029611D01*
X145931433Y-157024213D01*
X145933045Y-157019131D01*
X145935562Y-157014437D01*
X145962762Y-156925469D01*
X145963108Y-156924358D01*
X145981384Y-156866749D01*
X145991235Y-156835694D01*
X145991829Y-156830398D01*
X145993387Y-156825302D01*
X146002790Y-156732743D01*
X146002911Y-156731607D01*
X146008500Y-156681773D01*
X146008500Y-156678246D01*
X146008555Y-156677261D01*
X146009002Y-156671581D01*
X146013374Y-156628538D01*
X146009059Y-156582891D01*
X146008500Y-156571033D01*
X146008500Y-153445774D01*
X149368102Y-153445774D01*
X149368302Y-153451103D01*
X149368302Y-153451105D01*
X149368970Y-153468886D01*
X149376751Y-153676158D01*
X149424093Y-153901791D01*
X149508776Y-154116221D01*
X149628377Y-154313317D01*
X149631874Y-154317347D01*
X149718438Y-154417103D01*
X149779477Y-154487445D01*
X149807146Y-154510132D01*
X149953627Y-154630240D01*
X149953633Y-154630244D01*
X149957755Y-154633624D01*
X149962391Y-154636263D01*
X149962394Y-154636265D01*
X150032547Y-154676198D01*
X150158114Y-154747675D01*
X150374825Y-154826337D01*
X150380074Y-154827286D01*
X150380077Y-154827287D01*
X150597608Y-154866623D01*
X150597615Y-154866624D01*
X150601692Y-154867361D01*
X150619414Y-154868197D01*
X150624356Y-154868430D01*
X150624363Y-154868430D01*
X150625844Y-154868500D01*
X151587890Y-154868500D01*
X151654809Y-154862822D01*
X151754409Y-154854371D01*
X151754413Y-154854370D01*
X151759720Y-154853920D01*
X151764875Y-154852582D01*
X151764881Y-154852581D01*
X151977703Y-154797343D01*
X151977707Y-154797342D01*
X151982872Y-154796001D01*
X151987738Y-154793809D01*
X151987741Y-154793808D01*
X152134629Y-154727640D01*
X152193075Y-154701312D01*
X152384319Y-154572559D01*
X152551135Y-154413424D01*
X152688754Y-154228458D01*
X152703085Y-154200272D01*
X152790822Y-154027704D01*
X152793240Y-154022949D01*
X152829321Y-153906752D01*
X152860024Y-153807871D01*
X152861607Y-153802773D01*
X152862308Y-153797484D01*
X152891198Y-153579511D01*
X152891198Y-153579506D01*
X152891898Y-153574226D01*
X152883249Y-153343842D01*
X152835907Y-153118209D01*
X152796964Y-153019600D01*
X152753185Y-152908744D01*
X152753184Y-152908742D01*
X152751224Y-152903779D01*
X152703845Y-152825700D01*
X152634390Y-152711243D01*
X152631623Y-152706683D01*
X152544755Y-152606576D01*
X152484023Y-152536588D01*
X152484021Y-152536586D01*
X152480523Y-152532555D01*
X152406088Y-152471522D01*
X152306373Y-152389760D01*
X152306367Y-152389756D01*
X152302245Y-152386376D01*
X152297602Y-152383733D01*
X152270265Y-152368171D01*
X152220959Y-152317088D01*
X152207098Y-152247458D01*
X152233082Y-152181387D01*
X152262232Y-152154149D01*
X152379578Y-152075148D01*
X152387870Y-152068481D01*
X152546900Y-151916772D01*
X152553941Y-151908814D01*
X152685141Y-151732475D01*
X152690745Y-151723438D01*
X152790357Y-151527516D01*
X152794357Y-151517665D01*
X152859534Y-151307760D01*
X152861817Y-151297376D01*
X152863861Y-151281957D01*
X152861665Y-151267793D01*
X152848478Y-151264000D01*
X149413808Y-151264000D01*
X149400277Y-151267973D01*
X149398752Y-151278580D01*
X149423477Y-151396421D01*
X149426537Y-151406617D01*
X149507263Y-151611029D01*
X149511994Y-151620561D01*
X149626016Y-151808462D01*
X149632280Y-151817052D01*
X149776327Y-151983052D01*
X149783958Y-151990472D01*
X149953911Y-152129826D01*
X149962674Y-152135848D01*
X149989711Y-152151238D01*
X150039018Y-152202320D01*
X150052880Y-152271951D01*
X150026897Y-152338022D01*
X149997747Y-152365261D01*
X149961358Y-152389760D01*
X149875681Y-152447441D01*
X149871824Y-152451120D01*
X149871822Y-152451122D01*
X149813642Y-152506623D01*
X149708865Y-152606576D01*
X149571246Y-152791542D01*
X149568830Y-152796293D01*
X149568828Y-152796297D01*
X149548373Y-152836530D01*
X149466760Y-152997051D01*
X149465178Y-153002145D01*
X149465177Y-153002148D01*
X149422457Y-153139728D01*
X149398393Y-153217227D01*
X149397692Y-153222516D01*
X149371581Y-153419528D01*
X149368102Y-153445774D01*
X146008500Y-153445774D01*
X146008500Y-128346781D01*
X146028502Y-128278660D01*
X146068197Y-128239637D01*
X146143704Y-128192912D01*
X146199348Y-128158478D01*
X146324305Y-128033303D01*
X146325697Y-128034693D01*
X146375503Y-127999383D01*
X146446426Y-127996153D01*
X146488736Y-128015326D01*
X146663251Y-128137523D01*
X146668233Y-128139846D01*
X146668238Y-128139849D01*
X146865775Y-128231961D01*
X146870757Y-128234284D01*
X146876065Y-128235706D01*
X146876067Y-128235707D01*
X147086598Y-128292119D01*
X147086600Y-128292119D01*
X147091913Y-128293543D01*
X147320000Y-128313498D01*
X147548087Y-128293543D01*
X147676890Y-128259030D01*
X147747865Y-128260720D01*
X147806661Y-128300514D01*
X147834609Y-128365778D01*
X147835500Y-128380737D01*
X147835500Y-128824302D01*
X147815498Y-128892423D01*
X147806024Y-128905290D01*
X147753846Y-128967474D01*
X147751278Y-128972144D01*
X147747897Y-128976261D01*
X147716860Y-129034145D01*
X147704023Y-129058086D01*
X147703394Y-129059245D01*
X147661538Y-129135381D01*
X147661535Y-129135389D01*
X147658567Y-129140787D01*
X147656955Y-129145869D01*
X147654438Y-129150563D01*
X147627238Y-129239531D01*
X147626918Y-129240559D01*
X147598765Y-129329306D01*
X147598171Y-129334602D01*
X147596613Y-129339698D01*
X147595990Y-129345834D01*
X147587218Y-129432187D01*
X147587089Y-129433393D01*
X147581500Y-129483227D01*
X147581500Y-129486754D01*
X147581445Y-129487739D01*
X147580998Y-129493419D01*
X147576626Y-129536462D01*
X147577206Y-129542593D01*
X147580941Y-129582109D01*
X147581500Y-129593967D01*
X147581500Y-142629260D01*
X147558713Y-142701531D01*
X147452477Y-142853251D01*
X147450154Y-142858233D01*
X147450151Y-142858238D01*
X147373829Y-143021913D01*
X147355716Y-143060757D01*
X147296457Y-143281913D01*
X147276502Y-143510000D01*
X147296457Y-143738087D01*
X147355716Y-143959243D01*
X147358039Y-143964224D01*
X147358039Y-143964225D01*
X147450151Y-144161762D01*
X147450154Y-144161767D01*
X147452477Y-144166749D01*
X147583802Y-144354300D01*
X147745700Y-144516198D01*
X147750208Y-144519355D01*
X147750211Y-144519357D01*
X147806766Y-144558957D01*
X147933251Y-144647523D01*
X147938233Y-144649846D01*
X147938238Y-144649849D01*
X148115612Y-144732559D01*
X148140757Y-144744284D01*
X148146065Y-144745706D01*
X148146067Y-144745707D01*
X148356598Y-144802119D01*
X148356600Y-144802119D01*
X148361913Y-144803543D01*
X148590000Y-144823498D01*
X148818087Y-144803543D01*
X148823400Y-144802119D01*
X148823402Y-144802119D01*
X149033933Y-144745707D01*
X149033935Y-144745706D01*
X149039243Y-144744284D01*
X149064388Y-144732559D01*
X149241762Y-144649849D01*
X149241767Y-144649846D01*
X149246749Y-144647523D01*
X149259266Y-144638759D01*
X149365518Y-144564360D01*
X149432792Y-144541672D01*
X149501653Y-144558957D01*
X149531203Y-144584668D01*
X149531522Y-144584348D01*
X149656697Y-144709305D01*
X149802340Y-144799081D01*
X149849832Y-144851852D01*
X149861256Y-144921924D01*
X149832982Y-144987048D01*
X149823195Y-144997510D01*
X149790435Y-145028762D01*
X149708865Y-145106576D01*
X149571246Y-145291542D01*
X149568830Y-145296293D01*
X149568828Y-145296297D01*
X149565098Y-145303634D01*
X149466760Y-145497051D01*
X149465178Y-145502145D01*
X149465177Y-145502148D01*
X149403115Y-145702020D01*
X149398393Y-145717227D01*
X149397692Y-145722516D01*
X149372551Y-145912207D01*
X149368102Y-145945774D01*
X149376751Y-146176158D01*
X149377846Y-146181377D01*
X149380991Y-146196366D01*
X149424093Y-146401791D01*
X149508776Y-146616221D01*
X149628377Y-146813317D01*
X149631874Y-146817347D01*
X149718438Y-146917103D01*
X149779477Y-146987445D01*
X149783608Y-146990832D01*
X149953627Y-147130240D01*
X149953633Y-147130244D01*
X149957755Y-147133624D01*
X149989250Y-147151552D01*
X150038555Y-147202632D01*
X150052417Y-147272262D01*
X150026434Y-147338333D01*
X149997284Y-147365573D01*
X149875681Y-147447441D01*
X149708865Y-147606576D01*
X149571246Y-147791542D01*
X149568830Y-147796293D01*
X149568828Y-147796297D01*
X149565098Y-147803634D01*
X149466760Y-147997051D01*
X149465178Y-148002145D01*
X149465177Y-148002148D01*
X149418555Y-148152296D01*
X149398393Y-148217227D01*
X149397692Y-148222516D01*
X149377863Y-148372129D01*
X149368102Y-148445774D01*
X149376751Y-148676158D01*
X149377846Y-148681377D01*
X149380991Y-148696366D01*
X149424093Y-148901791D01*
X149426051Y-148906749D01*
X149489240Y-149066752D01*
X149508776Y-149116221D01*
X149628377Y-149313317D01*
X149631874Y-149317347D01*
X149718438Y-149417103D01*
X149779477Y-149487445D01*
X149783608Y-149490832D01*
X149953627Y-149630240D01*
X149953633Y-149630244D01*
X149957755Y-149633624D01*
X149962398Y-149636267D01*
X149989735Y-149651829D01*
X150039041Y-149702912D01*
X150052902Y-149772542D01*
X150026918Y-149838613D01*
X149997768Y-149865851D01*
X149880422Y-149944852D01*
X149872130Y-149951519D01*
X149713100Y-150103228D01*
X149706059Y-150111186D01*
X149574859Y-150287525D01*
X149569255Y-150296562D01*
X149469643Y-150492484D01*
X149465643Y-150502335D01*
X149400466Y-150712240D01*
X149398183Y-150722624D01*
X149396139Y-150738043D01*
X149398335Y-150752207D01*
X149411522Y-150756000D01*
X152846192Y-150756000D01*
X152859723Y-150752027D01*
X152861248Y-150741420D01*
X152836523Y-150623579D01*
X152833463Y-150613383D01*
X152752737Y-150408971D01*
X152748006Y-150399439D01*
X152633984Y-150211538D01*
X152627720Y-150202948D01*
X152483673Y-150036948D01*
X152476042Y-150029528D01*
X152306089Y-149890174D01*
X152297326Y-149884152D01*
X152270289Y-149868762D01*
X152220982Y-149817680D01*
X152207120Y-149748049D01*
X152233103Y-149681978D01*
X152262253Y-149654739D01*
X152315532Y-149618869D01*
X152384319Y-149572559D01*
X152551135Y-149413424D01*
X152688754Y-149228458D01*
X152793240Y-149022949D01*
X152832482Y-148896572D01*
X152860024Y-148807871D01*
X152861607Y-148802773D01*
X152875710Y-148696366D01*
X152891198Y-148579511D01*
X152891198Y-148579506D01*
X152891898Y-148574226D01*
X152883249Y-148343842D01*
X152835907Y-148118209D01*
X152786181Y-147992296D01*
X152753185Y-147908744D01*
X152753184Y-147908742D01*
X152751224Y-147903779D01*
X152747031Y-147896868D01*
X152634390Y-147711243D01*
X152631623Y-147706683D01*
X152542920Y-147604461D01*
X152484023Y-147536588D01*
X152484021Y-147536586D01*
X152480523Y-147532555D01*
X152412876Y-147477088D01*
X152306373Y-147389760D01*
X152306367Y-147389756D01*
X152302245Y-147386376D01*
X152270750Y-147368448D01*
X152221445Y-147317368D01*
X152207583Y-147247738D01*
X152233566Y-147181667D01*
X152262716Y-147154427D01*
X152298642Y-147130240D01*
X152384319Y-147072559D01*
X152551135Y-146913424D01*
X152688754Y-146728458D01*
X152793240Y-146522949D01*
X152819438Y-146438580D01*
X152860024Y-146307871D01*
X152861607Y-146302773D01*
X152875710Y-146196366D01*
X152891198Y-146079511D01*
X152891198Y-146079506D01*
X152891898Y-146074226D01*
X152883249Y-145843842D01*
X152835907Y-145618209D01*
X152768500Y-145447525D01*
X152753185Y-145408744D01*
X152753184Y-145408742D01*
X152751224Y-145403779D01*
X152747031Y-145396868D01*
X152634390Y-145211243D01*
X152631623Y-145206683D01*
X152543259Y-145104852D01*
X152484023Y-145036588D01*
X152484021Y-145036586D01*
X152480523Y-145032555D01*
X152444880Y-145003330D01*
X152404886Y-144944671D01*
X152402954Y-144873701D01*
X152439698Y-144812952D01*
X152458468Y-144798752D01*
X152598120Y-144712332D01*
X152604348Y-144708478D01*
X152729305Y-144583303D01*
X152770669Y-144516198D01*
X152818275Y-144438968D01*
X152818276Y-144438966D01*
X152822115Y-144432738D01*
X152877797Y-144264861D01*
X152888500Y-144160400D01*
X152888500Y-142859600D01*
X152878848Y-142766576D01*
X152878238Y-142760692D01*
X152878237Y-142760688D01*
X152877526Y-142753834D01*
X152821550Y-142586054D01*
X152728478Y-142435652D01*
X152603303Y-142310695D01*
X152499527Y-142246726D01*
X152458968Y-142221725D01*
X152458966Y-142221724D01*
X152452738Y-142217885D01*
X152372995Y-142191436D01*
X152291389Y-142164368D01*
X152291387Y-142164368D01*
X152284861Y-142162203D01*
X152278025Y-142161503D01*
X152278022Y-142161502D01*
X152234969Y-142157091D01*
X152180400Y-142151500D01*
X150079600Y-142151500D01*
X150076354Y-142151837D01*
X150076350Y-142151837D01*
X149980692Y-142161762D01*
X149980688Y-142161763D01*
X149973834Y-142162474D01*
X149967298Y-142164655D01*
X149967296Y-142164655D01*
X149835194Y-142208728D01*
X149806054Y-142218450D01*
X149790803Y-142227887D01*
X149722353Y-142246726D01*
X149654583Y-142225566D01*
X149609011Y-142171126D01*
X149598500Y-142120744D01*
X149598500Y-138095307D01*
X149618502Y-138027186D01*
X149672158Y-137980693D01*
X149742432Y-137970589D01*
X149804390Y-137997873D01*
X149839076Y-138026313D01*
X149953627Y-138120240D01*
X149953633Y-138120244D01*
X149957755Y-138123624D01*
X149962391Y-138126263D01*
X149962394Y-138126265D01*
X150097455Y-138203146D01*
X150158114Y-138237675D01*
X150374825Y-138316337D01*
X150380074Y-138317286D01*
X150380077Y-138317287D01*
X150597608Y-138356623D01*
X150597615Y-138356624D01*
X150601692Y-138357361D01*
X150618889Y-138358172D01*
X150624356Y-138358430D01*
X150624363Y-138358430D01*
X150625844Y-138358500D01*
X151587890Y-138358500D01*
X151654809Y-138352822D01*
X151754409Y-138344371D01*
X151754413Y-138344370D01*
X151759720Y-138343920D01*
X151764875Y-138342582D01*
X151764881Y-138342581D01*
X151977703Y-138287343D01*
X151977707Y-138287342D01*
X151982872Y-138286001D01*
X151987738Y-138283809D01*
X151987741Y-138283808D01*
X152188202Y-138193507D01*
X152193075Y-138191312D01*
X152384319Y-138062559D01*
X152421400Y-138027186D01*
X152480728Y-137970589D01*
X152551135Y-137903424D01*
X152688754Y-137718458D01*
X152717837Y-137661257D01*
X152790822Y-137517704D01*
X152793240Y-137512949D01*
X152811475Y-137454225D01*
X152860024Y-137297871D01*
X152861607Y-137292773D01*
X152876226Y-137182471D01*
X152891198Y-137069511D01*
X152891198Y-137069506D01*
X152891898Y-137064226D01*
X152883249Y-136833842D01*
X152835907Y-136608209D01*
X152813218Y-136550757D01*
X152753185Y-136398744D01*
X152753184Y-136398742D01*
X152751224Y-136393779D01*
X152724416Y-136349600D01*
X152634390Y-136201243D01*
X152631623Y-136196683D01*
X152544755Y-136096576D01*
X152484023Y-136026588D01*
X152484021Y-136026586D01*
X152480523Y-136022555D01*
X152429399Y-135980636D01*
X152306373Y-135879760D01*
X152306367Y-135879756D01*
X152302245Y-135876376D01*
X152297602Y-135873733D01*
X152270265Y-135858171D01*
X152220959Y-135807088D01*
X152207098Y-135737458D01*
X152233082Y-135671387D01*
X152262232Y-135644149D01*
X152379578Y-135565148D01*
X152387870Y-135558481D01*
X152546900Y-135406772D01*
X152553941Y-135398814D01*
X152685141Y-135222475D01*
X152690745Y-135213438D01*
X152790357Y-135017516D01*
X152794357Y-135007665D01*
X152859534Y-134797760D01*
X152861817Y-134787376D01*
X152863861Y-134771957D01*
X152861665Y-134757793D01*
X152848478Y-134754000D01*
X151002000Y-134754000D01*
X150933879Y-134733998D01*
X150887386Y-134680342D01*
X150876000Y-134628000D01*
X150876000Y-134372000D01*
X150896002Y-134303879D01*
X150949658Y-134257386D01*
X151002000Y-134246000D01*
X152846192Y-134246000D01*
X152859723Y-134242027D01*
X152861248Y-134231420D01*
X152836523Y-134113579D01*
X152833463Y-134103383D01*
X152752737Y-133898971D01*
X152748006Y-133889439D01*
X152633984Y-133701538D01*
X152627720Y-133692948D01*
X152483673Y-133526948D01*
X152476042Y-133519528D01*
X152306089Y-133380174D01*
X152297326Y-133374152D01*
X152270289Y-133358762D01*
X152220982Y-133307680D01*
X152207120Y-133238049D01*
X152233103Y-133171978D01*
X152262253Y-133144739D01*
X152315532Y-133108869D01*
X152384319Y-133062559D01*
X152421400Y-133027186D01*
X152473541Y-132977445D01*
X152551135Y-132903424D01*
X152688754Y-132718458D01*
X152717837Y-132661257D01*
X152790822Y-132517704D01*
X152793240Y-132512949D01*
X152811475Y-132454225D01*
X152860024Y-132297871D01*
X152861607Y-132292773D01*
X152870180Y-132228087D01*
X152891198Y-132069511D01*
X152891198Y-132069506D01*
X152891898Y-132064226D01*
X152883249Y-131833842D01*
X152835907Y-131608209D01*
X152813218Y-131550757D01*
X152753185Y-131398744D01*
X152753184Y-131398742D01*
X152751224Y-131393779D01*
X152631623Y-131196683D01*
X152544755Y-131096576D01*
X152484023Y-131026588D01*
X152484021Y-131026586D01*
X152480523Y-131022555D01*
X152419860Y-130972814D01*
X152306373Y-130879760D01*
X152306367Y-130879756D01*
X152302245Y-130876376D01*
X152270750Y-130858448D01*
X152221445Y-130807368D01*
X152207583Y-130737738D01*
X152233566Y-130671667D01*
X152262716Y-130644427D01*
X152299257Y-130619826D01*
X152384319Y-130562559D01*
X152421400Y-130527186D01*
X152547278Y-130407103D01*
X152551135Y-130403424D01*
X152688754Y-130218458D01*
X152717837Y-130161257D01*
X152790822Y-130017704D01*
X152793240Y-130012949D01*
X152811475Y-129954225D01*
X152860024Y-129797871D01*
X152861607Y-129792773D01*
X152862308Y-129787484D01*
X152891198Y-129569511D01*
X152891198Y-129569506D01*
X152891898Y-129564226D01*
X152883249Y-129333842D01*
X152835907Y-129108209D01*
X152816366Y-129058728D01*
X152753185Y-128898744D01*
X152753184Y-128898742D01*
X152751224Y-128893779D01*
X152631623Y-128696683D01*
X152480523Y-128522555D01*
X152444880Y-128493330D01*
X152404886Y-128434671D01*
X152402954Y-128363701D01*
X152439698Y-128302952D01*
X152458468Y-128288752D01*
X152598120Y-128202332D01*
X152604348Y-128198478D01*
X152729305Y-128073303D01*
X152753317Y-128034348D01*
X152818275Y-127928968D01*
X152818276Y-127928966D01*
X152822115Y-127922738D01*
X152861725Y-127803317D01*
X152875632Y-127761389D01*
X152875632Y-127761387D01*
X152877797Y-127754861D01*
X152888500Y-127650400D01*
X152888500Y-126349600D01*
X152881932Y-126286297D01*
X152878238Y-126250692D01*
X152878237Y-126250688D01*
X152877526Y-126243834D01*
X152821550Y-126076054D01*
X152728478Y-125925652D01*
X152603303Y-125800695D01*
X152548160Y-125766704D01*
X152458968Y-125711725D01*
X152458966Y-125711724D01*
X152452738Y-125707885D01*
X152342280Y-125671248D01*
X152291389Y-125654368D01*
X152291387Y-125654368D01*
X152284861Y-125652203D01*
X152278025Y-125651503D01*
X152278022Y-125651502D01*
X152234969Y-125647091D01*
X152180400Y-125641500D01*
X150079600Y-125641500D01*
X150076354Y-125641837D01*
X150076350Y-125641837D01*
X150046645Y-125644919D01*
X149991503Y-125650641D01*
X149921683Y-125637776D01*
X149869901Y-125589206D01*
X149852500Y-125525314D01*
X149852500Y-123001508D01*
X149875287Y-122929237D01*
X149959317Y-122809230D01*
X149959318Y-122809228D01*
X149962474Y-122804721D01*
X149964797Y-122799739D01*
X149964800Y-122799734D01*
X150056912Y-122602197D01*
X150056912Y-122602196D01*
X150059235Y-122597215D01*
X150118494Y-122376059D01*
X150138449Y-122147972D01*
X150118494Y-121919885D01*
X150117070Y-121914570D01*
X150116914Y-121913686D01*
X150124783Y-121843127D01*
X150169550Y-121788022D01*
X150237001Y-121765868D01*
X150283991Y-121773366D01*
X150374825Y-121806337D01*
X150380074Y-121807286D01*
X150380077Y-121807287D01*
X150597608Y-121846623D01*
X150597615Y-121846624D01*
X150601692Y-121847361D01*
X150619414Y-121848197D01*
X150624356Y-121848430D01*
X150624363Y-121848430D01*
X150625844Y-121848500D01*
X151587890Y-121848500D01*
X151654809Y-121842822D01*
X151754409Y-121834371D01*
X151754413Y-121834370D01*
X151759720Y-121833920D01*
X151764875Y-121832582D01*
X151764881Y-121832581D01*
X151977703Y-121777343D01*
X151977707Y-121777342D01*
X151982872Y-121776001D01*
X151987738Y-121773809D01*
X151987741Y-121773808D01*
X152134629Y-121707640D01*
X152193075Y-121681312D01*
X152384319Y-121552559D01*
X152551135Y-121393424D01*
X152688754Y-121208458D01*
X152693440Y-121199243D01*
X152758076Y-121072111D01*
X152793240Y-121002949D01*
X152798763Y-120985164D01*
X152860024Y-120787871D01*
X152861607Y-120782773D01*
X152876024Y-120673999D01*
X152891198Y-120559511D01*
X152891198Y-120559506D01*
X152891898Y-120554226D01*
X152883249Y-120323842D01*
X152879520Y-120306067D01*
X152837002Y-120103428D01*
X152835907Y-120098209D01*
X152796964Y-119999600D01*
X152753185Y-119888744D01*
X152753184Y-119888742D01*
X152751224Y-119883779D01*
X152631623Y-119686683D01*
X152544755Y-119586576D01*
X152484023Y-119516588D01*
X152484021Y-119516586D01*
X152480523Y-119512555D01*
X152406088Y-119451522D01*
X152306373Y-119369760D01*
X152306367Y-119369756D01*
X152302245Y-119366376D01*
X152297602Y-119363733D01*
X152270265Y-119348171D01*
X152220959Y-119297088D01*
X152207098Y-119227458D01*
X152233082Y-119161387D01*
X152262232Y-119134149D01*
X152379578Y-119055148D01*
X152387870Y-119048481D01*
X152546900Y-118896772D01*
X152553941Y-118888814D01*
X152685141Y-118712475D01*
X152690745Y-118703438D01*
X152790357Y-118507516D01*
X152794357Y-118497665D01*
X152859534Y-118287760D01*
X152861817Y-118277376D01*
X152863861Y-118261957D01*
X152861665Y-118247793D01*
X152848478Y-118244000D01*
X149413808Y-118244000D01*
X149400277Y-118247973D01*
X149398752Y-118258580D01*
X149423477Y-118376421D01*
X149426537Y-118386617D01*
X149507263Y-118591029D01*
X149511994Y-118600561D01*
X149626016Y-118788462D01*
X149632280Y-118797052D01*
X149776327Y-118963052D01*
X149783958Y-118970472D01*
X149953911Y-119109826D01*
X149962674Y-119115848D01*
X149989711Y-119131238D01*
X150039018Y-119182320D01*
X150052880Y-119251951D01*
X150026897Y-119318022D01*
X149997747Y-119345261D01*
X149961358Y-119369760D01*
X149875681Y-119427441D01*
X149871824Y-119431120D01*
X149871822Y-119431122D01*
X149802464Y-119497287D01*
X149708865Y-119586576D01*
X149571246Y-119771542D01*
X149568830Y-119776293D01*
X149568828Y-119776297D01*
X149535662Y-119841531D01*
X149466760Y-119977051D01*
X149465178Y-119982145D01*
X149465177Y-119982148D01*
X149403115Y-120182020D01*
X149398393Y-120197227D01*
X149397692Y-120202516D01*
X149375262Y-120371755D01*
X149368102Y-120425774D01*
X149368302Y-120431103D01*
X149368302Y-120431105D01*
X149370049Y-120477633D01*
X149376751Y-120656158D01*
X149377845Y-120661374D01*
X149377846Y-120661379D01*
X149398015Y-120757506D01*
X149392427Y-120828282D01*
X149349462Y-120884802D01*
X149282760Y-120909121D01*
X149242093Y-120905086D01*
X149053038Y-120854429D01*
X148824951Y-120834474D01*
X148596864Y-120854429D01*
X148591551Y-120855853D01*
X148591549Y-120855853D01*
X148487111Y-120883837D01*
X148416134Y-120882147D01*
X148357339Y-120842353D01*
X148329391Y-120777088D01*
X148328500Y-120762130D01*
X148328500Y-115425774D01*
X149368102Y-115425774D01*
X149376751Y-115656158D01*
X149424093Y-115881791D01*
X149426051Y-115886750D01*
X149426052Y-115886752D01*
X149489240Y-116046752D01*
X149508776Y-116096221D01*
X149628377Y-116293317D01*
X149631874Y-116297347D01*
X149718438Y-116397103D01*
X149779477Y-116467445D01*
X149783608Y-116470832D01*
X149953627Y-116610240D01*
X149953633Y-116610244D01*
X149957755Y-116613624D01*
X149962398Y-116616267D01*
X149989735Y-116631829D01*
X150039041Y-116682912D01*
X150052902Y-116752542D01*
X150026918Y-116818613D01*
X149997768Y-116845851D01*
X149880422Y-116924852D01*
X149872130Y-116931519D01*
X149713100Y-117083228D01*
X149706059Y-117091186D01*
X149574859Y-117267525D01*
X149569255Y-117276562D01*
X149469643Y-117472484D01*
X149465643Y-117482335D01*
X149400466Y-117692240D01*
X149398183Y-117702624D01*
X149396139Y-117718043D01*
X149398335Y-117732207D01*
X149411522Y-117736000D01*
X152846192Y-117736000D01*
X152859723Y-117732027D01*
X152861248Y-117721420D01*
X152836523Y-117603579D01*
X152833463Y-117593383D01*
X152752737Y-117388971D01*
X152748006Y-117379439D01*
X152633984Y-117191538D01*
X152627720Y-117182948D01*
X152483673Y-117016948D01*
X152476042Y-117009528D01*
X152306089Y-116870174D01*
X152297326Y-116864152D01*
X152270289Y-116848762D01*
X152220982Y-116797680D01*
X152207120Y-116728049D01*
X152233103Y-116661978D01*
X152262253Y-116634739D01*
X152315532Y-116598869D01*
X152384319Y-116552559D01*
X152551135Y-116393424D01*
X152688754Y-116208458D01*
X152793240Y-116002949D01*
X152829321Y-115886752D01*
X152860024Y-115787871D01*
X152861607Y-115782773D01*
X152862308Y-115777484D01*
X152891198Y-115559511D01*
X152891198Y-115559506D01*
X152891898Y-115554226D01*
X152883249Y-115323842D01*
X152835907Y-115098209D01*
X152786181Y-114972296D01*
X152753185Y-114888744D01*
X152753184Y-114888742D01*
X152751224Y-114883779D01*
X152631623Y-114686683D01*
X152542920Y-114584461D01*
X152484023Y-114516588D01*
X152484021Y-114516586D01*
X152480523Y-114512555D01*
X152412876Y-114457088D01*
X152306373Y-114369760D01*
X152306367Y-114369756D01*
X152302245Y-114366376D01*
X152270750Y-114348448D01*
X152221445Y-114297368D01*
X152207583Y-114227738D01*
X152233566Y-114161667D01*
X152262716Y-114134427D01*
X152298642Y-114110240D01*
X152384319Y-114052559D01*
X152396707Y-114040742D01*
X152532983Y-113910740D01*
X152551135Y-113893424D01*
X152688754Y-113708458D01*
X152697500Y-113691257D01*
X152790822Y-113507704D01*
X152793240Y-113502949D01*
X152801495Y-113476366D01*
X152860024Y-113287871D01*
X152861607Y-113282773D01*
X152870489Y-113215757D01*
X152891198Y-113059511D01*
X152891198Y-113059506D01*
X152891898Y-113054226D01*
X152883249Y-112823842D01*
X152835907Y-112598209D01*
X152827717Y-112577471D01*
X152753185Y-112388744D01*
X152753184Y-112388742D01*
X152751224Y-112383779D01*
X152744836Y-112373251D01*
X152634390Y-112191243D01*
X152631623Y-112186683D01*
X152617106Y-112169954D01*
X152484023Y-112016588D01*
X152484021Y-112016586D01*
X152480523Y-112012555D01*
X152444880Y-111983330D01*
X152404886Y-111924671D01*
X152402954Y-111853701D01*
X152439698Y-111792952D01*
X152458468Y-111778752D01*
X152598120Y-111692332D01*
X152604348Y-111688478D01*
X152729305Y-111563303D01*
X152787513Y-111468873D01*
X152818275Y-111418968D01*
X152818276Y-111418966D01*
X152822115Y-111412738D01*
X152872516Y-111260783D01*
X152875632Y-111251389D01*
X152875632Y-111251387D01*
X152877797Y-111244861D01*
X152888500Y-111140400D01*
X152888500Y-109839600D01*
X152878848Y-109746576D01*
X152878238Y-109740692D01*
X152878237Y-109740688D01*
X152877526Y-109733834D01*
X152821550Y-109566054D01*
X152728478Y-109415652D01*
X152603303Y-109290695D01*
X152597072Y-109286854D01*
X152458968Y-109201725D01*
X152458966Y-109201724D01*
X152452738Y-109197885D01*
X152341632Y-109161033D01*
X152291389Y-109144368D01*
X152291387Y-109144368D01*
X152284861Y-109142203D01*
X152278025Y-109141503D01*
X152278022Y-109141502D01*
X152234969Y-109137091D01*
X152180400Y-109131500D01*
X150079600Y-109131500D01*
X150076354Y-109131837D01*
X150076350Y-109131837D01*
X149980692Y-109141762D01*
X149980688Y-109141763D01*
X149973834Y-109142474D01*
X149967298Y-109144655D01*
X149967296Y-109144655D01*
X149884360Y-109172325D01*
X149806054Y-109198450D01*
X149655652Y-109291522D01*
X149530695Y-109416697D01*
X149526855Y-109422927D01*
X149526854Y-109422928D01*
X149445633Y-109554693D01*
X149437885Y-109567262D01*
X149382203Y-109735139D01*
X149371500Y-109839600D01*
X149371500Y-111140400D01*
X149371837Y-111143646D01*
X149371837Y-111143650D01*
X149379066Y-111213317D01*
X149382474Y-111246166D01*
X149384655Y-111252702D01*
X149384655Y-111252704D01*
X149393760Y-111279994D01*
X149438450Y-111413946D01*
X149531522Y-111564348D01*
X149656697Y-111689305D01*
X149802340Y-111779081D01*
X149849832Y-111831852D01*
X149861256Y-111901924D01*
X149832982Y-111967048D01*
X149823195Y-111977510D01*
X149790435Y-112008762D01*
X149708865Y-112086576D01*
X149705682Y-112090854D01*
X149681422Y-112123461D01*
X149571246Y-112271542D01*
X149466760Y-112477051D01*
X149465178Y-112482145D01*
X149465177Y-112482148D01*
X149411735Y-112654258D01*
X149398393Y-112697227D01*
X149397692Y-112702516D01*
X149372551Y-112892207D01*
X149368102Y-112925774D01*
X149376751Y-113156158D01*
X149424093Y-113381791D01*
X149426051Y-113386750D01*
X149426052Y-113386752D01*
X149485160Y-113536421D01*
X149508776Y-113596221D01*
X149511543Y-113600780D01*
X149511544Y-113600783D01*
X149560684Y-113681762D01*
X149628377Y-113793317D01*
X149631874Y-113797347D01*
X149718438Y-113897103D01*
X149779477Y-113967445D01*
X149813740Y-113995539D01*
X149953627Y-114110240D01*
X149953633Y-114110244D01*
X149957755Y-114113624D01*
X149989250Y-114131552D01*
X150038555Y-114182632D01*
X150052417Y-114252262D01*
X150026434Y-114318333D01*
X149997284Y-114345573D01*
X149875681Y-114427441D01*
X149708865Y-114586576D01*
X149571246Y-114771542D01*
X149466760Y-114977051D01*
X149465178Y-114982145D01*
X149465177Y-114982148D01*
X149423685Y-115115775D01*
X149398393Y-115197227D01*
X149397692Y-115202516D01*
X149377863Y-115352129D01*
X149368102Y-115425774D01*
X148328500Y-115425774D01*
X148328500Y-111370740D01*
X148351287Y-111298469D01*
X148384346Y-111251256D01*
X148457523Y-111146749D01*
X148459846Y-111141767D01*
X148459849Y-111141762D01*
X148551961Y-110944225D01*
X148551961Y-110944224D01*
X148554284Y-110939243D01*
X148591115Y-110801791D01*
X148612119Y-110723402D01*
X148612119Y-110723400D01*
X148613543Y-110718087D01*
X148633498Y-110490000D01*
X148613543Y-110261913D01*
X148578812Y-110132296D01*
X148555707Y-110046067D01*
X148555706Y-110046065D01*
X148554284Y-110040757D01*
X148489650Y-109902148D01*
X148459849Y-109838238D01*
X148459846Y-109838233D01*
X148457523Y-109833251D01*
X148342728Y-109669307D01*
X148329357Y-109650211D01*
X148329355Y-109650208D01*
X148326198Y-109645700D01*
X148164300Y-109483802D01*
X148159792Y-109480645D01*
X148159789Y-109480643D01*
X148063053Y-109412908D01*
X147976749Y-109352477D01*
X147971767Y-109350154D01*
X147971762Y-109350151D01*
X147774225Y-109258039D01*
X147774224Y-109258039D01*
X147769243Y-109255716D01*
X147763935Y-109254294D01*
X147763933Y-109254293D01*
X147553402Y-109197881D01*
X147553400Y-109197881D01*
X147548087Y-109196457D01*
X147320000Y-109176502D01*
X147091913Y-109196457D01*
X147086600Y-109197881D01*
X147086598Y-109197881D01*
X147008946Y-109218688D01*
X146870757Y-109255716D01*
X146750562Y-109311763D01*
X146680372Y-109322424D01*
X146619221Y-109296449D01*
X146618483Y-109295866D01*
X146613303Y-109290695D01*
X146467660Y-109200919D01*
X146420168Y-109148148D01*
X146408744Y-109078076D01*
X146437018Y-109012952D01*
X146446805Y-109002490D01*
X146549450Y-108904571D01*
X146561135Y-108893424D01*
X146698754Y-108708458D01*
X146707138Y-108691969D01*
X146758342Y-108591256D01*
X146803240Y-108502949D01*
X146839321Y-108386752D01*
X146870024Y-108287871D01*
X146871607Y-108282773D01*
X146872308Y-108277484D01*
X146901198Y-108059511D01*
X146901198Y-108059506D01*
X146901898Y-108054226D01*
X146893249Y-107823842D01*
X146845907Y-107598209D01*
X146796181Y-107472296D01*
X146763185Y-107388744D01*
X146763184Y-107388742D01*
X146761224Y-107383779D01*
X146641623Y-107186683D01*
X146554755Y-107086576D01*
X146494023Y-107016588D01*
X146494021Y-107016586D01*
X146490523Y-107012555D01*
X146448970Y-106978484D01*
X146316373Y-106869760D01*
X146316367Y-106869756D01*
X146312245Y-106866376D01*
X146280750Y-106848448D01*
X146231445Y-106797368D01*
X146217583Y-106727738D01*
X146243566Y-106661667D01*
X146272716Y-106634427D01*
X146317712Y-106604134D01*
X146394319Y-106552559D01*
X146402904Y-106544370D01*
X146436515Y-106512306D01*
X146499612Y-106479759D01*
X146570289Y-106486490D01*
X146595751Y-106500259D01*
X146663251Y-106547523D01*
X146668233Y-106549846D01*
X146668238Y-106549849D01*
X146865775Y-106641961D01*
X146870757Y-106644284D01*
X146876065Y-106645706D01*
X146876067Y-106645707D01*
X147086598Y-106702119D01*
X147086600Y-106702119D01*
X147091913Y-106703543D01*
X147320000Y-106723498D01*
X147548087Y-106703543D01*
X147553400Y-106702119D01*
X147553402Y-106702119D01*
X147763933Y-106645707D01*
X147763935Y-106645706D01*
X147769243Y-106644284D01*
X147774225Y-106641961D01*
X147971762Y-106549849D01*
X147971767Y-106549846D01*
X147976749Y-106547523D01*
X148128798Y-106441057D01*
X148159789Y-106419357D01*
X148159792Y-106419355D01*
X148164300Y-106416198D01*
X148326198Y-106254300D01*
X148457523Y-106066749D01*
X148459846Y-106061767D01*
X148459849Y-106061762D01*
X148551961Y-105864225D01*
X148551961Y-105864224D01*
X148554284Y-105859243D01*
X148607303Y-105661377D01*
X148612119Y-105643402D01*
X148612119Y-105643400D01*
X148613543Y-105638087D01*
X148633498Y-105410000D01*
X148613543Y-105181913D01*
X148611291Y-105173507D01*
X148555707Y-104966067D01*
X148555706Y-104966065D01*
X148554284Y-104960757D01*
X148519939Y-104887103D01*
X148459849Y-104758238D01*
X148459846Y-104758233D01*
X148457523Y-104753251D01*
X148351287Y-104601531D01*
X148328500Y-104529260D01*
X148328500Y-103915774D01*
X149368102Y-103915774D01*
X149376751Y-104146158D01*
X149424093Y-104371791D01*
X149426051Y-104376750D01*
X149426052Y-104376752D01*
X149467235Y-104481032D01*
X149508776Y-104586221D01*
X149511543Y-104590780D01*
X149511544Y-104590783D01*
X149573998Y-104693703D01*
X149628377Y-104783317D01*
X149631874Y-104787347D01*
X149718438Y-104887103D01*
X149779477Y-104957445D01*
X149810324Y-104982738D01*
X149953627Y-105100240D01*
X149953633Y-105100244D01*
X149957755Y-105103624D01*
X149962391Y-105106263D01*
X149962394Y-105106265D01*
X150020817Y-105139521D01*
X150158114Y-105217675D01*
X150374825Y-105296337D01*
X150380074Y-105297286D01*
X150380077Y-105297287D01*
X150597608Y-105336623D01*
X150597615Y-105336624D01*
X150601692Y-105337361D01*
X150619414Y-105338197D01*
X150624356Y-105338430D01*
X150624363Y-105338430D01*
X150625844Y-105338500D01*
X151587890Y-105338500D01*
X151654809Y-105332822D01*
X151754409Y-105324371D01*
X151754413Y-105324370D01*
X151759720Y-105323920D01*
X151764875Y-105322582D01*
X151764881Y-105322581D01*
X151977703Y-105267343D01*
X151977707Y-105267342D01*
X151982872Y-105266001D01*
X151987738Y-105263809D01*
X151987741Y-105263808D01*
X152134629Y-105197640D01*
X152193075Y-105171312D01*
X152384319Y-105042559D01*
X152551135Y-104883424D01*
X152688754Y-104698458D01*
X152707302Y-104661978D01*
X152754580Y-104568988D01*
X152793240Y-104492949D01*
X152796941Y-104481032D01*
X152860024Y-104277871D01*
X152861607Y-104272773D01*
X152864559Y-104250503D01*
X152891198Y-104049511D01*
X152891198Y-104049506D01*
X152891898Y-104044226D01*
X152883249Y-103813842D01*
X152835907Y-103588209D01*
X152833948Y-103583248D01*
X152753185Y-103378744D01*
X152753184Y-103378742D01*
X152751224Y-103373779D01*
X152631623Y-103176683D01*
X152544755Y-103076576D01*
X152484023Y-103006588D01*
X152484021Y-103006586D01*
X152480523Y-103002555D01*
X152438970Y-102968484D01*
X152306373Y-102859760D01*
X152306367Y-102859756D01*
X152302245Y-102856376D01*
X152297602Y-102853733D01*
X152270265Y-102838171D01*
X152220959Y-102787088D01*
X152207098Y-102717458D01*
X152233082Y-102651387D01*
X152262232Y-102624149D01*
X152379578Y-102545148D01*
X152387870Y-102538481D01*
X152546900Y-102386772D01*
X152553941Y-102378814D01*
X152685141Y-102202475D01*
X152690745Y-102193438D01*
X152790357Y-101997516D01*
X152794357Y-101987665D01*
X152859534Y-101777760D01*
X152861817Y-101767376D01*
X152863861Y-101751957D01*
X152861665Y-101737793D01*
X152848478Y-101734000D01*
X149413808Y-101734000D01*
X149400277Y-101737973D01*
X149398752Y-101748580D01*
X149423477Y-101866421D01*
X149426537Y-101876617D01*
X149507263Y-102081029D01*
X149511994Y-102090561D01*
X149626013Y-102278458D01*
X149632280Y-102287052D01*
X149776327Y-102453052D01*
X149783958Y-102460472D01*
X149953911Y-102599826D01*
X149962674Y-102605848D01*
X149989711Y-102621238D01*
X150039018Y-102672320D01*
X150052880Y-102741951D01*
X150026897Y-102808022D01*
X149997747Y-102835261D01*
X149952288Y-102865866D01*
X149875681Y-102917441D01*
X149708865Y-103076576D01*
X149571246Y-103261542D01*
X149568830Y-103266293D01*
X149568828Y-103266297D01*
X149549080Y-103305139D01*
X149466760Y-103467051D01*
X149465178Y-103472145D01*
X149465177Y-103472148D01*
X149403115Y-103672020D01*
X149398393Y-103687227D01*
X149397692Y-103692516D01*
X149382304Y-103808623D01*
X149368102Y-103915774D01*
X148328500Y-103915774D01*
X148328500Y-98915774D01*
X149368102Y-98915774D01*
X149376751Y-99146158D01*
X149424093Y-99371791D01*
X149426051Y-99376750D01*
X149426052Y-99376752D01*
X149503535Y-99572949D01*
X149508776Y-99586221D01*
X149511543Y-99590780D01*
X149511544Y-99590783D01*
X149573998Y-99693703D01*
X149628377Y-99783317D01*
X149631874Y-99787347D01*
X149718438Y-99887103D01*
X149779477Y-99957445D01*
X149783608Y-99960832D01*
X149953627Y-100100240D01*
X149953633Y-100100244D01*
X149957755Y-100103624D01*
X149962398Y-100106267D01*
X149989735Y-100121829D01*
X150039041Y-100172912D01*
X150052902Y-100242542D01*
X150026918Y-100308613D01*
X149997768Y-100335851D01*
X149880422Y-100414852D01*
X149872130Y-100421519D01*
X149713100Y-100573228D01*
X149706059Y-100581186D01*
X149574859Y-100757525D01*
X149569255Y-100766562D01*
X149469643Y-100962484D01*
X149465643Y-100972335D01*
X149400466Y-101182240D01*
X149398183Y-101192624D01*
X149396139Y-101208043D01*
X149398335Y-101222207D01*
X149411522Y-101226000D01*
X152846192Y-101226000D01*
X152859723Y-101222027D01*
X152861248Y-101211420D01*
X152836523Y-101093579D01*
X152833463Y-101083383D01*
X152752737Y-100878971D01*
X152748006Y-100869439D01*
X152633984Y-100681538D01*
X152627720Y-100672948D01*
X152483673Y-100506948D01*
X152476042Y-100499528D01*
X152306089Y-100360174D01*
X152297326Y-100354152D01*
X152270289Y-100338762D01*
X152220982Y-100287680D01*
X152207120Y-100218049D01*
X152233103Y-100151978D01*
X152262253Y-100124739D01*
X152315532Y-100088869D01*
X152384319Y-100042559D01*
X152551135Y-99883424D01*
X152688754Y-99698458D01*
X152707669Y-99661256D01*
X152755157Y-99567852D01*
X152793240Y-99492949D01*
X152829321Y-99376752D01*
X152860024Y-99277871D01*
X152861607Y-99272773D01*
X152868492Y-99220827D01*
X152891198Y-99049511D01*
X152891198Y-99049506D01*
X152891898Y-99044226D01*
X152883249Y-98813842D01*
X152869780Y-98749646D01*
X152837002Y-98593428D01*
X152835907Y-98588209D01*
X152817775Y-98542296D01*
X152753185Y-98378744D01*
X152753184Y-98378742D01*
X152751224Y-98373779D01*
X152734548Y-98346297D01*
X152634390Y-98181243D01*
X152631623Y-98176683D01*
X152544755Y-98076576D01*
X152484023Y-98006588D01*
X152484021Y-98006586D01*
X152480523Y-98002555D01*
X152396589Y-97933733D01*
X152306373Y-97859760D01*
X152306367Y-97859756D01*
X152302245Y-97856376D01*
X152270750Y-97838448D01*
X152221445Y-97787368D01*
X152207583Y-97717738D01*
X152233566Y-97651667D01*
X152262716Y-97624427D01*
X152319477Y-97586213D01*
X152384319Y-97542559D01*
X152551135Y-97383424D01*
X152688754Y-97198458D01*
X152697500Y-97181257D01*
X152762598Y-97053217D01*
X152793240Y-96992949D01*
X152798654Y-96975515D01*
X152860024Y-96777871D01*
X152861607Y-96772773D01*
X152864879Y-96748087D01*
X152891198Y-96549511D01*
X152891198Y-96549506D01*
X152891898Y-96544226D01*
X152890804Y-96515070D01*
X152883449Y-96319173D01*
X152883249Y-96313842D01*
X152835907Y-96088209D01*
X152819962Y-96047833D01*
X152753185Y-95878744D01*
X152753184Y-95878742D01*
X152751224Y-95873779D01*
X152744836Y-95863251D01*
X152634390Y-95681243D01*
X152631623Y-95676683D01*
X152627388Y-95671803D01*
X152484023Y-95506588D01*
X152484021Y-95506586D01*
X152480523Y-95502555D01*
X152444880Y-95473330D01*
X152404886Y-95414671D01*
X152402954Y-95343701D01*
X152439698Y-95282952D01*
X152458468Y-95268752D01*
X152596032Y-95183624D01*
X152604348Y-95178478D01*
X152729305Y-95053303D01*
X152782440Y-94967103D01*
X152818275Y-94908968D01*
X152818276Y-94908966D01*
X152822115Y-94902738D01*
X152877797Y-94734861D01*
X152888500Y-94630400D01*
X152888500Y-93329600D01*
X152884724Y-93293205D01*
X152878238Y-93230692D01*
X152878237Y-93230688D01*
X152877526Y-93223834D01*
X152862939Y-93180110D01*
X152823868Y-93063002D01*
X152821550Y-93056054D01*
X152728478Y-92905652D01*
X152603303Y-92780695D01*
X152590263Y-92772657D01*
X152458968Y-92691725D01*
X152458966Y-92691724D01*
X152452738Y-92687885D01*
X152292254Y-92634655D01*
X152291389Y-92634368D01*
X152291387Y-92634368D01*
X152284861Y-92632203D01*
X152278025Y-92631503D01*
X152278022Y-92631502D01*
X152234969Y-92627091D01*
X152180400Y-92621500D01*
X150079600Y-92621500D01*
X150076354Y-92621837D01*
X150076350Y-92621837D01*
X149980692Y-92631762D01*
X149980688Y-92631763D01*
X149973834Y-92632474D01*
X149967298Y-92634655D01*
X149967296Y-92634655D01*
X149871840Y-92666502D01*
X149806054Y-92688450D01*
X149655652Y-92781522D01*
X149530695Y-92906697D01*
X149526855Y-92912927D01*
X149526854Y-92912928D01*
X149486929Y-92977699D01*
X149437885Y-93057262D01*
X149435581Y-93064209D01*
X149392539Y-93193978D01*
X149382203Y-93225139D01*
X149371500Y-93329600D01*
X149371500Y-94630400D01*
X149371837Y-94633646D01*
X149371837Y-94633650D01*
X149380391Y-94716087D01*
X149382474Y-94736166D01*
X149438450Y-94903946D01*
X149531522Y-95054348D01*
X149656697Y-95179305D01*
X149662927Y-95183145D01*
X149662928Y-95183146D01*
X149697958Y-95204739D01*
X149802340Y-95269081D01*
X149849832Y-95321852D01*
X149861256Y-95391924D01*
X149832982Y-95457048D01*
X149823195Y-95467510D01*
X149790007Y-95499170D01*
X149708865Y-95576576D01*
X149571246Y-95761542D01*
X149568830Y-95766293D01*
X149568828Y-95766297D01*
X149532568Y-95837616D01*
X149466760Y-95967051D01*
X149465178Y-95972145D01*
X149465177Y-95972148D01*
X149405797Y-96163383D01*
X149398393Y-96187227D01*
X149397692Y-96192516D01*
X149382304Y-96308623D01*
X149368102Y-96415774D01*
X149376751Y-96646158D01*
X149424093Y-96871791D01*
X149426051Y-96876750D01*
X149426052Y-96876752D01*
X149457593Y-96956617D01*
X149508776Y-97086221D01*
X149511543Y-97090780D01*
X149511544Y-97090783D01*
X149579269Y-97202389D01*
X149628377Y-97283317D01*
X149631874Y-97287347D01*
X149741062Y-97413175D01*
X149779477Y-97457445D01*
X149783608Y-97460832D01*
X149953627Y-97600240D01*
X149953633Y-97600244D01*
X149957755Y-97603624D01*
X149989250Y-97621552D01*
X150038555Y-97672632D01*
X150052417Y-97742262D01*
X150026434Y-97808333D01*
X149997284Y-97835573D01*
X149875681Y-97917441D01*
X149871824Y-97921120D01*
X149871822Y-97921122D01*
X149841427Y-97950118D01*
X149708865Y-98076576D01*
X149571246Y-98261542D01*
X149466760Y-98467051D01*
X149465178Y-98472145D01*
X149465177Y-98472148D01*
X149423685Y-98605775D01*
X149398393Y-98687227D01*
X149397692Y-98692516D01*
X149371009Y-98893842D01*
X149368102Y-98915774D01*
X148328500Y-98915774D01*
X148328500Y-95114740D01*
X148351287Y-95042469D01*
X148406635Y-94963424D01*
X148457523Y-94890749D01*
X148459846Y-94885767D01*
X148459849Y-94885762D01*
X148551961Y-94688225D01*
X148551961Y-94688224D01*
X148554284Y-94683243D01*
X148560176Y-94661256D01*
X148612119Y-94467402D01*
X148612119Y-94467400D01*
X148613543Y-94462087D01*
X148633498Y-94234000D01*
X148613543Y-94005913D01*
X148584942Y-93899173D01*
X148555707Y-93790067D01*
X148555706Y-93790065D01*
X148554284Y-93784757D01*
X148546110Y-93767227D01*
X148459849Y-93582238D01*
X148459846Y-93582233D01*
X148457523Y-93577251D01*
X148326198Y-93389700D01*
X148164300Y-93227802D01*
X148159792Y-93224645D01*
X148159789Y-93224643D01*
X148032765Y-93135700D01*
X147976749Y-93096477D01*
X147971767Y-93094154D01*
X147971762Y-93094151D01*
X147774225Y-93002039D01*
X147774224Y-93002039D01*
X147769243Y-92999716D01*
X147763935Y-92998294D01*
X147763933Y-92998293D01*
X147553402Y-92941881D01*
X147553400Y-92941881D01*
X147548087Y-92940457D01*
X147320000Y-92920502D01*
X147091913Y-92940457D01*
X147086600Y-92941881D01*
X147086598Y-92941881D01*
X146876067Y-92998293D01*
X146876065Y-92998294D01*
X146870757Y-92999716D01*
X146865776Y-93002039D01*
X146865775Y-93002039D01*
X146668238Y-93094151D01*
X146668233Y-93094154D01*
X146663251Y-93096477D01*
X146607235Y-93135700D01*
X146480211Y-93224643D01*
X146480208Y-93224645D01*
X146475700Y-93227802D01*
X146313802Y-93389700D01*
X146182477Y-93577251D01*
X146180154Y-93582233D01*
X146180151Y-93582238D01*
X146093890Y-93767227D01*
X146085716Y-93784757D01*
X146084294Y-93790065D01*
X146084293Y-93790067D01*
X146055058Y-93899173D01*
X146026457Y-94005913D01*
X146006502Y-94234000D01*
X146026457Y-94462087D01*
X146027881Y-94467400D01*
X146027881Y-94467402D01*
X146079825Y-94661256D01*
X146085716Y-94683243D01*
X146088039Y-94688224D01*
X146088039Y-94688225D01*
X146180151Y-94885762D01*
X146180154Y-94885767D01*
X146182477Y-94890749D01*
X146233365Y-94963424D01*
X146288713Y-95042469D01*
X146311500Y-95114740D01*
X146311500Y-104149245D01*
X146291498Y-104217366D01*
X146237842Y-104263859D01*
X146167568Y-104273963D01*
X146123168Y-104258747D01*
X146116529Y-104254968D01*
X146111886Y-104252325D01*
X145895175Y-104173663D01*
X145889926Y-104172714D01*
X145889923Y-104172713D01*
X145672392Y-104133377D01*
X145672385Y-104133376D01*
X145668308Y-104132639D01*
X145650586Y-104131803D01*
X145645644Y-104131570D01*
X145645637Y-104131570D01*
X145644156Y-104131500D01*
X145232110Y-104131500D01*
X145165191Y-104137178D01*
X145065591Y-104145629D01*
X145065587Y-104145630D01*
X145060280Y-104146080D01*
X145055125Y-104147418D01*
X145055119Y-104147419D01*
X144842297Y-104202657D01*
X144842293Y-104202658D01*
X144837128Y-104203999D01*
X144832262Y-104206191D01*
X144832259Y-104206192D01*
X144723980Y-104254968D01*
X144626925Y-104298688D01*
X144435681Y-104427441D01*
X144431824Y-104431120D01*
X144431822Y-104431122D01*
X144390503Y-104470539D01*
X144268865Y-104586576D01*
X144131246Y-104771542D01*
X144128830Y-104776293D01*
X144128828Y-104776297D01*
X144105234Y-104822704D01*
X144026760Y-104977051D01*
X144025178Y-104982145D01*
X144025177Y-104982148D01*
X144013194Y-105020740D01*
X143958393Y-105197227D01*
X143957692Y-105202516D01*
X143929110Y-105418172D01*
X143928102Y-105425774D01*
X143936751Y-105656158D01*
X143984093Y-105881791D01*
X143986051Y-105886750D01*
X143986052Y-105886752D01*
X144054630Y-106060400D01*
X144068776Y-106096221D01*
X144188377Y-106293317D01*
X144191874Y-106297347D01*
X144316579Y-106441057D01*
X144339477Y-106467445D01*
X144343608Y-106470832D01*
X144513627Y-106610240D01*
X144513633Y-106610244D01*
X144517755Y-106613624D01*
X144549250Y-106631552D01*
X144598555Y-106682632D01*
X144612417Y-106752262D01*
X144586434Y-106818333D01*
X144557284Y-106845573D01*
X144435681Y-106927441D01*
X144431824Y-106931120D01*
X144431822Y-106931122D01*
X144418530Y-106943802D01*
X144268865Y-107086576D01*
X144131246Y-107271542D01*
X144128830Y-107276293D01*
X144128828Y-107276297D01*
X144117673Y-107298238D01*
X144026760Y-107477051D01*
X144025178Y-107482145D01*
X144025177Y-107482148D01*
X143963115Y-107682020D01*
X143958393Y-107697227D01*
X143957692Y-107702516D01*
X143942304Y-107818623D01*
X143928102Y-107925774D01*
X143936751Y-108156158D01*
X143984093Y-108381791D01*
X143986051Y-108386750D01*
X143986052Y-108386752D01*
X144035222Y-108511256D01*
X144068776Y-108596221D01*
X144071543Y-108600780D01*
X144071544Y-108600783D01*
X144077900Y-108611257D01*
X144188377Y-108793317D01*
X144191874Y-108797347D01*
X144322990Y-108948445D01*
X144339477Y-108967445D01*
X144375120Y-108996670D01*
X144415114Y-109055329D01*
X144417046Y-109126299D01*
X144380302Y-109187048D01*
X144361532Y-109201248D01*
X144269760Y-109258039D01*
X144215652Y-109291522D01*
X144090695Y-109416697D01*
X144086855Y-109422927D01*
X144086854Y-109422928D01*
X144005633Y-109554693D01*
X143997885Y-109567262D01*
X143942203Y-109735139D01*
X143931500Y-109839600D01*
X143931500Y-111140400D01*
X143931837Y-111143646D01*
X143931837Y-111143650D01*
X143939066Y-111213317D01*
X143942474Y-111246166D01*
X143944655Y-111252702D01*
X143944655Y-111252704D01*
X143953760Y-111279994D01*
X143998450Y-111413946D01*
X144091522Y-111564348D01*
X144216697Y-111689305D01*
X144222927Y-111693145D01*
X144222928Y-111693146D01*
X144357775Y-111776267D01*
X144367262Y-111782115D01*
X144447005Y-111808564D01*
X144528611Y-111835632D01*
X144528613Y-111835632D01*
X144535139Y-111837797D01*
X144541975Y-111838497D01*
X144541978Y-111838498D01*
X144585031Y-111842909D01*
X144639600Y-111848500D01*
X146185500Y-111848500D01*
X146253621Y-111868502D01*
X146300114Y-111922158D01*
X146311500Y-111974500D01*
X146311500Y-120917043D01*
X146291498Y-120985164D01*
X146237842Y-121031657D01*
X146167568Y-121041761D01*
X146102988Y-121012267D01*
X146090335Y-120999624D01*
X146079024Y-120986589D01*
X146079021Y-120986586D01*
X146075523Y-120982555D01*
X146032264Y-120947085D01*
X145901373Y-120839760D01*
X145901367Y-120839756D01*
X145897245Y-120836376D01*
X145892609Y-120833737D01*
X145892606Y-120833735D01*
X145701529Y-120724968D01*
X145696886Y-120722325D01*
X145480175Y-120643663D01*
X145474926Y-120642714D01*
X145474923Y-120642713D01*
X145257392Y-120603377D01*
X145257385Y-120603376D01*
X145253308Y-120602639D01*
X145235586Y-120601803D01*
X145230644Y-120601570D01*
X145230637Y-120601570D01*
X145229156Y-120601500D01*
X144817110Y-120601500D01*
X144750191Y-120607178D01*
X144650591Y-120615629D01*
X144650587Y-120615630D01*
X144645280Y-120616080D01*
X144640125Y-120617418D01*
X144640119Y-120617419D01*
X144427297Y-120672657D01*
X144427293Y-120672658D01*
X144422128Y-120673999D01*
X144417262Y-120676191D01*
X144417259Y-120676192D01*
X144308980Y-120724968D01*
X144211925Y-120768688D01*
X144020681Y-120897441D01*
X143853865Y-121056576D01*
X143850682Y-121060854D01*
X143735589Y-121215544D01*
X143678879Y-121258257D01*
X143608078Y-121263530D01*
X143545666Y-121229687D01*
X143511459Y-121167475D01*
X143508500Y-121140331D01*
X143508500Y-116450740D01*
X143531287Y-116378469D01*
X143634366Y-116231257D01*
X143637523Y-116226749D01*
X143639846Y-116221767D01*
X143639849Y-116221762D01*
X143731961Y-116024225D01*
X143731961Y-116024224D01*
X143734284Y-116019243D01*
X143771115Y-115881791D01*
X143792119Y-115803402D01*
X143792119Y-115803400D01*
X143793543Y-115798087D01*
X143813498Y-115570000D01*
X143793543Y-115341913D01*
X143788701Y-115323842D01*
X143735707Y-115126067D01*
X143735706Y-115126065D01*
X143734284Y-115120757D01*
X143731961Y-115115775D01*
X143639849Y-114918238D01*
X143639846Y-114918233D01*
X143637523Y-114913251D01*
X143531287Y-114761531D01*
X143508500Y-114689260D01*
X143508500Y-99940740D01*
X143531287Y-99868469D01*
X143594104Y-99778757D01*
X143637523Y-99716749D01*
X143639846Y-99711767D01*
X143639849Y-99711762D01*
X143731961Y-99514225D01*
X143731961Y-99514224D01*
X143734284Y-99509243D01*
X143749679Y-99451791D01*
X143792119Y-99293402D01*
X143792119Y-99293400D01*
X143793543Y-99288087D01*
X143813498Y-99060000D01*
X143793543Y-98831913D01*
X143788701Y-98813842D01*
X143735707Y-98616067D01*
X143735706Y-98616065D01*
X143734284Y-98610757D01*
X143731961Y-98605775D01*
X143639849Y-98408238D01*
X143639846Y-98408233D01*
X143637523Y-98403251D01*
X143531287Y-98251531D01*
X143508500Y-98179260D01*
X143508500Y-97893740D01*
X143528502Y-97825619D01*
X143568665Y-97786308D01*
X143633193Y-97746765D01*
X143633203Y-97746758D01*
X143637416Y-97744176D01*
X143817969Y-97589969D01*
X143972176Y-97409416D01*
X143974755Y-97405208D01*
X143974759Y-97405202D01*
X144093654Y-97211183D01*
X144096240Y-97206963D01*
X144101733Y-97193703D01*
X144185211Y-96992167D01*
X144185212Y-96992165D01*
X144187105Y-96987594D01*
X144218275Y-96857760D01*
X144241380Y-96761524D01*
X144241381Y-96761518D01*
X144242535Y-96756711D01*
X144261165Y-96520000D01*
X144242535Y-96283289D01*
X144224688Y-96208948D01*
X144196953Y-96093428D01*
X144187105Y-96052406D01*
X144159923Y-95986783D01*
X144098135Y-95837611D01*
X144098133Y-95837607D01*
X144096240Y-95833037D01*
X144081266Y-95808602D01*
X143974759Y-95634798D01*
X143974755Y-95634792D01*
X143972176Y-95630584D01*
X143837869Y-95473331D01*
X143821177Y-95453787D01*
X143817969Y-95450031D01*
X143814213Y-95446823D01*
X143814208Y-95446818D01*
X143658316Y-95313674D01*
X143619506Y-95254224D01*
X143618999Y-95183229D01*
X143632634Y-95154606D01*
X143631617Y-95154019D01*
X143634367Y-95149256D01*
X143637523Y-95144749D01*
X143639846Y-95139767D01*
X143639849Y-95139762D01*
X143731961Y-94942225D01*
X143731961Y-94942224D01*
X143734284Y-94937243D01*
X143748079Y-94885762D01*
X143792119Y-94721402D01*
X143792119Y-94721400D01*
X143793543Y-94716087D01*
X143813498Y-94488000D01*
X143793543Y-94259913D01*
X143734284Y-94038757D01*
X143714241Y-93995774D01*
X143639849Y-93836238D01*
X143639846Y-93836233D01*
X143637523Y-93831251D01*
X143527014Y-93673428D01*
X143509357Y-93648211D01*
X143509355Y-93648208D01*
X143506198Y-93643700D01*
X143344300Y-93481802D01*
X143339792Y-93478645D01*
X143339789Y-93478643D01*
X143210027Y-93387783D01*
X143156749Y-93350477D01*
X143151767Y-93348154D01*
X143151762Y-93348151D01*
X142954225Y-93256039D01*
X142954224Y-93256039D01*
X142949243Y-93253716D01*
X142943935Y-93252294D01*
X142943933Y-93252293D01*
X142733402Y-93195881D01*
X142733400Y-93195881D01*
X142728087Y-93194457D01*
X142500000Y-93174502D01*
X142271913Y-93194457D01*
X142266600Y-93195881D01*
X142266598Y-93195881D01*
X142056067Y-93252293D01*
X142056065Y-93252294D01*
X142050757Y-93253716D01*
X142045776Y-93256039D01*
X142045775Y-93256039D01*
X141848238Y-93348151D01*
X141848233Y-93348154D01*
X141843251Y-93350477D01*
X141789973Y-93387783D01*
X141660211Y-93478643D01*
X141660208Y-93478645D01*
X141655700Y-93481802D01*
X141493802Y-93643700D01*
X141490645Y-93648208D01*
X141490643Y-93648211D01*
X141472986Y-93673428D01*
X141362477Y-93831251D01*
X141360154Y-93836233D01*
X141360151Y-93836238D01*
X141285759Y-93995774D01*
X141265716Y-94038757D01*
X141206457Y-94259913D01*
X141186502Y-94488000D01*
X141206457Y-94716087D01*
X141207881Y-94721400D01*
X141207881Y-94721402D01*
X141251922Y-94885762D01*
X141265716Y-94937243D01*
X141268039Y-94942224D01*
X141268039Y-94942225D01*
X141360151Y-95139762D01*
X141360154Y-95139767D01*
X141362477Y-95144749D01*
X141451660Y-95272115D01*
X141468713Y-95296469D01*
X141491500Y-95368740D01*
X141491500Y-95647797D01*
X141472932Y-95713632D01*
X141399760Y-95833037D01*
X141397865Y-95837613D01*
X141397863Y-95837616D01*
X141379354Y-95882299D01*
X141334806Y-95937580D01*
X141267442Y-95960000D01*
X141198651Y-95942441D01*
X141148751Y-95887329D01*
X141139851Y-95868242D01*
X141139847Y-95868236D01*
X141137523Y-95863251D01*
X141060288Y-95752948D01*
X141009357Y-95680211D01*
X141009355Y-95680208D01*
X141006198Y-95675700D01*
X140844300Y-95513802D01*
X140839792Y-95510645D01*
X140839789Y-95510643D01*
X140748637Y-95446818D01*
X140656749Y-95382477D01*
X140651767Y-95380154D01*
X140651762Y-95380151D01*
X140454225Y-95288039D01*
X140454224Y-95288039D01*
X140449243Y-95285716D01*
X140443935Y-95284294D01*
X140443933Y-95284293D01*
X140233402Y-95227881D01*
X140233400Y-95227881D01*
X140228087Y-95226457D01*
X140000000Y-95206502D01*
X139771913Y-95226457D01*
X139766600Y-95227881D01*
X139766598Y-95227881D01*
X139556067Y-95284293D01*
X139556065Y-95284294D01*
X139550757Y-95285716D01*
X139545776Y-95288039D01*
X139545775Y-95288039D01*
X139348238Y-95380151D01*
X139348233Y-95380154D01*
X139343251Y-95382477D01*
X139251363Y-95446818D01*
X139160211Y-95510643D01*
X139160208Y-95510645D01*
X139155700Y-95513802D01*
X138993802Y-95675700D01*
X138990645Y-95680208D01*
X138990643Y-95680211D01*
X138939712Y-95752948D01*
X138862477Y-95863251D01*
X138860154Y-95868233D01*
X138860151Y-95868238D01*
X138802527Y-95991815D01*
X138755610Y-96045100D01*
X138687333Y-96064561D01*
X138619373Y-96044019D01*
X138571923Y-95986783D01*
X138522821Y-95868238D01*
X138518091Y-95856820D01*
X138508500Y-95808602D01*
X138508500Y-94860740D01*
X138531287Y-94788469D01*
X138572712Y-94729308D01*
X138637523Y-94636749D01*
X138639846Y-94631767D01*
X138639849Y-94631762D01*
X138731961Y-94434225D01*
X138731961Y-94434224D01*
X138734284Y-94429243D01*
X138756192Y-94347484D01*
X138792119Y-94213402D01*
X138792119Y-94213400D01*
X138793543Y-94208087D01*
X138813498Y-93980000D01*
X138793543Y-93751913D01*
X138772513Y-93673428D01*
X138735707Y-93536067D01*
X138735706Y-93536065D01*
X138734284Y-93530757D01*
X138693096Y-93442428D01*
X138639849Y-93328238D01*
X138639846Y-93328233D01*
X138637523Y-93323251D01*
X138543043Y-93188320D01*
X138509357Y-93140211D01*
X138509355Y-93140208D01*
X138506198Y-93135700D01*
X138344300Y-92973802D01*
X138339792Y-92970645D01*
X138339789Y-92970643D01*
X138246972Y-92905652D01*
X138156749Y-92842477D01*
X138151767Y-92840154D01*
X138151762Y-92840151D01*
X137954225Y-92748039D01*
X137954224Y-92748039D01*
X137949243Y-92745716D01*
X137943935Y-92744294D01*
X137943933Y-92744293D01*
X137733402Y-92687881D01*
X137733400Y-92687881D01*
X137728087Y-92686457D01*
X137500000Y-92666502D01*
X137271913Y-92686457D01*
X137266600Y-92687881D01*
X137266598Y-92687881D01*
X137056067Y-92744293D01*
X137056065Y-92744294D01*
X137050757Y-92745716D01*
X137045776Y-92748039D01*
X137045775Y-92748039D01*
X136848238Y-92840151D01*
X136848233Y-92840154D01*
X136843251Y-92842477D01*
X136753028Y-92905652D01*
X136660211Y-92970643D01*
X136660208Y-92970645D01*
X136655700Y-92973802D01*
X136493802Y-93135700D01*
X136490645Y-93140208D01*
X136490643Y-93140211D01*
X136456957Y-93188320D01*
X136362477Y-93323251D01*
X136360154Y-93328233D01*
X136360151Y-93328238D01*
X136306904Y-93442428D01*
X136265716Y-93530757D01*
X136264294Y-93536065D01*
X136264293Y-93536067D01*
X136227487Y-93673428D01*
X136206457Y-93751913D01*
X136186502Y-93980000D01*
X136206457Y-94208087D01*
X136207881Y-94213400D01*
X136207881Y-94213402D01*
X136243809Y-94347484D01*
X136265716Y-94429243D01*
X136268039Y-94434224D01*
X136268039Y-94434225D01*
X136360151Y-94631762D01*
X136360154Y-94631767D01*
X136362477Y-94636749D01*
X136427288Y-94729308D01*
X136468713Y-94788469D01*
X136491500Y-94860740D01*
X136491500Y-95089882D01*
X136471498Y-95158003D01*
X136431335Y-95197314D01*
X136274807Y-95293235D01*
X136274797Y-95293242D01*
X136270584Y-95295824D01*
X136090031Y-95450031D01*
X136086823Y-95453787D01*
X136070131Y-95473331D01*
X135935824Y-95630584D01*
X135933245Y-95634792D01*
X135933241Y-95634798D01*
X135826734Y-95808602D01*
X135811760Y-95833037D01*
X135809867Y-95837607D01*
X135809865Y-95837611D01*
X135748077Y-95986783D01*
X135720895Y-96052406D01*
X135711047Y-96093428D01*
X135683313Y-96208948D01*
X135665465Y-96283289D01*
X135646835Y-96520000D01*
X135665465Y-96756711D01*
X135666619Y-96761518D01*
X135666620Y-96761524D01*
X135689725Y-96857760D01*
X135720895Y-96987594D01*
X135722788Y-96992165D01*
X135722789Y-96992167D01*
X135806268Y-97193703D01*
X135811760Y-97206963D01*
X135814346Y-97211183D01*
X135933241Y-97405202D01*
X135933245Y-97405208D01*
X135935824Y-97409416D01*
X136090031Y-97589969D01*
X136270584Y-97744176D01*
X136274797Y-97746758D01*
X136274807Y-97746765D01*
X136431335Y-97842686D01*
X136478966Y-97895333D01*
X136491500Y-97950118D01*
X136491500Y-103259260D01*
X136468713Y-103331531D01*
X136362477Y-103483251D01*
X136360154Y-103488233D01*
X136360151Y-103488238D01*
X136311101Y-103593428D01*
X136265716Y-103690757D01*
X136206457Y-103911913D01*
X136205978Y-103917389D01*
X136205977Y-103917394D01*
X136203935Y-103940741D01*
X136178072Y-104006859D01*
X136120569Y-104048499D01*
X136065572Y-104055104D01*
X136030400Y-104051500D01*
X134479600Y-104051500D01*
X134476354Y-104051837D01*
X134476350Y-104051837D01*
X134380692Y-104061762D01*
X134380688Y-104061763D01*
X134373834Y-104062474D01*
X134367298Y-104064655D01*
X134367296Y-104064655D01*
X134318179Y-104081042D01*
X134206054Y-104118450D01*
X134055652Y-104211522D01*
X133930695Y-104336697D01*
X133926855Y-104342927D01*
X133926854Y-104342928D01*
X133906005Y-104376752D01*
X133837885Y-104487262D01*
X133782203Y-104655139D01*
X133771500Y-104759600D01*
X133771500Y-106060400D01*
X133771837Y-106063646D01*
X133771837Y-106063650D01*
X133775217Y-106096221D01*
X133782474Y-106166166D01*
X133838450Y-106333946D01*
X133931522Y-106484348D01*
X134056697Y-106609305D01*
X134062927Y-106613145D01*
X134062928Y-106613146D01*
X134067983Y-106616262D01*
X134202340Y-106699081D01*
X134249832Y-106751852D01*
X134261256Y-106821924D01*
X134232982Y-106887048D01*
X134223195Y-106897510D01*
X134108865Y-107006576D01*
X133971246Y-107191542D01*
X133866760Y-107397051D01*
X133865178Y-107402145D01*
X133865177Y-107402148D01*
X133841919Y-107477051D01*
X133798393Y-107617227D01*
X133797692Y-107622516D01*
X133771009Y-107823842D01*
X133768102Y-107845774D01*
X133776751Y-108076158D01*
X133824093Y-108301791D01*
X133826051Y-108306750D01*
X133826052Y-108306752D01*
X133903535Y-108502949D01*
X133908776Y-108516221D01*
X133911543Y-108520780D01*
X133911544Y-108520783D01*
X133960684Y-108601762D01*
X134028377Y-108713317D01*
X134179477Y-108887445D01*
X134200364Y-108904571D01*
X134353627Y-109030240D01*
X134353633Y-109030244D01*
X134357755Y-109033624D01*
X134389250Y-109051552D01*
X134438555Y-109102632D01*
X134452417Y-109172262D01*
X134426434Y-109238333D01*
X134397284Y-109265573D01*
X134275681Y-109347441D01*
X134271824Y-109351120D01*
X134271822Y-109351122D01*
X134258324Y-109363999D01*
X134108865Y-109506576D01*
X133971246Y-109691542D01*
X133968830Y-109696293D01*
X133968828Y-109696297D01*
X133949080Y-109735139D01*
X133866760Y-109897051D01*
X133865178Y-109902145D01*
X133865177Y-109902148D01*
X133823685Y-110035775D01*
X133798393Y-110117227D01*
X133797692Y-110122516D01*
X133779217Y-110261913D01*
X133768102Y-110345774D01*
X133768302Y-110351103D01*
X133768302Y-110351105D01*
X133772427Y-110460966D01*
X133776751Y-110576158D01*
X133824093Y-110801791D01*
X133826051Y-110806750D01*
X133826052Y-110806752D01*
X133876279Y-110933933D01*
X133908776Y-111016221D01*
X133911543Y-111020781D01*
X133911547Y-111020789D01*
X133966541Y-111111416D01*
X133984780Y-111180029D01*
X133963028Y-111247612D01*
X133931093Y-111279994D01*
X133780211Y-111385643D01*
X133780208Y-111385645D01*
X133775700Y-111388802D01*
X133613802Y-111550700D01*
X133610645Y-111555208D01*
X133610643Y-111555211D01*
X133601350Y-111568483D01*
X133482477Y-111738251D01*
X133480154Y-111743233D01*
X133480151Y-111743238D01*
X133401204Y-111912542D01*
X133385716Y-111945757D01*
X133384294Y-111951065D01*
X133384293Y-111951067D01*
X133336207Y-112130526D01*
X133299255Y-112191149D01*
X133235394Y-112222170D01*
X133164900Y-112213742D01*
X133110153Y-112168539D01*
X133088500Y-112097915D01*
X133088500Y-108830740D01*
X133111287Y-108758469D01*
X133214366Y-108611257D01*
X133217523Y-108606749D01*
X133219846Y-108601767D01*
X133219849Y-108601762D01*
X133311961Y-108404225D01*
X133311961Y-108404224D01*
X133314284Y-108399243D01*
X133340397Y-108301791D01*
X133372119Y-108183402D01*
X133372119Y-108183400D01*
X133373543Y-108178087D01*
X133393498Y-107950000D01*
X133373543Y-107721913D01*
X133368346Y-107702516D01*
X133315707Y-107506067D01*
X133315706Y-107506065D01*
X133314284Y-107500757D01*
X133268302Y-107402148D01*
X133219849Y-107298238D01*
X133219846Y-107298233D01*
X133217523Y-107293251D01*
X133086198Y-107105700D01*
X132924300Y-106943802D01*
X132919792Y-106940645D01*
X132919789Y-106940643D01*
X132818557Y-106869760D01*
X132736749Y-106812477D01*
X132731767Y-106810154D01*
X132731762Y-106810151D01*
X132534225Y-106718039D01*
X132534224Y-106718039D01*
X132529243Y-106715716D01*
X132523935Y-106714294D01*
X132523933Y-106714293D01*
X132313402Y-106657881D01*
X132313400Y-106657881D01*
X132308087Y-106656457D01*
X132080000Y-106636502D01*
X131851913Y-106656457D01*
X131846600Y-106657881D01*
X131846598Y-106657881D01*
X131636067Y-106714293D01*
X131636065Y-106714294D01*
X131630757Y-106715716D01*
X131625776Y-106718039D01*
X131625775Y-106718039D01*
X131428238Y-106810151D01*
X131428233Y-106810154D01*
X131423251Y-106812477D01*
X131341443Y-106869760D01*
X131240211Y-106940643D01*
X131240208Y-106940645D01*
X131235700Y-106943802D01*
X131073802Y-107105700D01*
X130942477Y-107293251D01*
X130940154Y-107298233D01*
X130940151Y-107298238D01*
X130891698Y-107402148D01*
X130845716Y-107500757D01*
X130844294Y-107506065D01*
X130844293Y-107506067D01*
X130791654Y-107702516D01*
X130786457Y-107721913D01*
X130766502Y-107950000D01*
X130786457Y-108178087D01*
X130787881Y-108183400D01*
X130787881Y-108183402D01*
X130819604Y-108301791D01*
X130845716Y-108399243D01*
X130848039Y-108404224D01*
X130848039Y-108404225D01*
X130940151Y-108601762D01*
X130940154Y-108601767D01*
X130942477Y-108606749D01*
X130945634Y-108611257D01*
X131048713Y-108758469D01*
X131071500Y-108830740D01*
X131071500Y-109554693D01*
X131051498Y-109622814D01*
X130997842Y-109669307D01*
X130927568Y-109679411D01*
X130865609Y-109652127D01*
X130863273Y-109650211D01*
X130829860Y-109622814D01*
X130716373Y-109529760D01*
X130716367Y-109529756D01*
X130712245Y-109526376D01*
X130707609Y-109523737D01*
X130707606Y-109523735D01*
X130528672Y-109421880D01*
X130511886Y-109412325D01*
X130295175Y-109333663D01*
X130289926Y-109332714D01*
X130289923Y-109332713D01*
X130072392Y-109293377D01*
X130072385Y-109293376D01*
X130068308Y-109292639D01*
X130050586Y-109291803D01*
X130045644Y-109291570D01*
X130045637Y-109291570D01*
X130044156Y-109291500D01*
X129082110Y-109291500D01*
X129020779Y-109296704D01*
X128915591Y-109305629D01*
X128915587Y-109305630D01*
X128910280Y-109306080D01*
X128905125Y-109307418D01*
X128905119Y-109307419D01*
X128692297Y-109362657D01*
X128692293Y-109362658D01*
X128687128Y-109363999D01*
X128682262Y-109366191D01*
X128682259Y-109366192D01*
X128578553Y-109412908D01*
X128476925Y-109458688D01*
X128285681Y-109587441D01*
X128281824Y-109591120D01*
X128281822Y-109591122D01*
X128228695Y-109641803D01*
X128118865Y-109746576D01*
X127981246Y-109931542D01*
X127876760Y-110137051D01*
X127808393Y-110357227D01*
X127807692Y-110362516D01*
X127790796Y-110490000D01*
X127778102Y-110585774D01*
X127786751Y-110816158D01*
X127834093Y-111041791D01*
X127836051Y-111046750D01*
X127836052Y-111046752D01*
X127914290Y-111244861D01*
X127918776Y-111256221D01*
X128038377Y-111453317D01*
X128041874Y-111457347D01*
X128181940Y-111618759D01*
X128189477Y-111627445D01*
X128193608Y-111630832D01*
X128363627Y-111770240D01*
X128363633Y-111770244D01*
X128367755Y-111773624D01*
X128372398Y-111776267D01*
X128399735Y-111791829D01*
X128449041Y-111842912D01*
X128462902Y-111912542D01*
X128436918Y-111978613D01*
X128407768Y-112005851D01*
X128290422Y-112084852D01*
X128282130Y-112091519D01*
X128123100Y-112243228D01*
X128116059Y-112251186D01*
X127984859Y-112427525D01*
X127979255Y-112436562D01*
X127879643Y-112632484D01*
X127875643Y-112642335D01*
X127810466Y-112852240D01*
X127808183Y-112862624D01*
X127806139Y-112878043D01*
X127808335Y-112892207D01*
X127821522Y-112896000D01*
X129668000Y-112896000D01*
X129736121Y-112916002D01*
X129782614Y-112969658D01*
X129794000Y-113022000D01*
X129794000Y-113278000D01*
X129773998Y-113346121D01*
X129720342Y-113392614D01*
X129668000Y-113404000D01*
X127823808Y-113404000D01*
X127810277Y-113407973D01*
X127808752Y-113418580D01*
X127833477Y-113536421D01*
X127836537Y-113546617D01*
X127917263Y-113751029D01*
X127921994Y-113760561D01*
X128036016Y-113948462D01*
X128042280Y-113957052D01*
X128186327Y-114123052D01*
X128193958Y-114130472D01*
X128363911Y-114269826D01*
X128372674Y-114275848D01*
X128399711Y-114291238D01*
X128449018Y-114342320D01*
X128462880Y-114411951D01*
X128436897Y-114478022D01*
X128407747Y-114505261D01*
X128406632Y-114506012D01*
X128285681Y-114587441D01*
X128281824Y-114591120D01*
X128281822Y-114591122D01*
X128217873Y-114652127D01*
X128118865Y-114746576D01*
X127981246Y-114931542D01*
X127978830Y-114936293D01*
X127978828Y-114936297D01*
X127929003Y-115034297D01*
X127876760Y-115137051D01*
X127875178Y-115142145D01*
X127875177Y-115142148D01*
X127820380Y-115318623D01*
X127808393Y-115357227D01*
X127807692Y-115362516D01*
X127780193Y-115570000D01*
X127778102Y-115585774D01*
X127786751Y-115816158D01*
X127834093Y-116041791D01*
X127836051Y-116046750D01*
X127836052Y-116046752D01*
X127898036Y-116203703D01*
X127918776Y-116256221D01*
X128038377Y-116453317D01*
X128041874Y-116457347D01*
X128181940Y-116618759D01*
X128189477Y-116627445D01*
X128193608Y-116630832D01*
X128363627Y-116770240D01*
X128363633Y-116770244D01*
X128367755Y-116773624D01*
X128399250Y-116791552D01*
X128448555Y-116842632D01*
X128462417Y-116912262D01*
X128436434Y-116978333D01*
X128407284Y-117005573D01*
X128391602Y-117016130D01*
X128285681Y-117087441D01*
X128281824Y-117091120D01*
X128281822Y-117091122D01*
X128217873Y-117152127D01*
X128118865Y-117246576D01*
X127981246Y-117431542D01*
X127978830Y-117436293D01*
X127978828Y-117436297D01*
X127929003Y-117534296D01*
X127876760Y-117637051D01*
X127875178Y-117642145D01*
X127875177Y-117642148D01*
X127825034Y-117803634D01*
X127808393Y-117857227D01*
X127778102Y-118085774D01*
X127786751Y-118316158D01*
X127834093Y-118541791D01*
X127836051Y-118546750D01*
X127836052Y-118546752D01*
X127898242Y-118704225D01*
X127918776Y-118756221D01*
X128038377Y-118953317D01*
X128041874Y-118957347D01*
X128181941Y-119118760D01*
X128189477Y-119127445D01*
X128225120Y-119156670D01*
X128265114Y-119215329D01*
X128267046Y-119286299D01*
X128230302Y-119347048D01*
X128211532Y-119361248D01*
X128109382Y-119424461D01*
X128065652Y-119451522D01*
X127940695Y-119576697D01*
X127936855Y-119582927D01*
X127936854Y-119582928D01*
X127870088Y-119691243D01*
X127847885Y-119727262D01*
X127845581Y-119734209D01*
X127800787Y-119869260D01*
X127792203Y-119895139D01*
X127781500Y-119999600D01*
X127781500Y-121300400D01*
X127781837Y-121303646D01*
X127781837Y-121303650D01*
X127791534Y-121397103D01*
X127792474Y-121406166D01*
X127848450Y-121573946D01*
X127941522Y-121724348D01*
X128066697Y-121849305D01*
X128072927Y-121853145D01*
X128072928Y-121853146D01*
X128210090Y-121937694D01*
X128217262Y-121942115D01*
X128280286Y-121963019D01*
X128378611Y-121995632D01*
X128378613Y-121995632D01*
X128385139Y-121997797D01*
X128391975Y-121998497D01*
X128391978Y-121998498D01*
X128435031Y-122002909D01*
X128489600Y-122008500D01*
X130590400Y-122008500D01*
X130593646Y-122008163D01*
X130593650Y-122008163D01*
X130689308Y-121998238D01*
X130689312Y-121998237D01*
X130696166Y-121997526D01*
X130702702Y-121995345D01*
X130702704Y-121995345D01*
X130834806Y-121951272D01*
X130863946Y-121941550D01*
X131014348Y-121848478D01*
X131139305Y-121723303D01*
X131140451Y-121724447D01*
X131191254Y-121688426D01*
X131262177Y-121685192D01*
X131304491Y-121704366D01*
X131423251Y-121787523D01*
X131428233Y-121789846D01*
X131428238Y-121789849D01*
X131625775Y-121881961D01*
X131630757Y-121884284D01*
X131636065Y-121885706D01*
X131636067Y-121885707D01*
X131846598Y-121942119D01*
X131846600Y-121942119D01*
X131851913Y-121943543D01*
X132080000Y-121963498D01*
X132308087Y-121943543D01*
X132313400Y-121942119D01*
X132313402Y-121942119D01*
X132523933Y-121885707D01*
X132523935Y-121885706D01*
X132529243Y-121884284D01*
X132534225Y-121881961D01*
X132731762Y-121789849D01*
X132731767Y-121789846D01*
X132736749Y-121787523D01*
X132878274Y-121688426D01*
X132919789Y-121659357D01*
X132919792Y-121659355D01*
X132924300Y-121656198D01*
X133086198Y-121494300D01*
X133217523Y-121306749D01*
X133219846Y-121301767D01*
X133219849Y-121301762D01*
X133311961Y-121104225D01*
X133311961Y-121104224D01*
X133314284Y-121099243D01*
X133324571Y-121060854D01*
X133363793Y-120914474D01*
X133400745Y-120853851D01*
X133464606Y-120822830D01*
X133535100Y-120831258D01*
X133589847Y-120876461D01*
X133611500Y-120947085D01*
X133611500Y-124162915D01*
X133591498Y-124231036D01*
X133537842Y-124277529D01*
X133467568Y-124287633D01*
X133402988Y-124258139D01*
X133363793Y-124195526D01*
X133315707Y-124016067D01*
X133315706Y-124016065D01*
X133314284Y-124010757D01*
X133284578Y-123947051D01*
X133219849Y-123808238D01*
X133219846Y-123808233D01*
X133217523Y-123803251D01*
X133086198Y-123615700D01*
X132924300Y-123453802D01*
X132919792Y-123450645D01*
X132919789Y-123450643D01*
X132841611Y-123395902D01*
X132736749Y-123322477D01*
X132731767Y-123320154D01*
X132731762Y-123320151D01*
X132534225Y-123228039D01*
X132534224Y-123228039D01*
X132529243Y-123225716D01*
X132523935Y-123224294D01*
X132523933Y-123224293D01*
X132313402Y-123167881D01*
X132313400Y-123167881D01*
X132308087Y-123166457D01*
X132080000Y-123146502D01*
X131851913Y-123166457D01*
X131846600Y-123167881D01*
X131846598Y-123167881D01*
X131636067Y-123224293D01*
X131636065Y-123224294D01*
X131630757Y-123225716D01*
X131625776Y-123228039D01*
X131625775Y-123228039D01*
X131428238Y-123320151D01*
X131428233Y-123320154D01*
X131423251Y-123322477D01*
X131318389Y-123395902D01*
X131240211Y-123450643D01*
X131240208Y-123450645D01*
X131235700Y-123453802D01*
X131073802Y-123615700D01*
X130942477Y-123803251D01*
X130940154Y-123808233D01*
X130940151Y-123808238D01*
X130875422Y-123947051D01*
X130845716Y-124010757D01*
X130786457Y-124231913D01*
X130766502Y-124460000D01*
X130786457Y-124688087D01*
X130787881Y-124693400D01*
X130787881Y-124693402D01*
X130830322Y-124851791D01*
X130845716Y-124909243D01*
X130848039Y-124914224D01*
X130848039Y-124914225D01*
X130940151Y-125111762D01*
X130940154Y-125111767D01*
X130942477Y-125116749D01*
X130988245Y-125182112D01*
X131048713Y-125268469D01*
X131071500Y-125340740D01*
X131071500Y-125904693D01*
X131051498Y-125972814D01*
X130997842Y-126019307D01*
X130927568Y-126029411D01*
X130865609Y-126002127D01*
X130716373Y-125879760D01*
X130716367Y-125879756D01*
X130712245Y-125876376D01*
X130707609Y-125873737D01*
X130707606Y-125873735D01*
X130516529Y-125764968D01*
X130511886Y-125762325D01*
X130295175Y-125683663D01*
X130289926Y-125682714D01*
X130289923Y-125682713D01*
X130072392Y-125643377D01*
X130072385Y-125643376D01*
X130068308Y-125642639D01*
X130050586Y-125641803D01*
X130045644Y-125641570D01*
X130045637Y-125641570D01*
X130044156Y-125641500D01*
X129082110Y-125641500D01*
X129015191Y-125647178D01*
X128915591Y-125655629D01*
X128915587Y-125655630D01*
X128910280Y-125656080D01*
X128905125Y-125657418D01*
X128905119Y-125657419D01*
X128692297Y-125712657D01*
X128692293Y-125712658D01*
X128687128Y-125713999D01*
X128682262Y-125716191D01*
X128682259Y-125716192D01*
X128535371Y-125782360D01*
X128476925Y-125808688D01*
X128285681Y-125937441D01*
X128281824Y-125941120D01*
X128281822Y-125941122D01*
X128217873Y-126002127D01*
X128118865Y-126096576D01*
X127981246Y-126281542D01*
X127978830Y-126286293D01*
X127978828Y-126286297D01*
X127944983Y-126352866D01*
X127876760Y-126487051D01*
X127875178Y-126492145D01*
X127875177Y-126492148D01*
X127856085Y-126553634D01*
X127808393Y-126707227D01*
X127778102Y-126935774D01*
X127786751Y-127166158D01*
X127834093Y-127391791D01*
X127836051Y-127396750D01*
X127836052Y-127396752D01*
X127858750Y-127454225D01*
X127918776Y-127606221D01*
X127921543Y-127610780D01*
X127921544Y-127610783D01*
X127946411Y-127651762D01*
X128038377Y-127803317D01*
X128041874Y-127807347D01*
X128181940Y-127968759D01*
X128189477Y-127977445D01*
X128193608Y-127980832D01*
X128363627Y-128120240D01*
X128363633Y-128120244D01*
X128367755Y-128123624D01*
X128372398Y-128126267D01*
X128399735Y-128141829D01*
X128449041Y-128192912D01*
X128462902Y-128262542D01*
X128436918Y-128328613D01*
X128407768Y-128355851D01*
X128290422Y-128434852D01*
X128282130Y-128441519D01*
X128123100Y-128593228D01*
X128116059Y-128601186D01*
X127984859Y-128777525D01*
X127979255Y-128786562D01*
X127879643Y-128982484D01*
X127875643Y-128992335D01*
X127810466Y-129202240D01*
X127808183Y-129212624D01*
X127806139Y-129228043D01*
X127808335Y-129242207D01*
X127821522Y-129246000D01*
X129668000Y-129246000D01*
X129736121Y-129266002D01*
X129782614Y-129319658D01*
X129794000Y-129372000D01*
X129794000Y-129628000D01*
X129773998Y-129696121D01*
X129720342Y-129742614D01*
X129668000Y-129754000D01*
X127823808Y-129754000D01*
X127810277Y-129757973D01*
X127808752Y-129768580D01*
X127833477Y-129886421D01*
X127836537Y-129896617D01*
X127917263Y-130101029D01*
X127921994Y-130110561D01*
X128036016Y-130298462D01*
X128042280Y-130307052D01*
X128186327Y-130473052D01*
X128193958Y-130480472D01*
X128363911Y-130619826D01*
X128372674Y-130625848D01*
X128399711Y-130641238D01*
X128449018Y-130692320D01*
X128462880Y-130761951D01*
X128436897Y-130828022D01*
X128407747Y-130855261D01*
X128376384Y-130876376D01*
X128285681Y-130937441D01*
X128281824Y-130941120D01*
X128281822Y-130941122D01*
X128217873Y-131002127D01*
X128118865Y-131096576D01*
X127981246Y-131281542D01*
X127978830Y-131286293D01*
X127978828Y-131286297D01*
X127947336Y-131348238D01*
X127876760Y-131487051D01*
X127875178Y-131492145D01*
X127875177Y-131492148D01*
X127834933Y-131621755D01*
X127808393Y-131707227D01*
X127807692Y-131712516D01*
X127792304Y-131828623D01*
X127778102Y-131935774D01*
X127786751Y-132166158D01*
X127834093Y-132391791D01*
X127836051Y-132396750D01*
X127836052Y-132396752D01*
X127858750Y-132454225D01*
X127918776Y-132606221D01*
X128038377Y-132803317D01*
X128041874Y-132807347D01*
X128183528Y-132970589D01*
X128189477Y-132977445D01*
X128193608Y-132980832D01*
X128363627Y-133120240D01*
X128363633Y-133120244D01*
X128367755Y-133123624D01*
X128399250Y-133141552D01*
X128448555Y-133192632D01*
X128462417Y-133262262D01*
X128436434Y-133328333D01*
X128407284Y-133355573D01*
X128285681Y-133437441D01*
X128281824Y-133441120D01*
X128281822Y-133441122D01*
X128239677Y-133481327D01*
X128118865Y-133596576D01*
X127981246Y-133781542D01*
X127978830Y-133786293D01*
X127978828Y-133786297D01*
X127947336Y-133848238D01*
X127876760Y-133987051D01*
X127875178Y-133992145D01*
X127875177Y-133992148D01*
X127856085Y-134053634D01*
X127808393Y-134207227D01*
X127807692Y-134212516D01*
X127805187Y-134231420D01*
X127778102Y-134435774D01*
X127786751Y-134666158D01*
X127834093Y-134891791D01*
X127836051Y-134896750D01*
X127836052Y-134896752D01*
X127858750Y-134954225D01*
X127918776Y-135106221D01*
X128038377Y-135303317D01*
X128041874Y-135307347D01*
X128181941Y-135468760D01*
X128189477Y-135477445D01*
X128225120Y-135506670D01*
X128265114Y-135565329D01*
X128267046Y-135636299D01*
X128230302Y-135697048D01*
X128211532Y-135711248D01*
X128129598Y-135761951D01*
X128065652Y-135801522D01*
X127940695Y-135926697D01*
X127847885Y-136077262D01*
X127845581Y-136084209D01*
X127806763Y-136201243D01*
X127792203Y-136245139D01*
X127781500Y-136349600D01*
X127781500Y-137650400D01*
X127781837Y-137653646D01*
X127781837Y-137653650D01*
X127789006Y-137722740D01*
X127792474Y-137756166D01*
X127848450Y-137923946D01*
X127941522Y-138074348D01*
X128066697Y-138199305D01*
X128072927Y-138203145D01*
X128072928Y-138203146D01*
X128203786Y-138283808D01*
X128217262Y-138292115D01*
X128293154Y-138317287D01*
X128378611Y-138345632D01*
X128378613Y-138345632D01*
X128385139Y-138347797D01*
X128391975Y-138348497D01*
X128391978Y-138348498D01*
X128435031Y-138352909D01*
X128489600Y-138358500D01*
X130590400Y-138358500D01*
X130593646Y-138358163D01*
X130593650Y-138358163D01*
X130689308Y-138348238D01*
X130689312Y-138348237D01*
X130696166Y-138347526D01*
X130702702Y-138345345D01*
X130702704Y-138345345D01*
X130834806Y-138301272D01*
X130863946Y-138291550D01*
X130879197Y-138282113D01*
X130947647Y-138263274D01*
X131015417Y-138284434D01*
X131060989Y-138338874D01*
X131071500Y-138389256D01*
X131071500Y-142574693D01*
X131051498Y-142642814D01*
X130997842Y-142689307D01*
X130927568Y-142699411D01*
X130865609Y-142672127D01*
X130716373Y-142549760D01*
X130716367Y-142549756D01*
X130712245Y-142546376D01*
X130707609Y-142543737D01*
X130707606Y-142543735D01*
X130516529Y-142434968D01*
X130511886Y-142432325D01*
X130295175Y-142353663D01*
X130289926Y-142352714D01*
X130289923Y-142352713D01*
X130072392Y-142313377D01*
X130072385Y-142313376D01*
X130068308Y-142312639D01*
X130050586Y-142311803D01*
X130045644Y-142311570D01*
X130045637Y-142311570D01*
X130044156Y-142311500D01*
X129082110Y-142311500D01*
X129015191Y-142317178D01*
X128915591Y-142325629D01*
X128915587Y-142325630D01*
X128910280Y-142326080D01*
X128905125Y-142327418D01*
X128905119Y-142327419D01*
X128692297Y-142382657D01*
X128692293Y-142382658D01*
X128687128Y-142383999D01*
X128682262Y-142386191D01*
X128682259Y-142386192D01*
X128573980Y-142434968D01*
X128476925Y-142478688D01*
X128285681Y-142607441D01*
X128281824Y-142611120D01*
X128281822Y-142611122D01*
X128221163Y-142668988D01*
X128118865Y-142766576D01*
X127981246Y-142951542D01*
X127978830Y-142956293D01*
X127978828Y-142956297D01*
X127942681Y-143027393D01*
X127876760Y-143157051D01*
X127808393Y-143377227D01*
X127807692Y-143382516D01*
X127781447Y-143580539D01*
X127778102Y-143605774D01*
X127786751Y-143836158D01*
X127834093Y-144061791D01*
X127836051Y-144066750D01*
X127836052Y-144066752D01*
X127914290Y-144264861D01*
X127918776Y-144276221D01*
X127921543Y-144280780D01*
X127921544Y-144280783D01*
X127968520Y-144358197D01*
X128038377Y-144473317D01*
X128041874Y-144477347D01*
X128181940Y-144638759D01*
X128189477Y-144647445D01*
X128193608Y-144650832D01*
X128363627Y-144790240D01*
X128363633Y-144790244D01*
X128367755Y-144793624D01*
X128372398Y-144796267D01*
X128399735Y-144811829D01*
X128449041Y-144862912D01*
X128462902Y-144932542D01*
X128436918Y-144998613D01*
X128407768Y-145025851D01*
X128290422Y-145104852D01*
X128282130Y-145111519D01*
X128123100Y-145263228D01*
X128116059Y-145271186D01*
X127984859Y-145447525D01*
X127979255Y-145456562D01*
X127879643Y-145652484D01*
X127875643Y-145662335D01*
X127810466Y-145872240D01*
X127808183Y-145882624D01*
X127806139Y-145898043D01*
X127808335Y-145912207D01*
X127821522Y-145916000D01*
X129668000Y-145916000D01*
X129736121Y-145936002D01*
X129782614Y-145989658D01*
X129794000Y-146042000D01*
X129794000Y-146298000D01*
X129773998Y-146366121D01*
X129720342Y-146412614D01*
X129668000Y-146424000D01*
X127823808Y-146424000D01*
X127810277Y-146427973D01*
X127808752Y-146438580D01*
X127833477Y-146556421D01*
X127836537Y-146566617D01*
X127917263Y-146771029D01*
X127921994Y-146780561D01*
X128036016Y-146968462D01*
X128042280Y-146977052D01*
X128186327Y-147143052D01*
X128193958Y-147150472D01*
X128363911Y-147289826D01*
X128372674Y-147295848D01*
X128399711Y-147311238D01*
X128449018Y-147362320D01*
X128462880Y-147431951D01*
X128436897Y-147498022D01*
X128407747Y-147525261D01*
X128403425Y-147528171D01*
X128285681Y-147607441D01*
X128281824Y-147611120D01*
X128281822Y-147611122D01*
X128217873Y-147672127D01*
X128118865Y-147766576D01*
X127981246Y-147951542D01*
X127978830Y-147956293D01*
X127978828Y-147956297D01*
X127929003Y-148054297D01*
X127876760Y-148157051D01*
X127875178Y-148162145D01*
X127875177Y-148162148D01*
X127856432Y-148222516D01*
X127808393Y-148377227D01*
X127807692Y-148382516D01*
X127781286Y-148581752D01*
X127778102Y-148605774D01*
X127778302Y-148611103D01*
X127778302Y-148611105D01*
X127780279Y-148663755D01*
X127786751Y-148836158D01*
X127834093Y-149061791D01*
X127836051Y-149066750D01*
X127836052Y-149066752D01*
X127898036Y-149223703D01*
X127918776Y-149276221D01*
X128038377Y-149473317D01*
X128041874Y-149477347D01*
X128181940Y-149638759D01*
X128189477Y-149647445D01*
X128193608Y-149650832D01*
X128363627Y-149790240D01*
X128363633Y-149790244D01*
X128367755Y-149793624D01*
X128399250Y-149811552D01*
X128448555Y-149862632D01*
X128462417Y-149932262D01*
X128436434Y-149998333D01*
X128407284Y-150025573D01*
X128391602Y-150036130D01*
X128285681Y-150107441D01*
X128281824Y-150111120D01*
X128281822Y-150111122D01*
X128217873Y-150172127D01*
X128118865Y-150266576D01*
X127981246Y-150451542D01*
X127978830Y-150456293D01*
X127978828Y-150456297D01*
X127929003Y-150554296D01*
X127876760Y-150657051D01*
X127875178Y-150662145D01*
X127875177Y-150662148D01*
X127847898Y-150750000D01*
X127808393Y-150877227D01*
X127807692Y-150882516D01*
X127781286Y-151081752D01*
X127778102Y-151105774D01*
X127508000Y-151105774D01*
X127508000Y-101495774D01*
X127770602Y-101495774D01*
X127779251Y-101726158D01*
X127826593Y-101951791D01*
X127911276Y-102166221D01*
X127914043Y-102170780D01*
X127914044Y-102170783D01*
X127948817Y-102228087D01*
X128030877Y-102363317D01*
X128034374Y-102367347D01*
X128120938Y-102467103D01*
X128181977Y-102537445D01*
X128217620Y-102566670D01*
X128257614Y-102625329D01*
X128259546Y-102696299D01*
X128222802Y-102757048D01*
X128204032Y-102771248D01*
X128143884Y-102808469D01*
X128058152Y-102861522D01*
X127933195Y-102986697D01*
X127929355Y-102992927D01*
X127929354Y-102992928D01*
X127875156Y-103080854D01*
X127840385Y-103137262D01*
X127784703Y-103305139D01*
X127774000Y-103409600D01*
X127774000Y-104710400D01*
X127774337Y-104713646D01*
X127774337Y-104713650D01*
X127781984Y-104787347D01*
X127784974Y-104816166D01*
X127787155Y-104822702D01*
X127787155Y-104822704D01*
X127829114Y-104948469D01*
X127840950Y-104983946D01*
X127934022Y-105134348D01*
X128059197Y-105259305D01*
X128065427Y-105263145D01*
X128065428Y-105263146D01*
X128202590Y-105347694D01*
X128209762Y-105352115D01*
X128289505Y-105378564D01*
X128371111Y-105405632D01*
X128371113Y-105405632D01*
X128377639Y-105407797D01*
X128384475Y-105408497D01*
X128384478Y-105408498D01*
X128427531Y-105412909D01*
X128482100Y-105418500D01*
X130582900Y-105418500D01*
X130586146Y-105418163D01*
X130586150Y-105418163D01*
X130681808Y-105408238D01*
X130681812Y-105408237D01*
X130688666Y-105407526D01*
X130695202Y-105405345D01*
X130695204Y-105405345D01*
X130827306Y-105361272D01*
X130856446Y-105351550D01*
X131006848Y-105258478D01*
X131131805Y-105133303D01*
X131148472Y-105106265D01*
X131220775Y-104988968D01*
X131220776Y-104988966D01*
X131224615Y-104982738D01*
X131280297Y-104814861D01*
X131291000Y-104710400D01*
X131291000Y-103409600D01*
X131290663Y-103406350D01*
X131280738Y-103310692D01*
X131280737Y-103310688D01*
X131280026Y-103303834D01*
X131224050Y-103136054D01*
X131130978Y-102985652D01*
X131005803Y-102860695D01*
X130998797Y-102856376D01*
X130920352Y-102808022D01*
X130860160Y-102770919D01*
X130812668Y-102718148D01*
X130801244Y-102648076D01*
X130829518Y-102582952D01*
X130839305Y-102572490D01*
X130949778Y-102467103D01*
X130953635Y-102463424D01*
X131091254Y-102278458D01*
X131195740Y-102072949D01*
X131218392Y-102000000D01*
X131262524Y-101857871D01*
X131264107Y-101852773D01*
X131277469Y-101751957D01*
X131293698Y-101629511D01*
X131293698Y-101629506D01*
X131294398Y-101624226D01*
X131285749Y-101393842D01*
X131238407Y-101168209D01*
X131236448Y-101163248D01*
X131155685Y-100958744D01*
X131155684Y-100958742D01*
X131153724Y-100953779D01*
X131034123Y-100756683D01*
X130947255Y-100656576D01*
X130886523Y-100586588D01*
X130886521Y-100586586D01*
X130883023Y-100582555D01*
X130790814Y-100506948D01*
X130708873Y-100439760D01*
X130708867Y-100439756D01*
X130704745Y-100436376D01*
X130673250Y-100418448D01*
X130623945Y-100367368D01*
X130610083Y-100297738D01*
X130636066Y-100231667D01*
X130665216Y-100204427D01*
X130743121Y-100151978D01*
X130786819Y-100122559D01*
X130803898Y-100106267D01*
X130876041Y-100037445D01*
X130953635Y-99963424D01*
X131091254Y-99778458D01*
X131120337Y-99721257D01*
X131150842Y-99661256D01*
X131195740Y-99572949D01*
X131213975Y-99514225D01*
X131262524Y-99357871D01*
X131264107Y-99352773D01*
X131275411Y-99267484D01*
X131293698Y-99129511D01*
X131293698Y-99129506D01*
X131294398Y-99124226D01*
X131285749Y-98893842D01*
X131238407Y-98668209D01*
X131215718Y-98610757D01*
X131155685Y-98458744D01*
X131155684Y-98458742D01*
X131153724Y-98453779D01*
X131102411Y-98369217D01*
X131039957Y-98266297D01*
X131034123Y-98256683D01*
X130947255Y-98156576D01*
X130886523Y-98086588D01*
X130886521Y-98086586D01*
X130883023Y-98082555D01*
X130785456Y-98002555D01*
X130708873Y-97939760D01*
X130708867Y-97939756D01*
X130704745Y-97936376D01*
X130700102Y-97933733D01*
X130672765Y-97918171D01*
X130623459Y-97867088D01*
X130609598Y-97797458D01*
X130635582Y-97731387D01*
X130664732Y-97704149D01*
X130782078Y-97625148D01*
X130790370Y-97618481D01*
X130949400Y-97466772D01*
X130956441Y-97458814D01*
X131087641Y-97282475D01*
X131093245Y-97273438D01*
X131192857Y-97077516D01*
X131196857Y-97067665D01*
X131262034Y-96857760D01*
X131264317Y-96847376D01*
X131266361Y-96831957D01*
X131264165Y-96817793D01*
X131250978Y-96814000D01*
X127816308Y-96814000D01*
X127802777Y-96817973D01*
X127801252Y-96828580D01*
X127825977Y-96946421D01*
X127829037Y-96956617D01*
X127909763Y-97161029D01*
X127914494Y-97170561D01*
X128028516Y-97358462D01*
X128034780Y-97367052D01*
X128178827Y-97533052D01*
X128186458Y-97540472D01*
X128356411Y-97679826D01*
X128365174Y-97685848D01*
X128392211Y-97701238D01*
X128441518Y-97752320D01*
X128455380Y-97821951D01*
X128429397Y-97888022D01*
X128400247Y-97915261D01*
X128372810Y-97933733D01*
X128278181Y-97997441D01*
X128111365Y-98156576D01*
X127973746Y-98341542D01*
X127971330Y-98346293D01*
X127971328Y-98346297D01*
X127939836Y-98408238D01*
X127869260Y-98547051D01*
X127867678Y-98552145D01*
X127867677Y-98552148D01*
X127806352Y-98749646D01*
X127800893Y-98767227D01*
X127800192Y-98772516D01*
X127784804Y-98888623D01*
X127770602Y-98995774D01*
X127779251Y-99226158D01*
X127826593Y-99451791D01*
X127828551Y-99456750D01*
X127828552Y-99456752D01*
X127877722Y-99581256D01*
X127911276Y-99666221D01*
X127914043Y-99670780D01*
X127914044Y-99670783D01*
X127930838Y-99698458D01*
X128030877Y-99863317D01*
X128034374Y-99867347D01*
X128120938Y-99967103D01*
X128181977Y-100037445D01*
X128223530Y-100071516D01*
X128356127Y-100180240D01*
X128356133Y-100180244D01*
X128360255Y-100183624D01*
X128391750Y-100201552D01*
X128441055Y-100252632D01*
X128454917Y-100322262D01*
X128428934Y-100388333D01*
X128399784Y-100415573D01*
X128278181Y-100497441D01*
X128274324Y-100501120D01*
X128274322Y-100501122D01*
X128204964Y-100567287D01*
X128111365Y-100656576D01*
X127973746Y-100841542D01*
X127869260Y-101047051D01*
X127867678Y-101052145D01*
X127867677Y-101052148D01*
X127827282Y-101182240D01*
X127800893Y-101267227D01*
X127800192Y-101272516D01*
X127784804Y-101388623D01*
X127770602Y-101495774D01*
X127508000Y-101495774D01*
X127508000Y-93995774D01*
X127770602Y-93995774D01*
X127779251Y-94226158D01*
X127826593Y-94451791D01*
X127828551Y-94456750D01*
X127828552Y-94456752D01*
X127897130Y-94630400D01*
X127911276Y-94666221D01*
X128030877Y-94863317D01*
X128034374Y-94867347D01*
X128120938Y-94967103D01*
X128181977Y-95037445D01*
X128186108Y-95040832D01*
X128356127Y-95180240D01*
X128356133Y-95180244D01*
X128360255Y-95183624D01*
X128364898Y-95186267D01*
X128392235Y-95201829D01*
X128441541Y-95252912D01*
X128455402Y-95322542D01*
X128429418Y-95388613D01*
X128400268Y-95415851D01*
X128282922Y-95494852D01*
X128274630Y-95501519D01*
X128115600Y-95653228D01*
X128108559Y-95661186D01*
X127977359Y-95837525D01*
X127971755Y-95846562D01*
X127872143Y-96042484D01*
X127868143Y-96052335D01*
X127802966Y-96262240D01*
X127800683Y-96272624D01*
X127798639Y-96288043D01*
X127800835Y-96302207D01*
X127814022Y-96306000D01*
X131248692Y-96306000D01*
X131262223Y-96302027D01*
X131263748Y-96291420D01*
X131239023Y-96173579D01*
X131235963Y-96163383D01*
X131155237Y-95958971D01*
X131150506Y-95949439D01*
X131036484Y-95761538D01*
X131030220Y-95752948D01*
X130886173Y-95586948D01*
X130878542Y-95579528D01*
X130708589Y-95440174D01*
X130699826Y-95434152D01*
X130672789Y-95418762D01*
X130623482Y-95367680D01*
X130609620Y-95298049D01*
X130635603Y-95231978D01*
X130664753Y-95204739D01*
X130739218Y-95154606D01*
X130786819Y-95122559D01*
X130795016Y-95114740D01*
X130949778Y-94967103D01*
X130953635Y-94963424D01*
X131091254Y-94778458D01*
X131109433Y-94742704D01*
X131164878Y-94633650D01*
X131195740Y-94572949D01*
X131228514Y-94467402D01*
X131262524Y-94357871D01*
X131264107Y-94352773D01*
X131275688Y-94265393D01*
X131293698Y-94129511D01*
X131293698Y-94129506D01*
X131294398Y-94124226D01*
X131285749Y-93893842D01*
X131238407Y-93668209D01*
X131236448Y-93663248D01*
X131155685Y-93458744D01*
X131155684Y-93458742D01*
X131153724Y-93453779D01*
X131111827Y-93384734D01*
X131036890Y-93261243D01*
X131034123Y-93256683D01*
X131011569Y-93230692D01*
X130968162Y-93180670D01*
X132482160Y-93180670D01*
X132487887Y-93188320D01*
X132659042Y-93293205D01*
X132667837Y-93297687D01*
X132877988Y-93384734D01*
X132887373Y-93387783D01*
X133108554Y-93440885D01*
X133118301Y-93442428D01*
X133345070Y-93460275D01*
X133354930Y-93460275D01*
X133581699Y-93442428D01*
X133591446Y-93440885D01*
X133812627Y-93387783D01*
X133822012Y-93384734D01*
X134032163Y-93297687D01*
X134040958Y-93293205D01*
X134208445Y-93190568D01*
X134217907Y-93180110D01*
X134214124Y-93171334D01*
X133362812Y-92320022D01*
X133348868Y-92312408D01*
X133347035Y-92312539D01*
X133340420Y-92316790D01*
X132488920Y-93168290D01*
X132482160Y-93180670D01*
X130968162Y-93180670D01*
X130886523Y-93086588D01*
X130886521Y-93086586D01*
X130883023Y-93082555D01*
X130784827Y-93002039D01*
X130708873Y-92939760D01*
X130708867Y-92939756D01*
X130704745Y-92936376D01*
X130700109Y-92933737D01*
X130700106Y-92933735D01*
X130509029Y-92824968D01*
X130504386Y-92822325D01*
X130287675Y-92743663D01*
X130282426Y-92742714D01*
X130282423Y-92742713D01*
X130064892Y-92703377D01*
X130064885Y-92703376D01*
X130060808Y-92702639D01*
X130043086Y-92701803D01*
X130038144Y-92701570D01*
X130038137Y-92701570D01*
X130036656Y-92701500D01*
X129074610Y-92701500D01*
X129007691Y-92707178D01*
X128908091Y-92715629D01*
X128908087Y-92715630D01*
X128902780Y-92716080D01*
X128897625Y-92717418D01*
X128897619Y-92717419D01*
X128684797Y-92772657D01*
X128684793Y-92772658D01*
X128679628Y-92773999D01*
X128674762Y-92776191D01*
X128674759Y-92776192D01*
X128566480Y-92824968D01*
X128469425Y-92868688D01*
X128278181Y-92997441D01*
X128111365Y-93156576D01*
X128108182Y-93160854D01*
X128087747Y-93188320D01*
X127973746Y-93341542D01*
X127971330Y-93346293D01*
X127971328Y-93346297D01*
X127950236Y-93387783D01*
X127869260Y-93547051D01*
X127867678Y-93552145D01*
X127867677Y-93552148D01*
X127807299Y-93746598D01*
X127800893Y-93767227D01*
X127800192Y-93772516D01*
X127772693Y-93980000D01*
X127770602Y-93995774D01*
X127508000Y-93995774D01*
X127508000Y-91952930D01*
X131837725Y-91952930D01*
X131855572Y-92179699D01*
X131857115Y-92189446D01*
X131910217Y-92410627D01*
X131913266Y-92420012D01*
X132000313Y-92630163D01*
X132004795Y-92638958D01*
X132107432Y-92806445D01*
X132117890Y-92815907D01*
X132126666Y-92812124D01*
X132977978Y-91960812D01*
X132984356Y-91949132D01*
X133714408Y-91949132D01*
X133714539Y-91950965D01*
X133718790Y-91957580D01*
X134570290Y-92809080D01*
X134582670Y-92815840D01*
X134590320Y-92810113D01*
X134695205Y-92638958D01*
X134699687Y-92630163D01*
X134786734Y-92420012D01*
X134789783Y-92410627D01*
X134842885Y-92189446D01*
X134844428Y-92179699D01*
X134862275Y-91952930D01*
X134862275Y-91943070D01*
X134844428Y-91716301D01*
X134842885Y-91706554D01*
X134789783Y-91485373D01*
X134786734Y-91475988D01*
X134699687Y-91265837D01*
X134695205Y-91257042D01*
X134592568Y-91089555D01*
X134582110Y-91080093D01*
X134573334Y-91083876D01*
X133722022Y-91935188D01*
X133714408Y-91949132D01*
X132984356Y-91949132D01*
X132985592Y-91946868D01*
X132985461Y-91945035D01*
X132981210Y-91938420D01*
X132129710Y-91086920D01*
X132117330Y-91080160D01*
X132109680Y-91085887D01*
X132004795Y-91257042D01*
X132000313Y-91265837D01*
X131913266Y-91475988D01*
X131910217Y-91485373D01*
X131857115Y-91706554D01*
X131855572Y-91716301D01*
X131837725Y-91943070D01*
X131837725Y-91952930D01*
X127508000Y-91952930D01*
X127508000Y-90715890D01*
X132482093Y-90715890D01*
X132485876Y-90724666D01*
X133337188Y-91575978D01*
X133351132Y-91583592D01*
X133352965Y-91583461D01*
X133359580Y-91579210D01*
X134211080Y-90727710D01*
X134217840Y-90715330D01*
X134212113Y-90707680D01*
X134040958Y-90602795D01*
X134032163Y-90598313D01*
X133822012Y-90511266D01*
X133812627Y-90508217D01*
X133591446Y-90455115D01*
X133581699Y-90453572D01*
X133354930Y-90435725D01*
X133345070Y-90435725D01*
X133118301Y-90453572D01*
X133108554Y-90455115D01*
X132887373Y-90508217D01*
X132877988Y-90511266D01*
X132667837Y-90598313D01*
X132659042Y-90602795D01*
X132491555Y-90705432D01*
X132482093Y-90715890D01*
X127508000Y-90715890D01*
X127508000Y-88733364D01*
X127528002Y-88665243D01*
X127581658Y-88618750D01*
X127651932Y-88608646D01*
X127716512Y-88638140D01*
X127742116Y-88668658D01*
X127764561Y-88706161D01*
X127944313Y-88930528D01*
X128152851Y-89128423D01*
X128386317Y-89296186D01*
X128390112Y-89298195D01*
X128390113Y-89298196D01*
X128409230Y-89308318D01*
X128640392Y-89430712D01*
X128679906Y-89445172D01*
X128844006Y-89505224D01*
X128910373Y-89529511D01*
X129191264Y-89590755D01*
X129219841Y-89593004D01*
X129414282Y-89608307D01*
X129414291Y-89608307D01*
X129416739Y-89608500D01*
X129572271Y-89608500D01*
X129574407Y-89608354D01*
X129574418Y-89608354D01*
X129782548Y-89594165D01*
X129782554Y-89594164D01*
X129786825Y-89593873D01*
X129791020Y-89593004D01*
X129791022Y-89593004D01*
X129927584Y-89564723D01*
X130068342Y-89535574D01*
X130339343Y-89439607D01*
X130594812Y-89307750D01*
X130598313Y-89305289D01*
X130598317Y-89305287D01*
X130747009Y-89200784D01*
X130830023Y-89142441D01*
X131040622Y-88946740D01*
X131053427Y-88931095D01*
X135802001Y-88931095D01*
X135802338Y-88937614D01*
X135812257Y-89033206D01*
X135815149Y-89046600D01*
X135866588Y-89200784D01*
X135872761Y-89213962D01*
X135958063Y-89351807D01*
X135967099Y-89363208D01*
X136081829Y-89477739D01*
X136093240Y-89486751D01*
X136231243Y-89571816D01*
X136244424Y-89577963D01*
X136398710Y-89629138D01*
X136412086Y-89632005D01*
X136506438Y-89641672D01*
X136512854Y-89642000D01*
X136887885Y-89642000D01*
X136903124Y-89637525D01*
X136904329Y-89636135D01*
X136906000Y-89628452D01*
X136906000Y-89623884D01*
X137414000Y-89623884D01*
X137418475Y-89639123D01*
X137419865Y-89640328D01*
X137427548Y-89641999D01*
X137807095Y-89641999D01*
X137813614Y-89641662D01*
X137909206Y-89631743D01*
X137922600Y-89628851D01*
X138076784Y-89577412D01*
X138089962Y-89571239D01*
X138227807Y-89485937D01*
X138239208Y-89476901D01*
X138353739Y-89362171D01*
X138362753Y-89350757D01*
X138448723Y-89211287D01*
X138501495Y-89163793D01*
X138571566Y-89152369D01*
X138636690Y-89180643D01*
X138647149Y-89190426D01*
X138756576Y-89305135D01*
X138941542Y-89442754D01*
X138946293Y-89445170D01*
X138946297Y-89445172D01*
X139008704Y-89476901D01*
X139147051Y-89547240D01*
X139152145Y-89548822D01*
X139152148Y-89548823D01*
X139298173Y-89594165D01*
X139367227Y-89615607D01*
X139372516Y-89616308D01*
X139590489Y-89645198D01*
X139590494Y-89645198D01*
X139595774Y-89645898D01*
X139601103Y-89645698D01*
X139601105Y-89645698D01*
X139710966Y-89641573D01*
X139826158Y-89637249D01*
X139831468Y-89636135D01*
X140032889Y-89593873D01*
X140051791Y-89589907D01*
X140056750Y-89587949D01*
X140056752Y-89587948D01*
X140261256Y-89507185D01*
X140261258Y-89507184D01*
X140266221Y-89505224D01*
X140365184Y-89445172D01*
X140458757Y-89388390D01*
X140458756Y-89388390D01*
X140463317Y-89385623D01*
X140550794Y-89309715D01*
X140633412Y-89238023D01*
X140633414Y-89238021D01*
X140637445Y-89234523D01*
X140712948Y-89142441D01*
X140780240Y-89060373D01*
X140780244Y-89060367D01*
X140783624Y-89056245D01*
X140801552Y-89024750D01*
X140852632Y-88975445D01*
X140922262Y-88961583D01*
X140988333Y-88987566D01*
X141015573Y-89016716D01*
X141097441Y-89138319D01*
X141101120Y-89142176D01*
X141101122Y-89142178D01*
X141157030Y-89200784D01*
X141256576Y-89305135D01*
X141441542Y-89442754D01*
X141446293Y-89445170D01*
X141446297Y-89445172D01*
X141508704Y-89476901D01*
X141647051Y-89547240D01*
X141652145Y-89548822D01*
X141652148Y-89548823D01*
X141798173Y-89594165D01*
X141867227Y-89615607D01*
X141872516Y-89616308D01*
X142090489Y-89645198D01*
X142090494Y-89645198D01*
X142095774Y-89645898D01*
X142101103Y-89645698D01*
X142101105Y-89645698D01*
X142210966Y-89641573D01*
X142326158Y-89637249D01*
X142331468Y-89636135D01*
X142532889Y-89593873D01*
X142551791Y-89589907D01*
X142556750Y-89587949D01*
X142556752Y-89587948D01*
X142761256Y-89507185D01*
X142761258Y-89507184D01*
X142766221Y-89505224D01*
X142865184Y-89445172D01*
X142958757Y-89388390D01*
X142958756Y-89388390D01*
X142963317Y-89385623D01*
X143050794Y-89309715D01*
X143133412Y-89238023D01*
X143133414Y-89238021D01*
X143137445Y-89234523D01*
X143212948Y-89142441D01*
X143280240Y-89060373D01*
X143280244Y-89060367D01*
X143283624Y-89056245D01*
X143301552Y-89024750D01*
X143352632Y-88975445D01*
X143422262Y-88961583D01*
X143488333Y-88987566D01*
X143515573Y-89016716D01*
X143597441Y-89138319D01*
X143601120Y-89142176D01*
X143601122Y-89142178D01*
X143657030Y-89200784D01*
X143756576Y-89305135D01*
X143941542Y-89442754D01*
X143946293Y-89445170D01*
X143946297Y-89445172D01*
X144008704Y-89476901D01*
X144147051Y-89547240D01*
X144152145Y-89548822D01*
X144152148Y-89548823D01*
X144298173Y-89594165D01*
X144367227Y-89615607D01*
X144372516Y-89616308D01*
X144590489Y-89645198D01*
X144590494Y-89645198D01*
X144595774Y-89645898D01*
X144601103Y-89645698D01*
X144601105Y-89645698D01*
X144710966Y-89641573D01*
X144826158Y-89637249D01*
X144831468Y-89636135D01*
X145032889Y-89593873D01*
X145051791Y-89589907D01*
X145056750Y-89587949D01*
X145056752Y-89587948D01*
X145261256Y-89507185D01*
X145261258Y-89507184D01*
X145266221Y-89505224D01*
X145365184Y-89445172D01*
X145458757Y-89388390D01*
X145458756Y-89388390D01*
X145463317Y-89385623D01*
X145550794Y-89309715D01*
X145633412Y-89238023D01*
X145633414Y-89238021D01*
X145637445Y-89234523D01*
X145712948Y-89142441D01*
X145780240Y-89060373D01*
X145780244Y-89060367D01*
X145783624Y-89056245D01*
X145789115Y-89046600D01*
X145895032Y-88860529D01*
X145897675Y-88855886D01*
X145976337Y-88639175D01*
X145977287Y-88633923D01*
X146016623Y-88416392D01*
X146016624Y-88416385D01*
X146017361Y-88412308D01*
X146018500Y-88388156D01*
X146018500Y-87426110D01*
X146003920Y-87254280D01*
X146002582Y-87249125D01*
X146002581Y-87249119D01*
X145947343Y-87036297D01*
X145947342Y-87036293D01*
X145946001Y-87031128D01*
X145937628Y-87012539D01*
X145853507Y-86825798D01*
X145851312Y-86820925D01*
X145722559Y-86629681D01*
X145674837Y-86579655D01*
X145627446Y-86529977D01*
X145563424Y-86462865D01*
X145378458Y-86325246D01*
X145373707Y-86322830D01*
X145373703Y-86322828D01*
X145251731Y-86260815D01*
X145172949Y-86220760D01*
X145167855Y-86219178D01*
X145167852Y-86219177D01*
X144957871Y-86153976D01*
X144952773Y-86152393D01*
X144947484Y-86151692D01*
X144729511Y-86122802D01*
X144729506Y-86122802D01*
X144724226Y-86122102D01*
X144718897Y-86122302D01*
X144718895Y-86122302D01*
X144620368Y-86126001D01*
X144493842Y-86130751D01*
X144488623Y-86131846D01*
X144468849Y-86135995D01*
X144268209Y-86178093D01*
X144263250Y-86180051D01*
X144263248Y-86180052D01*
X144058744Y-86260815D01*
X144058742Y-86260816D01*
X144053779Y-86262776D01*
X144049220Y-86265543D01*
X144049217Y-86265544D01*
X143950832Y-86325246D01*
X143856683Y-86382377D01*
X143852653Y-86385874D01*
X143692564Y-86524792D01*
X143682555Y-86533477D01*
X143664708Y-86555243D01*
X143539760Y-86707627D01*
X143539756Y-86707633D01*
X143536376Y-86711755D01*
X143518448Y-86743250D01*
X143467368Y-86792555D01*
X143397738Y-86806417D01*
X143331667Y-86780434D01*
X143304427Y-86751284D01*
X143225539Y-86634108D01*
X143222559Y-86629681D01*
X143174837Y-86579655D01*
X143127446Y-86529977D01*
X143063424Y-86462865D01*
X142878458Y-86325246D01*
X142873707Y-86322830D01*
X142873703Y-86322828D01*
X142751731Y-86260815D01*
X142672949Y-86220760D01*
X142667855Y-86219178D01*
X142667852Y-86219177D01*
X142457871Y-86153976D01*
X142452773Y-86152393D01*
X142447484Y-86151692D01*
X142229511Y-86122802D01*
X142229506Y-86122802D01*
X142224226Y-86122102D01*
X142218897Y-86122302D01*
X142218895Y-86122302D01*
X142120368Y-86126001D01*
X141993842Y-86130751D01*
X141988623Y-86131846D01*
X141968849Y-86135995D01*
X141768209Y-86178093D01*
X141763250Y-86180051D01*
X141763248Y-86180052D01*
X141558744Y-86260815D01*
X141558742Y-86260816D01*
X141553779Y-86262776D01*
X141549220Y-86265543D01*
X141549217Y-86265544D01*
X141450832Y-86325246D01*
X141356683Y-86382377D01*
X141352653Y-86385874D01*
X141192564Y-86524792D01*
X141182555Y-86533477D01*
X141164708Y-86555243D01*
X141039760Y-86707627D01*
X141039756Y-86707633D01*
X141036376Y-86711755D01*
X141018448Y-86743250D01*
X140967368Y-86792555D01*
X140897738Y-86806417D01*
X140831667Y-86780434D01*
X140804427Y-86751284D01*
X140725539Y-86634108D01*
X140722559Y-86629681D01*
X140674837Y-86579655D01*
X140627446Y-86529977D01*
X140563424Y-86462865D01*
X140378458Y-86325246D01*
X140373707Y-86322830D01*
X140373703Y-86322828D01*
X140251731Y-86260815D01*
X140172949Y-86220760D01*
X140167855Y-86219178D01*
X140167852Y-86219177D01*
X139957871Y-86153976D01*
X139952773Y-86152393D01*
X139947484Y-86151692D01*
X139729511Y-86122802D01*
X139729506Y-86122802D01*
X139724226Y-86122102D01*
X139718897Y-86122302D01*
X139718895Y-86122302D01*
X139620368Y-86126001D01*
X139493842Y-86130751D01*
X139488623Y-86131846D01*
X139468849Y-86135995D01*
X139268209Y-86178093D01*
X139263250Y-86180051D01*
X139263248Y-86180052D01*
X139058744Y-86260815D01*
X139058742Y-86260816D01*
X139053779Y-86262776D01*
X139049220Y-86265543D01*
X139049217Y-86265544D01*
X138950832Y-86325246D01*
X138856683Y-86382377D01*
X138852653Y-86385874D01*
X138692564Y-86524792D01*
X138682555Y-86533477D01*
X138664708Y-86555243D01*
X138652994Y-86569529D01*
X138594334Y-86609524D01*
X138523364Y-86611455D01*
X138462616Y-86574710D01*
X138448416Y-86555941D01*
X138361937Y-86416193D01*
X138352901Y-86404792D01*
X138238171Y-86290261D01*
X138226760Y-86281249D01*
X138088757Y-86196184D01*
X138075576Y-86190037D01*
X137921290Y-86138862D01*
X137907914Y-86135995D01*
X137813562Y-86126328D01*
X137807145Y-86126000D01*
X137432115Y-86126000D01*
X137416876Y-86130475D01*
X137415671Y-86131865D01*
X137414000Y-86139548D01*
X137414000Y-89623884D01*
X136906000Y-89623884D01*
X136906000Y-88156115D01*
X136901525Y-88140876D01*
X136900135Y-88139671D01*
X136892452Y-88138000D01*
X135820116Y-88138000D01*
X135804877Y-88142475D01*
X135803672Y-88143865D01*
X135802001Y-88151548D01*
X135802001Y-88931095D01*
X131053427Y-88931095D01*
X131222713Y-88724268D01*
X131372927Y-88479142D01*
X131488483Y-88215898D01*
X131567244Y-87939406D01*
X131607751Y-87654784D01*
X131607845Y-87636951D01*
X131607976Y-87611885D01*
X135802000Y-87611885D01*
X135806475Y-87627124D01*
X135807865Y-87628329D01*
X135815548Y-87630000D01*
X136887885Y-87630000D01*
X136903124Y-87625525D01*
X136904329Y-87624135D01*
X136906000Y-87616452D01*
X136906000Y-86144116D01*
X136901525Y-86128877D01*
X136900135Y-86127672D01*
X136892452Y-86126001D01*
X136512905Y-86126001D01*
X136506386Y-86126338D01*
X136410794Y-86136257D01*
X136397400Y-86139149D01*
X136243216Y-86190588D01*
X136230038Y-86196761D01*
X136092193Y-86282063D01*
X136080792Y-86291099D01*
X135966261Y-86405829D01*
X135957249Y-86417240D01*
X135872184Y-86555243D01*
X135866037Y-86568424D01*
X135814862Y-86722710D01*
X135811995Y-86736086D01*
X135802328Y-86830438D01*
X135802000Y-86836855D01*
X135802000Y-87611885D01*
X131607976Y-87611885D01*
X131609235Y-87371583D01*
X131609235Y-87371576D01*
X131609257Y-87367297D01*
X131571732Y-87082266D01*
X131495871Y-86804964D01*
X131464659Y-86731788D01*
X131384763Y-86544476D01*
X131384761Y-86544472D01*
X131383077Y-86540524D01*
X131286772Y-86379610D01*
X131237643Y-86297521D01*
X131237640Y-86297517D01*
X131235439Y-86293839D01*
X131055687Y-86069472D01*
X130847149Y-85871577D01*
X130658921Y-85736321D01*
X130615274Y-85680328D01*
X130608828Y-85609624D01*
X130641631Y-85546660D01*
X130703267Y-85511426D01*
X130732448Y-85508000D01*
X150268940Y-85508000D01*
X150337061Y-85528002D01*
G37*
%TD.AperFunction*%
%TD*%
M02*
