M48
; DRILL file {KiCad (6.0.0)} date Fri May 13 15:55:31 2022
; FORMAT={-:-/ absolute / inch / decimal}
; #@! TF.CreationDate,2022-05-13T15:55:31+02:00
; #@! TF.GenerationSoftware,Kicad,Pcbnew,(6.0.0)
; #@! TF.FileFunction,Plated,1,2,PTH
FMAT,2
INCH
; #@! TA.AperFunction,Plated,PTH,ViaDrill
T1C0.0315
; #@! TA.AperFunction,Plated,PTH,ComponentDrill
T2C0.0374
; #@! TA.AperFunction,Plated,PTH,ComponentDrill
T3C0.0394
%
G90
G05
T1
X5.0787Y-4.2126
X5.0787Y-5.5118
X5.0984Y-4.8622
X5.1575Y-6.2205
X5.2Y-4.25
X5.2Y-4.75
X5.2Y-4.9
X5.2Y-6.05
X5.2559Y-3.4843
X5.3Y-4.425
X5.3Y-5.3937
X5.315Y-6.225
X5.4134Y-3.7
X5.4134Y-4.1
X5.4134Y-4.475
X5.4134Y-4.7539
X5.4134Y-5.0
X5.4134Y-5.3937
X5.4134Y-5.6398
X5.425Y-6.05
X5.475Y-6.15
X5.5118Y-3.8
X5.5118Y-4.0157
X5.5118Y-4.45
X5.5118Y-4.6555
X5.5118Y-5.0984
X5.5118Y-5.2953
X5.5118Y-5.7382
X5.5118Y-5.935
X5.6102Y-3.72
X5.6102Y-3.9
X5.6102Y-4.55
X5.6102Y-5.1969
X5.6102Y-5.8366
X5.6102Y-6.15
X5.79Y-5.0
X5.8Y-3.71
X5.8Y-4.15
X5.8Y-4.35
X5.801Y-4.9
X5.8268Y-3.5433
X5.85Y-5.65
X5.8593Y-4.809
X5.9646Y-4.2126
X5.9646Y-4.8819
X5.9646Y-5.5315
X5.9843Y-6.2205
T2
X5.325Y-4.15
X5.325Y-4.2484
X5.325Y-4.3469
X5.7087Y-4.8016
X5.7087Y-4.9
X5.7087Y-4.9984
X5.725Y-4.1531
X5.725Y-4.2516
X5.725Y-4.35
T3
X5.0997Y-3.7031
X5.0997Y-3.8016
X5.0997Y-3.9
X5.0997Y-3.9984
X5.0997Y-4.0969
X5.1Y-4.3563
X5.1Y-4.4547
X5.1Y-4.5531
X5.1Y-4.6516
X5.1Y-4.75
X5.1Y-5.0
X5.1Y-5.0984
X5.1Y-5.1969
X5.1Y-5.2953
X5.1Y-5.3937
X5.1Y-5.6563
X5.1Y-5.7547
X5.1Y-5.8531
X5.1Y-5.9516
X5.1Y-6.05
X5.31Y-6.35
X5.4Y-3.46
X5.4084Y-6.35
X5.4984Y-3.46
X5.5069Y-6.35
X5.5969Y-3.46
X5.6053Y-6.35
X5.6953Y-3.46
X5.7037Y-6.35
X5.95Y-3.7
X5.95Y-3.7984
X5.95Y-3.8969
X5.95Y-3.9953
X5.95Y-4.0937
X5.95Y-4.35
X5.95Y-4.4484
X5.95Y-4.5469
X5.95Y-4.6453
X5.95Y-4.7437
X5.95Y-5.0
X5.95Y-5.0984
X5.95Y-5.1969
X5.95Y-5.2953
X5.95Y-5.3937
X5.95Y-5.65
X5.95Y-5.7484
X5.95Y-5.8469
X5.95Y-5.9453
X5.95Y-6.0437
T0
M30
