%TF.GenerationSoftware,KiCad,Pcbnew,(6.0.0)*%
%TF.CreationDate,2022-05-13T15:55:31+02:00*%
%TF.ProjectId,carte fils araign_e,63617274-6520-4666-996c-732061726169,rev?*%
%TF.SameCoordinates,Original*%
%TF.FileFunction,Soldermask,Top*%
%TF.FilePolarity,Negative*%
%FSLAX46Y46*%
G04 Gerber Fmt 4.6, Leading zero omitted, Abs format (unit mm)*
G04 Created by KiCad (PCBNEW (6.0.0)) date 2022-05-13 15:55:31*
%MOMM*%
%LPD*%
G01*
G04 APERTURE LIST*
G04 Aperture macros list*
%AMRoundRect*
0 Rectangle with rounded corners*
0 $1 Rounding radius*
0 $2 $3 $4 $5 $6 $7 $8 $9 X,Y pos of 4 corners*
0 Add a 4 corners polygon primitive as box body*
4,1,4,$2,$3,$4,$5,$6,$7,$8,$9,$2,$3,0*
0 Add four circle primitives for the rounded corners*
1,1,$1+$1,$2,$3*
1,1,$1+$1,$4,$5*
1,1,$1+$1,$6,$7*
1,1,$1+$1,$8,$9*
0 Add four rect primitives between the rounded corners*
20,1,$1+$1,$2,$3,$4,$5,0*
20,1,$1+$1,$4,$5,$6,$7,0*
20,1,$1+$1,$6,$7,$8,$9,0*
20,1,$1+$1,$8,$9,$2,$3,0*%
G04 Aperture macros list end*
%ADD10RoundRect,0.250000X-0.725000X0.600000X-0.725000X-0.600000X0.725000X-0.600000X0.725000X0.600000X0*%
%ADD11O,1.950000X1.700000*%
%ADD12RoundRect,0.250000X1.000000X-0.600000X1.000000X0.600000X-1.000000X0.600000X-1.000000X-0.600000X0*%
%ADD13O,2.500000X1.700000*%
%ADD14C,2.000000*%
%ADD15RoundRect,0.250000X-1.000000X0.600000X-1.000000X-0.600000X1.000000X-0.600000X1.000000X0.600000X0*%
%ADD16C,3.200000*%
%ADD17RoundRect,0.250000X-0.600000X-1.000000X0.600000X-1.000000X0.600000X1.000000X-0.600000X1.000000X0*%
%ADD18O,1.700000X2.500000*%
%ADD19RoundRect,0.250000X0.725000X-0.600000X0.725000X0.600000X-0.725000X0.600000X-0.725000X-0.600000X0*%
G04 APERTURE END LIST*
D10*
%TO.C,J5*%
X135255000Y-105410000D03*
D11*
X135255000Y-107910000D03*
X135255000Y-110410000D03*
%TD*%
D12*
%TO.C,J2*%
X129540000Y-120650000D03*
D13*
X129540000Y-118150000D03*
X129540000Y-115650000D03*
X129540000Y-113150000D03*
X129540000Y-110650000D03*
%TD*%
D14*
%TO.C,I2C_SCL1*%
X142748000Y-96520000D03*
%TD*%
D15*
%TO.C,J13*%
X151130000Y-143510000D03*
D13*
X151130000Y-146010000D03*
X151130000Y-148510000D03*
X151130000Y-151010000D03*
X151130000Y-153510000D03*
%TD*%
D16*
%TO.C,*%
X129500000Y-87500000D03*
%TD*%
D15*
%TO.C,J11*%
X151130000Y-110490000D03*
D13*
X151130000Y-112990000D03*
X151130000Y-115490000D03*
X151130000Y-117990000D03*
X151130000Y-120490000D03*
%TD*%
D17*
%TO.C,J7*%
X134874000Y-161290000D03*
D18*
X137374000Y-161290000D03*
X139874000Y-161290000D03*
X142374000Y-161290000D03*
X144874000Y-161290000D03*
%TD*%
D14*
%TO.C,I2C_SDA1*%
X140050000Y-99568000D03*
%TD*%
D15*
%TO.C,J10*%
X151130000Y-93980000D03*
D13*
X151130000Y-96480000D03*
X151130000Y-98980000D03*
X151130000Y-101480000D03*
X151130000Y-103980000D03*
%TD*%
D14*
%TO.C,GND1*%
X133350000Y-91948000D03*
%TD*%
%TO.C,+5V1*%
X137160000Y-96520000D03*
%TD*%
D16*
%TO.C,*%
X151500000Y-161500000D03*
%TD*%
D15*
%TO.C,J12*%
X151130000Y-127000000D03*
D13*
X151130000Y-129500000D03*
X151130000Y-132000000D03*
X151130000Y-134500000D03*
X151130000Y-137000000D03*
%TD*%
D19*
%TO.C,J8*%
X145415000Y-110490000D03*
D11*
X145415000Y-107990000D03*
X145415000Y-105490000D03*
%TD*%
D19*
%TO.C,J6*%
X145000000Y-126960000D03*
D11*
X145000000Y-124460000D03*
X145000000Y-121960000D03*
%TD*%
D12*
%TO.C,J1*%
X129532500Y-104060000D03*
D13*
X129532500Y-101560000D03*
X129532500Y-99060000D03*
X129532500Y-96560000D03*
X129532500Y-94060000D03*
%TD*%
D17*
%TO.C,J9*%
X137160000Y-87884000D03*
D18*
X139660000Y-87884000D03*
X142160000Y-87884000D03*
X144660000Y-87884000D03*
%TD*%
D16*
%TO.C,*%
X151500000Y-87500000D03*
%TD*%
D12*
%TO.C,J4*%
X129540000Y-153670000D03*
D13*
X129540000Y-151170000D03*
X129540000Y-148670000D03*
X129540000Y-146170000D03*
X129540000Y-143670000D03*
%TD*%
D16*
%TO.C,*%
X129500000Y-161500000D03*
%TD*%
D12*
%TO.C,J3*%
X129540000Y-137000000D03*
D13*
X129540000Y-134500000D03*
X129540000Y-132000000D03*
X129540000Y-129500000D03*
X129540000Y-127000000D03*
%TD*%
M02*
