%TF.GenerationSoftware,KiCad,Pcbnew,(6.0.0)*%
%TF.CreationDate,2022-05-13T11:59:05+02:00*%
%TF.ProjectId,carte fils araign_e,63617274-6520-4666-996c-732061726169,rev?*%
%TF.SameCoordinates,Original*%
%TF.FileFunction,Legend,Bot*%
%TF.FilePolarity,Positive*%
%FSLAX46Y46*%
G04 Gerber Fmt 4.6, Leading zero omitted, Abs format (unit mm)*
G04 Created by KiCad (PCBNEW (6.0.0)) date 2022-05-13 11:59:05*
%MOMM*%
%LPD*%
G01*
G04 APERTURE LIST*
G04 Aperture macros list*
%AMRoundRect*
0 Rectangle with rounded corners*
0 $1 Rounding radius*
0 $2 $3 $4 $5 $6 $7 $8 $9 X,Y pos of 4 corners*
0 Add a 4 corners polygon primitive as box body*
4,1,4,$2,$3,$4,$5,$6,$7,$8,$9,$2,$3,0*
0 Add four circle primitives for the rounded corners*
1,1,$1+$1,$2,$3*
1,1,$1+$1,$4,$5*
1,1,$1+$1,$6,$7*
1,1,$1+$1,$8,$9*
0 Add four rect primitives between the rounded corners*
20,1,$1+$1,$2,$3,$4,$5,0*
20,1,$1+$1,$4,$5,$6,$7,0*
20,1,$1+$1,$6,$7,$8,$9,0*
20,1,$1+$1,$8,$9,$2,$3,0*%
G04 Aperture macros list end*
%ADD10C,0.150000*%
%ADD11RoundRect,0.250000X-0.725000X0.600000X-0.725000X-0.600000X0.725000X-0.600000X0.725000X0.600000X0*%
%ADD12O,1.950000X1.700000*%
%ADD13RoundRect,0.250000X1.000000X-0.600000X1.000000X0.600000X-1.000000X0.600000X-1.000000X-0.600000X0*%
%ADD14O,2.500000X1.700000*%
%ADD15RoundRect,0.250000X-1.000000X0.600000X-1.000000X-0.600000X1.000000X-0.600000X1.000000X0.600000X0*%
%ADD16C,3.200000*%
%ADD17RoundRect,0.250000X-0.600000X-1.000000X0.600000X-1.000000X0.600000X1.000000X-0.600000X1.000000X0*%
%ADD18O,1.700000X2.500000*%
%ADD19RoundRect,0.250000X0.725000X-0.600000X0.725000X0.600000X-0.725000X0.600000X-0.725000X-0.600000X0*%
G04 APERTURE END LIST*
D10*
X142644761Y-90225714D02*
X142692380Y-90368571D01*
X142692380Y-90606666D01*
X142644761Y-90701904D01*
X142597142Y-90749523D01*
X142501904Y-90797142D01*
X142406666Y-90797142D01*
X142311428Y-90749523D01*
X142263809Y-90701904D01*
X142216190Y-90606666D01*
X142168571Y-90416190D01*
X142120952Y-90320952D01*
X142073333Y-90273333D01*
X141978095Y-90225714D01*
X141882857Y-90225714D01*
X141787619Y-90273333D01*
X141740000Y-90320952D01*
X141692380Y-90416190D01*
X141692380Y-90654285D01*
X141740000Y-90797142D01*
X142692380Y-91225714D02*
X141692380Y-91225714D01*
X141692380Y-91463809D01*
X141740000Y-91606666D01*
X141835238Y-91701904D01*
X141930476Y-91749523D01*
X142120952Y-91797142D01*
X142263809Y-91797142D01*
X142454285Y-91749523D01*
X142549523Y-91701904D01*
X142644761Y-91606666D01*
X142692380Y-91463809D01*
X142692380Y-91225714D01*
X142406666Y-92178095D02*
X142406666Y-92654285D01*
X142692380Y-92082857D02*
X141692380Y-92416190D01*
X142692380Y-92749523D01*
X145184761Y-90249523D02*
X145232380Y-90392380D01*
X145232380Y-90630476D01*
X145184761Y-90725714D01*
X145137142Y-90773333D01*
X145041904Y-90820952D01*
X144946666Y-90820952D01*
X144851428Y-90773333D01*
X144803809Y-90725714D01*
X144756190Y-90630476D01*
X144708571Y-90440000D01*
X144660952Y-90344761D01*
X144613333Y-90297142D01*
X144518095Y-90249523D01*
X144422857Y-90249523D01*
X144327619Y-90297142D01*
X144280000Y-90344761D01*
X144232380Y-90440000D01*
X144232380Y-90678095D01*
X144280000Y-90820952D01*
X145137142Y-91820952D02*
X145184761Y-91773333D01*
X145232380Y-91630476D01*
X145232380Y-91535238D01*
X145184761Y-91392380D01*
X145089523Y-91297142D01*
X144994285Y-91249523D01*
X144803809Y-91201904D01*
X144660952Y-91201904D01*
X144470476Y-91249523D01*
X144375238Y-91297142D01*
X144280000Y-91392380D01*
X144232380Y-91535238D01*
X144232380Y-91630476D01*
X144280000Y-91773333D01*
X144327619Y-91820952D01*
X145232380Y-92725714D02*
X145232380Y-92249523D01*
X144232380Y-92249523D01*
X139152380Y-91249523D02*
X139152380Y-90773333D01*
X139628571Y-90725714D01*
X139580952Y-90773333D01*
X139533333Y-90868571D01*
X139533333Y-91106666D01*
X139580952Y-91201904D01*
X139628571Y-91249523D01*
X139723809Y-91297142D01*
X139961904Y-91297142D01*
X140057142Y-91249523D01*
X140104761Y-91201904D01*
X140152380Y-91106666D01*
X140152380Y-90868571D01*
X140104761Y-90773333D01*
X140057142Y-90725714D01*
X139152380Y-91582857D02*
X140152380Y-91916190D01*
X139152380Y-92249523D01*
X136660000Y-90678095D02*
X136612380Y-90582857D01*
X136612380Y-90440000D01*
X136660000Y-90297142D01*
X136755238Y-90201904D01*
X136850476Y-90154285D01*
X137040952Y-90106666D01*
X137183809Y-90106666D01*
X137374285Y-90154285D01*
X137469523Y-90201904D01*
X137564761Y-90297142D01*
X137612380Y-90440000D01*
X137612380Y-90535238D01*
X137564761Y-90678095D01*
X137517142Y-90725714D01*
X137183809Y-90725714D01*
X137183809Y-90535238D01*
X137612380Y-91154285D02*
X136612380Y-91154285D01*
X137612380Y-91725714D01*
X136612380Y-91725714D01*
X137612380Y-92201904D02*
X136612380Y-92201904D01*
X136612380Y-92440000D01*
X136660000Y-92582857D01*
X136755238Y-92678095D01*
X136850476Y-92725714D01*
X137040952Y-92773333D01*
X137183809Y-92773333D01*
X137374285Y-92725714D01*
X137469523Y-92678095D01*
X137564761Y-92582857D01*
X137612380Y-92440000D01*
X137612380Y-92201904D01*
%LPC*%
D11*
%TO.C,J5*%
X135255000Y-105410000D03*
D12*
X135255000Y-107910000D03*
X135255000Y-110410000D03*
%TD*%
D13*
%TO.C,J2*%
X129540000Y-120650000D03*
D14*
X129540000Y-118150000D03*
X129540000Y-115650000D03*
X129540000Y-113150000D03*
X129540000Y-110650000D03*
%TD*%
D15*
%TO.C,J13*%
X151130000Y-143510000D03*
D14*
X151130000Y-146010000D03*
X151130000Y-148510000D03*
X151130000Y-151010000D03*
X151130000Y-153510000D03*
%TD*%
D16*
%TO.C,*%
X129500000Y-87500000D03*
%TD*%
D15*
%TO.C,J11*%
X151130000Y-110490000D03*
D14*
X151130000Y-112990000D03*
X151130000Y-115490000D03*
X151130000Y-117990000D03*
X151130000Y-120490000D03*
%TD*%
D17*
%TO.C,J7*%
X134874000Y-161290000D03*
D18*
X137374000Y-161290000D03*
X139874000Y-161290000D03*
X142374000Y-161290000D03*
X144874000Y-161290000D03*
%TD*%
D15*
%TO.C,J10*%
X151130000Y-93980000D03*
D14*
X151130000Y-96480000D03*
X151130000Y-98980000D03*
X151130000Y-101480000D03*
X151130000Y-103980000D03*
%TD*%
D16*
%TO.C,*%
X151500000Y-161500000D03*
%TD*%
D15*
%TO.C,J12*%
X151130000Y-127000000D03*
D14*
X151130000Y-129500000D03*
X151130000Y-132000000D03*
X151130000Y-134500000D03*
X151130000Y-137000000D03*
%TD*%
D19*
%TO.C,J8*%
X145415000Y-110490000D03*
D12*
X145415000Y-107990000D03*
X145415000Y-105490000D03*
%TD*%
D19*
%TO.C,J6*%
X145000000Y-126960000D03*
D12*
X145000000Y-124460000D03*
X145000000Y-121960000D03*
%TD*%
D13*
%TO.C,J1*%
X129532500Y-104060000D03*
D14*
X129532500Y-101560000D03*
X129532500Y-99060000D03*
X129532500Y-96560000D03*
X129532500Y-94060000D03*
%TD*%
D17*
%TO.C,J9*%
X137160000Y-87884000D03*
D18*
X139660000Y-87884000D03*
X142160000Y-87884000D03*
X144660000Y-87884000D03*
%TD*%
D16*
%TO.C,*%
X151500000Y-87500000D03*
%TD*%
D13*
%TO.C,J4*%
X129540000Y-153670000D03*
D14*
X129540000Y-151170000D03*
X129540000Y-148670000D03*
X129540000Y-146170000D03*
X129540000Y-143670000D03*
%TD*%
D16*
%TO.C,*%
X129500000Y-161500000D03*
%TD*%
D13*
%TO.C,J3*%
X129540000Y-137000000D03*
D14*
X129540000Y-134500000D03*
X129540000Y-132000000D03*
X129540000Y-129500000D03*
X129540000Y-127000000D03*
%TD*%
M02*
