G04 #@! TF.GenerationSoftware,KiCad,Pcbnew,(5.1.5)-3*
G04 #@! TF.CreationDate,2020-04-04T17:30:31+02:00*
G04 #@! TF.ProjectId,carteOdometrie,63617274-654f-4646-9f6d-65747269652e,rev?*
G04 #@! TF.SameCoordinates,Original*
G04 #@! TF.FileFunction,Soldermask,Bot*
G04 #@! TF.FilePolarity,Negative*
%FSLAX46Y46*%
G04 Gerber Fmt 4.6, Leading zero omitted, Abs format (unit mm)*
G04 Created by KiCad (PCBNEW (5.1.5)-3) date 2020-04-04 17:30:31*
%MOMM*%
%LPD*%
G04 APERTURE LIST*
%ADD10C,0.100000*%
G04 APERTURE END LIST*
D10*
G36*
X-22000000Y-5000000D02*
G01*
X-37000000Y-5000000D01*
X-37000000Y5000000D01*
X-22000000Y5000000D01*
X-22000000Y-5000000D01*
G37*
X-22000000Y-5000000D02*
X-37000000Y-5000000D01*
X-37000000Y5000000D01*
X-22000000Y5000000D01*
X-22000000Y-5000000D01*
G36*
X5000000Y-37000000D02*
G01*
X-6000000Y-37000000D01*
X-5000000Y-22000000D01*
X5000000Y-22000000D01*
X5000000Y-37000000D01*
G37*
X5000000Y-37000000D02*
X-6000000Y-37000000D01*
X-5000000Y-22000000D01*
X5000000Y-22000000D01*
X5000000Y-37000000D01*
G36*
X37000000Y-5000000D02*
G01*
X22000000Y-5000000D01*
X22000000Y5000000D01*
X37000000Y5000000D01*
X37000000Y-5000000D01*
G37*
X37000000Y-5000000D02*
X22000000Y-5000000D01*
X22000000Y5000000D01*
X37000000Y5000000D01*
X37000000Y-5000000D01*
G36*
X5000000Y22000000D02*
G01*
X-5000000Y22000000D01*
X-5000000Y36000000D01*
X5000000Y36000000D01*
X5000000Y22000000D01*
G37*
X5000000Y22000000D02*
X-5000000Y22000000D01*
X-5000000Y36000000D01*
X5000000Y36000000D01*
X5000000Y22000000D01*
G36*
X375256Y-28391298D02*
G01*
X481579Y-28412447D01*
X782042Y-28536903D01*
X1052451Y-28717585D01*
X1282415Y-28947549D01*
X1463097Y-29217958D01*
X1587553Y-29518421D01*
X1651000Y-29837391D01*
X1651000Y-30162609D01*
X1587553Y-30481579D01*
X1463097Y-30782042D01*
X1282415Y-31052451D01*
X1052451Y-31282415D01*
X782042Y-31463097D01*
X481579Y-31587553D01*
X375256Y-31608702D01*
X162611Y-31651000D01*
X-162611Y-31651000D01*
X-375256Y-31608702D01*
X-481579Y-31587553D01*
X-782042Y-31463097D01*
X-1052451Y-31282415D01*
X-1282415Y-31052451D01*
X-1463097Y-30782042D01*
X-1587553Y-30481579D01*
X-1651000Y-30162609D01*
X-1651000Y-29837391D01*
X-1587553Y-29518421D01*
X-1463097Y-29217958D01*
X-1282415Y-28947549D01*
X-1052451Y-28717585D01*
X-782042Y-28536903D01*
X-481579Y-28412447D01*
X-375256Y-28391298D01*
X-162611Y-28349000D01*
X162611Y-28349000D01*
X375256Y-28391298D01*
G37*
G36*
X6094525Y-8056142D02*
G01*
X6123593Y-8059005D01*
X6249244Y-8097120D01*
X6293437Y-8110526D01*
X6449956Y-8194188D01*
X6449958Y-8194189D01*
X6449957Y-8194189D01*
X6552775Y-8278569D01*
X6721431Y-8447225D01*
X6721435Y-8447230D01*
X6805812Y-8550044D01*
X6889474Y-8706563D01*
X6889475Y-8706567D01*
X6940995Y-8876407D01*
X6940995Y-8876409D01*
X6958392Y-9053033D01*
X6951442Y-9123591D01*
X6940995Y-9229659D01*
X6921648Y-9293437D01*
X6889474Y-9399503D01*
X6805812Y-9556022D01*
X6693218Y-9693218D01*
X6556022Y-9805812D01*
X6399503Y-9889474D01*
X6355310Y-9902880D01*
X6229659Y-9940995D01*
X6200591Y-9943858D01*
X6053033Y-9958392D01*
X5905475Y-9943858D01*
X5876407Y-9940995D01*
X5750756Y-9902880D01*
X5706563Y-9889474D01*
X5550044Y-9805812D01*
X5447230Y-9721435D01*
X5447225Y-9721431D01*
X5278569Y-9552775D01*
X5194189Y-9449957D01*
X5194188Y-9449956D01*
X5110526Y-9293437D01*
X5091179Y-9229657D01*
X5059005Y-9123593D01*
X5056142Y-9094525D01*
X5041608Y-8946967D01*
X5059005Y-8770343D01*
X5059005Y-8770341D01*
X5110525Y-8600501D01*
X5110526Y-8600497D01*
X5194188Y-8443978D01*
X5306782Y-8306782D01*
X5443978Y-8194188D01*
X5600497Y-8110526D01*
X5644690Y-8097120D01*
X5770341Y-8059005D01*
X5799409Y-8056142D01*
X5946967Y-8041608D01*
X6094525Y-8056142D01*
G37*
G36*
X-16697415Y-5478802D02*
G01*
X-16547590Y-5508604D01*
X-16265326Y-5625521D01*
X-16011295Y-5795259D01*
X-15795259Y-6011295D01*
X-15625521Y-6265326D01*
X-15508604Y-6547590D01*
X-15449000Y-6847240D01*
X-15449000Y-7152760D01*
X-15508604Y-7452410D01*
X-15625521Y-7734674D01*
X-15795259Y-7988705D01*
X-16011295Y-8204741D01*
X-16265326Y-8374479D01*
X-16547590Y-8491396D01*
X-16697415Y-8521198D01*
X-16847239Y-8551000D01*
X-17152761Y-8551000D01*
X-17302585Y-8521198D01*
X-17452410Y-8491396D01*
X-17734674Y-8374479D01*
X-17988705Y-8204741D01*
X-18204741Y-7988705D01*
X-18374479Y-7734674D01*
X-18491396Y-7452410D01*
X-18551000Y-7152760D01*
X-18551000Y-6847240D01*
X-18491396Y-6547590D01*
X-18374479Y-6265326D01*
X-18204741Y-6011295D01*
X-17988705Y-5795259D01*
X-17734674Y-5625521D01*
X-17452410Y-5508604D01*
X-17302585Y-5478802D01*
X-17152761Y-5449000D01*
X-16847239Y-5449000D01*
X-16697415Y-5478802D01*
G37*
G36*
X7749099Y-5982201D02*
G01*
X7782151Y-5992227D01*
X7812602Y-6008504D01*
X7844061Y-6034322D01*
X7902111Y-6092372D01*
X7902117Y-6092377D01*
X8907623Y-7097883D01*
X8907628Y-7097889D01*
X8965678Y-7155939D01*
X8991496Y-7187398D01*
X9007773Y-7217849D01*
X9017799Y-7250901D01*
X9021183Y-7285266D01*
X9017799Y-7319631D01*
X9007773Y-7352683D01*
X8991496Y-7383134D01*
X8965678Y-7414593D01*
X8907628Y-7472643D01*
X8907623Y-7472649D01*
X8008183Y-8372089D01*
X8008177Y-8372094D01*
X7950127Y-8430144D01*
X7918668Y-8455962D01*
X7888217Y-8472239D01*
X7855165Y-8482265D01*
X7820800Y-8485649D01*
X7786435Y-8482265D01*
X7753383Y-8472239D01*
X7722932Y-8455962D01*
X7691473Y-8430144D01*
X7633423Y-8372094D01*
X7633417Y-8372089D01*
X6627911Y-7366583D01*
X6627906Y-7366577D01*
X6569856Y-7308527D01*
X6544038Y-7277068D01*
X6527761Y-7246617D01*
X6517735Y-7213565D01*
X6514351Y-7179200D01*
X6517735Y-7144835D01*
X6527761Y-7111783D01*
X6544038Y-7081332D01*
X6569856Y-7049873D01*
X6627906Y-6991823D01*
X6627911Y-6991817D01*
X7527351Y-6092377D01*
X7527357Y-6092372D01*
X7585407Y-6034322D01*
X7616866Y-6008504D01*
X7647317Y-5992227D01*
X7680369Y-5982201D01*
X7714734Y-5978817D01*
X7749099Y-5982201D01*
G37*
G36*
X-12985433Y-3819882D02*
G01*
X-12951843Y-3832524D01*
X-12921366Y-3851476D01*
X-12895180Y-3876002D01*
X-12870673Y-3910201D01*
X-12259492Y-4968799D01*
X-12242130Y-5007117D01*
X-12233981Y-5042067D01*
X-12232807Y-5077935D01*
X-12238652Y-5113337D01*
X-12251294Y-5146927D01*
X-12270246Y-5177404D01*
X-12294772Y-5203590D01*
X-12328971Y-5228097D01*
X-13387569Y-5839278D01*
X-13425887Y-5856640D01*
X-13460837Y-5864789D01*
X-13496705Y-5865963D01*
X-13532107Y-5860118D01*
X-13565697Y-5847476D01*
X-13596174Y-5828524D01*
X-13622360Y-5803998D01*
X-13646867Y-5769799D01*
X-14258048Y-4711201D01*
X-14275410Y-4672883D01*
X-14283559Y-4637933D01*
X-14284733Y-4602065D01*
X-14278888Y-4566663D01*
X-14266246Y-4533073D01*
X-14247294Y-4502596D01*
X-14222768Y-4476410D01*
X-14188569Y-4451903D01*
X-13129971Y-3840722D01*
X-13091653Y-3823360D01*
X-13056703Y-3815211D01*
X-13020835Y-3814037D01*
X-12985433Y-3819882D01*
G37*
G36*
X-10427052Y-2569781D02*
G01*
X-10281280Y-2630162D01*
X-10281278Y-2630163D01*
X-10150086Y-2717822D01*
X-10038516Y-2829392D01*
X-9950857Y-2960584D01*
X-9950856Y-2960586D01*
X-9890475Y-3106358D01*
X-9859694Y-3261107D01*
X-9859694Y-3418893D01*
X-9890475Y-3573642D01*
X-9950856Y-3719414D01*
X-9950857Y-3719416D01*
X-10038516Y-3850608D01*
X-10150086Y-3962178D01*
X-10281278Y-4049837D01*
X-10281279Y-4049838D01*
X-10281280Y-4049838D01*
X-10427052Y-4110219D01*
X-10581801Y-4141000D01*
X-10739587Y-4141000D01*
X-10894336Y-4110219D01*
X-11040108Y-4049838D01*
X-11040109Y-4049838D01*
X-11040110Y-4049837D01*
X-11171302Y-3962178D01*
X-11282872Y-3850608D01*
X-11370531Y-3719416D01*
X-11370532Y-3719414D01*
X-11430913Y-3573642D01*
X-11461694Y-3418893D01*
X-11461694Y-3261107D01*
X-11430913Y-3106358D01*
X-11370532Y-2960586D01*
X-11370531Y-2960584D01*
X-11282872Y-2829392D01*
X-11171302Y-2717822D01*
X-11040110Y-2630163D01*
X-11040108Y-2630162D01*
X-10894336Y-2569781D01*
X-10739587Y-2539000D01*
X-10581801Y-2539000D01*
X-10427052Y-2569781D01*
G37*
G36*
X30375256Y1608702D02*
G01*
X30481579Y1587553D01*
X30782042Y1463097D01*
X31052451Y1282415D01*
X31282415Y1052451D01*
X31463097Y782042D01*
X31587553Y481579D01*
X31651000Y162609D01*
X31651000Y-162609D01*
X31587553Y-481579D01*
X31463097Y-782042D01*
X31282415Y-1052451D01*
X31052451Y-1282415D01*
X30782042Y-1463097D01*
X30481579Y-1587553D01*
X30375256Y-1608702D01*
X30162611Y-1651000D01*
X29837389Y-1651000D01*
X29624744Y-1608702D01*
X29518421Y-1587553D01*
X29217958Y-1463097D01*
X28947549Y-1282415D01*
X28717585Y-1052451D01*
X28536903Y-782042D01*
X28412447Y-481579D01*
X28349000Y-162609D01*
X28349000Y162609D01*
X28412447Y481579D01*
X28536903Y782042D01*
X28717585Y1052451D01*
X28947549Y1282415D01*
X29217958Y1463097D01*
X29518421Y1587553D01*
X29624744Y1608702D01*
X29837389Y1651000D01*
X30162611Y1651000D01*
X30375256Y1608702D01*
G37*
G36*
X-29624744Y1608702D02*
G01*
X-29518421Y1587553D01*
X-29217958Y1463097D01*
X-28947549Y1282415D01*
X-28717585Y1052451D01*
X-28536903Y782042D01*
X-28412447Y481579D01*
X-28349000Y162609D01*
X-28349000Y-162609D01*
X-28412447Y-481579D01*
X-28536903Y-782042D01*
X-28717585Y-1052451D01*
X-28947549Y-1282415D01*
X-29217958Y-1463097D01*
X-29518421Y-1587553D01*
X-29624744Y-1608702D01*
X-29837389Y-1651000D01*
X-30162611Y-1651000D01*
X-30375256Y-1608702D01*
X-30481579Y-1587553D01*
X-30782042Y-1463097D01*
X-31052451Y-1282415D01*
X-31282415Y-1052451D01*
X-31463097Y-782042D01*
X-31587553Y-481579D01*
X-31651000Y-162609D01*
X-31651000Y162609D01*
X-31587553Y481579D01*
X-31463097Y782042D01*
X-31282415Y1052451D01*
X-31052451Y1282415D01*
X-30782042Y1463097D01*
X-30481579Y1587553D01*
X-30375256Y1608702D01*
X-30162611Y1651000D01*
X-29837389Y1651000D01*
X-29624744Y1608702D01*
G37*
G36*
X-11994200Y6956811D02*
G01*
X-11961148Y6946785D01*
X-11930697Y6930508D01*
X-11904001Y6908599D01*
X-11882092Y6881903D01*
X-11865815Y6851452D01*
X-11855789Y6818400D01*
X-11851800Y6777897D01*
X-11851800Y5341703D01*
X-11855789Y5301200D01*
X-11865815Y5268148D01*
X-11882092Y5237697D01*
X-11904001Y5211001D01*
X-11930697Y5189092D01*
X-11961148Y5172815D01*
X-11994200Y5162789D01*
X-12034703Y5158800D01*
X-13720897Y5158800D01*
X-13761400Y5162789D01*
X-13794452Y5172815D01*
X-13824903Y5189092D01*
X-13851599Y5211001D01*
X-13873508Y5237697D01*
X-13889785Y5268148D01*
X-13899811Y5301200D01*
X-13903800Y5341703D01*
X-13903800Y6777897D01*
X-13899811Y6818400D01*
X-13889785Y6851452D01*
X-13873508Y6881903D01*
X-13851599Y6908599D01*
X-13824903Y6930508D01*
X-13794452Y6946785D01*
X-13761400Y6956811D01*
X-13720897Y6960800D01*
X-12034703Y6960800D01*
X-11994200Y6956811D01*
G37*
G36*
X-12642357Y9454281D02*
G01*
X-12576173Y9447763D01*
X-12406334Y9396243D01*
X-12249809Y9312578D01*
X-12234662Y9300147D01*
X-12112614Y9199986D01*
X-12029738Y9099000D01*
X-12000022Y9062791D01*
X-11916357Y8906266D01*
X-11864837Y8736427D01*
X-11847441Y8559800D01*
X-11864837Y8383173D01*
X-11916357Y8213334D01*
X-12000022Y8056809D01*
X-12029352Y8021071D01*
X-12112614Y7919614D01*
X-12214071Y7836352D01*
X-12249809Y7807022D01*
X-12406334Y7723357D01*
X-12576173Y7671837D01*
X-12642358Y7665318D01*
X-12708540Y7658800D01*
X-13047060Y7658800D01*
X-13113242Y7665318D01*
X-13179427Y7671837D01*
X-13349266Y7723357D01*
X-13505791Y7807022D01*
X-13541529Y7836352D01*
X-13642986Y7919614D01*
X-13726248Y8021071D01*
X-13755578Y8056809D01*
X-13839243Y8213334D01*
X-13890763Y8383173D01*
X-13908159Y8559800D01*
X-13890763Y8736427D01*
X-13839243Y8906266D01*
X-13755578Y9062791D01*
X-13725862Y9099000D01*
X-13642986Y9199986D01*
X-13520938Y9300147D01*
X-13505791Y9312578D01*
X-13349266Y9396243D01*
X-13179427Y9447763D01*
X-13113243Y9454281D01*
X-13047060Y9460800D01*
X-12708540Y9460800D01*
X-12642357Y9454281D01*
G37*
G36*
X5193512Y10896073D02*
G01*
X5342812Y10866376D01*
X5506784Y10798456D01*
X5654354Y10699853D01*
X5779853Y10574354D01*
X5878456Y10426784D01*
X5946376Y10262812D01*
X5981000Y10088741D01*
X5981000Y9911259D01*
X5946376Y9737188D01*
X5878456Y9573216D01*
X5779853Y9425646D01*
X5654354Y9300147D01*
X5506784Y9201544D01*
X5342812Y9133624D01*
X5193512Y9103927D01*
X5168742Y9099000D01*
X4991258Y9099000D01*
X4966488Y9103927D01*
X4817188Y9133624D01*
X4653216Y9201544D01*
X4505646Y9300147D01*
X4380147Y9425646D01*
X4281544Y9573216D01*
X4213624Y9737188D01*
X4179000Y9911259D01*
X4179000Y10088741D01*
X4213624Y10262812D01*
X4281544Y10426784D01*
X4380147Y10574354D01*
X4505646Y10699853D01*
X4653216Y10798456D01*
X4817188Y10866376D01*
X4966488Y10896073D01*
X4991258Y10901000D01*
X5168742Y10901000D01*
X5193512Y10896073D01*
G37*
G36*
X8521000Y9099000D02*
G01*
X6719000Y9099000D01*
X6719000Y10901000D01*
X8521000Y10901000D01*
X8521000Y9099000D01*
G37*
G36*
X2653512Y10896073D02*
G01*
X2802812Y10866376D01*
X2966784Y10798456D01*
X3114354Y10699853D01*
X3239853Y10574354D01*
X3338456Y10426784D01*
X3406376Y10262812D01*
X3441000Y10088741D01*
X3441000Y9911259D01*
X3406376Y9737188D01*
X3338456Y9573216D01*
X3239853Y9425646D01*
X3114354Y9300147D01*
X2966784Y9201544D01*
X2802812Y9133624D01*
X2653512Y9103927D01*
X2628742Y9099000D01*
X2451258Y9099000D01*
X2426488Y9103927D01*
X2277188Y9133624D01*
X2113216Y9201544D01*
X1965646Y9300147D01*
X1840147Y9425646D01*
X1741544Y9573216D01*
X1673624Y9737188D01*
X1639000Y9911259D01*
X1639000Y10088741D01*
X1673624Y10262812D01*
X1741544Y10426784D01*
X1840147Y10574354D01*
X1965646Y10699853D01*
X2113216Y10798456D01*
X2277188Y10866376D01*
X2426488Y10896073D01*
X2451258Y10901000D01*
X2628742Y10901000D01*
X2653512Y10896073D01*
G37*
G36*
X-2426488Y10896073D02*
G01*
X-2277188Y10866376D01*
X-2113216Y10798456D01*
X-1965646Y10699853D01*
X-1840147Y10574354D01*
X-1741544Y10426784D01*
X-1673624Y10262812D01*
X-1639000Y10088741D01*
X-1639000Y9911259D01*
X-1673624Y9737188D01*
X-1741544Y9573216D01*
X-1840147Y9425646D01*
X-1965646Y9300147D01*
X-2113216Y9201544D01*
X-2277188Y9133624D01*
X-2426488Y9103927D01*
X-2451258Y9099000D01*
X-2628742Y9099000D01*
X-2653512Y9103927D01*
X-2802812Y9133624D01*
X-2966784Y9201544D01*
X-3114354Y9300147D01*
X-3239853Y9425646D01*
X-3338456Y9573216D01*
X-3406376Y9737188D01*
X-3441000Y9911259D01*
X-3441000Y10088741D01*
X-3406376Y10262812D01*
X-3338456Y10426784D01*
X-3239853Y10574354D01*
X-3114354Y10699853D01*
X-2966784Y10798456D01*
X-2802812Y10866376D01*
X-2653512Y10896073D01*
X-2628742Y10901000D01*
X-2451258Y10901000D01*
X-2426488Y10896073D01*
G37*
G36*
X-4966488Y10896073D02*
G01*
X-4817188Y10866376D01*
X-4653216Y10798456D01*
X-4505646Y10699853D01*
X-4380147Y10574354D01*
X-4281544Y10426784D01*
X-4213624Y10262812D01*
X-4179000Y10088741D01*
X-4179000Y9911259D01*
X-4213624Y9737188D01*
X-4281544Y9573216D01*
X-4380147Y9425646D01*
X-4505646Y9300147D01*
X-4653216Y9201544D01*
X-4817188Y9133624D01*
X-4966488Y9103927D01*
X-4991258Y9099000D01*
X-5168742Y9099000D01*
X-5193512Y9103927D01*
X-5342812Y9133624D01*
X-5506784Y9201544D01*
X-5654354Y9300147D01*
X-5779853Y9425646D01*
X-5878456Y9573216D01*
X-5946376Y9737188D01*
X-5981000Y9911259D01*
X-5981000Y10088741D01*
X-5946376Y10262812D01*
X-5878456Y10426784D01*
X-5779853Y10574354D01*
X-5654354Y10699853D01*
X-5506784Y10798456D01*
X-5342812Y10866376D01*
X-5193512Y10896073D01*
X-5168742Y10901000D01*
X-4991258Y10901000D01*
X-4966488Y10896073D01*
G37*
G36*
X-7506488Y10896073D02*
G01*
X-7357188Y10866376D01*
X-7193216Y10798456D01*
X-7045646Y10699853D01*
X-6920147Y10574354D01*
X-6821544Y10426784D01*
X-6753624Y10262812D01*
X-6719000Y10088741D01*
X-6719000Y9911259D01*
X-6753624Y9737188D01*
X-6821544Y9573216D01*
X-6920147Y9425646D01*
X-7045646Y9300147D01*
X-7193216Y9201544D01*
X-7357188Y9133624D01*
X-7506488Y9103927D01*
X-7531258Y9099000D01*
X-7708742Y9099000D01*
X-7733512Y9103927D01*
X-7882812Y9133624D01*
X-8046784Y9201544D01*
X-8194354Y9300147D01*
X-8319853Y9425646D01*
X-8418456Y9573216D01*
X-8486376Y9737188D01*
X-8521000Y9911259D01*
X-8521000Y10088741D01*
X-8486376Y10262812D01*
X-8418456Y10426784D01*
X-8319853Y10574354D01*
X-8194354Y10699853D01*
X-8046784Y10798456D01*
X-7882812Y10866376D01*
X-7733512Y10896073D01*
X-7708742Y10901000D01*
X-7531258Y10901000D01*
X-7506488Y10896073D01*
G37*
G36*
X113512Y10896073D02*
G01*
X262812Y10866376D01*
X426784Y10798456D01*
X574354Y10699853D01*
X699853Y10574354D01*
X798456Y10426784D01*
X866376Y10262812D01*
X901000Y10088741D01*
X901000Y9911259D01*
X866376Y9737188D01*
X798456Y9573216D01*
X699853Y9425646D01*
X574354Y9300147D01*
X426784Y9201544D01*
X262812Y9133624D01*
X113512Y9103927D01*
X88742Y9099000D01*
X-88742Y9099000D01*
X-113512Y9103927D01*
X-262812Y9133624D01*
X-426784Y9201544D01*
X-574354Y9300147D01*
X-699853Y9425646D01*
X-798456Y9573216D01*
X-866376Y9737188D01*
X-901000Y9911259D01*
X-901000Y10088741D01*
X-866376Y10262812D01*
X-798456Y10426784D01*
X-699853Y10574354D01*
X-574354Y10699853D01*
X-426784Y10798456D01*
X-262812Y10866376D01*
X-113512Y10896073D01*
X-88742Y10901000D01*
X88742Y10901000D01*
X113512Y10896073D01*
G37*
G36*
X-12642358Y11954282D02*
G01*
X-12576173Y11947763D01*
X-12406334Y11896243D01*
X-12249809Y11812578D01*
X-12214071Y11783248D01*
X-12112614Y11699986D01*
X-12029352Y11598529D01*
X-12000022Y11562791D01*
X-11916357Y11406266D01*
X-11864837Y11236427D01*
X-11847441Y11059800D01*
X-11864837Y10883173D01*
X-11916357Y10713334D01*
X-12000022Y10556809D01*
X-12029352Y10521071D01*
X-12112614Y10419614D01*
X-12214071Y10336352D01*
X-12249809Y10307022D01*
X-12406334Y10223357D01*
X-12576173Y10171837D01*
X-12642357Y10165319D01*
X-12708540Y10158800D01*
X-13047060Y10158800D01*
X-13113243Y10165319D01*
X-13179427Y10171837D01*
X-13349266Y10223357D01*
X-13505791Y10307022D01*
X-13541529Y10336352D01*
X-13642986Y10419614D01*
X-13726248Y10521071D01*
X-13755578Y10556809D01*
X-13839243Y10713334D01*
X-13890763Y10883173D01*
X-13908159Y11059800D01*
X-13890763Y11236427D01*
X-13839243Y11406266D01*
X-13755578Y11562791D01*
X-13726248Y11598529D01*
X-13642986Y11699986D01*
X-13541529Y11783248D01*
X-13505791Y11812578D01*
X-13349266Y11896243D01*
X-13179427Y11947763D01*
X-13113242Y11954282D01*
X-13047060Y11960800D01*
X-12708540Y11960800D01*
X-12642358Y11954282D01*
G37*
G36*
X-12642357Y14454281D02*
G01*
X-12576173Y14447763D01*
X-12406334Y14396243D01*
X-12249809Y14312578D01*
X-12214071Y14283248D01*
X-12112614Y14199986D01*
X-12029352Y14098529D01*
X-12000022Y14062791D01*
X-11916357Y13906266D01*
X-11864837Y13736427D01*
X-11847441Y13559800D01*
X-11864837Y13383173D01*
X-11916357Y13213334D01*
X-12000022Y13056809D01*
X-12029352Y13021071D01*
X-12112614Y12919614D01*
X-12214071Y12836352D01*
X-12249809Y12807022D01*
X-12406334Y12723357D01*
X-12576173Y12671837D01*
X-12642357Y12665319D01*
X-12708540Y12658800D01*
X-13047060Y12658800D01*
X-13113242Y12665318D01*
X-13179427Y12671837D01*
X-13349266Y12723357D01*
X-13505791Y12807022D01*
X-13541529Y12836352D01*
X-13642986Y12919614D01*
X-13726248Y13021071D01*
X-13755578Y13056809D01*
X-13839243Y13213334D01*
X-13890763Y13383173D01*
X-13908159Y13559800D01*
X-13890763Y13736427D01*
X-13839243Y13906266D01*
X-13755578Y14062791D01*
X-13726248Y14098529D01*
X-13642986Y14199986D01*
X-13541529Y14283248D01*
X-13505791Y14312578D01*
X-13349266Y14396243D01*
X-13179427Y14447763D01*
X-13113243Y14454281D01*
X-13047060Y14460800D01*
X-12708540Y14460800D01*
X-12642357Y14454281D01*
G37*
G36*
X2739042Y15099738D02*
G01*
X2887001Y15038451D01*
X3020155Y14949481D01*
X3133401Y14836235D01*
X3222371Y14703081D01*
X3283658Y14555122D01*
X3314900Y14398055D01*
X3314900Y14237905D01*
X3283658Y14080838D01*
X3222371Y13932879D01*
X3133401Y13799725D01*
X3020155Y13686479D01*
X2887001Y13597509D01*
X2739042Y13536222D01*
X2581975Y13504980D01*
X2421825Y13504980D01*
X2264758Y13536222D01*
X2116799Y13597509D01*
X1983645Y13686479D01*
X1870399Y13799725D01*
X1781429Y13932879D01*
X1720142Y14080838D01*
X1688900Y14237905D01*
X1688900Y14398055D01*
X1720142Y14555122D01*
X1781429Y14703081D01*
X1870399Y14836235D01*
X1983645Y14949481D01*
X2116799Y15038451D01*
X2264758Y15099738D01*
X2421825Y15130980D01*
X2581975Y15130980D01*
X2739042Y15099738D01*
G37*
G36*
X-4880958Y15099738D02*
G01*
X-4732999Y15038451D01*
X-4599845Y14949481D01*
X-4486599Y14836235D01*
X-4397629Y14703081D01*
X-4336342Y14555122D01*
X-4305100Y14398055D01*
X-4305100Y14237905D01*
X-4336342Y14080838D01*
X-4397629Y13932879D01*
X-4486599Y13799725D01*
X-4599845Y13686479D01*
X-4732999Y13597509D01*
X-4880958Y13536222D01*
X-5038025Y13504980D01*
X-5198175Y13504980D01*
X-5355242Y13536222D01*
X-5503201Y13597509D01*
X-5636355Y13686479D01*
X-5749601Y13799725D01*
X-5838571Y13932879D01*
X-5899858Y14080838D01*
X-5931100Y14237905D01*
X-5931100Y14398055D01*
X-5899858Y14555122D01*
X-5838571Y14703081D01*
X-5749601Y14836235D01*
X-5636355Y14949481D01*
X-5503201Y15038451D01*
X-5355242Y15099738D01*
X-5198175Y15130980D01*
X-5038025Y15130980D01*
X-4880958Y15099738D01*
G37*
G36*
X199042Y15099738D02*
G01*
X347001Y15038451D01*
X480155Y14949481D01*
X593401Y14836235D01*
X682371Y14703081D01*
X743658Y14555122D01*
X774900Y14398055D01*
X774900Y14237905D01*
X743658Y14080838D01*
X682371Y13932879D01*
X593401Y13799725D01*
X480155Y13686479D01*
X347001Y13597509D01*
X199042Y13536222D01*
X41975Y13504980D01*
X-118175Y13504980D01*
X-275242Y13536222D01*
X-423201Y13597509D01*
X-556355Y13686479D01*
X-669601Y13799725D01*
X-758571Y13932879D01*
X-819858Y14080838D01*
X-851100Y14237905D01*
X-851100Y14398055D01*
X-819858Y14555122D01*
X-758571Y14703081D01*
X-669601Y14836235D01*
X-556355Y14949481D01*
X-423201Y15038451D01*
X-275242Y15099738D01*
X-118175Y15130980D01*
X41975Y15130980D01*
X199042Y15099738D01*
G37*
G36*
X5279042Y15099738D02*
G01*
X5427001Y15038451D01*
X5560155Y14949481D01*
X5673401Y14836235D01*
X5762371Y14703081D01*
X5823658Y14555122D01*
X5854900Y14398055D01*
X5854900Y14237905D01*
X5823658Y14080838D01*
X5762371Y13932879D01*
X5673401Y13799725D01*
X5560155Y13686479D01*
X5427001Y13597509D01*
X5279042Y13536222D01*
X5121975Y13504980D01*
X4961825Y13504980D01*
X4804758Y13536222D01*
X4656799Y13597509D01*
X4523645Y13686479D01*
X4410399Y13799725D01*
X4321429Y13932879D01*
X4260142Y14080838D01*
X4228900Y14237905D01*
X4228900Y14398055D01*
X4260142Y14555122D01*
X4321429Y14703081D01*
X4410399Y14836235D01*
X4523645Y14949481D01*
X4656799Y15038451D01*
X4804758Y15099738D01*
X4961825Y15130980D01*
X5121975Y15130980D01*
X5279042Y15099738D01*
G37*
G36*
X-2340958Y15099738D02*
G01*
X-2192999Y15038451D01*
X-2059845Y14949481D01*
X-1946599Y14836235D01*
X-1857629Y14703081D01*
X-1796342Y14555122D01*
X-1765100Y14398055D01*
X-1765100Y14237905D01*
X-1796342Y14080838D01*
X-1857629Y13932879D01*
X-1946599Y13799725D01*
X-2059845Y13686479D01*
X-2192999Y13597509D01*
X-2340958Y13536222D01*
X-2498025Y13504980D01*
X-2658175Y13504980D01*
X-2815242Y13536222D01*
X-2963201Y13597509D01*
X-3096355Y13686479D01*
X-3209601Y13799725D01*
X-3298571Y13932879D01*
X-3359858Y14080838D01*
X-3391100Y14237905D01*
X-3391100Y14398055D01*
X-3359858Y14555122D01*
X-3298571Y14703081D01*
X-3209601Y14836235D01*
X-3096355Y14949481D01*
X-2963201Y15038451D01*
X-2815242Y15099738D01*
X-2658175Y15130980D01*
X-2498025Y15130980D01*
X-2340958Y15099738D01*
G37*
G36*
X-4880958Y17639738D02*
G01*
X-4732999Y17578451D01*
X-4599845Y17489481D01*
X-4486599Y17376235D01*
X-4397629Y17243081D01*
X-4336342Y17095122D01*
X-4305100Y16938055D01*
X-4305100Y16777905D01*
X-4336342Y16620838D01*
X-4397629Y16472879D01*
X-4486599Y16339725D01*
X-4599845Y16226479D01*
X-4732999Y16137509D01*
X-4880958Y16076222D01*
X-5038025Y16044980D01*
X-5198175Y16044980D01*
X-5355242Y16076222D01*
X-5503201Y16137509D01*
X-5636355Y16226479D01*
X-5749601Y16339725D01*
X-5838571Y16472879D01*
X-5899858Y16620838D01*
X-5931100Y16777905D01*
X-5931100Y16938055D01*
X-5899858Y17095122D01*
X-5838571Y17243081D01*
X-5749601Y17376235D01*
X-5636355Y17489481D01*
X-5503201Y17578451D01*
X-5355242Y17639738D01*
X-5198175Y17670980D01*
X-5038025Y17670980D01*
X-4880958Y17639738D01*
G37*
G36*
X-2340958Y17639738D02*
G01*
X-2192999Y17578451D01*
X-2059845Y17489481D01*
X-1946599Y17376235D01*
X-1857629Y17243081D01*
X-1796342Y17095122D01*
X-1765100Y16938055D01*
X-1765100Y16777905D01*
X-1796342Y16620838D01*
X-1857629Y16472879D01*
X-1946599Y16339725D01*
X-2059845Y16226479D01*
X-2192999Y16137509D01*
X-2340958Y16076222D01*
X-2498025Y16044980D01*
X-2658175Y16044980D01*
X-2815242Y16076222D01*
X-2963201Y16137509D01*
X-3096355Y16226479D01*
X-3209601Y16339725D01*
X-3298571Y16472879D01*
X-3359858Y16620838D01*
X-3391100Y16777905D01*
X-3391100Y16938055D01*
X-3359858Y17095122D01*
X-3298571Y17243081D01*
X-3209601Y17376235D01*
X-3096355Y17489481D01*
X-2963201Y17578451D01*
X-2815242Y17639738D01*
X-2658175Y17670980D01*
X-2498025Y17670980D01*
X-2340958Y17639738D01*
G37*
G36*
X199042Y17639738D02*
G01*
X347001Y17578451D01*
X480155Y17489481D01*
X593401Y17376235D01*
X682371Y17243081D01*
X743658Y17095122D01*
X774900Y16938055D01*
X774900Y16777905D01*
X743658Y16620838D01*
X682371Y16472879D01*
X593401Y16339725D01*
X480155Y16226479D01*
X347001Y16137509D01*
X199042Y16076222D01*
X41975Y16044980D01*
X-118175Y16044980D01*
X-275242Y16076222D01*
X-423201Y16137509D01*
X-556355Y16226479D01*
X-669601Y16339725D01*
X-758571Y16472879D01*
X-819858Y16620838D01*
X-851100Y16777905D01*
X-851100Y16938055D01*
X-819858Y17095122D01*
X-758571Y17243081D01*
X-669601Y17376235D01*
X-556355Y17489481D01*
X-423201Y17578451D01*
X-275242Y17639738D01*
X-118175Y17670980D01*
X41975Y17670980D01*
X199042Y17639738D01*
G37*
G36*
X2739042Y17639738D02*
G01*
X2887001Y17578451D01*
X3020155Y17489481D01*
X3133401Y17376235D01*
X3222371Y17243081D01*
X3283658Y17095122D01*
X3314900Y16938055D01*
X3314900Y16777905D01*
X3283658Y16620838D01*
X3222371Y16472879D01*
X3133401Y16339725D01*
X3020155Y16226479D01*
X2887001Y16137509D01*
X2739042Y16076222D01*
X2581975Y16044980D01*
X2421825Y16044980D01*
X2264758Y16076222D01*
X2116799Y16137509D01*
X1983645Y16226479D01*
X1870399Y16339725D01*
X1781429Y16472879D01*
X1720142Y16620838D01*
X1688900Y16777905D01*
X1688900Y16938055D01*
X1720142Y17095122D01*
X1781429Y17243081D01*
X1870399Y17376235D01*
X1983645Y17489481D01*
X2116799Y17578451D01*
X2264758Y17639738D01*
X2421825Y17670980D01*
X2581975Y17670980D01*
X2739042Y17639738D01*
G37*
G36*
X5279042Y17639738D02*
G01*
X5427001Y17578451D01*
X5560155Y17489481D01*
X5673401Y17376235D01*
X5762371Y17243081D01*
X5823658Y17095122D01*
X5854900Y16938055D01*
X5854900Y16777905D01*
X5823658Y16620838D01*
X5762371Y16472879D01*
X5673401Y16339725D01*
X5560155Y16226479D01*
X5427001Y16137509D01*
X5279042Y16076222D01*
X5121975Y16044980D01*
X4961825Y16044980D01*
X4804758Y16076222D01*
X4656799Y16137509D01*
X4523645Y16226479D01*
X4410399Y16339725D01*
X4321429Y16472879D01*
X4260142Y16620838D01*
X4228900Y16777905D01*
X4228900Y16938055D01*
X4260142Y17095122D01*
X4321429Y17243081D01*
X4410399Y17376235D01*
X4523645Y17489481D01*
X4656799Y17578451D01*
X4804758Y17639738D01*
X4961825Y17670980D01*
X5121975Y17670980D01*
X5279042Y17639738D01*
G37*
G36*
X375256Y31608702D02*
G01*
X481579Y31587553D01*
X782042Y31463097D01*
X1052451Y31282415D01*
X1282415Y31052451D01*
X1463097Y30782042D01*
X1587553Y30481579D01*
X1651000Y30162609D01*
X1651000Y29837391D01*
X1587553Y29518421D01*
X1463097Y29217958D01*
X1282415Y28947549D01*
X1052451Y28717585D01*
X782042Y28536903D01*
X481579Y28412447D01*
X375256Y28391298D01*
X162611Y28349000D01*
X-162611Y28349000D01*
X-375256Y28391298D01*
X-481579Y28412447D01*
X-782042Y28536903D01*
X-1052451Y28717585D01*
X-1282415Y28947549D01*
X-1463097Y29217958D01*
X-1587553Y29518421D01*
X-1651000Y29837391D01*
X-1651000Y30162609D01*
X-1587553Y30481579D01*
X-1463097Y30782042D01*
X-1282415Y31052451D01*
X-1052451Y31282415D01*
X-782042Y31463097D01*
X-481579Y31587553D01*
X-375256Y31608702D01*
X-162611Y31651000D01*
X162611Y31651000D01*
X375256Y31608702D01*
G37*
M02*
