G04 #@! TF.GenerationSoftware,KiCad,Pcbnew,(5.1.4)-1*
G04 #@! TF.CreationDate,2020-11-13T20:24:30+01:00*
G04 #@! TF.ProjectId,Shield BR,53686965-6c64-4204-9252-2e6b69636164,rev?*
G04 #@! TF.SameCoordinates,Original*
G04 #@! TF.FileFunction,Legend,Top*
G04 #@! TF.FilePolarity,Positive*
%FSLAX46Y46*%
G04 Gerber Fmt 4.6, Leading zero omitted, Abs format (unit mm)*
G04 Created by KiCad (PCBNEW (5.1.4)-1) date 2020-11-13 20:24:30*
%MOMM*%
%LPD*%
G04 APERTURE LIST*
%ADD10C,0.100000*%
%ADD11C,0.150000*%
%ADD12C,0.400000*%
%ADD13C,0.125000*%
%ADD14C,0.300000*%
%ADD15C,0.120000*%
%ADD16C,0.010000*%
%ADD17C,0.127000*%
G04 APERTURE END LIST*
D10*
X80564500Y-102612000D02*
X80531166Y-102645333D01*
X80431166Y-102678666D01*
X80364500Y-102678666D01*
X80264500Y-102645333D01*
X80197833Y-102578666D01*
X80164500Y-102512000D01*
X80131166Y-102378666D01*
X80131166Y-102278666D01*
X80164500Y-102145333D01*
X80197833Y-102078666D01*
X80264500Y-102012000D01*
X80364500Y-101978666D01*
X80431166Y-101978666D01*
X80531166Y-102012000D01*
X80564500Y-102045333D01*
X80831166Y-102478666D02*
X81164500Y-102478666D01*
X80764500Y-102678666D02*
X80997833Y-101978666D01*
X81231166Y-102678666D01*
X81464500Y-102678666D02*
X81464500Y-101978666D01*
X81864500Y-102678666D01*
X81864500Y-101978666D01*
X83131166Y-102678666D02*
X82897833Y-102345333D01*
X82731166Y-102678666D02*
X82731166Y-101978666D01*
X82997833Y-101978666D01*
X83064500Y-102012000D01*
X83097833Y-102045333D01*
X83131166Y-102112000D01*
X83131166Y-102212000D01*
X83097833Y-102278666D01*
X83064500Y-102312000D01*
X82997833Y-102345333D01*
X82731166Y-102345333D01*
X83364500Y-102678666D02*
X83731166Y-102212000D01*
X83364500Y-102212000D02*
X83731166Y-102678666D01*
X80647833Y-94738000D02*
X80614500Y-94771333D01*
X80514500Y-94804666D01*
X80447833Y-94804666D01*
X80347833Y-94771333D01*
X80281166Y-94704666D01*
X80247833Y-94638000D01*
X80214500Y-94504666D01*
X80214500Y-94404666D01*
X80247833Y-94271333D01*
X80281166Y-94204666D01*
X80347833Y-94138000D01*
X80447833Y-94104666D01*
X80514500Y-94104666D01*
X80614500Y-94138000D01*
X80647833Y-94171333D01*
X80914500Y-94604666D02*
X81247833Y-94604666D01*
X80847833Y-94804666D02*
X81081166Y-94104666D01*
X81314500Y-94804666D01*
X81547833Y-94804666D02*
X81547833Y-94104666D01*
X81947833Y-94804666D01*
X81947833Y-94104666D01*
X82714500Y-94104666D02*
X83114500Y-94104666D01*
X82914500Y-94804666D02*
X82914500Y-94104666D01*
X83281166Y-94804666D02*
X83647833Y-94338000D01*
X83281166Y-94338000D02*
X83647833Y-94804666D01*
D11*
X89904795Y-93025980D02*
X90476223Y-93025980D01*
X90190509Y-94025980D02*
X90190509Y-93025980D01*
X90809557Y-94025980D02*
X90809557Y-93025980D01*
X91142890Y-93740266D01*
X91476223Y-93025980D01*
X91476223Y-94025980D01*
X92523842Y-93930742D02*
X92476223Y-93978361D01*
X92333366Y-94025980D01*
X92238128Y-94025980D01*
X92095271Y-93978361D01*
X92000033Y-93883123D01*
X91952414Y-93787885D01*
X91904795Y-93597409D01*
X91904795Y-93454552D01*
X91952414Y-93264076D01*
X92000033Y-93168838D01*
X92095271Y-93073600D01*
X92238128Y-93025980D01*
X92333366Y-93025980D01*
X92476223Y-93073600D01*
X92523842Y-93121219D01*
X92904795Y-93121219D02*
X92952414Y-93073600D01*
X93047652Y-93025980D01*
X93285747Y-93025980D01*
X93380985Y-93073600D01*
X93428604Y-93121219D01*
X93476223Y-93216457D01*
X93476223Y-93311695D01*
X93428604Y-93454552D01*
X92857176Y-94025980D01*
X93476223Y-94025980D01*
X93857176Y-93121219D02*
X93904795Y-93073600D01*
X94000033Y-93025980D01*
X94238128Y-93025980D01*
X94333366Y-93073600D01*
X94380985Y-93121219D01*
X94428604Y-93216457D01*
X94428604Y-93311695D01*
X94380985Y-93454552D01*
X93809557Y-94025980D01*
X94428604Y-94025980D01*
X95047652Y-93025980D02*
X95142890Y-93025980D01*
X95238128Y-93073600D01*
X95285747Y-93121219D01*
X95333366Y-93216457D01*
X95380985Y-93406933D01*
X95380985Y-93645028D01*
X95333366Y-93835504D01*
X95285747Y-93930742D01*
X95238128Y-93978361D01*
X95142890Y-94025980D01*
X95047652Y-94025980D01*
X94952414Y-93978361D01*
X94904795Y-93930742D01*
X94857176Y-93835504D01*
X94809557Y-93645028D01*
X94809557Y-93406933D01*
X94857176Y-93216457D01*
X94904795Y-93121219D01*
X94952414Y-93073600D01*
X95047652Y-93025980D01*
X95952414Y-93454552D02*
X95857176Y-93406933D01*
X95809557Y-93359314D01*
X95761938Y-93264076D01*
X95761938Y-93216457D01*
X95809557Y-93121219D01*
X95857176Y-93073600D01*
X95952414Y-93025980D01*
X96142890Y-93025980D01*
X96238128Y-93073600D01*
X96285747Y-93121219D01*
X96333366Y-93216457D01*
X96333366Y-93264076D01*
X96285747Y-93359314D01*
X96238128Y-93406933D01*
X96142890Y-93454552D01*
X95952414Y-93454552D01*
X95857176Y-93502171D01*
X95809557Y-93549790D01*
X95761938Y-93645028D01*
X95761938Y-93835504D01*
X95809557Y-93930742D01*
X95857176Y-93978361D01*
X95952414Y-94025980D01*
X96142890Y-94025980D01*
X96238128Y-93978361D01*
X96285747Y-93930742D01*
X96333366Y-93835504D01*
X96333366Y-93645028D01*
X96285747Y-93549790D01*
X96238128Y-93502171D01*
X96142890Y-93454552D01*
X89955595Y-114057180D02*
X90527023Y-114057180D01*
X90241309Y-115057180D02*
X90241309Y-114057180D01*
X90860357Y-115057180D02*
X90860357Y-114057180D01*
X91193690Y-114771466D01*
X91527023Y-114057180D01*
X91527023Y-115057180D01*
X92574642Y-114961942D02*
X92527023Y-115009561D01*
X92384166Y-115057180D01*
X92288928Y-115057180D01*
X92146071Y-115009561D01*
X92050833Y-114914323D01*
X92003214Y-114819085D01*
X91955595Y-114628609D01*
X91955595Y-114485752D01*
X92003214Y-114295276D01*
X92050833Y-114200038D01*
X92146071Y-114104800D01*
X92288928Y-114057180D01*
X92384166Y-114057180D01*
X92527023Y-114104800D01*
X92574642Y-114152419D01*
X92955595Y-114152419D02*
X93003214Y-114104800D01*
X93098452Y-114057180D01*
X93336547Y-114057180D01*
X93431785Y-114104800D01*
X93479404Y-114152419D01*
X93527023Y-114247657D01*
X93527023Y-114342895D01*
X93479404Y-114485752D01*
X92907976Y-115057180D01*
X93527023Y-115057180D01*
X93907976Y-114152419D02*
X93955595Y-114104800D01*
X94050833Y-114057180D01*
X94288928Y-114057180D01*
X94384166Y-114104800D01*
X94431785Y-114152419D01*
X94479404Y-114247657D01*
X94479404Y-114342895D01*
X94431785Y-114485752D01*
X93860357Y-115057180D01*
X94479404Y-115057180D01*
X95098452Y-114057180D02*
X95193690Y-114057180D01*
X95288928Y-114104800D01*
X95336547Y-114152419D01*
X95384166Y-114247657D01*
X95431785Y-114438133D01*
X95431785Y-114676228D01*
X95384166Y-114866704D01*
X95336547Y-114961942D01*
X95288928Y-115009561D01*
X95193690Y-115057180D01*
X95098452Y-115057180D01*
X95003214Y-115009561D01*
X94955595Y-114961942D01*
X94907976Y-114866704D01*
X94860357Y-114676228D01*
X94860357Y-114438133D01*
X94907976Y-114247657D01*
X94955595Y-114152419D01*
X95003214Y-114104800D01*
X95098452Y-114057180D01*
X96003214Y-114485752D02*
X95907976Y-114438133D01*
X95860357Y-114390514D01*
X95812738Y-114295276D01*
X95812738Y-114247657D01*
X95860357Y-114152419D01*
X95907976Y-114104800D01*
X96003214Y-114057180D01*
X96193690Y-114057180D01*
X96288928Y-114104800D01*
X96336547Y-114152419D01*
X96384166Y-114247657D01*
X96384166Y-114295276D01*
X96336547Y-114390514D01*
X96288928Y-114438133D01*
X96193690Y-114485752D01*
X96003214Y-114485752D01*
X95907976Y-114533371D01*
X95860357Y-114580990D01*
X95812738Y-114676228D01*
X95812738Y-114866704D01*
X95860357Y-114961942D01*
X95907976Y-115009561D01*
X96003214Y-115057180D01*
X96193690Y-115057180D01*
X96288928Y-115009561D01*
X96336547Y-114961942D01*
X96384166Y-114866704D01*
X96384166Y-114676228D01*
X96336547Y-114580990D01*
X96288928Y-114533371D01*
X96193690Y-114485752D01*
X126277595Y-114006380D02*
X126849023Y-114006380D01*
X126563309Y-115006380D02*
X126563309Y-114006380D01*
X127182357Y-115006380D02*
X127182357Y-114006380D01*
X127515690Y-114720666D01*
X127849023Y-114006380D01*
X127849023Y-115006380D01*
X128896642Y-114911142D02*
X128849023Y-114958761D01*
X128706166Y-115006380D01*
X128610928Y-115006380D01*
X128468071Y-114958761D01*
X128372833Y-114863523D01*
X128325214Y-114768285D01*
X128277595Y-114577809D01*
X128277595Y-114434952D01*
X128325214Y-114244476D01*
X128372833Y-114149238D01*
X128468071Y-114054000D01*
X128610928Y-114006380D01*
X128706166Y-114006380D01*
X128849023Y-114054000D01*
X128896642Y-114101619D01*
X129277595Y-114101619D02*
X129325214Y-114054000D01*
X129420452Y-114006380D01*
X129658547Y-114006380D01*
X129753785Y-114054000D01*
X129801404Y-114101619D01*
X129849023Y-114196857D01*
X129849023Y-114292095D01*
X129801404Y-114434952D01*
X129229976Y-115006380D01*
X129849023Y-115006380D01*
X130229976Y-114101619D02*
X130277595Y-114054000D01*
X130372833Y-114006380D01*
X130610928Y-114006380D01*
X130706166Y-114054000D01*
X130753785Y-114101619D01*
X130801404Y-114196857D01*
X130801404Y-114292095D01*
X130753785Y-114434952D01*
X130182357Y-115006380D01*
X130801404Y-115006380D01*
X131420452Y-114006380D02*
X131515690Y-114006380D01*
X131610928Y-114054000D01*
X131658547Y-114101619D01*
X131706166Y-114196857D01*
X131753785Y-114387333D01*
X131753785Y-114625428D01*
X131706166Y-114815904D01*
X131658547Y-114911142D01*
X131610928Y-114958761D01*
X131515690Y-115006380D01*
X131420452Y-115006380D01*
X131325214Y-114958761D01*
X131277595Y-114911142D01*
X131229976Y-114815904D01*
X131182357Y-114625428D01*
X131182357Y-114387333D01*
X131229976Y-114196857D01*
X131277595Y-114101619D01*
X131325214Y-114054000D01*
X131420452Y-114006380D01*
X132325214Y-114434952D02*
X132229976Y-114387333D01*
X132182357Y-114339714D01*
X132134738Y-114244476D01*
X132134738Y-114196857D01*
X132182357Y-114101619D01*
X132229976Y-114054000D01*
X132325214Y-114006380D01*
X132515690Y-114006380D01*
X132610928Y-114054000D01*
X132658547Y-114101619D01*
X132706166Y-114196857D01*
X132706166Y-114244476D01*
X132658547Y-114339714D01*
X132610928Y-114387333D01*
X132515690Y-114434952D01*
X132325214Y-114434952D01*
X132229976Y-114482571D01*
X132182357Y-114530190D01*
X132134738Y-114625428D01*
X132134738Y-114815904D01*
X132182357Y-114911142D01*
X132229976Y-114958761D01*
X132325214Y-115006380D01*
X132515690Y-115006380D01*
X132610928Y-114958761D01*
X132658547Y-114911142D01*
X132706166Y-114815904D01*
X132706166Y-114625428D01*
X132658547Y-114530190D01*
X132610928Y-114482571D01*
X132515690Y-114434952D01*
X126277595Y-93076780D02*
X126849023Y-93076780D01*
X126563309Y-94076780D02*
X126563309Y-93076780D01*
X127182357Y-94076780D02*
X127182357Y-93076780D01*
X127515690Y-93791066D01*
X127849023Y-93076780D01*
X127849023Y-94076780D01*
X128896642Y-93981542D02*
X128849023Y-94029161D01*
X128706166Y-94076780D01*
X128610928Y-94076780D01*
X128468071Y-94029161D01*
X128372833Y-93933923D01*
X128325214Y-93838685D01*
X128277595Y-93648209D01*
X128277595Y-93505352D01*
X128325214Y-93314876D01*
X128372833Y-93219638D01*
X128468071Y-93124400D01*
X128610928Y-93076780D01*
X128706166Y-93076780D01*
X128849023Y-93124400D01*
X128896642Y-93172019D01*
X129277595Y-93172019D02*
X129325214Y-93124400D01*
X129420452Y-93076780D01*
X129658547Y-93076780D01*
X129753785Y-93124400D01*
X129801404Y-93172019D01*
X129849023Y-93267257D01*
X129849023Y-93362495D01*
X129801404Y-93505352D01*
X129229976Y-94076780D01*
X129849023Y-94076780D01*
X130229976Y-93172019D02*
X130277595Y-93124400D01*
X130372833Y-93076780D01*
X130610928Y-93076780D01*
X130706166Y-93124400D01*
X130753785Y-93172019D01*
X130801404Y-93267257D01*
X130801404Y-93362495D01*
X130753785Y-93505352D01*
X130182357Y-94076780D01*
X130801404Y-94076780D01*
X131420452Y-93076780D02*
X131515690Y-93076780D01*
X131610928Y-93124400D01*
X131658547Y-93172019D01*
X131706166Y-93267257D01*
X131753785Y-93457733D01*
X131753785Y-93695828D01*
X131706166Y-93886304D01*
X131658547Y-93981542D01*
X131610928Y-94029161D01*
X131515690Y-94076780D01*
X131420452Y-94076780D01*
X131325214Y-94029161D01*
X131277595Y-93981542D01*
X131229976Y-93886304D01*
X131182357Y-93695828D01*
X131182357Y-93457733D01*
X131229976Y-93267257D01*
X131277595Y-93172019D01*
X131325214Y-93124400D01*
X131420452Y-93076780D01*
X132325214Y-93505352D02*
X132229976Y-93457733D01*
X132182357Y-93410114D01*
X132134738Y-93314876D01*
X132134738Y-93267257D01*
X132182357Y-93172019D01*
X132229976Y-93124400D01*
X132325214Y-93076780D01*
X132515690Y-93076780D01*
X132610928Y-93124400D01*
X132658547Y-93172019D01*
X132706166Y-93267257D01*
X132706166Y-93314876D01*
X132658547Y-93410114D01*
X132610928Y-93457733D01*
X132515690Y-93505352D01*
X132325214Y-93505352D01*
X132229976Y-93552971D01*
X132182357Y-93600590D01*
X132134738Y-93695828D01*
X132134738Y-93886304D01*
X132182357Y-93981542D01*
X132229976Y-94029161D01*
X132325214Y-94076780D01*
X132515690Y-94076780D01*
X132610928Y-94029161D01*
X132658547Y-93981542D01*
X132706166Y-93886304D01*
X132706166Y-93695828D01*
X132658547Y-93600590D01*
X132610928Y-93552971D01*
X132515690Y-93505352D01*
D12*
X112267595Y-91455857D02*
X113791404Y-91455857D01*
X108711595Y-91455857D02*
X110235404Y-91455857D01*
X109473500Y-92217761D02*
X109473500Y-90693952D01*
D13*
X79553119Y-84038285D02*
X79624547Y-84062095D01*
X79648357Y-84085904D01*
X79672166Y-84133523D01*
X79672166Y-84204952D01*
X79648357Y-84252571D01*
X79624547Y-84276380D01*
X79576928Y-84300190D01*
X79386452Y-84300190D01*
X79386452Y-83800190D01*
X79553119Y-83800190D01*
X79600738Y-83824000D01*
X79624547Y-83847809D01*
X79648357Y-83895428D01*
X79648357Y-83943047D01*
X79624547Y-83990666D01*
X79600738Y-84014476D01*
X79553119Y-84038285D01*
X79386452Y-84038285D01*
X79862642Y-83847809D02*
X79886452Y-83824000D01*
X79934071Y-83800190D01*
X80053119Y-83800190D01*
X80100738Y-83824000D01*
X80124547Y-83847809D01*
X80148357Y-83895428D01*
X80148357Y-83943047D01*
X80124547Y-84014476D01*
X79838833Y-84300190D01*
X80148357Y-84300190D01*
X79398357Y-89237333D02*
X79636452Y-89237333D01*
X79350738Y-89380190D02*
X79517404Y-88880190D01*
X79684071Y-89380190D01*
X79826928Y-88927809D02*
X79850738Y-88904000D01*
X79898357Y-88880190D01*
X80017404Y-88880190D01*
X80065023Y-88904000D01*
X80088833Y-88927809D01*
X80112642Y-88975428D01*
X80112642Y-89023047D01*
X80088833Y-89094476D01*
X79803119Y-89380190D01*
X80112642Y-89380190D01*
X79553119Y-86578285D02*
X79624547Y-86602095D01*
X79648357Y-86625904D01*
X79672166Y-86673523D01*
X79672166Y-86744952D01*
X79648357Y-86792571D01*
X79624547Y-86816380D01*
X79576928Y-86840190D01*
X79386452Y-86840190D01*
X79386452Y-86340190D01*
X79553119Y-86340190D01*
X79600738Y-86364000D01*
X79624547Y-86387809D01*
X79648357Y-86435428D01*
X79648357Y-86483047D01*
X79624547Y-86530666D01*
X79600738Y-86554476D01*
X79553119Y-86578285D01*
X79386452Y-86578285D01*
X80148357Y-86840190D02*
X79862642Y-86840190D01*
X80005500Y-86840190D02*
X80005500Y-86340190D01*
X79957880Y-86411619D01*
X79910261Y-86459238D01*
X79862642Y-86483047D01*
X79398357Y-91777333D02*
X79636452Y-91777333D01*
X79350738Y-91920190D02*
X79517404Y-91420190D01*
X79684071Y-91920190D01*
X80112642Y-91920190D02*
X79826928Y-91920190D01*
X79969785Y-91920190D02*
X79969785Y-91420190D01*
X79922166Y-91491619D01*
X79874547Y-91539238D01*
X79826928Y-91563047D01*
X79553119Y-105120285D02*
X79624547Y-105144095D01*
X79648357Y-105167904D01*
X79672166Y-105215523D01*
X79672166Y-105286952D01*
X79648357Y-105334571D01*
X79624547Y-105358380D01*
X79576928Y-105382190D01*
X79386452Y-105382190D01*
X79386452Y-104882190D01*
X79553119Y-104882190D01*
X79600738Y-104906000D01*
X79624547Y-104929809D01*
X79648357Y-104977428D01*
X79648357Y-105025047D01*
X79624547Y-105072666D01*
X79600738Y-105096476D01*
X79553119Y-105120285D01*
X79386452Y-105120285D01*
X79862642Y-104929809D02*
X79886452Y-104906000D01*
X79934071Y-104882190D01*
X80053119Y-104882190D01*
X80100738Y-104906000D01*
X80124547Y-104929809D01*
X80148357Y-104977428D01*
X80148357Y-105025047D01*
X80124547Y-105096476D01*
X79838833Y-105382190D01*
X80148357Y-105382190D01*
X79553119Y-107660285D02*
X79624547Y-107684095D01*
X79648357Y-107707904D01*
X79672166Y-107755523D01*
X79672166Y-107826952D01*
X79648357Y-107874571D01*
X79624547Y-107898380D01*
X79576928Y-107922190D01*
X79386452Y-107922190D01*
X79386452Y-107422190D01*
X79553119Y-107422190D01*
X79600738Y-107446000D01*
X79624547Y-107469809D01*
X79648357Y-107517428D01*
X79648357Y-107565047D01*
X79624547Y-107612666D01*
X79600738Y-107636476D01*
X79553119Y-107660285D01*
X79386452Y-107660285D01*
X80148357Y-107922190D02*
X79862642Y-107922190D01*
X80005500Y-107922190D02*
X80005500Y-107422190D01*
X79957880Y-107493619D01*
X79910261Y-107541238D01*
X79862642Y-107565047D01*
X79398357Y-112859333D02*
X79636452Y-112859333D01*
X79350738Y-113002190D02*
X79517404Y-112502190D01*
X79684071Y-113002190D01*
X80112642Y-113002190D02*
X79826928Y-113002190D01*
X79969785Y-113002190D02*
X79969785Y-112502190D01*
X79922166Y-112573619D01*
X79874547Y-112621238D01*
X79826928Y-112645047D01*
X79398357Y-110319333D02*
X79636452Y-110319333D01*
X79350738Y-110462190D02*
X79517404Y-109962190D01*
X79684071Y-110462190D01*
X79826928Y-110009809D02*
X79850738Y-109986000D01*
X79898357Y-109962190D01*
X80017404Y-109962190D01*
X80065023Y-109986000D01*
X80088833Y-110009809D01*
X80112642Y-110057428D01*
X80112642Y-110105047D01*
X80088833Y-110176476D01*
X79803119Y-110462190D01*
X80112642Y-110462190D01*
X142390357Y-107779333D02*
X142628452Y-107779333D01*
X142342738Y-107922190D02*
X142509404Y-107422190D01*
X142676071Y-107922190D01*
X142818928Y-107469809D02*
X142842738Y-107446000D01*
X142890357Y-107422190D01*
X143009404Y-107422190D01*
X143057023Y-107446000D01*
X143080833Y-107469809D01*
X143104642Y-107517428D01*
X143104642Y-107565047D01*
X143080833Y-107636476D01*
X142795119Y-107922190D01*
X143104642Y-107922190D01*
X142549119Y-110200285D02*
X142620547Y-110224095D01*
X142644357Y-110247904D01*
X142668166Y-110295523D01*
X142668166Y-110366952D01*
X142644357Y-110414571D01*
X142620547Y-110438380D01*
X142572928Y-110462190D01*
X142382452Y-110462190D01*
X142382452Y-109962190D01*
X142549119Y-109962190D01*
X142596738Y-109986000D01*
X142620547Y-110009809D01*
X142644357Y-110057428D01*
X142644357Y-110105047D01*
X142620547Y-110152666D01*
X142596738Y-110176476D01*
X142549119Y-110200285D01*
X142382452Y-110200285D01*
X143144357Y-110462190D02*
X142858642Y-110462190D01*
X143001500Y-110462190D02*
X143001500Y-109962190D01*
X142953880Y-110033619D01*
X142906261Y-110081238D01*
X142858642Y-110105047D01*
X142390357Y-105239333D02*
X142628452Y-105239333D01*
X142342738Y-105382190D02*
X142509404Y-104882190D01*
X142676071Y-105382190D01*
X143104642Y-105382190D02*
X142818928Y-105382190D01*
X142961785Y-105382190D02*
X142961785Y-104882190D01*
X142914166Y-104953619D01*
X142866547Y-105001238D01*
X142818928Y-105025047D01*
X142549119Y-112740285D02*
X142620547Y-112764095D01*
X142644357Y-112787904D01*
X142668166Y-112835523D01*
X142668166Y-112906952D01*
X142644357Y-112954571D01*
X142620547Y-112978380D01*
X142572928Y-113002190D01*
X142382452Y-113002190D01*
X142382452Y-112502190D01*
X142549119Y-112502190D01*
X142596738Y-112526000D01*
X142620547Y-112549809D01*
X142644357Y-112597428D01*
X142644357Y-112645047D01*
X142620547Y-112692666D01*
X142596738Y-112716476D01*
X142549119Y-112740285D01*
X142382452Y-112740285D01*
X142858642Y-112549809D02*
X142882452Y-112526000D01*
X142930071Y-112502190D01*
X143049119Y-112502190D01*
X143096738Y-112526000D01*
X143120547Y-112549809D01*
X143144357Y-112597428D01*
X143144357Y-112645047D01*
X143120547Y-112716476D01*
X142834833Y-113002190D01*
X143144357Y-113002190D01*
X142390357Y-86697333D02*
X142628452Y-86697333D01*
X142342738Y-86840190D02*
X142509404Y-86340190D01*
X142676071Y-86840190D01*
X142818928Y-86387809D02*
X142842738Y-86364000D01*
X142890357Y-86340190D01*
X143009404Y-86340190D01*
X143057023Y-86364000D01*
X143080833Y-86387809D01*
X143104642Y-86435428D01*
X143104642Y-86483047D01*
X143080833Y-86554476D01*
X142795119Y-86840190D01*
X143104642Y-86840190D01*
X142390357Y-84157333D02*
X142628452Y-84157333D01*
X142342738Y-84300190D02*
X142509404Y-83800190D01*
X142676071Y-84300190D01*
X143104642Y-84300190D02*
X142818928Y-84300190D01*
X142961785Y-84300190D02*
X142961785Y-83800190D01*
X142914166Y-83871619D01*
X142866547Y-83919238D01*
X142818928Y-83943047D01*
X142549119Y-91658285D02*
X142620547Y-91682095D01*
X142644357Y-91705904D01*
X142668166Y-91753523D01*
X142668166Y-91824952D01*
X142644357Y-91872571D01*
X142620547Y-91896380D01*
X142572928Y-91920190D01*
X142382452Y-91920190D01*
X142382452Y-91420190D01*
X142549119Y-91420190D01*
X142596738Y-91444000D01*
X142620547Y-91467809D01*
X142644357Y-91515428D01*
X142644357Y-91563047D01*
X142620547Y-91610666D01*
X142596738Y-91634476D01*
X142549119Y-91658285D01*
X142382452Y-91658285D01*
X142858642Y-91467809D02*
X142882452Y-91444000D01*
X142930071Y-91420190D01*
X143049119Y-91420190D01*
X143096738Y-91444000D01*
X143120547Y-91467809D01*
X143144357Y-91515428D01*
X143144357Y-91563047D01*
X143120547Y-91634476D01*
X142834833Y-91920190D01*
X143144357Y-91920190D01*
X142549119Y-89118285D02*
X142620547Y-89142095D01*
X142644357Y-89165904D01*
X142668166Y-89213523D01*
X142668166Y-89284952D01*
X142644357Y-89332571D01*
X142620547Y-89356380D01*
X142572928Y-89380190D01*
X142382452Y-89380190D01*
X142382452Y-88880190D01*
X142549119Y-88880190D01*
X142596738Y-88904000D01*
X142620547Y-88927809D01*
X142644357Y-88975428D01*
X142644357Y-89023047D01*
X142620547Y-89070666D01*
X142596738Y-89094476D01*
X142549119Y-89118285D01*
X142382452Y-89118285D01*
X143144357Y-89380190D02*
X142858642Y-89380190D01*
X143001500Y-89380190D02*
X143001500Y-88880190D01*
X142953880Y-88951619D01*
X142906261Y-88999238D01*
X142858642Y-89023047D01*
D11*
X114251976Y-108402380D02*
X114251976Y-107402380D01*
X114585309Y-108116666D01*
X114918642Y-107402380D01*
X114918642Y-108402380D01*
X115347214Y-107497619D02*
X115394833Y-107450000D01*
X115490071Y-107402380D01*
X115728166Y-107402380D01*
X115823404Y-107450000D01*
X115871023Y-107497619D01*
X115918642Y-107592857D01*
X115918642Y-107688095D01*
X115871023Y-107830952D01*
X115299595Y-108402380D01*
X115918642Y-108402380D01*
X111711976Y-108402380D02*
X111711976Y-107402380D01*
X112045309Y-108116666D01*
X112378642Y-107402380D01*
X112378642Y-108402380D01*
X113378642Y-108402380D02*
X112807214Y-108402380D01*
X113092928Y-108402380D02*
X113092928Y-107402380D01*
X112997690Y-107545238D01*
X112902452Y-107640476D01*
X112807214Y-107688095D01*
X106703404Y-107878571D02*
X107036738Y-107878571D01*
X107179595Y-108402380D02*
X106703404Y-108402380D01*
X106703404Y-107402380D01*
X107179595Y-107402380D01*
X107608166Y-108402380D02*
X107608166Y-107402380D01*
X108179595Y-108402380D01*
X108179595Y-107402380D01*
D14*
X84268071Y-73064571D02*
X84268071Y-72778857D01*
X84339500Y-72636000D01*
X84482357Y-72493142D01*
X84768071Y-72421714D01*
X85268071Y-72421714D01*
X85553785Y-72493142D01*
X85696642Y-72636000D01*
X85768071Y-72778857D01*
X85768071Y-73064571D01*
X85696642Y-73207428D01*
X85553785Y-73350285D01*
X85268071Y-73421714D01*
X84768071Y-73421714D01*
X84482357Y-73350285D01*
X84339500Y-73207428D01*
X84268071Y-73064571D01*
X85768071Y-71778857D02*
X84268071Y-71778857D01*
X85768071Y-70921714D01*
X84268071Y-70921714D01*
D11*
X88185214Y-89320666D02*
X88661404Y-89320666D01*
X88089976Y-89606380D02*
X88423309Y-88606380D01*
X88756642Y-89606380D01*
X89042357Y-88701619D02*
X89089976Y-88654000D01*
X89185214Y-88606380D01*
X89423309Y-88606380D01*
X89518547Y-88654000D01*
X89566166Y-88701619D01*
X89613785Y-88796857D01*
X89613785Y-88892095D01*
X89566166Y-89034952D01*
X88994738Y-89606380D01*
X89613785Y-89606380D01*
X88494738Y-86542571D02*
X88637595Y-86590190D01*
X88685214Y-86637809D01*
X88732833Y-86733047D01*
X88732833Y-86875904D01*
X88685214Y-86971142D01*
X88637595Y-87018761D01*
X88542357Y-87066380D01*
X88161404Y-87066380D01*
X88161404Y-86066380D01*
X88494738Y-86066380D01*
X88589976Y-86114000D01*
X88637595Y-86161619D01*
X88685214Y-86256857D01*
X88685214Y-86352095D01*
X88637595Y-86447333D01*
X88589976Y-86494952D01*
X88494738Y-86542571D01*
X88161404Y-86542571D01*
X89685214Y-87066380D02*
X89113785Y-87066380D01*
X89399500Y-87066380D02*
X89399500Y-86066380D01*
X89304261Y-86209238D01*
X89209023Y-86304476D01*
X89113785Y-86352095D01*
X88185214Y-91860666D02*
X88661404Y-91860666D01*
X88089976Y-92146380D02*
X88423309Y-91146380D01*
X88756642Y-92146380D01*
X89613785Y-92146380D02*
X89042357Y-92146380D01*
X89328071Y-92146380D02*
X89328071Y-91146380D01*
X89232833Y-91289238D01*
X89137595Y-91384476D01*
X89042357Y-91432095D01*
X88494738Y-84002571D02*
X88637595Y-84050190D01*
X88685214Y-84097809D01*
X88732833Y-84193047D01*
X88732833Y-84335904D01*
X88685214Y-84431142D01*
X88637595Y-84478761D01*
X88542357Y-84526380D01*
X88161404Y-84526380D01*
X88161404Y-83526380D01*
X88494738Y-83526380D01*
X88589976Y-83574000D01*
X88637595Y-83621619D01*
X88685214Y-83716857D01*
X88685214Y-83812095D01*
X88637595Y-83907333D01*
X88589976Y-83954952D01*
X88494738Y-84002571D01*
X88161404Y-84002571D01*
X89113785Y-83621619D02*
X89161404Y-83574000D01*
X89256642Y-83526380D01*
X89494738Y-83526380D01*
X89589976Y-83574000D01*
X89637595Y-83621619D01*
X89685214Y-83716857D01*
X89685214Y-83812095D01*
X89637595Y-83954952D01*
X89066166Y-84526380D01*
X89685214Y-84526380D01*
X88494738Y-105084571D02*
X88637595Y-105132190D01*
X88685214Y-105179809D01*
X88732833Y-105275047D01*
X88732833Y-105417904D01*
X88685214Y-105513142D01*
X88637595Y-105560761D01*
X88542357Y-105608380D01*
X88161404Y-105608380D01*
X88161404Y-104608380D01*
X88494738Y-104608380D01*
X88589976Y-104656000D01*
X88637595Y-104703619D01*
X88685214Y-104798857D01*
X88685214Y-104894095D01*
X88637595Y-104989333D01*
X88589976Y-105036952D01*
X88494738Y-105084571D01*
X88161404Y-105084571D01*
X89113785Y-104703619D02*
X89161404Y-104656000D01*
X89256642Y-104608380D01*
X89494738Y-104608380D01*
X89589976Y-104656000D01*
X89637595Y-104703619D01*
X89685214Y-104798857D01*
X89685214Y-104894095D01*
X89637595Y-105036952D01*
X89066166Y-105608380D01*
X89685214Y-105608380D01*
X88185214Y-112942666D02*
X88661404Y-112942666D01*
X88089976Y-113228380D02*
X88423309Y-112228380D01*
X88756642Y-113228380D01*
X89613785Y-113228380D02*
X89042357Y-113228380D01*
X89328071Y-113228380D02*
X89328071Y-112228380D01*
X89232833Y-112371238D01*
X89137595Y-112466476D01*
X89042357Y-112514095D01*
X88185214Y-110402666D02*
X88661404Y-110402666D01*
X88089976Y-110688380D02*
X88423309Y-109688380D01*
X88756642Y-110688380D01*
X89042357Y-109783619D02*
X89089976Y-109736000D01*
X89185214Y-109688380D01*
X89423309Y-109688380D01*
X89518547Y-109736000D01*
X89566166Y-109783619D01*
X89613785Y-109878857D01*
X89613785Y-109974095D01*
X89566166Y-110116952D01*
X88994738Y-110688380D01*
X89613785Y-110688380D01*
X88494738Y-107624571D02*
X88637595Y-107672190D01*
X88685214Y-107719809D01*
X88732833Y-107815047D01*
X88732833Y-107957904D01*
X88685214Y-108053142D01*
X88637595Y-108100761D01*
X88542357Y-108148380D01*
X88161404Y-108148380D01*
X88161404Y-107148380D01*
X88494738Y-107148380D01*
X88589976Y-107196000D01*
X88637595Y-107243619D01*
X88685214Y-107338857D01*
X88685214Y-107434095D01*
X88637595Y-107529333D01*
X88589976Y-107576952D01*
X88494738Y-107624571D01*
X88161404Y-107624571D01*
X89685214Y-108148380D02*
X89113785Y-108148380D01*
X89399500Y-108148380D02*
X89399500Y-107148380D01*
X89304261Y-107291238D01*
X89209023Y-107386476D01*
X89113785Y-107434095D01*
X132889214Y-107862666D02*
X133365404Y-107862666D01*
X132793976Y-108148380D02*
X133127309Y-107148380D01*
X133460642Y-108148380D01*
X133746357Y-107243619D02*
X133793976Y-107196000D01*
X133889214Y-107148380D01*
X134127309Y-107148380D01*
X134222547Y-107196000D01*
X134270166Y-107243619D01*
X134317785Y-107338857D01*
X134317785Y-107434095D01*
X134270166Y-107576952D01*
X133698738Y-108148380D01*
X134317785Y-108148380D01*
X132889214Y-105322666D02*
X133365404Y-105322666D01*
X132793976Y-105608380D02*
X133127309Y-104608380D01*
X133460642Y-105608380D01*
X134317785Y-105608380D02*
X133746357Y-105608380D01*
X134032071Y-105608380D02*
X134032071Y-104608380D01*
X133936833Y-104751238D01*
X133841595Y-104846476D01*
X133746357Y-104894095D01*
X133198738Y-112704571D02*
X133341595Y-112752190D01*
X133389214Y-112799809D01*
X133436833Y-112895047D01*
X133436833Y-113037904D01*
X133389214Y-113133142D01*
X133341595Y-113180761D01*
X133246357Y-113228380D01*
X132865404Y-113228380D01*
X132865404Y-112228380D01*
X133198738Y-112228380D01*
X133293976Y-112276000D01*
X133341595Y-112323619D01*
X133389214Y-112418857D01*
X133389214Y-112514095D01*
X133341595Y-112609333D01*
X133293976Y-112656952D01*
X133198738Y-112704571D01*
X132865404Y-112704571D01*
X133817785Y-112323619D02*
X133865404Y-112276000D01*
X133960642Y-112228380D01*
X134198738Y-112228380D01*
X134293976Y-112276000D01*
X134341595Y-112323619D01*
X134389214Y-112418857D01*
X134389214Y-112514095D01*
X134341595Y-112656952D01*
X133770166Y-113228380D01*
X134389214Y-113228380D01*
X133198738Y-110164571D02*
X133341595Y-110212190D01*
X133389214Y-110259809D01*
X133436833Y-110355047D01*
X133436833Y-110497904D01*
X133389214Y-110593142D01*
X133341595Y-110640761D01*
X133246357Y-110688380D01*
X132865404Y-110688380D01*
X132865404Y-109688380D01*
X133198738Y-109688380D01*
X133293976Y-109736000D01*
X133341595Y-109783619D01*
X133389214Y-109878857D01*
X133389214Y-109974095D01*
X133341595Y-110069333D01*
X133293976Y-110116952D01*
X133198738Y-110164571D01*
X132865404Y-110164571D01*
X134389214Y-110688380D02*
X133817785Y-110688380D01*
X134103500Y-110688380D02*
X134103500Y-109688380D01*
X134008261Y-109831238D01*
X133913023Y-109926476D01*
X133817785Y-109974095D01*
X133198738Y-91622571D02*
X133341595Y-91670190D01*
X133389214Y-91717809D01*
X133436833Y-91813047D01*
X133436833Y-91955904D01*
X133389214Y-92051142D01*
X133341595Y-92098761D01*
X133246357Y-92146380D01*
X132865404Y-92146380D01*
X132865404Y-91146380D01*
X133198738Y-91146380D01*
X133293976Y-91194000D01*
X133341595Y-91241619D01*
X133389214Y-91336857D01*
X133389214Y-91432095D01*
X133341595Y-91527333D01*
X133293976Y-91574952D01*
X133198738Y-91622571D01*
X132865404Y-91622571D01*
X133817785Y-91241619D02*
X133865404Y-91194000D01*
X133960642Y-91146380D01*
X134198738Y-91146380D01*
X134293976Y-91194000D01*
X134341595Y-91241619D01*
X134389214Y-91336857D01*
X134389214Y-91432095D01*
X134341595Y-91574952D01*
X133770166Y-92146380D01*
X134389214Y-92146380D01*
X133198738Y-89082571D02*
X133341595Y-89130190D01*
X133389214Y-89177809D01*
X133436833Y-89273047D01*
X133436833Y-89415904D01*
X133389214Y-89511142D01*
X133341595Y-89558761D01*
X133246357Y-89606380D01*
X132865404Y-89606380D01*
X132865404Y-88606380D01*
X133198738Y-88606380D01*
X133293976Y-88654000D01*
X133341595Y-88701619D01*
X133389214Y-88796857D01*
X133389214Y-88892095D01*
X133341595Y-88987333D01*
X133293976Y-89034952D01*
X133198738Y-89082571D01*
X132865404Y-89082571D01*
X134389214Y-89606380D02*
X133817785Y-89606380D01*
X134103500Y-89606380D02*
X134103500Y-88606380D01*
X134008261Y-88749238D01*
X133913023Y-88844476D01*
X133817785Y-88892095D01*
X132889214Y-86780666D02*
X133365404Y-86780666D01*
X132793976Y-87066380D02*
X133127309Y-86066380D01*
X133460642Y-87066380D01*
X133746357Y-86161619D02*
X133793976Y-86114000D01*
X133889214Y-86066380D01*
X134127309Y-86066380D01*
X134222547Y-86114000D01*
X134270166Y-86161619D01*
X134317785Y-86256857D01*
X134317785Y-86352095D01*
X134270166Y-86494952D01*
X133698738Y-87066380D01*
X134317785Y-87066380D01*
X132889214Y-84240666D02*
X133365404Y-84240666D01*
X132793976Y-84526380D02*
X133127309Y-83526380D01*
X133460642Y-84526380D01*
X134317785Y-84526380D02*
X133746357Y-84526380D01*
X134032071Y-84526380D02*
X134032071Y-83526380D01*
X133936833Y-83669238D01*
X133841595Y-83764476D01*
X133746357Y-83812095D01*
D15*
X90414000Y-95484000D02*
X90414000Y-97484000D01*
X88414000Y-95484000D02*
X90414000Y-95484000D01*
X88414000Y-97484000D02*
X88414000Y-95484000D01*
X90414000Y-97484000D02*
X88414000Y-97484000D01*
D14*
X89014000Y-96484000D02*
X89864000Y-96484000D01*
X89414000Y-96884000D02*
X89414000Y-96034000D01*
D15*
X90215561Y-96484000D02*
G75*
G03X90215561Y-96484000I-801561J0D01*
G01*
X100457000Y-97917000D02*
X98171000Y-97917000D01*
X98171000Y-97917000D02*
X98171000Y-77851000D01*
X98171000Y-77851000D02*
X100457000Y-77851000D01*
X100457000Y-77851000D02*
X100457000Y-97917000D01*
X85471000Y-97917000D02*
X87757000Y-97917000D01*
X87757000Y-97917000D02*
X87757000Y-77851000D01*
X87249000Y-77851000D02*
X85471000Y-77851000D01*
X85471000Y-80137000D02*
X85471000Y-97917000D01*
X87757000Y-97917000D02*
X98171000Y-97917000D01*
X98171000Y-77851000D02*
X87757000Y-77851000D01*
X85471000Y-80137000D02*
X87757000Y-80137000D01*
X85471000Y-79629000D02*
X85471000Y-77851000D01*
X90414000Y-116566000D02*
X90414000Y-118566000D01*
X88414000Y-116566000D02*
X90414000Y-116566000D01*
X88414000Y-118566000D02*
X88414000Y-116566000D01*
X90414000Y-118566000D02*
X88414000Y-118566000D01*
D14*
X89014000Y-117566000D02*
X89864000Y-117566000D01*
X89414000Y-117966000D02*
X89414000Y-117116000D01*
D15*
X90215561Y-117566000D02*
G75*
G03X90215561Y-117566000I-801561J0D01*
G01*
X100457000Y-118999000D02*
X98171000Y-118999000D01*
X98171000Y-118999000D02*
X98171000Y-98933000D01*
X98171000Y-98933000D02*
X100457000Y-98933000D01*
X100457000Y-98933000D02*
X100457000Y-118999000D01*
X85471000Y-118999000D02*
X87757000Y-118999000D01*
X87757000Y-118999000D02*
X87757000Y-98933000D01*
X87249000Y-98933000D02*
X85471000Y-98933000D01*
X85471000Y-101219000D02*
X85471000Y-118999000D01*
X87757000Y-118999000D02*
X98171000Y-118999000D01*
X98171000Y-98933000D02*
X87757000Y-98933000D01*
X85471000Y-101219000D02*
X87757000Y-101219000D01*
X85471000Y-100711000D02*
X85471000Y-98933000D01*
X137033000Y-117221000D02*
X137033000Y-118999000D01*
X137033000Y-116713000D02*
X134747000Y-116713000D01*
X124333000Y-118999000D02*
X134747000Y-118999000D01*
X134747000Y-98933000D02*
X124333000Y-98933000D01*
X137033000Y-116713000D02*
X137033000Y-98933000D01*
X135255000Y-118999000D02*
X137033000Y-118999000D01*
X134747000Y-98933000D02*
X134747000Y-118999000D01*
X137033000Y-98933000D02*
X134747000Y-98933000D01*
X122047000Y-118999000D02*
X122047000Y-98933000D01*
X124333000Y-118999000D02*
X122047000Y-118999000D01*
X124333000Y-98933000D02*
X124333000Y-118999000D01*
X122047000Y-98933000D02*
X124333000Y-98933000D01*
X133891561Y-100366000D02*
G75*
G03X133891561Y-100366000I-801561J0D01*
G01*
D14*
X133090000Y-99966000D02*
X133090000Y-100816000D01*
X133490000Y-100366000D02*
X132640000Y-100366000D01*
D15*
X132090000Y-99366000D02*
X134090000Y-99366000D01*
X134090000Y-99366000D02*
X134090000Y-101366000D01*
X134090000Y-101366000D02*
X132090000Y-101366000D01*
X132090000Y-101366000D02*
X132090000Y-99366000D01*
X132090000Y-80284000D02*
X132090000Y-78284000D01*
X134090000Y-80284000D02*
X132090000Y-80284000D01*
X134090000Y-78284000D02*
X134090000Y-80284000D01*
X132090000Y-78284000D02*
X134090000Y-78284000D01*
D14*
X133490000Y-79284000D02*
X132640000Y-79284000D01*
X133090000Y-78884000D02*
X133090000Y-79734000D01*
D15*
X133891561Y-79284000D02*
G75*
G03X133891561Y-79284000I-801561J0D01*
G01*
X122047000Y-77851000D02*
X124333000Y-77851000D01*
X124333000Y-77851000D02*
X124333000Y-97917000D01*
X124333000Y-97917000D02*
X122047000Y-97917000D01*
X122047000Y-97917000D02*
X122047000Y-77851000D01*
X137033000Y-77851000D02*
X134747000Y-77851000D01*
X134747000Y-77851000D02*
X134747000Y-97917000D01*
X135255000Y-97917000D02*
X137033000Y-97917000D01*
X137033000Y-95631000D02*
X137033000Y-77851000D01*
X134747000Y-77851000D02*
X124333000Y-77851000D01*
X124333000Y-97917000D02*
X134747000Y-97917000D01*
X137033000Y-95631000D02*
X134747000Y-95631000D01*
X137033000Y-96139000D02*
X137033000Y-97917000D01*
X115902000Y-83284000D02*
X115902000Y-81834000D01*
X114002000Y-83284000D02*
X114002000Y-81834000D01*
X115902000Y-83334000D02*
G75*
G02X114002000Y-83334000I-950000J0D01*
G01*
X108502000Y-81884000D02*
X108502000Y-83334000D01*
X108502000Y-83334000D02*
G75*
G02X106602000Y-83334000I-950000J0D01*
G01*
X106602000Y-81834000D02*
X106602000Y-83334000D01*
X114002000Y-81834000D02*
G75*
G02X115902000Y-81834000I950000J0D01*
G01*
X106600685Y-81834416D02*
G75*
G02X108502000Y-81884000I951315J416D01*
G01*
X114752000Y-88384000D02*
X114752000Y-84534000D01*
X107752001Y-88334001D02*
X107752000Y-84534000D01*
X111252000Y-81284000D02*
X111252000Y-89484000D01*
X108402000Y-80884000D02*
X114102000Y-80884000D01*
X109502000Y-90134000D02*
X113002000Y-90134000D01*
X114752000Y-88384000D02*
G75*
G02X113002000Y-90134000I-1750000J0D01*
G01*
X109502001Y-90134713D02*
G75*
G02X107752001Y-88334001I-1J1750713D01*
G01*
D16*
G36*
X112344805Y-72908478D02*
G01*
X112697345Y-72940847D01*
X113036537Y-73003089D01*
X113361835Y-73095235D01*
X113672694Y-73217320D01*
X113968566Y-73369378D01*
X114049444Y-73417820D01*
X114277420Y-73574088D01*
X114491824Y-73751203D01*
X114686799Y-73943656D01*
X114856487Y-74145939D01*
X114923891Y-74239967D01*
X114978460Y-74320400D01*
X113184873Y-74320400D01*
X113103509Y-74206100D01*
X112948371Y-74017064D01*
X112768908Y-73851389D01*
X112565721Y-73709504D01*
X112339408Y-73591839D01*
X112141684Y-73515294D01*
X112001279Y-73471845D01*
X111866582Y-73438354D01*
X111730114Y-73413789D01*
X111584397Y-73397119D01*
X111421954Y-73387310D01*
X111235305Y-73383332D01*
X111183767Y-73383128D01*
X110871087Y-73391565D01*
X110561051Y-73418220D01*
X110248428Y-73464050D01*
X109927989Y-73530014D01*
X109594504Y-73617068D01*
X109242745Y-73726171D01*
X109162292Y-73753260D01*
X109064244Y-73786696D01*
X108975522Y-73816923D01*
X108901776Y-73842017D01*
X108848657Y-73860056D01*
X108821815Y-73869117D01*
X108821567Y-73869200D01*
X108825792Y-73865480D01*
X108856583Y-73848773D01*
X108910119Y-73821047D01*
X108982582Y-73784270D01*
X109070150Y-73740410D01*
X109109434Y-73720886D01*
X109549113Y-73515487D01*
X109979810Y-73339692D01*
X110400979Y-73193534D01*
X110812075Y-73077047D01*
X111212551Y-72990264D01*
X111601862Y-72933220D01*
X111979462Y-72905946D01*
X112344805Y-72908478D01*
X112344805Y-72908478D01*
G37*
X112344805Y-72908478D02*
X112697345Y-72940847D01*
X113036537Y-73003089D01*
X113361835Y-73095235D01*
X113672694Y-73217320D01*
X113968566Y-73369378D01*
X114049444Y-73417820D01*
X114277420Y-73574088D01*
X114491824Y-73751203D01*
X114686799Y-73943656D01*
X114856487Y-74145939D01*
X114923891Y-74239967D01*
X114978460Y-74320400D01*
X113184873Y-74320400D01*
X113103509Y-74206100D01*
X112948371Y-74017064D01*
X112768908Y-73851389D01*
X112565721Y-73709504D01*
X112339408Y-73591839D01*
X112141684Y-73515294D01*
X112001279Y-73471845D01*
X111866582Y-73438354D01*
X111730114Y-73413789D01*
X111584397Y-73397119D01*
X111421954Y-73387310D01*
X111235305Y-73383332D01*
X111183767Y-73383128D01*
X110871087Y-73391565D01*
X110561051Y-73418220D01*
X110248428Y-73464050D01*
X109927989Y-73530014D01*
X109594504Y-73617068D01*
X109242745Y-73726171D01*
X109162292Y-73753260D01*
X109064244Y-73786696D01*
X108975522Y-73816923D01*
X108901776Y-73842017D01*
X108848657Y-73860056D01*
X108821815Y-73869117D01*
X108821567Y-73869200D01*
X108825792Y-73865480D01*
X108856583Y-73848773D01*
X108910119Y-73821047D01*
X108982582Y-73784270D01*
X109070150Y-73740410D01*
X109109434Y-73720886D01*
X109549113Y-73515487D01*
X109979810Y-73339692D01*
X110400979Y-73193534D01*
X110812075Y-73077047D01*
X111212551Y-72990264D01*
X111601862Y-72933220D01*
X111979462Y-72905946D01*
X112344805Y-72908478D01*
G36*
X112567904Y-74540680D02*
G01*
X112641257Y-74541566D01*
X112690781Y-74543863D01*
X112721494Y-74548243D01*
X112738415Y-74555378D01*
X112746563Y-74565938D01*
X112750471Y-74578633D01*
X112749086Y-74602249D01*
X112741557Y-74655777D01*
X112728471Y-74735942D01*
X112710416Y-74839465D01*
X112687981Y-74963070D01*
X112661752Y-75103478D01*
X112632318Y-75257413D01*
X112600266Y-75421597D01*
X112589927Y-75473877D01*
X112557073Y-75639859D01*
X112526310Y-75795983D01*
X112498255Y-75939060D01*
X112473526Y-76065903D01*
X112452743Y-76173324D01*
X112436524Y-76258136D01*
X112425486Y-76317151D01*
X112420250Y-76347182D01*
X112419900Y-76350177D01*
X112430999Y-76356323D01*
X112465651Y-76361177D01*
X112525889Y-76364823D01*
X112613744Y-76367342D01*
X112731249Y-76368818D01*
X112880437Y-76369331D01*
X112891960Y-76369334D01*
X113032998Y-76369541D01*
X113143928Y-76370300D01*
X113228504Y-76371814D01*
X113290484Y-76374286D01*
X113333624Y-76377919D01*
X113361678Y-76382917D01*
X113378404Y-76389483D01*
X113386238Y-76396105D01*
X113395771Y-76418196D01*
X113398140Y-76455864D01*
X113392929Y-76513106D01*
X113379722Y-76593917D01*
X113358099Y-76702291D01*
X113350585Y-76737634D01*
X113331494Y-76826534D01*
X112556037Y-76826534D01*
X112365818Y-76826348D01*
X112206953Y-76825745D01*
X112076933Y-76824657D01*
X111973248Y-76823013D01*
X111893387Y-76820744D01*
X111834840Y-76817782D01*
X111795098Y-76814057D01*
X111771650Y-76809501D01*
X111762440Y-76804676D01*
X111760579Y-76789923D01*
X111763444Y-76754655D01*
X111771298Y-76697403D01*
X111784402Y-76616702D01*
X111803021Y-76511083D01*
X111827418Y-76379081D01*
X111857855Y-76219227D01*
X111894595Y-76030056D01*
X111937901Y-75810101D01*
X111967358Y-75661676D01*
X112190417Y-74540533D01*
X112465703Y-74540533D01*
X112567904Y-74540680D01*
X112567904Y-74540680D01*
G37*
X112567904Y-74540680D02*
X112641257Y-74541566D01*
X112690781Y-74543863D01*
X112721494Y-74548243D01*
X112738415Y-74555378D01*
X112746563Y-74565938D01*
X112750471Y-74578633D01*
X112749086Y-74602249D01*
X112741557Y-74655777D01*
X112728471Y-74735942D01*
X112710416Y-74839465D01*
X112687981Y-74963070D01*
X112661752Y-75103478D01*
X112632318Y-75257413D01*
X112600266Y-75421597D01*
X112589927Y-75473877D01*
X112557073Y-75639859D01*
X112526310Y-75795983D01*
X112498255Y-75939060D01*
X112473526Y-76065903D01*
X112452743Y-76173324D01*
X112436524Y-76258136D01*
X112425486Y-76317151D01*
X112420250Y-76347182D01*
X112419900Y-76350177D01*
X112430999Y-76356323D01*
X112465651Y-76361177D01*
X112525889Y-76364823D01*
X112613744Y-76367342D01*
X112731249Y-76368818D01*
X112880437Y-76369331D01*
X112891960Y-76369334D01*
X113032998Y-76369541D01*
X113143928Y-76370300D01*
X113228504Y-76371814D01*
X113290484Y-76374286D01*
X113333624Y-76377919D01*
X113361678Y-76382917D01*
X113378404Y-76389483D01*
X113386238Y-76396105D01*
X113395771Y-76418196D01*
X113398140Y-76455864D01*
X113392929Y-76513106D01*
X113379722Y-76593917D01*
X113358099Y-76702291D01*
X113350585Y-76737634D01*
X113331494Y-76826534D01*
X112556037Y-76826534D01*
X112365818Y-76826348D01*
X112206953Y-76825745D01*
X112076933Y-76824657D01*
X111973248Y-76823013D01*
X111893387Y-76820744D01*
X111834840Y-76817782D01*
X111795098Y-76814057D01*
X111771650Y-76809501D01*
X111762440Y-76804676D01*
X111760579Y-76789923D01*
X111763444Y-76754655D01*
X111771298Y-76697403D01*
X111784402Y-76616702D01*
X111803021Y-76511083D01*
X111827418Y-76379081D01*
X111857855Y-76219227D01*
X111894595Y-76030056D01*
X111937901Y-75810101D01*
X111967358Y-75661676D01*
X112190417Y-74540533D01*
X112465703Y-74540533D01*
X112567904Y-74540680D01*
G36*
X115348903Y-74517764D02*
G01*
X115512510Y-74564344D01*
X115659949Y-74636582D01*
X115787304Y-74733286D01*
X115811798Y-74757273D01*
X115876296Y-74823405D01*
X115727131Y-74956416D01*
X115664428Y-75012270D01*
X115607664Y-75062728D01*
X115563550Y-75101830D01*
X115540526Y-75122113D01*
X115517200Y-75140488D01*
X115498360Y-75143283D01*
X115473529Y-75128113D01*
X115439698Y-75099145D01*
X115386333Y-75059357D01*
X115320529Y-75019606D01*
X115284998Y-75001686D01*
X115234634Y-74980768D01*
X115189486Y-74969024D01*
X115137488Y-74964692D01*
X115066573Y-74966010D01*
X115046866Y-74966901D01*
X114960714Y-74973534D01*
X114893370Y-74986109D01*
X114829871Y-75008061D01*
X114790274Y-75025796D01*
X114651298Y-75109874D01*
X114531690Y-75220677D01*
X114433372Y-75355899D01*
X114358267Y-75513239D01*
X114340361Y-75565000D01*
X114302400Y-75717668D01*
X114286559Y-75863333D01*
X114292392Y-75997676D01*
X114319455Y-76116377D01*
X114367302Y-76215116D01*
X114413009Y-76270125D01*
X114486383Y-76331134D01*
X114560589Y-76370103D01*
X114647282Y-76391863D01*
X114725611Y-76399684D01*
X114879633Y-76392624D01*
X115029535Y-76352591D01*
X115176785Y-76279172D01*
X115195357Y-76267447D01*
X115250729Y-76234569D01*
X115297926Y-76211748D01*
X115327751Y-76203350D01*
X115329902Y-76203552D01*
X115350777Y-76218542D01*
X115386341Y-76255135D01*
X115431333Y-76307569D01*
X115473186Y-76360456D01*
X115588975Y-76512065D01*
X115532671Y-76559834D01*
X115452314Y-76619377D01*
X115351685Y-76681296D01*
X115243111Y-76738789D01*
X115138921Y-76785059D01*
X115096112Y-76800619D01*
X114900631Y-76851699D01*
X114710528Y-76872486D01*
X114517671Y-76863740D01*
X114477821Y-76858481D01*
X114304182Y-76818866D01*
X114146183Y-76754069D01*
X114007168Y-76666351D01*
X113890480Y-76557974D01*
X113799461Y-76431198D01*
X113774008Y-76382309D01*
X113734228Y-76286445D01*
X113708392Y-76192296D01*
X113694906Y-76090088D01*
X113692177Y-75970047D01*
X113694576Y-75895200D01*
X113720766Y-75672720D01*
X113777142Y-75462947D01*
X113861717Y-75268012D01*
X113972504Y-75090049D01*
X114107515Y-74931190D01*
X114264764Y-74793568D01*
X114442262Y-74679314D01*
X114638023Y-74590562D01*
X114850058Y-74529444D01*
X114988855Y-74506360D01*
X115173046Y-74498038D01*
X115348903Y-74517764D01*
X115348903Y-74517764D01*
G37*
X115348903Y-74517764D02*
X115512510Y-74564344D01*
X115659949Y-74636582D01*
X115787304Y-74733286D01*
X115811798Y-74757273D01*
X115876296Y-74823405D01*
X115727131Y-74956416D01*
X115664428Y-75012270D01*
X115607664Y-75062728D01*
X115563550Y-75101830D01*
X115540526Y-75122113D01*
X115517200Y-75140488D01*
X115498360Y-75143283D01*
X115473529Y-75128113D01*
X115439698Y-75099145D01*
X115386333Y-75059357D01*
X115320529Y-75019606D01*
X115284998Y-75001686D01*
X115234634Y-74980768D01*
X115189486Y-74969024D01*
X115137488Y-74964692D01*
X115066573Y-74966010D01*
X115046866Y-74966901D01*
X114960714Y-74973534D01*
X114893370Y-74986109D01*
X114829871Y-75008061D01*
X114790274Y-75025796D01*
X114651298Y-75109874D01*
X114531690Y-75220677D01*
X114433372Y-75355899D01*
X114358267Y-75513239D01*
X114340361Y-75565000D01*
X114302400Y-75717668D01*
X114286559Y-75863333D01*
X114292392Y-75997676D01*
X114319455Y-76116377D01*
X114367302Y-76215116D01*
X114413009Y-76270125D01*
X114486383Y-76331134D01*
X114560589Y-76370103D01*
X114647282Y-76391863D01*
X114725611Y-76399684D01*
X114879633Y-76392624D01*
X115029535Y-76352591D01*
X115176785Y-76279172D01*
X115195357Y-76267447D01*
X115250729Y-76234569D01*
X115297926Y-76211748D01*
X115327751Y-76203350D01*
X115329902Y-76203552D01*
X115350777Y-76218542D01*
X115386341Y-76255135D01*
X115431333Y-76307569D01*
X115473186Y-76360456D01*
X115588975Y-76512065D01*
X115532671Y-76559834D01*
X115452314Y-76619377D01*
X115351685Y-76681296D01*
X115243111Y-76738789D01*
X115138921Y-76785059D01*
X115096112Y-76800619D01*
X114900631Y-76851699D01*
X114710528Y-76872486D01*
X114517671Y-76863740D01*
X114477821Y-76858481D01*
X114304182Y-76818866D01*
X114146183Y-76754069D01*
X114007168Y-76666351D01*
X113890480Y-76557974D01*
X113799461Y-76431198D01*
X113774008Y-76382309D01*
X113734228Y-76286445D01*
X113708392Y-76192296D01*
X113694906Y-76090088D01*
X113692177Y-75970047D01*
X113694576Y-75895200D01*
X113720766Y-75672720D01*
X113777142Y-75462947D01*
X113861717Y-75268012D01*
X113972504Y-75090049D01*
X114107515Y-74931190D01*
X114264764Y-74793568D01*
X114442262Y-74679314D01*
X114638023Y-74590562D01*
X114850058Y-74529444D01*
X114988855Y-74506360D01*
X115173046Y-74498038D01*
X115348903Y-74517764D01*
G36*
X108978689Y-74591333D02*
G01*
X108976374Y-74616107D01*
X108967900Y-74670607D01*
X108953905Y-74751384D01*
X108935030Y-74854987D01*
X108911913Y-74977966D01*
X108885194Y-75116870D01*
X108855512Y-75268250D01*
X108824360Y-75424408D01*
X108786505Y-75611858D01*
X108754302Y-75769304D01*
X108726971Y-75899995D01*
X108703735Y-76007178D01*
X108683815Y-76094100D01*
X108666433Y-76164008D01*
X108650810Y-76220151D01*
X108636169Y-76265777D01*
X108621732Y-76304131D01*
X108606719Y-76338463D01*
X108603841Y-76344581D01*
X108539333Y-76455109D01*
X108454719Y-76563076D01*
X108358359Y-76659443D01*
X108258614Y-76735173D01*
X108223636Y-76755565D01*
X108083704Y-76813901D01*
X107925577Y-76852593D01*
X107759617Y-76870198D01*
X107596188Y-76865278D01*
X107517700Y-76853735D01*
X107365074Y-76809782D01*
X107232398Y-76741233D01*
X107122211Y-76649814D01*
X107037053Y-76537251D01*
X107027739Y-76520761D01*
X107007997Y-76485379D01*
X106995628Y-76458757D01*
X106993862Y-76436994D01*
X107005934Y-76416187D01*
X107035075Y-76392435D01*
X107084518Y-76361836D01*
X107157497Y-76320487D01*
X107224971Y-76282689D01*
X107306443Y-76237702D01*
X107364763Y-76209426D01*
X107406026Y-76197489D01*
X107436324Y-76201519D01*
X107461749Y-76221145D01*
X107488393Y-76255997D01*
X107495391Y-76266210D01*
X107543752Y-76327833D01*
X107593786Y-76366647D01*
X107655149Y-76387315D01*
X107737502Y-76394498D01*
X107761632Y-76394734D01*
X107831148Y-76393471D01*
X107878032Y-76387814D01*
X107913479Y-76374955D01*
X107948687Y-76352088D01*
X107957109Y-76345745D01*
X107982992Y-76324305D01*
X108006071Y-76300157D01*
X108027195Y-76270464D01*
X108047212Y-76232389D01*
X108066970Y-76183098D01*
X108087318Y-76119753D01*
X108109104Y-76039519D01*
X108133176Y-75939559D01*
X108160383Y-75817037D01*
X108191573Y-75669117D01*
X108227594Y-75492964D01*
X108259376Y-75335203D01*
X108417150Y-74549000D01*
X108973967Y-74549000D01*
X108978689Y-74591333D01*
X108978689Y-74591333D01*
G37*
X108978689Y-74591333D02*
X108976374Y-74616107D01*
X108967900Y-74670607D01*
X108953905Y-74751384D01*
X108935030Y-74854987D01*
X108911913Y-74977966D01*
X108885194Y-75116870D01*
X108855512Y-75268250D01*
X108824360Y-75424408D01*
X108786505Y-75611858D01*
X108754302Y-75769304D01*
X108726971Y-75899995D01*
X108703735Y-76007178D01*
X108683815Y-76094100D01*
X108666433Y-76164008D01*
X108650810Y-76220151D01*
X108636169Y-76265777D01*
X108621732Y-76304131D01*
X108606719Y-76338463D01*
X108603841Y-76344581D01*
X108539333Y-76455109D01*
X108454719Y-76563076D01*
X108358359Y-76659443D01*
X108258614Y-76735173D01*
X108223636Y-76755565D01*
X108083704Y-76813901D01*
X107925577Y-76852593D01*
X107759617Y-76870198D01*
X107596188Y-76865278D01*
X107517700Y-76853735D01*
X107365074Y-76809782D01*
X107232398Y-76741233D01*
X107122211Y-76649814D01*
X107037053Y-76537251D01*
X107027739Y-76520761D01*
X107007997Y-76485379D01*
X106995628Y-76458757D01*
X106993862Y-76436994D01*
X107005934Y-76416187D01*
X107035075Y-76392435D01*
X107084518Y-76361836D01*
X107157497Y-76320487D01*
X107224971Y-76282689D01*
X107306443Y-76237702D01*
X107364763Y-76209426D01*
X107406026Y-76197489D01*
X107436324Y-76201519D01*
X107461749Y-76221145D01*
X107488393Y-76255997D01*
X107495391Y-76266210D01*
X107543752Y-76327833D01*
X107593786Y-76366647D01*
X107655149Y-76387315D01*
X107737502Y-76394498D01*
X107761632Y-76394734D01*
X107831148Y-76393471D01*
X107878032Y-76387814D01*
X107913479Y-76374955D01*
X107948687Y-76352088D01*
X107957109Y-76345745D01*
X107982992Y-76324305D01*
X108006071Y-76300157D01*
X108027195Y-76270464D01*
X108047212Y-76232389D01*
X108066970Y-76183098D01*
X108087318Y-76119753D01*
X108109104Y-76039519D01*
X108133176Y-75939559D01*
X108160383Y-75817037D01*
X108191573Y-75669117D01*
X108227594Y-75492964D01*
X108259376Y-75335203D01*
X108417150Y-74549000D01*
X108973967Y-74549000D01*
X108978689Y-74591333D01*
G36*
X110678280Y-74821381D02*
G01*
X110771910Y-74823234D01*
X110844547Y-74827254D01*
X110902618Y-74833892D01*
X110952549Y-74843596D01*
X110980567Y-74850879D01*
X111152810Y-74912618D01*
X111296960Y-74993182D01*
X111413212Y-75092770D01*
X111501757Y-75211582D01*
X111562791Y-75349819D01*
X111593510Y-75484996D01*
X111599742Y-75642485D01*
X111575174Y-75799343D01*
X111522775Y-75952377D01*
X111445516Y-76098394D01*
X111346366Y-76234203D01*
X111228295Y-76356611D01*
X111094272Y-76462426D01*
X110947268Y-76548455D01*
X110790251Y-76611505D01*
X110626192Y-76648386D01*
X110503303Y-76656950D01*
X110412166Y-76652929D01*
X110347553Y-76638888D01*
X110303021Y-76612568D01*
X110274980Y-76576850D01*
X110248126Y-76530060D01*
X110132697Y-76587356D01*
X110007240Y-76635177D01*
X109881309Y-76656576D01*
X109759822Y-76652494D01*
X109647693Y-76623867D01*
X109549839Y-76571635D01*
X109471176Y-76496736D01*
X109443267Y-76455747D01*
X109417593Y-76405268D01*
X109403920Y-76356054D01*
X109398974Y-76293710D01*
X109398713Y-76259825D01*
X109406337Y-76187497D01*
X109763939Y-76187497D01*
X109767202Y-76276253D01*
X109786024Y-76334030D01*
X109829107Y-76385233D01*
X109891590Y-76422143D01*
X109957260Y-76436404D01*
X109992883Y-76432063D01*
X110046288Y-76420216D01*
X110082887Y-76410161D01*
X110169908Y-76368812D01*
X110256007Y-76300057D01*
X110336852Y-76210185D01*
X110408109Y-76105486D01*
X110465446Y-75992249D01*
X110504531Y-75876762D01*
X110520597Y-75774796D01*
X110523262Y-75712695D01*
X110520180Y-75672885D01*
X110507800Y-75643866D01*
X110482568Y-75614133D01*
X110465737Y-75597117D01*
X110430813Y-75564007D01*
X110402109Y-75546284D01*
X110367430Y-75540057D01*
X110314580Y-75541437D01*
X110294969Y-75542650D01*
X110228453Y-75549742D01*
X110176478Y-75564697D01*
X110123313Y-75593128D01*
X110087799Y-75616589D01*
X110005633Y-75686122D01*
X109931358Y-75773952D01*
X109867511Y-75874042D01*
X109816633Y-75980354D01*
X109781262Y-76086852D01*
X109763939Y-76187497D01*
X109406337Y-76187497D01*
X109414944Y-76105859D01*
X109462832Y-75955904D01*
X109543023Y-75808597D01*
X109656166Y-75662579D01*
X109711025Y-75603994D01*
X109784689Y-75531722D01*
X109846442Y-75478660D01*
X109905684Y-75437699D01*
X109971818Y-75401730D01*
X109990364Y-75392763D01*
X110058975Y-75361731D01*
X110114537Y-75342088D01*
X110170181Y-75330739D01*
X110239042Y-75324583D01*
X110289461Y-75322202D01*
X110370739Y-75320026D01*
X110428208Y-75322076D01*
X110471794Y-75329594D01*
X110511425Y-75343822D01*
X110529555Y-75352231D01*
X110580993Y-75383197D01*
X110622630Y-75418660D01*
X110633838Y-75432527D01*
X110662447Y-75476190D01*
X110699239Y-75410529D01*
X110736032Y-75344867D01*
X110918035Y-75340056D01*
X111100037Y-75335245D01*
X111076659Y-75390856D01*
X111063975Y-75420405D01*
X111039657Y-75476490D01*
X111005659Y-75554626D01*
X110963935Y-75650328D01*
X110916440Y-75759110D01*
X110865128Y-75876486D01*
X110854279Y-75901284D01*
X110796782Y-76033183D01*
X110751908Y-76137607D01*
X110718423Y-76217983D01*
X110695091Y-76277739D01*
X110680675Y-76320299D01*
X110673941Y-76349092D01*
X110673652Y-76367543D01*
X110678573Y-76379079D01*
X110680987Y-76381811D01*
X110721009Y-76399358D01*
X110777122Y-76392970D01*
X110845112Y-76365814D01*
X110920764Y-76321059D01*
X110999862Y-76261872D01*
X111078191Y-76191421D01*
X111151537Y-76112874D01*
X111215683Y-76029399D01*
X111266416Y-75944164D01*
X111268272Y-75940429D01*
X111325034Y-75795217D01*
X111349992Y-75657865D01*
X111344628Y-75529984D01*
X111310423Y-75413188D01*
X111248859Y-75309088D01*
X111161418Y-75219297D01*
X111049580Y-75145427D01*
X110914829Y-75089090D01*
X110758645Y-75051899D01*
X110582510Y-75035465D01*
X110438700Y-75037703D01*
X110213969Y-75064473D01*
X110005405Y-75116938D01*
X109815433Y-75194092D01*
X109646476Y-75294931D01*
X109500957Y-75418448D01*
X109487630Y-75432174D01*
X109381676Y-75559455D01*
X109291037Y-75700633D01*
X109218047Y-75849691D01*
X109165043Y-76000614D01*
X109134359Y-76147386D01*
X109128331Y-76283993D01*
X109134495Y-76341856D01*
X109172455Y-76486763D01*
X109236449Y-76612101D01*
X109327315Y-76718692D01*
X109445892Y-76807358D01*
X109593016Y-76878919D01*
X109727500Y-76923218D01*
X109804731Y-76937966D01*
X109907646Y-76948240D01*
X110028372Y-76954119D01*
X110159035Y-76955684D01*
X110291759Y-76953013D01*
X110418671Y-76946186D01*
X110531897Y-76935284D01*
X110623561Y-76920384D01*
X110650367Y-76913894D01*
X110782527Y-76870740D01*
X110912790Y-76815612D01*
X111029932Y-76753723D01*
X111109798Y-76700465D01*
X111150507Y-76670822D01*
X111184226Y-76652954D01*
X111221835Y-76643889D01*
X111274214Y-76640655D01*
X111330135Y-76640267D01*
X111394570Y-76641852D01*
X111443642Y-76646077D01*
X111469511Y-76652146D01*
X111471634Y-76654623D01*
X111459506Y-76674259D01*
X111427260Y-76709459D01*
X111381099Y-76754476D01*
X111327226Y-76803565D01*
X111271844Y-76850978D01*
X111221157Y-76890971D01*
X111200700Y-76905583D01*
X111021802Y-77008680D01*
X110819944Y-77091098D01*
X110600505Y-77150698D01*
X110567565Y-77157315D01*
X110470019Y-77171544D01*
X110349766Y-77182261D01*
X110217693Y-77189106D01*
X110084689Y-77191717D01*
X109961641Y-77189733D01*
X109859438Y-77182794D01*
X109846033Y-77181235D01*
X109626796Y-77142592D01*
X109435582Y-77084931D01*
X109272390Y-77008253D01*
X109137219Y-76912557D01*
X109030068Y-76797840D01*
X108950935Y-76664103D01*
X108899819Y-76511343D01*
X108876719Y-76339561D01*
X108875253Y-76274823D01*
X108892793Y-76082209D01*
X108943757Y-75887062D01*
X108999734Y-75748332D01*
X109056972Y-75633304D01*
X109116219Y-75535405D01*
X109185398Y-75443178D01*
X109272433Y-75345161D01*
X109294601Y-75321852D01*
X109460955Y-75169709D01*
X109642484Y-75045185D01*
X109842910Y-74946121D01*
X110065952Y-74870359D01*
X110079615Y-74866647D01*
X110142572Y-74850580D01*
X110198598Y-74838885D01*
X110255204Y-74830847D01*
X110319901Y-74825752D01*
X110400198Y-74822887D01*
X110503608Y-74821538D01*
X110557233Y-74821245D01*
X110678280Y-74821381D01*
X110678280Y-74821381D01*
G37*
X110678280Y-74821381D02*
X110771910Y-74823234D01*
X110844547Y-74827254D01*
X110902618Y-74833892D01*
X110952549Y-74843596D01*
X110980567Y-74850879D01*
X111152810Y-74912618D01*
X111296960Y-74993182D01*
X111413212Y-75092770D01*
X111501757Y-75211582D01*
X111562791Y-75349819D01*
X111593510Y-75484996D01*
X111599742Y-75642485D01*
X111575174Y-75799343D01*
X111522775Y-75952377D01*
X111445516Y-76098394D01*
X111346366Y-76234203D01*
X111228295Y-76356611D01*
X111094272Y-76462426D01*
X110947268Y-76548455D01*
X110790251Y-76611505D01*
X110626192Y-76648386D01*
X110503303Y-76656950D01*
X110412166Y-76652929D01*
X110347553Y-76638888D01*
X110303021Y-76612568D01*
X110274980Y-76576850D01*
X110248126Y-76530060D01*
X110132697Y-76587356D01*
X110007240Y-76635177D01*
X109881309Y-76656576D01*
X109759822Y-76652494D01*
X109647693Y-76623867D01*
X109549839Y-76571635D01*
X109471176Y-76496736D01*
X109443267Y-76455747D01*
X109417593Y-76405268D01*
X109403920Y-76356054D01*
X109398974Y-76293710D01*
X109398713Y-76259825D01*
X109406337Y-76187497D01*
X109763939Y-76187497D01*
X109767202Y-76276253D01*
X109786024Y-76334030D01*
X109829107Y-76385233D01*
X109891590Y-76422143D01*
X109957260Y-76436404D01*
X109992883Y-76432063D01*
X110046288Y-76420216D01*
X110082887Y-76410161D01*
X110169908Y-76368812D01*
X110256007Y-76300057D01*
X110336852Y-76210185D01*
X110408109Y-76105486D01*
X110465446Y-75992249D01*
X110504531Y-75876762D01*
X110520597Y-75774796D01*
X110523262Y-75712695D01*
X110520180Y-75672885D01*
X110507800Y-75643866D01*
X110482568Y-75614133D01*
X110465737Y-75597117D01*
X110430813Y-75564007D01*
X110402109Y-75546284D01*
X110367430Y-75540057D01*
X110314580Y-75541437D01*
X110294969Y-75542650D01*
X110228453Y-75549742D01*
X110176478Y-75564697D01*
X110123313Y-75593128D01*
X110087799Y-75616589D01*
X110005633Y-75686122D01*
X109931358Y-75773952D01*
X109867511Y-75874042D01*
X109816633Y-75980354D01*
X109781262Y-76086852D01*
X109763939Y-76187497D01*
X109406337Y-76187497D01*
X109414944Y-76105859D01*
X109462832Y-75955904D01*
X109543023Y-75808597D01*
X109656166Y-75662579D01*
X109711025Y-75603994D01*
X109784689Y-75531722D01*
X109846442Y-75478660D01*
X109905684Y-75437699D01*
X109971818Y-75401730D01*
X109990364Y-75392763D01*
X110058975Y-75361731D01*
X110114537Y-75342088D01*
X110170181Y-75330739D01*
X110239042Y-75324583D01*
X110289461Y-75322202D01*
X110370739Y-75320026D01*
X110428208Y-75322076D01*
X110471794Y-75329594D01*
X110511425Y-75343822D01*
X110529555Y-75352231D01*
X110580993Y-75383197D01*
X110622630Y-75418660D01*
X110633838Y-75432527D01*
X110662447Y-75476190D01*
X110699239Y-75410529D01*
X110736032Y-75344867D01*
X110918035Y-75340056D01*
X111100037Y-75335245D01*
X111076659Y-75390856D01*
X111063975Y-75420405D01*
X111039657Y-75476490D01*
X111005659Y-75554626D01*
X110963935Y-75650328D01*
X110916440Y-75759110D01*
X110865128Y-75876486D01*
X110854279Y-75901284D01*
X110796782Y-76033183D01*
X110751908Y-76137607D01*
X110718423Y-76217983D01*
X110695091Y-76277739D01*
X110680675Y-76320299D01*
X110673941Y-76349092D01*
X110673652Y-76367543D01*
X110678573Y-76379079D01*
X110680987Y-76381811D01*
X110721009Y-76399358D01*
X110777122Y-76392970D01*
X110845112Y-76365814D01*
X110920764Y-76321059D01*
X110999862Y-76261872D01*
X111078191Y-76191421D01*
X111151537Y-76112874D01*
X111215683Y-76029399D01*
X111266416Y-75944164D01*
X111268272Y-75940429D01*
X111325034Y-75795217D01*
X111349992Y-75657865D01*
X111344628Y-75529984D01*
X111310423Y-75413188D01*
X111248859Y-75309088D01*
X111161418Y-75219297D01*
X111049580Y-75145427D01*
X110914829Y-75089090D01*
X110758645Y-75051899D01*
X110582510Y-75035465D01*
X110438700Y-75037703D01*
X110213969Y-75064473D01*
X110005405Y-75116938D01*
X109815433Y-75194092D01*
X109646476Y-75294931D01*
X109500957Y-75418448D01*
X109487630Y-75432174D01*
X109381676Y-75559455D01*
X109291037Y-75700633D01*
X109218047Y-75849691D01*
X109165043Y-76000614D01*
X109134359Y-76147386D01*
X109128331Y-76283993D01*
X109134495Y-76341856D01*
X109172455Y-76486763D01*
X109236449Y-76612101D01*
X109327315Y-76718692D01*
X109445892Y-76807358D01*
X109593016Y-76878919D01*
X109727500Y-76923218D01*
X109804731Y-76937966D01*
X109907646Y-76948240D01*
X110028372Y-76954119D01*
X110159035Y-76955684D01*
X110291759Y-76953013D01*
X110418671Y-76946186D01*
X110531897Y-76935284D01*
X110623561Y-76920384D01*
X110650367Y-76913894D01*
X110782527Y-76870740D01*
X110912790Y-76815612D01*
X111029932Y-76753723D01*
X111109798Y-76700465D01*
X111150507Y-76670822D01*
X111184226Y-76652954D01*
X111221835Y-76643889D01*
X111274214Y-76640655D01*
X111330135Y-76640267D01*
X111394570Y-76641852D01*
X111443642Y-76646077D01*
X111469511Y-76652146D01*
X111471634Y-76654623D01*
X111459506Y-76674259D01*
X111427260Y-76709459D01*
X111381099Y-76754476D01*
X111327226Y-76803565D01*
X111271844Y-76850978D01*
X111221157Y-76890971D01*
X111200700Y-76905583D01*
X111021802Y-77008680D01*
X110819944Y-77091098D01*
X110600505Y-77150698D01*
X110567565Y-77157315D01*
X110470019Y-77171544D01*
X110349766Y-77182261D01*
X110217693Y-77189106D01*
X110084689Y-77191717D01*
X109961641Y-77189733D01*
X109859438Y-77182794D01*
X109846033Y-77181235D01*
X109626796Y-77142592D01*
X109435582Y-77084931D01*
X109272390Y-77008253D01*
X109137219Y-76912557D01*
X109030068Y-76797840D01*
X108950935Y-76664103D01*
X108899819Y-76511343D01*
X108876719Y-76339561D01*
X108875253Y-76274823D01*
X108892793Y-76082209D01*
X108943757Y-75887062D01*
X108999734Y-75748332D01*
X109056972Y-75633304D01*
X109116219Y-75535405D01*
X109185398Y-75443178D01*
X109272433Y-75345161D01*
X109294601Y-75321852D01*
X109460955Y-75169709D01*
X109642484Y-75045185D01*
X109842910Y-74946121D01*
X110065952Y-74870359D01*
X110079615Y-74866647D01*
X110142572Y-74850580D01*
X110198598Y-74838885D01*
X110255204Y-74830847D01*
X110319901Y-74825752D01*
X110400198Y-74822887D01*
X110503608Y-74821538D01*
X110557233Y-74821245D01*
X110678280Y-74821381D01*
G36*
X114772493Y-77093234D02*
G01*
X114572745Y-77396688D01*
X114343427Y-77686309D01*
X114086539Y-77960516D01*
X113804083Y-78217730D01*
X113498059Y-78456373D01*
X113170470Y-78674864D01*
X112823315Y-78871625D01*
X112458597Y-79045077D01*
X112137951Y-79172394D01*
X111859952Y-79265781D01*
X111571999Y-79348668D01*
X111279212Y-79420195D01*
X110986709Y-79479501D01*
X110699612Y-79525722D01*
X110423037Y-79557998D01*
X110162106Y-79575468D01*
X109921937Y-79577269D01*
X109778300Y-79569539D01*
X109464159Y-79535447D01*
X109171213Y-79486025D01*
X108889547Y-79419325D01*
X108655761Y-79348964D01*
X108357373Y-79236085D01*
X108084115Y-79102378D01*
X107836571Y-78948306D01*
X107615324Y-78774334D01*
X107420957Y-78580924D01*
X107254056Y-78368541D01*
X107115202Y-78137649D01*
X107103811Y-78115403D01*
X107059562Y-78016669D01*
X107013783Y-77895443D01*
X106969991Y-77762719D01*
X106931698Y-77629495D01*
X106902420Y-77506767D01*
X106892517Y-77454316D01*
X106877430Y-77359788D01*
X106869613Y-77297041D01*
X106869480Y-77264687D01*
X106877447Y-77261341D01*
X106893929Y-77285617D01*
X106919344Y-77336129D01*
X106924615Y-77347295D01*
X107022689Y-77526871D01*
X107147137Y-77707772D01*
X107291635Y-77882515D01*
X107449856Y-78043619D01*
X107615472Y-78183600D01*
X107658575Y-78215336D01*
X107889769Y-78360077D01*
X108141162Y-78478793D01*
X108413105Y-78571569D01*
X108705952Y-78638487D01*
X109020054Y-78679634D01*
X109355764Y-78695092D01*
X109643007Y-78688877D01*
X110040473Y-78656420D01*
X110423287Y-78599469D01*
X110790015Y-78518699D01*
X111139220Y-78414786D01*
X111469468Y-78288405D01*
X111779323Y-78140231D01*
X112067350Y-77970938D01*
X112332113Y-77781203D01*
X112572178Y-77571700D01*
X112786108Y-77343104D01*
X112945439Y-77135567D01*
X113019234Y-77029734D01*
X114810262Y-77029734D01*
X114772493Y-77093234D01*
X114772493Y-77093234D01*
G37*
X114772493Y-77093234D02*
X114572745Y-77396688D01*
X114343427Y-77686309D01*
X114086539Y-77960516D01*
X113804083Y-78217730D01*
X113498059Y-78456373D01*
X113170470Y-78674864D01*
X112823315Y-78871625D01*
X112458597Y-79045077D01*
X112137951Y-79172394D01*
X111859952Y-79265781D01*
X111571999Y-79348668D01*
X111279212Y-79420195D01*
X110986709Y-79479501D01*
X110699612Y-79525722D01*
X110423037Y-79557998D01*
X110162106Y-79575468D01*
X109921937Y-79577269D01*
X109778300Y-79569539D01*
X109464159Y-79535447D01*
X109171213Y-79486025D01*
X108889547Y-79419325D01*
X108655761Y-79348964D01*
X108357373Y-79236085D01*
X108084115Y-79102378D01*
X107836571Y-78948306D01*
X107615324Y-78774334D01*
X107420957Y-78580924D01*
X107254056Y-78368541D01*
X107115202Y-78137649D01*
X107103811Y-78115403D01*
X107059562Y-78016669D01*
X107013783Y-77895443D01*
X106969991Y-77762719D01*
X106931698Y-77629495D01*
X106902420Y-77506767D01*
X106892517Y-77454316D01*
X106877430Y-77359788D01*
X106869613Y-77297041D01*
X106869480Y-77264687D01*
X106877447Y-77261341D01*
X106893929Y-77285617D01*
X106919344Y-77336129D01*
X106924615Y-77347295D01*
X107022689Y-77526871D01*
X107147137Y-77707772D01*
X107291635Y-77882515D01*
X107449856Y-78043619D01*
X107615472Y-78183600D01*
X107658575Y-78215336D01*
X107889769Y-78360077D01*
X108141162Y-78478793D01*
X108413105Y-78571569D01*
X108705952Y-78638487D01*
X109020054Y-78679634D01*
X109355764Y-78695092D01*
X109643007Y-78688877D01*
X110040473Y-78656420D01*
X110423287Y-78599469D01*
X110790015Y-78518699D01*
X111139220Y-78414786D01*
X111469468Y-78288405D01*
X111779323Y-78140231D01*
X112067350Y-77970938D01*
X112332113Y-77781203D01*
X112572178Y-77571700D01*
X112786108Y-77343104D01*
X112945439Y-77135567D01*
X113019234Y-77029734D01*
X114810262Y-77029734D01*
X114772493Y-77093234D01*
G36*
X113131603Y-101049958D02*
G01*
X113183119Y-101091880D01*
X113208743Y-101135176D01*
X113223485Y-101206693D01*
X113210221Y-101271258D01*
X113174536Y-101323631D01*
X113122010Y-101358576D01*
X113058227Y-101370854D01*
X112988768Y-101355227D01*
X112979120Y-101350622D01*
X112921754Y-101303662D01*
X112896789Y-101258152D01*
X112883323Y-101213716D01*
X112885247Y-101178441D01*
X112903743Y-101133709D01*
X112904836Y-101131478D01*
X112948912Y-101073526D01*
X113006639Y-101040685D01*
X113070156Y-101032861D01*
X113131603Y-101049958D01*
X113131603Y-101049958D01*
G37*
X113131603Y-101049958D02*
X113183119Y-101091880D01*
X113208743Y-101135176D01*
X113223485Y-101206693D01*
X113210221Y-101271258D01*
X113174536Y-101323631D01*
X113122010Y-101358576D01*
X113058227Y-101370854D01*
X112988768Y-101355227D01*
X112979120Y-101350622D01*
X112921754Y-101303662D01*
X112896789Y-101258152D01*
X112883323Y-101213716D01*
X112885247Y-101178441D01*
X112903743Y-101133709D01*
X112904836Y-101131478D01*
X112948912Y-101073526D01*
X113006639Y-101040685D01*
X113070156Y-101032861D01*
X113131603Y-101049958D01*
G36*
X109541736Y-101049958D02*
G01*
X109593252Y-101091880D01*
X109618876Y-101135176D01*
X109633618Y-101206693D01*
X109620355Y-101271258D01*
X109584669Y-101323631D01*
X109532143Y-101358576D01*
X109468360Y-101370854D01*
X109398902Y-101355227D01*
X109389253Y-101350622D01*
X109331888Y-101303662D01*
X109306922Y-101258152D01*
X109293457Y-101213716D01*
X109295380Y-101178441D01*
X109313877Y-101133709D01*
X109314969Y-101131478D01*
X109359045Y-101073526D01*
X109416772Y-101040685D01*
X109480290Y-101032861D01*
X109541736Y-101049958D01*
X109541736Y-101049958D01*
G37*
X109541736Y-101049958D02*
X109593252Y-101091880D01*
X109618876Y-101135176D01*
X109633618Y-101206693D01*
X109620355Y-101271258D01*
X109584669Y-101323631D01*
X109532143Y-101358576D01*
X109468360Y-101370854D01*
X109398902Y-101355227D01*
X109389253Y-101350622D01*
X109331888Y-101303662D01*
X109306922Y-101258152D01*
X109293457Y-101213716D01*
X109295380Y-101178441D01*
X109313877Y-101133709D01*
X109314969Y-101131478D01*
X109359045Y-101073526D01*
X109416772Y-101040685D01*
X109480290Y-101032861D01*
X109541736Y-101049958D01*
G36*
X107456509Y-102035314D02*
G01*
X107498503Y-102059783D01*
X107547439Y-102102552D01*
X107607111Y-102166143D01*
X107681311Y-102253082D01*
X107725673Y-102306860D01*
X107792965Y-102388902D01*
X107855702Y-102465241D01*
X107909616Y-102530697D01*
X107950439Y-102580086D01*
X107973315Y-102607533D01*
X108016206Y-102658333D01*
X108016746Y-102421266D01*
X108018787Y-102302853D01*
X108025330Y-102213341D01*
X108037920Y-102147892D01*
X108058102Y-102101670D01*
X108087421Y-102069837D01*
X108127424Y-102047557D01*
X108137406Y-102043609D01*
X108184100Y-102030198D01*
X108223583Y-102033336D01*
X108260782Y-102046813D01*
X108289261Y-102060236D01*
X108312294Y-102076634D01*
X108330572Y-102099593D01*
X108344784Y-102132702D01*
X108355619Y-102179549D01*
X108363767Y-102243721D01*
X108369918Y-102328807D01*
X108374760Y-102438393D01*
X108378984Y-102576069D01*
X108381549Y-102675266D01*
X108385189Y-102833543D01*
X108387009Y-102961551D01*
X108386435Y-103062867D01*
X108382891Y-103141066D01*
X108375801Y-103199723D01*
X108364590Y-103242416D01*
X108348684Y-103272718D01*
X108327506Y-103294205D01*
X108300482Y-103310455D01*
X108277716Y-103320653D01*
X108234216Y-103335935D01*
X108199023Y-103336873D01*
X108154115Y-103323367D01*
X108144977Y-103319917D01*
X108123445Y-103310460D01*
X108101527Y-103297218D01*
X108076777Y-103277502D01*
X108046748Y-103248624D01*
X108008994Y-103207896D01*
X107961069Y-103152628D01*
X107900526Y-103080133D01*
X107824918Y-102987721D01*
X107731801Y-102872704D01*
X107683034Y-102812236D01*
X107602366Y-102712139D01*
X107593900Y-102964636D01*
X107589166Y-103076833D01*
X107582494Y-103160325D01*
X107572275Y-103220273D01*
X107556899Y-103261838D01*
X107534756Y-103290180D01*
X107504236Y-103310460D01*
X107483014Y-103320166D01*
X107438998Y-103337309D01*
X107408790Y-103341378D01*
X107375570Y-103332185D01*
X107343499Y-103318621D01*
X107316784Y-103305201D01*
X107295156Y-103288169D01*
X107277963Y-103263946D01*
X107264555Y-103228952D01*
X107254281Y-103179610D01*
X107246490Y-103112340D01*
X107240531Y-103023564D01*
X107235754Y-102909703D01*
X107231508Y-102767178D01*
X107229584Y-102692200D01*
X107225940Y-102533947D01*
X107224112Y-102405960D01*
X107224678Y-102304661D01*
X107228220Y-102226472D01*
X107235316Y-102167815D01*
X107246547Y-102125113D01*
X107262493Y-102094786D01*
X107283733Y-102073257D01*
X107310848Y-102056949D01*
X107334243Y-102046468D01*
X107378173Y-102031180D01*
X107417664Y-102026621D01*
X107456509Y-102035314D01*
X107456509Y-102035314D01*
G37*
X107456509Y-102035314D02*
X107498503Y-102059783D01*
X107547439Y-102102552D01*
X107607111Y-102166143D01*
X107681311Y-102253082D01*
X107725673Y-102306860D01*
X107792965Y-102388902D01*
X107855702Y-102465241D01*
X107909616Y-102530697D01*
X107950439Y-102580086D01*
X107973315Y-102607533D01*
X108016206Y-102658333D01*
X108016746Y-102421266D01*
X108018787Y-102302853D01*
X108025330Y-102213341D01*
X108037920Y-102147892D01*
X108058102Y-102101670D01*
X108087421Y-102069837D01*
X108127424Y-102047557D01*
X108137406Y-102043609D01*
X108184100Y-102030198D01*
X108223583Y-102033336D01*
X108260782Y-102046813D01*
X108289261Y-102060236D01*
X108312294Y-102076634D01*
X108330572Y-102099593D01*
X108344784Y-102132702D01*
X108355619Y-102179549D01*
X108363767Y-102243721D01*
X108369918Y-102328807D01*
X108374760Y-102438393D01*
X108378984Y-102576069D01*
X108381549Y-102675266D01*
X108385189Y-102833543D01*
X108387009Y-102961551D01*
X108386435Y-103062867D01*
X108382891Y-103141066D01*
X108375801Y-103199723D01*
X108364590Y-103242416D01*
X108348684Y-103272718D01*
X108327506Y-103294205D01*
X108300482Y-103310455D01*
X108277716Y-103320653D01*
X108234216Y-103335935D01*
X108199023Y-103336873D01*
X108154115Y-103323367D01*
X108144977Y-103319917D01*
X108123445Y-103310460D01*
X108101527Y-103297218D01*
X108076777Y-103277502D01*
X108046748Y-103248624D01*
X108008994Y-103207896D01*
X107961069Y-103152628D01*
X107900526Y-103080133D01*
X107824918Y-102987721D01*
X107731801Y-102872704D01*
X107683034Y-102812236D01*
X107602366Y-102712139D01*
X107593900Y-102964636D01*
X107589166Y-103076833D01*
X107582494Y-103160325D01*
X107572275Y-103220273D01*
X107556899Y-103261838D01*
X107534756Y-103290180D01*
X107504236Y-103310460D01*
X107483014Y-103320166D01*
X107438998Y-103337309D01*
X107408790Y-103341378D01*
X107375570Y-103332185D01*
X107343499Y-103318621D01*
X107316784Y-103305201D01*
X107295156Y-103288169D01*
X107277963Y-103263946D01*
X107264555Y-103228952D01*
X107254281Y-103179610D01*
X107246490Y-103112340D01*
X107240531Y-103023564D01*
X107235754Y-102909703D01*
X107231508Y-102767178D01*
X107229584Y-102692200D01*
X107225940Y-102533947D01*
X107224112Y-102405960D01*
X107224678Y-102304661D01*
X107228220Y-102226472D01*
X107235316Y-102167815D01*
X107246547Y-102125113D01*
X107262493Y-102094786D01*
X107283733Y-102073257D01*
X107310848Y-102056949D01*
X107334243Y-102046468D01*
X107378173Y-102031180D01*
X107417664Y-102026621D01*
X107456509Y-102035314D01*
G36*
X106493233Y-102007899D02*
G01*
X106587091Y-102009809D01*
X106658318Y-102015003D01*
X106718109Y-102025100D01*
X106777659Y-102041719D01*
X106814966Y-102054439D01*
X106879221Y-102078259D01*
X106920595Y-102098647D01*
X106948328Y-102122910D01*
X106971659Y-102158353D01*
X106989774Y-102192666D01*
X107011802Y-102238136D01*
X107025405Y-102276936D01*
X107032197Y-102319165D01*
X107033797Y-102374920D01*
X107031821Y-102454299D01*
X107031792Y-102455133D01*
X107026640Y-102547532D01*
X107017491Y-102615391D01*
X107002752Y-102667950D01*
X106990176Y-102696770D01*
X106954348Y-102769074D01*
X107035924Y-102879583D01*
X107080904Y-102943944D01*
X107122716Y-103009607D01*
X107152830Y-103063125D01*
X107154451Y-103066422D01*
X107175925Y-103115265D01*
X107182250Y-103149948D01*
X107174915Y-103185807D01*
X107167957Y-103205343D01*
X107128975Y-103267055D01*
X107071281Y-103306091D01*
X107003239Y-103318258D01*
X106958734Y-103310212D01*
X106911228Y-103286938D01*
X106875523Y-103256657D01*
X106873416Y-103253832D01*
X106845800Y-103214760D01*
X106804607Y-103156926D01*
X106756069Y-103089039D01*
X106706420Y-103019803D01*
X106661893Y-102957927D01*
X106632252Y-102916966D01*
X106595986Y-102875029D01*
X106560828Y-102856551D01*
X106531333Y-102853466D01*
X106476299Y-102853066D01*
X106476299Y-103014477D01*
X106472735Y-103122767D01*
X106460856Y-103202806D01*
X106438885Y-103259572D01*
X106405042Y-103298041D01*
X106367386Y-103319342D01*
X106322393Y-103336949D01*
X106291861Y-103341396D01*
X106259010Y-103332598D01*
X106225899Y-103318621D01*
X106197879Y-103304711D01*
X106175314Y-103287495D01*
X106157618Y-103263409D01*
X106144203Y-103228891D01*
X106134482Y-103180378D01*
X106127869Y-103114307D01*
X106123777Y-103027116D01*
X106121620Y-102915242D01*
X106120810Y-102775122D01*
X106120726Y-102680043D01*
X106120925Y-102534733D01*
X106121651Y-102419261D01*
X106122586Y-102362000D01*
X106476299Y-102362000D01*
X106476299Y-102497466D01*
X106679500Y-102497466D01*
X106679500Y-102362000D01*
X106476299Y-102362000D01*
X106122586Y-102362000D01*
X106123116Y-102329601D01*
X106125537Y-102261727D01*
X106129128Y-102211612D01*
X106134105Y-102175230D01*
X106140681Y-102148553D01*
X106149073Y-102127557D01*
X106150359Y-102124933D01*
X106180182Y-102078593D01*
X106219716Y-102045586D01*
X106274427Y-102024044D01*
X106349783Y-102012103D01*
X106451250Y-102007895D01*
X106493233Y-102007899D01*
X106493233Y-102007899D01*
G37*
X106493233Y-102007899D02*
X106587091Y-102009809D01*
X106658318Y-102015003D01*
X106718109Y-102025100D01*
X106777659Y-102041719D01*
X106814966Y-102054439D01*
X106879221Y-102078259D01*
X106920595Y-102098647D01*
X106948328Y-102122910D01*
X106971659Y-102158353D01*
X106989774Y-102192666D01*
X107011802Y-102238136D01*
X107025405Y-102276936D01*
X107032197Y-102319165D01*
X107033797Y-102374920D01*
X107031821Y-102454299D01*
X107031792Y-102455133D01*
X107026640Y-102547532D01*
X107017491Y-102615391D01*
X107002752Y-102667950D01*
X106990176Y-102696770D01*
X106954348Y-102769074D01*
X107035924Y-102879583D01*
X107080904Y-102943944D01*
X107122716Y-103009607D01*
X107152830Y-103063125D01*
X107154451Y-103066422D01*
X107175925Y-103115265D01*
X107182250Y-103149948D01*
X107174915Y-103185807D01*
X107167957Y-103205343D01*
X107128975Y-103267055D01*
X107071281Y-103306091D01*
X107003239Y-103318258D01*
X106958734Y-103310212D01*
X106911228Y-103286938D01*
X106875523Y-103256657D01*
X106873416Y-103253832D01*
X106845800Y-103214760D01*
X106804607Y-103156926D01*
X106756069Y-103089039D01*
X106706420Y-103019803D01*
X106661893Y-102957927D01*
X106632252Y-102916966D01*
X106595986Y-102875029D01*
X106560828Y-102856551D01*
X106531333Y-102853466D01*
X106476299Y-102853066D01*
X106476299Y-103014477D01*
X106472735Y-103122767D01*
X106460856Y-103202806D01*
X106438885Y-103259572D01*
X106405042Y-103298041D01*
X106367386Y-103319342D01*
X106322393Y-103336949D01*
X106291861Y-103341396D01*
X106259010Y-103332598D01*
X106225899Y-103318621D01*
X106197879Y-103304711D01*
X106175314Y-103287495D01*
X106157618Y-103263409D01*
X106144203Y-103228891D01*
X106134482Y-103180378D01*
X106127869Y-103114307D01*
X106123777Y-103027116D01*
X106121620Y-102915242D01*
X106120810Y-102775122D01*
X106120726Y-102680043D01*
X106120925Y-102534733D01*
X106121651Y-102419261D01*
X106122586Y-102362000D01*
X106476299Y-102362000D01*
X106476299Y-102497466D01*
X106679500Y-102497466D01*
X106679500Y-102362000D01*
X106476299Y-102362000D01*
X106122586Y-102362000D01*
X106123116Y-102329601D01*
X106125537Y-102261727D01*
X106129128Y-102211612D01*
X106134105Y-102175230D01*
X106140681Y-102148553D01*
X106149073Y-102127557D01*
X106150359Y-102124933D01*
X106180182Y-102078593D01*
X106219716Y-102045586D01*
X106274427Y-102024044D01*
X106349783Y-102012103D01*
X106451250Y-102007895D01*
X106493233Y-102007899D01*
G36*
X111468594Y-94026614D02*
G01*
X111619801Y-94034663D01*
X111750479Y-94047241D01*
X111799761Y-94054310D01*
X112119586Y-94121781D01*
X112443143Y-94220547D01*
X112770925Y-94350869D01*
X113103425Y-94513007D01*
X113441133Y-94707221D01*
X113784544Y-94933774D01*
X114134149Y-95192924D01*
X114468833Y-95466452D01*
X114651052Y-95627420D01*
X114843892Y-95807807D01*
X115041249Y-96001335D01*
X115237019Y-96201724D01*
X115425100Y-96402695D01*
X115599388Y-96597968D01*
X115753782Y-96781264D01*
X115787694Y-96823399D01*
X115864637Y-96922018D01*
X115920330Y-96999792D01*
X115956148Y-97061073D01*
X115973467Y-97110216D01*
X115973664Y-97151573D01*
X115958114Y-97189499D01*
X115928193Y-97228347D01*
X115918867Y-97238460D01*
X115856670Y-97285319D01*
X115791109Y-97300034D01*
X115726127Y-97282125D01*
X115700346Y-97265066D01*
X115667774Y-97241657D01*
X115647710Y-97231234D01*
X115647214Y-97231199D01*
X115651178Y-97245332D01*
X115668604Y-97284404D01*
X115697106Y-97343426D01*
X115734296Y-97417410D01*
X115762695Y-97472499D01*
X115812881Y-97571641D01*
X115868553Y-97686170D01*
X115926924Y-97809913D01*
X115985206Y-97936696D01*
X116040610Y-98060347D01*
X116090349Y-98174692D01*
X116131635Y-98273559D01*
X116161681Y-98350774D01*
X116169922Y-98374200D01*
X116186055Y-98421193D01*
X116210689Y-98491551D01*
X116240831Y-98576780D01*
X116273487Y-98668388D01*
X116283357Y-98695933D01*
X116350437Y-98889757D01*
X116402832Y-99057181D01*
X116441442Y-99201874D01*
X116467169Y-99327501D01*
X116480913Y-99437732D01*
X116483900Y-99512460D01*
X116480490Y-99614926D01*
X116468196Y-99689720D01*
X116443917Y-99742537D01*
X116404551Y-99779074D01*
X116346998Y-99805027D01*
X116320232Y-99813155D01*
X116282350Y-99812757D01*
X116222131Y-99799629D01*
X116147643Y-99775951D01*
X116072039Y-99746114D01*
X116071550Y-99755170D01*
X116088027Y-99788164D01*
X116119157Y-99841192D01*
X116162623Y-99910350D01*
X116216112Y-99991734D01*
X116229321Y-100011375D01*
X116301695Y-100120371D01*
X116354489Y-100204730D01*
X116388579Y-100266809D01*
X116404835Y-100308964D01*
X116404131Y-100333553D01*
X116387340Y-100342933D01*
X116355335Y-100339460D01*
X116350371Y-100338256D01*
X116302812Y-100326827D01*
X116231450Y-100310394D01*
X116145600Y-100291038D01*
X116054576Y-100270843D01*
X115967694Y-100251890D01*
X115894267Y-100236261D01*
X115891233Y-100235628D01*
X115744897Y-100216026D01*
X115592667Y-100215003D01*
X115443350Y-100231500D01*
X115305751Y-100264458D01*
X115188676Y-100312821D01*
X115172233Y-100322037D01*
X115116019Y-100362270D01*
X115052178Y-100419113D01*
X114988488Y-100484349D01*
X114932731Y-100549760D01*
X114892686Y-100607127D01*
X114881390Y-100629249D01*
X114867038Y-100681296D01*
X114858954Y-100744948D01*
X114858300Y-100765681D01*
X114858300Y-100846850D01*
X113571366Y-102283018D01*
X113375742Y-102501617D01*
X113193154Y-102706231D01*
X113024522Y-102895810D01*
X112870766Y-103069305D01*
X112732803Y-103225667D01*
X112611553Y-103363846D01*
X112507936Y-103482793D01*
X112422870Y-103581459D01*
X112357274Y-103658795D01*
X112312067Y-103713750D01*
X112288169Y-103745276D01*
X112284433Y-103752388D01*
X112275349Y-103790913D01*
X112257085Y-103827329D01*
X112229738Y-103869066D01*
X110290195Y-103869066D01*
X110262847Y-103827329D01*
X110242536Y-103785300D01*
X110235500Y-103752388D01*
X110224275Y-103734815D01*
X110191213Y-103693208D01*
X110137233Y-103628618D01*
X110063255Y-103542094D01*
X109970196Y-103434685D01*
X109858977Y-103307441D01*
X109730516Y-103161410D01*
X109585732Y-102997642D01*
X109425545Y-102817187D01*
X109250873Y-102621093D01*
X109062635Y-102410411D01*
X108948566Y-102283018D01*
X107661633Y-100846850D01*
X107661633Y-100765681D01*
X107655855Y-100693100D01*
X107650602Y-100676186D01*
X108000299Y-100676186D01*
X108006429Y-100690947D01*
X108025481Y-100719167D01*
X108058449Y-100761999D01*
X108106328Y-100820598D01*
X108170111Y-100896115D01*
X108250793Y-100989705D01*
X108349367Y-101102520D01*
X108466828Y-101235713D01*
X108604170Y-101390439D01*
X108762387Y-101567849D01*
X108941852Y-101768404D01*
X109085836Y-101928895D01*
X109223467Y-102081918D01*
X109353056Y-102225619D01*
X109472915Y-102358143D01*
X109581356Y-102477637D01*
X109676691Y-102582247D01*
X109757232Y-102670118D01*
X109821291Y-102739396D01*
X109867179Y-102788227D01*
X109893208Y-102814757D01*
X109898586Y-102819200D01*
X109911368Y-102805213D01*
X109913567Y-102789566D01*
X109911470Y-102767421D01*
X109905525Y-102714960D01*
X109896130Y-102635463D01*
X109883684Y-102532214D01*
X109868586Y-102408495D01*
X109851236Y-102267589D01*
X109832033Y-102112776D01*
X109811374Y-101947340D01*
X109804989Y-101896419D01*
X109747063Y-101434884D01*
X110090380Y-101434884D01*
X110092419Y-101456066D01*
X110095945Y-101481695D01*
X110103245Y-101537841D01*
X110113929Y-101621410D01*
X110127606Y-101729309D01*
X110143887Y-101858446D01*
X110162382Y-102005727D01*
X110182701Y-102168059D01*
X110204454Y-102342350D01*
X110226664Y-102520789D01*
X110249314Y-102702200D01*
X110270886Y-102873439D01*
X110290999Y-103031584D01*
X110309272Y-103173709D01*
X110325325Y-103296891D01*
X110338776Y-103398206D01*
X110349244Y-103474730D01*
X110356347Y-103523541D01*
X110359706Y-103541713D01*
X110359729Y-103541740D01*
X110377832Y-103544679D01*
X110424276Y-103549052D01*
X110493583Y-103554511D01*
X110580276Y-103560711D01*
X110678876Y-103567303D01*
X110783904Y-103573940D01*
X110889883Y-103580276D01*
X110991334Y-103585963D01*
X111082780Y-103590654D01*
X111158741Y-103594001D01*
X111209166Y-103595575D01*
X111254733Y-103595133D01*
X111327994Y-103592804D01*
X111422849Y-103588854D01*
X111533193Y-103583553D01*
X111652926Y-103577167D01*
X111732574Y-103572582D01*
X111848418Y-103565478D01*
X111952616Y-103558645D01*
X112040543Y-103552421D01*
X112107575Y-103547145D01*
X112149088Y-103543159D01*
X112160807Y-103541137D01*
X112163987Y-103523642D01*
X112170926Y-103475455D01*
X112181242Y-103399498D01*
X112194558Y-103298692D01*
X112210493Y-103175958D01*
X112228669Y-103034219D01*
X112248706Y-102876395D01*
X112258996Y-102794627D01*
X112609528Y-102794627D01*
X112610455Y-102809296D01*
X112612935Y-102816536D01*
X112616705Y-102818965D01*
X112621355Y-102819200D01*
X112634988Y-102806913D01*
X112669238Y-102771457D01*
X112722181Y-102714935D01*
X112791892Y-102639452D01*
X112876445Y-102547114D01*
X112973915Y-102440024D01*
X113082378Y-102320286D01*
X113199909Y-102190007D01*
X113324583Y-102051290D01*
X113368320Y-102002507D01*
X113495274Y-101860537D01*
X113615661Y-101725356D01*
X113727548Y-101599174D01*
X113828996Y-101484201D01*
X113918072Y-101382646D01*
X113992840Y-101296717D01*
X114051363Y-101228624D01*
X114091707Y-101180577D01*
X114111935Y-101154784D01*
X114113837Y-101151607D01*
X114129459Y-101127870D01*
X114163823Y-101084219D01*
X114212760Y-101025678D01*
X114272099Y-100957275D01*
X114315138Y-100908944D01*
X114390204Y-100823496D01*
X114446697Y-100755008D01*
X114483931Y-100704772D01*
X114501217Y-100674086D01*
X114497870Y-100664245D01*
X114473201Y-100676545D01*
X114426524Y-100712281D01*
X114413800Y-100722936D01*
X114257953Y-100854214D01*
X114114942Y-100973165D01*
X113986597Y-101078334D01*
X113874747Y-101168264D01*
X113781223Y-101241500D01*
X113707855Y-101296586D01*
X113656471Y-101332065D01*
X113630745Y-101345962D01*
X113580475Y-101355764D01*
X113531337Y-101346139D01*
X113512942Y-101338976D01*
X113479095Y-101321452D01*
X113452771Y-101297714D01*
X113432767Y-101263371D01*
X113417883Y-101214033D01*
X113406913Y-101145309D01*
X113398657Y-101052807D01*
X113391912Y-100932137D01*
X113390018Y-100890129D01*
X113376633Y-100582293D01*
X113156499Y-100758944D01*
X113078088Y-100822065D01*
X113004666Y-100881532D01*
X112942195Y-100932489D01*
X112896633Y-100970084D01*
X112879844Y-100984249D01*
X112823322Y-101032905D01*
X112714943Y-101896419D01*
X112689933Y-102095736D01*
X112668867Y-102264066D01*
X112651479Y-102404027D01*
X112637504Y-102518237D01*
X112626676Y-102609313D01*
X112618730Y-102679872D01*
X112613400Y-102732532D01*
X112610421Y-102769911D01*
X112609528Y-102794627D01*
X112258996Y-102794627D01*
X112270225Y-102705409D01*
X112292847Y-102524180D01*
X112293268Y-102520789D01*
X112316043Y-102337820D01*
X112337765Y-102163794D01*
X112358042Y-102001804D01*
X112376486Y-101854944D01*
X112392706Y-101726306D01*
X112406313Y-101618983D01*
X112416915Y-101536070D01*
X112424125Y-101480658D01*
X112427513Y-101456066D01*
X112429533Y-101434618D01*
X112423952Y-101428283D01*
X112406967Y-101439566D01*
X112374773Y-101470975D01*
X112324706Y-101523799D01*
X112267703Y-101586672D01*
X112199228Y-101665226D01*
X112128719Y-101748502D01*
X112076797Y-101811643D01*
X111939904Y-101980954D01*
X112020097Y-101992425D01*
X112103661Y-102013058D01*
X112160389Y-102048952D01*
X112195133Y-102103415D01*
X112199089Y-102114414D01*
X112209597Y-102166084D01*
X112200346Y-102214787D01*
X112193567Y-102232184D01*
X112171945Y-102273719D01*
X112143750Y-102302316D01*
X112102962Y-102320031D01*
X112043557Y-102328921D01*
X111959513Y-102331043D01*
X111906494Y-102330211D01*
X111808713Y-102329986D01*
X111740625Y-102335197D01*
X111698366Y-102346690D01*
X111678075Y-102365312D01*
X111674833Y-102381006D01*
X111690599Y-102387098D01*
X111733243Y-102391980D01*
X111795780Y-102395072D01*
X111853177Y-102395866D01*
X111963196Y-102398707D01*
X112044867Y-102408405D01*
X112103325Y-102426726D01*
X112143702Y-102455435D01*
X112171134Y-102496296D01*
X112175810Y-102506776D01*
X112191688Y-102558892D01*
X112188270Y-102605660D01*
X112182156Y-102626518D01*
X112167479Y-102664187D01*
X112148602Y-102692442D01*
X112120880Y-102712544D01*
X112079670Y-102725755D01*
X112020326Y-102733337D01*
X111938206Y-102736551D01*
X111828664Y-102736660D01*
X111778608Y-102736145D01*
X111477966Y-102732564D01*
X111457866Y-102776678D01*
X111443304Y-102811034D01*
X111437766Y-102828463D01*
X111453784Y-102830978D01*
X111498174Y-102833146D01*
X111565445Y-102834822D01*
X111650102Y-102835860D01*
X111726177Y-102836133D01*
X111852990Y-102837168D01*
X111950512Y-102841047D01*
X112023280Y-102848932D01*
X112075828Y-102861987D01*
X112112690Y-102881373D01*
X112138402Y-102908253D01*
X112157498Y-102943790D01*
X112158876Y-102947042D01*
X112174755Y-102999159D01*
X112171337Y-103045927D01*
X112165222Y-103066785D01*
X112157197Y-103091150D01*
X112148682Y-103111601D01*
X112136843Y-103128480D01*
X112118845Y-103142130D01*
X112091854Y-103152893D01*
X112053036Y-103161112D01*
X111999557Y-103167128D01*
X111928582Y-103171285D01*
X111837278Y-103173924D01*
X111722810Y-103175389D01*
X111582343Y-103176021D01*
X111413044Y-103176163D01*
X111259966Y-103176154D01*
X111066336Y-103176156D01*
X110903738Y-103175934D01*
X110769338Y-103175145D01*
X110660302Y-103173447D01*
X110573795Y-103170498D01*
X110506983Y-103165955D01*
X110457033Y-103159475D01*
X110421109Y-103150717D01*
X110396378Y-103139337D01*
X110380005Y-103124994D01*
X110369156Y-103107345D01*
X110360996Y-103086047D01*
X110354710Y-103066785D01*
X110344265Y-103016376D01*
X110352681Y-102968840D01*
X110361056Y-102947042D01*
X110379819Y-102910763D01*
X110404834Y-102883233D01*
X110440638Y-102863290D01*
X110491763Y-102849771D01*
X110562746Y-102841515D01*
X110658121Y-102837358D01*
X110782423Y-102836138D01*
X110793756Y-102836133D01*
X110888318Y-102835707D01*
X110969861Y-102834526D01*
X111032893Y-102832737D01*
X111071920Y-102830486D01*
X111082166Y-102828463D01*
X111075886Y-102809123D01*
X111062066Y-102776678D01*
X111041966Y-102732564D01*
X110741324Y-102736145D01*
X110620082Y-102736891D01*
X110528035Y-102735012D01*
X110460539Y-102729247D01*
X110412950Y-102718335D01*
X110380623Y-102701014D01*
X110358916Y-102676023D01*
X110343183Y-102642099D01*
X110337777Y-102626518D01*
X110327332Y-102576109D01*
X110335748Y-102528574D01*
X110344123Y-102506776D01*
X110369453Y-102463088D01*
X110406632Y-102431930D01*
X110460793Y-102411537D01*
X110537071Y-102400144D01*
X110640599Y-102395985D01*
X110666756Y-102395866D01*
X110739863Y-102394552D01*
X110798461Y-102390999D01*
X110835568Y-102385789D01*
X110845100Y-102381006D01*
X110836614Y-102357481D01*
X110808583Y-102341616D01*
X110757144Y-102332564D01*
X110678436Y-102329480D01*
X110613439Y-102330211D01*
X110514850Y-102330697D01*
X110443905Y-102325441D01*
X110394581Y-102312386D01*
X110360856Y-102289475D01*
X110336708Y-102254652D01*
X110326365Y-102232184D01*
X110310986Y-102179962D01*
X110315684Y-102131557D01*
X110320843Y-102114414D01*
X110352426Y-102056570D01*
X110405194Y-102017840D01*
X110483996Y-101994917D01*
X110499835Y-101992425D01*
X110580028Y-101980954D01*
X110443135Y-101811643D01*
X110377862Y-101732543D01*
X110307010Y-101649325D01*
X110240017Y-101572949D01*
X110195226Y-101523799D01*
X110144405Y-101470199D01*
X110112527Y-101439184D01*
X110095786Y-101428248D01*
X110090380Y-101434884D01*
X109747063Y-101434884D01*
X109696610Y-101032905D01*
X109640088Y-100984249D01*
X109607588Y-100957045D01*
X109554588Y-100913555D01*
X109487049Y-100858633D01*
X109410929Y-100797132D01*
X109363433Y-100758944D01*
X109143300Y-100582293D01*
X109129915Y-100890129D01*
X109123387Y-101020032D01*
X109115706Y-101120460D01*
X109105670Y-101195802D01*
X109092076Y-101250452D01*
X109073722Y-101288799D01*
X109049405Y-101315234D01*
X109017923Y-101334149D01*
X109006990Y-101338976D01*
X108954036Y-101354900D01*
X108906503Y-101351083D01*
X108888930Y-101345878D01*
X108862204Y-101330635D01*
X108813273Y-101296287D01*
X108745764Y-101245634D01*
X108663303Y-101181476D01*
X108569516Y-101106610D01*
X108468028Y-101023837D01*
X108416249Y-100980959D01*
X108300204Y-100884663D01*
X108207454Y-100808497D01*
X108135508Y-100750636D01*
X108081874Y-100709254D01*
X108044061Y-100682527D01*
X108019579Y-100668629D01*
X108005936Y-100665734D01*
X108000642Y-100672019D01*
X108000299Y-100676186D01*
X107650602Y-100676186D01*
X107635772Y-100628440D01*
X107597262Y-100563140D01*
X107536201Y-100488639D01*
X107519278Y-100470107D01*
X107428214Y-100382011D01*
X107337293Y-100318430D01*
X107234597Y-100272230D01*
X107142521Y-100244656D01*
X107042010Y-100223129D01*
X106943361Y-100211722D01*
X106840896Y-100210916D01*
X106728939Y-100221191D01*
X106601813Y-100243026D01*
X106453840Y-100276902D01*
X106308909Y-100315115D01*
X106222666Y-100338284D01*
X106148008Y-100357311D01*
X106090997Y-100370732D01*
X106057694Y-100377080D01*
X106051980Y-100377214D01*
X106057299Y-100362561D01*
X106079543Y-100324178D01*
X106116171Y-100266049D01*
X106164642Y-100192155D01*
X106222415Y-100106481D01*
X106254965Y-100059066D01*
X106317016Y-99968718D01*
X106371737Y-99888099D01*
X106416460Y-99821220D01*
X106448517Y-99772089D01*
X106465241Y-99744714D01*
X106467012Y-99740428D01*
X106450984Y-99744560D01*
X106413679Y-99760731D01*
X106372460Y-99780801D01*
X106274009Y-99818294D01*
X106186166Y-99826345D01*
X106112721Y-99805328D01*
X106071960Y-99775656D01*
X106044295Y-99734019D01*
X106027698Y-99674437D01*
X106020140Y-99590930D01*
X106019100Y-99529393D01*
X106021172Y-99447732D01*
X106025072Y-99408500D01*
X106361956Y-99408500D01*
X106379338Y-99406680D01*
X106420601Y-99397412D01*
X106477092Y-99382655D01*
X106481635Y-99381400D01*
X106569642Y-99361306D01*
X106678438Y-99342800D01*
X106794945Y-99327602D01*
X106906084Y-99317434D01*
X106993719Y-99314000D01*
X107052442Y-99319830D01*
X107104513Y-99334417D01*
X107117153Y-99340620D01*
X107144561Y-99365019D01*
X107184711Y-99410955D01*
X107231920Y-99471546D01*
X107274511Y-99531120D01*
X107386922Y-99695000D01*
X106995168Y-99663846D01*
X106901779Y-99764089D01*
X106808391Y-99864333D01*
X106960391Y-99875109D01*
X107046204Y-99883630D01*
X107135199Y-99896389D01*
X107210480Y-99910896D01*
X107221913Y-99913663D01*
X107295065Y-99936244D01*
X107379560Y-99968450D01*
X107464881Y-100005648D01*
X107540508Y-100043204D01*
X107595923Y-100076487D01*
X107602366Y-100081225D01*
X107615505Y-100090229D01*
X107624830Y-100090722D01*
X107631133Y-100078142D01*
X107635205Y-100047928D01*
X107636442Y-100023291D01*
X107983366Y-100023291D01*
X107983366Y-100225773D01*
X108042453Y-100245273D01*
X108071449Y-100261286D01*
X108121964Y-100296080D01*
X108189765Y-100346447D01*
X108270613Y-100409178D01*
X108360274Y-100481065D01*
X108435037Y-100542625D01*
X108525228Y-100617522D01*
X108606410Y-100684470D01*
X108675112Y-100740643D01*
X108727861Y-100783215D01*
X108761185Y-100809362D01*
X108771686Y-100816538D01*
X108773601Y-100799158D01*
X108776706Y-100754110D01*
X108780623Y-100687555D01*
X108784975Y-100605657D01*
X108786560Y-100573916D01*
X108798281Y-100335233D01*
X108589790Y-100198913D01*
X108494915Y-100137301D01*
X108395629Y-100073558D01*
X108297279Y-100011047D01*
X108255856Y-99984987D01*
X109558719Y-99984987D01*
X109660599Y-99977618D01*
X109756098Y-99980763D01*
X109870678Y-100000391D01*
X109995530Y-100033775D01*
X110121842Y-100078185D01*
X110240806Y-100130896D01*
X110343319Y-100188989D01*
X110493092Y-100291070D01*
X110612824Y-100381929D01*
X110703857Y-100463072D01*
X110767534Y-100536005D01*
X110805198Y-100602235D01*
X110818191Y-100663266D01*
X110810556Y-100713051D01*
X110786054Y-100760643D01*
X110752858Y-100796577D01*
X110750729Y-100798034D01*
X110710180Y-100824603D01*
X110786267Y-100928668D01*
X110848496Y-101017286D01*
X110920640Y-101125610D01*
X110996665Y-101244089D01*
X111070539Y-101363172D01*
X111136229Y-101473310D01*
X111184934Y-101559795D01*
X111259077Y-101697390D01*
X111356727Y-101521450D01*
X111409848Y-101428709D01*
X111471824Y-101325012D01*
X111532955Y-101226434D01*
X111562418Y-101180655D01*
X111614001Y-101102921D01*
X111667202Y-101024374D01*
X111714600Y-100955896D01*
X111740064Y-100920174D01*
X111809670Y-100824549D01*
X111769162Y-100798007D01*
X111724510Y-100750103D01*
X111702988Y-100686339D01*
X111707708Y-100618173D01*
X111714892Y-100598152D01*
X111741190Y-100548588D01*
X111777728Y-100500808D01*
X111829983Y-100448956D01*
X111903433Y-100387180D01*
X111937300Y-100360462D01*
X111969654Y-100336540D01*
X113719159Y-100336540D01*
X113729929Y-100488271D01*
X113734993Y-100570452D01*
X113738778Y-100652519D01*
X113740620Y-100719466D01*
X113740699Y-100731687D01*
X113740699Y-100823372D01*
X113791189Y-100787421D01*
X113823271Y-100760243D01*
X113837777Y-100739227D01*
X113837756Y-100736611D01*
X113848711Y-100720278D01*
X113882118Y-100687058D01*
X113933498Y-100640604D01*
X113998377Y-100584569D01*
X114072277Y-100522606D01*
X114150722Y-100458369D01*
X114229236Y-100395511D01*
X114303344Y-100337684D01*
X114368567Y-100288543D01*
X114420431Y-100251740D01*
X114454459Y-100230928D01*
X114460548Y-100228339D01*
X114519633Y-100208840D01*
X114519633Y-100023886D01*
X114518769Y-99949322D01*
X114516426Y-99889142D01*
X114512980Y-99850205D01*
X114509508Y-99838933D01*
X114490109Y-99847843D01*
X114446010Y-99873075D01*
X114380837Y-99912382D01*
X114298211Y-99963515D01*
X114201757Y-100024229D01*
X114095097Y-100092274D01*
X113981855Y-100165403D01*
X113954296Y-100183333D01*
X113719159Y-100336540D01*
X111969654Y-100336540D01*
X112089863Y-100247660D01*
X112225139Y-100160856D01*
X112345615Y-100098552D01*
X112422147Y-100068824D01*
X112542078Y-100030552D01*
X112636931Y-100003498D01*
X112713086Y-99986331D01*
X112776920Y-99977720D01*
X112834813Y-99976334D01*
X112859334Y-99977618D01*
X112961213Y-99984987D01*
X112922009Y-99934151D01*
X112869663Y-99889588D01*
X112792045Y-99852890D01*
X112697112Y-99825387D01*
X112592822Y-99808407D01*
X112487132Y-99803279D01*
X112388002Y-99811330D01*
X112308758Y-99831777D01*
X112260627Y-99847510D01*
X112224948Y-99848678D01*
X112183657Y-99835409D01*
X112177131Y-99832713D01*
X112151134Y-99820709D01*
X112130110Y-99805984D01*
X112111229Y-99783579D01*
X112091661Y-99748537D01*
X112068575Y-99695901D01*
X112039143Y-99620713D01*
X112006307Y-99533459D01*
X111927276Y-99353834D01*
X111832074Y-99191423D01*
X111725019Y-99053339D01*
X111696418Y-99022954D01*
X111601779Y-98926641D01*
X111572123Y-98980620D01*
X111517624Y-99084629D01*
X111480638Y-99167493D01*
X111458679Y-99235399D01*
X111450157Y-99284122D01*
X111431816Y-99368338D01*
X111395050Y-99426470D01*
X111337094Y-99462464D01*
X111321473Y-99467729D01*
X111260344Y-99478854D01*
X111202640Y-99469716D01*
X111193804Y-99466918D01*
X111132382Y-99433592D01*
X111092577Y-99379139D01*
X111071571Y-99299406D01*
X111069776Y-99284122D01*
X111058257Y-99223851D01*
X111033743Y-99153679D01*
X110993749Y-99067420D01*
X110947809Y-98980620D01*
X110918153Y-98926641D01*
X110823514Y-99022954D01*
X110714133Y-99153716D01*
X110615507Y-99310614D01*
X110531954Y-99486536D01*
X110513625Y-99533459D01*
X110476401Y-99632207D01*
X110447978Y-99704106D01*
X110425524Y-99754112D01*
X110406211Y-99787185D01*
X110387207Y-99808280D01*
X110365684Y-99822357D01*
X110342801Y-99832713D01*
X110299517Y-99847796D01*
X110264125Y-99848458D01*
X110218563Y-99834572D01*
X110211174Y-99831777D01*
X110125263Y-99810293D01*
X110025403Y-99803224D01*
X109919550Y-99809240D01*
X109815663Y-99827012D01*
X109721699Y-99855213D01*
X109645616Y-99892514D01*
X109597923Y-99934151D01*
X109558719Y-99984987D01*
X108255856Y-99984987D01*
X108205215Y-99953129D01*
X108124784Y-99903167D01*
X108061335Y-99864522D01*
X108020216Y-99840557D01*
X108016766Y-99838683D01*
X108002683Y-99832633D01*
X107993243Y-99835788D01*
X107987519Y-99853274D01*
X107984583Y-99890216D01*
X107983509Y-99951738D01*
X107983366Y-100023291D01*
X107636442Y-100023291D01*
X107637838Y-99995517D01*
X107639824Y-99916349D01*
X107640942Y-99858922D01*
X107641777Y-99753280D01*
X107639885Y-99674096D01*
X107635384Y-99623820D01*
X107628469Y-99604923D01*
X107603361Y-99590692D01*
X107574551Y-99569448D01*
X107559138Y-99555633D01*
X107554931Y-99543388D01*
X107565921Y-99528694D01*
X107596098Y-99507530D01*
X107649453Y-99475878D01*
X107691278Y-99451882D01*
X107826231Y-99380562D01*
X107950288Y-99328827D01*
X108075984Y-99291808D01*
X108137967Y-99278349D01*
X108186255Y-99267834D01*
X108212483Y-99258252D01*
X108214592Y-99247946D01*
X108190519Y-99235254D01*
X108138205Y-99218519D01*
X108055589Y-99196082D01*
X108026290Y-99188433D01*
X107889194Y-99156431D01*
X107756684Y-99133857D01*
X107620832Y-99120113D01*
X107473711Y-99114599D01*
X107307394Y-99116719D01*
X107161381Y-99123171D01*
X107058145Y-99128476D01*
X106967010Y-99132570D01*
X106893164Y-99135269D01*
X106841794Y-99136387D01*
X106818089Y-99135741D01*
X106817151Y-99135415D01*
X106821083Y-99118530D01*
X106835606Y-99074710D01*
X106859058Y-99008592D01*
X106889783Y-98924816D01*
X106926120Y-98828019D01*
X106942271Y-98785607D01*
X106949534Y-98767265D01*
X107310008Y-98767265D01*
X107540854Y-98776687D01*
X107840069Y-98804864D01*
X108129063Y-98864942D01*
X108410689Y-98957624D01*
X108589869Y-99035080D01*
X108720154Y-99099049D01*
X108820828Y-99154500D01*
X108894335Y-99203846D01*
X108943117Y-99249502D01*
X108969618Y-99293884D01*
X108976280Y-99339406D01*
X108965546Y-99388482D01*
X108960490Y-99401447D01*
X108936754Y-99446413D01*
X108910984Y-99479334D01*
X108909193Y-99480893D01*
X108883895Y-99490773D01*
X108831103Y-99503790D01*
X108756904Y-99518701D01*
X108667386Y-99534262D01*
X108589070Y-99546308D01*
X108474238Y-99563330D01*
X108389762Y-99576827D01*
X108332402Y-99587541D01*
X108298917Y-99596212D01*
X108286066Y-99603581D01*
X108290608Y-99610388D01*
X108296633Y-99613144D01*
X108316851Y-99624459D01*
X108359230Y-99650286D01*
X108417494Y-99686746D01*
X108482900Y-99728371D01*
X108549647Y-99770755D01*
X108605714Y-99805570D01*
X108645157Y-99829180D01*
X108661981Y-99837945D01*
X108678941Y-99827519D01*
X108707586Y-99800705D01*
X108711753Y-99796330D01*
X108748777Y-99765322D01*
X108810253Y-99723059D01*
X108890108Y-99672956D01*
X108982268Y-99618430D01*
X109080663Y-99562896D01*
X109179218Y-99509770D01*
X109271862Y-99462467D01*
X109352521Y-99424403D01*
X109415123Y-99398993D01*
X109422699Y-99396446D01*
X109473211Y-99378716D01*
X109492275Y-99363999D01*
X109480850Y-99345460D01*
X109439890Y-99316264D01*
X109434423Y-99312638D01*
X109310916Y-99211727D01*
X109204882Y-99086768D01*
X109122195Y-98945534D01*
X109083768Y-98848739D01*
X109061444Y-98791077D01*
X109035219Y-98737675D01*
X109031534Y-98731402D01*
X109013293Y-98694259D01*
X109008827Y-98669429D01*
X109009519Y-98667804D01*
X109009136Y-98645967D01*
X109000252Y-98601220D01*
X108984751Y-98542890D01*
X108983242Y-98537782D01*
X108965132Y-98464488D01*
X108961414Y-98437700D01*
X109456725Y-98437700D01*
X109457542Y-98518662D01*
X109461048Y-98575432D01*
X109469093Y-98617674D01*
X109483523Y-98655051D01*
X109506188Y-98697227D01*
X109506446Y-98697677D01*
X109569787Y-98785634D01*
X109657424Y-98875771D01*
X109761118Y-98960877D01*
X109872627Y-99033742D01*
X109918742Y-99058429D01*
X110000485Y-99097288D01*
X110058005Y-99119515D01*
X110095892Y-99126270D01*
X110118738Y-99118715D01*
X110125477Y-99110728D01*
X110123156Y-99088203D01*
X110107298Y-99042505D01*
X110080901Y-98980019D01*
X110046960Y-98907131D01*
X110008471Y-98830225D01*
X109968430Y-98755686D01*
X109929833Y-98689899D01*
X109928299Y-98687466D01*
X112318617Y-98687466D01*
X112329355Y-98734045D01*
X112357727Y-98795236D01*
X112397971Y-98861167D01*
X112444323Y-98921966D01*
X112473301Y-98952471D01*
X112531356Y-98999431D01*
X112595695Y-99039643D01*
X112655904Y-99067373D01*
X112699299Y-99076933D01*
X112735201Y-99069234D01*
X112783859Y-99049947D01*
X112801150Y-99041371D01*
X112858832Y-99005279D01*
X112915478Y-98961362D01*
X112925298Y-98952471D01*
X112972545Y-98899708D01*
X113017220Y-98835756D01*
X113053559Y-98770486D01*
X113075800Y-98713771D01*
X113079982Y-98687466D01*
X113069244Y-98640888D01*
X113040872Y-98579697D01*
X113000628Y-98513765D01*
X112954276Y-98452967D01*
X112925298Y-98422461D01*
X112867243Y-98375502D01*
X112802904Y-98335289D01*
X112742695Y-98307559D01*
X112699299Y-98298000D01*
X112652404Y-98308839D01*
X112591623Y-98337532D01*
X112527373Y-98378343D01*
X112473301Y-98422461D01*
X112426054Y-98475224D01*
X112381379Y-98539177D01*
X112345040Y-98604446D01*
X112322799Y-98661161D01*
X112318617Y-98687466D01*
X109928299Y-98687466D01*
X109922708Y-98678601D01*
X109869408Y-98603970D01*
X109804675Y-98526706D01*
X109733570Y-98451507D01*
X109661154Y-98383073D01*
X109592491Y-98326103D01*
X109532640Y-98285294D01*
X109486664Y-98265347D01*
X109476250Y-98264133D01*
X109466312Y-98277644D01*
X109459982Y-98319603D01*
X109457021Y-98392146D01*
X109456725Y-98437700D01*
X108961414Y-98437700D01*
X108954200Y-98385725D01*
X108949217Y-98290462D01*
X108948566Y-98226734D01*
X108947021Y-98143499D01*
X108942834Y-98068002D01*
X108936681Y-98009500D01*
X108930626Y-97980658D01*
X108923788Y-97913888D01*
X108945615Y-97850195D01*
X108991554Y-97799245D01*
X109024999Y-97780344D01*
X109063305Y-97767023D01*
X109099433Y-97763548D01*
X109146317Y-97769868D01*
X109190708Y-97779677D01*
X109268537Y-97795507D01*
X109352985Y-97809023D01*
X109397299Y-97814379D01*
X109468945Y-97824462D01*
X109540764Y-97839282D01*
X109575099Y-97848741D01*
X109637622Y-97868308D01*
X109710318Y-97890477D01*
X109744433Y-97900672D01*
X109815588Y-97927120D01*
X109889034Y-97962498D01*
X109917939Y-97979380D01*
X109997415Y-98040217D01*
X110083861Y-98123651D01*
X110170061Y-98221527D01*
X110248797Y-98325691D01*
X110309265Y-98421534D01*
X110363739Y-98511261D01*
X110410928Y-98571571D01*
X110453907Y-98605292D01*
X110495753Y-98615248D01*
X110516882Y-98612282D01*
X110547329Y-98596524D01*
X110593997Y-98563099D01*
X110648854Y-98517977D01*
X110674165Y-98495362D01*
X110738857Y-98440442D01*
X110809806Y-98390193D01*
X110895211Y-98339366D01*
X111003273Y-98282713D01*
X111017400Y-98275649D01*
X111097908Y-98236035D01*
X111167987Y-98202479D01*
X111221933Y-98177639D01*
X111254041Y-98164175D01*
X111259966Y-98162533D01*
X111279830Y-98169733D01*
X111324231Y-98189567D01*
X111387487Y-98219383D01*
X111463914Y-98256529D01*
X111503926Y-98276343D01*
X111616795Y-98334925D01*
X111705071Y-98386638D01*
X111776022Y-98436099D01*
X111836780Y-98487798D01*
X111941163Y-98585444D01*
X111949831Y-98477465D01*
X111975216Y-98348339D01*
X112027538Y-98226160D01*
X112102369Y-98118527D01*
X112195282Y-98033042D01*
X112217429Y-98018139D01*
X112264981Y-97993735D01*
X112331205Y-97966667D01*
X112401974Y-97942697D01*
X112403685Y-97942185D01*
X112469831Y-97924798D01*
X112557661Y-97905001D01*
X112659942Y-97884089D01*
X112769441Y-97863355D01*
X112878922Y-97844094D01*
X112981153Y-97827598D01*
X113068898Y-97815162D01*
X113134925Y-97808079D01*
X113159955Y-97806933D01*
X113217725Y-97802911D01*
X113281687Y-97792476D01*
X113341346Y-97778076D01*
X113386205Y-97762160D01*
X113404435Y-97749911D01*
X113424810Y-97747250D01*
X113463229Y-97758767D01*
X113480635Y-97766563D01*
X113542197Y-97811093D01*
X113582429Y-97869976D01*
X113597044Y-97934874D01*
X113589846Y-97979110D01*
X113583049Y-98015331D01*
X113577378Y-98077420D01*
X113573341Y-98157385D01*
X113571446Y-98247231D01*
X113571366Y-98269490D01*
X113570427Y-98374429D01*
X113566756Y-98456784D01*
X113559076Y-98527807D01*
X113546108Y-98598748D01*
X113526574Y-98680859D01*
X113523077Y-98694530D01*
X113501234Y-98779900D01*
X113480291Y-98862582D01*
X113463031Y-98931550D01*
X113454364Y-98966866D01*
X113421912Y-99059409D01*
X113371493Y-99153877D01*
X113309382Y-99241362D01*
X113241852Y-99312958D01*
X113178939Y-99357864D01*
X113145997Y-99378431D01*
X113131772Y-99394340D01*
X113131758Y-99394868D01*
X113146343Y-99406835D01*
X113185178Y-99429391D01*
X113241764Y-99458928D01*
X113288392Y-99481796D01*
X113458100Y-99566424D01*
X113597379Y-99643213D01*
X113705514Y-99711742D01*
X113781790Y-99771590D01*
X113785157Y-99774725D01*
X113838081Y-99824554D01*
X114030093Y-99704743D01*
X114099033Y-99661016D01*
X114154546Y-99624431D01*
X114191915Y-99598205D01*
X114206424Y-99585557D01*
X114205769Y-99584887D01*
X114184266Y-99582509D01*
X114135231Y-99575961D01*
X114064627Y-99566075D01*
X113978418Y-99553680D01*
X113913097Y-99544120D01*
X113800150Y-99526740D01*
X113715712Y-99511120D01*
X113654657Y-99495052D01*
X113611862Y-99476326D01*
X113582201Y-99452734D01*
X113560550Y-99422067D01*
X113542795Y-99384514D01*
X113527941Y-99334267D01*
X113529936Y-99288137D01*
X113551214Y-99243717D01*
X113594209Y-99198599D01*
X113661354Y-99150376D01*
X113755082Y-99096640D01*
X113877828Y-99034983D01*
X113913130Y-99018146D01*
X114191517Y-98904048D01*
X114475429Y-98823009D01*
X114767721Y-98774324D01*
X114962145Y-98759754D01*
X115192991Y-98750331D01*
X115093128Y-98505573D01*
X114945372Y-98156836D01*
X114796120Y-97830855D01*
X114646447Y-97529673D01*
X114497428Y-97255329D01*
X114350135Y-97009863D01*
X114205643Y-96795316D01*
X114160795Y-96734352D01*
X114082967Y-96637808D01*
X113995199Y-96540273D01*
X113903760Y-96447877D01*
X113814921Y-96366749D01*
X113734950Y-96303020D01*
X113688475Y-96272543D01*
X113621604Y-96234255D01*
X113551002Y-96194067D01*
X113515272Y-96173841D01*
X113447322Y-96127869D01*
X113403045Y-96076180D01*
X113378246Y-96010701D01*
X113368731Y-95923362D01*
X113368229Y-95890818D01*
X113368706Y-95825544D01*
X113371592Y-95787551D01*
X113378948Y-95770255D01*
X113392840Y-95767071D01*
X113406266Y-95769432D01*
X113414470Y-95766476D01*
X113396467Y-95749346D01*
X113355688Y-95720257D01*
X113295564Y-95681422D01*
X113219526Y-95635057D01*
X113131004Y-95583376D01*
X113033430Y-95528593D01*
X113031359Y-95527453D01*
X112928288Y-95473257D01*
X112803298Y-95411468D01*
X112665829Y-95346426D01*
X112525323Y-95282473D01*
X112391219Y-95223949D01*
X112272958Y-95175195D01*
X112225166Y-95156752D01*
X112159150Y-95132018D01*
X112077356Y-95101345D01*
X111995711Y-95070705D01*
X111982711Y-95065824D01*
X111916105Y-95042032D01*
X111859245Y-95023934D01*
X111821216Y-95014338D01*
X111813378Y-95013507D01*
X111792867Y-95026873D01*
X111757389Y-95062974D01*
X111710988Y-95116516D01*
X111657707Y-95182208D01*
X111601593Y-95254757D01*
X111546688Y-95328871D01*
X111497037Y-95399258D01*
X111456686Y-95460624D01*
X111429678Y-95507679D01*
X111421902Y-95525766D01*
X111386195Y-95589763D01*
X111333878Y-95630036D01*
X111272509Y-95646585D01*
X111209646Y-95639411D01*
X111152848Y-95608514D01*
X111109673Y-95553892D01*
X111098030Y-95525766D01*
X111080234Y-95489008D01*
X111046837Y-95434982D01*
X111001881Y-95368980D01*
X110949412Y-95296296D01*
X110893475Y-95222220D01*
X110838113Y-95152046D01*
X110787371Y-95091065D01*
X110745293Y-95044571D01*
X110715925Y-95017855D01*
X110706555Y-95013507D01*
X110678475Y-95018969D01*
X110627973Y-95034042D01*
X110564134Y-95055919D01*
X110537221Y-95065824D01*
X110457227Y-95095848D01*
X110374315Y-95126944D01*
X110304413Y-95153140D01*
X110294766Y-95156752D01*
X110187311Y-95199360D01*
X110059538Y-95253795D01*
X109920889Y-95315717D01*
X109780804Y-95380784D01*
X109648723Y-95444656D01*
X109534088Y-95502991D01*
X109488573Y-95527453D01*
X109390849Y-95582276D01*
X109302108Y-95634043D01*
X109225779Y-95680540D01*
X109165295Y-95719551D01*
X109124085Y-95748862D01*
X109105580Y-95766260D01*
X109113212Y-95769529D01*
X109113666Y-95769432D01*
X109132880Y-95766997D01*
X109144225Y-95774418D01*
X109149765Y-95798279D01*
X109151563Y-95845165D01*
X109151703Y-95890818D01*
X109146050Y-95986514D01*
X109126404Y-96057863D01*
X109088570Y-96112938D01*
X109028356Y-96159810D01*
X109004661Y-96173841D01*
X108941800Y-96209469D01*
X108870197Y-96250284D01*
X108831328Y-96272543D01*
X108764378Y-96318495D01*
X108683572Y-96385783D01*
X108595042Y-96468403D01*
X108504923Y-96560353D01*
X108419348Y-96655630D01*
X108344449Y-96748232D01*
X108342146Y-96751285D01*
X108198442Y-96956208D01*
X108051631Y-97192709D01*
X107902783Y-97458756D01*
X107752967Y-97752319D01*
X107603251Y-98071368D01*
X107454706Y-98413870D01*
X107409871Y-98522506D01*
X107310008Y-98767265D01*
X106949534Y-98767265D01*
X107096236Y-98396822D01*
X107251389Y-98032419D01*
X107407088Y-97693578D01*
X107562694Y-97381483D01*
X107717569Y-97097316D01*
X107871071Y-96842259D01*
X108022562Y-96617495D01*
X108171403Y-96424205D01*
X108293815Y-96287131D01*
X108412490Y-96164330D01*
X108252220Y-96017186D01*
X108367560Y-95906308D01*
X108548871Y-95743587D01*
X108745294Y-95590351D01*
X108961339Y-95443566D01*
X109201514Y-95300194D01*
X109470326Y-95157198D01*
X109507366Y-95138600D01*
X109733627Y-95030338D01*
X109970915Y-94925289D01*
X110210034Y-94827191D01*
X110441791Y-94739779D01*
X110656988Y-94666791D01*
X110705735Y-94651657D01*
X110845770Y-94609070D01*
X111045462Y-94866035D01*
X111108229Y-94945856D01*
X111164459Y-95015576D01*
X111210713Y-95071074D01*
X111243550Y-95108229D01*
X111259529Y-95122918D01*
X111259966Y-95123000D01*
X111274488Y-95110233D01*
X111306136Y-95074680D01*
X111351468Y-95020463D01*
X111407045Y-94951702D01*
X111469426Y-94872520D01*
X111474470Y-94866035D01*
X111674163Y-94609070D01*
X111814198Y-94651657D01*
X112023983Y-94720577D01*
X112252561Y-94804828D01*
X112490738Y-94900673D01*
X112729316Y-95004376D01*
X112959102Y-95112202D01*
X113012566Y-95138600D01*
X113274669Y-95275730D01*
X113508790Y-95412222D01*
X113720526Y-95551841D01*
X113915475Y-95698349D01*
X114099233Y-95855510D01*
X114153400Y-95905660D01*
X114269766Y-96015300D01*
X114107442Y-96164330D01*
X114226118Y-96287131D01*
X114372239Y-96453090D01*
X114521548Y-96651517D01*
X114673406Y-96881228D01*
X114827172Y-97141042D01*
X114982207Y-97429776D01*
X115137871Y-97746248D01*
X115293526Y-98089275D01*
X115448531Y-98457676D01*
X115577662Y-98785607D01*
X115615822Y-98886404D01*
X115649051Y-98976085D01*
X115675688Y-99050011D01*
X115694076Y-99103542D01*
X115702555Y-99132042D01*
X115702781Y-99135415D01*
X115684742Y-99136406D01*
X115638083Y-99135599D01*
X115567990Y-99133178D01*
X115479652Y-99129327D01*
X115378257Y-99124231D01*
X115358551Y-99123171D01*
X115172114Y-99115585D01*
X115010965Y-99115169D01*
X114867170Y-99122522D01*
X114732794Y-99138241D01*
X114599905Y-99162927D01*
X114493479Y-99188452D01*
X114410577Y-99210322D01*
X114356532Y-99225747D01*
X114327311Y-99236347D01*
X114318879Y-99243744D01*
X114327201Y-99249557D01*
X114335176Y-99252043D01*
X114361793Y-99259395D01*
X114411615Y-99273102D01*
X114475185Y-99290564D01*
X114494233Y-99295792D01*
X114552690Y-99315470D01*
X114625281Y-99345242D01*
X114705089Y-99381623D01*
X114785193Y-99421126D01*
X114858676Y-99460266D01*
X114918618Y-99495558D01*
X114958101Y-99523516D01*
X114968836Y-99534894D01*
X114962645Y-99553098D01*
X114934263Y-99576647D01*
X114927237Y-99580857D01*
X114875447Y-99610333D01*
X114875340Y-99841129D01*
X114875233Y-100071926D01*
X115023400Y-99997572D01*
X115162819Y-99935534D01*
X115298418Y-99893423D01*
X115444079Y-99867510D01*
X115542211Y-99858176D01*
X115693815Y-99847400D01*
X115524861Y-99663838D01*
X115325630Y-99679419D01*
X115247366Y-99684981D01*
X115182410Y-99688543D01*
X115137622Y-99689800D01*
X115119915Y-99688509D01*
X115122918Y-99678066D01*
X115129233Y-99678066D01*
X115137700Y-99686533D01*
X115146166Y-99678066D01*
X115137700Y-99669600D01*
X115129233Y-99678066D01*
X115122918Y-99678066D01*
X115124839Y-99671390D01*
X115146536Y-99634051D01*
X115180525Y-99582641D01*
X115222326Y-99523308D01*
X115267457Y-99462198D01*
X115311436Y-99405460D01*
X115349783Y-99359241D01*
X115378016Y-99329689D01*
X115385846Y-99323687D01*
X115431025Y-99307109D01*
X115489748Y-99297801D01*
X115509280Y-99297066D01*
X115603525Y-99300961D01*
X115715389Y-99311498D01*
X115831796Y-99326956D01*
X115939666Y-99345613D01*
X116021364Y-99364466D01*
X116078638Y-99379552D01*
X116121322Y-99389293D01*
X116140766Y-99391730D01*
X116141043Y-99391567D01*
X116139334Y-99372964D01*
X116128353Y-99327765D01*
X116109785Y-99261418D01*
X116085319Y-99179373D01*
X116056640Y-99087078D01*
X116025434Y-98989982D01*
X115993388Y-98893532D01*
X115962188Y-98803179D01*
X115939519Y-98740428D01*
X115839612Y-98481409D01*
X115733991Y-98227269D01*
X115624646Y-97982026D01*
X115513564Y-97749694D01*
X115402734Y-97534290D01*
X115294143Y-97339828D01*
X115189781Y-97170326D01*
X115094410Y-97033477D01*
X115048968Y-96981536D01*
X114987016Y-96921596D01*
X114920096Y-96864632D01*
X114902918Y-96851370D01*
X114811586Y-96773071D01*
X114753417Y-96700350D01*
X114728260Y-96632701D01*
X114735961Y-96569616D01*
X114776369Y-96510589D01*
X114795265Y-96493244D01*
X114839212Y-96463250D01*
X114883010Y-96454579D01*
X114916787Y-96457049D01*
X114969771Y-96465386D01*
X115013143Y-96475236D01*
X115019166Y-96477131D01*
X115019023Y-96470158D01*
X114997193Y-96443181D01*
X114956794Y-96399256D01*
X114900945Y-96341437D01*
X114832764Y-96272780D01*
X114755369Y-96196338D01*
X114671877Y-96115168D01*
X114585408Y-96032323D01*
X114499079Y-95950859D01*
X114416008Y-95873831D01*
X114339313Y-95804292D01*
X114272593Y-95745711D01*
X113928417Y-95463205D01*
X113591753Y-95213217D01*
X113261965Y-94995389D01*
X112938420Y-94809366D01*
X112620485Y-94654792D01*
X112307526Y-94531311D01*
X111998910Y-94438567D01*
X111907686Y-94416820D01*
X111853186Y-94405171D01*
X111802599Y-94396094D01*
X111750652Y-94389274D01*
X111692076Y-94384393D01*
X111621599Y-94381135D01*
X111533950Y-94379185D01*
X111423858Y-94378224D01*
X111286052Y-94377937D01*
X111259966Y-94377933D01*
X111117018Y-94378138D01*
X111002664Y-94378964D01*
X110911634Y-94380727D01*
X110838656Y-94383745D01*
X110778459Y-94388332D01*
X110725772Y-94394807D01*
X110675324Y-94403485D01*
X110621845Y-94414682D01*
X110612247Y-94416820D01*
X110305379Y-94500281D01*
X109994413Y-94614242D01*
X109678687Y-94759072D01*
X109357541Y-94935145D01*
X109030313Y-95142830D01*
X108696345Y-95382499D01*
X108354974Y-95654523D01*
X108247272Y-95745711D01*
X108180894Y-95804010D01*
X108104663Y-95873180D01*
X108021677Y-95950182D01*
X107935035Y-96031978D01*
X107847837Y-96115531D01*
X107763180Y-96197804D01*
X107684165Y-96275758D01*
X107613890Y-96346355D01*
X107555453Y-96406559D01*
X107511954Y-96453330D01*
X107486492Y-96483633D01*
X107482165Y-96494428D01*
X107483833Y-96494078D01*
X107522655Y-96484398D01*
X107575273Y-96475415D01*
X107586212Y-96473983D01*
X107639254Y-96472877D01*
X107680700Y-96489594D01*
X107707734Y-96510178D01*
X107758134Y-96569063D01*
X107775187Y-96632380D01*
X107759043Y-96699562D01*
X107709852Y-96770041D01*
X107627762Y-96843250D01*
X107618281Y-96850309D01*
X107557203Y-96898027D01*
X107499452Y-96947989D01*
X107456979Y-96989823D01*
X107455167Y-96991861D01*
X107379789Y-97087674D01*
X107296070Y-97212181D01*
X107205835Y-97361769D01*
X107110908Y-97532827D01*
X107013113Y-97721743D01*
X106914274Y-97924906D01*
X106816216Y-98138702D01*
X106720762Y-98359521D01*
X106629737Y-98583751D01*
X106563480Y-98757362D01*
X106534111Y-98839175D01*
X106502580Y-98931336D01*
X106470574Y-99028394D01*
X106439779Y-99124903D01*
X106411881Y-99215412D01*
X106388567Y-99294473D01*
X106371523Y-99356638D01*
X106362435Y-99396457D01*
X106361956Y-99408500D01*
X106025072Y-99408500D01*
X106028605Y-99372978D01*
X106043226Y-99293491D01*
X106066860Y-99197629D01*
X106076993Y-99160253D01*
X106143384Y-98939088D01*
X106225821Y-98697361D01*
X106321299Y-98442507D01*
X106426815Y-98181965D01*
X106539362Y-97923171D01*
X106655938Y-97673562D01*
X106765661Y-97455566D01*
X106805893Y-97377535D01*
X106838812Y-97311303D01*
X106861952Y-97262028D01*
X106872846Y-97234871D01*
X106872918Y-97231200D01*
X106853792Y-97240655D01*
X106821509Y-97263562D01*
X106819587Y-97265066D01*
X106755998Y-97296610D01*
X106690199Y-97295331D01*
X106626132Y-97261710D01*
X106601066Y-97238460D01*
X106567847Y-97198727D01*
X106548663Y-97160977D01*
X106544890Y-97120859D01*
X106557905Y-97074017D01*
X106589082Y-97016099D01*
X106639798Y-96942752D01*
X106711429Y-96849620D01*
X106732238Y-96823399D01*
X106883922Y-96640332D01*
X107057137Y-96443982D01*
X107245770Y-96240634D01*
X107443712Y-96036574D01*
X107644852Y-95838087D01*
X107843079Y-95651457D01*
X108032282Y-95482972D01*
X108051099Y-95466826D01*
X108408579Y-95175140D01*
X108759936Y-94916505D01*
X109105530Y-94690731D01*
X109445720Y-94497626D01*
X109780864Y-94337002D01*
X110111323Y-94208668D01*
X110437456Y-94112433D01*
X110720172Y-94054310D01*
X110838791Y-94039712D01*
X110981959Y-94029643D01*
X111140658Y-94024104D01*
X111305875Y-94023094D01*
X111468594Y-94026614D01*
X111468594Y-94026614D01*
G37*
X111468594Y-94026614D02*
X111619801Y-94034663D01*
X111750479Y-94047241D01*
X111799761Y-94054310D01*
X112119586Y-94121781D01*
X112443143Y-94220547D01*
X112770925Y-94350869D01*
X113103425Y-94513007D01*
X113441133Y-94707221D01*
X113784544Y-94933774D01*
X114134149Y-95192924D01*
X114468833Y-95466452D01*
X114651052Y-95627420D01*
X114843892Y-95807807D01*
X115041249Y-96001335D01*
X115237019Y-96201724D01*
X115425100Y-96402695D01*
X115599388Y-96597968D01*
X115753782Y-96781264D01*
X115787694Y-96823399D01*
X115864637Y-96922018D01*
X115920330Y-96999792D01*
X115956148Y-97061073D01*
X115973467Y-97110216D01*
X115973664Y-97151573D01*
X115958114Y-97189499D01*
X115928193Y-97228347D01*
X115918867Y-97238460D01*
X115856670Y-97285319D01*
X115791109Y-97300034D01*
X115726127Y-97282125D01*
X115700346Y-97265066D01*
X115667774Y-97241657D01*
X115647710Y-97231234D01*
X115647214Y-97231199D01*
X115651178Y-97245332D01*
X115668604Y-97284404D01*
X115697106Y-97343426D01*
X115734296Y-97417410D01*
X115762695Y-97472499D01*
X115812881Y-97571641D01*
X115868553Y-97686170D01*
X115926924Y-97809913D01*
X115985206Y-97936696D01*
X116040610Y-98060347D01*
X116090349Y-98174692D01*
X116131635Y-98273559D01*
X116161681Y-98350774D01*
X116169922Y-98374200D01*
X116186055Y-98421193D01*
X116210689Y-98491551D01*
X116240831Y-98576780D01*
X116273487Y-98668388D01*
X116283357Y-98695933D01*
X116350437Y-98889757D01*
X116402832Y-99057181D01*
X116441442Y-99201874D01*
X116467169Y-99327501D01*
X116480913Y-99437732D01*
X116483900Y-99512460D01*
X116480490Y-99614926D01*
X116468196Y-99689720D01*
X116443917Y-99742537D01*
X116404551Y-99779074D01*
X116346998Y-99805027D01*
X116320232Y-99813155D01*
X116282350Y-99812757D01*
X116222131Y-99799629D01*
X116147643Y-99775951D01*
X116072039Y-99746114D01*
X116071550Y-99755170D01*
X116088027Y-99788164D01*
X116119157Y-99841192D01*
X116162623Y-99910350D01*
X116216112Y-99991734D01*
X116229321Y-100011375D01*
X116301695Y-100120371D01*
X116354489Y-100204730D01*
X116388579Y-100266809D01*
X116404835Y-100308964D01*
X116404131Y-100333553D01*
X116387340Y-100342933D01*
X116355335Y-100339460D01*
X116350371Y-100338256D01*
X116302812Y-100326827D01*
X116231450Y-100310394D01*
X116145600Y-100291038D01*
X116054576Y-100270843D01*
X115967694Y-100251890D01*
X115894267Y-100236261D01*
X115891233Y-100235628D01*
X115744897Y-100216026D01*
X115592667Y-100215003D01*
X115443350Y-100231500D01*
X115305751Y-100264458D01*
X115188676Y-100312821D01*
X115172233Y-100322037D01*
X115116019Y-100362270D01*
X115052178Y-100419113D01*
X114988488Y-100484349D01*
X114932731Y-100549760D01*
X114892686Y-100607127D01*
X114881390Y-100629249D01*
X114867038Y-100681296D01*
X114858954Y-100744948D01*
X114858300Y-100765681D01*
X114858300Y-100846850D01*
X113571366Y-102283018D01*
X113375742Y-102501617D01*
X113193154Y-102706231D01*
X113024522Y-102895810D01*
X112870766Y-103069305D01*
X112732803Y-103225667D01*
X112611553Y-103363846D01*
X112507936Y-103482793D01*
X112422870Y-103581459D01*
X112357274Y-103658795D01*
X112312067Y-103713750D01*
X112288169Y-103745276D01*
X112284433Y-103752388D01*
X112275349Y-103790913D01*
X112257085Y-103827329D01*
X112229738Y-103869066D01*
X110290195Y-103869066D01*
X110262847Y-103827329D01*
X110242536Y-103785300D01*
X110235500Y-103752388D01*
X110224275Y-103734815D01*
X110191213Y-103693208D01*
X110137233Y-103628618D01*
X110063255Y-103542094D01*
X109970196Y-103434685D01*
X109858977Y-103307441D01*
X109730516Y-103161410D01*
X109585732Y-102997642D01*
X109425545Y-102817187D01*
X109250873Y-102621093D01*
X109062635Y-102410411D01*
X108948566Y-102283018D01*
X107661633Y-100846850D01*
X107661633Y-100765681D01*
X107655855Y-100693100D01*
X107650602Y-100676186D01*
X108000299Y-100676186D01*
X108006429Y-100690947D01*
X108025481Y-100719167D01*
X108058449Y-100761999D01*
X108106328Y-100820598D01*
X108170111Y-100896115D01*
X108250793Y-100989705D01*
X108349367Y-101102520D01*
X108466828Y-101235713D01*
X108604170Y-101390439D01*
X108762387Y-101567849D01*
X108941852Y-101768404D01*
X109085836Y-101928895D01*
X109223467Y-102081918D01*
X109353056Y-102225619D01*
X109472915Y-102358143D01*
X109581356Y-102477637D01*
X109676691Y-102582247D01*
X109757232Y-102670118D01*
X109821291Y-102739396D01*
X109867179Y-102788227D01*
X109893208Y-102814757D01*
X109898586Y-102819200D01*
X109911368Y-102805213D01*
X109913567Y-102789566D01*
X109911470Y-102767421D01*
X109905525Y-102714960D01*
X109896130Y-102635463D01*
X109883684Y-102532214D01*
X109868586Y-102408495D01*
X109851236Y-102267589D01*
X109832033Y-102112776D01*
X109811374Y-101947340D01*
X109804989Y-101896419D01*
X109747063Y-101434884D01*
X110090380Y-101434884D01*
X110092419Y-101456066D01*
X110095945Y-101481695D01*
X110103245Y-101537841D01*
X110113929Y-101621410D01*
X110127606Y-101729309D01*
X110143887Y-101858446D01*
X110162382Y-102005727D01*
X110182701Y-102168059D01*
X110204454Y-102342350D01*
X110226664Y-102520789D01*
X110249314Y-102702200D01*
X110270886Y-102873439D01*
X110290999Y-103031584D01*
X110309272Y-103173709D01*
X110325325Y-103296891D01*
X110338776Y-103398206D01*
X110349244Y-103474730D01*
X110356347Y-103523541D01*
X110359706Y-103541713D01*
X110359729Y-103541740D01*
X110377832Y-103544679D01*
X110424276Y-103549052D01*
X110493583Y-103554511D01*
X110580276Y-103560711D01*
X110678876Y-103567303D01*
X110783904Y-103573940D01*
X110889883Y-103580276D01*
X110991334Y-103585963D01*
X111082780Y-103590654D01*
X111158741Y-103594001D01*
X111209166Y-103595575D01*
X111254733Y-103595133D01*
X111327994Y-103592804D01*
X111422849Y-103588854D01*
X111533193Y-103583553D01*
X111652926Y-103577167D01*
X111732574Y-103572582D01*
X111848418Y-103565478D01*
X111952616Y-103558645D01*
X112040543Y-103552421D01*
X112107575Y-103547145D01*
X112149088Y-103543159D01*
X112160807Y-103541137D01*
X112163987Y-103523642D01*
X112170926Y-103475455D01*
X112181242Y-103399498D01*
X112194558Y-103298692D01*
X112210493Y-103175958D01*
X112228669Y-103034219D01*
X112248706Y-102876395D01*
X112258996Y-102794627D01*
X112609528Y-102794627D01*
X112610455Y-102809296D01*
X112612935Y-102816536D01*
X112616705Y-102818965D01*
X112621355Y-102819200D01*
X112634988Y-102806913D01*
X112669238Y-102771457D01*
X112722181Y-102714935D01*
X112791892Y-102639452D01*
X112876445Y-102547114D01*
X112973915Y-102440024D01*
X113082378Y-102320286D01*
X113199909Y-102190007D01*
X113324583Y-102051290D01*
X113368320Y-102002507D01*
X113495274Y-101860537D01*
X113615661Y-101725356D01*
X113727548Y-101599174D01*
X113828996Y-101484201D01*
X113918072Y-101382646D01*
X113992840Y-101296717D01*
X114051363Y-101228624D01*
X114091707Y-101180577D01*
X114111935Y-101154784D01*
X114113837Y-101151607D01*
X114129459Y-101127870D01*
X114163823Y-101084219D01*
X114212760Y-101025678D01*
X114272099Y-100957275D01*
X114315138Y-100908944D01*
X114390204Y-100823496D01*
X114446697Y-100755008D01*
X114483931Y-100704772D01*
X114501217Y-100674086D01*
X114497870Y-100664245D01*
X114473201Y-100676545D01*
X114426524Y-100712281D01*
X114413800Y-100722936D01*
X114257953Y-100854214D01*
X114114942Y-100973165D01*
X113986597Y-101078334D01*
X113874747Y-101168264D01*
X113781223Y-101241500D01*
X113707855Y-101296586D01*
X113656471Y-101332065D01*
X113630745Y-101345962D01*
X113580475Y-101355764D01*
X113531337Y-101346139D01*
X113512942Y-101338976D01*
X113479095Y-101321452D01*
X113452771Y-101297714D01*
X113432767Y-101263371D01*
X113417883Y-101214033D01*
X113406913Y-101145309D01*
X113398657Y-101052807D01*
X113391912Y-100932137D01*
X113390018Y-100890129D01*
X113376633Y-100582293D01*
X113156499Y-100758944D01*
X113078088Y-100822065D01*
X113004666Y-100881532D01*
X112942195Y-100932489D01*
X112896633Y-100970084D01*
X112879844Y-100984249D01*
X112823322Y-101032905D01*
X112714943Y-101896419D01*
X112689933Y-102095736D01*
X112668867Y-102264066D01*
X112651479Y-102404027D01*
X112637504Y-102518237D01*
X112626676Y-102609313D01*
X112618730Y-102679872D01*
X112613400Y-102732532D01*
X112610421Y-102769911D01*
X112609528Y-102794627D01*
X112258996Y-102794627D01*
X112270225Y-102705409D01*
X112292847Y-102524180D01*
X112293268Y-102520789D01*
X112316043Y-102337820D01*
X112337765Y-102163794D01*
X112358042Y-102001804D01*
X112376486Y-101854944D01*
X112392706Y-101726306D01*
X112406313Y-101618983D01*
X112416915Y-101536070D01*
X112424125Y-101480658D01*
X112427513Y-101456066D01*
X112429533Y-101434618D01*
X112423952Y-101428283D01*
X112406967Y-101439566D01*
X112374773Y-101470975D01*
X112324706Y-101523799D01*
X112267703Y-101586672D01*
X112199228Y-101665226D01*
X112128719Y-101748502D01*
X112076797Y-101811643D01*
X111939904Y-101980954D01*
X112020097Y-101992425D01*
X112103661Y-102013058D01*
X112160389Y-102048952D01*
X112195133Y-102103415D01*
X112199089Y-102114414D01*
X112209597Y-102166084D01*
X112200346Y-102214787D01*
X112193567Y-102232184D01*
X112171945Y-102273719D01*
X112143750Y-102302316D01*
X112102962Y-102320031D01*
X112043557Y-102328921D01*
X111959513Y-102331043D01*
X111906494Y-102330211D01*
X111808713Y-102329986D01*
X111740625Y-102335197D01*
X111698366Y-102346690D01*
X111678075Y-102365312D01*
X111674833Y-102381006D01*
X111690599Y-102387098D01*
X111733243Y-102391980D01*
X111795780Y-102395072D01*
X111853177Y-102395866D01*
X111963196Y-102398707D01*
X112044867Y-102408405D01*
X112103325Y-102426726D01*
X112143702Y-102455435D01*
X112171134Y-102496296D01*
X112175810Y-102506776D01*
X112191688Y-102558892D01*
X112188270Y-102605660D01*
X112182156Y-102626518D01*
X112167479Y-102664187D01*
X112148602Y-102692442D01*
X112120880Y-102712544D01*
X112079670Y-102725755D01*
X112020326Y-102733337D01*
X111938206Y-102736551D01*
X111828664Y-102736660D01*
X111778608Y-102736145D01*
X111477966Y-102732564D01*
X111457866Y-102776678D01*
X111443304Y-102811034D01*
X111437766Y-102828463D01*
X111453784Y-102830978D01*
X111498174Y-102833146D01*
X111565445Y-102834822D01*
X111650102Y-102835860D01*
X111726177Y-102836133D01*
X111852990Y-102837168D01*
X111950512Y-102841047D01*
X112023280Y-102848932D01*
X112075828Y-102861987D01*
X112112690Y-102881373D01*
X112138402Y-102908253D01*
X112157498Y-102943790D01*
X112158876Y-102947042D01*
X112174755Y-102999159D01*
X112171337Y-103045927D01*
X112165222Y-103066785D01*
X112157197Y-103091150D01*
X112148682Y-103111601D01*
X112136843Y-103128480D01*
X112118845Y-103142130D01*
X112091854Y-103152893D01*
X112053036Y-103161112D01*
X111999557Y-103167128D01*
X111928582Y-103171285D01*
X111837278Y-103173924D01*
X111722810Y-103175389D01*
X111582343Y-103176021D01*
X111413044Y-103176163D01*
X111259966Y-103176154D01*
X111066336Y-103176156D01*
X110903738Y-103175934D01*
X110769338Y-103175145D01*
X110660302Y-103173447D01*
X110573795Y-103170498D01*
X110506983Y-103165955D01*
X110457033Y-103159475D01*
X110421109Y-103150717D01*
X110396378Y-103139337D01*
X110380005Y-103124994D01*
X110369156Y-103107345D01*
X110360996Y-103086047D01*
X110354710Y-103066785D01*
X110344265Y-103016376D01*
X110352681Y-102968840D01*
X110361056Y-102947042D01*
X110379819Y-102910763D01*
X110404834Y-102883233D01*
X110440638Y-102863290D01*
X110491763Y-102849771D01*
X110562746Y-102841515D01*
X110658121Y-102837358D01*
X110782423Y-102836138D01*
X110793756Y-102836133D01*
X110888318Y-102835707D01*
X110969861Y-102834526D01*
X111032893Y-102832737D01*
X111071920Y-102830486D01*
X111082166Y-102828463D01*
X111075886Y-102809123D01*
X111062066Y-102776678D01*
X111041966Y-102732564D01*
X110741324Y-102736145D01*
X110620082Y-102736891D01*
X110528035Y-102735012D01*
X110460539Y-102729247D01*
X110412950Y-102718335D01*
X110380623Y-102701014D01*
X110358916Y-102676023D01*
X110343183Y-102642099D01*
X110337777Y-102626518D01*
X110327332Y-102576109D01*
X110335748Y-102528574D01*
X110344123Y-102506776D01*
X110369453Y-102463088D01*
X110406632Y-102431930D01*
X110460793Y-102411537D01*
X110537071Y-102400144D01*
X110640599Y-102395985D01*
X110666756Y-102395866D01*
X110739863Y-102394552D01*
X110798461Y-102390999D01*
X110835568Y-102385789D01*
X110845100Y-102381006D01*
X110836614Y-102357481D01*
X110808583Y-102341616D01*
X110757144Y-102332564D01*
X110678436Y-102329480D01*
X110613439Y-102330211D01*
X110514850Y-102330697D01*
X110443905Y-102325441D01*
X110394581Y-102312386D01*
X110360856Y-102289475D01*
X110336708Y-102254652D01*
X110326365Y-102232184D01*
X110310986Y-102179962D01*
X110315684Y-102131557D01*
X110320843Y-102114414D01*
X110352426Y-102056570D01*
X110405194Y-102017840D01*
X110483996Y-101994917D01*
X110499835Y-101992425D01*
X110580028Y-101980954D01*
X110443135Y-101811643D01*
X110377862Y-101732543D01*
X110307010Y-101649325D01*
X110240017Y-101572949D01*
X110195226Y-101523799D01*
X110144405Y-101470199D01*
X110112527Y-101439184D01*
X110095786Y-101428248D01*
X110090380Y-101434884D01*
X109747063Y-101434884D01*
X109696610Y-101032905D01*
X109640088Y-100984249D01*
X109607588Y-100957045D01*
X109554588Y-100913555D01*
X109487049Y-100858633D01*
X109410929Y-100797132D01*
X109363433Y-100758944D01*
X109143300Y-100582293D01*
X109129915Y-100890129D01*
X109123387Y-101020032D01*
X109115706Y-101120460D01*
X109105670Y-101195802D01*
X109092076Y-101250452D01*
X109073722Y-101288799D01*
X109049405Y-101315234D01*
X109017923Y-101334149D01*
X109006990Y-101338976D01*
X108954036Y-101354900D01*
X108906503Y-101351083D01*
X108888930Y-101345878D01*
X108862204Y-101330635D01*
X108813273Y-101296287D01*
X108745764Y-101245634D01*
X108663303Y-101181476D01*
X108569516Y-101106610D01*
X108468028Y-101023837D01*
X108416249Y-100980959D01*
X108300204Y-100884663D01*
X108207454Y-100808497D01*
X108135508Y-100750636D01*
X108081874Y-100709254D01*
X108044061Y-100682527D01*
X108019579Y-100668629D01*
X108005936Y-100665734D01*
X108000642Y-100672019D01*
X108000299Y-100676186D01*
X107650602Y-100676186D01*
X107635772Y-100628440D01*
X107597262Y-100563140D01*
X107536201Y-100488639D01*
X107519278Y-100470107D01*
X107428214Y-100382011D01*
X107337293Y-100318430D01*
X107234597Y-100272230D01*
X107142521Y-100244656D01*
X107042010Y-100223129D01*
X106943361Y-100211722D01*
X106840896Y-100210916D01*
X106728939Y-100221191D01*
X106601813Y-100243026D01*
X106453840Y-100276902D01*
X106308909Y-100315115D01*
X106222666Y-100338284D01*
X106148008Y-100357311D01*
X106090997Y-100370732D01*
X106057694Y-100377080D01*
X106051980Y-100377214D01*
X106057299Y-100362561D01*
X106079543Y-100324178D01*
X106116171Y-100266049D01*
X106164642Y-100192155D01*
X106222415Y-100106481D01*
X106254965Y-100059066D01*
X106317016Y-99968718D01*
X106371737Y-99888099D01*
X106416460Y-99821220D01*
X106448517Y-99772089D01*
X106465241Y-99744714D01*
X106467012Y-99740428D01*
X106450984Y-99744560D01*
X106413679Y-99760731D01*
X106372460Y-99780801D01*
X106274009Y-99818294D01*
X106186166Y-99826345D01*
X106112721Y-99805328D01*
X106071960Y-99775656D01*
X106044295Y-99734019D01*
X106027698Y-99674437D01*
X106020140Y-99590930D01*
X106019100Y-99529393D01*
X106021172Y-99447732D01*
X106025072Y-99408500D01*
X106361956Y-99408500D01*
X106379338Y-99406680D01*
X106420601Y-99397412D01*
X106477092Y-99382655D01*
X106481635Y-99381400D01*
X106569642Y-99361306D01*
X106678438Y-99342800D01*
X106794945Y-99327602D01*
X106906084Y-99317434D01*
X106993719Y-99314000D01*
X107052442Y-99319830D01*
X107104513Y-99334417D01*
X107117153Y-99340620D01*
X107144561Y-99365019D01*
X107184711Y-99410955D01*
X107231920Y-99471546D01*
X107274511Y-99531120D01*
X107386922Y-99695000D01*
X106995168Y-99663846D01*
X106901779Y-99764089D01*
X106808391Y-99864333D01*
X106960391Y-99875109D01*
X107046204Y-99883630D01*
X107135199Y-99896389D01*
X107210480Y-99910896D01*
X107221913Y-99913663D01*
X107295065Y-99936244D01*
X107379560Y-99968450D01*
X107464881Y-100005648D01*
X107540508Y-100043204D01*
X107595923Y-100076487D01*
X107602366Y-100081225D01*
X107615505Y-100090229D01*
X107624830Y-100090722D01*
X107631133Y-100078142D01*
X107635205Y-100047928D01*
X107636442Y-100023291D01*
X107983366Y-100023291D01*
X107983366Y-100225773D01*
X108042453Y-100245273D01*
X108071449Y-100261286D01*
X108121964Y-100296080D01*
X108189765Y-100346447D01*
X108270613Y-100409178D01*
X108360274Y-100481065D01*
X108435037Y-100542625D01*
X108525228Y-100617522D01*
X108606410Y-100684470D01*
X108675112Y-100740643D01*
X108727861Y-100783215D01*
X108761185Y-100809362D01*
X108771686Y-100816538D01*
X108773601Y-100799158D01*
X108776706Y-100754110D01*
X108780623Y-100687555D01*
X108784975Y-100605657D01*
X108786560Y-100573916D01*
X108798281Y-100335233D01*
X108589790Y-100198913D01*
X108494915Y-100137301D01*
X108395629Y-100073558D01*
X108297279Y-100011047D01*
X108255856Y-99984987D01*
X109558719Y-99984987D01*
X109660599Y-99977618D01*
X109756098Y-99980763D01*
X109870678Y-100000391D01*
X109995530Y-100033775D01*
X110121842Y-100078185D01*
X110240806Y-100130896D01*
X110343319Y-100188989D01*
X110493092Y-100291070D01*
X110612824Y-100381929D01*
X110703857Y-100463072D01*
X110767534Y-100536005D01*
X110805198Y-100602235D01*
X110818191Y-100663266D01*
X110810556Y-100713051D01*
X110786054Y-100760643D01*
X110752858Y-100796577D01*
X110750729Y-100798034D01*
X110710180Y-100824603D01*
X110786267Y-100928668D01*
X110848496Y-101017286D01*
X110920640Y-101125610D01*
X110996665Y-101244089D01*
X111070539Y-101363172D01*
X111136229Y-101473310D01*
X111184934Y-101559795D01*
X111259077Y-101697390D01*
X111356727Y-101521450D01*
X111409848Y-101428709D01*
X111471824Y-101325012D01*
X111532955Y-101226434D01*
X111562418Y-101180655D01*
X111614001Y-101102921D01*
X111667202Y-101024374D01*
X111714600Y-100955896D01*
X111740064Y-100920174D01*
X111809670Y-100824549D01*
X111769162Y-100798007D01*
X111724510Y-100750103D01*
X111702988Y-100686339D01*
X111707708Y-100618173D01*
X111714892Y-100598152D01*
X111741190Y-100548588D01*
X111777728Y-100500808D01*
X111829983Y-100448956D01*
X111903433Y-100387180D01*
X111937300Y-100360462D01*
X111969654Y-100336540D01*
X113719159Y-100336540D01*
X113729929Y-100488271D01*
X113734993Y-100570452D01*
X113738778Y-100652519D01*
X113740620Y-100719466D01*
X113740699Y-100731687D01*
X113740699Y-100823372D01*
X113791189Y-100787421D01*
X113823271Y-100760243D01*
X113837777Y-100739227D01*
X113837756Y-100736611D01*
X113848711Y-100720278D01*
X113882118Y-100687058D01*
X113933498Y-100640604D01*
X113998377Y-100584569D01*
X114072277Y-100522606D01*
X114150722Y-100458369D01*
X114229236Y-100395511D01*
X114303344Y-100337684D01*
X114368567Y-100288543D01*
X114420431Y-100251740D01*
X114454459Y-100230928D01*
X114460548Y-100228339D01*
X114519633Y-100208840D01*
X114519633Y-100023886D01*
X114518769Y-99949322D01*
X114516426Y-99889142D01*
X114512980Y-99850205D01*
X114509508Y-99838933D01*
X114490109Y-99847843D01*
X114446010Y-99873075D01*
X114380837Y-99912382D01*
X114298211Y-99963515D01*
X114201757Y-100024229D01*
X114095097Y-100092274D01*
X113981855Y-100165403D01*
X113954296Y-100183333D01*
X113719159Y-100336540D01*
X111969654Y-100336540D01*
X112089863Y-100247660D01*
X112225139Y-100160856D01*
X112345615Y-100098552D01*
X112422147Y-100068824D01*
X112542078Y-100030552D01*
X112636931Y-100003498D01*
X112713086Y-99986331D01*
X112776920Y-99977720D01*
X112834813Y-99976334D01*
X112859334Y-99977618D01*
X112961213Y-99984987D01*
X112922009Y-99934151D01*
X112869663Y-99889588D01*
X112792045Y-99852890D01*
X112697112Y-99825387D01*
X112592822Y-99808407D01*
X112487132Y-99803279D01*
X112388002Y-99811330D01*
X112308758Y-99831777D01*
X112260627Y-99847510D01*
X112224948Y-99848678D01*
X112183657Y-99835409D01*
X112177131Y-99832713D01*
X112151134Y-99820709D01*
X112130110Y-99805984D01*
X112111229Y-99783579D01*
X112091661Y-99748537D01*
X112068575Y-99695901D01*
X112039143Y-99620713D01*
X112006307Y-99533459D01*
X111927276Y-99353834D01*
X111832074Y-99191423D01*
X111725019Y-99053339D01*
X111696418Y-99022954D01*
X111601779Y-98926641D01*
X111572123Y-98980620D01*
X111517624Y-99084629D01*
X111480638Y-99167493D01*
X111458679Y-99235399D01*
X111450157Y-99284122D01*
X111431816Y-99368338D01*
X111395050Y-99426470D01*
X111337094Y-99462464D01*
X111321473Y-99467729D01*
X111260344Y-99478854D01*
X111202640Y-99469716D01*
X111193804Y-99466918D01*
X111132382Y-99433592D01*
X111092577Y-99379139D01*
X111071571Y-99299406D01*
X111069776Y-99284122D01*
X111058257Y-99223851D01*
X111033743Y-99153679D01*
X110993749Y-99067420D01*
X110947809Y-98980620D01*
X110918153Y-98926641D01*
X110823514Y-99022954D01*
X110714133Y-99153716D01*
X110615507Y-99310614D01*
X110531954Y-99486536D01*
X110513625Y-99533459D01*
X110476401Y-99632207D01*
X110447978Y-99704106D01*
X110425524Y-99754112D01*
X110406211Y-99787185D01*
X110387207Y-99808280D01*
X110365684Y-99822357D01*
X110342801Y-99832713D01*
X110299517Y-99847796D01*
X110264125Y-99848458D01*
X110218563Y-99834572D01*
X110211174Y-99831777D01*
X110125263Y-99810293D01*
X110025403Y-99803224D01*
X109919550Y-99809240D01*
X109815663Y-99827012D01*
X109721699Y-99855213D01*
X109645616Y-99892514D01*
X109597923Y-99934151D01*
X109558719Y-99984987D01*
X108255856Y-99984987D01*
X108205215Y-99953129D01*
X108124784Y-99903167D01*
X108061335Y-99864522D01*
X108020216Y-99840557D01*
X108016766Y-99838683D01*
X108002683Y-99832633D01*
X107993243Y-99835788D01*
X107987519Y-99853274D01*
X107984583Y-99890216D01*
X107983509Y-99951738D01*
X107983366Y-100023291D01*
X107636442Y-100023291D01*
X107637838Y-99995517D01*
X107639824Y-99916349D01*
X107640942Y-99858922D01*
X107641777Y-99753280D01*
X107639885Y-99674096D01*
X107635384Y-99623820D01*
X107628469Y-99604923D01*
X107603361Y-99590692D01*
X107574551Y-99569448D01*
X107559138Y-99555633D01*
X107554931Y-99543388D01*
X107565921Y-99528694D01*
X107596098Y-99507530D01*
X107649453Y-99475878D01*
X107691278Y-99451882D01*
X107826231Y-99380562D01*
X107950288Y-99328827D01*
X108075984Y-99291808D01*
X108137967Y-99278349D01*
X108186255Y-99267834D01*
X108212483Y-99258252D01*
X108214592Y-99247946D01*
X108190519Y-99235254D01*
X108138205Y-99218519D01*
X108055589Y-99196082D01*
X108026290Y-99188433D01*
X107889194Y-99156431D01*
X107756684Y-99133857D01*
X107620832Y-99120113D01*
X107473711Y-99114599D01*
X107307394Y-99116719D01*
X107161381Y-99123171D01*
X107058145Y-99128476D01*
X106967010Y-99132570D01*
X106893164Y-99135269D01*
X106841794Y-99136387D01*
X106818089Y-99135741D01*
X106817151Y-99135415D01*
X106821083Y-99118530D01*
X106835606Y-99074710D01*
X106859058Y-99008592D01*
X106889783Y-98924816D01*
X106926120Y-98828019D01*
X106942271Y-98785607D01*
X106949534Y-98767265D01*
X107310008Y-98767265D01*
X107540854Y-98776687D01*
X107840069Y-98804864D01*
X108129063Y-98864942D01*
X108410689Y-98957624D01*
X108589869Y-99035080D01*
X108720154Y-99099049D01*
X108820828Y-99154500D01*
X108894335Y-99203846D01*
X108943117Y-99249502D01*
X108969618Y-99293884D01*
X108976280Y-99339406D01*
X108965546Y-99388482D01*
X108960490Y-99401447D01*
X108936754Y-99446413D01*
X108910984Y-99479334D01*
X108909193Y-99480893D01*
X108883895Y-99490773D01*
X108831103Y-99503790D01*
X108756904Y-99518701D01*
X108667386Y-99534262D01*
X108589070Y-99546308D01*
X108474238Y-99563330D01*
X108389762Y-99576827D01*
X108332402Y-99587541D01*
X108298917Y-99596212D01*
X108286066Y-99603581D01*
X108290608Y-99610388D01*
X108296633Y-99613144D01*
X108316851Y-99624459D01*
X108359230Y-99650286D01*
X108417494Y-99686746D01*
X108482900Y-99728371D01*
X108549647Y-99770755D01*
X108605714Y-99805570D01*
X108645157Y-99829180D01*
X108661981Y-99837945D01*
X108678941Y-99827519D01*
X108707586Y-99800705D01*
X108711753Y-99796330D01*
X108748777Y-99765322D01*
X108810253Y-99723059D01*
X108890108Y-99672956D01*
X108982268Y-99618430D01*
X109080663Y-99562896D01*
X109179218Y-99509770D01*
X109271862Y-99462467D01*
X109352521Y-99424403D01*
X109415123Y-99398993D01*
X109422699Y-99396446D01*
X109473211Y-99378716D01*
X109492275Y-99363999D01*
X109480850Y-99345460D01*
X109439890Y-99316264D01*
X109434423Y-99312638D01*
X109310916Y-99211727D01*
X109204882Y-99086768D01*
X109122195Y-98945534D01*
X109083768Y-98848739D01*
X109061444Y-98791077D01*
X109035219Y-98737675D01*
X109031534Y-98731402D01*
X109013293Y-98694259D01*
X109008827Y-98669429D01*
X109009519Y-98667804D01*
X109009136Y-98645967D01*
X109000252Y-98601220D01*
X108984751Y-98542890D01*
X108983242Y-98537782D01*
X108965132Y-98464488D01*
X108961414Y-98437700D01*
X109456725Y-98437700D01*
X109457542Y-98518662D01*
X109461048Y-98575432D01*
X109469093Y-98617674D01*
X109483523Y-98655051D01*
X109506188Y-98697227D01*
X109506446Y-98697677D01*
X109569787Y-98785634D01*
X109657424Y-98875771D01*
X109761118Y-98960877D01*
X109872627Y-99033742D01*
X109918742Y-99058429D01*
X110000485Y-99097288D01*
X110058005Y-99119515D01*
X110095892Y-99126270D01*
X110118738Y-99118715D01*
X110125477Y-99110728D01*
X110123156Y-99088203D01*
X110107298Y-99042505D01*
X110080901Y-98980019D01*
X110046960Y-98907131D01*
X110008471Y-98830225D01*
X109968430Y-98755686D01*
X109929833Y-98689899D01*
X109928299Y-98687466D01*
X112318617Y-98687466D01*
X112329355Y-98734045D01*
X112357727Y-98795236D01*
X112397971Y-98861167D01*
X112444323Y-98921966D01*
X112473301Y-98952471D01*
X112531356Y-98999431D01*
X112595695Y-99039643D01*
X112655904Y-99067373D01*
X112699299Y-99076933D01*
X112735201Y-99069234D01*
X112783859Y-99049947D01*
X112801150Y-99041371D01*
X112858832Y-99005279D01*
X112915478Y-98961362D01*
X112925298Y-98952471D01*
X112972545Y-98899708D01*
X113017220Y-98835756D01*
X113053559Y-98770486D01*
X113075800Y-98713771D01*
X113079982Y-98687466D01*
X113069244Y-98640888D01*
X113040872Y-98579697D01*
X113000628Y-98513765D01*
X112954276Y-98452967D01*
X112925298Y-98422461D01*
X112867243Y-98375502D01*
X112802904Y-98335289D01*
X112742695Y-98307559D01*
X112699299Y-98298000D01*
X112652404Y-98308839D01*
X112591623Y-98337532D01*
X112527373Y-98378343D01*
X112473301Y-98422461D01*
X112426054Y-98475224D01*
X112381379Y-98539177D01*
X112345040Y-98604446D01*
X112322799Y-98661161D01*
X112318617Y-98687466D01*
X109928299Y-98687466D01*
X109922708Y-98678601D01*
X109869408Y-98603970D01*
X109804675Y-98526706D01*
X109733570Y-98451507D01*
X109661154Y-98383073D01*
X109592491Y-98326103D01*
X109532640Y-98285294D01*
X109486664Y-98265347D01*
X109476250Y-98264133D01*
X109466312Y-98277644D01*
X109459982Y-98319603D01*
X109457021Y-98392146D01*
X109456725Y-98437700D01*
X108961414Y-98437700D01*
X108954200Y-98385725D01*
X108949217Y-98290462D01*
X108948566Y-98226734D01*
X108947021Y-98143499D01*
X108942834Y-98068002D01*
X108936681Y-98009500D01*
X108930626Y-97980658D01*
X108923788Y-97913888D01*
X108945615Y-97850195D01*
X108991554Y-97799245D01*
X109024999Y-97780344D01*
X109063305Y-97767023D01*
X109099433Y-97763548D01*
X109146317Y-97769868D01*
X109190708Y-97779677D01*
X109268537Y-97795507D01*
X109352985Y-97809023D01*
X109397299Y-97814379D01*
X109468945Y-97824462D01*
X109540764Y-97839282D01*
X109575099Y-97848741D01*
X109637622Y-97868308D01*
X109710318Y-97890477D01*
X109744433Y-97900672D01*
X109815588Y-97927120D01*
X109889034Y-97962498D01*
X109917939Y-97979380D01*
X109997415Y-98040217D01*
X110083861Y-98123651D01*
X110170061Y-98221527D01*
X110248797Y-98325691D01*
X110309265Y-98421534D01*
X110363739Y-98511261D01*
X110410928Y-98571571D01*
X110453907Y-98605292D01*
X110495753Y-98615248D01*
X110516882Y-98612282D01*
X110547329Y-98596524D01*
X110593997Y-98563099D01*
X110648854Y-98517977D01*
X110674165Y-98495362D01*
X110738857Y-98440442D01*
X110809806Y-98390193D01*
X110895211Y-98339366D01*
X111003273Y-98282713D01*
X111017400Y-98275649D01*
X111097908Y-98236035D01*
X111167987Y-98202479D01*
X111221933Y-98177639D01*
X111254041Y-98164175D01*
X111259966Y-98162533D01*
X111279830Y-98169733D01*
X111324231Y-98189567D01*
X111387487Y-98219383D01*
X111463914Y-98256529D01*
X111503926Y-98276343D01*
X111616795Y-98334925D01*
X111705071Y-98386638D01*
X111776022Y-98436099D01*
X111836780Y-98487798D01*
X111941163Y-98585444D01*
X111949831Y-98477465D01*
X111975216Y-98348339D01*
X112027538Y-98226160D01*
X112102369Y-98118527D01*
X112195282Y-98033042D01*
X112217429Y-98018139D01*
X112264981Y-97993735D01*
X112331205Y-97966667D01*
X112401974Y-97942697D01*
X112403685Y-97942185D01*
X112469831Y-97924798D01*
X112557661Y-97905001D01*
X112659942Y-97884089D01*
X112769441Y-97863355D01*
X112878922Y-97844094D01*
X112981153Y-97827598D01*
X113068898Y-97815162D01*
X113134925Y-97808079D01*
X113159955Y-97806933D01*
X113217725Y-97802911D01*
X113281687Y-97792476D01*
X113341346Y-97778076D01*
X113386205Y-97762160D01*
X113404435Y-97749911D01*
X113424810Y-97747250D01*
X113463229Y-97758767D01*
X113480635Y-97766563D01*
X113542197Y-97811093D01*
X113582429Y-97869976D01*
X113597044Y-97934874D01*
X113589846Y-97979110D01*
X113583049Y-98015331D01*
X113577378Y-98077420D01*
X113573341Y-98157385D01*
X113571446Y-98247231D01*
X113571366Y-98269490D01*
X113570427Y-98374429D01*
X113566756Y-98456784D01*
X113559076Y-98527807D01*
X113546108Y-98598748D01*
X113526574Y-98680859D01*
X113523077Y-98694530D01*
X113501234Y-98779900D01*
X113480291Y-98862582D01*
X113463031Y-98931550D01*
X113454364Y-98966866D01*
X113421912Y-99059409D01*
X113371493Y-99153877D01*
X113309382Y-99241362D01*
X113241852Y-99312958D01*
X113178939Y-99357864D01*
X113145997Y-99378431D01*
X113131772Y-99394340D01*
X113131758Y-99394868D01*
X113146343Y-99406835D01*
X113185178Y-99429391D01*
X113241764Y-99458928D01*
X113288392Y-99481796D01*
X113458100Y-99566424D01*
X113597379Y-99643213D01*
X113705514Y-99711742D01*
X113781790Y-99771590D01*
X113785157Y-99774725D01*
X113838081Y-99824554D01*
X114030093Y-99704743D01*
X114099033Y-99661016D01*
X114154546Y-99624431D01*
X114191915Y-99598205D01*
X114206424Y-99585557D01*
X114205769Y-99584887D01*
X114184266Y-99582509D01*
X114135231Y-99575961D01*
X114064627Y-99566075D01*
X113978418Y-99553680D01*
X113913097Y-99544120D01*
X113800150Y-99526740D01*
X113715712Y-99511120D01*
X113654657Y-99495052D01*
X113611862Y-99476326D01*
X113582201Y-99452734D01*
X113560550Y-99422067D01*
X113542795Y-99384514D01*
X113527941Y-99334267D01*
X113529936Y-99288137D01*
X113551214Y-99243717D01*
X113594209Y-99198599D01*
X113661354Y-99150376D01*
X113755082Y-99096640D01*
X113877828Y-99034983D01*
X113913130Y-99018146D01*
X114191517Y-98904048D01*
X114475429Y-98823009D01*
X114767721Y-98774324D01*
X114962145Y-98759754D01*
X115192991Y-98750331D01*
X115093128Y-98505573D01*
X114945372Y-98156836D01*
X114796120Y-97830855D01*
X114646447Y-97529673D01*
X114497428Y-97255329D01*
X114350135Y-97009863D01*
X114205643Y-96795316D01*
X114160795Y-96734352D01*
X114082967Y-96637808D01*
X113995199Y-96540273D01*
X113903760Y-96447877D01*
X113814921Y-96366749D01*
X113734950Y-96303020D01*
X113688475Y-96272543D01*
X113621604Y-96234255D01*
X113551002Y-96194067D01*
X113515272Y-96173841D01*
X113447322Y-96127869D01*
X113403045Y-96076180D01*
X113378246Y-96010701D01*
X113368731Y-95923362D01*
X113368229Y-95890818D01*
X113368706Y-95825544D01*
X113371592Y-95787551D01*
X113378948Y-95770255D01*
X113392840Y-95767071D01*
X113406266Y-95769432D01*
X113414470Y-95766476D01*
X113396467Y-95749346D01*
X113355688Y-95720257D01*
X113295564Y-95681422D01*
X113219526Y-95635057D01*
X113131004Y-95583376D01*
X113033430Y-95528593D01*
X113031359Y-95527453D01*
X112928288Y-95473257D01*
X112803298Y-95411468D01*
X112665829Y-95346426D01*
X112525323Y-95282473D01*
X112391219Y-95223949D01*
X112272958Y-95175195D01*
X112225166Y-95156752D01*
X112159150Y-95132018D01*
X112077356Y-95101345D01*
X111995711Y-95070705D01*
X111982711Y-95065824D01*
X111916105Y-95042032D01*
X111859245Y-95023934D01*
X111821216Y-95014338D01*
X111813378Y-95013507D01*
X111792867Y-95026873D01*
X111757389Y-95062974D01*
X111710988Y-95116516D01*
X111657707Y-95182208D01*
X111601593Y-95254757D01*
X111546688Y-95328871D01*
X111497037Y-95399258D01*
X111456686Y-95460624D01*
X111429678Y-95507679D01*
X111421902Y-95525766D01*
X111386195Y-95589763D01*
X111333878Y-95630036D01*
X111272509Y-95646585D01*
X111209646Y-95639411D01*
X111152848Y-95608514D01*
X111109673Y-95553892D01*
X111098030Y-95525766D01*
X111080234Y-95489008D01*
X111046837Y-95434982D01*
X111001881Y-95368980D01*
X110949412Y-95296296D01*
X110893475Y-95222220D01*
X110838113Y-95152046D01*
X110787371Y-95091065D01*
X110745293Y-95044571D01*
X110715925Y-95017855D01*
X110706555Y-95013507D01*
X110678475Y-95018969D01*
X110627973Y-95034042D01*
X110564134Y-95055919D01*
X110537221Y-95065824D01*
X110457227Y-95095848D01*
X110374315Y-95126944D01*
X110304413Y-95153140D01*
X110294766Y-95156752D01*
X110187311Y-95199360D01*
X110059538Y-95253795D01*
X109920889Y-95315717D01*
X109780804Y-95380784D01*
X109648723Y-95444656D01*
X109534088Y-95502991D01*
X109488573Y-95527453D01*
X109390849Y-95582276D01*
X109302108Y-95634043D01*
X109225779Y-95680540D01*
X109165295Y-95719551D01*
X109124085Y-95748862D01*
X109105580Y-95766260D01*
X109113212Y-95769529D01*
X109113666Y-95769432D01*
X109132880Y-95766997D01*
X109144225Y-95774418D01*
X109149765Y-95798279D01*
X109151563Y-95845165D01*
X109151703Y-95890818D01*
X109146050Y-95986514D01*
X109126404Y-96057863D01*
X109088570Y-96112938D01*
X109028356Y-96159810D01*
X109004661Y-96173841D01*
X108941800Y-96209469D01*
X108870197Y-96250284D01*
X108831328Y-96272543D01*
X108764378Y-96318495D01*
X108683572Y-96385783D01*
X108595042Y-96468403D01*
X108504923Y-96560353D01*
X108419348Y-96655630D01*
X108344449Y-96748232D01*
X108342146Y-96751285D01*
X108198442Y-96956208D01*
X108051631Y-97192709D01*
X107902783Y-97458756D01*
X107752967Y-97752319D01*
X107603251Y-98071368D01*
X107454706Y-98413870D01*
X107409871Y-98522506D01*
X107310008Y-98767265D01*
X106949534Y-98767265D01*
X107096236Y-98396822D01*
X107251389Y-98032419D01*
X107407088Y-97693578D01*
X107562694Y-97381483D01*
X107717569Y-97097316D01*
X107871071Y-96842259D01*
X108022562Y-96617495D01*
X108171403Y-96424205D01*
X108293815Y-96287131D01*
X108412490Y-96164330D01*
X108252220Y-96017186D01*
X108367560Y-95906308D01*
X108548871Y-95743587D01*
X108745294Y-95590351D01*
X108961339Y-95443566D01*
X109201514Y-95300194D01*
X109470326Y-95157198D01*
X109507366Y-95138600D01*
X109733627Y-95030338D01*
X109970915Y-94925289D01*
X110210034Y-94827191D01*
X110441791Y-94739779D01*
X110656988Y-94666791D01*
X110705735Y-94651657D01*
X110845770Y-94609070D01*
X111045462Y-94866035D01*
X111108229Y-94945856D01*
X111164459Y-95015576D01*
X111210713Y-95071074D01*
X111243550Y-95108229D01*
X111259529Y-95122918D01*
X111259966Y-95123000D01*
X111274488Y-95110233D01*
X111306136Y-95074680D01*
X111351468Y-95020463D01*
X111407045Y-94951702D01*
X111469426Y-94872520D01*
X111474470Y-94866035D01*
X111674163Y-94609070D01*
X111814198Y-94651657D01*
X112023983Y-94720577D01*
X112252561Y-94804828D01*
X112490738Y-94900673D01*
X112729316Y-95004376D01*
X112959102Y-95112202D01*
X113012566Y-95138600D01*
X113274669Y-95275730D01*
X113508790Y-95412222D01*
X113720526Y-95551841D01*
X113915475Y-95698349D01*
X114099233Y-95855510D01*
X114153400Y-95905660D01*
X114269766Y-96015300D01*
X114107442Y-96164330D01*
X114226118Y-96287131D01*
X114372239Y-96453090D01*
X114521548Y-96651517D01*
X114673406Y-96881228D01*
X114827172Y-97141042D01*
X114982207Y-97429776D01*
X115137871Y-97746248D01*
X115293526Y-98089275D01*
X115448531Y-98457676D01*
X115577662Y-98785607D01*
X115615822Y-98886404D01*
X115649051Y-98976085D01*
X115675688Y-99050011D01*
X115694076Y-99103542D01*
X115702555Y-99132042D01*
X115702781Y-99135415D01*
X115684742Y-99136406D01*
X115638083Y-99135599D01*
X115567990Y-99133178D01*
X115479652Y-99129327D01*
X115378257Y-99124231D01*
X115358551Y-99123171D01*
X115172114Y-99115585D01*
X115010965Y-99115169D01*
X114867170Y-99122522D01*
X114732794Y-99138241D01*
X114599905Y-99162927D01*
X114493479Y-99188452D01*
X114410577Y-99210322D01*
X114356532Y-99225747D01*
X114327311Y-99236347D01*
X114318879Y-99243744D01*
X114327201Y-99249557D01*
X114335176Y-99252043D01*
X114361793Y-99259395D01*
X114411615Y-99273102D01*
X114475185Y-99290564D01*
X114494233Y-99295792D01*
X114552690Y-99315470D01*
X114625281Y-99345242D01*
X114705089Y-99381623D01*
X114785193Y-99421126D01*
X114858676Y-99460266D01*
X114918618Y-99495558D01*
X114958101Y-99523516D01*
X114968836Y-99534894D01*
X114962645Y-99553098D01*
X114934263Y-99576647D01*
X114927237Y-99580857D01*
X114875447Y-99610333D01*
X114875340Y-99841129D01*
X114875233Y-100071926D01*
X115023400Y-99997572D01*
X115162819Y-99935534D01*
X115298418Y-99893423D01*
X115444079Y-99867510D01*
X115542211Y-99858176D01*
X115693815Y-99847400D01*
X115524861Y-99663838D01*
X115325630Y-99679419D01*
X115247366Y-99684981D01*
X115182410Y-99688543D01*
X115137622Y-99689800D01*
X115119915Y-99688509D01*
X115122918Y-99678066D01*
X115129233Y-99678066D01*
X115137700Y-99686533D01*
X115146166Y-99678066D01*
X115137700Y-99669600D01*
X115129233Y-99678066D01*
X115122918Y-99678066D01*
X115124839Y-99671390D01*
X115146536Y-99634051D01*
X115180525Y-99582641D01*
X115222326Y-99523308D01*
X115267457Y-99462198D01*
X115311436Y-99405460D01*
X115349783Y-99359241D01*
X115378016Y-99329689D01*
X115385846Y-99323687D01*
X115431025Y-99307109D01*
X115489748Y-99297801D01*
X115509280Y-99297066D01*
X115603525Y-99300961D01*
X115715389Y-99311498D01*
X115831796Y-99326956D01*
X115939666Y-99345613D01*
X116021364Y-99364466D01*
X116078638Y-99379552D01*
X116121322Y-99389293D01*
X116140766Y-99391730D01*
X116141043Y-99391567D01*
X116139334Y-99372964D01*
X116128353Y-99327765D01*
X116109785Y-99261418D01*
X116085319Y-99179373D01*
X116056640Y-99087078D01*
X116025434Y-98989982D01*
X115993388Y-98893532D01*
X115962188Y-98803179D01*
X115939519Y-98740428D01*
X115839612Y-98481409D01*
X115733991Y-98227269D01*
X115624646Y-97982026D01*
X115513564Y-97749694D01*
X115402734Y-97534290D01*
X115294143Y-97339828D01*
X115189781Y-97170326D01*
X115094410Y-97033477D01*
X115048968Y-96981536D01*
X114987016Y-96921596D01*
X114920096Y-96864632D01*
X114902918Y-96851370D01*
X114811586Y-96773071D01*
X114753417Y-96700350D01*
X114728260Y-96632701D01*
X114735961Y-96569616D01*
X114776369Y-96510589D01*
X114795265Y-96493244D01*
X114839212Y-96463250D01*
X114883010Y-96454579D01*
X114916787Y-96457049D01*
X114969771Y-96465386D01*
X115013143Y-96475236D01*
X115019166Y-96477131D01*
X115019023Y-96470158D01*
X114997193Y-96443181D01*
X114956794Y-96399256D01*
X114900945Y-96341437D01*
X114832764Y-96272780D01*
X114755369Y-96196338D01*
X114671877Y-96115168D01*
X114585408Y-96032323D01*
X114499079Y-95950859D01*
X114416008Y-95873831D01*
X114339313Y-95804292D01*
X114272593Y-95745711D01*
X113928417Y-95463205D01*
X113591753Y-95213217D01*
X113261965Y-94995389D01*
X112938420Y-94809366D01*
X112620485Y-94654792D01*
X112307526Y-94531311D01*
X111998910Y-94438567D01*
X111907686Y-94416820D01*
X111853186Y-94405171D01*
X111802599Y-94396094D01*
X111750652Y-94389274D01*
X111692076Y-94384393D01*
X111621599Y-94381135D01*
X111533950Y-94379185D01*
X111423858Y-94378224D01*
X111286052Y-94377937D01*
X111259966Y-94377933D01*
X111117018Y-94378138D01*
X111002664Y-94378964D01*
X110911634Y-94380727D01*
X110838656Y-94383745D01*
X110778459Y-94388332D01*
X110725772Y-94394807D01*
X110675324Y-94403485D01*
X110621845Y-94414682D01*
X110612247Y-94416820D01*
X110305379Y-94500281D01*
X109994413Y-94614242D01*
X109678687Y-94759072D01*
X109357541Y-94935145D01*
X109030313Y-95142830D01*
X108696345Y-95382499D01*
X108354974Y-95654523D01*
X108247272Y-95745711D01*
X108180894Y-95804010D01*
X108104663Y-95873180D01*
X108021677Y-95950182D01*
X107935035Y-96031978D01*
X107847837Y-96115531D01*
X107763180Y-96197804D01*
X107684165Y-96275758D01*
X107613890Y-96346355D01*
X107555453Y-96406559D01*
X107511954Y-96453330D01*
X107486492Y-96483633D01*
X107482165Y-96494428D01*
X107483833Y-96494078D01*
X107522655Y-96484398D01*
X107575273Y-96475415D01*
X107586212Y-96473983D01*
X107639254Y-96472877D01*
X107680700Y-96489594D01*
X107707734Y-96510178D01*
X107758134Y-96569063D01*
X107775187Y-96632380D01*
X107759043Y-96699562D01*
X107709852Y-96770041D01*
X107627762Y-96843250D01*
X107618281Y-96850309D01*
X107557203Y-96898027D01*
X107499452Y-96947989D01*
X107456979Y-96989823D01*
X107455167Y-96991861D01*
X107379789Y-97087674D01*
X107296070Y-97212181D01*
X107205835Y-97361769D01*
X107110908Y-97532827D01*
X107013113Y-97721743D01*
X106914274Y-97924906D01*
X106816216Y-98138702D01*
X106720762Y-98359521D01*
X106629737Y-98583751D01*
X106563480Y-98757362D01*
X106534111Y-98839175D01*
X106502580Y-98931336D01*
X106470574Y-99028394D01*
X106439779Y-99124903D01*
X106411881Y-99215412D01*
X106388567Y-99294473D01*
X106371523Y-99356638D01*
X106362435Y-99396457D01*
X106361956Y-99408500D01*
X106025072Y-99408500D01*
X106028605Y-99372978D01*
X106043226Y-99293491D01*
X106066860Y-99197629D01*
X106076993Y-99160253D01*
X106143384Y-98939088D01*
X106225821Y-98697361D01*
X106321299Y-98442507D01*
X106426815Y-98181965D01*
X106539362Y-97923171D01*
X106655938Y-97673562D01*
X106765661Y-97455566D01*
X106805893Y-97377535D01*
X106838812Y-97311303D01*
X106861952Y-97262028D01*
X106872846Y-97234871D01*
X106872918Y-97231200D01*
X106853792Y-97240655D01*
X106821509Y-97263562D01*
X106819587Y-97265066D01*
X106755998Y-97296610D01*
X106690199Y-97295331D01*
X106626132Y-97261710D01*
X106601066Y-97238460D01*
X106567847Y-97198727D01*
X106548663Y-97160977D01*
X106544890Y-97120859D01*
X106557905Y-97074017D01*
X106589082Y-97016099D01*
X106639798Y-96942752D01*
X106711429Y-96849620D01*
X106732238Y-96823399D01*
X106883922Y-96640332D01*
X107057137Y-96443982D01*
X107245770Y-96240634D01*
X107443712Y-96036574D01*
X107644852Y-95838087D01*
X107843079Y-95651457D01*
X108032282Y-95482972D01*
X108051099Y-95466826D01*
X108408579Y-95175140D01*
X108759936Y-94916505D01*
X109105530Y-94690731D01*
X109445720Y-94497626D01*
X109780864Y-94337002D01*
X110111323Y-94208668D01*
X110437456Y-94112433D01*
X110720172Y-94054310D01*
X110838791Y-94039712D01*
X110981959Y-94029643D01*
X111140658Y-94024104D01*
X111305875Y-94023094D01*
X111468594Y-94026614D01*
D15*
X99968000Y-68636000D02*
X86468000Y-68636000D01*
X99968000Y-75636000D02*
X86468000Y-75636000D01*
X99968000Y-75636000D02*
X99968000Y-68636000D01*
X86468000Y-75636000D02*
X86468000Y-68636000D01*
X84787000Y-95036300D02*
X83537000Y-95036300D01*
X84787000Y-96286300D02*
X84787000Y-95036300D01*
X80377000Y-98396300D02*
X80877000Y-98396300D01*
X80877000Y-98496300D02*
X80377000Y-98496300D01*
X80877000Y-98296300D02*
X80877000Y-98496300D01*
X80377000Y-98296300D02*
X80877000Y-98296300D01*
X81877000Y-101456300D02*
X81877000Y-100846300D01*
X83177000Y-101456300D02*
X83177000Y-100846300D01*
X81877000Y-95336300D02*
X81877000Y-95946300D01*
X83177000Y-95336300D02*
X83177000Y-95946300D01*
X83877000Y-98896300D02*
X84487000Y-98896300D01*
X83877000Y-100846300D02*
X83877000Y-98896300D01*
X80377000Y-100846300D02*
X83877000Y-100846300D01*
X80377000Y-95946300D02*
X80377000Y-100846300D01*
X83877000Y-95946300D02*
X80377000Y-95946300D01*
X83877000Y-97896300D02*
X83877000Y-95946300D01*
X84487000Y-97896300D02*
X83877000Y-97896300D01*
X84587000Y-97096300D02*
X84587000Y-96796300D01*
X84687000Y-96796300D02*
X84487000Y-96796300D01*
X84687000Y-97096300D02*
X84687000Y-96796300D01*
X84487000Y-97096300D02*
X84687000Y-97096300D01*
X84487000Y-101456300D02*
X84487000Y-95336300D01*
X79767000Y-101456300D02*
X84487000Y-101456300D01*
X79767000Y-95336300D02*
X79767000Y-101456300D01*
X84487000Y-95336300D02*
X79767000Y-95336300D01*
X124913000Y-77738000D02*
X126153000Y-77738000D01*
X124913000Y-76498000D02*
X124913000Y-77738000D01*
X136874000Y-68878000D02*
X136874000Y-77498000D01*
X125153000Y-68878000D02*
X125153000Y-77498000D01*
X125153000Y-77498000D02*
X136874000Y-77498000D01*
X125153000Y-68878000D02*
X136874000Y-68878000D01*
X108077000Y-113369333D02*
X106807000Y-113369333D01*
X106877000Y-112016000D02*
X106877000Y-113369333D01*
X106997000Y-112016000D02*
X106997000Y-113369333D01*
X107117000Y-112016000D02*
X107117000Y-113369333D01*
X107237000Y-112016000D02*
X107237000Y-113369333D01*
X107357000Y-112016000D02*
X107357000Y-113369333D01*
X107477000Y-112016000D02*
X107477000Y-113369333D01*
X107597000Y-112016000D02*
X107597000Y-113369333D01*
X107717000Y-112016000D02*
X107717000Y-113369333D01*
X107837000Y-112016000D02*
X107837000Y-113369333D01*
X107957000Y-112016000D02*
X107957000Y-113369333D01*
X108077000Y-116076000D02*
X108077000Y-112016000D01*
X106807000Y-116076000D02*
X108077000Y-116076000D01*
X106807000Y-112016000D02*
X106807000Y-116076000D01*
X108077000Y-112016000D02*
X106807000Y-112016000D01*
X110617000Y-113369333D02*
X109347000Y-113369333D01*
X109417000Y-112016000D02*
X109417000Y-113369333D01*
X109537000Y-112016000D02*
X109537000Y-113369333D01*
X109657000Y-112016000D02*
X109657000Y-113369333D01*
X109777000Y-112016000D02*
X109777000Y-113369333D01*
X109897000Y-112016000D02*
X109897000Y-113369333D01*
X110017000Y-112016000D02*
X110017000Y-113369333D01*
X110137000Y-112016000D02*
X110137000Y-113369333D01*
X110257000Y-112016000D02*
X110257000Y-113369333D01*
X110377000Y-112016000D02*
X110377000Y-113369333D01*
X110497000Y-112016000D02*
X110497000Y-113369333D01*
X110617000Y-116076000D02*
X110617000Y-112016000D01*
X109347000Y-116076000D02*
X110617000Y-116076000D01*
X109347000Y-112016000D02*
X109347000Y-116076000D01*
X110617000Y-112016000D02*
X109347000Y-112016000D01*
X113157000Y-113369333D02*
X111887000Y-113369333D01*
X111957000Y-112016000D02*
X111957000Y-113369333D01*
X112077000Y-112016000D02*
X112077000Y-113369333D01*
X112197000Y-112016000D02*
X112197000Y-113369333D01*
X112317000Y-112016000D02*
X112317000Y-113369333D01*
X112437000Y-112016000D02*
X112437000Y-113369333D01*
X112557000Y-112016000D02*
X112557000Y-113369333D01*
X112677000Y-112016000D02*
X112677000Y-113369333D01*
X112797000Y-112016000D02*
X112797000Y-113369333D01*
X112917000Y-112016000D02*
X112917000Y-113369333D01*
X113037000Y-112016000D02*
X113037000Y-113369333D01*
X113157000Y-116076000D02*
X113157000Y-112016000D01*
X111887000Y-116076000D02*
X113157000Y-116076000D01*
X111887000Y-112016000D02*
X111887000Y-116076000D01*
X113157000Y-112016000D02*
X111887000Y-112016000D01*
X115697000Y-113369333D02*
X114427000Y-113369333D01*
X114497000Y-112016000D02*
X114497000Y-113369333D01*
X114617000Y-112016000D02*
X114617000Y-113369333D01*
X114737000Y-112016000D02*
X114737000Y-113369333D01*
X114857000Y-112016000D02*
X114857000Y-113369333D01*
X114977000Y-112016000D02*
X114977000Y-113369333D01*
X115097000Y-112016000D02*
X115097000Y-113369333D01*
X115217000Y-112016000D02*
X115217000Y-113369333D01*
X115337000Y-112016000D02*
X115337000Y-113369333D01*
X115457000Y-112016000D02*
X115457000Y-113369333D01*
X115577000Y-112016000D02*
X115577000Y-113369333D01*
X115697000Y-116076000D02*
X115697000Y-112016000D01*
X114427000Y-116076000D02*
X115697000Y-116076000D01*
X114427000Y-112016000D02*
X114427000Y-116076000D01*
X115697000Y-112016000D02*
X114427000Y-112016000D01*
X117722000Y-108856000D02*
X116339000Y-108856000D01*
X117722000Y-108856000D02*
X117722000Y-110240000D01*
X117482000Y-118996000D02*
X105022000Y-118996000D01*
X117482000Y-109096000D02*
X105022000Y-109096000D01*
X105022000Y-109096000D02*
X105022000Y-118996000D01*
X117482000Y-109096000D02*
X117482000Y-118996000D01*
X81788000Y-114106000D02*
X80458000Y-114106000D01*
X80458000Y-114106000D02*
X80458000Y-112776000D01*
X80458000Y-111506000D02*
X80458000Y-103826000D01*
X83118000Y-103826000D02*
X80458000Y-103826000D01*
X83118000Y-111506000D02*
X83118000Y-103826000D01*
X83118000Y-111506000D02*
X80458000Y-111506000D01*
X140716000Y-103826000D02*
X142046000Y-103826000D01*
X142046000Y-103826000D02*
X142046000Y-105156000D01*
X142046000Y-106426000D02*
X142046000Y-114106000D01*
X139386000Y-114106000D02*
X142046000Y-114106000D01*
X139386000Y-106426000D02*
X139386000Y-114106000D01*
X139386000Y-106426000D02*
X142046000Y-106426000D01*
X140716000Y-82744000D02*
X142046000Y-82744000D01*
X142046000Y-82744000D02*
X142046000Y-84074000D01*
X142046000Y-85344000D02*
X142046000Y-93024000D01*
X139386000Y-93024000D02*
X142046000Y-93024000D01*
X139386000Y-85344000D02*
X139386000Y-93024000D01*
X139386000Y-85344000D02*
X142046000Y-85344000D01*
X81788000Y-93024000D02*
X80458000Y-93024000D01*
X80458000Y-93024000D02*
X80458000Y-91694000D01*
X80458000Y-90424000D02*
X80458000Y-82744000D01*
X83118000Y-82744000D02*
X80458000Y-82744000D01*
X83118000Y-90424000D02*
X83118000Y-82744000D01*
X83118000Y-90424000D02*
X80458000Y-90424000D01*
D12*
X101291500Y-75946000D02*
G75*
G03X101291500Y-75946000I-200000J0D01*
G01*
D17*
X120521500Y-118871000D02*
X101981500Y-118871000D01*
X120521500Y-68581000D02*
X120521500Y-118871000D01*
X101981500Y-68581000D02*
X120521500Y-68581000D01*
X101981500Y-118871000D02*
X101981500Y-68581000D01*
D11*
X90558738Y-81986380D02*
X90558738Y-80986380D01*
X90796833Y-80986380D01*
X90939690Y-81034000D01*
X91034928Y-81129238D01*
X91082547Y-81224476D01*
X91130166Y-81414952D01*
X91130166Y-81557809D01*
X91082547Y-81748285D01*
X91034928Y-81843523D01*
X90939690Y-81938761D01*
X90796833Y-81986380D01*
X90558738Y-81986380D01*
X91558738Y-81986380D02*
X91558738Y-81319714D01*
X91558738Y-81510190D02*
X91606357Y-81414952D01*
X91653976Y-81367333D01*
X91749214Y-81319714D01*
X91844452Y-81319714D01*
X92177785Y-81986380D02*
X92177785Y-81319714D01*
X92177785Y-80986380D02*
X92130166Y-81034000D01*
X92177785Y-81081619D01*
X92225404Y-81034000D01*
X92177785Y-80986380D01*
X92177785Y-81081619D01*
X92558738Y-81319714D02*
X92796833Y-81986380D01*
X93034928Y-81319714D01*
X93796833Y-81938761D02*
X93701595Y-81986380D01*
X93511119Y-81986380D01*
X93415880Y-81938761D01*
X93368261Y-81843523D01*
X93368261Y-81462571D01*
X93415880Y-81367333D01*
X93511119Y-81319714D01*
X93701595Y-81319714D01*
X93796833Y-81367333D01*
X93844452Y-81462571D01*
X93844452Y-81557809D01*
X93368261Y-81653047D01*
X94273023Y-81986380D02*
X94273023Y-81319714D01*
X94273023Y-81510190D02*
X94320642Y-81414952D01*
X94368261Y-81367333D01*
X94463500Y-81319714D01*
X94558738Y-81319714D01*
X95415880Y-81986380D02*
X94844452Y-81986380D01*
X95130166Y-81986380D02*
X95130166Y-80986380D01*
X95034928Y-81129238D01*
X94939690Y-81224476D01*
X94844452Y-81272095D01*
X90559238Y-103068380D02*
X90559238Y-102068380D01*
X90797333Y-102068380D01*
X90940190Y-102116000D01*
X91035428Y-102211238D01*
X91083047Y-102306476D01*
X91130666Y-102496952D01*
X91130666Y-102639809D01*
X91083047Y-102830285D01*
X91035428Y-102925523D01*
X90940190Y-103020761D01*
X90797333Y-103068380D01*
X90559238Y-103068380D01*
X91559238Y-103068380D02*
X91559238Y-102401714D01*
X91559238Y-102592190D02*
X91606857Y-102496952D01*
X91654476Y-102449333D01*
X91749714Y-102401714D01*
X91844952Y-102401714D01*
X92178285Y-103068380D02*
X92178285Y-102401714D01*
X92178285Y-102068380D02*
X92130666Y-102116000D01*
X92178285Y-102163619D01*
X92225904Y-102116000D01*
X92178285Y-102068380D01*
X92178285Y-102163619D01*
X92559238Y-102401714D02*
X92797333Y-103068380D01*
X93035428Y-102401714D01*
X93797333Y-103020761D02*
X93702095Y-103068380D01*
X93511619Y-103068380D01*
X93416380Y-103020761D01*
X93368761Y-102925523D01*
X93368761Y-102544571D01*
X93416380Y-102449333D01*
X93511619Y-102401714D01*
X93702095Y-102401714D01*
X93797333Y-102449333D01*
X93844952Y-102544571D01*
X93844952Y-102639809D01*
X93368761Y-102735047D01*
X94273523Y-103068380D02*
X94273523Y-102401714D01*
X94273523Y-102592190D02*
X94321142Y-102496952D01*
X94368761Y-102449333D01*
X94464000Y-102401714D01*
X94559238Y-102401714D01*
X95321142Y-102401714D02*
X95321142Y-103068380D01*
X95083047Y-102020761D02*
X94844952Y-102735047D01*
X95464000Y-102735047D01*
X127134738Y-103017580D02*
X127134738Y-102017580D01*
X127372833Y-102017580D01*
X127515690Y-102065200D01*
X127610928Y-102160438D01*
X127658547Y-102255676D01*
X127706166Y-102446152D01*
X127706166Y-102589009D01*
X127658547Y-102779485D01*
X127610928Y-102874723D01*
X127515690Y-102969961D01*
X127372833Y-103017580D01*
X127134738Y-103017580D01*
X128134738Y-103017580D02*
X128134738Y-102350914D01*
X128134738Y-102541390D02*
X128182357Y-102446152D01*
X128229976Y-102398533D01*
X128325214Y-102350914D01*
X128420452Y-102350914D01*
X128753785Y-103017580D02*
X128753785Y-102350914D01*
X128753785Y-102017580D02*
X128706166Y-102065200D01*
X128753785Y-102112819D01*
X128801404Y-102065200D01*
X128753785Y-102017580D01*
X128753785Y-102112819D01*
X129134738Y-102350914D02*
X129372833Y-103017580D01*
X129610928Y-102350914D01*
X130372833Y-102969961D02*
X130277595Y-103017580D01*
X130087119Y-103017580D01*
X129991880Y-102969961D01*
X129944261Y-102874723D01*
X129944261Y-102493771D01*
X129991880Y-102398533D01*
X130087119Y-102350914D01*
X130277595Y-102350914D01*
X130372833Y-102398533D01*
X130420452Y-102493771D01*
X130420452Y-102589009D01*
X129944261Y-102684247D01*
X130849023Y-103017580D02*
X130849023Y-102350914D01*
X130849023Y-102541390D02*
X130896642Y-102446152D01*
X130944261Y-102398533D01*
X131039500Y-102350914D01*
X131134738Y-102350914D01*
X131372833Y-102017580D02*
X131991880Y-102017580D01*
X131658547Y-102398533D01*
X131801404Y-102398533D01*
X131896642Y-102446152D01*
X131944261Y-102493771D01*
X131991880Y-102589009D01*
X131991880Y-102827104D01*
X131944261Y-102922342D01*
X131896642Y-102969961D01*
X131801404Y-103017580D01*
X131515690Y-103017580D01*
X131420452Y-102969961D01*
X131372833Y-102922342D01*
X127134738Y-81935580D02*
X127134738Y-80935580D01*
X127372833Y-80935580D01*
X127515690Y-80983200D01*
X127610928Y-81078438D01*
X127658547Y-81173676D01*
X127706166Y-81364152D01*
X127706166Y-81507009D01*
X127658547Y-81697485D01*
X127610928Y-81792723D01*
X127515690Y-81887961D01*
X127372833Y-81935580D01*
X127134738Y-81935580D01*
X128134738Y-81935580D02*
X128134738Y-81268914D01*
X128134738Y-81459390D02*
X128182357Y-81364152D01*
X128229976Y-81316533D01*
X128325214Y-81268914D01*
X128420452Y-81268914D01*
X128753785Y-81935580D02*
X128753785Y-81268914D01*
X128753785Y-80935580D02*
X128706166Y-80983200D01*
X128753785Y-81030819D01*
X128801404Y-80983200D01*
X128753785Y-80935580D01*
X128753785Y-81030819D01*
X129134738Y-81268914D02*
X129372833Y-81935580D01*
X129610928Y-81268914D01*
X130372833Y-81887961D02*
X130277595Y-81935580D01*
X130087119Y-81935580D01*
X129991880Y-81887961D01*
X129944261Y-81792723D01*
X129944261Y-81411771D01*
X129991880Y-81316533D01*
X130087119Y-81268914D01*
X130277595Y-81268914D01*
X130372833Y-81316533D01*
X130420452Y-81411771D01*
X130420452Y-81507009D01*
X129944261Y-81602247D01*
X130849023Y-81935580D02*
X130849023Y-81268914D01*
X130849023Y-81459390D02*
X130896642Y-81364152D01*
X130944261Y-81316533D01*
X131039500Y-81268914D01*
X131134738Y-81268914D01*
X131420452Y-81030819D02*
X131468071Y-80983200D01*
X131563309Y-80935580D01*
X131801404Y-80935580D01*
X131896642Y-80983200D01*
X131944261Y-81030819D01*
X131991880Y-81126057D01*
X131991880Y-81221295D01*
X131944261Y-81364152D01*
X131372833Y-81935580D01*
X131991880Y-81935580D01*
X91884166Y-77112761D02*
X92027023Y-77160380D01*
X92265119Y-77160380D01*
X92360357Y-77112761D01*
X92407976Y-77065142D01*
X92455595Y-76969904D01*
X92455595Y-76874666D01*
X92407976Y-76779428D01*
X92360357Y-76731809D01*
X92265119Y-76684190D01*
X92074642Y-76636571D01*
X91979404Y-76588952D01*
X91931785Y-76541333D01*
X91884166Y-76446095D01*
X91884166Y-76350857D01*
X91931785Y-76255619D01*
X91979404Y-76208000D01*
X92074642Y-76160380D01*
X92312738Y-76160380D01*
X92455595Y-76208000D01*
X92788928Y-76160380D02*
X93027023Y-77160380D01*
X93217500Y-76446095D01*
X93407976Y-77160380D01*
X93646071Y-76160380D01*
X93979404Y-76255619D02*
X94027023Y-76208000D01*
X94122261Y-76160380D01*
X94360357Y-76160380D01*
X94455595Y-76208000D01*
X94503214Y-76255619D01*
X94550833Y-76350857D01*
X94550833Y-76446095D01*
X94503214Y-76588952D01*
X93931785Y-77160380D01*
X94550833Y-77160380D01*
X125983595Y-69556380D02*
X125983595Y-70365904D01*
X126031214Y-70461142D01*
X126078833Y-70508761D01*
X126174071Y-70556380D01*
X126364547Y-70556380D01*
X126459785Y-70508761D01*
X126507404Y-70461142D01*
X126555023Y-70365904D01*
X126555023Y-69556380D01*
X127459785Y-69889714D02*
X127459785Y-70556380D01*
X127221690Y-69508761D02*
X126983595Y-70223047D01*
X127602642Y-70223047D01*
X118886761Y-115379333D02*
X118934380Y-115236476D01*
X118934380Y-114998380D01*
X118886761Y-114903142D01*
X118839142Y-114855523D01*
X118743904Y-114807904D01*
X118648666Y-114807904D01*
X118553428Y-114855523D01*
X118505809Y-114903142D01*
X118458190Y-114998380D01*
X118410571Y-115188857D01*
X118362952Y-115284095D01*
X118315333Y-115331714D01*
X118220095Y-115379333D01*
X118124857Y-115379333D01*
X118029619Y-115331714D01*
X117982000Y-115284095D01*
X117934380Y-115188857D01*
X117934380Y-114950761D01*
X117982000Y-114807904D01*
X117934380Y-114474571D02*
X118934380Y-114236476D01*
X118220095Y-114046000D01*
X118934380Y-113855523D01*
X117934380Y-113617428D01*
X118934380Y-112712666D02*
X118934380Y-113284095D01*
X118934380Y-112998380D02*
X117934380Y-112998380D01*
X118077238Y-113093619D01*
X118172476Y-113188857D01*
X118220095Y-113284095D01*
X81454666Y-114514380D02*
X81454666Y-115228666D01*
X81407047Y-115371523D01*
X81311809Y-115466761D01*
X81168952Y-115514380D01*
X81073714Y-115514380D01*
X81835619Y-114514380D02*
X82454666Y-114514380D01*
X82121333Y-114895333D01*
X82264190Y-114895333D01*
X82359428Y-114942952D01*
X82407047Y-114990571D01*
X82454666Y-115085809D01*
X82454666Y-115323904D01*
X82407047Y-115419142D01*
X82359428Y-115466761D01*
X82264190Y-115514380D01*
X81978476Y-115514380D01*
X81883238Y-115466761D01*
X81835619Y-115419142D01*
X140382166Y-114514380D02*
X140382166Y-115228666D01*
X140334547Y-115371523D01*
X140239309Y-115466761D01*
X140096452Y-115514380D01*
X140001214Y-115514380D01*
X140810738Y-114609619D02*
X140858357Y-114562000D01*
X140953595Y-114514380D01*
X141191690Y-114514380D01*
X141286928Y-114562000D01*
X141334547Y-114609619D01*
X141382166Y-114704857D01*
X141382166Y-114800095D01*
X141334547Y-114942952D01*
X140763119Y-115514380D01*
X141382166Y-115514380D01*
X140382666Y-81240380D02*
X140382666Y-81954666D01*
X140335047Y-82097523D01*
X140239809Y-82192761D01*
X140096952Y-82240380D01*
X140001714Y-82240380D01*
X141382666Y-82240380D02*
X140811238Y-82240380D01*
X141096952Y-82240380D02*
X141096952Y-81240380D01*
X141001714Y-81383238D01*
X140906476Y-81478476D01*
X140811238Y-81526095D01*
X81454166Y-81240380D02*
X81454166Y-81954666D01*
X81406547Y-82097523D01*
X81311309Y-82192761D01*
X81168452Y-82240380D01*
X81073214Y-82240380D01*
X82120833Y-81240380D02*
X82216071Y-81240380D01*
X82311309Y-81288000D01*
X82358928Y-81335619D01*
X82406547Y-81430857D01*
X82454166Y-81621333D01*
X82454166Y-81859428D01*
X82406547Y-82049904D01*
X82358928Y-82145142D01*
X82311309Y-82192761D01*
X82216071Y-82240380D01*
X82120833Y-82240380D01*
X82025595Y-82192761D01*
X81977976Y-82145142D01*
X81930357Y-82049904D01*
X81882738Y-81859428D01*
X81882738Y-81621333D01*
X81930357Y-81430857D01*
X81977976Y-81335619D01*
X82025595Y-81288000D01*
X82120833Y-81240380D01*
X104302300Y-70810380D02*
X104302300Y-69810380D01*
X104873728Y-70810380D01*
X104873728Y-69810380D01*
X105349919Y-69810380D02*
X105349919Y-70619904D01*
X105397538Y-70715142D01*
X105445157Y-70762761D01*
X105540395Y-70810380D01*
X105730871Y-70810380D01*
X105826109Y-70762761D01*
X105873728Y-70715142D01*
X105921347Y-70619904D01*
X105921347Y-69810380D01*
X106968966Y-70715142D02*
X106921347Y-70762761D01*
X106778490Y-70810380D01*
X106683252Y-70810380D01*
X106540395Y-70762761D01*
X106445157Y-70667523D01*
X106397538Y-70572285D01*
X106349919Y-70381809D01*
X106349919Y-70238952D01*
X106397538Y-70048476D01*
X106445157Y-69953238D01*
X106540395Y-69858000D01*
X106683252Y-69810380D01*
X106778490Y-69810380D01*
X106921347Y-69858000D01*
X106968966Y-69905619D01*
X107873728Y-70810380D02*
X107397538Y-70810380D01*
X107397538Y-69810380D01*
X108207061Y-70286571D02*
X108540395Y-70286571D01*
X108683252Y-70810380D02*
X108207061Y-70810380D01*
X108207061Y-69810380D01*
X108683252Y-69810380D01*
X109302300Y-69810380D02*
X109492776Y-69810380D01*
X109588014Y-69858000D01*
X109683252Y-69953238D01*
X109730871Y-70143714D01*
X109730871Y-70477047D01*
X109683252Y-70667523D01*
X109588014Y-70762761D01*
X109492776Y-70810380D01*
X109302300Y-70810380D01*
X109207061Y-70762761D01*
X109111823Y-70667523D01*
X109064204Y-70477047D01*
X109064204Y-70143714D01*
X109111823Y-69953238D01*
X109207061Y-69858000D01*
X109302300Y-69810380D01*
X110159442Y-70429428D02*
X110921347Y-70429428D01*
X111730871Y-70286571D02*
X111397538Y-70286571D01*
X111397538Y-70810380D02*
X111397538Y-69810380D01*
X111873728Y-69810380D01*
X112159442Y-69810380D02*
X112778490Y-69810380D01*
X112445157Y-70191333D01*
X112588014Y-70191333D01*
X112683252Y-70238952D01*
X112730871Y-70286571D01*
X112778490Y-70381809D01*
X112778490Y-70619904D01*
X112730871Y-70715142D01*
X112683252Y-70762761D01*
X112588014Y-70810380D01*
X112302300Y-70810380D01*
X112207061Y-70762761D01*
X112159442Y-70715142D01*
X113397538Y-69810380D02*
X113492776Y-69810380D01*
X113588014Y-69858000D01*
X113635633Y-69905619D01*
X113683252Y-70000857D01*
X113730871Y-70191333D01*
X113730871Y-70429428D01*
X113683252Y-70619904D01*
X113635633Y-70715142D01*
X113588014Y-70762761D01*
X113492776Y-70810380D01*
X113397538Y-70810380D01*
X113302300Y-70762761D01*
X113254680Y-70715142D01*
X113207061Y-70619904D01*
X113159442Y-70429428D01*
X113159442Y-70191333D01*
X113207061Y-70000857D01*
X113254680Y-69905619D01*
X113302300Y-69858000D01*
X113397538Y-69810380D01*
X114064204Y-69810380D02*
X114683252Y-69810380D01*
X114349919Y-70191333D01*
X114492776Y-70191333D01*
X114588014Y-70238952D01*
X114635633Y-70286571D01*
X114683252Y-70381809D01*
X114683252Y-70619904D01*
X114635633Y-70715142D01*
X114588014Y-70762761D01*
X114492776Y-70810380D01*
X114207061Y-70810380D01*
X114111823Y-70762761D01*
X114064204Y-70715142D01*
X115111823Y-70810380D02*
X115111823Y-69810380D01*
X115683252Y-70810380D02*
X115254680Y-70238952D01*
X115683252Y-69810380D02*
X115111823Y-70381809D01*
X116254680Y-70238952D02*
X116159442Y-70191333D01*
X116111823Y-70143714D01*
X116064204Y-70048476D01*
X116064204Y-70000857D01*
X116111823Y-69905619D01*
X116159442Y-69858000D01*
X116254680Y-69810380D01*
X116445157Y-69810380D01*
X116540395Y-69858000D01*
X116588014Y-69905619D01*
X116635633Y-70000857D01*
X116635633Y-70048476D01*
X116588014Y-70143714D01*
X116540395Y-70191333D01*
X116445157Y-70238952D01*
X116254680Y-70238952D01*
X116159442Y-70286571D01*
X116111823Y-70334190D01*
X116064204Y-70429428D01*
X116064204Y-70619904D01*
X116111823Y-70715142D01*
X116159442Y-70762761D01*
X116254680Y-70810380D01*
X116445157Y-70810380D01*
X116540395Y-70762761D01*
X116588014Y-70715142D01*
X116635633Y-70619904D01*
X116635633Y-70429428D01*
X116588014Y-70334190D01*
X116540395Y-70286571D01*
X116445157Y-70238952D01*
X116921347Y-69810380D02*
X117492776Y-69810380D01*
X117207061Y-70810380D02*
X117207061Y-69810380D01*
X118254680Y-69810380D02*
X118064204Y-69810380D01*
X117968966Y-69858000D01*
X117921347Y-69905619D01*
X117826109Y-70048476D01*
X117778490Y-70238952D01*
X117778490Y-70619904D01*
X117826109Y-70715142D01*
X117873728Y-70762761D01*
X117968966Y-70810380D01*
X118159442Y-70810380D01*
X118254680Y-70762761D01*
X118302300Y-70715142D01*
X118349919Y-70619904D01*
X118349919Y-70381809D01*
X118302300Y-70286571D01*
X118254680Y-70238952D01*
X118159442Y-70191333D01*
X117968966Y-70191333D01*
X117873728Y-70238952D01*
X117826109Y-70286571D01*
X117778490Y-70381809D01*
M02*
