M48
; DRILL file {KiCad (5.1.4)-1} date 13/11/2020 20:24:37
; FORMAT={-:-/ absolute / inch / decimal}
; #@! TF.CreationDate,2020-11-13T20:24:37+01:00
; #@! TF.GenerationSoftware,Kicad,Pcbnew,(5.1.4)-1
; #@! TF.FileFunction,Plated,1,2,PTH
FMAT,2
INCH
T1C0.0118
T2C0.0157
T3C0.0295
T4C0.0315
T5C0.0394
T6C0.0402
%
G90
G05
T1
X4.2796Y-3.4128
X4.2796Y-3.4443
X4.2796Y-3.4757
X4.2796Y-3.5072
X4.3111Y-3.397
X4.3111Y-3.4285
X4.3111Y-3.46
X4.3111Y-3.4915
X4.3111Y-3.523
X4.3426Y-3.4128
X4.3426Y-3.4443
X4.3426Y-3.4757
X4.3426Y-3.5072
X4.4174Y-3.4128
X4.4174Y-3.4443
X4.4174Y-3.4757
X4.4174Y-3.5072
X4.4489Y-3.397
X4.4489Y-3.4285
X4.4489Y-3.46
X4.4489Y-3.4915
X4.4489Y-3.523
X4.4804Y-3.4128
X4.4804Y-3.4443
X4.4804Y-3.4757
X4.4804Y-3.5072
T2
X3.6Y-3.94
X3.6149Y-3.8651
X3.6149Y-4.19
X3.712Y-4.636
X3.77Y-3.81
X3.8065Y-3.71
X3.84Y-3.61
X3.985Y-3.88
X4.36Y-2.85
X4.62Y-4.696
X4.91Y-3.31
X4.9435Y-3.21
X4.9435Y-4.04
X4.9769Y-3.11
X4.9769Y-3.94
T3
X3.255Y-3.8345
X3.255Y-3.9132
T4
X4.85Y-3.11
X4.85Y-3.21
X4.85Y-3.31
X4.85Y-3.41
X4.85Y-3.51
X4.85Y-3.61
X4.85Y-3.71
X4.85Y-3.81
X5.35Y-3.11
X5.35Y-3.21
X5.35Y-3.31
X5.35Y-3.41
X5.35Y-3.51
X5.35Y-3.61
X5.35Y-3.71
X5.35Y-3.81
X3.41Y-3.94
X3.41Y-4.04
X3.41Y-4.14
X3.41Y-4.24
X3.41Y-4.34
X3.41Y-4.44
X3.41Y-4.54
X3.41Y-4.64
X3.91Y-3.94
X3.91Y-4.04
X3.91Y-4.14
X3.91Y-4.24
X3.91Y-4.34
X3.91Y-4.44
X3.91Y-4.54
X3.91Y-4.64
X4.85Y-3.94
X4.85Y-4.04
X4.85Y-4.14
X4.85Y-4.24
X4.85Y-4.34
X4.85Y-4.44
X4.85Y-4.54
X4.85Y-4.64
X5.35Y-3.94
X5.35Y-4.04
X5.35Y-4.14
X5.35Y-4.24
X5.35Y-4.34
X5.35Y-4.44
X5.35Y-4.54
X5.35Y-4.64
X3.41Y-3.11
X3.41Y-3.21
X3.41Y-3.31
X3.41Y-3.41
X3.41Y-3.51
X3.41Y-3.61
X3.41Y-3.71
X3.41Y-3.81
X3.91Y-3.11
X3.91Y-3.21
X3.91Y-3.31
X3.91Y-3.41
X3.91Y-3.51
X3.91Y-3.61
X3.91Y-3.71
X3.91Y-3.81
X4.23Y-4.34
X4.23Y-4.64
X4.33Y-4.34
X4.33Y-4.64
X4.43Y-4.34
X4.43Y-4.64
X4.53Y-4.34
X4.53Y-4.64
T5
X3.22Y-4.14
X3.22Y-4.24
X3.22Y-4.34
X3.22Y-4.44
X3.22Y-3.31
X3.22Y-3.41
X3.22Y-3.51
X3.22Y-3.61
X5.54Y-3.31
X5.54Y-3.41
X5.54Y-3.51
X5.54Y-3.61
X5.54Y-4.14
X5.54Y-4.24
X5.54Y-4.34
X5.54Y-4.44
X5.06Y-2.97
X5.16Y-2.97
X5.26Y-2.97
T6
X4.08Y-2.99
X4.08Y-3.09
X4.08Y-3.19
X4.08Y-3.29
X4.08Y-3.39
X4.08Y-3.49
X4.08Y-3.59
X4.08Y-3.69
X4.08Y-3.79
X4.08Y-3.89
X4.08Y-3.99
X4.08Y-4.09
X4.08Y-4.19
X4.08Y-4.29
X4.08Y-4.39
X4.68Y-2.99
X4.68Y-3.09
X4.68Y-3.19
X4.68Y-3.29
X4.68Y-3.39
X4.68Y-3.49
X4.68Y-3.59
X4.68Y-3.69
X4.68Y-3.79
X4.68Y-3.89
X4.68Y-3.99
X4.68Y-4.09
X4.68Y-4.19
X4.68Y-4.29
X4.68Y-4.39
T5
G00X3.5125Y-2.8617
M15
G01X3.5125Y-2.8183
M16
G05
G00X3.67Y-2.8617
M15
G01X3.67Y-2.8183
M16
G05
G00X3.8275Y-2.8617
M15
G01X3.8275Y-2.8183
M16
G05
T0
M30
