G04 #@! TF.GenerationSoftware,KiCad,Pcbnew,(5.1.4)-1*
G04 #@! TF.CreationDate,2020-11-13T20:24:30+01:00*
G04 #@! TF.ProjectId,Shield BR,53686965-6c64-4204-9252-2e6b69636164,rev?*
G04 #@! TF.SameCoordinates,Original*
G04 #@! TF.FileFunction,Legend,Bot*
G04 #@! TF.FilePolarity,Positive*
%FSLAX46Y46*%
G04 Gerber Fmt 4.6, Leading zero omitted, Abs format (unit mm)*
G04 Created by KiCad (PCBNEW (5.1.4)-1) date 2020-11-13 20:24:30*
%MOMM*%
%LPD*%
G04 APERTURE LIST*
%ADD10C,0.120000*%
%ADD11C,0.150000*%
%ADD12C,0.250000*%
%ADD13C,0.010000*%
G04 APERTURE END LIST*
D10*
X124357900Y-79959200D02*
X124002300Y-79654400D01*
X124357900Y-82499200D02*
X124002300Y-82194400D01*
X124357900Y-85090000D02*
X123951500Y-84734400D01*
X105104700Y-106222800D02*
X104647500Y-106426000D01*
X104698300Y-85902800D02*
X104495100Y-85902800D01*
X104698300Y-84378800D02*
X104698300Y-87376000D01*
X117703100Y-89509600D02*
X118109500Y-89204800D01*
X117703100Y-88036400D02*
X117703100Y-90932000D01*
X117703100Y-85902800D02*
X117906300Y-85902800D01*
X117703100Y-87274400D02*
X117703100Y-84531200D01*
X104952300Y-112014000D02*
X104596700Y-111760000D01*
X104952300Y-108407200D02*
X104545900Y-108610400D01*
X118058700Y-108356400D02*
X117601500Y-108051600D01*
X117804700Y-82448400D02*
X118211100Y-82804000D01*
X98297500Y-96494600D02*
X97789500Y-96139000D01*
X98348300Y-93827600D02*
X97840300Y-93472000D01*
X98348300Y-91186000D02*
X97840300Y-90830400D01*
D11*
X122180071Y-71985142D02*
X122227690Y-72032761D01*
X122370547Y-72080380D01*
X122465785Y-72080380D01*
X122608642Y-72032761D01*
X122703880Y-71937523D01*
X122751500Y-71842285D01*
X122799119Y-71651809D01*
X122799119Y-71508952D01*
X122751500Y-71318476D01*
X122703880Y-71223238D01*
X122608642Y-71128000D01*
X122465785Y-71080380D01*
X122370547Y-71080380D01*
X122227690Y-71128000D01*
X122180071Y-71175619D01*
X121322928Y-72080380D02*
X121322928Y-71556571D01*
X121370547Y-71461333D01*
X121465785Y-71413714D01*
X121656261Y-71413714D01*
X121751500Y-71461333D01*
X121322928Y-72032761D02*
X121418166Y-72080380D01*
X121656261Y-72080380D01*
X121751500Y-72032761D01*
X121799119Y-71937523D01*
X121799119Y-71842285D01*
X121751500Y-71747047D01*
X121656261Y-71699428D01*
X121418166Y-71699428D01*
X121322928Y-71651809D01*
X120846738Y-72080380D02*
X120846738Y-71413714D01*
X120846738Y-71604190D02*
X120799119Y-71508952D01*
X120751500Y-71461333D01*
X120656261Y-71413714D01*
X120561023Y-71413714D01*
X120370547Y-71413714D02*
X119989595Y-71413714D01*
X120227690Y-71080380D02*
X120227690Y-71937523D01*
X120180071Y-72032761D01*
X120084833Y-72080380D01*
X119989595Y-72080380D01*
X119275309Y-72032761D02*
X119370547Y-72080380D01*
X119561023Y-72080380D01*
X119656261Y-72032761D01*
X119703880Y-71937523D01*
X119703880Y-71556571D01*
X119656261Y-71461333D01*
X119561023Y-71413714D01*
X119370547Y-71413714D01*
X119275309Y-71461333D01*
X119227690Y-71556571D01*
X119227690Y-71651809D01*
X119703880Y-71747047D01*
X118037214Y-72080380D02*
X118037214Y-71080380D01*
X117656261Y-71080380D01*
X117561023Y-71128000D01*
X117513404Y-71175619D01*
X117465785Y-71270857D01*
X117465785Y-71413714D01*
X117513404Y-71508952D01*
X117561023Y-71556571D01*
X117656261Y-71604190D01*
X118037214Y-71604190D01*
X117037214Y-72080380D02*
X117037214Y-71413714D01*
X117037214Y-71604190D02*
X116989595Y-71508952D01*
X116941976Y-71461333D01*
X116846738Y-71413714D01*
X116751500Y-71413714D01*
X116275309Y-72080380D02*
X116370547Y-72032761D01*
X116418166Y-71985142D01*
X116465785Y-71889904D01*
X116465785Y-71604190D01*
X116418166Y-71508952D01*
X116370547Y-71461333D01*
X116275309Y-71413714D01*
X116132452Y-71413714D01*
X116037214Y-71461333D01*
X115989595Y-71508952D01*
X115941976Y-71604190D01*
X115941976Y-71889904D01*
X115989595Y-71985142D01*
X116037214Y-72032761D01*
X116132452Y-72080380D01*
X116275309Y-72080380D01*
X115656261Y-71413714D02*
X115275309Y-71413714D01*
X115513404Y-71080380D02*
X115513404Y-71937523D01*
X115465785Y-72032761D01*
X115370547Y-72080380D01*
X115275309Y-72080380D01*
X114799119Y-72080380D02*
X114894357Y-72032761D01*
X114941976Y-71985142D01*
X114989595Y-71889904D01*
X114989595Y-71604190D01*
X114941976Y-71508952D01*
X114894357Y-71461333D01*
X114799119Y-71413714D01*
X114656261Y-71413714D01*
X114561023Y-71461333D01*
X114513404Y-71508952D01*
X114465785Y-71604190D01*
X114465785Y-71889904D01*
X114513404Y-71985142D01*
X114561023Y-72032761D01*
X114656261Y-72080380D01*
X114799119Y-72080380D01*
X114180071Y-71413714D02*
X113799119Y-71413714D01*
X114037214Y-71080380D02*
X114037214Y-71937523D01*
X113989595Y-72032761D01*
X113894357Y-72080380D01*
X113799119Y-72080380D01*
X113561023Y-71413714D02*
X113322928Y-72080380D01*
X113084833Y-71413714D02*
X113322928Y-72080380D01*
X113418166Y-72318476D01*
X113465785Y-72366095D01*
X113561023Y-72413714D01*
X112703880Y-71413714D02*
X112703880Y-72413714D01*
X112703880Y-71461333D02*
X112608642Y-71413714D01*
X112418166Y-71413714D01*
X112322928Y-71461333D01*
X112275309Y-71508952D01*
X112227690Y-71604190D01*
X112227690Y-71889904D01*
X112275309Y-71985142D01*
X112322928Y-72032761D01*
X112418166Y-72080380D01*
X112608642Y-72080380D01*
X112703880Y-72032761D01*
X111418166Y-72032761D02*
X111513404Y-72080380D01*
X111703880Y-72080380D01*
X111799119Y-72032761D01*
X111846738Y-71937523D01*
X111846738Y-71556571D01*
X111799119Y-71461333D01*
X111703880Y-71413714D01*
X111513404Y-71413714D01*
X111418166Y-71461333D01*
X111370547Y-71556571D01*
X111370547Y-71651809D01*
X111846738Y-71747047D01*
X109846738Y-71556571D02*
X109703880Y-71604190D01*
X109656261Y-71651809D01*
X109608642Y-71747047D01*
X109608642Y-71889904D01*
X109656261Y-71985142D01*
X109703880Y-72032761D01*
X109799119Y-72080380D01*
X110180071Y-72080380D01*
X110180071Y-71080380D01*
X109846738Y-71080380D01*
X109751500Y-71128000D01*
X109703880Y-71175619D01*
X109656261Y-71270857D01*
X109656261Y-71366095D01*
X109703880Y-71461333D01*
X109751500Y-71508952D01*
X109846738Y-71556571D01*
X110180071Y-71556571D01*
X108751500Y-72080380D02*
X108751500Y-71556571D01*
X108799119Y-71461333D01*
X108894357Y-71413714D01*
X109084833Y-71413714D01*
X109180071Y-71461333D01*
X108751500Y-72032761D02*
X108846738Y-72080380D01*
X109084833Y-72080380D01*
X109180071Y-72032761D01*
X109227690Y-71937523D01*
X109227690Y-71842285D01*
X109180071Y-71747047D01*
X109084833Y-71699428D01*
X108846738Y-71699428D01*
X108751500Y-71651809D01*
X108322928Y-72032761D02*
X108227690Y-72080380D01*
X108037214Y-72080380D01*
X107941976Y-72032761D01*
X107894357Y-71937523D01*
X107894357Y-71889904D01*
X107941976Y-71794666D01*
X108037214Y-71747047D01*
X108180071Y-71747047D01*
X108275309Y-71699428D01*
X108322928Y-71604190D01*
X108322928Y-71556571D01*
X108275309Y-71461333D01*
X108180071Y-71413714D01*
X108037214Y-71413714D01*
X107941976Y-71461333D01*
X107084833Y-72032761D02*
X107180071Y-72080380D01*
X107370547Y-72080380D01*
X107465785Y-72032761D01*
X107513404Y-71937523D01*
X107513404Y-71556571D01*
X107465785Y-71461333D01*
X107370547Y-71413714D01*
X107180071Y-71413714D01*
X107084833Y-71461333D01*
X107037214Y-71556571D01*
X107037214Y-71651809D01*
X107513404Y-71747047D01*
X105275309Y-72080380D02*
X105608642Y-71604190D01*
X105846738Y-72080380D02*
X105846738Y-71080380D01*
X105465785Y-71080380D01*
X105370547Y-71128000D01*
X105322928Y-71175619D01*
X105275309Y-71270857D01*
X105275309Y-71413714D01*
X105322928Y-71508952D01*
X105370547Y-71556571D01*
X105465785Y-71604190D01*
X105846738Y-71604190D01*
X104703880Y-72080380D02*
X104799119Y-72032761D01*
X104846738Y-71985142D01*
X104894357Y-71889904D01*
X104894357Y-71604190D01*
X104846738Y-71508952D01*
X104799119Y-71461333D01*
X104703880Y-71413714D01*
X104561023Y-71413714D01*
X104465785Y-71461333D01*
X104418166Y-71508952D01*
X104370547Y-71604190D01*
X104370547Y-71889904D01*
X104418166Y-71985142D01*
X104465785Y-72032761D01*
X104561023Y-72080380D01*
X104703880Y-72080380D01*
X103513404Y-71413714D02*
X103513404Y-72080380D01*
X103941976Y-71413714D02*
X103941976Y-71937523D01*
X103894357Y-72032761D01*
X103799119Y-72080380D01*
X103656261Y-72080380D01*
X103561023Y-72032761D01*
X103513404Y-71985142D01*
X102894357Y-72080380D02*
X102989595Y-72032761D01*
X103037214Y-71937523D01*
X103037214Y-71080380D01*
X102084833Y-72080380D02*
X102084833Y-71556571D01*
X102132452Y-71461333D01*
X102227690Y-71413714D01*
X102418166Y-71413714D01*
X102513404Y-71461333D01*
X102084833Y-72032761D02*
X102180071Y-72080380D01*
X102418166Y-72080380D01*
X102513404Y-72032761D01*
X102561023Y-71937523D01*
X102561023Y-71842285D01*
X102513404Y-71747047D01*
X102418166Y-71699428D01*
X102180071Y-71699428D01*
X102084833Y-71651809D01*
X101608642Y-71413714D02*
X101608642Y-72080380D01*
X101608642Y-71508952D02*
X101561023Y-71461333D01*
X101465785Y-71413714D01*
X101322928Y-71413714D01*
X101227690Y-71461333D01*
X101180071Y-71556571D01*
X101180071Y-72080380D01*
X100846738Y-71413714D02*
X100465785Y-71413714D01*
X100703880Y-71080380D02*
X100703880Y-71937523D01*
X100656261Y-72032761D01*
X100561023Y-72080380D01*
X100465785Y-72080380D01*
X99751500Y-72032761D02*
X99846738Y-72080380D01*
X100037214Y-72080380D01*
X100132452Y-72032761D01*
X100180071Y-71937523D01*
X100180071Y-71556571D01*
X100132452Y-71461333D01*
X100037214Y-71413714D01*
X99846738Y-71413714D01*
X99751500Y-71461333D01*
X99703880Y-71556571D01*
X99703880Y-71651809D01*
X100180071Y-71747047D01*
X117507709Y-107249980D02*
X117174376Y-108249980D01*
X116841042Y-107249980D01*
X116507709Y-108249980D02*
X116507709Y-107583314D01*
X116507709Y-107249980D02*
X116555328Y-107297600D01*
X116507709Y-107345219D01*
X116460090Y-107297600D01*
X116507709Y-107249980D01*
X116507709Y-107345219D01*
X115888661Y-108249980D02*
X115983900Y-108202361D01*
X116031519Y-108154742D01*
X116079138Y-108059504D01*
X116079138Y-107773790D01*
X116031519Y-107678552D01*
X115983900Y-107630933D01*
X115888661Y-107583314D01*
X115745804Y-107583314D01*
X115650566Y-107630933D01*
X115602947Y-107678552D01*
X115555328Y-107773790D01*
X115555328Y-108059504D01*
X115602947Y-108154742D01*
X115650566Y-108202361D01*
X115745804Y-108249980D01*
X115888661Y-108249980D01*
X117367504Y-104338380D02*
X117367504Y-103338380D01*
X116986552Y-103338380D01*
X116891314Y-103386000D01*
X116843695Y-103433619D01*
X116796076Y-103528857D01*
X116796076Y-103671714D01*
X116843695Y-103766952D01*
X116891314Y-103814571D01*
X116986552Y-103862190D01*
X117367504Y-103862190D01*
X116415123Y-104052666D02*
X115938933Y-104052666D01*
X116510361Y-104338380D02*
X116177028Y-103338380D01*
X115843695Y-104338380D01*
X115319885Y-103338380D02*
X115224647Y-103338380D01*
X115129409Y-103386000D01*
X115081790Y-103433619D01*
X115034171Y-103528857D01*
X114986552Y-103719333D01*
X114986552Y-103957428D01*
X115034171Y-104147904D01*
X115081790Y-104243142D01*
X115129409Y-104290761D01*
X115224647Y-104338380D01*
X115319885Y-104338380D01*
X115415123Y-104290761D01*
X115462742Y-104243142D01*
X115510361Y-104147904D01*
X115557980Y-103957428D01*
X115557980Y-103719333D01*
X115510361Y-103528857D01*
X115462742Y-103433619D01*
X115415123Y-103386000D01*
X115319885Y-103338380D01*
X114557980Y-103957428D02*
X113796076Y-103957428D01*
X113319885Y-104338380D02*
X113319885Y-103338380D01*
X113081790Y-103338380D01*
X112938933Y-103386000D01*
X112843695Y-103481238D01*
X112796076Y-103576476D01*
X112748457Y-103766952D01*
X112748457Y-103909809D01*
X112796076Y-104100285D01*
X112843695Y-104195523D01*
X112938933Y-104290761D01*
X113081790Y-104338380D01*
X113319885Y-104338380D01*
X112319885Y-104338380D02*
X112319885Y-103671714D01*
X112319885Y-103338380D02*
X112367504Y-103386000D01*
X112319885Y-103433619D01*
X112272266Y-103386000D01*
X112319885Y-103338380D01*
X112319885Y-103433619D01*
X111843695Y-104338380D02*
X111843695Y-103671714D01*
X111843695Y-103862190D02*
X111796076Y-103766952D01*
X111748457Y-103719333D01*
X111653219Y-103671714D01*
X111557980Y-103671714D01*
X111319885Y-103338380D02*
X110700838Y-103338380D01*
X111034171Y-103719333D01*
X110891314Y-103719333D01*
X110796076Y-103766952D01*
X110748457Y-103814571D01*
X110700838Y-103909809D01*
X110700838Y-104147904D01*
X110748457Y-104243142D01*
X110796076Y-104290761D01*
X110891314Y-104338380D01*
X111177028Y-104338380D01*
X111272266Y-104290761D01*
X111319885Y-104243142D01*
X117367504Y-101747580D02*
X117367504Y-100747580D01*
X116986552Y-100747580D01*
X116891314Y-100795200D01*
X116843695Y-100842819D01*
X116796076Y-100938057D01*
X116796076Y-101080914D01*
X116843695Y-101176152D01*
X116891314Y-101223771D01*
X116986552Y-101271390D01*
X117367504Y-101271390D01*
X116415123Y-101461866D02*
X115938933Y-101461866D01*
X116510361Y-101747580D02*
X116177028Y-100747580D01*
X115843695Y-101747580D01*
X114986552Y-101747580D02*
X115557980Y-101747580D01*
X115272266Y-101747580D02*
X115272266Y-100747580D01*
X115367504Y-100890438D01*
X115462742Y-100985676D01*
X115557980Y-101033295D01*
X114557980Y-101366628D02*
X113796076Y-101366628D01*
X113367504Y-101699961D02*
X113224647Y-101747580D01*
X112986552Y-101747580D01*
X112891314Y-101699961D01*
X112843695Y-101652342D01*
X112796076Y-101557104D01*
X112796076Y-101461866D01*
X112843695Y-101366628D01*
X112891314Y-101319009D01*
X112986552Y-101271390D01*
X113177028Y-101223771D01*
X113272266Y-101176152D01*
X113319885Y-101128533D01*
X113367504Y-101033295D01*
X113367504Y-100938057D01*
X113319885Y-100842819D01*
X113272266Y-100795200D01*
X113177028Y-100747580D01*
X112938933Y-100747580D01*
X112796076Y-100795200D01*
X112510361Y-101080914D02*
X112129409Y-101080914D01*
X112367504Y-100747580D02*
X112367504Y-101604723D01*
X112319885Y-101699961D01*
X112224647Y-101747580D01*
X112129409Y-101747580D01*
X111415123Y-101699961D02*
X111510361Y-101747580D01*
X111700838Y-101747580D01*
X111796076Y-101699961D01*
X111843695Y-101604723D01*
X111843695Y-101223771D01*
X111796076Y-101128533D01*
X111700838Y-101080914D01*
X111510361Y-101080914D01*
X111415123Y-101128533D01*
X111367504Y-101223771D01*
X111367504Y-101319009D01*
X111843695Y-101414247D01*
X110938933Y-101080914D02*
X110938933Y-102080914D01*
X110938933Y-101128533D02*
X110843695Y-101080914D01*
X110653219Y-101080914D01*
X110557980Y-101128533D01*
X110510361Y-101176152D01*
X110462742Y-101271390D01*
X110462742Y-101557104D01*
X110510361Y-101652342D01*
X110557980Y-101699961D01*
X110653219Y-101747580D01*
X110843695Y-101747580D01*
X110938933Y-101699961D01*
X110129409Y-100747580D02*
X109510361Y-100747580D01*
X109843695Y-101128533D01*
X109700838Y-101128533D01*
X109605600Y-101176152D01*
X109557980Y-101223771D01*
X109510361Y-101319009D01*
X109510361Y-101557104D01*
X109557980Y-101652342D01*
X109605600Y-101699961D01*
X109700838Y-101747580D01*
X109986552Y-101747580D01*
X110081790Y-101699961D01*
X110129409Y-101652342D01*
X117215104Y-89187780D02*
X117215104Y-88187780D01*
X116977009Y-88187780D01*
X116834152Y-88235400D01*
X116738914Y-88330638D01*
X116691295Y-88425876D01*
X116643676Y-88616352D01*
X116643676Y-88759209D01*
X116691295Y-88949685D01*
X116738914Y-89044923D01*
X116834152Y-89140161D01*
X116977009Y-89187780D01*
X117215104Y-89187780D01*
X116215104Y-89187780D02*
X116215104Y-88521114D01*
X116215104Y-88187780D02*
X116262723Y-88235400D01*
X116215104Y-88283019D01*
X116167485Y-88235400D01*
X116215104Y-88187780D01*
X116215104Y-88283019D01*
X115738914Y-89187780D02*
X115738914Y-88521114D01*
X115738914Y-88711590D02*
X115691295Y-88616352D01*
X115643676Y-88568733D01*
X115548438Y-88521114D01*
X115453200Y-88521114D01*
X115167485Y-88283019D02*
X115119866Y-88235400D01*
X115024628Y-88187780D01*
X114786533Y-88187780D01*
X114691295Y-88235400D01*
X114643676Y-88283019D01*
X114596057Y-88378257D01*
X114596057Y-88473495D01*
X114643676Y-88616352D01*
X115215104Y-89187780D01*
X114596057Y-89187780D01*
X117215104Y-90837780D02*
X117215104Y-89837780D01*
X116834152Y-89837780D01*
X116738914Y-89885400D01*
X116691295Y-89933019D01*
X116643676Y-90028257D01*
X116643676Y-90171114D01*
X116691295Y-90266352D01*
X116738914Y-90313971D01*
X116834152Y-90361590D01*
X117215104Y-90361590D01*
X116262723Y-90552066D02*
X115786533Y-90552066D01*
X116357961Y-90837780D02*
X116024628Y-89837780D01*
X115691295Y-90837780D01*
X115453200Y-89837780D02*
X114786533Y-89837780D01*
X115215104Y-90837780D01*
X117262723Y-85533361D02*
X117119866Y-85580980D01*
X116881771Y-85580980D01*
X116786533Y-85533361D01*
X116738914Y-85485742D01*
X116691295Y-85390504D01*
X116691295Y-85295266D01*
X116738914Y-85200028D01*
X116786533Y-85152409D01*
X116881771Y-85104790D01*
X117072247Y-85057171D01*
X117167485Y-85009552D01*
X117215104Y-84961933D01*
X117262723Y-84866695D01*
X117262723Y-84771457D01*
X117215104Y-84676219D01*
X117167485Y-84628600D01*
X117072247Y-84580980D01*
X116834152Y-84580980D01*
X116691295Y-84628600D01*
X116405580Y-84914314D02*
X116024628Y-84914314D01*
X116262723Y-84580980D02*
X116262723Y-85438123D01*
X116215104Y-85533361D01*
X116119866Y-85580980D01*
X116024628Y-85580980D01*
X115310342Y-85533361D02*
X115405580Y-85580980D01*
X115596057Y-85580980D01*
X115691295Y-85533361D01*
X115738914Y-85438123D01*
X115738914Y-85057171D01*
X115691295Y-84961933D01*
X115596057Y-84914314D01*
X115405580Y-84914314D01*
X115310342Y-84961933D01*
X115262723Y-85057171D01*
X115262723Y-85152409D01*
X115738914Y-85247647D01*
X114834152Y-84914314D02*
X114834152Y-85914314D01*
X114834152Y-84961933D02*
X114738914Y-84914314D01*
X114548438Y-84914314D01*
X114453200Y-84961933D01*
X114405580Y-85009552D01*
X114357961Y-85104790D01*
X114357961Y-85390504D01*
X114405580Y-85485742D01*
X114453200Y-85533361D01*
X114548438Y-85580980D01*
X114738914Y-85580980D01*
X114834152Y-85533361D01*
X113977009Y-84676219D02*
X113929390Y-84628600D01*
X113834152Y-84580980D01*
X113596057Y-84580980D01*
X113500819Y-84628600D01*
X113453200Y-84676219D01*
X113405580Y-84771457D01*
X113405580Y-84866695D01*
X113453200Y-85009552D01*
X114024628Y-85580980D01*
X113405580Y-85580980D01*
X117215104Y-87230980D02*
X117215104Y-86230980D01*
X116834152Y-86230980D01*
X116738914Y-86278600D01*
X116691295Y-86326219D01*
X116643676Y-86421457D01*
X116643676Y-86564314D01*
X116691295Y-86659552D01*
X116738914Y-86707171D01*
X116834152Y-86754790D01*
X117215104Y-86754790D01*
X116262723Y-86945266D02*
X115786533Y-86945266D01*
X116357961Y-87230980D02*
X116024628Y-86230980D01*
X115691295Y-87230980D01*
X115405580Y-86326219D02*
X115357961Y-86278600D01*
X115262723Y-86230980D01*
X115024628Y-86230980D01*
X114929390Y-86278600D01*
X114881771Y-86326219D01*
X114834152Y-86421457D01*
X114834152Y-86516695D01*
X114881771Y-86659552D01*
X115453200Y-87230980D01*
X114834152Y-87230980D01*
X117043714Y-81697580D02*
X117519904Y-81697580D01*
X117567523Y-82173771D01*
X117519904Y-82126152D01*
X117424666Y-82078533D01*
X117186571Y-82078533D01*
X117091333Y-82126152D01*
X117043714Y-82173771D01*
X116996095Y-82269009D01*
X116996095Y-82507104D01*
X117043714Y-82602342D01*
X117091333Y-82649961D01*
X117186571Y-82697580D01*
X117424666Y-82697580D01*
X117519904Y-82649961D01*
X117567523Y-82602342D01*
X116710380Y-81697580D02*
X116377047Y-82697580D01*
X116043714Y-81697580D01*
X91304357Y-96226380D02*
X90971023Y-97226380D01*
X90637690Y-96226380D01*
X90304357Y-97226380D02*
X90304357Y-96226380D01*
X89971023Y-96940666D01*
X89637690Y-96226380D01*
X89637690Y-97226380D01*
X89018642Y-97226380D02*
X89113880Y-97178761D01*
X89161500Y-97131142D01*
X89209119Y-97035904D01*
X89209119Y-96750190D01*
X89161500Y-96654952D01*
X89113880Y-96607333D01*
X89018642Y-96559714D01*
X88875785Y-96559714D01*
X88780547Y-96607333D01*
X88732928Y-96654952D01*
X88685309Y-96750190D01*
X88685309Y-97035904D01*
X88732928Y-97131142D01*
X88780547Y-97178761D01*
X88875785Y-97226380D01*
X89018642Y-97226380D01*
X88399595Y-96559714D02*
X88018642Y-96559714D01*
X88256738Y-96226380D02*
X88256738Y-97083523D01*
X88209119Y-97178761D01*
X88113880Y-97226380D01*
X88018642Y-97226380D01*
X91304357Y-117308380D02*
X90971023Y-118308380D01*
X90637690Y-117308380D01*
X90304357Y-118308380D02*
X90304357Y-117308380D01*
X89971023Y-118022666D01*
X89637690Y-117308380D01*
X89637690Y-118308380D01*
X89018642Y-118308380D02*
X89113880Y-118260761D01*
X89161500Y-118213142D01*
X89209119Y-118117904D01*
X89209119Y-117832190D01*
X89161500Y-117736952D01*
X89113880Y-117689333D01*
X89018642Y-117641714D01*
X88875785Y-117641714D01*
X88780547Y-117689333D01*
X88732928Y-117736952D01*
X88685309Y-117832190D01*
X88685309Y-118117904D01*
X88732928Y-118213142D01*
X88780547Y-118260761D01*
X88875785Y-118308380D01*
X89018642Y-118308380D01*
X88399595Y-117641714D02*
X88018642Y-117641714D01*
X88256738Y-117308380D02*
X88256738Y-118165523D01*
X88209119Y-118260761D01*
X88113880Y-118308380D01*
X88018642Y-118308380D01*
X134484357Y-99528380D02*
X134151023Y-100528380D01*
X133817690Y-99528380D01*
X133484357Y-100528380D02*
X133484357Y-99528380D01*
X133151023Y-100242666D01*
X132817690Y-99528380D01*
X132817690Y-100528380D01*
X132198642Y-100528380D02*
X132293880Y-100480761D01*
X132341500Y-100433142D01*
X132389119Y-100337904D01*
X132389119Y-100052190D01*
X132341500Y-99956952D01*
X132293880Y-99909333D01*
X132198642Y-99861714D01*
X132055785Y-99861714D01*
X131960547Y-99909333D01*
X131912928Y-99956952D01*
X131865309Y-100052190D01*
X131865309Y-100337904D01*
X131912928Y-100433142D01*
X131960547Y-100480761D01*
X132055785Y-100528380D01*
X132198642Y-100528380D01*
X131579595Y-99861714D02*
X131198642Y-99861714D01*
X131436738Y-99528380D02*
X131436738Y-100385523D01*
X131389119Y-100480761D01*
X131293880Y-100528380D01*
X131198642Y-100528380D01*
X134484357Y-78700380D02*
X134151023Y-79700380D01*
X133817690Y-78700380D01*
X133484357Y-79700380D02*
X133484357Y-78700380D01*
X133151023Y-79414666D01*
X132817690Y-78700380D01*
X132817690Y-79700380D01*
X132198642Y-79700380D02*
X132293880Y-79652761D01*
X132341500Y-79605142D01*
X132389119Y-79509904D01*
X132389119Y-79224190D01*
X132341500Y-79128952D01*
X132293880Y-79081333D01*
X132198642Y-79033714D01*
X132055785Y-79033714D01*
X131960547Y-79081333D01*
X131912928Y-79128952D01*
X131865309Y-79224190D01*
X131865309Y-79509904D01*
X131912928Y-79605142D01*
X131960547Y-79652761D01*
X132055785Y-79700380D01*
X132198642Y-79700380D01*
X131579595Y-79033714D02*
X131198642Y-79033714D01*
X131436738Y-78700380D02*
X131436738Y-79557523D01*
X131389119Y-79652761D01*
X131293880Y-79700380D01*
X131198642Y-79700380D01*
X126234223Y-85694780D02*
X126234223Y-84694780D01*
X125900890Y-85409066D01*
X125567557Y-84694780D01*
X125567557Y-85694780D01*
X125138985Y-84790019D02*
X125091366Y-84742400D01*
X124996128Y-84694780D01*
X124758033Y-84694780D01*
X124662795Y-84742400D01*
X124615176Y-84790019D01*
X124567557Y-84885257D01*
X124567557Y-84980495D01*
X124615176Y-85123352D01*
X125186604Y-85694780D01*
X124567557Y-85694780D01*
X126264395Y-79989371D02*
X125931061Y-79989371D01*
X125788204Y-80513180D02*
X126264395Y-80513180D01*
X126264395Y-79513180D01*
X125788204Y-79513180D01*
X125359633Y-80513180D02*
X125359633Y-79513180D01*
X124788204Y-80513180D01*
X124788204Y-79513180D01*
X126234223Y-83103980D02*
X126234223Y-82103980D01*
X125900890Y-82818266D01*
X125567557Y-82103980D01*
X125567557Y-83103980D01*
X124567557Y-83103980D02*
X125138985Y-83103980D01*
X124853271Y-83103980D02*
X124853271Y-82103980D01*
X124948509Y-82246838D01*
X125043747Y-82342076D01*
X125138985Y-82389695D01*
X126213595Y-100004571D02*
X125880261Y-100004571D01*
X125737404Y-100528380D02*
X126213595Y-100528380D01*
X126213595Y-99528380D01*
X125737404Y-99528380D01*
X125308833Y-100528380D02*
X125308833Y-99528380D01*
X124737404Y-100528380D01*
X124737404Y-99528380D01*
X126285023Y-103068380D02*
X126285023Y-102068380D01*
X125951690Y-102782666D01*
X125618357Y-102068380D01*
X125618357Y-103068380D01*
X124618357Y-103068380D02*
X125189785Y-103068380D01*
X124904071Y-103068380D02*
X124904071Y-102068380D01*
X124999309Y-102211238D01*
X125094547Y-102306476D01*
X125189785Y-102354095D01*
X126285023Y-105608380D02*
X126285023Y-104608380D01*
X125951690Y-105322666D01*
X125618357Y-104608380D01*
X125618357Y-105608380D01*
X125189785Y-104703619D02*
X125142166Y-104656000D01*
X125046928Y-104608380D01*
X124808833Y-104608380D01*
X124713595Y-104656000D01*
X124665976Y-104703619D01*
X124618357Y-104798857D01*
X124618357Y-104894095D01*
X124665976Y-105036952D01*
X125237404Y-105608380D01*
X124618357Y-105608380D01*
X134627309Y-114768380D02*
X134293976Y-115768380D01*
X133960642Y-114768380D01*
X133627309Y-115768380D02*
X133627309Y-115101714D01*
X133627309Y-114768380D02*
X133674928Y-114816000D01*
X133627309Y-114863619D01*
X133579690Y-114816000D01*
X133627309Y-114768380D01*
X133627309Y-114863619D01*
X133008261Y-115768380D02*
X133103500Y-115720761D01*
X133151119Y-115673142D01*
X133198738Y-115577904D01*
X133198738Y-115292190D01*
X133151119Y-115196952D01*
X133103500Y-115149333D01*
X133008261Y-115101714D01*
X132865404Y-115101714D01*
X132770166Y-115149333D01*
X132722547Y-115196952D01*
X132674928Y-115292190D01*
X132674928Y-115577904D01*
X132722547Y-115673142D01*
X132770166Y-115720761D01*
X132865404Y-115768380D01*
X133008261Y-115768380D01*
X134627309Y-93686380D02*
X134293976Y-94686380D01*
X133960642Y-93686380D01*
X133627309Y-94686380D02*
X133627309Y-94019714D01*
X133627309Y-93686380D02*
X133674928Y-93734000D01*
X133627309Y-93781619D01*
X133579690Y-93734000D01*
X133627309Y-93686380D01*
X133627309Y-93781619D01*
X133008261Y-94686380D02*
X133103500Y-94638761D01*
X133151119Y-94591142D01*
X133198738Y-94495904D01*
X133198738Y-94210190D01*
X133151119Y-94114952D01*
X133103500Y-94067333D01*
X133008261Y-94019714D01*
X132865404Y-94019714D01*
X132770166Y-94067333D01*
X132722547Y-94114952D01*
X132674928Y-94210190D01*
X132674928Y-94495904D01*
X132722547Y-94591142D01*
X132770166Y-94638761D01*
X132865404Y-94686380D01*
X133008261Y-94686380D01*
X90177309Y-80986380D02*
X89843976Y-81986380D01*
X89510642Y-80986380D01*
X89177309Y-81986380D02*
X89177309Y-81319714D01*
X89177309Y-80986380D02*
X89224928Y-81034000D01*
X89177309Y-81081619D01*
X89129690Y-81034000D01*
X89177309Y-80986380D01*
X89177309Y-81081619D01*
X88558261Y-81986380D02*
X88653500Y-81938761D01*
X88701119Y-81891142D01*
X88748738Y-81795904D01*
X88748738Y-81510190D01*
X88701119Y-81414952D01*
X88653500Y-81367333D01*
X88558261Y-81319714D01*
X88415404Y-81319714D01*
X88320166Y-81367333D01*
X88272547Y-81414952D01*
X88224928Y-81510190D01*
X88224928Y-81795904D01*
X88272547Y-81891142D01*
X88320166Y-81938761D01*
X88415404Y-81986380D01*
X88558261Y-81986380D01*
X89923309Y-102068380D02*
X89589976Y-103068380D01*
X89256642Y-102068380D01*
X88923309Y-103068380D02*
X88923309Y-102401714D01*
X88923309Y-102068380D02*
X88970928Y-102116000D01*
X88923309Y-102163619D01*
X88875690Y-102116000D01*
X88923309Y-102068380D01*
X88923309Y-102163619D01*
X88304261Y-103068380D02*
X88399500Y-103020761D01*
X88447119Y-102973142D01*
X88494738Y-102877904D01*
X88494738Y-102592190D01*
X88447119Y-102496952D01*
X88399500Y-102449333D01*
X88304261Y-102401714D01*
X88161404Y-102401714D01*
X88066166Y-102449333D01*
X88018547Y-102496952D01*
X87970928Y-102592190D01*
X87970928Y-102877904D01*
X88018547Y-102973142D01*
X88066166Y-103020761D01*
X88161404Y-103068380D01*
X88304261Y-103068380D01*
X97765595Y-117784571D02*
X97432261Y-117784571D01*
X97289404Y-118308380D02*
X97765595Y-118308380D01*
X97765595Y-117308380D01*
X97289404Y-117308380D01*
X96860833Y-118308380D02*
X96860833Y-117308380D01*
X96289404Y-118308380D01*
X96289404Y-117308380D01*
X97786223Y-115768380D02*
X97786223Y-114768380D01*
X97452890Y-115482666D01*
X97119557Y-114768380D01*
X97119557Y-115768380D01*
X96119557Y-115768380D02*
X96690985Y-115768380D01*
X96405271Y-115768380D02*
X96405271Y-114768380D01*
X96500509Y-114911238D01*
X96595747Y-115006476D01*
X96690985Y-115054095D01*
X97837023Y-113228380D02*
X97837023Y-112228380D01*
X97503690Y-112942666D01*
X97170357Y-112228380D01*
X97170357Y-113228380D01*
X96741785Y-112323619D02*
X96694166Y-112276000D01*
X96598928Y-112228380D01*
X96360833Y-112228380D01*
X96265595Y-112276000D01*
X96217976Y-112323619D01*
X96170357Y-112418857D01*
X96170357Y-112514095D01*
X96217976Y-112656952D01*
X96789404Y-113228380D01*
X96170357Y-113228380D01*
X97613195Y-95889771D02*
X97279861Y-95889771D01*
X97137004Y-96413580D02*
X97613195Y-96413580D01*
X97613195Y-95413580D01*
X97137004Y-95413580D01*
X96708433Y-96413580D02*
X96708433Y-95413580D01*
X96137004Y-96413580D01*
X96137004Y-95413580D01*
X97633823Y-93670380D02*
X97633823Y-92670380D01*
X97300490Y-93384666D01*
X96967157Y-92670380D01*
X96967157Y-93670380D01*
X95967157Y-93670380D02*
X96538585Y-93670380D01*
X96252871Y-93670380D02*
X96252871Y-92670380D01*
X96348109Y-92813238D01*
X96443347Y-92908476D01*
X96538585Y-92956095D01*
X97633823Y-91079580D02*
X97633823Y-90079580D01*
X97300490Y-90793866D01*
X96967157Y-90079580D01*
X96967157Y-91079580D01*
X96538585Y-90174819D02*
X96490966Y-90127200D01*
X96395728Y-90079580D01*
X96157633Y-90079580D01*
X96062395Y-90127200D01*
X96014776Y-90174819D01*
X95967157Y-90270057D01*
X95967157Y-90365295D01*
X96014776Y-90508152D01*
X96586204Y-91079580D01*
X95967157Y-91079580D01*
X80612738Y-99766380D02*
X80946071Y-99290190D01*
X81184166Y-99766380D02*
X81184166Y-98766380D01*
X80803214Y-98766380D01*
X80707976Y-98814000D01*
X80660357Y-98861619D01*
X80612738Y-98956857D01*
X80612738Y-99099714D01*
X80660357Y-99194952D01*
X80707976Y-99242571D01*
X80803214Y-99290190D01*
X81184166Y-99290190D01*
X80279404Y-99766380D02*
X79755595Y-99099714D01*
X80279404Y-99099714D02*
X79755595Y-99766380D01*
X81207976Y-96734380D02*
X80636547Y-96734380D01*
X80922261Y-97734380D02*
X80922261Y-96734380D01*
X80398452Y-97734380D02*
X79874642Y-97067714D01*
X80398452Y-97067714D02*
X79874642Y-97734380D01*
X89304261Y-84002571D02*
X89161404Y-84050190D01*
X89113785Y-84097809D01*
X89066166Y-84193047D01*
X89066166Y-84335904D01*
X89113785Y-84431142D01*
X89161404Y-84478761D01*
X89256642Y-84526380D01*
X89637595Y-84526380D01*
X89637595Y-83526380D01*
X89304261Y-83526380D01*
X89209023Y-83574000D01*
X89161404Y-83621619D01*
X89113785Y-83716857D01*
X89113785Y-83812095D01*
X89161404Y-83907333D01*
X89209023Y-83954952D01*
X89304261Y-84002571D01*
X89637595Y-84002571D01*
X88685214Y-83621619D02*
X88637595Y-83574000D01*
X88542357Y-83526380D01*
X88304261Y-83526380D01*
X88209023Y-83574000D01*
X88161404Y-83621619D01*
X88113785Y-83716857D01*
X88113785Y-83812095D01*
X88161404Y-83954952D01*
X88732833Y-84526380D01*
X88113785Y-84526380D01*
X89304261Y-86542571D02*
X89161404Y-86590190D01*
X89113785Y-86637809D01*
X89066166Y-86733047D01*
X89066166Y-86875904D01*
X89113785Y-86971142D01*
X89161404Y-87018761D01*
X89256642Y-87066380D01*
X89637595Y-87066380D01*
X89637595Y-86066380D01*
X89304261Y-86066380D01*
X89209023Y-86114000D01*
X89161404Y-86161619D01*
X89113785Y-86256857D01*
X89113785Y-86352095D01*
X89161404Y-86447333D01*
X89209023Y-86494952D01*
X89304261Y-86542571D01*
X89637595Y-86542571D01*
X88113785Y-87066380D02*
X88685214Y-87066380D01*
X88399500Y-87066380D02*
X88399500Y-86066380D01*
X88494738Y-86209238D01*
X88589976Y-86304476D01*
X88685214Y-86352095D01*
X89613785Y-91860666D02*
X89137595Y-91860666D01*
X89709023Y-92146380D02*
X89375690Y-91146380D01*
X89042357Y-92146380D01*
X88185214Y-92146380D02*
X88756642Y-92146380D01*
X88470928Y-92146380D02*
X88470928Y-91146380D01*
X88566166Y-91289238D01*
X88661404Y-91384476D01*
X88756642Y-91432095D01*
X89613785Y-89320666D02*
X89137595Y-89320666D01*
X89709023Y-89606380D02*
X89375690Y-88606380D01*
X89042357Y-89606380D01*
X88756642Y-88701619D02*
X88709023Y-88654000D01*
X88613785Y-88606380D01*
X88375690Y-88606380D01*
X88280452Y-88654000D01*
X88232833Y-88701619D01*
X88185214Y-88796857D01*
X88185214Y-88892095D01*
X88232833Y-89034952D01*
X88804261Y-89606380D01*
X88185214Y-89606380D01*
X89613785Y-112942666D02*
X89137595Y-112942666D01*
X89709023Y-113228380D02*
X89375690Y-112228380D01*
X89042357Y-113228380D01*
X88185214Y-113228380D02*
X88756642Y-113228380D01*
X88470928Y-113228380D02*
X88470928Y-112228380D01*
X88566166Y-112371238D01*
X88661404Y-112466476D01*
X88756642Y-112514095D01*
X89304261Y-107624571D02*
X89161404Y-107672190D01*
X89113785Y-107719809D01*
X89066166Y-107815047D01*
X89066166Y-107957904D01*
X89113785Y-108053142D01*
X89161404Y-108100761D01*
X89256642Y-108148380D01*
X89637595Y-108148380D01*
X89637595Y-107148380D01*
X89304261Y-107148380D01*
X89209023Y-107196000D01*
X89161404Y-107243619D01*
X89113785Y-107338857D01*
X89113785Y-107434095D01*
X89161404Y-107529333D01*
X89209023Y-107576952D01*
X89304261Y-107624571D01*
X89637595Y-107624571D01*
X88113785Y-108148380D02*
X88685214Y-108148380D01*
X88399500Y-108148380D02*
X88399500Y-107148380D01*
X88494738Y-107291238D01*
X88589976Y-107386476D01*
X88685214Y-107434095D01*
X89304261Y-105084571D02*
X89161404Y-105132190D01*
X89113785Y-105179809D01*
X89066166Y-105275047D01*
X89066166Y-105417904D01*
X89113785Y-105513142D01*
X89161404Y-105560761D01*
X89256642Y-105608380D01*
X89637595Y-105608380D01*
X89637595Y-104608380D01*
X89304261Y-104608380D01*
X89209023Y-104656000D01*
X89161404Y-104703619D01*
X89113785Y-104798857D01*
X89113785Y-104894095D01*
X89161404Y-104989333D01*
X89209023Y-105036952D01*
X89304261Y-105084571D01*
X89637595Y-105084571D01*
X88685214Y-104703619D02*
X88637595Y-104656000D01*
X88542357Y-104608380D01*
X88304261Y-104608380D01*
X88209023Y-104656000D01*
X88161404Y-104703619D01*
X88113785Y-104798857D01*
X88113785Y-104894095D01*
X88161404Y-105036952D01*
X88732833Y-105608380D01*
X88113785Y-105608380D01*
X89613785Y-110402666D02*
X89137595Y-110402666D01*
X89709023Y-110688380D02*
X89375690Y-109688380D01*
X89042357Y-110688380D01*
X88756642Y-109783619D02*
X88709023Y-109736000D01*
X88613785Y-109688380D01*
X88375690Y-109688380D01*
X88280452Y-109736000D01*
X88232833Y-109783619D01*
X88185214Y-109878857D01*
X88185214Y-109974095D01*
X88232833Y-110116952D01*
X88804261Y-110688380D01*
X88185214Y-110688380D01*
X134008261Y-112704571D02*
X133865404Y-112752190D01*
X133817785Y-112799809D01*
X133770166Y-112895047D01*
X133770166Y-113037904D01*
X133817785Y-113133142D01*
X133865404Y-113180761D01*
X133960642Y-113228380D01*
X134341595Y-113228380D01*
X134341595Y-112228380D01*
X134008261Y-112228380D01*
X133913023Y-112276000D01*
X133865404Y-112323619D01*
X133817785Y-112418857D01*
X133817785Y-112514095D01*
X133865404Y-112609333D01*
X133913023Y-112656952D01*
X134008261Y-112704571D01*
X134341595Y-112704571D01*
X133389214Y-112323619D02*
X133341595Y-112276000D01*
X133246357Y-112228380D01*
X133008261Y-112228380D01*
X132913023Y-112276000D01*
X132865404Y-112323619D01*
X132817785Y-112418857D01*
X132817785Y-112514095D01*
X132865404Y-112656952D01*
X133436833Y-113228380D01*
X132817785Y-113228380D01*
X134317785Y-107862666D02*
X133841595Y-107862666D01*
X134413023Y-108148380D02*
X134079690Y-107148380D01*
X133746357Y-108148380D01*
X133460642Y-107243619D02*
X133413023Y-107196000D01*
X133317785Y-107148380D01*
X133079690Y-107148380D01*
X132984452Y-107196000D01*
X132936833Y-107243619D01*
X132889214Y-107338857D01*
X132889214Y-107434095D01*
X132936833Y-107576952D01*
X133508261Y-108148380D01*
X132889214Y-108148380D01*
X134317785Y-105322666D02*
X133841595Y-105322666D01*
X134413023Y-105608380D02*
X134079690Y-104608380D01*
X133746357Y-105608380D01*
X132889214Y-105608380D02*
X133460642Y-105608380D01*
X133174928Y-105608380D02*
X133174928Y-104608380D01*
X133270166Y-104751238D01*
X133365404Y-104846476D01*
X133460642Y-104894095D01*
X134008261Y-110164571D02*
X133865404Y-110212190D01*
X133817785Y-110259809D01*
X133770166Y-110355047D01*
X133770166Y-110497904D01*
X133817785Y-110593142D01*
X133865404Y-110640761D01*
X133960642Y-110688380D01*
X134341595Y-110688380D01*
X134341595Y-109688380D01*
X134008261Y-109688380D01*
X133913023Y-109736000D01*
X133865404Y-109783619D01*
X133817785Y-109878857D01*
X133817785Y-109974095D01*
X133865404Y-110069333D01*
X133913023Y-110116952D01*
X134008261Y-110164571D01*
X134341595Y-110164571D01*
X132817785Y-110688380D02*
X133389214Y-110688380D01*
X133103500Y-110688380D02*
X133103500Y-109688380D01*
X133198738Y-109831238D01*
X133293976Y-109926476D01*
X133389214Y-109974095D01*
X134008261Y-91622571D02*
X133865404Y-91670190D01*
X133817785Y-91717809D01*
X133770166Y-91813047D01*
X133770166Y-91955904D01*
X133817785Y-92051142D01*
X133865404Y-92098761D01*
X133960642Y-92146380D01*
X134341595Y-92146380D01*
X134341595Y-91146380D01*
X134008261Y-91146380D01*
X133913023Y-91194000D01*
X133865404Y-91241619D01*
X133817785Y-91336857D01*
X133817785Y-91432095D01*
X133865404Y-91527333D01*
X133913023Y-91574952D01*
X134008261Y-91622571D01*
X134341595Y-91622571D01*
X133389214Y-91241619D02*
X133341595Y-91194000D01*
X133246357Y-91146380D01*
X133008261Y-91146380D01*
X132913023Y-91194000D01*
X132865404Y-91241619D01*
X132817785Y-91336857D01*
X132817785Y-91432095D01*
X132865404Y-91574952D01*
X133436833Y-92146380D01*
X132817785Y-92146380D01*
X134008261Y-89082571D02*
X133865404Y-89130190D01*
X133817785Y-89177809D01*
X133770166Y-89273047D01*
X133770166Y-89415904D01*
X133817785Y-89511142D01*
X133865404Y-89558761D01*
X133960642Y-89606380D01*
X134341595Y-89606380D01*
X134341595Y-88606380D01*
X134008261Y-88606380D01*
X133913023Y-88654000D01*
X133865404Y-88701619D01*
X133817785Y-88796857D01*
X133817785Y-88892095D01*
X133865404Y-88987333D01*
X133913023Y-89034952D01*
X134008261Y-89082571D01*
X134341595Y-89082571D01*
X132817785Y-89606380D02*
X133389214Y-89606380D01*
X133103500Y-89606380D02*
X133103500Y-88606380D01*
X133198738Y-88749238D01*
X133293976Y-88844476D01*
X133389214Y-88892095D01*
X134317785Y-86780666D02*
X133841595Y-86780666D01*
X134413023Y-87066380D02*
X134079690Y-86066380D01*
X133746357Y-87066380D01*
X133460642Y-86161619D02*
X133413023Y-86114000D01*
X133317785Y-86066380D01*
X133079690Y-86066380D01*
X132984452Y-86114000D01*
X132936833Y-86161619D01*
X132889214Y-86256857D01*
X132889214Y-86352095D01*
X132936833Y-86494952D01*
X133508261Y-87066380D01*
X132889214Y-87066380D01*
X134317785Y-84240666D02*
X133841595Y-84240666D01*
X134413023Y-84526380D02*
X134079690Y-83526380D01*
X133746357Y-84526380D01*
X132889214Y-84526380D02*
X133460642Y-84526380D01*
X133174928Y-84526380D02*
X133174928Y-83526380D01*
X133270166Y-83669238D01*
X133365404Y-83764476D01*
X133460642Y-83812095D01*
X127269214Y-118308380D02*
X127269214Y-117308380D01*
X127031119Y-117308380D01*
X126888261Y-117356000D01*
X126793023Y-117451238D01*
X126745404Y-117546476D01*
X126697785Y-117736952D01*
X126697785Y-117879809D01*
X126745404Y-118070285D01*
X126793023Y-118165523D01*
X126888261Y-118260761D01*
X127031119Y-118308380D01*
X127269214Y-118308380D01*
X126269214Y-118308380D02*
X126269214Y-117641714D01*
X126269214Y-117308380D02*
X126316833Y-117356000D01*
X126269214Y-117403619D01*
X126221595Y-117356000D01*
X126269214Y-117308380D01*
X126269214Y-117403619D01*
X125793023Y-118308380D02*
X125793023Y-117641714D01*
X125793023Y-117832190D02*
X125745404Y-117736952D01*
X125697785Y-117689333D01*
X125602547Y-117641714D01*
X125507309Y-117641714D01*
X125269214Y-117308380D02*
X124650166Y-117308380D01*
X124983500Y-117689333D01*
X124840642Y-117689333D01*
X124745404Y-117736952D01*
X124697785Y-117784571D01*
X124650166Y-117879809D01*
X124650166Y-118117904D01*
X124697785Y-118213142D01*
X124745404Y-118260761D01*
X124840642Y-118308380D01*
X125126357Y-118308380D01*
X125221595Y-118260761D01*
X125269214Y-118213142D01*
X128420071Y-115720761D02*
X128277214Y-115768380D01*
X128039119Y-115768380D01*
X127943880Y-115720761D01*
X127896261Y-115673142D01*
X127848642Y-115577904D01*
X127848642Y-115482666D01*
X127896261Y-115387428D01*
X127943880Y-115339809D01*
X128039119Y-115292190D01*
X128229595Y-115244571D01*
X128324833Y-115196952D01*
X128372452Y-115149333D01*
X128420071Y-115054095D01*
X128420071Y-114958857D01*
X128372452Y-114863619D01*
X128324833Y-114816000D01*
X128229595Y-114768380D01*
X127991500Y-114768380D01*
X127848642Y-114816000D01*
X127562928Y-115101714D02*
X127181976Y-115101714D01*
X127420071Y-114768380D02*
X127420071Y-115625523D01*
X127372452Y-115720761D01*
X127277214Y-115768380D01*
X127181976Y-115768380D01*
X126467690Y-115720761D02*
X126562928Y-115768380D01*
X126753404Y-115768380D01*
X126848642Y-115720761D01*
X126896261Y-115625523D01*
X126896261Y-115244571D01*
X126848642Y-115149333D01*
X126753404Y-115101714D01*
X126562928Y-115101714D01*
X126467690Y-115149333D01*
X126420071Y-115244571D01*
X126420071Y-115339809D01*
X126896261Y-115435047D01*
X125991500Y-115101714D02*
X125991500Y-116101714D01*
X125991500Y-115149333D02*
X125896261Y-115101714D01*
X125705785Y-115101714D01*
X125610547Y-115149333D01*
X125562928Y-115196952D01*
X125515309Y-115292190D01*
X125515309Y-115577904D01*
X125562928Y-115673142D01*
X125610547Y-115720761D01*
X125705785Y-115768380D01*
X125896261Y-115768380D01*
X125991500Y-115720761D01*
X125181976Y-114768380D02*
X124562928Y-114768380D01*
X124896261Y-115149333D01*
X124753404Y-115149333D01*
X124658166Y-115196952D01*
X124610547Y-115244571D01*
X124562928Y-115339809D01*
X124562928Y-115577904D01*
X124610547Y-115673142D01*
X124658166Y-115720761D01*
X124753404Y-115768380D01*
X125039119Y-115768380D01*
X125134357Y-115720761D01*
X125181976Y-115673142D01*
X127269214Y-97226380D02*
X127269214Y-96226380D01*
X127031119Y-96226380D01*
X126888261Y-96274000D01*
X126793023Y-96369238D01*
X126745404Y-96464476D01*
X126697785Y-96654952D01*
X126697785Y-96797809D01*
X126745404Y-96988285D01*
X126793023Y-97083523D01*
X126888261Y-97178761D01*
X127031119Y-97226380D01*
X127269214Y-97226380D01*
X126269214Y-97226380D02*
X126269214Y-96559714D01*
X126269214Y-96226380D02*
X126316833Y-96274000D01*
X126269214Y-96321619D01*
X126221595Y-96274000D01*
X126269214Y-96226380D01*
X126269214Y-96321619D01*
X125793023Y-97226380D02*
X125793023Y-96559714D01*
X125793023Y-96750190D02*
X125745404Y-96654952D01*
X125697785Y-96607333D01*
X125602547Y-96559714D01*
X125507309Y-96559714D01*
X125221595Y-96321619D02*
X125173976Y-96274000D01*
X125078738Y-96226380D01*
X124840642Y-96226380D01*
X124745404Y-96274000D01*
X124697785Y-96321619D01*
X124650166Y-96416857D01*
X124650166Y-96512095D01*
X124697785Y-96654952D01*
X125269214Y-97226380D01*
X124650166Y-97226380D01*
X128420071Y-94638761D02*
X128277214Y-94686380D01*
X128039119Y-94686380D01*
X127943880Y-94638761D01*
X127896261Y-94591142D01*
X127848642Y-94495904D01*
X127848642Y-94400666D01*
X127896261Y-94305428D01*
X127943880Y-94257809D01*
X128039119Y-94210190D01*
X128229595Y-94162571D01*
X128324833Y-94114952D01*
X128372452Y-94067333D01*
X128420071Y-93972095D01*
X128420071Y-93876857D01*
X128372452Y-93781619D01*
X128324833Y-93734000D01*
X128229595Y-93686380D01*
X127991500Y-93686380D01*
X127848642Y-93734000D01*
X127562928Y-94019714D02*
X127181976Y-94019714D01*
X127420071Y-93686380D02*
X127420071Y-94543523D01*
X127372452Y-94638761D01*
X127277214Y-94686380D01*
X127181976Y-94686380D01*
X126467690Y-94638761D02*
X126562928Y-94686380D01*
X126753404Y-94686380D01*
X126848642Y-94638761D01*
X126896261Y-94543523D01*
X126896261Y-94162571D01*
X126848642Y-94067333D01*
X126753404Y-94019714D01*
X126562928Y-94019714D01*
X126467690Y-94067333D01*
X126420071Y-94162571D01*
X126420071Y-94257809D01*
X126896261Y-94353047D01*
X125991500Y-94019714D02*
X125991500Y-95019714D01*
X125991500Y-94067333D02*
X125896261Y-94019714D01*
X125705785Y-94019714D01*
X125610547Y-94067333D01*
X125562928Y-94114952D01*
X125515309Y-94210190D01*
X125515309Y-94495904D01*
X125562928Y-94591142D01*
X125610547Y-94638761D01*
X125705785Y-94686380D01*
X125896261Y-94686380D01*
X125991500Y-94638761D01*
X125134357Y-93781619D02*
X125086738Y-93734000D01*
X124991500Y-93686380D01*
X124753404Y-93686380D01*
X124658166Y-93734000D01*
X124610547Y-93781619D01*
X124562928Y-93876857D01*
X124562928Y-93972095D01*
X124610547Y-94114952D01*
X125181976Y-94686380D01*
X124562928Y-94686380D01*
X97940071Y-81938761D02*
X97797214Y-81986380D01*
X97559119Y-81986380D01*
X97463880Y-81938761D01*
X97416261Y-81891142D01*
X97368642Y-81795904D01*
X97368642Y-81700666D01*
X97416261Y-81605428D01*
X97463880Y-81557809D01*
X97559119Y-81510190D01*
X97749595Y-81462571D01*
X97844833Y-81414952D01*
X97892452Y-81367333D01*
X97940071Y-81272095D01*
X97940071Y-81176857D01*
X97892452Y-81081619D01*
X97844833Y-81034000D01*
X97749595Y-80986380D01*
X97511500Y-80986380D01*
X97368642Y-81034000D01*
X97082928Y-81319714D02*
X96701976Y-81319714D01*
X96940071Y-80986380D02*
X96940071Y-81843523D01*
X96892452Y-81938761D01*
X96797214Y-81986380D01*
X96701976Y-81986380D01*
X95987690Y-81938761D02*
X96082928Y-81986380D01*
X96273404Y-81986380D01*
X96368642Y-81938761D01*
X96416261Y-81843523D01*
X96416261Y-81462571D01*
X96368642Y-81367333D01*
X96273404Y-81319714D01*
X96082928Y-81319714D01*
X95987690Y-81367333D01*
X95940071Y-81462571D01*
X95940071Y-81557809D01*
X96416261Y-81653047D01*
X95511500Y-81319714D02*
X95511500Y-82319714D01*
X95511500Y-81367333D02*
X95416261Y-81319714D01*
X95225785Y-81319714D01*
X95130547Y-81367333D01*
X95082928Y-81414952D01*
X95035309Y-81510190D01*
X95035309Y-81795904D01*
X95082928Y-81891142D01*
X95130547Y-81938761D01*
X95225785Y-81986380D01*
X95416261Y-81986380D01*
X95511500Y-81938761D01*
X94082928Y-81986380D02*
X94654357Y-81986380D01*
X94368642Y-81986380D02*
X94368642Y-80986380D01*
X94463880Y-81129238D01*
X94559119Y-81224476D01*
X94654357Y-81272095D01*
X97805214Y-79446380D02*
X97805214Y-78446380D01*
X97567119Y-78446380D01*
X97424261Y-78494000D01*
X97329023Y-78589238D01*
X97281404Y-78684476D01*
X97233785Y-78874952D01*
X97233785Y-79017809D01*
X97281404Y-79208285D01*
X97329023Y-79303523D01*
X97424261Y-79398761D01*
X97567119Y-79446380D01*
X97805214Y-79446380D01*
X96805214Y-79446380D02*
X96805214Y-78779714D01*
X96805214Y-78446380D02*
X96852833Y-78494000D01*
X96805214Y-78541619D01*
X96757595Y-78494000D01*
X96805214Y-78446380D01*
X96805214Y-78541619D01*
X96329023Y-79446380D02*
X96329023Y-78779714D01*
X96329023Y-78970190D02*
X96281404Y-78874952D01*
X96233785Y-78827333D01*
X96138547Y-78779714D01*
X96043309Y-78779714D01*
X95186166Y-79446380D02*
X95757595Y-79446380D01*
X95471880Y-79446380D02*
X95471880Y-78446380D01*
X95567119Y-78589238D01*
X95662357Y-78684476D01*
X95757595Y-78732095D01*
X97940071Y-103020761D02*
X97797214Y-103068380D01*
X97559119Y-103068380D01*
X97463880Y-103020761D01*
X97416261Y-102973142D01*
X97368642Y-102877904D01*
X97368642Y-102782666D01*
X97416261Y-102687428D01*
X97463880Y-102639809D01*
X97559119Y-102592190D01*
X97749595Y-102544571D01*
X97844833Y-102496952D01*
X97892452Y-102449333D01*
X97940071Y-102354095D01*
X97940071Y-102258857D01*
X97892452Y-102163619D01*
X97844833Y-102116000D01*
X97749595Y-102068380D01*
X97511500Y-102068380D01*
X97368642Y-102116000D01*
X97082928Y-102401714D02*
X96701976Y-102401714D01*
X96940071Y-102068380D02*
X96940071Y-102925523D01*
X96892452Y-103020761D01*
X96797214Y-103068380D01*
X96701976Y-103068380D01*
X95987690Y-103020761D02*
X96082928Y-103068380D01*
X96273404Y-103068380D01*
X96368642Y-103020761D01*
X96416261Y-102925523D01*
X96416261Y-102544571D01*
X96368642Y-102449333D01*
X96273404Y-102401714D01*
X96082928Y-102401714D01*
X95987690Y-102449333D01*
X95940071Y-102544571D01*
X95940071Y-102639809D01*
X96416261Y-102735047D01*
X95511500Y-102401714D02*
X95511500Y-103401714D01*
X95511500Y-102449333D02*
X95416261Y-102401714D01*
X95225785Y-102401714D01*
X95130547Y-102449333D01*
X95082928Y-102496952D01*
X95035309Y-102592190D01*
X95035309Y-102877904D01*
X95082928Y-102973142D01*
X95130547Y-103020761D01*
X95225785Y-103068380D01*
X95416261Y-103068380D01*
X95511500Y-103020761D01*
X94178166Y-102401714D02*
X94178166Y-103068380D01*
X94416261Y-102020761D02*
X94654357Y-102735047D01*
X94035309Y-102735047D01*
X97805214Y-100528380D02*
X97805214Y-99528380D01*
X97567119Y-99528380D01*
X97424261Y-99576000D01*
X97329023Y-99671238D01*
X97281404Y-99766476D01*
X97233785Y-99956952D01*
X97233785Y-100099809D01*
X97281404Y-100290285D01*
X97329023Y-100385523D01*
X97424261Y-100480761D01*
X97567119Y-100528380D01*
X97805214Y-100528380D01*
X96805214Y-100528380D02*
X96805214Y-99861714D01*
X96805214Y-99528380D02*
X96852833Y-99576000D01*
X96805214Y-99623619D01*
X96757595Y-99576000D01*
X96805214Y-99528380D01*
X96805214Y-99623619D01*
X96329023Y-100528380D02*
X96329023Y-99861714D01*
X96329023Y-100052190D02*
X96281404Y-99956952D01*
X96233785Y-99909333D01*
X96138547Y-99861714D01*
X96043309Y-99861714D01*
X95281404Y-99861714D02*
X95281404Y-100528380D01*
X95519500Y-99480761D02*
X95757595Y-100195047D01*
X95138547Y-100195047D01*
X111652942Y-76398380D02*
X111652942Y-75398380D01*
X111414847Y-75398380D01*
X111271990Y-75446000D01*
X111176752Y-75541238D01*
X111129133Y-75636476D01*
X111081514Y-75826952D01*
X111081514Y-75969809D01*
X111129133Y-76160285D01*
X111176752Y-76255523D01*
X111271990Y-76350761D01*
X111414847Y-76398380D01*
X111652942Y-76398380D01*
X110652942Y-76398380D02*
X110652942Y-75731714D01*
X110652942Y-75398380D02*
X110700561Y-75446000D01*
X110652942Y-75493619D01*
X110605323Y-75446000D01*
X110652942Y-75398380D01*
X110652942Y-75493619D01*
X110176752Y-76398380D02*
X110176752Y-75731714D01*
X110176752Y-75922190D02*
X110129133Y-75826952D01*
X110081514Y-75779333D01*
X109986276Y-75731714D01*
X109891038Y-75731714D01*
X109033895Y-76398380D02*
X109605323Y-76398380D01*
X109319609Y-76398380D02*
X109319609Y-75398380D01*
X109414847Y-75541238D01*
X109510085Y-75636476D01*
X109605323Y-75684095D01*
X108605323Y-76017428D02*
X107843419Y-76017428D01*
X107367228Y-76398380D02*
X107367228Y-75398380D01*
X106986276Y-75398380D01*
X106891038Y-75446000D01*
X106843419Y-75493619D01*
X106795800Y-75588857D01*
X106795800Y-75731714D01*
X106843419Y-75826952D01*
X106891038Y-75874571D01*
X106986276Y-75922190D01*
X107367228Y-75922190D01*
X106414847Y-76112666D02*
X105938657Y-76112666D01*
X106510085Y-76398380D02*
X106176752Y-75398380D01*
X105843419Y-76398380D01*
X105462466Y-76398380D02*
X105271990Y-76398380D01*
X105176752Y-76350761D01*
X105129133Y-76303142D01*
X105033895Y-76160285D01*
X104986276Y-75969809D01*
X104986276Y-75588857D01*
X105033895Y-75493619D01*
X105081514Y-75446000D01*
X105176752Y-75398380D01*
X105367228Y-75398380D01*
X105462466Y-75446000D01*
X105510085Y-75493619D01*
X105557704Y-75588857D01*
X105557704Y-75826952D01*
X105510085Y-75922190D01*
X105462466Y-75969809D01*
X105367228Y-76017428D01*
X105176752Y-76017428D01*
X105081514Y-75969809D01*
X105033895Y-75922190D01*
X104986276Y-75826952D01*
X113843419Y-78890761D02*
X113700561Y-78938380D01*
X113462466Y-78938380D01*
X113367228Y-78890761D01*
X113319609Y-78843142D01*
X113271990Y-78747904D01*
X113271990Y-78652666D01*
X113319609Y-78557428D01*
X113367228Y-78509809D01*
X113462466Y-78462190D01*
X113652942Y-78414571D01*
X113748180Y-78366952D01*
X113795800Y-78319333D01*
X113843419Y-78224095D01*
X113843419Y-78128857D01*
X113795800Y-78033619D01*
X113748180Y-77986000D01*
X113652942Y-77938380D01*
X113414847Y-77938380D01*
X113271990Y-77986000D01*
X112986276Y-78271714D02*
X112605323Y-78271714D01*
X112843419Y-77938380D02*
X112843419Y-78795523D01*
X112795800Y-78890761D01*
X112700561Y-78938380D01*
X112605323Y-78938380D01*
X111891038Y-78890761D02*
X111986276Y-78938380D01*
X112176752Y-78938380D01*
X112271990Y-78890761D01*
X112319609Y-78795523D01*
X112319609Y-78414571D01*
X112271990Y-78319333D01*
X112176752Y-78271714D01*
X111986276Y-78271714D01*
X111891038Y-78319333D01*
X111843419Y-78414571D01*
X111843419Y-78509809D01*
X112319609Y-78605047D01*
X111414847Y-78271714D02*
X111414847Y-79271714D01*
X111414847Y-78319333D02*
X111319609Y-78271714D01*
X111129133Y-78271714D01*
X111033895Y-78319333D01*
X110986276Y-78366952D01*
X110938657Y-78462190D01*
X110938657Y-78747904D01*
X110986276Y-78843142D01*
X111033895Y-78890761D01*
X111129133Y-78938380D01*
X111319609Y-78938380D01*
X111414847Y-78890761D01*
X109986276Y-78938380D02*
X110557704Y-78938380D01*
X110271990Y-78938380D02*
X110271990Y-77938380D01*
X110367228Y-78081238D01*
X110462466Y-78176476D01*
X110557704Y-78224095D01*
X109557704Y-78557428D02*
X108795800Y-78557428D01*
X108319609Y-78938380D02*
X108319609Y-77938380D01*
X107938657Y-77938380D01*
X107843419Y-77986000D01*
X107795800Y-78033619D01*
X107748180Y-78128857D01*
X107748180Y-78271714D01*
X107795800Y-78366952D01*
X107843419Y-78414571D01*
X107938657Y-78462190D01*
X108319609Y-78462190D01*
X107367228Y-78652666D02*
X106891038Y-78652666D01*
X107462466Y-78938380D02*
X107129133Y-77938380D01*
X106795800Y-78938380D01*
X105938657Y-78938380D02*
X106510085Y-78938380D01*
X106224371Y-78938380D02*
X106224371Y-77938380D01*
X106319609Y-78081238D01*
X106414847Y-78176476D01*
X106510085Y-78224095D01*
X105319609Y-77938380D02*
X105224371Y-77938380D01*
X105129133Y-77986000D01*
X105081514Y-78033619D01*
X105033895Y-78128857D01*
X104986276Y-78319333D01*
X104986276Y-78557428D01*
X105033895Y-78747904D01*
X105081514Y-78843142D01*
X105129133Y-78890761D01*
X105224371Y-78938380D01*
X105319609Y-78938380D01*
X105414847Y-78890761D01*
X105462466Y-78843142D01*
X105510085Y-78747904D01*
X105557704Y-78557428D01*
X105557704Y-78319333D01*
X105510085Y-78128857D01*
X105462466Y-78033619D01*
X105414847Y-77986000D01*
X105319609Y-77938380D01*
X115440295Y-106522780D02*
X115440295Y-105522780D01*
X115059342Y-105522780D01*
X114964104Y-105570400D01*
X114916485Y-105618019D01*
X114868866Y-105713257D01*
X114868866Y-105856114D01*
X114916485Y-105951352D01*
X114964104Y-105998971D01*
X115059342Y-106046590D01*
X115440295Y-106046590D01*
X114487914Y-106237066D02*
X114011723Y-106237066D01*
X114583152Y-106522780D02*
X114249819Y-105522780D01*
X113916485Y-106522780D01*
X113059342Y-106522780D02*
X113630771Y-106522780D01*
X113345057Y-106522780D02*
X113345057Y-105522780D01*
X113440295Y-105665638D01*
X113535533Y-105760876D01*
X113630771Y-105808495D01*
X112106961Y-106522780D02*
X112678390Y-106522780D01*
X112392676Y-106522780D02*
X112392676Y-105522780D01*
X112487914Y-105665638D01*
X112583152Y-105760876D01*
X112678390Y-105808495D01*
X111678390Y-106141828D02*
X110916485Y-106141828D01*
X109868866Y-106427542D02*
X109916485Y-106475161D01*
X110059342Y-106522780D01*
X110154580Y-106522780D01*
X110297438Y-106475161D01*
X110392676Y-106379923D01*
X110440295Y-106284685D01*
X110487914Y-106094209D01*
X110487914Y-105951352D01*
X110440295Y-105760876D01*
X110392676Y-105665638D01*
X110297438Y-105570400D01*
X110154580Y-105522780D01*
X110059342Y-105522780D01*
X109916485Y-105570400D01*
X109868866Y-105618019D01*
X109487914Y-106237066D02*
X109011723Y-106237066D01*
X109583152Y-106522780D02*
X109249819Y-105522780D01*
X108916485Y-106522780D01*
X108583152Y-106522780D02*
X108583152Y-105522780D01*
X108011723Y-106522780D01*
X108011723Y-105522780D01*
X107773628Y-106618019D02*
X107011723Y-106618019D01*
X106202200Y-106522780D02*
X106535533Y-106046590D01*
X106773628Y-106522780D02*
X106773628Y-105522780D01*
X106392676Y-105522780D01*
X106297438Y-105570400D01*
X106249819Y-105618019D01*
X106202200Y-105713257D01*
X106202200Y-105856114D01*
X106249819Y-105951352D01*
X106297438Y-105998971D01*
X106392676Y-106046590D01*
X106773628Y-106046590D01*
X105868866Y-106522780D02*
X105345057Y-105856114D01*
X105868866Y-105856114D02*
X105345057Y-106522780D01*
X109275171Y-85485742D02*
X109322790Y-85533361D01*
X109465647Y-85580980D01*
X109560885Y-85580980D01*
X109703742Y-85533361D01*
X109798980Y-85438123D01*
X109846600Y-85342885D01*
X109894219Y-85152409D01*
X109894219Y-85009552D01*
X109846600Y-84819076D01*
X109798980Y-84723838D01*
X109703742Y-84628600D01*
X109560885Y-84580980D01*
X109465647Y-84580980D01*
X109322790Y-84628600D01*
X109275171Y-84676219D01*
X108894219Y-85295266D02*
X108418028Y-85295266D01*
X108989457Y-85580980D02*
X108656123Y-84580980D01*
X108322790Y-85580980D01*
X107989457Y-85580980D02*
X107989457Y-84580980D01*
X107418028Y-85580980D01*
X107418028Y-84580980D01*
X106322790Y-84580980D02*
X105751361Y-84580980D01*
X106037076Y-85580980D02*
X106037076Y-84580980D01*
X105513266Y-85580980D02*
X104989457Y-84914314D01*
X105513266Y-84914314D02*
X104989457Y-85580980D01*
X108370409Y-87230980D02*
X108370409Y-86230980D01*
X107989457Y-86230980D01*
X107894219Y-86278600D01*
X107846600Y-86326219D01*
X107798980Y-86421457D01*
X107798980Y-86564314D01*
X107846600Y-86659552D01*
X107894219Y-86707171D01*
X107989457Y-86754790D01*
X108370409Y-86754790D01*
X107418028Y-86945266D02*
X106941838Y-86945266D01*
X107513266Y-87230980D02*
X107179933Y-86230980D01*
X106846600Y-87230980D01*
X105989457Y-87230980D02*
X106560885Y-87230980D01*
X106275171Y-87230980D02*
X106275171Y-86230980D01*
X106370409Y-86373838D01*
X106465647Y-86469076D01*
X106560885Y-86516695D01*
X105608504Y-86326219D02*
X105560885Y-86278600D01*
X105465647Y-86230980D01*
X105227552Y-86230980D01*
X105132314Y-86278600D01*
X105084695Y-86326219D01*
X105037076Y-86421457D01*
X105037076Y-86516695D01*
X105084695Y-86659552D01*
X105656123Y-87230980D01*
X105037076Y-87230980D01*
X113189476Y-112567980D02*
X113189476Y-111567980D01*
X112808523Y-111567980D01*
X112713285Y-111615600D01*
X112665666Y-111663219D01*
X112618047Y-111758457D01*
X112618047Y-111901314D01*
X112665666Y-111996552D01*
X112713285Y-112044171D01*
X112808523Y-112091790D01*
X113189476Y-112091790D01*
X111856142Y-112044171D02*
X111713285Y-112091790D01*
X111665666Y-112139409D01*
X111618047Y-112234647D01*
X111618047Y-112377504D01*
X111665666Y-112472742D01*
X111713285Y-112520361D01*
X111808523Y-112567980D01*
X112189476Y-112567980D01*
X112189476Y-111567980D01*
X111856142Y-111567980D01*
X111760904Y-111615600D01*
X111713285Y-111663219D01*
X111665666Y-111758457D01*
X111665666Y-111853695D01*
X111713285Y-111948933D01*
X111760904Y-111996552D01*
X111856142Y-112044171D01*
X112189476Y-112044171D01*
X110760904Y-111901314D02*
X110760904Y-112567980D01*
X110999000Y-111520361D02*
X111237095Y-112234647D01*
X110618047Y-112234647D01*
X110237095Y-112187028D02*
X109475190Y-112187028D01*
X109046619Y-112520361D02*
X108903761Y-112567980D01*
X108665666Y-112567980D01*
X108570428Y-112520361D01*
X108522809Y-112472742D01*
X108475190Y-112377504D01*
X108475190Y-112282266D01*
X108522809Y-112187028D01*
X108570428Y-112139409D01*
X108665666Y-112091790D01*
X108856142Y-112044171D01*
X108951380Y-111996552D01*
X108999000Y-111948933D01*
X109046619Y-111853695D01*
X109046619Y-111758457D01*
X108999000Y-111663219D01*
X108951380Y-111615600D01*
X108856142Y-111567980D01*
X108618047Y-111567980D01*
X108475190Y-111615600D01*
X108189476Y-111901314D02*
X107808523Y-111901314D01*
X108046619Y-111567980D02*
X108046619Y-112425123D01*
X107999000Y-112520361D01*
X107903761Y-112567980D01*
X107808523Y-112567980D01*
X107094238Y-112520361D02*
X107189476Y-112567980D01*
X107379952Y-112567980D01*
X107475190Y-112520361D01*
X107522809Y-112425123D01*
X107522809Y-112044171D01*
X107475190Y-111948933D01*
X107379952Y-111901314D01*
X107189476Y-111901314D01*
X107094238Y-111948933D01*
X107046619Y-112044171D01*
X107046619Y-112139409D01*
X107522809Y-112234647D01*
X106618047Y-111901314D02*
X106618047Y-112901314D01*
X106618047Y-111948933D02*
X106522809Y-111901314D01*
X106332333Y-111901314D01*
X106237095Y-111948933D01*
X106189476Y-111996552D01*
X106141857Y-112091790D01*
X106141857Y-112377504D01*
X106189476Y-112472742D01*
X106237095Y-112520361D01*
X106332333Y-112567980D01*
X106522809Y-112567980D01*
X106618047Y-112520361D01*
X105284714Y-111901314D02*
X105284714Y-112567980D01*
X105522809Y-111520361D02*
X105760904Y-112234647D01*
X105141857Y-112234647D01*
X112049800Y-108554780D02*
X112049800Y-107554780D01*
X111668847Y-107554780D01*
X111573609Y-107602400D01*
X111525990Y-107650019D01*
X111478371Y-107745257D01*
X111478371Y-107888114D01*
X111525990Y-107983352D01*
X111573609Y-108030971D01*
X111668847Y-108078590D01*
X112049800Y-108078590D01*
X110716466Y-108030971D02*
X110573609Y-108078590D01*
X110525990Y-108126209D01*
X110478371Y-108221447D01*
X110478371Y-108364304D01*
X110525990Y-108459542D01*
X110573609Y-108507161D01*
X110668847Y-108554780D01*
X111049800Y-108554780D01*
X111049800Y-107554780D01*
X110716466Y-107554780D01*
X110621228Y-107602400D01*
X110573609Y-107650019D01*
X110525990Y-107745257D01*
X110525990Y-107840495D01*
X110573609Y-107935733D01*
X110621228Y-107983352D01*
X110716466Y-108030971D01*
X111049800Y-108030971D01*
X109573609Y-107554780D02*
X110049800Y-107554780D01*
X110097419Y-108030971D01*
X110049800Y-107983352D01*
X109954561Y-107935733D01*
X109716466Y-107935733D01*
X109621228Y-107983352D01*
X109573609Y-108030971D01*
X109525990Y-108126209D01*
X109525990Y-108364304D01*
X109573609Y-108459542D01*
X109621228Y-108507161D01*
X109716466Y-108554780D01*
X109954561Y-108554780D01*
X110049800Y-108507161D01*
X110097419Y-108459542D01*
X109097419Y-108173828D02*
X108335514Y-108173828D01*
X107859323Y-108554780D02*
X107859323Y-107554780D01*
X107621228Y-107554780D01*
X107478371Y-107602400D01*
X107383133Y-107697638D01*
X107335514Y-107792876D01*
X107287895Y-107983352D01*
X107287895Y-108126209D01*
X107335514Y-108316685D01*
X107383133Y-108411923D01*
X107478371Y-108507161D01*
X107621228Y-108554780D01*
X107859323Y-108554780D01*
X106859323Y-108554780D02*
X106859323Y-107888114D01*
X106859323Y-107554780D02*
X106906942Y-107602400D01*
X106859323Y-107650019D01*
X106811704Y-107602400D01*
X106859323Y-107554780D01*
X106859323Y-107650019D01*
X106383133Y-108554780D02*
X106383133Y-107888114D01*
X106383133Y-108078590D02*
X106335514Y-107983352D01*
X106287895Y-107935733D01*
X106192657Y-107888114D01*
X106097419Y-107888114D01*
X105335514Y-107888114D02*
X105335514Y-108554780D01*
X105573609Y-107507161D02*
X105811704Y-108221447D01*
X105192657Y-108221447D01*
X116259404Y-74112380D02*
X116259404Y-73112380D01*
X116259404Y-73588571D02*
X115687976Y-73588571D01*
X115687976Y-74112380D02*
X115687976Y-73112380D01*
X114783214Y-73445714D02*
X114783214Y-74112380D01*
X115211785Y-73445714D02*
X115211785Y-73969523D01*
X115164166Y-74064761D01*
X115068928Y-74112380D01*
X114926071Y-74112380D01*
X114830833Y-74064761D01*
X114783214Y-74017142D01*
X113878452Y-73445714D02*
X113878452Y-74255238D01*
X113926071Y-74350476D01*
X113973690Y-74398095D01*
X114068928Y-74445714D01*
X114211785Y-74445714D01*
X114307023Y-74398095D01*
X113878452Y-74064761D02*
X113973690Y-74112380D01*
X114164166Y-74112380D01*
X114259404Y-74064761D01*
X114307023Y-74017142D01*
X114354642Y-73921904D01*
X114354642Y-73636190D01*
X114307023Y-73540952D01*
X114259404Y-73493333D01*
X114164166Y-73445714D01*
X113973690Y-73445714D01*
X113878452Y-73493333D01*
X113259404Y-74112380D02*
X113354642Y-74064761D01*
X113402261Y-74017142D01*
X113449880Y-73921904D01*
X113449880Y-73636190D01*
X113402261Y-73540952D01*
X113354642Y-73493333D01*
X113259404Y-73445714D01*
X113116547Y-73445714D01*
X113021309Y-73493333D01*
X112973690Y-73540952D01*
X112926071Y-73636190D01*
X112926071Y-73921904D01*
X112973690Y-74017142D01*
X113021309Y-74064761D01*
X113116547Y-74112380D01*
X113259404Y-74112380D01*
X111783214Y-74064761D02*
X111640357Y-74112380D01*
X111402261Y-74112380D01*
X111307023Y-74064761D01*
X111259404Y-74017142D01*
X111211785Y-73921904D01*
X111211785Y-73826666D01*
X111259404Y-73731428D01*
X111307023Y-73683809D01*
X111402261Y-73636190D01*
X111592738Y-73588571D01*
X111687976Y-73540952D01*
X111735595Y-73493333D01*
X111783214Y-73398095D01*
X111783214Y-73302857D01*
X111735595Y-73207619D01*
X111687976Y-73160000D01*
X111592738Y-73112380D01*
X111354642Y-73112380D01*
X111211785Y-73160000D01*
X110402261Y-74064761D02*
X110497500Y-74112380D01*
X110687976Y-74112380D01*
X110783214Y-74064761D01*
X110830833Y-73969523D01*
X110830833Y-73588571D01*
X110783214Y-73493333D01*
X110687976Y-73445714D01*
X110497500Y-73445714D01*
X110402261Y-73493333D01*
X110354642Y-73588571D01*
X110354642Y-73683809D01*
X110830833Y-73779047D01*
X109926071Y-74112380D02*
X109926071Y-73445714D01*
X109926071Y-73112380D02*
X109973690Y-73160000D01*
X109926071Y-73207619D01*
X109878452Y-73160000D01*
X109926071Y-73112380D01*
X109926071Y-73207619D01*
X109021309Y-73445714D02*
X109021309Y-74255238D01*
X109068928Y-74350476D01*
X109116547Y-74398095D01*
X109211785Y-74445714D01*
X109354642Y-74445714D01*
X109449880Y-74398095D01*
X109021309Y-74064761D02*
X109116547Y-74112380D01*
X109307023Y-74112380D01*
X109402261Y-74064761D01*
X109449880Y-74017142D01*
X109497500Y-73921904D01*
X109497500Y-73636190D01*
X109449880Y-73540952D01*
X109402261Y-73493333D01*
X109307023Y-73445714D01*
X109116547Y-73445714D01*
X109021309Y-73493333D01*
X108545119Y-73445714D02*
X108545119Y-74112380D01*
X108545119Y-73540952D02*
X108497500Y-73493333D01*
X108402261Y-73445714D01*
X108259404Y-73445714D01*
X108164166Y-73493333D01*
X108116547Y-73588571D01*
X108116547Y-74112380D01*
X107259404Y-74064761D02*
X107354642Y-74112380D01*
X107545119Y-74112380D01*
X107640357Y-74064761D01*
X107687976Y-73969523D01*
X107687976Y-73588571D01*
X107640357Y-73493333D01*
X107545119Y-73445714D01*
X107354642Y-73445714D01*
X107259404Y-73493333D01*
X107211785Y-73588571D01*
X107211785Y-73683809D01*
X107687976Y-73779047D01*
X106354642Y-73445714D02*
X106354642Y-74112380D01*
X106783214Y-73445714D02*
X106783214Y-73969523D01*
X106735595Y-74064761D01*
X106640357Y-74112380D01*
X106497500Y-74112380D01*
X106402261Y-74064761D01*
X106354642Y-74017142D01*
X105878452Y-74112380D02*
X105878452Y-73445714D01*
X105878452Y-73636190D02*
X105830833Y-73540952D01*
X105783214Y-73493333D01*
X105687976Y-73445714D01*
X105592738Y-73445714D01*
D12*
X120661023Y-70246761D02*
X121194357Y-69294380D01*
X121575309Y-70246761D02*
X121575309Y-68246761D01*
X120965785Y-68246761D01*
X120813404Y-68342000D01*
X120737214Y-68437238D01*
X120661023Y-68627714D01*
X120661023Y-68913428D01*
X120737214Y-69103904D01*
X120813404Y-69199142D01*
X120965785Y-69294380D01*
X121575309Y-69294380D01*
X119670547Y-68246761D02*
X119365785Y-68246761D01*
X119213404Y-68342000D01*
X119061023Y-68532476D01*
X118984833Y-68913428D01*
X118984833Y-69580095D01*
X119061023Y-69961047D01*
X119213404Y-70151523D01*
X119365785Y-70246761D01*
X119670547Y-70246761D01*
X119822928Y-70151523D01*
X119975309Y-69961047D01*
X120051500Y-69580095D01*
X120051500Y-68913428D01*
X119975309Y-68532476D01*
X119822928Y-68342000D01*
X119670547Y-68246761D01*
X117765785Y-69199142D02*
X117537214Y-69294380D01*
X117461023Y-69389619D01*
X117384833Y-69580095D01*
X117384833Y-69865809D01*
X117461023Y-70056285D01*
X117537214Y-70151523D01*
X117689595Y-70246761D01*
X118299119Y-70246761D01*
X118299119Y-68246761D01*
X117765785Y-68246761D01*
X117613404Y-68342000D01*
X117537214Y-68437238D01*
X117461023Y-68627714D01*
X117461023Y-68818190D01*
X117537214Y-69008666D01*
X117613404Y-69103904D01*
X117765785Y-69199142D01*
X118299119Y-69199142D01*
X116394357Y-68246761D02*
X116089595Y-68246761D01*
X115937214Y-68342000D01*
X115784833Y-68532476D01*
X115708642Y-68913428D01*
X115708642Y-69580095D01*
X115784833Y-69961047D01*
X115937214Y-70151523D01*
X116089595Y-70246761D01*
X116394357Y-70246761D01*
X116546738Y-70151523D01*
X116699119Y-69961047D01*
X116775309Y-69580095D01*
X116775309Y-68913428D01*
X116699119Y-68532476D01*
X116546738Y-68342000D01*
X116394357Y-68246761D01*
X115251499Y-68246761D02*
X114337214Y-68246761D01*
X114794357Y-70246761D02*
X114794357Y-68246761D01*
X113803880Y-69199142D02*
X113270547Y-69199142D01*
X113041976Y-70246761D02*
X113803880Y-70246761D01*
X113803880Y-68246761D01*
X113041976Y-68246761D01*
X111441976Y-70056285D02*
X111518166Y-70151523D01*
X111746738Y-70246761D01*
X111899119Y-70246761D01*
X112127690Y-70151523D01*
X112280071Y-69961047D01*
X112356261Y-69770571D01*
X112432452Y-69389619D01*
X112432452Y-69103904D01*
X112356261Y-68722952D01*
X112280071Y-68532476D01*
X112127690Y-68342000D01*
X111899119Y-68246761D01*
X111746738Y-68246761D01*
X111518166Y-68342000D01*
X111441976Y-68437238D01*
X110756261Y-70246761D02*
X110756261Y-68246761D01*
X110756261Y-69199142D02*
X109841976Y-69199142D01*
X109841976Y-70246761D02*
X109841976Y-68246761D01*
X107861023Y-70246761D02*
X107861023Y-68246761D01*
X106946738Y-70246761D01*
X106946738Y-68246761D01*
X106261023Y-69675333D02*
X105499119Y-69675333D01*
X106413404Y-70246761D02*
X105880071Y-68246761D01*
X105346738Y-70246761D01*
X104813404Y-70246761D02*
X104813404Y-68246761D01*
X103899119Y-70246761D01*
X103899119Y-68246761D01*
X102222928Y-70056285D02*
X102299119Y-70151523D01*
X102527690Y-70246761D01*
X102680071Y-70246761D01*
X102908642Y-70151523D01*
X103061023Y-69961047D01*
X103137214Y-69770571D01*
X103213404Y-69389619D01*
X103213404Y-69103904D01*
X103137214Y-68722952D01*
X103061023Y-68532476D01*
X102908642Y-68342000D01*
X102680071Y-68246761D01*
X102527690Y-68246761D01*
X102299119Y-68342000D01*
X102222928Y-68437238D01*
X101232452Y-69294380D02*
X101232452Y-70246761D01*
X101765785Y-68246761D02*
X101232452Y-69294380D01*
X100699119Y-68246761D01*
D11*
X115870547Y-115530380D02*
X115870547Y-116244666D01*
X115918166Y-116387523D01*
X116013404Y-116482761D01*
X116156261Y-116530380D01*
X116251500Y-116530380D01*
X114918166Y-116530380D02*
X115394357Y-116530380D01*
X115394357Y-115530380D01*
X114013404Y-116435142D02*
X114061023Y-116482761D01*
X114203880Y-116530380D01*
X114299119Y-116530380D01*
X114441976Y-116482761D01*
X114537214Y-116387523D01*
X114584833Y-116292285D01*
X114632452Y-116101809D01*
X114632452Y-115958952D01*
X114584833Y-115768476D01*
X114537214Y-115673238D01*
X114441976Y-115578000D01*
X114299119Y-115530380D01*
X114203880Y-115530380D01*
X114061023Y-115578000D01*
X114013404Y-115625619D01*
X113299119Y-115530380D02*
X113299119Y-116244666D01*
X113346738Y-116387523D01*
X113441976Y-116482761D01*
X113584833Y-116530380D01*
X113680071Y-116530380D01*
X112346738Y-116530380D02*
X112822928Y-116530380D01*
X112822928Y-115530380D01*
X111441976Y-116435142D02*
X111489595Y-116482761D01*
X111632452Y-116530380D01*
X111727690Y-116530380D01*
X111870547Y-116482761D01*
X111965785Y-116387523D01*
X112013404Y-116292285D01*
X112061023Y-116101809D01*
X112061023Y-115958952D01*
X112013404Y-115768476D01*
X111965785Y-115673238D01*
X111870547Y-115578000D01*
X111727690Y-115530380D01*
X111632452Y-115530380D01*
X111489595Y-115578000D01*
X111441976Y-115625619D01*
X110727690Y-115530380D02*
X110727690Y-116244666D01*
X110775309Y-116387523D01*
X110870547Y-116482761D01*
X111013404Y-116530380D01*
X111108642Y-116530380D01*
X109775309Y-116530380D02*
X110251500Y-116530380D01*
X110251500Y-115530380D01*
X108870547Y-116435142D02*
X108918166Y-116482761D01*
X109061023Y-116530380D01*
X109156261Y-116530380D01*
X109299119Y-116482761D01*
X109394357Y-116387523D01*
X109441976Y-116292285D01*
X109489595Y-116101809D01*
X109489595Y-115958952D01*
X109441976Y-115768476D01*
X109394357Y-115673238D01*
X109299119Y-115578000D01*
X109156261Y-115530380D01*
X109061023Y-115530380D01*
X108918166Y-115578000D01*
X108870547Y-115625619D01*
X108156261Y-115530380D02*
X108156261Y-116244666D01*
X108203880Y-116387523D01*
X108299119Y-116482761D01*
X108441976Y-116530380D01*
X108537214Y-116530380D01*
X107203880Y-116530380D02*
X107680071Y-116530380D01*
X107680071Y-115530380D01*
X106299119Y-116435142D02*
X106346738Y-116482761D01*
X106489595Y-116530380D01*
X106584833Y-116530380D01*
X106727690Y-116482761D01*
X106822928Y-116387523D01*
X106870547Y-116292285D01*
X106918166Y-116101809D01*
X106918166Y-115958952D01*
X106870547Y-115768476D01*
X106822928Y-115673238D01*
X106727690Y-115578000D01*
X106584833Y-115530380D01*
X106489595Y-115530380D01*
X106346738Y-115578000D01*
X106299119Y-115625619D01*
D13*
G36*
X83488195Y-70876478D02*
G01*
X83135655Y-70908847D01*
X82796463Y-70971089D01*
X82471165Y-71063235D01*
X82160306Y-71185320D01*
X81864434Y-71337378D01*
X81783556Y-71385820D01*
X81555580Y-71542088D01*
X81341176Y-71719203D01*
X81146201Y-71911656D01*
X80976513Y-72113939D01*
X80909109Y-72207967D01*
X80854540Y-72288400D01*
X82648127Y-72288400D01*
X82729491Y-72174100D01*
X82884629Y-71985064D01*
X83064092Y-71819389D01*
X83267279Y-71677504D01*
X83493592Y-71559839D01*
X83691316Y-71483294D01*
X83831721Y-71439845D01*
X83966418Y-71406354D01*
X84102886Y-71381789D01*
X84248603Y-71365119D01*
X84411046Y-71355310D01*
X84597695Y-71351332D01*
X84649233Y-71351128D01*
X84961913Y-71359565D01*
X85271949Y-71386220D01*
X85584572Y-71432050D01*
X85905011Y-71498014D01*
X86238496Y-71585068D01*
X86590255Y-71694171D01*
X86670708Y-71721260D01*
X86768756Y-71754696D01*
X86857478Y-71784923D01*
X86931224Y-71810017D01*
X86984343Y-71828056D01*
X87011185Y-71837117D01*
X87011433Y-71837200D01*
X87007208Y-71833480D01*
X86976417Y-71816773D01*
X86922881Y-71789047D01*
X86850418Y-71752270D01*
X86762850Y-71708410D01*
X86723566Y-71688886D01*
X86283887Y-71483487D01*
X85853190Y-71307692D01*
X85432021Y-71161534D01*
X85020925Y-71045047D01*
X84620449Y-70958264D01*
X84231138Y-70901220D01*
X83853538Y-70873946D01*
X83488195Y-70876478D01*
X83488195Y-70876478D01*
G37*
X83488195Y-70876478D02*
X83135655Y-70908847D01*
X82796463Y-70971089D01*
X82471165Y-71063235D01*
X82160306Y-71185320D01*
X81864434Y-71337378D01*
X81783556Y-71385820D01*
X81555580Y-71542088D01*
X81341176Y-71719203D01*
X81146201Y-71911656D01*
X80976513Y-72113939D01*
X80909109Y-72207967D01*
X80854540Y-72288400D01*
X82648127Y-72288400D01*
X82729491Y-72174100D01*
X82884629Y-71985064D01*
X83064092Y-71819389D01*
X83267279Y-71677504D01*
X83493592Y-71559839D01*
X83691316Y-71483294D01*
X83831721Y-71439845D01*
X83966418Y-71406354D01*
X84102886Y-71381789D01*
X84248603Y-71365119D01*
X84411046Y-71355310D01*
X84597695Y-71351332D01*
X84649233Y-71351128D01*
X84961913Y-71359565D01*
X85271949Y-71386220D01*
X85584572Y-71432050D01*
X85905011Y-71498014D01*
X86238496Y-71585068D01*
X86590255Y-71694171D01*
X86670708Y-71721260D01*
X86768756Y-71754696D01*
X86857478Y-71784923D01*
X86931224Y-71810017D01*
X86984343Y-71828056D01*
X87011185Y-71837117D01*
X87011433Y-71837200D01*
X87007208Y-71833480D01*
X86976417Y-71816773D01*
X86922881Y-71789047D01*
X86850418Y-71752270D01*
X86762850Y-71708410D01*
X86723566Y-71688886D01*
X86283887Y-71483487D01*
X85853190Y-71307692D01*
X85432021Y-71161534D01*
X85020925Y-71045047D01*
X84620449Y-70958264D01*
X84231138Y-70901220D01*
X83853538Y-70873946D01*
X83488195Y-70876478D01*
G36*
X83265096Y-72508680D02*
G01*
X83191743Y-72509566D01*
X83142219Y-72511863D01*
X83111506Y-72516243D01*
X83094585Y-72523378D01*
X83086437Y-72533938D01*
X83082529Y-72546633D01*
X83083914Y-72570249D01*
X83091443Y-72623777D01*
X83104529Y-72703942D01*
X83122584Y-72807465D01*
X83145019Y-72931070D01*
X83171248Y-73071478D01*
X83200682Y-73225413D01*
X83232734Y-73389597D01*
X83243073Y-73441877D01*
X83275927Y-73607859D01*
X83306690Y-73763983D01*
X83334745Y-73907060D01*
X83359474Y-74033903D01*
X83380257Y-74141324D01*
X83396476Y-74226136D01*
X83407514Y-74285151D01*
X83412750Y-74315182D01*
X83413100Y-74318177D01*
X83402001Y-74324323D01*
X83367349Y-74329177D01*
X83307111Y-74332823D01*
X83219256Y-74335342D01*
X83101751Y-74336818D01*
X82952563Y-74337331D01*
X82941040Y-74337334D01*
X82800002Y-74337541D01*
X82689072Y-74338300D01*
X82604496Y-74339814D01*
X82542516Y-74342286D01*
X82499376Y-74345919D01*
X82471322Y-74350917D01*
X82454596Y-74357483D01*
X82446762Y-74364105D01*
X82437229Y-74386196D01*
X82434860Y-74423864D01*
X82440071Y-74481106D01*
X82453278Y-74561917D01*
X82474901Y-74670291D01*
X82482415Y-74705634D01*
X82501506Y-74794534D01*
X83276963Y-74794534D01*
X83467182Y-74794348D01*
X83626047Y-74793745D01*
X83756067Y-74792657D01*
X83859752Y-74791013D01*
X83939613Y-74788744D01*
X83998160Y-74785782D01*
X84037902Y-74782057D01*
X84061350Y-74777501D01*
X84070560Y-74772676D01*
X84072421Y-74757923D01*
X84069556Y-74722655D01*
X84061702Y-74665403D01*
X84048598Y-74584702D01*
X84029979Y-74479083D01*
X84005582Y-74347081D01*
X83975145Y-74187227D01*
X83938405Y-73998056D01*
X83895099Y-73778101D01*
X83865642Y-73629676D01*
X83642583Y-72508533D01*
X83367297Y-72508533D01*
X83265096Y-72508680D01*
X83265096Y-72508680D01*
G37*
X83265096Y-72508680D02*
X83191743Y-72509566D01*
X83142219Y-72511863D01*
X83111506Y-72516243D01*
X83094585Y-72523378D01*
X83086437Y-72533938D01*
X83082529Y-72546633D01*
X83083914Y-72570249D01*
X83091443Y-72623777D01*
X83104529Y-72703942D01*
X83122584Y-72807465D01*
X83145019Y-72931070D01*
X83171248Y-73071478D01*
X83200682Y-73225413D01*
X83232734Y-73389597D01*
X83243073Y-73441877D01*
X83275927Y-73607859D01*
X83306690Y-73763983D01*
X83334745Y-73907060D01*
X83359474Y-74033903D01*
X83380257Y-74141324D01*
X83396476Y-74226136D01*
X83407514Y-74285151D01*
X83412750Y-74315182D01*
X83413100Y-74318177D01*
X83402001Y-74324323D01*
X83367349Y-74329177D01*
X83307111Y-74332823D01*
X83219256Y-74335342D01*
X83101751Y-74336818D01*
X82952563Y-74337331D01*
X82941040Y-74337334D01*
X82800002Y-74337541D01*
X82689072Y-74338300D01*
X82604496Y-74339814D01*
X82542516Y-74342286D01*
X82499376Y-74345919D01*
X82471322Y-74350917D01*
X82454596Y-74357483D01*
X82446762Y-74364105D01*
X82437229Y-74386196D01*
X82434860Y-74423864D01*
X82440071Y-74481106D01*
X82453278Y-74561917D01*
X82474901Y-74670291D01*
X82482415Y-74705634D01*
X82501506Y-74794534D01*
X83276963Y-74794534D01*
X83467182Y-74794348D01*
X83626047Y-74793745D01*
X83756067Y-74792657D01*
X83859752Y-74791013D01*
X83939613Y-74788744D01*
X83998160Y-74785782D01*
X84037902Y-74782057D01*
X84061350Y-74777501D01*
X84070560Y-74772676D01*
X84072421Y-74757923D01*
X84069556Y-74722655D01*
X84061702Y-74665403D01*
X84048598Y-74584702D01*
X84029979Y-74479083D01*
X84005582Y-74347081D01*
X83975145Y-74187227D01*
X83938405Y-73998056D01*
X83895099Y-73778101D01*
X83865642Y-73629676D01*
X83642583Y-72508533D01*
X83367297Y-72508533D01*
X83265096Y-72508680D01*
G36*
X80484097Y-72485764D02*
G01*
X80320490Y-72532344D01*
X80173051Y-72604582D01*
X80045696Y-72701286D01*
X80021202Y-72725273D01*
X79956704Y-72791405D01*
X80105869Y-72924416D01*
X80168572Y-72980270D01*
X80225336Y-73030728D01*
X80269450Y-73069830D01*
X80292474Y-73090113D01*
X80315800Y-73108488D01*
X80334640Y-73111283D01*
X80359471Y-73096113D01*
X80393302Y-73067145D01*
X80446667Y-73027357D01*
X80512471Y-72987606D01*
X80548002Y-72969686D01*
X80598366Y-72948768D01*
X80643514Y-72937024D01*
X80695512Y-72932692D01*
X80766427Y-72934010D01*
X80786134Y-72934901D01*
X80872286Y-72941534D01*
X80939630Y-72954109D01*
X81003129Y-72976061D01*
X81042726Y-72993796D01*
X81181702Y-73077874D01*
X81301310Y-73188677D01*
X81399628Y-73323899D01*
X81474733Y-73481239D01*
X81492639Y-73533000D01*
X81530600Y-73685668D01*
X81546441Y-73831333D01*
X81540608Y-73965676D01*
X81513545Y-74084377D01*
X81465698Y-74183116D01*
X81419991Y-74238125D01*
X81346617Y-74299134D01*
X81272411Y-74338103D01*
X81185718Y-74359863D01*
X81107389Y-74367684D01*
X80953367Y-74360624D01*
X80803465Y-74320591D01*
X80656215Y-74247172D01*
X80637643Y-74235447D01*
X80582271Y-74202569D01*
X80535074Y-74179748D01*
X80505249Y-74171350D01*
X80503098Y-74171552D01*
X80482223Y-74186542D01*
X80446659Y-74223135D01*
X80401667Y-74275569D01*
X80359814Y-74328456D01*
X80244025Y-74480065D01*
X80300329Y-74527834D01*
X80380686Y-74587377D01*
X80481315Y-74649296D01*
X80589889Y-74706789D01*
X80694079Y-74753059D01*
X80736888Y-74768619D01*
X80932369Y-74819699D01*
X81122472Y-74840486D01*
X81315329Y-74831740D01*
X81355179Y-74826481D01*
X81528818Y-74786866D01*
X81686817Y-74722069D01*
X81825832Y-74634351D01*
X81942520Y-74525974D01*
X82033539Y-74399198D01*
X82058992Y-74350309D01*
X82098772Y-74254445D01*
X82124608Y-74160296D01*
X82138094Y-74058088D01*
X82140823Y-73938047D01*
X82138424Y-73863200D01*
X82112234Y-73640720D01*
X82055858Y-73430947D01*
X81971283Y-73236012D01*
X81860496Y-73058049D01*
X81725485Y-72899190D01*
X81568236Y-72761568D01*
X81390738Y-72647314D01*
X81194977Y-72558562D01*
X80982942Y-72497444D01*
X80844145Y-72474360D01*
X80659954Y-72466038D01*
X80484097Y-72485764D01*
X80484097Y-72485764D01*
G37*
X80484097Y-72485764D02*
X80320490Y-72532344D01*
X80173051Y-72604582D01*
X80045696Y-72701286D01*
X80021202Y-72725273D01*
X79956704Y-72791405D01*
X80105869Y-72924416D01*
X80168572Y-72980270D01*
X80225336Y-73030728D01*
X80269450Y-73069830D01*
X80292474Y-73090113D01*
X80315800Y-73108488D01*
X80334640Y-73111283D01*
X80359471Y-73096113D01*
X80393302Y-73067145D01*
X80446667Y-73027357D01*
X80512471Y-72987606D01*
X80548002Y-72969686D01*
X80598366Y-72948768D01*
X80643514Y-72937024D01*
X80695512Y-72932692D01*
X80766427Y-72934010D01*
X80786134Y-72934901D01*
X80872286Y-72941534D01*
X80939630Y-72954109D01*
X81003129Y-72976061D01*
X81042726Y-72993796D01*
X81181702Y-73077874D01*
X81301310Y-73188677D01*
X81399628Y-73323899D01*
X81474733Y-73481239D01*
X81492639Y-73533000D01*
X81530600Y-73685668D01*
X81546441Y-73831333D01*
X81540608Y-73965676D01*
X81513545Y-74084377D01*
X81465698Y-74183116D01*
X81419991Y-74238125D01*
X81346617Y-74299134D01*
X81272411Y-74338103D01*
X81185718Y-74359863D01*
X81107389Y-74367684D01*
X80953367Y-74360624D01*
X80803465Y-74320591D01*
X80656215Y-74247172D01*
X80637643Y-74235447D01*
X80582271Y-74202569D01*
X80535074Y-74179748D01*
X80505249Y-74171350D01*
X80503098Y-74171552D01*
X80482223Y-74186542D01*
X80446659Y-74223135D01*
X80401667Y-74275569D01*
X80359814Y-74328456D01*
X80244025Y-74480065D01*
X80300329Y-74527834D01*
X80380686Y-74587377D01*
X80481315Y-74649296D01*
X80589889Y-74706789D01*
X80694079Y-74753059D01*
X80736888Y-74768619D01*
X80932369Y-74819699D01*
X81122472Y-74840486D01*
X81315329Y-74831740D01*
X81355179Y-74826481D01*
X81528818Y-74786866D01*
X81686817Y-74722069D01*
X81825832Y-74634351D01*
X81942520Y-74525974D01*
X82033539Y-74399198D01*
X82058992Y-74350309D01*
X82098772Y-74254445D01*
X82124608Y-74160296D01*
X82138094Y-74058088D01*
X82140823Y-73938047D01*
X82138424Y-73863200D01*
X82112234Y-73640720D01*
X82055858Y-73430947D01*
X81971283Y-73236012D01*
X81860496Y-73058049D01*
X81725485Y-72899190D01*
X81568236Y-72761568D01*
X81390738Y-72647314D01*
X81194977Y-72558562D01*
X80982942Y-72497444D01*
X80844145Y-72474360D01*
X80659954Y-72466038D01*
X80484097Y-72485764D01*
G36*
X86854311Y-72559333D02*
G01*
X86856626Y-72584107D01*
X86865100Y-72638607D01*
X86879095Y-72719384D01*
X86897970Y-72822987D01*
X86921087Y-72945966D01*
X86947806Y-73084870D01*
X86977488Y-73236250D01*
X87008640Y-73392408D01*
X87046495Y-73579858D01*
X87078698Y-73737304D01*
X87106029Y-73867995D01*
X87129265Y-73975178D01*
X87149185Y-74062100D01*
X87166567Y-74132008D01*
X87182190Y-74188151D01*
X87196831Y-74233777D01*
X87211268Y-74272131D01*
X87226281Y-74306463D01*
X87229159Y-74312581D01*
X87293667Y-74423109D01*
X87378281Y-74531076D01*
X87474641Y-74627443D01*
X87574386Y-74703173D01*
X87609364Y-74723565D01*
X87749296Y-74781901D01*
X87907423Y-74820593D01*
X88073383Y-74838198D01*
X88236812Y-74833278D01*
X88315300Y-74821735D01*
X88467926Y-74777782D01*
X88600602Y-74709233D01*
X88710789Y-74617814D01*
X88795947Y-74505251D01*
X88805261Y-74488761D01*
X88825003Y-74453379D01*
X88837372Y-74426757D01*
X88839138Y-74404994D01*
X88827066Y-74384187D01*
X88797925Y-74360435D01*
X88748482Y-74329836D01*
X88675503Y-74288487D01*
X88608029Y-74250689D01*
X88526557Y-74205702D01*
X88468237Y-74177426D01*
X88426974Y-74165489D01*
X88396676Y-74169519D01*
X88371251Y-74189145D01*
X88344607Y-74223997D01*
X88337609Y-74234210D01*
X88289248Y-74295833D01*
X88239214Y-74334647D01*
X88177851Y-74355315D01*
X88095498Y-74362498D01*
X88071368Y-74362734D01*
X88001852Y-74361471D01*
X87954968Y-74355814D01*
X87919521Y-74342955D01*
X87884313Y-74320088D01*
X87875891Y-74313745D01*
X87850008Y-74292305D01*
X87826929Y-74268157D01*
X87805805Y-74238464D01*
X87785788Y-74200389D01*
X87766030Y-74151098D01*
X87745682Y-74087753D01*
X87723896Y-74007519D01*
X87699824Y-73907559D01*
X87672617Y-73785037D01*
X87641427Y-73637117D01*
X87605406Y-73460964D01*
X87573624Y-73303203D01*
X87415850Y-72517000D01*
X86859033Y-72517000D01*
X86854311Y-72559333D01*
X86854311Y-72559333D01*
G37*
X86854311Y-72559333D02*
X86856626Y-72584107D01*
X86865100Y-72638607D01*
X86879095Y-72719384D01*
X86897970Y-72822987D01*
X86921087Y-72945966D01*
X86947806Y-73084870D01*
X86977488Y-73236250D01*
X87008640Y-73392408D01*
X87046495Y-73579858D01*
X87078698Y-73737304D01*
X87106029Y-73867995D01*
X87129265Y-73975178D01*
X87149185Y-74062100D01*
X87166567Y-74132008D01*
X87182190Y-74188151D01*
X87196831Y-74233777D01*
X87211268Y-74272131D01*
X87226281Y-74306463D01*
X87229159Y-74312581D01*
X87293667Y-74423109D01*
X87378281Y-74531076D01*
X87474641Y-74627443D01*
X87574386Y-74703173D01*
X87609364Y-74723565D01*
X87749296Y-74781901D01*
X87907423Y-74820593D01*
X88073383Y-74838198D01*
X88236812Y-74833278D01*
X88315300Y-74821735D01*
X88467926Y-74777782D01*
X88600602Y-74709233D01*
X88710789Y-74617814D01*
X88795947Y-74505251D01*
X88805261Y-74488761D01*
X88825003Y-74453379D01*
X88837372Y-74426757D01*
X88839138Y-74404994D01*
X88827066Y-74384187D01*
X88797925Y-74360435D01*
X88748482Y-74329836D01*
X88675503Y-74288487D01*
X88608029Y-74250689D01*
X88526557Y-74205702D01*
X88468237Y-74177426D01*
X88426974Y-74165489D01*
X88396676Y-74169519D01*
X88371251Y-74189145D01*
X88344607Y-74223997D01*
X88337609Y-74234210D01*
X88289248Y-74295833D01*
X88239214Y-74334647D01*
X88177851Y-74355315D01*
X88095498Y-74362498D01*
X88071368Y-74362734D01*
X88001852Y-74361471D01*
X87954968Y-74355814D01*
X87919521Y-74342955D01*
X87884313Y-74320088D01*
X87875891Y-74313745D01*
X87850008Y-74292305D01*
X87826929Y-74268157D01*
X87805805Y-74238464D01*
X87785788Y-74200389D01*
X87766030Y-74151098D01*
X87745682Y-74087753D01*
X87723896Y-74007519D01*
X87699824Y-73907559D01*
X87672617Y-73785037D01*
X87641427Y-73637117D01*
X87605406Y-73460964D01*
X87573624Y-73303203D01*
X87415850Y-72517000D01*
X86859033Y-72517000D01*
X86854311Y-72559333D01*
G36*
X85154720Y-72789381D02*
G01*
X85061090Y-72791234D01*
X84988453Y-72795254D01*
X84930382Y-72801892D01*
X84880451Y-72811596D01*
X84852433Y-72818879D01*
X84680190Y-72880618D01*
X84536040Y-72961182D01*
X84419788Y-73060770D01*
X84331243Y-73179582D01*
X84270209Y-73317819D01*
X84239490Y-73452996D01*
X84233258Y-73610485D01*
X84257826Y-73767343D01*
X84310225Y-73920377D01*
X84387484Y-74066394D01*
X84486634Y-74202203D01*
X84604705Y-74324611D01*
X84738728Y-74430426D01*
X84885732Y-74516455D01*
X85042749Y-74579505D01*
X85206808Y-74616386D01*
X85329697Y-74624950D01*
X85420834Y-74620929D01*
X85485447Y-74606888D01*
X85529979Y-74580568D01*
X85558020Y-74544850D01*
X85584874Y-74498060D01*
X85700303Y-74555356D01*
X85825760Y-74603177D01*
X85951691Y-74624576D01*
X86073178Y-74620494D01*
X86185307Y-74591867D01*
X86283161Y-74539635D01*
X86361824Y-74464736D01*
X86389733Y-74423747D01*
X86415407Y-74373268D01*
X86429080Y-74324054D01*
X86434026Y-74261710D01*
X86434287Y-74227825D01*
X86426663Y-74155497D01*
X86069061Y-74155497D01*
X86065798Y-74244253D01*
X86046976Y-74302030D01*
X86003893Y-74353233D01*
X85941410Y-74390143D01*
X85875740Y-74404404D01*
X85840117Y-74400063D01*
X85786712Y-74388216D01*
X85750113Y-74378161D01*
X85663092Y-74336812D01*
X85576993Y-74268057D01*
X85496148Y-74178185D01*
X85424891Y-74073486D01*
X85367554Y-73960249D01*
X85328469Y-73844762D01*
X85312403Y-73742796D01*
X85309738Y-73680695D01*
X85312820Y-73640885D01*
X85325200Y-73611866D01*
X85350432Y-73582133D01*
X85367263Y-73565117D01*
X85402187Y-73532007D01*
X85430891Y-73514284D01*
X85465570Y-73508057D01*
X85518420Y-73509437D01*
X85538031Y-73510650D01*
X85604547Y-73517742D01*
X85656522Y-73532697D01*
X85709687Y-73561128D01*
X85745201Y-73584589D01*
X85827367Y-73654122D01*
X85901642Y-73741952D01*
X85965489Y-73842042D01*
X86016367Y-73948354D01*
X86051738Y-74054852D01*
X86069061Y-74155497D01*
X86426663Y-74155497D01*
X86418056Y-74073859D01*
X86370168Y-73923904D01*
X86289977Y-73776597D01*
X86176834Y-73630579D01*
X86121975Y-73571994D01*
X86048311Y-73499722D01*
X85986558Y-73446660D01*
X85927316Y-73405699D01*
X85861182Y-73369730D01*
X85842636Y-73360763D01*
X85774025Y-73329731D01*
X85718463Y-73310088D01*
X85662819Y-73298739D01*
X85593958Y-73292583D01*
X85543539Y-73290202D01*
X85462261Y-73288026D01*
X85404792Y-73290076D01*
X85361206Y-73297594D01*
X85321575Y-73311822D01*
X85303445Y-73320231D01*
X85252007Y-73351197D01*
X85210370Y-73386660D01*
X85199162Y-73400527D01*
X85170553Y-73444190D01*
X85133761Y-73378529D01*
X85096968Y-73312867D01*
X84914965Y-73308056D01*
X84732963Y-73303245D01*
X84756341Y-73358856D01*
X84769025Y-73388405D01*
X84793343Y-73444490D01*
X84827341Y-73522626D01*
X84869065Y-73618328D01*
X84916560Y-73727110D01*
X84967872Y-73844486D01*
X84978721Y-73869284D01*
X85036218Y-74001183D01*
X85081092Y-74105607D01*
X85114577Y-74185983D01*
X85137909Y-74245739D01*
X85152325Y-74288299D01*
X85159059Y-74317092D01*
X85159348Y-74335543D01*
X85154427Y-74347079D01*
X85152013Y-74349811D01*
X85111991Y-74367358D01*
X85055878Y-74360970D01*
X84987888Y-74333814D01*
X84912236Y-74289059D01*
X84833138Y-74229872D01*
X84754809Y-74159421D01*
X84681463Y-74080874D01*
X84617317Y-73997399D01*
X84566584Y-73912164D01*
X84564728Y-73908429D01*
X84507966Y-73763217D01*
X84483008Y-73625865D01*
X84488372Y-73497984D01*
X84522577Y-73381188D01*
X84584141Y-73277088D01*
X84671582Y-73187297D01*
X84783420Y-73113427D01*
X84918171Y-73057090D01*
X85074355Y-73019899D01*
X85250490Y-73003465D01*
X85394300Y-73005703D01*
X85619031Y-73032473D01*
X85827595Y-73084938D01*
X86017567Y-73162092D01*
X86186524Y-73262931D01*
X86332043Y-73386448D01*
X86345370Y-73400174D01*
X86451324Y-73527455D01*
X86541963Y-73668633D01*
X86614953Y-73817691D01*
X86667957Y-73968614D01*
X86698641Y-74115386D01*
X86704669Y-74251993D01*
X86698505Y-74309856D01*
X86660545Y-74454763D01*
X86596551Y-74580101D01*
X86505685Y-74686692D01*
X86387108Y-74775358D01*
X86239984Y-74846919D01*
X86105500Y-74891218D01*
X86028269Y-74905966D01*
X85925354Y-74916240D01*
X85804628Y-74922119D01*
X85673965Y-74923684D01*
X85541241Y-74921013D01*
X85414329Y-74914186D01*
X85301103Y-74903284D01*
X85209439Y-74888384D01*
X85182633Y-74881894D01*
X85050473Y-74838740D01*
X84920210Y-74783612D01*
X84803068Y-74721723D01*
X84723202Y-74668465D01*
X84682493Y-74638822D01*
X84648774Y-74620954D01*
X84611165Y-74611889D01*
X84558786Y-74608655D01*
X84502865Y-74608267D01*
X84438430Y-74609852D01*
X84389358Y-74614077D01*
X84363489Y-74620146D01*
X84361366Y-74622623D01*
X84373494Y-74642259D01*
X84405740Y-74677459D01*
X84451901Y-74722476D01*
X84505774Y-74771565D01*
X84561156Y-74818978D01*
X84611843Y-74858971D01*
X84632300Y-74873583D01*
X84811198Y-74976680D01*
X85013056Y-75059098D01*
X85232495Y-75118698D01*
X85265435Y-75125315D01*
X85362981Y-75139544D01*
X85483234Y-75150261D01*
X85615307Y-75157106D01*
X85748311Y-75159717D01*
X85871359Y-75157733D01*
X85973562Y-75150794D01*
X85986967Y-75149235D01*
X86206204Y-75110592D01*
X86397418Y-75052931D01*
X86560610Y-74976253D01*
X86695781Y-74880557D01*
X86802932Y-74765840D01*
X86882065Y-74632103D01*
X86933181Y-74479343D01*
X86956281Y-74307561D01*
X86957747Y-74242823D01*
X86940207Y-74050209D01*
X86889243Y-73855062D01*
X86833266Y-73716332D01*
X86776028Y-73601304D01*
X86716781Y-73503405D01*
X86647602Y-73411178D01*
X86560567Y-73313161D01*
X86538399Y-73289852D01*
X86372045Y-73137709D01*
X86190516Y-73013185D01*
X85990090Y-72914121D01*
X85767048Y-72838359D01*
X85753385Y-72834647D01*
X85690428Y-72818580D01*
X85634402Y-72806885D01*
X85577796Y-72798847D01*
X85513099Y-72793752D01*
X85432802Y-72790887D01*
X85329392Y-72789538D01*
X85275767Y-72789245D01*
X85154720Y-72789381D01*
X85154720Y-72789381D01*
G37*
X85154720Y-72789381D02*
X85061090Y-72791234D01*
X84988453Y-72795254D01*
X84930382Y-72801892D01*
X84880451Y-72811596D01*
X84852433Y-72818879D01*
X84680190Y-72880618D01*
X84536040Y-72961182D01*
X84419788Y-73060770D01*
X84331243Y-73179582D01*
X84270209Y-73317819D01*
X84239490Y-73452996D01*
X84233258Y-73610485D01*
X84257826Y-73767343D01*
X84310225Y-73920377D01*
X84387484Y-74066394D01*
X84486634Y-74202203D01*
X84604705Y-74324611D01*
X84738728Y-74430426D01*
X84885732Y-74516455D01*
X85042749Y-74579505D01*
X85206808Y-74616386D01*
X85329697Y-74624950D01*
X85420834Y-74620929D01*
X85485447Y-74606888D01*
X85529979Y-74580568D01*
X85558020Y-74544850D01*
X85584874Y-74498060D01*
X85700303Y-74555356D01*
X85825760Y-74603177D01*
X85951691Y-74624576D01*
X86073178Y-74620494D01*
X86185307Y-74591867D01*
X86283161Y-74539635D01*
X86361824Y-74464736D01*
X86389733Y-74423747D01*
X86415407Y-74373268D01*
X86429080Y-74324054D01*
X86434026Y-74261710D01*
X86434287Y-74227825D01*
X86426663Y-74155497D01*
X86069061Y-74155497D01*
X86065798Y-74244253D01*
X86046976Y-74302030D01*
X86003893Y-74353233D01*
X85941410Y-74390143D01*
X85875740Y-74404404D01*
X85840117Y-74400063D01*
X85786712Y-74388216D01*
X85750113Y-74378161D01*
X85663092Y-74336812D01*
X85576993Y-74268057D01*
X85496148Y-74178185D01*
X85424891Y-74073486D01*
X85367554Y-73960249D01*
X85328469Y-73844762D01*
X85312403Y-73742796D01*
X85309738Y-73680695D01*
X85312820Y-73640885D01*
X85325200Y-73611866D01*
X85350432Y-73582133D01*
X85367263Y-73565117D01*
X85402187Y-73532007D01*
X85430891Y-73514284D01*
X85465570Y-73508057D01*
X85518420Y-73509437D01*
X85538031Y-73510650D01*
X85604547Y-73517742D01*
X85656522Y-73532697D01*
X85709687Y-73561128D01*
X85745201Y-73584589D01*
X85827367Y-73654122D01*
X85901642Y-73741952D01*
X85965489Y-73842042D01*
X86016367Y-73948354D01*
X86051738Y-74054852D01*
X86069061Y-74155497D01*
X86426663Y-74155497D01*
X86418056Y-74073859D01*
X86370168Y-73923904D01*
X86289977Y-73776597D01*
X86176834Y-73630579D01*
X86121975Y-73571994D01*
X86048311Y-73499722D01*
X85986558Y-73446660D01*
X85927316Y-73405699D01*
X85861182Y-73369730D01*
X85842636Y-73360763D01*
X85774025Y-73329731D01*
X85718463Y-73310088D01*
X85662819Y-73298739D01*
X85593958Y-73292583D01*
X85543539Y-73290202D01*
X85462261Y-73288026D01*
X85404792Y-73290076D01*
X85361206Y-73297594D01*
X85321575Y-73311822D01*
X85303445Y-73320231D01*
X85252007Y-73351197D01*
X85210370Y-73386660D01*
X85199162Y-73400527D01*
X85170553Y-73444190D01*
X85133761Y-73378529D01*
X85096968Y-73312867D01*
X84914965Y-73308056D01*
X84732963Y-73303245D01*
X84756341Y-73358856D01*
X84769025Y-73388405D01*
X84793343Y-73444490D01*
X84827341Y-73522626D01*
X84869065Y-73618328D01*
X84916560Y-73727110D01*
X84967872Y-73844486D01*
X84978721Y-73869284D01*
X85036218Y-74001183D01*
X85081092Y-74105607D01*
X85114577Y-74185983D01*
X85137909Y-74245739D01*
X85152325Y-74288299D01*
X85159059Y-74317092D01*
X85159348Y-74335543D01*
X85154427Y-74347079D01*
X85152013Y-74349811D01*
X85111991Y-74367358D01*
X85055878Y-74360970D01*
X84987888Y-74333814D01*
X84912236Y-74289059D01*
X84833138Y-74229872D01*
X84754809Y-74159421D01*
X84681463Y-74080874D01*
X84617317Y-73997399D01*
X84566584Y-73912164D01*
X84564728Y-73908429D01*
X84507966Y-73763217D01*
X84483008Y-73625865D01*
X84488372Y-73497984D01*
X84522577Y-73381188D01*
X84584141Y-73277088D01*
X84671582Y-73187297D01*
X84783420Y-73113427D01*
X84918171Y-73057090D01*
X85074355Y-73019899D01*
X85250490Y-73003465D01*
X85394300Y-73005703D01*
X85619031Y-73032473D01*
X85827595Y-73084938D01*
X86017567Y-73162092D01*
X86186524Y-73262931D01*
X86332043Y-73386448D01*
X86345370Y-73400174D01*
X86451324Y-73527455D01*
X86541963Y-73668633D01*
X86614953Y-73817691D01*
X86667957Y-73968614D01*
X86698641Y-74115386D01*
X86704669Y-74251993D01*
X86698505Y-74309856D01*
X86660545Y-74454763D01*
X86596551Y-74580101D01*
X86505685Y-74686692D01*
X86387108Y-74775358D01*
X86239984Y-74846919D01*
X86105500Y-74891218D01*
X86028269Y-74905966D01*
X85925354Y-74916240D01*
X85804628Y-74922119D01*
X85673965Y-74923684D01*
X85541241Y-74921013D01*
X85414329Y-74914186D01*
X85301103Y-74903284D01*
X85209439Y-74888384D01*
X85182633Y-74881894D01*
X85050473Y-74838740D01*
X84920210Y-74783612D01*
X84803068Y-74721723D01*
X84723202Y-74668465D01*
X84682493Y-74638822D01*
X84648774Y-74620954D01*
X84611165Y-74611889D01*
X84558786Y-74608655D01*
X84502865Y-74608267D01*
X84438430Y-74609852D01*
X84389358Y-74614077D01*
X84363489Y-74620146D01*
X84361366Y-74622623D01*
X84373494Y-74642259D01*
X84405740Y-74677459D01*
X84451901Y-74722476D01*
X84505774Y-74771565D01*
X84561156Y-74818978D01*
X84611843Y-74858971D01*
X84632300Y-74873583D01*
X84811198Y-74976680D01*
X85013056Y-75059098D01*
X85232495Y-75118698D01*
X85265435Y-75125315D01*
X85362981Y-75139544D01*
X85483234Y-75150261D01*
X85615307Y-75157106D01*
X85748311Y-75159717D01*
X85871359Y-75157733D01*
X85973562Y-75150794D01*
X85986967Y-75149235D01*
X86206204Y-75110592D01*
X86397418Y-75052931D01*
X86560610Y-74976253D01*
X86695781Y-74880557D01*
X86802932Y-74765840D01*
X86882065Y-74632103D01*
X86933181Y-74479343D01*
X86956281Y-74307561D01*
X86957747Y-74242823D01*
X86940207Y-74050209D01*
X86889243Y-73855062D01*
X86833266Y-73716332D01*
X86776028Y-73601304D01*
X86716781Y-73503405D01*
X86647602Y-73411178D01*
X86560567Y-73313161D01*
X86538399Y-73289852D01*
X86372045Y-73137709D01*
X86190516Y-73013185D01*
X85990090Y-72914121D01*
X85767048Y-72838359D01*
X85753385Y-72834647D01*
X85690428Y-72818580D01*
X85634402Y-72806885D01*
X85577796Y-72798847D01*
X85513099Y-72793752D01*
X85432802Y-72790887D01*
X85329392Y-72789538D01*
X85275767Y-72789245D01*
X85154720Y-72789381D01*
G36*
X81060507Y-75061234D02*
G01*
X81260255Y-75364688D01*
X81489573Y-75654309D01*
X81746461Y-75928516D01*
X82028917Y-76185730D01*
X82334941Y-76424373D01*
X82662530Y-76642864D01*
X83009685Y-76839625D01*
X83374403Y-77013077D01*
X83695049Y-77140394D01*
X83973048Y-77233781D01*
X84261001Y-77316668D01*
X84553788Y-77388195D01*
X84846291Y-77447501D01*
X85133388Y-77493722D01*
X85409963Y-77525998D01*
X85670894Y-77543468D01*
X85911063Y-77545269D01*
X86054700Y-77537539D01*
X86368841Y-77503447D01*
X86661787Y-77454025D01*
X86943453Y-77387325D01*
X87177239Y-77316964D01*
X87475627Y-77204085D01*
X87748885Y-77070378D01*
X87996429Y-76916306D01*
X88217676Y-76742334D01*
X88412043Y-76548924D01*
X88578944Y-76336541D01*
X88717798Y-76105649D01*
X88729189Y-76083403D01*
X88773438Y-75984669D01*
X88819217Y-75863443D01*
X88863009Y-75730719D01*
X88901302Y-75597495D01*
X88930580Y-75474767D01*
X88940483Y-75422316D01*
X88955570Y-75327788D01*
X88963387Y-75265041D01*
X88963520Y-75232687D01*
X88955553Y-75229341D01*
X88939071Y-75253617D01*
X88913656Y-75304129D01*
X88908385Y-75315295D01*
X88810311Y-75494871D01*
X88685863Y-75675772D01*
X88541365Y-75850515D01*
X88383144Y-76011619D01*
X88217528Y-76151600D01*
X88174425Y-76183336D01*
X87943231Y-76328077D01*
X87691838Y-76446793D01*
X87419895Y-76539569D01*
X87127048Y-76606487D01*
X86812946Y-76647634D01*
X86477236Y-76663092D01*
X86189993Y-76656877D01*
X85792527Y-76624420D01*
X85409713Y-76567469D01*
X85042985Y-76486699D01*
X84693780Y-76382786D01*
X84363532Y-76256405D01*
X84053677Y-76108231D01*
X83765650Y-75938938D01*
X83500887Y-75749203D01*
X83260822Y-75539700D01*
X83046892Y-75311104D01*
X82887561Y-75103567D01*
X82813766Y-74997734D01*
X81022738Y-74997734D01*
X81060507Y-75061234D01*
X81060507Y-75061234D01*
G37*
X81060507Y-75061234D02*
X81260255Y-75364688D01*
X81489573Y-75654309D01*
X81746461Y-75928516D01*
X82028917Y-76185730D01*
X82334941Y-76424373D01*
X82662530Y-76642864D01*
X83009685Y-76839625D01*
X83374403Y-77013077D01*
X83695049Y-77140394D01*
X83973048Y-77233781D01*
X84261001Y-77316668D01*
X84553788Y-77388195D01*
X84846291Y-77447501D01*
X85133388Y-77493722D01*
X85409963Y-77525998D01*
X85670894Y-77543468D01*
X85911063Y-77545269D01*
X86054700Y-77537539D01*
X86368841Y-77503447D01*
X86661787Y-77454025D01*
X86943453Y-77387325D01*
X87177239Y-77316964D01*
X87475627Y-77204085D01*
X87748885Y-77070378D01*
X87996429Y-76916306D01*
X88217676Y-76742334D01*
X88412043Y-76548924D01*
X88578944Y-76336541D01*
X88717798Y-76105649D01*
X88729189Y-76083403D01*
X88773438Y-75984669D01*
X88819217Y-75863443D01*
X88863009Y-75730719D01*
X88901302Y-75597495D01*
X88930580Y-75474767D01*
X88940483Y-75422316D01*
X88955570Y-75327788D01*
X88963387Y-75265041D01*
X88963520Y-75232687D01*
X88955553Y-75229341D01*
X88939071Y-75253617D01*
X88913656Y-75304129D01*
X88908385Y-75315295D01*
X88810311Y-75494871D01*
X88685863Y-75675772D01*
X88541365Y-75850515D01*
X88383144Y-76011619D01*
X88217528Y-76151600D01*
X88174425Y-76183336D01*
X87943231Y-76328077D01*
X87691838Y-76446793D01*
X87419895Y-76539569D01*
X87127048Y-76606487D01*
X86812946Y-76647634D01*
X86477236Y-76663092D01*
X86189993Y-76656877D01*
X85792527Y-76624420D01*
X85409713Y-76567469D01*
X85042985Y-76486699D01*
X84693780Y-76382786D01*
X84363532Y-76256405D01*
X84053677Y-76108231D01*
X83765650Y-75938938D01*
X83500887Y-75749203D01*
X83260822Y-75539700D01*
X83046892Y-75311104D01*
X82887561Y-75103567D01*
X82813766Y-74997734D01*
X81022738Y-74997734D01*
X81060507Y-75061234D01*
G36*
X109371397Y-97443158D02*
G01*
X109319881Y-97485080D01*
X109294257Y-97528376D01*
X109279515Y-97599893D01*
X109292779Y-97664458D01*
X109328464Y-97716831D01*
X109380990Y-97751776D01*
X109444773Y-97764054D01*
X109514232Y-97748427D01*
X109523880Y-97743822D01*
X109581246Y-97696862D01*
X109606211Y-97651352D01*
X109619677Y-97606916D01*
X109617753Y-97571641D01*
X109599257Y-97526909D01*
X109598164Y-97524678D01*
X109554088Y-97466726D01*
X109496361Y-97433885D01*
X109432844Y-97426061D01*
X109371397Y-97443158D01*
X109371397Y-97443158D01*
G37*
X109371397Y-97443158D02*
X109319881Y-97485080D01*
X109294257Y-97528376D01*
X109279515Y-97599893D01*
X109292779Y-97664458D01*
X109328464Y-97716831D01*
X109380990Y-97751776D01*
X109444773Y-97764054D01*
X109514232Y-97748427D01*
X109523880Y-97743822D01*
X109581246Y-97696862D01*
X109606211Y-97651352D01*
X109619677Y-97606916D01*
X109617753Y-97571641D01*
X109599257Y-97526909D01*
X109598164Y-97524678D01*
X109554088Y-97466726D01*
X109496361Y-97433885D01*
X109432844Y-97426061D01*
X109371397Y-97443158D01*
G36*
X112961264Y-97443158D02*
G01*
X112909748Y-97485080D01*
X112884124Y-97528376D01*
X112869382Y-97599893D01*
X112882645Y-97664458D01*
X112918331Y-97716831D01*
X112970857Y-97751776D01*
X113034640Y-97764054D01*
X113104098Y-97748427D01*
X113113747Y-97743822D01*
X113171112Y-97696862D01*
X113196078Y-97651352D01*
X113209543Y-97606916D01*
X113207620Y-97571641D01*
X113189123Y-97526909D01*
X113188031Y-97524678D01*
X113143955Y-97466726D01*
X113086228Y-97433885D01*
X113022710Y-97426061D01*
X112961264Y-97443158D01*
X112961264Y-97443158D01*
G37*
X112961264Y-97443158D02*
X112909748Y-97485080D01*
X112884124Y-97528376D01*
X112869382Y-97599893D01*
X112882645Y-97664458D01*
X112918331Y-97716831D01*
X112970857Y-97751776D01*
X113034640Y-97764054D01*
X113104098Y-97748427D01*
X113113747Y-97743822D01*
X113171112Y-97696862D01*
X113196078Y-97651352D01*
X113209543Y-97606916D01*
X113207620Y-97571641D01*
X113189123Y-97526909D01*
X113188031Y-97524678D01*
X113143955Y-97466726D01*
X113086228Y-97433885D01*
X113022710Y-97426061D01*
X112961264Y-97443158D01*
G36*
X115046491Y-98428514D02*
G01*
X115004497Y-98452983D01*
X114955561Y-98495752D01*
X114895889Y-98559343D01*
X114821689Y-98646282D01*
X114777327Y-98700060D01*
X114710035Y-98782102D01*
X114647298Y-98858441D01*
X114593384Y-98923897D01*
X114552561Y-98973286D01*
X114529685Y-99000733D01*
X114486794Y-99051533D01*
X114486254Y-98814466D01*
X114484213Y-98696053D01*
X114477670Y-98606541D01*
X114465080Y-98541092D01*
X114444898Y-98494870D01*
X114415579Y-98463037D01*
X114375576Y-98440757D01*
X114365594Y-98436809D01*
X114318900Y-98423398D01*
X114279417Y-98426536D01*
X114242218Y-98440013D01*
X114213739Y-98453436D01*
X114190706Y-98469834D01*
X114172428Y-98492793D01*
X114158216Y-98525902D01*
X114147381Y-98572749D01*
X114139233Y-98636921D01*
X114133082Y-98722007D01*
X114128240Y-98831593D01*
X114124016Y-98969269D01*
X114121451Y-99068466D01*
X114117811Y-99226743D01*
X114115991Y-99354751D01*
X114116565Y-99456067D01*
X114120109Y-99534266D01*
X114127199Y-99592923D01*
X114138410Y-99635616D01*
X114154316Y-99665918D01*
X114175494Y-99687405D01*
X114202518Y-99703655D01*
X114225284Y-99713853D01*
X114268784Y-99729135D01*
X114303977Y-99730073D01*
X114348885Y-99716567D01*
X114358023Y-99713117D01*
X114379555Y-99703660D01*
X114401473Y-99690418D01*
X114426223Y-99670702D01*
X114456252Y-99641824D01*
X114494006Y-99601096D01*
X114541931Y-99545828D01*
X114602474Y-99473333D01*
X114678082Y-99380921D01*
X114771199Y-99265904D01*
X114819966Y-99205436D01*
X114900634Y-99105339D01*
X114909100Y-99357836D01*
X114913834Y-99470033D01*
X114920506Y-99553525D01*
X114930725Y-99613473D01*
X114946101Y-99655038D01*
X114968244Y-99683380D01*
X114998764Y-99703660D01*
X115019986Y-99713366D01*
X115064002Y-99730509D01*
X115094210Y-99734578D01*
X115127430Y-99725385D01*
X115159501Y-99711821D01*
X115186216Y-99698401D01*
X115207844Y-99681369D01*
X115225037Y-99657146D01*
X115238445Y-99622152D01*
X115248719Y-99572810D01*
X115256510Y-99505540D01*
X115262469Y-99416764D01*
X115267246Y-99302903D01*
X115271492Y-99160378D01*
X115273416Y-99085400D01*
X115277060Y-98927147D01*
X115278888Y-98799160D01*
X115278322Y-98697861D01*
X115274780Y-98619672D01*
X115267684Y-98561015D01*
X115256453Y-98518313D01*
X115240507Y-98487986D01*
X115219267Y-98466457D01*
X115192152Y-98450149D01*
X115168757Y-98439668D01*
X115124827Y-98424380D01*
X115085336Y-98419821D01*
X115046491Y-98428514D01*
X115046491Y-98428514D01*
G37*
X115046491Y-98428514D02*
X115004497Y-98452983D01*
X114955561Y-98495752D01*
X114895889Y-98559343D01*
X114821689Y-98646282D01*
X114777327Y-98700060D01*
X114710035Y-98782102D01*
X114647298Y-98858441D01*
X114593384Y-98923897D01*
X114552561Y-98973286D01*
X114529685Y-99000733D01*
X114486794Y-99051533D01*
X114486254Y-98814466D01*
X114484213Y-98696053D01*
X114477670Y-98606541D01*
X114465080Y-98541092D01*
X114444898Y-98494870D01*
X114415579Y-98463037D01*
X114375576Y-98440757D01*
X114365594Y-98436809D01*
X114318900Y-98423398D01*
X114279417Y-98426536D01*
X114242218Y-98440013D01*
X114213739Y-98453436D01*
X114190706Y-98469834D01*
X114172428Y-98492793D01*
X114158216Y-98525902D01*
X114147381Y-98572749D01*
X114139233Y-98636921D01*
X114133082Y-98722007D01*
X114128240Y-98831593D01*
X114124016Y-98969269D01*
X114121451Y-99068466D01*
X114117811Y-99226743D01*
X114115991Y-99354751D01*
X114116565Y-99456067D01*
X114120109Y-99534266D01*
X114127199Y-99592923D01*
X114138410Y-99635616D01*
X114154316Y-99665918D01*
X114175494Y-99687405D01*
X114202518Y-99703655D01*
X114225284Y-99713853D01*
X114268784Y-99729135D01*
X114303977Y-99730073D01*
X114348885Y-99716567D01*
X114358023Y-99713117D01*
X114379555Y-99703660D01*
X114401473Y-99690418D01*
X114426223Y-99670702D01*
X114456252Y-99641824D01*
X114494006Y-99601096D01*
X114541931Y-99545828D01*
X114602474Y-99473333D01*
X114678082Y-99380921D01*
X114771199Y-99265904D01*
X114819966Y-99205436D01*
X114900634Y-99105339D01*
X114909100Y-99357836D01*
X114913834Y-99470033D01*
X114920506Y-99553525D01*
X114930725Y-99613473D01*
X114946101Y-99655038D01*
X114968244Y-99683380D01*
X114998764Y-99703660D01*
X115019986Y-99713366D01*
X115064002Y-99730509D01*
X115094210Y-99734578D01*
X115127430Y-99725385D01*
X115159501Y-99711821D01*
X115186216Y-99698401D01*
X115207844Y-99681369D01*
X115225037Y-99657146D01*
X115238445Y-99622152D01*
X115248719Y-99572810D01*
X115256510Y-99505540D01*
X115262469Y-99416764D01*
X115267246Y-99302903D01*
X115271492Y-99160378D01*
X115273416Y-99085400D01*
X115277060Y-98927147D01*
X115278888Y-98799160D01*
X115278322Y-98697861D01*
X115274780Y-98619672D01*
X115267684Y-98561015D01*
X115256453Y-98518313D01*
X115240507Y-98487986D01*
X115219267Y-98466457D01*
X115192152Y-98450149D01*
X115168757Y-98439668D01*
X115124827Y-98424380D01*
X115085336Y-98419821D01*
X115046491Y-98428514D01*
G36*
X116009767Y-98401099D02*
G01*
X115915909Y-98403009D01*
X115844682Y-98408203D01*
X115784891Y-98418300D01*
X115725341Y-98434919D01*
X115688034Y-98447639D01*
X115623779Y-98471459D01*
X115582405Y-98491847D01*
X115554672Y-98516110D01*
X115531341Y-98551553D01*
X115513226Y-98585866D01*
X115491198Y-98631336D01*
X115477595Y-98670136D01*
X115470803Y-98712365D01*
X115469203Y-98768120D01*
X115471179Y-98847499D01*
X115471208Y-98848333D01*
X115476360Y-98940732D01*
X115485509Y-99008591D01*
X115500248Y-99061150D01*
X115512824Y-99089970D01*
X115548652Y-99162274D01*
X115467076Y-99272783D01*
X115422096Y-99337144D01*
X115380284Y-99402807D01*
X115350170Y-99456325D01*
X115348549Y-99459622D01*
X115327075Y-99508465D01*
X115320750Y-99543148D01*
X115328085Y-99579007D01*
X115335043Y-99598543D01*
X115374025Y-99660255D01*
X115431719Y-99699291D01*
X115499761Y-99711458D01*
X115544266Y-99703412D01*
X115591772Y-99680138D01*
X115627477Y-99649857D01*
X115629584Y-99647032D01*
X115657200Y-99607960D01*
X115698393Y-99550126D01*
X115746931Y-99482239D01*
X115796580Y-99413003D01*
X115841107Y-99351127D01*
X115870748Y-99310166D01*
X115907014Y-99268229D01*
X115942172Y-99249751D01*
X115971667Y-99246666D01*
X116026701Y-99246266D01*
X116026701Y-99407677D01*
X116030265Y-99515967D01*
X116042144Y-99596006D01*
X116064115Y-99652772D01*
X116097958Y-99691241D01*
X116135614Y-99712542D01*
X116180607Y-99730149D01*
X116211139Y-99734596D01*
X116243990Y-99725798D01*
X116277101Y-99711821D01*
X116305121Y-99697911D01*
X116327686Y-99680695D01*
X116345382Y-99656609D01*
X116358797Y-99622091D01*
X116368518Y-99573578D01*
X116375131Y-99507507D01*
X116379223Y-99420316D01*
X116381380Y-99308442D01*
X116382190Y-99168322D01*
X116382274Y-99073243D01*
X116382075Y-98927933D01*
X116381349Y-98812461D01*
X116380414Y-98755200D01*
X116026701Y-98755200D01*
X116026701Y-98890666D01*
X115823500Y-98890666D01*
X115823500Y-98755200D01*
X116026701Y-98755200D01*
X116380414Y-98755200D01*
X116379884Y-98722801D01*
X116377463Y-98654927D01*
X116373872Y-98604812D01*
X116368895Y-98568430D01*
X116362319Y-98541753D01*
X116353927Y-98520757D01*
X116352641Y-98518133D01*
X116322818Y-98471793D01*
X116283284Y-98438786D01*
X116228573Y-98417244D01*
X116153217Y-98405303D01*
X116051750Y-98401095D01*
X116009767Y-98401099D01*
X116009767Y-98401099D01*
G37*
X116009767Y-98401099D02*
X115915909Y-98403009D01*
X115844682Y-98408203D01*
X115784891Y-98418300D01*
X115725341Y-98434919D01*
X115688034Y-98447639D01*
X115623779Y-98471459D01*
X115582405Y-98491847D01*
X115554672Y-98516110D01*
X115531341Y-98551553D01*
X115513226Y-98585866D01*
X115491198Y-98631336D01*
X115477595Y-98670136D01*
X115470803Y-98712365D01*
X115469203Y-98768120D01*
X115471179Y-98847499D01*
X115471208Y-98848333D01*
X115476360Y-98940732D01*
X115485509Y-99008591D01*
X115500248Y-99061150D01*
X115512824Y-99089970D01*
X115548652Y-99162274D01*
X115467076Y-99272783D01*
X115422096Y-99337144D01*
X115380284Y-99402807D01*
X115350170Y-99456325D01*
X115348549Y-99459622D01*
X115327075Y-99508465D01*
X115320750Y-99543148D01*
X115328085Y-99579007D01*
X115335043Y-99598543D01*
X115374025Y-99660255D01*
X115431719Y-99699291D01*
X115499761Y-99711458D01*
X115544266Y-99703412D01*
X115591772Y-99680138D01*
X115627477Y-99649857D01*
X115629584Y-99647032D01*
X115657200Y-99607960D01*
X115698393Y-99550126D01*
X115746931Y-99482239D01*
X115796580Y-99413003D01*
X115841107Y-99351127D01*
X115870748Y-99310166D01*
X115907014Y-99268229D01*
X115942172Y-99249751D01*
X115971667Y-99246666D01*
X116026701Y-99246266D01*
X116026701Y-99407677D01*
X116030265Y-99515967D01*
X116042144Y-99596006D01*
X116064115Y-99652772D01*
X116097958Y-99691241D01*
X116135614Y-99712542D01*
X116180607Y-99730149D01*
X116211139Y-99734596D01*
X116243990Y-99725798D01*
X116277101Y-99711821D01*
X116305121Y-99697911D01*
X116327686Y-99680695D01*
X116345382Y-99656609D01*
X116358797Y-99622091D01*
X116368518Y-99573578D01*
X116375131Y-99507507D01*
X116379223Y-99420316D01*
X116381380Y-99308442D01*
X116382190Y-99168322D01*
X116382274Y-99073243D01*
X116382075Y-98927933D01*
X116381349Y-98812461D01*
X116380414Y-98755200D01*
X116026701Y-98755200D01*
X116026701Y-98890666D01*
X115823500Y-98890666D01*
X115823500Y-98755200D01*
X116026701Y-98755200D01*
X116380414Y-98755200D01*
X116379884Y-98722801D01*
X116377463Y-98654927D01*
X116373872Y-98604812D01*
X116368895Y-98568430D01*
X116362319Y-98541753D01*
X116353927Y-98520757D01*
X116352641Y-98518133D01*
X116322818Y-98471793D01*
X116283284Y-98438786D01*
X116228573Y-98417244D01*
X116153217Y-98405303D01*
X116051750Y-98401095D01*
X116009767Y-98401099D01*
G36*
X111034406Y-90419814D02*
G01*
X110883199Y-90427863D01*
X110752521Y-90440441D01*
X110703239Y-90447510D01*
X110383414Y-90514981D01*
X110059857Y-90613747D01*
X109732075Y-90744069D01*
X109399575Y-90906207D01*
X109061867Y-91100421D01*
X108718456Y-91326974D01*
X108368851Y-91586124D01*
X108034167Y-91859652D01*
X107851948Y-92020620D01*
X107659108Y-92201007D01*
X107461751Y-92394535D01*
X107265981Y-92594924D01*
X107077900Y-92795895D01*
X106903612Y-92991168D01*
X106749218Y-93174464D01*
X106715306Y-93216599D01*
X106638363Y-93315218D01*
X106582670Y-93392992D01*
X106546852Y-93454273D01*
X106529533Y-93503416D01*
X106529336Y-93544773D01*
X106544886Y-93582699D01*
X106574807Y-93621547D01*
X106584133Y-93631660D01*
X106646330Y-93678519D01*
X106711891Y-93693234D01*
X106776873Y-93675325D01*
X106802654Y-93658266D01*
X106835226Y-93634857D01*
X106855290Y-93624434D01*
X106855786Y-93624399D01*
X106851822Y-93638532D01*
X106834396Y-93677604D01*
X106805894Y-93736626D01*
X106768704Y-93810610D01*
X106740305Y-93865699D01*
X106690119Y-93964841D01*
X106634447Y-94079370D01*
X106576076Y-94203113D01*
X106517794Y-94329896D01*
X106462390Y-94453547D01*
X106412651Y-94567892D01*
X106371365Y-94666759D01*
X106341319Y-94743974D01*
X106333078Y-94767400D01*
X106316945Y-94814393D01*
X106292311Y-94884751D01*
X106262169Y-94969980D01*
X106229513Y-95061588D01*
X106219643Y-95089133D01*
X106152563Y-95282957D01*
X106100168Y-95450381D01*
X106061558Y-95595074D01*
X106035831Y-95720701D01*
X106022087Y-95830932D01*
X106019100Y-95905660D01*
X106022510Y-96008126D01*
X106034804Y-96082920D01*
X106059083Y-96135737D01*
X106098449Y-96172274D01*
X106156002Y-96198227D01*
X106182768Y-96206355D01*
X106220650Y-96205957D01*
X106280869Y-96192829D01*
X106355357Y-96169151D01*
X106430961Y-96139314D01*
X106431450Y-96148370D01*
X106414973Y-96181364D01*
X106383843Y-96234392D01*
X106340377Y-96303550D01*
X106286888Y-96384934D01*
X106273679Y-96404575D01*
X106201305Y-96513571D01*
X106148511Y-96597930D01*
X106114421Y-96660009D01*
X106098165Y-96702164D01*
X106098869Y-96726753D01*
X106115660Y-96736133D01*
X106147665Y-96732660D01*
X106152629Y-96731456D01*
X106200188Y-96720027D01*
X106271550Y-96703594D01*
X106357400Y-96684238D01*
X106448424Y-96664043D01*
X106535306Y-96645090D01*
X106608733Y-96629461D01*
X106611767Y-96628828D01*
X106758103Y-96609226D01*
X106910333Y-96608203D01*
X107059650Y-96624700D01*
X107197249Y-96657658D01*
X107314324Y-96706021D01*
X107330767Y-96715237D01*
X107386981Y-96755470D01*
X107450822Y-96812313D01*
X107514512Y-96877549D01*
X107570269Y-96942960D01*
X107610314Y-97000327D01*
X107621610Y-97022449D01*
X107635962Y-97074496D01*
X107644046Y-97138148D01*
X107644700Y-97158881D01*
X107644700Y-97240050D01*
X108931634Y-98676218D01*
X109127258Y-98894817D01*
X109309846Y-99099431D01*
X109478478Y-99289010D01*
X109632234Y-99462505D01*
X109770197Y-99618867D01*
X109891447Y-99757046D01*
X109995064Y-99875993D01*
X110080130Y-99974659D01*
X110145726Y-100051995D01*
X110190933Y-100106950D01*
X110214831Y-100138476D01*
X110218567Y-100145588D01*
X110227651Y-100184113D01*
X110245915Y-100220529D01*
X110273262Y-100262266D01*
X112212805Y-100262266D01*
X112240153Y-100220529D01*
X112260464Y-100178500D01*
X112267500Y-100145588D01*
X112278725Y-100128015D01*
X112311787Y-100086408D01*
X112365767Y-100021818D01*
X112439745Y-99935294D01*
X112532804Y-99827885D01*
X112644023Y-99700641D01*
X112772484Y-99554610D01*
X112917268Y-99390842D01*
X113077455Y-99210387D01*
X113252127Y-99014293D01*
X113440365Y-98803611D01*
X113554434Y-98676218D01*
X114841367Y-97240050D01*
X114841367Y-97158881D01*
X114847145Y-97086300D01*
X114852398Y-97069386D01*
X114502701Y-97069386D01*
X114496571Y-97084147D01*
X114477519Y-97112367D01*
X114444551Y-97155199D01*
X114396672Y-97213798D01*
X114332889Y-97289315D01*
X114252207Y-97382905D01*
X114153633Y-97495720D01*
X114036172Y-97628913D01*
X113898830Y-97783639D01*
X113740613Y-97961049D01*
X113561148Y-98161604D01*
X113417164Y-98322095D01*
X113279533Y-98475118D01*
X113149944Y-98618819D01*
X113030085Y-98751343D01*
X112921644Y-98870837D01*
X112826309Y-98975447D01*
X112745768Y-99063318D01*
X112681709Y-99132596D01*
X112635821Y-99181427D01*
X112609792Y-99207957D01*
X112604414Y-99212400D01*
X112591632Y-99198413D01*
X112589433Y-99182766D01*
X112591530Y-99160621D01*
X112597475Y-99108160D01*
X112606870Y-99028663D01*
X112619316Y-98925414D01*
X112634414Y-98801695D01*
X112651764Y-98660789D01*
X112670967Y-98505976D01*
X112691626Y-98340540D01*
X112698011Y-98289619D01*
X112755937Y-97828084D01*
X112412620Y-97828084D01*
X112410581Y-97849266D01*
X112407055Y-97874895D01*
X112399755Y-97931041D01*
X112389071Y-98014610D01*
X112375394Y-98122509D01*
X112359113Y-98251646D01*
X112340618Y-98398927D01*
X112320299Y-98561259D01*
X112298546Y-98735550D01*
X112276336Y-98913989D01*
X112253686Y-99095400D01*
X112232114Y-99266639D01*
X112212001Y-99424784D01*
X112193728Y-99566909D01*
X112177675Y-99690091D01*
X112164224Y-99791406D01*
X112153756Y-99867930D01*
X112146653Y-99916741D01*
X112143294Y-99934913D01*
X112143271Y-99934940D01*
X112125168Y-99937879D01*
X112078724Y-99942252D01*
X112009417Y-99947711D01*
X111922724Y-99953911D01*
X111824124Y-99960503D01*
X111719096Y-99967140D01*
X111613117Y-99973476D01*
X111511666Y-99979163D01*
X111420220Y-99983854D01*
X111344259Y-99987201D01*
X111293834Y-99988775D01*
X111248267Y-99988333D01*
X111175006Y-99986004D01*
X111080151Y-99982054D01*
X110969807Y-99976753D01*
X110850074Y-99970367D01*
X110770426Y-99965782D01*
X110654582Y-99958678D01*
X110550384Y-99951845D01*
X110462457Y-99945621D01*
X110395425Y-99940345D01*
X110353912Y-99936359D01*
X110342193Y-99934337D01*
X110339013Y-99916842D01*
X110332074Y-99868655D01*
X110321758Y-99792698D01*
X110308442Y-99691892D01*
X110292507Y-99569158D01*
X110274331Y-99427419D01*
X110254294Y-99269595D01*
X110244004Y-99187827D01*
X109893472Y-99187827D01*
X109892545Y-99202496D01*
X109890065Y-99209736D01*
X109886295Y-99212165D01*
X109881645Y-99212400D01*
X109868012Y-99200113D01*
X109833762Y-99164657D01*
X109780819Y-99108135D01*
X109711108Y-99032652D01*
X109626555Y-98940314D01*
X109529085Y-98833224D01*
X109420622Y-98713486D01*
X109303091Y-98583207D01*
X109178417Y-98444490D01*
X109134680Y-98395707D01*
X109007726Y-98253737D01*
X108887339Y-98118556D01*
X108775452Y-97992374D01*
X108674004Y-97877401D01*
X108584928Y-97775846D01*
X108510160Y-97689917D01*
X108451637Y-97621824D01*
X108411293Y-97573777D01*
X108391065Y-97547984D01*
X108389163Y-97544807D01*
X108373541Y-97521070D01*
X108339177Y-97477419D01*
X108290240Y-97418878D01*
X108230901Y-97350475D01*
X108187862Y-97302144D01*
X108112796Y-97216696D01*
X108056303Y-97148208D01*
X108019069Y-97097972D01*
X108001783Y-97067286D01*
X108005130Y-97057445D01*
X108029799Y-97069745D01*
X108076476Y-97105481D01*
X108089200Y-97116136D01*
X108245047Y-97247414D01*
X108388058Y-97366365D01*
X108516403Y-97471534D01*
X108628253Y-97561464D01*
X108721777Y-97634700D01*
X108795145Y-97689786D01*
X108846529Y-97725265D01*
X108872255Y-97739162D01*
X108922525Y-97748964D01*
X108971663Y-97739339D01*
X108990058Y-97732176D01*
X109023905Y-97714652D01*
X109050229Y-97690914D01*
X109070233Y-97656571D01*
X109085117Y-97607233D01*
X109096087Y-97538509D01*
X109104343Y-97446007D01*
X109111088Y-97325337D01*
X109112982Y-97283329D01*
X109126367Y-96975493D01*
X109346501Y-97152144D01*
X109424912Y-97215265D01*
X109498334Y-97274732D01*
X109560805Y-97325689D01*
X109606367Y-97363284D01*
X109623156Y-97377449D01*
X109679678Y-97426105D01*
X109788057Y-98289619D01*
X109813067Y-98488936D01*
X109834133Y-98657266D01*
X109851521Y-98797227D01*
X109865496Y-98911437D01*
X109876324Y-99002513D01*
X109884270Y-99073072D01*
X109889600Y-99125732D01*
X109892579Y-99163111D01*
X109893472Y-99187827D01*
X110244004Y-99187827D01*
X110232775Y-99098609D01*
X110210153Y-98917380D01*
X110209732Y-98913989D01*
X110186957Y-98731020D01*
X110165235Y-98556994D01*
X110144958Y-98395004D01*
X110126514Y-98248144D01*
X110110294Y-98119506D01*
X110096687Y-98012183D01*
X110086085Y-97929270D01*
X110078875Y-97873858D01*
X110075487Y-97849266D01*
X110073467Y-97827818D01*
X110079048Y-97821483D01*
X110096033Y-97832766D01*
X110128227Y-97864175D01*
X110178294Y-97916999D01*
X110235297Y-97979872D01*
X110303772Y-98058426D01*
X110374281Y-98141702D01*
X110426203Y-98204843D01*
X110563096Y-98374154D01*
X110482903Y-98385625D01*
X110399339Y-98406258D01*
X110342611Y-98442152D01*
X110307867Y-98496615D01*
X110303911Y-98507614D01*
X110293403Y-98559284D01*
X110302654Y-98607987D01*
X110309433Y-98625384D01*
X110331055Y-98666919D01*
X110359250Y-98695516D01*
X110400038Y-98713231D01*
X110459443Y-98722121D01*
X110543487Y-98724243D01*
X110596506Y-98723411D01*
X110694287Y-98723186D01*
X110762375Y-98728397D01*
X110804634Y-98739890D01*
X110824925Y-98758512D01*
X110828167Y-98774206D01*
X110812401Y-98780298D01*
X110769757Y-98785180D01*
X110707220Y-98788272D01*
X110649823Y-98789066D01*
X110539804Y-98791907D01*
X110458133Y-98801605D01*
X110399675Y-98819926D01*
X110359298Y-98848635D01*
X110331866Y-98889496D01*
X110327190Y-98899976D01*
X110311312Y-98952092D01*
X110314730Y-98998860D01*
X110320844Y-99019718D01*
X110335521Y-99057387D01*
X110354398Y-99085642D01*
X110382120Y-99105744D01*
X110423330Y-99118955D01*
X110482674Y-99126537D01*
X110564794Y-99129751D01*
X110674336Y-99129860D01*
X110724392Y-99129345D01*
X111025034Y-99125764D01*
X111045134Y-99169878D01*
X111059696Y-99204234D01*
X111065234Y-99221663D01*
X111049216Y-99224178D01*
X111004826Y-99226346D01*
X110937555Y-99228022D01*
X110852898Y-99229060D01*
X110776823Y-99229333D01*
X110650010Y-99230368D01*
X110552488Y-99234247D01*
X110479720Y-99242132D01*
X110427172Y-99255187D01*
X110390310Y-99274573D01*
X110364598Y-99301453D01*
X110345502Y-99336990D01*
X110344124Y-99340242D01*
X110328245Y-99392359D01*
X110331663Y-99439127D01*
X110337778Y-99459985D01*
X110345803Y-99484350D01*
X110354318Y-99504801D01*
X110366157Y-99521680D01*
X110384155Y-99535330D01*
X110411146Y-99546093D01*
X110449964Y-99554312D01*
X110503443Y-99560328D01*
X110574418Y-99564485D01*
X110665722Y-99567124D01*
X110780190Y-99568589D01*
X110920657Y-99569221D01*
X111089956Y-99569363D01*
X111243034Y-99569354D01*
X111436664Y-99569356D01*
X111599262Y-99569134D01*
X111733662Y-99568345D01*
X111842698Y-99566647D01*
X111929205Y-99563698D01*
X111996017Y-99559155D01*
X112045967Y-99552675D01*
X112081891Y-99543917D01*
X112106622Y-99532537D01*
X112122995Y-99518194D01*
X112133844Y-99500545D01*
X112142004Y-99479247D01*
X112148290Y-99459985D01*
X112158735Y-99409576D01*
X112150319Y-99362040D01*
X112141944Y-99340242D01*
X112123181Y-99303963D01*
X112098166Y-99276433D01*
X112062362Y-99256490D01*
X112011237Y-99242971D01*
X111940254Y-99234715D01*
X111844879Y-99230558D01*
X111720577Y-99229338D01*
X111709244Y-99229333D01*
X111614682Y-99228907D01*
X111533139Y-99227726D01*
X111470107Y-99225937D01*
X111431080Y-99223686D01*
X111420834Y-99221663D01*
X111427114Y-99202323D01*
X111440934Y-99169878D01*
X111461034Y-99125764D01*
X111761676Y-99129345D01*
X111882918Y-99130091D01*
X111974965Y-99128212D01*
X112042461Y-99122447D01*
X112090050Y-99111535D01*
X112122377Y-99094214D01*
X112144084Y-99069223D01*
X112159817Y-99035299D01*
X112165223Y-99019718D01*
X112175668Y-98969309D01*
X112167252Y-98921774D01*
X112158877Y-98899976D01*
X112133547Y-98856288D01*
X112096368Y-98825130D01*
X112042207Y-98804737D01*
X111965929Y-98793344D01*
X111862401Y-98789185D01*
X111836244Y-98789066D01*
X111763137Y-98787752D01*
X111704539Y-98784199D01*
X111667432Y-98778989D01*
X111657900Y-98774206D01*
X111666386Y-98750681D01*
X111694417Y-98734816D01*
X111745856Y-98725764D01*
X111824564Y-98722680D01*
X111889561Y-98723411D01*
X111988150Y-98723897D01*
X112059095Y-98718641D01*
X112108419Y-98705586D01*
X112142144Y-98682675D01*
X112166292Y-98647852D01*
X112176635Y-98625384D01*
X112192014Y-98573162D01*
X112187316Y-98524757D01*
X112182157Y-98507614D01*
X112150574Y-98449770D01*
X112097806Y-98411040D01*
X112019004Y-98388117D01*
X112003165Y-98385625D01*
X111922972Y-98374154D01*
X112059865Y-98204843D01*
X112125138Y-98125743D01*
X112195990Y-98042525D01*
X112262983Y-97966149D01*
X112307774Y-97916999D01*
X112358595Y-97863399D01*
X112390473Y-97832384D01*
X112407214Y-97821448D01*
X112412620Y-97828084D01*
X112755937Y-97828084D01*
X112806390Y-97426105D01*
X112862912Y-97377449D01*
X112895412Y-97350245D01*
X112948412Y-97306755D01*
X113015951Y-97251833D01*
X113092071Y-97190332D01*
X113139567Y-97152144D01*
X113359700Y-96975493D01*
X113373085Y-97283329D01*
X113379613Y-97413232D01*
X113387294Y-97513660D01*
X113397330Y-97589002D01*
X113410924Y-97643652D01*
X113429278Y-97681999D01*
X113453595Y-97708434D01*
X113485077Y-97727349D01*
X113496010Y-97732176D01*
X113548964Y-97748100D01*
X113596497Y-97744283D01*
X113614070Y-97739078D01*
X113640796Y-97723835D01*
X113689727Y-97689487D01*
X113757236Y-97638834D01*
X113839697Y-97574676D01*
X113933484Y-97499810D01*
X114034972Y-97417037D01*
X114086751Y-97374159D01*
X114202796Y-97277863D01*
X114295546Y-97201697D01*
X114367492Y-97143836D01*
X114421126Y-97102454D01*
X114458939Y-97075727D01*
X114483421Y-97061829D01*
X114497064Y-97058934D01*
X114502358Y-97065219D01*
X114502701Y-97069386D01*
X114852398Y-97069386D01*
X114867228Y-97021640D01*
X114905738Y-96956340D01*
X114966799Y-96881839D01*
X114983722Y-96863307D01*
X115074786Y-96775211D01*
X115165707Y-96711630D01*
X115268403Y-96665430D01*
X115360479Y-96637856D01*
X115460990Y-96616329D01*
X115559639Y-96604922D01*
X115662104Y-96604116D01*
X115774061Y-96614391D01*
X115901187Y-96636226D01*
X116049160Y-96670102D01*
X116194091Y-96708315D01*
X116280334Y-96731484D01*
X116354992Y-96750511D01*
X116412003Y-96763932D01*
X116445306Y-96770280D01*
X116451020Y-96770414D01*
X116445701Y-96755761D01*
X116423457Y-96717378D01*
X116386829Y-96659249D01*
X116338358Y-96585355D01*
X116280585Y-96499681D01*
X116248035Y-96452266D01*
X116185984Y-96361918D01*
X116131263Y-96281299D01*
X116086540Y-96214420D01*
X116054483Y-96165289D01*
X116037759Y-96137914D01*
X116035988Y-96133628D01*
X116052016Y-96137760D01*
X116089321Y-96153931D01*
X116130540Y-96174001D01*
X116228991Y-96211494D01*
X116316834Y-96219545D01*
X116390279Y-96198528D01*
X116431040Y-96168856D01*
X116458705Y-96127219D01*
X116475302Y-96067637D01*
X116482860Y-95984130D01*
X116483900Y-95922593D01*
X116481828Y-95840932D01*
X116477928Y-95801700D01*
X116141044Y-95801700D01*
X116123662Y-95799880D01*
X116082399Y-95790612D01*
X116025908Y-95775855D01*
X116021365Y-95774600D01*
X115933358Y-95754506D01*
X115824562Y-95736000D01*
X115708055Y-95720802D01*
X115596916Y-95710634D01*
X115509281Y-95707200D01*
X115450558Y-95713030D01*
X115398487Y-95727617D01*
X115385847Y-95733820D01*
X115358439Y-95758219D01*
X115318289Y-95804155D01*
X115271080Y-95864746D01*
X115228489Y-95924320D01*
X115116078Y-96088200D01*
X115507832Y-96057046D01*
X115601221Y-96157289D01*
X115694609Y-96257533D01*
X115542609Y-96268309D01*
X115456796Y-96276830D01*
X115367801Y-96289589D01*
X115292520Y-96304096D01*
X115281087Y-96306863D01*
X115207935Y-96329444D01*
X115123440Y-96361650D01*
X115038119Y-96398848D01*
X114962492Y-96436404D01*
X114907077Y-96469687D01*
X114900634Y-96474425D01*
X114887495Y-96483429D01*
X114878170Y-96483922D01*
X114871867Y-96471342D01*
X114867795Y-96441128D01*
X114866558Y-96416491D01*
X114519634Y-96416491D01*
X114519634Y-96618973D01*
X114460547Y-96638473D01*
X114431551Y-96654486D01*
X114381036Y-96689280D01*
X114313235Y-96739647D01*
X114232387Y-96802378D01*
X114142726Y-96874265D01*
X114067963Y-96935825D01*
X113977772Y-97010722D01*
X113896590Y-97077670D01*
X113827888Y-97133843D01*
X113775139Y-97176415D01*
X113741815Y-97202562D01*
X113731314Y-97209738D01*
X113729399Y-97192358D01*
X113726294Y-97147310D01*
X113722377Y-97080755D01*
X113718025Y-96998857D01*
X113716440Y-96967116D01*
X113704719Y-96728433D01*
X113913210Y-96592113D01*
X114008085Y-96530501D01*
X114107371Y-96466758D01*
X114205721Y-96404247D01*
X114247144Y-96378187D01*
X112944281Y-96378187D01*
X112842401Y-96370818D01*
X112746902Y-96373963D01*
X112632322Y-96393591D01*
X112507470Y-96426975D01*
X112381158Y-96471385D01*
X112262194Y-96524096D01*
X112159681Y-96582189D01*
X112009908Y-96684270D01*
X111890176Y-96775129D01*
X111799143Y-96856272D01*
X111735466Y-96929205D01*
X111697802Y-96995435D01*
X111684809Y-97056466D01*
X111692444Y-97106251D01*
X111716946Y-97153843D01*
X111750142Y-97189777D01*
X111752271Y-97191234D01*
X111792820Y-97217803D01*
X111716733Y-97321868D01*
X111654504Y-97410486D01*
X111582360Y-97518810D01*
X111506335Y-97637289D01*
X111432461Y-97756372D01*
X111366771Y-97866510D01*
X111318066Y-97952995D01*
X111243923Y-98090590D01*
X111146273Y-97914650D01*
X111093152Y-97821909D01*
X111031176Y-97718212D01*
X110970045Y-97619634D01*
X110940582Y-97573855D01*
X110888999Y-97496121D01*
X110835798Y-97417574D01*
X110788400Y-97349096D01*
X110762936Y-97313374D01*
X110693330Y-97217749D01*
X110733838Y-97191207D01*
X110778490Y-97143303D01*
X110800012Y-97079539D01*
X110795292Y-97011373D01*
X110788108Y-96991352D01*
X110761810Y-96941788D01*
X110725272Y-96894008D01*
X110673017Y-96842156D01*
X110599567Y-96780380D01*
X110565700Y-96753662D01*
X110533346Y-96729740D01*
X108783841Y-96729740D01*
X108773071Y-96881471D01*
X108768007Y-96963652D01*
X108764222Y-97045719D01*
X108762380Y-97112666D01*
X108762301Y-97124887D01*
X108762301Y-97216572D01*
X108711811Y-97180621D01*
X108679729Y-97153443D01*
X108665223Y-97132427D01*
X108665244Y-97129811D01*
X108654289Y-97113478D01*
X108620882Y-97080258D01*
X108569502Y-97033804D01*
X108504623Y-96977769D01*
X108430723Y-96915806D01*
X108352278Y-96851569D01*
X108273764Y-96788711D01*
X108199656Y-96730884D01*
X108134433Y-96681743D01*
X108082569Y-96644940D01*
X108048541Y-96624128D01*
X108042452Y-96621539D01*
X107983367Y-96602040D01*
X107983367Y-96417086D01*
X107984231Y-96342522D01*
X107986574Y-96282342D01*
X107990020Y-96243405D01*
X107993492Y-96232133D01*
X108012891Y-96241043D01*
X108056990Y-96266275D01*
X108122163Y-96305582D01*
X108204789Y-96356715D01*
X108301243Y-96417429D01*
X108407903Y-96485474D01*
X108521145Y-96558603D01*
X108548704Y-96576533D01*
X108783841Y-96729740D01*
X110533346Y-96729740D01*
X110413137Y-96640860D01*
X110277861Y-96554056D01*
X110157385Y-96491752D01*
X110080853Y-96462024D01*
X109960922Y-96423752D01*
X109866069Y-96396698D01*
X109789914Y-96379531D01*
X109726080Y-96370920D01*
X109668187Y-96369534D01*
X109643666Y-96370818D01*
X109541787Y-96378187D01*
X109580991Y-96327351D01*
X109633337Y-96282788D01*
X109710955Y-96246090D01*
X109805888Y-96218587D01*
X109910178Y-96201607D01*
X110015868Y-96196479D01*
X110114998Y-96204530D01*
X110194242Y-96224977D01*
X110242373Y-96240710D01*
X110278052Y-96241878D01*
X110319343Y-96228609D01*
X110325869Y-96225913D01*
X110351866Y-96213909D01*
X110372890Y-96199184D01*
X110391771Y-96176779D01*
X110411339Y-96141737D01*
X110434425Y-96089101D01*
X110463857Y-96013913D01*
X110496693Y-95926659D01*
X110575724Y-95747034D01*
X110670926Y-95584623D01*
X110777981Y-95446539D01*
X110806582Y-95416154D01*
X110901221Y-95319841D01*
X110930877Y-95373820D01*
X110985376Y-95477829D01*
X111022362Y-95560693D01*
X111044321Y-95628599D01*
X111052843Y-95677322D01*
X111071184Y-95761538D01*
X111107950Y-95819670D01*
X111165906Y-95855664D01*
X111181527Y-95860929D01*
X111242656Y-95872054D01*
X111300360Y-95862916D01*
X111309196Y-95860118D01*
X111370618Y-95826792D01*
X111410423Y-95772339D01*
X111431429Y-95692606D01*
X111433224Y-95677322D01*
X111444743Y-95617051D01*
X111469257Y-95546879D01*
X111509251Y-95460620D01*
X111555191Y-95373820D01*
X111584847Y-95319841D01*
X111679486Y-95416154D01*
X111788867Y-95546916D01*
X111887493Y-95703814D01*
X111971046Y-95879736D01*
X111989375Y-95926659D01*
X112026599Y-96025407D01*
X112055022Y-96097306D01*
X112077476Y-96147312D01*
X112096789Y-96180385D01*
X112115793Y-96201480D01*
X112137316Y-96215557D01*
X112160199Y-96225913D01*
X112203483Y-96240996D01*
X112238875Y-96241658D01*
X112284437Y-96227772D01*
X112291826Y-96224977D01*
X112377737Y-96203493D01*
X112477597Y-96196424D01*
X112583450Y-96202440D01*
X112687337Y-96220212D01*
X112781301Y-96248413D01*
X112857384Y-96285714D01*
X112905077Y-96327351D01*
X112944281Y-96378187D01*
X114247144Y-96378187D01*
X114297785Y-96346329D01*
X114378216Y-96296367D01*
X114441665Y-96257722D01*
X114482784Y-96233757D01*
X114486234Y-96231883D01*
X114500317Y-96225833D01*
X114509757Y-96228988D01*
X114515481Y-96246474D01*
X114518417Y-96283416D01*
X114519491Y-96344938D01*
X114519634Y-96416491D01*
X114866558Y-96416491D01*
X114865162Y-96388717D01*
X114863176Y-96309549D01*
X114862058Y-96252122D01*
X114861223Y-96146480D01*
X114863115Y-96067296D01*
X114867616Y-96017020D01*
X114874531Y-95998123D01*
X114899639Y-95983892D01*
X114928449Y-95962648D01*
X114943862Y-95948833D01*
X114948069Y-95936588D01*
X114937079Y-95921894D01*
X114906902Y-95900730D01*
X114853547Y-95869078D01*
X114811722Y-95845082D01*
X114676769Y-95773762D01*
X114552712Y-95722027D01*
X114427016Y-95685008D01*
X114365033Y-95671549D01*
X114316745Y-95661034D01*
X114290517Y-95651452D01*
X114288408Y-95641146D01*
X114312481Y-95628454D01*
X114364795Y-95611719D01*
X114447411Y-95589282D01*
X114476710Y-95581633D01*
X114613806Y-95549631D01*
X114746316Y-95527057D01*
X114882168Y-95513313D01*
X115029289Y-95507799D01*
X115195606Y-95509919D01*
X115341619Y-95516371D01*
X115444855Y-95521676D01*
X115535990Y-95525770D01*
X115609836Y-95528469D01*
X115661206Y-95529587D01*
X115684911Y-95528941D01*
X115685849Y-95528615D01*
X115681917Y-95511730D01*
X115667394Y-95467910D01*
X115643942Y-95401792D01*
X115613217Y-95318016D01*
X115576880Y-95221219D01*
X115560729Y-95178807D01*
X115553466Y-95160465D01*
X115192992Y-95160465D01*
X114962146Y-95169887D01*
X114662931Y-95198064D01*
X114373937Y-95258142D01*
X114092311Y-95350824D01*
X113913131Y-95428280D01*
X113782846Y-95492249D01*
X113682172Y-95547700D01*
X113608665Y-95597046D01*
X113559883Y-95642702D01*
X113533382Y-95687084D01*
X113526720Y-95732606D01*
X113537454Y-95781682D01*
X113542510Y-95794647D01*
X113566246Y-95839613D01*
X113592016Y-95872534D01*
X113593807Y-95874093D01*
X113619105Y-95883973D01*
X113671897Y-95896990D01*
X113746096Y-95911901D01*
X113835614Y-95927462D01*
X113913930Y-95939508D01*
X114028762Y-95956530D01*
X114113238Y-95970027D01*
X114170598Y-95980741D01*
X114204083Y-95989412D01*
X114216934Y-95996781D01*
X114212392Y-96003588D01*
X114206367Y-96006344D01*
X114186149Y-96017659D01*
X114143770Y-96043486D01*
X114085506Y-96079946D01*
X114020100Y-96121571D01*
X113953353Y-96163955D01*
X113897286Y-96198770D01*
X113857843Y-96222380D01*
X113841019Y-96231145D01*
X113824059Y-96220719D01*
X113795414Y-96193905D01*
X113791247Y-96189530D01*
X113754223Y-96158522D01*
X113692747Y-96116259D01*
X113612892Y-96066156D01*
X113520732Y-96011630D01*
X113422337Y-95956096D01*
X113323782Y-95902970D01*
X113231138Y-95855667D01*
X113150479Y-95817603D01*
X113087877Y-95792193D01*
X113080301Y-95789646D01*
X113029789Y-95771916D01*
X113010725Y-95757199D01*
X113022150Y-95738660D01*
X113063110Y-95709464D01*
X113068577Y-95705838D01*
X113192084Y-95604927D01*
X113298118Y-95479968D01*
X113380805Y-95338734D01*
X113419232Y-95241939D01*
X113441556Y-95184277D01*
X113467781Y-95130875D01*
X113471466Y-95124602D01*
X113489707Y-95087459D01*
X113494173Y-95062629D01*
X113493481Y-95061004D01*
X113493864Y-95039167D01*
X113502748Y-94994420D01*
X113518249Y-94936090D01*
X113519758Y-94930982D01*
X113537868Y-94857688D01*
X113541586Y-94830900D01*
X113046275Y-94830900D01*
X113045458Y-94911862D01*
X113041952Y-94968632D01*
X113033907Y-95010874D01*
X113019477Y-95048251D01*
X112996812Y-95090427D01*
X112996554Y-95090877D01*
X112933213Y-95178834D01*
X112845576Y-95268971D01*
X112741882Y-95354077D01*
X112630373Y-95426942D01*
X112584258Y-95451629D01*
X112502515Y-95490488D01*
X112444995Y-95512715D01*
X112407108Y-95519470D01*
X112384262Y-95511915D01*
X112377523Y-95503928D01*
X112379844Y-95481403D01*
X112395702Y-95435705D01*
X112422099Y-95373219D01*
X112456040Y-95300331D01*
X112494529Y-95223425D01*
X112534570Y-95148886D01*
X112573167Y-95083099D01*
X112574701Y-95080666D01*
X110184383Y-95080666D01*
X110173645Y-95127245D01*
X110145273Y-95188436D01*
X110105029Y-95254367D01*
X110058677Y-95315166D01*
X110029699Y-95345671D01*
X109971644Y-95392631D01*
X109907305Y-95432843D01*
X109847096Y-95460573D01*
X109803701Y-95470133D01*
X109767799Y-95462434D01*
X109719141Y-95443147D01*
X109701850Y-95434571D01*
X109644168Y-95398479D01*
X109587522Y-95354562D01*
X109577702Y-95345671D01*
X109530455Y-95292908D01*
X109485780Y-95228956D01*
X109449441Y-95163686D01*
X109427200Y-95106971D01*
X109423018Y-95080666D01*
X109433756Y-95034088D01*
X109462128Y-94972897D01*
X109502372Y-94906965D01*
X109548724Y-94846167D01*
X109577702Y-94815661D01*
X109635757Y-94768702D01*
X109700096Y-94728489D01*
X109760305Y-94700759D01*
X109803701Y-94691200D01*
X109850596Y-94702039D01*
X109911377Y-94730732D01*
X109975627Y-94771543D01*
X110029699Y-94815661D01*
X110076946Y-94868424D01*
X110121621Y-94932377D01*
X110157960Y-94997646D01*
X110180201Y-95054361D01*
X110184383Y-95080666D01*
X112574701Y-95080666D01*
X112580292Y-95071801D01*
X112633592Y-94997170D01*
X112698325Y-94919906D01*
X112769430Y-94844707D01*
X112841846Y-94776273D01*
X112910509Y-94719303D01*
X112970360Y-94678494D01*
X113016336Y-94658547D01*
X113026750Y-94657333D01*
X113036688Y-94670844D01*
X113043018Y-94712803D01*
X113045979Y-94785346D01*
X113046275Y-94830900D01*
X113541586Y-94830900D01*
X113548800Y-94778925D01*
X113553783Y-94683662D01*
X113554434Y-94619934D01*
X113555979Y-94536699D01*
X113560166Y-94461202D01*
X113566319Y-94402700D01*
X113572374Y-94373858D01*
X113579212Y-94307088D01*
X113557385Y-94243395D01*
X113511446Y-94192445D01*
X113478001Y-94173544D01*
X113439695Y-94160223D01*
X113403567Y-94156748D01*
X113356683Y-94163068D01*
X113312292Y-94172877D01*
X113234463Y-94188707D01*
X113150015Y-94202223D01*
X113105701Y-94207579D01*
X113034055Y-94217662D01*
X112962236Y-94232482D01*
X112927901Y-94241941D01*
X112865378Y-94261508D01*
X112792682Y-94283677D01*
X112758567Y-94293872D01*
X112687412Y-94320320D01*
X112613966Y-94355698D01*
X112585061Y-94372580D01*
X112505585Y-94433417D01*
X112419139Y-94516851D01*
X112332939Y-94614727D01*
X112254203Y-94718891D01*
X112193735Y-94814734D01*
X112139261Y-94904461D01*
X112092072Y-94964771D01*
X112049093Y-94998492D01*
X112007247Y-95008448D01*
X111986118Y-95005482D01*
X111955671Y-94989724D01*
X111909003Y-94956299D01*
X111854146Y-94911177D01*
X111828835Y-94888562D01*
X111764143Y-94833642D01*
X111693194Y-94783393D01*
X111607789Y-94732566D01*
X111499727Y-94675913D01*
X111485600Y-94668849D01*
X111405092Y-94629235D01*
X111335013Y-94595679D01*
X111281067Y-94570839D01*
X111248959Y-94557375D01*
X111243034Y-94555733D01*
X111223170Y-94562933D01*
X111178769Y-94582767D01*
X111115513Y-94612583D01*
X111039086Y-94649729D01*
X110999074Y-94669543D01*
X110886205Y-94728125D01*
X110797929Y-94779838D01*
X110726978Y-94829299D01*
X110666220Y-94880998D01*
X110561837Y-94978644D01*
X110553169Y-94870665D01*
X110527784Y-94741539D01*
X110475462Y-94619360D01*
X110400631Y-94511727D01*
X110307718Y-94426242D01*
X110285571Y-94411339D01*
X110238019Y-94386935D01*
X110171795Y-94359867D01*
X110101026Y-94335897D01*
X110099315Y-94335385D01*
X110033169Y-94317998D01*
X109945339Y-94298201D01*
X109843058Y-94277289D01*
X109733559Y-94256555D01*
X109624078Y-94237294D01*
X109521847Y-94220798D01*
X109434102Y-94208362D01*
X109368075Y-94201279D01*
X109343045Y-94200133D01*
X109285275Y-94196111D01*
X109221313Y-94185676D01*
X109161654Y-94171276D01*
X109116795Y-94155360D01*
X109098565Y-94143111D01*
X109078190Y-94140450D01*
X109039771Y-94151967D01*
X109022365Y-94159763D01*
X108960803Y-94204293D01*
X108920571Y-94263176D01*
X108905956Y-94328074D01*
X108913154Y-94372310D01*
X108919951Y-94408531D01*
X108925622Y-94470620D01*
X108929659Y-94550585D01*
X108931554Y-94640431D01*
X108931634Y-94662690D01*
X108932573Y-94767629D01*
X108936244Y-94849984D01*
X108943924Y-94921007D01*
X108956892Y-94991948D01*
X108976426Y-95074059D01*
X108979923Y-95087730D01*
X109001766Y-95173100D01*
X109022709Y-95255782D01*
X109039969Y-95324750D01*
X109048636Y-95360066D01*
X109081088Y-95452609D01*
X109131507Y-95547077D01*
X109193618Y-95634562D01*
X109261148Y-95706158D01*
X109324061Y-95751064D01*
X109357003Y-95771631D01*
X109371228Y-95787540D01*
X109371242Y-95788068D01*
X109356657Y-95800035D01*
X109317822Y-95822591D01*
X109261236Y-95852128D01*
X109214608Y-95874996D01*
X109044900Y-95959624D01*
X108905621Y-96036413D01*
X108797486Y-96104942D01*
X108721210Y-96164790D01*
X108717843Y-96167925D01*
X108664919Y-96217754D01*
X108472907Y-96097943D01*
X108403967Y-96054216D01*
X108348454Y-96017631D01*
X108311085Y-95991405D01*
X108296576Y-95978757D01*
X108297231Y-95978087D01*
X108318734Y-95975709D01*
X108367769Y-95969161D01*
X108438373Y-95959275D01*
X108524582Y-95946880D01*
X108589903Y-95937320D01*
X108702850Y-95919940D01*
X108787288Y-95904320D01*
X108848343Y-95888252D01*
X108891138Y-95869526D01*
X108920799Y-95845934D01*
X108942450Y-95815267D01*
X108960205Y-95777714D01*
X108975059Y-95727467D01*
X108973064Y-95681337D01*
X108951786Y-95636917D01*
X108908791Y-95591799D01*
X108841646Y-95543576D01*
X108747918Y-95489840D01*
X108625172Y-95428183D01*
X108589870Y-95411346D01*
X108311483Y-95297248D01*
X108027571Y-95216209D01*
X107735279Y-95167524D01*
X107540855Y-95152954D01*
X107310009Y-95143531D01*
X107409872Y-94898773D01*
X107557628Y-94550036D01*
X107706880Y-94224055D01*
X107856553Y-93922873D01*
X108005572Y-93648529D01*
X108152865Y-93403063D01*
X108297357Y-93188516D01*
X108342205Y-93127552D01*
X108420033Y-93031008D01*
X108507801Y-92933473D01*
X108599240Y-92841077D01*
X108688079Y-92759949D01*
X108768050Y-92696220D01*
X108814525Y-92665743D01*
X108881396Y-92627455D01*
X108951998Y-92587267D01*
X108987728Y-92567041D01*
X109055678Y-92521069D01*
X109099955Y-92469380D01*
X109124754Y-92403901D01*
X109134269Y-92316562D01*
X109134771Y-92284018D01*
X109134294Y-92218744D01*
X109131408Y-92180751D01*
X109124052Y-92163455D01*
X109110160Y-92160271D01*
X109096734Y-92162632D01*
X109088530Y-92159676D01*
X109106533Y-92142546D01*
X109147312Y-92113457D01*
X109207436Y-92074622D01*
X109283474Y-92028257D01*
X109371996Y-91976576D01*
X109469570Y-91921793D01*
X109471641Y-91920653D01*
X109574712Y-91866457D01*
X109699702Y-91804668D01*
X109837171Y-91739626D01*
X109977677Y-91675673D01*
X110111781Y-91617149D01*
X110230042Y-91568395D01*
X110277834Y-91549952D01*
X110343850Y-91525218D01*
X110425644Y-91494545D01*
X110507289Y-91463905D01*
X110520289Y-91459024D01*
X110586895Y-91435232D01*
X110643755Y-91417134D01*
X110681784Y-91407538D01*
X110689622Y-91406707D01*
X110710133Y-91420073D01*
X110745611Y-91456174D01*
X110792012Y-91509716D01*
X110845293Y-91575408D01*
X110901407Y-91647957D01*
X110956312Y-91722071D01*
X111005963Y-91792458D01*
X111046314Y-91853824D01*
X111073322Y-91900879D01*
X111081098Y-91918966D01*
X111116805Y-91982963D01*
X111169122Y-92023236D01*
X111230491Y-92039785D01*
X111293354Y-92032611D01*
X111350152Y-92001714D01*
X111393327Y-91947092D01*
X111404970Y-91918966D01*
X111422766Y-91882208D01*
X111456163Y-91828182D01*
X111501119Y-91762180D01*
X111553588Y-91689496D01*
X111609525Y-91615420D01*
X111664887Y-91545246D01*
X111715629Y-91484265D01*
X111757707Y-91437771D01*
X111787075Y-91411055D01*
X111796445Y-91406707D01*
X111824525Y-91412169D01*
X111875027Y-91427242D01*
X111938866Y-91449119D01*
X111965779Y-91459024D01*
X112045773Y-91489048D01*
X112128685Y-91520144D01*
X112198587Y-91546340D01*
X112208234Y-91549952D01*
X112315689Y-91592560D01*
X112443462Y-91646995D01*
X112582111Y-91708917D01*
X112722196Y-91773984D01*
X112854277Y-91837856D01*
X112968912Y-91896191D01*
X113014427Y-91920653D01*
X113112151Y-91975476D01*
X113200892Y-92027243D01*
X113277221Y-92073740D01*
X113337705Y-92112751D01*
X113378915Y-92142062D01*
X113397420Y-92159460D01*
X113389788Y-92162729D01*
X113389334Y-92162632D01*
X113370120Y-92160197D01*
X113358775Y-92167618D01*
X113353235Y-92191479D01*
X113351437Y-92238365D01*
X113351297Y-92284018D01*
X113356950Y-92379714D01*
X113376596Y-92451063D01*
X113414430Y-92506138D01*
X113474644Y-92553010D01*
X113498339Y-92567041D01*
X113561200Y-92602669D01*
X113632803Y-92643484D01*
X113671672Y-92665743D01*
X113738622Y-92711695D01*
X113819428Y-92778983D01*
X113907958Y-92861603D01*
X113998077Y-92953553D01*
X114083652Y-93048830D01*
X114158551Y-93141432D01*
X114160854Y-93144485D01*
X114304558Y-93349408D01*
X114451369Y-93585909D01*
X114600217Y-93851956D01*
X114750033Y-94145519D01*
X114899749Y-94464568D01*
X115048294Y-94807070D01*
X115093129Y-94915706D01*
X115192992Y-95160465D01*
X115553466Y-95160465D01*
X115406764Y-94790022D01*
X115251611Y-94425619D01*
X115095912Y-94086778D01*
X114940306Y-93774683D01*
X114785431Y-93490516D01*
X114631929Y-93235459D01*
X114480438Y-93010695D01*
X114331597Y-92817405D01*
X114209185Y-92680331D01*
X114090510Y-92557530D01*
X114250780Y-92410386D01*
X114135440Y-92299508D01*
X113954129Y-92136787D01*
X113757706Y-91983551D01*
X113541661Y-91836766D01*
X113301486Y-91693394D01*
X113032674Y-91550398D01*
X112995634Y-91531800D01*
X112769373Y-91423538D01*
X112532085Y-91318489D01*
X112292966Y-91220391D01*
X112061209Y-91132979D01*
X111846012Y-91059991D01*
X111797265Y-91044857D01*
X111657230Y-91002270D01*
X111457538Y-91259235D01*
X111394771Y-91339056D01*
X111338541Y-91408776D01*
X111292287Y-91464274D01*
X111259450Y-91501429D01*
X111243471Y-91516118D01*
X111243034Y-91516200D01*
X111228512Y-91503433D01*
X111196864Y-91467880D01*
X111151532Y-91413663D01*
X111095955Y-91344902D01*
X111033574Y-91265720D01*
X111028530Y-91259235D01*
X110828837Y-91002270D01*
X110688802Y-91044857D01*
X110479017Y-91113777D01*
X110250439Y-91198028D01*
X110012262Y-91293873D01*
X109773684Y-91397576D01*
X109543898Y-91505402D01*
X109490434Y-91531800D01*
X109228331Y-91668930D01*
X108994210Y-91805422D01*
X108782474Y-91945041D01*
X108587525Y-92091549D01*
X108403767Y-92248710D01*
X108349600Y-92298860D01*
X108233234Y-92408500D01*
X108395558Y-92557530D01*
X108276882Y-92680331D01*
X108130761Y-92846290D01*
X107981452Y-93044717D01*
X107829594Y-93274428D01*
X107675828Y-93534242D01*
X107520793Y-93822976D01*
X107365129Y-94139448D01*
X107209474Y-94482475D01*
X107054469Y-94850876D01*
X106925338Y-95178807D01*
X106887178Y-95279604D01*
X106853949Y-95369285D01*
X106827312Y-95443211D01*
X106808924Y-95496742D01*
X106800445Y-95525242D01*
X106800219Y-95528615D01*
X106818258Y-95529606D01*
X106864917Y-95528799D01*
X106935010Y-95526378D01*
X107023348Y-95522527D01*
X107124743Y-95517431D01*
X107144449Y-95516371D01*
X107330886Y-95508785D01*
X107492035Y-95508369D01*
X107635830Y-95515722D01*
X107770206Y-95531441D01*
X107903095Y-95556127D01*
X108009521Y-95581652D01*
X108092423Y-95603522D01*
X108146468Y-95618947D01*
X108175689Y-95629547D01*
X108184121Y-95636944D01*
X108175799Y-95642757D01*
X108167824Y-95645243D01*
X108141207Y-95652595D01*
X108091385Y-95666302D01*
X108027815Y-95683764D01*
X108008767Y-95688992D01*
X107950310Y-95708670D01*
X107877719Y-95738442D01*
X107797911Y-95774823D01*
X107717807Y-95814326D01*
X107644324Y-95853466D01*
X107584382Y-95888758D01*
X107544899Y-95916716D01*
X107534164Y-95928094D01*
X107540355Y-95946298D01*
X107568737Y-95969847D01*
X107575763Y-95974057D01*
X107627553Y-96003533D01*
X107627660Y-96234329D01*
X107627767Y-96465126D01*
X107479600Y-96390772D01*
X107340181Y-96328734D01*
X107204582Y-96286623D01*
X107058921Y-96260710D01*
X106960789Y-96251376D01*
X106809185Y-96240600D01*
X106978139Y-96057038D01*
X107177370Y-96072619D01*
X107255634Y-96078181D01*
X107320590Y-96081743D01*
X107365378Y-96083000D01*
X107383085Y-96081709D01*
X107380082Y-96071266D01*
X107373767Y-96071266D01*
X107365300Y-96079733D01*
X107356834Y-96071266D01*
X107365300Y-96062800D01*
X107373767Y-96071266D01*
X107380082Y-96071266D01*
X107378161Y-96064590D01*
X107356464Y-96027251D01*
X107322475Y-95975841D01*
X107280674Y-95916508D01*
X107235543Y-95855398D01*
X107191564Y-95798660D01*
X107153217Y-95752441D01*
X107124984Y-95722889D01*
X107117154Y-95716887D01*
X107071975Y-95700309D01*
X107013252Y-95691001D01*
X106993720Y-95690266D01*
X106899475Y-95694161D01*
X106787611Y-95704698D01*
X106671204Y-95720156D01*
X106563334Y-95738813D01*
X106481636Y-95757666D01*
X106424362Y-95772752D01*
X106381678Y-95782493D01*
X106362234Y-95784930D01*
X106361957Y-95784767D01*
X106363666Y-95766164D01*
X106374647Y-95720965D01*
X106393215Y-95654618D01*
X106417681Y-95572573D01*
X106446360Y-95480278D01*
X106477566Y-95383182D01*
X106509612Y-95286732D01*
X106540812Y-95196379D01*
X106563481Y-95133628D01*
X106663388Y-94874609D01*
X106769009Y-94620469D01*
X106878354Y-94375226D01*
X106989436Y-94142894D01*
X107100266Y-93927490D01*
X107208857Y-93733028D01*
X107313219Y-93563526D01*
X107408590Y-93426677D01*
X107454032Y-93374736D01*
X107515984Y-93314796D01*
X107582904Y-93257832D01*
X107600082Y-93244570D01*
X107691414Y-93166271D01*
X107749583Y-93093550D01*
X107774740Y-93025901D01*
X107767039Y-92962816D01*
X107726631Y-92903789D01*
X107707735Y-92886444D01*
X107663788Y-92856450D01*
X107619990Y-92847779D01*
X107586213Y-92850249D01*
X107533229Y-92858586D01*
X107489857Y-92868436D01*
X107483834Y-92870331D01*
X107483977Y-92863358D01*
X107505807Y-92836381D01*
X107546206Y-92792456D01*
X107602055Y-92734637D01*
X107670236Y-92665980D01*
X107747631Y-92589538D01*
X107831123Y-92508368D01*
X107917592Y-92425523D01*
X108003921Y-92344059D01*
X108086992Y-92267031D01*
X108163687Y-92197492D01*
X108230407Y-92138911D01*
X108574583Y-91856405D01*
X108911247Y-91606417D01*
X109241035Y-91388589D01*
X109564580Y-91202566D01*
X109882515Y-91047992D01*
X110195474Y-90924511D01*
X110504090Y-90831767D01*
X110595314Y-90810020D01*
X110649814Y-90798371D01*
X110700401Y-90789294D01*
X110752348Y-90782474D01*
X110810924Y-90777593D01*
X110881401Y-90774335D01*
X110969050Y-90772385D01*
X111079142Y-90771424D01*
X111216948Y-90771137D01*
X111243034Y-90771133D01*
X111385982Y-90771338D01*
X111500336Y-90772164D01*
X111591366Y-90773927D01*
X111664344Y-90776945D01*
X111724541Y-90781532D01*
X111777228Y-90788007D01*
X111827676Y-90796685D01*
X111881155Y-90807882D01*
X111890753Y-90810020D01*
X112197621Y-90893481D01*
X112508587Y-91007442D01*
X112824313Y-91152272D01*
X113145459Y-91328345D01*
X113472687Y-91536030D01*
X113806655Y-91775699D01*
X114148026Y-92047723D01*
X114255728Y-92138911D01*
X114322106Y-92197210D01*
X114398337Y-92266380D01*
X114481323Y-92343382D01*
X114567965Y-92425178D01*
X114655163Y-92508731D01*
X114739820Y-92591004D01*
X114818835Y-92668958D01*
X114889110Y-92739555D01*
X114947547Y-92799759D01*
X114991046Y-92846530D01*
X115016508Y-92876833D01*
X115020835Y-92887628D01*
X115019167Y-92887278D01*
X114980345Y-92877598D01*
X114927727Y-92868615D01*
X114916788Y-92867183D01*
X114863746Y-92866077D01*
X114822300Y-92882794D01*
X114795266Y-92903378D01*
X114744866Y-92962263D01*
X114727813Y-93025580D01*
X114743957Y-93092762D01*
X114793148Y-93163241D01*
X114875238Y-93236450D01*
X114884719Y-93243509D01*
X114945797Y-93291227D01*
X115003548Y-93341189D01*
X115046021Y-93383023D01*
X115047833Y-93385061D01*
X115123211Y-93480874D01*
X115206930Y-93605381D01*
X115297165Y-93754969D01*
X115392092Y-93926027D01*
X115489887Y-94114943D01*
X115588726Y-94318106D01*
X115686784Y-94531902D01*
X115782238Y-94752721D01*
X115873263Y-94976951D01*
X115939520Y-95150562D01*
X115968889Y-95232375D01*
X116000420Y-95324536D01*
X116032426Y-95421594D01*
X116063221Y-95518103D01*
X116091119Y-95608612D01*
X116114433Y-95687673D01*
X116131477Y-95749838D01*
X116140565Y-95789657D01*
X116141044Y-95801700D01*
X116477928Y-95801700D01*
X116474395Y-95766178D01*
X116459774Y-95686691D01*
X116436140Y-95590829D01*
X116426007Y-95553453D01*
X116359616Y-95332288D01*
X116277179Y-95090561D01*
X116181701Y-94835707D01*
X116076185Y-94575165D01*
X115963638Y-94316371D01*
X115847062Y-94066762D01*
X115737339Y-93848766D01*
X115697107Y-93770735D01*
X115664188Y-93704503D01*
X115641048Y-93655228D01*
X115630154Y-93628071D01*
X115630082Y-93624400D01*
X115649208Y-93633855D01*
X115681491Y-93656762D01*
X115683413Y-93658266D01*
X115747002Y-93689810D01*
X115812801Y-93688531D01*
X115876868Y-93654910D01*
X115901934Y-93631660D01*
X115935153Y-93591927D01*
X115954337Y-93554177D01*
X115958110Y-93514059D01*
X115945095Y-93467217D01*
X115913918Y-93409299D01*
X115863202Y-93335952D01*
X115791571Y-93242820D01*
X115770762Y-93216599D01*
X115619078Y-93033532D01*
X115445863Y-92837182D01*
X115257230Y-92633834D01*
X115059288Y-92429774D01*
X114858148Y-92231287D01*
X114659921Y-92044657D01*
X114470718Y-91876172D01*
X114451901Y-91860026D01*
X114094421Y-91568340D01*
X113743064Y-91309705D01*
X113397470Y-91083931D01*
X113057280Y-90890826D01*
X112722136Y-90730202D01*
X112391677Y-90601868D01*
X112065544Y-90505633D01*
X111782828Y-90447510D01*
X111664209Y-90432912D01*
X111521041Y-90422843D01*
X111362342Y-90417304D01*
X111197125Y-90416294D01*
X111034406Y-90419814D01*
X111034406Y-90419814D01*
G37*
X111034406Y-90419814D02*
X110883199Y-90427863D01*
X110752521Y-90440441D01*
X110703239Y-90447510D01*
X110383414Y-90514981D01*
X110059857Y-90613747D01*
X109732075Y-90744069D01*
X109399575Y-90906207D01*
X109061867Y-91100421D01*
X108718456Y-91326974D01*
X108368851Y-91586124D01*
X108034167Y-91859652D01*
X107851948Y-92020620D01*
X107659108Y-92201007D01*
X107461751Y-92394535D01*
X107265981Y-92594924D01*
X107077900Y-92795895D01*
X106903612Y-92991168D01*
X106749218Y-93174464D01*
X106715306Y-93216599D01*
X106638363Y-93315218D01*
X106582670Y-93392992D01*
X106546852Y-93454273D01*
X106529533Y-93503416D01*
X106529336Y-93544773D01*
X106544886Y-93582699D01*
X106574807Y-93621547D01*
X106584133Y-93631660D01*
X106646330Y-93678519D01*
X106711891Y-93693234D01*
X106776873Y-93675325D01*
X106802654Y-93658266D01*
X106835226Y-93634857D01*
X106855290Y-93624434D01*
X106855786Y-93624399D01*
X106851822Y-93638532D01*
X106834396Y-93677604D01*
X106805894Y-93736626D01*
X106768704Y-93810610D01*
X106740305Y-93865699D01*
X106690119Y-93964841D01*
X106634447Y-94079370D01*
X106576076Y-94203113D01*
X106517794Y-94329896D01*
X106462390Y-94453547D01*
X106412651Y-94567892D01*
X106371365Y-94666759D01*
X106341319Y-94743974D01*
X106333078Y-94767400D01*
X106316945Y-94814393D01*
X106292311Y-94884751D01*
X106262169Y-94969980D01*
X106229513Y-95061588D01*
X106219643Y-95089133D01*
X106152563Y-95282957D01*
X106100168Y-95450381D01*
X106061558Y-95595074D01*
X106035831Y-95720701D01*
X106022087Y-95830932D01*
X106019100Y-95905660D01*
X106022510Y-96008126D01*
X106034804Y-96082920D01*
X106059083Y-96135737D01*
X106098449Y-96172274D01*
X106156002Y-96198227D01*
X106182768Y-96206355D01*
X106220650Y-96205957D01*
X106280869Y-96192829D01*
X106355357Y-96169151D01*
X106430961Y-96139314D01*
X106431450Y-96148370D01*
X106414973Y-96181364D01*
X106383843Y-96234392D01*
X106340377Y-96303550D01*
X106286888Y-96384934D01*
X106273679Y-96404575D01*
X106201305Y-96513571D01*
X106148511Y-96597930D01*
X106114421Y-96660009D01*
X106098165Y-96702164D01*
X106098869Y-96726753D01*
X106115660Y-96736133D01*
X106147665Y-96732660D01*
X106152629Y-96731456D01*
X106200188Y-96720027D01*
X106271550Y-96703594D01*
X106357400Y-96684238D01*
X106448424Y-96664043D01*
X106535306Y-96645090D01*
X106608733Y-96629461D01*
X106611767Y-96628828D01*
X106758103Y-96609226D01*
X106910333Y-96608203D01*
X107059650Y-96624700D01*
X107197249Y-96657658D01*
X107314324Y-96706021D01*
X107330767Y-96715237D01*
X107386981Y-96755470D01*
X107450822Y-96812313D01*
X107514512Y-96877549D01*
X107570269Y-96942960D01*
X107610314Y-97000327D01*
X107621610Y-97022449D01*
X107635962Y-97074496D01*
X107644046Y-97138148D01*
X107644700Y-97158881D01*
X107644700Y-97240050D01*
X108931634Y-98676218D01*
X109127258Y-98894817D01*
X109309846Y-99099431D01*
X109478478Y-99289010D01*
X109632234Y-99462505D01*
X109770197Y-99618867D01*
X109891447Y-99757046D01*
X109995064Y-99875993D01*
X110080130Y-99974659D01*
X110145726Y-100051995D01*
X110190933Y-100106950D01*
X110214831Y-100138476D01*
X110218567Y-100145588D01*
X110227651Y-100184113D01*
X110245915Y-100220529D01*
X110273262Y-100262266D01*
X112212805Y-100262266D01*
X112240153Y-100220529D01*
X112260464Y-100178500D01*
X112267500Y-100145588D01*
X112278725Y-100128015D01*
X112311787Y-100086408D01*
X112365767Y-100021818D01*
X112439745Y-99935294D01*
X112532804Y-99827885D01*
X112644023Y-99700641D01*
X112772484Y-99554610D01*
X112917268Y-99390842D01*
X113077455Y-99210387D01*
X113252127Y-99014293D01*
X113440365Y-98803611D01*
X113554434Y-98676218D01*
X114841367Y-97240050D01*
X114841367Y-97158881D01*
X114847145Y-97086300D01*
X114852398Y-97069386D01*
X114502701Y-97069386D01*
X114496571Y-97084147D01*
X114477519Y-97112367D01*
X114444551Y-97155199D01*
X114396672Y-97213798D01*
X114332889Y-97289315D01*
X114252207Y-97382905D01*
X114153633Y-97495720D01*
X114036172Y-97628913D01*
X113898830Y-97783639D01*
X113740613Y-97961049D01*
X113561148Y-98161604D01*
X113417164Y-98322095D01*
X113279533Y-98475118D01*
X113149944Y-98618819D01*
X113030085Y-98751343D01*
X112921644Y-98870837D01*
X112826309Y-98975447D01*
X112745768Y-99063318D01*
X112681709Y-99132596D01*
X112635821Y-99181427D01*
X112609792Y-99207957D01*
X112604414Y-99212400D01*
X112591632Y-99198413D01*
X112589433Y-99182766D01*
X112591530Y-99160621D01*
X112597475Y-99108160D01*
X112606870Y-99028663D01*
X112619316Y-98925414D01*
X112634414Y-98801695D01*
X112651764Y-98660789D01*
X112670967Y-98505976D01*
X112691626Y-98340540D01*
X112698011Y-98289619D01*
X112755937Y-97828084D01*
X112412620Y-97828084D01*
X112410581Y-97849266D01*
X112407055Y-97874895D01*
X112399755Y-97931041D01*
X112389071Y-98014610D01*
X112375394Y-98122509D01*
X112359113Y-98251646D01*
X112340618Y-98398927D01*
X112320299Y-98561259D01*
X112298546Y-98735550D01*
X112276336Y-98913989D01*
X112253686Y-99095400D01*
X112232114Y-99266639D01*
X112212001Y-99424784D01*
X112193728Y-99566909D01*
X112177675Y-99690091D01*
X112164224Y-99791406D01*
X112153756Y-99867930D01*
X112146653Y-99916741D01*
X112143294Y-99934913D01*
X112143271Y-99934940D01*
X112125168Y-99937879D01*
X112078724Y-99942252D01*
X112009417Y-99947711D01*
X111922724Y-99953911D01*
X111824124Y-99960503D01*
X111719096Y-99967140D01*
X111613117Y-99973476D01*
X111511666Y-99979163D01*
X111420220Y-99983854D01*
X111344259Y-99987201D01*
X111293834Y-99988775D01*
X111248267Y-99988333D01*
X111175006Y-99986004D01*
X111080151Y-99982054D01*
X110969807Y-99976753D01*
X110850074Y-99970367D01*
X110770426Y-99965782D01*
X110654582Y-99958678D01*
X110550384Y-99951845D01*
X110462457Y-99945621D01*
X110395425Y-99940345D01*
X110353912Y-99936359D01*
X110342193Y-99934337D01*
X110339013Y-99916842D01*
X110332074Y-99868655D01*
X110321758Y-99792698D01*
X110308442Y-99691892D01*
X110292507Y-99569158D01*
X110274331Y-99427419D01*
X110254294Y-99269595D01*
X110244004Y-99187827D01*
X109893472Y-99187827D01*
X109892545Y-99202496D01*
X109890065Y-99209736D01*
X109886295Y-99212165D01*
X109881645Y-99212400D01*
X109868012Y-99200113D01*
X109833762Y-99164657D01*
X109780819Y-99108135D01*
X109711108Y-99032652D01*
X109626555Y-98940314D01*
X109529085Y-98833224D01*
X109420622Y-98713486D01*
X109303091Y-98583207D01*
X109178417Y-98444490D01*
X109134680Y-98395707D01*
X109007726Y-98253737D01*
X108887339Y-98118556D01*
X108775452Y-97992374D01*
X108674004Y-97877401D01*
X108584928Y-97775846D01*
X108510160Y-97689917D01*
X108451637Y-97621824D01*
X108411293Y-97573777D01*
X108391065Y-97547984D01*
X108389163Y-97544807D01*
X108373541Y-97521070D01*
X108339177Y-97477419D01*
X108290240Y-97418878D01*
X108230901Y-97350475D01*
X108187862Y-97302144D01*
X108112796Y-97216696D01*
X108056303Y-97148208D01*
X108019069Y-97097972D01*
X108001783Y-97067286D01*
X108005130Y-97057445D01*
X108029799Y-97069745D01*
X108076476Y-97105481D01*
X108089200Y-97116136D01*
X108245047Y-97247414D01*
X108388058Y-97366365D01*
X108516403Y-97471534D01*
X108628253Y-97561464D01*
X108721777Y-97634700D01*
X108795145Y-97689786D01*
X108846529Y-97725265D01*
X108872255Y-97739162D01*
X108922525Y-97748964D01*
X108971663Y-97739339D01*
X108990058Y-97732176D01*
X109023905Y-97714652D01*
X109050229Y-97690914D01*
X109070233Y-97656571D01*
X109085117Y-97607233D01*
X109096087Y-97538509D01*
X109104343Y-97446007D01*
X109111088Y-97325337D01*
X109112982Y-97283329D01*
X109126367Y-96975493D01*
X109346501Y-97152144D01*
X109424912Y-97215265D01*
X109498334Y-97274732D01*
X109560805Y-97325689D01*
X109606367Y-97363284D01*
X109623156Y-97377449D01*
X109679678Y-97426105D01*
X109788057Y-98289619D01*
X109813067Y-98488936D01*
X109834133Y-98657266D01*
X109851521Y-98797227D01*
X109865496Y-98911437D01*
X109876324Y-99002513D01*
X109884270Y-99073072D01*
X109889600Y-99125732D01*
X109892579Y-99163111D01*
X109893472Y-99187827D01*
X110244004Y-99187827D01*
X110232775Y-99098609D01*
X110210153Y-98917380D01*
X110209732Y-98913989D01*
X110186957Y-98731020D01*
X110165235Y-98556994D01*
X110144958Y-98395004D01*
X110126514Y-98248144D01*
X110110294Y-98119506D01*
X110096687Y-98012183D01*
X110086085Y-97929270D01*
X110078875Y-97873858D01*
X110075487Y-97849266D01*
X110073467Y-97827818D01*
X110079048Y-97821483D01*
X110096033Y-97832766D01*
X110128227Y-97864175D01*
X110178294Y-97916999D01*
X110235297Y-97979872D01*
X110303772Y-98058426D01*
X110374281Y-98141702D01*
X110426203Y-98204843D01*
X110563096Y-98374154D01*
X110482903Y-98385625D01*
X110399339Y-98406258D01*
X110342611Y-98442152D01*
X110307867Y-98496615D01*
X110303911Y-98507614D01*
X110293403Y-98559284D01*
X110302654Y-98607987D01*
X110309433Y-98625384D01*
X110331055Y-98666919D01*
X110359250Y-98695516D01*
X110400038Y-98713231D01*
X110459443Y-98722121D01*
X110543487Y-98724243D01*
X110596506Y-98723411D01*
X110694287Y-98723186D01*
X110762375Y-98728397D01*
X110804634Y-98739890D01*
X110824925Y-98758512D01*
X110828167Y-98774206D01*
X110812401Y-98780298D01*
X110769757Y-98785180D01*
X110707220Y-98788272D01*
X110649823Y-98789066D01*
X110539804Y-98791907D01*
X110458133Y-98801605D01*
X110399675Y-98819926D01*
X110359298Y-98848635D01*
X110331866Y-98889496D01*
X110327190Y-98899976D01*
X110311312Y-98952092D01*
X110314730Y-98998860D01*
X110320844Y-99019718D01*
X110335521Y-99057387D01*
X110354398Y-99085642D01*
X110382120Y-99105744D01*
X110423330Y-99118955D01*
X110482674Y-99126537D01*
X110564794Y-99129751D01*
X110674336Y-99129860D01*
X110724392Y-99129345D01*
X111025034Y-99125764D01*
X111045134Y-99169878D01*
X111059696Y-99204234D01*
X111065234Y-99221663D01*
X111049216Y-99224178D01*
X111004826Y-99226346D01*
X110937555Y-99228022D01*
X110852898Y-99229060D01*
X110776823Y-99229333D01*
X110650010Y-99230368D01*
X110552488Y-99234247D01*
X110479720Y-99242132D01*
X110427172Y-99255187D01*
X110390310Y-99274573D01*
X110364598Y-99301453D01*
X110345502Y-99336990D01*
X110344124Y-99340242D01*
X110328245Y-99392359D01*
X110331663Y-99439127D01*
X110337778Y-99459985D01*
X110345803Y-99484350D01*
X110354318Y-99504801D01*
X110366157Y-99521680D01*
X110384155Y-99535330D01*
X110411146Y-99546093D01*
X110449964Y-99554312D01*
X110503443Y-99560328D01*
X110574418Y-99564485D01*
X110665722Y-99567124D01*
X110780190Y-99568589D01*
X110920657Y-99569221D01*
X111089956Y-99569363D01*
X111243034Y-99569354D01*
X111436664Y-99569356D01*
X111599262Y-99569134D01*
X111733662Y-99568345D01*
X111842698Y-99566647D01*
X111929205Y-99563698D01*
X111996017Y-99559155D01*
X112045967Y-99552675D01*
X112081891Y-99543917D01*
X112106622Y-99532537D01*
X112122995Y-99518194D01*
X112133844Y-99500545D01*
X112142004Y-99479247D01*
X112148290Y-99459985D01*
X112158735Y-99409576D01*
X112150319Y-99362040D01*
X112141944Y-99340242D01*
X112123181Y-99303963D01*
X112098166Y-99276433D01*
X112062362Y-99256490D01*
X112011237Y-99242971D01*
X111940254Y-99234715D01*
X111844879Y-99230558D01*
X111720577Y-99229338D01*
X111709244Y-99229333D01*
X111614682Y-99228907D01*
X111533139Y-99227726D01*
X111470107Y-99225937D01*
X111431080Y-99223686D01*
X111420834Y-99221663D01*
X111427114Y-99202323D01*
X111440934Y-99169878D01*
X111461034Y-99125764D01*
X111761676Y-99129345D01*
X111882918Y-99130091D01*
X111974965Y-99128212D01*
X112042461Y-99122447D01*
X112090050Y-99111535D01*
X112122377Y-99094214D01*
X112144084Y-99069223D01*
X112159817Y-99035299D01*
X112165223Y-99019718D01*
X112175668Y-98969309D01*
X112167252Y-98921774D01*
X112158877Y-98899976D01*
X112133547Y-98856288D01*
X112096368Y-98825130D01*
X112042207Y-98804737D01*
X111965929Y-98793344D01*
X111862401Y-98789185D01*
X111836244Y-98789066D01*
X111763137Y-98787752D01*
X111704539Y-98784199D01*
X111667432Y-98778989D01*
X111657900Y-98774206D01*
X111666386Y-98750681D01*
X111694417Y-98734816D01*
X111745856Y-98725764D01*
X111824564Y-98722680D01*
X111889561Y-98723411D01*
X111988150Y-98723897D01*
X112059095Y-98718641D01*
X112108419Y-98705586D01*
X112142144Y-98682675D01*
X112166292Y-98647852D01*
X112176635Y-98625384D01*
X112192014Y-98573162D01*
X112187316Y-98524757D01*
X112182157Y-98507614D01*
X112150574Y-98449770D01*
X112097806Y-98411040D01*
X112019004Y-98388117D01*
X112003165Y-98385625D01*
X111922972Y-98374154D01*
X112059865Y-98204843D01*
X112125138Y-98125743D01*
X112195990Y-98042525D01*
X112262983Y-97966149D01*
X112307774Y-97916999D01*
X112358595Y-97863399D01*
X112390473Y-97832384D01*
X112407214Y-97821448D01*
X112412620Y-97828084D01*
X112755937Y-97828084D01*
X112806390Y-97426105D01*
X112862912Y-97377449D01*
X112895412Y-97350245D01*
X112948412Y-97306755D01*
X113015951Y-97251833D01*
X113092071Y-97190332D01*
X113139567Y-97152144D01*
X113359700Y-96975493D01*
X113373085Y-97283329D01*
X113379613Y-97413232D01*
X113387294Y-97513660D01*
X113397330Y-97589002D01*
X113410924Y-97643652D01*
X113429278Y-97681999D01*
X113453595Y-97708434D01*
X113485077Y-97727349D01*
X113496010Y-97732176D01*
X113548964Y-97748100D01*
X113596497Y-97744283D01*
X113614070Y-97739078D01*
X113640796Y-97723835D01*
X113689727Y-97689487D01*
X113757236Y-97638834D01*
X113839697Y-97574676D01*
X113933484Y-97499810D01*
X114034972Y-97417037D01*
X114086751Y-97374159D01*
X114202796Y-97277863D01*
X114295546Y-97201697D01*
X114367492Y-97143836D01*
X114421126Y-97102454D01*
X114458939Y-97075727D01*
X114483421Y-97061829D01*
X114497064Y-97058934D01*
X114502358Y-97065219D01*
X114502701Y-97069386D01*
X114852398Y-97069386D01*
X114867228Y-97021640D01*
X114905738Y-96956340D01*
X114966799Y-96881839D01*
X114983722Y-96863307D01*
X115074786Y-96775211D01*
X115165707Y-96711630D01*
X115268403Y-96665430D01*
X115360479Y-96637856D01*
X115460990Y-96616329D01*
X115559639Y-96604922D01*
X115662104Y-96604116D01*
X115774061Y-96614391D01*
X115901187Y-96636226D01*
X116049160Y-96670102D01*
X116194091Y-96708315D01*
X116280334Y-96731484D01*
X116354992Y-96750511D01*
X116412003Y-96763932D01*
X116445306Y-96770280D01*
X116451020Y-96770414D01*
X116445701Y-96755761D01*
X116423457Y-96717378D01*
X116386829Y-96659249D01*
X116338358Y-96585355D01*
X116280585Y-96499681D01*
X116248035Y-96452266D01*
X116185984Y-96361918D01*
X116131263Y-96281299D01*
X116086540Y-96214420D01*
X116054483Y-96165289D01*
X116037759Y-96137914D01*
X116035988Y-96133628D01*
X116052016Y-96137760D01*
X116089321Y-96153931D01*
X116130540Y-96174001D01*
X116228991Y-96211494D01*
X116316834Y-96219545D01*
X116390279Y-96198528D01*
X116431040Y-96168856D01*
X116458705Y-96127219D01*
X116475302Y-96067637D01*
X116482860Y-95984130D01*
X116483900Y-95922593D01*
X116481828Y-95840932D01*
X116477928Y-95801700D01*
X116141044Y-95801700D01*
X116123662Y-95799880D01*
X116082399Y-95790612D01*
X116025908Y-95775855D01*
X116021365Y-95774600D01*
X115933358Y-95754506D01*
X115824562Y-95736000D01*
X115708055Y-95720802D01*
X115596916Y-95710634D01*
X115509281Y-95707200D01*
X115450558Y-95713030D01*
X115398487Y-95727617D01*
X115385847Y-95733820D01*
X115358439Y-95758219D01*
X115318289Y-95804155D01*
X115271080Y-95864746D01*
X115228489Y-95924320D01*
X115116078Y-96088200D01*
X115507832Y-96057046D01*
X115601221Y-96157289D01*
X115694609Y-96257533D01*
X115542609Y-96268309D01*
X115456796Y-96276830D01*
X115367801Y-96289589D01*
X115292520Y-96304096D01*
X115281087Y-96306863D01*
X115207935Y-96329444D01*
X115123440Y-96361650D01*
X115038119Y-96398848D01*
X114962492Y-96436404D01*
X114907077Y-96469687D01*
X114900634Y-96474425D01*
X114887495Y-96483429D01*
X114878170Y-96483922D01*
X114871867Y-96471342D01*
X114867795Y-96441128D01*
X114866558Y-96416491D01*
X114519634Y-96416491D01*
X114519634Y-96618973D01*
X114460547Y-96638473D01*
X114431551Y-96654486D01*
X114381036Y-96689280D01*
X114313235Y-96739647D01*
X114232387Y-96802378D01*
X114142726Y-96874265D01*
X114067963Y-96935825D01*
X113977772Y-97010722D01*
X113896590Y-97077670D01*
X113827888Y-97133843D01*
X113775139Y-97176415D01*
X113741815Y-97202562D01*
X113731314Y-97209738D01*
X113729399Y-97192358D01*
X113726294Y-97147310D01*
X113722377Y-97080755D01*
X113718025Y-96998857D01*
X113716440Y-96967116D01*
X113704719Y-96728433D01*
X113913210Y-96592113D01*
X114008085Y-96530501D01*
X114107371Y-96466758D01*
X114205721Y-96404247D01*
X114247144Y-96378187D01*
X112944281Y-96378187D01*
X112842401Y-96370818D01*
X112746902Y-96373963D01*
X112632322Y-96393591D01*
X112507470Y-96426975D01*
X112381158Y-96471385D01*
X112262194Y-96524096D01*
X112159681Y-96582189D01*
X112009908Y-96684270D01*
X111890176Y-96775129D01*
X111799143Y-96856272D01*
X111735466Y-96929205D01*
X111697802Y-96995435D01*
X111684809Y-97056466D01*
X111692444Y-97106251D01*
X111716946Y-97153843D01*
X111750142Y-97189777D01*
X111752271Y-97191234D01*
X111792820Y-97217803D01*
X111716733Y-97321868D01*
X111654504Y-97410486D01*
X111582360Y-97518810D01*
X111506335Y-97637289D01*
X111432461Y-97756372D01*
X111366771Y-97866510D01*
X111318066Y-97952995D01*
X111243923Y-98090590D01*
X111146273Y-97914650D01*
X111093152Y-97821909D01*
X111031176Y-97718212D01*
X110970045Y-97619634D01*
X110940582Y-97573855D01*
X110888999Y-97496121D01*
X110835798Y-97417574D01*
X110788400Y-97349096D01*
X110762936Y-97313374D01*
X110693330Y-97217749D01*
X110733838Y-97191207D01*
X110778490Y-97143303D01*
X110800012Y-97079539D01*
X110795292Y-97011373D01*
X110788108Y-96991352D01*
X110761810Y-96941788D01*
X110725272Y-96894008D01*
X110673017Y-96842156D01*
X110599567Y-96780380D01*
X110565700Y-96753662D01*
X110533346Y-96729740D01*
X108783841Y-96729740D01*
X108773071Y-96881471D01*
X108768007Y-96963652D01*
X108764222Y-97045719D01*
X108762380Y-97112666D01*
X108762301Y-97124887D01*
X108762301Y-97216572D01*
X108711811Y-97180621D01*
X108679729Y-97153443D01*
X108665223Y-97132427D01*
X108665244Y-97129811D01*
X108654289Y-97113478D01*
X108620882Y-97080258D01*
X108569502Y-97033804D01*
X108504623Y-96977769D01*
X108430723Y-96915806D01*
X108352278Y-96851569D01*
X108273764Y-96788711D01*
X108199656Y-96730884D01*
X108134433Y-96681743D01*
X108082569Y-96644940D01*
X108048541Y-96624128D01*
X108042452Y-96621539D01*
X107983367Y-96602040D01*
X107983367Y-96417086D01*
X107984231Y-96342522D01*
X107986574Y-96282342D01*
X107990020Y-96243405D01*
X107993492Y-96232133D01*
X108012891Y-96241043D01*
X108056990Y-96266275D01*
X108122163Y-96305582D01*
X108204789Y-96356715D01*
X108301243Y-96417429D01*
X108407903Y-96485474D01*
X108521145Y-96558603D01*
X108548704Y-96576533D01*
X108783841Y-96729740D01*
X110533346Y-96729740D01*
X110413137Y-96640860D01*
X110277861Y-96554056D01*
X110157385Y-96491752D01*
X110080853Y-96462024D01*
X109960922Y-96423752D01*
X109866069Y-96396698D01*
X109789914Y-96379531D01*
X109726080Y-96370920D01*
X109668187Y-96369534D01*
X109643666Y-96370818D01*
X109541787Y-96378187D01*
X109580991Y-96327351D01*
X109633337Y-96282788D01*
X109710955Y-96246090D01*
X109805888Y-96218587D01*
X109910178Y-96201607D01*
X110015868Y-96196479D01*
X110114998Y-96204530D01*
X110194242Y-96224977D01*
X110242373Y-96240710D01*
X110278052Y-96241878D01*
X110319343Y-96228609D01*
X110325869Y-96225913D01*
X110351866Y-96213909D01*
X110372890Y-96199184D01*
X110391771Y-96176779D01*
X110411339Y-96141737D01*
X110434425Y-96089101D01*
X110463857Y-96013913D01*
X110496693Y-95926659D01*
X110575724Y-95747034D01*
X110670926Y-95584623D01*
X110777981Y-95446539D01*
X110806582Y-95416154D01*
X110901221Y-95319841D01*
X110930877Y-95373820D01*
X110985376Y-95477829D01*
X111022362Y-95560693D01*
X111044321Y-95628599D01*
X111052843Y-95677322D01*
X111071184Y-95761538D01*
X111107950Y-95819670D01*
X111165906Y-95855664D01*
X111181527Y-95860929D01*
X111242656Y-95872054D01*
X111300360Y-95862916D01*
X111309196Y-95860118D01*
X111370618Y-95826792D01*
X111410423Y-95772339D01*
X111431429Y-95692606D01*
X111433224Y-95677322D01*
X111444743Y-95617051D01*
X111469257Y-95546879D01*
X111509251Y-95460620D01*
X111555191Y-95373820D01*
X111584847Y-95319841D01*
X111679486Y-95416154D01*
X111788867Y-95546916D01*
X111887493Y-95703814D01*
X111971046Y-95879736D01*
X111989375Y-95926659D01*
X112026599Y-96025407D01*
X112055022Y-96097306D01*
X112077476Y-96147312D01*
X112096789Y-96180385D01*
X112115793Y-96201480D01*
X112137316Y-96215557D01*
X112160199Y-96225913D01*
X112203483Y-96240996D01*
X112238875Y-96241658D01*
X112284437Y-96227772D01*
X112291826Y-96224977D01*
X112377737Y-96203493D01*
X112477597Y-96196424D01*
X112583450Y-96202440D01*
X112687337Y-96220212D01*
X112781301Y-96248413D01*
X112857384Y-96285714D01*
X112905077Y-96327351D01*
X112944281Y-96378187D01*
X114247144Y-96378187D01*
X114297785Y-96346329D01*
X114378216Y-96296367D01*
X114441665Y-96257722D01*
X114482784Y-96233757D01*
X114486234Y-96231883D01*
X114500317Y-96225833D01*
X114509757Y-96228988D01*
X114515481Y-96246474D01*
X114518417Y-96283416D01*
X114519491Y-96344938D01*
X114519634Y-96416491D01*
X114866558Y-96416491D01*
X114865162Y-96388717D01*
X114863176Y-96309549D01*
X114862058Y-96252122D01*
X114861223Y-96146480D01*
X114863115Y-96067296D01*
X114867616Y-96017020D01*
X114874531Y-95998123D01*
X114899639Y-95983892D01*
X114928449Y-95962648D01*
X114943862Y-95948833D01*
X114948069Y-95936588D01*
X114937079Y-95921894D01*
X114906902Y-95900730D01*
X114853547Y-95869078D01*
X114811722Y-95845082D01*
X114676769Y-95773762D01*
X114552712Y-95722027D01*
X114427016Y-95685008D01*
X114365033Y-95671549D01*
X114316745Y-95661034D01*
X114290517Y-95651452D01*
X114288408Y-95641146D01*
X114312481Y-95628454D01*
X114364795Y-95611719D01*
X114447411Y-95589282D01*
X114476710Y-95581633D01*
X114613806Y-95549631D01*
X114746316Y-95527057D01*
X114882168Y-95513313D01*
X115029289Y-95507799D01*
X115195606Y-95509919D01*
X115341619Y-95516371D01*
X115444855Y-95521676D01*
X115535990Y-95525770D01*
X115609836Y-95528469D01*
X115661206Y-95529587D01*
X115684911Y-95528941D01*
X115685849Y-95528615D01*
X115681917Y-95511730D01*
X115667394Y-95467910D01*
X115643942Y-95401792D01*
X115613217Y-95318016D01*
X115576880Y-95221219D01*
X115560729Y-95178807D01*
X115553466Y-95160465D01*
X115192992Y-95160465D01*
X114962146Y-95169887D01*
X114662931Y-95198064D01*
X114373937Y-95258142D01*
X114092311Y-95350824D01*
X113913131Y-95428280D01*
X113782846Y-95492249D01*
X113682172Y-95547700D01*
X113608665Y-95597046D01*
X113559883Y-95642702D01*
X113533382Y-95687084D01*
X113526720Y-95732606D01*
X113537454Y-95781682D01*
X113542510Y-95794647D01*
X113566246Y-95839613D01*
X113592016Y-95872534D01*
X113593807Y-95874093D01*
X113619105Y-95883973D01*
X113671897Y-95896990D01*
X113746096Y-95911901D01*
X113835614Y-95927462D01*
X113913930Y-95939508D01*
X114028762Y-95956530D01*
X114113238Y-95970027D01*
X114170598Y-95980741D01*
X114204083Y-95989412D01*
X114216934Y-95996781D01*
X114212392Y-96003588D01*
X114206367Y-96006344D01*
X114186149Y-96017659D01*
X114143770Y-96043486D01*
X114085506Y-96079946D01*
X114020100Y-96121571D01*
X113953353Y-96163955D01*
X113897286Y-96198770D01*
X113857843Y-96222380D01*
X113841019Y-96231145D01*
X113824059Y-96220719D01*
X113795414Y-96193905D01*
X113791247Y-96189530D01*
X113754223Y-96158522D01*
X113692747Y-96116259D01*
X113612892Y-96066156D01*
X113520732Y-96011630D01*
X113422337Y-95956096D01*
X113323782Y-95902970D01*
X113231138Y-95855667D01*
X113150479Y-95817603D01*
X113087877Y-95792193D01*
X113080301Y-95789646D01*
X113029789Y-95771916D01*
X113010725Y-95757199D01*
X113022150Y-95738660D01*
X113063110Y-95709464D01*
X113068577Y-95705838D01*
X113192084Y-95604927D01*
X113298118Y-95479968D01*
X113380805Y-95338734D01*
X113419232Y-95241939D01*
X113441556Y-95184277D01*
X113467781Y-95130875D01*
X113471466Y-95124602D01*
X113489707Y-95087459D01*
X113494173Y-95062629D01*
X113493481Y-95061004D01*
X113493864Y-95039167D01*
X113502748Y-94994420D01*
X113518249Y-94936090D01*
X113519758Y-94930982D01*
X113537868Y-94857688D01*
X113541586Y-94830900D01*
X113046275Y-94830900D01*
X113045458Y-94911862D01*
X113041952Y-94968632D01*
X113033907Y-95010874D01*
X113019477Y-95048251D01*
X112996812Y-95090427D01*
X112996554Y-95090877D01*
X112933213Y-95178834D01*
X112845576Y-95268971D01*
X112741882Y-95354077D01*
X112630373Y-95426942D01*
X112584258Y-95451629D01*
X112502515Y-95490488D01*
X112444995Y-95512715D01*
X112407108Y-95519470D01*
X112384262Y-95511915D01*
X112377523Y-95503928D01*
X112379844Y-95481403D01*
X112395702Y-95435705D01*
X112422099Y-95373219D01*
X112456040Y-95300331D01*
X112494529Y-95223425D01*
X112534570Y-95148886D01*
X112573167Y-95083099D01*
X112574701Y-95080666D01*
X110184383Y-95080666D01*
X110173645Y-95127245D01*
X110145273Y-95188436D01*
X110105029Y-95254367D01*
X110058677Y-95315166D01*
X110029699Y-95345671D01*
X109971644Y-95392631D01*
X109907305Y-95432843D01*
X109847096Y-95460573D01*
X109803701Y-95470133D01*
X109767799Y-95462434D01*
X109719141Y-95443147D01*
X109701850Y-95434571D01*
X109644168Y-95398479D01*
X109587522Y-95354562D01*
X109577702Y-95345671D01*
X109530455Y-95292908D01*
X109485780Y-95228956D01*
X109449441Y-95163686D01*
X109427200Y-95106971D01*
X109423018Y-95080666D01*
X109433756Y-95034088D01*
X109462128Y-94972897D01*
X109502372Y-94906965D01*
X109548724Y-94846167D01*
X109577702Y-94815661D01*
X109635757Y-94768702D01*
X109700096Y-94728489D01*
X109760305Y-94700759D01*
X109803701Y-94691200D01*
X109850596Y-94702039D01*
X109911377Y-94730732D01*
X109975627Y-94771543D01*
X110029699Y-94815661D01*
X110076946Y-94868424D01*
X110121621Y-94932377D01*
X110157960Y-94997646D01*
X110180201Y-95054361D01*
X110184383Y-95080666D01*
X112574701Y-95080666D01*
X112580292Y-95071801D01*
X112633592Y-94997170D01*
X112698325Y-94919906D01*
X112769430Y-94844707D01*
X112841846Y-94776273D01*
X112910509Y-94719303D01*
X112970360Y-94678494D01*
X113016336Y-94658547D01*
X113026750Y-94657333D01*
X113036688Y-94670844D01*
X113043018Y-94712803D01*
X113045979Y-94785346D01*
X113046275Y-94830900D01*
X113541586Y-94830900D01*
X113548800Y-94778925D01*
X113553783Y-94683662D01*
X113554434Y-94619934D01*
X113555979Y-94536699D01*
X113560166Y-94461202D01*
X113566319Y-94402700D01*
X113572374Y-94373858D01*
X113579212Y-94307088D01*
X113557385Y-94243395D01*
X113511446Y-94192445D01*
X113478001Y-94173544D01*
X113439695Y-94160223D01*
X113403567Y-94156748D01*
X113356683Y-94163068D01*
X113312292Y-94172877D01*
X113234463Y-94188707D01*
X113150015Y-94202223D01*
X113105701Y-94207579D01*
X113034055Y-94217662D01*
X112962236Y-94232482D01*
X112927901Y-94241941D01*
X112865378Y-94261508D01*
X112792682Y-94283677D01*
X112758567Y-94293872D01*
X112687412Y-94320320D01*
X112613966Y-94355698D01*
X112585061Y-94372580D01*
X112505585Y-94433417D01*
X112419139Y-94516851D01*
X112332939Y-94614727D01*
X112254203Y-94718891D01*
X112193735Y-94814734D01*
X112139261Y-94904461D01*
X112092072Y-94964771D01*
X112049093Y-94998492D01*
X112007247Y-95008448D01*
X111986118Y-95005482D01*
X111955671Y-94989724D01*
X111909003Y-94956299D01*
X111854146Y-94911177D01*
X111828835Y-94888562D01*
X111764143Y-94833642D01*
X111693194Y-94783393D01*
X111607789Y-94732566D01*
X111499727Y-94675913D01*
X111485600Y-94668849D01*
X111405092Y-94629235D01*
X111335013Y-94595679D01*
X111281067Y-94570839D01*
X111248959Y-94557375D01*
X111243034Y-94555733D01*
X111223170Y-94562933D01*
X111178769Y-94582767D01*
X111115513Y-94612583D01*
X111039086Y-94649729D01*
X110999074Y-94669543D01*
X110886205Y-94728125D01*
X110797929Y-94779838D01*
X110726978Y-94829299D01*
X110666220Y-94880998D01*
X110561837Y-94978644D01*
X110553169Y-94870665D01*
X110527784Y-94741539D01*
X110475462Y-94619360D01*
X110400631Y-94511727D01*
X110307718Y-94426242D01*
X110285571Y-94411339D01*
X110238019Y-94386935D01*
X110171795Y-94359867D01*
X110101026Y-94335897D01*
X110099315Y-94335385D01*
X110033169Y-94317998D01*
X109945339Y-94298201D01*
X109843058Y-94277289D01*
X109733559Y-94256555D01*
X109624078Y-94237294D01*
X109521847Y-94220798D01*
X109434102Y-94208362D01*
X109368075Y-94201279D01*
X109343045Y-94200133D01*
X109285275Y-94196111D01*
X109221313Y-94185676D01*
X109161654Y-94171276D01*
X109116795Y-94155360D01*
X109098565Y-94143111D01*
X109078190Y-94140450D01*
X109039771Y-94151967D01*
X109022365Y-94159763D01*
X108960803Y-94204293D01*
X108920571Y-94263176D01*
X108905956Y-94328074D01*
X108913154Y-94372310D01*
X108919951Y-94408531D01*
X108925622Y-94470620D01*
X108929659Y-94550585D01*
X108931554Y-94640431D01*
X108931634Y-94662690D01*
X108932573Y-94767629D01*
X108936244Y-94849984D01*
X108943924Y-94921007D01*
X108956892Y-94991948D01*
X108976426Y-95074059D01*
X108979923Y-95087730D01*
X109001766Y-95173100D01*
X109022709Y-95255782D01*
X109039969Y-95324750D01*
X109048636Y-95360066D01*
X109081088Y-95452609D01*
X109131507Y-95547077D01*
X109193618Y-95634562D01*
X109261148Y-95706158D01*
X109324061Y-95751064D01*
X109357003Y-95771631D01*
X109371228Y-95787540D01*
X109371242Y-95788068D01*
X109356657Y-95800035D01*
X109317822Y-95822591D01*
X109261236Y-95852128D01*
X109214608Y-95874996D01*
X109044900Y-95959624D01*
X108905621Y-96036413D01*
X108797486Y-96104942D01*
X108721210Y-96164790D01*
X108717843Y-96167925D01*
X108664919Y-96217754D01*
X108472907Y-96097943D01*
X108403967Y-96054216D01*
X108348454Y-96017631D01*
X108311085Y-95991405D01*
X108296576Y-95978757D01*
X108297231Y-95978087D01*
X108318734Y-95975709D01*
X108367769Y-95969161D01*
X108438373Y-95959275D01*
X108524582Y-95946880D01*
X108589903Y-95937320D01*
X108702850Y-95919940D01*
X108787288Y-95904320D01*
X108848343Y-95888252D01*
X108891138Y-95869526D01*
X108920799Y-95845934D01*
X108942450Y-95815267D01*
X108960205Y-95777714D01*
X108975059Y-95727467D01*
X108973064Y-95681337D01*
X108951786Y-95636917D01*
X108908791Y-95591799D01*
X108841646Y-95543576D01*
X108747918Y-95489840D01*
X108625172Y-95428183D01*
X108589870Y-95411346D01*
X108311483Y-95297248D01*
X108027571Y-95216209D01*
X107735279Y-95167524D01*
X107540855Y-95152954D01*
X107310009Y-95143531D01*
X107409872Y-94898773D01*
X107557628Y-94550036D01*
X107706880Y-94224055D01*
X107856553Y-93922873D01*
X108005572Y-93648529D01*
X108152865Y-93403063D01*
X108297357Y-93188516D01*
X108342205Y-93127552D01*
X108420033Y-93031008D01*
X108507801Y-92933473D01*
X108599240Y-92841077D01*
X108688079Y-92759949D01*
X108768050Y-92696220D01*
X108814525Y-92665743D01*
X108881396Y-92627455D01*
X108951998Y-92587267D01*
X108987728Y-92567041D01*
X109055678Y-92521069D01*
X109099955Y-92469380D01*
X109124754Y-92403901D01*
X109134269Y-92316562D01*
X109134771Y-92284018D01*
X109134294Y-92218744D01*
X109131408Y-92180751D01*
X109124052Y-92163455D01*
X109110160Y-92160271D01*
X109096734Y-92162632D01*
X109088530Y-92159676D01*
X109106533Y-92142546D01*
X109147312Y-92113457D01*
X109207436Y-92074622D01*
X109283474Y-92028257D01*
X109371996Y-91976576D01*
X109469570Y-91921793D01*
X109471641Y-91920653D01*
X109574712Y-91866457D01*
X109699702Y-91804668D01*
X109837171Y-91739626D01*
X109977677Y-91675673D01*
X110111781Y-91617149D01*
X110230042Y-91568395D01*
X110277834Y-91549952D01*
X110343850Y-91525218D01*
X110425644Y-91494545D01*
X110507289Y-91463905D01*
X110520289Y-91459024D01*
X110586895Y-91435232D01*
X110643755Y-91417134D01*
X110681784Y-91407538D01*
X110689622Y-91406707D01*
X110710133Y-91420073D01*
X110745611Y-91456174D01*
X110792012Y-91509716D01*
X110845293Y-91575408D01*
X110901407Y-91647957D01*
X110956312Y-91722071D01*
X111005963Y-91792458D01*
X111046314Y-91853824D01*
X111073322Y-91900879D01*
X111081098Y-91918966D01*
X111116805Y-91982963D01*
X111169122Y-92023236D01*
X111230491Y-92039785D01*
X111293354Y-92032611D01*
X111350152Y-92001714D01*
X111393327Y-91947092D01*
X111404970Y-91918966D01*
X111422766Y-91882208D01*
X111456163Y-91828182D01*
X111501119Y-91762180D01*
X111553588Y-91689496D01*
X111609525Y-91615420D01*
X111664887Y-91545246D01*
X111715629Y-91484265D01*
X111757707Y-91437771D01*
X111787075Y-91411055D01*
X111796445Y-91406707D01*
X111824525Y-91412169D01*
X111875027Y-91427242D01*
X111938866Y-91449119D01*
X111965779Y-91459024D01*
X112045773Y-91489048D01*
X112128685Y-91520144D01*
X112198587Y-91546340D01*
X112208234Y-91549952D01*
X112315689Y-91592560D01*
X112443462Y-91646995D01*
X112582111Y-91708917D01*
X112722196Y-91773984D01*
X112854277Y-91837856D01*
X112968912Y-91896191D01*
X113014427Y-91920653D01*
X113112151Y-91975476D01*
X113200892Y-92027243D01*
X113277221Y-92073740D01*
X113337705Y-92112751D01*
X113378915Y-92142062D01*
X113397420Y-92159460D01*
X113389788Y-92162729D01*
X113389334Y-92162632D01*
X113370120Y-92160197D01*
X113358775Y-92167618D01*
X113353235Y-92191479D01*
X113351437Y-92238365D01*
X113351297Y-92284018D01*
X113356950Y-92379714D01*
X113376596Y-92451063D01*
X113414430Y-92506138D01*
X113474644Y-92553010D01*
X113498339Y-92567041D01*
X113561200Y-92602669D01*
X113632803Y-92643484D01*
X113671672Y-92665743D01*
X113738622Y-92711695D01*
X113819428Y-92778983D01*
X113907958Y-92861603D01*
X113998077Y-92953553D01*
X114083652Y-93048830D01*
X114158551Y-93141432D01*
X114160854Y-93144485D01*
X114304558Y-93349408D01*
X114451369Y-93585909D01*
X114600217Y-93851956D01*
X114750033Y-94145519D01*
X114899749Y-94464568D01*
X115048294Y-94807070D01*
X115093129Y-94915706D01*
X115192992Y-95160465D01*
X115553466Y-95160465D01*
X115406764Y-94790022D01*
X115251611Y-94425619D01*
X115095912Y-94086778D01*
X114940306Y-93774683D01*
X114785431Y-93490516D01*
X114631929Y-93235459D01*
X114480438Y-93010695D01*
X114331597Y-92817405D01*
X114209185Y-92680331D01*
X114090510Y-92557530D01*
X114250780Y-92410386D01*
X114135440Y-92299508D01*
X113954129Y-92136787D01*
X113757706Y-91983551D01*
X113541661Y-91836766D01*
X113301486Y-91693394D01*
X113032674Y-91550398D01*
X112995634Y-91531800D01*
X112769373Y-91423538D01*
X112532085Y-91318489D01*
X112292966Y-91220391D01*
X112061209Y-91132979D01*
X111846012Y-91059991D01*
X111797265Y-91044857D01*
X111657230Y-91002270D01*
X111457538Y-91259235D01*
X111394771Y-91339056D01*
X111338541Y-91408776D01*
X111292287Y-91464274D01*
X111259450Y-91501429D01*
X111243471Y-91516118D01*
X111243034Y-91516200D01*
X111228512Y-91503433D01*
X111196864Y-91467880D01*
X111151532Y-91413663D01*
X111095955Y-91344902D01*
X111033574Y-91265720D01*
X111028530Y-91259235D01*
X110828837Y-91002270D01*
X110688802Y-91044857D01*
X110479017Y-91113777D01*
X110250439Y-91198028D01*
X110012262Y-91293873D01*
X109773684Y-91397576D01*
X109543898Y-91505402D01*
X109490434Y-91531800D01*
X109228331Y-91668930D01*
X108994210Y-91805422D01*
X108782474Y-91945041D01*
X108587525Y-92091549D01*
X108403767Y-92248710D01*
X108349600Y-92298860D01*
X108233234Y-92408500D01*
X108395558Y-92557530D01*
X108276882Y-92680331D01*
X108130761Y-92846290D01*
X107981452Y-93044717D01*
X107829594Y-93274428D01*
X107675828Y-93534242D01*
X107520793Y-93822976D01*
X107365129Y-94139448D01*
X107209474Y-94482475D01*
X107054469Y-94850876D01*
X106925338Y-95178807D01*
X106887178Y-95279604D01*
X106853949Y-95369285D01*
X106827312Y-95443211D01*
X106808924Y-95496742D01*
X106800445Y-95525242D01*
X106800219Y-95528615D01*
X106818258Y-95529606D01*
X106864917Y-95528799D01*
X106935010Y-95526378D01*
X107023348Y-95522527D01*
X107124743Y-95517431D01*
X107144449Y-95516371D01*
X107330886Y-95508785D01*
X107492035Y-95508369D01*
X107635830Y-95515722D01*
X107770206Y-95531441D01*
X107903095Y-95556127D01*
X108009521Y-95581652D01*
X108092423Y-95603522D01*
X108146468Y-95618947D01*
X108175689Y-95629547D01*
X108184121Y-95636944D01*
X108175799Y-95642757D01*
X108167824Y-95645243D01*
X108141207Y-95652595D01*
X108091385Y-95666302D01*
X108027815Y-95683764D01*
X108008767Y-95688992D01*
X107950310Y-95708670D01*
X107877719Y-95738442D01*
X107797911Y-95774823D01*
X107717807Y-95814326D01*
X107644324Y-95853466D01*
X107584382Y-95888758D01*
X107544899Y-95916716D01*
X107534164Y-95928094D01*
X107540355Y-95946298D01*
X107568737Y-95969847D01*
X107575763Y-95974057D01*
X107627553Y-96003533D01*
X107627660Y-96234329D01*
X107627767Y-96465126D01*
X107479600Y-96390772D01*
X107340181Y-96328734D01*
X107204582Y-96286623D01*
X107058921Y-96260710D01*
X106960789Y-96251376D01*
X106809185Y-96240600D01*
X106978139Y-96057038D01*
X107177370Y-96072619D01*
X107255634Y-96078181D01*
X107320590Y-96081743D01*
X107365378Y-96083000D01*
X107383085Y-96081709D01*
X107380082Y-96071266D01*
X107373767Y-96071266D01*
X107365300Y-96079733D01*
X107356834Y-96071266D01*
X107365300Y-96062800D01*
X107373767Y-96071266D01*
X107380082Y-96071266D01*
X107378161Y-96064590D01*
X107356464Y-96027251D01*
X107322475Y-95975841D01*
X107280674Y-95916508D01*
X107235543Y-95855398D01*
X107191564Y-95798660D01*
X107153217Y-95752441D01*
X107124984Y-95722889D01*
X107117154Y-95716887D01*
X107071975Y-95700309D01*
X107013252Y-95691001D01*
X106993720Y-95690266D01*
X106899475Y-95694161D01*
X106787611Y-95704698D01*
X106671204Y-95720156D01*
X106563334Y-95738813D01*
X106481636Y-95757666D01*
X106424362Y-95772752D01*
X106381678Y-95782493D01*
X106362234Y-95784930D01*
X106361957Y-95784767D01*
X106363666Y-95766164D01*
X106374647Y-95720965D01*
X106393215Y-95654618D01*
X106417681Y-95572573D01*
X106446360Y-95480278D01*
X106477566Y-95383182D01*
X106509612Y-95286732D01*
X106540812Y-95196379D01*
X106563481Y-95133628D01*
X106663388Y-94874609D01*
X106769009Y-94620469D01*
X106878354Y-94375226D01*
X106989436Y-94142894D01*
X107100266Y-93927490D01*
X107208857Y-93733028D01*
X107313219Y-93563526D01*
X107408590Y-93426677D01*
X107454032Y-93374736D01*
X107515984Y-93314796D01*
X107582904Y-93257832D01*
X107600082Y-93244570D01*
X107691414Y-93166271D01*
X107749583Y-93093550D01*
X107774740Y-93025901D01*
X107767039Y-92962816D01*
X107726631Y-92903789D01*
X107707735Y-92886444D01*
X107663788Y-92856450D01*
X107619990Y-92847779D01*
X107586213Y-92850249D01*
X107533229Y-92858586D01*
X107489857Y-92868436D01*
X107483834Y-92870331D01*
X107483977Y-92863358D01*
X107505807Y-92836381D01*
X107546206Y-92792456D01*
X107602055Y-92734637D01*
X107670236Y-92665980D01*
X107747631Y-92589538D01*
X107831123Y-92508368D01*
X107917592Y-92425523D01*
X108003921Y-92344059D01*
X108086992Y-92267031D01*
X108163687Y-92197492D01*
X108230407Y-92138911D01*
X108574583Y-91856405D01*
X108911247Y-91606417D01*
X109241035Y-91388589D01*
X109564580Y-91202566D01*
X109882515Y-91047992D01*
X110195474Y-90924511D01*
X110504090Y-90831767D01*
X110595314Y-90810020D01*
X110649814Y-90798371D01*
X110700401Y-90789294D01*
X110752348Y-90782474D01*
X110810924Y-90777593D01*
X110881401Y-90774335D01*
X110969050Y-90772385D01*
X111079142Y-90771424D01*
X111216948Y-90771137D01*
X111243034Y-90771133D01*
X111385982Y-90771338D01*
X111500336Y-90772164D01*
X111591366Y-90773927D01*
X111664344Y-90776945D01*
X111724541Y-90781532D01*
X111777228Y-90788007D01*
X111827676Y-90796685D01*
X111881155Y-90807882D01*
X111890753Y-90810020D01*
X112197621Y-90893481D01*
X112508587Y-91007442D01*
X112824313Y-91152272D01*
X113145459Y-91328345D01*
X113472687Y-91536030D01*
X113806655Y-91775699D01*
X114148026Y-92047723D01*
X114255728Y-92138911D01*
X114322106Y-92197210D01*
X114398337Y-92266380D01*
X114481323Y-92343382D01*
X114567965Y-92425178D01*
X114655163Y-92508731D01*
X114739820Y-92591004D01*
X114818835Y-92668958D01*
X114889110Y-92739555D01*
X114947547Y-92799759D01*
X114991046Y-92846530D01*
X115016508Y-92876833D01*
X115020835Y-92887628D01*
X115019167Y-92887278D01*
X114980345Y-92877598D01*
X114927727Y-92868615D01*
X114916788Y-92867183D01*
X114863746Y-92866077D01*
X114822300Y-92882794D01*
X114795266Y-92903378D01*
X114744866Y-92962263D01*
X114727813Y-93025580D01*
X114743957Y-93092762D01*
X114793148Y-93163241D01*
X114875238Y-93236450D01*
X114884719Y-93243509D01*
X114945797Y-93291227D01*
X115003548Y-93341189D01*
X115046021Y-93383023D01*
X115047833Y-93385061D01*
X115123211Y-93480874D01*
X115206930Y-93605381D01*
X115297165Y-93754969D01*
X115392092Y-93926027D01*
X115489887Y-94114943D01*
X115588726Y-94318106D01*
X115686784Y-94531902D01*
X115782238Y-94752721D01*
X115873263Y-94976951D01*
X115939520Y-95150562D01*
X115968889Y-95232375D01*
X116000420Y-95324536D01*
X116032426Y-95421594D01*
X116063221Y-95518103D01*
X116091119Y-95608612D01*
X116114433Y-95687673D01*
X116131477Y-95749838D01*
X116140565Y-95789657D01*
X116141044Y-95801700D01*
X116477928Y-95801700D01*
X116474395Y-95766178D01*
X116459774Y-95686691D01*
X116436140Y-95590829D01*
X116426007Y-95553453D01*
X116359616Y-95332288D01*
X116277179Y-95090561D01*
X116181701Y-94835707D01*
X116076185Y-94575165D01*
X115963638Y-94316371D01*
X115847062Y-94066762D01*
X115737339Y-93848766D01*
X115697107Y-93770735D01*
X115664188Y-93704503D01*
X115641048Y-93655228D01*
X115630154Y-93628071D01*
X115630082Y-93624400D01*
X115649208Y-93633855D01*
X115681491Y-93656762D01*
X115683413Y-93658266D01*
X115747002Y-93689810D01*
X115812801Y-93688531D01*
X115876868Y-93654910D01*
X115901934Y-93631660D01*
X115935153Y-93591927D01*
X115954337Y-93554177D01*
X115958110Y-93514059D01*
X115945095Y-93467217D01*
X115913918Y-93409299D01*
X115863202Y-93335952D01*
X115791571Y-93242820D01*
X115770762Y-93216599D01*
X115619078Y-93033532D01*
X115445863Y-92837182D01*
X115257230Y-92633834D01*
X115059288Y-92429774D01*
X114858148Y-92231287D01*
X114659921Y-92044657D01*
X114470718Y-91876172D01*
X114451901Y-91860026D01*
X114094421Y-91568340D01*
X113743064Y-91309705D01*
X113397470Y-91083931D01*
X113057280Y-90890826D01*
X112722136Y-90730202D01*
X112391677Y-90601868D01*
X112065544Y-90505633D01*
X111782828Y-90447510D01*
X111664209Y-90432912D01*
X111521041Y-90422843D01*
X111362342Y-90417304D01*
X111197125Y-90416294D01*
X111034406Y-90419814D01*
D10*
X132694000Y-71631564D02*
X132694000Y-70427436D01*
X134514000Y-71631564D02*
X134514000Y-70427436D01*
X130154000Y-71631564D02*
X130154000Y-70427436D01*
X131974000Y-71631564D02*
X131974000Y-70427436D01*
D11*
X135781142Y-70862833D02*
X135828761Y-70815214D01*
X135876380Y-70672357D01*
X135876380Y-70577119D01*
X135828761Y-70434261D01*
X135733523Y-70339023D01*
X135638285Y-70291404D01*
X135447809Y-70243785D01*
X135304952Y-70243785D01*
X135114476Y-70291404D01*
X135019238Y-70339023D01*
X134924000Y-70434261D01*
X134876380Y-70577119D01*
X134876380Y-70672357D01*
X134924000Y-70815214D01*
X134971619Y-70862833D01*
X135876380Y-71815214D02*
X135876380Y-71243785D01*
X135876380Y-71529500D02*
X134876380Y-71529500D01*
X135019238Y-71434261D01*
X135114476Y-71339023D01*
X135162095Y-71243785D01*
X129643142Y-70826333D02*
X129690761Y-70778714D01*
X129738380Y-70635857D01*
X129738380Y-70540619D01*
X129690761Y-70397761D01*
X129595523Y-70302523D01*
X129500285Y-70254904D01*
X129309809Y-70207285D01*
X129166952Y-70207285D01*
X128976476Y-70254904D01*
X128881238Y-70302523D01*
X128786000Y-70397761D01*
X128738380Y-70540619D01*
X128738380Y-70635857D01*
X128786000Y-70778714D01*
X128833619Y-70826333D01*
X128738380Y-71445380D02*
X128738380Y-71540619D01*
X128786000Y-71635857D01*
X128833619Y-71683476D01*
X128928857Y-71731095D01*
X129119333Y-71778714D01*
X129357428Y-71778714D01*
X129547904Y-71731095D01*
X129643142Y-71683476D01*
X129690761Y-71635857D01*
X129738380Y-71540619D01*
X129738380Y-71445380D01*
X129690761Y-71350142D01*
X129643142Y-71302523D01*
X129547904Y-71254904D01*
X129357428Y-71207285D01*
X129119333Y-71207285D01*
X128928857Y-71254904D01*
X128833619Y-71302523D01*
X128786000Y-71350142D01*
X128738380Y-71445380D01*
M02*
