G04 #@! TF.GenerationSoftware,KiCad,Pcbnew,(5.1.4)-1*
G04 #@! TF.CreationDate,2020-11-13T20:24:30+01:00*
G04 #@! TF.ProjectId,Shield BR,53686965-6c64-4204-9252-2e6b69636164,rev?*
G04 #@! TF.SameCoordinates,Original*
G04 #@! TF.FileFunction,Paste,Bot*
G04 #@! TF.FilePolarity,Positive*
%FSLAX46Y46*%
G04 Gerber Fmt 4.6, Leading zero omitted, Abs format (unit mm)*
G04 Created by KiCad (PCBNEW (5.1.4)-1) date 2020-11-13 20:24:30*
%MOMM*%
%LPD*%
G04 APERTURE LIST*
%ADD10C,0.100000*%
%ADD11C,1.425000*%
G04 APERTURE END LIST*
D10*
G36*
X134253504Y-68830704D02*
G01*
X134277773Y-68834304D01*
X134301571Y-68840265D01*
X134324671Y-68848530D01*
X134346849Y-68859020D01*
X134367893Y-68871633D01*
X134387598Y-68886247D01*
X134405777Y-68902723D01*
X134422253Y-68920902D01*
X134436867Y-68940607D01*
X134449480Y-68961651D01*
X134459970Y-68983829D01*
X134468235Y-69006929D01*
X134474196Y-69030727D01*
X134477796Y-69054996D01*
X134479000Y-69079500D01*
X134479000Y-70004500D01*
X134477796Y-70029004D01*
X134474196Y-70053273D01*
X134468235Y-70077071D01*
X134459970Y-70100171D01*
X134449480Y-70122349D01*
X134436867Y-70143393D01*
X134422253Y-70163098D01*
X134405777Y-70181277D01*
X134387598Y-70197753D01*
X134367893Y-70212367D01*
X134346849Y-70224980D01*
X134324671Y-70235470D01*
X134301571Y-70243735D01*
X134277773Y-70249696D01*
X134253504Y-70253296D01*
X134229000Y-70254500D01*
X132979000Y-70254500D01*
X132954496Y-70253296D01*
X132930227Y-70249696D01*
X132906429Y-70243735D01*
X132883329Y-70235470D01*
X132861151Y-70224980D01*
X132840107Y-70212367D01*
X132820402Y-70197753D01*
X132802223Y-70181277D01*
X132785747Y-70163098D01*
X132771133Y-70143393D01*
X132758520Y-70122349D01*
X132748030Y-70100171D01*
X132739765Y-70077071D01*
X132733804Y-70053273D01*
X132730204Y-70029004D01*
X132729000Y-70004500D01*
X132729000Y-69079500D01*
X132730204Y-69054996D01*
X132733804Y-69030727D01*
X132739765Y-69006929D01*
X132748030Y-68983829D01*
X132758520Y-68961651D01*
X132771133Y-68940607D01*
X132785747Y-68920902D01*
X132802223Y-68902723D01*
X132820402Y-68886247D01*
X132840107Y-68871633D01*
X132861151Y-68859020D01*
X132883329Y-68848530D01*
X132906429Y-68840265D01*
X132930227Y-68834304D01*
X132954496Y-68830704D01*
X132979000Y-68829500D01*
X134229000Y-68829500D01*
X134253504Y-68830704D01*
X134253504Y-68830704D01*
G37*
D11*
X133604000Y-69542000D03*
D10*
G36*
X134253504Y-71805704D02*
G01*
X134277773Y-71809304D01*
X134301571Y-71815265D01*
X134324671Y-71823530D01*
X134346849Y-71834020D01*
X134367893Y-71846633D01*
X134387598Y-71861247D01*
X134405777Y-71877723D01*
X134422253Y-71895902D01*
X134436867Y-71915607D01*
X134449480Y-71936651D01*
X134459970Y-71958829D01*
X134468235Y-71981929D01*
X134474196Y-72005727D01*
X134477796Y-72029996D01*
X134479000Y-72054500D01*
X134479000Y-72979500D01*
X134477796Y-73004004D01*
X134474196Y-73028273D01*
X134468235Y-73052071D01*
X134459970Y-73075171D01*
X134449480Y-73097349D01*
X134436867Y-73118393D01*
X134422253Y-73138098D01*
X134405777Y-73156277D01*
X134387598Y-73172753D01*
X134367893Y-73187367D01*
X134346849Y-73199980D01*
X134324671Y-73210470D01*
X134301571Y-73218735D01*
X134277773Y-73224696D01*
X134253504Y-73228296D01*
X134229000Y-73229500D01*
X132979000Y-73229500D01*
X132954496Y-73228296D01*
X132930227Y-73224696D01*
X132906429Y-73218735D01*
X132883329Y-73210470D01*
X132861151Y-73199980D01*
X132840107Y-73187367D01*
X132820402Y-73172753D01*
X132802223Y-73156277D01*
X132785747Y-73138098D01*
X132771133Y-73118393D01*
X132758520Y-73097349D01*
X132748030Y-73075171D01*
X132739765Y-73052071D01*
X132733804Y-73028273D01*
X132730204Y-73004004D01*
X132729000Y-72979500D01*
X132729000Y-72054500D01*
X132730204Y-72029996D01*
X132733804Y-72005727D01*
X132739765Y-71981929D01*
X132748030Y-71958829D01*
X132758520Y-71936651D01*
X132771133Y-71915607D01*
X132785747Y-71895902D01*
X132802223Y-71877723D01*
X132820402Y-71861247D01*
X132840107Y-71846633D01*
X132861151Y-71834020D01*
X132883329Y-71823530D01*
X132906429Y-71815265D01*
X132930227Y-71809304D01*
X132954496Y-71805704D01*
X132979000Y-71804500D01*
X134229000Y-71804500D01*
X134253504Y-71805704D01*
X134253504Y-71805704D01*
G37*
D11*
X133604000Y-72517000D03*
D10*
G36*
X131713504Y-68830704D02*
G01*
X131737773Y-68834304D01*
X131761571Y-68840265D01*
X131784671Y-68848530D01*
X131806849Y-68859020D01*
X131827893Y-68871633D01*
X131847598Y-68886247D01*
X131865777Y-68902723D01*
X131882253Y-68920902D01*
X131896867Y-68940607D01*
X131909480Y-68961651D01*
X131919970Y-68983829D01*
X131928235Y-69006929D01*
X131934196Y-69030727D01*
X131937796Y-69054996D01*
X131939000Y-69079500D01*
X131939000Y-70004500D01*
X131937796Y-70029004D01*
X131934196Y-70053273D01*
X131928235Y-70077071D01*
X131919970Y-70100171D01*
X131909480Y-70122349D01*
X131896867Y-70143393D01*
X131882253Y-70163098D01*
X131865777Y-70181277D01*
X131847598Y-70197753D01*
X131827893Y-70212367D01*
X131806849Y-70224980D01*
X131784671Y-70235470D01*
X131761571Y-70243735D01*
X131737773Y-70249696D01*
X131713504Y-70253296D01*
X131689000Y-70254500D01*
X130439000Y-70254500D01*
X130414496Y-70253296D01*
X130390227Y-70249696D01*
X130366429Y-70243735D01*
X130343329Y-70235470D01*
X130321151Y-70224980D01*
X130300107Y-70212367D01*
X130280402Y-70197753D01*
X130262223Y-70181277D01*
X130245747Y-70163098D01*
X130231133Y-70143393D01*
X130218520Y-70122349D01*
X130208030Y-70100171D01*
X130199765Y-70077071D01*
X130193804Y-70053273D01*
X130190204Y-70029004D01*
X130189000Y-70004500D01*
X130189000Y-69079500D01*
X130190204Y-69054996D01*
X130193804Y-69030727D01*
X130199765Y-69006929D01*
X130208030Y-68983829D01*
X130218520Y-68961651D01*
X130231133Y-68940607D01*
X130245747Y-68920902D01*
X130262223Y-68902723D01*
X130280402Y-68886247D01*
X130300107Y-68871633D01*
X130321151Y-68859020D01*
X130343329Y-68848530D01*
X130366429Y-68840265D01*
X130390227Y-68834304D01*
X130414496Y-68830704D01*
X130439000Y-68829500D01*
X131689000Y-68829500D01*
X131713504Y-68830704D01*
X131713504Y-68830704D01*
G37*
D11*
X131064000Y-69542000D03*
D10*
G36*
X131713504Y-71805704D02*
G01*
X131737773Y-71809304D01*
X131761571Y-71815265D01*
X131784671Y-71823530D01*
X131806849Y-71834020D01*
X131827893Y-71846633D01*
X131847598Y-71861247D01*
X131865777Y-71877723D01*
X131882253Y-71895902D01*
X131896867Y-71915607D01*
X131909480Y-71936651D01*
X131919970Y-71958829D01*
X131928235Y-71981929D01*
X131934196Y-72005727D01*
X131937796Y-72029996D01*
X131939000Y-72054500D01*
X131939000Y-72979500D01*
X131937796Y-73004004D01*
X131934196Y-73028273D01*
X131928235Y-73052071D01*
X131919970Y-73075171D01*
X131909480Y-73097349D01*
X131896867Y-73118393D01*
X131882253Y-73138098D01*
X131865777Y-73156277D01*
X131847598Y-73172753D01*
X131827893Y-73187367D01*
X131806849Y-73199980D01*
X131784671Y-73210470D01*
X131761571Y-73218735D01*
X131737773Y-73224696D01*
X131713504Y-73228296D01*
X131689000Y-73229500D01*
X130439000Y-73229500D01*
X130414496Y-73228296D01*
X130390227Y-73224696D01*
X130366429Y-73218735D01*
X130343329Y-73210470D01*
X130321151Y-73199980D01*
X130300107Y-73187367D01*
X130280402Y-73172753D01*
X130262223Y-73156277D01*
X130245747Y-73138098D01*
X130231133Y-73118393D01*
X130218520Y-73097349D01*
X130208030Y-73075171D01*
X130199765Y-73052071D01*
X130193804Y-73028273D01*
X130190204Y-73004004D01*
X130189000Y-72979500D01*
X130189000Y-72054500D01*
X130190204Y-72029996D01*
X130193804Y-72005727D01*
X130199765Y-71981929D01*
X130208030Y-71958829D01*
X130218520Y-71936651D01*
X130231133Y-71915607D01*
X130245747Y-71895902D01*
X130262223Y-71877723D01*
X130280402Y-71861247D01*
X130300107Y-71846633D01*
X130321151Y-71834020D01*
X130343329Y-71823530D01*
X130366429Y-71815265D01*
X130390227Y-71809304D01*
X130414496Y-71805704D01*
X130439000Y-71804500D01*
X131689000Y-71804500D01*
X131713504Y-71805704D01*
X131713504Y-71805704D01*
G37*
D11*
X131064000Y-72517000D03*
M02*
