M48
; DRILL file {KiCad (6.0.0)} date Fri May 13 11:53:07 2022
; FORMAT={-:-/ absolute / inch / decimal}
; #@! TF.CreationDate,2022-05-13T11:53:07+02:00
; #@! TF.GenerationSoftware,Kicad,Pcbnew,(6.0.0)
; #@! TF.FileFunction,Plated,1,2,PTH
FMAT,2
INCH
; #@! TA.AperFunction,Plated,PTH,ViaDrill
T1C0.0315
; #@! TA.AperFunction,Plated,PTH,ComponentDrill
T2C0.0315
; #@! TA.AperFunction,Plated,PTH,ComponentDrill
T3C0.0394
%
G90
G05
T1
X5.6969Y-2.9213
X5.79Y-2.6
X5.82Y-3.865
X6.21Y-4.74
X6.2598Y-3.3898
X6.43Y-3.65
X6.5276Y-3.0866
X6.5551Y-2.8937
X6.68Y-5.29
X6.72Y-4.05
X6.89Y-3.0
X6.92Y-3.59
X7.23Y-4.57
X7.5906Y-4.82
X7.6339Y-2.8346
X7.88Y-4.91
X7.8976Y-2.8346
X7.92Y-3.97
T2
X5.775Y-4.5622
X5.775Y-4.7
X5.7953Y-2.9941
X5.7953Y-3.4941
X6.0185Y-3.2157
X6.0185Y-3.5157
X6.1185Y-3.2157
X6.1185Y-3.5157
X6.2185Y-3.2157
X6.2185Y-3.5157
X6.3185Y-3.2157
X6.3185Y-3.5157
X6.39Y-4.85
X6.79Y-4.85
X7.075Y-2.75
X7.1308Y-5.025
X7.1308Y-5.085
X7.1308Y-5.145
X7.33Y-5.08
X7.39Y-4.45
X7.39Y-4.85
X7.475Y-2.75
X7.73Y-5.08
T3
X5.7456Y-4.9989
X5.7456Y-5.0777
X5.746Y-4.0551
X5.746Y-4.1551
X5.746Y-4.2551
X5.746Y-4.3551
X6.0Y-4.78
X6.0Y-5.28
X6.0405Y-2.9723
X6.0492Y-3.8555
X6.0492Y-3.9555
X6.0492Y-4.0555
X6.0492Y-4.1555
X6.0492Y-4.2555
X6.0492Y-4.3555
X6.0492Y-4.4555
X6.0492Y-4.5555
X6.1193Y-2.9723
X6.1878Y-5.03
X6.1878Y-5.13
X6.1878Y-5.23
X6.198Y-2.9723
X6.2756Y-2.5984
X6.2767Y-2.9723
X6.3543Y-2.5984
X6.3555Y-2.9723
X6.4331Y-2.5984
X6.5492Y-3.8555
X6.5492Y-3.9555
X6.5492Y-4.0555
X6.5492Y-4.1555
X6.5492Y-4.2555
X6.5492Y-4.3555
X6.5492Y-4.4555
X6.5492Y-4.5555
X6.89Y-2.74
X6.89Y-2.84
X7.0634Y-3.2339
X7.0634Y-3.3339
X7.0634Y-3.4339
X7.0634Y-3.5339
X7.0634Y-3.6339
X7.0634Y-3.7339
X7.0634Y-3.8339
X7.0634Y-3.9339
X7.0634Y-4.0339
X7.0634Y-4.1339
X7.0634Y-4.2339
X7.0634Y-4.3339
X7.0634Y-4.4339
X7.0634Y-4.5339
X7.0634Y-4.6339
X7.6634Y-3.2339
X7.6634Y-3.3339
X7.6634Y-3.4339
X7.6634Y-3.5339
X7.6634Y-3.6339
X7.6634Y-3.7339
X7.6634Y-3.8339
X7.6634Y-3.9339
X7.6634Y-4.0339
X7.6634Y-4.1339
X7.6634Y-4.2339
X7.6634Y-4.3339
X7.6634Y-4.4339
X7.6634Y-4.5339
X7.6634Y-4.6339
T0
M30
