%TF.GenerationSoftware,KiCad,Pcbnew,(6.0.0)*%
%TF.CreationDate,2022-05-13T11:53:07+02:00*%
%TF.ProjectId,Carte Actionneur petit robot JLC PCB,43617274-6520-4416-9374-696f6e6e6575,rev?*%
%TF.SameCoordinates,Original*%
%TF.FileFunction,Legend,Bot*%
%TF.FilePolarity,Positive*%
%FSLAX46Y46*%
G04 Gerber Fmt 4.6, Leading zero omitted, Abs format (unit mm)*
G04 Created by KiCad (PCBNEW (6.0.0)) date 2022-05-13 11:53:07*
%MOMM*%
%LPD*%
G01*
G04 APERTURE LIST*
G04 Aperture macros list*
%AMRoundRect*
0 Rectangle with rounded corners*
0 $1 Rounding radius*
0 $2 $3 $4 $5 $6 $7 $8 $9 X,Y pos of 4 corners*
0 Add a 4 corners polygon primitive as box body*
4,1,4,$2,$3,$4,$5,$6,$7,$8,$9,$2,$3,0*
0 Add four circle primitives for the rounded corners*
1,1,$1+$1,$2,$3*
1,1,$1+$1,$4,$5*
1,1,$1+$1,$6,$7*
1,1,$1+$1,$8,$9*
0 Add four rect primitives between the rounded corners*
20,1,$1+$1,$2,$3,$4,$5,0*
20,1,$1+$1,$4,$5,$6,$7,0*
20,1,$1+$1,$6,$7,$8,$9,0*
20,1,$1+$1,$8,$9,$2,$3,0*%
G04 Aperture macros list end*
%ADD10C,0.150000*%
%ADD11C,0.120000*%
%ADD12R,2.000000X2.000000*%
%ADD13O,2.000000X2.000000*%
%ADD14R,1.800000X1.800000*%
%ADD15O,1.800000X1.800000*%
%ADD16RoundRect,0.312500X-0.687500X0.437500X-0.687500X-0.437500X0.687500X-0.437500X0.687500X0.437500X0*%
%ADD17O,2.000000X1.500000*%
%ADD18RoundRect,0.312500X-0.437500X-0.687500X0.437500X-0.687500X0.437500X0.687500X-0.437500X0.687500X0*%
%ADD19O,1.500000X2.000000*%
%ADD20R,1.600000X1.600000*%
%ADD21O,1.600000X1.600000*%
%ADD22C,1.900000*%
%ADD23O,3.500000X3.500000*%
%ADD24C,1.600000*%
%ADD25C,2.000000*%
%ADD26R,2.000000X1.524000*%
%ADD27R,3.000000X1.050000*%
%ADD28O,3.000000X1.050000*%
%ADD29C,3.200000*%
%ADD30O,1.900000X1.900000*%
%ADD31RoundRect,0.250000X0.325000X0.650000X-0.325000X0.650000X-0.325000X-0.650000X0.325000X-0.650000X0*%
G04 APERTURE END LIST*
D10*
X164650714Y-132504761D02*
X164507857Y-132552380D01*
X164269761Y-132552380D01*
X164174523Y-132504761D01*
X164126904Y-132457142D01*
X164079285Y-132361904D01*
X164079285Y-132266666D01*
X164126904Y-132171428D01*
X164174523Y-132123809D01*
X164269761Y-132076190D01*
X164460238Y-132028571D01*
X164555476Y-131980952D01*
X164603095Y-131933333D01*
X164650714Y-131838095D01*
X164650714Y-131742857D01*
X164603095Y-131647619D01*
X164555476Y-131600000D01*
X164460238Y-131552380D01*
X164222142Y-131552380D01*
X164079285Y-131600000D01*
X163460238Y-131552380D02*
X163269761Y-131552380D01*
X163174523Y-131600000D01*
X163079285Y-131695238D01*
X163031666Y-131885714D01*
X163031666Y-132219047D01*
X163079285Y-132409523D01*
X163174523Y-132504761D01*
X163269761Y-132552380D01*
X163460238Y-132552380D01*
X163555476Y-132504761D01*
X163650714Y-132409523D01*
X163698333Y-132219047D01*
X163698333Y-131885714D01*
X163650714Y-131695238D01*
X163555476Y-131600000D01*
X163460238Y-131552380D01*
X162603095Y-131552380D02*
X162603095Y-132361904D01*
X162555476Y-132457142D01*
X162507857Y-132504761D01*
X162412619Y-132552380D01*
X162222142Y-132552380D01*
X162126904Y-132504761D01*
X162079285Y-132457142D01*
X162031666Y-132361904D01*
X162031666Y-131552380D01*
X160984047Y-132552380D02*
X161317380Y-132076190D01*
X161555476Y-132552380D02*
X161555476Y-131552380D01*
X161174523Y-131552380D01*
X161079285Y-131600000D01*
X161031666Y-131647619D01*
X160984047Y-131742857D01*
X160984047Y-131885714D01*
X161031666Y-131980952D01*
X161079285Y-132028571D01*
X161174523Y-132076190D01*
X161555476Y-132076190D01*
X159984047Y-132457142D02*
X160031666Y-132504761D01*
X160174523Y-132552380D01*
X160269761Y-132552380D01*
X160412619Y-132504761D01*
X160507857Y-132409523D01*
X160555476Y-132314285D01*
X160603095Y-132123809D01*
X160603095Y-131980952D01*
X160555476Y-131790476D01*
X160507857Y-131695238D01*
X160412619Y-131600000D01*
X160269761Y-131552380D01*
X160174523Y-131552380D01*
X160031666Y-131600000D01*
X159984047Y-131647619D01*
X159555476Y-132028571D02*
X159222142Y-132028571D01*
X159079285Y-132552380D02*
X159555476Y-132552380D01*
X159555476Y-131552380D01*
X159079285Y-131552380D01*
X158503333Y-124610761D02*
X158360476Y-124658380D01*
X158122380Y-124658380D01*
X158027142Y-124610761D01*
X157979523Y-124563142D01*
X157931904Y-124467904D01*
X157931904Y-124372666D01*
X157979523Y-124277428D01*
X158027142Y-124229809D01*
X158122380Y-124182190D01*
X158312857Y-124134571D01*
X158408095Y-124086952D01*
X158455714Y-124039333D01*
X158503333Y-123944095D01*
X158503333Y-123848857D01*
X158455714Y-123753619D01*
X158408095Y-123706000D01*
X158312857Y-123658380D01*
X158074761Y-123658380D01*
X157931904Y-123706000D01*
X157360476Y-124658380D02*
X157455714Y-124610761D01*
X157503333Y-124563142D01*
X157550952Y-124467904D01*
X157550952Y-124182190D01*
X157503333Y-124086952D01*
X157455714Y-124039333D01*
X157360476Y-123991714D01*
X157217619Y-123991714D01*
X157122380Y-124039333D01*
X157074761Y-124086952D01*
X157027142Y-124182190D01*
X157027142Y-124467904D01*
X157074761Y-124563142D01*
X157122380Y-124610761D01*
X157217619Y-124658380D01*
X157360476Y-124658380D01*
X156598571Y-124658380D02*
X156598571Y-123991714D01*
X156598571Y-124182190D02*
X156550952Y-124086952D01*
X156503333Y-124039333D01*
X156408095Y-123991714D01*
X156312857Y-123991714D01*
X156122380Y-123991714D02*
X155741428Y-123991714D01*
X155979523Y-123658380D02*
X155979523Y-124515523D01*
X155931904Y-124610761D01*
X155836666Y-124658380D01*
X155741428Y-124658380D01*
X155408095Y-124658380D02*
X155408095Y-123991714D01*
X155408095Y-123658380D02*
X155455714Y-123706000D01*
X155408095Y-123753619D01*
X155360476Y-123706000D01*
X155408095Y-123658380D01*
X155408095Y-123753619D01*
X154550952Y-124610761D02*
X154646190Y-124658380D01*
X154836666Y-124658380D01*
X154931904Y-124610761D01*
X154979523Y-124515523D01*
X154979523Y-124134571D01*
X154931904Y-124039333D01*
X154836666Y-123991714D01*
X154646190Y-123991714D01*
X154550952Y-124039333D01*
X154503333Y-124134571D01*
X154503333Y-124229809D01*
X154979523Y-124325047D01*
X153312857Y-123991714D02*
X153312857Y-124991714D01*
X153312857Y-124039333D02*
X153217619Y-123991714D01*
X153027142Y-123991714D01*
X152931904Y-124039333D01*
X152884285Y-124086952D01*
X152836666Y-124182190D01*
X152836666Y-124467904D01*
X152884285Y-124563142D01*
X152931904Y-124610761D01*
X153027142Y-124658380D01*
X153217619Y-124658380D01*
X153312857Y-124610761D01*
X152265238Y-124658380D02*
X152360476Y-124610761D01*
X152408095Y-124563142D01*
X152455714Y-124467904D01*
X152455714Y-124182190D01*
X152408095Y-124086952D01*
X152360476Y-124039333D01*
X152265238Y-123991714D01*
X152122380Y-123991714D01*
X152027142Y-124039333D01*
X151979523Y-124086952D01*
X151931904Y-124182190D01*
X151931904Y-124467904D01*
X151979523Y-124563142D01*
X152027142Y-124610761D01*
X152122380Y-124658380D01*
X152265238Y-124658380D01*
X151503333Y-124658380D02*
X151503333Y-123991714D01*
X151503333Y-124086952D02*
X151455714Y-124039333D01*
X151360476Y-123991714D01*
X151217619Y-123991714D01*
X151122380Y-124039333D01*
X151074761Y-124134571D01*
X151074761Y-124658380D01*
X151074761Y-124134571D02*
X151027142Y-124039333D01*
X150931904Y-123991714D01*
X150789047Y-123991714D01*
X150693809Y-124039333D01*
X150646190Y-124134571D01*
X150646190Y-124658380D01*
X150170000Y-123991714D02*
X150170000Y-124991714D01*
X150170000Y-124039333D02*
X150074761Y-123991714D01*
X149884285Y-123991714D01*
X149789047Y-124039333D01*
X149741428Y-124086952D01*
X149693809Y-124182190D01*
X149693809Y-124467904D01*
X149741428Y-124563142D01*
X149789047Y-124610761D01*
X149884285Y-124658380D01*
X150074761Y-124658380D01*
X150170000Y-124610761D01*
X148884285Y-124610761D02*
X148979523Y-124658380D01*
X149170000Y-124658380D01*
X149265238Y-124610761D01*
X149312857Y-124515523D01*
X149312857Y-124134571D01*
X149265238Y-124039333D01*
X149170000Y-123991714D01*
X148979523Y-123991714D01*
X148884285Y-124039333D01*
X148836666Y-124134571D01*
X148836666Y-124229809D01*
X149312857Y-124325047D01*
X164459523Y-113777380D02*
X164459523Y-112777380D01*
X164126190Y-113491666D01*
X163792857Y-112777380D01*
X163792857Y-113777380D01*
X162792857Y-113777380D02*
X163364285Y-113777380D01*
X163078571Y-113777380D02*
X163078571Y-112777380D01*
X163173809Y-112920238D01*
X163269047Y-113015476D01*
X163364285Y-113063095D01*
X182809523Y-107952380D02*
X182809523Y-106952380D01*
X182476190Y-107666666D01*
X182142857Y-106952380D01*
X182142857Y-107952380D01*
X181142857Y-107952380D02*
X181714285Y-107952380D01*
X181428571Y-107952380D02*
X181428571Y-106952380D01*
X181523809Y-107095238D01*
X181619047Y-107190476D01*
X181714285Y-107238095D01*
X153765000Y-86717142D02*
X153812619Y-86764761D01*
X153955476Y-86812380D01*
X154050714Y-86812380D01*
X154193571Y-86764761D01*
X154288809Y-86669523D01*
X154336428Y-86574285D01*
X154384047Y-86383809D01*
X154384047Y-86240952D01*
X154336428Y-86050476D01*
X154288809Y-85955238D01*
X154193571Y-85860000D01*
X154050714Y-85812380D01*
X153955476Y-85812380D01*
X153812619Y-85860000D01*
X153765000Y-85907619D01*
X153384047Y-86526666D02*
X152907857Y-86526666D01*
X153479285Y-86812380D02*
X153145952Y-85812380D01*
X152812619Y-86812380D01*
X152479285Y-86812380D02*
X152479285Y-85812380D01*
X151907857Y-86812380D01*
X151907857Y-85812380D01*
X151669761Y-86907619D02*
X150907857Y-86907619D01*
X150098333Y-86812380D02*
X150431666Y-86336190D01*
X150669761Y-86812380D02*
X150669761Y-85812380D01*
X150288809Y-85812380D01*
X150193571Y-85860000D01*
X150145952Y-85907619D01*
X150098333Y-86002857D01*
X150098333Y-86145714D01*
X150145952Y-86240952D01*
X150193571Y-86288571D01*
X150288809Y-86336190D01*
X150669761Y-86336190D01*
X149765000Y-85812380D02*
X149098333Y-86812380D01*
X149098333Y-85812380D02*
X149765000Y-86812380D01*
X164688095Y-115828571D02*
X164354761Y-115828571D01*
X164211904Y-116352380D02*
X164688095Y-116352380D01*
X164688095Y-115352380D01*
X164211904Y-115352380D01*
X163783333Y-116352380D02*
X163783333Y-115352380D01*
X163211904Y-116352380D01*
X163211904Y-115352380D01*
X160947619Y-73019047D02*
X160947619Y-73590476D01*
X160947619Y-73304761D02*
X161947619Y-73304761D01*
X161804761Y-73400000D01*
X161709523Y-73495238D01*
X161661904Y-73590476D01*
X161852380Y-72638095D02*
X161900000Y-72590476D01*
X161947619Y-72495238D01*
X161947619Y-72257142D01*
X161900000Y-72161904D01*
X161852380Y-72114285D01*
X161757142Y-72066666D01*
X161661904Y-72066666D01*
X161519047Y-72114285D01*
X160947619Y-72685714D01*
X160947619Y-72066666D01*
X161947619Y-71780952D02*
X160947619Y-71447619D01*
X161947619Y-71114285D01*
X173529523Y-109672380D02*
X173529523Y-108672380D01*
X173196190Y-109386666D01*
X172862857Y-108672380D01*
X172862857Y-109672380D01*
X171862857Y-109672380D02*
X172434285Y-109672380D01*
X172148571Y-109672380D02*
X172148571Y-108672380D01*
X172243809Y-108815238D01*
X172339047Y-108910476D01*
X172434285Y-108958095D01*
X173672476Y-64476380D02*
X174148666Y-64476380D01*
X174196285Y-64952571D01*
X174148666Y-64904952D01*
X174053428Y-64857333D01*
X173815333Y-64857333D01*
X173720095Y-64904952D01*
X173672476Y-64952571D01*
X173624857Y-65047809D01*
X173624857Y-65285904D01*
X173672476Y-65381142D01*
X173720095Y-65428761D01*
X173815333Y-65476380D01*
X174053428Y-65476380D01*
X174148666Y-65428761D01*
X174196285Y-65381142D01*
X173339142Y-64476380D02*
X173005809Y-65476380D01*
X172672476Y-64476380D01*
X163122619Y-64189285D02*
X164122619Y-64189285D01*
X163408333Y-63855952D01*
X164122619Y-63522619D01*
X163122619Y-63522619D01*
X164122619Y-62855952D02*
X164122619Y-62665476D01*
X164075000Y-62570238D01*
X163979761Y-62475000D01*
X163789285Y-62427380D01*
X163455952Y-62427380D01*
X163265476Y-62475000D01*
X163170238Y-62570238D01*
X163122619Y-62665476D01*
X163122619Y-62855952D01*
X163170238Y-62951190D01*
X163265476Y-63046428D01*
X163455952Y-63094047D01*
X163789285Y-63094047D01*
X163979761Y-63046428D01*
X164075000Y-62951190D01*
X164122619Y-62855952D01*
X164122619Y-62141666D02*
X164122619Y-61570238D01*
X163122619Y-61855952D02*
X164122619Y-61855952D01*
X163122619Y-60713095D02*
X163122619Y-61284523D01*
X163122619Y-60998809D02*
X164122619Y-60998809D01*
X163979761Y-61094047D01*
X163884523Y-61189285D01*
X163836904Y-61284523D01*
X161615000Y-129100000D02*
X161710238Y-129052380D01*
X161853095Y-129052380D01*
X161995952Y-129100000D01*
X162091190Y-129195238D01*
X162138809Y-129290476D01*
X162186428Y-129480952D01*
X162186428Y-129623809D01*
X162138809Y-129814285D01*
X162091190Y-129909523D01*
X161995952Y-130004761D01*
X161853095Y-130052380D01*
X161757857Y-130052380D01*
X161615000Y-130004761D01*
X161567380Y-129957142D01*
X161567380Y-129623809D01*
X161757857Y-129623809D01*
X161186428Y-129766666D02*
X160710238Y-129766666D01*
X161281666Y-130052380D02*
X160948333Y-129052380D01*
X160615000Y-130052380D01*
X160424523Y-129052380D02*
X159853095Y-129052380D01*
X160138809Y-130052380D02*
X160138809Y-129052380D01*
X159519761Y-129528571D02*
X159186428Y-129528571D01*
X159043571Y-130052380D02*
X159519761Y-130052380D01*
X159519761Y-129052380D01*
X159043571Y-129052380D01*
X185380952Y-92607142D02*
X185428571Y-92654761D01*
X185571428Y-92702380D01*
X185666666Y-92702380D01*
X185809523Y-92654761D01*
X185904761Y-92559523D01*
X185952380Y-92464285D01*
X186000000Y-92273809D01*
X186000000Y-92130952D01*
X185952380Y-91940476D01*
X185904761Y-91845238D01*
X185809523Y-91750000D01*
X185666666Y-91702380D01*
X185571428Y-91702380D01*
X185428571Y-91750000D01*
X185380952Y-91797619D01*
X185000000Y-92416666D02*
X184523809Y-92416666D01*
X185095238Y-92702380D02*
X184761904Y-91702380D01*
X184428571Y-92702380D01*
X184095238Y-92702380D02*
X184095238Y-91702380D01*
X183523809Y-92702380D01*
X183523809Y-91702380D01*
X183285714Y-92797619D02*
X182523809Y-92797619D01*
X182428571Y-91702380D02*
X181857142Y-91702380D01*
X182142857Y-92702380D02*
X182142857Y-91702380D01*
X181619047Y-91702380D02*
X180952380Y-92702380D01*
X180952380Y-91702380D02*
X181619047Y-92702380D01*
X153586904Y-83025000D02*
X153682142Y-82977380D01*
X153825000Y-82977380D01*
X153967857Y-83025000D01*
X154063095Y-83120238D01*
X154110714Y-83215476D01*
X154158333Y-83405952D01*
X154158333Y-83548809D01*
X154110714Y-83739285D01*
X154063095Y-83834523D01*
X153967857Y-83929761D01*
X153825000Y-83977380D01*
X153729761Y-83977380D01*
X153586904Y-83929761D01*
X153539285Y-83882142D01*
X153539285Y-83548809D01*
X153729761Y-83548809D01*
X153110714Y-83977380D02*
X153110714Y-82977380D01*
X152539285Y-83977380D01*
X152539285Y-82977380D01*
X152063095Y-83977380D02*
X152063095Y-82977380D01*
X151825000Y-82977380D01*
X151682142Y-83025000D01*
X151586904Y-83120238D01*
X151539285Y-83215476D01*
X151491666Y-83405952D01*
X151491666Y-83548809D01*
X151539285Y-83739285D01*
X151586904Y-83834523D01*
X151682142Y-83929761D01*
X151825000Y-83977380D01*
X152063095Y-83977380D01*
X184800000Y-112885714D02*
X184838095Y-112923809D01*
X184952380Y-112961904D01*
X185028571Y-112961904D01*
X185142857Y-112923809D01*
X185219047Y-112847619D01*
X185257142Y-112771428D01*
X185295238Y-112619047D01*
X185295238Y-112504761D01*
X185257142Y-112352380D01*
X185219047Y-112276190D01*
X185142857Y-112200000D01*
X185028571Y-112161904D01*
X184952380Y-112161904D01*
X184838095Y-112200000D01*
X184800000Y-112238095D01*
X184495238Y-112733333D02*
X184114285Y-112733333D01*
X184571428Y-112961904D02*
X184304761Y-112161904D01*
X184038095Y-112961904D01*
X183771428Y-112961904D02*
X183771428Y-112161904D01*
X183314285Y-112961904D01*
X183314285Y-112161904D01*
X183123809Y-113038095D02*
X182514285Y-113038095D01*
X181866666Y-112961904D02*
X182133333Y-112580952D01*
X182323809Y-112961904D02*
X182323809Y-112161904D01*
X182019047Y-112161904D01*
X181942857Y-112200000D01*
X181904761Y-112238095D01*
X181866666Y-112314285D01*
X181866666Y-112428571D01*
X181904761Y-112504761D01*
X181942857Y-112542857D01*
X182019047Y-112580952D01*
X182323809Y-112580952D01*
X181600000Y-112161904D02*
X181066666Y-112961904D01*
X181066666Y-112161904D02*
X181600000Y-112961904D01*
X164576190Y-98377380D02*
X164576190Y-97377380D01*
X164338095Y-97377380D01*
X164195238Y-97425000D01*
X164100000Y-97520238D01*
X164052380Y-97615476D01*
X164004761Y-97805952D01*
X164004761Y-97948809D01*
X164052380Y-98139285D01*
X164100000Y-98234523D01*
X164195238Y-98329761D01*
X164338095Y-98377380D01*
X164576190Y-98377380D01*
X163576190Y-98377380D02*
X163576190Y-97377380D01*
X162528571Y-98377380D02*
X162861904Y-97901190D01*
X163100000Y-98377380D02*
X163100000Y-97377380D01*
X162719047Y-97377380D01*
X162623809Y-97425000D01*
X162576190Y-97472619D01*
X162528571Y-97567857D01*
X162528571Y-97710714D01*
X162576190Y-97805952D01*
X162623809Y-97853571D01*
X162719047Y-97901190D01*
X163100000Y-97901190D01*
X161576190Y-98377380D02*
X162147619Y-98377380D01*
X161861904Y-98377380D02*
X161861904Y-97377380D01*
X161957142Y-97520238D01*
X162052380Y-97615476D01*
X162147619Y-97663095D01*
X193011904Y-115071428D02*
X192250000Y-115071428D01*
X192630952Y-115452380D02*
X192630952Y-114690476D01*
X191869047Y-114452380D02*
X191250000Y-114452380D01*
X191583333Y-114833333D01*
X191440476Y-114833333D01*
X191345238Y-114880952D01*
X191297619Y-114928571D01*
X191250000Y-115023809D01*
X191250000Y-115261904D01*
X191297619Y-115357142D01*
X191345238Y-115404761D01*
X191440476Y-115452380D01*
X191726190Y-115452380D01*
X191821428Y-115404761D01*
X191869047Y-115357142D01*
X190964285Y-114452380D02*
X190630952Y-115452380D01*
X190297619Y-114452380D01*
X190059523Y-114452380D02*
X189440476Y-114452380D01*
X189773809Y-114833333D01*
X189630952Y-114833333D01*
X189535714Y-114880952D01*
X189488095Y-114928571D01*
X189440476Y-115023809D01*
X189440476Y-115261904D01*
X189488095Y-115357142D01*
X189535714Y-115404761D01*
X189630952Y-115452380D01*
X189916666Y-115452380D01*
X190011904Y-115404761D01*
X190059523Y-115357142D01*
X154992857Y-72947619D02*
X154945238Y-72995238D01*
X154897619Y-73138095D01*
X154897619Y-73233333D01*
X154945238Y-73376190D01*
X155040476Y-73471428D01*
X155135714Y-73519047D01*
X155326190Y-73566666D01*
X155469047Y-73566666D01*
X155659523Y-73519047D01*
X155754761Y-73471428D01*
X155850000Y-73376190D01*
X155897619Y-73233333D01*
X155897619Y-73138095D01*
X155850000Y-72995238D01*
X155802380Y-72947619D01*
X155183333Y-72566666D02*
X155183333Y-72090476D01*
X154897619Y-72661904D02*
X155897619Y-72328571D01*
X154897619Y-71995238D01*
X154897619Y-71661904D02*
X155897619Y-71661904D01*
X154897619Y-71090476D01*
X155897619Y-71090476D01*
X154802380Y-70852380D02*
X154802380Y-70090476D01*
X154897619Y-69852380D02*
X155897619Y-69852380D01*
X155421428Y-69852380D02*
X155421428Y-69280952D01*
X154897619Y-69280952D02*
X155897619Y-69280952D01*
X192261904Y-84250000D02*
X192357142Y-84202380D01*
X192500000Y-84202380D01*
X192642857Y-84250000D01*
X192738095Y-84345238D01*
X192785714Y-84440476D01*
X192833333Y-84630952D01*
X192833333Y-84773809D01*
X192785714Y-84964285D01*
X192738095Y-85059523D01*
X192642857Y-85154761D01*
X192500000Y-85202380D01*
X192404761Y-85202380D01*
X192261904Y-85154761D01*
X192214285Y-85107142D01*
X192214285Y-84773809D01*
X192404761Y-84773809D01*
X191785714Y-85202380D02*
X191785714Y-84202380D01*
X191214285Y-85202380D01*
X191214285Y-84202380D01*
X190738095Y-85202380D02*
X190738095Y-84202380D01*
X190500000Y-84202380D01*
X190357142Y-84250000D01*
X190261904Y-84345238D01*
X190214285Y-84440476D01*
X190166666Y-84630952D01*
X190166666Y-84773809D01*
X190214285Y-84964285D01*
X190261904Y-85059523D01*
X190357142Y-85154761D01*
X190500000Y-85202380D01*
X190738095Y-85202380D01*
X144637047Y-69032380D02*
X145208476Y-69032380D01*
X144922761Y-69032380D02*
X144922761Y-68032380D01*
X145018000Y-68175238D01*
X145113238Y-68270476D01*
X145208476Y-68318095D01*
X144256095Y-68127619D02*
X144208476Y-68080000D01*
X144113238Y-68032380D01*
X143875142Y-68032380D01*
X143779904Y-68080000D01*
X143732285Y-68127619D01*
X143684666Y-68222857D01*
X143684666Y-68318095D01*
X143732285Y-68460952D01*
X144303714Y-69032380D01*
X143684666Y-69032380D01*
X143398952Y-68032380D02*
X143065619Y-69032380D01*
X142732285Y-68032380D01*
X192785714Y-89821428D02*
X192023809Y-89821428D01*
X192404761Y-90202380D02*
X192404761Y-89440476D01*
X191071428Y-89202380D02*
X191547619Y-89202380D01*
X191595238Y-89678571D01*
X191547619Y-89630952D01*
X191452380Y-89583333D01*
X191214285Y-89583333D01*
X191119047Y-89630952D01*
X191071428Y-89678571D01*
X191023809Y-89773809D01*
X191023809Y-90011904D01*
X191071428Y-90107142D01*
X191119047Y-90154761D01*
X191214285Y-90202380D01*
X191452380Y-90202380D01*
X191547619Y-90154761D01*
X191595238Y-90107142D01*
X190738095Y-89202380D02*
X190404761Y-90202380D01*
X190071428Y-89202380D01*
X174799523Y-104592380D02*
X174799523Y-103592380D01*
X174466190Y-104306666D01*
X174132857Y-103592380D01*
X174132857Y-104592380D01*
X173704285Y-103687619D02*
X173656666Y-103640000D01*
X173561428Y-103592380D01*
X173323333Y-103592380D01*
X173228095Y-103640000D01*
X173180476Y-103687619D01*
X173132857Y-103782857D01*
X173132857Y-103878095D01*
X173180476Y-104020952D01*
X173751904Y-104592380D01*
X173132857Y-104592380D01*
X157286904Y-112475000D02*
X157382142Y-112427380D01*
X157525000Y-112427380D01*
X157667857Y-112475000D01*
X157763095Y-112570238D01*
X157810714Y-112665476D01*
X157858333Y-112855952D01*
X157858333Y-112998809D01*
X157810714Y-113189285D01*
X157763095Y-113284523D01*
X157667857Y-113379761D01*
X157525000Y-113427380D01*
X157429761Y-113427380D01*
X157286904Y-113379761D01*
X157239285Y-113332142D01*
X157239285Y-112998809D01*
X157429761Y-112998809D01*
X156810714Y-113427380D02*
X156810714Y-112427380D01*
X156239285Y-113427380D01*
X156239285Y-112427380D01*
X155763095Y-113427380D02*
X155763095Y-112427380D01*
X155525000Y-112427380D01*
X155382142Y-112475000D01*
X155286904Y-112570238D01*
X155239285Y-112665476D01*
X155191666Y-112855952D01*
X155191666Y-112998809D01*
X155239285Y-113189285D01*
X155286904Y-113284523D01*
X155382142Y-113379761D01*
X155525000Y-113427380D01*
X155763095Y-113427380D01*
X187392857Y-102904761D02*
X187250000Y-102952380D01*
X187011904Y-102952380D01*
X186916666Y-102904761D01*
X186869047Y-102857142D01*
X186821428Y-102761904D01*
X186821428Y-102666666D01*
X186869047Y-102571428D01*
X186916666Y-102523809D01*
X187011904Y-102476190D01*
X187202380Y-102428571D01*
X187297619Y-102380952D01*
X187345238Y-102333333D01*
X187392857Y-102238095D01*
X187392857Y-102142857D01*
X187345238Y-102047619D01*
X187297619Y-102000000D01*
X187202380Y-101952380D01*
X186964285Y-101952380D01*
X186821428Y-102000000D01*
X186392857Y-102428571D02*
X186059523Y-102428571D01*
X185916666Y-102952380D02*
X186392857Y-102952380D01*
X186392857Y-101952380D01*
X185916666Y-101952380D01*
X184916666Y-102952380D02*
X185250000Y-102476190D01*
X185488095Y-102952380D02*
X185488095Y-101952380D01*
X185107142Y-101952380D01*
X185011904Y-102000000D01*
X184964285Y-102047619D01*
X184916666Y-102142857D01*
X184916666Y-102285714D01*
X184964285Y-102380952D01*
X185011904Y-102428571D01*
X185107142Y-102476190D01*
X185488095Y-102476190D01*
X184630952Y-101952380D02*
X184297619Y-102952380D01*
X183964285Y-101952380D01*
X183630952Y-102952380D02*
X183630952Y-101952380D01*
X183297619Y-102666666D01*
X182964285Y-101952380D01*
X182964285Y-102952380D01*
X182297619Y-101952380D02*
X182107142Y-101952380D01*
X182011904Y-102000000D01*
X181916666Y-102095238D01*
X181869047Y-102285714D01*
X181869047Y-102619047D01*
X181916666Y-102809523D01*
X182011904Y-102904761D01*
X182107142Y-102952380D01*
X182297619Y-102952380D01*
X182392857Y-102904761D01*
X182488095Y-102809523D01*
X182535714Y-102619047D01*
X182535714Y-102285714D01*
X182488095Y-102095238D01*
X182392857Y-102000000D01*
X182297619Y-101952380D01*
X181583333Y-101952380D02*
X181011904Y-101952380D01*
X181297619Y-102952380D02*
X181297619Y-101952380D01*
X162817380Y-127552380D02*
X162817380Y-126552380D01*
X162579285Y-126552380D01*
X162436428Y-126600000D01*
X162341190Y-126695238D01*
X162293571Y-126790476D01*
X162245952Y-126980952D01*
X162245952Y-127123809D01*
X162293571Y-127314285D01*
X162341190Y-127409523D01*
X162436428Y-127504761D01*
X162579285Y-127552380D01*
X162817380Y-127552380D01*
X161245952Y-127552380D02*
X161579285Y-127076190D01*
X161817380Y-127552380D02*
X161817380Y-126552380D01*
X161436428Y-126552380D01*
X161341190Y-126600000D01*
X161293571Y-126647619D01*
X161245952Y-126742857D01*
X161245952Y-126885714D01*
X161293571Y-126980952D01*
X161341190Y-127028571D01*
X161436428Y-127076190D01*
X161817380Y-127076190D01*
X160865000Y-127266666D02*
X160388809Y-127266666D01*
X160960238Y-127552380D02*
X160626904Y-126552380D01*
X160293571Y-127552380D01*
X159960238Y-127552380D02*
X159960238Y-126552380D01*
X159484047Y-127552380D02*
X159484047Y-126552380D01*
X158912619Y-127552380D01*
X158912619Y-126552380D01*
X153650000Y-72861904D02*
X153697619Y-72957142D01*
X153697619Y-73100000D01*
X153650000Y-73242857D01*
X153554761Y-73338095D01*
X153459523Y-73385714D01*
X153269047Y-73433333D01*
X153126190Y-73433333D01*
X152935714Y-73385714D01*
X152840476Y-73338095D01*
X152745238Y-73242857D01*
X152697619Y-73100000D01*
X152697619Y-73004761D01*
X152745238Y-72861904D01*
X152792857Y-72814285D01*
X153126190Y-72814285D01*
X153126190Y-73004761D01*
X152697619Y-72385714D02*
X153697619Y-72385714D01*
X152697619Y-71814285D01*
X153697619Y-71814285D01*
X152697619Y-71338095D02*
X153697619Y-71338095D01*
X153697619Y-71100000D01*
X153650000Y-70957142D01*
X153554761Y-70861904D01*
X153459523Y-70814285D01*
X153269047Y-70766666D01*
X153126190Y-70766666D01*
X152935714Y-70814285D01*
X152840476Y-70861904D01*
X152745238Y-70957142D01*
X152697619Y-71100000D01*
X152697619Y-71338095D01*
X164892857Y-101054761D02*
X164750000Y-101102380D01*
X164511904Y-101102380D01*
X164416666Y-101054761D01*
X164369047Y-101007142D01*
X164321428Y-100911904D01*
X164321428Y-100816666D01*
X164369047Y-100721428D01*
X164416666Y-100673809D01*
X164511904Y-100626190D01*
X164702380Y-100578571D01*
X164797619Y-100530952D01*
X164845238Y-100483333D01*
X164892857Y-100388095D01*
X164892857Y-100292857D01*
X164845238Y-100197619D01*
X164797619Y-100150000D01*
X164702380Y-100102380D01*
X164464285Y-100102380D01*
X164321428Y-100150000D01*
X164035714Y-100102380D02*
X163464285Y-100102380D01*
X163750000Y-101102380D02*
X163750000Y-100102380D01*
X163130952Y-101102380D02*
X163130952Y-100102380D01*
X162750000Y-100102380D01*
X162654761Y-100150000D01*
X162607142Y-100197619D01*
X162559523Y-100292857D01*
X162559523Y-100435714D01*
X162607142Y-100530952D01*
X162654761Y-100578571D01*
X162750000Y-100626190D01*
X163130952Y-100626190D01*
X161607142Y-101102380D02*
X162178571Y-101102380D01*
X161892857Y-101102380D02*
X161892857Y-100102380D01*
X161988095Y-100245238D01*
X162083333Y-100340476D01*
X162178571Y-100388095D01*
X184476190Y-82702380D02*
X184476190Y-81702380D01*
X184238095Y-81702380D01*
X184095238Y-81750000D01*
X184000000Y-81845238D01*
X183952380Y-81940476D01*
X183904761Y-82130952D01*
X183904761Y-82273809D01*
X183952380Y-82464285D01*
X184000000Y-82559523D01*
X184095238Y-82654761D01*
X184238095Y-82702380D01*
X184476190Y-82702380D01*
X183476190Y-82702380D02*
X183476190Y-81702380D01*
X182428571Y-82702380D02*
X182761904Y-82226190D01*
X183000000Y-82702380D02*
X183000000Y-81702380D01*
X182619047Y-81702380D01*
X182523809Y-81750000D01*
X182476190Y-81797619D01*
X182428571Y-81892857D01*
X182428571Y-82035714D01*
X182476190Y-82130952D01*
X182523809Y-82178571D01*
X182619047Y-82226190D01*
X183000000Y-82226190D01*
X181476190Y-82702380D02*
X182047619Y-82702380D01*
X181761904Y-82702380D02*
X181761904Y-81702380D01*
X181857142Y-81845238D01*
X181952380Y-81940476D01*
X182047619Y-81988095D01*
X171799047Y-96289761D02*
X171656190Y-96337380D01*
X171418095Y-96337380D01*
X171322857Y-96289761D01*
X171275238Y-96242142D01*
X171227619Y-96146904D01*
X171227619Y-96051666D01*
X171275238Y-95956428D01*
X171322857Y-95908809D01*
X171418095Y-95861190D01*
X171608571Y-95813571D01*
X171703809Y-95765952D01*
X171751428Y-95718333D01*
X171799047Y-95623095D01*
X171799047Y-95527857D01*
X171751428Y-95432619D01*
X171703809Y-95385000D01*
X171608571Y-95337380D01*
X171370476Y-95337380D01*
X171227619Y-95385000D01*
X170941904Y-95337380D02*
X170370476Y-95337380D01*
X170656190Y-96337380D02*
X170656190Y-95337380D01*
X170037142Y-95813571D02*
X169703809Y-95813571D01*
X169560952Y-96337380D02*
X170037142Y-96337380D01*
X170037142Y-95337380D01*
X169560952Y-95337380D01*
X169132380Y-96337380D02*
X169132380Y-95337380D01*
X168751428Y-95337380D01*
X168656190Y-95385000D01*
X168608571Y-95432619D01*
X168560952Y-95527857D01*
X168560952Y-95670714D01*
X168608571Y-95765952D01*
X168656190Y-95813571D01*
X168751428Y-95861190D01*
X169132380Y-95861190D01*
X182809523Y-105452380D02*
X182809523Y-104452380D01*
X182476190Y-105166666D01*
X182142857Y-104452380D01*
X182142857Y-105452380D01*
X181714285Y-104547619D02*
X181666666Y-104500000D01*
X181571428Y-104452380D01*
X181333333Y-104452380D01*
X181238095Y-104500000D01*
X181190476Y-104547619D01*
X181142857Y-104642857D01*
X181142857Y-104738095D01*
X181190476Y-104880952D01*
X181761904Y-105452380D01*
X181142857Y-105452380D01*
X163805952Y-87682142D02*
X163853571Y-87729761D01*
X163996428Y-87777380D01*
X164091666Y-87777380D01*
X164234523Y-87729761D01*
X164329761Y-87634523D01*
X164377380Y-87539285D01*
X164425000Y-87348809D01*
X164425000Y-87205952D01*
X164377380Y-87015476D01*
X164329761Y-86920238D01*
X164234523Y-86825000D01*
X164091666Y-86777380D01*
X163996428Y-86777380D01*
X163853571Y-86825000D01*
X163805952Y-86872619D01*
X163425000Y-87491666D02*
X162948809Y-87491666D01*
X163520238Y-87777380D02*
X163186904Y-86777380D01*
X162853571Y-87777380D01*
X162520238Y-87777380D02*
X162520238Y-86777380D01*
X161948809Y-87777380D01*
X161948809Y-86777380D01*
X161710714Y-87872619D02*
X160948809Y-87872619D01*
X160853571Y-86777380D02*
X160282142Y-86777380D01*
X160567857Y-87777380D02*
X160567857Y-86777380D01*
X160044047Y-86777380D02*
X159377380Y-87777380D01*
X159377380Y-86777380D02*
X160044047Y-87777380D01*
X183261904Y-89250000D02*
X183357142Y-89202380D01*
X183500000Y-89202380D01*
X183642857Y-89250000D01*
X183738095Y-89345238D01*
X183785714Y-89440476D01*
X183833333Y-89630952D01*
X183833333Y-89773809D01*
X183785714Y-89964285D01*
X183738095Y-90059523D01*
X183642857Y-90154761D01*
X183500000Y-90202380D01*
X183404761Y-90202380D01*
X183261904Y-90154761D01*
X183214285Y-90107142D01*
X183214285Y-89773809D01*
X183404761Y-89773809D01*
X182785714Y-90202380D02*
X182785714Y-89202380D01*
X182214285Y-90202380D01*
X182214285Y-89202380D01*
X181738095Y-90202380D02*
X181738095Y-89202380D01*
X181500000Y-89202380D01*
X181357142Y-89250000D01*
X181261904Y-89345238D01*
X181214285Y-89440476D01*
X181166666Y-89630952D01*
X181166666Y-89773809D01*
X181214285Y-89964285D01*
X181261904Y-90059523D01*
X181357142Y-90154761D01*
X181500000Y-90202380D01*
X181738095Y-90202380D01*
X172950000Y-69802380D02*
X172950000Y-68802380D01*
X172616666Y-69516666D01*
X172283333Y-68802380D01*
X172283333Y-69802380D01*
X171426190Y-69754761D02*
X171521428Y-69802380D01*
X171711904Y-69802380D01*
X171807142Y-69754761D01*
X171854761Y-69659523D01*
X171854761Y-69278571D01*
X171807142Y-69183333D01*
X171711904Y-69135714D01*
X171521428Y-69135714D01*
X171426190Y-69183333D01*
X171378571Y-69278571D01*
X171378571Y-69373809D01*
X171854761Y-69469047D01*
X170997619Y-69754761D02*
X170902380Y-69802380D01*
X170711904Y-69802380D01*
X170616666Y-69754761D01*
X170569047Y-69659523D01*
X170569047Y-69611904D01*
X170616666Y-69516666D01*
X170711904Y-69469047D01*
X170854761Y-69469047D01*
X170950000Y-69421428D01*
X170997619Y-69326190D01*
X170997619Y-69278571D01*
X170950000Y-69183333D01*
X170854761Y-69135714D01*
X170711904Y-69135714D01*
X170616666Y-69183333D01*
X169569047Y-69802380D02*
X169902380Y-69326190D01*
X170140476Y-69802380D02*
X170140476Y-68802380D01*
X169759523Y-68802380D01*
X169664285Y-68850000D01*
X169616666Y-68897619D01*
X169569047Y-68992857D01*
X169569047Y-69135714D01*
X169616666Y-69230952D01*
X169664285Y-69278571D01*
X169759523Y-69326190D01*
X170140476Y-69326190D01*
X168759523Y-69754761D02*
X168854761Y-69802380D01*
X169045238Y-69802380D01*
X169140476Y-69754761D01*
X169188095Y-69659523D01*
X169188095Y-69278571D01*
X169140476Y-69183333D01*
X169045238Y-69135714D01*
X168854761Y-69135714D01*
X168759523Y-69183333D01*
X168711904Y-69278571D01*
X168711904Y-69373809D01*
X169188095Y-69469047D01*
X168330952Y-69754761D02*
X168235714Y-69802380D01*
X168045238Y-69802380D01*
X167950000Y-69754761D01*
X167902380Y-69659523D01*
X167902380Y-69611904D01*
X167950000Y-69516666D01*
X168045238Y-69469047D01*
X168188095Y-69469047D01*
X168283333Y-69421428D01*
X168330952Y-69326190D01*
X168330952Y-69278571D01*
X168283333Y-69183333D01*
X168188095Y-69135714D01*
X168045238Y-69135714D01*
X167950000Y-69183333D01*
X157319047Y-116377380D02*
X157890476Y-116377380D01*
X157604761Y-116377380D02*
X157604761Y-115377380D01*
X157700000Y-115520238D01*
X157795238Y-115615476D01*
X157890476Y-115663095D01*
X156938095Y-115472619D02*
X156890476Y-115425000D01*
X156795238Y-115377380D01*
X156557142Y-115377380D01*
X156461904Y-115425000D01*
X156414285Y-115472619D01*
X156366666Y-115567857D01*
X156366666Y-115663095D01*
X156414285Y-115805952D01*
X156985714Y-116377380D01*
X156366666Y-116377380D01*
X156080952Y-115377380D02*
X155747619Y-116377380D01*
X155414285Y-115377380D01*
X160997619Y-63344047D02*
X160997619Y-63915476D01*
X160997619Y-63629761D02*
X161997619Y-63629761D01*
X161854761Y-63725000D01*
X161759523Y-63820238D01*
X161711904Y-63915476D01*
X161902380Y-62963095D02*
X161950000Y-62915476D01*
X161997619Y-62820238D01*
X161997619Y-62582142D01*
X161950000Y-62486904D01*
X161902380Y-62439285D01*
X161807142Y-62391666D01*
X161711904Y-62391666D01*
X161569047Y-62439285D01*
X160997619Y-63010714D01*
X160997619Y-62391666D01*
X161997619Y-62105952D02*
X160997619Y-61772619D01*
X161997619Y-61439285D01*
X172211904Y-71750000D02*
X172307142Y-71702380D01*
X172450000Y-71702380D01*
X172592857Y-71750000D01*
X172688095Y-71845238D01*
X172735714Y-71940476D01*
X172783333Y-72130952D01*
X172783333Y-72273809D01*
X172735714Y-72464285D01*
X172688095Y-72559523D01*
X172592857Y-72654761D01*
X172450000Y-72702380D01*
X172354761Y-72702380D01*
X172211904Y-72654761D01*
X172164285Y-72607142D01*
X172164285Y-72273809D01*
X172354761Y-72273809D01*
X171735714Y-72702380D02*
X171735714Y-71702380D01*
X171164285Y-72702380D01*
X171164285Y-71702380D01*
X170688095Y-72702380D02*
X170688095Y-71702380D01*
X170450000Y-71702380D01*
X170307142Y-71750000D01*
X170211904Y-71845238D01*
X170164285Y-71940476D01*
X170116666Y-72130952D01*
X170116666Y-72273809D01*
X170164285Y-72464285D01*
X170211904Y-72559523D01*
X170307142Y-72654761D01*
X170450000Y-72702380D01*
X170688095Y-72702380D01*
X170918095Y-113593571D02*
X170584761Y-113593571D01*
X170441904Y-114117380D02*
X170918095Y-114117380D01*
X170918095Y-113117380D01*
X170441904Y-113117380D01*
X170013333Y-114117380D02*
X170013333Y-113117380D01*
X169441904Y-114117380D01*
X169441904Y-113117380D01*
X171036904Y-125452142D02*
X171084523Y-125499761D01*
X171227380Y-125547380D01*
X171322619Y-125547380D01*
X171465476Y-125499761D01*
X171560714Y-125404523D01*
X171608333Y-125309285D01*
X171655952Y-125118809D01*
X171655952Y-124975952D01*
X171608333Y-124785476D01*
X171560714Y-124690238D01*
X171465476Y-124595000D01*
X171322619Y-124547380D01*
X171227380Y-124547380D01*
X171084523Y-124595000D01*
X171036904Y-124642619D01*
X170608333Y-125547380D02*
X170608333Y-124880714D01*
X170608333Y-124975952D02*
X170560714Y-124928333D01*
X170465476Y-124880714D01*
X170322619Y-124880714D01*
X170227380Y-124928333D01*
X170179761Y-125023571D01*
X170179761Y-125547380D01*
X170179761Y-125023571D02*
X170132142Y-124928333D01*
X170036904Y-124880714D01*
X169894047Y-124880714D01*
X169798809Y-124928333D01*
X169751190Y-125023571D01*
X169751190Y-125547380D01*
X168846428Y-125547380D02*
X168846428Y-124547380D01*
X168846428Y-125499761D02*
X168941666Y-125547380D01*
X169132142Y-125547380D01*
X169227380Y-125499761D01*
X169275000Y-125452142D01*
X169322619Y-125356904D01*
X169322619Y-125071190D01*
X169275000Y-124975952D01*
X169227380Y-124928333D01*
X169132142Y-124880714D01*
X168941666Y-124880714D01*
X168846428Y-124928333D01*
X167608333Y-125547380D02*
X167608333Y-124547380D01*
X167275000Y-125261666D01*
X166941666Y-124547380D01*
X166941666Y-125547380D01*
X166275000Y-124547380D02*
X166084523Y-124547380D01*
X165989285Y-124595000D01*
X165894047Y-124690238D01*
X165846428Y-124880714D01*
X165846428Y-125214047D01*
X165894047Y-125404523D01*
X165989285Y-125499761D01*
X166084523Y-125547380D01*
X166275000Y-125547380D01*
X166370238Y-125499761D01*
X166465476Y-125404523D01*
X166513095Y-125214047D01*
X166513095Y-124880714D01*
X166465476Y-124690238D01*
X166370238Y-124595000D01*
X166275000Y-124547380D01*
X165465476Y-125499761D02*
X165322619Y-125547380D01*
X165084523Y-125547380D01*
X164989285Y-125499761D01*
X164941666Y-125452142D01*
X164894047Y-125356904D01*
X164894047Y-125261666D01*
X164941666Y-125166428D01*
X164989285Y-125118809D01*
X165084523Y-125071190D01*
X165275000Y-125023571D01*
X165370238Y-124975952D01*
X165417857Y-124928333D01*
X165465476Y-124833095D01*
X165465476Y-124737857D01*
X165417857Y-124642619D01*
X165370238Y-124595000D01*
X165275000Y-124547380D01*
X165036904Y-124547380D01*
X164894047Y-124595000D01*
X149407428Y-70762761D02*
X149502666Y-70810380D01*
X149693142Y-70810380D01*
X149788380Y-70762761D01*
X149836000Y-70715142D01*
X149883619Y-70619904D01*
X149883619Y-70334190D01*
X149836000Y-70238952D01*
X149788380Y-70191333D01*
X149693142Y-70143714D01*
X149502666Y-70143714D01*
X149407428Y-70191333D01*
X148550285Y-70810380D02*
X148550285Y-70286571D01*
X148597904Y-70191333D01*
X148693142Y-70143714D01*
X148883619Y-70143714D01*
X148978857Y-70191333D01*
X148550285Y-70762761D02*
X148645523Y-70810380D01*
X148883619Y-70810380D01*
X148978857Y-70762761D01*
X149026476Y-70667523D01*
X149026476Y-70572285D01*
X148978857Y-70477047D01*
X148883619Y-70429428D01*
X148645523Y-70429428D01*
X148550285Y-70381809D01*
X148074095Y-70143714D02*
X148074095Y-70810380D01*
X148074095Y-70238952D02*
X148026476Y-70191333D01*
X147931238Y-70143714D01*
X147788380Y-70143714D01*
X147693142Y-70191333D01*
X147645523Y-70286571D01*
X147645523Y-70810380D01*
X146693142Y-70810380D02*
X147169333Y-70810380D01*
X147169333Y-69810380D01*
X182738095Y-109928571D02*
X182404761Y-109928571D01*
X182261904Y-110452380D02*
X182738095Y-110452380D01*
X182738095Y-109452380D01*
X182261904Y-109452380D01*
X181833333Y-110452380D02*
X181833333Y-109452380D01*
X181261904Y-110452380D01*
X181261904Y-109452380D01*
X185880952Y-100166666D02*
X185404761Y-100166666D01*
X185976190Y-100452380D02*
X185642857Y-99452380D01*
X185309523Y-100452380D01*
X184976190Y-100452380D02*
X184976190Y-99452380D01*
X184500000Y-100452380D02*
X184500000Y-99452380D01*
X184166666Y-100166666D01*
X183833333Y-99452380D01*
X183833333Y-100452380D01*
X183404761Y-100166666D02*
X182928571Y-100166666D01*
X183500000Y-100452380D02*
X183166666Y-99452380D01*
X182833333Y-100452380D01*
X182500000Y-100452380D02*
X182500000Y-99452380D01*
X181928571Y-100452380D01*
X181928571Y-99452380D01*
X181595238Y-99452380D02*
X181023809Y-99452380D01*
X181309523Y-100452380D02*
X181309523Y-99452380D01*
X148510476Y-94638761D02*
X148605714Y-94686380D01*
X148796190Y-94686380D01*
X148891428Y-94638761D01*
X148939047Y-94591142D01*
X148986666Y-94495904D01*
X148986666Y-94210190D01*
X148939047Y-94114952D01*
X148891428Y-94067333D01*
X148796190Y-94019714D01*
X148605714Y-94019714D01*
X148510476Y-94067333D01*
X147653333Y-94686380D02*
X147653333Y-94162571D01*
X147700952Y-94067333D01*
X147796190Y-94019714D01*
X147986666Y-94019714D01*
X148081904Y-94067333D01*
X147653333Y-94638761D02*
X147748571Y-94686380D01*
X147986666Y-94686380D01*
X148081904Y-94638761D01*
X148129523Y-94543523D01*
X148129523Y-94448285D01*
X148081904Y-94353047D01*
X147986666Y-94305428D01*
X147748571Y-94305428D01*
X147653333Y-94257809D01*
X147177142Y-94019714D02*
X147177142Y-94686380D01*
X147177142Y-94114952D02*
X147129523Y-94067333D01*
X147034285Y-94019714D01*
X146891428Y-94019714D01*
X146796190Y-94067333D01*
X146748571Y-94162571D01*
X146748571Y-94686380D01*
X146272380Y-94686380D02*
X146272380Y-93686380D01*
X146272380Y-94162571D02*
X145700952Y-94162571D01*
X145700952Y-94686380D02*
X145700952Y-93686380D01*
X168640000Y-91892380D02*
X168640000Y-90892380D01*
X168401904Y-90892380D01*
X168259047Y-90940000D01*
X168163809Y-91035238D01*
X168116190Y-91130476D01*
X168068571Y-91320952D01*
X168068571Y-91463809D01*
X168116190Y-91654285D01*
X168163809Y-91749523D01*
X168259047Y-91844761D01*
X168401904Y-91892380D01*
X168640000Y-91892380D01*
X167640000Y-91892380D02*
X167640000Y-90892380D01*
X166592380Y-91892380D02*
X166925714Y-91416190D01*
X167163809Y-91892380D02*
X167163809Y-90892380D01*
X166782857Y-90892380D01*
X166687619Y-90940000D01*
X166640000Y-90987619D01*
X166592380Y-91082857D01*
X166592380Y-91225714D01*
X166640000Y-91320952D01*
X166687619Y-91368571D01*
X166782857Y-91416190D01*
X167163809Y-91416190D01*
X164459523Y-111177380D02*
X164459523Y-110177380D01*
X164126190Y-110891666D01*
X163792857Y-110177380D01*
X163792857Y-111177380D01*
X163364285Y-110272619D02*
X163316666Y-110225000D01*
X163221428Y-110177380D01*
X162983333Y-110177380D01*
X162888095Y-110225000D01*
X162840476Y-110272619D01*
X162792857Y-110367857D01*
X162792857Y-110463095D01*
X162840476Y-110605952D01*
X163411904Y-111177380D01*
X162792857Y-111177380D01*
X193293904Y-135644000D02*
X193389142Y-135596380D01*
X193532000Y-135596380D01*
X193674857Y-135644000D01*
X193770095Y-135739238D01*
X193817714Y-135834476D01*
X193865333Y-136024952D01*
X193865333Y-136167809D01*
X193817714Y-136358285D01*
X193770095Y-136453523D01*
X193674857Y-136548761D01*
X193532000Y-136596380D01*
X193436761Y-136596380D01*
X193293904Y-136548761D01*
X193246285Y-136501142D01*
X193246285Y-136167809D01*
X193436761Y-136167809D01*
X192817714Y-136596380D02*
X192817714Y-135596380D01*
X192246285Y-136596380D01*
X192246285Y-135596380D01*
X191770095Y-136596380D02*
X191770095Y-135596380D01*
X191532000Y-135596380D01*
X191389142Y-135644000D01*
X191293904Y-135739238D01*
X191246285Y-135834476D01*
X191198666Y-136024952D01*
X191198666Y-136167809D01*
X191246285Y-136358285D01*
X191293904Y-136453523D01*
X191389142Y-136548761D01*
X191532000Y-136596380D01*
X191770095Y-136596380D01*
X186690476Y-95202380D02*
X186690476Y-94202380D01*
X186357142Y-94916666D01*
X186023809Y-94202380D01*
X186023809Y-95202380D01*
X185547619Y-94678571D02*
X185214285Y-94678571D01*
X185071428Y-95202380D02*
X185547619Y-95202380D01*
X185547619Y-94202380D01*
X185071428Y-94202380D01*
X184690476Y-95154761D02*
X184547619Y-95202380D01*
X184309523Y-95202380D01*
X184214285Y-95154761D01*
X184166666Y-95107142D01*
X184119047Y-95011904D01*
X184119047Y-94916666D01*
X184166666Y-94821428D01*
X184214285Y-94773809D01*
X184309523Y-94726190D01*
X184500000Y-94678571D01*
X184595238Y-94630952D01*
X184642857Y-94583333D01*
X184690476Y-94488095D01*
X184690476Y-94392857D01*
X184642857Y-94297619D01*
X184595238Y-94250000D01*
X184500000Y-94202380D01*
X184261904Y-94202380D01*
X184119047Y-94250000D01*
X183119047Y-95202380D02*
X183452380Y-94726190D01*
X183690476Y-95202380D02*
X183690476Y-94202380D01*
X183309523Y-94202380D01*
X183214285Y-94250000D01*
X183166666Y-94297619D01*
X183119047Y-94392857D01*
X183119047Y-94535714D01*
X183166666Y-94630952D01*
X183214285Y-94678571D01*
X183309523Y-94726190D01*
X183690476Y-94726190D01*
X182690476Y-94678571D02*
X182357142Y-94678571D01*
X182214285Y-95202380D02*
X182690476Y-95202380D01*
X182690476Y-94202380D01*
X182214285Y-94202380D01*
X181833333Y-95154761D02*
X181690476Y-95202380D01*
X181452380Y-95202380D01*
X181357142Y-95154761D01*
X181309523Y-95107142D01*
X181261904Y-95011904D01*
X181261904Y-94916666D01*
X181309523Y-94821428D01*
X181357142Y-94773809D01*
X181452380Y-94726190D01*
X181642857Y-94678571D01*
X181738095Y-94630952D01*
X181785714Y-94583333D01*
X181833333Y-94488095D01*
X181833333Y-94392857D01*
X181785714Y-94297619D01*
X181738095Y-94250000D01*
X181642857Y-94202380D01*
X181404761Y-94202380D01*
X181261904Y-94250000D01*
X197048000Y-125833142D02*
X197095619Y-125880761D01*
X197238476Y-125928380D01*
X197333714Y-125928380D01*
X197476571Y-125880761D01*
X197571809Y-125785523D01*
X197619428Y-125690285D01*
X197667047Y-125499809D01*
X197667047Y-125356952D01*
X197619428Y-125166476D01*
X197571809Y-125071238D01*
X197476571Y-124976000D01*
X197333714Y-124928380D01*
X197238476Y-124928380D01*
X197095619Y-124976000D01*
X197048000Y-125023619D01*
X196619428Y-125928380D02*
X196619428Y-125261714D01*
X196619428Y-125356952D02*
X196571809Y-125309333D01*
X196476571Y-125261714D01*
X196333714Y-125261714D01*
X196238476Y-125309333D01*
X196190857Y-125404571D01*
X196190857Y-125928380D01*
X196190857Y-125404571D02*
X196143238Y-125309333D01*
X196048000Y-125261714D01*
X195905142Y-125261714D01*
X195809904Y-125309333D01*
X195762285Y-125404571D01*
X195762285Y-125928380D01*
X194857523Y-125928380D02*
X194857523Y-124928380D01*
X194857523Y-125880761D02*
X194952761Y-125928380D01*
X195143238Y-125928380D01*
X195238476Y-125880761D01*
X195286095Y-125833142D01*
X195333714Y-125737904D01*
X195333714Y-125452190D01*
X195286095Y-125356952D01*
X195238476Y-125309333D01*
X195143238Y-125261714D01*
X194952761Y-125261714D01*
X194857523Y-125309333D01*
X193762285Y-124928380D02*
X193190857Y-124928380D01*
X193476571Y-125928380D02*
X193476571Y-124928380D01*
X192286095Y-125928380D02*
X192619428Y-125452190D01*
X192857523Y-125928380D02*
X192857523Y-124928380D01*
X192476571Y-124928380D01*
X192381333Y-124976000D01*
X192333714Y-125023619D01*
X192286095Y-125118857D01*
X192286095Y-125261714D01*
X192333714Y-125356952D01*
X192381333Y-125404571D01*
X192476571Y-125452190D01*
X192857523Y-125452190D01*
X191905142Y-125642666D02*
X191428952Y-125642666D01*
X192000380Y-125928380D02*
X191667047Y-124928380D01*
X191333714Y-125928380D01*
X191000380Y-125928380D02*
X191000380Y-124928380D01*
X190428952Y-125928380D01*
X190428952Y-124928380D01*
X190000380Y-125880761D02*
X189857523Y-125928380D01*
X189619428Y-125928380D01*
X189524190Y-125880761D01*
X189476571Y-125833142D01*
X189428952Y-125737904D01*
X189428952Y-125642666D01*
X189476571Y-125547428D01*
X189524190Y-125499809D01*
X189619428Y-125452190D01*
X189809904Y-125404571D01*
X189905142Y-125356952D01*
X189952761Y-125309333D01*
X190000380Y-125214095D01*
X190000380Y-125118857D01*
X189952761Y-125023619D01*
X189905142Y-124976000D01*
X189809904Y-124928380D01*
X189571809Y-124928380D01*
X189428952Y-124976000D01*
X159897619Y-73792857D02*
X158897619Y-73459523D01*
X159897619Y-73126190D01*
X159278571Y-72792857D02*
X159278571Y-72030952D01*
X158897619Y-72411904D02*
X159659523Y-72411904D01*
X159421428Y-71221428D02*
X159373809Y-71078571D01*
X159326190Y-71030952D01*
X159230952Y-70983333D01*
X159088095Y-70983333D01*
X158992857Y-71030952D01*
X158945238Y-71078571D01*
X158897619Y-71173809D01*
X158897619Y-71554761D01*
X159897619Y-71554761D01*
X159897619Y-71221428D01*
X159850000Y-71126190D01*
X159802380Y-71078571D01*
X159707142Y-71030952D01*
X159611904Y-71030952D01*
X159516666Y-71078571D01*
X159469047Y-71126190D01*
X159421428Y-71221428D01*
X159421428Y-71554761D01*
X159183333Y-70602380D02*
X159183333Y-70126190D01*
X158897619Y-70697619D02*
X159897619Y-70364285D01*
X158897619Y-70030952D01*
X159897619Y-69840476D02*
X159897619Y-69269047D01*
X158897619Y-69554761D02*
X159897619Y-69554761D01*
X159897619Y-69078571D02*
X159897619Y-68507142D01*
X158897619Y-68792857D02*
X159897619Y-68792857D01*
X157042857Y-72928571D02*
X156995238Y-72976190D01*
X156947619Y-73119047D01*
X156947619Y-73214285D01*
X156995238Y-73357142D01*
X157090476Y-73452380D01*
X157185714Y-73500000D01*
X157376190Y-73547619D01*
X157519047Y-73547619D01*
X157709523Y-73500000D01*
X157804761Y-73452380D01*
X157900000Y-73357142D01*
X157947619Y-73214285D01*
X157947619Y-73119047D01*
X157900000Y-72976190D01*
X157852380Y-72928571D01*
X157233333Y-72547619D02*
X157233333Y-72071428D01*
X156947619Y-72642857D02*
X157947619Y-72309523D01*
X156947619Y-71976190D01*
X156947619Y-71642857D02*
X157947619Y-71642857D01*
X156947619Y-71071428D01*
X157947619Y-71071428D01*
X156852380Y-70833333D02*
X156852380Y-70071428D01*
X156947619Y-69357142D02*
X156947619Y-69833333D01*
X157947619Y-69833333D01*
X184642857Y-85154761D02*
X184500000Y-85202380D01*
X184261904Y-85202380D01*
X184166666Y-85154761D01*
X184119047Y-85107142D01*
X184071428Y-85011904D01*
X184071428Y-84916666D01*
X184119047Y-84821428D01*
X184166666Y-84773809D01*
X184261904Y-84726190D01*
X184452380Y-84678571D01*
X184547619Y-84630952D01*
X184595238Y-84583333D01*
X184642857Y-84488095D01*
X184642857Y-84392857D01*
X184595238Y-84297619D01*
X184547619Y-84250000D01*
X184452380Y-84202380D01*
X184214285Y-84202380D01*
X184071428Y-84250000D01*
X183785714Y-84202380D02*
X183214285Y-84202380D01*
X183500000Y-85202380D02*
X183500000Y-84202380D01*
X182880952Y-85202380D02*
X182880952Y-84202380D01*
X182500000Y-84202380D01*
X182404761Y-84250000D01*
X182357142Y-84297619D01*
X182309523Y-84392857D01*
X182309523Y-84535714D01*
X182357142Y-84630952D01*
X182404761Y-84678571D01*
X182500000Y-84726190D01*
X182880952Y-84726190D01*
X181357142Y-85202380D02*
X181928571Y-85202380D01*
X181642857Y-85202380D02*
X181642857Y-84202380D01*
X181738095Y-84345238D01*
X181833333Y-84440476D01*
X181928571Y-84488095D01*
X159600000Y-63261904D02*
X159647619Y-63357142D01*
X159647619Y-63500000D01*
X159600000Y-63642857D01*
X159504761Y-63738095D01*
X159409523Y-63785714D01*
X159219047Y-63833333D01*
X159076190Y-63833333D01*
X158885714Y-63785714D01*
X158790476Y-63738095D01*
X158695238Y-63642857D01*
X158647619Y-63500000D01*
X158647619Y-63404761D01*
X158695238Y-63261904D01*
X158742857Y-63214285D01*
X159076190Y-63214285D01*
X159076190Y-63404761D01*
X158647619Y-62785714D02*
X159647619Y-62785714D01*
X158647619Y-62214285D01*
X159647619Y-62214285D01*
X158647619Y-61738095D02*
X159647619Y-61738095D01*
X159647619Y-61500000D01*
X159600000Y-61357142D01*
X159504761Y-61261904D01*
X159409523Y-61214285D01*
X159219047Y-61166666D01*
X159076190Y-61166666D01*
X158885714Y-61214285D01*
X158790476Y-61261904D01*
X158695238Y-61357142D01*
X158647619Y-61500000D01*
X158647619Y-61738095D01*
%TO.C,C4*%
X199266666Y-96457142D02*
X199314285Y-96504761D01*
X199457142Y-96552380D01*
X199552380Y-96552380D01*
X199695238Y-96504761D01*
X199790476Y-96409523D01*
X199838095Y-96314285D01*
X199885714Y-96123809D01*
X199885714Y-95980952D01*
X199838095Y-95790476D01*
X199790476Y-95695238D01*
X199695238Y-95600000D01*
X199552380Y-95552380D01*
X199457142Y-95552380D01*
X199314285Y-95600000D01*
X199266666Y-95647619D01*
X198409523Y-95885714D02*
X198409523Y-96552380D01*
X198647619Y-95504761D02*
X198885714Y-96219047D01*
X198266666Y-96219047D01*
%TO.C,C1*%
X152805666Y-92278142D02*
X152853285Y-92325761D01*
X152996142Y-92373380D01*
X153091380Y-92373380D01*
X153234238Y-92325761D01*
X153329476Y-92230523D01*
X153377095Y-92135285D01*
X153424714Y-91944809D01*
X153424714Y-91801952D01*
X153377095Y-91611476D01*
X153329476Y-91516238D01*
X153234238Y-91421000D01*
X153091380Y-91373380D01*
X152996142Y-91373380D01*
X152853285Y-91421000D01*
X152805666Y-91468619D01*
X151853285Y-92373380D02*
X152424714Y-92373380D01*
X152139000Y-92373380D02*
X152139000Y-91373380D01*
X152234238Y-91516238D01*
X152329476Y-91611476D01*
X152424714Y-91659095D01*
%TO.C,C2*%
X152955666Y-95153142D02*
X153003285Y-95200761D01*
X153146142Y-95248380D01*
X153241380Y-95248380D01*
X153384238Y-95200761D01*
X153479476Y-95105523D01*
X153527095Y-95010285D01*
X153574714Y-94819809D01*
X153574714Y-94676952D01*
X153527095Y-94486476D01*
X153479476Y-94391238D01*
X153384238Y-94296000D01*
X153241380Y-94248380D01*
X153146142Y-94248380D01*
X153003285Y-94296000D01*
X152955666Y-94343619D01*
X152574714Y-94343619D02*
X152527095Y-94296000D01*
X152431857Y-94248380D01*
X152193761Y-94248380D01*
X152098523Y-94296000D01*
X152050904Y-94343619D01*
X152003285Y-94438857D01*
X152003285Y-94534095D01*
X152050904Y-94676952D01*
X152622333Y-95248380D01*
X152003285Y-95248380D01*
%TO.C,C3*%
X199166666Y-90007142D02*
X199214285Y-90054761D01*
X199357142Y-90102380D01*
X199452380Y-90102380D01*
X199595238Y-90054761D01*
X199690476Y-89959523D01*
X199738095Y-89864285D01*
X199785714Y-89673809D01*
X199785714Y-89530952D01*
X199738095Y-89340476D01*
X199690476Y-89245238D01*
X199595238Y-89150000D01*
X199452380Y-89102380D01*
X199357142Y-89102380D01*
X199214285Y-89150000D01*
X199166666Y-89197619D01*
X198833333Y-89102380D02*
X198214285Y-89102380D01*
X198547619Y-89483333D01*
X198404761Y-89483333D01*
X198309523Y-89530952D01*
X198261904Y-89578571D01*
X198214285Y-89673809D01*
X198214285Y-89911904D01*
X198261904Y-90007142D01*
X198309523Y-90054761D01*
X198404761Y-90102380D01*
X198690476Y-90102380D01*
X198785714Y-90054761D01*
X198833333Y-90007142D01*
D11*
%TO.C,TP9*%
X171380000Y-97790000D02*
G75*
G03*
X171380000Y-97790000I-1200000J0D01*
G01*
%TO.C,C4*%
X199711252Y-94910000D02*
X198288748Y-94910000D01*
X199711252Y-93090000D02*
X198288748Y-93090000D01*
%TO.C,C1*%
X157100252Y-91086000D02*
X155677748Y-91086000D01*
X157100252Y-92906000D02*
X155677748Y-92906000D01*
%TO.C,TP3*%
X172142000Y-64770000D02*
G75*
G03*
X172142000Y-64770000I-1200000J0D01*
G01*
%TO.C,TP11*%
X175190000Y-106045000D02*
G75*
G03*
X175190000Y-106045000I-1200000J0D01*
G01*
%TO.C,TP13*%
X169475000Y-127635000D02*
G75*
G03*
X169475000Y-127635000I-1200000J0D01*
G01*
%TO.C,TP16*%
X191446000Y-117602000D02*
G75*
G03*
X191446000Y-117602000I-1200000J0D01*
G01*
%TO.C,TP5*%
X149536000Y-72644000D02*
G75*
G03*
X149536000Y-72644000I-1200000J0D01*
G01*
%TO.C,TP1*%
X153600000Y-126746000D02*
G75*
G03*
X153600000Y-126746000I-1200000J0D01*
G01*
%TO.C,TP14*%
X157170000Y-86360000D02*
G75*
G03*
X157170000Y-86360000I-1200000J0D01*
G01*
%TO.C,C2*%
X157175252Y-94086000D02*
X155752748Y-94086000D01*
X157175252Y-95906000D02*
X155752748Y-95906000D01*
%TO.C,TP10*%
X173920000Y-111125000D02*
G75*
G03*
X173920000Y-111125000I-1200000J0D01*
G01*
%TO.C,TP2*%
X190430000Y-135636000D02*
G75*
G03*
X190430000Y-135636000I-1200000J0D01*
G01*
%TO.C,TP8*%
X168840000Y-93345000D02*
G75*
G03*
X168840000Y-93345000I-1200000J0D01*
G01*
%TO.C,TP15*%
X164395000Y-89535000D02*
G75*
G03*
X164395000Y-89535000I-1200000J0D01*
G01*
%TO.C,C3*%
X199711252Y-90590000D02*
X198288748Y-90590000D01*
X199711252Y-92410000D02*
X198288748Y-92410000D01*
%TO.C,TP4*%
X148520000Y-92202000D02*
G75*
G03*
X148520000Y-92202000I-1200000J0D01*
G01*
%TO.C,TP12*%
X188906000Y-126492000D02*
G75*
G03*
X188906000Y-126492000I-1200000J0D01*
G01*
%TO.C,TP6*%
X145218000Y-70612000D02*
G75*
G03*
X145218000Y-70612000I-1200000J0D01*
G01*
%TO.C,TP7*%
X171380000Y-115570000D02*
G75*
G03*
X171380000Y-115570000I-1200000J0D01*
G01*
%TD*%
%LPC*%
D12*
%TO.C,TEST_RES1*%
X175006000Y-69596000D03*
D13*
X175006000Y-72136000D03*
%TD*%
D14*
%TO.C,D1*%
X152400000Y-134112000D03*
D15*
X152400000Y-121412000D03*
%TD*%
D16*
%TO.C,Electroaimant1*%
X145939000Y-126973000D03*
D17*
X145939000Y-128973000D03*
%TD*%
D18*
%TO.C,SERVO1*%
X159400000Y-66000000D03*
D19*
X161400000Y-66000000D03*
X163400000Y-66000000D03*
%TD*%
D20*
%TO.C,U1*%
X152870000Y-89300000D03*
D21*
X155410000Y-89300000D03*
X157950000Y-89300000D03*
X160490000Y-89300000D03*
X160490000Y-81680000D03*
X157950000Y-81680000D03*
X155410000Y-81680000D03*
X152870000Y-81680000D03*
%TD*%
D12*
%TO.C,C5*%
X146685000Y-115880000D03*
D22*
X146685000Y-119380000D03*
%TD*%
D23*
%TO.C,Transistor2*%
X173830000Y-130302000D03*
D12*
X157170000Y-127762000D03*
D13*
X157170000Y-130302000D03*
X157170000Y-132842000D03*
%TD*%
D24*
%TO.C,R3*%
X186182000Y-129032000D03*
D21*
X196342000Y-129032000D03*
%TD*%
D12*
%TO.C,DRIVER1*%
X166350000Y-97930000D03*
D25*
X166350000Y-100470000D03*
X166350000Y-103010000D03*
X166350000Y-105550000D03*
X166350000Y-108090000D03*
X166350000Y-110630000D03*
X166350000Y-113170000D03*
X166350000Y-115710000D03*
D26*
X153650000Y-115710000D03*
D25*
X153650000Y-113170000D03*
X153650000Y-110630000D03*
X153650000Y-108090000D03*
X153650000Y-105550000D03*
X153650000Y-103010000D03*
X153650000Y-100470000D03*
X153650000Y-97930000D03*
%TD*%
D12*
%TO.C,MotPasAPas1*%
X145948400Y-110620000D03*
D13*
X145948400Y-108080000D03*
X145948400Y-105540000D03*
X145948400Y-103000000D03*
%TD*%
D27*
%TO.C,Q1*%
X181123000Y-127635000D03*
D28*
X181123000Y-129159000D03*
X181123000Y-130683000D03*
%TD*%
D29*
%TO.C,REF\u002A\u002A*%
X200000000Y-136000000D03*
%TD*%
D24*
%TO.C,R4*%
X187706000Y-123190000D03*
D21*
X187706000Y-113030000D03*
%TD*%
D29*
%TO.C,REF\u002A\u002A*%
X143000000Y-63000000D03*
%TD*%
%TO.C,REF\u002A\u002A*%
X143000000Y-136000000D03*
%TD*%
D24*
%TO.C,R1*%
X162306000Y-123190000D03*
D21*
X172466000Y-123190000D03*
%TD*%
D12*
%TO.C,STM32FM303K8*%
X179410600Y-82140000D03*
D25*
X179410600Y-84680000D03*
X179410600Y-87220000D03*
X179410600Y-89760000D03*
X179410600Y-92300000D03*
X179410600Y-94840000D03*
X179410600Y-97380000D03*
X179410600Y-99920000D03*
X179410600Y-102460000D03*
X179410600Y-105000000D03*
X179410600Y-107540000D03*
X179410600Y-110080000D03*
X179410600Y-112620000D03*
X179410600Y-115160000D03*
X179410600Y-117700000D03*
D12*
X194650600Y-82140000D03*
D25*
X194650600Y-84680000D03*
X194650600Y-87220000D03*
X194650600Y-89760000D03*
X194650600Y-92300000D03*
X194650600Y-94840000D03*
X194650600Y-97380000D03*
X194650600Y-99920000D03*
X194650600Y-102460000D03*
X194650600Y-105000000D03*
X194650600Y-107540000D03*
X194650600Y-110080000D03*
X194650600Y-112620000D03*
X194650600Y-115160000D03*
X194650600Y-117700000D03*
%TD*%
%TO.C,*%
X189230000Y-135636000D03*
%TD*%
D18*
%TO.C,BUS_CAN1*%
X153429200Y-75497600D03*
D19*
X155429200Y-75497600D03*
X157429200Y-75497600D03*
X159429200Y-75497600D03*
X161429200Y-75497600D03*
%TD*%
D29*
%TO.C,REF\u002A\u002A*%
X200000000Y-63000000D03*
%TD*%
D22*
%TO.C,R2*%
X147200000Y-88750000D03*
D30*
X147200000Y-76050000D03*
%TD*%
D24*
%TO.C,RESISTANCE1*%
X189865000Y-69850000D03*
D21*
X179705000Y-69850000D03*
%TD*%
D25*
%TO.C,TP9*%
X170180000Y-97790000D03*
%TD*%
D31*
%TO.C,C4*%
X200475000Y-94000000D03*
X197525000Y-94000000D03*
%TD*%
%TO.C,C1*%
X157864000Y-91996000D03*
X154914000Y-91996000D03*
%TD*%
D25*
%TO.C,TP3*%
X170942000Y-64770000D03*
%TD*%
%TO.C,TP11*%
X173990000Y-106045000D03*
%TD*%
%TO.C,TP13*%
X168275000Y-127635000D03*
%TD*%
%TO.C,TP16*%
X190246000Y-117602000D03*
%TD*%
%TO.C,TP5*%
X148336000Y-72644000D03*
%TD*%
%TO.C,TP1*%
X152400000Y-126746000D03*
%TD*%
%TO.C,TP14*%
X155970000Y-86360000D03*
%TD*%
D31*
%TO.C,C2*%
X157939000Y-94996000D03*
X154989000Y-94996000D03*
%TD*%
D25*
%TO.C,TP10*%
X172720000Y-111125000D03*
%TD*%
%TO.C,TP2*%
X189230000Y-135636000D03*
%TD*%
%TO.C,TP8*%
X167640000Y-93345000D03*
%TD*%
%TO.C,TP15*%
X163195000Y-89535000D03*
%TD*%
D31*
%TO.C,C3*%
X200475000Y-91500000D03*
X197525000Y-91500000D03*
%TD*%
D25*
%TO.C,TP4*%
X147320000Y-92202000D03*
%TD*%
%TO.C,TP12*%
X187706000Y-126492000D03*
%TD*%
%TO.C,TP6*%
X144018000Y-70612000D03*
%TD*%
%TO.C,TP7*%
X170180000Y-115570000D03*
%TD*%
M02*
