G04 #@! TF.GenerationSoftware,KiCad,Pcbnew,(5.1.5)-3*
G04 #@! TF.CreationDate,2019-12-18T01:06:06+01:00*
G04 #@! TF.ProjectId,CarteMoteur,43617274-654d-46f7-9465-75722e6b6963,rev?*
G04 #@! TF.SameCoordinates,Original*
G04 #@! TF.FileFunction,Copper,L4,Bot*
G04 #@! TF.FilePolarity,Positive*
%FSLAX46Y46*%
G04 Gerber Fmt 4.6, Leading zero omitted, Abs format (unit mm)*
G04 Created by KiCad (PCBNEW (5.1.5)-3) date 2019-12-18 01:06:06*
%MOMM*%
%LPD*%
G04 APERTURE LIST*
%ADD10C,1.700000*%
%ADD11C,0.100000*%
%ADD12C,2.000000*%
%ADD13O,1.700000X1.700000*%
%ADD14R,1.700000X1.700000*%
%ADD15O,1.500000X2.020000*%
%ADD16O,1.200000X1.750000*%
%ADD17C,0.800000*%
%ADD18C,1.000000*%
%ADD19C,0.400000*%
%ADD20C,0.254000*%
G04 APERTURE END LIST*
D10*
X164512000Y-36390000D03*
X162012000Y-36390000D03*
X159512000Y-36390000D03*
X164512000Y-38890000D03*
X162012000Y-38890000D03*
G04 #@! TA.AperFunction,ComponentPad*
D11*
G36*
X160136504Y-38041204D02*
G01*
X160160773Y-38044804D01*
X160184571Y-38050765D01*
X160207671Y-38059030D01*
X160229849Y-38069520D01*
X160250893Y-38082133D01*
X160270598Y-38096747D01*
X160288777Y-38113223D01*
X160305253Y-38131402D01*
X160319867Y-38151107D01*
X160332480Y-38172151D01*
X160342970Y-38194329D01*
X160351235Y-38217429D01*
X160357196Y-38241227D01*
X160360796Y-38265496D01*
X160362000Y-38290000D01*
X160362000Y-39490000D01*
X160360796Y-39514504D01*
X160357196Y-39538773D01*
X160351235Y-39562571D01*
X160342970Y-39585671D01*
X160332480Y-39607849D01*
X160319867Y-39628893D01*
X160305253Y-39648598D01*
X160288777Y-39666777D01*
X160270598Y-39683253D01*
X160250893Y-39697867D01*
X160229849Y-39710480D01*
X160207671Y-39720970D01*
X160184571Y-39729235D01*
X160160773Y-39735196D01*
X160136504Y-39738796D01*
X160112000Y-39740000D01*
X158912000Y-39740000D01*
X158887496Y-39738796D01*
X158863227Y-39735196D01*
X158839429Y-39729235D01*
X158816329Y-39720970D01*
X158794151Y-39710480D01*
X158773107Y-39697867D01*
X158753402Y-39683253D01*
X158735223Y-39666777D01*
X158718747Y-39648598D01*
X158704133Y-39628893D01*
X158691520Y-39607849D01*
X158681030Y-39585671D01*
X158672765Y-39562571D01*
X158666804Y-39538773D01*
X158663204Y-39514504D01*
X158662000Y-39490000D01*
X158662000Y-38290000D01*
X158663204Y-38265496D01*
X158666804Y-38241227D01*
X158672765Y-38217429D01*
X158681030Y-38194329D01*
X158691520Y-38172151D01*
X158704133Y-38151107D01*
X158718747Y-38131402D01*
X158735223Y-38113223D01*
X158753402Y-38096747D01*
X158773107Y-38082133D01*
X158794151Y-38069520D01*
X158816329Y-38059030D01*
X158839429Y-38050765D01*
X158863227Y-38044804D01*
X158887496Y-38041204D01*
X158912000Y-38040000D01*
X160112000Y-38040000D01*
X160136504Y-38041204D01*
G37*
G04 #@! TD.AperFunction*
D10*
X154860000Y-36390000D03*
X152360000Y-36390000D03*
X149860000Y-36390000D03*
X154860000Y-38890000D03*
X152360000Y-38890000D03*
G04 #@! TA.AperFunction,ComponentPad*
D11*
G36*
X150484504Y-38041204D02*
G01*
X150508773Y-38044804D01*
X150532571Y-38050765D01*
X150555671Y-38059030D01*
X150577849Y-38069520D01*
X150598893Y-38082133D01*
X150618598Y-38096747D01*
X150636777Y-38113223D01*
X150653253Y-38131402D01*
X150667867Y-38151107D01*
X150680480Y-38172151D01*
X150690970Y-38194329D01*
X150699235Y-38217429D01*
X150705196Y-38241227D01*
X150708796Y-38265496D01*
X150710000Y-38290000D01*
X150710000Y-39490000D01*
X150708796Y-39514504D01*
X150705196Y-39538773D01*
X150699235Y-39562571D01*
X150690970Y-39585671D01*
X150680480Y-39607849D01*
X150667867Y-39628893D01*
X150653253Y-39648598D01*
X150636777Y-39666777D01*
X150618598Y-39683253D01*
X150598893Y-39697867D01*
X150577849Y-39710480D01*
X150555671Y-39720970D01*
X150532571Y-39729235D01*
X150508773Y-39735196D01*
X150484504Y-39738796D01*
X150460000Y-39740000D01*
X149260000Y-39740000D01*
X149235496Y-39738796D01*
X149211227Y-39735196D01*
X149187429Y-39729235D01*
X149164329Y-39720970D01*
X149142151Y-39710480D01*
X149121107Y-39697867D01*
X149101402Y-39683253D01*
X149083223Y-39666777D01*
X149066747Y-39648598D01*
X149052133Y-39628893D01*
X149039520Y-39607849D01*
X149029030Y-39585671D01*
X149020765Y-39562571D01*
X149014804Y-39538773D01*
X149011204Y-39514504D01*
X149010000Y-39490000D01*
X149010000Y-38290000D01*
X149011204Y-38265496D01*
X149014804Y-38241227D01*
X149020765Y-38217429D01*
X149029030Y-38194329D01*
X149039520Y-38172151D01*
X149052133Y-38151107D01*
X149066747Y-38131402D01*
X149083223Y-38113223D01*
X149101402Y-38096747D01*
X149121107Y-38082133D01*
X149142151Y-38069520D01*
X149164329Y-38059030D01*
X149187429Y-38050765D01*
X149211227Y-38044804D01*
X149235496Y-38041204D01*
X149260000Y-38040000D01*
X150460000Y-38040000D01*
X150484504Y-38041204D01*
G37*
G04 #@! TD.AperFunction*
D12*
X95758000Y-36902000D03*
X95758000Y-41402000D03*
X89258000Y-36902000D03*
X89258000Y-41402000D03*
D13*
X118872000Y-29972000D03*
X121412000Y-29972000D03*
D14*
X123952000Y-29972000D03*
D15*
X108150000Y-34000000D03*
X105150000Y-34000000D03*
X102150000Y-34000000D03*
G04 #@! TA.AperFunction,ComponentPad*
D11*
G36*
X99674504Y-32991204D02*
G01*
X99698773Y-32994804D01*
X99722571Y-33000765D01*
X99745671Y-33009030D01*
X99767849Y-33019520D01*
X99788893Y-33032133D01*
X99808598Y-33046747D01*
X99826777Y-33063223D01*
X99843253Y-33081402D01*
X99857867Y-33101107D01*
X99870480Y-33122151D01*
X99880970Y-33144329D01*
X99889235Y-33167429D01*
X99895196Y-33191227D01*
X99898796Y-33215496D01*
X99900000Y-33240000D01*
X99900000Y-34760000D01*
X99898796Y-34784504D01*
X99895196Y-34808773D01*
X99889235Y-34832571D01*
X99880970Y-34855671D01*
X99870480Y-34877849D01*
X99857867Y-34898893D01*
X99843253Y-34918598D01*
X99826777Y-34936777D01*
X99808598Y-34953253D01*
X99788893Y-34967867D01*
X99767849Y-34980480D01*
X99745671Y-34990970D01*
X99722571Y-34999235D01*
X99698773Y-35005196D01*
X99674504Y-35008796D01*
X99650000Y-35010000D01*
X98650000Y-35010000D01*
X98625496Y-35008796D01*
X98601227Y-35005196D01*
X98577429Y-34999235D01*
X98554329Y-34990970D01*
X98532151Y-34980480D01*
X98511107Y-34967867D01*
X98491402Y-34953253D01*
X98473223Y-34936777D01*
X98456747Y-34918598D01*
X98442133Y-34898893D01*
X98429520Y-34877849D01*
X98419030Y-34855671D01*
X98410765Y-34832571D01*
X98404804Y-34808773D01*
X98401204Y-34784504D01*
X98400000Y-34760000D01*
X98400000Y-33240000D01*
X98401204Y-33215496D01*
X98404804Y-33191227D01*
X98410765Y-33167429D01*
X98419030Y-33144329D01*
X98429520Y-33122151D01*
X98442133Y-33101107D01*
X98456747Y-33081402D01*
X98473223Y-33063223D01*
X98491402Y-33046747D01*
X98511107Y-33032133D01*
X98532151Y-33019520D01*
X98554329Y-33009030D01*
X98577429Y-33000765D01*
X98601227Y-32994804D01*
X98625496Y-32991204D01*
X98650000Y-32990000D01*
X99650000Y-32990000D01*
X99674504Y-32991204D01*
G37*
G04 #@! TD.AperFunction*
D16*
X168000000Y-70000000D03*
X166000000Y-70000000D03*
X164000000Y-70000000D03*
G04 #@! TA.AperFunction,ComponentPad*
D11*
G36*
X162374505Y-69126204D02*
G01*
X162398773Y-69129804D01*
X162422572Y-69135765D01*
X162445671Y-69144030D01*
X162467850Y-69154520D01*
X162488893Y-69167132D01*
X162508599Y-69181747D01*
X162526777Y-69198223D01*
X162543253Y-69216401D01*
X162557868Y-69236107D01*
X162570480Y-69257150D01*
X162580970Y-69279329D01*
X162589235Y-69302428D01*
X162595196Y-69326227D01*
X162598796Y-69350495D01*
X162600000Y-69374999D01*
X162600000Y-70625001D01*
X162598796Y-70649505D01*
X162595196Y-70673773D01*
X162589235Y-70697572D01*
X162580970Y-70720671D01*
X162570480Y-70742850D01*
X162557868Y-70763893D01*
X162543253Y-70783599D01*
X162526777Y-70801777D01*
X162508599Y-70818253D01*
X162488893Y-70832868D01*
X162467850Y-70845480D01*
X162445671Y-70855970D01*
X162422572Y-70864235D01*
X162398773Y-70870196D01*
X162374505Y-70873796D01*
X162350001Y-70875000D01*
X161649999Y-70875000D01*
X161625495Y-70873796D01*
X161601227Y-70870196D01*
X161577428Y-70864235D01*
X161554329Y-70855970D01*
X161532150Y-70845480D01*
X161511107Y-70832868D01*
X161491401Y-70818253D01*
X161473223Y-70801777D01*
X161456747Y-70783599D01*
X161442132Y-70763893D01*
X161429520Y-70742850D01*
X161419030Y-70720671D01*
X161410765Y-70697572D01*
X161404804Y-70673773D01*
X161401204Y-70649505D01*
X161400000Y-70625001D01*
X161400000Y-69374999D01*
X161401204Y-69350495D01*
X161404804Y-69326227D01*
X161410765Y-69302428D01*
X161419030Y-69279329D01*
X161429520Y-69257150D01*
X161442132Y-69236107D01*
X161456747Y-69216401D01*
X161473223Y-69198223D01*
X161491401Y-69181747D01*
X161511107Y-69167132D01*
X161532150Y-69154520D01*
X161554329Y-69144030D01*
X161577428Y-69135765D01*
X161601227Y-69129804D01*
X161625495Y-69126204D01*
X161649999Y-69125000D01*
X162350001Y-69125000D01*
X162374505Y-69126204D01*
G37*
G04 #@! TD.AperFunction*
D16*
X146328000Y-70000000D03*
X144328000Y-70000000D03*
X142328000Y-70000000D03*
G04 #@! TA.AperFunction,ComponentPad*
D11*
G36*
X140702505Y-69126204D02*
G01*
X140726773Y-69129804D01*
X140750572Y-69135765D01*
X140773671Y-69144030D01*
X140795850Y-69154520D01*
X140816893Y-69167132D01*
X140836599Y-69181747D01*
X140854777Y-69198223D01*
X140871253Y-69216401D01*
X140885868Y-69236107D01*
X140898480Y-69257150D01*
X140908970Y-69279329D01*
X140917235Y-69302428D01*
X140923196Y-69326227D01*
X140926796Y-69350495D01*
X140928000Y-69374999D01*
X140928000Y-70625001D01*
X140926796Y-70649505D01*
X140923196Y-70673773D01*
X140917235Y-70697572D01*
X140908970Y-70720671D01*
X140898480Y-70742850D01*
X140885868Y-70763893D01*
X140871253Y-70783599D01*
X140854777Y-70801777D01*
X140836599Y-70818253D01*
X140816893Y-70832868D01*
X140795850Y-70845480D01*
X140773671Y-70855970D01*
X140750572Y-70864235D01*
X140726773Y-70870196D01*
X140702505Y-70873796D01*
X140678001Y-70875000D01*
X139977999Y-70875000D01*
X139953495Y-70873796D01*
X139929227Y-70870196D01*
X139905428Y-70864235D01*
X139882329Y-70855970D01*
X139860150Y-70845480D01*
X139839107Y-70832868D01*
X139819401Y-70818253D01*
X139801223Y-70801777D01*
X139784747Y-70783599D01*
X139770132Y-70763893D01*
X139757520Y-70742850D01*
X139747030Y-70720671D01*
X139738765Y-70697572D01*
X139732804Y-70673773D01*
X139729204Y-70649505D01*
X139728000Y-70625001D01*
X139728000Y-69374999D01*
X139729204Y-69350495D01*
X139732804Y-69326227D01*
X139738765Y-69302428D01*
X139747030Y-69279329D01*
X139757520Y-69257150D01*
X139770132Y-69236107D01*
X139784747Y-69216401D01*
X139801223Y-69198223D01*
X139819401Y-69181747D01*
X139839107Y-69167132D01*
X139860150Y-69154520D01*
X139882329Y-69144030D01*
X139905428Y-69135765D01*
X139929227Y-69129804D01*
X139953495Y-69126204D01*
X139977999Y-69125000D01*
X140678001Y-69125000D01*
X140702505Y-69126204D01*
G37*
G04 #@! TD.AperFunction*
D16*
X124656000Y-70000000D03*
X122656000Y-70000000D03*
X120656000Y-70000000D03*
G04 #@! TA.AperFunction,ComponentPad*
D11*
G36*
X119030505Y-69126204D02*
G01*
X119054773Y-69129804D01*
X119078572Y-69135765D01*
X119101671Y-69144030D01*
X119123850Y-69154520D01*
X119144893Y-69167132D01*
X119164599Y-69181747D01*
X119182777Y-69198223D01*
X119199253Y-69216401D01*
X119213868Y-69236107D01*
X119226480Y-69257150D01*
X119236970Y-69279329D01*
X119245235Y-69302428D01*
X119251196Y-69326227D01*
X119254796Y-69350495D01*
X119256000Y-69374999D01*
X119256000Y-70625001D01*
X119254796Y-70649505D01*
X119251196Y-70673773D01*
X119245235Y-70697572D01*
X119236970Y-70720671D01*
X119226480Y-70742850D01*
X119213868Y-70763893D01*
X119199253Y-70783599D01*
X119182777Y-70801777D01*
X119164599Y-70818253D01*
X119144893Y-70832868D01*
X119123850Y-70845480D01*
X119101671Y-70855970D01*
X119078572Y-70864235D01*
X119054773Y-70870196D01*
X119030505Y-70873796D01*
X119006001Y-70875000D01*
X118305999Y-70875000D01*
X118281495Y-70873796D01*
X118257227Y-70870196D01*
X118233428Y-70864235D01*
X118210329Y-70855970D01*
X118188150Y-70845480D01*
X118167107Y-70832868D01*
X118147401Y-70818253D01*
X118129223Y-70801777D01*
X118112747Y-70783599D01*
X118098132Y-70763893D01*
X118085520Y-70742850D01*
X118075030Y-70720671D01*
X118066765Y-70697572D01*
X118060804Y-70673773D01*
X118057204Y-70649505D01*
X118056000Y-70625001D01*
X118056000Y-69374999D01*
X118057204Y-69350495D01*
X118060804Y-69326227D01*
X118066765Y-69302428D01*
X118075030Y-69279329D01*
X118085520Y-69257150D01*
X118098132Y-69236107D01*
X118112747Y-69216401D01*
X118129223Y-69198223D01*
X118147401Y-69181747D01*
X118167107Y-69167132D01*
X118188150Y-69154520D01*
X118210329Y-69144030D01*
X118233428Y-69135765D01*
X118257227Y-69129804D01*
X118281495Y-69126204D01*
X118305999Y-69125000D01*
X119006001Y-69125000D01*
X119030505Y-69126204D01*
G37*
G04 #@! TD.AperFunction*
D16*
X102984000Y-69926000D03*
X100984000Y-69926000D03*
X98984000Y-69926000D03*
G04 #@! TA.AperFunction,ComponentPad*
D11*
G36*
X97358505Y-69052204D02*
G01*
X97382773Y-69055804D01*
X97406572Y-69061765D01*
X97429671Y-69070030D01*
X97451850Y-69080520D01*
X97472893Y-69093132D01*
X97492599Y-69107747D01*
X97510777Y-69124223D01*
X97527253Y-69142401D01*
X97541868Y-69162107D01*
X97554480Y-69183150D01*
X97564970Y-69205329D01*
X97573235Y-69228428D01*
X97579196Y-69252227D01*
X97582796Y-69276495D01*
X97584000Y-69300999D01*
X97584000Y-70551001D01*
X97582796Y-70575505D01*
X97579196Y-70599773D01*
X97573235Y-70623572D01*
X97564970Y-70646671D01*
X97554480Y-70668850D01*
X97541868Y-70689893D01*
X97527253Y-70709599D01*
X97510777Y-70727777D01*
X97492599Y-70744253D01*
X97472893Y-70758868D01*
X97451850Y-70771480D01*
X97429671Y-70781970D01*
X97406572Y-70790235D01*
X97382773Y-70796196D01*
X97358505Y-70799796D01*
X97334001Y-70801000D01*
X96633999Y-70801000D01*
X96609495Y-70799796D01*
X96585227Y-70796196D01*
X96561428Y-70790235D01*
X96538329Y-70781970D01*
X96516150Y-70771480D01*
X96495107Y-70758868D01*
X96475401Y-70744253D01*
X96457223Y-70727777D01*
X96440747Y-70709599D01*
X96426132Y-70689893D01*
X96413520Y-70668850D01*
X96403030Y-70646671D01*
X96394765Y-70623572D01*
X96388804Y-70599773D01*
X96385204Y-70575505D01*
X96384000Y-70551001D01*
X96384000Y-69300999D01*
X96385204Y-69276495D01*
X96388804Y-69252227D01*
X96394765Y-69228428D01*
X96403030Y-69205329D01*
X96413520Y-69183150D01*
X96426132Y-69162107D01*
X96440747Y-69142401D01*
X96457223Y-69124223D01*
X96475401Y-69107747D01*
X96495107Y-69093132D01*
X96516150Y-69080520D01*
X96538329Y-69070030D01*
X96561428Y-69061765D01*
X96585227Y-69055804D01*
X96609495Y-69052204D01*
X96633999Y-69051000D01*
X97334001Y-69051000D01*
X97358505Y-69052204D01*
G37*
G04 #@! TD.AperFunction*
D17*
X93000000Y-54000000D03*
X92000000Y-54000000D03*
X91000000Y-54000000D03*
X90000000Y-54000000D03*
X89000000Y-53000000D03*
X89000000Y-52000000D03*
X93301000Y-48336000D03*
X106255000Y-47066000D03*
X95510010Y-53543000D03*
X89745000Y-66370000D03*
X90380000Y-66370000D03*
X90380000Y-67005000D03*
X89745000Y-67005000D03*
X89745000Y-67640000D03*
X90380000Y-67640000D03*
X90380000Y-68275000D03*
X89745000Y-68275000D03*
X114973000Y-48410000D03*
X127927000Y-47140000D03*
X117182010Y-53617000D03*
X111417000Y-67714000D03*
X112052000Y-67714000D03*
X112052000Y-68349000D03*
X111417000Y-68349000D03*
X123482000Y-51839000D03*
X136645000Y-48410000D03*
X149599000Y-47140000D03*
X138854010Y-53617000D03*
X133089000Y-66444000D03*
X133724000Y-66444000D03*
X133724000Y-67079000D03*
X133089000Y-67079000D03*
X133089000Y-67714000D03*
X133724000Y-67714000D03*
X133724000Y-68349000D03*
X133089000Y-68349000D03*
X160526010Y-53617000D03*
X154761000Y-66444000D03*
X155396000Y-66444000D03*
X155396000Y-67079000D03*
X154761000Y-67079000D03*
X154761000Y-67714000D03*
X155396000Y-67714000D03*
X155396000Y-68349000D03*
X154761000Y-68349000D03*
X166826000Y-51839000D03*
X172720000Y-69088000D03*
X173482000Y-69088000D03*
X172720000Y-69850000D03*
X173482000Y-69850000D03*
X172720000Y-70612000D03*
X173482000Y-70612000D03*
X173482000Y-71374000D03*
X172720000Y-71374000D03*
X137160000Y-38608000D03*
X158317000Y-48410000D03*
X99992289Y-67915022D03*
X121440843Y-68104828D03*
X143303652Y-67949348D03*
X145122990Y-51839000D03*
X164607330Y-67652990D03*
X171250000Y-47250000D03*
X112052000Y-67079000D03*
X111417000Y-67079000D03*
X109728000Y-32512000D03*
X109728000Y-33020000D03*
X109728000Y-35052000D03*
X109728000Y-35560000D03*
X109728000Y-36068000D03*
X110236000Y-35560000D03*
X110236000Y-35052000D03*
X110236000Y-34544000D03*
X110236000Y-34036000D03*
X110236000Y-33528000D03*
X110236000Y-33020000D03*
X110236000Y-32512000D03*
X109220000Y-35560000D03*
X107696000Y-36068000D03*
X108204000Y-36068000D03*
X108712000Y-36068000D03*
X109220000Y-36068000D03*
X107696000Y-36576000D03*
X108204000Y-36576000D03*
X108712000Y-36576000D03*
X109220000Y-36576000D03*
X107188000Y-36068000D03*
X109728000Y-33528000D03*
X109728000Y-34036000D03*
X109728000Y-34544000D03*
X101593625Y-51493072D03*
X128798967Y-30195431D03*
X97746000Y-45720022D03*
X119679583Y-49619040D03*
X141351583Y-49619040D03*
X141116985Y-45720000D03*
X163423582Y-49619040D03*
X97794666Y-49799933D03*
X119260002Y-45750000D03*
X163999693Y-45919693D03*
X148082000Y-34290000D03*
X142748000Y-31241978D03*
X121119990Y-34544000D03*
X147320000Y-38862000D03*
X99710010Y-43180000D03*
X141598000Y-66952000D03*
X120690989Y-43222881D03*
X133604000Y-43180000D03*
X98099540Y-66875592D03*
X119828282Y-66949582D03*
X163183258Y-66964941D03*
X143256000Y-43180000D03*
X166539693Y-43379693D03*
X98594676Y-44450000D03*
X140582000Y-66952000D03*
X120009758Y-44450000D03*
X142433312Y-44450000D03*
X132842000Y-44450000D03*
X97099532Y-66878290D03*
X118828274Y-66952215D03*
X162183340Y-66951200D03*
X165269697Y-44649689D03*
X121919978Y-41910000D03*
X142614000Y-66952000D03*
X99099324Y-66896917D03*
X100725782Y-41913167D03*
X131800510Y-41910000D03*
X120827988Y-66974322D03*
X164161585Y-66757817D03*
X167809693Y-42109693D03*
X145170473Y-42322073D03*
X124360428Y-66437364D03*
X146196011Y-66381291D03*
X123107755Y-41021000D03*
X167438882Y-66564417D03*
X102323990Y-66635141D03*
X102393635Y-41737750D03*
X169079693Y-40839693D03*
X146558000Y-40894001D03*
X124375872Y-34655016D03*
X101728536Y-67438535D03*
X133293419Y-31203990D03*
X97540711Y-50767162D03*
X127508000Y-28956014D03*
X96504555Y-50825211D03*
X126238000Y-28702010D03*
X104305010Y-60909000D03*
X104305010Y-59639000D03*
X104305010Y-60274000D03*
X104305010Y-59004000D03*
X104305010Y-61544000D03*
X104305010Y-62179000D03*
X107525000Y-56464000D03*
X107525000Y-57099000D03*
X107525000Y-57734000D03*
X107525000Y-58369000D03*
X107525000Y-59004000D03*
X107525000Y-59639000D03*
X107525000Y-60274000D03*
X96349000Y-59004000D03*
X96349000Y-59639000D03*
X96349000Y-60274000D03*
X96349000Y-60909000D03*
X96349000Y-61544000D03*
X96349000Y-62179000D03*
X92666000Y-56337000D03*
X92666000Y-56972000D03*
X92666000Y-57607000D03*
X92666000Y-58242000D03*
X92666000Y-58877000D03*
X92666000Y-59512000D03*
X125768000Y-59078000D03*
X125768000Y-59713000D03*
X125768000Y-60348000D03*
X125768000Y-60983000D03*
X125768000Y-61618000D03*
X125768000Y-62253000D03*
X129197000Y-56538000D03*
X129197000Y-57173000D03*
X129197000Y-57808000D03*
X129197000Y-58443000D03*
X129197000Y-59078000D03*
X129197000Y-59713000D03*
X129197000Y-60348000D03*
X118021000Y-59078000D03*
X118021000Y-59713000D03*
X118021000Y-60348000D03*
X118021000Y-60983000D03*
X118021000Y-61618000D03*
X118021000Y-62253000D03*
X114338000Y-56411000D03*
X114338000Y-57046000D03*
X114338000Y-57681000D03*
X114338000Y-58316000D03*
X114338000Y-58951000D03*
X114338000Y-59586000D03*
X147440000Y-62253000D03*
X147440000Y-61618000D03*
X147440000Y-60983000D03*
X147440000Y-59078000D03*
X147440000Y-60348000D03*
X147440000Y-59713000D03*
X150869000Y-56538000D03*
X150869000Y-57173000D03*
X150869000Y-57808000D03*
X150869000Y-58443000D03*
X150869000Y-59078000D03*
X150869000Y-59713000D03*
X150869000Y-60348000D03*
X139693000Y-59078000D03*
X139693000Y-59713000D03*
X139693000Y-60348000D03*
X139693000Y-60983000D03*
X139693000Y-61618000D03*
X139693000Y-62253000D03*
X136010000Y-56411000D03*
X136010000Y-57046000D03*
X136010000Y-57681000D03*
X136010000Y-58316000D03*
X136010000Y-58951000D03*
X136010000Y-59586000D03*
X169112000Y-59078000D03*
X169112000Y-59713000D03*
X169112000Y-60348000D03*
X169112000Y-60983000D03*
X169112000Y-61618000D03*
X169112000Y-62253000D03*
X172541000Y-56538000D03*
X172541000Y-57173000D03*
X172541000Y-57808000D03*
X172541000Y-58443000D03*
X172541000Y-59078000D03*
X172541000Y-59713000D03*
X172541000Y-60348000D03*
X161365000Y-59078000D03*
X161365000Y-59713000D03*
X161365000Y-60348000D03*
X161365000Y-60983000D03*
X161365000Y-61618000D03*
X161365000Y-62253000D03*
X157682000Y-56411000D03*
X157682000Y-57046000D03*
X157682000Y-57681000D03*
X157682000Y-58316000D03*
X157682000Y-58951000D03*
X157682000Y-59586000D03*
X129794000Y-52324000D03*
X123286844Y-67830924D03*
X119279572Y-50672957D03*
X126238000Y-36957000D03*
X118275000Y-50823000D03*
X124734445Y-36708561D03*
X145796000Y-67437000D03*
X138798214Y-36225215D03*
X140951572Y-50672957D03*
X135509000Y-40005000D03*
X139947000Y-50823000D03*
X134239000Y-40005000D03*
X166751000Y-67818000D03*
X140808435Y-34751820D03*
X147234989Y-31526375D03*
X162623572Y-50672957D03*
X141588149Y-32263237D03*
X121672714Y-36365673D03*
X161417000Y-51181000D03*
X161394715Y-46766806D03*
X126238000Y-38862000D03*
X146050000Y-29210000D03*
X165761039Y-67676577D03*
X139192000Y-35306000D03*
X148082014Y-46736000D03*
X144399000Y-68326000D03*
X124206049Y-67430913D03*
X128849998Y-38540000D03*
X100699336Y-66975036D03*
X134533884Y-31382045D03*
X131572000Y-31496000D03*
D18*
X89000000Y-53000000D02*
X90000000Y-54000000D01*
X90000000Y-54000000D02*
X93000000Y-54000000D01*
X89000000Y-49000000D02*
X89000000Y-53000000D01*
X89000000Y-47453000D02*
X89000000Y-49000000D01*
X99150000Y-34000000D02*
X99150000Y-37303000D01*
X99150000Y-37303000D02*
X97690500Y-38762500D01*
X97690500Y-38762500D02*
X94309502Y-38762500D01*
X94309502Y-38762500D02*
X92456000Y-40616002D01*
X92456000Y-40616002D02*
X92456000Y-43997000D01*
X92456000Y-43997000D02*
X89000000Y-47453000D01*
D19*
X141082000Y-45685015D02*
X141116985Y-45720000D01*
X105150000Y-36850000D02*
X105150000Y-34000000D01*
X103000000Y-39000000D02*
X105150000Y-36850000D01*
X101000000Y-39000000D02*
X103000000Y-39000000D01*
X97746000Y-42254000D02*
X101000000Y-39000000D01*
X97746000Y-45720022D02*
X97746000Y-42254000D01*
X141116985Y-45720000D02*
X119290002Y-45720000D01*
X97746000Y-45720022D02*
X119230024Y-45720022D01*
X119290002Y-45720000D02*
X119260002Y-45750000D01*
X119230024Y-45720022D02*
X119260002Y-45750000D01*
X141116985Y-45720000D02*
X163800000Y-45720000D01*
X163800000Y-45720000D02*
X163999693Y-45919693D01*
X105150000Y-33740000D02*
X105150000Y-34000000D01*
X103414000Y-32004000D02*
X105150000Y-33740000D01*
X97536000Y-32004000D02*
X103414000Y-32004000D01*
X95758000Y-33782000D02*
X97536000Y-32004000D01*
X95758000Y-36902000D02*
X95758000Y-33782000D01*
X157412000Y-34290000D02*
X159512000Y-36390000D01*
X149860000Y-34290000D02*
X149860000Y-36390000D01*
X148082000Y-34290000D02*
X149860000Y-34290000D01*
X149860000Y-34290000D02*
X157412000Y-34290000D01*
X131956002Y-32296002D02*
X127882398Y-32296002D01*
X142748000Y-31241978D02*
X141224022Y-31241978D01*
X122408995Y-33254995D02*
X121519989Y-34144001D01*
X121519989Y-34144001D02*
X121119990Y-34544000D01*
X126923405Y-33254995D02*
X122408995Y-33254995D01*
X132041804Y-32210200D02*
X131956002Y-32296002D01*
X127882398Y-32296002D02*
X126923405Y-33254995D01*
X140255800Y-32210200D02*
X132041804Y-32210200D01*
X141224022Y-31241978D02*
X140255800Y-32210200D01*
X99710010Y-43180000D02*
X133604000Y-43180000D01*
X133604000Y-43180000D02*
X143256000Y-43180000D01*
X143256000Y-43180000D02*
X166340000Y-43180000D01*
X166340000Y-43180000D02*
X166539693Y-43379693D01*
X120009758Y-44450000D02*
X98594676Y-44450000D01*
X142433312Y-44450000D02*
X132842000Y-44450000D01*
X132842000Y-44450000D02*
X120009758Y-44450000D01*
X165070008Y-44450000D02*
X165269697Y-44649689D01*
X142433312Y-44450000D02*
X165070008Y-44450000D01*
X102777636Y-42537751D02*
X103405387Y-41910000D01*
X101350366Y-42537751D02*
X102777636Y-42537751D01*
X131234825Y-41910000D02*
X131800510Y-41910000D01*
X100725782Y-41913167D02*
X101350366Y-42537751D01*
X103405387Y-41910000D02*
X131234825Y-41910000D01*
X144770474Y-41922074D02*
X145170473Y-42322073D01*
X144758400Y-41910000D02*
X144770474Y-41922074D01*
X131800510Y-41910000D02*
X144758400Y-41910000D01*
X145382853Y-42109693D02*
X145170473Y-42322073D01*
X167809693Y-42109693D02*
X145382853Y-42109693D01*
X103291692Y-40839693D02*
X168514008Y-40839693D01*
X168514008Y-40839693D02*
X169079693Y-40839693D01*
X102393635Y-41737750D02*
X103291692Y-40839693D01*
X123975873Y-35055015D02*
X124375872Y-34655016D01*
X123107755Y-41021000D02*
X123107755Y-35923133D01*
X123107755Y-35923133D02*
X123975873Y-35055015D01*
D18*
X104305010Y-60274000D02*
X104305010Y-60909000D01*
X104305010Y-61544000D02*
X104305010Y-62179000D01*
X104305010Y-60909000D02*
X104305010Y-61544000D01*
X104305010Y-59004000D02*
X104305010Y-59639000D01*
X104305010Y-59639000D02*
X104305010Y-60274000D01*
X102984000Y-69926000D02*
X102984000Y-69651000D01*
X104705009Y-67929991D02*
X104705009Y-62578999D01*
X102984000Y-69651000D02*
X104705009Y-67929991D01*
X104705009Y-62578999D02*
X104305010Y-62179000D01*
X100984000Y-69926000D02*
X100984000Y-70201000D01*
X100984000Y-70201000D02*
X102284010Y-71501010D01*
X107525000Y-57099000D02*
X107525000Y-56464000D01*
X107525000Y-57734000D02*
X107525000Y-57099000D01*
X107525000Y-58369000D02*
X107525000Y-57734000D01*
X107525000Y-59004000D02*
X107525000Y-58369000D01*
X107525000Y-59639000D02*
X107525000Y-59004000D01*
X107525000Y-60274000D02*
X107525000Y-59639000D01*
X106001000Y-62941000D02*
X107525000Y-61417000D01*
X106001000Y-69266020D02*
X106001000Y-62941000D01*
X103766010Y-71501010D02*
X106001000Y-69266020D01*
X102284010Y-71501010D02*
X103766010Y-71501010D01*
X107525000Y-61417000D02*
X107525000Y-60274000D01*
X96349000Y-62052000D02*
X96349000Y-62179000D01*
X96349000Y-62052000D02*
X96349000Y-61544000D01*
X96349000Y-59639000D02*
X96349000Y-59004000D01*
X96349000Y-60274000D02*
X96349000Y-59639000D01*
X96349000Y-60909000D02*
X96349000Y-60274000D01*
X96349000Y-61544000D02*
X96349000Y-60909000D01*
X96349000Y-62306000D02*
X96349000Y-62179000D01*
X98984000Y-69926000D02*
X98984000Y-69607480D01*
X98984000Y-69607480D02*
X97524520Y-68148000D01*
X97524520Y-68148000D02*
X96095000Y-68148000D01*
X96095000Y-68148000D02*
X95714000Y-67767000D01*
X95714000Y-67767000D02*
X95714000Y-62941000D01*
X95714000Y-62941000D02*
X96349000Y-62306000D01*
X92666000Y-56972000D02*
X92666000Y-56337000D01*
X92666000Y-57607000D02*
X92666000Y-56972000D01*
X92666000Y-58242000D02*
X92666000Y-57607000D01*
X92666000Y-58877000D02*
X92666000Y-58242000D01*
X92666000Y-59512000D02*
X92666000Y-58877000D01*
X92666000Y-60147000D02*
X92666000Y-59512000D01*
X92666000Y-61607000D02*
X92666000Y-60147000D01*
X94190000Y-63131000D02*
X92666000Y-61607000D01*
X94190000Y-68656000D02*
X94190000Y-63131000D01*
X96984000Y-69926000D02*
X95460000Y-69926000D01*
X95460000Y-69926000D02*
X94190000Y-68656000D01*
X125768000Y-59713000D02*
X125768000Y-59078000D01*
X125768000Y-60348000D02*
X125768000Y-59713000D01*
X125768000Y-60983000D02*
X125768000Y-60348000D01*
X125768000Y-61618000D02*
X125768000Y-60983000D01*
X125768000Y-62253000D02*
X125768000Y-61618000D01*
X126167999Y-62652999D02*
X125768000Y-62253000D01*
X126256000Y-62741000D02*
X126167999Y-62652999D01*
X126256000Y-68125000D02*
X126256000Y-62741000D01*
X124656000Y-70000000D02*
X124656000Y-69725000D01*
X124656000Y-69725000D02*
X126256000Y-68125000D01*
X122656000Y-70000000D02*
X122656000Y-70275000D01*
X122656000Y-70275000D02*
X123956010Y-71575010D01*
X129197000Y-57173000D02*
X129197000Y-56538000D01*
X129197000Y-57808000D02*
X129197000Y-57173000D01*
X129197000Y-58443000D02*
X129197000Y-57808000D01*
X129197000Y-59078000D02*
X129197000Y-58443000D01*
X129197000Y-59713000D02*
X129197000Y-59078000D01*
X129197000Y-60348000D02*
X129197000Y-59713000D01*
X127673000Y-63015000D02*
X129197000Y-61491000D01*
X127673000Y-69340020D02*
X127673000Y-63015000D01*
X125438010Y-71575010D02*
X127673000Y-69340020D01*
X123956010Y-71575010D02*
X125438010Y-71575010D01*
X129197000Y-61491000D02*
X129197000Y-60348000D01*
X118021000Y-62126000D02*
X118021000Y-62253000D01*
X118021000Y-62126000D02*
X118021000Y-61618000D01*
X118021000Y-59713000D02*
X118021000Y-59078000D01*
X118021000Y-60348000D02*
X118021000Y-59713000D01*
X118021000Y-60983000D02*
X118021000Y-60348000D01*
X118021000Y-61618000D02*
X118021000Y-60983000D01*
X118021000Y-62380000D02*
X118021000Y-62253000D01*
X120656000Y-70000000D02*
X120656000Y-69681480D01*
X120656000Y-69681480D02*
X119196520Y-68222000D01*
X119196520Y-68222000D02*
X117767000Y-68222000D01*
X117767000Y-68222000D02*
X117386000Y-67841000D01*
X117386000Y-67841000D02*
X117386000Y-63015000D01*
X117386000Y-63015000D02*
X118021000Y-62380000D01*
X114338000Y-57046000D02*
X114338000Y-56411000D01*
X114338000Y-57681000D02*
X114338000Y-57046000D01*
X114338000Y-58316000D02*
X114338000Y-57681000D01*
X114338000Y-58951000D02*
X114338000Y-58316000D01*
X114338000Y-59586000D02*
X114338000Y-58951000D01*
X114338000Y-60221000D02*
X114338000Y-59586000D01*
X114338000Y-61681000D02*
X114338000Y-60221000D01*
X115862000Y-63205000D02*
X114338000Y-61681000D01*
X115862000Y-68730000D02*
X115862000Y-63205000D01*
X118656000Y-70000000D02*
X117132000Y-70000000D01*
X117132000Y-70000000D02*
X115862000Y-68730000D01*
X147440000Y-61618000D02*
X147440000Y-60983000D01*
X147440000Y-60983000D02*
X147440000Y-60348000D01*
X147440000Y-62253000D02*
X147440000Y-61618000D01*
X147440000Y-60348000D02*
X147440000Y-59713000D01*
X147440000Y-59713000D02*
X147440000Y-59078000D01*
X146328000Y-70000000D02*
X146328000Y-69725000D01*
X146328000Y-69725000D02*
X147928000Y-68125000D01*
X147839999Y-62652999D02*
X147440000Y-62253000D01*
X147928000Y-68125000D02*
X147928000Y-62741000D01*
X147928000Y-62741000D02*
X147839999Y-62652999D01*
X144328000Y-70000000D02*
X144328000Y-70275000D01*
X144328000Y-70275000D02*
X145628010Y-71575010D01*
X150869000Y-57173000D02*
X150869000Y-56538000D01*
X150869000Y-57808000D02*
X150869000Y-57173000D01*
X150869000Y-58443000D02*
X150869000Y-57808000D01*
X150869000Y-59078000D02*
X150869000Y-58443000D01*
X150869000Y-59713000D02*
X150869000Y-59078000D01*
X150869000Y-60348000D02*
X150869000Y-59713000D01*
X149345000Y-63015000D02*
X150869000Y-61491000D01*
X149345000Y-69340020D02*
X149345000Y-63015000D01*
X147110010Y-71575010D02*
X149345000Y-69340020D01*
X145628010Y-71575010D02*
X147110010Y-71575010D01*
X150869000Y-61491000D02*
X150869000Y-60348000D01*
X139693000Y-62126000D02*
X139693000Y-62253000D01*
X139693000Y-62126000D02*
X139693000Y-61618000D01*
X139693000Y-59713000D02*
X139693000Y-59078000D01*
X139693000Y-60348000D02*
X139693000Y-59713000D01*
X139693000Y-60983000D02*
X139693000Y-60348000D01*
X139693000Y-61618000D02*
X139693000Y-60983000D01*
X139693000Y-62380000D02*
X139693000Y-62253000D01*
X142328000Y-70000000D02*
X142328000Y-69681480D01*
X142328000Y-69681480D02*
X140868520Y-68222000D01*
X140868520Y-68222000D02*
X139439000Y-68222000D01*
X139439000Y-68222000D02*
X139058000Y-67841000D01*
X139058000Y-67841000D02*
X139058000Y-63015000D01*
X139058000Y-63015000D02*
X139693000Y-62380000D01*
X136010000Y-57046000D02*
X136010000Y-56411000D01*
X136010000Y-57681000D02*
X136010000Y-57046000D01*
X136010000Y-58316000D02*
X136010000Y-57681000D01*
X136010000Y-58951000D02*
X136010000Y-58316000D01*
X136010000Y-59586000D02*
X136010000Y-58951000D01*
X136010000Y-60221000D02*
X136010000Y-59586000D01*
X136010000Y-61681000D02*
X136010000Y-60221000D01*
X137534000Y-63205000D02*
X136010000Y-61681000D01*
X137534000Y-68730000D02*
X137534000Y-63205000D01*
X140328000Y-70000000D02*
X138804000Y-70000000D01*
X138804000Y-70000000D02*
X137534000Y-68730000D01*
X169112000Y-62888000D02*
X169112000Y-62253000D01*
X169112000Y-59713000D02*
X169112000Y-59078000D01*
X169112000Y-60348000D02*
X169112000Y-59713000D01*
X169112000Y-60983000D02*
X169112000Y-60348000D01*
X169112000Y-61618000D02*
X169112000Y-60983000D01*
X169112000Y-62253000D02*
X169112000Y-61618000D01*
X169112000Y-67013000D02*
X169112000Y-62888000D01*
X168000000Y-68125000D02*
X169112000Y-67013000D01*
X168000000Y-70000000D02*
X168000000Y-68125000D01*
X166000000Y-70000000D02*
X166000000Y-70275000D01*
X166000000Y-70275000D02*
X167300010Y-71575010D01*
X172541000Y-57173000D02*
X172541000Y-56538000D01*
X172541000Y-57808000D02*
X172541000Y-57173000D01*
X172541000Y-58443000D02*
X172541000Y-57808000D01*
X172541000Y-59078000D02*
X172541000Y-58443000D01*
X172541000Y-59713000D02*
X172541000Y-59078000D01*
X172541000Y-60348000D02*
X172541000Y-59713000D01*
X171017000Y-63015000D02*
X172541000Y-61491000D01*
X171017000Y-69340020D02*
X171017000Y-63015000D01*
X168782010Y-71575010D02*
X171017000Y-69340020D01*
X167300010Y-71575010D02*
X168782010Y-71575010D01*
X172541000Y-61491000D02*
X172541000Y-60348000D01*
X161365000Y-62126000D02*
X161365000Y-62253000D01*
X161365000Y-62126000D02*
X161365000Y-61618000D01*
X161365000Y-59713000D02*
X161365000Y-59078000D01*
X161365000Y-60348000D02*
X161365000Y-59713000D01*
X161365000Y-60983000D02*
X161365000Y-60348000D01*
X161365000Y-61618000D02*
X161365000Y-60983000D01*
X161365000Y-62380000D02*
X161365000Y-62253000D01*
X164000000Y-70000000D02*
X164000000Y-69681480D01*
X164000000Y-69681480D02*
X162540520Y-68222000D01*
X162540520Y-68222000D02*
X161111000Y-68222000D01*
X161111000Y-68222000D02*
X160730000Y-67841000D01*
X160730000Y-67841000D02*
X160730000Y-63015000D01*
X160730000Y-63015000D02*
X161365000Y-62380000D01*
X157682000Y-57046000D02*
X157682000Y-56411000D01*
X157682000Y-57681000D02*
X157682000Y-57046000D01*
X157682000Y-58316000D02*
X157682000Y-57681000D01*
X157682000Y-58951000D02*
X157682000Y-58316000D01*
X157682000Y-59586000D02*
X157682000Y-58951000D01*
X157682000Y-60221000D02*
X157682000Y-59586000D01*
X157682000Y-61681000D02*
X157682000Y-60221000D01*
X159206000Y-63205000D02*
X157682000Y-61681000D01*
X159206000Y-68730000D02*
X159206000Y-63205000D01*
X162000000Y-70000000D02*
X160476000Y-70000000D01*
X160476000Y-70000000D02*
X159206000Y-68730000D01*
D19*
X144009544Y-34751820D02*
X146834990Y-31926374D01*
X140808435Y-34751820D02*
X144009544Y-34751820D01*
X146834990Y-31926374D02*
X147234989Y-31526375D01*
X121672714Y-35799988D02*
X121672714Y-36365673D01*
X141588149Y-32263237D02*
X140955373Y-32896013D01*
X130939466Y-32896013D02*
X129980473Y-33855006D01*
X123617696Y-33855006D02*
X121672714Y-35799988D01*
X129980473Y-33855006D02*
X123617696Y-33855006D01*
X140955373Y-32896013D02*
X130939466Y-32896013D01*
X141547980Y-33712020D02*
X145650001Y-29609999D01*
X145650001Y-29609999D02*
X146050000Y-29210000D01*
X131387980Y-33712020D02*
X141547980Y-33712020D01*
X126238000Y-38862000D02*
X131387980Y-33712020D01*
X121412000Y-31174081D02*
X122241919Y-32004000D01*
X121412000Y-29972000D02*
X121412000Y-31174081D01*
X122241919Y-32004000D02*
X127000000Y-32004000D01*
X127000000Y-32004000D02*
X127508000Y-31496000D01*
X127508000Y-31496000D02*
X131572000Y-31496000D01*
D20*
G36*
X110168189Y-31894376D02*
G01*
X110331850Y-31944022D01*
X110482672Y-32024638D01*
X110614870Y-32133130D01*
X110723362Y-32265328D01*
X110803978Y-32416150D01*
X110853624Y-32579811D01*
X110871000Y-32756234D01*
X110871000Y-35232965D01*
X110851741Y-35418601D01*
X110796798Y-35590048D01*
X110704567Y-35752306D01*
X109927285Y-36840503D01*
X109814691Y-36970102D01*
X109684410Y-37072341D01*
X109537160Y-37148118D01*
X109378243Y-37194706D01*
X109207338Y-37211000D01*
X107432234Y-37211000D01*
X107255811Y-37193624D01*
X107092150Y-37143978D01*
X106941328Y-37063362D01*
X106809130Y-36954870D01*
X106700638Y-36822672D01*
X106620022Y-36671850D01*
X106570376Y-36508189D01*
X106553000Y-36331766D01*
X106553000Y-34456727D01*
X106991014Y-34456727D01*
X107051663Y-34679054D01*
X107154521Y-34885277D01*
X107295634Y-35067471D01*
X107469580Y-35218634D01*
X107669674Y-35332957D01*
X107701259Y-35348100D01*
X107877000Y-35294846D01*
X107877000Y-34273000D01*
X108423000Y-34273000D01*
X108423000Y-35294846D01*
X108598741Y-35348100D01*
X108630326Y-35332957D01*
X108830420Y-35218634D01*
X109004366Y-35067471D01*
X109145479Y-34885277D01*
X109248337Y-34679054D01*
X109308986Y-34456727D01*
X109218742Y-34273000D01*
X108423000Y-34273000D01*
X107877000Y-34273000D01*
X107081258Y-34273000D01*
X106991014Y-34456727D01*
X106553000Y-34456727D01*
X106553000Y-33543273D01*
X106991014Y-33543273D01*
X107081258Y-33727000D01*
X107877000Y-33727000D01*
X107877000Y-32705154D01*
X108423000Y-32705154D01*
X108423000Y-33727000D01*
X109218742Y-33727000D01*
X109308986Y-33543273D01*
X109248337Y-33320946D01*
X109145479Y-33114723D01*
X109004366Y-32932529D01*
X108830420Y-32781366D01*
X108630326Y-32667043D01*
X108598741Y-32651900D01*
X108423000Y-32705154D01*
X107877000Y-32705154D01*
X107701259Y-32651900D01*
X107669674Y-32667043D01*
X107469580Y-32781366D01*
X107295634Y-32932529D01*
X107154521Y-33114723D01*
X107051663Y-33320946D01*
X106991014Y-33543273D01*
X106553000Y-33543273D01*
X106553000Y-32756234D01*
X106570376Y-32579811D01*
X106620022Y-32416150D01*
X106700638Y-32265328D01*
X106809130Y-32133130D01*
X106941328Y-32024638D01*
X107092150Y-31944022D01*
X107255811Y-31894376D01*
X107432234Y-31877000D01*
X109991766Y-31877000D01*
X110168189Y-31894376D01*
G37*
X110168189Y-31894376D02*
X110331850Y-31944022D01*
X110482672Y-32024638D01*
X110614870Y-32133130D01*
X110723362Y-32265328D01*
X110803978Y-32416150D01*
X110853624Y-32579811D01*
X110871000Y-32756234D01*
X110871000Y-35232965D01*
X110851741Y-35418601D01*
X110796798Y-35590048D01*
X110704567Y-35752306D01*
X109927285Y-36840503D01*
X109814691Y-36970102D01*
X109684410Y-37072341D01*
X109537160Y-37148118D01*
X109378243Y-37194706D01*
X109207338Y-37211000D01*
X107432234Y-37211000D01*
X107255811Y-37193624D01*
X107092150Y-37143978D01*
X106941328Y-37063362D01*
X106809130Y-36954870D01*
X106700638Y-36822672D01*
X106620022Y-36671850D01*
X106570376Y-36508189D01*
X106553000Y-36331766D01*
X106553000Y-34456727D01*
X106991014Y-34456727D01*
X107051663Y-34679054D01*
X107154521Y-34885277D01*
X107295634Y-35067471D01*
X107469580Y-35218634D01*
X107669674Y-35332957D01*
X107701259Y-35348100D01*
X107877000Y-35294846D01*
X107877000Y-34273000D01*
X108423000Y-34273000D01*
X108423000Y-35294846D01*
X108598741Y-35348100D01*
X108630326Y-35332957D01*
X108830420Y-35218634D01*
X109004366Y-35067471D01*
X109145479Y-34885277D01*
X109248337Y-34679054D01*
X109308986Y-34456727D01*
X109218742Y-34273000D01*
X108423000Y-34273000D01*
X107877000Y-34273000D01*
X107081258Y-34273000D01*
X106991014Y-34456727D01*
X106553000Y-34456727D01*
X106553000Y-33543273D01*
X106991014Y-33543273D01*
X107081258Y-33727000D01*
X107877000Y-33727000D01*
X107877000Y-32705154D01*
X108423000Y-32705154D01*
X108423000Y-33727000D01*
X109218742Y-33727000D01*
X109308986Y-33543273D01*
X109248337Y-33320946D01*
X109145479Y-33114723D01*
X109004366Y-32932529D01*
X108830420Y-32781366D01*
X108630326Y-32667043D01*
X108598741Y-32651900D01*
X108423000Y-32705154D01*
X107877000Y-32705154D01*
X107701259Y-32651900D01*
X107669674Y-32667043D01*
X107469580Y-32781366D01*
X107295634Y-32932529D01*
X107154521Y-33114723D01*
X107051663Y-33320946D01*
X106991014Y-33543273D01*
X106553000Y-33543273D01*
X106553000Y-32756234D01*
X106570376Y-32579811D01*
X106620022Y-32416150D01*
X106700638Y-32265328D01*
X106809130Y-32133130D01*
X106941328Y-32024638D01*
X107092150Y-31944022D01*
X107255811Y-31894376D01*
X107432234Y-31877000D01*
X109991766Y-31877000D01*
X110168189Y-31894376D01*
M02*
