M48
; DRILL file {KiCad (5.1.5)-3} date 18/12/2019 01:06:15
; FORMAT={-:-/ absolute / metric / decimal}
; #@! TF.CreationDate,2019-12-18T01:06:15+01:00
; #@! TF.GenerationSoftware,Kicad,Pcbnew,(5.1.5)-3
; #@! TF.FileFunction,Plated,1,4,PTH
FMAT,2
METRIC
T1C0.400
T2C0.750
T3C1.000
T4C1.020
T5C1.100
T6C1.200
%
G90
G05
T1
X89.0Y-52.0
X89.0Y-53.0
X89.745Y-66.37
X89.745Y-67.005
X89.745Y-67.64
X89.745Y-68.275
X90.0Y-54.0
X90.38Y-66.37
X90.38Y-67.005
X90.38Y-67.64
X90.38Y-68.275
X91.0Y-54.0
X92.0Y-54.0
X92.666Y-56.337
X92.666Y-56.972
X92.666Y-57.607
X92.666Y-58.242
X92.666Y-58.877
X92.666Y-59.512
X93.0Y-54.0
X93.301Y-48.336
X95.51Y-53.543
X96.349Y-59.004
X96.349Y-59.639
X96.349Y-60.274
X96.349Y-60.909
X96.349Y-61.544
X96.349Y-62.179
X96.505Y-50.825
X97.1Y-66.878
X97.541Y-50.767
X97.746Y-45.72
X97.795Y-49.8
X98.1Y-66.876
X98.595Y-44.45
X99.099Y-66.897
X99.71Y-43.18
X99.992Y-67.915
X100.699Y-66.975
X100.726Y-41.913
X101.594Y-51.493
X101.729Y-67.439
X102.324Y-66.635
X102.394Y-41.738
X104.305Y-59.004
X104.305Y-59.639
X104.305Y-60.274
X104.305Y-60.909
X104.305Y-61.544
X104.305Y-62.179
X106.255Y-47.066
X107.188Y-36.068
X107.525Y-56.464
X107.525Y-57.099
X107.525Y-57.734
X107.525Y-58.369
X107.525Y-59.004
X107.525Y-59.639
X107.525Y-60.274
X107.696Y-36.068
X107.696Y-36.576
X108.204Y-36.068
X108.204Y-36.576
X108.712Y-36.068
X108.712Y-36.576
X109.22Y-35.56
X109.22Y-36.068
X109.22Y-36.576
X109.728Y-32.512
X109.728Y-33.02
X109.728Y-33.528
X109.728Y-34.036
X109.728Y-34.544
X109.728Y-35.052
X109.728Y-35.56
X109.728Y-36.068
X110.236Y-32.512
X110.236Y-33.02
X110.236Y-33.528
X110.236Y-34.036
X110.236Y-34.544
X110.236Y-35.052
X110.236Y-35.56
X111.417Y-67.079
X111.417Y-67.714
X111.417Y-68.349
X112.052Y-67.079
X112.052Y-67.714
X112.052Y-68.349
X114.338Y-56.411
X114.338Y-57.046
X114.338Y-57.681
X114.338Y-58.316
X114.338Y-58.951
X114.338Y-59.586
X114.973Y-48.41
X117.182Y-53.617
X118.021Y-59.078
X118.021Y-59.713
X118.021Y-60.348
X118.021Y-60.983
X118.021Y-61.618
X118.021Y-62.253
X118.275Y-50.823
X118.828Y-66.952
X119.26Y-45.75
X119.28Y-50.673
X119.68Y-49.619
X119.828Y-66.95
X120.01Y-44.45
X120.691Y-43.223
X120.828Y-66.974
X121.12Y-34.544
X121.441Y-68.105
X121.673Y-36.366
X121.92Y-41.91
X123.108Y-41.021
X123.287Y-67.831
X123.482Y-51.839
X124.206Y-67.431
X124.36Y-66.437
X124.376Y-34.655
X124.734Y-36.709
X125.768Y-59.078
X125.768Y-59.713
X125.768Y-60.348
X125.768Y-60.983
X125.768Y-61.618
X125.768Y-62.253
X126.238Y-28.702
X126.238Y-36.957
X126.238Y-38.862
X127.508Y-28.956
X127.927Y-47.14
X128.799Y-30.195
X128.85Y-38.54
X129.197Y-56.538
X129.197Y-57.173
X129.197Y-57.808
X129.197Y-58.443
X129.197Y-59.078
X129.197Y-59.713
X129.197Y-60.348
X129.794Y-52.324
X131.572Y-31.496
X131.801Y-41.91
X132.842Y-44.45
X133.089Y-66.444
X133.089Y-67.079
X133.089Y-67.714
X133.089Y-68.349
X133.293Y-31.204
X133.604Y-43.18
X133.724Y-66.444
X133.724Y-67.079
X133.724Y-67.714
X133.724Y-68.349
X134.239Y-40.005
X134.534Y-31.382
X135.509Y-40.005
X136.01Y-56.411
X136.01Y-57.046
X136.01Y-57.681
X136.01Y-58.316
X136.01Y-58.951
X136.01Y-59.586
X136.645Y-48.41
X137.16Y-38.608
X138.798Y-36.225
X138.854Y-53.617
X139.192Y-35.306
X139.693Y-59.078
X139.693Y-59.713
X139.693Y-60.348
X139.693Y-60.983
X139.693Y-61.618
X139.693Y-62.253
X139.947Y-50.823
X140.582Y-66.952
X140.808Y-34.752
X140.952Y-50.673
X141.117Y-45.72
X141.352Y-49.619
X141.588Y-32.263
X141.598Y-66.952
X142.433Y-44.45
X142.614Y-66.952
X142.748Y-31.242
X143.256Y-43.18
X143.304Y-67.949
X144.399Y-68.326
X145.123Y-51.839
X145.17Y-42.322
X145.796Y-67.437
X146.05Y-29.21
X146.196Y-66.381
X146.558Y-40.894
X147.235Y-31.526
X147.32Y-38.862
X147.44Y-59.078
X147.44Y-59.713
X147.44Y-60.348
X147.44Y-60.983
X147.44Y-61.618
X147.44Y-62.253
X148.082Y-34.29
X148.082Y-46.736
X149.599Y-47.14
X150.869Y-56.538
X150.869Y-57.173
X150.869Y-57.808
X150.869Y-58.443
X150.869Y-59.078
X150.869Y-59.713
X150.869Y-60.348
X154.761Y-66.444
X154.761Y-67.079
X154.761Y-67.714
X154.761Y-68.349
X155.396Y-66.444
X155.396Y-67.079
X155.396Y-67.714
X155.396Y-68.349
X157.682Y-56.411
X157.682Y-57.046
X157.682Y-57.681
X157.682Y-58.316
X157.682Y-58.951
X157.682Y-59.586
X158.317Y-48.41
X160.526Y-53.617
X161.365Y-59.078
X161.365Y-59.713
X161.365Y-60.348
X161.365Y-60.983
X161.365Y-61.618
X161.365Y-62.253
X161.395Y-46.767
X161.417Y-51.181
X162.183Y-66.951
X162.624Y-50.673
X163.183Y-66.965
X163.424Y-49.619
X164.0Y-45.92
X164.162Y-66.758
X164.607Y-67.653
X165.27Y-44.65
X165.761Y-67.677
X166.54Y-43.38
X166.751Y-67.818
X166.826Y-51.839
X167.439Y-66.564
X167.81Y-42.11
X169.08Y-40.84
X169.112Y-59.078
X169.112Y-59.713
X169.112Y-60.348
X169.112Y-60.983
X169.112Y-61.618
X169.112Y-62.253
X171.25Y-47.25
X172.541Y-56.538
X172.541Y-57.173
X172.541Y-57.808
X172.541Y-58.443
X172.541Y-59.078
X172.541Y-59.713
X172.541Y-60.348
X172.72Y-69.088
X172.72Y-69.85
X172.72Y-70.612
X172.72Y-71.374
X173.482Y-69.088
X173.482Y-69.85
X173.482Y-70.612
X173.482Y-71.374
T2
X140.328Y-70.0
X142.328Y-70.0
X144.328Y-70.0
X146.328Y-70.0
X162.0Y-70.0
X164.0Y-70.0
X166.0Y-70.0
X168.0Y-70.0
X96.984Y-69.926
X98.984Y-69.926
X100.984Y-69.926
X102.984Y-69.926
X118.656Y-70.0
X120.656Y-70.0
X122.656Y-70.0
X124.656Y-70.0
T3
X118.872Y-29.972
X121.412Y-29.972
X123.952Y-29.972
T4
X99.15Y-34.0
X102.15Y-34.0
X105.15Y-34.0
X108.15Y-34.0
T5
X89.258Y-36.902
X89.258Y-41.402
X95.758Y-36.902
X95.758Y-41.402
T6
X159.512Y-36.39
X159.512Y-38.89
X162.012Y-36.39
X162.012Y-38.89
X164.512Y-36.39
X164.512Y-38.89
X149.86Y-36.39
X149.86Y-38.89
X152.36Y-36.39
X152.36Y-38.89
X154.86Y-36.39
X154.86Y-38.89
T0
M30
