%FSLAX45Y45*%
G04 Gerber Fmt 4.5, Leading zero omitted, Abs format (unit mm)*
G04 Created by KiCad (PCBNEW (6.0.0)) date 2022-05-09 08:45:18*
%MOMM*%
%LPD*%
G01*
G04 APERTURE LIST*
%TA.AperFunction,Profile*%
%ADD10C,0.100000*%
%TD*%
%ADD11C,0.200000*%
%ADD12C,0.320000*%
%ADD13C,0.350000*%
G04 APERTURE END LIST*
D10*
X20300000Y-6300000D02*
G75*
G03*
X20000000Y-6000000I-300000J0D01*
G01*
X20000000Y-6000000D02*
X14300000Y-6000000D01*
X14300000Y-6000000D02*
G75*
G03*
X14000000Y-6300000I0J-300000D01*
G01*
X20300000Y-13600000D02*
X20300000Y-6300000D01*
X20000000Y-13900000D02*
X14300000Y-13900000D01*
X14000000Y-13600000D02*
G75*
G03*
X14300000Y-13900000I300000J0D01*
G01*
X14000000Y-6300000D02*
X14000000Y-13600000D01*
X20000000Y-13900000D02*
G75*
G03*
X20300000Y-13600000I0J300000D01*
G01*
D11*
D12*
X14140000Y-6140000D02*
X14460000Y-6460000D01*
X14460000Y-6140000D02*
X14140000Y-6460000D01*
X14140000Y-13440000D02*
X14460000Y-13760000D01*
X14460000Y-13440000D02*
X14140000Y-13760000D01*
X19840000Y-6140000D02*
X20160000Y-6460000D01*
X20160000Y-6140000D02*
X19840000Y-6460000D01*
X19840000Y-13440000D02*
X20160000Y-13760000D01*
X20160000Y-13440000D02*
X19840000Y-13760000D01*
D13*
X17558000Y-13030200D02*
G75*
G03*
X17558000Y-13030200I-175000J0D01*
G01*
D11*
X14252619Y-14215476D02*
X14252619Y-14015476D01*
X14300238Y-14015476D01*
X14328809Y-14025000D01*
X14347857Y-14044048D01*
X14357381Y-14063095D01*
X14366905Y-14101190D01*
X14366905Y-14129762D01*
X14357381Y-14167857D01*
X14347857Y-14186905D01*
X14328809Y-14205952D01*
X14300238Y-14215476D01*
X14252619Y-14215476D01*
X14452619Y-14215476D02*
X14452619Y-14082143D01*
X14452619Y-14120238D02*
X14462143Y-14101190D01*
X14471667Y-14091667D01*
X14490714Y-14082143D01*
X14509762Y-14082143D01*
X14576428Y-14215476D02*
X14576428Y-14082143D01*
X14576428Y-14015476D02*
X14566905Y-14025000D01*
X14576428Y-14034524D01*
X14585952Y-14025000D01*
X14576428Y-14015476D01*
X14576428Y-14034524D01*
X14700238Y-14215476D02*
X14681190Y-14205952D01*
X14671667Y-14186905D01*
X14671667Y-14015476D01*
X14805000Y-14215476D02*
X14785952Y-14205952D01*
X14776428Y-14186905D01*
X14776428Y-14015476D01*
X15033571Y-14215476D02*
X15033571Y-14015476D01*
X15100238Y-14158333D01*
X15166905Y-14015476D01*
X15166905Y-14215476D01*
X15347857Y-14215476D02*
X15347857Y-14110714D01*
X15338333Y-14091667D01*
X15319286Y-14082143D01*
X15281190Y-14082143D01*
X15262143Y-14091667D01*
X15347857Y-14205952D02*
X15328809Y-14215476D01*
X15281190Y-14215476D01*
X15262143Y-14205952D01*
X15252619Y-14186905D01*
X15252619Y-14167857D01*
X15262143Y-14148809D01*
X15281190Y-14139286D01*
X15328809Y-14139286D01*
X15347857Y-14129762D01*
X15443095Y-14082143D02*
X15443095Y-14282143D01*
X15443095Y-14091667D02*
X15462143Y-14082143D01*
X15500238Y-14082143D01*
X15519286Y-14091667D01*
X15528809Y-14101190D01*
X15538333Y-14120238D01*
X15538333Y-14177381D01*
X15528809Y-14196428D01*
X15519286Y-14205952D01*
X15500238Y-14215476D01*
X15462143Y-14215476D01*
X15443095Y-14205952D01*
X15624048Y-14196428D02*
X15633571Y-14205952D01*
X15624048Y-14215476D01*
X15614524Y-14205952D01*
X15624048Y-14196428D01*
X15624048Y-14215476D01*
X15624048Y-14091667D02*
X15633571Y-14101190D01*
X15624048Y-14110714D01*
X15614524Y-14101190D01*
X15624048Y-14091667D01*
X15624048Y-14110714D01*
X13795000Y-14445000D02*
X13995000Y-14645000D01*
X13995000Y-14445000D02*
X13795000Y-14645000D01*
X14233571Y-14435476D02*
X14357381Y-14435476D01*
X14290714Y-14511667D01*
X14319286Y-14511667D01*
X14338333Y-14521190D01*
X14347857Y-14530714D01*
X14357381Y-14549762D01*
X14357381Y-14597381D01*
X14347857Y-14616428D01*
X14338333Y-14625952D01*
X14319286Y-14635476D01*
X14262143Y-14635476D01*
X14243095Y-14625952D01*
X14233571Y-14616428D01*
X14443095Y-14616428D02*
X14452619Y-14625952D01*
X14443095Y-14635476D01*
X14433571Y-14625952D01*
X14443095Y-14616428D01*
X14443095Y-14635476D01*
X14528809Y-14454524D02*
X14538333Y-14445000D01*
X14557381Y-14435476D01*
X14605000Y-14435476D01*
X14624048Y-14445000D01*
X14633571Y-14454524D01*
X14643095Y-14473571D01*
X14643095Y-14492619D01*
X14633571Y-14521190D01*
X14519286Y-14635476D01*
X14643095Y-14635476D01*
X14766905Y-14435476D02*
X14785952Y-14435476D01*
X14805000Y-14445000D01*
X14814524Y-14454524D01*
X14824048Y-14473571D01*
X14833571Y-14511667D01*
X14833571Y-14559286D01*
X14824048Y-14597381D01*
X14814524Y-14616428D01*
X14805000Y-14625952D01*
X14785952Y-14635476D01*
X14766905Y-14635476D01*
X14747857Y-14625952D01*
X14738333Y-14616428D01*
X14728809Y-14597381D01*
X14719286Y-14559286D01*
X14719286Y-14511667D01*
X14728809Y-14473571D01*
X14738333Y-14454524D01*
X14747857Y-14445000D01*
X14766905Y-14435476D01*
X14957381Y-14435476D02*
X14976428Y-14435476D01*
X14995476Y-14445000D01*
X15005000Y-14454524D01*
X15014524Y-14473571D01*
X15024048Y-14511667D01*
X15024048Y-14559286D01*
X15014524Y-14597381D01*
X15005000Y-14616428D01*
X14995476Y-14625952D01*
X14976428Y-14635476D01*
X14957381Y-14635476D01*
X14938333Y-14625952D01*
X14928809Y-14616428D01*
X14919286Y-14597381D01*
X14909762Y-14559286D01*
X14909762Y-14511667D01*
X14919286Y-14473571D01*
X14928809Y-14454524D01*
X14938333Y-14445000D01*
X14957381Y-14435476D01*
X15109762Y-14635476D02*
X15109762Y-14502143D01*
X15109762Y-14521190D02*
X15119286Y-14511667D01*
X15138333Y-14502143D01*
X15166905Y-14502143D01*
X15185952Y-14511667D01*
X15195476Y-14530714D01*
X15195476Y-14635476D01*
X15195476Y-14530714D02*
X15205000Y-14511667D01*
X15224048Y-14502143D01*
X15252619Y-14502143D01*
X15271667Y-14511667D01*
X15281190Y-14530714D01*
X15281190Y-14635476D01*
X15376428Y-14635476D02*
X15376428Y-14502143D01*
X15376428Y-14521190D02*
X15385952Y-14511667D01*
X15405000Y-14502143D01*
X15433571Y-14502143D01*
X15452619Y-14511667D01*
X15462143Y-14530714D01*
X15462143Y-14635476D01*
X15462143Y-14530714D02*
X15471667Y-14511667D01*
X15490714Y-14502143D01*
X15519286Y-14502143D01*
X15538333Y-14511667D01*
X15547857Y-14530714D01*
X15547857Y-14635476D01*
X15938333Y-14425952D02*
X15766905Y-14683095D01*
X16195476Y-14435476D02*
X16214524Y-14435476D01*
X16233571Y-14445000D01*
X16243095Y-14454524D01*
X16252619Y-14473571D01*
X16262143Y-14511667D01*
X16262143Y-14559286D01*
X16252619Y-14597381D01*
X16243095Y-14616428D01*
X16233571Y-14625952D01*
X16214524Y-14635476D01*
X16195476Y-14635476D01*
X16176428Y-14625952D01*
X16166905Y-14616428D01*
X16157381Y-14597381D01*
X16147857Y-14559286D01*
X16147857Y-14511667D01*
X16157381Y-14473571D01*
X16166905Y-14454524D01*
X16176428Y-14445000D01*
X16195476Y-14435476D01*
X16347857Y-14616428D02*
X16357381Y-14625952D01*
X16347857Y-14635476D01*
X16338333Y-14625952D01*
X16347857Y-14616428D01*
X16347857Y-14635476D01*
X16547857Y-14635476D02*
X16433571Y-14635476D01*
X16490714Y-14635476D02*
X16490714Y-14435476D01*
X16471667Y-14464048D01*
X16452619Y-14483095D01*
X16433571Y-14492619D01*
X16624048Y-14454524D02*
X16633571Y-14445000D01*
X16652619Y-14435476D01*
X16700238Y-14435476D01*
X16719286Y-14445000D01*
X16728809Y-14454524D01*
X16738333Y-14473571D01*
X16738333Y-14492619D01*
X16728809Y-14521190D01*
X16614524Y-14635476D01*
X16738333Y-14635476D01*
X16909762Y-14435476D02*
X16871667Y-14435476D01*
X16852619Y-14445000D01*
X16843095Y-14454524D01*
X16824048Y-14483095D01*
X16814524Y-14521190D01*
X16814524Y-14597381D01*
X16824048Y-14616428D01*
X16833571Y-14625952D01*
X16852619Y-14635476D01*
X16890714Y-14635476D01*
X16909762Y-14625952D01*
X16919286Y-14616428D01*
X16928810Y-14597381D01*
X16928810Y-14549762D01*
X16919286Y-14530714D01*
X16909762Y-14521190D01*
X16890714Y-14511667D01*
X16852619Y-14511667D01*
X16833571Y-14521190D01*
X16824048Y-14530714D01*
X16814524Y-14549762D01*
X17052619Y-14435476D02*
X17071667Y-14435476D01*
X17090714Y-14445000D01*
X17100238Y-14454524D01*
X17109762Y-14473571D01*
X17119286Y-14511667D01*
X17119286Y-14559286D01*
X17109762Y-14597381D01*
X17100238Y-14616428D01*
X17090714Y-14625952D01*
X17071667Y-14635476D01*
X17052619Y-14635476D01*
X17033571Y-14625952D01*
X17024048Y-14616428D01*
X17014524Y-14597381D01*
X17005000Y-14559286D01*
X17005000Y-14511667D01*
X17014524Y-14473571D01*
X17024048Y-14454524D01*
X17033571Y-14445000D01*
X17052619Y-14435476D01*
X17195476Y-14435476D02*
X17195476Y-14473571D01*
X17271667Y-14435476D02*
X17271667Y-14473571D01*
X17566905Y-14711667D02*
X17557381Y-14702143D01*
X17538333Y-14673571D01*
X17528810Y-14654524D01*
X17519286Y-14625952D01*
X17509762Y-14578333D01*
X17509762Y-14540238D01*
X17519286Y-14492619D01*
X17528810Y-14464048D01*
X17538333Y-14445000D01*
X17557381Y-14416428D01*
X17566905Y-14406905D01*
X17728810Y-14502143D02*
X17728810Y-14635476D01*
X17681190Y-14425952D02*
X17633571Y-14568809D01*
X17757381Y-14568809D01*
X17985952Y-14635476D02*
X17985952Y-14435476D01*
X18071667Y-14635476D02*
X18071667Y-14530714D01*
X18062143Y-14511667D01*
X18043095Y-14502143D01*
X18014524Y-14502143D01*
X17995476Y-14511667D01*
X17985952Y-14521190D01*
X18195476Y-14635476D02*
X18176429Y-14625952D01*
X18166905Y-14616428D01*
X18157381Y-14597381D01*
X18157381Y-14540238D01*
X18166905Y-14521190D01*
X18176429Y-14511667D01*
X18195476Y-14502143D01*
X18224048Y-14502143D01*
X18243095Y-14511667D01*
X18252619Y-14521190D01*
X18262143Y-14540238D01*
X18262143Y-14597381D01*
X18252619Y-14616428D01*
X18243095Y-14625952D01*
X18224048Y-14635476D01*
X18195476Y-14635476D01*
X18376429Y-14635476D02*
X18357381Y-14625952D01*
X18347857Y-14606905D01*
X18347857Y-14435476D01*
X18528810Y-14625952D02*
X18509762Y-14635476D01*
X18471667Y-14635476D01*
X18452619Y-14625952D01*
X18443095Y-14606905D01*
X18443095Y-14530714D01*
X18452619Y-14511667D01*
X18471667Y-14502143D01*
X18509762Y-14502143D01*
X18528810Y-14511667D01*
X18538333Y-14530714D01*
X18538333Y-14549762D01*
X18443095Y-14568809D01*
X18614524Y-14625952D02*
X18633571Y-14635476D01*
X18671667Y-14635476D01*
X18690714Y-14625952D01*
X18700238Y-14606905D01*
X18700238Y-14597381D01*
X18690714Y-14578333D01*
X18671667Y-14568809D01*
X18643095Y-14568809D01*
X18624048Y-14559286D01*
X18614524Y-14540238D01*
X18614524Y-14530714D01*
X18624048Y-14511667D01*
X18643095Y-14502143D01*
X18671667Y-14502143D01*
X18690714Y-14511667D01*
X18766905Y-14711667D02*
X18776429Y-14702143D01*
X18795476Y-14673571D01*
X18805000Y-14654524D01*
X18814524Y-14625952D01*
X18824048Y-14578333D01*
X18824048Y-14540238D01*
X18814524Y-14492619D01*
X18805000Y-14464048D01*
X18795476Y-14445000D01*
X18776429Y-14416428D01*
X18766905Y-14406905D01*
X19128810Y-14711667D02*
X19119286Y-14702143D01*
X19100238Y-14673571D01*
X19090714Y-14654524D01*
X19081190Y-14625952D01*
X19071667Y-14578333D01*
X19071667Y-14540238D01*
X19081190Y-14492619D01*
X19090714Y-14464048D01*
X19100238Y-14445000D01*
X19119286Y-14416428D01*
X19128810Y-14406905D01*
X19205000Y-14502143D02*
X19205000Y-14635476D01*
X19205000Y-14521190D02*
X19214524Y-14511667D01*
X19233571Y-14502143D01*
X19262143Y-14502143D01*
X19281190Y-14511667D01*
X19290714Y-14530714D01*
X19290714Y-14635476D01*
X19414524Y-14635476D02*
X19395476Y-14625952D01*
X19385952Y-14616428D01*
X19376429Y-14597381D01*
X19376429Y-14540238D01*
X19385952Y-14521190D01*
X19395476Y-14511667D01*
X19414524Y-14502143D01*
X19443095Y-14502143D01*
X19462143Y-14511667D01*
X19471667Y-14521190D01*
X19481190Y-14540238D01*
X19481190Y-14597381D01*
X19471667Y-14616428D01*
X19462143Y-14625952D01*
X19443095Y-14635476D01*
X19414524Y-14635476D01*
X19538333Y-14502143D02*
X19614524Y-14502143D01*
X19566905Y-14435476D02*
X19566905Y-14606905D01*
X19576429Y-14625952D01*
X19595476Y-14635476D01*
X19614524Y-14635476D01*
X19833571Y-14502143D02*
X19833571Y-14702143D01*
X19833571Y-14511667D02*
X19852619Y-14502143D01*
X19890714Y-14502143D01*
X19909762Y-14511667D01*
X19919286Y-14521190D01*
X19928810Y-14540238D01*
X19928810Y-14597381D01*
X19919286Y-14616428D01*
X19909762Y-14625952D01*
X19890714Y-14635476D01*
X19852619Y-14635476D01*
X19833571Y-14625952D01*
X20043095Y-14635476D02*
X20024048Y-14625952D01*
X20014524Y-14606905D01*
X20014524Y-14435476D01*
X20205000Y-14635476D02*
X20205000Y-14530714D01*
X20195476Y-14511667D01*
X20176429Y-14502143D01*
X20138333Y-14502143D01*
X20119286Y-14511667D01*
X20205000Y-14625952D02*
X20185952Y-14635476D01*
X20138333Y-14635476D01*
X20119286Y-14625952D01*
X20109762Y-14606905D01*
X20109762Y-14587857D01*
X20119286Y-14568809D01*
X20138333Y-14559286D01*
X20185952Y-14559286D01*
X20205000Y-14549762D01*
X20271667Y-14502143D02*
X20347857Y-14502143D01*
X20300238Y-14435476D02*
X20300238Y-14606905D01*
X20309762Y-14625952D01*
X20328810Y-14635476D01*
X20347857Y-14635476D01*
X20490714Y-14625952D02*
X20471667Y-14635476D01*
X20433571Y-14635476D01*
X20414524Y-14625952D01*
X20405000Y-14606905D01*
X20405000Y-14530714D01*
X20414524Y-14511667D01*
X20433571Y-14502143D01*
X20471667Y-14502143D01*
X20490714Y-14511667D01*
X20500238Y-14530714D01*
X20500238Y-14549762D01*
X20405000Y-14568809D01*
X20671667Y-14635476D02*
X20671667Y-14435476D01*
X20671667Y-14625952D02*
X20652619Y-14635476D01*
X20614524Y-14635476D01*
X20595476Y-14625952D01*
X20585952Y-14616428D01*
X20576429Y-14597381D01*
X20576429Y-14540238D01*
X20585952Y-14521190D01*
X20595476Y-14511667D01*
X20614524Y-14502143D01*
X20652619Y-14502143D01*
X20671667Y-14511667D01*
X20747857Y-14711667D02*
X20757381Y-14702143D01*
X20776429Y-14673571D01*
X20785952Y-14654524D01*
X20795476Y-14625952D01*
X20805000Y-14578333D01*
X20805000Y-14540238D01*
X20795476Y-14492619D01*
X20785952Y-14464048D01*
X20776429Y-14445000D01*
X20757381Y-14416428D01*
X20747857Y-14406905D01*
X13995000Y-14865000D02*
G75*
G03*
X13995000Y-14865000I-100000J0D01*
G01*
X14233571Y-14755476D02*
X14357381Y-14755476D01*
X14290714Y-14831667D01*
X14319286Y-14831667D01*
X14338333Y-14841190D01*
X14347857Y-14850714D01*
X14357381Y-14869762D01*
X14357381Y-14917381D01*
X14347857Y-14936428D01*
X14338333Y-14945952D01*
X14319286Y-14955476D01*
X14262143Y-14955476D01*
X14243095Y-14945952D01*
X14233571Y-14936428D01*
X14443095Y-14936428D02*
X14452619Y-14945952D01*
X14443095Y-14955476D01*
X14433571Y-14945952D01*
X14443095Y-14936428D01*
X14443095Y-14955476D01*
X14633571Y-14755476D02*
X14538333Y-14755476D01*
X14528809Y-14850714D01*
X14538333Y-14841190D01*
X14557381Y-14831667D01*
X14605000Y-14831667D01*
X14624048Y-14841190D01*
X14633571Y-14850714D01*
X14643095Y-14869762D01*
X14643095Y-14917381D01*
X14633571Y-14936428D01*
X14624048Y-14945952D01*
X14605000Y-14955476D01*
X14557381Y-14955476D01*
X14538333Y-14945952D01*
X14528809Y-14936428D01*
X14766905Y-14755476D02*
X14785952Y-14755476D01*
X14805000Y-14765000D01*
X14814524Y-14774524D01*
X14824048Y-14793571D01*
X14833571Y-14831667D01*
X14833571Y-14879286D01*
X14824048Y-14917381D01*
X14814524Y-14936428D01*
X14805000Y-14945952D01*
X14785952Y-14955476D01*
X14766905Y-14955476D01*
X14747857Y-14945952D01*
X14738333Y-14936428D01*
X14728809Y-14917381D01*
X14719286Y-14879286D01*
X14719286Y-14831667D01*
X14728809Y-14793571D01*
X14738333Y-14774524D01*
X14747857Y-14765000D01*
X14766905Y-14755476D01*
X14957381Y-14755476D02*
X14976428Y-14755476D01*
X14995476Y-14765000D01*
X15005000Y-14774524D01*
X15014524Y-14793571D01*
X15024048Y-14831667D01*
X15024048Y-14879286D01*
X15014524Y-14917381D01*
X15005000Y-14936428D01*
X14995476Y-14945952D01*
X14976428Y-14955476D01*
X14957381Y-14955476D01*
X14938333Y-14945952D01*
X14928809Y-14936428D01*
X14919286Y-14917381D01*
X14909762Y-14879286D01*
X14909762Y-14831667D01*
X14919286Y-14793571D01*
X14928809Y-14774524D01*
X14938333Y-14765000D01*
X14957381Y-14755476D01*
X15109762Y-14955476D02*
X15109762Y-14822143D01*
X15109762Y-14841190D02*
X15119286Y-14831667D01*
X15138333Y-14822143D01*
X15166905Y-14822143D01*
X15185952Y-14831667D01*
X15195476Y-14850714D01*
X15195476Y-14955476D01*
X15195476Y-14850714D02*
X15205000Y-14831667D01*
X15224048Y-14822143D01*
X15252619Y-14822143D01*
X15271667Y-14831667D01*
X15281190Y-14850714D01*
X15281190Y-14955476D01*
X15376428Y-14955476D02*
X15376428Y-14822143D01*
X15376428Y-14841190D02*
X15385952Y-14831667D01*
X15405000Y-14822143D01*
X15433571Y-14822143D01*
X15452619Y-14831667D01*
X15462143Y-14850714D01*
X15462143Y-14955476D01*
X15462143Y-14850714D02*
X15471667Y-14831667D01*
X15490714Y-14822143D01*
X15519286Y-14822143D01*
X15538333Y-14831667D01*
X15547857Y-14850714D01*
X15547857Y-14955476D01*
X15938333Y-14745952D02*
X15766905Y-15003095D01*
X16195476Y-14755476D02*
X16214524Y-14755476D01*
X16233571Y-14765000D01*
X16243095Y-14774524D01*
X16252619Y-14793571D01*
X16262143Y-14831667D01*
X16262143Y-14879286D01*
X16252619Y-14917381D01*
X16243095Y-14936428D01*
X16233571Y-14945952D01*
X16214524Y-14955476D01*
X16195476Y-14955476D01*
X16176428Y-14945952D01*
X16166905Y-14936428D01*
X16157381Y-14917381D01*
X16147857Y-14879286D01*
X16147857Y-14831667D01*
X16157381Y-14793571D01*
X16166905Y-14774524D01*
X16176428Y-14765000D01*
X16195476Y-14755476D01*
X16347857Y-14936428D02*
X16357381Y-14945952D01*
X16347857Y-14955476D01*
X16338333Y-14945952D01*
X16347857Y-14936428D01*
X16347857Y-14955476D01*
X16547857Y-14955476D02*
X16433571Y-14955476D01*
X16490714Y-14955476D02*
X16490714Y-14755476D01*
X16471667Y-14784048D01*
X16452619Y-14803095D01*
X16433571Y-14812619D01*
X16614524Y-14755476D02*
X16738333Y-14755476D01*
X16671667Y-14831667D01*
X16700238Y-14831667D01*
X16719286Y-14841190D01*
X16728809Y-14850714D01*
X16738333Y-14869762D01*
X16738333Y-14917381D01*
X16728809Y-14936428D01*
X16719286Y-14945952D01*
X16700238Y-14955476D01*
X16643095Y-14955476D01*
X16624048Y-14945952D01*
X16614524Y-14936428D01*
X16805000Y-14755476D02*
X16938333Y-14755476D01*
X16852619Y-14955476D01*
X17043095Y-14841190D02*
X17024048Y-14831667D01*
X17014524Y-14822143D01*
X17005000Y-14803095D01*
X17005000Y-14793571D01*
X17014524Y-14774524D01*
X17024048Y-14765000D01*
X17043095Y-14755476D01*
X17081190Y-14755476D01*
X17100238Y-14765000D01*
X17109762Y-14774524D01*
X17119286Y-14793571D01*
X17119286Y-14803095D01*
X17109762Y-14822143D01*
X17100238Y-14831667D01*
X17081190Y-14841190D01*
X17043095Y-14841190D01*
X17024048Y-14850714D01*
X17014524Y-14860238D01*
X17005000Y-14879286D01*
X17005000Y-14917381D01*
X17014524Y-14936428D01*
X17024048Y-14945952D01*
X17043095Y-14955476D01*
X17081190Y-14955476D01*
X17100238Y-14945952D01*
X17109762Y-14936428D01*
X17119286Y-14917381D01*
X17119286Y-14879286D01*
X17109762Y-14860238D01*
X17100238Y-14850714D01*
X17081190Y-14841190D01*
X17195476Y-14755476D02*
X17195476Y-14793571D01*
X17271667Y-14755476D02*
X17271667Y-14793571D01*
X17566905Y-15031667D02*
X17557381Y-15022143D01*
X17538333Y-14993571D01*
X17528810Y-14974524D01*
X17519286Y-14945952D01*
X17509762Y-14898333D01*
X17509762Y-14860238D01*
X17519286Y-14812619D01*
X17528810Y-14784048D01*
X17538333Y-14765000D01*
X17557381Y-14736428D01*
X17566905Y-14726905D01*
X17747857Y-14955476D02*
X17633571Y-14955476D01*
X17690714Y-14955476D02*
X17690714Y-14755476D01*
X17671667Y-14784048D01*
X17652619Y-14803095D01*
X17633571Y-14812619D01*
X17985952Y-14955476D02*
X17985952Y-14755476D01*
X18071667Y-14955476D02*
X18071667Y-14850714D01*
X18062143Y-14831667D01*
X18043095Y-14822143D01*
X18014524Y-14822143D01*
X17995476Y-14831667D01*
X17985952Y-14841190D01*
X18195476Y-14955476D02*
X18176429Y-14945952D01*
X18166905Y-14936428D01*
X18157381Y-14917381D01*
X18157381Y-14860238D01*
X18166905Y-14841190D01*
X18176429Y-14831667D01*
X18195476Y-14822143D01*
X18224048Y-14822143D01*
X18243095Y-14831667D01*
X18252619Y-14841190D01*
X18262143Y-14860238D01*
X18262143Y-14917381D01*
X18252619Y-14936428D01*
X18243095Y-14945952D01*
X18224048Y-14955476D01*
X18195476Y-14955476D01*
X18376429Y-14955476D02*
X18357381Y-14945952D01*
X18347857Y-14926905D01*
X18347857Y-14755476D01*
X18528810Y-14945952D02*
X18509762Y-14955476D01*
X18471667Y-14955476D01*
X18452619Y-14945952D01*
X18443095Y-14926905D01*
X18443095Y-14850714D01*
X18452619Y-14831667D01*
X18471667Y-14822143D01*
X18509762Y-14822143D01*
X18528810Y-14831667D01*
X18538333Y-14850714D01*
X18538333Y-14869762D01*
X18443095Y-14888809D01*
X18605000Y-15031667D02*
X18614524Y-15022143D01*
X18633571Y-14993571D01*
X18643095Y-14974524D01*
X18652619Y-14945952D01*
X18662143Y-14898333D01*
X18662143Y-14860238D01*
X18652619Y-14812619D01*
X18643095Y-14784048D01*
X18633571Y-14765000D01*
X18614524Y-14736428D01*
X18605000Y-14726905D01*
X18966905Y-15031667D02*
X18957381Y-15022143D01*
X18938333Y-14993571D01*
X18928810Y-14974524D01*
X18919286Y-14945952D01*
X18909762Y-14898333D01*
X18909762Y-14860238D01*
X18919286Y-14812619D01*
X18928810Y-14784048D01*
X18938333Y-14765000D01*
X18957381Y-14736428D01*
X18966905Y-14726905D01*
X19043095Y-14822143D02*
X19043095Y-14955476D01*
X19043095Y-14841190D02*
X19052619Y-14831667D01*
X19071667Y-14822143D01*
X19100238Y-14822143D01*
X19119286Y-14831667D01*
X19128810Y-14850714D01*
X19128810Y-14955476D01*
X19252619Y-14955476D02*
X19233571Y-14945952D01*
X19224048Y-14936428D01*
X19214524Y-14917381D01*
X19214524Y-14860238D01*
X19224048Y-14841190D01*
X19233571Y-14831667D01*
X19252619Y-14822143D01*
X19281190Y-14822143D01*
X19300238Y-14831667D01*
X19309762Y-14841190D01*
X19319286Y-14860238D01*
X19319286Y-14917381D01*
X19309762Y-14936428D01*
X19300238Y-14945952D01*
X19281190Y-14955476D01*
X19252619Y-14955476D01*
X19376429Y-14822143D02*
X19452619Y-14822143D01*
X19405000Y-14755476D02*
X19405000Y-14926905D01*
X19414524Y-14945952D01*
X19433571Y-14955476D01*
X19452619Y-14955476D01*
X19671667Y-14822143D02*
X19671667Y-15022143D01*
X19671667Y-14831667D02*
X19690714Y-14822143D01*
X19728810Y-14822143D01*
X19747857Y-14831667D01*
X19757381Y-14841190D01*
X19766905Y-14860238D01*
X19766905Y-14917381D01*
X19757381Y-14936428D01*
X19747857Y-14945952D01*
X19728810Y-14955476D01*
X19690714Y-14955476D01*
X19671667Y-14945952D01*
X19881190Y-14955476D02*
X19862143Y-14945952D01*
X19852619Y-14926905D01*
X19852619Y-14755476D01*
X20043095Y-14955476D02*
X20043095Y-14850714D01*
X20033571Y-14831667D01*
X20014524Y-14822143D01*
X19976429Y-14822143D01*
X19957381Y-14831667D01*
X20043095Y-14945952D02*
X20024048Y-14955476D01*
X19976429Y-14955476D01*
X19957381Y-14945952D01*
X19947857Y-14926905D01*
X19947857Y-14907857D01*
X19957381Y-14888809D01*
X19976429Y-14879286D01*
X20024048Y-14879286D01*
X20043095Y-14869762D01*
X20109762Y-14822143D02*
X20185952Y-14822143D01*
X20138333Y-14755476D02*
X20138333Y-14926905D01*
X20147857Y-14945952D01*
X20166905Y-14955476D01*
X20185952Y-14955476D01*
X20328810Y-14945952D02*
X20309762Y-14955476D01*
X20271667Y-14955476D01*
X20252619Y-14945952D01*
X20243095Y-14926905D01*
X20243095Y-14850714D01*
X20252619Y-14831667D01*
X20271667Y-14822143D01*
X20309762Y-14822143D01*
X20328810Y-14831667D01*
X20338333Y-14850714D01*
X20338333Y-14869762D01*
X20243095Y-14888809D01*
X20509762Y-14955476D02*
X20509762Y-14755476D01*
X20509762Y-14945952D02*
X20490714Y-14955476D01*
X20452619Y-14955476D01*
X20433571Y-14945952D01*
X20424048Y-14936428D01*
X20414524Y-14917381D01*
X20414524Y-14860238D01*
X20424048Y-14841190D01*
X20433571Y-14831667D01*
X20452619Y-14822143D01*
X20490714Y-14822143D01*
X20509762Y-14831667D01*
X20585952Y-15031667D02*
X20595476Y-15022143D01*
X20614524Y-14993571D01*
X20624048Y-14974524D01*
X20633571Y-14945952D01*
X20643095Y-14898333D01*
X20643095Y-14860238D01*
X20633571Y-14812619D01*
X20624048Y-14784048D01*
X20614524Y-14765000D01*
X20595476Y-14736428D01*
X20585952Y-14726905D01*
M02*
