%FSLAX45Y45*%
G04 Gerber Fmt 4.5, Leading zero omitted, Abs format (unit mm)*
G04 Created by KiCad (PCBNEW (6.0.0)) date 2022-05-09 08:45:18*
%MOMM*%
%LPD*%
G01*
G04 APERTURE LIST*
%TA.AperFunction,Profile*%
%ADD10C,0.100000*%
%TD*%
%ADD11C,0.200000*%
%ADD12C,0.080000*%
%ADD13C,0.100000*%
G04 APERTURE END LIST*
D10*
X20300000Y-6300000D02*
G75*
G03*
X20000000Y-6000000I-300000J0D01*
G01*
X20000000Y-6000000D02*
X14300000Y-6000000D01*
X14300000Y-6000000D02*
G75*
G03*
X14000000Y-6300000I0J-300000D01*
G01*
X20300000Y-13600000D02*
X20300000Y-6300000D01*
X20000000Y-13900000D02*
X14300000Y-13900000D01*
X14000000Y-13600000D02*
G75*
G03*
X14300000Y-13900000I300000J0D01*
G01*
X14000000Y-6300000D02*
X14000000Y-13600000D01*
X20000000Y-13900000D02*
G75*
G03*
X20300000Y-13600000I0J300000D01*
G01*
D11*
D12*
X14666600Y-6564000D02*
X14746600Y-6644000D01*
X14746600Y-6564000D02*
X14666600Y-6644000D01*
X14666600Y-8215000D02*
X14746600Y-8295000D01*
X14746600Y-8215000D02*
X14666600Y-8295000D01*
X14742800Y-9777100D02*
X14822800Y-9857100D01*
X14822800Y-9777100D02*
X14742800Y-9857100D01*
X15390500Y-11898000D02*
X15470500Y-11978000D01*
X15470500Y-11898000D02*
X15390500Y-11978000D01*
X15859900Y-8570100D02*
X15939900Y-8650100D01*
X15939900Y-8570100D02*
X15859900Y-8650100D01*
X16292200Y-9231000D02*
X16372200Y-9311000D01*
X16372200Y-9231000D02*
X16292200Y-9311000D01*
X16540000Y-7800000D02*
X16620000Y-7880000D01*
X16620000Y-7800000D02*
X16540000Y-7880000D01*
X16610000Y-7310000D02*
X16690000Y-7390000D01*
X16690000Y-7310000D02*
X16610000Y-7390000D01*
X17028800Y-10247000D02*
X17108800Y-10327000D01*
X17108800Y-10247000D02*
X17028800Y-10327000D01*
X17536800Y-9078600D02*
X17616800Y-9158600D01*
X17616800Y-9078600D02*
X17536800Y-9158600D01*
X17994000Y-13599800D02*
X18074000Y-13679800D01*
X18074000Y-13599800D02*
X17994000Y-13679800D01*
X18362300Y-6538600D02*
X18442300Y-6618600D01*
X18442300Y-6538600D02*
X18362300Y-6618600D01*
X18883000Y-10221600D02*
X18963000Y-10301600D01*
X18963000Y-10221600D02*
X18883000Y-10301600D01*
X19162400Y-12202800D02*
X19242400Y-12282800D01*
X19242400Y-12202800D02*
X19162400Y-12282800D01*
X19937100Y-11504300D02*
X20017100Y-11584300D01*
X20017100Y-11504300D02*
X19937100Y-11584300D01*
X19949800Y-7834000D02*
X20029800Y-7914000D01*
X20029800Y-7834000D02*
X19949800Y-7914000D01*
X14708500Y-11588000D02*
G75*
G03*
X14708500Y-11588000I-40000J0D01*
G01*
X14708500Y-11938000D02*
G75*
G03*
X14708500Y-11938000I-40000J0D01*
G01*
X14760000Y-7605000D02*
G75*
G03*
X14760000Y-7605000I-40000J0D01*
G01*
X14760000Y-8875000D02*
G75*
G03*
X14760000Y-8875000I-40000J0D01*
G01*
X15327000Y-8168000D02*
G75*
G03*
X15327000Y-8168000I-40000J0D01*
G01*
X15327000Y-8930000D02*
G75*
G03*
X15327000Y-8930000I-40000J0D01*
G01*
X15581000Y-8168000D02*
G75*
G03*
X15581000Y-8168000I-40000J0D01*
G01*
X15581000Y-8930000D02*
G75*
G03*
X15581000Y-8930000I-40000J0D01*
G01*
X15835000Y-8168000D02*
G75*
G03*
X15835000Y-8168000I-40000J0D01*
G01*
X15835000Y-8930000D02*
G75*
G03*
X15835000Y-8930000I-40000J0D01*
G01*
X16089000Y-8168000D02*
G75*
G03*
X16089000Y-8168000I-40000J0D01*
G01*
X16089000Y-8930000D02*
G75*
G03*
X16089000Y-8930000I-40000J0D01*
G01*
X16270600Y-12319000D02*
G75*
G03*
X16270600Y-12319000I-40000J0D01*
G01*
X17286600Y-12319000D02*
G75*
G03*
X17286600Y-12319000I-40000J0D01*
G01*
X18010500Y-6985000D02*
G75*
G03*
X18010500Y-6985000I-40000J0D01*
G01*
X18152300Y-12763500D02*
G75*
G03*
X18152300Y-12763500I-40000J0D01*
G01*
X18152300Y-12915900D02*
G75*
G03*
X18152300Y-12915900I-40000J0D01*
G01*
X18152300Y-13068300D02*
G75*
G03*
X18152300Y-13068300I-40000J0D01*
G01*
X18658200Y-12903200D02*
G75*
G03*
X18658200Y-12903200I-40000J0D01*
G01*
X18810600Y-11303000D02*
G75*
G03*
X18810600Y-11303000I-40000J0D01*
G01*
X18810600Y-12319000D02*
G75*
G03*
X18810600Y-12319000I-40000J0D01*
G01*
X19026500Y-6985000D02*
G75*
G03*
X19026500Y-6985000I-40000J0D01*
G01*
X19674200Y-12903200D02*
G75*
G03*
X19674200Y-12903200I-40000J0D01*
G01*
D13*
X14593900Y-12647300D02*
X14593900Y-12747300D01*
X14543900Y-12697300D02*
X14643900Y-12697300D01*
X14593900Y-12847300D02*
X14593900Y-12947300D01*
X14543900Y-12897300D02*
X14643900Y-12897300D01*
X14594840Y-10250000D02*
X14594840Y-10350000D01*
X14544840Y-10300000D02*
X14644840Y-10300000D01*
X14594840Y-10504000D02*
X14594840Y-10604000D01*
X14544840Y-10554000D02*
X14644840Y-10554000D01*
X14594840Y-10758000D02*
X14594840Y-10858000D01*
X14544840Y-10808000D02*
X14644840Y-10808000D01*
X14594840Y-11012000D02*
X14594840Y-11112000D01*
X14544840Y-11062000D02*
X14644840Y-11062000D01*
X15240000Y-12091200D02*
X15240000Y-12191200D01*
X15190000Y-12141200D02*
X15290000Y-12141200D01*
X15240000Y-13361200D02*
X15240000Y-13461200D01*
X15190000Y-13411200D02*
X15290000Y-13411200D01*
X15342920Y-7499760D02*
X15342920Y-7599760D01*
X15292920Y-7549760D02*
X15392920Y-7549760D01*
X15365000Y-9743000D02*
X15365000Y-9843000D01*
X15315000Y-9793000D02*
X15415000Y-9793000D01*
X15365000Y-9997000D02*
X15365000Y-10097000D01*
X15315000Y-10047000D02*
X15415000Y-10047000D01*
X15365000Y-10251000D02*
X15365000Y-10351000D01*
X15315000Y-10301000D02*
X15415000Y-10301000D01*
X15365000Y-10505000D02*
X15365000Y-10605000D01*
X15315000Y-10555000D02*
X15415000Y-10555000D01*
X15365000Y-10759000D02*
X15365000Y-10859000D01*
X15315000Y-10809000D02*
X15415000Y-10809000D01*
X15365000Y-11013000D02*
X15365000Y-11113000D01*
X15315000Y-11063000D02*
X15415000Y-11063000D01*
X15365000Y-11267000D02*
X15365000Y-11367000D01*
X15315000Y-11317000D02*
X15415000Y-11317000D01*
X15365000Y-11521000D02*
X15365000Y-11621000D01*
X15315000Y-11571000D02*
X15415000Y-11571000D01*
X15542920Y-7499760D02*
X15542920Y-7599760D01*
X15492920Y-7549760D02*
X15592920Y-7549760D01*
X15717000Y-12726200D02*
X15717000Y-12826200D01*
X15667000Y-12776200D02*
X15767000Y-12776200D01*
X15717000Y-12980200D02*
X15717000Y-13080200D01*
X15667000Y-13030200D02*
X15767000Y-13030200D01*
X15717000Y-13234200D02*
X15717000Y-13334200D01*
X15667000Y-13284200D02*
X15767000Y-13284200D01*
X15742920Y-7499760D02*
X15742920Y-7599760D01*
X15692920Y-7549760D02*
X15792920Y-7549760D01*
X15940000Y-6550000D02*
X15940000Y-6650000D01*
X15890000Y-6600000D02*
X15990000Y-6600000D01*
X15942920Y-7499760D02*
X15942920Y-7599760D01*
X15892920Y-7549760D02*
X15992920Y-7549760D01*
X16140000Y-6550000D02*
X16140000Y-6650000D01*
X16090000Y-6600000D02*
X16190000Y-6600000D01*
X16142920Y-7499760D02*
X16142920Y-7599760D01*
X16092920Y-7549760D02*
X16192920Y-7549760D01*
X16340000Y-6550000D02*
X16340000Y-6650000D01*
X16290000Y-6600000D02*
X16390000Y-6600000D01*
X16635000Y-9743000D02*
X16635000Y-9843000D01*
X16585000Y-9793000D02*
X16685000Y-9793000D01*
X16635000Y-9997000D02*
X16635000Y-10097000D01*
X16585000Y-10047000D02*
X16685000Y-10047000D01*
X16635000Y-10251000D02*
X16635000Y-10351000D01*
X16585000Y-10301000D02*
X16685000Y-10301000D01*
X16635000Y-10505000D02*
X16635000Y-10605000D01*
X16585000Y-10555000D02*
X16685000Y-10555000D01*
X16635000Y-10759000D02*
X16635000Y-10859000D01*
X16585000Y-10809000D02*
X16685000Y-10809000D01*
X16635000Y-11013000D02*
X16635000Y-11113000D01*
X16585000Y-11063000D02*
X16685000Y-11063000D01*
X16635000Y-11267000D02*
X16635000Y-11367000D01*
X16585000Y-11317000D02*
X16685000Y-11317000D01*
X16635000Y-11521000D02*
X16635000Y-11621000D01*
X16585000Y-11571000D02*
X16685000Y-11571000D01*
X17500600Y-6909600D02*
X17500600Y-7009600D01*
X17450600Y-6959600D02*
X17550600Y-6959600D01*
X17500600Y-7163600D02*
X17500600Y-7263600D01*
X17450600Y-7213600D02*
X17550600Y-7213600D01*
X17941060Y-8164000D02*
X17941060Y-8264000D01*
X17891060Y-8214000D02*
X17991060Y-8214000D01*
X17941060Y-8418000D02*
X17941060Y-8518000D01*
X17891060Y-8468000D02*
X17991060Y-8468000D01*
X17941060Y-8672000D02*
X17941060Y-8772000D01*
X17891060Y-8722000D02*
X17991060Y-8722000D01*
X17941060Y-8926000D02*
X17941060Y-9026000D01*
X17891060Y-8976000D02*
X17991060Y-8976000D01*
X17941060Y-9180000D02*
X17941060Y-9280000D01*
X17891060Y-9230000D02*
X17991060Y-9230000D01*
X17941060Y-9434000D02*
X17941060Y-9534000D01*
X17891060Y-9484000D02*
X17991060Y-9484000D01*
X17941060Y-9688000D02*
X17941060Y-9788000D01*
X17891060Y-9738000D02*
X17991060Y-9738000D01*
X17941060Y-9942000D02*
X17941060Y-10042000D01*
X17891060Y-9992000D02*
X17991060Y-9992000D01*
X17941060Y-10196000D02*
X17941060Y-10296000D01*
X17891060Y-10246000D02*
X17991060Y-10246000D01*
X17941060Y-10450000D02*
X17941060Y-10550000D01*
X17891060Y-10500000D02*
X17991060Y-10500000D01*
X17941060Y-10704000D02*
X17941060Y-10804000D01*
X17891060Y-10754000D02*
X17991060Y-10754000D01*
X17941060Y-10958000D02*
X17941060Y-11058000D01*
X17891060Y-11008000D02*
X17991060Y-11008000D01*
X17941060Y-11212000D02*
X17941060Y-11312000D01*
X17891060Y-11262000D02*
X17991060Y-11262000D01*
X17941060Y-11466000D02*
X17941060Y-11566000D01*
X17891060Y-11516000D02*
X17991060Y-11516000D01*
X17941060Y-11720000D02*
X17941060Y-11820000D01*
X17891060Y-11770000D02*
X17991060Y-11770000D01*
X19465060Y-8164000D02*
X19465060Y-8264000D01*
X19415060Y-8214000D02*
X19515060Y-8214000D01*
X19465060Y-8418000D02*
X19465060Y-8518000D01*
X19415060Y-8468000D02*
X19515060Y-8468000D01*
X19465060Y-8672000D02*
X19465060Y-8772000D01*
X19415060Y-8722000D02*
X19515060Y-8722000D01*
X19465060Y-8926000D02*
X19465060Y-9026000D01*
X19415060Y-8976000D02*
X19515060Y-8976000D01*
X19465060Y-9180000D02*
X19465060Y-9280000D01*
X19415060Y-9230000D02*
X19515060Y-9230000D01*
X19465060Y-9434000D02*
X19465060Y-9534000D01*
X19415060Y-9484000D02*
X19515060Y-9484000D01*
X19465060Y-9688000D02*
X19465060Y-9788000D01*
X19415060Y-9738000D02*
X19515060Y-9738000D01*
X19465060Y-9942000D02*
X19465060Y-10042000D01*
X19415060Y-9992000D02*
X19515060Y-9992000D01*
X19465060Y-10196000D02*
X19465060Y-10296000D01*
X19415060Y-10246000D02*
X19515060Y-10246000D01*
X19465060Y-10450000D02*
X19465060Y-10550000D01*
X19415060Y-10500000D02*
X19515060Y-10500000D01*
X19465060Y-10704000D02*
X19465060Y-10804000D01*
X19415060Y-10754000D02*
X19515060Y-10754000D01*
X19465060Y-10958000D02*
X19465060Y-11058000D01*
X19415060Y-11008000D02*
X19515060Y-11008000D01*
X19465060Y-11212000D02*
X19465060Y-11312000D01*
X19415060Y-11262000D02*
X19515060Y-11262000D01*
X19465060Y-11466000D02*
X19465060Y-11566000D01*
X19415060Y-11516000D02*
X19515060Y-11516000D01*
X19465060Y-11720000D02*
X19465060Y-11820000D01*
X19415060Y-11770000D02*
X19515060Y-11770000D01*
D11*
X14252619Y-14215476D02*
X14252619Y-14015476D01*
X14300238Y-14015476D01*
X14328809Y-14025000D01*
X14347857Y-14044048D01*
X14357381Y-14063095D01*
X14366905Y-14101190D01*
X14366905Y-14129762D01*
X14357381Y-14167857D01*
X14347857Y-14186905D01*
X14328809Y-14205952D01*
X14300238Y-14215476D01*
X14252619Y-14215476D01*
X14452619Y-14215476D02*
X14452619Y-14082143D01*
X14452619Y-14120238D02*
X14462143Y-14101190D01*
X14471667Y-14091667D01*
X14490714Y-14082143D01*
X14509762Y-14082143D01*
X14576428Y-14215476D02*
X14576428Y-14082143D01*
X14576428Y-14015476D02*
X14566905Y-14025000D01*
X14576428Y-14034524D01*
X14585952Y-14025000D01*
X14576428Y-14015476D01*
X14576428Y-14034524D01*
X14700238Y-14215476D02*
X14681190Y-14205952D01*
X14671667Y-14186905D01*
X14671667Y-14015476D01*
X14805000Y-14215476D02*
X14785952Y-14205952D01*
X14776428Y-14186905D01*
X14776428Y-14015476D01*
X15033571Y-14215476D02*
X15033571Y-14015476D01*
X15100238Y-14158333D01*
X15166905Y-14015476D01*
X15166905Y-14215476D01*
X15347857Y-14215476D02*
X15347857Y-14110714D01*
X15338333Y-14091667D01*
X15319286Y-14082143D01*
X15281190Y-14082143D01*
X15262143Y-14091667D01*
X15347857Y-14205952D02*
X15328809Y-14215476D01*
X15281190Y-14215476D01*
X15262143Y-14205952D01*
X15252619Y-14186905D01*
X15252619Y-14167857D01*
X15262143Y-14148809D01*
X15281190Y-14139286D01*
X15328809Y-14139286D01*
X15347857Y-14129762D01*
X15443095Y-14082143D02*
X15443095Y-14282143D01*
X15443095Y-14091667D02*
X15462143Y-14082143D01*
X15500238Y-14082143D01*
X15519286Y-14091667D01*
X15528809Y-14101190D01*
X15538333Y-14120238D01*
X15538333Y-14177381D01*
X15528809Y-14196428D01*
X15519286Y-14205952D01*
X15500238Y-14215476D01*
X15462143Y-14215476D01*
X15443095Y-14205952D01*
X15624048Y-14196428D02*
X15633571Y-14205952D01*
X15624048Y-14215476D01*
X15614524Y-14205952D01*
X15624048Y-14196428D01*
X15624048Y-14215476D01*
X15624048Y-14091667D02*
X15633571Y-14101190D01*
X15624048Y-14110714D01*
X15614524Y-14101190D01*
X15624048Y-14091667D01*
X15624048Y-14110714D01*
D12*
X13915000Y-14505000D02*
X13995000Y-14585000D01*
X13995000Y-14505000D02*
X13915000Y-14585000D01*
D11*
X14290714Y-14435476D02*
X14309762Y-14435476D01*
X14328809Y-14445000D01*
X14338333Y-14454524D01*
X14347857Y-14473571D01*
X14357381Y-14511667D01*
X14357381Y-14559286D01*
X14347857Y-14597381D01*
X14338333Y-14616428D01*
X14328809Y-14625952D01*
X14309762Y-14635476D01*
X14290714Y-14635476D01*
X14271667Y-14625952D01*
X14262143Y-14616428D01*
X14252619Y-14597381D01*
X14243095Y-14559286D01*
X14243095Y-14511667D01*
X14252619Y-14473571D01*
X14262143Y-14454524D01*
X14271667Y-14445000D01*
X14290714Y-14435476D01*
X14443095Y-14616428D02*
X14452619Y-14625952D01*
X14443095Y-14635476D01*
X14433571Y-14625952D01*
X14443095Y-14616428D01*
X14443095Y-14635476D01*
X14566905Y-14521190D02*
X14547857Y-14511667D01*
X14538333Y-14502143D01*
X14528809Y-14483095D01*
X14528809Y-14473571D01*
X14538333Y-14454524D01*
X14547857Y-14445000D01*
X14566905Y-14435476D01*
X14605000Y-14435476D01*
X14624048Y-14445000D01*
X14633571Y-14454524D01*
X14643095Y-14473571D01*
X14643095Y-14483095D01*
X14633571Y-14502143D01*
X14624048Y-14511667D01*
X14605000Y-14521190D01*
X14566905Y-14521190D01*
X14547857Y-14530714D01*
X14538333Y-14540238D01*
X14528809Y-14559286D01*
X14528809Y-14597381D01*
X14538333Y-14616428D01*
X14547857Y-14625952D01*
X14566905Y-14635476D01*
X14605000Y-14635476D01*
X14624048Y-14625952D01*
X14633571Y-14616428D01*
X14643095Y-14597381D01*
X14643095Y-14559286D01*
X14633571Y-14540238D01*
X14624048Y-14530714D01*
X14605000Y-14521190D01*
X14766905Y-14435476D02*
X14785952Y-14435476D01*
X14805000Y-14445000D01*
X14814524Y-14454524D01*
X14824048Y-14473571D01*
X14833571Y-14511667D01*
X14833571Y-14559286D01*
X14824048Y-14597381D01*
X14814524Y-14616428D01*
X14805000Y-14625952D01*
X14785952Y-14635476D01*
X14766905Y-14635476D01*
X14747857Y-14625952D01*
X14738333Y-14616428D01*
X14728809Y-14597381D01*
X14719286Y-14559286D01*
X14719286Y-14511667D01*
X14728809Y-14473571D01*
X14738333Y-14454524D01*
X14747857Y-14445000D01*
X14766905Y-14435476D01*
X14957381Y-14435476D02*
X14976428Y-14435476D01*
X14995476Y-14445000D01*
X15005000Y-14454524D01*
X15014524Y-14473571D01*
X15024048Y-14511667D01*
X15024048Y-14559286D01*
X15014524Y-14597381D01*
X15005000Y-14616428D01*
X14995476Y-14625952D01*
X14976428Y-14635476D01*
X14957381Y-14635476D01*
X14938333Y-14625952D01*
X14928809Y-14616428D01*
X14919286Y-14597381D01*
X14909762Y-14559286D01*
X14909762Y-14511667D01*
X14919286Y-14473571D01*
X14928809Y-14454524D01*
X14938333Y-14445000D01*
X14957381Y-14435476D01*
X15109762Y-14635476D02*
X15109762Y-14502143D01*
X15109762Y-14521190D02*
X15119286Y-14511667D01*
X15138333Y-14502143D01*
X15166905Y-14502143D01*
X15185952Y-14511667D01*
X15195476Y-14530714D01*
X15195476Y-14635476D01*
X15195476Y-14530714D02*
X15205000Y-14511667D01*
X15224048Y-14502143D01*
X15252619Y-14502143D01*
X15271667Y-14511667D01*
X15281190Y-14530714D01*
X15281190Y-14635476D01*
X15376428Y-14635476D02*
X15376428Y-14502143D01*
X15376428Y-14521190D02*
X15385952Y-14511667D01*
X15405000Y-14502143D01*
X15433571Y-14502143D01*
X15452619Y-14511667D01*
X15462143Y-14530714D01*
X15462143Y-14635476D01*
X15462143Y-14530714D02*
X15471667Y-14511667D01*
X15490714Y-14502143D01*
X15519286Y-14502143D01*
X15538333Y-14511667D01*
X15547857Y-14530714D01*
X15547857Y-14635476D01*
X15938333Y-14425952D02*
X15766905Y-14683095D01*
X16195476Y-14435476D02*
X16214524Y-14435476D01*
X16233571Y-14445000D01*
X16243095Y-14454524D01*
X16252619Y-14473571D01*
X16262143Y-14511667D01*
X16262143Y-14559286D01*
X16252619Y-14597381D01*
X16243095Y-14616428D01*
X16233571Y-14625952D01*
X16214524Y-14635476D01*
X16195476Y-14635476D01*
X16176428Y-14625952D01*
X16166905Y-14616428D01*
X16157381Y-14597381D01*
X16147857Y-14559286D01*
X16147857Y-14511667D01*
X16157381Y-14473571D01*
X16166905Y-14454524D01*
X16176428Y-14445000D01*
X16195476Y-14435476D01*
X16347857Y-14616428D02*
X16357381Y-14625952D01*
X16347857Y-14635476D01*
X16338333Y-14625952D01*
X16347857Y-14616428D01*
X16347857Y-14635476D01*
X16481190Y-14435476D02*
X16500238Y-14435476D01*
X16519286Y-14445000D01*
X16528809Y-14454524D01*
X16538333Y-14473571D01*
X16547857Y-14511667D01*
X16547857Y-14559286D01*
X16538333Y-14597381D01*
X16528809Y-14616428D01*
X16519286Y-14625952D01*
X16500238Y-14635476D01*
X16481190Y-14635476D01*
X16462143Y-14625952D01*
X16452619Y-14616428D01*
X16443095Y-14597381D01*
X16433571Y-14559286D01*
X16433571Y-14511667D01*
X16443095Y-14473571D01*
X16452619Y-14454524D01*
X16462143Y-14445000D01*
X16481190Y-14435476D01*
X16614524Y-14435476D02*
X16738333Y-14435476D01*
X16671667Y-14511667D01*
X16700238Y-14511667D01*
X16719286Y-14521190D01*
X16728809Y-14530714D01*
X16738333Y-14549762D01*
X16738333Y-14597381D01*
X16728809Y-14616428D01*
X16719286Y-14625952D01*
X16700238Y-14635476D01*
X16643095Y-14635476D01*
X16624048Y-14625952D01*
X16614524Y-14616428D01*
X16928810Y-14635476D02*
X16814524Y-14635476D01*
X16871667Y-14635476D02*
X16871667Y-14435476D01*
X16852619Y-14464048D01*
X16833571Y-14483095D01*
X16814524Y-14492619D01*
X17109762Y-14435476D02*
X17014524Y-14435476D01*
X17005000Y-14530714D01*
X17014524Y-14521190D01*
X17033571Y-14511667D01*
X17081190Y-14511667D01*
X17100238Y-14521190D01*
X17109762Y-14530714D01*
X17119286Y-14549762D01*
X17119286Y-14597381D01*
X17109762Y-14616428D01*
X17100238Y-14625952D01*
X17081190Y-14635476D01*
X17033571Y-14635476D01*
X17014524Y-14625952D01*
X17005000Y-14616428D01*
X17195476Y-14435476D02*
X17195476Y-14473571D01*
X17271667Y-14435476D02*
X17271667Y-14473571D01*
X17566905Y-14711667D02*
X17557381Y-14702143D01*
X17538333Y-14673571D01*
X17528810Y-14654524D01*
X17519286Y-14625952D01*
X17509762Y-14578333D01*
X17509762Y-14540238D01*
X17519286Y-14492619D01*
X17528810Y-14464048D01*
X17538333Y-14445000D01*
X17557381Y-14416428D01*
X17566905Y-14406905D01*
X17747857Y-14635476D02*
X17633571Y-14635476D01*
X17690714Y-14635476D02*
X17690714Y-14435476D01*
X17671667Y-14464048D01*
X17652619Y-14483095D01*
X17633571Y-14492619D01*
X17919286Y-14435476D02*
X17881190Y-14435476D01*
X17862143Y-14445000D01*
X17852619Y-14454524D01*
X17833571Y-14483095D01*
X17824048Y-14521190D01*
X17824048Y-14597381D01*
X17833571Y-14616428D01*
X17843095Y-14625952D01*
X17862143Y-14635476D01*
X17900238Y-14635476D01*
X17919286Y-14625952D01*
X17928810Y-14616428D01*
X17938333Y-14597381D01*
X17938333Y-14549762D01*
X17928810Y-14530714D01*
X17919286Y-14521190D01*
X17900238Y-14511667D01*
X17862143Y-14511667D01*
X17843095Y-14521190D01*
X17833571Y-14530714D01*
X17824048Y-14549762D01*
X18176429Y-14635476D02*
X18176429Y-14435476D01*
X18262143Y-14635476D02*
X18262143Y-14530714D01*
X18252619Y-14511667D01*
X18233571Y-14502143D01*
X18205000Y-14502143D01*
X18185952Y-14511667D01*
X18176429Y-14521190D01*
X18385952Y-14635476D02*
X18366905Y-14625952D01*
X18357381Y-14616428D01*
X18347857Y-14597381D01*
X18347857Y-14540238D01*
X18357381Y-14521190D01*
X18366905Y-14511667D01*
X18385952Y-14502143D01*
X18414524Y-14502143D01*
X18433571Y-14511667D01*
X18443095Y-14521190D01*
X18452619Y-14540238D01*
X18452619Y-14597381D01*
X18443095Y-14616428D01*
X18433571Y-14625952D01*
X18414524Y-14635476D01*
X18385952Y-14635476D01*
X18566905Y-14635476D02*
X18547857Y-14625952D01*
X18538333Y-14606905D01*
X18538333Y-14435476D01*
X18719286Y-14625952D02*
X18700238Y-14635476D01*
X18662143Y-14635476D01*
X18643095Y-14625952D01*
X18633571Y-14606905D01*
X18633571Y-14530714D01*
X18643095Y-14511667D01*
X18662143Y-14502143D01*
X18700238Y-14502143D01*
X18719286Y-14511667D01*
X18728810Y-14530714D01*
X18728810Y-14549762D01*
X18633571Y-14568809D01*
X18805000Y-14625952D02*
X18824048Y-14635476D01*
X18862143Y-14635476D01*
X18881190Y-14625952D01*
X18890714Y-14606905D01*
X18890714Y-14597381D01*
X18881190Y-14578333D01*
X18862143Y-14568809D01*
X18833571Y-14568809D01*
X18814524Y-14559286D01*
X18805000Y-14540238D01*
X18805000Y-14530714D01*
X18814524Y-14511667D01*
X18833571Y-14502143D01*
X18862143Y-14502143D01*
X18881190Y-14511667D01*
X18957381Y-14711667D02*
X18966905Y-14702143D01*
X18985952Y-14673571D01*
X18995476Y-14654524D01*
X19005000Y-14625952D01*
X19014524Y-14578333D01*
X19014524Y-14540238D01*
X19005000Y-14492619D01*
X18995476Y-14464048D01*
X18985952Y-14445000D01*
X18966905Y-14416428D01*
X18957381Y-14406905D01*
D12*
X13995000Y-14809000D02*
G75*
G03*
X13995000Y-14809000I-40000J0D01*
G01*
D11*
X14290714Y-14699476D02*
X14309762Y-14699476D01*
X14328809Y-14709000D01*
X14338333Y-14718524D01*
X14347857Y-14737571D01*
X14357381Y-14775667D01*
X14357381Y-14823286D01*
X14347857Y-14861381D01*
X14338333Y-14880428D01*
X14328809Y-14889952D01*
X14309762Y-14899476D01*
X14290714Y-14899476D01*
X14271667Y-14889952D01*
X14262143Y-14880428D01*
X14252619Y-14861381D01*
X14243095Y-14823286D01*
X14243095Y-14775667D01*
X14252619Y-14737571D01*
X14262143Y-14718524D01*
X14271667Y-14709000D01*
X14290714Y-14699476D01*
X14443095Y-14880428D02*
X14452619Y-14889952D01*
X14443095Y-14899476D01*
X14433571Y-14889952D01*
X14443095Y-14880428D01*
X14443095Y-14899476D01*
X14566905Y-14785190D02*
X14547857Y-14775667D01*
X14538333Y-14766143D01*
X14528809Y-14747095D01*
X14528809Y-14737571D01*
X14538333Y-14718524D01*
X14547857Y-14709000D01*
X14566905Y-14699476D01*
X14605000Y-14699476D01*
X14624048Y-14709000D01*
X14633571Y-14718524D01*
X14643095Y-14737571D01*
X14643095Y-14747095D01*
X14633571Y-14766143D01*
X14624048Y-14775667D01*
X14605000Y-14785190D01*
X14566905Y-14785190D01*
X14547857Y-14794714D01*
X14538333Y-14804238D01*
X14528809Y-14823286D01*
X14528809Y-14861381D01*
X14538333Y-14880428D01*
X14547857Y-14889952D01*
X14566905Y-14899476D01*
X14605000Y-14899476D01*
X14624048Y-14889952D01*
X14633571Y-14880428D01*
X14643095Y-14861381D01*
X14643095Y-14823286D01*
X14633571Y-14804238D01*
X14624048Y-14794714D01*
X14605000Y-14785190D01*
X14766905Y-14699476D02*
X14785952Y-14699476D01*
X14805000Y-14709000D01*
X14814524Y-14718524D01*
X14824048Y-14737571D01*
X14833571Y-14775667D01*
X14833571Y-14823286D01*
X14824048Y-14861381D01*
X14814524Y-14880428D01*
X14805000Y-14889952D01*
X14785952Y-14899476D01*
X14766905Y-14899476D01*
X14747857Y-14889952D01*
X14738333Y-14880428D01*
X14728809Y-14861381D01*
X14719286Y-14823286D01*
X14719286Y-14775667D01*
X14728809Y-14737571D01*
X14738333Y-14718524D01*
X14747857Y-14709000D01*
X14766905Y-14699476D01*
X14957381Y-14699476D02*
X14976428Y-14699476D01*
X14995476Y-14709000D01*
X15005000Y-14718524D01*
X15014524Y-14737571D01*
X15024048Y-14775667D01*
X15024048Y-14823286D01*
X15014524Y-14861381D01*
X15005000Y-14880428D01*
X14995476Y-14889952D01*
X14976428Y-14899476D01*
X14957381Y-14899476D01*
X14938333Y-14889952D01*
X14928809Y-14880428D01*
X14919286Y-14861381D01*
X14909762Y-14823286D01*
X14909762Y-14775667D01*
X14919286Y-14737571D01*
X14928809Y-14718524D01*
X14938333Y-14709000D01*
X14957381Y-14699476D01*
X15109762Y-14899476D02*
X15109762Y-14766143D01*
X15109762Y-14785190D02*
X15119286Y-14775667D01*
X15138333Y-14766143D01*
X15166905Y-14766143D01*
X15185952Y-14775667D01*
X15195476Y-14794714D01*
X15195476Y-14899476D01*
X15195476Y-14794714D02*
X15205000Y-14775667D01*
X15224048Y-14766143D01*
X15252619Y-14766143D01*
X15271667Y-14775667D01*
X15281190Y-14794714D01*
X15281190Y-14899476D01*
X15376428Y-14899476D02*
X15376428Y-14766143D01*
X15376428Y-14785190D02*
X15385952Y-14775667D01*
X15405000Y-14766143D01*
X15433571Y-14766143D01*
X15452619Y-14775667D01*
X15462143Y-14794714D01*
X15462143Y-14899476D01*
X15462143Y-14794714D02*
X15471667Y-14775667D01*
X15490714Y-14766143D01*
X15519286Y-14766143D01*
X15538333Y-14775667D01*
X15547857Y-14794714D01*
X15547857Y-14899476D01*
X15938333Y-14689952D02*
X15766905Y-14947095D01*
X16195476Y-14699476D02*
X16214524Y-14699476D01*
X16233571Y-14709000D01*
X16243095Y-14718524D01*
X16252619Y-14737571D01*
X16262143Y-14775667D01*
X16262143Y-14823286D01*
X16252619Y-14861381D01*
X16243095Y-14880428D01*
X16233571Y-14889952D01*
X16214524Y-14899476D01*
X16195476Y-14899476D01*
X16176428Y-14889952D01*
X16166905Y-14880428D01*
X16157381Y-14861381D01*
X16147857Y-14823286D01*
X16147857Y-14775667D01*
X16157381Y-14737571D01*
X16166905Y-14718524D01*
X16176428Y-14709000D01*
X16195476Y-14699476D01*
X16347857Y-14880428D02*
X16357381Y-14889952D01*
X16347857Y-14899476D01*
X16338333Y-14889952D01*
X16347857Y-14880428D01*
X16347857Y-14899476D01*
X16481190Y-14699476D02*
X16500238Y-14699476D01*
X16519286Y-14709000D01*
X16528809Y-14718524D01*
X16538333Y-14737571D01*
X16547857Y-14775667D01*
X16547857Y-14823286D01*
X16538333Y-14861381D01*
X16528809Y-14880428D01*
X16519286Y-14889952D01*
X16500238Y-14899476D01*
X16481190Y-14899476D01*
X16462143Y-14889952D01*
X16452619Y-14880428D01*
X16443095Y-14861381D01*
X16433571Y-14823286D01*
X16433571Y-14775667D01*
X16443095Y-14737571D01*
X16452619Y-14718524D01*
X16462143Y-14709000D01*
X16481190Y-14699476D01*
X16614524Y-14699476D02*
X16738333Y-14699476D01*
X16671667Y-14775667D01*
X16700238Y-14775667D01*
X16719286Y-14785190D01*
X16728809Y-14794714D01*
X16738333Y-14813762D01*
X16738333Y-14861381D01*
X16728809Y-14880428D01*
X16719286Y-14889952D01*
X16700238Y-14899476D01*
X16643095Y-14899476D01*
X16624048Y-14889952D01*
X16614524Y-14880428D01*
X16928810Y-14899476D02*
X16814524Y-14899476D01*
X16871667Y-14899476D02*
X16871667Y-14699476D01*
X16852619Y-14728048D01*
X16833571Y-14747095D01*
X16814524Y-14756619D01*
X17109762Y-14699476D02*
X17014524Y-14699476D01*
X17005000Y-14794714D01*
X17014524Y-14785190D01*
X17033571Y-14775667D01*
X17081190Y-14775667D01*
X17100238Y-14785190D01*
X17109762Y-14794714D01*
X17119286Y-14813762D01*
X17119286Y-14861381D01*
X17109762Y-14880428D01*
X17100238Y-14889952D01*
X17081190Y-14899476D01*
X17033571Y-14899476D01*
X17014524Y-14889952D01*
X17005000Y-14880428D01*
X17195476Y-14699476D02*
X17195476Y-14737571D01*
X17271667Y-14699476D02*
X17271667Y-14737571D01*
X17566905Y-14975667D02*
X17557381Y-14966143D01*
X17538333Y-14937571D01*
X17528810Y-14918524D01*
X17519286Y-14889952D01*
X17509762Y-14842333D01*
X17509762Y-14804238D01*
X17519286Y-14756619D01*
X17528810Y-14728048D01*
X17538333Y-14709000D01*
X17557381Y-14680428D01*
X17566905Y-14670905D01*
X17633571Y-14718524D02*
X17643095Y-14709000D01*
X17662143Y-14699476D01*
X17709762Y-14699476D01*
X17728810Y-14709000D01*
X17738333Y-14718524D01*
X17747857Y-14737571D01*
X17747857Y-14756619D01*
X17738333Y-14785190D01*
X17624048Y-14899476D01*
X17747857Y-14899476D01*
X17814524Y-14699476D02*
X17938333Y-14699476D01*
X17871667Y-14775667D01*
X17900238Y-14775667D01*
X17919286Y-14785190D01*
X17928810Y-14794714D01*
X17938333Y-14813762D01*
X17938333Y-14861381D01*
X17928810Y-14880428D01*
X17919286Y-14889952D01*
X17900238Y-14899476D01*
X17843095Y-14899476D01*
X17824048Y-14889952D01*
X17814524Y-14880428D01*
X18176429Y-14899476D02*
X18176429Y-14699476D01*
X18262143Y-14899476D02*
X18262143Y-14794714D01*
X18252619Y-14775667D01*
X18233571Y-14766143D01*
X18205000Y-14766143D01*
X18185952Y-14775667D01*
X18176429Y-14785190D01*
X18385952Y-14899476D02*
X18366905Y-14889952D01*
X18357381Y-14880428D01*
X18347857Y-14861381D01*
X18347857Y-14804238D01*
X18357381Y-14785190D01*
X18366905Y-14775667D01*
X18385952Y-14766143D01*
X18414524Y-14766143D01*
X18433571Y-14775667D01*
X18443095Y-14785190D01*
X18452619Y-14804238D01*
X18452619Y-14861381D01*
X18443095Y-14880428D01*
X18433571Y-14889952D01*
X18414524Y-14899476D01*
X18385952Y-14899476D01*
X18566905Y-14899476D02*
X18547857Y-14889952D01*
X18538333Y-14870905D01*
X18538333Y-14699476D01*
X18719286Y-14889952D02*
X18700238Y-14899476D01*
X18662143Y-14899476D01*
X18643095Y-14889952D01*
X18633571Y-14870905D01*
X18633571Y-14794714D01*
X18643095Y-14775667D01*
X18662143Y-14766143D01*
X18700238Y-14766143D01*
X18719286Y-14775667D01*
X18728810Y-14794714D01*
X18728810Y-14813762D01*
X18633571Y-14832809D01*
X18805000Y-14889952D02*
X18824048Y-14899476D01*
X18862143Y-14899476D01*
X18881190Y-14889952D01*
X18890714Y-14870905D01*
X18890714Y-14861381D01*
X18881190Y-14842333D01*
X18862143Y-14832809D01*
X18833571Y-14832809D01*
X18814524Y-14823286D01*
X18805000Y-14804238D01*
X18805000Y-14794714D01*
X18814524Y-14775667D01*
X18833571Y-14766143D01*
X18862143Y-14766143D01*
X18881190Y-14775667D01*
X18957381Y-14975667D02*
X18966905Y-14966143D01*
X18985952Y-14937571D01*
X18995476Y-14918524D01*
X19005000Y-14889952D01*
X19014524Y-14842333D01*
X19014524Y-14804238D01*
X19005000Y-14756619D01*
X18995476Y-14728048D01*
X18985952Y-14709000D01*
X18966905Y-14680428D01*
X18957381Y-14670905D01*
D13*
X13945000Y-15023000D02*
X13945000Y-15123000D01*
X13895000Y-15073000D02*
X13995000Y-15073000D01*
D11*
X14357381Y-15163476D02*
X14243095Y-15163476D01*
X14300238Y-15163476D02*
X14300238Y-14963476D01*
X14281190Y-14992048D01*
X14262143Y-15011095D01*
X14243095Y-15020619D01*
X14443095Y-15144428D02*
X14452619Y-15153952D01*
X14443095Y-15163476D01*
X14433571Y-15153952D01*
X14443095Y-15144428D01*
X14443095Y-15163476D01*
X14576428Y-14963476D02*
X14595476Y-14963476D01*
X14614524Y-14973000D01*
X14624048Y-14982524D01*
X14633571Y-15001571D01*
X14643095Y-15039667D01*
X14643095Y-15087286D01*
X14633571Y-15125381D01*
X14624048Y-15144428D01*
X14614524Y-15153952D01*
X14595476Y-15163476D01*
X14576428Y-15163476D01*
X14557381Y-15153952D01*
X14547857Y-15144428D01*
X14538333Y-15125381D01*
X14528809Y-15087286D01*
X14528809Y-15039667D01*
X14538333Y-15001571D01*
X14547857Y-14982524D01*
X14557381Y-14973000D01*
X14576428Y-14963476D01*
X14766905Y-14963476D02*
X14785952Y-14963476D01*
X14805000Y-14973000D01*
X14814524Y-14982524D01*
X14824048Y-15001571D01*
X14833571Y-15039667D01*
X14833571Y-15087286D01*
X14824048Y-15125381D01*
X14814524Y-15144428D01*
X14805000Y-15153952D01*
X14785952Y-15163476D01*
X14766905Y-15163476D01*
X14747857Y-15153952D01*
X14738333Y-15144428D01*
X14728809Y-15125381D01*
X14719286Y-15087286D01*
X14719286Y-15039667D01*
X14728809Y-15001571D01*
X14738333Y-14982524D01*
X14747857Y-14973000D01*
X14766905Y-14963476D01*
X14957381Y-14963476D02*
X14976428Y-14963476D01*
X14995476Y-14973000D01*
X15005000Y-14982524D01*
X15014524Y-15001571D01*
X15024048Y-15039667D01*
X15024048Y-15087286D01*
X15014524Y-15125381D01*
X15005000Y-15144428D01*
X14995476Y-15153952D01*
X14976428Y-15163476D01*
X14957381Y-15163476D01*
X14938333Y-15153952D01*
X14928809Y-15144428D01*
X14919286Y-15125381D01*
X14909762Y-15087286D01*
X14909762Y-15039667D01*
X14919286Y-15001571D01*
X14928809Y-14982524D01*
X14938333Y-14973000D01*
X14957381Y-14963476D01*
X15109762Y-15163476D02*
X15109762Y-15030143D01*
X15109762Y-15049190D02*
X15119286Y-15039667D01*
X15138333Y-15030143D01*
X15166905Y-15030143D01*
X15185952Y-15039667D01*
X15195476Y-15058714D01*
X15195476Y-15163476D01*
X15195476Y-15058714D02*
X15205000Y-15039667D01*
X15224048Y-15030143D01*
X15252619Y-15030143D01*
X15271667Y-15039667D01*
X15281190Y-15058714D01*
X15281190Y-15163476D01*
X15376428Y-15163476D02*
X15376428Y-15030143D01*
X15376428Y-15049190D02*
X15385952Y-15039667D01*
X15405000Y-15030143D01*
X15433571Y-15030143D01*
X15452619Y-15039667D01*
X15462143Y-15058714D01*
X15462143Y-15163476D01*
X15462143Y-15058714D02*
X15471667Y-15039667D01*
X15490714Y-15030143D01*
X15519286Y-15030143D01*
X15538333Y-15039667D01*
X15547857Y-15058714D01*
X15547857Y-15163476D01*
X15938333Y-14953952D02*
X15766905Y-15211095D01*
X16195476Y-14963476D02*
X16214524Y-14963476D01*
X16233571Y-14973000D01*
X16243095Y-14982524D01*
X16252619Y-15001571D01*
X16262143Y-15039667D01*
X16262143Y-15087286D01*
X16252619Y-15125381D01*
X16243095Y-15144428D01*
X16233571Y-15153952D01*
X16214524Y-15163476D01*
X16195476Y-15163476D01*
X16176428Y-15153952D01*
X16166905Y-15144428D01*
X16157381Y-15125381D01*
X16147857Y-15087286D01*
X16147857Y-15039667D01*
X16157381Y-15001571D01*
X16166905Y-14982524D01*
X16176428Y-14973000D01*
X16195476Y-14963476D01*
X16347857Y-15144428D02*
X16357381Y-15153952D01*
X16347857Y-15163476D01*
X16338333Y-15153952D01*
X16347857Y-15144428D01*
X16347857Y-15163476D01*
X16481190Y-14963476D02*
X16500238Y-14963476D01*
X16519286Y-14973000D01*
X16528809Y-14982524D01*
X16538333Y-15001571D01*
X16547857Y-15039667D01*
X16547857Y-15087286D01*
X16538333Y-15125381D01*
X16528809Y-15144428D01*
X16519286Y-15153952D01*
X16500238Y-15163476D01*
X16481190Y-15163476D01*
X16462143Y-15153952D01*
X16452619Y-15144428D01*
X16443095Y-15125381D01*
X16433571Y-15087286D01*
X16433571Y-15039667D01*
X16443095Y-15001571D01*
X16452619Y-14982524D01*
X16462143Y-14973000D01*
X16481190Y-14963476D01*
X16614524Y-14963476D02*
X16738333Y-14963476D01*
X16671667Y-15039667D01*
X16700238Y-15039667D01*
X16719286Y-15049190D01*
X16728809Y-15058714D01*
X16738333Y-15077762D01*
X16738333Y-15125381D01*
X16728809Y-15144428D01*
X16719286Y-15153952D01*
X16700238Y-15163476D01*
X16643095Y-15163476D01*
X16624048Y-15153952D01*
X16614524Y-15144428D01*
X16833571Y-15163476D02*
X16871667Y-15163476D01*
X16890714Y-15153952D01*
X16900238Y-15144428D01*
X16919286Y-15115857D01*
X16928810Y-15077762D01*
X16928810Y-15001571D01*
X16919286Y-14982524D01*
X16909762Y-14973000D01*
X16890714Y-14963476D01*
X16852619Y-14963476D01*
X16833571Y-14973000D01*
X16824048Y-14982524D01*
X16814524Y-15001571D01*
X16814524Y-15049190D01*
X16824048Y-15068238D01*
X16833571Y-15077762D01*
X16852619Y-15087286D01*
X16890714Y-15087286D01*
X16909762Y-15077762D01*
X16919286Y-15068238D01*
X16928810Y-15049190D01*
X17100238Y-15030143D02*
X17100238Y-15163476D01*
X17052619Y-14953952D02*
X17005000Y-15096809D01*
X17128810Y-15096809D01*
X17195476Y-14963476D02*
X17195476Y-15001571D01*
X17271667Y-14963476D02*
X17271667Y-15001571D01*
X17566905Y-15239667D02*
X17557381Y-15230143D01*
X17538333Y-15201571D01*
X17528810Y-15182524D01*
X17519286Y-15153952D01*
X17509762Y-15106333D01*
X17509762Y-15068238D01*
X17519286Y-15020619D01*
X17528810Y-14992048D01*
X17538333Y-14973000D01*
X17557381Y-14944428D01*
X17566905Y-14934905D01*
X17728810Y-14963476D02*
X17690714Y-14963476D01*
X17671667Y-14973000D01*
X17662143Y-14982524D01*
X17643095Y-15011095D01*
X17633571Y-15049190D01*
X17633571Y-15125381D01*
X17643095Y-15144428D01*
X17652619Y-15153952D01*
X17671667Y-15163476D01*
X17709762Y-15163476D01*
X17728810Y-15153952D01*
X17738333Y-15144428D01*
X17747857Y-15125381D01*
X17747857Y-15077762D01*
X17738333Y-15058714D01*
X17728810Y-15049190D01*
X17709762Y-15039667D01*
X17671667Y-15039667D01*
X17652619Y-15049190D01*
X17643095Y-15058714D01*
X17633571Y-15077762D01*
X17814524Y-14963476D02*
X17947857Y-14963476D01*
X17862143Y-15163476D01*
X18176429Y-15163476D02*
X18176429Y-14963476D01*
X18262143Y-15163476D02*
X18262143Y-15058714D01*
X18252619Y-15039667D01*
X18233571Y-15030143D01*
X18205000Y-15030143D01*
X18185952Y-15039667D01*
X18176429Y-15049190D01*
X18385952Y-15163476D02*
X18366905Y-15153952D01*
X18357381Y-15144428D01*
X18347857Y-15125381D01*
X18347857Y-15068238D01*
X18357381Y-15049190D01*
X18366905Y-15039667D01*
X18385952Y-15030143D01*
X18414524Y-15030143D01*
X18433571Y-15039667D01*
X18443095Y-15049190D01*
X18452619Y-15068238D01*
X18452619Y-15125381D01*
X18443095Y-15144428D01*
X18433571Y-15153952D01*
X18414524Y-15163476D01*
X18385952Y-15163476D01*
X18566905Y-15163476D02*
X18547857Y-15153952D01*
X18538333Y-15134905D01*
X18538333Y-14963476D01*
X18719286Y-15153952D02*
X18700238Y-15163476D01*
X18662143Y-15163476D01*
X18643095Y-15153952D01*
X18633571Y-15134905D01*
X18633571Y-15058714D01*
X18643095Y-15039667D01*
X18662143Y-15030143D01*
X18700238Y-15030143D01*
X18719286Y-15039667D01*
X18728810Y-15058714D01*
X18728810Y-15077762D01*
X18633571Y-15096809D01*
X18805000Y-15153952D02*
X18824048Y-15163476D01*
X18862143Y-15163476D01*
X18881190Y-15153952D01*
X18890714Y-15134905D01*
X18890714Y-15125381D01*
X18881190Y-15106333D01*
X18862143Y-15096809D01*
X18833571Y-15096809D01*
X18814524Y-15087286D01*
X18805000Y-15068238D01*
X18805000Y-15058714D01*
X18814524Y-15039667D01*
X18833571Y-15030143D01*
X18862143Y-15030143D01*
X18881190Y-15039667D01*
X18957381Y-15239667D02*
X18966905Y-15230143D01*
X18985952Y-15201571D01*
X18995476Y-15182524D01*
X19005000Y-15153952D01*
X19014524Y-15106333D01*
X19014524Y-15068238D01*
X19005000Y-15020619D01*
X18995476Y-14992048D01*
X18985952Y-14973000D01*
X18966905Y-14944428D01*
X18957381Y-14934905D01*
M02*
