G04 #@! TF.GenerationSoftware,KiCad,Pcbnew,(5.1.5)-3*
G04 #@! TF.CreationDate,2020-05-31T15:00:20+02:00*
G04 #@! TF.ProjectId,Systeme_de_r_cuperation_de_goblets,53797374-656d-4655-9f64-655f72e96375,rev?*
G04 #@! TF.SameCoordinates,Original*
G04 #@! TF.FileFunction,Copper,L2,Bot*
G04 #@! TF.FilePolarity,Positive*
%FSLAX46Y46*%
G04 Gerber Fmt 4.6, Leading zero omitted, Abs format (unit mm)*
G04 Created by KiCad (PCBNEW (5.1.5)-3) date 2020-05-31 15:00:20*
%MOMM*%
%LPD*%
G04 APERTURE LIST*
%ADD10O,1.700000X1.950000*%
%ADD11C,0.100000*%
%ADD12O,1.700000X2.200000*%
%ADD13C,0.800000*%
%ADD14C,6.400000*%
%ADD15C,1.524000*%
%ADD16O,1.700000X2.000000*%
%ADD17C,0.300000*%
%ADD18C,0.600000*%
%ADD19C,0.500000*%
%ADD20C,0.254000*%
G04 APERTURE END LIST*
D10*
X79480000Y-119060000D03*
X76980000Y-119060000D03*
G04 #@! TA.AperFunction,ComponentPad*
D11*
G36*
X75104504Y-118086204D02*
G01*
X75128773Y-118089804D01*
X75152571Y-118095765D01*
X75175671Y-118104030D01*
X75197849Y-118114520D01*
X75218893Y-118127133D01*
X75238598Y-118141747D01*
X75256777Y-118158223D01*
X75273253Y-118176402D01*
X75287867Y-118196107D01*
X75300480Y-118217151D01*
X75310970Y-118239329D01*
X75319235Y-118262429D01*
X75325196Y-118286227D01*
X75328796Y-118310496D01*
X75330000Y-118335000D01*
X75330000Y-119785000D01*
X75328796Y-119809504D01*
X75325196Y-119833773D01*
X75319235Y-119857571D01*
X75310970Y-119880671D01*
X75300480Y-119902849D01*
X75287867Y-119923893D01*
X75273253Y-119943598D01*
X75256777Y-119961777D01*
X75238598Y-119978253D01*
X75218893Y-119992867D01*
X75197849Y-120005480D01*
X75175671Y-120015970D01*
X75152571Y-120024235D01*
X75128773Y-120030196D01*
X75104504Y-120033796D01*
X75080000Y-120035000D01*
X73880000Y-120035000D01*
X73855496Y-120033796D01*
X73831227Y-120030196D01*
X73807429Y-120024235D01*
X73784329Y-120015970D01*
X73762151Y-120005480D01*
X73741107Y-119992867D01*
X73721402Y-119978253D01*
X73703223Y-119961777D01*
X73686747Y-119943598D01*
X73672133Y-119923893D01*
X73659520Y-119902849D01*
X73649030Y-119880671D01*
X73640765Y-119857571D01*
X73634804Y-119833773D01*
X73631204Y-119809504D01*
X73630000Y-119785000D01*
X73630000Y-118335000D01*
X73631204Y-118310496D01*
X73634804Y-118286227D01*
X73640765Y-118262429D01*
X73649030Y-118239329D01*
X73659520Y-118217151D01*
X73672133Y-118196107D01*
X73686747Y-118176402D01*
X73703223Y-118158223D01*
X73721402Y-118141747D01*
X73741107Y-118127133D01*
X73762151Y-118114520D01*
X73784329Y-118104030D01*
X73807429Y-118095765D01*
X73831227Y-118089804D01*
X73855496Y-118086204D01*
X73880000Y-118085000D01*
X75080000Y-118085000D01*
X75104504Y-118086204D01*
G37*
G04 #@! TD.AperFunction*
D10*
X79460000Y-125440000D03*
X76960000Y-125440000D03*
G04 #@! TA.AperFunction,ComponentPad*
D11*
G36*
X75084504Y-124466204D02*
G01*
X75108773Y-124469804D01*
X75132571Y-124475765D01*
X75155671Y-124484030D01*
X75177849Y-124494520D01*
X75198893Y-124507133D01*
X75218598Y-124521747D01*
X75236777Y-124538223D01*
X75253253Y-124556402D01*
X75267867Y-124576107D01*
X75280480Y-124597151D01*
X75290970Y-124619329D01*
X75299235Y-124642429D01*
X75305196Y-124666227D01*
X75308796Y-124690496D01*
X75310000Y-124715000D01*
X75310000Y-126165000D01*
X75308796Y-126189504D01*
X75305196Y-126213773D01*
X75299235Y-126237571D01*
X75290970Y-126260671D01*
X75280480Y-126282849D01*
X75267867Y-126303893D01*
X75253253Y-126323598D01*
X75236777Y-126341777D01*
X75218598Y-126358253D01*
X75198893Y-126372867D01*
X75177849Y-126385480D01*
X75155671Y-126395970D01*
X75132571Y-126404235D01*
X75108773Y-126410196D01*
X75084504Y-126413796D01*
X75060000Y-126415000D01*
X73860000Y-126415000D01*
X73835496Y-126413796D01*
X73811227Y-126410196D01*
X73787429Y-126404235D01*
X73764329Y-126395970D01*
X73742151Y-126385480D01*
X73721107Y-126372867D01*
X73701402Y-126358253D01*
X73683223Y-126341777D01*
X73666747Y-126323598D01*
X73652133Y-126303893D01*
X73639520Y-126282849D01*
X73629030Y-126260671D01*
X73620765Y-126237571D01*
X73614804Y-126213773D01*
X73611204Y-126189504D01*
X73610000Y-126165000D01*
X73610000Y-124715000D01*
X73611204Y-124690496D01*
X73614804Y-124666227D01*
X73620765Y-124642429D01*
X73629030Y-124619329D01*
X73639520Y-124597151D01*
X73652133Y-124576107D01*
X73666747Y-124556402D01*
X73683223Y-124538223D01*
X73701402Y-124521747D01*
X73721107Y-124507133D01*
X73742151Y-124494520D01*
X73764329Y-124484030D01*
X73787429Y-124475765D01*
X73811227Y-124469804D01*
X73835496Y-124466204D01*
X73860000Y-124465000D01*
X75060000Y-124465000D01*
X75084504Y-124466204D01*
G37*
G04 #@! TD.AperFunction*
D10*
X81990000Y-112740000D03*
X79490000Y-112740000D03*
X76990000Y-112740000D03*
G04 #@! TA.AperFunction,ComponentPad*
D11*
G36*
X75114504Y-111766204D02*
G01*
X75138773Y-111769804D01*
X75162571Y-111775765D01*
X75185671Y-111784030D01*
X75207849Y-111794520D01*
X75228893Y-111807133D01*
X75248598Y-111821747D01*
X75266777Y-111838223D01*
X75283253Y-111856402D01*
X75297867Y-111876107D01*
X75310480Y-111897151D01*
X75320970Y-111919329D01*
X75329235Y-111942429D01*
X75335196Y-111966227D01*
X75338796Y-111990496D01*
X75340000Y-112015000D01*
X75340000Y-113465000D01*
X75338796Y-113489504D01*
X75335196Y-113513773D01*
X75329235Y-113537571D01*
X75320970Y-113560671D01*
X75310480Y-113582849D01*
X75297867Y-113603893D01*
X75283253Y-113623598D01*
X75266777Y-113641777D01*
X75248598Y-113658253D01*
X75228893Y-113672867D01*
X75207849Y-113685480D01*
X75185671Y-113695970D01*
X75162571Y-113704235D01*
X75138773Y-113710196D01*
X75114504Y-113713796D01*
X75090000Y-113715000D01*
X73890000Y-113715000D01*
X73865496Y-113713796D01*
X73841227Y-113710196D01*
X73817429Y-113704235D01*
X73794329Y-113695970D01*
X73772151Y-113685480D01*
X73751107Y-113672867D01*
X73731402Y-113658253D01*
X73713223Y-113641777D01*
X73696747Y-113623598D01*
X73682133Y-113603893D01*
X73669520Y-113582849D01*
X73659030Y-113560671D01*
X73650765Y-113537571D01*
X73644804Y-113513773D01*
X73641204Y-113489504D01*
X73640000Y-113465000D01*
X73640000Y-112015000D01*
X73641204Y-111990496D01*
X73644804Y-111966227D01*
X73650765Y-111942429D01*
X73659030Y-111919329D01*
X73669520Y-111897151D01*
X73682133Y-111876107D01*
X73696747Y-111856402D01*
X73713223Y-111838223D01*
X73731402Y-111821747D01*
X73751107Y-111807133D01*
X73772151Y-111794520D01*
X73794329Y-111784030D01*
X73817429Y-111775765D01*
X73841227Y-111769804D01*
X73865496Y-111766204D01*
X73890000Y-111765000D01*
X75090000Y-111765000D01*
X75114504Y-111766204D01*
G37*
G04 #@! TD.AperFunction*
D12*
X48000000Y-129350000D03*
X45500000Y-129350000D03*
G04 #@! TA.AperFunction,ComponentPad*
D11*
G36*
X42154804Y-128451227D02*
G01*
X42169030Y-128404329D01*
X42192133Y-128361107D01*
X42223223Y-128323223D01*
X42261107Y-128292133D01*
X42304329Y-128269030D01*
X42351227Y-128254804D01*
X42400000Y-128250000D01*
X43600000Y-128250000D01*
X43648773Y-128254804D01*
X43695671Y-128269030D01*
X43738893Y-128292133D01*
X43776777Y-128323223D01*
X43807867Y-128361107D01*
X43830970Y-128404329D01*
X43845196Y-128451227D01*
X43850000Y-128500000D01*
X43850000Y-129800000D01*
X43845196Y-129848773D01*
X43830970Y-129895671D01*
X43807867Y-129938893D01*
X43776777Y-129976777D01*
X43376777Y-130376777D01*
X43338893Y-130407867D01*
X43295671Y-130430970D01*
X43248773Y-130445196D01*
X43200000Y-130450000D01*
X42400000Y-130450000D01*
X42351227Y-130445196D01*
X42304329Y-130430970D01*
X42261107Y-130407867D01*
X42223223Y-130376777D01*
X42192133Y-130338893D01*
X42169030Y-130295671D01*
X42154804Y-130248773D01*
X42150000Y-130200000D01*
X42150000Y-128500000D01*
X42154804Y-128451227D01*
G37*
G04 #@! TD.AperFunction*
G04 #@! TA.AperFunction,ComponentPad*
G36*
X53225196Y-91538773D02*
G01*
X53210970Y-91585671D01*
X53187867Y-91628893D01*
X53156777Y-91666777D01*
X53118893Y-91697867D01*
X53075671Y-91720970D01*
X53028773Y-91735196D01*
X52980000Y-91740000D01*
X51780000Y-91740000D01*
X51731227Y-91735196D01*
X51684329Y-91720970D01*
X51641107Y-91697867D01*
X51603223Y-91666777D01*
X51572133Y-91628893D01*
X51549030Y-91585671D01*
X51534804Y-91538773D01*
X51530000Y-91490000D01*
X51530000Y-90190000D01*
X51534804Y-90141227D01*
X51549030Y-90094329D01*
X51572133Y-90051107D01*
X51603223Y-90013223D01*
X52003223Y-89613223D01*
X52041107Y-89582133D01*
X52084329Y-89559030D01*
X52131227Y-89544804D01*
X52180000Y-89540000D01*
X52980000Y-89540000D01*
X53028773Y-89544804D01*
X53075671Y-89559030D01*
X53118893Y-89582133D01*
X53156777Y-89613223D01*
X53187867Y-89651107D01*
X53210970Y-89694329D01*
X53225196Y-89741227D01*
X53230000Y-89790000D01*
X53230000Y-91490000D01*
X53225196Y-91538773D01*
G37*
G04 #@! TD.AperFunction*
D12*
X49880000Y-90640000D03*
G04 #@! TA.AperFunction,ComponentPad*
D11*
G36*
X45415196Y-91548773D02*
G01*
X45400970Y-91595671D01*
X45377867Y-91638893D01*
X45346777Y-91676777D01*
X45308893Y-91707867D01*
X45265671Y-91730970D01*
X45218773Y-91745196D01*
X45170000Y-91750000D01*
X43970000Y-91750000D01*
X43921227Y-91745196D01*
X43874329Y-91730970D01*
X43831107Y-91707867D01*
X43793223Y-91676777D01*
X43762133Y-91638893D01*
X43739030Y-91595671D01*
X43724804Y-91548773D01*
X43720000Y-91500000D01*
X43720000Y-90200000D01*
X43724804Y-90151227D01*
X43739030Y-90104329D01*
X43762133Y-90061107D01*
X43793223Y-90023223D01*
X44193223Y-89623223D01*
X44231107Y-89592133D01*
X44274329Y-89569030D01*
X44321227Y-89554804D01*
X44370000Y-89550000D01*
X45170000Y-89550000D01*
X45218773Y-89554804D01*
X45265671Y-89569030D01*
X45308893Y-89592133D01*
X45346777Y-89623223D01*
X45377867Y-89661107D01*
X45400970Y-89704329D01*
X45415196Y-89751227D01*
X45420000Y-89800000D01*
X45420000Y-91500000D01*
X45415196Y-91548773D01*
G37*
G04 #@! TD.AperFunction*
D12*
X42070000Y-90650000D03*
D13*
X87697056Y-129302944D03*
X86000000Y-128600000D03*
X84302944Y-129302944D03*
X83600000Y-131000000D03*
X84302944Y-132697056D03*
X86000000Y-133400000D03*
X87697056Y-132697056D03*
X88400000Y-131000000D03*
D14*
X86000000Y-131000000D03*
D13*
X87697056Y-87302944D03*
X86000000Y-86600000D03*
X84302944Y-87302944D03*
X83600000Y-89000000D03*
X84302944Y-90697056D03*
X86000000Y-91400000D03*
X87697056Y-90697056D03*
X88400000Y-89000000D03*
D14*
X86000000Y-89000000D03*
D15*
X35890000Y-114140000D03*
X33350000Y-114140000D03*
X35890000Y-111600000D03*
X33350000Y-111600000D03*
X35890000Y-109060000D03*
X33350000Y-109060000D03*
X35890000Y-106520000D03*
X33350000Y-106520000D03*
X35890000Y-103980000D03*
X33350000Y-103980000D03*
D16*
X76950000Y-132010000D03*
G04 #@! TA.AperFunction,ComponentPad*
D11*
G36*
X75074504Y-131011204D02*
G01*
X75098773Y-131014804D01*
X75122571Y-131020765D01*
X75145671Y-131029030D01*
X75167849Y-131039520D01*
X75188893Y-131052133D01*
X75208598Y-131066747D01*
X75226777Y-131083223D01*
X75243253Y-131101402D01*
X75257867Y-131121107D01*
X75270480Y-131142151D01*
X75280970Y-131164329D01*
X75289235Y-131187429D01*
X75295196Y-131211227D01*
X75298796Y-131235496D01*
X75300000Y-131260000D01*
X75300000Y-132760000D01*
X75298796Y-132784504D01*
X75295196Y-132808773D01*
X75289235Y-132832571D01*
X75280970Y-132855671D01*
X75270480Y-132877849D01*
X75257867Y-132898893D01*
X75243253Y-132918598D01*
X75226777Y-132936777D01*
X75208598Y-132953253D01*
X75188893Y-132967867D01*
X75167849Y-132980480D01*
X75145671Y-132990970D01*
X75122571Y-132999235D01*
X75098773Y-133005196D01*
X75074504Y-133008796D01*
X75050000Y-133010000D01*
X73850000Y-133010000D01*
X73825496Y-133008796D01*
X73801227Y-133005196D01*
X73777429Y-132999235D01*
X73754329Y-132990970D01*
X73732151Y-132980480D01*
X73711107Y-132967867D01*
X73691402Y-132953253D01*
X73673223Y-132936777D01*
X73656747Y-132918598D01*
X73642133Y-132898893D01*
X73629520Y-132877849D01*
X73619030Y-132855671D01*
X73610765Y-132832571D01*
X73604804Y-132808773D01*
X73601204Y-132784504D01*
X73600000Y-132760000D01*
X73600000Y-131260000D01*
X73601204Y-131235496D01*
X73604804Y-131211227D01*
X73610765Y-131187429D01*
X73619030Y-131164329D01*
X73629520Y-131142151D01*
X73642133Y-131121107D01*
X73656747Y-131101402D01*
X73673223Y-131083223D01*
X73691402Y-131066747D01*
X73711107Y-131052133D01*
X73732151Y-131039520D01*
X73754329Y-131029030D01*
X73777429Y-131020765D01*
X73801227Y-131014804D01*
X73825496Y-131011204D01*
X73850000Y-131010000D01*
X75050000Y-131010000D01*
X75074504Y-131011204D01*
G37*
G04 #@! TD.AperFunction*
D15*
X69350000Y-107480000D03*
X71890000Y-107480000D03*
X74430000Y-107480000D03*
X76970000Y-107480000D03*
X79510000Y-107480000D03*
X82050000Y-107480000D03*
X84590000Y-107480000D03*
X87130000Y-107480000D03*
X71890000Y-94780000D03*
X74430000Y-94780000D03*
X76970000Y-94780000D03*
X79510000Y-94780000D03*
X82050000Y-94780000D03*
X84590000Y-94780000D03*
X87130000Y-94780000D03*
X69350000Y-94780000D03*
D13*
X35697056Y-87302944D03*
X34000000Y-86600000D03*
X32302944Y-87302944D03*
X31600000Y-89000000D03*
X32302944Y-90697056D03*
X34000000Y-91400000D03*
X35697056Y-90697056D03*
X36400000Y-89000000D03*
D14*
X34000000Y-89000000D03*
D13*
X35697056Y-129302944D03*
X34000000Y-128600000D03*
X32302944Y-129302944D03*
X31600000Y-131000000D03*
X32302944Y-132697056D03*
X34000000Y-133400000D03*
X35697056Y-132697056D03*
X36400000Y-131000000D03*
D14*
X34000000Y-131000000D03*
D13*
X61450000Y-112480000D03*
X56869988Y-107900000D03*
X45500000Y-114025000D03*
X44170000Y-120880000D03*
X45740000Y-102370000D03*
X47805000Y-97565000D03*
X50630000Y-95070000D03*
X69750000Y-130620000D03*
X71740000Y-122180000D03*
X71740000Y-123050000D03*
X70820000Y-123030000D03*
X70780000Y-122070000D03*
X61440000Y-113710000D03*
X56330000Y-116380000D03*
X56350000Y-120290000D03*
X64229994Y-127680000D03*
X73460000Y-121200000D03*
X59870000Y-121190000D03*
X65560000Y-113070000D03*
X47860000Y-100100000D03*
X67579998Y-115590000D03*
X66470000Y-117930000D03*
D17*
X61450000Y-112480000D02*
X56870001Y-107900000D01*
X56870001Y-107900000D02*
X56869988Y-107900000D01*
X34111999Y-107281999D02*
X33350000Y-106520000D01*
X56869988Y-107900000D02*
X34730000Y-107900000D01*
X34730000Y-107900000D02*
X34111999Y-107281999D01*
D18*
X31380000Y-114037762D02*
X31380000Y-105950000D01*
X44170000Y-120880000D02*
X38222238Y-120880000D01*
X38222238Y-120880000D02*
X31380000Y-114037762D01*
D19*
X45740000Y-102370000D02*
X45740000Y-99630000D01*
X45740000Y-99630000D02*
X47805000Y-97565000D01*
X50300000Y-95070000D02*
X47805000Y-97565000D01*
X50630000Y-95070000D02*
X50300000Y-95070000D01*
D18*
X31380000Y-105950000D02*
X33350000Y-103980000D01*
X73630000Y-119060000D02*
X74480000Y-119060000D01*
X71890000Y-117320000D02*
X73630000Y-119060000D01*
X71890000Y-107480000D02*
X71890000Y-117320000D01*
X74480000Y-125420000D02*
X74460000Y-125440000D01*
X74480000Y-119060000D02*
X74480000Y-125420000D01*
X43000000Y-131370000D02*
X43000000Y-130450000D01*
X46104990Y-134474990D02*
X43000000Y-131370000D01*
X69750000Y-130620000D02*
X69184315Y-130620000D01*
X69184315Y-130620000D02*
X67964314Y-131840001D01*
X67964314Y-131855686D02*
X65345010Y-134474990D01*
X67964314Y-131840001D02*
X67964314Y-131855686D01*
X43000000Y-130450000D02*
X43000000Y-129350000D01*
X65345010Y-134474990D02*
X46104990Y-134474990D01*
X59912002Y-122180000D02*
X71174315Y-122180000D01*
X48000000Y-129350000D02*
X52742002Y-129350000D01*
X71174315Y-122180000D02*
X71740000Y-122180000D01*
X52742002Y-129350000D02*
X59912002Y-122180000D01*
D17*
X56790000Y-109060000D02*
X61040001Y-113310001D01*
X61040001Y-113310001D02*
X61440000Y-113710000D01*
X35890000Y-109060000D02*
X56790000Y-109060000D01*
D18*
X81990000Y-107540000D02*
X82050000Y-107480000D01*
X81990000Y-112740000D02*
X81990000Y-107540000D01*
X79510000Y-112720000D02*
X79490000Y-112740000D01*
X79510000Y-107480000D02*
X79510000Y-112720000D01*
X76990000Y-107500000D02*
X76970000Y-107480000D01*
X76990000Y-112740000D02*
X76990000Y-107500000D01*
X74490000Y-107540000D02*
X74430000Y-107480000D01*
X74490000Y-112740000D02*
X74490000Y-107540000D01*
X79460000Y-125440000D02*
X79460000Y-125565000D01*
D17*
X56330000Y-116380000D02*
X56350000Y-116400000D01*
X56330000Y-116380000D02*
X56330000Y-120270000D01*
X56330000Y-120270000D02*
X56350000Y-120290000D01*
X78495000Y-127680000D02*
X64795679Y-127680000D01*
X79460000Y-126715000D02*
X78495000Y-127680000D01*
X64795679Y-127680000D02*
X64229994Y-127680000D01*
X79460000Y-125440000D02*
X79460000Y-126715000D01*
X73460000Y-121200000D02*
X59880000Y-121200000D01*
X59880000Y-121200000D02*
X59870000Y-121190000D01*
X65560000Y-111510000D02*
X65560000Y-113070000D01*
X60210000Y-106160000D02*
X65560000Y-111510000D01*
X50880000Y-106160000D02*
X60210000Y-106160000D01*
X47860000Y-100100000D02*
X47860000Y-103140000D01*
X47860000Y-103140000D02*
X50880000Y-106160000D01*
X67579998Y-116820002D02*
X66470000Y-117930000D01*
X67579998Y-115590000D02*
X67579998Y-116820002D01*
D20*
G36*
X31879330Y-85782445D02*
G01*
X31838912Y-85809452D01*
X31478724Y-86299119D01*
X34000000Y-88820395D01*
X36521276Y-86299119D01*
X36161088Y-85809452D01*
X35885675Y-85660000D01*
X84111926Y-85660000D01*
X83879330Y-85782445D01*
X83838912Y-85809452D01*
X83478724Y-86299119D01*
X86000000Y-88820395D01*
X88521276Y-86299119D01*
X88161088Y-85809452D01*
X87885675Y-85660000D01*
X89340001Y-85660000D01*
X89340001Y-87111927D01*
X89217555Y-86879330D01*
X89190548Y-86838912D01*
X88700881Y-86478724D01*
X86179605Y-89000000D01*
X88700881Y-91521276D01*
X89190548Y-91161088D01*
X89340001Y-90885673D01*
X89340000Y-129111926D01*
X89217555Y-128879330D01*
X89190548Y-128838912D01*
X88700881Y-128478724D01*
X86179605Y-131000000D01*
X88700881Y-133521276D01*
X89190548Y-133161088D01*
X89340000Y-132885675D01*
X89340000Y-134340000D01*
X87888074Y-134340000D01*
X88120670Y-134217555D01*
X88161088Y-134190548D01*
X88521276Y-133700881D01*
X86000000Y-131179605D01*
X83478724Y-133700881D01*
X83838912Y-134190548D01*
X84114325Y-134340000D01*
X66802289Y-134340000D01*
X68132289Y-133010000D01*
X72961928Y-133010000D01*
X72974188Y-133134482D01*
X73010498Y-133254180D01*
X73069463Y-133364494D01*
X73148815Y-133461185D01*
X73245506Y-133540537D01*
X73355820Y-133599502D01*
X73475518Y-133635812D01*
X73600000Y-133648072D01*
X74164250Y-133645000D01*
X74323000Y-133486250D01*
X74323000Y-132137000D01*
X73123750Y-132137000D01*
X72965000Y-132295750D01*
X72961928Y-133010000D01*
X68132289Y-133010000D01*
X68592978Y-132549312D01*
X68628658Y-132520030D01*
X68729729Y-132396875D01*
X69500880Y-131625724D01*
X69648061Y-131655000D01*
X69851939Y-131655000D01*
X70051898Y-131615226D01*
X70240256Y-131537205D01*
X70409774Y-131423937D01*
X70553937Y-131279774D01*
X70667205Y-131110256D01*
X70708732Y-131010000D01*
X72961928Y-131010000D01*
X72965000Y-131724250D01*
X73123750Y-131883000D01*
X74323000Y-131883000D01*
X74323000Y-130533750D01*
X74577000Y-130533750D01*
X74577000Y-131883000D01*
X74597000Y-131883000D01*
X74597000Y-132137000D01*
X74577000Y-132137000D01*
X74577000Y-133486250D01*
X74735750Y-133645000D01*
X75300000Y-133648072D01*
X75424482Y-133635812D01*
X75544180Y-133599502D01*
X75654494Y-133540537D01*
X75751185Y-133461185D01*
X75830537Y-133364494D01*
X75889502Y-133254180D01*
X75900055Y-133219392D01*
X76120987Y-133400706D01*
X76378967Y-133538599D01*
X76658890Y-133623513D01*
X76950000Y-133652185D01*
X77241111Y-133623513D01*
X77521034Y-133538599D01*
X77779014Y-133400706D01*
X78005134Y-133215134D01*
X78190706Y-132989014D01*
X78328599Y-132731033D01*
X78413513Y-132451110D01*
X78435000Y-132232949D01*
X78435000Y-131787050D01*
X78413513Y-131568889D01*
X78328599Y-131288966D01*
X78190706Y-131030986D01*
X78145330Y-130975695D01*
X82146520Y-130975695D01*
X82215822Y-131727938D01*
X82430548Y-132452208D01*
X82782445Y-133120670D01*
X82809452Y-133161088D01*
X83299119Y-133521276D01*
X85820395Y-131000000D01*
X83299119Y-128478724D01*
X82809452Y-128838912D01*
X82449151Y-129502882D01*
X82225306Y-130224385D01*
X82146520Y-130975695D01*
X78145330Y-130975695D01*
X78005134Y-130804866D01*
X77779013Y-130619294D01*
X77521033Y-130481401D01*
X77241110Y-130396487D01*
X76950000Y-130367815D01*
X76658889Y-130396487D01*
X76378966Y-130481401D01*
X76120986Y-130619294D01*
X75900055Y-130800608D01*
X75889502Y-130765820D01*
X75830537Y-130655506D01*
X75751185Y-130558815D01*
X75654494Y-130479463D01*
X75544180Y-130420498D01*
X75424482Y-130384188D01*
X75300000Y-130371928D01*
X74735750Y-130375000D01*
X74577000Y-130533750D01*
X74323000Y-130533750D01*
X74164250Y-130375000D01*
X73600000Y-130371928D01*
X73475518Y-130384188D01*
X73355820Y-130420498D01*
X73245506Y-130479463D01*
X73148815Y-130558815D01*
X73069463Y-130655506D01*
X73010498Y-130765820D01*
X72974188Y-130885518D01*
X72961928Y-131010000D01*
X70708732Y-131010000D01*
X70745226Y-130921898D01*
X70785000Y-130721939D01*
X70785000Y-130518061D01*
X70745226Y-130318102D01*
X70667205Y-130129744D01*
X70553937Y-129960226D01*
X70409774Y-129816063D01*
X70240256Y-129702795D01*
X70051898Y-129624774D01*
X69851939Y-129585000D01*
X69648061Y-129585000D01*
X69448102Y-129624774D01*
X69302705Y-129685000D01*
X69230247Y-129685000D01*
X69184315Y-129680476D01*
X69138383Y-129685000D01*
X69001023Y-129698529D01*
X68824775Y-129751993D01*
X68662343Y-129838814D01*
X68519971Y-129955656D01*
X68490685Y-129991341D01*
X67335655Y-131146371D01*
X67299970Y-131175657D01*
X67198907Y-131298803D01*
X64957721Y-133539990D01*
X46492279Y-133539990D01*
X44803780Y-131851491D01*
X44858676Y-131828753D01*
X45069140Y-131688125D01*
X45248125Y-131509140D01*
X45388753Y-131298676D01*
X45485619Y-131064821D01*
X45535000Y-130816561D01*
X45535000Y-130563439D01*
X45485619Y-130315179D01*
X45388753Y-130081324D01*
X45373000Y-130057748D01*
X45373000Y-129477000D01*
X45353000Y-129477000D01*
X45353000Y-129223000D01*
X45373000Y-129223000D01*
X45373000Y-127779845D01*
X45627000Y-127779845D01*
X45627000Y-129223000D01*
X45647000Y-129223000D01*
X45647000Y-129477000D01*
X45627000Y-129477000D01*
X45627000Y-130920155D01*
X45856890Y-131041476D01*
X45967493Y-131020357D01*
X46235608Y-130901862D01*
X46475454Y-130733337D01*
X46677814Y-130521259D01*
X46748815Y-130409408D01*
X46759294Y-130429014D01*
X46944866Y-130655134D01*
X47170987Y-130840706D01*
X47428967Y-130978599D01*
X47708890Y-131063513D01*
X48000000Y-131092185D01*
X48291111Y-131063513D01*
X48571034Y-130978599D01*
X48829014Y-130840706D01*
X49055134Y-130655134D01*
X49240706Y-130429014D01*
X49317683Y-130285000D01*
X52696070Y-130285000D01*
X52742002Y-130289524D01*
X52787934Y-130285000D01*
X52925294Y-130271471D01*
X53101542Y-130218007D01*
X53263974Y-130131186D01*
X53406346Y-130014344D01*
X53435632Y-129978659D01*
X60299292Y-123115000D01*
X69785000Y-123115000D01*
X69785000Y-123131939D01*
X69824774Y-123331898D01*
X69902795Y-123520256D01*
X70016063Y-123689774D01*
X70160226Y-123833937D01*
X70329744Y-123947205D01*
X70518102Y-124025226D01*
X70718061Y-124065000D01*
X70921939Y-124065000D01*
X71121898Y-124025226D01*
X71255858Y-123969738D01*
X71438102Y-124045226D01*
X71638061Y-124085000D01*
X71841939Y-124085000D01*
X72041898Y-124045226D01*
X72230256Y-123967205D01*
X72399774Y-123853937D01*
X72543937Y-123709774D01*
X72657205Y-123540256D01*
X72735226Y-123351898D01*
X72775000Y-123151939D01*
X72775000Y-122948061D01*
X72735226Y-122748102D01*
X72680093Y-122615000D01*
X72735226Y-122481898D01*
X72775000Y-122281939D01*
X72775000Y-122078061D01*
X72756489Y-121985000D01*
X72781289Y-121985000D01*
X72800226Y-122003937D01*
X72969744Y-122117205D01*
X73158102Y-122195226D01*
X73358061Y-122235000D01*
X73545000Y-122235000D01*
X73545001Y-123886990D01*
X73520150Y-123894528D01*
X73366614Y-123976595D01*
X73232038Y-124087038D01*
X73121595Y-124221614D01*
X73039528Y-124375150D01*
X72988992Y-124541746D01*
X72971928Y-124715000D01*
X72971928Y-126165000D01*
X72988992Y-126338254D01*
X73039528Y-126504850D01*
X73121595Y-126658386D01*
X73232038Y-126792962D01*
X73356372Y-126895000D01*
X64908705Y-126895000D01*
X64889768Y-126876063D01*
X64720250Y-126762795D01*
X64531892Y-126684774D01*
X64331933Y-126645000D01*
X64128055Y-126645000D01*
X63928096Y-126684774D01*
X63739738Y-126762795D01*
X63570220Y-126876063D01*
X63426057Y-127020226D01*
X63312789Y-127189744D01*
X63234768Y-127378102D01*
X63194994Y-127578061D01*
X63194994Y-127781939D01*
X63234768Y-127981898D01*
X63312789Y-128170256D01*
X63426057Y-128339774D01*
X63570220Y-128483937D01*
X63739738Y-128597205D01*
X63928096Y-128675226D01*
X64128055Y-128715000D01*
X64331933Y-128715000D01*
X64531892Y-128675226D01*
X64720250Y-128597205D01*
X64889768Y-128483937D01*
X64908705Y-128465000D01*
X78456447Y-128465000D01*
X78495000Y-128468797D01*
X78533553Y-128465000D01*
X78533561Y-128465000D01*
X78648887Y-128453641D01*
X78796860Y-128408754D01*
X78933233Y-128335862D01*
X78978003Y-128299119D01*
X83478724Y-128299119D01*
X86000000Y-130820395D01*
X88521276Y-128299119D01*
X88161088Y-127809452D01*
X87497118Y-127449151D01*
X86775615Y-127225306D01*
X86024305Y-127146520D01*
X85272062Y-127215822D01*
X84547792Y-127430548D01*
X83879330Y-127782445D01*
X83838912Y-127809452D01*
X83478724Y-128299119D01*
X78978003Y-128299119D01*
X79052764Y-128237764D01*
X79077347Y-128207810D01*
X79987815Y-127297343D01*
X80017764Y-127272764D01*
X80043203Y-127241768D01*
X80066450Y-127213441D01*
X80115862Y-127153233D01*
X80188754Y-127016860D01*
X80208658Y-126951246D01*
X80233641Y-126868888D01*
X80237132Y-126833437D01*
X80289014Y-126805706D01*
X80515134Y-126620134D01*
X80700706Y-126394014D01*
X80838599Y-126136033D01*
X80923513Y-125856110D01*
X80945000Y-125637949D01*
X80945000Y-125242050D01*
X80923513Y-125023889D01*
X80838599Y-124743966D01*
X80700706Y-124485986D01*
X80515134Y-124259866D01*
X80289013Y-124074294D01*
X80031033Y-123936401D01*
X79751110Y-123851487D01*
X79460000Y-123822815D01*
X79168889Y-123851487D01*
X78888966Y-123936401D01*
X78630986Y-124074294D01*
X78404866Y-124259866D01*
X78219294Y-124485987D01*
X78205538Y-124511722D01*
X78049049Y-124305571D01*
X77831193Y-124112504D01*
X77579858Y-123965648D01*
X77316890Y-123873524D01*
X77087000Y-123994845D01*
X77087000Y-125313000D01*
X77107000Y-125313000D01*
X77107000Y-125567000D01*
X77087000Y-125567000D01*
X77087000Y-125587000D01*
X76833000Y-125587000D01*
X76833000Y-125567000D01*
X76813000Y-125567000D01*
X76813000Y-125313000D01*
X76833000Y-125313000D01*
X76833000Y-123994845D01*
X76603110Y-123873524D01*
X76340142Y-123965648D01*
X76088807Y-124112504D01*
X75870951Y-124305571D01*
X75854714Y-124326961D01*
X75798405Y-124221614D01*
X75687962Y-124087038D01*
X75553386Y-123976595D01*
X75415000Y-123902626D01*
X75415000Y-120606943D01*
X75419850Y-120605472D01*
X75573386Y-120523405D01*
X75707962Y-120412962D01*
X75818405Y-120278386D01*
X75874714Y-120173039D01*
X75890951Y-120194429D01*
X76108807Y-120387496D01*
X76360142Y-120534352D01*
X76623110Y-120626476D01*
X76853000Y-120505155D01*
X76853000Y-119187000D01*
X76833000Y-119187000D01*
X76833000Y-118933000D01*
X76853000Y-118933000D01*
X76853000Y-117614845D01*
X77107000Y-117614845D01*
X77107000Y-118933000D01*
X77127000Y-118933000D01*
X77127000Y-119187000D01*
X77107000Y-119187000D01*
X77107000Y-120505155D01*
X77336890Y-120626476D01*
X77599858Y-120534352D01*
X77851193Y-120387496D01*
X78069049Y-120194429D01*
X78225538Y-119988278D01*
X78239294Y-120014014D01*
X78424866Y-120240134D01*
X78650987Y-120425706D01*
X78908967Y-120563599D01*
X79188890Y-120648513D01*
X79480000Y-120677185D01*
X79771111Y-120648513D01*
X80051034Y-120563599D01*
X80309014Y-120425706D01*
X80535134Y-120240134D01*
X80720706Y-120014014D01*
X80858599Y-119756033D01*
X80943513Y-119476110D01*
X80965000Y-119257949D01*
X80965000Y-118862050D01*
X80943513Y-118643889D01*
X80858599Y-118363966D01*
X80720706Y-118105986D01*
X80535134Y-117879866D01*
X80309013Y-117694294D01*
X80051033Y-117556401D01*
X79771110Y-117471487D01*
X79480000Y-117442815D01*
X79188889Y-117471487D01*
X78908966Y-117556401D01*
X78650986Y-117694294D01*
X78424866Y-117879866D01*
X78239294Y-118105987D01*
X78225538Y-118131722D01*
X78069049Y-117925571D01*
X77851193Y-117732504D01*
X77599858Y-117585648D01*
X77336890Y-117493524D01*
X77107000Y-117614845D01*
X76853000Y-117614845D01*
X76623110Y-117493524D01*
X76360142Y-117585648D01*
X76108807Y-117732504D01*
X75890951Y-117925571D01*
X75874714Y-117946961D01*
X75818405Y-117841614D01*
X75707962Y-117707038D01*
X75573386Y-117596595D01*
X75419850Y-117514528D01*
X75253254Y-117463992D01*
X75080000Y-117446928D01*
X73880000Y-117446928D01*
X73706746Y-117463992D01*
X73540150Y-117514528D01*
X73453261Y-117560972D01*
X72825000Y-116932711D01*
X72825000Y-108520655D01*
X72975120Y-108370535D01*
X73128005Y-108141727D01*
X73160000Y-108064485D01*
X73191995Y-108141727D01*
X73344880Y-108370535D01*
X73539465Y-108565120D01*
X73555001Y-108575501D01*
X73555000Y-111193057D01*
X73550150Y-111194528D01*
X73396614Y-111276595D01*
X73262038Y-111387038D01*
X73151595Y-111521614D01*
X73069528Y-111675150D01*
X73018992Y-111841746D01*
X73001928Y-112015000D01*
X73001928Y-113465000D01*
X73018992Y-113638254D01*
X73069528Y-113804850D01*
X73151595Y-113958386D01*
X73262038Y-114092962D01*
X73396614Y-114203405D01*
X73550150Y-114285472D01*
X73716746Y-114336008D01*
X73890000Y-114353072D01*
X75090000Y-114353072D01*
X75263254Y-114336008D01*
X75429850Y-114285472D01*
X75583386Y-114203405D01*
X75717962Y-114092962D01*
X75828405Y-113958386D01*
X75882777Y-113856663D01*
X75934866Y-113920134D01*
X76160987Y-114105706D01*
X76418967Y-114243599D01*
X76698890Y-114328513D01*
X76990000Y-114357185D01*
X77281111Y-114328513D01*
X77561034Y-114243599D01*
X77819014Y-114105706D01*
X78045134Y-113920134D01*
X78230706Y-113694014D01*
X78240000Y-113676626D01*
X78249294Y-113694014D01*
X78434866Y-113920134D01*
X78660987Y-114105706D01*
X78918967Y-114243599D01*
X79198890Y-114328513D01*
X79490000Y-114357185D01*
X79781111Y-114328513D01*
X80061034Y-114243599D01*
X80319014Y-114105706D01*
X80545134Y-113920134D01*
X80730706Y-113694014D01*
X80740000Y-113676626D01*
X80749294Y-113694014D01*
X80934866Y-113920134D01*
X81160987Y-114105706D01*
X81418967Y-114243599D01*
X81698890Y-114328513D01*
X81990000Y-114357185D01*
X82281111Y-114328513D01*
X82561034Y-114243599D01*
X82819014Y-114105706D01*
X83045134Y-113920134D01*
X83230706Y-113694014D01*
X83368599Y-113436033D01*
X83453513Y-113156110D01*
X83475000Y-112937949D01*
X83475000Y-112542050D01*
X83453513Y-112323889D01*
X83368599Y-112043966D01*
X83230706Y-111785986D01*
X83045134Y-111559866D01*
X82925000Y-111461275D01*
X82925000Y-108575500D01*
X82940535Y-108565120D01*
X83060090Y-108445565D01*
X83804040Y-108445565D01*
X83871020Y-108685656D01*
X84120048Y-108802756D01*
X84387135Y-108869023D01*
X84662017Y-108881910D01*
X84934133Y-108840922D01*
X85193023Y-108747636D01*
X85308980Y-108685656D01*
X85375960Y-108445565D01*
X84590000Y-107659605D01*
X83804040Y-108445565D01*
X83060090Y-108445565D01*
X83135120Y-108370535D01*
X83288005Y-108141727D01*
X83317692Y-108070057D01*
X83322364Y-108083023D01*
X83384344Y-108198980D01*
X83624435Y-108265960D01*
X84410395Y-107480000D01*
X84769605Y-107480000D01*
X85555565Y-108265960D01*
X85795656Y-108198980D01*
X85859485Y-108063240D01*
X85891995Y-108141727D01*
X86044880Y-108370535D01*
X86239465Y-108565120D01*
X86468273Y-108718005D01*
X86722510Y-108823314D01*
X86992408Y-108877000D01*
X87267592Y-108877000D01*
X87537490Y-108823314D01*
X87791727Y-108718005D01*
X88020535Y-108565120D01*
X88215120Y-108370535D01*
X88368005Y-108141727D01*
X88473314Y-107887490D01*
X88527000Y-107617592D01*
X88527000Y-107342408D01*
X88473314Y-107072510D01*
X88368005Y-106818273D01*
X88215120Y-106589465D01*
X88020535Y-106394880D01*
X87791727Y-106241995D01*
X87537490Y-106136686D01*
X87267592Y-106083000D01*
X86992408Y-106083000D01*
X86722510Y-106136686D01*
X86468273Y-106241995D01*
X86239465Y-106394880D01*
X86044880Y-106589465D01*
X85891995Y-106818273D01*
X85862308Y-106889943D01*
X85857636Y-106876977D01*
X85795656Y-106761020D01*
X85555565Y-106694040D01*
X84769605Y-107480000D01*
X84410395Y-107480000D01*
X83624435Y-106694040D01*
X83384344Y-106761020D01*
X83320515Y-106896760D01*
X83288005Y-106818273D01*
X83135120Y-106589465D01*
X83060090Y-106514435D01*
X83804040Y-106514435D01*
X84590000Y-107300395D01*
X85375960Y-106514435D01*
X85308980Y-106274344D01*
X85059952Y-106157244D01*
X84792865Y-106090977D01*
X84517983Y-106078090D01*
X84245867Y-106119078D01*
X83986977Y-106212364D01*
X83871020Y-106274344D01*
X83804040Y-106514435D01*
X83060090Y-106514435D01*
X82940535Y-106394880D01*
X82711727Y-106241995D01*
X82457490Y-106136686D01*
X82187592Y-106083000D01*
X81912408Y-106083000D01*
X81642510Y-106136686D01*
X81388273Y-106241995D01*
X81159465Y-106394880D01*
X80964880Y-106589465D01*
X80811995Y-106818273D01*
X80780000Y-106895515D01*
X80748005Y-106818273D01*
X80595120Y-106589465D01*
X80400535Y-106394880D01*
X80171727Y-106241995D01*
X79917490Y-106136686D01*
X79647592Y-106083000D01*
X79372408Y-106083000D01*
X79102510Y-106136686D01*
X78848273Y-106241995D01*
X78619465Y-106394880D01*
X78424880Y-106589465D01*
X78271995Y-106818273D01*
X78240000Y-106895515D01*
X78208005Y-106818273D01*
X78055120Y-106589465D01*
X77860535Y-106394880D01*
X77631727Y-106241995D01*
X77377490Y-106136686D01*
X77107592Y-106083000D01*
X76832408Y-106083000D01*
X76562510Y-106136686D01*
X76308273Y-106241995D01*
X76079465Y-106394880D01*
X75884880Y-106589465D01*
X75731995Y-106818273D01*
X75700000Y-106895515D01*
X75668005Y-106818273D01*
X75515120Y-106589465D01*
X75320535Y-106394880D01*
X75091727Y-106241995D01*
X74837490Y-106136686D01*
X74567592Y-106083000D01*
X74292408Y-106083000D01*
X74022510Y-106136686D01*
X73768273Y-106241995D01*
X73539465Y-106394880D01*
X73344880Y-106589465D01*
X73191995Y-106818273D01*
X73160000Y-106895515D01*
X73128005Y-106818273D01*
X72975120Y-106589465D01*
X72780535Y-106394880D01*
X72551727Y-106241995D01*
X72297490Y-106136686D01*
X72027592Y-106083000D01*
X71752408Y-106083000D01*
X71482510Y-106136686D01*
X71228273Y-106241995D01*
X70999465Y-106394880D01*
X70804880Y-106589465D01*
X70651995Y-106818273D01*
X70622308Y-106889943D01*
X70617636Y-106876977D01*
X70555656Y-106761020D01*
X70315565Y-106694040D01*
X69529605Y-107480000D01*
X70315565Y-108265960D01*
X70555656Y-108198980D01*
X70619485Y-108063240D01*
X70651995Y-108141727D01*
X70804880Y-108370535D01*
X70955000Y-108520655D01*
X70955001Y-117274058D01*
X70950476Y-117320000D01*
X70968529Y-117503291D01*
X71006402Y-117628141D01*
X71021994Y-117679540D01*
X71108815Y-117841972D01*
X71225657Y-117984344D01*
X71261336Y-118013625D01*
X72936370Y-119688659D01*
X72965656Y-119724344D01*
X72991928Y-119745905D01*
X72991928Y-119785000D01*
X73008992Y-119958254D01*
X73059528Y-120124850D01*
X73112373Y-120223716D01*
X72969744Y-120282795D01*
X72800226Y-120396063D01*
X72781289Y-120415000D01*
X60558711Y-120415000D01*
X60529774Y-120386063D01*
X60360256Y-120272795D01*
X60171898Y-120194774D01*
X59971939Y-120155000D01*
X59768061Y-120155000D01*
X59568102Y-120194774D01*
X59379744Y-120272795D01*
X59210226Y-120386063D01*
X59066063Y-120530226D01*
X58952795Y-120699744D01*
X58874774Y-120888102D01*
X58835000Y-121088061D01*
X58835000Y-121291939D01*
X58874774Y-121491898D01*
X58952795Y-121680256D01*
X59007534Y-121762178D01*
X52354713Y-128415000D01*
X49317683Y-128415000D01*
X49240706Y-128270986D01*
X49055134Y-128044866D01*
X48829013Y-127859294D01*
X48571033Y-127721401D01*
X48291110Y-127636487D01*
X48000000Y-127607815D01*
X47708889Y-127636487D01*
X47428966Y-127721401D01*
X47170986Y-127859294D01*
X46944866Y-128044866D01*
X46759294Y-128270987D01*
X46748815Y-128290592D01*
X46677814Y-128178741D01*
X46475454Y-127966663D01*
X46235608Y-127798138D01*
X45967493Y-127679643D01*
X45856890Y-127658524D01*
X45627000Y-127779845D01*
X45373000Y-127779845D01*
X45143110Y-127658524D01*
X45032507Y-127679643D01*
X44764392Y-127798138D01*
X44524546Y-127966663D01*
X44393771Y-128103718D01*
X44393697Y-128103540D01*
X44370594Y-128060318D01*
X44301107Y-127956323D01*
X44270017Y-127918439D01*
X44181561Y-127829983D01*
X44143677Y-127798893D01*
X44039682Y-127729406D01*
X43996460Y-127706303D01*
X43880889Y-127658432D01*
X43833991Y-127644206D01*
X43711319Y-127619805D01*
X43662546Y-127615001D01*
X43600000Y-127611928D01*
X42400000Y-127611928D01*
X42337454Y-127615001D01*
X42288681Y-127619805D01*
X42166009Y-127644206D01*
X42119111Y-127658432D01*
X42003540Y-127706303D01*
X41960318Y-127729406D01*
X41856323Y-127798893D01*
X41818439Y-127829983D01*
X41729983Y-127918439D01*
X41698893Y-127956323D01*
X41629406Y-128060318D01*
X41606303Y-128103540D01*
X41558432Y-128219111D01*
X41544206Y-128266009D01*
X41519805Y-128388681D01*
X41515001Y-128437454D01*
X41511928Y-128500000D01*
X41511928Y-130200000D01*
X41515001Y-130262546D01*
X41519805Y-130311319D01*
X41544206Y-130433991D01*
X41558432Y-130480889D01*
X41606303Y-130596460D01*
X41629406Y-130639682D01*
X41698893Y-130743677D01*
X41729983Y-130781561D01*
X41818439Y-130870017D01*
X41856323Y-130901107D01*
X41960318Y-130970594D01*
X42003540Y-130993697D01*
X42065000Y-131019155D01*
X42065000Y-131324067D01*
X42060476Y-131370000D01*
X42070958Y-131476420D01*
X42078529Y-131553291D01*
X42131993Y-131729539D01*
X42218814Y-131891971D01*
X42335656Y-132034344D01*
X42371341Y-132063630D01*
X44647711Y-134340000D01*
X35888074Y-134340000D01*
X36120670Y-134217555D01*
X36161088Y-134190548D01*
X36521276Y-133700881D01*
X34000000Y-131179605D01*
X31478724Y-133700881D01*
X31838912Y-134190548D01*
X32114325Y-134340000D01*
X30660000Y-134340000D01*
X30660000Y-132888074D01*
X30782445Y-133120670D01*
X30809452Y-133161088D01*
X31299119Y-133521276D01*
X33820395Y-131000000D01*
X34179605Y-131000000D01*
X36700881Y-133521276D01*
X37190548Y-133161088D01*
X37550849Y-132497118D01*
X37774694Y-131775615D01*
X37853480Y-131024305D01*
X37784178Y-130272062D01*
X37569452Y-129547792D01*
X37217555Y-128879330D01*
X37190548Y-128838912D01*
X36700881Y-128478724D01*
X34179605Y-131000000D01*
X33820395Y-131000000D01*
X31299119Y-128478724D01*
X30809452Y-128838912D01*
X30660000Y-129114325D01*
X30660000Y-128299119D01*
X31478724Y-128299119D01*
X34000000Y-130820395D01*
X36521276Y-128299119D01*
X36161088Y-127809452D01*
X35497118Y-127449151D01*
X34775615Y-127225306D01*
X34024305Y-127146520D01*
X33272062Y-127215822D01*
X32547792Y-127430548D01*
X31879330Y-127782445D01*
X31838912Y-127809452D01*
X31478724Y-128299119D01*
X30660000Y-128299119D01*
X30660000Y-114634289D01*
X30715656Y-114702106D01*
X30751341Y-114731392D01*
X37528608Y-121508659D01*
X37557894Y-121544344D01*
X37700266Y-121661186D01*
X37862698Y-121748007D01*
X37928943Y-121768102D01*
X38038946Y-121801472D01*
X38222238Y-121819524D01*
X38268173Y-121815000D01*
X43722705Y-121815000D01*
X43868102Y-121875226D01*
X44068061Y-121915000D01*
X44271939Y-121915000D01*
X44471898Y-121875226D01*
X44660256Y-121797205D01*
X44829774Y-121683937D01*
X44973937Y-121539774D01*
X45087205Y-121370256D01*
X45165226Y-121181898D01*
X45205000Y-120981939D01*
X45205000Y-120778061D01*
X45165226Y-120578102D01*
X45087205Y-120389744D01*
X44973937Y-120220226D01*
X44829774Y-120076063D01*
X44660256Y-119962795D01*
X44471898Y-119884774D01*
X44271939Y-119845000D01*
X44068061Y-119845000D01*
X43868102Y-119884774D01*
X43722705Y-119945000D01*
X38609527Y-119945000D01*
X34942588Y-116278061D01*
X55295000Y-116278061D01*
X55295000Y-116481939D01*
X55334774Y-116681898D01*
X55412795Y-116870256D01*
X55526063Y-117039774D01*
X55545000Y-117058711D01*
X55545001Y-119631816D01*
X55432795Y-119799744D01*
X55354774Y-119988102D01*
X55315000Y-120188061D01*
X55315000Y-120391939D01*
X55354774Y-120591898D01*
X55432795Y-120780256D01*
X55546063Y-120949774D01*
X55690226Y-121093937D01*
X55859744Y-121207205D01*
X56048102Y-121285226D01*
X56248061Y-121325000D01*
X56451939Y-121325000D01*
X56651898Y-121285226D01*
X56840256Y-121207205D01*
X57009774Y-121093937D01*
X57153937Y-120949774D01*
X57267205Y-120780256D01*
X57345226Y-120591898D01*
X57385000Y-120391939D01*
X57385000Y-120188061D01*
X57345226Y-119988102D01*
X57267205Y-119799744D01*
X57153937Y-119630226D01*
X57115000Y-119591289D01*
X57115000Y-117828061D01*
X65435000Y-117828061D01*
X65435000Y-118031939D01*
X65474774Y-118231898D01*
X65552795Y-118420256D01*
X65666063Y-118589774D01*
X65810226Y-118733937D01*
X65979744Y-118847205D01*
X66168102Y-118925226D01*
X66368061Y-118965000D01*
X66571939Y-118965000D01*
X66771898Y-118925226D01*
X66960256Y-118847205D01*
X67129774Y-118733937D01*
X67273937Y-118589774D01*
X67387205Y-118420256D01*
X67465226Y-118231898D01*
X67505000Y-118031939D01*
X67505000Y-118005157D01*
X68107813Y-117402344D01*
X68137762Y-117377766D01*
X68235860Y-117258235D01*
X68308752Y-117121862D01*
X68353639Y-116973889D01*
X68364998Y-116858563D01*
X68364998Y-116858556D01*
X68368795Y-116820003D01*
X68364998Y-116781450D01*
X68364998Y-116268711D01*
X68383935Y-116249774D01*
X68497203Y-116080256D01*
X68575224Y-115891898D01*
X68614998Y-115691939D01*
X68614998Y-115488061D01*
X68575224Y-115288102D01*
X68497203Y-115099744D01*
X68383935Y-114930226D01*
X68239772Y-114786063D01*
X68070254Y-114672795D01*
X67881896Y-114594774D01*
X67681937Y-114555000D01*
X67478059Y-114555000D01*
X67278100Y-114594774D01*
X67089742Y-114672795D01*
X66920224Y-114786063D01*
X66776061Y-114930226D01*
X66662793Y-115099744D01*
X66584772Y-115288102D01*
X66544998Y-115488061D01*
X66544998Y-115691939D01*
X66584772Y-115891898D01*
X66662793Y-116080256D01*
X66776061Y-116249774D01*
X66794999Y-116268712D01*
X66794999Y-116494843D01*
X66394843Y-116895000D01*
X66368061Y-116895000D01*
X66168102Y-116934774D01*
X65979744Y-117012795D01*
X65810226Y-117126063D01*
X65666063Y-117270226D01*
X65552795Y-117439744D01*
X65474774Y-117628102D01*
X65435000Y-117828061D01*
X57115000Y-117828061D01*
X57115000Y-117058711D01*
X57133937Y-117039774D01*
X57247205Y-116870256D01*
X57325226Y-116681898D01*
X57365000Y-116481939D01*
X57365000Y-116278061D01*
X57325226Y-116078102D01*
X57247205Y-115889744D01*
X57133937Y-115720226D01*
X56989774Y-115576063D01*
X56820256Y-115462795D01*
X56631898Y-115384774D01*
X56431939Y-115345000D01*
X56228061Y-115345000D01*
X56028102Y-115384774D01*
X55839744Y-115462795D01*
X55670226Y-115576063D01*
X55526063Y-115720226D01*
X55412795Y-115889744D01*
X55334774Y-116078102D01*
X55295000Y-116278061D01*
X34942588Y-116278061D01*
X34030663Y-115366136D01*
X34068980Y-115345656D01*
X34135960Y-115105565D01*
X33350000Y-114319605D01*
X33335858Y-114333748D01*
X33156253Y-114154143D01*
X33170395Y-114140000D01*
X32384435Y-113354040D01*
X32315000Y-113373411D01*
X32315000Y-112540655D01*
X32459465Y-112685120D01*
X32688273Y-112838005D01*
X32759943Y-112867692D01*
X32746977Y-112872364D01*
X32631020Y-112934344D01*
X32564040Y-113174435D01*
X33350000Y-113960395D01*
X34135960Y-113174435D01*
X34068980Y-112934344D01*
X33933240Y-112870515D01*
X34011727Y-112838005D01*
X34240535Y-112685120D01*
X34435120Y-112490535D01*
X34588005Y-112261727D01*
X34620000Y-112184485D01*
X34651995Y-112261727D01*
X34804880Y-112490535D01*
X34999465Y-112685120D01*
X35228273Y-112838005D01*
X35305515Y-112870000D01*
X35228273Y-112901995D01*
X34999465Y-113054880D01*
X34804880Y-113249465D01*
X34651995Y-113478273D01*
X34622308Y-113549943D01*
X34617636Y-113536977D01*
X34555656Y-113421020D01*
X34315565Y-113354040D01*
X33529605Y-114140000D01*
X34315565Y-114925960D01*
X34555656Y-114858980D01*
X34619485Y-114723240D01*
X34651995Y-114801727D01*
X34804880Y-115030535D01*
X34999465Y-115225120D01*
X35228273Y-115378005D01*
X35482510Y-115483314D01*
X35752408Y-115537000D01*
X36027592Y-115537000D01*
X36297490Y-115483314D01*
X36551727Y-115378005D01*
X36780535Y-115225120D01*
X36975120Y-115030535D01*
X37128005Y-114801727D01*
X37233314Y-114547490D01*
X37287000Y-114277592D01*
X37287000Y-114002408D01*
X37233314Y-113732510D01*
X37128005Y-113478273D01*
X36975120Y-113249465D01*
X36780535Y-113054880D01*
X36551727Y-112901995D01*
X36474485Y-112870000D01*
X36551727Y-112838005D01*
X36780535Y-112685120D01*
X36975120Y-112490535D01*
X37128005Y-112261727D01*
X37233314Y-112007490D01*
X37287000Y-111737592D01*
X37287000Y-111462408D01*
X37233314Y-111192510D01*
X37128005Y-110938273D01*
X36975120Y-110709465D01*
X36780535Y-110514880D01*
X36551727Y-110361995D01*
X36474485Y-110330000D01*
X36551727Y-110298005D01*
X36780535Y-110145120D01*
X36975120Y-109950535D01*
X37045636Y-109845000D01*
X56464843Y-109845000D01*
X60405000Y-113785158D01*
X60405000Y-113811939D01*
X60444774Y-114011898D01*
X60522795Y-114200256D01*
X60636063Y-114369774D01*
X60780226Y-114513937D01*
X60949744Y-114627205D01*
X61138102Y-114705226D01*
X61338061Y-114745000D01*
X61541939Y-114745000D01*
X61741898Y-114705226D01*
X61930256Y-114627205D01*
X62099774Y-114513937D01*
X62243937Y-114369774D01*
X62357205Y-114200256D01*
X62435226Y-114011898D01*
X62475000Y-113811939D01*
X62475000Y-113608061D01*
X62435226Y-113408102D01*
X62357205Y-113219744D01*
X62243937Y-113050226D01*
X62099774Y-112906063D01*
X61930256Y-112792795D01*
X61741898Y-112714774D01*
X61541939Y-112675000D01*
X61515158Y-112675000D01*
X57372347Y-108532190D01*
X57347764Y-108502236D01*
X57228233Y-108404138D01*
X57091860Y-108331246D01*
X56943887Y-108286359D01*
X56828561Y-108275000D01*
X56828553Y-108275000D01*
X56790000Y-108271203D01*
X56751447Y-108275000D01*
X37045636Y-108275000D01*
X36975120Y-108169465D01*
X36780535Y-107974880D01*
X36551727Y-107821995D01*
X36474485Y-107790000D01*
X36551727Y-107758005D01*
X36780535Y-107605120D01*
X36975120Y-107410535D01*
X37128005Y-107181727D01*
X37233314Y-106927490D01*
X37287000Y-106657592D01*
X37287000Y-106382408D01*
X37233314Y-106112510D01*
X37128005Y-105858273D01*
X36975120Y-105629465D01*
X36780535Y-105434880D01*
X36551727Y-105281995D01*
X36474485Y-105250000D01*
X36551727Y-105218005D01*
X36780535Y-105065120D01*
X36975120Y-104870535D01*
X37128005Y-104641727D01*
X37233314Y-104387490D01*
X37287000Y-104117592D01*
X37287000Y-103842408D01*
X37233314Y-103572510D01*
X37128005Y-103318273D01*
X36975120Y-103089465D01*
X36780535Y-102894880D01*
X36551727Y-102741995D01*
X36297490Y-102636686D01*
X36027592Y-102583000D01*
X35752408Y-102583000D01*
X35482510Y-102636686D01*
X35228273Y-102741995D01*
X34999465Y-102894880D01*
X34804880Y-103089465D01*
X34651995Y-103318273D01*
X34620000Y-103395515D01*
X34588005Y-103318273D01*
X34435120Y-103089465D01*
X34240535Y-102894880D01*
X34011727Y-102741995D01*
X33757490Y-102636686D01*
X33487592Y-102583000D01*
X33212408Y-102583000D01*
X32942510Y-102636686D01*
X32688273Y-102741995D01*
X32459465Y-102894880D01*
X32264880Y-103089465D01*
X32111995Y-103318273D01*
X32006686Y-103572510D01*
X31953000Y-103842408D01*
X31953000Y-104054711D01*
X30751336Y-105256375D01*
X30715657Y-105285656D01*
X30660000Y-105353474D01*
X30660000Y-102268061D01*
X44705000Y-102268061D01*
X44705000Y-102471939D01*
X44744774Y-102671898D01*
X44822795Y-102860256D01*
X44936063Y-103029774D01*
X45080226Y-103173937D01*
X45249744Y-103287205D01*
X45438102Y-103365226D01*
X45638061Y-103405000D01*
X45841939Y-103405000D01*
X46041898Y-103365226D01*
X46230256Y-103287205D01*
X46399774Y-103173937D01*
X46543937Y-103029774D01*
X46657205Y-102860256D01*
X46735226Y-102671898D01*
X46775000Y-102471939D01*
X46775000Y-102268061D01*
X46735226Y-102068102D01*
X46657205Y-101879744D01*
X46625000Y-101831546D01*
X46625000Y-99996578D01*
X46893976Y-99727602D01*
X46864774Y-99798102D01*
X46825000Y-99998061D01*
X46825000Y-100201939D01*
X46864774Y-100401898D01*
X46942795Y-100590256D01*
X47056063Y-100759774D01*
X47075000Y-100778711D01*
X47075001Y-103101437D01*
X47071203Y-103140000D01*
X47086359Y-103293886D01*
X47131246Y-103441859D01*
X47131247Y-103441860D01*
X47204139Y-103578233D01*
X47238794Y-103620460D01*
X47277655Y-103667812D01*
X47277659Y-103667816D01*
X47302237Y-103697764D01*
X47332185Y-103722342D01*
X50297658Y-106687816D01*
X50322236Y-106717764D01*
X50352184Y-106742342D01*
X50352187Y-106742345D01*
X50372255Y-106758814D01*
X50441767Y-106815862D01*
X50553635Y-106875656D01*
X50578140Y-106888754D01*
X50726113Y-106933642D01*
X50801026Y-106941020D01*
X50841439Y-106945000D01*
X50841444Y-106945000D01*
X50880000Y-106948797D01*
X50918555Y-106945000D01*
X59884843Y-106945000D01*
X64775000Y-111835157D01*
X64775001Y-112391288D01*
X64756063Y-112410226D01*
X64642795Y-112579744D01*
X64564774Y-112768102D01*
X64525000Y-112968061D01*
X64525000Y-113171939D01*
X64564774Y-113371898D01*
X64642795Y-113560256D01*
X64756063Y-113729774D01*
X64900226Y-113873937D01*
X65069744Y-113987205D01*
X65258102Y-114065226D01*
X65458061Y-114105000D01*
X65661939Y-114105000D01*
X65861898Y-114065226D01*
X66050256Y-113987205D01*
X66219774Y-113873937D01*
X66363937Y-113729774D01*
X66477205Y-113560256D01*
X66555226Y-113371898D01*
X66595000Y-113171939D01*
X66595000Y-112968061D01*
X66555226Y-112768102D01*
X66477205Y-112579744D01*
X66363937Y-112410226D01*
X66345000Y-112391289D01*
X66345000Y-111548556D01*
X66348797Y-111510000D01*
X66345000Y-111471440D01*
X66345000Y-111471439D01*
X66341020Y-111431026D01*
X66333642Y-111356113D01*
X66288754Y-111208140D01*
X66280400Y-111192510D01*
X66215862Y-111071767D01*
X66117764Y-110952236D01*
X66087811Y-110927654D01*
X63605722Y-108445565D01*
X68564040Y-108445565D01*
X68631020Y-108685656D01*
X68880048Y-108802756D01*
X69147135Y-108869023D01*
X69422017Y-108881910D01*
X69694133Y-108840922D01*
X69953023Y-108747636D01*
X70068980Y-108685656D01*
X70135960Y-108445565D01*
X69350000Y-107659605D01*
X68564040Y-108445565D01*
X63605722Y-108445565D01*
X62712174Y-107552017D01*
X67948090Y-107552017D01*
X67989078Y-107824133D01*
X68082364Y-108083023D01*
X68144344Y-108198980D01*
X68384435Y-108265960D01*
X69170395Y-107480000D01*
X68384435Y-106694040D01*
X68144344Y-106761020D01*
X68027244Y-107010048D01*
X67960977Y-107277135D01*
X67948090Y-107552017D01*
X62712174Y-107552017D01*
X61674592Y-106514435D01*
X68564040Y-106514435D01*
X69350000Y-107300395D01*
X70135960Y-106514435D01*
X70068980Y-106274344D01*
X69819952Y-106157244D01*
X69552865Y-106090977D01*
X69277983Y-106078090D01*
X69005867Y-106119078D01*
X68746977Y-106212364D01*
X68631020Y-106274344D01*
X68564040Y-106514435D01*
X61674592Y-106514435D01*
X60792347Y-105632190D01*
X60767764Y-105602236D01*
X60648233Y-105504138D01*
X60511860Y-105431246D01*
X60363887Y-105386359D01*
X60248561Y-105375000D01*
X60248553Y-105375000D01*
X60210000Y-105371203D01*
X60171447Y-105375000D01*
X51205158Y-105375000D01*
X48645000Y-102814843D01*
X48645000Y-100778711D01*
X48663937Y-100759774D01*
X48777205Y-100590256D01*
X48855226Y-100401898D01*
X48895000Y-100201939D01*
X48895000Y-99998061D01*
X48855226Y-99798102D01*
X48777205Y-99609744D01*
X48663937Y-99440226D01*
X48519774Y-99296063D01*
X48350256Y-99182795D01*
X48161898Y-99104774D01*
X47961939Y-99065000D01*
X47758061Y-99065000D01*
X47558102Y-99104774D01*
X47487602Y-99133976D01*
X48050044Y-98571535D01*
X48106898Y-98560226D01*
X48295256Y-98482205D01*
X48464774Y-98368937D01*
X48608937Y-98224774D01*
X48722205Y-98055256D01*
X48800226Y-97866898D01*
X48811535Y-97810043D01*
X50518484Y-96103095D01*
X50528061Y-96105000D01*
X50731939Y-96105000D01*
X50931898Y-96065226D01*
X51120256Y-95987205D01*
X51289774Y-95873937D01*
X51433937Y-95729774D01*
X51547205Y-95560256D01*
X51625226Y-95371898D01*
X51665000Y-95171939D01*
X51665000Y-94968061D01*
X51625226Y-94768102D01*
X51573162Y-94642408D01*
X67953000Y-94642408D01*
X67953000Y-94917592D01*
X68006686Y-95187490D01*
X68111995Y-95441727D01*
X68264880Y-95670535D01*
X68459465Y-95865120D01*
X68688273Y-96018005D01*
X68942510Y-96123314D01*
X69212408Y-96177000D01*
X69487592Y-96177000D01*
X69757490Y-96123314D01*
X70011727Y-96018005D01*
X70240535Y-95865120D01*
X70435120Y-95670535D01*
X70588005Y-95441727D01*
X70620000Y-95364485D01*
X70651995Y-95441727D01*
X70804880Y-95670535D01*
X70999465Y-95865120D01*
X71228273Y-96018005D01*
X71482510Y-96123314D01*
X71752408Y-96177000D01*
X72027592Y-96177000D01*
X72297490Y-96123314D01*
X72551727Y-96018005D01*
X72780535Y-95865120D01*
X72975120Y-95670535D01*
X73128005Y-95441727D01*
X73160000Y-95364485D01*
X73191995Y-95441727D01*
X73344880Y-95670535D01*
X73539465Y-95865120D01*
X73768273Y-96018005D01*
X74022510Y-96123314D01*
X74292408Y-96177000D01*
X74567592Y-96177000D01*
X74837490Y-96123314D01*
X75091727Y-96018005D01*
X75320535Y-95865120D01*
X75515120Y-95670535D01*
X75668005Y-95441727D01*
X75700000Y-95364485D01*
X75731995Y-95441727D01*
X75884880Y-95670535D01*
X76079465Y-95865120D01*
X76308273Y-96018005D01*
X76562510Y-96123314D01*
X76832408Y-96177000D01*
X77107592Y-96177000D01*
X77377490Y-96123314D01*
X77631727Y-96018005D01*
X77860535Y-95865120D01*
X78055120Y-95670535D01*
X78208005Y-95441727D01*
X78240000Y-95364485D01*
X78271995Y-95441727D01*
X78424880Y-95670535D01*
X78619465Y-95865120D01*
X78848273Y-96018005D01*
X79102510Y-96123314D01*
X79372408Y-96177000D01*
X79647592Y-96177000D01*
X79917490Y-96123314D01*
X80171727Y-96018005D01*
X80400535Y-95865120D01*
X80595120Y-95670535D01*
X80748005Y-95441727D01*
X80780000Y-95364485D01*
X80811995Y-95441727D01*
X80964880Y-95670535D01*
X81159465Y-95865120D01*
X81388273Y-96018005D01*
X81642510Y-96123314D01*
X81912408Y-96177000D01*
X82187592Y-96177000D01*
X82457490Y-96123314D01*
X82711727Y-96018005D01*
X82940535Y-95865120D01*
X83135120Y-95670535D01*
X83288005Y-95441727D01*
X83320000Y-95364485D01*
X83351995Y-95441727D01*
X83504880Y-95670535D01*
X83699465Y-95865120D01*
X83928273Y-96018005D01*
X84182510Y-96123314D01*
X84452408Y-96177000D01*
X84727592Y-96177000D01*
X84997490Y-96123314D01*
X85251727Y-96018005D01*
X85480535Y-95865120D01*
X85600090Y-95745565D01*
X86344040Y-95745565D01*
X86411020Y-95985656D01*
X86660048Y-96102756D01*
X86927135Y-96169023D01*
X87202017Y-96181910D01*
X87474133Y-96140922D01*
X87733023Y-96047636D01*
X87848980Y-95985656D01*
X87915960Y-95745565D01*
X87130000Y-94959605D01*
X86344040Y-95745565D01*
X85600090Y-95745565D01*
X85675120Y-95670535D01*
X85828005Y-95441727D01*
X85857692Y-95370057D01*
X85862364Y-95383023D01*
X85924344Y-95498980D01*
X86164435Y-95565960D01*
X86950395Y-94780000D01*
X87309605Y-94780000D01*
X88095565Y-95565960D01*
X88335656Y-95498980D01*
X88452756Y-95249952D01*
X88519023Y-94982865D01*
X88531910Y-94707983D01*
X88490922Y-94435867D01*
X88397636Y-94176977D01*
X88335656Y-94061020D01*
X88095565Y-93994040D01*
X87309605Y-94780000D01*
X86950395Y-94780000D01*
X86164435Y-93994040D01*
X85924344Y-94061020D01*
X85860515Y-94196760D01*
X85828005Y-94118273D01*
X85675120Y-93889465D01*
X85600090Y-93814435D01*
X86344040Y-93814435D01*
X87130000Y-94600395D01*
X87915960Y-93814435D01*
X87848980Y-93574344D01*
X87599952Y-93457244D01*
X87332865Y-93390977D01*
X87057983Y-93378090D01*
X86785867Y-93419078D01*
X86526977Y-93512364D01*
X86411020Y-93574344D01*
X86344040Y-93814435D01*
X85600090Y-93814435D01*
X85480535Y-93694880D01*
X85251727Y-93541995D01*
X84997490Y-93436686D01*
X84727592Y-93383000D01*
X84452408Y-93383000D01*
X84182510Y-93436686D01*
X83928273Y-93541995D01*
X83699465Y-93694880D01*
X83504880Y-93889465D01*
X83351995Y-94118273D01*
X83320000Y-94195515D01*
X83288005Y-94118273D01*
X83135120Y-93889465D01*
X82940535Y-93694880D01*
X82711727Y-93541995D01*
X82457490Y-93436686D01*
X82187592Y-93383000D01*
X81912408Y-93383000D01*
X81642510Y-93436686D01*
X81388273Y-93541995D01*
X81159465Y-93694880D01*
X80964880Y-93889465D01*
X80811995Y-94118273D01*
X80780000Y-94195515D01*
X80748005Y-94118273D01*
X80595120Y-93889465D01*
X80400535Y-93694880D01*
X80171727Y-93541995D01*
X79917490Y-93436686D01*
X79647592Y-93383000D01*
X79372408Y-93383000D01*
X79102510Y-93436686D01*
X78848273Y-93541995D01*
X78619465Y-93694880D01*
X78424880Y-93889465D01*
X78271995Y-94118273D01*
X78240000Y-94195515D01*
X78208005Y-94118273D01*
X78055120Y-93889465D01*
X77860535Y-93694880D01*
X77631727Y-93541995D01*
X77377490Y-93436686D01*
X77107592Y-93383000D01*
X76832408Y-93383000D01*
X76562510Y-93436686D01*
X76308273Y-93541995D01*
X76079465Y-93694880D01*
X75884880Y-93889465D01*
X75731995Y-94118273D01*
X75700000Y-94195515D01*
X75668005Y-94118273D01*
X75515120Y-93889465D01*
X75320535Y-93694880D01*
X75091727Y-93541995D01*
X74837490Y-93436686D01*
X74567592Y-93383000D01*
X74292408Y-93383000D01*
X74022510Y-93436686D01*
X73768273Y-93541995D01*
X73539465Y-93694880D01*
X73344880Y-93889465D01*
X73191995Y-94118273D01*
X73160000Y-94195515D01*
X73128005Y-94118273D01*
X72975120Y-93889465D01*
X72780535Y-93694880D01*
X72551727Y-93541995D01*
X72297490Y-93436686D01*
X72027592Y-93383000D01*
X71752408Y-93383000D01*
X71482510Y-93436686D01*
X71228273Y-93541995D01*
X70999465Y-93694880D01*
X70804880Y-93889465D01*
X70651995Y-94118273D01*
X70620000Y-94195515D01*
X70588005Y-94118273D01*
X70435120Y-93889465D01*
X70240535Y-93694880D01*
X70011727Y-93541995D01*
X69757490Y-93436686D01*
X69487592Y-93383000D01*
X69212408Y-93383000D01*
X68942510Y-93436686D01*
X68688273Y-93541995D01*
X68459465Y-93694880D01*
X68264880Y-93889465D01*
X68111995Y-94118273D01*
X68006686Y-94372510D01*
X67953000Y-94642408D01*
X51573162Y-94642408D01*
X51547205Y-94579744D01*
X51433937Y-94410226D01*
X51289774Y-94266063D01*
X51120256Y-94152795D01*
X50931898Y-94074774D01*
X50731939Y-94035000D01*
X50528061Y-94035000D01*
X50328102Y-94074774D01*
X50139744Y-94152795D01*
X50027374Y-94227878D01*
X49959687Y-94248411D01*
X49844371Y-94310048D01*
X49805941Y-94330589D01*
X49704953Y-94413468D01*
X49704951Y-94413470D01*
X49671183Y-94441183D01*
X49643470Y-94474951D01*
X47559957Y-96558465D01*
X47503102Y-96569774D01*
X47314744Y-96647795D01*
X47145226Y-96761063D01*
X47001063Y-96905226D01*
X46887795Y-97074744D01*
X46809774Y-97263102D01*
X46798465Y-97319956D01*
X45144951Y-98973471D01*
X45111184Y-99001183D01*
X45083471Y-99034951D01*
X45083468Y-99034954D01*
X45000590Y-99135941D01*
X44918412Y-99289687D01*
X44867805Y-99456510D01*
X44850719Y-99630000D01*
X44855001Y-99673479D01*
X44855000Y-101831545D01*
X44822795Y-101879744D01*
X44744774Y-102068102D01*
X44705000Y-102268061D01*
X30660000Y-102268061D01*
X30660000Y-91700881D01*
X31478724Y-91700881D01*
X31838912Y-92190548D01*
X32502882Y-92550849D01*
X33224385Y-92774694D01*
X33975695Y-92853480D01*
X34727938Y-92784178D01*
X35452208Y-92569452D01*
X36120670Y-92217555D01*
X36161088Y-92190548D01*
X36521276Y-91700881D01*
X34000000Y-89179605D01*
X31478724Y-91700881D01*
X30660000Y-91700881D01*
X30660000Y-90888074D01*
X30782445Y-91120670D01*
X30809452Y-91161088D01*
X31299119Y-91521276D01*
X33820395Y-89000000D01*
X34179605Y-89000000D01*
X36700881Y-91521276D01*
X37190548Y-91161088D01*
X37550849Y-90497118D01*
X37603612Y-90327050D01*
X40585000Y-90327050D01*
X40585000Y-90972949D01*
X40606487Y-91191110D01*
X40691401Y-91471033D01*
X40829294Y-91729013D01*
X41014866Y-91955134D01*
X41240986Y-92140706D01*
X41498966Y-92278599D01*
X41778889Y-92363513D01*
X42070000Y-92392185D01*
X42361110Y-92363513D01*
X42641033Y-92278599D01*
X42899013Y-92140706D01*
X43125134Y-91955134D01*
X43175291Y-91894017D01*
X43176303Y-91896460D01*
X43199406Y-91939682D01*
X43268893Y-92043677D01*
X43299983Y-92081561D01*
X43388439Y-92170017D01*
X43426323Y-92201107D01*
X43530318Y-92270594D01*
X43573540Y-92293697D01*
X43689111Y-92341568D01*
X43736009Y-92355794D01*
X43858681Y-92380195D01*
X43907454Y-92384999D01*
X43970000Y-92388072D01*
X45170000Y-92388072D01*
X45232546Y-92384999D01*
X45281319Y-92380195D01*
X45403991Y-92355794D01*
X45450889Y-92341568D01*
X45566460Y-92293697D01*
X45609682Y-92270594D01*
X45713677Y-92201107D01*
X45751561Y-92170017D01*
X45840017Y-92081561D01*
X45871107Y-92043677D01*
X45940594Y-91939682D01*
X45963697Y-91896460D01*
X46011568Y-91780889D01*
X46025794Y-91733991D01*
X46050195Y-91611319D01*
X46054999Y-91562546D01*
X46058072Y-91500000D01*
X46058072Y-90317050D01*
X48395000Y-90317050D01*
X48395000Y-90962949D01*
X48416487Y-91181110D01*
X48501401Y-91461033D01*
X48639294Y-91719013D01*
X48824866Y-91945134D01*
X49050986Y-92130706D01*
X49308966Y-92268599D01*
X49588889Y-92353513D01*
X49880000Y-92382185D01*
X50171110Y-92353513D01*
X50451033Y-92268599D01*
X50709013Y-92130706D01*
X50935134Y-91945134D01*
X50985291Y-91884017D01*
X50986303Y-91886460D01*
X51009406Y-91929682D01*
X51078893Y-92033677D01*
X51109983Y-92071561D01*
X51198439Y-92160017D01*
X51236323Y-92191107D01*
X51340318Y-92260594D01*
X51383540Y-92283697D01*
X51499111Y-92331568D01*
X51546009Y-92345794D01*
X51668681Y-92370195D01*
X51717454Y-92374999D01*
X51780000Y-92378072D01*
X52980000Y-92378072D01*
X53042546Y-92374999D01*
X53091319Y-92370195D01*
X53213991Y-92345794D01*
X53260889Y-92331568D01*
X53376460Y-92283697D01*
X53419682Y-92260594D01*
X53523677Y-92191107D01*
X53561561Y-92160017D01*
X53650017Y-92071561D01*
X53681107Y-92033677D01*
X53750594Y-91929682D01*
X53773697Y-91886460D01*
X53821568Y-91770889D01*
X53835794Y-91723991D01*
X53840390Y-91700881D01*
X83478724Y-91700881D01*
X83838912Y-92190548D01*
X84502882Y-92550849D01*
X85224385Y-92774694D01*
X85975695Y-92853480D01*
X86727938Y-92784178D01*
X87452208Y-92569452D01*
X88120670Y-92217555D01*
X88161088Y-92190548D01*
X88521276Y-91700881D01*
X86000000Y-89179605D01*
X83478724Y-91700881D01*
X53840390Y-91700881D01*
X53860195Y-91601319D01*
X53864999Y-91552546D01*
X53868072Y-91490000D01*
X53868072Y-89790000D01*
X53864999Y-89727454D01*
X53860195Y-89678681D01*
X53835794Y-89556009D01*
X53821568Y-89509111D01*
X53773697Y-89393540D01*
X53750594Y-89350318D01*
X53681107Y-89246323D01*
X53650017Y-89208439D01*
X53561561Y-89119983D01*
X53523677Y-89088893D01*
X53419682Y-89019406D01*
X53376460Y-88996303D01*
X53326708Y-88975695D01*
X82146520Y-88975695D01*
X82215822Y-89727938D01*
X82430548Y-90452208D01*
X82782445Y-91120670D01*
X82809452Y-91161088D01*
X83299119Y-91521276D01*
X85820395Y-89000000D01*
X83299119Y-86478724D01*
X82809452Y-86838912D01*
X82449151Y-87502882D01*
X82225306Y-88224385D01*
X82146520Y-88975695D01*
X53326708Y-88975695D01*
X53260889Y-88948432D01*
X53213991Y-88934206D01*
X53091319Y-88909805D01*
X53042546Y-88905001D01*
X52980000Y-88901928D01*
X52355988Y-88901928D01*
X52268753Y-88691324D01*
X52128125Y-88480860D01*
X51949140Y-88301875D01*
X51738676Y-88161247D01*
X51504821Y-88064381D01*
X51256561Y-88015000D01*
X51003439Y-88015000D01*
X50755179Y-88064381D01*
X50521324Y-88161247D01*
X50310860Y-88301875D01*
X50131875Y-88480860D01*
X49991247Y-88691324D01*
X49904708Y-88900248D01*
X49880000Y-88897815D01*
X49588890Y-88926487D01*
X49308967Y-89011401D01*
X49050987Y-89149294D01*
X48824866Y-89334866D01*
X48639294Y-89560986D01*
X48501401Y-89818966D01*
X48416487Y-90098889D01*
X48395000Y-90317050D01*
X46058072Y-90317050D01*
X46058072Y-89800000D01*
X46054999Y-89737454D01*
X46050195Y-89688681D01*
X46025794Y-89566009D01*
X46011568Y-89519111D01*
X45963697Y-89403540D01*
X45940594Y-89360318D01*
X45871107Y-89256323D01*
X45840017Y-89218439D01*
X45751561Y-89129983D01*
X45713677Y-89098893D01*
X45609682Y-89029406D01*
X45566460Y-89006303D01*
X45450889Y-88958432D01*
X45403991Y-88944206D01*
X45281319Y-88919805D01*
X45232546Y-88915001D01*
X45170000Y-88911928D01*
X44545988Y-88911928D01*
X44458753Y-88701324D01*
X44318125Y-88490860D01*
X44139140Y-88311875D01*
X43928676Y-88171247D01*
X43694821Y-88074381D01*
X43446561Y-88025000D01*
X43193439Y-88025000D01*
X42945179Y-88074381D01*
X42711324Y-88171247D01*
X42500860Y-88311875D01*
X42321875Y-88490860D01*
X42181247Y-88701324D01*
X42094708Y-88910248D01*
X42070000Y-88907815D01*
X41778890Y-88936487D01*
X41498967Y-89021401D01*
X41240987Y-89159294D01*
X41014866Y-89344866D01*
X40829294Y-89570986D01*
X40691401Y-89828966D01*
X40606487Y-90108889D01*
X40585000Y-90327050D01*
X37603612Y-90327050D01*
X37774694Y-89775615D01*
X37853480Y-89024305D01*
X37784178Y-88272062D01*
X37569452Y-87547792D01*
X37217555Y-86879330D01*
X37190548Y-86838912D01*
X36700881Y-86478724D01*
X34179605Y-89000000D01*
X33820395Y-89000000D01*
X31299119Y-86478724D01*
X30809452Y-86838912D01*
X30660000Y-87114325D01*
X30660000Y-85660000D01*
X32111926Y-85660000D01*
X31879330Y-85782445D01*
G37*
X31879330Y-85782445D02*
X31838912Y-85809452D01*
X31478724Y-86299119D01*
X34000000Y-88820395D01*
X36521276Y-86299119D01*
X36161088Y-85809452D01*
X35885675Y-85660000D01*
X84111926Y-85660000D01*
X83879330Y-85782445D01*
X83838912Y-85809452D01*
X83478724Y-86299119D01*
X86000000Y-88820395D01*
X88521276Y-86299119D01*
X88161088Y-85809452D01*
X87885675Y-85660000D01*
X89340001Y-85660000D01*
X89340001Y-87111927D01*
X89217555Y-86879330D01*
X89190548Y-86838912D01*
X88700881Y-86478724D01*
X86179605Y-89000000D01*
X88700881Y-91521276D01*
X89190548Y-91161088D01*
X89340001Y-90885673D01*
X89340000Y-129111926D01*
X89217555Y-128879330D01*
X89190548Y-128838912D01*
X88700881Y-128478724D01*
X86179605Y-131000000D01*
X88700881Y-133521276D01*
X89190548Y-133161088D01*
X89340000Y-132885675D01*
X89340000Y-134340000D01*
X87888074Y-134340000D01*
X88120670Y-134217555D01*
X88161088Y-134190548D01*
X88521276Y-133700881D01*
X86000000Y-131179605D01*
X83478724Y-133700881D01*
X83838912Y-134190548D01*
X84114325Y-134340000D01*
X66802289Y-134340000D01*
X68132289Y-133010000D01*
X72961928Y-133010000D01*
X72974188Y-133134482D01*
X73010498Y-133254180D01*
X73069463Y-133364494D01*
X73148815Y-133461185D01*
X73245506Y-133540537D01*
X73355820Y-133599502D01*
X73475518Y-133635812D01*
X73600000Y-133648072D01*
X74164250Y-133645000D01*
X74323000Y-133486250D01*
X74323000Y-132137000D01*
X73123750Y-132137000D01*
X72965000Y-132295750D01*
X72961928Y-133010000D01*
X68132289Y-133010000D01*
X68592978Y-132549312D01*
X68628658Y-132520030D01*
X68729729Y-132396875D01*
X69500880Y-131625724D01*
X69648061Y-131655000D01*
X69851939Y-131655000D01*
X70051898Y-131615226D01*
X70240256Y-131537205D01*
X70409774Y-131423937D01*
X70553937Y-131279774D01*
X70667205Y-131110256D01*
X70708732Y-131010000D01*
X72961928Y-131010000D01*
X72965000Y-131724250D01*
X73123750Y-131883000D01*
X74323000Y-131883000D01*
X74323000Y-130533750D01*
X74577000Y-130533750D01*
X74577000Y-131883000D01*
X74597000Y-131883000D01*
X74597000Y-132137000D01*
X74577000Y-132137000D01*
X74577000Y-133486250D01*
X74735750Y-133645000D01*
X75300000Y-133648072D01*
X75424482Y-133635812D01*
X75544180Y-133599502D01*
X75654494Y-133540537D01*
X75751185Y-133461185D01*
X75830537Y-133364494D01*
X75889502Y-133254180D01*
X75900055Y-133219392D01*
X76120987Y-133400706D01*
X76378967Y-133538599D01*
X76658890Y-133623513D01*
X76950000Y-133652185D01*
X77241111Y-133623513D01*
X77521034Y-133538599D01*
X77779014Y-133400706D01*
X78005134Y-133215134D01*
X78190706Y-132989014D01*
X78328599Y-132731033D01*
X78413513Y-132451110D01*
X78435000Y-132232949D01*
X78435000Y-131787050D01*
X78413513Y-131568889D01*
X78328599Y-131288966D01*
X78190706Y-131030986D01*
X78145330Y-130975695D01*
X82146520Y-130975695D01*
X82215822Y-131727938D01*
X82430548Y-132452208D01*
X82782445Y-133120670D01*
X82809452Y-133161088D01*
X83299119Y-133521276D01*
X85820395Y-131000000D01*
X83299119Y-128478724D01*
X82809452Y-128838912D01*
X82449151Y-129502882D01*
X82225306Y-130224385D01*
X82146520Y-130975695D01*
X78145330Y-130975695D01*
X78005134Y-130804866D01*
X77779013Y-130619294D01*
X77521033Y-130481401D01*
X77241110Y-130396487D01*
X76950000Y-130367815D01*
X76658889Y-130396487D01*
X76378966Y-130481401D01*
X76120986Y-130619294D01*
X75900055Y-130800608D01*
X75889502Y-130765820D01*
X75830537Y-130655506D01*
X75751185Y-130558815D01*
X75654494Y-130479463D01*
X75544180Y-130420498D01*
X75424482Y-130384188D01*
X75300000Y-130371928D01*
X74735750Y-130375000D01*
X74577000Y-130533750D01*
X74323000Y-130533750D01*
X74164250Y-130375000D01*
X73600000Y-130371928D01*
X73475518Y-130384188D01*
X73355820Y-130420498D01*
X73245506Y-130479463D01*
X73148815Y-130558815D01*
X73069463Y-130655506D01*
X73010498Y-130765820D01*
X72974188Y-130885518D01*
X72961928Y-131010000D01*
X70708732Y-131010000D01*
X70745226Y-130921898D01*
X70785000Y-130721939D01*
X70785000Y-130518061D01*
X70745226Y-130318102D01*
X70667205Y-130129744D01*
X70553937Y-129960226D01*
X70409774Y-129816063D01*
X70240256Y-129702795D01*
X70051898Y-129624774D01*
X69851939Y-129585000D01*
X69648061Y-129585000D01*
X69448102Y-129624774D01*
X69302705Y-129685000D01*
X69230247Y-129685000D01*
X69184315Y-129680476D01*
X69138383Y-129685000D01*
X69001023Y-129698529D01*
X68824775Y-129751993D01*
X68662343Y-129838814D01*
X68519971Y-129955656D01*
X68490685Y-129991341D01*
X67335655Y-131146371D01*
X67299970Y-131175657D01*
X67198907Y-131298803D01*
X64957721Y-133539990D01*
X46492279Y-133539990D01*
X44803780Y-131851491D01*
X44858676Y-131828753D01*
X45069140Y-131688125D01*
X45248125Y-131509140D01*
X45388753Y-131298676D01*
X45485619Y-131064821D01*
X45535000Y-130816561D01*
X45535000Y-130563439D01*
X45485619Y-130315179D01*
X45388753Y-130081324D01*
X45373000Y-130057748D01*
X45373000Y-129477000D01*
X45353000Y-129477000D01*
X45353000Y-129223000D01*
X45373000Y-129223000D01*
X45373000Y-127779845D01*
X45627000Y-127779845D01*
X45627000Y-129223000D01*
X45647000Y-129223000D01*
X45647000Y-129477000D01*
X45627000Y-129477000D01*
X45627000Y-130920155D01*
X45856890Y-131041476D01*
X45967493Y-131020357D01*
X46235608Y-130901862D01*
X46475454Y-130733337D01*
X46677814Y-130521259D01*
X46748815Y-130409408D01*
X46759294Y-130429014D01*
X46944866Y-130655134D01*
X47170987Y-130840706D01*
X47428967Y-130978599D01*
X47708890Y-131063513D01*
X48000000Y-131092185D01*
X48291111Y-131063513D01*
X48571034Y-130978599D01*
X48829014Y-130840706D01*
X49055134Y-130655134D01*
X49240706Y-130429014D01*
X49317683Y-130285000D01*
X52696070Y-130285000D01*
X52742002Y-130289524D01*
X52787934Y-130285000D01*
X52925294Y-130271471D01*
X53101542Y-130218007D01*
X53263974Y-130131186D01*
X53406346Y-130014344D01*
X53435632Y-129978659D01*
X60299292Y-123115000D01*
X69785000Y-123115000D01*
X69785000Y-123131939D01*
X69824774Y-123331898D01*
X69902795Y-123520256D01*
X70016063Y-123689774D01*
X70160226Y-123833937D01*
X70329744Y-123947205D01*
X70518102Y-124025226D01*
X70718061Y-124065000D01*
X70921939Y-124065000D01*
X71121898Y-124025226D01*
X71255858Y-123969738D01*
X71438102Y-124045226D01*
X71638061Y-124085000D01*
X71841939Y-124085000D01*
X72041898Y-124045226D01*
X72230256Y-123967205D01*
X72399774Y-123853937D01*
X72543937Y-123709774D01*
X72657205Y-123540256D01*
X72735226Y-123351898D01*
X72775000Y-123151939D01*
X72775000Y-122948061D01*
X72735226Y-122748102D01*
X72680093Y-122615000D01*
X72735226Y-122481898D01*
X72775000Y-122281939D01*
X72775000Y-122078061D01*
X72756489Y-121985000D01*
X72781289Y-121985000D01*
X72800226Y-122003937D01*
X72969744Y-122117205D01*
X73158102Y-122195226D01*
X73358061Y-122235000D01*
X73545000Y-122235000D01*
X73545001Y-123886990D01*
X73520150Y-123894528D01*
X73366614Y-123976595D01*
X73232038Y-124087038D01*
X73121595Y-124221614D01*
X73039528Y-124375150D01*
X72988992Y-124541746D01*
X72971928Y-124715000D01*
X72971928Y-126165000D01*
X72988992Y-126338254D01*
X73039528Y-126504850D01*
X73121595Y-126658386D01*
X73232038Y-126792962D01*
X73356372Y-126895000D01*
X64908705Y-126895000D01*
X64889768Y-126876063D01*
X64720250Y-126762795D01*
X64531892Y-126684774D01*
X64331933Y-126645000D01*
X64128055Y-126645000D01*
X63928096Y-126684774D01*
X63739738Y-126762795D01*
X63570220Y-126876063D01*
X63426057Y-127020226D01*
X63312789Y-127189744D01*
X63234768Y-127378102D01*
X63194994Y-127578061D01*
X63194994Y-127781939D01*
X63234768Y-127981898D01*
X63312789Y-128170256D01*
X63426057Y-128339774D01*
X63570220Y-128483937D01*
X63739738Y-128597205D01*
X63928096Y-128675226D01*
X64128055Y-128715000D01*
X64331933Y-128715000D01*
X64531892Y-128675226D01*
X64720250Y-128597205D01*
X64889768Y-128483937D01*
X64908705Y-128465000D01*
X78456447Y-128465000D01*
X78495000Y-128468797D01*
X78533553Y-128465000D01*
X78533561Y-128465000D01*
X78648887Y-128453641D01*
X78796860Y-128408754D01*
X78933233Y-128335862D01*
X78978003Y-128299119D01*
X83478724Y-128299119D01*
X86000000Y-130820395D01*
X88521276Y-128299119D01*
X88161088Y-127809452D01*
X87497118Y-127449151D01*
X86775615Y-127225306D01*
X86024305Y-127146520D01*
X85272062Y-127215822D01*
X84547792Y-127430548D01*
X83879330Y-127782445D01*
X83838912Y-127809452D01*
X83478724Y-128299119D01*
X78978003Y-128299119D01*
X79052764Y-128237764D01*
X79077347Y-128207810D01*
X79987815Y-127297343D01*
X80017764Y-127272764D01*
X80043203Y-127241768D01*
X80066450Y-127213441D01*
X80115862Y-127153233D01*
X80188754Y-127016860D01*
X80208658Y-126951246D01*
X80233641Y-126868888D01*
X80237132Y-126833437D01*
X80289014Y-126805706D01*
X80515134Y-126620134D01*
X80700706Y-126394014D01*
X80838599Y-126136033D01*
X80923513Y-125856110D01*
X80945000Y-125637949D01*
X80945000Y-125242050D01*
X80923513Y-125023889D01*
X80838599Y-124743966D01*
X80700706Y-124485986D01*
X80515134Y-124259866D01*
X80289013Y-124074294D01*
X80031033Y-123936401D01*
X79751110Y-123851487D01*
X79460000Y-123822815D01*
X79168889Y-123851487D01*
X78888966Y-123936401D01*
X78630986Y-124074294D01*
X78404866Y-124259866D01*
X78219294Y-124485987D01*
X78205538Y-124511722D01*
X78049049Y-124305571D01*
X77831193Y-124112504D01*
X77579858Y-123965648D01*
X77316890Y-123873524D01*
X77087000Y-123994845D01*
X77087000Y-125313000D01*
X77107000Y-125313000D01*
X77107000Y-125567000D01*
X77087000Y-125567000D01*
X77087000Y-125587000D01*
X76833000Y-125587000D01*
X76833000Y-125567000D01*
X76813000Y-125567000D01*
X76813000Y-125313000D01*
X76833000Y-125313000D01*
X76833000Y-123994845D01*
X76603110Y-123873524D01*
X76340142Y-123965648D01*
X76088807Y-124112504D01*
X75870951Y-124305571D01*
X75854714Y-124326961D01*
X75798405Y-124221614D01*
X75687962Y-124087038D01*
X75553386Y-123976595D01*
X75415000Y-123902626D01*
X75415000Y-120606943D01*
X75419850Y-120605472D01*
X75573386Y-120523405D01*
X75707962Y-120412962D01*
X75818405Y-120278386D01*
X75874714Y-120173039D01*
X75890951Y-120194429D01*
X76108807Y-120387496D01*
X76360142Y-120534352D01*
X76623110Y-120626476D01*
X76853000Y-120505155D01*
X76853000Y-119187000D01*
X76833000Y-119187000D01*
X76833000Y-118933000D01*
X76853000Y-118933000D01*
X76853000Y-117614845D01*
X77107000Y-117614845D01*
X77107000Y-118933000D01*
X77127000Y-118933000D01*
X77127000Y-119187000D01*
X77107000Y-119187000D01*
X77107000Y-120505155D01*
X77336890Y-120626476D01*
X77599858Y-120534352D01*
X77851193Y-120387496D01*
X78069049Y-120194429D01*
X78225538Y-119988278D01*
X78239294Y-120014014D01*
X78424866Y-120240134D01*
X78650987Y-120425706D01*
X78908967Y-120563599D01*
X79188890Y-120648513D01*
X79480000Y-120677185D01*
X79771111Y-120648513D01*
X80051034Y-120563599D01*
X80309014Y-120425706D01*
X80535134Y-120240134D01*
X80720706Y-120014014D01*
X80858599Y-119756033D01*
X80943513Y-119476110D01*
X80965000Y-119257949D01*
X80965000Y-118862050D01*
X80943513Y-118643889D01*
X80858599Y-118363966D01*
X80720706Y-118105986D01*
X80535134Y-117879866D01*
X80309013Y-117694294D01*
X80051033Y-117556401D01*
X79771110Y-117471487D01*
X79480000Y-117442815D01*
X79188889Y-117471487D01*
X78908966Y-117556401D01*
X78650986Y-117694294D01*
X78424866Y-117879866D01*
X78239294Y-118105987D01*
X78225538Y-118131722D01*
X78069049Y-117925571D01*
X77851193Y-117732504D01*
X77599858Y-117585648D01*
X77336890Y-117493524D01*
X77107000Y-117614845D01*
X76853000Y-117614845D01*
X76623110Y-117493524D01*
X76360142Y-117585648D01*
X76108807Y-117732504D01*
X75890951Y-117925571D01*
X75874714Y-117946961D01*
X75818405Y-117841614D01*
X75707962Y-117707038D01*
X75573386Y-117596595D01*
X75419850Y-117514528D01*
X75253254Y-117463992D01*
X75080000Y-117446928D01*
X73880000Y-117446928D01*
X73706746Y-117463992D01*
X73540150Y-117514528D01*
X73453261Y-117560972D01*
X72825000Y-116932711D01*
X72825000Y-108520655D01*
X72975120Y-108370535D01*
X73128005Y-108141727D01*
X73160000Y-108064485D01*
X73191995Y-108141727D01*
X73344880Y-108370535D01*
X73539465Y-108565120D01*
X73555001Y-108575501D01*
X73555000Y-111193057D01*
X73550150Y-111194528D01*
X73396614Y-111276595D01*
X73262038Y-111387038D01*
X73151595Y-111521614D01*
X73069528Y-111675150D01*
X73018992Y-111841746D01*
X73001928Y-112015000D01*
X73001928Y-113465000D01*
X73018992Y-113638254D01*
X73069528Y-113804850D01*
X73151595Y-113958386D01*
X73262038Y-114092962D01*
X73396614Y-114203405D01*
X73550150Y-114285472D01*
X73716746Y-114336008D01*
X73890000Y-114353072D01*
X75090000Y-114353072D01*
X75263254Y-114336008D01*
X75429850Y-114285472D01*
X75583386Y-114203405D01*
X75717962Y-114092962D01*
X75828405Y-113958386D01*
X75882777Y-113856663D01*
X75934866Y-113920134D01*
X76160987Y-114105706D01*
X76418967Y-114243599D01*
X76698890Y-114328513D01*
X76990000Y-114357185D01*
X77281111Y-114328513D01*
X77561034Y-114243599D01*
X77819014Y-114105706D01*
X78045134Y-113920134D01*
X78230706Y-113694014D01*
X78240000Y-113676626D01*
X78249294Y-113694014D01*
X78434866Y-113920134D01*
X78660987Y-114105706D01*
X78918967Y-114243599D01*
X79198890Y-114328513D01*
X79490000Y-114357185D01*
X79781111Y-114328513D01*
X80061034Y-114243599D01*
X80319014Y-114105706D01*
X80545134Y-113920134D01*
X80730706Y-113694014D01*
X80740000Y-113676626D01*
X80749294Y-113694014D01*
X80934866Y-113920134D01*
X81160987Y-114105706D01*
X81418967Y-114243599D01*
X81698890Y-114328513D01*
X81990000Y-114357185D01*
X82281111Y-114328513D01*
X82561034Y-114243599D01*
X82819014Y-114105706D01*
X83045134Y-113920134D01*
X83230706Y-113694014D01*
X83368599Y-113436033D01*
X83453513Y-113156110D01*
X83475000Y-112937949D01*
X83475000Y-112542050D01*
X83453513Y-112323889D01*
X83368599Y-112043966D01*
X83230706Y-111785986D01*
X83045134Y-111559866D01*
X82925000Y-111461275D01*
X82925000Y-108575500D01*
X82940535Y-108565120D01*
X83060090Y-108445565D01*
X83804040Y-108445565D01*
X83871020Y-108685656D01*
X84120048Y-108802756D01*
X84387135Y-108869023D01*
X84662017Y-108881910D01*
X84934133Y-108840922D01*
X85193023Y-108747636D01*
X85308980Y-108685656D01*
X85375960Y-108445565D01*
X84590000Y-107659605D01*
X83804040Y-108445565D01*
X83060090Y-108445565D01*
X83135120Y-108370535D01*
X83288005Y-108141727D01*
X83317692Y-108070057D01*
X83322364Y-108083023D01*
X83384344Y-108198980D01*
X83624435Y-108265960D01*
X84410395Y-107480000D01*
X84769605Y-107480000D01*
X85555565Y-108265960D01*
X85795656Y-108198980D01*
X85859485Y-108063240D01*
X85891995Y-108141727D01*
X86044880Y-108370535D01*
X86239465Y-108565120D01*
X86468273Y-108718005D01*
X86722510Y-108823314D01*
X86992408Y-108877000D01*
X87267592Y-108877000D01*
X87537490Y-108823314D01*
X87791727Y-108718005D01*
X88020535Y-108565120D01*
X88215120Y-108370535D01*
X88368005Y-108141727D01*
X88473314Y-107887490D01*
X88527000Y-107617592D01*
X88527000Y-107342408D01*
X88473314Y-107072510D01*
X88368005Y-106818273D01*
X88215120Y-106589465D01*
X88020535Y-106394880D01*
X87791727Y-106241995D01*
X87537490Y-106136686D01*
X87267592Y-106083000D01*
X86992408Y-106083000D01*
X86722510Y-106136686D01*
X86468273Y-106241995D01*
X86239465Y-106394880D01*
X86044880Y-106589465D01*
X85891995Y-106818273D01*
X85862308Y-106889943D01*
X85857636Y-106876977D01*
X85795656Y-106761020D01*
X85555565Y-106694040D01*
X84769605Y-107480000D01*
X84410395Y-107480000D01*
X83624435Y-106694040D01*
X83384344Y-106761020D01*
X83320515Y-106896760D01*
X83288005Y-106818273D01*
X83135120Y-106589465D01*
X83060090Y-106514435D01*
X83804040Y-106514435D01*
X84590000Y-107300395D01*
X85375960Y-106514435D01*
X85308980Y-106274344D01*
X85059952Y-106157244D01*
X84792865Y-106090977D01*
X84517983Y-106078090D01*
X84245867Y-106119078D01*
X83986977Y-106212364D01*
X83871020Y-106274344D01*
X83804040Y-106514435D01*
X83060090Y-106514435D01*
X82940535Y-106394880D01*
X82711727Y-106241995D01*
X82457490Y-106136686D01*
X82187592Y-106083000D01*
X81912408Y-106083000D01*
X81642510Y-106136686D01*
X81388273Y-106241995D01*
X81159465Y-106394880D01*
X80964880Y-106589465D01*
X80811995Y-106818273D01*
X80780000Y-106895515D01*
X80748005Y-106818273D01*
X80595120Y-106589465D01*
X80400535Y-106394880D01*
X80171727Y-106241995D01*
X79917490Y-106136686D01*
X79647592Y-106083000D01*
X79372408Y-106083000D01*
X79102510Y-106136686D01*
X78848273Y-106241995D01*
X78619465Y-106394880D01*
X78424880Y-106589465D01*
X78271995Y-106818273D01*
X78240000Y-106895515D01*
X78208005Y-106818273D01*
X78055120Y-106589465D01*
X77860535Y-106394880D01*
X77631727Y-106241995D01*
X77377490Y-106136686D01*
X77107592Y-106083000D01*
X76832408Y-106083000D01*
X76562510Y-106136686D01*
X76308273Y-106241995D01*
X76079465Y-106394880D01*
X75884880Y-106589465D01*
X75731995Y-106818273D01*
X75700000Y-106895515D01*
X75668005Y-106818273D01*
X75515120Y-106589465D01*
X75320535Y-106394880D01*
X75091727Y-106241995D01*
X74837490Y-106136686D01*
X74567592Y-106083000D01*
X74292408Y-106083000D01*
X74022510Y-106136686D01*
X73768273Y-106241995D01*
X73539465Y-106394880D01*
X73344880Y-106589465D01*
X73191995Y-106818273D01*
X73160000Y-106895515D01*
X73128005Y-106818273D01*
X72975120Y-106589465D01*
X72780535Y-106394880D01*
X72551727Y-106241995D01*
X72297490Y-106136686D01*
X72027592Y-106083000D01*
X71752408Y-106083000D01*
X71482510Y-106136686D01*
X71228273Y-106241995D01*
X70999465Y-106394880D01*
X70804880Y-106589465D01*
X70651995Y-106818273D01*
X70622308Y-106889943D01*
X70617636Y-106876977D01*
X70555656Y-106761020D01*
X70315565Y-106694040D01*
X69529605Y-107480000D01*
X70315565Y-108265960D01*
X70555656Y-108198980D01*
X70619485Y-108063240D01*
X70651995Y-108141727D01*
X70804880Y-108370535D01*
X70955000Y-108520655D01*
X70955001Y-117274058D01*
X70950476Y-117320000D01*
X70968529Y-117503291D01*
X71006402Y-117628141D01*
X71021994Y-117679540D01*
X71108815Y-117841972D01*
X71225657Y-117984344D01*
X71261336Y-118013625D01*
X72936370Y-119688659D01*
X72965656Y-119724344D01*
X72991928Y-119745905D01*
X72991928Y-119785000D01*
X73008992Y-119958254D01*
X73059528Y-120124850D01*
X73112373Y-120223716D01*
X72969744Y-120282795D01*
X72800226Y-120396063D01*
X72781289Y-120415000D01*
X60558711Y-120415000D01*
X60529774Y-120386063D01*
X60360256Y-120272795D01*
X60171898Y-120194774D01*
X59971939Y-120155000D01*
X59768061Y-120155000D01*
X59568102Y-120194774D01*
X59379744Y-120272795D01*
X59210226Y-120386063D01*
X59066063Y-120530226D01*
X58952795Y-120699744D01*
X58874774Y-120888102D01*
X58835000Y-121088061D01*
X58835000Y-121291939D01*
X58874774Y-121491898D01*
X58952795Y-121680256D01*
X59007534Y-121762178D01*
X52354713Y-128415000D01*
X49317683Y-128415000D01*
X49240706Y-128270986D01*
X49055134Y-128044866D01*
X48829013Y-127859294D01*
X48571033Y-127721401D01*
X48291110Y-127636487D01*
X48000000Y-127607815D01*
X47708889Y-127636487D01*
X47428966Y-127721401D01*
X47170986Y-127859294D01*
X46944866Y-128044866D01*
X46759294Y-128270987D01*
X46748815Y-128290592D01*
X46677814Y-128178741D01*
X46475454Y-127966663D01*
X46235608Y-127798138D01*
X45967493Y-127679643D01*
X45856890Y-127658524D01*
X45627000Y-127779845D01*
X45373000Y-127779845D01*
X45143110Y-127658524D01*
X45032507Y-127679643D01*
X44764392Y-127798138D01*
X44524546Y-127966663D01*
X44393771Y-128103718D01*
X44393697Y-128103540D01*
X44370594Y-128060318D01*
X44301107Y-127956323D01*
X44270017Y-127918439D01*
X44181561Y-127829983D01*
X44143677Y-127798893D01*
X44039682Y-127729406D01*
X43996460Y-127706303D01*
X43880889Y-127658432D01*
X43833991Y-127644206D01*
X43711319Y-127619805D01*
X43662546Y-127615001D01*
X43600000Y-127611928D01*
X42400000Y-127611928D01*
X42337454Y-127615001D01*
X42288681Y-127619805D01*
X42166009Y-127644206D01*
X42119111Y-127658432D01*
X42003540Y-127706303D01*
X41960318Y-127729406D01*
X41856323Y-127798893D01*
X41818439Y-127829983D01*
X41729983Y-127918439D01*
X41698893Y-127956323D01*
X41629406Y-128060318D01*
X41606303Y-128103540D01*
X41558432Y-128219111D01*
X41544206Y-128266009D01*
X41519805Y-128388681D01*
X41515001Y-128437454D01*
X41511928Y-128500000D01*
X41511928Y-130200000D01*
X41515001Y-130262546D01*
X41519805Y-130311319D01*
X41544206Y-130433991D01*
X41558432Y-130480889D01*
X41606303Y-130596460D01*
X41629406Y-130639682D01*
X41698893Y-130743677D01*
X41729983Y-130781561D01*
X41818439Y-130870017D01*
X41856323Y-130901107D01*
X41960318Y-130970594D01*
X42003540Y-130993697D01*
X42065000Y-131019155D01*
X42065000Y-131324067D01*
X42060476Y-131370000D01*
X42070958Y-131476420D01*
X42078529Y-131553291D01*
X42131993Y-131729539D01*
X42218814Y-131891971D01*
X42335656Y-132034344D01*
X42371341Y-132063630D01*
X44647711Y-134340000D01*
X35888074Y-134340000D01*
X36120670Y-134217555D01*
X36161088Y-134190548D01*
X36521276Y-133700881D01*
X34000000Y-131179605D01*
X31478724Y-133700881D01*
X31838912Y-134190548D01*
X32114325Y-134340000D01*
X30660000Y-134340000D01*
X30660000Y-132888074D01*
X30782445Y-133120670D01*
X30809452Y-133161088D01*
X31299119Y-133521276D01*
X33820395Y-131000000D01*
X34179605Y-131000000D01*
X36700881Y-133521276D01*
X37190548Y-133161088D01*
X37550849Y-132497118D01*
X37774694Y-131775615D01*
X37853480Y-131024305D01*
X37784178Y-130272062D01*
X37569452Y-129547792D01*
X37217555Y-128879330D01*
X37190548Y-128838912D01*
X36700881Y-128478724D01*
X34179605Y-131000000D01*
X33820395Y-131000000D01*
X31299119Y-128478724D01*
X30809452Y-128838912D01*
X30660000Y-129114325D01*
X30660000Y-128299119D01*
X31478724Y-128299119D01*
X34000000Y-130820395D01*
X36521276Y-128299119D01*
X36161088Y-127809452D01*
X35497118Y-127449151D01*
X34775615Y-127225306D01*
X34024305Y-127146520D01*
X33272062Y-127215822D01*
X32547792Y-127430548D01*
X31879330Y-127782445D01*
X31838912Y-127809452D01*
X31478724Y-128299119D01*
X30660000Y-128299119D01*
X30660000Y-114634289D01*
X30715656Y-114702106D01*
X30751341Y-114731392D01*
X37528608Y-121508659D01*
X37557894Y-121544344D01*
X37700266Y-121661186D01*
X37862698Y-121748007D01*
X37928943Y-121768102D01*
X38038946Y-121801472D01*
X38222238Y-121819524D01*
X38268173Y-121815000D01*
X43722705Y-121815000D01*
X43868102Y-121875226D01*
X44068061Y-121915000D01*
X44271939Y-121915000D01*
X44471898Y-121875226D01*
X44660256Y-121797205D01*
X44829774Y-121683937D01*
X44973937Y-121539774D01*
X45087205Y-121370256D01*
X45165226Y-121181898D01*
X45205000Y-120981939D01*
X45205000Y-120778061D01*
X45165226Y-120578102D01*
X45087205Y-120389744D01*
X44973937Y-120220226D01*
X44829774Y-120076063D01*
X44660256Y-119962795D01*
X44471898Y-119884774D01*
X44271939Y-119845000D01*
X44068061Y-119845000D01*
X43868102Y-119884774D01*
X43722705Y-119945000D01*
X38609527Y-119945000D01*
X34942588Y-116278061D01*
X55295000Y-116278061D01*
X55295000Y-116481939D01*
X55334774Y-116681898D01*
X55412795Y-116870256D01*
X55526063Y-117039774D01*
X55545000Y-117058711D01*
X55545001Y-119631816D01*
X55432795Y-119799744D01*
X55354774Y-119988102D01*
X55315000Y-120188061D01*
X55315000Y-120391939D01*
X55354774Y-120591898D01*
X55432795Y-120780256D01*
X55546063Y-120949774D01*
X55690226Y-121093937D01*
X55859744Y-121207205D01*
X56048102Y-121285226D01*
X56248061Y-121325000D01*
X56451939Y-121325000D01*
X56651898Y-121285226D01*
X56840256Y-121207205D01*
X57009774Y-121093937D01*
X57153937Y-120949774D01*
X57267205Y-120780256D01*
X57345226Y-120591898D01*
X57385000Y-120391939D01*
X57385000Y-120188061D01*
X57345226Y-119988102D01*
X57267205Y-119799744D01*
X57153937Y-119630226D01*
X57115000Y-119591289D01*
X57115000Y-117828061D01*
X65435000Y-117828061D01*
X65435000Y-118031939D01*
X65474774Y-118231898D01*
X65552795Y-118420256D01*
X65666063Y-118589774D01*
X65810226Y-118733937D01*
X65979744Y-118847205D01*
X66168102Y-118925226D01*
X66368061Y-118965000D01*
X66571939Y-118965000D01*
X66771898Y-118925226D01*
X66960256Y-118847205D01*
X67129774Y-118733937D01*
X67273937Y-118589774D01*
X67387205Y-118420256D01*
X67465226Y-118231898D01*
X67505000Y-118031939D01*
X67505000Y-118005157D01*
X68107813Y-117402344D01*
X68137762Y-117377766D01*
X68235860Y-117258235D01*
X68308752Y-117121862D01*
X68353639Y-116973889D01*
X68364998Y-116858563D01*
X68364998Y-116858556D01*
X68368795Y-116820003D01*
X68364998Y-116781450D01*
X68364998Y-116268711D01*
X68383935Y-116249774D01*
X68497203Y-116080256D01*
X68575224Y-115891898D01*
X68614998Y-115691939D01*
X68614998Y-115488061D01*
X68575224Y-115288102D01*
X68497203Y-115099744D01*
X68383935Y-114930226D01*
X68239772Y-114786063D01*
X68070254Y-114672795D01*
X67881896Y-114594774D01*
X67681937Y-114555000D01*
X67478059Y-114555000D01*
X67278100Y-114594774D01*
X67089742Y-114672795D01*
X66920224Y-114786063D01*
X66776061Y-114930226D01*
X66662793Y-115099744D01*
X66584772Y-115288102D01*
X66544998Y-115488061D01*
X66544998Y-115691939D01*
X66584772Y-115891898D01*
X66662793Y-116080256D01*
X66776061Y-116249774D01*
X66794999Y-116268712D01*
X66794999Y-116494843D01*
X66394843Y-116895000D01*
X66368061Y-116895000D01*
X66168102Y-116934774D01*
X65979744Y-117012795D01*
X65810226Y-117126063D01*
X65666063Y-117270226D01*
X65552795Y-117439744D01*
X65474774Y-117628102D01*
X65435000Y-117828061D01*
X57115000Y-117828061D01*
X57115000Y-117058711D01*
X57133937Y-117039774D01*
X57247205Y-116870256D01*
X57325226Y-116681898D01*
X57365000Y-116481939D01*
X57365000Y-116278061D01*
X57325226Y-116078102D01*
X57247205Y-115889744D01*
X57133937Y-115720226D01*
X56989774Y-115576063D01*
X56820256Y-115462795D01*
X56631898Y-115384774D01*
X56431939Y-115345000D01*
X56228061Y-115345000D01*
X56028102Y-115384774D01*
X55839744Y-115462795D01*
X55670226Y-115576063D01*
X55526063Y-115720226D01*
X55412795Y-115889744D01*
X55334774Y-116078102D01*
X55295000Y-116278061D01*
X34942588Y-116278061D01*
X34030663Y-115366136D01*
X34068980Y-115345656D01*
X34135960Y-115105565D01*
X33350000Y-114319605D01*
X33335858Y-114333748D01*
X33156253Y-114154143D01*
X33170395Y-114140000D01*
X32384435Y-113354040D01*
X32315000Y-113373411D01*
X32315000Y-112540655D01*
X32459465Y-112685120D01*
X32688273Y-112838005D01*
X32759943Y-112867692D01*
X32746977Y-112872364D01*
X32631020Y-112934344D01*
X32564040Y-113174435D01*
X33350000Y-113960395D01*
X34135960Y-113174435D01*
X34068980Y-112934344D01*
X33933240Y-112870515D01*
X34011727Y-112838005D01*
X34240535Y-112685120D01*
X34435120Y-112490535D01*
X34588005Y-112261727D01*
X34620000Y-112184485D01*
X34651995Y-112261727D01*
X34804880Y-112490535D01*
X34999465Y-112685120D01*
X35228273Y-112838005D01*
X35305515Y-112870000D01*
X35228273Y-112901995D01*
X34999465Y-113054880D01*
X34804880Y-113249465D01*
X34651995Y-113478273D01*
X34622308Y-113549943D01*
X34617636Y-113536977D01*
X34555656Y-113421020D01*
X34315565Y-113354040D01*
X33529605Y-114140000D01*
X34315565Y-114925960D01*
X34555656Y-114858980D01*
X34619485Y-114723240D01*
X34651995Y-114801727D01*
X34804880Y-115030535D01*
X34999465Y-115225120D01*
X35228273Y-115378005D01*
X35482510Y-115483314D01*
X35752408Y-115537000D01*
X36027592Y-115537000D01*
X36297490Y-115483314D01*
X36551727Y-115378005D01*
X36780535Y-115225120D01*
X36975120Y-115030535D01*
X37128005Y-114801727D01*
X37233314Y-114547490D01*
X37287000Y-114277592D01*
X37287000Y-114002408D01*
X37233314Y-113732510D01*
X37128005Y-113478273D01*
X36975120Y-113249465D01*
X36780535Y-113054880D01*
X36551727Y-112901995D01*
X36474485Y-112870000D01*
X36551727Y-112838005D01*
X36780535Y-112685120D01*
X36975120Y-112490535D01*
X37128005Y-112261727D01*
X37233314Y-112007490D01*
X37287000Y-111737592D01*
X37287000Y-111462408D01*
X37233314Y-111192510D01*
X37128005Y-110938273D01*
X36975120Y-110709465D01*
X36780535Y-110514880D01*
X36551727Y-110361995D01*
X36474485Y-110330000D01*
X36551727Y-110298005D01*
X36780535Y-110145120D01*
X36975120Y-109950535D01*
X37045636Y-109845000D01*
X56464843Y-109845000D01*
X60405000Y-113785158D01*
X60405000Y-113811939D01*
X60444774Y-114011898D01*
X60522795Y-114200256D01*
X60636063Y-114369774D01*
X60780226Y-114513937D01*
X60949744Y-114627205D01*
X61138102Y-114705226D01*
X61338061Y-114745000D01*
X61541939Y-114745000D01*
X61741898Y-114705226D01*
X61930256Y-114627205D01*
X62099774Y-114513937D01*
X62243937Y-114369774D01*
X62357205Y-114200256D01*
X62435226Y-114011898D01*
X62475000Y-113811939D01*
X62475000Y-113608061D01*
X62435226Y-113408102D01*
X62357205Y-113219744D01*
X62243937Y-113050226D01*
X62099774Y-112906063D01*
X61930256Y-112792795D01*
X61741898Y-112714774D01*
X61541939Y-112675000D01*
X61515158Y-112675000D01*
X57372347Y-108532190D01*
X57347764Y-108502236D01*
X57228233Y-108404138D01*
X57091860Y-108331246D01*
X56943887Y-108286359D01*
X56828561Y-108275000D01*
X56828553Y-108275000D01*
X56790000Y-108271203D01*
X56751447Y-108275000D01*
X37045636Y-108275000D01*
X36975120Y-108169465D01*
X36780535Y-107974880D01*
X36551727Y-107821995D01*
X36474485Y-107790000D01*
X36551727Y-107758005D01*
X36780535Y-107605120D01*
X36975120Y-107410535D01*
X37128005Y-107181727D01*
X37233314Y-106927490D01*
X37287000Y-106657592D01*
X37287000Y-106382408D01*
X37233314Y-106112510D01*
X37128005Y-105858273D01*
X36975120Y-105629465D01*
X36780535Y-105434880D01*
X36551727Y-105281995D01*
X36474485Y-105250000D01*
X36551727Y-105218005D01*
X36780535Y-105065120D01*
X36975120Y-104870535D01*
X37128005Y-104641727D01*
X37233314Y-104387490D01*
X37287000Y-104117592D01*
X37287000Y-103842408D01*
X37233314Y-103572510D01*
X37128005Y-103318273D01*
X36975120Y-103089465D01*
X36780535Y-102894880D01*
X36551727Y-102741995D01*
X36297490Y-102636686D01*
X36027592Y-102583000D01*
X35752408Y-102583000D01*
X35482510Y-102636686D01*
X35228273Y-102741995D01*
X34999465Y-102894880D01*
X34804880Y-103089465D01*
X34651995Y-103318273D01*
X34620000Y-103395515D01*
X34588005Y-103318273D01*
X34435120Y-103089465D01*
X34240535Y-102894880D01*
X34011727Y-102741995D01*
X33757490Y-102636686D01*
X33487592Y-102583000D01*
X33212408Y-102583000D01*
X32942510Y-102636686D01*
X32688273Y-102741995D01*
X32459465Y-102894880D01*
X32264880Y-103089465D01*
X32111995Y-103318273D01*
X32006686Y-103572510D01*
X31953000Y-103842408D01*
X31953000Y-104054711D01*
X30751336Y-105256375D01*
X30715657Y-105285656D01*
X30660000Y-105353474D01*
X30660000Y-102268061D01*
X44705000Y-102268061D01*
X44705000Y-102471939D01*
X44744774Y-102671898D01*
X44822795Y-102860256D01*
X44936063Y-103029774D01*
X45080226Y-103173937D01*
X45249744Y-103287205D01*
X45438102Y-103365226D01*
X45638061Y-103405000D01*
X45841939Y-103405000D01*
X46041898Y-103365226D01*
X46230256Y-103287205D01*
X46399774Y-103173937D01*
X46543937Y-103029774D01*
X46657205Y-102860256D01*
X46735226Y-102671898D01*
X46775000Y-102471939D01*
X46775000Y-102268061D01*
X46735226Y-102068102D01*
X46657205Y-101879744D01*
X46625000Y-101831546D01*
X46625000Y-99996578D01*
X46893976Y-99727602D01*
X46864774Y-99798102D01*
X46825000Y-99998061D01*
X46825000Y-100201939D01*
X46864774Y-100401898D01*
X46942795Y-100590256D01*
X47056063Y-100759774D01*
X47075000Y-100778711D01*
X47075001Y-103101437D01*
X47071203Y-103140000D01*
X47086359Y-103293886D01*
X47131246Y-103441859D01*
X47131247Y-103441860D01*
X47204139Y-103578233D01*
X47238794Y-103620460D01*
X47277655Y-103667812D01*
X47277659Y-103667816D01*
X47302237Y-103697764D01*
X47332185Y-103722342D01*
X50297658Y-106687816D01*
X50322236Y-106717764D01*
X50352184Y-106742342D01*
X50352187Y-106742345D01*
X50372255Y-106758814D01*
X50441767Y-106815862D01*
X50553635Y-106875656D01*
X50578140Y-106888754D01*
X50726113Y-106933642D01*
X50801026Y-106941020D01*
X50841439Y-106945000D01*
X50841444Y-106945000D01*
X50880000Y-106948797D01*
X50918555Y-106945000D01*
X59884843Y-106945000D01*
X64775000Y-111835157D01*
X64775001Y-112391288D01*
X64756063Y-112410226D01*
X64642795Y-112579744D01*
X64564774Y-112768102D01*
X64525000Y-112968061D01*
X64525000Y-113171939D01*
X64564774Y-113371898D01*
X64642795Y-113560256D01*
X64756063Y-113729774D01*
X64900226Y-113873937D01*
X65069744Y-113987205D01*
X65258102Y-114065226D01*
X65458061Y-114105000D01*
X65661939Y-114105000D01*
X65861898Y-114065226D01*
X66050256Y-113987205D01*
X66219774Y-113873937D01*
X66363937Y-113729774D01*
X66477205Y-113560256D01*
X66555226Y-113371898D01*
X66595000Y-113171939D01*
X66595000Y-112968061D01*
X66555226Y-112768102D01*
X66477205Y-112579744D01*
X66363937Y-112410226D01*
X66345000Y-112391289D01*
X66345000Y-111548556D01*
X66348797Y-111510000D01*
X66345000Y-111471440D01*
X66345000Y-111471439D01*
X66341020Y-111431026D01*
X66333642Y-111356113D01*
X66288754Y-111208140D01*
X66280400Y-111192510D01*
X66215862Y-111071767D01*
X66117764Y-110952236D01*
X66087811Y-110927654D01*
X63605722Y-108445565D01*
X68564040Y-108445565D01*
X68631020Y-108685656D01*
X68880048Y-108802756D01*
X69147135Y-108869023D01*
X69422017Y-108881910D01*
X69694133Y-108840922D01*
X69953023Y-108747636D01*
X70068980Y-108685656D01*
X70135960Y-108445565D01*
X69350000Y-107659605D01*
X68564040Y-108445565D01*
X63605722Y-108445565D01*
X62712174Y-107552017D01*
X67948090Y-107552017D01*
X67989078Y-107824133D01*
X68082364Y-108083023D01*
X68144344Y-108198980D01*
X68384435Y-108265960D01*
X69170395Y-107480000D01*
X68384435Y-106694040D01*
X68144344Y-106761020D01*
X68027244Y-107010048D01*
X67960977Y-107277135D01*
X67948090Y-107552017D01*
X62712174Y-107552017D01*
X61674592Y-106514435D01*
X68564040Y-106514435D01*
X69350000Y-107300395D01*
X70135960Y-106514435D01*
X70068980Y-106274344D01*
X69819952Y-106157244D01*
X69552865Y-106090977D01*
X69277983Y-106078090D01*
X69005867Y-106119078D01*
X68746977Y-106212364D01*
X68631020Y-106274344D01*
X68564040Y-106514435D01*
X61674592Y-106514435D01*
X60792347Y-105632190D01*
X60767764Y-105602236D01*
X60648233Y-105504138D01*
X60511860Y-105431246D01*
X60363887Y-105386359D01*
X60248561Y-105375000D01*
X60248553Y-105375000D01*
X60210000Y-105371203D01*
X60171447Y-105375000D01*
X51205158Y-105375000D01*
X48645000Y-102814843D01*
X48645000Y-100778711D01*
X48663937Y-100759774D01*
X48777205Y-100590256D01*
X48855226Y-100401898D01*
X48895000Y-100201939D01*
X48895000Y-99998061D01*
X48855226Y-99798102D01*
X48777205Y-99609744D01*
X48663937Y-99440226D01*
X48519774Y-99296063D01*
X48350256Y-99182795D01*
X48161898Y-99104774D01*
X47961939Y-99065000D01*
X47758061Y-99065000D01*
X47558102Y-99104774D01*
X47487602Y-99133976D01*
X48050044Y-98571535D01*
X48106898Y-98560226D01*
X48295256Y-98482205D01*
X48464774Y-98368937D01*
X48608937Y-98224774D01*
X48722205Y-98055256D01*
X48800226Y-97866898D01*
X48811535Y-97810043D01*
X50518484Y-96103095D01*
X50528061Y-96105000D01*
X50731939Y-96105000D01*
X50931898Y-96065226D01*
X51120256Y-95987205D01*
X51289774Y-95873937D01*
X51433937Y-95729774D01*
X51547205Y-95560256D01*
X51625226Y-95371898D01*
X51665000Y-95171939D01*
X51665000Y-94968061D01*
X51625226Y-94768102D01*
X51573162Y-94642408D01*
X67953000Y-94642408D01*
X67953000Y-94917592D01*
X68006686Y-95187490D01*
X68111995Y-95441727D01*
X68264880Y-95670535D01*
X68459465Y-95865120D01*
X68688273Y-96018005D01*
X68942510Y-96123314D01*
X69212408Y-96177000D01*
X69487592Y-96177000D01*
X69757490Y-96123314D01*
X70011727Y-96018005D01*
X70240535Y-95865120D01*
X70435120Y-95670535D01*
X70588005Y-95441727D01*
X70620000Y-95364485D01*
X70651995Y-95441727D01*
X70804880Y-95670535D01*
X70999465Y-95865120D01*
X71228273Y-96018005D01*
X71482510Y-96123314D01*
X71752408Y-96177000D01*
X72027592Y-96177000D01*
X72297490Y-96123314D01*
X72551727Y-96018005D01*
X72780535Y-95865120D01*
X72975120Y-95670535D01*
X73128005Y-95441727D01*
X73160000Y-95364485D01*
X73191995Y-95441727D01*
X73344880Y-95670535D01*
X73539465Y-95865120D01*
X73768273Y-96018005D01*
X74022510Y-96123314D01*
X74292408Y-96177000D01*
X74567592Y-96177000D01*
X74837490Y-96123314D01*
X75091727Y-96018005D01*
X75320535Y-95865120D01*
X75515120Y-95670535D01*
X75668005Y-95441727D01*
X75700000Y-95364485D01*
X75731995Y-95441727D01*
X75884880Y-95670535D01*
X76079465Y-95865120D01*
X76308273Y-96018005D01*
X76562510Y-96123314D01*
X76832408Y-96177000D01*
X77107592Y-96177000D01*
X77377490Y-96123314D01*
X77631727Y-96018005D01*
X77860535Y-95865120D01*
X78055120Y-95670535D01*
X78208005Y-95441727D01*
X78240000Y-95364485D01*
X78271995Y-95441727D01*
X78424880Y-95670535D01*
X78619465Y-95865120D01*
X78848273Y-96018005D01*
X79102510Y-96123314D01*
X79372408Y-96177000D01*
X79647592Y-96177000D01*
X79917490Y-96123314D01*
X80171727Y-96018005D01*
X80400535Y-95865120D01*
X80595120Y-95670535D01*
X80748005Y-95441727D01*
X80780000Y-95364485D01*
X80811995Y-95441727D01*
X80964880Y-95670535D01*
X81159465Y-95865120D01*
X81388273Y-96018005D01*
X81642510Y-96123314D01*
X81912408Y-96177000D01*
X82187592Y-96177000D01*
X82457490Y-96123314D01*
X82711727Y-96018005D01*
X82940535Y-95865120D01*
X83135120Y-95670535D01*
X83288005Y-95441727D01*
X83320000Y-95364485D01*
X83351995Y-95441727D01*
X83504880Y-95670535D01*
X83699465Y-95865120D01*
X83928273Y-96018005D01*
X84182510Y-96123314D01*
X84452408Y-96177000D01*
X84727592Y-96177000D01*
X84997490Y-96123314D01*
X85251727Y-96018005D01*
X85480535Y-95865120D01*
X85600090Y-95745565D01*
X86344040Y-95745565D01*
X86411020Y-95985656D01*
X86660048Y-96102756D01*
X86927135Y-96169023D01*
X87202017Y-96181910D01*
X87474133Y-96140922D01*
X87733023Y-96047636D01*
X87848980Y-95985656D01*
X87915960Y-95745565D01*
X87130000Y-94959605D01*
X86344040Y-95745565D01*
X85600090Y-95745565D01*
X85675120Y-95670535D01*
X85828005Y-95441727D01*
X85857692Y-95370057D01*
X85862364Y-95383023D01*
X85924344Y-95498980D01*
X86164435Y-95565960D01*
X86950395Y-94780000D01*
X87309605Y-94780000D01*
X88095565Y-95565960D01*
X88335656Y-95498980D01*
X88452756Y-95249952D01*
X88519023Y-94982865D01*
X88531910Y-94707983D01*
X88490922Y-94435867D01*
X88397636Y-94176977D01*
X88335656Y-94061020D01*
X88095565Y-93994040D01*
X87309605Y-94780000D01*
X86950395Y-94780000D01*
X86164435Y-93994040D01*
X85924344Y-94061020D01*
X85860515Y-94196760D01*
X85828005Y-94118273D01*
X85675120Y-93889465D01*
X85600090Y-93814435D01*
X86344040Y-93814435D01*
X87130000Y-94600395D01*
X87915960Y-93814435D01*
X87848980Y-93574344D01*
X87599952Y-93457244D01*
X87332865Y-93390977D01*
X87057983Y-93378090D01*
X86785867Y-93419078D01*
X86526977Y-93512364D01*
X86411020Y-93574344D01*
X86344040Y-93814435D01*
X85600090Y-93814435D01*
X85480535Y-93694880D01*
X85251727Y-93541995D01*
X84997490Y-93436686D01*
X84727592Y-93383000D01*
X84452408Y-93383000D01*
X84182510Y-93436686D01*
X83928273Y-93541995D01*
X83699465Y-93694880D01*
X83504880Y-93889465D01*
X83351995Y-94118273D01*
X83320000Y-94195515D01*
X83288005Y-94118273D01*
X83135120Y-93889465D01*
X82940535Y-93694880D01*
X82711727Y-93541995D01*
X82457490Y-93436686D01*
X82187592Y-93383000D01*
X81912408Y-93383000D01*
X81642510Y-93436686D01*
X81388273Y-93541995D01*
X81159465Y-93694880D01*
X80964880Y-93889465D01*
X80811995Y-94118273D01*
X80780000Y-94195515D01*
X80748005Y-94118273D01*
X80595120Y-93889465D01*
X80400535Y-93694880D01*
X80171727Y-93541995D01*
X79917490Y-93436686D01*
X79647592Y-93383000D01*
X79372408Y-93383000D01*
X79102510Y-93436686D01*
X78848273Y-93541995D01*
X78619465Y-93694880D01*
X78424880Y-93889465D01*
X78271995Y-94118273D01*
X78240000Y-94195515D01*
X78208005Y-94118273D01*
X78055120Y-93889465D01*
X77860535Y-93694880D01*
X77631727Y-93541995D01*
X77377490Y-93436686D01*
X77107592Y-93383000D01*
X76832408Y-93383000D01*
X76562510Y-93436686D01*
X76308273Y-93541995D01*
X76079465Y-93694880D01*
X75884880Y-93889465D01*
X75731995Y-94118273D01*
X75700000Y-94195515D01*
X75668005Y-94118273D01*
X75515120Y-93889465D01*
X75320535Y-93694880D01*
X75091727Y-93541995D01*
X74837490Y-93436686D01*
X74567592Y-93383000D01*
X74292408Y-93383000D01*
X74022510Y-93436686D01*
X73768273Y-93541995D01*
X73539465Y-93694880D01*
X73344880Y-93889465D01*
X73191995Y-94118273D01*
X73160000Y-94195515D01*
X73128005Y-94118273D01*
X72975120Y-93889465D01*
X72780535Y-93694880D01*
X72551727Y-93541995D01*
X72297490Y-93436686D01*
X72027592Y-93383000D01*
X71752408Y-93383000D01*
X71482510Y-93436686D01*
X71228273Y-93541995D01*
X70999465Y-93694880D01*
X70804880Y-93889465D01*
X70651995Y-94118273D01*
X70620000Y-94195515D01*
X70588005Y-94118273D01*
X70435120Y-93889465D01*
X70240535Y-93694880D01*
X70011727Y-93541995D01*
X69757490Y-93436686D01*
X69487592Y-93383000D01*
X69212408Y-93383000D01*
X68942510Y-93436686D01*
X68688273Y-93541995D01*
X68459465Y-93694880D01*
X68264880Y-93889465D01*
X68111995Y-94118273D01*
X68006686Y-94372510D01*
X67953000Y-94642408D01*
X51573162Y-94642408D01*
X51547205Y-94579744D01*
X51433937Y-94410226D01*
X51289774Y-94266063D01*
X51120256Y-94152795D01*
X50931898Y-94074774D01*
X50731939Y-94035000D01*
X50528061Y-94035000D01*
X50328102Y-94074774D01*
X50139744Y-94152795D01*
X50027374Y-94227878D01*
X49959687Y-94248411D01*
X49844371Y-94310048D01*
X49805941Y-94330589D01*
X49704953Y-94413468D01*
X49704951Y-94413470D01*
X49671183Y-94441183D01*
X49643470Y-94474951D01*
X47559957Y-96558465D01*
X47503102Y-96569774D01*
X47314744Y-96647795D01*
X47145226Y-96761063D01*
X47001063Y-96905226D01*
X46887795Y-97074744D01*
X46809774Y-97263102D01*
X46798465Y-97319956D01*
X45144951Y-98973471D01*
X45111184Y-99001183D01*
X45083471Y-99034951D01*
X45083468Y-99034954D01*
X45000590Y-99135941D01*
X44918412Y-99289687D01*
X44867805Y-99456510D01*
X44850719Y-99630000D01*
X44855001Y-99673479D01*
X44855000Y-101831545D01*
X44822795Y-101879744D01*
X44744774Y-102068102D01*
X44705000Y-102268061D01*
X30660000Y-102268061D01*
X30660000Y-91700881D01*
X31478724Y-91700881D01*
X31838912Y-92190548D01*
X32502882Y-92550849D01*
X33224385Y-92774694D01*
X33975695Y-92853480D01*
X34727938Y-92784178D01*
X35452208Y-92569452D01*
X36120670Y-92217555D01*
X36161088Y-92190548D01*
X36521276Y-91700881D01*
X34000000Y-89179605D01*
X31478724Y-91700881D01*
X30660000Y-91700881D01*
X30660000Y-90888074D01*
X30782445Y-91120670D01*
X30809452Y-91161088D01*
X31299119Y-91521276D01*
X33820395Y-89000000D01*
X34179605Y-89000000D01*
X36700881Y-91521276D01*
X37190548Y-91161088D01*
X37550849Y-90497118D01*
X37603612Y-90327050D01*
X40585000Y-90327050D01*
X40585000Y-90972949D01*
X40606487Y-91191110D01*
X40691401Y-91471033D01*
X40829294Y-91729013D01*
X41014866Y-91955134D01*
X41240986Y-92140706D01*
X41498966Y-92278599D01*
X41778889Y-92363513D01*
X42070000Y-92392185D01*
X42361110Y-92363513D01*
X42641033Y-92278599D01*
X42899013Y-92140706D01*
X43125134Y-91955134D01*
X43175291Y-91894017D01*
X43176303Y-91896460D01*
X43199406Y-91939682D01*
X43268893Y-92043677D01*
X43299983Y-92081561D01*
X43388439Y-92170017D01*
X43426323Y-92201107D01*
X43530318Y-92270594D01*
X43573540Y-92293697D01*
X43689111Y-92341568D01*
X43736009Y-92355794D01*
X43858681Y-92380195D01*
X43907454Y-92384999D01*
X43970000Y-92388072D01*
X45170000Y-92388072D01*
X45232546Y-92384999D01*
X45281319Y-92380195D01*
X45403991Y-92355794D01*
X45450889Y-92341568D01*
X45566460Y-92293697D01*
X45609682Y-92270594D01*
X45713677Y-92201107D01*
X45751561Y-92170017D01*
X45840017Y-92081561D01*
X45871107Y-92043677D01*
X45940594Y-91939682D01*
X45963697Y-91896460D01*
X46011568Y-91780889D01*
X46025794Y-91733991D01*
X46050195Y-91611319D01*
X46054999Y-91562546D01*
X46058072Y-91500000D01*
X46058072Y-90317050D01*
X48395000Y-90317050D01*
X48395000Y-90962949D01*
X48416487Y-91181110D01*
X48501401Y-91461033D01*
X48639294Y-91719013D01*
X48824866Y-91945134D01*
X49050986Y-92130706D01*
X49308966Y-92268599D01*
X49588889Y-92353513D01*
X49880000Y-92382185D01*
X50171110Y-92353513D01*
X50451033Y-92268599D01*
X50709013Y-92130706D01*
X50935134Y-91945134D01*
X50985291Y-91884017D01*
X50986303Y-91886460D01*
X51009406Y-91929682D01*
X51078893Y-92033677D01*
X51109983Y-92071561D01*
X51198439Y-92160017D01*
X51236323Y-92191107D01*
X51340318Y-92260594D01*
X51383540Y-92283697D01*
X51499111Y-92331568D01*
X51546009Y-92345794D01*
X51668681Y-92370195D01*
X51717454Y-92374999D01*
X51780000Y-92378072D01*
X52980000Y-92378072D01*
X53042546Y-92374999D01*
X53091319Y-92370195D01*
X53213991Y-92345794D01*
X53260889Y-92331568D01*
X53376460Y-92283697D01*
X53419682Y-92260594D01*
X53523677Y-92191107D01*
X53561561Y-92160017D01*
X53650017Y-92071561D01*
X53681107Y-92033677D01*
X53750594Y-91929682D01*
X53773697Y-91886460D01*
X53821568Y-91770889D01*
X53835794Y-91723991D01*
X53840390Y-91700881D01*
X83478724Y-91700881D01*
X83838912Y-92190548D01*
X84502882Y-92550849D01*
X85224385Y-92774694D01*
X85975695Y-92853480D01*
X86727938Y-92784178D01*
X87452208Y-92569452D01*
X88120670Y-92217555D01*
X88161088Y-92190548D01*
X88521276Y-91700881D01*
X86000000Y-89179605D01*
X83478724Y-91700881D01*
X53840390Y-91700881D01*
X53860195Y-91601319D01*
X53864999Y-91552546D01*
X53868072Y-91490000D01*
X53868072Y-89790000D01*
X53864999Y-89727454D01*
X53860195Y-89678681D01*
X53835794Y-89556009D01*
X53821568Y-89509111D01*
X53773697Y-89393540D01*
X53750594Y-89350318D01*
X53681107Y-89246323D01*
X53650017Y-89208439D01*
X53561561Y-89119983D01*
X53523677Y-89088893D01*
X53419682Y-89019406D01*
X53376460Y-88996303D01*
X53326708Y-88975695D01*
X82146520Y-88975695D01*
X82215822Y-89727938D01*
X82430548Y-90452208D01*
X82782445Y-91120670D01*
X82809452Y-91161088D01*
X83299119Y-91521276D01*
X85820395Y-89000000D01*
X83299119Y-86478724D01*
X82809452Y-86838912D01*
X82449151Y-87502882D01*
X82225306Y-88224385D01*
X82146520Y-88975695D01*
X53326708Y-88975695D01*
X53260889Y-88948432D01*
X53213991Y-88934206D01*
X53091319Y-88909805D01*
X53042546Y-88905001D01*
X52980000Y-88901928D01*
X52355988Y-88901928D01*
X52268753Y-88691324D01*
X52128125Y-88480860D01*
X51949140Y-88301875D01*
X51738676Y-88161247D01*
X51504821Y-88064381D01*
X51256561Y-88015000D01*
X51003439Y-88015000D01*
X50755179Y-88064381D01*
X50521324Y-88161247D01*
X50310860Y-88301875D01*
X50131875Y-88480860D01*
X49991247Y-88691324D01*
X49904708Y-88900248D01*
X49880000Y-88897815D01*
X49588890Y-88926487D01*
X49308967Y-89011401D01*
X49050987Y-89149294D01*
X48824866Y-89334866D01*
X48639294Y-89560986D01*
X48501401Y-89818966D01*
X48416487Y-90098889D01*
X48395000Y-90317050D01*
X46058072Y-90317050D01*
X46058072Y-89800000D01*
X46054999Y-89737454D01*
X46050195Y-89688681D01*
X46025794Y-89566009D01*
X46011568Y-89519111D01*
X45963697Y-89403540D01*
X45940594Y-89360318D01*
X45871107Y-89256323D01*
X45840017Y-89218439D01*
X45751561Y-89129983D01*
X45713677Y-89098893D01*
X45609682Y-89029406D01*
X45566460Y-89006303D01*
X45450889Y-88958432D01*
X45403991Y-88944206D01*
X45281319Y-88919805D01*
X45232546Y-88915001D01*
X45170000Y-88911928D01*
X44545988Y-88911928D01*
X44458753Y-88701324D01*
X44318125Y-88490860D01*
X44139140Y-88311875D01*
X43928676Y-88171247D01*
X43694821Y-88074381D01*
X43446561Y-88025000D01*
X43193439Y-88025000D01*
X42945179Y-88074381D01*
X42711324Y-88171247D01*
X42500860Y-88311875D01*
X42321875Y-88490860D01*
X42181247Y-88701324D01*
X42094708Y-88910248D01*
X42070000Y-88907815D01*
X41778890Y-88936487D01*
X41498967Y-89021401D01*
X41240987Y-89159294D01*
X41014866Y-89344866D01*
X40829294Y-89570986D01*
X40691401Y-89828966D01*
X40606487Y-90108889D01*
X40585000Y-90327050D01*
X37603612Y-90327050D01*
X37774694Y-89775615D01*
X37853480Y-89024305D01*
X37784178Y-88272062D01*
X37569452Y-87547792D01*
X37217555Y-86879330D01*
X37190548Y-86838912D01*
X36700881Y-86478724D01*
X34179605Y-89000000D01*
X33820395Y-89000000D01*
X31299119Y-86478724D01*
X30809452Y-86838912D01*
X30660000Y-87114325D01*
X30660000Y-85660000D01*
X32111926Y-85660000D01*
X31879330Y-85782445D01*
G36*
X34651995Y-104641727D02*
G01*
X34804880Y-104870535D01*
X34999465Y-105065120D01*
X35228273Y-105218005D01*
X35305515Y-105250000D01*
X35228273Y-105281995D01*
X34999465Y-105434880D01*
X34804880Y-105629465D01*
X34651995Y-105858273D01*
X34622308Y-105929943D01*
X34617636Y-105916977D01*
X34555656Y-105801020D01*
X34315565Y-105734040D01*
X33529605Y-106520000D01*
X34315565Y-107305960D01*
X34555656Y-107238980D01*
X34619485Y-107103240D01*
X34651995Y-107181727D01*
X34804880Y-107410535D01*
X34999465Y-107605120D01*
X35228273Y-107758005D01*
X35305515Y-107790000D01*
X35228273Y-107821995D01*
X34999465Y-107974880D01*
X34804880Y-108169465D01*
X34651995Y-108398273D01*
X34622308Y-108469943D01*
X34617636Y-108456977D01*
X34555656Y-108341020D01*
X34315565Y-108274040D01*
X33529605Y-109060000D01*
X34315565Y-109845960D01*
X34555656Y-109778980D01*
X34619485Y-109643240D01*
X34651995Y-109721727D01*
X34804880Y-109950535D01*
X34999465Y-110145120D01*
X35228273Y-110298005D01*
X35305515Y-110330000D01*
X35228273Y-110361995D01*
X34999465Y-110514880D01*
X34804880Y-110709465D01*
X34651995Y-110938273D01*
X34620000Y-111015515D01*
X34588005Y-110938273D01*
X34435120Y-110709465D01*
X34240535Y-110514880D01*
X34011727Y-110361995D01*
X33940057Y-110332308D01*
X33953023Y-110327636D01*
X34068980Y-110265656D01*
X34135960Y-110025565D01*
X33350000Y-109239605D01*
X32564040Y-110025565D01*
X32631020Y-110265656D01*
X32766760Y-110329485D01*
X32688273Y-110361995D01*
X32459465Y-110514880D01*
X32315000Y-110659345D01*
X32315000Y-109826589D01*
X32384435Y-109845960D01*
X33170395Y-109060000D01*
X32384435Y-108274040D01*
X32315000Y-108293411D01*
X32315000Y-107485565D01*
X32564040Y-107485565D01*
X32631020Y-107725656D01*
X32761644Y-107787079D01*
X32746977Y-107792364D01*
X32631020Y-107854344D01*
X32564040Y-108094435D01*
X33350000Y-108880395D01*
X34135960Y-108094435D01*
X34068980Y-107854344D01*
X33938356Y-107792921D01*
X33953023Y-107787636D01*
X34068980Y-107725656D01*
X34135960Y-107485565D01*
X33350000Y-106699605D01*
X32564040Y-107485565D01*
X32315000Y-107485565D01*
X32315000Y-107286589D01*
X32384435Y-107305960D01*
X33170395Y-106520000D01*
X33156253Y-106505858D01*
X33335858Y-106326253D01*
X33350000Y-106340395D01*
X34135960Y-105554435D01*
X34068980Y-105314344D01*
X33933240Y-105250515D01*
X34011727Y-105218005D01*
X34240535Y-105065120D01*
X34435120Y-104870535D01*
X34588005Y-104641727D01*
X34620000Y-104564485D01*
X34651995Y-104641727D01*
G37*
X34651995Y-104641727D02*
X34804880Y-104870535D01*
X34999465Y-105065120D01*
X35228273Y-105218005D01*
X35305515Y-105250000D01*
X35228273Y-105281995D01*
X34999465Y-105434880D01*
X34804880Y-105629465D01*
X34651995Y-105858273D01*
X34622308Y-105929943D01*
X34617636Y-105916977D01*
X34555656Y-105801020D01*
X34315565Y-105734040D01*
X33529605Y-106520000D01*
X34315565Y-107305960D01*
X34555656Y-107238980D01*
X34619485Y-107103240D01*
X34651995Y-107181727D01*
X34804880Y-107410535D01*
X34999465Y-107605120D01*
X35228273Y-107758005D01*
X35305515Y-107790000D01*
X35228273Y-107821995D01*
X34999465Y-107974880D01*
X34804880Y-108169465D01*
X34651995Y-108398273D01*
X34622308Y-108469943D01*
X34617636Y-108456977D01*
X34555656Y-108341020D01*
X34315565Y-108274040D01*
X33529605Y-109060000D01*
X34315565Y-109845960D01*
X34555656Y-109778980D01*
X34619485Y-109643240D01*
X34651995Y-109721727D01*
X34804880Y-109950535D01*
X34999465Y-110145120D01*
X35228273Y-110298005D01*
X35305515Y-110330000D01*
X35228273Y-110361995D01*
X34999465Y-110514880D01*
X34804880Y-110709465D01*
X34651995Y-110938273D01*
X34620000Y-111015515D01*
X34588005Y-110938273D01*
X34435120Y-110709465D01*
X34240535Y-110514880D01*
X34011727Y-110361995D01*
X33940057Y-110332308D01*
X33953023Y-110327636D01*
X34068980Y-110265656D01*
X34135960Y-110025565D01*
X33350000Y-109239605D01*
X32564040Y-110025565D01*
X32631020Y-110265656D01*
X32766760Y-110329485D01*
X32688273Y-110361995D01*
X32459465Y-110514880D01*
X32315000Y-110659345D01*
X32315000Y-109826589D01*
X32384435Y-109845960D01*
X33170395Y-109060000D01*
X32384435Y-108274040D01*
X32315000Y-108293411D01*
X32315000Y-107485565D01*
X32564040Y-107485565D01*
X32631020Y-107725656D01*
X32761644Y-107787079D01*
X32746977Y-107792364D01*
X32631020Y-107854344D01*
X32564040Y-108094435D01*
X33350000Y-108880395D01*
X34135960Y-108094435D01*
X34068980Y-107854344D01*
X33938356Y-107792921D01*
X33953023Y-107787636D01*
X34068980Y-107725656D01*
X34135960Y-107485565D01*
X33350000Y-106699605D01*
X32564040Y-107485565D01*
X32315000Y-107485565D01*
X32315000Y-107286589D01*
X32384435Y-107305960D01*
X33170395Y-106520000D01*
X33156253Y-106505858D01*
X33335858Y-106326253D01*
X33350000Y-106340395D01*
X34135960Y-105554435D01*
X34068980Y-105314344D01*
X33933240Y-105250515D01*
X34011727Y-105218005D01*
X34240535Y-105065120D01*
X34435120Y-104870535D01*
X34588005Y-104641727D01*
X34620000Y-104564485D01*
X34651995Y-104641727D01*
M02*
