%TF.GenerationSoftware,KiCad,Pcbnew,(6.0.0)*%
%TF.CreationDate,2022-03-06T17:11:13+01:00*%
%TF.ProjectId,Alimentation,416c696d-656e-4746-9174-696f6e2e6b69,rev?*%
%TF.SameCoordinates,Original*%
%TF.FileFunction,Copper,L2,Bot*%
%TF.FilePolarity,Positive*%
%FSLAX46Y46*%
G04 Gerber Fmt 4.6, Leading zero omitted, Abs format (unit mm)*
G04 Created by KiCad (PCBNEW (6.0.0)) date 2022-03-06 17:11:13*
%MOMM*%
%LPD*%
G01*
G04 APERTURE LIST*
G04 Aperture macros list*
%AMRoundRect*
0 Rectangle with rounded corners*
0 $1 Rounding radius*
0 $2 $3 $4 $5 $6 $7 $8 $9 X,Y pos of 4 corners*
0 Add a 4 corners polygon primitive as box body*
4,1,4,$2,$3,$4,$5,$6,$7,$8,$9,$2,$3,0*
0 Add four circle primitives for the rounded corners*
1,1,$1+$1,$2,$3*
1,1,$1+$1,$4,$5*
1,1,$1+$1,$6,$7*
1,1,$1+$1,$8,$9*
0 Add four rect primitives between the rounded corners*
20,1,$1+$1,$2,$3,$4,$5,0*
20,1,$1+$1,$4,$5,$6,$7,0*
20,1,$1+$1,$6,$7,$8,$9,0*
20,1,$1+$1,$8,$9,$2,$3,0*%
G04 Aperture macros list end*
%TA.AperFunction,ComponentPad*%
%ADD10C,2.000000*%
%TD*%
%TA.AperFunction,ComponentPad*%
%ADD11RoundRect,0.312500X0.687500X-0.437500X0.687500X0.437500X-0.687500X0.437500X-0.687500X-0.437500X0*%
%TD*%
%TA.AperFunction,ComponentPad*%
%ADD12O,2.000000X1.500000*%
%TD*%
%TA.AperFunction,ComponentPad*%
%ADD13RoundRect,0.312500X-0.687500X0.437500X-0.687500X-0.437500X0.687500X-0.437500X0.687500X0.437500X0*%
%TD*%
%TA.AperFunction,ComponentPad*%
%ADD14R,2.500000X2.500000*%
%TD*%
%TA.AperFunction,ComponentPad*%
%ADD15O,2.500000X2.500000*%
%TD*%
%TA.AperFunction,ComponentPad*%
%ADD16R,2.500000X1.500000*%
%TD*%
%TA.AperFunction,ComponentPad*%
%ADD17O,2.500000X1.500000*%
%TD*%
%TA.AperFunction,ComponentPad*%
%ADD18R,1.700000X1.700000*%
%TD*%
%TA.AperFunction,ComponentPad*%
%ADD19O,1.700000X1.700000*%
%TD*%
%TA.AperFunction,ComponentPad*%
%ADD20R,2.400000X2.400000*%
%TD*%
%TA.AperFunction,ComponentPad*%
%ADD21O,2.400000X2.400000*%
%TD*%
%TA.AperFunction,ComponentPad*%
%ADD22C,1.400000*%
%TD*%
%TA.AperFunction,ComponentPad*%
%ADD23R,3.500000X3.500000*%
%TD*%
%TA.AperFunction,ComponentPad*%
%ADD24C,3.500000*%
%TD*%
%TA.AperFunction,ComponentPad*%
%ADD25R,1.800000X1.800000*%
%TD*%
%TA.AperFunction,ComponentPad*%
%ADD26O,1.800000X1.800000*%
%TD*%
%TA.AperFunction,ComponentPad*%
%ADD27R,1.600000X1.600000*%
%TD*%
%TA.AperFunction,ComponentPad*%
%ADD28C,1.600000*%
%TD*%
%TA.AperFunction,ComponentPad*%
%ADD29O,1.600000X4.000000*%
%TD*%
%TA.AperFunction,ViaPad*%
%ADD30C,2.000000*%
%TD*%
%TA.AperFunction,Conductor*%
%ADD31C,1.500000*%
%TD*%
%TA.AperFunction,Conductor*%
%ADD32C,1.000000*%
%TD*%
%TA.AperFunction,Conductor*%
%ADD33C,0.600000*%
%TD*%
G04 APERTURE END LIST*
D10*
%TO.P,R1,1*%
%TO.N,Net-(Q1-Pad3)*%
X104267000Y-61468000D03*
%TO.P,R1,2*%
%TO.N,cmd_relais*%
X94107000Y-61468000D03*
%TD*%
D11*
%TO.P,J6,1,Pin_1*%
%TO.N,can_H*%
X98117000Y-48133000D03*
D12*
%TO.P,J6,2,Pin_2*%
%TO.N,5VRPI*%
X95717000Y-48133000D03*
%TO.P,J6,3,Pin_3*%
%TO.N,can_L*%
X98117000Y-50133000D03*
%TO.P,J6,4,Pin_4*%
%TO.N,cmd_relais*%
X95717000Y-50133000D03*
%TO.P,J6,5,Pin_5*%
%TO.N,unconnected-(J6-Pad5)*%
X98117000Y-52133000D03*
%TO.P,J6,6,Pin_6*%
%TO.N,GND*%
X95717000Y-52133000D03*
%TD*%
D13*
%TO.P,J1,1,Pin_1*%
%TO.N,GND*%
X143002000Y-46228000D03*
%TO.P,J1,2,Pin_2*%
%TO.N,can_H*%
X143002000Y-48228000D03*
%TO.P,J1,3,Pin_3*%
%TO.N,can_L*%
X143002000Y-50228000D03*
%TO.P,J1,4,Pin_4*%
%TO.N,5Vout1*%
X143002000Y-52228000D03*
%TD*%
%TO.P,J2,1,Pin_1*%
%TO.N,GND*%
X134112000Y-46228000D03*
%TO.P,J2,2,Pin_2*%
%TO.N,can_H*%
X134112000Y-48228000D03*
%TO.P,J2,3,Pin_3*%
%TO.N,can_L*%
X134112000Y-50228000D03*
%TO.P,J2,4,Pin_4*%
%TO.N,5Vout2*%
X134112000Y-52228000D03*
%TD*%
%TO.P,J3,1,Pin_1*%
%TO.N,GND*%
X125222000Y-46228000D03*
%TO.P,J3,2,Pin_2*%
%TO.N,can_H*%
X125222000Y-48228000D03*
%TO.P,J3,3,Pin_3*%
%TO.N,can_L*%
X125222000Y-50228000D03*
%TO.P,J3,4,Pin_4*%
%TO.N,5Vout3*%
X125222000Y-52228000D03*
%TD*%
%TO.P,J5,1,Pin_1*%
%TO.N,GND*%
X105537000Y-46228000D03*
%TO.P,J5,2,Pin_2*%
%TO.N,can_H*%
X105537000Y-48228000D03*
%TO.P,J5,3,Pin_3*%
%TO.N,can_L*%
X105537000Y-50228000D03*
%TO.P,J5,4,Pin_4*%
%TO.N,5Vout5*%
X105537000Y-52228000D03*
%TO.P,J5,5,Pin_5*%
%TO.N,12Vout2*%
X105537000Y-54228000D03*
%TD*%
%TO.P,J4,1,Pin_1*%
%TO.N,GND*%
X113792000Y-46228000D03*
%TO.P,J4,2,Pin_2*%
%TO.N,can_H*%
X113792000Y-48228000D03*
%TO.P,J4,3,Pin_3*%
%TO.N,can_L*%
X113792000Y-50228000D03*
%TO.P,J4,4,Pin_4*%
%TO.N,5Vout4*%
X113792000Y-52228000D03*
%TO.P,J4,5,Pin_5*%
%TO.N,12Vout1*%
X113792000Y-54228000D03*
%TD*%
D14*
%TO.P,K1,1*%
%TO.N,Vbatt*%
X103632000Y-75438000D03*
D15*
%TO.P,K1,2*%
%TO.N,Net-(D1-Pad2)*%
X97632000Y-77438000D03*
%TO.P,K1,3*%
%TO.N,Net-(K1-Pad3)*%
X97632000Y-89638000D03*
%TO.P,K1,4*%
%TO.N,Net-(K1-Pad4)*%
X109632000Y-89638000D03*
%TO.P,K1,5*%
%TO.N,12V*%
X109632000Y-77438000D03*
%TD*%
D16*
%TO.P,U2,1,Vin*%
%TO.N,Net-(F2-Pad1)*%
X129667000Y-91948000D03*
D17*
%TO.P,U2,2,GND*%
%TO.N,GND*%
X129667000Y-89408000D03*
%TO.P,U2,3,Vout*%
%TO.N,5V*%
X129667000Y-86868000D03*
%TD*%
D16*
%TO.P,U3,1,Vin*%
%TO.N,Net-(C1-Pad1)*%
X118237000Y-91948000D03*
D17*
%TO.P,U3,2,GND*%
%TO.N,GND*%
X118237000Y-89408000D03*
%TO.P,U3,3,Vout*%
%TO.N,12V*%
X118237000Y-86868000D03*
%TD*%
D18*
%TO.P,J7,1,Pin_1*%
%TO.N,12Vout2*%
X117602000Y-72898000D03*
D19*
%TO.P,J7,2,Pin_2*%
%TO.N,12V*%
X117602000Y-75438000D03*
%TO.P,J7,3,Pin_3*%
%TO.N,12Vout1*%
X120142000Y-72898000D03*
%TO.P,J7,4,Pin_4*%
%TO.N,12V*%
X120142000Y-75438000D03*
%TO.P,J7,5,Pin_5*%
%TO.N,5Vout5*%
X122682000Y-72898000D03*
%TO.P,J7,6,Pin_6*%
%TO.N,5V*%
X122682000Y-75438000D03*
%TO.P,J7,7,Pin_7*%
%TO.N,5Vout4*%
X125222000Y-72898000D03*
%TO.P,J7,8,Pin_8*%
%TO.N,5V*%
X125222000Y-75438000D03*
%TO.P,J7,9,Pin_9*%
%TO.N,5Vout3*%
X127762000Y-72898000D03*
%TO.P,J7,10,Pin_10*%
%TO.N,5V*%
X127762000Y-75438000D03*
%TO.P,J7,11,Pin_11*%
%TO.N,5Vout2*%
X130302000Y-72898000D03*
%TO.P,J7,12,Pin_12*%
%TO.N,5V*%
X130302000Y-75438000D03*
%TO.P,J7,13,Pin_13*%
%TO.N,5Vout1*%
X132842000Y-72898000D03*
%TO.P,J7,14,Pin_14*%
%TO.N,5V*%
X132842000Y-75438000D03*
%TO.P,J7,15,Pin_15*%
%TO.N,5VRPI*%
X135382000Y-72898000D03*
%TO.P,J7,16,Pin_16*%
%TO.N,Net-(J7-Pad16)*%
X135382000Y-75438000D03*
%TO.P,J7,17,Pin_17*%
%TO.N,can_L*%
X137922000Y-72898000D03*
%TO.P,J7,18,Pin_18*%
%TO.N,GND*%
X137922000Y-75438000D03*
%TO.P,J7,19,Pin_19*%
%TO.N,can_H*%
X140462000Y-72898000D03*
%TO.P,J7,20,Pin_20*%
%TO.N,unconnected-(J7-Pad20)*%
X140462000Y-75438000D03*
%TD*%
D20*
%TO.P,D1,1,K*%
%TO.N,12V*%
X108712000Y-69723000D03*
D21*
%TO.P,D1,2,A*%
%TO.N,Net-(D1-Pad2)*%
X96012000Y-69723000D03*
%TD*%
D16*
%TO.P,U1,1,Vin*%
%TO.N,Net-(F1-Pad1)*%
X140462000Y-91948000D03*
D17*
%TO.P,U1,2,GND*%
%TO.N,GND*%
X140462000Y-89408000D03*
%TO.P,U1,3,Vout*%
%TO.N,Net-(J7-Pad16)*%
X140462000Y-86868000D03*
%TD*%
D22*
%TO.P,J8,*%
%TO.N,*%
X137072000Y-120448000D03*
X126072000Y-120448000D03*
D23*
%TO.P,J8,1,Pin_1*%
%TO.N,GND*%
X129072000Y-110448000D03*
D24*
%TO.P,J8,2,Pin_2*%
%TO.N,Vbatt*%
X134072000Y-110448000D03*
%TD*%
D22*
%TO.P,J9,*%
%TO.N,*%
X112452000Y-120448000D03*
X101452000Y-120448000D03*
D23*
%TO.P,J9,1,Pin_1*%
%TO.N,GND*%
X104452000Y-110448000D03*
D24*
%TO.P,J9,2,Pin_2*%
%TO.N,VbattRelay*%
X109452000Y-110448000D03*
%TD*%
D25*
%TO.P,Q1,1,E*%
%TO.N,GND*%
X93472000Y-65653000D03*
D26*
%TO.P,Q1,2,C*%
%TO.N,Net-(D1-Pad2)*%
X96012000Y-65653000D03*
%TO.P,Q1,3,B*%
%TO.N,Net-(Q1-Pad3)*%
X98552000Y-65653000D03*
%TD*%
D13*
%TO.P,J10,1,Pin_1*%
%TO.N,can_L*%
X118237000Y-115443000D03*
D12*
%TO.P,J10,2,Pin_2*%
%TO.N,can_H*%
X118237000Y-117443000D03*
%TD*%
D10*
%TO.P,F2,1*%
%TO.N,Net-(F2-Pad1)*%
X134112000Y-100584000D03*
%TO.P,F2,2*%
%TO.N,Vbatt*%
X129032000Y-100584000D03*
%TD*%
D27*
%TO.P,C1,1*%
%TO.N,Net-(C1-Pad1)*%
X115001113Y-100584000D03*
D28*
%TO.P,C1,2*%
%TO.N,GND*%
X113001113Y-100584000D03*
%TD*%
D29*
%TO.P,SW1,1,A*%
%TO.N,Net-(K1-Pad3)*%
X99378000Y-100838000D03*
%TO.P,SW1,2,B*%
%TO.N,VbattRelay*%
X103378000Y-100838000D03*
%TO.P,SW1,3,C*%
%TO.N,Net-(K1-Pad4)*%
X107378000Y-100838000D03*
%TD*%
D10*
%TO.P,F3,1*%
%TO.N,Net-(C1-Pad1)*%
X118862000Y-100584000D03*
%TO.P,F3,2*%
%TO.N,VbattRelay*%
X123942000Y-100584000D03*
%TD*%
%TO.P,F1,1*%
%TO.N,Net-(F1-Pad1)*%
X138547000Y-100584000D03*
%TO.P,F1,2*%
%TO.N,Vbatt*%
X143627000Y-100584000D03*
%TD*%
D30*
%TO.N,can_L*%
X143637000Y-68453000D03*
X137922000Y-68453000D03*
%TO.N,12Vout1*%
X120142000Y-68453000D03*
X120142000Y-60833000D03*
%TO.N,5VRPI*%
X137922000Y-58293000D03*
X90932000Y-58293000D03*
%TD*%
D31*
%TO.N,5Vout1*%
X138907000Y-52228000D02*
X143002000Y-52228000D01*
X132842000Y-58293000D02*
X138907000Y-52228000D01*
X132842000Y-72898000D02*
X132842000Y-58293000D01*
D32*
%TO.N,can_L*%
X112522000Y-50228000D02*
X104902000Y-50228000D01*
X134112000Y-50228000D02*
X125222000Y-50228000D01*
D31*
X118237000Y-115443000D02*
X137922000Y-115443000D01*
D32*
X137922000Y-72898000D02*
X137922000Y-63478000D01*
X145952000Y-51718000D02*
X144462000Y-50228000D01*
X105537000Y-50228000D02*
X98012000Y-50228000D01*
D31*
X147447000Y-105918000D02*
X147447000Y-72263000D01*
D32*
X125222000Y-50228000D02*
X112522000Y-50228000D01*
X144462000Y-50228000D02*
X143002000Y-50228000D01*
X143002000Y-50228000D02*
X134112000Y-50228000D01*
D31*
X137922000Y-115443000D02*
X147447000Y-105918000D01*
X147447000Y-72263000D02*
X143637000Y-68453000D01*
D32*
X145952000Y-55448000D02*
X145952000Y-51718000D01*
X137922000Y-63478000D02*
X145952000Y-55448000D01*
%TO.N,can_H*%
X134112000Y-48228000D02*
X143002000Y-48228000D01*
D31*
X144014500Y-61725500D02*
X144014500Y-64385500D01*
X148952000Y-50448000D02*
X148952000Y-56788000D01*
X139097000Y-117443000D02*
X149987000Y-106553000D01*
D32*
X125222000Y-48228000D02*
X133730517Y-48228000D01*
D31*
X148952000Y-56788000D02*
X144014500Y-61725500D01*
D32*
X125222000Y-48228000D02*
X112522000Y-48228000D01*
D31*
X143002000Y-48228000D02*
X146732000Y-48228000D01*
D33*
X133730517Y-48228000D02*
X134112000Y-48228000D01*
D31*
X118237000Y-117443000D02*
X139097000Y-117443000D01*
X146732000Y-48228000D02*
X148952000Y-50448000D01*
X149987000Y-70358000D02*
X144014500Y-64385500D01*
X144014500Y-64385500D02*
X140462000Y-67938000D01*
D32*
X105537000Y-48228000D02*
X98086520Y-48228000D01*
X112522000Y-48228000D02*
X105537000Y-48228000D01*
D31*
X140462000Y-67938000D02*
X140462000Y-72898000D01*
X149987000Y-106553000D02*
X149987000Y-70358000D01*
%TO.N,5Vout2*%
X130302000Y-72898000D02*
X130302000Y-56038000D01*
X130302000Y-56038000D02*
X134112000Y-52228000D01*
%TO.N,5Vout3*%
X127762000Y-72898000D02*
X127762000Y-54768000D01*
X127762000Y-54768000D02*
X125222000Y-52228000D01*
%TO.N,12Vout1*%
X113792000Y-54228000D02*
X113792000Y-54483000D01*
X120142000Y-72898000D02*
X120142000Y-68453000D01*
X113792000Y-54483000D02*
X120142000Y-60833000D01*
D32*
%TO.N,cmd_relais*%
X94012000Y-50133000D02*
X93472000Y-50673000D01*
X95917000Y-50133000D02*
X94012000Y-50133000D01*
X93472000Y-60833000D02*
X94107000Y-61468000D01*
X93472000Y-50673000D02*
X93472000Y-60833000D01*
D31*
%TO.N,5VRPI*%
X135382000Y-60833000D02*
X137922000Y-58293000D01*
X135382000Y-72898000D02*
X135382000Y-60833000D01*
X93187000Y-48133000D02*
X90932000Y-50388000D01*
X95917000Y-48133000D02*
X93187000Y-48133000D01*
X90932000Y-50388000D02*
X90932000Y-58293000D01*
%TO.N,12Vout2*%
X117602000Y-65278000D02*
X106552000Y-54228000D01*
X117602000Y-72898000D02*
X117602000Y-65278000D01*
X106552000Y-54228000D02*
X105537000Y-54228000D01*
D33*
%TO.N,5V*%
X125222000Y-75438000D02*
X122682000Y-75438000D01*
X132842000Y-75438000D02*
X130302000Y-75438000D01*
X127762000Y-75438000D02*
X125222000Y-75438000D01*
D31*
X122682000Y-75438000D02*
X132842000Y-75438000D01*
X129667000Y-86868000D02*
X129667000Y-77343000D01*
D33*
X130302000Y-75438000D02*
X127762000Y-75438000D01*
D31*
X129667000Y-77343000D02*
X127762000Y-75438000D01*
%TO.N,VbattRelay*%
X123942000Y-100584000D02*
X123942000Y-103388000D01*
X116882000Y-110448000D02*
X109452000Y-110448000D01*
X103378000Y-100838000D02*
X103378000Y-101874000D01*
X103378000Y-101874000D02*
X108952000Y-107448000D01*
X123942000Y-103388000D02*
X116882000Y-110448000D01*
X109452000Y-110448000D02*
X109452000Y-107948000D01*
X109452000Y-107948000D02*
X108952000Y-107448000D01*
%TO.N,Net-(D1-Pad2)*%
X96012000Y-69723000D02*
X96012000Y-75818000D01*
X96012000Y-65653000D02*
X96012000Y-69723000D01*
X96012000Y-75818000D02*
X97632000Y-77438000D01*
%TO.N,Vbatt*%
X134072000Y-108418000D02*
X129032000Y-103378000D01*
X121412000Y-99568000D02*
X121412000Y-102108000D01*
X121412000Y-102108000D02*
X117602000Y-105918000D01*
X112522000Y-87630000D02*
X103632000Y-78740000D01*
X126238000Y-97790000D02*
X123190000Y-97790000D01*
X117602000Y-105918000D02*
X112522000Y-105918000D01*
X109982000Y-94234000D02*
X112522000Y-91694000D01*
X134072000Y-110448000D02*
X134072000Y-108418000D01*
X112522000Y-105918000D02*
X109982000Y-103378000D01*
X103632000Y-78740000D02*
X103632000Y-75438000D01*
X129032000Y-100584000D02*
X126238000Y-97790000D01*
X143627000Y-100584000D02*
X143627000Y-103388000D01*
X136567000Y-110448000D02*
X134072000Y-110448000D01*
X109982000Y-103378000D02*
X109982000Y-94234000D01*
X112522000Y-91694000D02*
X112522000Y-87630000D01*
X129032000Y-103378000D02*
X129032000Y-100584000D01*
X143627000Y-103388000D02*
X136567000Y-110448000D01*
X123190000Y-97790000D02*
X121412000Y-99568000D01*
%TO.N,12V*%
X118237000Y-81788000D02*
X118237000Y-76073000D01*
X108712000Y-76518000D02*
X109632000Y-77438000D01*
X108712000Y-69723000D02*
X108712000Y-76518000D01*
X117602000Y-75438000D02*
X120142000Y-75438000D01*
X118237000Y-86868000D02*
X118237000Y-81788000D01*
X109632000Y-77438000D02*
X113887000Y-77438000D01*
X113887000Y-77438000D02*
X118237000Y-81788000D01*
X118237000Y-76073000D02*
X117602000Y-75438000D01*
%TO.N,5Vout4*%
X115732000Y-52228000D02*
X113792000Y-52228000D01*
X125222000Y-72898000D02*
X125222000Y-61718000D01*
X125222000Y-61718000D02*
X115732000Y-52228000D01*
%TO.N,5Vout5*%
X122682000Y-67183000D02*
X107727000Y-52228000D01*
X122682000Y-69723000D02*
X122682000Y-67183000D01*
X122682000Y-68453000D02*
X122682000Y-67898000D01*
X122682000Y-72898000D02*
X122682000Y-69723000D01*
X107727000Y-52228000D02*
X105537000Y-52228000D01*
X122682000Y-69723000D02*
X122682000Y-68453000D01*
%TO.N,Net-(J7-Pad16)*%
X140462000Y-86868000D02*
X140462000Y-84963000D01*
X140462000Y-84963000D02*
X135382000Y-79883000D01*
X135382000Y-79883000D02*
X135382000Y-75438000D01*
%TO.N,Net-(Q1-Pad3)*%
X102737000Y-61468000D02*
X98552000Y-65653000D01*
X104267000Y-61468000D02*
X102737000Y-61468000D01*
%TO.N,Net-(C1-Pad1)*%
X118862000Y-100584000D02*
X118862000Y-92573000D01*
X118862000Y-92573000D02*
X118237000Y-91948000D01*
X118862000Y-100584000D02*
X115001113Y-100584000D01*
%TO.N,Net-(F1-Pad1)*%
X140462000Y-91948000D02*
X140462000Y-98669000D01*
X140462000Y-98669000D02*
X138547000Y-100584000D01*
%TO.N,Net-(F2-Pad1)*%
X134112000Y-96393000D02*
X129667000Y-91948000D01*
X134112000Y-100584000D02*
X134112000Y-96393000D01*
%TO.N,Net-(K1-Pad3)*%
X97632000Y-89638000D02*
X99378000Y-91384000D01*
X99378000Y-91384000D02*
X99378000Y-100838000D01*
%TO.N,Net-(K1-Pad4)*%
X107378000Y-91892000D02*
X109632000Y-89638000D01*
X107378000Y-100838000D02*
X107378000Y-91892000D01*
%TD*%
%TA.AperFunction,Conductor*%
%TO.N,GND*%
G36*
X147922057Y-35957500D02*
G01*
X147936858Y-35959805D01*
X147936861Y-35959805D01*
X147945730Y-35961186D01*
X147966158Y-35958515D01*
X147987983Y-35957571D01*
X148338007Y-35972853D01*
X148348958Y-35973811D01*
X148726579Y-36023527D01*
X148737403Y-36025436D01*
X149109243Y-36107870D01*
X149119860Y-36110715D01*
X149483110Y-36225248D01*
X149493425Y-36229001D01*
X149845334Y-36374766D01*
X149855269Y-36379399D01*
X150193128Y-36555278D01*
X150202637Y-36560768D01*
X150523860Y-36765410D01*
X150532864Y-36771714D01*
X150835043Y-37003583D01*
X150843463Y-37010649D01*
X151124268Y-37267959D01*
X151132041Y-37275732D01*
X151389351Y-37556537D01*
X151396417Y-37564957D01*
X151628286Y-37867136D01*
X151634590Y-37876140D01*
X151839232Y-38197363D01*
X151844722Y-38206872D01*
X152020601Y-38544731D01*
X152025234Y-38554666D01*
X152134963Y-38819577D01*
X152170996Y-38906568D01*
X152174752Y-38916890D01*
X152202401Y-39004579D01*
X152289285Y-39280139D01*
X152292130Y-39290757D01*
X152374564Y-39662597D01*
X152376473Y-39673421D01*
X152426189Y-40051042D01*
X152427147Y-40061993D01*
X152442104Y-40404583D01*
X152440724Y-40429461D01*
X152438814Y-40441730D01*
X152440638Y-40455678D01*
X152442936Y-40473251D01*
X152444000Y-40489589D01*
X152444000Y-120398672D01*
X152442500Y-120418056D01*
X152438814Y-120441730D01*
X152441485Y-120462158D01*
X152442429Y-120483983D01*
X152435042Y-120653175D01*
X152427147Y-120834007D01*
X152426189Y-120844957D01*
X152423454Y-120865734D01*
X152376473Y-121222579D01*
X152374564Y-121233403D01*
X152292130Y-121605243D01*
X152289285Y-121615860D01*
X152200434Y-121897661D01*
X152174755Y-121979103D01*
X152170999Y-121989425D01*
X152128137Y-122092904D01*
X152025238Y-122341325D01*
X152020601Y-122351269D01*
X151844722Y-122689128D01*
X151839232Y-122698637D01*
X151634590Y-123019860D01*
X151628286Y-123028864D01*
X151396417Y-123331043D01*
X151389351Y-123339463D01*
X151132041Y-123620268D01*
X151124268Y-123628041D01*
X150843463Y-123885351D01*
X150835043Y-123892417D01*
X150532864Y-124124286D01*
X150523860Y-124130590D01*
X150202637Y-124335232D01*
X150193128Y-124340722D01*
X149855269Y-124516601D01*
X149845334Y-124521234D01*
X149493425Y-124666999D01*
X149483110Y-124670752D01*
X149119861Y-124785285D01*
X149109243Y-124788130D01*
X148737403Y-124870564D01*
X148726579Y-124872473D01*
X148348958Y-124922189D01*
X148338007Y-124923147D01*
X147995417Y-124938104D01*
X147970539Y-124936724D01*
X147970160Y-124936665D01*
X147958270Y-124934814D01*
X147926749Y-124938936D01*
X147910411Y-124940000D01*
X93001328Y-124940000D01*
X92981943Y-124938500D01*
X92967142Y-124936195D01*
X92967139Y-124936195D01*
X92958270Y-124934814D01*
X92937842Y-124937485D01*
X92916017Y-124938429D01*
X92565993Y-124923147D01*
X92555042Y-124922189D01*
X92177421Y-124872473D01*
X92166597Y-124870564D01*
X91794757Y-124788130D01*
X91784139Y-124785285D01*
X91420890Y-124670752D01*
X91410575Y-124666999D01*
X91058666Y-124521234D01*
X91048731Y-124516601D01*
X90710872Y-124340722D01*
X90701363Y-124335232D01*
X90380140Y-124130590D01*
X90371136Y-124124286D01*
X90068957Y-123892417D01*
X90060537Y-123885351D01*
X89779732Y-123628041D01*
X89771959Y-123620268D01*
X89514649Y-123339463D01*
X89507583Y-123331043D01*
X89275714Y-123028864D01*
X89269410Y-123019860D01*
X89064768Y-122698637D01*
X89059278Y-122689128D01*
X88883399Y-122351269D01*
X88878762Y-122341325D01*
X88775864Y-122092904D01*
X88733001Y-121989425D01*
X88729245Y-121979103D01*
X88703567Y-121897661D01*
X88614715Y-121615860D01*
X88611870Y-121605243D01*
X88529436Y-121233403D01*
X88527527Y-121222579D01*
X88477811Y-120844957D01*
X88476853Y-120834006D01*
X88466943Y-120607036D01*
X88465793Y-120580703D01*
X90842743Y-120580703D01*
X90843302Y-120584947D01*
X90843302Y-120584951D01*
X90853705Y-120663970D01*
X90880268Y-120865734D01*
X90956129Y-121143036D01*
X90957813Y-121146984D01*
X91057400Y-121380460D01*
X91068923Y-121407476D01*
X91216561Y-121654161D01*
X91396313Y-121878528D01*
X91604851Y-122076423D01*
X91838317Y-122244186D01*
X91842112Y-122246195D01*
X91842113Y-122246196D01*
X91863869Y-122257715D01*
X92092392Y-122378712D01*
X92362373Y-122477511D01*
X92643264Y-122538755D01*
X92671841Y-122541004D01*
X92866282Y-122556307D01*
X92866291Y-122556307D01*
X92868739Y-122556500D01*
X93024271Y-122556500D01*
X93026407Y-122556354D01*
X93026418Y-122556354D01*
X93234548Y-122542165D01*
X93234554Y-122542164D01*
X93238825Y-122541873D01*
X93243020Y-122541004D01*
X93243022Y-122541004D01*
X93379584Y-122512723D01*
X93520342Y-122483574D01*
X93791343Y-122387607D01*
X94046812Y-122255750D01*
X94050313Y-122253289D01*
X94050317Y-122253287D01*
X94164418Y-122173095D01*
X94282023Y-122090441D01*
X94360403Y-122017606D01*
X94489479Y-121897661D01*
X94489481Y-121897658D01*
X94492622Y-121894740D01*
X94674713Y-121672268D01*
X94824927Y-121427142D01*
X94848516Y-121373406D01*
X94938757Y-121167830D01*
X94940483Y-121163898D01*
X95019244Y-120887406D01*
X95059751Y-120602784D01*
X95059845Y-120584951D01*
X95060562Y-120448000D01*
X100238884Y-120448000D01*
X100257314Y-120658655D01*
X100258738Y-120663968D01*
X100258738Y-120663970D01*
X100307234Y-120844957D01*
X100312044Y-120862910D01*
X100314366Y-120867891D01*
X100314367Y-120867892D01*
X100325392Y-120891534D01*
X100401411Y-121054558D01*
X100522699Y-121227776D01*
X100672224Y-121377301D01*
X100845442Y-121498589D01*
X100850420Y-121500910D01*
X100850423Y-121500912D01*
X101032108Y-121585633D01*
X101037090Y-121587956D01*
X101042398Y-121589378D01*
X101042400Y-121589379D01*
X101236030Y-121641262D01*
X101236032Y-121641262D01*
X101241345Y-121642686D01*
X101452000Y-121661116D01*
X101662655Y-121642686D01*
X101667968Y-121641262D01*
X101667970Y-121641262D01*
X101861600Y-121589379D01*
X101861602Y-121589378D01*
X101866910Y-121587956D01*
X101871892Y-121585633D01*
X102053577Y-121500912D01*
X102053580Y-121500910D01*
X102058558Y-121498589D01*
X102231776Y-121377301D01*
X102381301Y-121227776D01*
X102502589Y-121054558D01*
X102578609Y-120891534D01*
X102589633Y-120867892D01*
X102589634Y-120867891D01*
X102591956Y-120862910D01*
X102596767Y-120844957D01*
X102645262Y-120663970D01*
X102645262Y-120663968D01*
X102646686Y-120658655D01*
X102665116Y-120448000D01*
X111238884Y-120448000D01*
X111257314Y-120658655D01*
X111258738Y-120663968D01*
X111258738Y-120663970D01*
X111307234Y-120844957D01*
X111312044Y-120862910D01*
X111314366Y-120867891D01*
X111314367Y-120867892D01*
X111325392Y-120891534D01*
X111401411Y-121054558D01*
X111522699Y-121227776D01*
X111672224Y-121377301D01*
X111845442Y-121498589D01*
X111850420Y-121500910D01*
X111850423Y-121500912D01*
X112032108Y-121585633D01*
X112037090Y-121587956D01*
X112042398Y-121589378D01*
X112042400Y-121589379D01*
X112236030Y-121641262D01*
X112236032Y-121641262D01*
X112241345Y-121642686D01*
X112452000Y-121661116D01*
X112662655Y-121642686D01*
X112667968Y-121641262D01*
X112667970Y-121641262D01*
X112861600Y-121589379D01*
X112861602Y-121589378D01*
X112866910Y-121587956D01*
X112871892Y-121585633D01*
X113053577Y-121500912D01*
X113053580Y-121500910D01*
X113058558Y-121498589D01*
X113231776Y-121377301D01*
X113381301Y-121227776D01*
X113502589Y-121054558D01*
X113578609Y-120891534D01*
X113589633Y-120867892D01*
X113589634Y-120867891D01*
X113591956Y-120862910D01*
X113596767Y-120844957D01*
X113645262Y-120663970D01*
X113645262Y-120663968D01*
X113646686Y-120658655D01*
X113665116Y-120448000D01*
X124858884Y-120448000D01*
X124877314Y-120658655D01*
X124878738Y-120663968D01*
X124878738Y-120663970D01*
X124927234Y-120844957D01*
X124932044Y-120862910D01*
X124934366Y-120867891D01*
X124934367Y-120867892D01*
X124945392Y-120891534D01*
X125021411Y-121054558D01*
X125142699Y-121227776D01*
X125292224Y-121377301D01*
X125465442Y-121498589D01*
X125470420Y-121500910D01*
X125470423Y-121500912D01*
X125652108Y-121585633D01*
X125657090Y-121587956D01*
X125662398Y-121589378D01*
X125662400Y-121589379D01*
X125856030Y-121641262D01*
X125856032Y-121641262D01*
X125861345Y-121642686D01*
X126072000Y-121661116D01*
X126282655Y-121642686D01*
X126287968Y-121641262D01*
X126287970Y-121641262D01*
X126481600Y-121589379D01*
X126481602Y-121589378D01*
X126486910Y-121587956D01*
X126491892Y-121585633D01*
X126673577Y-121500912D01*
X126673580Y-121500910D01*
X126678558Y-121498589D01*
X126851776Y-121377301D01*
X127001301Y-121227776D01*
X127122589Y-121054558D01*
X127198609Y-120891534D01*
X127209633Y-120867892D01*
X127209634Y-120867891D01*
X127211956Y-120862910D01*
X127216767Y-120844957D01*
X127265262Y-120663970D01*
X127265262Y-120663968D01*
X127266686Y-120658655D01*
X127285116Y-120448000D01*
X135858884Y-120448000D01*
X135877314Y-120658655D01*
X135878738Y-120663968D01*
X135878738Y-120663970D01*
X135927234Y-120844957D01*
X135932044Y-120862910D01*
X135934366Y-120867891D01*
X135934367Y-120867892D01*
X135945392Y-120891534D01*
X136021411Y-121054558D01*
X136142699Y-121227776D01*
X136292224Y-121377301D01*
X136465442Y-121498589D01*
X136470420Y-121500910D01*
X136470423Y-121500912D01*
X136652108Y-121585633D01*
X136657090Y-121587956D01*
X136662398Y-121589378D01*
X136662400Y-121589379D01*
X136856030Y-121641262D01*
X136856032Y-121641262D01*
X136861345Y-121642686D01*
X137072000Y-121661116D01*
X137282655Y-121642686D01*
X137287968Y-121641262D01*
X137287970Y-121641262D01*
X137481600Y-121589379D01*
X137481602Y-121589378D01*
X137486910Y-121587956D01*
X137491892Y-121585633D01*
X137673577Y-121500912D01*
X137673580Y-121500910D01*
X137678558Y-121498589D01*
X137851776Y-121377301D01*
X138001301Y-121227776D01*
X138122589Y-121054558D01*
X138198609Y-120891534D01*
X138209633Y-120867892D01*
X138209634Y-120867891D01*
X138211956Y-120862910D01*
X138216767Y-120844957D01*
X138265262Y-120663970D01*
X138265262Y-120663968D01*
X138266686Y-120658655D01*
X138273506Y-120580703D01*
X145842743Y-120580703D01*
X145843302Y-120584947D01*
X145843302Y-120584951D01*
X145853705Y-120663970D01*
X145880268Y-120865734D01*
X145956129Y-121143036D01*
X145957813Y-121146984D01*
X146057400Y-121380460D01*
X146068923Y-121407476D01*
X146216561Y-121654161D01*
X146396313Y-121878528D01*
X146604851Y-122076423D01*
X146838317Y-122244186D01*
X146842112Y-122246195D01*
X146842113Y-122246196D01*
X146863869Y-122257715D01*
X147092392Y-122378712D01*
X147362373Y-122477511D01*
X147643264Y-122538755D01*
X147671841Y-122541004D01*
X147866282Y-122556307D01*
X147866291Y-122556307D01*
X147868739Y-122556500D01*
X148024271Y-122556500D01*
X148026407Y-122556354D01*
X148026418Y-122556354D01*
X148234548Y-122542165D01*
X148234554Y-122542164D01*
X148238825Y-122541873D01*
X148243020Y-122541004D01*
X148243022Y-122541004D01*
X148379584Y-122512723D01*
X148520342Y-122483574D01*
X148791343Y-122387607D01*
X149046812Y-122255750D01*
X149050313Y-122253289D01*
X149050317Y-122253287D01*
X149164417Y-122173096D01*
X149282023Y-122090441D01*
X149360403Y-122017606D01*
X149489479Y-121897661D01*
X149489481Y-121897658D01*
X149492622Y-121894740D01*
X149674713Y-121672268D01*
X149824927Y-121427142D01*
X149848516Y-121373406D01*
X149938757Y-121167830D01*
X149940483Y-121163898D01*
X150019244Y-120887406D01*
X150059751Y-120602784D01*
X150059845Y-120584951D01*
X150061235Y-120319583D01*
X150061235Y-120319576D01*
X150061257Y-120315297D01*
X150050995Y-120237345D01*
X150024292Y-120034522D01*
X150023732Y-120030266D01*
X149947871Y-119752964D01*
X149847948Y-119518699D01*
X149836763Y-119492476D01*
X149836761Y-119492472D01*
X149835077Y-119488524D01*
X149687439Y-119241839D01*
X149507687Y-119017472D01*
X149299149Y-118819577D01*
X149065683Y-118651814D01*
X149052327Y-118644742D01*
X148947596Y-118589290D01*
X148811608Y-118517288D01*
X148626328Y-118449485D01*
X148545658Y-118419964D01*
X148545656Y-118419963D01*
X148541627Y-118418489D01*
X148260736Y-118357245D01*
X148229685Y-118354801D01*
X148037718Y-118339693D01*
X148037709Y-118339693D01*
X148035261Y-118339500D01*
X147879729Y-118339500D01*
X147877593Y-118339646D01*
X147877582Y-118339646D01*
X147669452Y-118353835D01*
X147669446Y-118353836D01*
X147665175Y-118354127D01*
X147660980Y-118354996D01*
X147660978Y-118354996D01*
X147524417Y-118383276D01*
X147383658Y-118412426D01*
X147112657Y-118508393D01*
X147108848Y-118510359D01*
X146882207Y-118627337D01*
X146857188Y-118640250D01*
X146853687Y-118642711D01*
X146853683Y-118642713D01*
X146764376Y-118705479D01*
X146621977Y-118805559D01*
X146411378Y-119001260D01*
X146229287Y-119223732D01*
X146079073Y-119468858D01*
X146077347Y-119472791D01*
X146077346Y-119472792D01*
X145993267Y-119664329D01*
X145963517Y-119732102D01*
X145884756Y-120008594D01*
X145844249Y-120293216D01*
X145844227Y-120297505D01*
X145844226Y-120297512D01*
X145843191Y-120495173D01*
X145842743Y-120580703D01*
X138273506Y-120580703D01*
X138285116Y-120448000D01*
X138266686Y-120237345D01*
X138211956Y-120033090D01*
X138200533Y-120008594D01*
X138124912Y-119846423D01*
X138124910Y-119846420D01*
X138122589Y-119841442D01*
X138001301Y-119668224D01*
X137851776Y-119518699D01*
X137678558Y-119397411D01*
X137673580Y-119395090D01*
X137673577Y-119395088D01*
X137491892Y-119310367D01*
X137491891Y-119310366D01*
X137486910Y-119308044D01*
X137481602Y-119306622D01*
X137481600Y-119306621D01*
X137287970Y-119254738D01*
X137287968Y-119254738D01*
X137282655Y-119253314D01*
X137072000Y-119234884D01*
X136861345Y-119253314D01*
X136856032Y-119254738D01*
X136856030Y-119254738D01*
X136662400Y-119306621D01*
X136662398Y-119306622D01*
X136657090Y-119308044D01*
X136652109Y-119310366D01*
X136652108Y-119310367D01*
X136470423Y-119395088D01*
X136470420Y-119395090D01*
X136465442Y-119397411D01*
X136292224Y-119518699D01*
X136142699Y-119668224D01*
X136021411Y-119841442D01*
X136019090Y-119846420D01*
X136019088Y-119846423D01*
X135943467Y-120008594D01*
X135932044Y-120033090D01*
X135877314Y-120237345D01*
X135858884Y-120448000D01*
X127285116Y-120448000D01*
X127266686Y-120237345D01*
X127211956Y-120033090D01*
X127200533Y-120008594D01*
X127124912Y-119846423D01*
X127124910Y-119846420D01*
X127122589Y-119841442D01*
X127001301Y-119668224D01*
X126851776Y-119518699D01*
X126678558Y-119397411D01*
X126673580Y-119395090D01*
X126673577Y-119395088D01*
X126491892Y-119310367D01*
X126491891Y-119310366D01*
X126486910Y-119308044D01*
X126481602Y-119306622D01*
X126481600Y-119306621D01*
X126287970Y-119254738D01*
X126287968Y-119254738D01*
X126282655Y-119253314D01*
X126072000Y-119234884D01*
X125861345Y-119253314D01*
X125856032Y-119254738D01*
X125856030Y-119254738D01*
X125662400Y-119306621D01*
X125662398Y-119306622D01*
X125657090Y-119308044D01*
X125652109Y-119310366D01*
X125652108Y-119310367D01*
X125470423Y-119395088D01*
X125470420Y-119395090D01*
X125465442Y-119397411D01*
X125292224Y-119518699D01*
X125142699Y-119668224D01*
X125021411Y-119841442D01*
X125019090Y-119846420D01*
X125019088Y-119846423D01*
X124943467Y-120008594D01*
X124932044Y-120033090D01*
X124877314Y-120237345D01*
X124858884Y-120448000D01*
X113665116Y-120448000D01*
X113646686Y-120237345D01*
X113591956Y-120033090D01*
X113580533Y-120008594D01*
X113504912Y-119846423D01*
X113504910Y-119846420D01*
X113502589Y-119841442D01*
X113381301Y-119668224D01*
X113231776Y-119518699D01*
X113058558Y-119397411D01*
X113053580Y-119395090D01*
X113053577Y-119395088D01*
X112871892Y-119310367D01*
X112871891Y-119310366D01*
X112866910Y-119308044D01*
X112861602Y-119306622D01*
X112861600Y-119306621D01*
X112667970Y-119254738D01*
X112667968Y-119254738D01*
X112662655Y-119253314D01*
X112452000Y-119234884D01*
X112241345Y-119253314D01*
X112236032Y-119254738D01*
X112236030Y-119254738D01*
X112042400Y-119306621D01*
X112042398Y-119306622D01*
X112037090Y-119308044D01*
X112032109Y-119310366D01*
X112032108Y-119310367D01*
X111850423Y-119395088D01*
X111850420Y-119395090D01*
X111845442Y-119397411D01*
X111672224Y-119518699D01*
X111522699Y-119668224D01*
X111401411Y-119841442D01*
X111399090Y-119846420D01*
X111399088Y-119846423D01*
X111323467Y-120008594D01*
X111312044Y-120033090D01*
X111257314Y-120237345D01*
X111238884Y-120448000D01*
X102665116Y-120448000D01*
X102646686Y-120237345D01*
X102591956Y-120033090D01*
X102580533Y-120008594D01*
X102504912Y-119846423D01*
X102504910Y-119846420D01*
X102502589Y-119841442D01*
X102381301Y-119668224D01*
X102231776Y-119518699D01*
X102058558Y-119397411D01*
X102053580Y-119395090D01*
X102053577Y-119395088D01*
X101871892Y-119310367D01*
X101871891Y-119310366D01*
X101866910Y-119308044D01*
X101861602Y-119306622D01*
X101861600Y-119306621D01*
X101667970Y-119254738D01*
X101667968Y-119254738D01*
X101662655Y-119253314D01*
X101452000Y-119234884D01*
X101241345Y-119253314D01*
X101236032Y-119254738D01*
X101236030Y-119254738D01*
X101042400Y-119306621D01*
X101042398Y-119306622D01*
X101037090Y-119308044D01*
X101032109Y-119310366D01*
X101032108Y-119310367D01*
X100850423Y-119395088D01*
X100850420Y-119395090D01*
X100845442Y-119397411D01*
X100672224Y-119518699D01*
X100522699Y-119668224D01*
X100401411Y-119841442D01*
X100399090Y-119846420D01*
X100399088Y-119846423D01*
X100323467Y-120008594D01*
X100312044Y-120033090D01*
X100257314Y-120237345D01*
X100238884Y-120448000D01*
X95060562Y-120448000D01*
X95061235Y-120319583D01*
X95061235Y-120319576D01*
X95061257Y-120315297D01*
X95050995Y-120237345D01*
X95024292Y-120034522D01*
X95023732Y-120030266D01*
X94947871Y-119752964D01*
X94847948Y-119518699D01*
X94836763Y-119492476D01*
X94836761Y-119492472D01*
X94835077Y-119488524D01*
X94687439Y-119241839D01*
X94507687Y-119017472D01*
X94299149Y-118819577D01*
X94065683Y-118651814D01*
X94052327Y-118644742D01*
X93947596Y-118589290D01*
X93811608Y-118517288D01*
X93626328Y-118449485D01*
X93545658Y-118419964D01*
X93545656Y-118419963D01*
X93541627Y-118418489D01*
X93260736Y-118357245D01*
X93229685Y-118354801D01*
X93037718Y-118339693D01*
X93037709Y-118339693D01*
X93035261Y-118339500D01*
X92879729Y-118339500D01*
X92877593Y-118339646D01*
X92877582Y-118339646D01*
X92669452Y-118353835D01*
X92669446Y-118353836D01*
X92665175Y-118354127D01*
X92660980Y-118354996D01*
X92660978Y-118354996D01*
X92524417Y-118383276D01*
X92383658Y-118412426D01*
X92112657Y-118508393D01*
X92108848Y-118510359D01*
X91882207Y-118627337D01*
X91857188Y-118640250D01*
X91853687Y-118642711D01*
X91853683Y-118642713D01*
X91764376Y-118705479D01*
X91621977Y-118805559D01*
X91411378Y-119001260D01*
X91229287Y-119223732D01*
X91079073Y-119468858D01*
X91077347Y-119472791D01*
X91077346Y-119472792D01*
X90993267Y-119664329D01*
X90963517Y-119732102D01*
X90884756Y-120008594D01*
X90844249Y-120293216D01*
X90844227Y-120297505D01*
X90844226Y-120297512D01*
X90843191Y-120495173D01*
X90842743Y-120580703D01*
X88465793Y-120580703D01*
X88462059Y-120495172D01*
X88463686Y-120468769D01*
X88464263Y-120465342D01*
X88464263Y-120465340D01*
X88465071Y-120460539D01*
X88465224Y-120448000D01*
X88461273Y-120420412D01*
X88460000Y-120402549D01*
X88460000Y-112242669D01*
X102194001Y-112242669D01*
X102194371Y-112249490D01*
X102199895Y-112300352D01*
X102203521Y-112315604D01*
X102248676Y-112436054D01*
X102257214Y-112451649D01*
X102333715Y-112553724D01*
X102346276Y-112566285D01*
X102448351Y-112642786D01*
X102463946Y-112651324D01*
X102584394Y-112696478D01*
X102599649Y-112700105D01*
X102650514Y-112705631D01*
X102657328Y-112706000D01*
X104179885Y-112706000D01*
X104195124Y-112701525D01*
X104196329Y-112700135D01*
X104198000Y-112692452D01*
X104198000Y-112687884D01*
X104706000Y-112687884D01*
X104710475Y-112703123D01*
X104711865Y-112704328D01*
X104719548Y-112705999D01*
X106246669Y-112705999D01*
X106253490Y-112705629D01*
X106304352Y-112700105D01*
X106319604Y-112696479D01*
X106440054Y-112651324D01*
X106455649Y-112642786D01*
X106557724Y-112566285D01*
X106570285Y-112553724D01*
X106646786Y-112451649D01*
X106655324Y-112436054D01*
X106700478Y-112315606D01*
X106704105Y-112300351D01*
X106709631Y-112249486D01*
X106710000Y-112242672D01*
X106710000Y-110720115D01*
X106705525Y-110704876D01*
X106704135Y-110703671D01*
X106696452Y-110702000D01*
X104724115Y-110702000D01*
X104708876Y-110706475D01*
X104707671Y-110707865D01*
X104706000Y-110715548D01*
X104706000Y-112687884D01*
X104198000Y-112687884D01*
X104198000Y-110720115D01*
X104193525Y-110704876D01*
X104192135Y-110703671D01*
X104184452Y-110702000D01*
X102212116Y-110702000D01*
X102196877Y-110706475D01*
X102195672Y-110707865D01*
X102194001Y-110715548D01*
X102194001Y-112242669D01*
X88460000Y-112242669D01*
X88460000Y-110175885D01*
X102194000Y-110175885D01*
X102198475Y-110191124D01*
X102199865Y-110192329D01*
X102207548Y-110194000D01*
X104179885Y-110194000D01*
X104195124Y-110189525D01*
X104196329Y-110188135D01*
X104198000Y-110180452D01*
X104198000Y-110175885D01*
X104706000Y-110175885D01*
X104710475Y-110191124D01*
X104711865Y-110192329D01*
X104719548Y-110194000D01*
X106691884Y-110194000D01*
X106707123Y-110189525D01*
X106708328Y-110188135D01*
X106709999Y-110180452D01*
X106709999Y-108653331D01*
X106709629Y-108646510D01*
X106704105Y-108595648D01*
X106700479Y-108580396D01*
X106655324Y-108459946D01*
X106646786Y-108444351D01*
X106570285Y-108342276D01*
X106557724Y-108329715D01*
X106455649Y-108253214D01*
X106440054Y-108244676D01*
X106319606Y-108199522D01*
X106304351Y-108195895D01*
X106253486Y-108190369D01*
X106246672Y-108190000D01*
X104724115Y-108190000D01*
X104708876Y-108194475D01*
X104707671Y-108195865D01*
X104706000Y-108203548D01*
X104706000Y-110175885D01*
X104198000Y-110175885D01*
X104198000Y-108208116D01*
X104193525Y-108192877D01*
X104192135Y-108191672D01*
X104184452Y-108190001D01*
X102657331Y-108190001D01*
X102650510Y-108190371D01*
X102599648Y-108195895D01*
X102584396Y-108199521D01*
X102463946Y-108244676D01*
X102448351Y-108253214D01*
X102346276Y-108329715D01*
X102333715Y-108342276D01*
X102257214Y-108444351D01*
X102248676Y-108459946D01*
X102203522Y-108580394D01*
X102199895Y-108595649D01*
X102194369Y-108646514D01*
X102194000Y-108653328D01*
X102194000Y-110175885D01*
X88460000Y-110175885D01*
X88460000Y-89591839D01*
X95869173Y-89591839D01*
X95869397Y-89596505D01*
X95869397Y-89596511D01*
X95872740Y-89666105D01*
X95881713Y-89852908D01*
X95932704Y-90109256D01*
X96021026Y-90355252D01*
X96023242Y-90359376D01*
X96130152Y-90558346D01*
X96144737Y-90585491D01*
X96147532Y-90589234D01*
X96147534Y-90589237D01*
X96298330Y-90791177D01*
X96298335Y-90791183D01*
X96301122Y-90794915D01*
X96304431Y-90798195D01*
X96304436Y-90798201D01*
X96473727Y-90966020D01*
X96486743Y-90978923D01*
X96490505Y-90981681D01*
X96490508Y-90981684D01*
X96693750Y-91130707D01*
X96697524Y-91133474D01*
X96701667Y-91135654D01*
X96701669Y-91135655D01*
X96924684Y-91252989D01*
X96924689Y-91252991D01*
X96928834Y-91255172D01*
X97045059Y-91295760D01*
X97157364Y-91334979D01*
X97175590Y-91341344D01*
X97180183Y-91342216D01*
X97427785Y-91389224D01*
X97427788Y-91389224D01*
X97432374Y-91390095D01*
X97525650Y-91393760D01*
X97562064Y-91395191D01*
X97629347Y-91417852D01*
X97646212Y-91431999D01*
X98082595Y-91868382D01*
X98116621Y-91930694D01*
X98119500Y-91957477D01*
X98119500Y-99262543D01*
X98115207Y-99295152D01*
X98084457Y-99409913D01*
X98080325Y-99457144D01*
X98073180Y-99538815D01*
X98069500Y-99580873D01*
X98069500Y-102095127D01*
X98084457Y-102266087D01*
X98085881Y-102271400D01*
X98085881Y-102271402D01*
X98126299Y-102422241D01*
X98143716Y-102487243D01*
X98146039Y-102492224D01*
X98146039Y-102492225D01*
X98238151Y-102689762D01*
X98238154Y-102689767D01*
X98240477Y-102694749D01*
X98243634Y-102699257D01*
X98364565Y-102871964D01*
X98371802Y-102882300D01*
X98533700Y-103044198D01*
X98538208Y-103047355D01*
X98538211Y-103047357D01*
X98551530Y-103056683D01*
X98721251Y-103175523D01*
X98726233Y-103177846D01*
X98726238Y-103177849D01*
X98878073Y-103248650D01*
X98928757Y-103272284D01*
X98934065Y-103273706D01*
X98934067Y-103273707D01*
X99144598Y-103330119D01*
X99144600Y-103330119D01*
X99149913Y-103331543D01*
X99378000Y-103351498D01*
X99606087Y-103331543D01*
X99611400Y-103330119D01*
X99611402Y-103330119D01*
X99821933Y-103273707D01*
X99821935Y-103273706D01*
X99827243Y-103272284D01*
X99877927Y-103248650D01*
X100029762Y-103177849D01*
X100029767Y-103177846D01*
X100034749Y-103175523D01*
X100204470Y-103056683D01*
X100217789Y-103047357D01*
X100217792Y-103047355D01*
X100222300Y-103044198D01*
X100384198Y-102882300D01*
X100391436Y-102871964D01*
X100512366Y-102699257D01*
X100515523Y-102694749D01*
X100517846Y-102689767D01*
X100517849Y-102689762D01*
X100609961Y-102492225D01*
X100609961Y-102492224D01*
X100612284Y-102487243D01*
X100629702Y-102422241D01*
X100670119Y-102271402D01*
X100670119Y-102271400D01*
X100671543Y-102266087D01*
X100686500Y-102095127D01*
X100686500Y-99580873D01*
X100682821Y-99538815D01*
X100675675Y-99457144D01*
X100671543Y-99409913D01*
X100640793Y-99295152D01*
X100636500Y-99262543D01*
X100636500Y-91475396D01*
X100637578Y-91458949D01*
X100639747Y-91442472D01*
X100640479Y-91436914D01*
X100638677Y-91398689D01*
X100636640Y-91355504D01*
X100636500Y-91349569D01*
X100636500Y-91327001D01*
X100636252Y-91324218D01*
X100636251Y-91324204D01*
X100634182Y-91301023D01*
X100633823Y-91295760D01*
X100630161Y-91218116D01*
X100629897Y-91212512D01*
X100625892Y-91195023D01*
X100623212Y-91178104D01*
X100622730Y-91172712D01*
X100621617Y-91160238D01*
X100620137Y-91154827D01*
X100599631Y-91079870D01*
X100598345Y-91074752D01*
X100580995Y-90999000D01*
X100580994Y-90998998D01*
X100579742Y-90993530D01*
X100572706Y-90977033D01*
X100567073Y-90960858D01*
X100563815Y-90948953D01*
X100562337Y-90943549D01*
X100559926Y-90938494D01*
X100559924Y-90938489D01*
X100526454Y-90868317D01*
X100524283Y-90863508D01*
X100493805Y-90792053D01*
X100493802Y-90792047D01*
X100491603Y-90786892D01*
X100481756Y-90771902D01*
X100473343Y-90756971D01*
X100468037Y-90745846D01*
X100465622Y-90740782D01*
X100462350Y-90736229D01*
X100462348Y-90736225D01*
X100416990Y-90673103D01*
X100414001Y-90668753D01*
X100370801Y-90602987D01*
X100368265Y-90599126D01*
X100349743Y-90578338D01*
X100341506Y-90568056D01*
X100337799Y-90562897D01*
X100334529Y-90558346D01*
X100257778Y-90483969D01*
X100256367Y-90482580D01*
X99427208Y-89653420D01*
X99393183Y-89591108D01*
X99390650Y-89573663D01*
X99376407Y-89382000D01*
X99376406Y-89381996D01*
X99376061Y-89377348D01*
X99366805Y-89336439D01*
X99319408Y-89126980D01*
X99318377Y-89122423D01*
X99223647Y-88878823D01*
X99093951Y-88651902D01*
X98932138Y-88446643D01*
X98741763Y-88267557D01*
X98564006Y-88144242D01*
X98530851Y-88121241D01*
X98530848Y-88121239D01*
X98527009Y-88118576D01*
X98522816Y-88116508D01*
X98296781Y-88005040D01*
X98296778Y-88005039D01*
X98292593Y-88002975D01*
X98264131Y-87993864D01*
X98048123Y-87924720D01*
X98043665Y-87923293D01*
X97785693Y-87881279D01*
X97671942Y-87879790D01*
X97529022Y-87877919D01*
X97529019Y-87877919D01*
X97524345Y-87877858D01*
X97265362Y-87913104D01*
X97014433Y-87986243D01*
X97010180Y-87988203D01*
X97010179Y-87988204D01*
X96973659Y-88005040D01*
X96777072Y-88095668D01*
X96738067Y-88121241D01*
X96562404Y-88236410D01*
X96562399Y-88236414D01*
X96558491Y-88238976D01*
X96363494Y-88413018D01*
X96196363Y-88613970D01*
X96193934Y-88617973D01*
X96080661Y-88804642D01*
X96060771Y-88837419D01*
X95959697Y-89078455D01*
X95895359Y-89331783D01*
X95869173Y-89591839D01*
X88460000Y-89591839D01*
X88460000Y-66597669D01*
X92064001Y-66597669D01*
X92064371Y-66604490D01*
X92069895Y-66655352D01*
X92073521Y-66670604D01*
X92118676Y-66791054D01*
X92127214Y-66806649D01*
X92203715Y-66908724D01*
X92216276Y-66921285D01*
X92318351Y-66997786D01*
X92333946Y-67006324D01*
X92454394Y-67051478D01*
X92469649Y-67055105D01*
X92520514Y-67060631D01*
X92527328Y-67061000D01*
X93199885Y-67061000D01*
X93215124Y-67056525D01*
X93216329Y-67055135D01*
X93218000Y-67047452D01*
X93218000Y-67042884D01*
X93726000Y-67042884D01*
X93730475Y-67058123D01*
X93731865Y-67059328D01*
X93739548Y-67060999D01*
X94416669Y-67060999D01*
X94423490Y-67060629D01*
X94474352Y-67055105D01*
X94489604Y-67051479D01*
X94583270Y-67016365D01*
X94654077Y-67011182D01*
X94716446Y-67045103D01*
X94750576Y-67107358D01*
X94753500Y-67134347D01*
X94753500Y-68518635D01*
X94733498Y-68586756D01*
X94724374Y-68599204D01*
X94617183Y-68728087D01*
X94485447Y-68945182D01*
X94483638Y-68949496D01*
X94483637Y-68949498D01*
X94403769Y-69139963D01*
X94387246Y-69179365D01*
X94324738Y-69425490D01*
X94299296Y-69678151D01*
X94299520Y-69682817D01*
X94299520Y-69682822D01*
X94301299Y-69719851D01*
X94311480Y-69931798D01*
X94317562Y-69962374D01*
X94355302Y-70152104D01*
X94361021Y-70180857D01*
X94362600Y-70185255D01*
X94362602Y-70185262D01*
X94441609Y-70405313D01*
X94446831Y-70419858D01*
X94567025Y-70643551D01*
X94718963Y-70847020D01*
X94722276Y-70850305D01*
X94722594Y-70850670D01*
X94752189Y-70915204D01*
X94753500Y-70933332D01*
X94753500Y-75726604D01*
X94752422Y-75743051D01*
X94749521Y-75765086D01*
X94749786Y-75770698D01*
X94753360Y-75846488D01*
X94753500Y-75852424D01*
X94753500Y-75874999D01*
X94753750Y-75877796D01*
X94755819Y-75900988D01*
X94756178Y-75906248D01*
X94760104Y-75989488D01*
X94761354Y-75994947D01*
X94761355Y-75994952D01*
X94764108Y-76006970D01*
X94766789Y-76023899D01*
X94768383Y-76041762D01*
X94769865Y-76047178D01*
X94769865Y-76047180D01*
X94790370Y-76122133D01*
X94791656Y-76127251D01*
X94794535Y-76139819D01*
X94810258Y-76208470D01*
X94812460Y-76213632D01*
X94817294Y-76224967D01*
X94822927Y-76241142D01*
X94823557Y-76243443D01*
X94827663Y-76258451D01*
X94830079Y-76263516D01*
X94863539Y-76333667D01*
X94865710Y-76338476D01*
X94898397Y-76415109D01*
X94908251Y-76430110D01*
X94916654Y-76445025D01*
X94924378Y-76461218D01*
X94970830Y-76525862D01*
X94972999Y-76528881D01*
X94975989Y-76533232D01*
X95019196Y-76599010D01*
X95019202Y-76599018D01*
X95021735Y-76602874D01*
X95040257Y-76623662D01*
X95048490Y-76633939D01*
X95055471Y-76643654D01*
X95122068Y-76708191D01*
X95132255Y-76718063D01*
X95133665Y-76719452D01*
X95837934Y-77423721D01*
X95871960Y-77486033D01*
X95874693Y-77506767D01*
X95881713Y-77652908D01*
X95932704Y-77909256D01*
X96021026Y-78155252D01*
X96055124Y-78218712D01*
X96087753Y-78279437D01*
X96144737Y-78385491D01*
X96147532Y-78389234D01*
X96147534Y-78389237D01*
X96298330Y-78591177D01*
X96298335Y-78591183D01*
X96301122Y-78594915D01*
X96304431Y-78598195D01*
X96304436Y-78598201D01*
X96483426Y-78775635D01*
X96486743Y-78778923D01*
X96490505Y-78781681D01*
X96490508Y-78781684D01*
X96659900Y-78905887D01*
X96697524Y-78933474D01*
X96701667Y-78935654D01*
X96701669Y-78935655D01*
X96924684Y-79052989D01*
X96924689Y-79052991D01*
X96928834Y-79055172D01*
X97067254Y-79103511D01*
X97159234Y-79135632D01*
X97175590Y-79141344D01*
X97180183Y-79142216D01*
X97427785Y-79189224D01*
X97427788Y-79189224D01*
X97432374Y-79190095D01*
X97562958Y-79195226D01*
X97688875Y-79200174D01*
X97688881Y-79200174D01*
X97693543Y-79200357D01*
X97772977Y-79191657D01*
X97948707Y-79172412D01*
X97948712Y-79172411D01*
X97953360Y-79171902D01*
X97986633Y-79163142D01*
X98201594Y-79106548D01*
X98201596Y-79106547D01*
X98206117Y-79105357D01*
X98446262Y-79002182D01*
X98508349Y-78963762D01*
X98664547Y-78867104D01*
X98664548Y-78867104D01*
X98668519Y-78864646D01*
X98672082Y-78861629D01*
X98672087Y-78861626D01*
X98864439Y-78698787D01*
X98864440Y-78698786D01*
X98868005Y-78695768D01*
X98959729Y-78591177D01*
X99037257Y-78502774D01*
X99037261Y-78502769D01*
X99040339Y-78499259D01*
X99181733Y-78279437D01*
X99289083Y-78041129D01*
X99327567Y-77904676D01*
X99358760Y-77794076D01*
X99358761Y-77794073D01*
X99360030Y-77789572D01*
X99376832Y-77657496D01*
X99392616Y-77533421D01*
X99392616Y-77533417D01*
X99393014Y-77530291D01*
X99395431Y-77438000D01*
X99394370Y-77423721D01*
X99376407Y-77182000D01*
X99376406Y-77181996D01*
X99376061Y-77177348D01*
X99374741Y-77171512D01*
X99325305Y-76953039D01*
X99318377Y-76922423D01*
X99316684Y-76918069D01*
X99245934Y-76736134D01*
X101873500Y-76736134D01*
X101880255Y-76798316D01*
X101931385Y-76934705D01*
X102018739Y-77051261D01*
X102135295Y-77138615D01*
X102143703Y-77141767D01*
X102264286Y-77186972D01*
X102264289Y-77186973D01*
X102271684Y-77189745D01*
X102277453Y-77190372D01*
X102338291Y-77225126D01*
X102371113Y-77288081D01*
X102373500Y-77312493D01*
X102373500Y-78648604D01*
X102372422Y-78665051D01*
X102369521Y-78687086D01*
X102372475Y-78749713D01*
X102373360Y-78768488D01*
X102373500Y-78774424D01*
X102373500Y-78796999D01*
X102373750Y-78799796D01*
X102375819Y-78822988D01*
X102376178Y-78828248D01*
X102380104Y-78911488D01*
X102381354Y-78916947D01*
X102381355Y-78916952D01*
X102384108Y-78928970D01*
X102386789Y-78945899D01*
X102388383Y-78963762D01*
X102389865Y-78969178D01*
X102389865Y-78969180D01*
X102410370Y-79044133D01*
X102411656Y-79049251D01*
X102430258Y-79130470D01*
X102432460Y-79135632D01*
X102437294Y-79146967D01*
X102442927Y-79163142D01*
X102446182Y-79175039D01*
X102447663Y-79180451D01*
X102450079Y-79185516D01*
X102483539Y-79255667D01*
X102485710Y-79260476D01*
X102518397Y-79337109D01*
X102528251Y-79352110D01*
X102536654Y-79367025D01*
X102544378Y-79383218D01*
X102547648Y-79387769D01*
X102547650Y-79387772D01*
X102592999Y-79450881D01*
X102595989Y-79455232D01*
X102639196Y-79521010D01*
X102639202Y-79521018D01*
X102641735Y-79524874D01*
X102660257Y-79545662D01*
X102668490Y-79555939D01*
X102675471Y-79565654D01*
X102679498Y-79569556D01*
X102752255Y-79640063D01*
X102753665Y-79641452D01*
X111226595Y-88114383D01*
X111260621Y-88176695D01*
X111263500Y-88203478D01*
X111263500Y-88503620D01*
X111243498Y-88571741D01*
X111189842Y-88618234D01*
X111119568Y-88628338D01*
X111054988Y-88598844D01*
X111038550Y-88581626D01*
X110939422Y-88455883D01*
X110932138Y-88446643D01*
X110741763Y-88267557D01*
X110564006Y-88144242D01*
X110530851Y-88121241D01*
X110530848Y-88121239D01*
X110527009Y-88118576D01*
X110522816Y-88116508D01*
X110296781Y-88005040D01*
X110296778Y-88005039D01*
X110292593Y-88002975D01*
X110264131Y-87993864D01*
X110048123Y-87924720D01*
X110043665Y-87923293D01*
X109785693Y-87881279D01*
X109671942Y-87879790D01*
X109529022Y-87877919D01*
X109529019Y-87877919D01*
X109524345Y-87877858D01*
X109265362Y-87913104D01*
X109014433Y-87986243D01*
X109010180Y-87988203D01*
X109010179Y-87988204D01*
X108973659Y-88005040D01*
X108777072Y-88095668D01*
X108738067Y-88121241D01*
X108562404Y-88236410D01*
X108562399Y-88236414D01*
X108558491Y-88238976D01*
X108363494Y-88413018D01*
X108196363Y-88613970D01*
X108193934Y-88617973D01*
X108080661Y-88804642D01*
X108060771Y-88837419D01*
X107959697Y-89078455D01*
X107895359Y-89331783D01*
X107894890Y-89336437D01*
X107894890Y-89336439D01*
X107870405Y-89579606D01*
X107843679Y-89645381D01*
X107834134Y-89656078D01*
X106552737Y-90937475D01*
X106540347Y-90948342D01*
X106522708Y-90961877D01*
X106493906Y-90993530D01*
X106467842Y-91022174D01*
X106463743Y-91026469D01*
X106447802Y-91042410D01*
X106446007Y-91044557D01*
X106446005Y-91044559D01*
X106431068Y-91062423D01*
X106427600Y-91066398D01*
X106375288Y-91123888D01*
X106375281Y-91123897D01*
X106371515Y-91128036D01*
X106368538Y-91132782D01*
X106368537Y-91132783D01*
X106361987Y-91143225D01*
X106351911Y-91157093D01*
X106344004Y-91166549D01*
X106343997Y-91166559D01*
X106340406Y-91170854D01*
X106299118Y-91243240D01*
X106296408Y-91247768D01*
X106259536Y-91306548D01*
X106252136Y-91318344D01*
X106250043Y-91323549D01*
X106250042Y-91323552D01*
X106245448Y-91334979D01*
X106237988Y-91350411D01*
X106231880Y-91361119D01*
X106231876Y-91361128D01*
X106229101Y-91365993D01*
X106227232Y-91371270D01*
X106227230Y-91371275D01*
X106201285Y-91444542D01*
X106199420Y-91449478D01*
X106168344Y-91526783D01*
X106167208Y-91532270D01*
X106167207Y-91532272D01*
X106164706Y-91544349D01*
X106160101Y-91560844D01*
X106154111Y-91577759D01*
X106153204Y-91583298D01*
X106140643Y-91660001D01*
X106139683Y-91665180D01*
X106122787Y-91746767D01*
X106122521Y-91751379D01*
X106122521Y-91751380D01*
X106121185Y-91774548D01*
X106119738Y-91787653D01*
X106119013Y-91792086D01*
X106117806Y-91799457D01*
X106117894Y-91805070D01*
X106117894Y-91805072D01*
X106119484Y-91906264D01*
X106119500Y-91908243D01*
X106119500Y-99262543D01*
X106115207Y-99295152D01*
X106084457Y-99409913D01*
X106080325Y-99457144D01*
X106073180Y-99538815D01*
X106069500Y-99580873D01*
X106069500Y-102095127D01*
X106084457Y-102266087D01*
X106085881Y-102271400D01*
X106085881Y-102271402D01*
X106126299Y-102422241D01*
X106143716Y-102487243D01*
X106146039Y-102492225D01*
X106146041Y-102492230D01*
X106167350Y-102537928D01*
X106178011Y-102608119D01*
X106149031Y-102672932D01*
X106089611Y-102711788D01*
X106018616Y-102712351D01*
X105964060Y-102680272D01*
X104723405Y-101439617D01*
X104689379Y-101377305D01*
X104686500Y-101350522D01*
X104686500Y-99580873D01*
X104682821Y-99538815D01*
X104675675Y-99457144D01*
X104671543Y-99409913D01*
X104667401Y-99394455D01*
X104613707Y-99194067D01*
X104613706Y-99194065D01*
X104612284Y-99188757D01*
X104609961Y-99183775D01*
X104517849Y-98986238D01*
X104517846Y-98986233D01*
X104515523Y-98981251D01*
X104418403Y-98842549D01*
X104387357Y-98798211D01*
X104387355Y-98798208D01*
X104384198Y-98793700D01*
X104222300Y-98631802D01*
X104217792Y-98628645D01*
X104217789Y-98628643D01*
X104139611Y-98573902D01*
X104034749Y-98500477D01*
X104029767Y-98498154D01*
X104029762Y-98498151D01*
X103832225Y-98406039D01*
X103832224Y-98406039D01*
X103827243Y-98403716D01*
X103821935Y-98402294D01*
X103821933Y-98402293D01*
X103611402Y-98345881D01*
X103611400Y-98345881D01*
X103606087Y-98344457D01*
X103378000Y-98324502D01*
X103149913Y-98344457D01*
X103144600Y-98345881D01*
X103144598Y-98345881D01*
X102934067Y-98402293D01*
X102934065Y-98402294D01*
X102928757Y-98403716D01*
X102923776Y-98406039D01*
X102923775Y-98406039D01*
X102726238Y-98498151D01*
X102726233Y-98498154D01*
X102721251Y-98500477D01*
X102616389Y-98573902D01*
X102538211Y-98628643D01*
X102538208Y-98628645D01*
X102533700Y-98631802D01*
X102371802Y-98793700D01*
X102368645Y-98798208D01*
X102368643Y-98798211D01*
X102337597Y-98842549D01*
X102240477Y-98981251D01*
X102238154Y-98986233D01*
X102238151Y-98986238D01*
X102146039Y-99183775D01*
X102143716Y-99188757D01*
X102142294Y-99194065D01*
X102142293Y-99194067D01*
X102088599Y-99394455D01*
X102084457Y-99409913D01*
X102080325Y-99457144D01*
X102073180Y-99538815D01*
X102069500Y-99580873D01*
X102069500Y-102095127D01*
X102084457Y-102266087D01*
X102085881Y-102271400D01*
X102085881Y-102271402D01*
X102126299Y-102422241D01*
X102143716Y-102487243D01*
X102146039Y-102492224D01*
X102146039Y-102492225D01*
X102238151Y-102689762D01*
X102238154Y-102689767D01*
X102240477Y-102694749D01*
X102243634Y-102699257D01*
X102364565Y-102871964D01*
X102371802Y-102882300D01*
X102533700Y-103044198D01*
X102538208Y-103047355D01*
X102538211Y-103047357D01*
X102551530Y-103056683D01*
X102721251Y-103175523D01*
X102726233Y-103177846D01*
X102726238Y-103177849D01*
X102831591Y-103226975D01*
X102928757Y-103272284D01*
X102934068Y-103273707D01*
X102934071Y-103273708D01*
X102988682Y-103288341D01*
X103045166Y-103320953D01*
X108102410Y-108378198D01*
X108102414Y-108378201D01*
X108146885Y-108422672D01*
X108180911Y-108484984D01*
X108175846Y-108555799D01*
X108127793Y-108616532D01*
X108074162Y-108652367D01*
X108071068Y-108655081D01*
X108071062Y-108655085D01*
X107854676Y-108844852D01*
X107851573Y-108847573D01*
X107848864Y-108850662D01*
X107659085Y-109067062D01*
X107659081Y-109067068D01*
X107656367Y-109070162D01*
X107654078Y-109073588D01*
X107654074Y-109073593D01*
X107576628Y-109189500D01*
X107491885Y-109316327D01*
X107360941Y-109581855D01*
X107265776Y-109862203D01*
X107208017Y-110152574D01*
X107207748Y-110156679D01*
X107207747Y-110156686D01*
X107190008Y-110427340D01*
X107188654Y-110448000D01*
X107188924Y-110452119D01*
X107206190Y-110715548D01*
X107208017Y-110743426D01*
X107265776Y-111033797D01*
X107360941Y-111314145D01*
X107407126Y-111407799D01*
X107475793Y-111547041D01*
X107491885Y-111579673D01*
X107530238Y-111637073D01*
X107579287Y-111710479D01*
X107656367Y-111825838D01*
X107659081Y-111828932D01*
X107659085Y-111828938D01*
X107848864Y-112045338D01*
X107851573Y-112048427D01*
X107854662Y-112051136D01*
X108071062Y-112240915D01*
X108071068Y-112240919D01*
X108074162Y-112243633D01*
X108077588Y-112245922D01*
X108077593Y-112245926D01*
X108159048Y-112300352D01*
X108320327Y-112408115D01*
X108324026Y-112409939D01*
X108324031Y-112409942D01*
X108408605Y-112451649D01*
X108585855Y-112539059D01*
X108589760Y-112540384D01*
X108589761Y-112540385D01*
X108862290Y-112632896D01*
X108862294Y-112632897D01*
X108866203Y-112634224D01*
X108870247Y-112635028D01*
X108870253Y-112635030D01*
X109152535Y-112691180D01*
X109152541Y-112691181D01*
X109156574Y-112691983D01*
X109160679Y-112692252D01*
X109160686Y-112692253D01*
X109447881Y-112711076D01*
X109452000Y-112711346D01*
X109456119Y-112711076D01*
X109743314Y-112692253D01*
X109743321Y-112692252D01*
X109747426Y-112691983D01*
X109751459Y-112691181D01*
X109751465Y-112691180D01*
X110033747Y-112635030D01*
X110033753Y-112635028D01*
X110037797Y-112634224D01*
X110041706Y-112632897D01*
X110041710Y-112632896D01*
X110314239Y-112540385D01*
X110314240Y-112540384D01*
X110318145Y-112539059D01*
X110495395Y-112451649D01*
X110579969Y-112409942D01*
X110579974Y-112409939D01*
X110583673Y-112408115D01*
X110744952Y-112300352D01*
X110826407Y-112245926D01*
X110826412Y-112245922D01*
X110829838Y-112243633D01*
X110830937Y-112242669D01*
X126814001Y-112242669D01*
X126814371Y-112249490D01*
X126819895Y-112300352D01*
X126823521Y-112315604D01*
X126868676Y-112436054D01*
X126877214Y-112451649D01*
X126953715Y-112553724D01*
X126966276Y-112566285D01*
X127068351Y-112642786D01*
X127083946Y-112651324D01*
X127204394Y-112696478D01*
X127219649Y-112700105D01*
X127270514Y-112705631D01*
X127277328Y-112706000D01*
X128799885Y-112706000D01*
X128815124Y-112701525D01*
X128816329Y-112700135D01*
X128818000Y-112692452D01*
X128818000Y-112687884D01*
X129326000Y-112687884D01*
X129330475Y-112703123D01*
X129331865Y-112704328D01*
X129339548Y-112705999D01*
X130866669Y-112705999D01*
X130873490Y-112705629D01*
X130924352Y-112700105D01*
X130939604Y-112696479D01*
X131060054Y-112651324D01*
X131075649Y-112642786D01*
X131177724Y-112566285D01*
X131190285Y-112553724D01*
X131266786Y-112451649D01*
X131275324Y-112436054D01*
X131320478Y-112315606D01*
X131324105Y-112300351D01*
X131329631Y-112249486D01*
X131330000Y-112242672D01*
X131330000Y-110720115D01*
X131325525Y-110704876D01*
X131324135Y-110703671D01*
X131316452Y-110702000D01*
X129344115Y-110702000D01*
X129328876Y-110706475D01*
X129327671Y-110707865D01*
X129326000Y-110715548D01*
X129326000Y-112687884D01*
X128818000Y-112687884D01*
X128818000Y-110720115D01*
X128813525Y-110704876D01*
X128812135Y-110703671D01*
X128804452Y-110702000D01*
X126832116Y-110702000D01*
X126816877Y-110706475D01*
X126815672Y-110707865D01*
X126814001Y-110715548D01*
X126814001Y-112242669D01*
X110830937Y-112242669D01*
X110832932Y-112240919D01*
X110832938Y-112240915D01*
X111049338Y-112051136D01*
X111052427Y-112048427D01*
X111055136Y-112045338D01*
X111244915Y-111828938D01*
X111244919Y-111828932D01*
X111247633Y-111825838D01*
X111289956Y-111762498D01*
X111344431Y-111716971D01*
X111394720Y-111706500D01*
X116790604Y-111706500D01*
X116807051Y-111707578D01*
X116823516Y-111709746D01*
X116823520Y-111709746D01*
X116829086Y-111710479D01*
X116910489Y-111706640D01*
X116916424Y-111706500D01*
X116938999Y-111706500D01*
X116964989Y-111704181D01*
X116970248Y-111703822D01*
X117053488Y-111699896D01*
X117058947Y-111698646D01*
X117058952Y-111698645D01*
X117070970Y-111695892D01*
X117087899Y-111693211D01*
X117105762Y-111691617D01*
X117111178Y-111690135D01*
X117111180Y-111690135D01*
X117186133Y-111669630D01*
X117191251Y-111668344D01*
X117267000Y-111650995D01*
X117267002Y-111650994D01*
X117272470Y-111649742D01*
X117282970Y-111645263D01*
X117288967Y-111642706D01*
X117305142Y-111637073D01*
X117317039Y-111633818D01*
X117317043Y-111633817D01*
X117322451Y-111632337D01*
X117397667Y-111596461D01*
X117402476Y-111594290D01*
X117473949Y-111563804D01*
X117473950Y-111563804D01*
X117479109Y-111561603D01*
X117494110Y-111551749D01*
X117509025Y-111543346D01*
X117525218Y-111535622D01*
X117529769Y-111532352D01*
X117529772Y-111532350D01*
X117592881Y-111487001D01*
X117597232Y-111484011D01*
X117663010Y-111440804D01*
X117663018Y-111440798D01*
X117666874Y-111438265D01*
X117687662Y-111419743D01*
X117697939Y-111411510D01*
X117707654Y-111404529D01*
X117782063Y-111327745D01*
X117783452Y-111326335D01*
X118933902Y-110175885D01*
X126814000Y-110175885D01*
X126818475Y-110191124D01*
X126819865Y-110192329D01*
X126827548Y-110194000D01*
X128799885Y-110194000D01*
X128815124Y-110189525D01*
X128816329Y-110188135D01*
X128818000Y-110180452D01*
X128818000Y-110175885D01*
X129326000Y-110175885D01*
X129330475Y-110191124D01*
X129331865Y-110192329D01*
X129339548Y-110194000D01*
X131311884Y-110194000D01*
X131327123Y-110189525D01*
X131328328Y-110188135D01*
X131329999Y-110180452D01*
X131329999Y-108653331D01*
X131329629Y-108646510D01*
X131324105Y-108595648D01*
X131320479Y-108580396D01*
X131275324Y-108459946D01*
X131266786Y-108444351D01*
X131190285Y-108342276D01*
X131177724Y-108329715D01*
X131075649Y-108253214D01*
X131060054Y-108244676D01*
X130939606Y-108199522D01*
X130924351Y-108195895D01*
X130873486Y-108190369D01*
X130866672Y-108190000D01*
X129344115Y-108190000D01*
X129328876Y-108194475D01*
X129327671Y-108195865D01*
X129326000Y-108203548D01*
X129326000Y-110175885D01*
X128818000Y-110175885D01*
X128818000Y-108208116D01*
X128813525Y-108192877D01*
X128812135Y-108191672D01*
X128804452Y-108190001D01*
X127277331Y-108190001D01*
X127270510Y-108190371D01*
X127219648Y-108195895D01*
X127204396Y-108199521D01*
X127083946Y-108244676D01*
X127068351Y-108253214D01*
X126966276Y-108329715D01*
X126953715Y-108342276D01*
X126877214Y-108444351D01*
X126868676Y-108459946D01*
X126823522Y-108580394D01*
X126819895Y-108595649D01*
X126814369Y-108646514D01*
X126814000Y-108653328D01*
X126814000Y-110175885D01*
X118933902Y-110175885D01*
X124767259Y-104342528D01*
X124779651Y-104331660D01*
X124792843Y-104321538D01*
X124792851Y-104321531D01*
X124797292Y-104318123D01*
X124852168Y-104257815D01*
X124856267Y-104253520D01*
X124872198Y-104237589D01*
X124888934Y-104217573D01*
X124892379Y-104213624D01*
X124944703Y-104156121D01*
X124944706Y-104156117D01*
X124948485Y-104151964D01*
X124958013Y-104136775D01*
X124968091Y-104122903D01*
X124975992Y-104113455D01*
X124975997Y-104113448D01*
X124979594Y-104109146D01*
X125020887Y-104036752D01*
X125023592Y-104032232D01*
X125027645Y-104025772D01*
X125050021Y-103990100D01*
X125064886Y-103966404D01*
X125064888Y-103966401D01*
X125067864Y-103961656D01*
X125074552Y-103945021D01*
X125082012Y-103929589D01*
X125088120Y-103918881D01*
X125088124Y-103918872D01*
X125090899Y-103914007D01*
X125092768Y-103908730D01*
X125092770Y-103908725D01*
X125118715Y-103835458D01*
X125120580Y-103830522D01*
X125149566Y-103758416D01*
X125151656Y-103753217D01*
X125155294Y-103735650D01*
X125159899Y-103719156D01*
X125165889Y-103702241D01*
X125168344Y-103687251D01*
X125179355Y-103620009D01*
X125180317Y-103614819D01*
X125196277Y-103537754D01*
X125196278Y-103537750D01*
X125197213Y-103533233D01*
X125198815Y-103505452D01*
X125200262Y-103492347D01*
X125201286Y-103486090D01*
X125201286Y-103486083D01*
X125202194Y-103480542D01*
X125201970Y-103466250D01*
X125200516Y-103373736D01*
X125200500Y-103371757D01*
X125200500Y-101452941D01*
X125219068Y-101387106D01*
X125287649Y-101275193D01*
X125287655Y-101275182D01*
X125290240Y-101270963D01*
X125381105Y-101051594D01*
X125436535Y-100820711D01*
X125455165Y-100584000D01*
X125436535Y-100347289D01*
X125381105Y-100116406D01*
X125290240Y-99897037D01*
X125191474Y-99735866D01*
X125168759Y-99698798D01*
X125168755Y-99698792D01*
X125166176Y-99694584D01*
X125011969Y-99514031D01*
X125007758Y-99510434D01*
X124940298Y-99452818D01*
X124831416Y-99359824D01*
X124704310Y-99281933D01*
X124656679Y-99229285D01*
X124645072Y-99159243D01*
X124673175Y-99094046D01*
X124732066Y-99054392D01*
X124770145Y-99048500D01*
X125664523Y-99048500D01*
X125732644Y-99068502D01*
X125753618Y-99085405D01*
X127527671Y-100859458D01*
X127561095Y-100919139D01*
X127592895Y-101051594D01*
X127683760Y-101270963D01*
X127686345Y-101275182D01*
X127686351Y-101275193D01*
X127754932Y-101387106D01*
X127773500Y-101452941D01*
X127773500Y-103286604D01*
X127772422Y-103303051D01*
X127769521Y-103325086D01*
X127772565Y-103389628D01*
X127773360Y-103406488D01*
X127773500Y-103412424D01*
X127773500Y-103434999D01*
X127773750Y-103437796D01*
X127775819Y-103460988D01*
X127776178Y-103466248D01*
X127780104Y-103549488D01*
X127781354Y-103554947D01*
X127781355Y-103554952D01*
X127784108Y-103566970D01*
X127786789Y-103583899D01*
X127788383Y-103601762D01*
X127789865Y-103607178D01*
X127789865Y-103607180D01*
X127810370Y-103682133D01*
X127811656Y-103687251D01*
X127826765Y-103753217D01*
X127830258Y-103768470D01*
X127832460Y-103773632D01*
X127837294Y-103784967D01*
X127842927Y-103801142D01*
X127847663Y-103818451D01*
X127850079Y-103823516D01*
X127883539Y-103893667D01*
X127885710Y-103898476D01*
X127918397Y-103975109D01*
X127928251Y-103990110D01*
X127936654Y-104005025D01*
X127944378Y-104021218D01*
X127947648Y-104025769D01*
X127947650Y-104025772D01*
X127992999Y-104088881D01*
X127995989Y-104093232D01*
X128039196Y-104159010D01*
X128039202Y-104159018D01*
X128041735Y-104162874D01*
X128060257Y-104183662D01*
X128068490Y-104193939D01*
X128075471Y-104203654D01*
X128110489Y-104237589D01*
X128152255Y-104278063D01*
X128153665Y-104279452D01*
X132509753Y-108635541D01*
X132543779Y-108697853D01*
X132538714Y-108768669D01*
X132503735Y-108819367D01*
X132471573Y-108847573D01*
X132468857Y-108850670D01*
X132468855Y-108850672D01*
X132279085Y-109067062D01*
X132279081Y-109067068D01*
X132276367Y-109070162D01*
X132274078Y-109073588D01*
X132274074Y-109073593D01*
X132196628Y-109189500D01*
X132111885Y-109316327D01*
X131980941Y-109581855D01*
X131885776Y-109862203D01*
X131828017Y-110152574D01*
X131827748Y-110156679D01*
X131827747Y-110156686D01*
X131810008Y-110427340D01*
X131808654Y-110448000D01*
X131808924Y-110452119D01*
X131826190Y-110715548D01*
X131828017Y-110743426D01*
X131885776Y-111033797D01*
X131980941Y-111314145D01*
X132027126Y-111407799D01*
X132095793Y-111547041D01*
X132111885Y-111579673D01*
X132150238Y-111637073D01*
X132199287Y-111710479D01*
X132276367Y-111825838D01*
X132279081Y-111828932D01*
X132279085Y-111828938D01*
X132468864Y-112045338D01*
X132471573Y-112048427D01*
X132474662Y-112051136D01*
X132691062Y-112240915D01*
X132691068Y-112240919D01*
X132694162Y-112243633D01*
X132697588Y-112245922D01*
X132697593Y-112245926D01*
X132779048Y-112300352D01*
X132940327Y-112408115D01*
X132944026Y-112409939D01*
X132944031Y-112409942D01*
X133028605Y-112451649D01*
X133205855Y-112539059D01*
X133209760Y-112540384D01*
X133209761Y-112540385D01*
X133482290Y-112632896D01*
X133482294Y-112632897D01*
X133486203Y-112634224D01*
X133490247Y-112635028D01*
X133490253Y-112635030D01*
X133772535Y-112691180D01*
X133772541Y-112691181D01*
X133776574Y-112691983D01*
X133780679Y-112692252D01*
X133780686Y-112692253D01*
X134067881Y-112711076D01*
X134072000Y-112711346D01*
X134076119Y-112711076D01*
X134363314Y-112692253D01*
X134363321Y-112692252D01*
X134367426Y-112691983D01*
X134371459Y-112691181D01*
X134371465Y-112691180D01*
X134653747Y-112635030D01*
X134653753Y-112635028D01*
X134657797Y-112634224D01*
X134661706Y-112632897D01*
X134661710Y-112632896D01*
X134934239Y-112540385D01*
X134934240Y-112540384D01*
X134938145Y-112539059D01*
X135115395Y-112451649D01*
X135199969Y-112409942D01*
X135199974Y-112409939D01*
X135203673Y-112408115D01*
X135364952Y-112300352D01*
X135446407Y-112245926D01*
X135446412Y-112245922D01*
X135449838Y-112243633D01*
X135452932Y-112240919D01*
X135452938Y-112240915D01*
X135669338Y-112051136D01*
X135672427Y-112048427D01*
X135675136Y-112045338D01*
X135864915Y-111828938D01*
X135864919Y-111828932D01*
X135867633Y-111825838D01*
X135909956Y-111762498D01*
X135964431Y-111716971D01*
X136014720Y-111706500D01*
X136475604Y-111706500D01*
X136492051Y-111707578D01*
X136508516Y-111709746D01*
X136508520Y-111709746D01*
X136514086Y-111710479D01*
X136595489Y-111706640D01*
X136601424Y-111706500D01*
X136623999Y-111706500D01*
X136649989Y-111704181D01*
X136655248Y-111703822D01*
X136738488Y-111699896D01*
X136743947Y-111698646D01*
X136743952Y-111698645D01*
X136755970Y-111695892D01*
X136772899Y-111693211D01*
X136790762Y-111691617D01*
X136796178Y-111690135D01*
X136796180Y-111690135D01*
X136871133Y-111669630D01*
X136876251Y-111668344D01*
X136952000Y-111650995D01*
X136952002Y-111650994D01*
X136957470Y-111649742D01*
X136967970Y-111645263D01*
X136973967Y-111642706D01*
X136990142Y-111637073D01*
X137002039Y-111633818D01*
X137002043Y-111633817D01*
X137007451Y-111632337D01*
X137082667Y-111596461D01*
X137087476Y-111594290D01*
X137158949Y-111563804D01*
X137158950Y-111563804D01*
X137164109Y-111561603D01*
X137179110Y-111551749D01*
X137194025Y-111543346D01*
X137210218Y-111535622D01*
X137214769Y-111532352D01*
X137214772Y-111532350D01*
X137277881Y-111487001D01*
X137282232Y-111484011D01*
X137348010Y-111440804D01*
X137348018Y-111440798D01*
X137351874Y-111438265D01*
X137372662Y-111419743D01*
X137382939Y-111411510D01*
X137392654Y-111404529D01*
X137467063Y-111327745D01*
X137468452Y-111326335D01*
X144452259Y-104342528D01*
X144464651Y-104331660D01*
X144477843Y-104321538D01*
X144477851Y-104321531D01*
X144482292Y-104318123D01*
X144537168Y-104257815D01*
X144541267Y-104253520D01*
X144557198Y-104237589D01*
X144573934Y-104217573D01*
X144577379Y-104213624D01*
X144629703Y-104156121D01*
X144629706Y-104156117D01*
X144633485Y-104151964D01*
X144643013Y-104136775D01*
X144653091Y-104122903D01*
X144660992Y-104113455D01*
X144660997Y-104113448D01*
X144664594Y-104109146D01*
X144705887Y-104036752D01*
X144708592Y-104032232D01*
X144712645Y-104025772D01*
X144735021Y-103990100D01*
X144749886Y-103966404D01*
X144749888Y-103966401D01*
X144752864Y-103961656D01*
X144759552Y-103945021D01*
X144767012Y-103929589D01*
X144773120Y-103918881D01*
X144773124Y-103918872D01*
X144775899Y-103914007D01*
X144777768Y-103908730D01*
X144777770Y-103908725D01*
X144803715Y-103835458D01*
X144805580Y-103830522D01*
X144834566Y-103758416D01*
X144836656Y-103753217D01*
X144840294Y-103735650D01*
X144844899Y-103719156D01*
X144850889Y-103702241D01*
X144853344Y-103687251D01*
X144864355Y-103620009D01*
X144865317Y-103614819D01*
X144881277Y-103537754D01*
X144881278Y-103537750D01*
X144882213Y-103533233D01*
X144883815Y-103505452D01*
X144885262Y-103492347D01*
X144886286Y-103486090D01*
X144886286Y-103486083D01*
X144887194Y-103480542D01*
X144886970Y-103466250D01*
X144885516Y-103373736D01*
X144885500Y-103371757D01*
X144885500Y-101452941D01*
X144904068Y-101387106D01*
X144972649Y-101275193D01*
X144972655Y-101275182D01*
X144975240Y-101270963D01*
X145066105Y-101051594D01*
X145121535Y-100820711D01*
X145140165Y-100584000D01*
X145121535Y-100347289D01*
X145066105Y-100116406D01*
X144975240Y-99897037D01*
X144876474Y-99735866D01*
X144853759Y-99698798D01*
X144853755Y-99698792D01*
X144851176Y-99694584D01*
X144696969Y-99514031D01*
X144692758Y-99510434D01*
X144625298Y-99452818D01*
X144516416Y-99359824D01*
X144512203Y-99357242D01*
X144512202Y-99357241D01*
X144318183Y-99238346D01*
X144313963Y-99235760D01*
X144309393Y-99233867D01*
X144309389Y-99233865D01*
X144099167Y-99146789D01*
X144099165Y-99146788D01*
X144094594Y-99144895D01*
X144003532Y-99123033D01*
X143868524Y-99090620D01*
X143868518Y-99090619D01*
X143863711Y-99089465D01*
X143627000Y-99070835D01*
X143390289Y-99089465D01*
X143385482Y-99090619D01*
X143385476Y-99090620D01*
X143250468Y-99123033D01*
X143159406Y-99144895D01*
X143154835Y-99146788D01*
X143154833Y-99146789D01*
X142944611Y-99233865D01*
X142944607Y-99233867D01*
X142940037Y-99235760D01*
X142935817Y-99238346D01*
X142741798Y-99357241D01*
X142741797Y-99357242D01*
X142737584Y-99359824D01*
X142628702Y-99452818D01*
X142561243Y-99510434D01*
X142557031Y-99514031D01*
X142402824Y-99694584D01*
X142400245Y-99698792D01*
X142400241Y-99698798D01*
X142377526Y-99735866D01*
X142278760Y-99897037D01*
X142187895Y-100116406D01*
X142132465Y-100347289D01*
X142113835Y-100584000D01*
X142132465Y-100820711D01*
X142187895Y-101051594D01*
X142278760Y-101270963D01*
X142281345Y-101275182D01*
X142281351Y-101275193D01*
X142349932Y-101387106D01*
X142368500Y-101452941D01*
X142368500Y-102814522D01*
X142348498Y-102882643D01*
X142331595Y-102903617D01*
X136095325Y-109139887D01*
X136033013Y-109173913D01*
X135962198Y-109168848D01*
X135901466Y-109120795D01*
X135869929Y-109073597D01*
X135869923Y-109073589D01*
X135867633Y-109070162D01*
X135864919Y-109067068D01*
X135864915Y-109067062D01*
X135675136Y-108850662D01*
X135672427Y-108847573D01*
X135669324Y-108844852D01*
X135452938Y-108655085D01*
X135452932Y-108655081D01*
X135449838Y-108652367D01*
X135446411Y-108650077D01*
X135446407Y-108650074D01*
X135386996Y-108610377D01*
X135341468Y-108555900D01*
X135332076Y-108489165D01*
X135333746Y-108476482D01*
X135333746Y-108476480D01*
X135334479Y-108470913D01*
X135330640Y-108389511D01*
X135330500Y-108383576D01*
X135330500Y-108361001D01*
X135328181Y-108335011D01*
X135327822Y-108329749D01*
X135324160Y-108252113D01*
X135323896Y-108246512D01*
X135319892Y-108229030D01*
X135317211Y-108212100D01*
X135315617Y-108194238D01*
X135293630Y-108113867D01*
X135292344Y-108108749D01*
X135274995Y-108033000D01*
X135274994Y-108032998D01*
X135273742Y-108027530D01*
X135266706Y-108011033D01*
X135261073Y-107994858D01*
X135257818Y-107982961D01*
X135257817Y-107982957D01*
X135256337Y-107977549D01*
X135220461Y-107902333D01*
X135218290Y-107897524D01*
X135187804Y-107826051D01*
X135187804Y-107826050D01*
X135185603Y-107820891D01*
X135175749Y-107805890D01*
X135167343Y-107790970D01*
X135162035Y-107779841D01*
X135159622Y-107774782D01*
X135156354Y-107770234D01*
X135156351Y-107770229D01*
X135110998Y-107707114D01*
X135108009Y-107702765D01*
X135062265Y-107633125D01*
X135043747Y-107612341D01*
X135035498Y-107602045D01*
X135031804Y-107596904D01*
X135028529Y-107592346D01*
X134951777Y-107517968D01*
X134950367Y-107516579D01*
X130327405Y-102893617D01*
X130293379Y-102831305D01*
X130290500Y-102804522D01*
X130290500Y-101452941D01*
X130309068Y-101387106D01*
X130377649Y-101275193D01*
X130377655Y-101275182D01*
X130380240Y-101270963D01*
X130471105Y-101051594D01*
X130526535Y-100820711D01*
X130545165Y-100584000D01*
X130526535Y-100347289D01*
X130471105Y-100116406D01*
X130380240Y-99897037D01*
X130281474Y-99735866D01*
X130258759Y-99698798D01*
X130258755Y-99698792D01*
X130256176Y-99694584D01*
X130101969Y-99514031D01*
X130097758Y-99510434D01*
X130030298Y-99452818D01*
X129921416Y-99359824D01*
X129917203Y-99357242D01*
X129917202Y-99357241D01*
X129723183Y-99238346D01*
X129718963Y-99235760D01*
X129714393Y-99233867D01*
X129714389Y-99233865D01*
X129504167Y-99146789D01*
X129504165Y-99146788D01*
X129499594Y-99144895D01*
X129408531Y-99123033D01*
X129367141Y-99113096D01*
X129307460Y-99079672D01*
X127192525Y-96964737D01*
X127181657Y-96952346D01*
X127171533Y-96939152D01*
X127168123Y-96934708D01*
X127107826Y-96879842D01*
X127103531Y-96875743D01*
X127087590Y-96859802D01*
X127085440Y-96858004D01*
X127067577Y-96843068D01*
X127063602Y-96839600D01*
X127006112Y-96787288D01*
X127006103Y-96787281D01*
X127001964Y-96783515D01*
X126986773Y-96773986D01*
X126972907Y-96763911D01*
X126963451Y-96756004D01*
X126963441Y-96755997D01*
X126959146Y-96752406D01*
X126886752Y-96711113D01*
X126882232Y-96708408D01*
X126877841Y-96705653D01*
X126846900Y-96686244D01*
X126816404Y-96667114D01*
X126816401Y-96667112D01*
X126811656Y-96664136D01*
X126806451Y-96662043D01*
X126806448Y-96662042D01*
X126795021Y-96657448D01*
X126779589Y-96649988D01*
X126768881Y-96643880D01*
X126768872Y-96643876D01*
X126764007Y-96641101D01*
X126758730Y-96639232D01*
X126758725Y-96639230D01*
X126685458Y-96613285D01*
X126680522Y-96611420D01*
X126608416Y-96582434D01*
X126603217Y-96580344D01*
X126597730Y-96579208D01*
X126597728Y-96579207D01*
X126585651Y-96576706D01*
X126569156Y-96572101D01*
X126552241Y-96566111D01*
X126469990Y-96552641D01*
X126464820Y-96551683D01*
X126383233Y-96534787D01*
X126378621Y-96534521D01*
X126378620Y-96534521D01*
X126355452Y-96533185D01*
X126342347Y-96531738D01*
X126336090Y-96530714D01*
X126336086Y-96530714D01*
X126330543Y-96529806D01*
X126324930Y-96529894D01*
X126324928Y-96529894D01*
X126223736Y-96531484D01*
X126221757Y-96531500D01*
X123281396Y-96531500D01*
X123264949Y-96530422D01*
X123260270Y-96529806D01*
X123242914Y-96527521D01*
X123237314Y-96527785D01*
X123237313Y-96527785D01*
X123161504Y-96531360D01*
X123155569Y-96531500D01*
X123133001Y-96531500D01*
X123130218Y-96531748D01*
X123130204Y-96531749D01*
X123107023Y-96533818D01*
X123101760Y-96534177D01*
X123072342Y-96535564D01*
X123018512Y-96538103D01*
X123001023Y-96542108D01*
X122984104Y-96544788D01*
X122979618Y-96545189D01*
X122966238Y-96546383D01*
X122960830Y-96547862D01*
X122960827Y-96547863D01*
X122885870Y-96568369D01*
X122880752Y-96569655D01*
X122823946Y-96582666D01*
X122799530Y-96588258D01*
X122783037Y-96595293D01*
X122766855Y-96600928D01*
X122754967Y-96604180D01*
X122754958Y-96604183D01*
X122749549Y-96605663D01*
X122744486Y-96608078D01*
X122744475Y-96608082D01*
X122674343Y-96641534D01*
X122669542Y-96643702D01*
X122592892Y-96676396D01*
X122588204Y-96679475D01*
X122588203Y-96679476D01*
X122577900Y-96686244D01*
X122562971Y-96694656D01*
X122546782Y-96702378D01*
X122542226Y-96705652D01*
X122542224Y-96705653D01*
X122479122Y-96750997D01*
X122474771Y-96753987D01*
X122408992Y-96797195D01*
X122408987Y-96797199D01*
X122405126Y-96799735D01*
X122401675Y-96802810D01*
X122384346Y-96818249D01*
X122374055Y-96826494D01*
X122368907Y-96830193D01*
X122368903Y-96830197D01*
X122364346Y-96833471D01*
X122336904Y-96861789D01*
X122289968Y-96910223D01*
X122288579Y-96911633D01*
X120586737Y-98613475D01*
X120574347Y-98624342D01*
X120556708Y-98637877D01*
X120542294Y-98653718D01*
X120501842Y-98698174D01*
X120497743Y-98702469D01*
X120481802Y-98718410D01*
X120480007Y-98720557D01*
X120480005Y-98720559D01*
X120465068Y-98738423D01*
X120461600Y-98742398D01*
X120409288Y-98799888D01*
X120409281Y-98799897D01*
X120405515Y-98804036D01*
X120402538Y-98808782D01*
X120402537Y-98808783D01*
X120395987Y-98819225D01*
X120385911Y-98833093D01*
X120378004Y-98842549D01*
X120377997Y-98842559D01*
X120374406Y-98846854D01*
X120371630Y-98851721D01*
X120371625Y-98851728D01*
X120355947Y-98879214D01*
X120304822Y-98928476D01*
X120235179Y-98942276D01*
X120169131Y-98916235D01*
X120127647Y-98858619D01*
X120120500Y-98816786D01*
X120120500Y-92746134D01*
X127908500Y-92746134D01*
X127915255Y-92808316D01*
X127966385Y-92944705D01*
X128053739Y-93061261D01*
X128170295Y-93148615D01*
X128306684Y-93199745D01*
X128368866Y-93206500D01*
X129093523Y-93206500D01*
X129161644Y-93226502D01*
X129182618Y-93243405D01*
X132816595Y-96877383D01*
X132850621Y-96939695D01*
X132853500Y-96966478D01*
X132853500Y-99715059D01*
X132834932Y-99780894D01*
X132766351Y-99892807D01*
X132766346Y-99892817D01*
X132763760Y-99897037D01*
X132672895Y-100116406D01*
X132617465Y-100347289D01*
X132598835Y-100584000D01*
X132617465Y-100820711D01*
X132672895Y-101051594D01*
X132763760Y-101270963D01*
X132766346Y-101275183D01*
X132885241Y-101469202D01*
X132885245Y-101469208D01*
X132887824Y-101473416D01*
X133042031Y-101653969D01*
X133222584Y-101808176D01*
X133226792Y-101810755D01*
X133226798Y-101810759D01*
X133420809Y-101929649D01*
X133425037Y-101932240D01*
X133429607Y-101934133D01*
X133429611Y-101934135D01*
X133639833Y-102021211D01*
X133644406Y-102023105D01*
X133724609Y-102042360D01*
X133870476Y-102077380D01*
X133870482Y-102077381D01*
X133875289Y-102078535D01*
X134112000Y-102097165D01*
X134348711Y-102078535D01*
X134353518Y-102077381D01*
X134353524Y-102077380D01*
X134499391Y-102042360D01*
X134579594Y-102023105D01*
X134584167Y-102021211D01*
X134794389Y-101934135D01*
X134794393Y-101934133D01*
X134798963Y-101932240D01*
X134803191Y-101929649D01*
X134997202Y-101810759D01*
X134997208Y-101810755D01*
X135001416Y-101808176D01*
X135181969Y-101653969D01*
X135336176Y-101473416D01*
X135338755Y-101469208D01*
X135338759Y-101469202D01*
X135457654Y-101275183D01*
X135460240Y-101270963D01*
X135551105Y-101051594D01*
X135606535Y-100820711D01*
X135625165Y-100584000D01*
X137033835Y-100584000D01*
X137052465Y-100820711D01*
X137107895Y-101051594D01*
X137198760Y-101270963D01*
X137201346Y-101275183D01*
X137320241Y-101469202D01*
X137320245Y-101469208D01*
X137322824Y-101473416D01*
X137477031Y-101653969D01*
X137657584Y-101808176D01*
X137661792Y-101810755D01*
X137661798Y-101810759D01*
X137855809Y-101929649D01*
X137860037Y-101932240D01*
X137864607Y-101934133D01*
X137864611Y-101934135D01*
X138074833Y-102021211D01*
X138079406Y-102023105D01*
X138159609Y-102042360D01*
X138305476Y-102077380D01*
X138305482Y-102077381D01*
X138310289Y-102078535D01*
X138547000Y-102097165D01*
X138783711Y-102078535D01*
X138788518Y-102077381D01*
X138788524Y-102077380D01*
X138934391Y-102042360D01*
X139014594Y-102023105D01*
X139019167Y-102021211D01*
X139229389Y-101934135D01*
X139229393Y-101934133D01*
X139233963Y-101932240D01*
X139238191Y-101929649D01*
X139432202Y-101810759D01*
X139432208Y-101810755D01*
X139436416Y-101808176D01*
X139616969Y-101653969D01*
X139771176Y-101473416D01*
X139773755Y-101469208D01*
X139773759Y-101469202D01*
X139892654Y-101275183D01*
X139895240Y-101270963D01*
X139986105Y-101051594D01*
X140017905Y-100919139D01*
X140051329Y-100859458D01*
X141287259Y-99623528D01*
X141299651Y-99612660D01*
X141312843Y-99602538D01*
X141312851Y-99602531D01*
X141317292Y-99599123D01*
X141372168Y-99538815D01*
X141376267Y-99534520D01*
X141392198Y-99518589D01*
X141408934Y-99498573D01*
X141412379Y-99494624D01*
X141464703Y-99437121D01*
X141464706Y-99437117D01*
X141468485Y-99432964D01*
X141478013Y-99417775D01*
X141488091Y-99403903D01*
X141495992Y-99394455D01*
X141495997Y-99394448D01*
X141499594Y-99390146D01*
X141540887Y-99317752D01*
X141543592Y-99313232D01*
X141584886Y-99247404D01*
X141584888Y-99247401D01*
X141587864Y-99242656D01*
X141589958Y-99237448D01*
X141594552Y-99226021D01*
X141602012Y-99210589D01*
X141608120Y-99199881D01*
X141608124Y-99199872D01*
X141610899Y-99195007D01*
X141612768Y-99189730D01*
X141612770Y-99189725D01*
X141638715Y-99116458D01*
X141640580Y-99111522D01*
X141669566Y-99039416D01*
X141671656Y-99034217D01*
X141675294Y-99016650D01*
X141679899Y-99000156D01*
X141685889Y-98983241D01*
X141699359Y-98900990D01*
X141700319Y-98895811D01*
X141716276Y-98818758D01*
X141716276Y-98818757D01*
X141717213Y-98814233D01*
X141718815Y-98786452D01*
X141720262Y-98773347D01*
X141721286Y-98767090D01*
X141721286Y-98767086D01*
X141722194Y-98761543D01*
X141721199Y-98698174D01*
X141720516Y-98654736D01*
X141720500Y-98652757D01*
X141720500Y-93322493D01*
X141740502Y-93254372D01*
X141794158Y-93207879D01*
X141815763Y-93200457D01*
X141822316Y-93199745D01*
X141829711Y-93196973D01*
X141829714Y-93196972D01*
X141950297Y-93151767D01*
X141958705Y-93148615D01*
X142075261Y-93061261D01*
X142162615Y-92944705D01*
X142213745Y-92808316D01*
X142220500Y-92746134D01*
X142220500Y-91149866D01*
X142213745Y-91087684D01*
X142162615Y-90951295D01*
X142075261Y-90834739D01*
X141958705Y-90747385D01*
X141822316Y-90696255D01*
X141760134Y-90689500D01*
X141725823Y-90689500D01*
X141657702Y-90669498D01*
X141611209Y-90615842D01*
X141601105Y-90545568D01*
X141630599Y-90480988D01*
X141652297Y-90461177D01*
X141782767Y-90367425D01*
X141791233Y-90360117D01*
X141939692Y-90206918D01*
X141946735Y-90198221D01*
X142065719Y-90021156D01*
X142071105Y-90011358D01*
X142156857Y-89816010D01*
X142160422Y-89805418D01*
X142190624Y-89679616D01*
X142189919Y-89665530D01*
X142181040Y-89662000D01*
X138743589Y-89662000D01*
X138729607Y-89666105D01*
X138728114Y-89675728D01*
X138728166Y-89675973D01*
X138790898Y-89879883D01*
X138795119Y-89890229D01*
X138892971Y-90079814D01*
X138898957Y-90089245D01*
X139028832Y-90258501D01*
X139036393Y-90266724D01*
X139194194Y-90410312D01*
X139203089Y-90417064D01*
X139266375Y-90456763D01*
X139313452Y-90509907D01*
X139324324Y-90580066D01*
X139295540Y-90644965D01*
X139236237Y-90684000D01*
X139199418Y-90689500D01*
X139163866Y-90689500D01*
X139101684Y-90696255D01*
X138965295Y-90747385D01*
X138848739Y-90834739D01*
X138761385Y-90951295D01*
X138710255Y-91087684D01*
X138703500Y-91149866D01*
X138703500Y-92746134D01*
X138710255Y-92808316D01*
X138761385Y-92944705D01*
X138848739Y-93061261D01*
X138965295Y-93148615D01*
X138973703Y-93151767D01*
X139094286Y-93196972D01*
X139094289Y-93196973D01*
X139101684Y-93199745D01*
X139107453Y-93200372D01*
X139168291Y-93235126D01*
X139201113Y-93298081D01*
X139203500Y-93322493D01*
X139203500Y-98095523D01*
X139183498Y-98163644D01*
X139166595Y-98184618D01*
X138271541Y-99079672D01*
X138211860Y-99113096D01*
X138079406Y-99144895D01*
X138074835Y-99146788D01*
X138074833Y-99146789D01*
X137864611Y-99233865D01*
X137864607Y-99233867D01*
X137860037Y-99235760D01*
X137855817Y-99238346D01*
X137661798Y-99357241D01*
X137661797Y-99357242D01*
X137657584Y-99359824D01*
X137548702Y-99452818D01*
X137481243Y-99510434D01*
X137477031Y-99514031D01*
X137322824Y-99694584D01*
X137320245Y-99698792D01*
X137320241Y-99698798D01*
X137297526Y-99735866D01*
X137198760Y-99897037D01*
X137107895Y-100116406D01*
X137052465Y-100347289D01*
X137033835Y-100584000D01*
X135625165Y-100584000D01*
X135606535Y-100347289D01*
X135551105Y-100116406D01*
X135460240Y-99897037D01*
X135457654Y-99892817D01*
X135457649Y-99892807D01*
X135389068Y-99780894D01*
X135370500Y-99715059D01*
X135370500Y-96484395D01*
X135371578Y-96467948D01*
X135373746Y-96451483D01*
X135373746Y-96451479D01*
X135374479Y-96445913D01*
X135370640Y-96364511D01*
X135370500Y-96358576D01*
X135370500Y-96336001D01*
X135368181Y-96310011D01*
X135367822Y-96304749D01*
X135364160Y-96227113D01*
X135363896Y-96221512D01*
X135359892Y-96204030D01*
X135357211Y-96187100D01*
X135356116Y-96174832D01*
X135355617Y-96169238D01*
X135333630Y-96088867D01*
X135332344Y-96083749D01*
X135314995Y-96008000D01*
X135314994Y-96007998D01*
X135313742Y-96002530D01*
X135306706Y-95986033D01*
X135301073Y-95969858D01*
X135297818Y-95957961D01*
X135297817Y-95957957D01*
X135296337Y-95952549D01*
X135260461Y-95877333D01*
X135258290Y-95872524D01*
X135227804Y-95801051D01*
X135227804Y-95801050D01*
X135225603Y-95795891D01*
X135215749Y-95780890D01*
X135207343Y-95765970D01*
X135202035Y-95754841D01*
X135199622Y-95749782D01*
X135196354Y-95745234D01*
X135196351Y-95745229D01*
X135150998Y-95682114D01*
X135148009Y-95677765D01*
X135102265Y-95608125D01*
X135083747Y-95587341D01*
X135075498Y-95577045D01*
X135071804Y-95571904D01*
X135068529Y-95567346D01*
X134991777Y-95492968D01*
X134990367Y-95491579D01*
X131462405Y-91963617D01*
X131428379Y-91901305D01*
X131425500Y-91874522D01*
X131425500Y-91149866D01*
X131418745Y-91087684D01*
X131367615Y-90951295D01*
X131280261Y-90834739D01*
X131163705Y-90747385D01*
X131027316Y-90696255D01*
X130965134Y-90689500D01*
X130930823Y-90689500D01*
X130862702Y-90669498D01*
X130816209Y-90615842D01*
X130806105Y-90545568D01*
X130835599Y-90480988D01*
X130857297Y-90461177D01*
X130987767Y-90367425D01*
X130996233Y-90360117D01*
X131144692Y-90206918D01*
X131151735Y-90198221D01*
X131270719Y-90021156D01*
X131276105Y-90011358D01*
X131361857Y-89816010D01*
X131365422Y-89805418D01*
X131395624Y-89679616D01*
X131394919Y-89665530D01*
X131386040Y-89662000D01*
X127948589Y-89662000D01*
X127934607Y-89666105D01*
X127933114Y-89675728D01*
X127933166Y-89675973D01*
X127995898Y-89879883D01*
X128000119Y-89890229D01*
X128097971Y-90079814D01*
X128103957Y-90089245D01*
X128233832Y-90258501D01*
X128241393Y-90266724D01*
X128399194Y-90410312D01*
X128408089Y-90417064D01*
X128471375Y-90456763D01*
X128518452Y-90509907D01*
X128529324Y-90580066D01*
X128500540Y-90644965D01*
X128441237Y-90684000D01*
X128404418Y-90689500D01*
X128368866Y-90689500D01*
X128306684Y-90696255D01*
X128170295Y-90747385D01*
X128053739Y-90834739D01*
X127966385Y-90951295D01*
X127915255Y-91087684D01*
X127908500Y-91149866D01*
X127908500Y-92746134D01*
X120120500Y-92746134D01*
X120120500Y-92664395D01*
X120121578Y-92647948D01*
X120123746Y-92631483D01*
X120123746Y-92631479D01*
X120124479Y-92625913D01*
X120120640Y-92544510D01*
X120120500Y-92538575D01*
X120120500Y-92516001D01*
X120118181Y-92490013D01*
X120117822Y-92484750D01*
X120114160Y-92407112D01*
X120113896Y-92401511D01*
X120112645Y-92396048D01*
X120112644Y-92396042D01*
X120109893Y-92384032D01*
X120107211Y-92367099D01*
X120106116Y-92354832D01*
X120105617Y-92349238D01*
X120083624Y-92268848D01*
X120082341Y-92263739D01*
X120082046Y-92262452D01*
X120063742Y-92182530D01*
X120056706Y-92166033D01*
X120051073Y-92149858D01*
X120047818Y-92137961D01*
X120047817Y-92137957D01*
X120046337Y-92132549D01*
X120013845Y-92064428D01*
X120010461Y-92057333D01*
X120008291Y-92052527D01*
X120005604Y-92046228D01*
X119995500Y-91996790D01*
X119995500Y-91149866D01*
X119988745Y-91087684D01*
X119937615Y-90951295D01*
X119850261Y-90834739D01*
X119733705Y-90747385D01*
X119597316Y-90696255D01*
X119535134Y-90689500D01*
X119500823Y-90689500D01*
X119432702Y-90669498D01*
X119386209Y-90615842D01*
X119376105Y-90545568D01*
X119405599Y-90480988D01*
X119427297Y-90461177D01*
X119557767Y-90367425D01*
X119566233Y-90360117D01*
X119714692Y-90206918D01*
X119721735Y-90198221D01*
X119840719Y-90021156D01*
X119846105Y-90011358D01*
X119931857Y-89816010D01*
X119935422Y-89805418D01*
X119965624Y-89679616D01*
X119964919Y-89665530D01*
X119956040Y-89662000D01*
X116518589Y-89662000D01*
X116504607Y-89666105D01*
X116503114Y-89675728D01*
X116503166Y-89675973D01*
X116565898Y-89879883D01*
X116570119Y-89890229D01*
X116667971Y-90079814D01*
X116673957Y-90089245D01*
X116803832Y-90258501D01*
X116811393Y-90266724D01*
X116969194Y-90410312D01*
X116978089Y-90417064D01*
X117041375Y-90456763D01*
X117088452Y-90509907D01*
X117099324Y-90580066D01*
X117070540Y-90644965D01*
X117011237Y-90684000D01*
X116974418Y-90689500D01*
X116938866Y-90689500D01*
X116876684Y-90696255D01*
X116740295Y-90747385D01*
X116623739Y-90834739D01*
X116536385Y-90951295D01*
X116485255Y-91087684D01*
X116478500Y-91149866D01*
X116478500Y-92746134D01*
X116485255Y-92808316D01*
X116536385Y-92944705D01*
X116623739Y-93061261D01*
X116740295Y-93148615D01*
X116876684Y-93199745D01*
X116938866Y-93206500D01*
X117477500Y-93206500D01*
X117545621Y-93226502D01*
X117592114Y-93280158D01*
X117603500Y-93332500D01*
X117603500Y-99199500D01*
X117583498Y-99267621D01*
X117529842Y-99314114D01*
X117477500Y-99325500D01*
X116049626Y-99325500D01*
X116005397Y-99317482D01*
X115918824Y-99285027D01*
X115918822Y-99285027D01*
X115911429Y-99282255D01*
X115903581Y-99281402D01*
X115903579Y-99281402D01*
X115852644Y-99275869D01*
X115849247Y-99275500D01*
X114152979Y-99275500D01*
X114090797Y-99282255D01*
X113954408Y-99333385D01*
X113933888Y-99348764D01*
X113845035Y-99415355D01*
X113845032Y-99415358D01*
X113837852Y-99420739D01*
X113832471Y-99427919D01*
X113826120Y-99434270D01*
X113823978Y-99432128D01*
X113779267Y-99465564D01*
X113708449Y-99470594D01*
X113667078Y-99452477D01*
X113666881Y-99452818D01*
X113663815Y-99451048D01*
X113663023Y-99450701D01*
X113662124Y-99450071D01*
X113652624Y-99444586D01*
X113455166Y-99352510D01*
X113444874Y-99348764D01*
X113234425Y-99292375D01*
X113223632Y-99290472D01*
X113006588Y-99271483D01*
X112995638Y-99271483D01*
X112778594Y-99290472D01*
X112767801Y-99292375D01*
X112557352Y-99348764D01*
X112547060Y-99352510D01*
X112349602Y-99444586D01*
X112340107Y-99450069D01*
X112288065Y-99486509D01*
X112279689Y-99496988D01*
X112286757Y-99510434D01*
X113271228Y-100494905D01*
X113305254Y-100557217D01*
X113300189Y-100628032D01*
X113271228Y-100673095D01*
X112286036Y-101658287D01*
X112279606Y-101670062D01*
X112288902Y-101682077D01*
X112340107Y-101717931D01*
X112349602Y-101723414D01*
X112547060Y-101815490D01*
X112557352Y-101819236D01*
X112767801Y-101875625D01*
X112778594Y-101877528D01*
X112995638Y-101896517D01*
X113006588Y-101896517D01*
X113223632Y-101877528D01*
X113234425Y-101875625D01*
X113444874Y-101819236D01*
X113455166Y-101815490D01*
X113652624Y-101723414D01*
X113662124Y-101717929D01*
X113663023Y-101717299D01*
X113663483Y-101717144D01*
X113666881Y-101715182D01*
X113667275Y-101715865D01*
X113730297Y-101694612D01*
X113799157Y-101711898D01*
X113824916Y-101734934D01*
X113826120Y-101733730D01*
X113832471Y-101740081D01*
X113837852Y-101747261D01*
X113845032Y-101752642D01*
X113845035Y-101752645D01*
X113908611Y-101800292D01*
X113954408Y-101834615D01*
X114090797Y-101885745D01*
X114152979Y-101892500D01*
X115849247Y-101892500D01*
X115852644Y-101892131D01*
X115903579Y-101886598D01*
X115903581Y-101886598D01*
X115911429Y-101885745D01*
X115918822Y-101882973D01*
X115918824Y-101882973D01*
X116005397Y-101850518D01*
X116049626Y-101842500D01*
X117993059Y-101842500D01*
X118058894Y-101861068D01*
X118170807Y-101929649D01*
X118170817Y-101929654D01*
X118175037Y-101932240D01*
X118179607Y-101934133D01*
X118179611Y-101934135D01*
X118389833Y-102021211D01*
X118394406Y-102023105D01*
X118474609Y-102042360D01*
X118620476Y-102077380D01*
X118620482Y-102077381D01*
X118625289Y-102078535D01*
X118862000Y-102097165D01*
X119098711Y-102078535D01*
X119103518Y-102077381D01*
X119103524Y-102077380D01*
X119249391Y-102042360D01*
X119329594Y-102023105D01*
X119334169Y-102021210D01*
X119334172Y-102021209D01*
X119405895Y-101991501D01*
X119476484Y-101983912D01*
X119539971Y-102015692D01*
X119576198Y-102076750D01*
X119573664Y-102147701D01*
X119543207Y-102197005D01*
X117117617Y-104622595D01*
X117055305Y-104656621D01*
X117028522Y-104659500D01*
X113095478Y-104659500D01*
X113027357Y-104639498D01*
X113006383Y-104622595D01*
X111277405Y-102893617D01*
X111243379Y-102831305D01*
X111240500Y-102804522D01*
X111240500Y-100589475D01*
X111688596Y-100589475D01*
X111707585Y-100806519D01*
X111709488Y-100817312D01*
X111765877Y-101027761D01*
X111769623Y-101038053D01*
X111861699Y-101235511D01*
X111867182Y-101245006D01*
X111903622Y-101297048D01*
X111914101Y-101305424D01*
X111927547Y-101298356D01*
X112629091Y-100596812D01*
X112636705Y-100582868D01*
X112636574Y-100581035D01*
X112632323Y-100574420D01*
X111926826Y-99868923D01*
X111915051Y-99862493D01*
X111903036Y-99871789D01*
X111867182Y-99922994D01*
X111861699Y-99932489D01*
X111769623Y-100129947D01*
X111765877Y-100140239D01*
X111709488Y-100350688D01*
X111707585Y-100361481D01*
X111688596Y-100578525D01*
X111688596Y-100589475D01*
X111240500Y-100589475D01*
X111240500Y-94807477D01*
X111260502Y-94739356D01*
X111277405Y-94718382D01*
X112298381Y-93697407D01*
X113347263Y-92648525D01*
X113359654Y-92637657D01*
X113372848Y-92627533D01*
X113377292Y-92624123D01*
X113432158Y-92563826D01*
X113436257Y-92559531D01*
X113452198Y-92543590D01*
X113468942Y-92523564D01*
X113472401Y-92519599D01*
X113473124Y-92518805D01*
X113528485Y-92457964D01*
X113538016Y-92442770D01*
X113548085Y-92428910D01*
X113559593Y-92415147D01*
X113600869Y-92342782D01*
X113603579Y-92338253D01*
X113644885Y-92272405D01*
X113647864Y-92267656D01*
X113654553Y-92251017D01*
X113662012Y-92235587D01*
X113668119Y-92224881D01*
X113668123Y-92224872D01*
X113670898Y-92220007D01*
X113698712Y-92141462D01*
X113700573Y-92136537D01*
X113704213Y-92127484D01*
X113731656Y-92059217D01*
X113735296Y-92041639D01*
X113739902Y-92025146D01*
X113745888Y-92008241D01*
X113759352Y-91926021D01*
X113760314Y-91920833D01*
X113762922Y-91908243D01*
X113777213Y-91839233D01*
X113778816Y-91811437D01*
X113780263Y-91798331D01*
X113781286Y-91792086D01*
X113781287Y-91792079D01*
X113782193Y-91786543D01*
X113780516Y-91679769D01*
X113780500Y-91677791D01*
X113780500Y-87721396D01*
X113781578Y-87704949D01*
X113783747Y-87688472D01*
X113784479Y-87682914D01*
X113783550Y-87663201D01*
X113780640Y-87601504D01*
X113780500Y-87595569D01*
X113780500Y-87573001D01*
X113780252Y-87570218D01*
X113780251Y-87570204D01*
X113778182Y-87547023D01*
X113777823Y-87541760D01*
X113774976Y-87481390D01*
X113773897Y-87458512D01*
X113769892Y-87441023D01*
X113767212Y-87424104D01*
X113766115Y-87411821D01*
X113765617Y-87406238D01*
X113764137Y-87400827D01*
X113743631Y-87325870D01*
X113742345Y-87320752D01*
X113724994Y-87244997D01*
X113723742Y-87239530D01*
X113716707Y-87223037D01*
X113711072Y-87206855D01*
X113707820Y-87194967D01*
X113707817Y-87194958D01*
X113706337Y-87189549D01*
X113703922Y-87184486D01*
X113703918Y-87184475D01*
X113670466Y-87114343D01*
X113668293Y-87109532D01*
X113641615Y-87046984D01*
X113635604Y-87032892D01*
X113625756Y-87017900D01*
X113617344Y-87002971D01*
X113609622Y-86986782D01*
X113560996Y-86919111D01*
X113558013Y-86914771D01*
X113514805Y-86848992D01*
X113514801Y-86848987D01*
X113512265Y-86845126D01*
X113493751Y-86824346D01*
X113485506Y-86814055D01*
X113481807Y-86808907D01*
X113481803Y-86808903D01*
X113478529Y-86804346D01*
X113401777Y-86729968D01*
X113400367Y-86728579D01*
X104927405Y-78255617D01*
X104893379Y-78193305D01*
X104890500Y-78166522D01*
X104890500Y-77312493D01*
X104910502Y-77244372D01*
X104964158Y-77197879D01*
X104985763Y-77190457D01*
X104992316Y-77189745D01*
X104999711Y-77186973D01*
X104999714Y-77186972D01*
X105120297Y-77141767D01*
X105128705Y-77138615D01*
X105245261Y-77051261D01*
X105332615Y-76934705D01*
X105383745Y-76798316D01*
X105390500Y-76736134D01*
X105390500Y-74139866D01*
X105383745Y-74077684D01*
X105332615Y-73941295D01*
X105245261Y-73824739D01*
X105128705Y-73737385D01*
X104992316Y-73686255D01*
X104930134Y-73679500D01*
X102333866Y-73679500D01*
X102271684Y-73686255D01*
X102135295Y-73737385D01*
X102018739Y-73824739D01*
X101931385Y-73941295D01*
X101880255Y-74077684D01*
X101873500Y-74139866D01*
X101873500Y-76736134D01*
X99245934Y-76736134D01*
X99225340Y-76683176D01*
X99225339Y-76683173D01*
X99223647Y-76678823D01*
X99215335Y-76664279D01*
X99137354Y-76527842D01*
X99093951Y-76451902D01*
X98932138Y-76246643D01*
X98741763Y-76067557D01*
X98583665Y-75957880D01*
X98530851Y-75921241D01*
X98530848Y-75921239D01*
X98527009Y-75918576D01*
X98522816Y-75916508D01*
X98296781Y-75805040D01*
X98296778Y-75805039D01*
X98292593Y-75802975D01*
X98156827Y-75759516D01*
X98048123Y-75724720D01*
X98043665Y-75723293D01*
X97785693Y-75681279D01*
X97704556Y-75680217D01*
X97636704Y-75659325D01*
X97617111Y-75643323D01*
X97307405Y-75333617D01*
X97273379Y-75271305D01*
X97270500Y-75244522D01*
X97270500Y-70926704D01*
X97290502Y-70858583D01*
X97301760Y-70843636D01*
X97380295Y-70754084D01*
X97517669Y-70540512D01*
X97621967Y-70308980D01*
X97690896Y-70064575D01*
X97722943Y-69812667D01*
X97725291Y-69723000D01*
X97714328Y-69575469D01*
X97706818Y-69474411D01*
X97706817Y-69474407D01*
X97706472Y-69469759D01*
X97703656Y-69457310D01*
X97651459Y-69226639D01*
X97650428Y-69222082D01*
X97558391Y-68985409D01*
X97537866Y-68949498D01*
X97434702Y-68768997D01*
X97434700Y-68768995D01*
X97432383Y-68764940D01*
X97297550Y-68593904D01*
X97271085Y-68528025D01*
X97270500Y-68515899D01*
X97270500Y-66662844D01*
X97290502Y-66594723D01*
X97344158Y-66548230D01*
X97414432Y-66538126D01*
X97479012Y-66567620D01*
X97491737Y-66580346D01*
X97563147Y-66662784D01*
X97741349Y-66810730D01*
X97941322Y-66927584D01*
X97946147Y-66929426D01*
X97946148Y-66929427D01*
X97973404Y-66939835D01*
X98157694Y-67010209D01*
X98162760Y-67011240D01*
X98162761Y-67011240D01*
X98188025Y-67016380D01*
X98384656Y-67056385D01*
X98515324Y-67061176D01*
X98610949Y-67064683D01*
X98610953Y-67064683D01*
X98616113Y-67064872D01*
X98621233Y-67064216D01*
X98621235Y-67064216D01*
X98720668Y-67051478D01*
X98845847Y-67035442D01*
X98850795Y-67033957D01*
X98850802Y-67033956D01*
X99062747Y-66970369D01*
X99067690Y-66968886D01*
X99072324Y-66966616D01*
X99271049Y-66869262D01*
X99271052Y-66869260D01*
X99275684Y-66866991D01*
X99464243Y-66732494D01*
X99628303Y-66569005D01*
X99646962Y-66543039D01*
X99686713Y-66487719D01*
X99763458Y-66380917D01*
X99767662Y-66372412D01*
X99863784Y-66177921D01*
X99866078Y-66173280D01*
X99880728Y-66125062D01*
X99912191Y-66072596D01*
X103221382Y-62763405D01*
X103283694Y-62729379D01*
X103310477Y-62726500D01*
X103398059Y-62726500D01*
X103463894Y-62745068D01*
X103575807Y-62813649D01*
X103575817Y-62813654D01*
X103580037Y-62816240D01*
X103584607Y-62818133D01*
X103584611Y-62818135D01*
X103794833Y-62905211D01*
X103799406Y-62907105D01*
X103851831Y-62919691D01*
X104025476Y-62961380D01*
X104025482Y-62961381D01*
X104030289Y-62962535D01*
X104267000Y-62981165D01*
X104503711Y-62962535D01*
X104508518Y-62961381D01*
X104508524Y-62961380D01*
X104682169Y-62919691D01*
X104734594Y-62907105D01*
X104739167Y-62905211D01*
X104949389Y-62818135D01*
X104949393Y-62818133D01*
X104953963Y-62816240D01*
X104992832Y-62792421D01*
X105152202Y-62694759D01*
X105152208Y-62694755D01*
X105156416Y-62692176D01*
X105336969Y-62537969D01*
X105491176Y-62357416D01*
X105493755Y-62353208D01*
X105493759Y-62353202D01*
X105612654Y-62159183D01*
X105615240Y-62154963D01*
X105655745Y-62057176D01*
X105704211Y-61940167D01*
X105704212Y-61940165D01*
X105706105Y-61935594D01*
X105745641Y-61770914D01*
X105760380Y-61709524D01*
X105760381Y-61709518D01*
X105761535Y-61704711D01*
X105780165Y-61468000D01*
X105761535Y-61231289D01*
X105758626Y-61219169D01*
X105712453Y-61026849D01*
X105706105Y-61000406D01*
X105704211Y-60995833D01*
X105617135Y-60785611D01*
X105617133Y-60785607D01*
X105615240Y-60781037D01*
X105612654Y-60776817D01*
X105493759Y-60582798D01*
X105493755Y-60582792D01*
X105491176Y-60578584D01*
X105336969Y-60398031D01*
X105156416Y-60243824D01*
X105152208Y-60241245D01*
X105152202Y-60241241D01*
X104958183Y-60122346D01*
X104953963Y-60119760D01*
X104949393Y-60117867D01*
X104949389Y-60117865D01*
X104739167Y-60030789D01*
X104739165Y-60030788D01*
X104734594Y-60028895D01*
X104654391Y-60009640D01*
X104508524Y-59974620D01*
X104508518Y-59974619D01*
X104503711Y-59973465D01*
X104267000Y-59954835D01*
X104030289Y-59973465D01*
X104025482Y-59974619D01*
X104025476Y-59974620D01*
X103879609Y-60009640D01*
X103799406Y-60028895D01*
X103794835Y-60030788D01*
X103794833Y-60030789D01*
X103584611Y-60117865D01*
X103584607Y-60117867D01*
X103580037Y-60119760D01*
X103575818Y-60122345D01*
X103575807Y-60122351D01*
X103463894Y-60190932D01*
X103398059Y-60209500D01*
X102828396Y-60209500D01*
X102811949Y-60208422D01*
X102811270Y-60208333D01*
X102789914Y-60205521D01*
X102784314Y-60205785D01*
X102784313Y-60205785D01*
X102708504Y-60209360D01*
X102702569Y-60209500D01*
X102680001Y-60209500D01*
X102677218Y-60209748D01*
X102677204Y-60209749D01*
X102654023Y-60211818D01*
X102648760Y-60212177D01*
X102619342Y-60213564D01*
X102565512Y-60216103D01*
X102548023Y-60220108D01*
X102531104Y-60222788D01*
X102526618Y-60223189D01*
X102513238Y-60224383D01*
X102507830Y-60225862D01*
X102507827Y-60225863D01*
X102432870Y-60246369D01*
X102427752Y-60247655D01*
X102370946Y-60260666D01*
X102346530Y-60266258D01*
X102330037Y-60273293D01*
X102313855Y-60278928D01*
X102301967Y-60282180D01*
X102301958Y-60282183D01*
X102296549Y-60283663D01*
X102291486Y-60286078D01*
X102291475Y-60286082D01*
X102221343Y-60319534D01*
X102216542Y-60321702D01*
X102139892Y-60354396D01*
X102135204Y-60357475D01*
X102135203Y-60357476D01*
X102124900Y-60364244D01*
X102109971Y-60372656D01*
X102093782Y-60380378D01*
X102089226Y-60383652D01*
X102089224Y-60383653D01*
X102026122Y-60428997D01*
X102021771Y-60431987D01*
X101955992Y-60475195D01*
X101955987Y-60475199D01*
X101952126Y-60477735D01*
X101948675Y-60480810D01*
X101931346Y-60496249D01*
X101921055Y-60504494D01*
X101915907Y-60508193D01*
X101915903Y-60508197D01*
X101911346Y-60511471D01*
X101849952Y-60574825D01*
X101836968Y-60588223D01*
X101835579Y-60589633D01*
X98130788Y-64294424D01*
X98080838Y-64325094D01*
X98054124Y-64333826D01*
X98004314Y-64350106D01*
X97999726Y-64352494D01*
X97999722Y-64352496D01*
X97803461Y-64454663D01*
X97798872Y-64457052D01*
X97794739Y-64460155D01*
X97794736Y-64460157D01*
X97617790Y-64593012D01*
X97613655Y-64596117D01*
X97453639Y-64763564D01*
X97386306Y-64862271D01*
X97331397Y-64907271D01*
X97260872Y-64915442D01*
X97197125Y-64884188D01*
X97176428Y-64859705D01*
X97134571Y-64795004D01*
X97131764Y-64790665D01*
X96975887Y-64619358D01*
X96971836Y-64616159D01*
X96971832Y-64616155D01*
X96798177Y-64479011D01*
X96798172Y-64479008D01*
X96794123Y-64475810D01*
X96789607Y-64473317D01*
X96789604Y-64473315D01*
X96595879Y-64366373D01*
X96595875Y-64366371D01*
X96591355Y-64363876D01*
X96586486Y-64362152D01*
X96586482Y-64362150D01*
X96377903Y-64288288D01*
X96377899Y-64288287D01*
X96373028Y-64286562D01*
X96367935Y-64285655D01*
X96367932Y-64285654D01*
X96150095Y-64246851D01*
X96150089Y-64246850D01*
X96145006Y-64245945D01*
X96067644Y-64245000D01*
X95918581Y-64243179D01*
X95918579Y-64243179D01*
X95913411Y-64243116D01*
X95684464Y-64278150D01*
X95464314Y-64350106D01*
X95459726Y-64352494D01*
X95459722Y-64352496D01*
X95263461Y-64454663D01*
X95258872Y-64457052D01*
X95254739Y-64460155D01*
X95254736Y-64460157D01*
X95077790Y-64593012D01*
X95073655Y-64596117D01*
X95070083Y-64599855D01*
X95055787Y-64614815D01*
X94994263Y-64650245D01*
X94923351Y-64646788D01*
X94865564Y-64605543D01*
X94846711Y-64571994D01*
X94825324Y-64514946D01*
X94816786Y-64499351D01*
X94740285Y-64397276D01*
X94727724Y-64384715D01*
X94625649Y-64308214D01*
X94610054Y-64299676D01*
X94489606Y-64254522D01*
X94474351Y-64250895D01*
X94423486Y-64245369D01*
X94416672Y-64245000D01*
X93744115Y-64245000D01*
X93728876Y-64249475D01*
X93727671Y-64250865D01*
X93726000Y-64258548D01*
X93726000Y-67042884D01*
X93218000Y-67042884D01*
X93218000Y-65925115D01*
X93213525Y-65909876D01*
X93212135Y-65908671D01*
X93204452Y-65907000D01*
X92082116Y-65907000D01*
X92066877Y-65911475D01*
X92065672Y-65912865D01*
X92064001Y-65920548D01*
X92064001Y-66597669D01*
X88460000Y-66597669D01*
X88460000Y-65380885D01*
X92064000Y-65380885D01*
X92068475Y-65396124D01*
X92069865Y-65397329D01*
X92077548Y-65399000D01*
X93199885Y-65399000D01*
X93215124Y-65394525D01*
X93216329Y-65393135D01*
X93218000Y-65385452D01*
X93218000Y-64263116D01*
X93213525Y-64247877D01*
X93212135Y-64246672D01*
X93204452Y-64245001D01*
X92527331Y-64245001D01*
X92520510Y-64245371D01*
X92469648Y-64250895D01*
X92454396Y-64254521D01*
X92333946Y-64299676D01*
X92318351Y-64308214D01*
X92216276Y-64384715D01*
X92203715Y-64397276D01*
X92127214Y-64499351D01*
X92118676Y-64514946D01*
X92073522Y-64635394D01*
X92069895Y-64650649D01*
X92064369Y-64701514D01*
X92064000Y-64708328D01*
X92064000Y-65380885D01*
X88460000Y-65380885D01*
X88460000Y-58293000D01*
X89418835Y-58293000D01*
X89437465Y-58529711D01*
X89492895Y-58760594D01*
X89583760Y-58979963D01*
X89586346Y-58984183D01*
X89705241Y-59178202D01*
X89705245Y-59178208D01*
X89707824Y-59182416D01*
X89862031Y-59362969D01*
X90042584Y-59517176D01*
X90046792Y-59519755D01*
X90046798Y-59519759D01*
X90192139Y-59608824D01*
X90245037Y-59641240D01*
X90249607Y-59643133D01*
X90249611Y-59643135D01*
X90459833Y-59730211D01*
X90464406Y-59732105D01*
X90544609Y-59751360D01*
X90690476Y-59786380D01*
X90690482Y-59786381D01*
X90695289Y-59787535D01*
X90932000Y-59806165D01*
X91168711Y-59787535D01*
X91173518Y-59786381D01*
X91173524Y-59786380D01*
X91319391Y-59751360D01*
X91399594Y-59732105D01*
X91404167Y-59730211D01*
X91614389Y-59643135D01*
X91614393Y-59643133D01*
X91618963Y-59641240D01*
X91671861Y-59608824D01*
X91817202Y-59519759D01*
X91817208Y-59519755D01*
X91821416Y-59517176D01*
X92001969Y-59362969D01*
X92156176Y-59182416D01*
X92230068Y-59061836D01*
X92282715Y-59014206D01*
X92352756Y-59002599D01*
X92417954Y-59030702D01*
X92457608Y-59089593D01*
X92463500Y-59127672D01*
X92463500Y-60771157D01*
X92462763Y-60784764D01*
X92461981Y-60791967D01*
X92458676Y-60822388D01*
X92460036Y-60837930D01*
X92463050Y-60872388D01*
X92463379Y-60877214D01*
X92463500Y-60879686D01*
X92463500Y-60882769D01*
X92463801Y-60885837D01*
X92467690Y-60925506D01*
X92467812Y-60926819D01*
X92475913Y-61019413D01*
X92477400Y-61024532D01*
X92477920Y-61029833D01*
X92504791Y-61118834D01*
X92505126Y-61119967D01*
X92519221Y-61168479D01*
X92531091Y-61209336D01*
X92533544Y-61214068D01*
X92535084Y-61219169D01*
X92578378Y-61300594D01*
X92578712Y-61301223D01*
X92579324Y-61302389D01*
X92586665Y-61316551D01*
X92600413Y-61384422D01*
X92593835Y-61468000D01*
X92612465Y-61704711D01*
X92613619Y-61709518D01*
X92613620Y-61709524D01*
X92628359Y-61770914D01*
X92667895Y-61935594D01*
X92669788Y-61940165D01*
X92669789Y-61940167D01*
X92718256Y-62057176D01*
X92758760Y-62154963D01*
X92761346Y-62159183D01*
X92880241Y-62353202D01*
X92880245Y-62353208D01*
X92882824Y-62357416D01*
X93037031Y-62537969D01*
X93217584Y-62692176D01*
X93221792Y-62694755D01*
X93221798Y-62694759D01*
X93381168Y-62792421D01*
X93420037Y-62816240D01*
X93424607Y-62818133D01*
X93424611Y-62818135D01*
X93634833Y-62905211D01*
X93639406Y-62907105D01*
X93691831Y-62919691D01*
X93865476Y-62961380D01*
X93865482Y-62961381D01*
X93870289Y-62962535D01*
X94107000Y-62981165D01*
X94343711Y-62962535D01*
X94348518Y-62961381D01*
X94348524Y-62961380D01*
X94522169Y-62919691D01*
X94574594Y-62907105D01*
X94579167Y-62905211D01*
X94789389Y-62818135D01*
X94789393Y-62818133D01*
X94793963Y-62816240D01*
X94832832Y-62792421D01*
X94992202Y-62694759D01*
X94992208Y-62694755D01*
X94996416Y-62692176D01*
X95176969Y-62537969D01*
X95331176Y-62357416D01*
X95333755Y-62353208D01*
X95333759Y-62353202D01*
X95452654Y-62159183D01*
X95455240Y-62154963D01*
X95495745Y-62057176D01*
X95544211Y-61940167D01*
X95544212Y-61940165D01*
X95546105Y-61935594D01*
X95585641Y-61770914D01*
X95600380Y-61709524D01*
X95600381Y-61709518D01*
X95601535Y-61704711D01*
X95620165Y-61468000D01*
X95601535Y-61231289D01*
X95598626Y-61219169D01*
X95552453Y-61026849D01*
X95546105Y-61000406D01*
X95544211Y-60995833D01*
X95457135Y-60785611D01*
X95457133Y-60785607D01*
X95455240Y-60781037D01*
X95452654Y-60776817D01*
X95333759Y-60582798D01*
X95333755Y-60582792D01*
X95331176Y-60578584D01*
X95176969Y-60398031D01*
X94996416Y-60243824D01*
X94992208Y-60241245D01*
X94992202Y-60241241D01*
X94798183Y-60122346D01*
X94793963Y-60119760D01*
X94789393Y-60117867D01*
X94789389Y-60117865D01*
X94579165Y-60030788D01*
X94579161Y-60030787D01*
X94574594Y-60028895D01*
X94569784Y-60027740D01*
X94567564Y-60027019D01*
X94508959Y-59986946D01*
X94481321Y-59921550D01*
X94480500Y-59907186D01*
X94480500Y-53221323D01*
X94500502Y-53153202D01*
X94554158Y-53106709D01*
X94624432Y-53096605D01*
X94691301Y-53128131D01*
X94699188Y-53135308D01*
X94708094Y-53142067D01*
X94888815Y-53255434D01*
X94898781Y-53260511D01*
X95096714Y-53340080D01*
X95107429Y-53343315D01*
X95317301Y-53386777D01*
X95326438Y-53387980D01*
X95376990Y-53390895D01*
X95380637Y-53391000D01*
X95444885Y-53391000D01*
X95460124Y-53386525D01*
X95461329Y-53385135D01*
X95463000Y-53377452D01*
X95463000Y-52005000D01*
X95483002Y-51936879D01*
X95536658Y-51890386D01*
X95589000Y-51879000D01*
X95845000Y-51879000D01*
X95913121Y-51899002D01*
X95959614Y-51952658D01*
X95971000Y-52005000D01*
X95971000Y-53372885D01*
X95975475Y-53388124D01*
X95976865Y-53389329D01*
X95984548Y-53391000D01*
X96021175Y-53391000D01*
X96026770Y-53390751D01*
X96185078Y-53376622D01*
X96196092Y-53374640D01*
X96401860Y-53318349D01*
X96412341Y-53314451D01*
X96604903Y-53222603D01*
X96614516Y-53216918D01*
X96787767Y-53092425D01*
X96796233Y-53085117D01*
X96827026Y-53053341D01*
X96888796Y-53018342D01*
X96959682Y-53022293D01*
X97002309Y-53047832D01*
X97098884Y-53135707D01*
X97103036Y-53139485D01*
X97107783Y-53142463D01*
X97107786Y-53142465D01*
X97236229Y-53223036D01*
X97293344Y-53258864D01*
X97501783Y-53342656D01*
X97721767Y-53388213D01*
X97726378Y-53388479D01*
X97726379Y-53388479D01*
X97776952Y-53391395D01*
X97776956Y-53391395D01*
X97778775Y-53391500D01*
X98423999Y-53391500D01*
X98426786Y-53391251D01*
X98426792Y-53391251D01*
X98496929Y-53384991D01*
X98590762Y-53376617D01*
X98596176Y-53375136D01*
X98596181Y-53375135D01*
X98724317Y-53340080D01*
X98807451Y-53317337D01*
X98812509Y-53314925D01*
X98812513Y-53314923D01*
X98930042Y-53258864D01*
X99010218Y-53220622D01*
X99192654Y-53089529D01*
X99348992Y-52928201D01*
X99474290Y-52741738D01*
X99564588Y-52536033D01*
X99617032Y-52317589D01*
X99629963Y-52093310D01*
X99602975Y-51870285D01*
X99536918Y-51655565D01*
X99472929Y-51531587D01*
X99436454Y-51460919D01*
X99436454Y-51460918D01*
X99433882Y-51455936D01*
X99425500Y-51445012D01*
X99421044Y-51439204D01*
X99395443Y-51372984D01*
X99409708Y-51303435D01*
X99459309Y-51252639D01*
X99521006Y-51236500D01*
X104004502Y-51236500D01*
X104072623Y-51256502D01*
X104119116Y-51310158D01*
X104129220Y-51380432D01*
X104117942Y-51417339D01*
X104107372Y-51439204D01*
X104070214Y-51516070D01*
X104068630Y-51522931D01*
X104035793Y-51665165D01*
X104028780Y-51695540D01*
X104028500Y-51700396D01*
X104028500Y-52755604D01*
X104028780Y-52760460D01*
X104070214Y-52939930D01*
X104073280Y-52946272D01*
X104143933Y-53092425D01*
X104150379Y-53105760D01*
X104185211Y-53149393D01*
X104212078Y-53215106D01*
X104199151Y-53284916D01*
X104185215Y-53306602D01*
X104150379Y-53350240D01*
X104147313Y-53356583D01*
X104147312Y-53356584D01*
X104130484Y-53391395D01*
X104070214Y-53516070D01*
X104028780Y-53695540D01*
X104028500Y-53700396D01*
X104028500Y-54755604D01*
X104028780Y-54760460D01*
X104029980Y-54765656D01*
X104029980Y-54765659D01*
X104047824Y-54842948D01*
X104070214Y-54939930D01*
X104073280Y-54946272D01*
X104142432Y-55089320D01*
X104150379Y-55105760D01*
X104265292Y-55249708D01*
X104409240Y-55364621D01*
X104575070Y-55444786D01*
X104581931Y-55446370D01*
X104749341Y-55485020D01*
X104749344Y-55485020D01*
X104754540Y-55486220D01*
X104759396Y-55486500D01*
X105978523Y-55486500D01*
X106046644Y-55506502D01*
X106067618Y-55523405D01*
X116306595Y-65762382D01*
X116340621Y-65824694D01*
X116343500Y-65851477D01*
X116343500Y-71703126D01*
X116323498Y-71771247D01*
X116318339Y-71778673D01*
X116301385Y-71801295D01*
X116250255Y-71937684D01*
X116243500Y-71999866D01*
X116243500Y-73796134D01*
X116250255Y-73858316D01*
X116301385Y-73994705D01*
X116388739Y-74111261D01*
X116505295Y-74198615D01*
X116513704Y-74201767D01*
X116513705Y-74201768D01*
X116622451Y-74242535D01*
X116679216Y-74285176D01*
X116703916Y-74351738D01*
X116688709Y-74421087D01*
X116669316Y-74447568D01*
X116542629Y-74580138D01*
X116416743Y-74764680D01*
X116322688Y-74967305D01*
X116262989Y-75182570D01*
X116239251Y-75404695D01*
X116239548Y-75409848D01*
X116239548Y-75409851D01*
X116245011Y-75504590D01*
X116252110Y-75627715D01*
X116253247Y-75632761D01*
X116253248Y-75632767D01*
X116270964Y-75711377D01*
X116301222Y-75845639D01*
X116339461Y-75939811D01*
X116383059Y-76047180D01*
X116385266Y-76052616D01*
X116427866Y-76122133D01*
X116499291Y-76238688D01*
X116501987Y-76243088D01*
X116648250Y-76411938D01*
X116820126Y-76554632D01*
X116896070Y-76599010D01*
X116916070Y-76610697D01*
X116964794Y-76662336D01*
X116978500Y-76719485D01*
X116978500Y-78445523D01*
X116958498Y-78513644D01*
X116904842Y-78560137D01*
X116834568Y-78570241D01*
X116769988Y-78540747D01*
X116763405Y-78534618D01*
X115886284Y-77657496D01*
X114841525Y-76612737D01*
X114830657Y-76600346D01*
X114820533Y-76587152D01*
X114817123Y-76582708D01*
X114756826Y-76527842D01*
X114752531Y-76523743D01*
X114736590Y-76507802D01*
X114734440Y-76506004D01*
X114716577Y-76491068D01*
X114712602Y-76487600D01*
X114655112Y-76435288D01*
X114655103Y-76435281D01*
X114650964Y-76431515D01*
X114635773Y-76421986D01*
X114621907Y-76411911D01*
X114612451Y-76404004D01*
X114612441Y-76403997D01*
X114608146Y-76400406D01*
X114535752Y-76359113D01*
X114531232Y-76356408D01*
X114465404Y-76315114D01*
X114465401Y-76315112D01*
X114460656Y-76312136D01*
X114455451Y-76310043D01*
X114455448Y-76310042D01*
X114444021Y-76305448D01*
X114428589Y-76297988D01*
X114417881Y-76291880D01*
X114417872Y-76291876D01*
X114413007Y-76289101D01*
X114407730Y-76287232D01*
X114407725Y-76287230D01*
X114334458Y-76261285D01*
X114329522Y-76259420D01*
X114257416Y-76230434D01*
X114252217Y-76228344D01*
X114246730Y-76227208D01*
X114246728Y-76227207D01*
X114234651Y-76224706D01*
X114218156Y-76220101D01*
X114201241Y-76214111D01*
X114118990Y-76200641D01*
X114113820Y-76199683D01*
X114032233Y-76182787D01*
X114027621Y-76182521D01*
X114027620Y-76182521D01*
X114004452Y-76181185D01*
X113991347Y-76179738D01*
X113985090Y-76178714D01*
X113985086Y-76178714D01*
X113979543Y-76177806D01*
X113973930Y-76177894D01*
X113973928Y-76177894D01*
X113872736Y-76179484D01*
X113870757Y-76179500D01*
X110910713Y-76179500D01*
X110842592Y-76159498D01*
X110824380Y-76145275D01*
X110824082Y-76144994D01*
X110741763Y-76067557D01*
X110583665Y-75957880D01*
X110530851Y-75921241D01*
X110530848Y-75921239D01*
X110527009Y-75918576D01*
X110522816Y-75916508D01*
X110296781Y-75805040D01*
X110296778Y-75805039D01*
X110292593Y-75802975D01*
X110288148Y-75801552D01*
X110058087Y-75727909D01*
X109999307Y-75688091D01*
X109971385Y-75622816D01*
X109970500Y-75607907D01*
X109970500Y-71531498D01*
X109990502Y-71463377D01*
X110044158Y-71416884D01*
X110052270Y-71413516D01*
X110150297Y-71376767D01*
X110158705Y-71373615D01*
X110275261Y-71286261D01*
X110362615Y-71169705D01*
X110413745Y-71033316D01*
X110420500Y-70971134D01*
X110420500Y-68474866D01*
X110413745Y-68412684D01*
X110362615Y-68276295D01*
X110275261Y-68159739D01*
X110158705Y-68072385D01*
X110022316Y-68021255D01*
X109960134Y-68014500D01*
X107463866Y-68014500D01*
X107401684Y-68021255D01*
X107265295Y-68072385D01*
X107148739Y-68159739D01*
X107061385Y-68276295D01*
X107010255Y-68412684D01*
X107003500Y-68474866D01*
X107003500Y-70971134D01*
X107010255Y-71033316D01*
X107061385Y-71169705D01*
X107148739Y-71286261D01*
X107265295Y-71373615D01*
X107273703Y-71376767D01*
X107371730Y-71413516D01*
X107428494Y-71456158D01*
X107453194Y-71522719D01*
X107453500Y-71531498D01*
X107453500Y-76426604D01*
X107452422Y-76443051D01*
X107449521Y-76465086D01*
X107451451Y-76506004D01*
X107453360Y-76546488D01*
X107453500Y-76552424D01*
X107453500Y-76574999D01*
X107455762Y-76600346D01*
X107455819Y-76600988D01*
X107456178Y-76606248D01*
X107460104Y-76689488D01*
X107461354Y-76694947D01*
X107461355Y-76694952D01*
X107464108Y-76706970D01*
X107466789Y-76723899D01*
X107468383Y-76741762D01*
X107469865Y-76747178D01*
X107469865Y-76747180D01*
X107490370Y-76822133D01*
X107491656Y-76827251D01*
X107510258Y-76908470D01*
X107512460Y-76913632D01*
X107517294Y-76924967D01*
X107522927Y-76941142D01*
X107526043Y-76952530D01*
X107527663Y-76958451D01*
X107530079Y-76963516D01*
X107563539Y-77033667D01*
X107565710Y-77038476D01*
X107598397Y-77115109D01*
X107608251Y-77130110D01*
X107616654Y-77145025D01*
X107624378Y-77161218D01*
X107627648Y-77165769D01*
X107627650Y-77165772D01*
X107639311Y-77182000D01*
X107670301Y-77225126D01*
X107672999Y-77228881D01*
X107675989Y-77233232D01*
X107719196Y-77299010D01*
X107719202Y-77299018D01*
X107721735Y-77302874D01*
X107740257Y-77323662D01*
X107748490Y-77333939D01*
X107755471Y-77343654D01*
X107832137Y-77417949D01*
X107832253Y-77418061D01*
X107833663Y-77419450D01*
X107837934Y-77423721D01*
X107871960Y-77486033D01*
X107874693Y-77506767D01*
X107881713Y-77652908D01*
X107932704Y-77909256D01*
X108021026Y-78155252D01*
X108055124Y-78218712D01*
X108087753Y-78279437D01*
X108144737Y-78385491D01*
X108147532Y-78389234D01*
X108147534Y-78389237D01*
X108298330Y-78591177D01*
X108298335Y-78591183D01*
X108301122Y-78594915D01*
X108304431Y-78598195D01*
X108304436Y-78598201D01*
X108483426Y-78775635D01*
X108486743Y-78778923D01*
X108490505Y-78781681D01*
X108490508Y-78781684D01*
X108659900Y-78905887D01*
X108697524Y-78933474D01*
X108701667Y-78935654D01*
X108701669Y-78935655D01*
X108924684Y-79052989D01*
X108924689Y-79052991D01*
X108928834Y-79055172D01*
X109067254Y-79103511D01*
X109159234Y-79135632D01*
X109175590Y-79141344D01*
X109180183Y-79142216D01*
X109427785Y-79189224D01*
X109427788Y-79189224D01*
X109432374Y-79190095D01*
X109562958Y-79195226D01*
X109688875Y-79200174D01*
X109688881Y-79200174D01*
X109693543Y-79200357D01*
X109772977Y-79191657D01*
X109948707Y-79172412D01*
X109948712Y-79172411D01*
X109953360Y-79171902D01*
X109986633Y-79163142D01*
X110201594Y-79106548D01*
X110201596Y-79106547D01*
X110206117Y-79105357D01*
X110446262Y-79002182D01*
X110508349Y-78963762D01*
X110664547Y-78867104D01*
X110664548Y-78867104D01*
X110668519Y-78864646D01*
X110672082Y-78861629D01*
X110672087Y-78861626D01*
X110831900Y-78726333D01*
X110896816Y-78697585D01*
X110913312Y-78696500D01*
X113313523Y-78696500D01*
X113381644Y-78716502D01*
X113402618Y-78733405D01*
X116941595Y-82272383D01*
X116975621Y-82334695D01*
X116978500Y-82361478D01*
X116978500Y-85798599D01*
X116958498Y-85866720D01*
X116926028Y-85900920D01*
X116915909Y-85908191D01*
X116915901Y-85908198D01*
X116911346Y-85911471D01*
X116907439Y-85915503D01*
X116816900Y-86008932D01*
X116755008Y-86072799D01*
X116629710Y-86259262D01*
X116539412Y-86464967D01*
X116486968Y-86683411D01*
X116474037Y-86907690D01*
X116501025Y-87130715D01*
X116567082Y-87345435D01*
X116569652Y-87350415D01*
X116569654Y-87350419D01*
X116634852Y-87476738D01*
X116670118Y-87545064D01*
X116806877Y-87723292D01*
X116973036Y-87874485D01*
X116977783Y-87877463D01*
X116977786Y-87877465D01*
X117149105Y-87984932D01*
X117163344Y-87993864D01*
X117231378Y-88021214D01*
X117287120Y-88065178D01*
X117310245Y-88132303D01*
X117293408Y-88201274D01*
X117238624Y-88251845D01*
X117099097Y-88318397D01*
X117089484Y-88324082D01*
X116916233Y-88448575D01*
X116907767Y-88455883D01*
X116759308Y-88609082D01*
X116752265Y-88617779D01*
X116633281Y-88794844D01*
X116627895Y-88804642D01*
X116542143Y-88999990D01*
X116538578Y-89010582D01*
X116508376Y-89136384D01*
X116509081Y-89150470D01*
X116517960Y-89154000D01*
X119955411Y-89154000D01*
X119969393Y-89149895D01*
X119970886Y-89140272D01*
X119970834Y-89140027D01*
X119908102Y-88936117D01*
X119903881Y-88925771D01*
X119806029Y-88736186D01*
X119800043Y-88726755D01*
X119670168Y-88557499D01*
X119662607Y-88549276D01*
X119504806Y-88405688D01*
X119495906Y-88398933D01*
X119315185Y-88285566D01*
X119305219Y-88280489D01*
X119242642Y-88255333D01*
X119186897Y-88211367D01*
X119163772Y-88144242D01*
X119180609Y-88075271D01*
X119235393Y-88024700D01*
X119280940Y-88002975D01*
X119380218Y-87955622D01*
X119562654Y-87824529D01*
X119670601Y-87713137D01*
X119715089Y-87667229D01*
X119715091Y-87667226D01*
X119718992Y-87663201D01*
X119844290Y-87476738D01*
X119934588Y-87271033D01*
X119942152Y-87239530D01*
X119985722Y-87058046D01*
X119985722Y-87058045D01*
X119987032Y-87052589D01*
X119998771Y-86848992D01*
X119999640Y-86833917D01*
X119999640Y-86833914D01*
X119999963Y-86828310D01*
X119972975Y-86605285D01*
X119906918Y-86390565D01*
X119841798Y-86264396D01*
X119806454Y-86195919D01*
X119806454Y-86195918D01*
X119803882Y-86190936D01*
X119667123Y-86012708D01*
X119662984Y-86008942D01*
X119662975Y-86008932D01*
X119536700Y-85894031D01*
X119499778Y-85833391D01*
X119495500Y-85800838D01*
X119495500Y-81879396D01*
X119496578Y-81862949D01*
X119498746Y-81846484D01*
X119498746Y-81846480D01*
X119499479Y-81840914D01*
X119495640Y-81759511D01*
X119495500Y-81753576D01*
X119495500Y-76828370D01*
X119515502Y-76760249D01*
X119569158Y-76713756D01*
X119639432Y-76703652D01*
X119666447Y-76710659D01*
X119761692Y-76747030D01*
X119766760Y-76748061D01*
X119766763Y-76748062D01*
X119861862Y-76767410D01*
X119980597Y-76791567D01*
X119985772Y-76791757D01*
X119985774Y-76791757D01*
X120198673Y-76799564D01*
X120198677Y-76799564D01*
X120203837Y-76799753D01*
X120208957Y-76799097D01*
X120208959Y-76799097D01*
X120420288Y-76772025D01*
X120420289Y-76772025D01*
X120425416Y-76771368D01*
X120430366Y-76769883D01*
X120634429Y-76708661D01*
X120634434Y-76708659D01*
X120639384Y-76707174D01*
X120839994Y-76608896D01*
X121021860Y-76479173D01*
X121035997Y-76465086D01*
X121156658Y-76344845D01*
X121180096Y-76321489D01*
X121183116Y-76317287D01*
X121310453Y-76140077D01*
X121311776Y-76141028D01*
X121358645Y-76097857D01*
X121428580Y-76085625D01*
X121494026Y-76113144D01*
X121521875Y-76144994D01*
X121581987Y-76243088D01*
X121728250Y-76411938D01*
X121900126Y-76554632D01*
X122093000Y-76667338D01*
X122097825Y-76669180D01*
X122097826Y-76669181D01*
X122123076Y-76678823D01*
X122301692Y-76747030D01*
X122306760Y-76748061D01*
X122306763Y-76748062D01*
X122401862Y-76767410D01*
X122520597Y-76791567D01*
X122525772Y-76791757D01*
X122525774Y-76791757D01*
X122738673Y-76799564D01*
X122738677Y-76799564D01*
X122743837Y-76799753D01*
X122748957Y-76799097D01*
X122748959Y-76799097D01*
X122960288Y-76772025D01*
X122960289Y-76772025D01*
X122965416Y-76771368D01*
X122970366Y-76769883D01*
X123174432Y-76708660D01*
X123174435Y-76708659D01*
X123179384Y-76707174D01*
X123183531Y-76705143D01*
X123229268Y-76696500D01*
X124686127Y-76696500D01*
X124731076Y-76704790D01*
X124746448Y-76710660D01*
X124841692Y-76747030D01*
X124846760Y-76748061D01*
X124846763Y-76748062D01*
X124941862Y-76767410D01*
X125060597Y-76791567D01*
X125065772Y-76791757D01*
X125065774Y-76791757D01*
X125278673Y-76799564D01*
X125278677Y-76799564D01*
X125283837Y-76799753D01*
X125288957Y-76799097D01*
X125288959Y-76799097D01*
X125500288Y-76772025D01*
X125500289Y-76772025D01*
X125505416Y-76771368D01*
X125510366Y-76769883D01*
X125714432Y-76708660D01*
X125714435Y-76708659D01*
X125719384Y-76707174D01*
X125723531Y-76705143D01*
X125769268Y-76696500D01*
X127188523Y-76696500D01*
X127256644Y-76716502D01*
X127277618Y-76733405D01*
X128371595Y-77827382D01*
X128405621Y-77889694D01*
X128408500Y-77916477D01*
X128408500Y-85798599D01*
X128388498Y-85866720D01*
X128356028Y-85900920D01*
X128345909Y-85908191D01*
X128345901Y-85908198D01*
X128341346Y-85911471D01*
X128337439Y-85915503D01*
X128246900Y-86008932D01*
X128185008Y-86072799D01*
X128059710Y-86259262D01*
X127969412Y-86464967D01*
X127916968Y-86683411D01*
X127904037Y-86907690D01*
X127931025Y-87130715D01*
X127997082Y-87345435D01*
X127999652Y-87350415D01*
X127999654Y-87350419D01*
X128064852Y-87476738D01*
X128100118Y-87545064D01*
X128236877Y-87723292D01*
X128403036Y-87874485D01*
X128407783Y-87877463D01*
X128407786Y-87877465D01*
X128579105Y-87984932D01*
X128593344Y-87993864D01*
X128661378Y-88021214D01*
X128717120Y-88065178D01*
X128740245Y-88132303D01*
X128723408Y-88201274D01*
X128668624Y-88251845D01*
X128529097Y-88318397D01*
X128519484Y-88324082D01*
X128346233Y-88448575D01*
X128337767Y-88455883D01*
X128189308Y-88609082D01*
X128182265Y-88617779D01*
X128063281Y-88794844D01*
X128057895Y-88804642D01*
X127972143Y-88999990D01*
X127968578Y-89010582D01*
X127938376Y-89136384D01*
X127939081Y-89150470D01*
X127947960Y-89154000D01*
X131385411Y-89154000D01*
X131399393Y-89149895D01*
X131400886Y-89140272D01*
X131400834Y-89140027D01*
X131338102Y-88936117D01*
X131333881Y-88925771D01*
X131236029Y-88736186D01*
X131230043Y-88726755D01*
X131100168Y-88557499D01*
X131092607Y-88549276D01*
X130934806Y-88405688D01*
X130925906Y-88398933D01*
X130745185Y-88285566D01*
X130735219Y-88280489D01*
X130672642Y-88255333D01*
X130616897Y-88211367D01*
X130593772Y-88144242D01*
X130610609Y-88075271D01*
X130665393Y-88024700D01*
X130710940Y-88002975D01*
X130810218Y-87955622D01*
X130992654Y-87824529D01*
X131100601Y-87713137D01*
X131145089Y-87667229D01*
X131145091Y-87667226D01*
X131148992Y-87663201D01*
X131274290Y-87476738D01*
X131364588Y-87271033D01*
X131372152Y-87239530D01*
X131415722Y-87058046D01*
X131415722Y-87058045D01*
X131417032Y-87052589D01*
X131428771Y-86848992D01*
X131429640Y-86833917D01*
X131429640Y-86833914D01*
X131429963Y-86828310D01*
X131402975Y-86605285D01*
X131336918Y-86390565D01*
X131271798Y-86264396D01*
X131236454Y-86195919D01*
X131236454Y-86195918D01*
X131233882Y-86190936D01*
X131097123Y-86012708D01*
X131092984Y-86008942D01*
X131092975Y-86008932D01*
X130966700Y-85894031D01*
X130929778Y-85833391D01*
X130925500Y-85800838D01*
X130925500Y-77434396D01*
X130926578Y-77417949D01*
X130928747Y-77401472D01*
X130929479Y-77395914D01*
X130925640Y-77314504D01*
X130925500Y-77308569D01*
X130925500Y-77286001D01*
X130925252Y-77283218D01*
X130925251Y-77283204D01*
X130923182Y-77260023D01*
X130922823Y-77254760D01*
X130920075Y-77196500D01*
X130918897Y-77171512D01*
X130914892Y-77154023D01*
X130912212Y-77137104D01*
X130911811Y-77132618D01*
X130910617Y-77119238D01*
X130908076Y-77109949D01*
X130888631Y-77038870D01*
X130887345Y-77033752D01*
X130869995Y-76958000D01*
X130869994Y-76957998D01*
X130868742Y-76952530D01*
X130861706Y-76936033D01*
X130856073Y-76919858D01*
X130854369Y-76913632D01*
X130851337Y-76902549D01*
X130839029Y-76876745D01*
X130827756Y-76806649D01*
X130856169Y-76741586D01*
X130915247Y-76702212D01*
X130952755Y-76696500D01*
X132306127Y-76696500D01*
X132351076Y-76704790D01*
X132366448Y-76710660D01*
X132461692Y-76747030D01*
X132466760Y-76748061D01*
X132466763Y-76748062D01*
X132561862Y-76767410D01*
X132680597Y-76791567D01*
X132685772Y-76791757D01*
X132685774Y-76791757D01*
X132898673Y-76799564D01*
X132898677Y-76799564D01*
X132903837Y-76799753D01*
X132908957Y-76799097D01*
X132908959Y-76799097D01*
X133120288Y-76772025D01*
X133120289Y-76772025D01*
X133125416Y-76771368D01*
X133130366Y-76769883D01*
X133334429Y-76708661D01*
X133334434Y-76708659D01*
X133339384Y-76707174D01*
X133539994Y-76608896D01*
X133721860Y-76479173D01*
X133735997Y-76465086D01*
X133856658Y-76344845D01*
X133880096Y-76321489D01*
X133883112Y-76317291D01*
X133883116Y-76317287D01*
X133895177Y-76300502D01*
X133951171Y-76256854D01*
X134021874Y-76250407D01*
X134084839Y-76283209D01*
X134120074Y-76344845D01*
X134123500Y-76374027D01*
X134123500Y-79791604D01*
X134122422Y-79808051D01*
X134119521Y-79830086D01*
X134119786Y-79835698D01*
X134123360Y-79911488D01*
X134123500Y-79917424D01*
X134123500Y-79939999D01*
X134123750Y-79942796D01*
X134125819Y-79965988D01*
X134126178Y-79971248D01*
X134130104Y-80054488D01*
X134131354Y-80059947D01*
X134131355Y-80059952D01*
X134134108Y-80071970D01*
X134136789Y-80088899D01*
X134138383Y-80106762D01*
X134139865Y-80112178D01*
X134139865Y-80112180D01*
X134160370Y-80187133D01*
X134161656Y-80192251D01*
X134180258Y-80273470D01*
X134182460Y-80278632D01*
X134187294Y-80289967D01*
X134192927Y-80306142D01*
X134197663Y-80323451D01*
X134200079Y-80328516D01*
X134233539Y-80398667D01*
X134235710Y-80403476D01*
X134268397Y-80480109D01*
X134278251Y-80495110D01*
X134286654Y-80510025D01*
X134294378Y-80526218D01*
X134297648Y-80530769D01*
X134297650Y-80530772D01*
X134342999Y-80593881D01*
X134345989Y-80598232D01*
X134389196Y-80664010D01*
X134389202Y-80664018D01*
X134391735Y-80667874D01*
X134410257Y-80688662D01*
X134418490Y-80698939D01*
X134425471Y-80708654D01*
X134429498Y-80712556D01*
X134502255Y-80783063D01*
X134503665Y-80784452D01*
X139166595Y-85447382D01*
X139200621Y-85509694D01*
X139203500Y-85536477D01*
X139203500Y-85798599D01*
X139183498Y-85866720D01*
X139151028Y-85900920D01*
X139140909Y-85908191D01*
X139140901Y-85908198D01*
X139136346Y-85911471D01*
X139132439Y-85915503D01*
X139041900Y-86008932D01*
X138980008Y-86072799D01*
X138854710Y-86259262D01*
X138764412Y-86464967D01*
X138711968Y-86683411D01*
X138699037Y-86907690D01*
X138726025Y-87130715D01*
X138792082Y-87345435D01*
X138794652Y-87350415D01*
X138794654Y-87350419D01*
X138859852Y-87476738D01*
X138895118Y-87545064D01*
X139031877Y-87723292D01*
X139198036Y-87874485D01*
X139202783Y-87877463D01*
X139202786Y-87877465D01*
X139374105Y-87984932D01*
X139388344Y-87993864D01*
X139456378Y-88021214D01*
X139512120Y-88065178D01*
X139535245Y-88132303D01*
X139518408Y-88201274D01*
X139463624Y-88251845D01*
X139324097Y-88318397D01*
X139314484Y-88324082D01*
X139141233Y-88448575D01*
X139132767Y-88455883D01*
X138984308Y-88609082D01*
X138977265Y-88617779D01*
X138858281Y-88794844D01*
X138852895Y-88804642D01*
X138767143Y-88999990D01*
X138763578Y-89010582D01*
X138733376Y-89136384D01*
X138734081Y-89150470D01*
X138742960Y-89154000D01*
X142180411Y-89154000D01*
X142194393Y-89149895D01*
X142195886Y-89140272D01*
X142195834Y-89140027D01*
X142133102Y-88936117D01*
X142128881Y-88925771D01*
X142031029Y-88736186D01*
X142025043Y-88726755D01*
X141895168Y-88557499D01*
X141887607Y-88549276D01*
X141729806Y-88405688D01*
X141720906Y-88398933D01*
X141540185Y-88285566D01*
X141530219Y-88280489D01*
X141467642Y-88255333D01*
X141411897Y-88211367D01*
X141388772Y-88144242D01*
X141405609Y-88075271D01*
X141460393Y-88024700D01*
X141505940Y-88002975D01*
X141605218Y-87955622D01*
X141787654Y-87824529D01*
X141895601Y-87713137D01*
X141940089Y-87667229D01*
X141940091Y-87667226D01*
X141943992Y-87663201D01*
X142069290Y-87476738D01*
X142159588Y-87271033D01*
X142167152Y-87239530D01*
X142210722Y-87058046D01*
X142210722Y-87058045D01*
X142212032Y-87052589D01*
X142223771Y-86848992D01*
X142224640Y-86833917D01*
X142224640Y-86833914D01*
X142224963Y-86828310D01*
X142197975Y-86605285D01*
X142131918Y-86390565D01*
X142066798Y-86264396D01*
X142031454Y-86195919D01*
X142031454Y-86195918D01*
X142028882Y-86190936D01*
X141892123Y-86012708D01*
X141887984Y-86008942D01*
X141887975Y-86008932D01*
X141761700Y-85894031D01*
X141724778Y-85833391D01*
X141720500Y-85800838D01*
X141720500Y-85054396D01*
X141721578Y-85037949D01*
X141723747Y-85021472D01*
X141724479Y-85015914D01*
X141720640Y-84934504D01*
X141720500Y-84928569D01*
X141720500Y-84906001D01*
X141720252Y-84903218D01*
X141720251Y-84903204D01*
X141718182Y-84880023D01*
X141717823Y-84874760D01*
X141714161Y-84797116D01*
X141713897Y-84791512D01*
X141709892Y-84774023D01*
X141707212Y-84757104D01*
X141706115Y-84744821D01*
X141705617Y-84739238D01*
X141704137Y-84733827D01*
X141683631Y-84658870D01*
X141682345Y-84653752D01*
X141664995Y-84578000D01*
X141664994Y-84577998D01*
X141663742Y-84572530D01*
X141656706Y-84556033D01*
X141651073Y-84539858D01*
X141647815Y-84527953D01*
X141646337Y-84522549D01*
X141643926Y-84517494D01*
X141643924Y-84517489D01*
X141610454Y-84447317D01*
X141608283Y-84442508D01*
X141577805Y-84371053D01*
X141577802Y-84371047D01*
X141575603Y-84365892D01*
X141565756Y-84350902D01*
X141557343Y-84335971D01*
X141552037Y-84324846D01*
X141549622Y-84319782D01*
X141546350Y-84315229D01*
X141546348Y-84315225D01*
X141500990Y-84252103D01*
X141498001Y-84247753D01*
X141454801Y-84181987D01*
X141452265Y-84178126D01*
X141433743Y-84157338D01*
X141425506Y-84147056D01*
X141421799Y-84141897D01*
X141418529Y-84137346D01*
X141341745Y-84062937D01*
X141340335Y-84061548D01*
X136677405Y-79398617D01*
X136643379Y-79336305D01*
X136640500Y-79309522D01*
X136640500Y-76370709D01*
X136660502Y-76302588D01*
X136714158Y-76256095D01*
X136784432Y-76245991D01*
X136849012Y-76275485D01*
X136861737Y-76288212D01*
X136965213Y-76407667D01*
X136972580Y-76414883D01*
X137136434Y-76550916D01*
X137144881Y-76556831D01*
X137328756Y-76664279D01*
X137338042Y-76668729D01*
X137537001Y-76744703D01*
X137546899Y-76747579D01*
X137650250Y-76768606D01*
X137664299Y-76767410D01*
X137668000Y-76757065D01*
X137668000Y-75310000D01*
X137688002Y-75241879D01*
X137741658Y-75195386D01*
X137794000Y-75184000D01*
X138050000Y-75184000D01*
X138118121Y-75204002D01*
X138164614Y-75257658D01*
X138176000Y-75310000D01*
X138176000Y-76756517D01*
X138180064Y-76770359D01*
X138193478Y-76772393D01*
X138200184Y-76771534D01*
X138210262Y-76769392D01*
X138414255Y-76708191D01*
X138423842Y-76704433D01*
X138615095Y-76610739D01*
X138623945Y-76605464D01*
X138797328Y-76481792D01*
X138805200Y-76475139D01*
X138956052Y-76324812D01*
X138962730Y-76316965D01*
X139090022Y-76139819D01*
X139091279Y-76140722D01*
X139138373Y-76097362D01*
X139208311Y-76085145D01*
X139273751Y-76112678D01*
X139301579Y-76144511D01*
X139361987Y-76243088D01*
X139508250Y-76411938D01*
X139680126Y-76554632D01*
X139873000Y-76667338D01*
X139877825Y-76669180D01*
X139877826Y-76669181D01*
X139903076Y-76678823D01*
X140081692Y-76747030D01*
X140086760Y-76748061D01*
X140086763Y-76748062D01*
X140181862Y-76767410D01*
X140300597Y-76791567D01*
X140305772Y-76791757D01*
X140305774Y-76791757D01*
X140518673Y-76799564D01*
X140518677Y-76799564D01*
X140523837Y-76799753D01*
X140528957Y-76799097D01*
X140528959Y-76799097D01*
X140740288Y-76772025D01*
X140740289Y-76772025D01*
X140745416Y-76771368D01*
X140750366Y-76769883D01*
X140954429Y-76708661D01*
X140954434Y-76708659D01*
X140959384Y-76707174D01*
X141159994Y-76608896D01*
X141341860Y-76479173D01*
X141355997Y-76465086D01*
X141476658Y-76344845D01*
X141500096Y-76321489D01*
X141503116Y-76317287D01*
X141627435Y-76144277D01*
X141630453Y-76140077D01*
X141639322Y-76122133D01*
X141727136Y-75944453D01*
X141727137Y-75944451D01*
X141729430Y-75939811D01*
X141784208Y-75759516D01*
X141792865Y-75731023D01*
X141792865Y-75731021D01*
X141794370Y-75726069D01*
X141823529Y-75504590D01*
X141825156Y-75438000D01*
X141806852Y-75215361D01*
X141752431Y-74998702D01*
X141663354Y-74793840D01*
X141542014Y-74606277D01*
X141391670Y-74441051D01*
X141387619Y-74437852D01*
X141387615Y-74437848D01*
X141220414Y-74305800D01*
X141220410Y-74305798D01*
X141216359Y-74302598D01*
X141175053Y-74279796D01*
X141125084Y-74229364D01*
X141110312Y-74159921D01*
X141135428Y-74093516D01*
X141162780Y-74066909D01*
X141206718Y-74035568D01*
X141341860Y-73939173D01*
X141500096Y-73781489D01*
X141630453Y-73600077D01*
X141651320Y-73557857D01*
X141727136Y-73404453D01*
X141727137Y-73404451D01*
X141729430Y-73399811D01*
X141794370Y-73186069D01*
X141823529Y-72964590D01*
X141825156Y-72898000D01*
X141806852Y-72675361D01*
X141752431Y-72458702D01*
X141750375Y-72453973D01*
X141750372Y-72453965D01*
X141730950Y-72409298D01*
X141720500Y-72359056D01*
X141720500Y-68511477D01*
X141740502Y-68443356D01*
X141757405Y-68422382D01*
X141916249Y-68263538D01*
X141978561Y-68229512D01*
X142049376Y-68234577D01*
X142106212Y-68277124D01*
X142131023Y-68343644D01*
X142130956Y-68362519D01*
X142123835Y-68453000D01*
X142142465Y-68689711D01*
X142143619Y-68694518D01*
X142143620Y-68694524D01*
X142159645Y-68761272D01*
X142197895Y-68920594D01*
X142199788Y-68925165D01*
X142199789Y-68925167D01*
X142208080Y-68945182D01*
X142288760Y-69139963D01*
X142291346Y-69144183D01*
X142410241Y-69338202D01*
X142410245Y-69338208D01*
X142412824Y-69342416D01*
X142567031Y-69522969D01*
X142570787Y-69526177D01*
X142578010Y-69532346D01*
X142747584Y-69677176D01*
X142751792Y-69679755D01*
X142751798Y-69679759D01*
X142884195Y-69760892D01*
X142950037Y-69801240D01*
X142954607Y-69803133D01*
X142954611Y-69803135D01*
X143164833Y-69890211D01*
X143169406Y-69892105D01*
X143241620Y-69909442D01*
X143301861Y-69923905D01*
X143361542Y-69957329D01*
X146151595Y-72747382D01*
X146185621Y-72809694D01*
X146188500Y-72836477D01*
X146188500Y-105344522D01*
X146168498Y-105412643D01*
X146151595Y-105433617D01*
X137437617Y-114147595D01*
X137375305Y-114181621D01*
X137348522Y-114184500D01*
X117459396Y-114184500D01*
X117454540Y-114184780D01*
X117449344Y-114185980D01*
X117449341Y-114185980D01*
X117281931Y-114224630D01*
X117275070Y-114226214D01*
X117109240Y-114306379D01*
X116965292Y-114421292D01*
X116850379Y-114565240D01*
X116770214Y-114731070D01*
X116728780Y-114910540D01*
X116728500Y-114915396D01*
X116728500Y-115970604D01*
X116728780Y-115975460D01*
X116770214Y-116154930D01*
X116850379Y-116320760D01*
X116965292Y-116464708D01*
X116980694Y-116477003D01*
X117021452Y-116535132D01*
X117024313Y-116606071D01*
X117003868Y-116647033D01*
X117005008Y-116647799D01*
X116879710Y-116834262D01*
X116789412Y-117039967D01*
X116736968Y-117258411D01*
X116724037Y-117482690D01*
X116751025Y-117705715D01*
X116817082Y-117920435D01*
X116920118Y-118120064D01*
X117056877Y-118298292D01*
X117223036Y-118449485D01*
X117227783Y-118452463D01*
X117227786Y-118452465D01*
X117356227Y-118533035D01*
X117413344Y-118568864D01*
X117621783Y-118652656D01*
X117841767Y-118698213D01*
X117846378Y-118698479D01*
X117846379Y-118698479D01*
X117896952Y-118701395D01*
X117896956Y-118701395D01*
X117898775Y-118701500D01*
X139005604Y-118701500D01*
X139022051Y-118702578D01*
X139038516Y-118704746D01*
X139038520Y-118704746D01*
X139044086Y-118705479D01*
X139125489Y-118701640D01*
X139131424Y-118701500D01*
X139153999Y-118701500D01*
X139179989Y-118699181D01*
X139185248Y-118698822D01*
X139268488Y-118694896D01*
X139273947Y-118693646D01*
X139273952Y-118693645D01*
X139285970Y-118690892D01*
X139302899Y-118688211D01*
X139320762Y-118686617D01*
X139326178Y-118685135D01*
X139326180Y-118685135D01*
X139401133Y-118664630D01*
X139406251Y-118663344D01*
X139482000Y-118645995D01*
X139482002Y-118645994D01*
X139487470Y-118644742D01*
X139502609Y-118638285D01*
X139503967Y-118637706D01*
X139520142Y-118632073D01*
X139532039Y-118628818D01*
X139532043Y-118628817D01*
X139537451Y-118627337D01*
X139612667Y-118591461D01*
X139617476Y-118589290D01*
X139688949Y-118558804D01*
X139688950Y-118558804D01*
X139694109Y-118556603D01*
X139709110Y-118546749D01*
X139724025Y-118538346D01*
X139740218Y-118530622D01*
X139744769Y-118527352D01*
X139744772Y-118527350D01*
X139807881Y-118482001D01*
X139812232Y-118479011D01*
X139878010Y-118435804D01*
X139878018Y-118435798D01*
X139881874Y-118433265D01*
X139902662Y-118414743D01*
X139912939Y-118406510D01*
X139922654Y-118399529D01*
X139997063Y-118322745D01*
X139998452Y-118321335D01*
X150812259Y-107507528D01*
X150824651Y-107496660D01*
X150837843Y-107486538D01*
X150837851Y-107486531D01*
X150842292Y-107483123D01*
X150897168Y-107422815D01*
X150901267Y-107418520D01*
X150917198Y-107402589D01*
X150933934Y-107382573D01*
X150937379Y-107378624D01*
X150989703Y-107321121D01*
X150989706Y-107321117D01*
X150993485Y-107316964D01*
X150997952Y-107309844D01*
X151003012Y-107301776D01*
X151013091Y-107287903D01*
X151020992Y-107278455D01*
X151020997Y-107278448D01*
X151024594Y-107274146D01*
X151065887Y-107201752D01*
X151068592Y-107197232D01*
X151079268Y-107180214D01*
X151091863Y-107160135D01*
X151109886Y-107131404D01*
X151109888Y-107131401D01*
X151112864Y-107126656D01*
X151115644Y-107119742D01*
X151119552Y-107110021D01*
X151127012Y-107094589D01*
X151133120Y-107083881D01*
X151133124Y-107083872D01*
X151135899Y-107079007D01*
X151137768Y-107073730D01*
X151137770Y-107073725D01*
X151163715Y-107000458D01*
X151165580Y-106995522D01*
X151194566Y-106923416D01*
X151196656Y-106918217D01*
X151200294Y-106900650D01*
X151204899Y-106884156D01*
X151210889Y-106867241D01*
X151213713Y-106849996D01*
X151224355Y-106785009D01*
X151225317Y-106779819D01*
X151241277Y-106702754D01*
X151241278Y-106702750D01*
X151242213Y-106698233D01*
X151243815Y-106670452D01*
X151245262Y-106657347D01*
X151246286Y-106651090D01*
X151246286Y-106651083D01*
X151247194Y-106645542D01*
X151245516Y-106538736D01*
X151245500Y-106536757D01*
X151245500Y-70449396D01*
X151246578Y-70432949D01*
X151248747Y-70416472D01*
X151249479Y-70410914D01*
X151245640Y-70329504D01*
X151245500Y-70323569D01*
X151245500Y-70301001D01*
X151245252Y-70298218D01*
X151245251Y-70298204D01*
X151243182Y-70275023D01*
X151242823Y-70269760D01*
X151239161Y-70192116D01*
X151238897Y-70186512D01*
X151234892Y-70169023D01*
X151232212Y-70152104D01*
X151231115Y-70139821D01*
X151230617Y-70134238D01*
X151229137Y-70128827D01*
X151208631Y-70053870D01*
X151207345Y-70048752D01*
X151189994Y-69972997D01*
X151188742Y-69967530D01*
X151181707Y-69951037D01*
X151176072Y-69934855D01*
X151172820Y-69922967D01*
X151172817Y-69922958D01*
X151171337Y-69917549D01*
X151168922Y-69912486D01*
X151168918Y-69912475D01*
X151135466Y-69842343D01*
X151133293Y-69837532D01*
X151122688Y-69812667D01*
X151100604Y-69760892D01*
X151090756Y-69745900D01*
X151082344Y-69730971D01*
X151074622Y-69714782D01*
X151025996Y-69647111D01*
X151023013Y-69642771D01*
X150979805Y-69576992D01*
X150979801Y-69576987D01*
X150977265Y-69573126D01*
X150958751Y-69552346D01*
X150950506Y-69542055D01*
X150946807Y-69536907D01*
X150946803Y-69536903D01*
X150943529Y-69532346D01*
X150866777Y-69457968D01*
X150865367Y-69456579D01*
X145309905Y-63901117D01*
X145275879Y-63838805D01*
X145273000Y-63812022D01*
X145273000Y-62298977D01*
X145293002Y-62230856D01*
X145309905Y-62209882D01*
X147532842Y-59986946D01*
X149777263Y-57742525D01*
X149789654Y-57731657D01*
X149802848Y-57721533D01*
X149807292Y-57718123D01*
X149862158Y-57657826D01*
X149866257Y-57653531D01*
X149882198Y-57637590D01*
X149898942Y-57617564D01*
X149902401Y-57613599D01*
X149954708Y-57556115D01*
X149954709Y-57556114D01*
X149958485Y-57551964D01*
X149968016Y-57536770D01*
X149978085Y-57522910D01*
X149989593Y-57509147D01*
X150030869Y-57436782D01*
X150033579Y-57432253D01*
X150074885Y-57366405D01*
X150077864Y-57361656D01*
X150084553Y-57345017D01*
X150092012Y-57329587D01*
X150098119Y-57318881D01*
X150098123Y-57318872D01*
X150100898Y-57314007D01*
X150128712Y-57235462D01*
X150130573Y-57230537D01*
X150133591Y-57223031D01*
X150161656Y-57153217D01*
X150165296Y-57135639D01*
X150169902Y-57119146D01*
X150175888Y-57102241D01*
X150181361Y-57068824D01*
X150189352Y-57020023D01*
X150190314Y-57014833D01*
X150206276Y-56937756D01*
X150207213Y-56933233D01*
X150208816Y-56905437D01*
X150210263Y-56892331D01*
X150211286Y-56886086D01*
X150211287Y-56886079D01*
X150212193Y-56880543D01*
X150211775Y-56853895D01*
X150210516Y-56773770D01*
X150210500Y-56771791D01*
X150210500Y-50539395D01*
X150211578Y-50522948D01*
X150213746Y-50506483D01*
X150213746Y-50506479D01*
X150214479Y-50500913D01*
X150210640Y-50419511D01*
X150210500Y-50413576D01*
X150210500Y-50391001D01*
X150208181Y-50365011D01*
X150207822Y-50359749D01*
X150205054Y-50301072D01*
X150203896Y-50276512D01*
X150199892Y-50259030D01*
X150197211Y-50242100D01*
X150196116Y-50229832D01*
X150195617Y-50224238D01*
X150176950Y-50156001D01*
X150173630Y-50143867D01*
X150172344Y-50138749D01*
X150154995Y-50063000D01*
X150154994Y-50062998D01*
X150153742Y-50057530D01*
X150146706Y-50041033D01*
X150141073Y-50024858D01*
X150137818Y-50012961D01*
X150137817Y-50012957D01*
X150136337Y-50007549D01*
X150106731Y-49945478D01*
X150100461Y-49932333D01*
X150098290Y-49927524D01*
X150067804Y-49856051D01*
X150067804Y-49856050D01*
X150065603Y-49850891D01*
X150055749Y-49835890D01*
X150047343Y-49820970D01*
X150042035Y-49809841D01*
X150039622Y-49804782D01*
X149990994Y-49737108D01*
X149988011Y-49732768D01*
X149944804Y-49666990D01*
X149944798Y-49666982D01*
X149942265Y-49663126D01*
X149923743Y-49642338D01*
X149915506Y-49632056D01*
X149911799Y-49626897D01*
X149908529Y-49622346D01*
X149831746Y-49547938D01*
X149830336Y-49546549D01*
X147686525Y-47402737D01*
X147675657Y-47390346D01*
X147665533Y-47377152D01*
X147662123Y-47372708D01*
X147601826Y-47317842D01*
X147597531Y-47313743D01*
X147581590Y-47297802D01*
X147579440Y-47296004D01*
X147561577Y-47281068D01*
X147557602Y-47277600D01*
X147500112Y-47225288D01*
X147500103Y-47225281D01*
X147495964Y-47221515D01*
X147480773Y-47211986D01*
X147466907Y-47201911D01*
X147457451Y-47194004D01*
X147457441Y-47193997D01*
X147453146Y-47190406D01*
X147380752Y-47149113D01*
X147376232Y-47146408D01*
X147310404Y-47105114D01*
X147310401Y-47105112D01*
X147305656Y-47102136D01*
X147300451Y-47100043D01*
X147300448Y-47100042D01*
X147289021Y-47095448D01*
X147273589Y-47087988D01*
X147262881Y-47081880D01*
X147262872Y-47081876D01*
X147258007Y-47079101D01*
X147252730Y-47077232D01*
X147252725Y-47077230D01*
X147179458Y-47051285D01*
X147174522Y-47049420D01*
X147102416Y-47020434D01*
X147097217Y-47018344D01*
X147091730Y-47017208D01*
X147091728Y-47017207D01*
X147079651Y-47014706D01*
X147063156Y-47010101D01*
X147046241Y-47004111D01*
X146963990Y-46990641D01*
X146958820Y-46989683D01*
X146877233Y-46972787D01*
X146872621Y-46972521D01*
X146872620Y-46972521D01*
X146849452Y-46971185D01*
X146836347Y-46969738D01*
X146830090Y-46968714D01*
X146830086Y-46968714D01*
X146824543Y-46967806D01*
X146818930Y-46967894D01*
X146818928Y-46967894D01*
X146717736Y-46969484D01*
X146715757Y-46969500D01*
X144619850Y-46969500D01*
X144551729Y-46949498D01*
X144505236Y-46895842D01*
X144495132Y-46825568D01*
X144497080Y-46815156D01*
X144508518Y-46765613D01*
X144509944Y-46755653D01*
X144510000Y-46753723D01*
X144510000Y-46500115D01*
X144505525Y-46484876D01*
X144504135Y-46483671D01*
X144496452Y-46482000D01*
X141512116Y-46482000D01*
X141496877Y-46486475D01*
X141495672Y-46487865D01*
X141494001Y-46495548D01*
X141494001Y-46753753D01*
X141494055Y-46755644D01*
X141495480Y-46765600D01*
X141534105Y-46932902D01*
X141538755Y-46946105D01*
X141583498Y-47038661D01*
X141595138Y-47108697D01*
X141567066Y-47173908D01*
X141508195Y-47213590D01*
X141470058Y-47219500D01*
X135643942Y-47219500D01*
X135575821Y-47199498D01*
X135529328Y-47145842D01*
X135519224Y-47075568D01*
X135530502Y-47038661D01*
X135575245Y-46946105D01*
X135579895Y-46932902D01*
X135618520Y-46765601D01*
X135619944Y-46755653D01*
X135620000Y-46753723D01*
X135620000Y-46500115D01*
X135615525Y-46484876D01*
X135614135Y-46483671D01*
X135606452Y-46482000D01*
X132622116Y-46482000D01*
X132606877Y-46486475D01*
X132605672Y-46487865D01*
X132604001Y-46495548D01*
X132604001Y-46753753D01*
X132604055Y-46755644D01*
X132605480Y-46765600D01*
X132644105Y-46932902D01*
X132648755Y-46946105D01*
X132693498Y-47038661D01*
X132705138Y-47108697D01*
X132677066Y-47173908D01*
X132618195Y-47213590D01*
X132580058Y-47219500D01*
X126753942Y-47219500D01*
X126685821Y-47199498D01*
X126639328Y-47145842D01*
X126629224Y-47075568D01*
X126640502Y-47038661D01*
X126685245Y-46946105D01*
X126689895Y-46932902D01*
X126728520Y-46765601D01*
X126729944Y-46755653D01*
X126730000Y-46753723D01*
X126730000Y-46500115D01*
X126725525Y-46484876D01*
X126724135Y-46483671D01*
X126716452Y-46482000D01*
X123732116Y-46482000D01*
X123716877Y-46486475D01*
X123715672Y-46487865D01*
X123714001Y-46495548D01*
X123714001Y-46753753D01*
X123714055Y-46755644D01*
X123715480Y-46765600D01*
X123754105Y-46932902D01*
X123758755Y-46946105D01*
X123803498Y-47038661D01*
X123815138Y-47108697D01*
X123787066Y-47173908D01*
X123728195Y-47213590D01*
X123690058Y-47219500D01*
X115323942Y-47219500D01*
X115255821Y-47199498D01*
X115209328Y-47145842D01*
X115199224Y-47075568D01*
X115210502Y-47038661D01*
X115255245Y-46946105D01*
X115259895Y-46932902D01*
X115298520Y-46765601D01*
X115299944Y-46755653D01*
X115300000Y-46753723D01*
X115300000Y-46500115D01*
X115295525Y-46484876D01*
X115294135Y-46483671D01*
X115286452Y-46482000D01*
X112302116Y-46482000D01*
X112286877Y-46486475D01*
X112285672Y-46487865D01*
X112284001Y-46495548D01*
X112284001Y-46753753D01*
X112284055Y-46755644D01*
X112285480Y-46765600D01*
X112324105Y-46932902D01*
X112328755Y-46946105D01*
X112373498Y-47038661D01*
X112385138Y-47108697D01*
X112357066Y-47173908D01*
X112298195Y-47213590D01*
X112260058Y-47219500D01*
X107068942Y-47219500D01*
X107000821Y-47199498D01*
X106954328Y-47145842D01*
X106944224Y-47075568D01*
X106955502Y-47038661D01*
X107000245Y-46946105D01*
X107004895Y-46932902D01*
X107043520Y-46765601D01*
X107044944Y-46755653D01*
X107045000Y-46753723D01*
X107045000Y-46500115D01*
X107040525Y-46484876D01*
X107039135Y-46483671D01*
X107031452Y-46482000D01*
X104047116Y-46482000D01*
X104031877Y-46486475D01*
X104030672Y-46487865D01*
X104029001Y-46495548D01*
X104029001Y-46753753D01*
X104029055Y-46755644D01*
X104030480Y-46765600D01*
X104069105Y-46932902D01*
X104073755Y-46946105D01*
X104118498Y-47038661D01*
X104130138Y-47108697D01*
X104102066Y-47173908D01*
X104043195Y-47213590D01*
X104005058Y-47219500D01*
X99535729Y-47219500D01*
X99467608Y-47199498D01*
X99437258Y-47172109D01*
X99400860Y-47126515D01*
X99388708Y-47111292D01*
X99244760Y-46996379D01*
X99232895Y-46990643D01*
X99146054Y-46948663D01*
X99078930Y-46916214D01*
X99063514Y-46912655D01*
X98904659Y-46875980D01*
X98904656Y-46875980D01*
X98899460Y-46874780D01*
X98894604Y-46874500D01*
X97339396Y-46874500D01*
X97334540Y-46874780D01*
X97329344Y-46875980D01*
X97329341Y-46875980D01*
X97170486Y-46912655D01*
X97155070Y-46916214D01*
X97087946Y-46948663D01*
X97001106Y-46990643D01*
X96989240Y-46996379D01*
X96854156Y-47104216D01*
X96788442Y-47131083D01*
X96718632Y-47118156D01*
X96708593Y-47112482D01*
X96696848Y-47105114D01*
X96540656Y-47007136D01*
X96332217Y-46923344D01*
X96112233Y-46877787D01*
X96107622Y-46877521D01*
X96107621Y-46877521D01*
X96057048Y-46874605D01*
X96057044Y-46874605D01*
X96055225Y-46874500D01*
X93278396Y-46874500D01*
X93261949Y-46873422D01*
X93261270Y-46873333D01*
X93239914Y-46870521D01*
X93234314Y-46870785D01*
X93234313Y-46870785D01*
X93158504Y-46874360D01*
X93152569Y-46874500D01*
X93130001Y-46874500D01*
X93127218Y-46874748D01*
X93127204Y-46874749D01*
X93104023Y-46876818D01*
X93098760Y-46877177D01*
X93069342Y-46878564D01*
X93015512Y-46881103D01*
X92998023Y-46885108D01*
X92981104Y-46887788D01*
X92976618Y-46888189D01*
X92963238Y-46889383D01*
X92957830Y-46890862D01*
X92957827Y-46890863D01*
X92882870Y-46911369D01*
X92877752Y-46912655D01*
X92821932Y-46925440D01*
X92796530Y-46931258D01*
X92780037Y-46938293D01*
X92763855Y-46943928D01*
X92751967Y-46947180D01*
X92751958Y-46947183D01*
X92746549Y-46948663D01*
X92741486Y-46951078D01*
X92741475Y-46951082D01*
X92671343Y-46984534D01*
X92666542Y-46986702D01*
X92589892Y-47019396D01*
X92585204Y-47022475D01*
X92585203Y-47022476D01*
X92574900Y-47029244D01*
X92559971Y-47037656D01*
X92543782Y-47045378D01*
X92539226Y-47048652D01*
X92539224Y-47048653D01*
X92512064Y-47068169D01*
X92478562Y-47092244D01*
X92476122Y-47093997D01*
X92471771Y-47096987D01*
X92405992Y-47140195D01*
X92405987Y-47140199D01*
X92402126Y-47142735D01*
X92396429Y-47147811D01*
X92381346Y-47161249D01*
X92371055Y-47169494D01*
X92365907Y-47173193D01*
X92365903Y-47173197D01*
X92361346Y-47176471D01*
X92331354Y-47207420D01*
X92286968Y-47253223D01*
X92285579Y-47254633D01*
X90106737Y-49433475D01*
X90094347Y-49444342D01*
X90076708Y-49457877D01*
X90050371Y-49486821D01*
X90021842Y-49518174D01*
X90017743Y-49522469D01*
X90001802Y-49538410D01*
X90000007Y-49540557D01*
X90000005Y-49540559D01*
X89985068Y-49558423D01*
X89981600Y-49562398D01*
X89929288Y-49619888D01*
X89929281Y-49619897D01*
X89925515Y-49624036D01*
X89922538Y-49628782D01*
X89922537Y-49628783D01*
X89915987Y-49639225D01*
X89905911Y-49653093D01*
X89898004Y-49662549D01*
X89897997Y-49662559D01*
X89894406Y-49666854D01*
X89855551Y-49734974D01*
X89853118Y-49739240D01*
X89850413Y-49743759D01*
X89806136Y-49814344D01*
X89804043Y-49819549D01*
X89804042Y-49819552D01*
X89799448Y-49830979D01*
X89791988Y-49846411D01*
X89785880Y-49857119D01*
X89785876Y-49857128D01*
X89783101Y-49861993D01*
X89781232Y-49867270D01*
X89781230Y-49867275D01*
X89755285Y-49940542D01*
X89753420Y-49945478D01*
X89722344Y-50022783D01*
X89721208Y-50028270D01*
X89721207Y-50028272D01*
X89718706Y-50040349D01*
X89714101Y-50056844D01*
X89708111Y-50073759D01*
X89707204Y-50079298D01*
X89694643Y-50156001D01*
X89693683Y-50161180D01*
X89676787Y-50242767D01*
X89676521Y-50247379D01*
X89676521Y-50247380D01*
X89675185Y-50270548D01*
X89673738Y-50283653D01*
X89672714Y-50289910D01*
X89671806Y-50295457D01*
X89671894Y-50301070D01*
X89671894Y-50301072D01*
X89673484Y-50402264D01*
X89673500Y-50404243D01*
X89673500Y-57424059D01*
X89654932Y-57489894D01*
X89586351Y-57601807D01*
X89586346Y-57601817D01*
X89583760Y-57606037D01*
X89581867Y-57610607D01*
X89581865Y-57610611D01*
X89536827Y-57719344D01*
X89492895Y-57825406D01*
X89491740Y-57830218D01*
X89446768Y-58017540D01*
X89437465Y-58056289D01*
X89418835Y-58293000D01*
X88460000Y-58293000D01*
X88460000Y-45955885D01*
X104029000Y-45955885D01*
X104033475Y-45971124D01*
X104034865Y-45972329D01*
X104042548Y-45974000D01*
X105264885Y-45974000D01*
X105280124Y-45969525D01*
X105281329Y-45968135D01*
X105283000Y-45960452D01*
X105283000Y-45955885D01*
X105791000Y-45955885D01*
X105795475Y-45971124D01*
X105796865Y-45972329D01*
X105804548Y-45974000D01*
X107026884Y-45974000D01*
X107042123Y-45969525D01*
X107043328Y-45968135D01*
X107044999Y-45960452D01*
X107044999Y-45955885D01*
X112284000Y-45955885D01*
X112288475Y-45971124D01*
X112289865Y-45972329D01*
X112297548Y-45974000D01*
X113519885Y-45974000D01*
X113535124Y-45969525D01*
X113536329Y-45968135D01*
X113538000Y-45960452D01*
X113538000Y-45955885D01*
X114046000Y-45955885D01*
X114050475Y-45971124D01*
X114051865Y-45972329D01*
X114059548Y-45974000D01*
X115281884Y-45974000D01*
X115297123Y-45969525D01*
X115298328Y-45968135D01*
X115299999Y-45960452D01*
X115299999Y-45955885D01*
X123714000Y-45955885D01*
X123718475Y-45971124D01*
X123719865Y-45972329D01*
X123727548Y-45974000D01*
X124949885Y-45974000D01*
X124965124Y-45969525D01*
X124966329Y-45968135D01*
X124968000Y-45960452D01*
X124968000Y-45955885D01*
X125476000Y-45955885D01*
X125480475Y-45971124D01*
X125481865Y-45972329D01*
X125489548Y-45974000D01*
X126711884Y-45974000D01*
X126727123Y-45969525D01*
X126728328Y-45968135D01*
X126729999Y-45960452D01*
X126729999Y-45955885D01*
X132604000Y-45955885D01*
X132608475Y-45971124D01*
X132609865Y-45972329D01*
X132617548Y-45974000D01*
X133839885Y-45974000D01*
X133855124Y-45969525D01*
X133856329Y-45968135D01*
X133858000Y-45960452D01*
X133858000Y-45955885D01*
X134366000Y-45955885D01*
X134370475Y-45971124D01*
X134371865Y-45972329D01*
X134379548Y-45974000D01*
X135601884Y-45974000D01*
X135617123Y-45969525D01*
X135618328Y-45968135D01*
X135619999Y-45960452D01*
X135619999Y-45955885D01*
X141494000Y-45955885D01*
X141498475Y-45971124D01*
X141499865Y-45972329D01*
X141507548Y-45974000D01*
X142729885Y-45974000D01*
X142745124Y-45969525D01*
X142746329Y-45968135D01*
X142748000Y-45960452D01*
X142748000Y-45955885D01*
X143256000Y-45955885D01*
X143260475Y-45971124D01*
X143261865Y-45972329D01*
X143269548Y-45974000D01*
X144491884Y-45974000D01*
X144507123Y-45969525D01*
X144508328Y-45968135D01*
X144509999Y-45960452D01*
X144509999Y-45702247D01*
X144509945Y-45700356D01*
X144508520Y-45690400D01*
X144469895Y-45523098D01*
X144465245Y-45509895D01*
X144391262Y-45356852D01*
X144383798Y-45345000D01*
X144277745Y-45212151D01*
X144267849Y-45202255D01*
X144135000Y-45096202D01*
X144123148Y-45088738D01*
X143970105Y-45014755D01*
X143956902Y-45010105D01*
X143789601Y-44971480D01*
X143779653Y-44970056D01*
X143777723Y-44970000D01*
X143274115Y-44970000D01*
X143258876Y-44974475D01*
X143257671Y-44975865D01*
X143256000Y-44983548D01*
X143256000Y-45955885D01*
X142748000Y-45955885D01*
X142748000Y-44988116D01*
X142743525Y-44972877D01*
X142742135Y-44971672D01*
X142734452Y-44970001D01*
X142226247Y-44970001D01*
X142224356Y-44970055D01*
X142214400Y-44971480D01*
X142047098Y-45010105D01*
X142033895Y-45014755D01*
X141880852Y-45088738D01*
X141869000Y-45096202D01*
X141736151Y-45202255D01*
X141726255Y-45212151D01*
X141620202Y-45345000D01*
X141612738Y-45356852D01*
X141538755Y-45509895D01*
X141534105Y-45523098D01*
X141495480Y-45690399D01*
X141494056Y-45700347D01*
X141494000Y-45702277D01*
X141494000Y-45955885D01*
X135619999Y-45955885D01*
X135619999Y-45702247D01*
X135619945Y-45700356D01*
X135618520Y-45690400D01*
X135579895Y-45523098D01*
X135575245Y-45509895D01*
X135501262Y-45356852D01*
X135493798Y-45345000D01*
X135387745Y-45212151D01*
X135377849Y-45202255D01*
X135245000Y-45096202D01*
X135233148Y-45088738D01*
X135080105Y-45014755D01*
X135066902Y-45010105D01*
X134899601Y-44971480D01*
X134889653Y-44970056D01*
X134887723Y-44970000D01*
X134384115Y-44970000D01*
X134368876Y-44974475D01*
X134367671Y-44975865D01*
X134366000Y-44983548D01*
X134366000Y-45955885D01*
X133858000Y-45955885D01*
X133858000Y-44988116D01*
X133853525Y-44972877D01*
X133852135Y-44971672D01*
X133844452Y-44970001D01*
X133336247Y-44970001D01*
X133334356Y-44970055D01*
X133324400Y-44971480D01*
X133157098Y-45010105D01*
X133143895Y-45014755D01*
X132990852Y-45088738D01*
X132979000Y-45096202D01*
X132846151Y-45202255D01*
X132836255Y-45212151D01*
X132730202Y-45345000D01*
X132722738Y-45356852D01*
X132648755Y-45509895D01*
X132644105Y-45523098D01*
X132605480Y-45690399D01*
X132604056Y-45700347D01*
X132604000Y-45702277D01*
X132604000Y-45955885D01*
X126729999Y-45955885D01*
X126729999Y-45702247D01*
X126729945Y-45700356D01*
X126728520Y-45690400D01*
X126689895Y-45523098D01*
X126685245Y-45509895D01*
X126611262Y-45356852D01*
X126603798Y-45345000D01*
X126497745Y-45212151D01*
X126487849Y-45202255D01*
X126355000Y-45096202D01*
X126343148Y-45088738D01*
X126190105Y-45014755D01*
X126176902Y-45010105D01*
X126009601Y-44971480D01*
X125999653Y-44970056D01*
X125997723Y-44970000D01*
X125494115Y-44970000D01*
X125478876Y-44974475D01*
X125477671Y-44975865D01*
X125476000Y-44983548D01*
X125476000Y-45955885D01*
X124968000Y-45955885D01*
X124968000Y-44988116D01*
X124963525Y-44972877D01*
X124962135Y-44971672D01*
X124954452Y-44970001D01*
X124446247Y-44970001D01*
X124444356Y-44970055D01*
X124434400Y-44971480D01*
X124267098Y-45010105D01*
X124253895Y-45014755D01*
X124100852Y-45088738D01*
X124089000Y-45096202D01*
X123956151Y-45202255D01*
X123946255Y-45212151D01*
X123840202Y-45345000D01*
X123832738Y-45356852D01*
X123758755Y-45509895D01*
X123754105Y-45523098D01*
X123715480Y-45690399D01*
X123714056Y-45700347D01*
X123714000Y-45702277D01*
X123714000Y-45955885D01*
X115299999Y-45955885D01*
X115299999Y-45702247D01*
X115299945Y-45700356D01*
X115298520Y-45690400D01*
X115259895Y-45523098D01*
X115255245Y-45509895D01*
X115181262Y-45356852D01*
X115173798Y-45345000D01*
X115067745Y-45212151D01*
X115057849Y-45202255D01*
X114925000Y-45096202D01*
X114913148Y-45088738D01*
X114760105Y-45014755D01*
X114746902Y-45010105D01*
X114579601Y-44971480D01*
X114569653Y-44970056D01*
X114567723Y-44970000D01*
X114064115Y-44970000D01*
X114048876Y-44974475D01*
X114047671Y-44975865D01*
X114046000Y-44983548D01*
X114046000Y-45955885D01*
X113538000Y-45955885D01*
X113538000Y-44988116D01*
X113533525Y-44972877D01*
X113532135Y-44971672D01*
X113524452Y-44970001D01*
X113016247Y-44970001D01*
X113014356Y-44970055D01*
X113004400Y-44971480D01*
X112837098Y-45010105D01*
X112823895Y-45014755D01*
X112670852Y-45088738D01*
X112659000Y-45096202D01*
X112526151Y-45202255D01*
X112516255Y-45212151D01*
X112410202Y-45345000D01*
X112402738Y-45356852D01*
X112328755Y-45509895D01*
X112324105Y-45523098D01*
X112285480Y-45690399D01*
X112284056Y-45700347D01*
X112284000Y-45702277D01*
X112284000Y-45955885D01*
X107044999Y-45955885D01*
X107044999Y-45702247D01*
X107044945Y-45700356D01*
X107043520Y-45690400D01*
X107004895Y-45523098D01*
X107000245Y-45509895D01*
X106926262Y-45356852D01*
X106918798Y-45345000D01*
X106812745Y-45212151D01*
X106802849Y-45202255D01*
X106670000Y-45096202D01*
X106658148Y-45088738D01*
X106505105Y-45014755D01*
X106491902Y-45010105D01*
X106324601Y-44971480D01*
X106314653Y-44970056D01*
X106312723Y-44970000D01*
X105809115Y-44970000D01*
X105793876Y-44974475D01*
X105792671Y-44975865D01*
X105791000Y-44983548D01*
X105791000Y-45955885D01*
X105283000Y-45955885D01*
X105283000Y-44988116D01*
X105278525Y-44972877D01*
X105277135Y-44971672D01*
X105269452Y-44970001D01*
X104761247Y-44970001D01*
X104759356Y-44970055D01*
X104749400Y-44971480D01*
X104582098Y-45010105D01*
X104568895Y-45014755D01*
X104415852Y-45088738D01*
X104404000Y-45096202D01*
X104271151Y-45202255D01*
X104261255Y-45212151D01*
X104155202Y-45345000D01*
X104147738Y-45356852D01*
X104073755Y-45509895D01*
X104069105Y-45523098D01*
X104030480Y-45690399D01*
X104029056Y-45700347D01*
X104029000Y-45702277D01*
X104029000Y-45955885D01*
X88460000Y-45955885D01*
X88460000Y-40580703D01*
X90842743Y-40580703D01*
X90880268Y-40865734D01*
X90956129Y-41143036D01*
X91068923Y-41407476D01*
X91216561Y-41654161D01*
X91396313Y-41878528D01*
X91604851Y-42076423D01*
X91838317Y-42244186D01*
X91842112Y-42246195D01*
X91842113Y-42246196D01*
X91863869Y-42257715D01*
X92092392Y-42378712D01*
X92362373Y-42477511D01*
X92643264Y-42538755D01*
X92671841Y-42541004D01*
X92866282Y-42556307D01*
X92866291Y-42556307D01*
X92868739Y-42556500D01*
X93024271Y-42556500D01*
X93026407Y-42556354D01*
X93026418Y-42556354D01*
X93234548Y-42542165D01*
X93234554Y-42542164D01*
X93238825Y-42541873D01*
X93243020Y-42541004D01*
X93243022Y-42541004D01*
X93379584Y-42512723D01*
X93520342Y-42483574D01*
X93791343Y-42387607D01*
X94046812Y-42255750D01*
X94050313Y-42253289D01*
X94050317Y-42253287D01*
X94164417Y-42173096D01*
X94282023Y-42090441D01*
X94492622Y-41894740D01*
X94674713Y-41672268D01*
X94824927Y-41427142D01*
X94940483Y-41163898D01*
X95019244Y-40887406D01*
X95059751Y-40602784D01*
X95059845Y-40584951D01*
X95059867Y-40580703D01*
X145842743Y-40580703D01*
X145880268Y-40865734D01*
X145956129Y-41143036D01*
X146068923Y-41407476D01*
X146216561Y-41654161D01*
X146396313Y-41878528D01*
X146604851Y-42076423D01*
X146838317Y-42244186D01*
X146842112Y-42246195D01*
X146842113Y-42246196D01*
X146863869Y-42257715D01*
X147092392Y-42378712D01*
X147362373Y-42477511D01*
X147643264Y-42538755D01*
X147671841Y-42541004D01*
X147866282Y-42556307D01*
X147866291Y-42556307D01*
X147868739Y-42556500D01*
X148024271Y-42556500D01*
X148026407Y-42556354D01*
X148026418Y-42556354D01*
X148234548Y-42542165D01*
X148234554Y-42542164D01*
X148238825Y-42541873D01*
X148243020Y-42541004D01*
X148243022Y-42541004D01*
X148379584Y-42512723D01*
X148520342Y-42483574D01*
X148791343Y-42387607D01*
X149046812Y-42255750D01*
X149050313Y-42253289D01*
X149050317Y-42253287D01*
X149164417Y-42173096D01*
X149282023Y-42090441D01*
X149492622Y-41894740D01*
X149674713Y-41672268D01*
X149824927Y-41427142D01*
X149940483Y-41163898D01*
X150019244Y-40887406D01*
X150059751Y-40602784D01*
X150059845Y-40584951D01*
X150061235Y-40319583D01*
X150061235Y-40319576D01*
X150061257Y-40315297D01*
X150023732Y-40030266D01*
X149947871Y-39752964D01*
X149835077Y-39488524D01*
X149687439Y-39241839D01*
X149507687Y-39017472D01*
X149299149Y-38819577D01*
X149065683Y-38651814D01*
X149043843Y-38640250D01*
X149020654Y-38627972D01*
X148811608Y-38517288D01*
X148541627Y-38418489D01*
X148260736Y-38357245D01*
X148229685Y-38354801D01*
X148037718Y-38339693D01*
X148037709Y-38339693D01*
X148035261Y-38339500D01*
X147879729Y-38339500D01*
X147877593Y-38339646D01*
X147877582Y-38339646D01*
X147669452Y-38353835D01*
X147669446Y-38353836D01*
X147665175Y-38354127D01*
X147660980Y-38354996D01*
X147660978Y-38354996D01*
X147524416Y-38383277D01*
X147383658Y-38412426D01*
X147112657Y-38508393D01*
X146857188Y-38640250D01*
X146853687Y-38642711D01*
X146853683Y-38642713D01*
X146843594Y-38649804D01*
X146621977Y-38805559D01*
X146606892Y-38819577D01*
X146513279Y-38906568D01*
X146411378Y-39001260D01*
X146229287Y-39223732D01*
X146079073Y-39468858D01*
X145963517Y-39732102D01*
X145884756Y-40008594D01*
X145844249Y-40293216D01*
X145844227Y-40297505D01*
X145844226Y-40297512D01*
X145843159Y-40501207D01*
X145842743Y-40580703D01*
X95059867Y-40580703D01*
X95061235Y-40319583D01*
X95061235Y-40319576D01*
X95061257Y-40315297D01*
X95023732Y-40030266D01*
X94947871Y-39752964D01*
X94835077Y-39488524D01*
X94687439Y-39241839D01*
X94507687Y-39017472D01*
X94299149Y-38819577D01*
X94065683Y-38651814D01*
X94043843Y-38640250D01*
X94020654Y-38627972D01*
X93811608Y-38517288D01*
X93541627Y-38418489D01*
X93260736Y-38357245D01*
X93229685Y-38354801D01*
X93037718Y-38339693D01*
X93037709Y-38339693D01*
X93035261Y-38339500D01*
X92879729Y-38339500D01*
X92877593Y-38339646D01*
X92877582Y-38339646D01*
X92669452Y-38353835D01*
X92669446Y-38353836D01*
X92665175Y-38354127D01*
X92660980Y-38354996D01*
X92660978Y-38354996D01*
X92524416Y-38383277D01*
X92383658Y-38412426D01*
X92112657Y-38508393D01*
X91857188Y-38640250D01*
X91853687Y-38642711D01*
X91853683Y-38642713D01*
X91843594Y-38649804D01*
X91621977Y-38805559D01*
X91606892Y-38819577D01*
X91513279Y-38906568D01*
X91411378Y-39001260D01*
X91229287Y-39223732D01*
X91079073Y-39468858D01*
X90963517Y-39732102D01*
X90884756Y-40008594D01*
X90844249Y-40293216D01*
X90844227Y-40297505D01*
X90844226Y-40297512D01*
X90843159Y-40501207D01*
X90842743Y-40580703D01*
X88460000Y-40580703D01*
X88460000Y-40501207D01*
X88461746Y-40480303D01*
X88464264Y-40465335D01*
X88465071Y-40460539D01*
X88465224Y-40448000D01*
X88462885Y-40431664D01*
X88461733Y-40408311D01*
X88465980Y-40311049D01*
X88476853Y-40061993D01*
X88477811Y-40051042D01*
X88527527Y-39673421D01*
X88529436Y-39662597D01*
X88611870Y-39290757D01*
X88614715Y-39280139D01*
X88701599Y-39004579D01*
X88729248Y-38916890D01*
X88733004Y-38906568D01*
X88769037Y-38819577D01*
X88878766Y-38554666D01*
X88883399Y-38544731D01*
X89059278Y-38206872D01*
X89064768Y-38197363D01*
X89269410Y-37876140D01*
X89275714Y-37867136D01*
X89507583Y-37564957D01*
X89514649Y-37556537D01*
X89771959Y-37275732D01*
X89779732Y-37267959D01*
X90060537Y-37010649D01*
X90068957Y-37003583D01*
X90371136Y-36771714D01*
X90380140Y-36765410D01*
X90701363Y-36560768D01*
X90710872Y-36555278D01*
X91048731Y-36379399D01*
X91058666Y-36374766D01*
X91410575Y-36229001D01*
X91420890Y-36225248D01*
X91784140Y-36110715D01*
X91794757Y-36107870D01*
X92166597Y-36025436D01*
X92177421Y-36023527D01*
X92555042Y-35973811D01*
X92565993Y-35972853D01*
X92833226Y-35961186D01*
X92908583Y-35957896D01*
X92933462Y-35959276D01*
X92945730Y-35961186D01*
X92977252Y-35957064D01*
X92993589Y-35956000D01*
X147902672Y-35956000D01*
X147922057Y-35957500D01*
G37*
%TD.AperFunction*%
%TD*%
M02*
