%TF.GenerationSoftware,KiCad,Pcbnew,(6.0.0)*%
%TF.CreationDate,2022-03-06T17:11:13+01:00*%
%TF.ProjectId,Alimentation,416c696d-656e-4746-9174-696f6e2e6b69,rev?*%
%TF.SameCoordinates,Original*%
%TF.FileFunction,Copper,L1,Top*%
%TF.FilePolarity,Positive*%
%FSLAX46Y46*%
G04 Gerber Fmt 4.6, Leading zero omitted, Abs format (unit mm)*
G04 Created by KiCad (PCBNEW (6.0.0)) date 2022-03-06 17:11:13*
%MOMM*%
%LPD*%
G01*
G04 APERTURE LIST*
G04 Aperture macros list*
%AMRoundRect*
0 Rectangle with rounded corners*
0 $1 Rounding radius*
0 $2 $3 $4 $5 $6 $7 $8 $9 X,Y pos of 4 corners*
0 Add a 4 corners polygon primitive as box body*
4,1,4,$2,$3,$4,$5,$6,$7,$8,$9,$2,$3,0*
0 Add four circle primitives for the rounded corners*
1,1,$1+$1,$2,$3*
1,1,$1+$1,$4,$5*
1,1,$1+$1,$6,$7*
1,1,$1+$1,$8,$9*
0 Add four rect primitives between the rounded corners*
20,1,$1+$1,$2,$3,$4,$5,0*
20,1,$1+$1,$4,$5,$6,$7,0*
20,1,$1+$1,$6,$7,$8,$9,0*
20,1,$1+$1,$8,$9,$2,$3,0*%
G04 Aperture macros list end*
%TA.AperFunction,ComponentPad*%
%ADD10C,2.000000*%
%TD*%
%TA.AperFunction,ComponentPad*%
%ADD11RoundRect,0.312500X0.687500X-0.437500X0.687500X0.437500X-0.687500X0.437500X-0.687500X-0.437500X0*%
%TD*%
%TA.AperFunction,ComponentPad*%
%ADD12O,2.000000X1.500000*%
%TD*%
%TA.AperFunction,ComponentPad*%
%ADD13RoundRect,0.312500X-0.687500X0.437500X-0.687500X-0.437500X0.687500X-0.437500X0.687500X0.437500X0*%
%TD*%
%TA.AperFunction,ComponentPad*%
%ADD14R,2.500000X2.500000*%
%TD*%
%TA.AperFunction,ComponentPad*%
%ADD15O,2.500000X2.500000*%
%TD*%
%TA.AperFunction,ComponentPad*%
%ADD16R,2.500000X1.500000*%
%TD*%
%TA.AperFunction,ComponentPad*%
%ADD17O,2.500000X1.500000*%
%TD*%
%TA.AperFunction,ComponentPad*%
%ADD18R,1.700000X1.700000*%
%TD*%
%TA.AperFunction,ComponentPad*%
%ADD19O,1.700000X1.700000*%
%TD*%
%TA.AperFunction,ComponentPad*%
%ADD20R,2.400000X2.400000*%
%TD*%
%TA.AperFunction,ComponentPad*%
%ADD21O,2.400000X2.400000*%
%TD*%
%TA.AperFunction,ComponentPad*%
%ADD22C,1.400000*%
%TD*%
%TA.AperFunction,ComponentPad*%
%ADD23R,3.500000X3.500000*%
%TD*%
%TA.AperFunction,ComponentPad*%
%ADD24C,3.500000*%
%TD*%
%TA.AperFunction,ComponentPad*%
%ADD25R,1.800000X1.800000*%
%TD*%
%TA.AperFunction,ComponentPad*%
%ADD26O,1.800000X1.800000*%
%TD*%
%TA.AperFunction,ComponentPad*%
%ADD27R,1.600000X1.600000*%
%TD*%
%TA.AperFunction,ComponentPad*%
%ADD28C,1.600000*%
%TD*%
%TA.AperFunction,ComponentPad*%
%ADD29O,1.600000X4.000000*%
%TD*%
%TA.AperFunction,ViaPad*%
%ADD30C,2.000000*%
%TD*%
%TA.AperFunction,Conductor*%
%ADD31C,1.500000*%
%TD*%
G04 APERTURE END LIST*
D10*
%TO.P,R1,1*%
%TO.N,Net-(Q1-Pad3)*%
X104267000Y-61468000D03*
%TO.P,R1,2*%
%TO.N,cmd_relais*%
X94107000Y-61468000D03*
%TD*%
D11*
%TO.P,J6,1,Pin_1*%
%TO.N,can_H*%
X98117000Y-48133000D03*
D12*
%TO.P,J6,2,Pin_2*%
%TO.N,5VRPI*%
X95717000Y-48133000D03*
%TO.P,J6,3,Pin_3*%
%TO.N,can_L*%
X98117000Y-50133000D03*
%TO.P,J6,4,Pin_4*%
%TO.N,cmd_relais*%
X95717000Y-50133000D03*
%TO.P,J6,5,Pin_5*%
%TO.N,unconnected-(J6-Pad5)*%
X98117000Y-52133000D03*
%TO.P,J6,6,Pin_6*%
%TO.N,GND*%
X95717000Y-52133000D03*
%TD*%
D13*
%TO.P,J1,1,Pin_1*%
%TO.N,GND*%
X143002000Y-46228000D03*
%TO.P,J1,2,Pin_2*%
%TO.N,can_H*%
X143002000Y-48228000D03*
%TO.P,J1,3,Pin_3*%
%TO.N,can_L*%
X143002000Y-50228000D03*
%TO.P,J1,4,Pin_4*%
%TO.N,5Vout1*%
X143002000Y-52228000D03*
%TD*%
%TO.P,J2,1,Pin_1*%
%TO.N,GND*%
X134112000Y-46228000D03*
%TO.P,J2,2,Pin_2*%
%TO.N,can_H*%
X134112000Y-48228000D03*
%TO.P,J2,3,Pin_3*%
%TO.N,can_L*%
X134112000Y-50228000D03*
%TO.P,J2,4,Pin_4*%
%TO.N,5Vout2*%
X134112000Y-52228000D03*
%TD*%
%TO.P,J3,1,Pin_1*%
%TO.N,GND*%
X125222000Y-46228000D03*
%TO.P,J3,2,Pin_2*%
%TO.N,can_H*%
X125222000Y-48228000D03*
%TO.P,J3,3,Pin_3*%
%TO.N,can_L*%
X125222000Y-50228000D03*
%TO.P,J3,4,Pin_4*%
%TO.N,5Vout3*%
X125222000Y-52228000D03*
%TD*%
%TO.P,J5,1,Pin_1*%
%TO.N,GND*%
X105537000Y-46228000D03*
%TO.P,J5,2,Pin_2*%
%TO.N,can_H*%
X105537000Y-48228000D03*
%TO.P,J5,3,Pin_3*%
%TO.N,can_L*%
X105537000Y-50228000D03*
%TO.P,J5,4,Pin_4*%
%TO.N,5Vout5*%
X105537000Y-52228000D03*
%TO.P,J5,5,Pin_5*%
%TO.N,12Vout2*%
X105537000Y-54228000D03*
%TD*%
%TO.P,J4,1,Pin_1*%
%TO.N,GND*%
X113792000Y-46228000D03*
%TO.P,J4,2,Pin_2*%
%TO.N,can_H*%
X113792000Y-48228000D03*
%TO.P,J4,3,Pin_3*%
%TO.N,can_L*%
X113792000Y-50228000D03*
%TO.P,J4,4,Pin_4*%
%TO.N,5Vout4*%
X113792000Y-52228000D03*
%TO.P,J4,5,Pin_5*%
%TO.N,12Vout1*%
X113792000Y-54228000D03*
%TD*%
D14*
%TO.P,K1,1*%
%TO.N,Vbatt*%
X103632000Y-75438000D03*
D15*
%TO.P,K1,2*%
%TO.N,Net-(D1-Pad2)*%
X97632000Y-77438000D03*
%TO.P,K1,3*%
%TO.N,Net-(K1-Pad3)*%
X97632000Y-89638000D03*
%TO.P,K1,4*%
%TO.N,Net-(K1-Pad4)*%
X109632000Y-89638000D03*
%TO.P,K1,5*%
%TO.N,12V*%
X109632000Y-77438000D03*
%TD*%
D16*
%TO.P,U2,1,Vin*%
%TO.N,Net-(F2-Pad1)*%
X129667000Y-91948000D03*
D17*
%TO.P,U2,2,GND*%
%TO.N,GND*%
X129667000Y-89408000D03*
%TO.P,U2,3,Vout*%
%TO.N,5V*%
X129667000Y-86868000D03*
%TD*%
D16*
%TO.P,U3,1,Vin*%
%TO.N,Net-(C1-Pad1)*%
X118237000Y-91948000D03*
D17*
%TO.P,U3,2,GND*%
%TO.N,GND*%
X118237000Y-89408000D03*
%TO.P,U3,3,Vout*%
%TO.N,12V*%
X118237000Y-86868000D03*
%TD*%
D18*
%TO.P,J7,1,Pin_1*%
%TO.N,12Vout2*%
X117602000Y-72898000D03*
D19*
%TO.P,J7,2,Pin_2*%
%TO.N,12V*%
X117602000Y-75438000D03*
%TO.P,J7,3,Pin_3*%
%TO.N,12Vout1*%
X120142000Y-72898000D03*
%TO.P,J7,4,Pin_4*%
%TO.N,12V*%
X120142000Y-75438000D03*
%TO.P,J7,5,Pin_5*%
%TO.N,5Vout5*%
X122682000Y-72898000D03*
%TO.P,J7,6,Pin_6*%
%TO.N,5V*%
X122682000Y-75438000D03*
%TO.P,J7,7,Pin_7*%
%TO.N,5Vout4*%
X125222000Y-72898000D03*
%TO.P,J7,8,Pin_8*%
%TO.N,5V*%
X125222000Y-75438000D03*
%TO.P,J7,9,Pin_9*%
%TO.N,5Vout3*%
X127762000Y-72898000D03*
%TO.P,J7,10,Pin_10*%
%TO.N,5V*%
X127762000Y-75438000D03*
%TO.P,J7,11,Pin_11*%
%TO.N,5Vout2*%
X130302000Y-72898000D03*
%TO.P,J7,12,Pin_12*%
%TO.N,5V*%
X130302000Y-75438000D03*
%TO.P,J7,13,Pin_13*%
%TO.N,5Vout1*%
X132842000Y-72898000D03*
%TO.P,J7,14,Pin_14*%
%TO.N,5V*%
X132842000Y-75438000D03*
%TO.P,J7,15,Pin_15*%
%TO.N,5VRPI*%
X135382000Y-72898000D03*
%TO.P,J7,16,Pin_16*%
%TO.N,Net-(J7-Pad16)*%
X135382000Y-75438000D03*
%TO.P,J7,17,Pin_17*%
%TO.N,can_L*%
X137922000Y-72898000D03*
%TO.P,J7,18,Pin_18*%
%TO.N,GND*%
X137922000Y-75438000D03*
%TO.P,J7,19,Pin_19*%
%TO.N,can_H*%
X140462000Y-72898000D03*
%TO.P,J7,20,Pin_20*%
%TO.N,unconnected-(J7-Pad20)*%
X140462000Y-75438000D03*
%TD*%
D20*
%TO.P,D1,1,K*%
%TO.N,12V*%
X108712000Y-69723000D03*
D21*
%TO.P,D1,2,A*%
%TO.N,Net-(D1-Pad2)*%
X96012000Y-69723000D03*
%TD*%
D16*
%TO.P,U1,1,Vin*%
%TO.N,Net-(F1-Pad1)*%
X140462000Y-91948000D03*
D17*
%TO.P,U1,2,GND*%
%TO.N,GND*%
X140462000Y-89408000D03*
%TO.P,U1,3,Vout*%
%TO.N,Net-(J7-Pad16)*%
X140462000Y-86868000D03*
%TD*%
D22*
%TO.P,J8,*%
%TO.N,*%
X137072000Y-120448000D03*
X126072000Y-120448000D03*
D23*
%TO.P,J8,1,Pin_1*%
%TO.N,GND*%
X129072000Y-110448000D03*
D24*
%TO.P,J8,2,Pin_2*%
%TO.N,Vbatt*%
X134072000Y-110448000D03*
%TD*%
D22*
%TO.P,J9,*%
%TO.N,*%
X112452000Y-120448000D03*
X101452000Y-120448000D03*
D23*
%TO.P,J9,1,Pin_1*%
%TO.N,GND*%
X104452000Y-110448000D03*
D24*
%TO.P,J9,2,Pin_2*%
%TO.N,VbattRelay*%
X109452000Y-110448000D03*
%TD*%
D25*
%TO.P,Q1,1,E*%
%TO.N,GND*%
X93472000Y-65653000D03*
D26*
%TO.P,Q1,2,C*%
%TO.N,Net-(D1-Pad2)*%
X96012000Y-65653000D03*
%TO.P,Q1,3,B*%
%TO.N,Net-(Q1-Pad3)*%
X98552000Y-65653000D03*
%TD*%
D13*
%TO.P,J10,1,Pin_1*%
%TO.N,can_L*%
X118237000Y-115443000D03*
D12*
%TO.P,J10,2,Pin_2*%
%TO.N,can_H*%
X118237000Y-117443000D03*
%TD*%
D10*
%TO.P,F2,1*%
%TO.N,Net-(F2-Pad1)*%
X134112000Y-100584000D03*
%TO.P,F2,2*%
%TO.N,Vbatt*%
X129032000Y-100584000D03*
%TD*%
D27*
%TO.P,C1,1*%
%TO.N,Net-(C1-Pad1)*%
X115001113Y-100584000D03*
D28*
%TO.P,C1,2*%
%TO.N,GND*%
X113001113Y-100584000D03*
%TD*%
D29*
%TO.P,SW1,1,A*%
%TO.N,Net-(K1-Pad3)*%
X99378000Y-100838000D03*
%TO.P,SW1,2,B*%
%TO.N,VbattRelay*%
X103378000Y-100838000D03*
%TO.P,SW1,3,C*%
%TO.N,Net-(K1-Pad4)*%
X107378000Y-100838000D03*
%TD*%
D10*
%TO.P,F3,1*%
%TO.N,Net-(C1-Pad1)*%
X118862000Y-100584000D03*
%TO.P,F3,2*%
%TO.N,VbattRelay*%
X123942000Y-100584000D03*
%TD*%
%TO.P,F1,1*%
%TO.N,Net-(F1-Pad1)*%
X138547000Y-100584000D03*
%TO.P,F1,2*%
%TO.N,Vbatt*%
X143627000Y-100584000D03*
%TD*%
D30*
%TO.N,can_L*%
X143637000Y-68453000D03*
X137922000Y-68453000D03*
%TO.N,12Vout1*%
X120142000Y-68453000D03*
X120142000Y-60833000D03*
%TO.N,5VRPI*%
X137922000Y-58293000D03*
X90932000Y-58293000D03*
%TD*%
D31*
%TO.N,can_L*%
X137922000Y-68453000D02*
X143637000Y-68453000D01*
%TO.N,12Vout1*%
X120142000Y-60833000D02*
X120142000Y-68453000D01*
%TO.N,5VRPI*%
X137922000Y-58293000D02*
X90932000Y-58293000D01*
%TD*%
M02*
