%FSLAX45Y45*%
G04 Gerber Fmt 4.5, Leading zero omitted, Abs format (unit mm)*
G04 Created by KiCad (PCBNEW (6.0.0)) date 2022-05-07 17:50:18*
%MOMM*%
%LPD*%
G01*
G04 APERTURE LIST*
%TA.AperFunction,Profile*%
%ADD10C,0.050000*%
%TD*%
%ADD11C,0.200000*%
%ADD12C,0.320000*%
G04 APERTURE END LIST*
D10*
X14795200Y-12544800D02*
X9295200Y-12544800D01*
X9295200Y-3544800D02*
G75*
G03*
X8795200Y-4044800I0J-500000D01*
G01*
X15295200Y-4044800D02*
X15295200Y-12044800D01*
X15295200Y-4044800D02*
G75*
G03*
X14795200Y-3544800I-500000J0D01*
G01*
X14795200Y-12544800D02*
G75*
G03*
X15295200Y-12044800I0J500000D01*
G01*
X8795200Y-4044800D02*
X8795200Y-12044800D01*
X8795200Y-12044800D02*
G75*
G03*
X9295200Y-12544800I500000J0D01*
G01*
X9295200Y-3544800D02*
X14795200Y-3544800D01*
D11*
D12*
X9135200Y-3884800D02*
X9455200Y-4204800D01*
X9455200Y-3884800D02*
X9135200Y-4204800D01*
X9135200Y-11884800D02*
X9455200Y-12204800D01*
X9455200Y-11884800D02*
X9135200Y-12204800D01*
X14635200Y-3884800D02*
X14955200Y-4204800D01*
X14955200Y-3884800D02*
X14635200Y-4204800D01*
X14635200Y-11884800D02*
X14955200Y-12204800D01*
X14955200Y-11884800D02*
X14635200Y-12204800D01*
D11*
X9050319Y-12857776D02*
X9050319Y-12657776D01*
X9097938Y-12657776D01*
X9126510Y-12667300D01*
X9145557Y-12686348D01*
X9155081Y-12705395D01*
X9164605Y-12743490D01*
X9164605Y-12772062D01*
X9155081Y-12810157D01*
X9145557Y-12829205D01*
X9126510Y-12848252D01*
X9097938Y-12857776D01*
X9050319Y-12857776D01*
X9250319Y-12857776D02*
X9250319Y-12724443D01*
X9250319Y-12762538D02*
X9259843Y-12743490D01*
X9269367Y-12733967D01*
X9288414Y-12724443D01*
X9307462Y-12724443D01*
X9374129Y-12857776D02*
X9374129Y-12724443D01*
X9374129Y-12657776D02*
X9364605Y-12667300D01*
X9374129Y-12676824D01*
X9383652Y-12667300D01*
X9374129Y-12657776D01*
X9374129Y-12676824D01*
X9497938Y-12857776D02*
X9478890Y-12848252D01*
X9469367Y-12829205D01*
X9469367Y-12657776D01*
X9602700Y-12857776D02*
X9583652Y-12848252D01*
X9574129Y-12829205D01*
X9574129Y-12657776D01*
X9831271Y-12857776D02*
X9831271Y-12657776D01*
X9897938Y-12800633D01*
X9964605Y-12657776D01*
X9964605Y-12857776D01*
X10145557Y-12857776D02*
X10145557Y-12753014D01*
X10136033Y-12733967D01*
X10116986Y-12724443D01*
X10078890Y-12724443D01*
X10059843Y-12733967D01*
X10145557Y-12848252D02*
X10126510Y-12857776D01*
X10078890Y-12857776D01*
X10059843Y-12848252D01*
X10050319Y-12829205D01*
X10050319Y-12810157D01*
X10059843Y-12791109D01*
X10078890Y-12781586D01*
X10126510Y-12781586D01*
X10145557Y-12772062D01*
X10240795Y-12724443D02*
X10240795Y-12924443D01*
X10240795Y-12733967D02*
X10259843Y-12724443D01*
X10297938Y-12724443D01*
X10316986Y-12733967D01*
X10326510Y-12743490D01*
X10336033Y-12762538D01*
X10336033Y-12819681D01*
X10326510Y-12838728D01*
X10316986Y-12848252D01*
X10297938Y-12857776D01*
X10259843Y-12857776D01*
X10240795Y-12848252D01*
X10421748Y-12838728D02*
X10431271Y-12848252D01*
X10421748Y-12857776D01*
X10412224Y-12848252D01*
X10421748Y-12838728D01*
X10421748Y-12857776D01*
X10421748Y-12733967D02*
X10431271Y-12743490D01*
X10421748Y-12753014D01*
X10412224Y-12743490D01*
X10421748Y-12733967D01*
X10421748Y-12753014D01*
X8592700Y-13087300D02*
X8792700Y-13287300D01*
X8792700Y-13087300D02*
X8592700Y-13287300D01*
X9031271Y-13077776D02*
X9155081Y-13077776D01*
X9088414Y-13153967D01*
X9116986Y-13153967D01*
X9136033Y-13163490D01*
X9145557Y-13173014D01*
X9155081Y-13192062D01*
X9155081Y-13239681D01*
X9145557Y-13258728D01*
X9136033Y-13268252D01*
X9116986Y-13277776D01*
X9059843Y-13277776D01*
X9040795Y-13268252D01*
X9031271Y-13258728D01*
X9240795Y-13258728D02*
X9250319Y-13268252D01*
X9240795Y-13277776D01*
X9231271Y-13268252D01*
X9240795Y-13258728D01*
X9240795Y-13277776D01*
X9326510Y-13096824D02*
X9336033Y-13087300D01*
X9355081Y-13077776D01*
X9402700Y-13077776D01*
X9421748Y-13087300D01*
X9431271Y-13096824D01*
X9440795Y-13115871D01*
X9440795Y-13134919D01*
X9431271Y-13163490D01*
X9316986Y-13277776D01*
X9440795Y-13277776D01*
X9564605Y-13077776D02*
X9583652Y-13077776D01*
X9602700Y-13087300D01*
X9612224Y-13096824D01*
X9621748Y-13115871D01*
X9631271Y-13153967D01*
X9631271Y-13201586D01*
X9621748Y-13239681D01*
X9612224Y-13258728D01*
X9602700Y-13268252D01*
X9583652Y-13277776D01*
X9564605Y-13277776D01*
X9545557Y-13268252D01*
X9536033Y-13258728D01*
X9526510Y-13239681D01*
X9516986Y-13201586D01*
X9516986Y-13153967D01*
X9526510Y-13115871D01*
X9536033Y-13096824D01*
X9545557Y-13087300D01*
X9564605Y-13077776D01*
X9755081Y-13077776D02*
X9774129Y-13077776D01*
X9793176Y-13087300D01*
X9802700Y-13096824D01*
X9812224Y-13115871D01*
X9821748Y-13153967D01*
X9821748Y-13201586D01*
X9812224Y-13239681D01*
X9802700Y-13258728D01*
X9793176Y-13268252D01*
X9774129Y-13277776D01*
X9755081Y-13277776D01*
X9736033Y-13268252D01*
X9726510Y-13258728D01*
X9716986Y-13239681D01*
X9707462Y-13201586D01*
X9707462Y-13153967D01*
X9716986Y-13115871D01*
X9726510Y-13096824D01*
X9736033Y-13087300D01*
X9755081Y-13077776D01*
X9907462Y-13277776D02*
X9907462Y-13144443D01*
X9907462Y-13163490D02*
X9916986Y-13153967D01*
X9936033Y-13144443D01*
X9964605Y-13144443D01*
X9983652Y-13153967D01*
X9993176Y-13173014D01*
X9993176Y-13277776D01*
X9993176Y-13173014D02*
X10002700Y-13153967D01*
X10021748Y-13144443D01*
X10050319Y-13144443D01*
X10069367Y-13153967D01*
X10078890Y-13173014D01*
X10078890Y-13277776D01*
X10174129Y-13277776D02*
X10174129Y-13144443D01*
X10174129Y-13163490D02*
X10183652Y-13153967D01*
X10202700Y-13144443D01*
X10231271Y-13144443D01*
X10250319Y-13153967D01*
X10259843Y-13173014D01*
X10259843Y-13277776D01*
X10259843Y-13173014D02*
X10269367Y-13153967D01*
X10288414Y-13144443D01*
X10316986Y-13144443D01*
X10336033Y-13153967D01*
X10345557Y-13173014D01*
X10345557Y-13277776D01*
X10736033Y-13068252D02*
X10564605Y-13325395D01*
X10993176Y-13077776D02*
X11012224Y-13077776D01*
X11031271Y-13087300D01*
X11040795Y-13096824D01*
X11050319Y-13115871D01*
X11059843Y-13153967D01*
X11059843Y-13201586D01*
X11050319Y-13239681D01*
X11040795Y-13258728D01*
X11031271Y-13268252D01*
X11012224Y-13277776D01*
X10993176Y-13277776D01*
X10974129Y-13268252D01*
X10964605Y-13258728D01*
X10955081Y-13239681D01*
X10945557Y-13201586D01*
X10945557Y-13153967D01*
X10955081Y-13115871D01*
X10964605Y-13096824D01*
X10974129Y-13087300D01*
X10993176Y-13077776D01*
X11145557Y-13258728D02*
X11155081Y-13268252D01*
X11145557Y-13277776D01*
X11136033Y-13268252D01*
X11145557Y-13258728D01*
X11145557Y-13277776D01*
X11345557Y-13277776D02*
X11231271Y-13277776D01*
X11288414Y-13277776D02*
X11288414Y-13077776D01*
X11269367Y-13106348D01*
X11250319Y-13125395D01*
X11231271Y-13134919D01*
X11421748Y-13096824D02*
X11431271Y-13087300D01*
X11450319Y-13077776D01*
X11497938Y-13077776D01*
X11516986Y-13087300D01*
X11526509Y-13096824D01*
X11536033Y-13115871D01*
X11536033Y-13134919D01*
X11526509Y-13163490D01*
X11412224Y-13277776D01*
X11536033Y-13277776D01*
X11707462Y-13077776D02*
X11669367Y-13077776D01*
X11650319Y-13087300D01*
X11640795Y-13096824D01*
X11621748Y-13125395D01*
X11612224Y-13163490D01*
X11612224Y-13239681D01*
X11621748Y-13258728D01*
X11631271Y-13268252D01*
X11650319Y-13277776D01*
X11688414Y-13277776D01*
X11707462Y-13268252D01*
X11716986Y-13258728D01*
X11726509Y-13239681D01*
X11726509Y-13192062D01*
X11716986Y-13173014D01*
X11707462Y-13163490D01*
X11688414Y-13153967D01*
X11650319Y-13153967D01*
X11631271Y-13163490D01*
X11621748Y-13173014D01*
X11612224Y-13192062D01*
X11850319Y-13077776D02*
X11869367Y-13077776D01*
X11888414Y-13087300D01*
X11897938Y-13096824D01*
X11907462Y-13115871D01*
X11916986Y-13153967D01*
X11916986Y-13201586D01*
X11907462Y-13239681D01*
X11897938Y-13258728D01*
X11888414Y-13268252D01*
X11869367Y-13277776D01*
X11850319Y-13277776D01*
X11831271Y-13268252D01*
X11821748Y-13258728D01*
X11812224Y-13239681D01*
X11802700Y-13201586D01*
X11802700Y-13153967D01*
X11812224Y-13115871D01*
X11821748Y-13096824D01*
X11831271Y-13087300D01*
X11850319Y-13077776D01*
X11993176Y-13077776D02*
X11993176Y-13115871D01*
X12069367Y-13077776D02*
X12069367Y-13115871D01*
X12364605Y-13353967D02*
X12355081Y-13344443D01*
X12336033Y-13315871D01*
X12326509Y-13296824D01*
X12316986Y-13268252D01*
X12307462Y-13220633D01*
X12307462Y-13182538D01*
X12316986Y-13134919D01*
X12326509Y-13106348D01*
X12336033Y-13087300D01*
X12355081Y-13058728D01*
X12364605Y-13049205D01*
X12526509Y-13144443D02*
X12526509Y-13277776D01*
X12478890Y-13068252D02*
X12431271Y-13211109D01*
X12555081Y-13211109D01*
X12783652Y-13277776D02*
X12783652Y-13077776D01*
X12869367Y-13277776D02*
X12869367Y-13173014D01*
X12859843Y-13153967D01*
X12840795Y-13144443D01*
X12812224Y-13144443D01*
X12793176Y-13153967D01*
X12783652Y-13163490D01*
X12993176Y-13277776D02*
X12974128Y-13268252D01*
X12964605Y-13258728D01*
X12955081Y-13239681D01*
X12955081Y-13182538D01*
X12964605Y-13163490D01*
X12974128Y-13153967D01*
X12993176Y-13144443D01*
X13021748Y-13144443D01*
X13040795Y-13153967D01*
X13050319Y-13163490D01*
X13059843Y-13182538D01*
X13059843Y-13239681D01*
X13050319Y-13258728D01*
X13040795Y-13268252D01*
X13021748Y-13277776D01*
X12993176Y-13277776D01*
X13174128Y-13277776D02*
X13155081Y-13268252D01*
X13145557Y-13249205D01*
X13145557Y-13077776D01*
X13326509Y-13268252D02*
X13307462Y-13277776D01*
X13269367Y-13277776D01*
X13250319Y-13268252D01*
X13240795Y-13249205D01*
X13240795Y-13173014D01*
X13250319Y-13153967D01*
X13269367Y-13144443D01*
X13307462Y-13144443D01*
X13326509Y-13153967D01*
X13336033Y-13173014D01*
X13336033Y-13192062D01*
X13240795Y-13211109D01*
X13412224Y-13268252D02*
X13431271Y-13277776D01*
X13469367Y-13277776D01*
X13488414Y-13268252D01*
X13497938Y-13249205D01*
X13497938Y-13239681D01*
X13488414Y-13220633D01*
X13469367Y-13211109D01*
X13440795Y-13211109D01*
X13421748Y-13201586D01*
X13412224Y-13182538D01*
X13412224Y-13173014D01*
X13421748Y-13153967D01*
X13440795Y-13144443D01*
X13469367Y-13144443D01*
X13488414Y-13153967D01*
X13564605Y-13353967D02*
X13574128Y-13344443D01*
X13593176Y-13315871D01*
X13602700Y-13296824D01*
X13612224Y-13268252D01*
X13621748Y-13220633D01*
X13621748Y-13182538D01*
X13612224Y-13134919D01*
X13602700Y-13106348D01*
X13593176Y-13087300D01*
X13574128Y-13058728D01*
X13564605Y-13049205D01*
X13926509Y-13353967D02*
X13916986Y-13344443D01*
X13897938Y-13315871D01*
X13888414Y-13296824D01*
X13878890Y-13268252D01*
X13869367Y-13220633D01*
X13869367Y-13182538D01*
X13878890Y-13134919D01*
X13888414Y-13106348D01*
X13897938Y-13087300D01*
X13916986Y-13058728D01*
X13926509Y-13049205D01*
X14002700Y-13144443D02*
X14002700Y-13277776D01*
X14002700Y-13163490D02*
X14012224Y-13153967D01*
X14031271Y-13144443D01*
X14059843Y-13144443D01*
X14078890Y-13153967D01*
X14088414Y-13173014D01*
X14088414Y-13277776D01*
X14212224Y-13277776D02*
X14193176Y-13268252D01*
X14183652Y-13258728D01*
X14174128Y-13239681D01*
X14174128Y-13182538D01*
X14183652Y-13163490D01*
X14193176Y-13153967D01*
X14212224Y-13144443D01*
X14240795Y-13144443D01*
X14259843Y-13153967D01*
X14269367Y-13163490D01*
X14278890Y-13182538D01*
X14278890Y-13239681D01*
X14269367Y-13258728D01*
X14259843Y-13268252D01*
X14240795Y-13277776D01*
X14212224Y-13277776D01*
X14336033Y-13144443D02*
X14412224Y-13144443D01*
X14364605Y-13077776D02*
X14364605Y-13249205D01*
X14374128Y-13268252D01*
X14393176Y-13277776D01*
X14412224Y-13277776D01*
X14631271Y-13144443D02*
X14631271Y-13344443D01*
X14631271Y-13153967D02*
X14650319Y-13144443D01*
X14688414Y-13144443D01*
X14707462Y-13153967D01*
X14716986Y-13163490D01*
X14726509Y-13182538D01*
X14726509Y-13239681D01*
X14716986Y-13258728D01*
X14707462Y-13268252D01*
X14688414Y-13277776D01*
X14650319Y-13277776D01*
X14631271Y-13268252D01*
X14840795Y-13277776D02*
X14821748Y-13268252D01*
X14812224Y-13249205D01*
X14812224Y-13077776D01*
X15002700Y-13277776D02*
X15002700Y-13173014D01*
X14993176Y-13153967D01*
X14974128Y-13144443D01*
X14936033Y-13144443D01*
X14916986Y-13153967D01*
X15002700Y-13268252D02*
X14983652Y-13277776D01*
X14936033Y-13277776D01*
X14916986Y-13268252D01*
X14907462Y-13249205D01*
X14907462Y-13230157D01*
X14916986Y-13211109D01*
X14936033Y-13201586D01*
X14983652Y-13201586D01*
X15002700Y-13192062D01*
X15069367Y-13144443D02*
X15145557Y-13144443D01*
X15097938Y-13077776D02*
X15097938Y-13249205D01*
X15107462Y-13268252D01*
X15126509Y-13277776D01*
X15145557Y-13277776D01*
X15288414Y-13268252D02*
X15269367Y-13277776D01*
X15231271Y-13277776D01*
X15212224Y-13268252D01*
X15202700Y-13249205D01*
X15202700Y-13173014D01*
X15212224Y-13153967D01*
X15231271Y-13144443D01*
X15269367Y-13144443D01*
X15288414Y-13153967D01*
X15297938Y-13173014D01*
X15297938Y-13192062D01*
X15202700Y-13211109D01*
X15469367Y-13277776D02*
X15469367Y-13077776D01*
X15469367Y-13268252D02*
X15450319Y-13277776D01*
X15412224Y-13277776D01*
X15393176Y-13268252D01*
X15383652Y-13258728D01*
X15374128Y-13239681D01*
X15374128Y-13182538D01*
X15383652Y-13163490D01*
X15393176Y-13153967D01*
X15412224Y-13144443D01*
X15450319Y-13144443D01*
X15469367Y-13153967D01*
X15545557Y-13353967D02*
X15555081Y-13344443D01*
X15574128Y-13315871D01*
X15583652Y-13296824D01*
X15593176Y-13268252D01*
X15602700Y-13220633D01*
X15602700Y-13182538D01*
X15593176Y-13134919D01*
X15583652Y-13106348D01*
X15574128Y-13087300D01*
X15555081Y-13058728D01*
X15545557Y-13049205D01*
M02*
