M48
; DRILL file {KiCad (5.1.5)-3} date 04/04/2020 17:30:35
; FORMAT={-:-/ absolute / metric / decimal}
; #@! TF.CreationDate,2020-04-04T17:30:35+02:00
; #@! TF.GenerationSoftware,Kicad,Pcbnew,(5.1.5)-3
; #@! TF.FileFunction,Plated,1,2,PTH
FMAT,2
METRIC
T1C0.400
T2C0.762
T3C0.850
T4C0.950
T5C1.000
T6C1.020
%
G90
G05
T1
X-17.78Y0.0
X-17.78Y-3.0
X-16.104Y0.025
X-15.24Y10.16
X-15.24Y-10.16
X-15.0Y-3.0
X-10.16Y15.24
X-10.16Y12.7
X-7.62Y15.24
X-7.62Y12.7
X-7.62Y-15.24
X-7.112Y17.272
X-5.611Y-7.262
X-3.428Y-5.08
X-2.54Y5.08
X-1.778Y6.502
X-1.397Y-8.319
X-1.206Y7.493
X-0.521Y5.651
X0.0Y-17.78
X0.635Y5.105
X1.46Y-15.875
X2.134Y5.182
X2.54Y-17.78
X3.087Y5.485
X3.937Y-3.81
X5.08Y-17.78
X5.783Y-4.355
X6.0Y1.0
X7.0Y-17.0
X7.366Y17.272
X7.62Y15.24
X7.62Y12.7
X7.62Y7.62
X7.62Y-2.54
X10.16Y15.24
X10.16Y-12.7
X12.7Y-9.906
X12.902Y7.955
X13.333Y-0.539
X13.665Y1.372
X14.145Y4.856
X15.048Y2.119
X15.318Y0.513
X16.212Y3.077
X16.274Y0.221
T2
X-5.118Y16.858
X-5.118Y14.318
X-2.578Y16.858
X-2.578Y14.318
X-0.038Y16.858
X-0.038Y14.318
X2.502Y16.858
X2.502Y14.318
X5.042Y16.858
X5.042Y14.318
T3
X6.0Y-9.0
X7.768Y-7.232
T4
X-12.878Y13.56
X-12.878Y11.06
X-12.878Y8.56
X-12.878Y6.06
T5
X-7.62Y10.0
X-5.08Y10.0
X-2.54Y10.0
X0.0Y10.0
X2.54Y10.0
X5.08Y10.0
X7.62Y10.0
T6
X-13.259Y-4.84
X-10.661Y-3.34
T0
M30
