M48
; DRILL file {KiCad (6.0.0)} date Fri May 13 18:08:34 2022
; FORMAT={-:-/ absolute / inch / decimal}
; #@! TF.CreationDate,2022-05-13T18:08:34+02:00
; #@! TF.GenerationSoftware,Kicad,Pcbnew,(6.0.0)
; #@! TF.FileFunction,Plated,1,2,PTH
FMAT,2
INCH
; #@! TA.AperFunction,Plated,PTH,ComponentDrill
T1C0.0295
; #@! TA.AperFunction,Plated,PTH,ViaDrill
T2C0.0394
; #@! TA.AperFunction,Plated,PTH,ComponentDrill
T3C0.0394
; #@! TA.AperFunction,Plated,PTH,ComponentDrill
T4C0.0512
; #@! TA.AperFunction,Plated,PTH,ComponentDrill
T5C0.0787
%
G90
G05
T1
X5.75Y-2.38
X5.75Y-2.4587
T2
X3.58Y-2.295
X3.63Y-3.02
X3.86Y-4.16
X3.92Y-4.23
X3.98Y-1.52
X3.98Y-4.3
X4.08Y-3.545
X4.22Y-4.45
X4.23Y-4.72
X4.29Y-3.22
X4.48Y-2.72
X4.5Y-3.14
X4.51Y-3.67
X4.52Y-4.15
X4.67Y-4.41
X4.73Y-2.395
X4.73Y-2.695
X4.77Y-4.74
X4.78Y-1.52
X4.78Y-4.345
X4.81Y-3.16
X4.86Y-4.25
X4.9Y-4.42
X4.97Y-3.39
X4.98Y-3.69
X4.98Y-4.18
X5.18Y-4.07
X5.18Y-4.72
X5.33Y-2.58
X5.36Y-3.4
X5.36Y-4.09
X5.38Y-3.65
X5.53Y-1.52
X5.85Y-3.32
X5.855Y-3.645
X5.88Y-4.57
X5.91Y-2.97
X5.92Y-2.69
T3
X3.68Y-2.5848
X3.705Y-2.395
X3.7513Y-1.895
X3.7513Y-1.9737
X3.7513Y-2.0525
X3.78Y-2.5848
X3.78Y-2.745
X3.83Y-1.895
X3.83Y-1.9737
X3.83Y-2.0525
X3.8438Y-3.0487
X3.8438Y-3.5291
X3.88Y-2.5848
X3.9942Y-4.742
X4.105Y-2.395
X4.195Y-1.82
X4.195Y-1.8987
X4.195Y-1.9775
X4.195Y-2.0562
X4.195Y-2.135
X4.28Y-2.745
X4.3162Y-3.0487
X4.3162Y-3.5291
X4.4272Y-4.742
X4.4489Y-3.96
X4.51Y-1.82
X4.51Y-1.8987
X4.51Y-1.9775
X4.51Y-2.0562
X4.51Y-2.135
X4.5276Y-3.96
X4.63Y-2.87
X4.63Y-2.97
X4.655Y-3.42
X4.655Y-3.52
X4.655Y-3.62
X4.6796Y-3.96
X4.73Y-2.87
X4.73Y-2.97
X4.83Y-2.87
X4.83Y-2.97
X4.8796Y-3.96
X4.93Y-1.82
X4.93Y-1.8987
X4.93Y-1.9775
X4.93Y-2.0562
X4.93Y-2.87
X4.93Y-2.97
X5.0219Y-4.742
X5.03Y-2.87
X5.03Y-2.97
X5.08Y-3.96
X5.105Y-3.42
X5.105Y-3.52
X5.105Y-3.62
X5.13Y-2.87
X5.13Y-2.97
X5.23Y-2.87
X5.23Y-2.97
X5.28Y-1.82
X5.28Y-1.8987
X5.28Y-1.9775
X5.28Y-2.0562
X5.28Y-3.96
X5.33Y-2.87
X5.33Y-2.97
X5.43Y-2.87
X5.43Y-2.97
X5.4546Y-3.96
X5.455Y-4.742
X5.53Y-2.87
X5.53Y-2.97
X5.53Y-3.42
X5.53Y-3.52
X5.53Y-3.62
X5.54Y-2.28
X5.54Y-2.68
X5.63Y-1.82
X5.63Y-1.8987
X5.63Y-1.9775
X5.63Y-2.0562
X5.6546Y-3.96
T4
X4.08Y-2.97
T5
X4.1123Y-4.3483
X4.3091Y-4.3483
X5.14Y-4.3483
X5.3369Y-4.3483
T3
G00X3.9125Y-3.9503
M15
G01X3.9125Y-3.9897
M16
G05
G00X4.07Y-3.9503
M15
G01X4.07Y-3.9897
M16
G05
G00X4.2275Y-3.9503
M15
G01X4.2275Y-3.9897
M16
G05
T0
M30
