%TF.GenerationSoftware,KiCad,Pcbnew,(6.0.0)*%
%TF.CreationDate,2022-05-13T11:27:12+02:00*%
%TF.ProjectId,Alimentation,416c696d-656e-4746-9174-696f6e2e6b69,rev?*%
%TF.SameCoordinates,Original*%
%TF.FileFunction,Copper,L1,Top*%
%TF.FilePolarity,Positive*%
%FSLAX46Y46*%
G04 Gerber Fmt 4.6, Leading zero omitted, Abs format (unit mm)*
G04 Created by KiCad (PCBNEW (6.0.0)) date 2022-05-13 11:27:12*
%MOMM*%
%LPD*%
G01*
G04 APERTURE LIST*
G04 Aperture macros list*
%AMRoundRect*
0 Rectangle with rounded corners*
0 $1 Rounding radius*
0 $2 $3 $4 $5 $6 $7 $8 $9 X,Y pos of 4 corners*
0 Add a 4 corners polygon primitive as box body*
4,1,4,$2,$3,$4,$5,$6,$7,$8,$9,$2,$3,0*
0 Add four circle primitives for the rounded corners*
1,1,$1+$1,$2,$3*
1,1,$1+$1,$4,$5*
1,1,$1+$1,$6,$7*
1,1,$1+$1,$8,$9*
0 Add four rect primitives between the rounded corners*
20,1,$1+$1,$2,$3,$4,$5,0*
20,1,$1+$1,$4,$5,$6,$7,0*
20,1,$1+$1,$6,$7,$8,$9,0*
20,1,$1+$1,$8,$9,$2,$3,0*%
G04 Aperture macros list end*
%TA.AperFunction,ComponentPad*%
%ADD10RoundRect,0.312500X-0.687500X0.437500X-0.687500X-0.437500X0.687500X-0.437500X0.687500X0.437500X0*%
%TD*%
%TA.AperFunction,ComponentPad*%
%ADD11R,2.500000X2.500000*%
%TD*%
%TA.AperFunction,ComponentPad*%
%ADD12O,2.500000X2.500000*%
%TD*%
%TA.AperFunction,ComponentPad*%
%ADD13R,2.500000X1.500000*%
%TD*%
%TA.AperFunction,ComponentPad*%
%ADD14O,2.500000X1.500000*%
%TD*%
%TA.AperFunction,ComponentPad*%
%ADD15R,1.700000X1.700000*%
%TD*%
%TA.AperFunction,ComponentPad*%
%ADD16O,1.700000X1.700000*%
%TD*%
%TA.AperFunction,ComponentPad*%
%ADD17RoundRect,0.312500X0.687500X-0.437500X0.687500X0.437500X-0.687500X0.437500X-0.687500X-0.437500X0*%
%TD*%
%TA.AperFunction,ComponentPad*%
%ADD18O,2.000000X1.500000*%
%TD*%
%TA.AperFunction,ComponentPad*%
%ADD19R,2.400000X2.400000*%
%TD*%
%TA.AperFunction,ComponentPad*%
%ADD20O,2.400000X2.400000*%
%TD*%
%TA.AperFunction,ComponentPad*%
%ADD21C,2.000000*%
%TD*%
%TA.AperFunction,ComponentPad*%
%ADD22C,1.400000*%
%TD*%
%TA.AperFunction,ComponentPad*%
%ADD23R,3.500000X3.500000*%
%TD*%
%TA.AperFunction,ComponentPad*%
%ADD24C,3.500000*%
%TD*%
%TA.AperFunction,ComponentPad*%
%ADD25R,1.800000X1.800000*%
%TD*%
%TA.AperFunction,ComponentPad*%
%ADD26O,1.800000X1.800000*%
%TD*%
%TA.AperFunction,ComponentPad*%
%ADD27R,1.600000X1.600000*%
%TD*%
%TA.AperFunction,ComponentPad*%
%ADD28C,1.600000*%
%TD*%
%TA.AperFunction,ComponentPad*%
%ADD29O,1.600000X4.000000*%
%TD*%
%TA.AperFunction,SMDPad,CuDef*%
%ADD30C,2.000000*%
%TD*%
%TA.AperFunction,ViaPad*%
%ADD31C,2.000000*%
%TD*%
%TA.AperFunction,Conductor*%
%ADD32C,1.500000*%
%TD*%
G04 APERTURE END LIST*
D10*
%TO.P,J1,1,Pin_1*%
%TO.N,GND*%
X143002000Y-46228000D03*
%TO.P,J1,2,Pin_2*%
%TO.N,can_H*%
X143002000Y-48228000D03*
%TO.P,J1,3,Pin_3*%
%TO.N,can_L*%
X143002000Y-50228000D03*
%TO.P,J1,4,Pin_4*%
%TO.N,5Vout1*%
X143002000Y-52228000D03*
%TD*%
%TO.P,J2,1,Pin_1*%
%TO.N,GND*%
X134112000Y-46228000D03*
%TO.P,J2,2,Pin_2*%
%TO.N,can_H*%
X134112000Y-48228000D03*
%TO.P,J2,3,Pin_3*%
%TO.N,can_L*%
X134112000Y-50228000D03*
%TO.P,J2,4,Pin_4*%
%TO.N,5Vout2*%
X134112000Y-52228000D03*
%TD*%
%TO.P,J3,1,Pin_1*%
%TO.N,GND*%
X125222000Y-46228000D03*
%TO.P,J3,2,Pin_2*%
%TO.N,can_H*%
X125222000Y-48228000D03*
%TO.P,J3,3,Pin_3*%
%TO.N,can_L*%
X125222000Y-50228000D03*
%TO.P,J3,4,Pin_4*%
%TO.N,5Vout3*%
X125222000Y-52228000D03*
%TD*%
%TO.P,J4,1,Pin_1*%
%TO.N,GND*%
X114554000Y-46228000D03*
%TO.P,J4,2,Pin_2*%
%TO.N,can_H*%
X114554000Y-48228000D03*
%TO.P,J4,3,Pin_3*%
%TO.N,can_L*%
X114554000Y-50228000D03*
%TO.P,J4,4,Pin_4*%
%TO.N,5Vout4*%
X114554000Y-52228000D03*
%TO.P,J4,5,Pin_5*%
%TO.N,12Vout1*%
X114554000Y-54228000D03*
%TD*%
%TO.P,J5,1,Pin_1*%
%TO.N,GND*%
X106553000Y-46228000D03*
%TO.P,J5,2,Pin_2*%
%TO.N,can_H*%
X106553000Y-48228000D03*
%TO.P,J5,3,Pin_3*%
%TO.N,can_L*%
X106553000Y-50228000D03*
%TO.P,J5,4,Pin_4*%
%TO.N,5Vout5*%
X106553000Y-52228000D03*
%TO.P,J5,5,Pin_5*%
%TO.N,12Vout2*%
X106553000Y-54228000D03*
%TD*%
D11*
%TO.P,K1,1*%
%TO.N,Vbatt*%
X103632000Y-75438000D03*
D12*
%TO.P,K1,2*%
%TO.N,Net-(D1-Pad2)*%
X97632000Y-77438000D03*
%TO.P,K1,3*%
%TO.N,Net-(K1-Pad3)*%
X97632000Y-89638000D03*
%TO.P,K1,4*%
%TO.N,Net-(K1-Pad4)*%
X109632000Y-89638000D03*
%TO.P,K1,5*%
%TO.N,5VRPI*%
X109632000Y-77438000D03*
%TD*%
D13*
%TO.P,U2,1,Vin*%
%TO.N,Net-(F2-Pad1)*%
X129667000Y-91948000D03*
D14*
%TO.P,U2,2,GND*%
%TO.N,GND*%
X129667000Y-89408000D03*
%TO.P,U2,3,Vout*%
%TO.N,5V*%
X129667000Y-86868000D03*
%TD*%
D13*
%TO.P,U3,1,Vin*%
%TO.N,Net-(C1-Pad1)*%
X118237000Y-91948000D03*
D14*
%TO.P,U3,2,GND*%
%TO.N,GND*%
X118237000Y-89408000D03*
%TO.P,U3,3,Vout*%
%TO.N,12V*%
X118237000Y-86868000D03*
%TD*%
D15*
%TO.P,J7,1,Pin_1*%
%TO.N,12Vout2*%
X117602000Y-72898000D03*
D16*
%TO.P,J7,2,Pin_2*%
%TO.N,12V*%
X117602000Y-75438000D03*
%TO.P,J7,3,Pin_3*%
%TO.N,12Vout1*%
X120142000Y-72898000D03*
%TO.P,J7,4,Pin_4*%
%TO.N,12V*%
X120142000Y-75438000D03*
%TO.P,J7,5,Pin_5*%
%TO.N,5Vout5*%
X122682000Y-72898000D03*
%TO.P,J7,6,Pin_6*%
%TO.N,5V*%
X122682000Y-75438000D03*
%TO.P,J7,7,Pin_7*%
%TO.N,5Vout4*%
X125222000Y-72898000D03*
%TO.P,J7,8,Pin_8*%
%TO.N,5V*%
X125222000Y-75438000D03*
%TO.P,J7,9,Pin_9*%
%TO.N,5Vout3*%
X127762000Y-72898000D03*
%TO.P,J7,10,Pin_10*%
%TO.N,5V*%
X127762000Y-75438000D03*
%TO.P,J7,11,Pin_11*%
%TO.N,5Vout2*%
X130302000Y-72898000D03*
%TO.P,J7,12,Pin_12*%
%TO.N,5V*%
X130302000Y-75438000D03*
%TO.P,J7,13,Pin_13*%
%TO.N,5Vout1*%
X132842000Y-72898000D03*
%TO.P,J7,14,Pin_14*%
%TO.N,5V*%
X132842000Y-75438000D03*
%TO.P,J7,15,Pin_15*%
%TO.N,5VRPI*%
X135382000Y-72898000D03*
%TO.P,J7,16,Pin_16*%
%TO.N,Net-(J7-Pad16)*%
X135382000Y-75438000D03*
%TO.P,J7,17,Pin_17*%
%TO.N,can_L*%
X137922000Y-72898000D03*
%TO.P,J7,18,Pin_18*%
%TO.N,GND*%
X137922000Y-75438000D03*
%TO.P,J7,19,Pin_19*%
%TO.N,can_H*%
X140462000Y-72898000D03*
%TO.P,J7,20,Pin_20*%
%TO.N,unconnected-(J7-Pad20)*%
X140462000Y-75438000D03*
%TD*%
D17*
%TO.P,J6,1,Pin_1*%
%TO.N,can_H*%
X97482000Y-48133000D03*
D18*
%TO.P,J6,2,Pin_2*%
%TO.N,5VRPI*%
X95082000Y-48133000D03*
%TO.P,J6,3,Pin_3*%
%TO.N,can_L*%
X97482000Y-50133000D03*
%TO.P,J6,4,Pin_4*%
%TO.N,cmd_relais*%
X95082000Y-50133000D03*
%TO.P,J6,5,Pin_5*%
%TO.N,unconnected-(J6-Pad5)*%
X97482000Y-52133000D03*
%TO.P,J6,6,Pin_6*%
%TO.N,GND*%
X95082000Y-52133000D03*
%TD*%
D19*
%TO.P,D1,1,K*%
%TO.N,5VRPI*%
X108712000Y-69723000D03*
D20*
%TO.P,D1,2,A*%
%TO.N,Net-(D1-Pad2)*%
X96012000Y-69723000D03*
%TD*%
D13*
%TO.P,U1,1,Vin*%
%TO.N,Net-(F1-Pad1)*%
X140462000Y-91948000D03*
D14*
%TO.P,U1,2,GND*%
%TO.N,GND*%
X140462000Y-89408000D03*
%TO.P,U1,3,Vout*%
%TO.N,Net-(J7-Pad16)*%
X140462000Y-86868000D03*
%TD*%
D21*
%TO.P,R1,1*%
%TO.N,Net-(Q1-Pad3)*%
X104267000Y-60833000D03*
%TO.P,R1,2*%
%TO.N,cmd_relais*%
X94107000Y-60833000D03*
%TD*%
D22*
%TO.P,J8,*%
%TO.N,*%
X138556000Y-120448000D03*
X127556000Y-120448000D03*
D23*
%TO.P,J8,1,Pin_1*%
%TO.N,GND*%
X130556000Y-110448000D03*
D24*
%TO.P,J8,2,Pin_2*%
%TO.N,Vbatt*%
X135556000Y-110448000D03*
%TD*%
D22*
%TO.P,J9,*%
%TO.N,*%
X112452000Y-120448000D03*
X101452000Y-120448000D03*
D23*
%TO.P,J9,1,Pin_1*%
%TO.N,GND*%
X104452000Y-110448000D03*
D24*
%TO.P,J9,2,Pin_2*%
%TO.N,VbattRelay*%
X109452000Y-110448000D03*
%TD*%
D25*
%TO.P,Q1,1,E*%
%TO.N,GND*%
X93472000Y-65653000D03*
D26*
%TO.P,Q1,2,C*%
%TO.N,Net-(D1-Pad2)*%
X96012000Y-65653000D03*
%TO.P,Q1,3,B*%
%TO.N,Net-(Q1-Pad3)*%
X98552000Y-65653000D03*
%TD*%
D10*
%TO.P,J10,1,Pin_1*%
%TO.N,can_L*%
X119422000Y-117618000D03*
D18*
%TO.P,J10,2,Pin_2*%
%TO.N,can_H*%
X119422000Y-119618000D03*
%TD*%
D21*
%TO.P,F2,1*%
%TO.N,Net-(F2-Pad1)*%
X134112000Y-100584000D03*
%TO.P,F2,2*%
%TO.N,VbattRelay*%
X129032000Y-100584000D03*
%TD*%
D27*
%TO.P,C1,1*%
%TO.N,Net-(C1-Pad1)*%
X115001113Y-100584000D03*
D28*
%TO.P,C1,2*%
%TO.N,GND*%
X113001113Y-100584000D03*
%TD*%
D29*
%TO.P,SW1,1,A*%
%TO.N,Net-(K1-Pad3)*%
X99378000Y-100838000D03*
%TO.P,SW1,2,B*%
%TO.N,VbattRelay*%
X103378000Y-100838000D03*
%TO.P,SW1,3,C*%
%TO.N,Net-(K1-Pad4)*%
X107378000Y-100838000D03*
%TD*%
D30*
%TO.P,TP13,1,1*%
%TO.N,GND*%
X149098000Y-110744000D03*
%TD*%
D21*
%TO.P,R3,1*%
%TO.N,can_H*%
X100838000Y-44196000D03*
%TO.P,R3,2*%
%TO.N,can_L*%
X100838000Y-54356000D03*
%TD*%
%TO.P,F3,1*%
%TO.N,Net-(C1-Pad1)*%
X118862000Y-100584000D03*
%TO.P,F3,2*%
%TO.N,VbattRelay*%
X123942000Y-100584000D03*
%TD*%
%TO.P,R2,1*%
%TO.N,can_H*%
X123698000Y-122682000D03*
%TO.P,R2,2*%
%TO.N,can_L*%
X123698000Y-112522000D03*
%TD*%
%TO.P,F1,1*%
%TO.N,Net-(F1-Pad1)*%
X138547000Y-100584000D03*
%TO.P,F1,2*%
%TO.N,Vbatt*%
X143627000Y-100584000D03*
%TD*%
D31*
%TO.N,can_L*%
X143637000Y-68453000D03*
X137922000Y-68453000D03*
%TO.N,GND*%
X101092000Y-38608000D03*
X93472000Y-80518000D03*
X97282000Y-107188000D03*
X113792000Y-89408000D03*
X113792000Y-69088000D03*
X131572000Y-103378000D03*
X115062000Y-105918000D03*
X136652000Y-89408000D03*
X144272000Y-77978000D03*
X148082000Y-114808000D03*
X102362000Y-89408000D03*
X140462000Y-38608000D03*
X121412000Y-38608000D03*
X106172000Y-80518000D03*
X131572000Y-119888000D03*
X125222000Y-89408000D03*
X93472000Y-114808000D03*
X149352000Y-65278000D03*
X107442000Y-119888000D03*
X144272000Y-94488000D03*
%TO.N,12Vout1*%
X120142000Y-68453000D03*
X120142000Y-60833000D03*
%TO.N,5VRPI*%
X137922000Y-58293000D03*
X90932000Y-58293000D03*
%TD*%
D32*
%TO.N,can_L*%
X137922000Y-68453000D02*
X143637000Y-68453000D01*
%TO.N,12Vout1*%
X120142000Y-60833000D02*
X120142000Y-68453000D01*
%TO.N,5VRPI*%
X137922000Y-58293000D02*
X90932000Y-58293000D01*
%TD*%
%TA.AperFunction,Conductor*%
%TO.N,GND*%
G36*
X147922057Y-35957500D02*
G01*
X147936858Y-35959805D01*
X147936861Y-35959805D01*
X147945730Y-35961186D01*
X147966158Y-35958515D01*
X147987983Y-35957571D01*
X148338007Y-35972853D01*
X148348958Y-35973811D01*
X148726579Y-36023527D01*
X148737403Y-36025436D01*
X149109243Y-36107870D01*
X149119860Y-36110715D01*
X149483110Y-36225248D01*
X149493425Y-36229001D01*
X149845334Y-36374766D01*
X149855269Y-36379399D01*
X150193128Y-36555278D01*
X150202637Y-36560768D01*
X150523860Y-36765410D01*
X150532864Y-36771714D01*
X150835043Y-37003583D01*
X150843463Y-37010649D01*
X151124268Y-37267959D01*
X151132041Y-37275732D01*
X151389351Y-37556537D01*
X151396417Y-37564957D01*
X151628286Y-37867136D01*
X151634590Y-37876140D01*
X151839232Y-38197363D01*
X151844722Y-38206872D01*
X152020601Y-38544731D01*
X152025234Y-38554666D01*
X152134963Y-38819577D01*
X152170996Y-38906568D01*
X152174752Y-38916890D01*
X152202401Y-39004579D01*
X152289285Y-39280139D01*
X152292130Y-39290757D01*
X152374564Y-39662597D01*
X152376473Y-39673421D01*
X152426189Y-40051042D01*
X152427147Y-40061993D01*
X152442104Y-40404583D01*
X152440724Y-40429461D01*
X152438814Y-40441730D01*
X152440638Y-40455678D01*
X152442936Y-40473251D01*
X152444000Y-40489589D01*
X152444000Y-120398672D01*
X152442500Y-120418056D01*
X152438814Y-120441730D01*
X152441485Y-120462158D01*
X152442429Y-120483983D01*
X152436295Y-120624485D01*
X152427147Y-120834007D01*
X152426189Y-120844957D01*
X152423454Y-120865734D01*
X152376473Y-121222579D01*
X152374564Y-121233403D01*
X152292130Y-121605243D01*
X152289285Y-121615860D01*
X152200434Y-121897661D01*
X152174755Y-121979103D01*
X152170999Y-121989425D01*
X152128137Y-122092904D01*
X152025238Y-122341325D01*
X152020601Y-122351269D01*
X151844722Y-122689128D01*
X151839232Y-122698637D01*
X151634590Y-123019860D01*
X151628286Y-123028864D01*
X151396417Y-123331043D01*
X151389353Y-123339460D01*
X151176806Y-123571416D01*
X151132041Y-123620268D01*
X151124268Y-123628041D01*
X150843463Y-123885351D01*
X150835046Y-123892414D01*
X150683953Y-124008352D01*
X150532864Y-124124286D01*
X150523860Y-124130590D01*
X150202637Y-124335232D01*
X150193128Y-124340722D01*
X149855269Y-124516601D01*
X149845334Y-124521234D01*
X149493425Y-124666999D01*
X149483110Y-124670752D01*
X149119861Y-124785285D01*
X149109243Y-124788130D01*
X148737403Y-124870564D01*
X148726579Y-124872473D01*
X148348958Y-124922189D01*
X148338007Y-124923147D01*
X147995417Y-124938104D01*
X147970539Y-124936724D01*
X147970160Y-124936665D01*
X147958270Y-124934814D01*
X147926749Y-124938936D01*
X147910411Y-124940000D01*
X93001328Y-124940000D01*
X92981943Y-124938500D01*
X92967142Y-124936195D01*
X92967139Y-124936195D01*
X92958270Y-124934814D01*
X92937842Y-124937485D01*
X92916017Y-124938429D01*
X92565993Y-124923147D01*
X92555042Y-124922189D01*
X92177421Y-124872473D01*
X92166597Y-124870564D01*
X91794757Y-124788130D01*
X91784139Y-124785285D01*
X91420890Y-124670752D01*
X91410575Y-124666999D01*
X91058666Y-124521234D01*
X91048731Y-124516601D01*
X90710872Y-124340722D01*
X90701363Y-124335232D01*
X90380140Y-124130590D01*
X90371136Y-124124286D01*
X90220046Y-124008351D01*
X90068954Y-123892414D01*
X90060537Y-123885351D01*
X89779732Y-123628041D01*
X89771959Y-123620268D01*
X89727195Y-123571416D01*
X89514647Y-123339460D01*
X89507583Y-123331043D01*
X89275714Y-123028864D01*
X89269410Y-123019860D01*
X89064768Y-122698637D01*
X89059278Y-122689128D01*
X89055567Y-122682000D01*
X122184835Y-122682000D01*
X122203465Y-122918711D01*
X122258895Y-123149594D01*
X122260788Y-123154165D01*
X122260789Y-123154167D01*
X122337541Y-123339463D01*
X122349760Y-123368963D01*
X122352346Y-123373183D01*
X122471241Y-123567202D01*
X122471245Y-123567208D01*
X122473824Y-123571416D01*
X122628031Y-123751969D01*
X122808584Y-123906176D01*
X122812792Y-123908755D01*
X122812798Y-123908759D01*
X123006817Y-124027654D01*
X123011037Y-124030240D01*
X123015607Y-124032133D01*
X123015611Y-124032135D01*
X123225833Y-124119211D01*
X123230406Y-124121105D01*
X123310609Y-124140360D01*
X123456476Y-124175380D01*
X123456482Y-124175381D01*
X123461289Y-124176535D01*
X123698000Y-124195165D01*
X123934711Y-124176535D01*
X123939518Y-124175381D01*
X123939524Y-124175380D01*
X124085391Y-124140360D01*
X124165594Y-124121105D01*
X124170167Y-124119211D01*
X124380389Y-124032135D01*
X124380393Y-124032133D01*
X124384963Y-124030240D01*
X124389183Y-124027654D01*
X124583202Y-123908759D01*
X124583208Y-123908755D01*
X124587416Y-123906176D01*
X124767969Y-123751969D01*
X124922176Y-123571416D01*
X124924755Y-123567208D01*
X124924759Y-123567202D01*
X125043654Y-123373183D01*
X125046240Y-123368963D01*
X125058460Y-123339463D01*
X125135211Y-123154167D01*
X125135212Y-123154165D01*
X125137105Y-123149594D01*
X125192535Y-122918711D01*
X125211165Y-122682000D01*
X125192535Y-122445289D01*
X125179031Y-122389038D01*
X125156360Y-122294609D01*
X125137105Y-122214406D01*
X125086778Y-122092904D01*
X125048135Y-121999611D01*
X125048133Y-121999607D01*
X125046240Y-121995037D01*
X124972795Y-121875186D01*
X124924759Y-121796798D01*
X124924755Y-121796792D01*
X124922176Y-121792584D01*
X124767969Y-121612031D01*
X124587416Y-121457824D01*
X124583208Y-121455245D01*
X124583202Y-121455241D01*
X124389183Y-121336346D01*
X124384963Y-121333760D01*
X124380393Y-121331867D01*
X124380389Y-121331865D01*
X124170167Y-121244789D01*
X124170165Y-121244788D01*
X124165594Y-121242895D01*
X124080972Y-121222579D01*
X123939524Y-121188620D01*
X123939518Y-121188619D01*
X123934711Y-121187465D01*
X123698000Y-121168835D01*
X123461289Y-121187465D01*
X123456482Y-121188619D01*
X123456476Y-121188620D01*
X123315028Y-121222579D01*
X123230406Y-121242895D01*
X123225835Y-121244788D01*
X123225833Y-121244789D01*
X123015611Y-121331865D01*
X123015607Y-121331867D01*
X123011037Y-121333760D01*
X123006817Y-121336346D01*
X122812798Y-121455241D01*
X122812792Y-121455245D01*
X122808584Y-121457824D01*
X122628031Y-121612031D01*
X122473824Y-121792584D01*
X122471245Y-121796792D01*
X122471241Y-121796798D01*
X122423205Y-121875186D01*
X122349760Y-121995037D01*
X122347867Y-121999607D01*
X122347865Y-121999611D01*
X122309222Y-122092904D01*
X122258895Y-122214406D01*
X122239640Y-122294609D01*
X122216970Y-122389038D01*
X122203465Y-122445289D01*
X122184835Y-122682000D01*
X89055567Y-122682000D01*
X88883399Y-122351269D01*
X88878762Y-122341325D01*
X88775864Y-122092904D01*
X88733001Y-121989425D01*
X88729245Y-121979103D01*
X88703567Y-121897661D01*
X88614715Y-121615860D01*
X88611870Y-121605243D01*
X88529436Y-121233403D01*
X88527527Y-121222579D01*
X88477811Y-120844957D01*
X88476853Y-120834006D01*
X88466943Y-120607036D01*
X88465793Y-120580703D01*
X90842743Y-120580703D01*
X90843302Y-120584947D01*
X90843302Y-120584951D01*
X90853705Y-120663970D01*
X90880268Y-120865734D01*
X90881401Y-120869874D01*
X90881401Y-120869876D01*
X90883213Y-120876500D01*
X90956129Y-121143036D01*
X90957813Y-121146984D01*
X91057400Y-121380460D01*
X91068923Y-121407476D01*
X91121565Y-121495434D01*
X91193595Y-121615787D01*
X91216561Y-121654161D01*
X91396313Y-121878528D01*
X91604851Y-122076423D01*
X91838317Y-122244186D01*
X91842112Y-122246195D01*
X91842113Y-122246196D01*
X91863869Y-122257715D01*
X92092392Y-122378712D01*
X92362373Y-122477511D01*
X92643264Y-122538755D01*
X92671841Y-122541004D01*
X92866282Y-122556307D01*
X92866291Y-122556307D01*
X92868739Y-122556500D01*
X93024271Y-122556500D01*
X93026407Y-122556354D01*
X93026418Y-122556354D01*
X93234548Y-122542165D01*
X93234554Y-122542164D01*
X93238825Y-122541873D01*
X93243020Y-122541004D01*
X93243022Y-122541004D01*
X93379584Y-122512723D01*
X93520342Y-122483574D01*
X93791343Y-122387607D01*
X94046812Y-122255750D01*
X94050313Y-122253289D01*
X94050317Y-122253287D01*
X94164418Y-122173095D01*
X94282023Y-122090441D01*
X94389231Y-121990817D01*
X94489479Y-121897661D01*
X94489481Y-121897658D01*
X94492622Y-121894740D01*
X94674713Y-121672268D01*
X94824927Y-121427142D01*
X94848516Y-121373406D01*
X94938757Y-121167830D01*
X94940483Y-121163898D01*
X95019244Y-120887406D01*
X95052579Y-120653175D01*
X95059146Y-120607036D01*
X95059146Y-120607034D01*
X95059751Y-120602784D01*
X95059845Y-120584951D01*
X95060562Y-120448000D01*
X100238884Y-120448000D01*
X100257314Y-120658655D01*
X100258738Y-120663968D01*
X100258738Y-120663970D01*
X100307234Y-120844957D01*
X100312044Y-120862910D01*
X100314366Y-120867891D01*
X100314367Y-120867892D01*
X100325392Y-120891534D01*
X100401411Y-121054558D01*
X100522699Y-121227776D01*
X100672224Y-121377301D01*
X100845442Y-121498589D01*
X100850420Y-121500910D01*
X100850423Y-121500912D01*
X101032108Y-121585633D01*
X101037090Y-121587956D01*
X101042398Y-121589378D01*
X101042400Y-121589379D01*
X101236030Y-121641262D01*
X101236032Y-121641262D01*
X101241345Y-121642686D01*
X101452000Y-121661116D01*
X101662655Y-121642686D01*
X101667968Y-121641262D01*
X101667970Y-121641262D01*
X101861600Y-121589379D01*
X101861602Y-121589378D01*
X101866910Y-121587956D01*
X101871892Y-121585633D01*
X102053577Y-121500912D01*
X102053580Y-121500910D01*
X102058558Y-121498589D01*
X102231776Y-121377301D01*
X102381301Y-121227776D01*
X102502589Y-121054558D01*
X102578609Y-120891534D01*
X102589633Y-120867892D01*
X102589634Y-120867891D01*
X102591956Y-120862910D01*
X102596767Y-120844957D01*
X102645262Y-120663970D01*
X102645262Y-120663968D01*
X102646686Y-120658655D01*
X102665116Y-120448000D01*
X111238884Y-120448000D01*
X111257314Y-120658655D01*
X111258738Y-120663968D01*
X111258738Y-120663970D01*
X111307234Y-120844957D01*
X111312044Y-120862910D01*
X111314366Y-120867891D01*
X111314367Y-120867892D01*
X111325392Y-120891534D01*
X111401411Y-121054558D01*
X111522699Y-121227776D01*
X111672224Y-121377301D01*
X111845442Y-121498589D01*
X111850420Y-121500910D01*
X111850423Y-121500912D01*
X112032108Y-121585633D01*
X112037090Y-121587956D01*
X112042398Y-121589378D01*
X112042400Y-121589379D01*
X112236030Y-121641262D01*
X112236032Y-121641262D01*
X112241345Y-121642686D01*
X112452000Y-121661116D01*
X112662655Y-121642686D01*
X112667968Y-121641262D01*
X112667970Y-121641262D01*
X112861600Y-121589379D01*
X112861602Y-121589378D01*
X112866910Y-121587956D01*
X112871892Y-121585633D01*
X113053577Y-121500912D01*
X113053580Y-121500910D01*
X113058558Y-121498589D01*
X113231776Y-121377301D01*
X113381301Y-121227776D01*
X113502589Y-121054558D01*
X113578609Y-120891534D01*
X113589633Y-120867892D01*
X113589634Y-120867891D01*
X113591956Y-120862910D01*
X113596767Y-120844957D01*
X113645262Y-120663970D01*
X113645262Y-120663968D01*
X113646686Y-120658655D01*
X113665116Y-120448000D01*
X113646686Y-120237345D01*
X113645262Y-120232030D01*
X113593379Y-120038400D01*
X113593378Y-120038398D01*
X113591956Y-120033090D01*
X113580533Y-120008594D01*
X113504912Y-119846423D01*
X113504910Y-119846420D01*
X113502589Y-119841442D01*
X113381301Y-119668224D01*
X113370767Y-119657690D01*
X117909037Y-119657690D01*
X117936025Y-119880715D01*
X118002082Y-120095435D01*
X118004652Y-120100415D01*
X118004654Y-120100419D01*
X118102546Y-120290081D01*
X118105118Y-120295064D01*
X118241877Y-120473292D01*
X118408036Y-120624485D01*
X118412783Y-120627463D01*
X118412786Y-120627465D01*
X118541229Y-120708036D01*
X118598344Y-120743864D01*
X118806783Y-120827656D01*
X119026767Y-120873213D01*
X119031378Y-120873479D01*
X119031379Y-120873479D01*
X119081952Y-120876395D01*
X119081956Y-120876395D01*
X119083775Y-120876500D01*
X119728999Y-120876500D01*
X119731786Y-120876251D01*
X119731792Y-120876251D01*
X119803220Y-120869876D01*
X119895762Y-120861617D01*
X119901176Y-120860136D01*
X119901181Y-120860135D01*
X120028912Y-120825191D01*
X120112451Y-120802337D01*
X120117509Y-120799925D01*
X120117513Y-120799923D01*
X120235042Y-120743864D01*
X120315218Y-120705622D01*
X120497654Y-120574529D01*
X120562661Y-120507447D01*
X120620270Y-120448000D01*
X126342884Y-120448000D01*
X126361314Y-120658655D01*
X126362738Y-120663968D01*
X126362738Y-120663970D01*
X126411234Y-120844957D01*
X126416044Y-120862910D01*
X126418366Y-120867891D01*
X126418367Y-120867892D01*
X126429392Y-120891534D01*
X126505411Y-121054558D01*
X126626699Y-121227776D01*
X126776224Y-121377301D01*
X126949442Y-121498589D01*
X126954420Y-121500910D01*
X126954423Y-121500912D01*
X127136108Y-121585633D01*
X127141090Y-121587956D01*
X127146398Y-121589378D01*
X127146400Y-121589379D01*
X127340030Y-121641262D01*
X127340032Y-121641262D01*
X127345345Y-121642686D01*
X127556000Y-121661116D01*
X127766655Y-121642686D01*
X127771968Y-121641262D01*
X127771970Y-121641262D01*
X127965600Y-121589379D01*
X127965602Y-121589378D01*
X127970910Y-121587956D01*
X127975892Y-121585633D01*
X128157577Y-121500912D01*
X128157580Y-121500910D01*
X128162558Y-121498589D01*
X128335776Y-121377301D01*
X128485301Y-121227776D01*
X128606589Y-121054558D01*
X128682609Y-120891534D01*
X128693633Y-120867892D01*
X128693634Y-120867891D01*
X128695956Y-120862910D01*
X128700767Y-120844957D01*
X128749262Y-120663970D01*
X128749262Y-120663968D01*
X128750686Y-120658655D01*
X128769116Y-120448000D01*
X137342884Y-120448000D01*
X137361314Y-120658655D01*
X137362738Y-120663968D01*
X137362738Y-120663970D01*
X137411234Y-120844957D01*
X137416044Y-120862910D01*
X137418366Y-120867891D01*
X137418367Y-120867892D01*
X137429392Y-120891534D01*
X137505411Y-121054558D01*
X137626699Y-121227776D01*
X137776224Y-121377301D01*
X137949442Y-121498589D01*
X137954420Y-121500910D01*
X137954423Y-121500912D01*
X138136108Y-121585633D01*
X138141090Y-121587956D01*
X138146398Y-121589378D01*
X138146400Y-121589379D01*
X138340030Y-121641262D01*
X138340032Y-121641262D01*
X138345345Y-121642686D01*
X138556000Y-121661116D01*
X138766655Y-121642686D01*
X138771968Y-121641262D01*
X138771970Y-121641262D01*
X138965600Y-121589379D01*
X138965602Y-121589378D01*
X138970910Y-121587956D01*
X138975892Y-121585633D01*
X139157577Y-121500912D01*
X139157580Y-121500910D01*
X139162558Y-121498589D01*
X139335776Y-121377301D01*
X139485301Y-121227776D01*
X139606589Y-121054558D01*
X139682609Y-120891534D01*
X139693633Y-120867892D01*
X139693634Y-120867891D01*
X139695956Y-120862910D01*
X139700767Y-120844957D01*
X139749262Y-120663970D01*
X139749262Y-120663968D01*
X139750686Y-120658655D01*
X139757506Y-120580703D01*
X145842743Y-120580703D01*
X145843302Y-120584947D01*
X145843302Y-120584951D01*
X145853705Y-120663970D01*
X145880268Y-120865734D01*
X145881401Y-120869874D01*
X145881401Y-120869876D01*
X145883213Y-120876500D01*
X145956129Y-121143036D01*
X145957813Y-121146984D01*
X146057400Y-121380460D01*
X146068923Y-121407476D01*
X146121565Y-121495434D01*
X146193595Y-121615787D01*
X146216561Y-121654161D01*
X146396313Y-121878528D01*
X146604851Y-122076423D01*
X146838317Y-122244186D01*
X146842112Y-122246195D01*
X146842113Y-122246196D01*
X146863869Y-122257715D01*
X147092392Y-122378712D01*
X147362373Y-122477511D01*
X147643264Y-122538755D01*
X147671841Y-122541004D01*
X147866282Y-122556307D01*
X147866291Y-122556307D01*
X147868739Y-122556500D01*
X148024271Y-122556500D01*
X148026407Y-122556354D01*
X148026418Y-122556354D01*
X148234548Y-122542165D01*
X148234554Y-122542164D01*
X148238825Y-122541873D01*
X148243020Y-122541004D01*
X148243022Y-122541004D01*
X148379584Y-122512723D01*
X148520342Y-122483574D01*
X148791343Y-122387607D01*
X149046812Y-122255750D01*
X149050313Y-122253289D01*
X149050317Y-122253287D01*
X149164417Y-122173096D01*
X149282023Y-122090441D01*
X149389231Y-121990817D01*
X149489479Y-121897661D01*
X149489481Y-121897658D01*
X149492622Y-121894740D01*
X149674713Y-121672268D01*
X149824927Y-121427142D01*
X149848516Y-121373406D01*
X149938757Y-121167830D01*
X149940483Y-121163898D01*
X150019244Y-120887406D01*
X150052579Y-120653175D01*
X150059146Y-120607036D01*
X150059146Y-120607034D01*
X150059751Y-120602784D01*
X150059845Y-120584951D01*
X150061235Y-120319583D01*
X150061235Y-120319576D01*
X150061257Y-120315297D01*
X150058594Y-120295064D01*
X150032968Y-120100419D01*
X150023732Y-120030266D01*
X149947871Y-119752964D01*
X149847948Y-119518699D01*
X149836763Y-119492476D01*
X149836761Y-119492472D01*
X149835077Y-119488524D01*
X149687439Y-119241839D01*
X149507687Y-119017472D01*
X149384289Y-118900372D01*
X149302258Y-118822527D01*
X149302255Y-118822525D01*
X149299149Y-118819577D01*
X149065683Y-118651814D01*
X149043843Y-118640250D01*
X149020654Y-118627972D01*
X148811608Y-118517288D01*
X148541627Y-118418489D01*
X148260736Y-118357245D01*
X148229685Y-118354801D01*
X148037718Y-118339693D01*
X148037709Y-118339693D01*
X148035261Y-118339500D01*
X147879729Y-118339500D01*
X147877593Y-118339646D01*
X147877582Y-118339646D01*
X147669452Y-118353835D01*
X147669446Y-118353836D01*
X147665175Y-118354127D01*
X147660980Y-118354996D01*
X147660978Y-118354996D01*
X147524417Y-118383276D01*
X147383658Y-118412426D01*
X147112657Y-118508393D01*
X146857188Y-118640250D01*
X146853687Y-118642711D01*
X146853683Y-118642713D01*
X146757756Y-118710132D01*
X146621977Y-118805559D01*
X146411378Y-119001260D01*
X146229287Y-119223732D01*
X146079073Y-119468858D01*
X146077347Y-119472791D01*
X146077346Y-119472792D01*
X146031027Y-119578310D01*
X145963517Y-119732102D01*
X145884756Y-120008594D01*
X145844249Y-120293216D01*
X145844227Y-120297505D01*
X145844226Y-120297512D01*
X145843191Y-120495173D01*
X145842743Y-120580703D01*
X139757506Y-120580703D01*
X139769116Y-120448000D01*
X139750686Y-120237345D01*
X139749262Y-120232030D01*
X139697379Y-120038400D01*
X139697378Y-120038398D01*
X139695956Y-120033090D01*
X139684533Y-120008594D01*
X139608912Y-119846423D01*
X139608910Y-119846420D01*
X139606589Y-119841442D01*
X139485301Y-119668224D01*
X139335776Y-119518699D01*
X139162558Y-119397411D01*
X139157580Y-119395090D01*
X139157577Y-119395088D01*
X138975892Y-119310367D01*
X138975891Y-119310366D01*
X138970910Y-119308044D01*
X138965602Y-119306622D01*
X138965600Y-119306621D01*
X138771970Y-119254738D01*
X138771968Y-119254738D01*
X138766655Y-119253314D01*
X138556000Y-119234884D01*
X138345345Y-119253314D01*
X138340032Y-119254738D01*
X138340030Y-119254738D01*
X138146400Y-119306621D01*
X138146398Y-119306622D01*
X138141090Y-119308044D01*
X138136109Y-119310366D01*
X138136108Y-119310367D01*
X137954423Y-119395088D01*
X137954420Y-119395090D01*
X137949442Y-119397411D01*
X137776224Y-119518699D01*
X137626699Y-119668224D01*
X137505411Y-119841442D01*
X137503090Y-119846420D01*
X137503088Y-119846423D01*
X137427467Y-120008594D01*
X137416044Y-120033090D01*
X137414622Y-120038398D01*
X137414621Y-120038400D01*
X137362738Y-120232030D01*
X137361314Y-120237345D01*
X137342884Y-120448000D01*
X128769116Y-120448000D01*
X128750686Y-120237345D01*
X128749262Y-120232030D01*
X128697379Y-120038400D01*
X128697378Y-120038398D01*
X128695956Y-120033090D01*
X128684533Y-120008594D01*
X128608912Y-119846423D01*
X128608910Y-119846420D01*
X128606589Y-119841442D01*
X128485301Y-119668224D01*
X128335776Y-119518699D01*
X128162558Y-119397411D01*
X128157580Y-119395090D01*
X128157577Y-119395088D01*
X127975892Y-119310367D01*
X127975891Y-119310366D01*
X127970910Y-119308044D01*
X127965602Y-119306622D01*
X127965600Y-119306621D01*
X127771970Y-119254738D01*
X127771968Y-119254738D01*
X127766655Y-119253314D01*
X127556000Y-119234884D01*
X127345345Y-119253314D01*
X127340032Y-119254738D01*
X127340030Y-119254738D01*
X127146400Y-119306621D01*
X127146398Y-119306622D01*
X127141090Y-119308044D01*
X127136109Y-119310366D01*
X127136108Y-119310367D01*
X126954423Y-119395088D01*
X126954420Y-119395090D01*
X126949442Y-119397411D01*
X126776224Y-119518699D01*
X126626699Y-119668224D01*
X126505411Y-119841442D01*
X126503090Y-119846420D01*
X126503088Y-119846423D01*
X126427467Y-120008594D01*
X126416044Y-120033090D01*
X126414622Y-120038398D01*
X126414621Y-120038400D01*
X126362738Y-120232030D01*
X126361314Y-120237345D01*
X126342884Y-120448000D01*
X120620270Y-120448000D01*
X120650089Y-120417229D01*
X120650091Y-120417226D01*
X120653992Y-120413201D01*
X120779290Y-120226738D01*
X120869588Y-120021033D01*
X120872575Y-120008594D01*
X120920722Y-119808046D01*
X120920722Y-119808045D01*
X120922032Y-119802589D01*
X120934963Y-119578310D01*
X120907975Y-119355285D01*
X120841918Y-119140565D01*
X120776798Y-119014396D01*
X120741454Y-118945919D01*
X120741454Y-118945918D01*
X120738882Y-118940936D01*
X120735468Y-118936487D01*
X120735465Y-118936482D01*
X120653629Y-118829830D01*
X120628029Y-118763610D01*
X120642294Y-118694061D01*
X120674980Y-118654658D01*
X120693708Y-118639708D01*
X120798536Y-118508393D01*
X120804224Y-118501268D01*
X120808621Y-118495760D01*
X120888786Y-118329930D01*
X120930220Y-118150460D01*
X120930500Y-118145604D01*
X120930500Y-117090396D01*
X120930220Y-117085540D01*
X120888786Y-116906070D01*
X120808621Y-116740240D01*
X120693708Y-116596292D01*
X120549760Y-116481379D01*
X120383930Y-116401214D01*
X120377069Y-116399630D01*
X120209659Y-116360980D01*
X120209656Y-116360980D01*
X120204460Y-116359780D01*
X120199604Y-116359500D01*
X118644396Y-116359500D01*
X118639540Y-116359780D01*
X118634344Y-116360980D01*
X118634341Y-116360980D01*
X118466931Y-116399630D01*
X118460070Y-116401214D01*
X118294240Y-116481379D01*
X118150292Y-116596292D01*
X118035379Y-116740240D01*
X117955214Y-116906070D01*
X117913780Y-117085540D01*
X117913500Y-117090396D01*
X117913500Y-118145604D01*
X117913780Y-118150460D01*
X117955214Y-118329930D01*
X118035379Y-118495760D01*
X118039776Y-118501268D01*
X118045464Y-118508393D01*
X118150292Y-118639708D01*
X118165694Y-118652003D01*
X118206452Y-118710132D01*
X118209313Y-118781071D01*
X118188868Y-118822033D01*
X118190008Y-118822799D01*
X118064710Y-119009262D01*
X117974412Y-119214967D01*
X117973103Y-119220418D01*
X117973102Y-119220422D01*
X117930611Y-119397411D01*
X117921968Y-119433411D01*
X117909037Y-119657690D01*
X113370767Y-119657690D01*
X113231776Y-119518699D01*
X113058558Y-119397411D01*
X113053580Y-119395090D01*
X113053577Y-119395088D01*
X112871892Y-119310367D01*
X112871891Y-119310366D01*
X112866910Y-119308044D01*
X112861602Y-119306622D01*
X112861600Y-119306621D01*
X112667970Y-119254738D01*
X112667968Y-119254738D01*
X112662655Y-119253314D01*
X112452000Y-119234884D01*
X112241345Y-119253314D01*
X112236032Y-119254738D01*
X112236030Y-119254738D01*
X112042400Y-119306621D01*
X112042398Y-119306622D01*
X112037090Y-119308044D01*
X112032109Y-119310366D01*
X112032108Y-119310367D01*
X111850423Y-119395088D01*
X111850420Y-119395090D01*
X111845442Y-119397411D01*
X111672224Y-119518699D01*
X111522699Y-119668224D01*
X111401411Y-119841442D01*
X111399090Y-119846420D01*
X111399088Y-119846423D01*
X111323467Y-120008594D01*
X111312044Y-120033090D01*
X111310622Y-120038398D01*
X111310621Y-120038400D01*
X111258738Y-120232030D01*
X111257314Y-120237345D01*
X111238884Y-120448000D01*
X102665116Y-120448000D01*
X102646686Y-120237345D01*
X102645262Y-120232030D01*
X102593379Y-120038400D01*
X102593378Y-120038398D01*
X102591956Y-120033090D01*
X102580533Y-120008594D01*
X102504912Y-119846423D01*
X102504910Y-119846420D01*
X102502589Y-119841442D01*
X102381301Y-119668224D01*
X102231776Y-119518699D01*
X102058558Y-119397411D01*
X102053580Y-119395090D01*
X102053577Y-119395088D01*
X101871892Y-119310367D01*
X101871891Y-119310366D01*
X101866910Y-119308044D01*
X101861602Y-119306622D01*
X101861600Y-119306621D01*
X101667970Y-119254738D01*
X101667968Y-119254738D01*
X101662655Y-119253314D01*
X101452000Y-119234884D01*
X101241345Y-119253314D01*
X101236032Y-119254738D01*
X101236030Y-119254738D01*
X101042400Y-119306621D01*
X101042398Y-119306622D01*
X101037090Y-119308044D01*
X101032109Y-119310366D01*
X101032108Y-119310367D01*
X100850423Y-119395088D01*
X100850420Y-119395090D01*
X100845442Y-119397411D01*
X100672224Y-119518699D01*
X100522699Y-119668224D01*
X100401411Y-119841442D01*
X100399090Y-119846420D01*
X100399088Y-119846423D01*
X100323467Y-120008594D01*
X100312044Y-120033090D01*
X100310622Y-120038398D01*
X100310621Y-120038400D01*
X100258738Y-120232030D01*
X100257314Y-120237345D01*
X100238884Y-120448000D01*
X95060562Y-120448000D01*
X95061235Y-120319583D01*
X95061235Y-120319576D01*
X95061257Y-120315297D01*
X95058594Y-120295064D01*
X95032968Y-120100419D01*
X95023732Y-120030266D01*
X94947871Y-119752964D01*
X94847948Y-119518699D01*
X94836763Y-119492476D01*
X94836761Y-119492472D01*
X94835077Y-119488524D01*
X94687439Y-119241839D01*
X94507687Y-119017472D01*
X94384289Y-118900372D01*
X94302258Y-118822527D01*
X94302255Y-118822525D01*
X94299149Y-118819577D01*
X94065683Y-118651814D01*
X94043843Y-118640250D01*
X94020654Y-118627972D01*
X93811608Y-118517288D01*
X93541627Y-118418489D01*
X93260736Y-118357245D01*
X93229685Y-118354801D01*
X93037718Y-118339693D01*
X93037709Y-118339693D01*
X93035261Y-118339500D01*
X92879729Y-118339500D01*
X92877593Y-118339646D01*
X92877582Y-118339646D01*
X92669452Y-118353835D01*
X92669446Y-118353836D01*
X92665175Y-118354127D01*
X92660980Y-118354996D01*
X92660978Y-118354996D01*
X92524417Y-118383276D01*
X92383658Y-118412426D01*
X92112657Y-118508393D01*
X91857188Y-118640250D01*
X91853687Y-118642711D01*
X91853683Y-118642713D01*
X91757756Y-118710132D01*
X91621977Y-118805559D01*
X91411378Y-119001260D01*
X91229287Y-119223732D01*
X91079073Y-119468858D01*
X91077347Y-119472791D01*
X91077346Y-119472792D01*
X91031027Y-119578310D01*
X90963517Y-119732102D01*
X90884756Y-120008594D01*
X90844249Y-120293216D01*
X90844227Y-120297505D01*
X90844226Y-120297512D01*
X90843191Y-120495173D01*
X90842743Y-120580703D01*
X88465793Y-120580703D01*
X88462059Y-120495172D01*
X88463686Y-120468769D01*
X88464263Y-120465342D01*
X88464263Y-120465340D01*
X88465071Y-120460539D01*
X88465224Y-120448000D01*
X88461273Y-120420412D01*
X88460000Y-120402549D01*
X88460000Y-112242669D01*
X102194001Y-112242669D01*
X102194371Y-112249490D01*
X102199895Y-112300352D01*
X102203521Y-112315604D01*
X102248676Y-112436054D01*
X102257214Y-112451649D01*
X102333715Y-112553724D01*
X102346276Y-112566285D01*
X102448351Y-112642786D01*
X102463946Y-112651324D01*
X102584394Y-112696478D01*
X102599649Y-112700105D01*
X102650514Y-112705631D01*
X102657328Y-112706000D01*
X104179885Y-112706000D01*
X104195124Y-112701525D01*
X104196329Y-112700135D01*
X104198000Y-112692452D01*
X104198000Y-112687884D01*
X104706000Y-112687884D01*
X104710475Y-112703123D01*
X104711865Y-112704328D01*
X104719548Y-112705999D01*
X106246669Y-112705999D01*
X106253490Y-112705629D01*
X106304352Y-112700105D01*
X106319604Y-112696479D01*
X106440054Y-112651324D01*
X106455649Y-112642786D01*
X106557724Y-112566285D01*
X106570285Y-112553724D01*
X106646786Y-112451649D01*
X106655324Y-112436054D01*
X106700478Y-112315606D01*
X106704105Y-112300351D01*
X106709631Y-112249486D01*
X106710000Y-112242672D01*
X106710000Y-110720115D01*
X106705525Y-110704876D01*
X106704135Y-110703671D01*
X106696452Y-110702000D01*
X104724115Y-110702000D01*
X104708876Y-110706475D01*
X104707671Y-110707865D01*
X104706000Y-110715548D01*
X104706000Y-112687884D01*
X104198000Y-112687884D01*
X104198000Y-110720115D01*
X104193525Y-110704876D01*
X104192135Y-110703671D01*
X104184452Y-110702000D01*
X102212116Y-110702000D01*
X102196877Y-110706475D01*
X102195672Y-110707865D01*
X102194001Y-110715548D01*
X102194001Y-112242669D01*
X88460000Y-112242669D01*
X88460000Y-110448000D01*
X107188654Y-110448000D01*
X107188924Y-110452119D01*
X107207427Y-110734420D01*
X107208017Y-110743426D01*
X107208819Y-110747459D01*
X107208820Y-110747465D01*
X107264439Y-111027077D01*
X107265776Y-111033797D01*
X107267103Y-111037706D01*
X107267104Y-111037710D01*
X107313287Y-111173760D01*
X107360941Y-111314145D01*
X107491885Y-111579673D01*
X107656367Y-111825838D01*
X107659081Y-111828932D01*
X107659085Y-111828938D01*
X107795352Y-111984320D01*
X107851573Y-112048427D01*
X107854662Y-112051136D01*
X108071062Y-112240915D01*
X108071068Y-112240919D01*
X108074162Y-112243633D01*
X108077588Y-112245922D01*
X108077593Y-112245926D01*
X108159048Y-112300352D01*
X108320327Y-112408115D01*
X108324026Y-112409939D01*
X108324031Y-112409942D01*
X108408605Y-112451649D01*
X108585855Y-112539059D01*
X108589760Y-112540384D01*
X108589761Y-112540385D01*
X108862290Y-112632896D01*
X108862294Y-112632897D01*
X108866203Y-112634224D01*
X108870247Y-112635028D01*
X108870253Y-112635030D01*
X109152535Y-112691180D01*
X109152541Y-112691181D01*
X109156574Y-112691983D01*
X109160679Y-112692252D01*
X109160686Y-112692253D01*
X109447881Y-112711076D01*
X109452000Y-112711346D01*
X109456119Y-112711076D01*
X109743314Y-112692253D01*
X109743321Y-112692252D01*
X109747426Y-112691983D01*
X109751459Y-112691181D01*
X109751465Y-112691180D01*
X110033747Y-112635030D01*
X110033753Y-112635028D01*
X110037797Y-112634224D01*
X110041706Y-112632897D01*
X110041710Y-112632896D01*
X110314239Y-112540385D01*
X110314240Y-112540384D01*
X110318145Y-112539059D01*
X110352737Y-112522000D01*
X122184835Y-112522000D01*
X122203465Y-112758711D01*
X122258895Y-112989594D01*
X122349760Y-113208963D01*
X122352346Y-113213183D01*
X122471241Y-113407202D01*
X122471245Y-113407208D01*
X122473824Y-113411416D01*
X122628031Y-113591969D01*
X122808584Y-113746176D01*
X122812792Y-113748755D01*
X122812798Y-113748759D01*
X123006817Y-113867654D01*
X123011037Y-113870240D01*
X123015607Y-113872133D01*
X123015611Y-113872135D01*
X123225833Y-113959211D01*
X123230406Y-113961105D01*
X123310609Y-113980360D01*
X123456476Y-114015380D01*
X123456482Y-114015381D01*
X123461289Y-114016535D01*
X123698000Y-114035165D01*
X123934711Y-114016535D01*
X123939518Y-114015381D01*
X123939524Y-114015380D01*
X124085391Y-113980360D01*
X124165594Y-113961105D01*
X124170167Y-113959211D01*
X124380389Y-113872135D01*
X124380393Y-113872133D01*
X124384963Y-113870240D01*
X124389183Y-113867654D01*
X124583202Y-113748759D01*
X124583208Y-113748755D01*
X124587416Y-113746176D01*
X124767969Y-113591969D01*
X124922176Y-113411416D01*
X124924755Y-113407208D01*
X124924759Y-113407202D01*
X125043654Y-113213183D01*
X125046240Y-113208963D01*
X125137105Y-112989594D01*
X125192535Y-112758711D01*
X125211165Y-112522000D01*
X125192535Y-112285289D01*
X125185570Y-112256275D01*
X125182303Y-112242669D01*
X128298001Y-112242669D01*
X128298371Y-112249490D01*
X128303895Y-112300352D01*
X128307521Y-112315604D01*
X128352676Y-112436054D01*
X128361214Y-112451649D01*
X128437715Y-112553724D01*
X128450276Y-112566285D01*
X128552351Y-112642786D01*
X128567946Y-112651324D01*
X128688394Y-112696478D01*
X128703649Y-112700105D01*
X128754514Y-112705631D01*
X128761328Y-112706000D01*
X130283885Y-112706000D01*
X130299124Y-112701525D01*
X130300329Y-112700135D01*
X130302000Y-112692452D01*
X130302000Y-112687884D01*
X130810000Y-112687884D01*
X130814475Y-112703123D01*
X130815865Y-112704328D01*
X130823548Y-112705999D01*
X132350669Y-112705999D01*
X132357490Y-112705629D01*
X132408352Y-112700105D01*
X132423604Y-112696479D01*
X132544054Y-112651324D01*
X132559649Y-112642786D01*
X132661724Y-112566285D01*
X132674285Y-112553724D01*
X132750786Y-112451649D01*
X132759324Y-112436054D01*
X132804478Y-112315606D01*
X132808105Y-112300351D01*
X132813631Y-112249486D01*
X132814000Y-112242672D01*
X132814000Y-110720115D01*
X132809525Y-110704876D01*
X132808135Y-110703671D01*
X132800452Y-110702000D01*
X130828115Y-110702000D01*
X130812876Y-110706475D01*
X130811671Y-110707865D01*
X130810000Y-110715548D01*
X130810000Y-112687884D01*
X130302000Y-112687884D01*
X130302000Y-110720115D01*
X130297525Y-110704876D01*
X130296135Y-110703671D01*
X130288452Y-110702000D01*
X128316116Y-110702000D01*
X128300877Y-110706475D01*
X128299672Y-110707865D01*
X128298001Y-110715548D01*
X128298001Y-112242669D01*
X125182303Y-112242669D01*
X125156360Y-112134609D01*
X125137105Y-112054406D01*
X125135211Y-112049833D01*
X125048135Y-111839611D01*
X125048133Y-111839607D01*
X125046240Y-111835037D01*
X125038500Y-111822407D01*
X124924759Y-111636798D01*
X124924755Y-111636792D01*
X124922176Y-111632584D01*
X124767969Y-111452031D01*
X124587416Y-111297824D01*
X124583208Y-111295245D01*
X124583202Y-111295241D01*
X124389183Y-111176346D01*
X124384963Y-111173760D01*
X124380393Y-111171867D01*
X124380389Y-111171865D01*
X124170167Y-111084789D01*
X124170165Y-111084788D01*
X124165594Y-111082895D01*
X124085391Y-111063640D01*
X123939524Y-111028620D01*
X123939518Y-111028619D01*
X123934711Y-111027465D01*
X123698000Y-111008835D01*
X123461289Y-111027465D01*
X123456482Y-111028619D01*
X123456476Y-111028620D01*
X123310609Y-111063640D01*
X123230406Y-111082895D01*
X123225835Y-111084788D01*
X123225833Y-111084789D01*
X123015611Y-111171865D01*
X123015607Y-111171867D01*
X123011037Y-111173760D01*
X123006817Y-111176346D01*
X122812798Y-111295241D01*
X122812792Y-111295245D01*
X122808584Y-111297824D01*
X122628031Y-111452031D01*
X122473824Y-111632584D01*
X122471245Y-111636792D01*
X122471241Y-111636798D01*
X122357500Y-111822407D01*
X122349760Y-111835037D01*
X122347867Y-111839607D01*
X122347865Y-111839611D01*
X122260789Y-112049833D01*
X122258895Y-112054406D01*
X122239640Y-112134609D01*
X122210431Y-112256275D01*
X122203465Y-112285289D01*
X122184835Y-112522000D01*
X110352737Y-112522000D01*
X110495395Y-112451649D01*
X110579969Y-112409942D01*
X110579974Y-112409939D01*
X110583673Y-112408115D01*
X110744952Y-112300352D01*
X110826407Y-112245926D01*
X110826412Y-112245922D01*
X110829838Y-112243633D01*
X110832932Y-112240919D01*
X110832938Y-112240915D01*
X111049338Y-112051136D01*
X111052427Y-112048427D01*
X111108648Y-111984320D01*
X111244915Y-111828938D01*
X111244919Y-111828932D01*
X111247633Y-111825838D01*
X111412115Y-111579673D01*
X111543059Y-111314145D01*
X111590713Y-111173760D01*
X111636896Y-111037710D01*
X111636897Y-111037706D01*
X111638224Y-111033797D01*
X111639561Y-111027077D01*
X111695180Y-110747465D01*
X111695181Y-110747459D01*
X111695983Y-110743426D01*
X111696574Y-110734420D01*
X111715076Y-110452119D01*
X111715346Y-110448000D01*
X133292654Y-110448000D01*
X133292924Y-110452119D01*
X133311427Y-110734420D01*
X133312017Y-110743426D01*
X133312819Y-110747459D01*
X133312820Y-110747465D01*
X133368439Y-111027077D01*
X133369776Y-111033797D01*
X133371103Y-111037706D01*
X133371104Y-111037710D01*
X133417287Y-111173760D01*
X133464941Y-111314145D01*
X133595885Y-111579673D01*
X133760367Y-111825838D01*
X133763081Y-111828932D01*
X133763085Y-111828938D01*
X133899352Y-111984320D01*
X133955573Y-112048427D01*
X133958662Y-112051136D01*
X134175062Y-112240915D01*
X134175068Y-112240919D01*
X134178162Y-112243633D01*
X134181588Y-112245922D01*
X134181593Y-112245926D01*
X134263048Y-112300352D01*
X134424327Y-112408115D01*
X134428026Y-112409939D01*
X134428031Y-112409942D01*
X134512605Y-112451649D01*
X134689855Y-112539059D01*
X134693760Y-112540384D01*
X134693761Y-112540385D01*
X134966290Y-112632896D01*
X134966294Y-112632897D01*
X134970203Y-112634224D01*
X134974247Y-112635028D01*
X134974253Y-112635030D01*
X135256535Y-112691180D01*
X135256541Y-112691181D01*
X135260574Y-112691983D01*
X135264679Y-112692252D01*
X135264686Y-112692253D01*
X135551881Y-112711076D01*
X135556000Y-112711346D01*
X135560119Y-112711076D01*
X135847314Y-112692253D01*
X135847321Y-112692252D01*
X135851426Y-112691983D01*
X135855459Y-112691181D01*
X135855465Y-112691180D01*
X136137747Y-112635030D01*
X136137753Y-112635028D01*
X136141797Y-112634224D01*
X136145706Y-112632897D01*
X136145710Y-112632896D01*
X136418239Y-112540385D01*
X136418240Y-112540384D01*
X136422145Y-112539059D01*
X136599395Y-112451649D01*
X136683969Y-112409942D01*
X136683974Y-112409939D01*
X136687673Y-112408115D01*
X136848952Y-112300352D01*
X136930407Y-112245926D01*
X136930412Y-112245922D01*
X136933838Y-112243633D01*
X136936932Y-112240919D01*
X136936938Y-112240915D01*
X137153338Y-112051136D01*
X137156427Y-112048427D01*
X137212648Y-111984320D01*
X137219357Y-111976670D01*
X148230160Y-111976670D01*
X148235887Y-111984320D01*
X148407042Y-112089205D01*
X148415837Y-112093687D01*
X148625988Y-112180734D01*
X148635373Y-112183783D01*
X148856554Y-112236885D01*
X148866301Y-112238428D01*
X149093070Y-112256275D01*
X149102930Y-112256275D01*
X149329699Y-112238428D01*
X149339446Y-112236885D01*
X149560627Y-112183783D01*
X149570012Y-112180734D01*
X149780163Y-112093687D01*
X149788958Y-112089205D01*
X149956445Y-111986568D01*
X149965907Y-111976110D01*
X149962124Y-111967334D01*
X149110812Y-111116022D01*
X149096868Y-111108408D01*
X149095035Y-111108539D01*
X149088420Y-111112790D01*
X148236920Y-111964290D01*
X148230160Y-111976670D01*
X137219357Y-111976670D01*
X137348915Y-111828938D01*
X137348919Y-111828932D01*
X137351633Y-111825838D01*
X137516115Y-111579673D01*
X137647059Y-111314145D01*
X137694713Y-111173760D01*
X137740896Y-111037710D01*
X137740897Y-111037706D01*
X137742224Y-111033797D01*
X137743561Y-111027077D01*
X137798889Y-110748930D01*
X147585725Y-110748930D01*
X147603572Y-110975699D01*
X147605115Y-110985446D01*
X147658217Y-111206627D01*
X147661266Y-111216012D01*
X147748313Y-111426163D01*
X147752795Y-111434958D01*
X147855432Y-111602445D01*
X147865890Y-111611907D01*
X147874666Y-111608124D01*
X148725978Y-110756812D01*
X148732356Y-110745132D01*
X149462408Y-110745132D01*
X149462539Y-110746965D01*
X149466790Y-110753580D01*
X150318290Y-111605080D01*
X150330670Y-111611840D01*
X150338320Y-111606113D01*
X150443205Y-111434958D01*
X150447687Y-111426163D01*
X150534734Y-111216012D01*
X150537783Y-111206627D01*
X150590885Y-110985446D01*
X150592428Y-110975699D01*
X150610275Y-110748930D01*
X150610275Y-110739070D01*
X150592428Y-110512301D01*
X150590885Y-110502554D01*
X150537783Y-110281373D01*
X150534734Y-110271988D01*
X150447687Y-110061837D01*
X150443205Y-110053042D01*
X150340568Y-109885555D01*
X150330110Y-109876093D01*
X150321334Y-109879876D01*
X149470022Y-110731188D01*
X149462408Y-110745132D01*
X148732356Y-110745132D01*
X148733592Y-110742868D01*
X148733461Y-110741035D01*
X148729210Y-110734420D01*
X147877710Y-109882920D01*
X147865330Y-109876160D01*
X147857680Y-109881887D01*
X147752795Y-110053042D01*
X147748313Y-110061837D01*
X147661266Y-110271988D01*
X147658217Y-110281373D01*
X147605115Y-110502554D01*
X147603572Y-110512301D01*
X147585725Y-110739070D01*
X147585725Y-110748930D01*
X137798889Y-110748930D01*
X137799180Y-110747465D01*
X137799181Y-110747459D01*
X137799983Y-110743426D01*
X137800574Y-110734420D01*
X137819076Y-110452119D01*
X137819346Y-110448000D01*
X137807810Y-110271988D01*
X137800253Y-110156686D01*
X137800252Y-110156679D01*
X137799983Y-110152574D01*
X137781935Y-110061837D01*
X137743030Y-109866253D01*
X137743028Y-109866247D01*
X137742224Y-109862203D01*
X137647059Y-109581855D01*
X137612556Y-109511890D01*
X148230093Y-109511890D01*
X148233876Y-109520666D01*
X149085188Y-110371978D01*
X149099132Y-110379592D01*
X149100965Y-110379461D01*
X149107580Y-110375210D01*
X149959080Y-109523710D01*
X149965840Y-109511330D01*
X149960113Y-109503680D01*
X149788958Y-109398795D01*
X149780163Y-109394313D01*
X149570012Y-109307266D01*
X149560627Y-109304217D01*
X149339446Y-109251115D01*
X149329699Y-109249572D01*
X149102930Y-109231725D01*
X149093070Y-109231725D01*
X148866301Y-109249572D01*
X148856554Y-109251115D01*
X148635373Y-109304217D01*
X148625988Y-109307266D01*
X148415837Y-109394313D01*
X148407042Y-109398795D01*
X148239555Y-109501432D01*
X148230093Y-109511890D01*
X137612556Y-109511890D01*
X137556784Y-109398795D01*
X137517942Y-109320031D01*
X137517939Y-109320026D01*
X137516115Y-109316327D01*
X137351633Y-109070162D01*
X137348919Y-109067068D01*
X137348915Y-109067062D01*
X137159136Y-108850662D01*
X137156427Y-108847573D01*
X137153338Y-108844864D01*
X136936938Y-108655085D01*
X136936932Y-108655081D01*
X136933838Y-108652367D01*
X136930412Y-108650078D01*
X136930407Y-108650074D01*
X136691106Y-108490179D01*
X136687673Y-108487885D01*
X136683974Y-108486061D01*
X136683969Y-108486058D01*
X136547687Y-108418852D01*
X136422145Y-108356941D01*
X136418239Y-108355615D01*
X136145710Y-108263104D01*
X136145706Y-108263103D01*
X136141797Y-108261776D01*
X136137753Y-108260972D01*
X136137747Y-108260970D01*
X135855465Y-108204820D01*
X135855459Y-108204819D01*
X135851426Y-108204017D01*
X135847321Y-108203748D01*
X135847314Y-108203747D01*
X135560119Y-108184924D01*
X135556000Y-108184654D01*
X135551881Y-108184924D01*
X135264686Y-108203747D01*
X135264679Y-108203748D01*
X135260574Y-108204017D01*
X135256541Y-108204819D01*
X135256535Y-108204820D01*
X134974253Y-108260970D01*
X134974247Y-108260972D01*
X134970203Y-108261776D01*
X134966294Y-108263103D01*
X134966290Y-108263104D01*
X134693761Y-108355615D01*
X134689855Y-108356941D01*
X134564313Y-108418852D01*
X134428031Y-108486058D01*
X134428026Y-108486061D01*
X134424327Y-108487885D01*
X134420894Y-108490179D01*
X134181593Y-108650074D01*
X134181588Y-108650078D01*
X134178162Y-108652367D01*
X134175068Y-108655081D01*
X134175062Y-108655085D01*
X133958662Y-108844864D01*
X133955573Y-108847573D01*
X133952864Y-108850662D01*
X133763085Y-109067062D01*
X133763081Y-109067068D01*
X133760367Y-109070162D01*
X133595885Y-109316327D01*
X133594061Y-109320026D01*
X133594058Y-109320031D01*
X133555216Y-109398795D01*
X133464941Y-109581855D01*
X133369776Y-109862203D01*
X133368972Y-109866247D01*
X133368970Y-109866253D01*
X133330066Y-110061837D01*
X133312017Y-110152574D01*
X133311748Y-110156679D01*
X133311747Y-110156686D01*
X133304190Y-110271988D01*
X133292654Y-110448000D01*
X111715346Y-110448000D01*
X111703810Y-110271988D01*
X111697511Y-110175885D01*
X128298000Y-110175885D01*
X128302475Y-110191124D01*
X128303865Y-110192329D01*
X128311548Y-110194000D01*
X130283885Y-110194000D01*
X130299124Y-110189525D01*
X130300329Y-110188135D01*
X130302000Y-110180452D01*
X130302000Y-110175885D01*
X130810000Y-110175885D01*
X130814475Y-110191124D01*
X130815865Y-110192329D01*
X130823548Y-110194000D01*
X132795884Y-110194000D01*
X132811123Y-110189525D01*
X132812328Y-110188135D01*
X132813999Y-110180452D01*
X132813999Y-108653331D01*
X132813629Y-108646510D01*
X132808105Y-108595648D01*
X132804479Y-108580396D01*
X132759324Y-108459946D01*
X132750786Y-108444351D01*
X132674285Y-108342276D01*
X132661724Y-108329715D01*
X132559649Y-108253214D01*
X132544054Y-108244676D01*
X132423606Y-108199522D01*
X132408351Y-108195895D01*
X132357486Y-108190369D01*
X132350672Y-108190000D01*
X130828115Y-108190000D01*
X130812876Y-108194475D01*
X130811671Y-108195865D01*
X130810000Y-108203548D01*
X130810000Y-110175885D01*
X130302000Y-110175885D01*
X130302000Y-108208116D01*
X130297525Y-108192877D01*
X130296135Y-108191672D01*
X130288452Y-108190001D01*
X128761331Y-108190001D01*
X128754510Y-108190371D01*
X128703648Y-108195895D01*
X128688396Y-108199521D01*
X128567946Y-108244676D01*
X128552351Y-108253214D01*
X128450276Y-108329715D01*
X128437715Y-108342276D01*
X128361214Y-108444351D01*
X128352676Y-108459946D01*
X128307522Y-108580394D01*
X128303895Y-108595649D01*
X128298369Y-108646514D01*
X128298000Y-108653328D01*
X128298000Y-110175885D01*
X111697511Y-110175885D01*
X111696253Y-110156686D01*
X111696252Y-110156679D01*
X111695983Y-110152574D01*
X111677935Y-110061837D01*
X111639030Y-109866253D01*
X111639028Y-109866247D01*
X111638224Y-109862203D01*
X111543059Y-109581855D01*
X111452784Y-109398795D01*
X111413942Y-109320031D01*
X111413939Y-109320026D01*
X111412115Y-109316327D01*
X111247633Y-109070162D01*
X111244919Y-109067068D01*
X111244915Y-109067062D01*
X111055136Y-108850662D01*
X111052427Y-108847573D01*
X111049338Y-108844864D01*
X110832938Y-108655085D01*
X110832932Y-108655081D01*
X110829838Y-108652367D01*
X110826412Y-108650078D01*
X110826407Y-108650074D01*
X110587106Y-108490179D01*
X110583673Y-108487885D01*
X110579974Y-108486061D01*
X110579969Y-108486058D01*
X110443687Y-108418852D01*
X110318145Y-108356941D01*
X110314239Y-108355615D01*
X110041710Y-108263104D01*
X110041706Y-108263103D01*
X110037797Y-108261776D01*
X110033753Y-108260972D01*
X110033747Y-108260970D01*
X109751465Y-108204820D01*
X109751459Y-108204819D01*
X109747426Y-108204017D01*
X109743321Y-108203748D01*
X109743314Y-108203747D01*
X109456119Y-108184924D01*
X109452000Y-108184654D01*
X109447881Y-108184924D01*
X109160686Y-108203747D01*
X109160679Y-108203748D01*
X109156574Y-108204017D01*
X109152541Y-108204819D01*
X109152535Y-108204820D01*
X108870253Y-108260970D01*
X108870247Y-108260972D01*
X108866203Y-108261776D01*
X108862294Y-108263103D01*
X108862290Y-108263104D01*
X108589761Y-108355615D01*
X108585855Y-108356941D01*
X108460313Y-108418852D01*
X108324031Y-108486058D01*
X108324026Y-108486061D01*
X108320327Y-108487885D01*
X108316894Y-108490179D01*
X108077593Y-108650074D01*
X108077588Y-108650078D01*
X108074162Y-108652367D01*
X108071068Y-108655081D01*
X108071062Y-108655085D01*
X107854662Y-108844864D01*
X107851573Y-108847573D01*
X107848864Y-108850662D01*
X107659085Y-109067062D01*
X107659081Y-109067068D01*
X107656367Y-109070162D01*
X107491885Y-109316327D01*
X107490061Y-109320026D01*
X107490058Y-109320031D01*
X107451216Y-109398795D01*
X107360941Y-109581855D01*
X107265776Y-109862203D01*
X107264972Y-109866247D01*
X107264970Y-109866253D01*
X107226066Y-110061837D01*
X107208017Y-110152574D01*
X107207748Y-110156679D01*
X107207747Y-110156686D01*
X107200190Y-110271988D01*
X107188654Y-110448000D01*
X88460000Y-110448000D01*
X88460000Y-110175885D01*
X102194000Y-110175885D01*
X102198475Y-110191124D01*
X102199865Y-110192329D01*
X102207548Y-110194000D01*
X104179885Y-110194000D01*
X104195124Y-110189525D01*
X104196329Y-110188135D01*
X104198000Y-110180452D01*
X104198000Y-110175885D01*
X104706000Y-110175885D01*
X104710475Y-110191124D01*
X104711865Y-110192329D01*
X104719548Y-110194000D01*
X106691884Y-110194000D01*
X106707123Y-110189525D01*
X106708328Y-110188135D01*
X106709999Y-110180452D01*
X106709999Y-108653331D01*
X106709629Y-108646510D01*
X106704105Y-108595648D01*
X106700479Y-108580396D01*
X106655324Y-108459946D01*
X106646786Y-108444351D01*
X106570285Y-108342276D01*
X106557724Y-108329715D01*
X106455649Y-108253214D01*
X106440054Y-108244676D01*
X106319606Y-108199522D01*
X106304351Y-108195895D01*
X106253486Y-108190369D01*
X106246672Y-108190000D01*
X104724115Y-108190000D01*
X104708876Y-108194475D01*
X104707671Y-108195865D01*
X104706000Y-108203548D01*
X104706000Y-110175885D01*
X104198000Y-110175885D01*
X104198000Y-108208116D01*
X104193525Y-108192877D01*
X104192135Y-108191672D01*
X104184452Y-108190001D01*
X102657331Y-108190001D01*
X102650510Y-108190371D01*
X102599648Y-108195895D01*
X102584396Y-108199521D01*
X102463946Y-108244676D01*
X102448351Y-108253214D01*
X102346276Y-108329715D01*
X102333715Y-108342276D01*
X102257214Y-108444351D01*
X102248676Y-108459946D01*
X102203522Y-108580394D01*
X102199895Y-108595649D01*
X102194369Y-108646514D01*
X102194000Y-108653328D01*
X102194000Y-110175885D01*
X88460000Y-110175885D01*
X88460000Y-102095127D01*
X98069500Y-102095127D01*
X98084457Y-102266087D01*
X98143716Y-102487243D01*
X98146039Y-102492224D01*
X98146039Y-102492225D01*
X98238151Y-102689762D01*
X98238154Y-102689767D01*
X98240477Y-102694749D01*
X98371802Y-102882300D01*
X98533700Y-103044198D01*
X98538208Y-103047355D01*
X98538211Y-103047357D01*
X98616389Y-103102098D01*
X98721251Y-103175523D01*
X98726233Y-103177846D01*
X98726238Y-103177849D01*
X98923775Y-103269961D01*
X98928757Y-103272284D01*
X98934065Y-103273706D01*
X98934067Y-103273707D01*
X99144598Y-103330119D01*
X99144600Y-103330119D01*
X99149913Y-103331543D01*
X99378000Y-103351498D01*
X99606087Y-103331543D01*
X99611400Y-103330119D01*
X99611402Y-103330119D01*
X99821933Y-103273707D01*
X99821935Y-103273706D01*
X99827243Y-103272284D01*
X99832225Y-103269961D01*
X100029762Y-103177849D01*
X100029767Y-103177846D01*
X100034749Y-103175523D01*
X100139611Y-103102098D01*
X100217789Y-103047357D01*
X100217792Y-103047355D01*
X100222300Y-103044198D01*
X100384198Y-102882300D01*
X100515523Y-102694749D01*
X100517846Y-102689767D01*
X100517849Y-102689762D01*
X100609961Y-102492225D01*
X100609961Y-102492224D01*
X100612284Y-102487243D01*
X100671543Y-102266087D01*
X100686500Y-102095127D01*
X102069500Y-102095127D01*
X102084457Y-102266087D01*
X102143716Y-102487243D01*
X102146039Y-102492224D01*
X102146039Y-102492225D01*
X102238151Y-102689762D01*
X102238154Y-102689767D01*
X102240477Y-102694749D01*
X102371802Y-102882300D01*
X102533700Y-103044198D01*
X102538208Y-103047355D01*
X102538211Y-103047357D01*
X102616389Y-103102098D01*
X102721251Y-103175523D01*
X102726233Y-103177846D01*
X102726238Y-103177849D01*
X102923775Y-103269961D01*
X102928757Y-103272284D01*
X102934065Y-103273706D01*
X102934067Y-103273707D01*
X103144598Y-103330119D01*
X103144600Y-103330119D01*
X103149913Y-103331543D01*
X103378000Y-103351498D01*
X103606087Y-103331543D01*
X103611400Y-103330119D01*
X103611402Y-103330119D01*
X103821933Y-103273707D01*
X103821935Y-103273706D01*
X103827243Y-103272284D01*
X103832225Y-103269961D01*
X104029762Y-103177849D01*
X104029767Y-103177846D01*
X104034749Y-103175523D01*
X104139611Y-103102098D01*
X104217789Y-103047357D01*
X104217792Y-103047355D01*
X104222300Y-103044198D01*
X104384198Y-102882300D01*
X104515523Y-102694749D01*
X104517846Y-102689767D01*
X104517849Y-102689762D01*
X104609961Y-102492225D01*
X104609961Y-102492224D01*
X104612284Y-102487243D01*
X104671543Y-102266087D01*
X104686500Y-102095127D01*
X106069500Y-102095127D01*
X106084457Y-102266087D01*
X106143716Y-102487243D01*
X106146039Y-102492224D01*
X106146039Y-102492225D01*
X106238151Y-102689762D01*
X106238154Y-102689767D01*
X106240477Y-102694749D01*
X106371802Y-102882300D01*
X106533700Y-103044198D01*
X106538208Y-103047355D01*
X106538211Y-103047357D01*
X106616389Y-103102098D01*
X106721251Y-103175523D01*
X106726233Y-103177846D01*
X106726238Y-103177849D01*
X106923775Y-103269961D01*
X106928757Y-103272284D01*
X106934065Y-103273706D01*
X106934067Y-103273707D01*
X107144598Y-103330119D01*
X107144600Y-103330119D01*
X107149913Y-103331543D01*
X107378000Y-103351498D01*
X107606087Y-103331543D01*
X107611400Y-103330119D01*
X107611402Y-103330119D01*
X107821933Y-103273707D01*
X107821935Y-103273706D01*
X107827243Y-103272284D01*
X107832225Y-103269961D01*
X108029762Y-103177849D01*
X108029767Y-103177846D01*
X108034749Y-103175523D01*
X108139611Y-103102098D01*
X108217789Y-103047357D01*
X108217792Y-103047355D01*
X108222300Y-103044198D01*
X108384198Y-102882300D01*
X108515523Y-102694749D01*
X108517846Y-102689767D01*
X108517849Y-102689762D01*
X108609961Y-102492225D01*
X108609961Y-102492224D01*
X108612284Y-102487243D01*
X108671543Y-102266087D01*
X108686500Y-102095127D01*
X108686500Y-101670062D01*
X112279606Y-101670062D01*
X112288902Y-101682077D01*
X112340107Y-101717931D01*
X112349602Y-101723414D01*
X112547060Y-101815490D01*
X112557352Y-101819236D01*
X112767801Y-101875625D01*
X112778594Y-101877528D01*
X112995638Y-101896517D01*
X113006588Y-101896517D01*
X113223632Y-101877528D01*
X113234425Y-101875625D01*
X113444874Y-101819236D01*
X113455166Y-101815490D01*
X113652624Y-101723414D01*
X113662124Y-101717929D01*
X113663023Y-101717299D01*
X113663483Y-101717144D01*
X113666881Y-101715182D01*
X113667275Y-101715865D01*
X113730297Y-101694612D01*
X113799157Y-101711898D01*
X113824916Y-101734934D01*
X113826120Y-101733730D01*
X113832471Y-101740081D01*
X113837852Y-101747261D01*
X113845032Y-101752642D01*
X113845035Y-101752645D01*
X113908611Y-101800292D01*
X113954408Y-101834615D01*
X114090797Y-101885745D01*
X114152979Y-101892500D01*
X115849247Y-101892500D01*
X115911429Y-101885745D01*
X116047818Y-101834615D01*
X116164374Y-101747261D01*
X116251728Y-101630705D01*
X116302858Y-101494316D01*
X116309613Y-101432134D01*
X116309613Y-100584000D01*
X117348835Y-100584000D01*
X117367465Y-100820711D01*
X117422895Y-101051594D01*
X117513760Y-101270963D01*
X117516346Y-101275183D01*
X117635241Y-101469202D01*
X117635245Y-101469208D01*
X117637824Y-101473416D01*
X117792031Y-101653969D01*
X117972584Y-101808176D01*
X117976792Y-101810755D01*
X117976798Y-101810759D01*
X118170817Y-101929654D01*
X118175037Y-101932240D01*
X118179607Y-101934133D01*
X118179611Y-101934135D01*
X118389833Y-102021211D01*
X118394406Y-102023105D01*
X118474609Y-102042360D01*
X118620476Y-102077380D01*
X118620482Y-102077381D01*
X118625289Y-102078535D01*
X118862000Y-102097165D01*
X119098711Y-102078535D01*
X119103518Y-102077381D01*
X119103524Y-102077380D01*
X119249391Y-102042360D01*
X119329594Y-102023105D01*
X119334167Y-102021211D01*
X119544389Y-101934135D01*
X119544393Y-101934133D01*
X119548963Y-101932240D01*
X119553183Y-101929654D01*
X119747202Y-101810759D01*
X119747208Y-101810755D01*
X119751416Y-101808176D01*
X119931969Y-101653969D01*
X120086176Y-101473416D01*
X120088755Y-101469208D01*
X120088759Y-101469202D01*
X120207654Y-101275183D01*
X120210240Y-101270963D01*
X120301105Y-101051594D01*
X120356535Y-100820711D01*
X120375165Y-100584000D01*
X122428835Y-100584000D01*
X122447465Y-100820711D01*
X122502895Y-101051594D01*
X122593760Y-101270963D01*
X122596346Y-101275183D01*
X122715241Y-101469202D01*
X122715245Y-101469208D01*
X122717824Y-101473416D01*
X122872031Y-101653969D01*
X123052584Y-101808176D01*
X123056792Y-101810755D01*
X123056798Y-101810759D01*
X123250817Y-101929654D01*
X123255037Y-101932240D01*
X123259607Y-101934133D01*
X123259611Y-101934135D01*
X123469833Y-102021211D01*
X123474406Y-102023105D01*
X123554609Y-102042360D01*
X123700476Y-102077380D01*
X123700482Y-102077381D01*
X123705289Y-102078535D01*
X123942000Y-102097165D01*
X124178711Y-102078535D01*
X124183518Y-102077381D01*
X124183524Y-102077380D01*
X124329391Y-102042360D01*
X124409594Y-102023105D01*
X124414167Y-102021211D01*
X124624389Y-101934135D01*
X124624393Y-101934133D01*
X124628963Y-101932240D01*
X124633183Y-101929654D01*
X124827202Y-101810759D01*
X124827208Y-101810755D01*
X124831416Y-101808176D01*
X125011969Y-101653969D01*
X125166176Y-101473416D01*
X125168755Y-101469208D01*
X125168759Y-101469202D01*
X125287654Y-101275183D01*
X125290240Y-101270963D01*
X125381105Y-101051594D01*
X125436535Y-100820711D01*
X125455165Y-100584000D01*
X127518835Y-100584000D01*
X127537465Y-100820711D01*
X127592895Y-101051594D01*
X127683760Y-101270963D01*
X127686346Y-101275183D01*
X127805241Y-101469202D01*
X127805245Y-101469208D01*
X127807824Y-101473416D01*
X127962031Y-101653969D01*
X128142584Y-101808176D01*
X128146792Y-101810755D01*
X128146798Y-101810759D01*
X128340817Y-101929654D01*
X128345037Y-101932240D01*
X128349607Y-101934133D01*
X128349611Y-101934135D01*
X128559833Y-102021211D01*
X128564406Y-102023105D01*
X128644609Y-102042360D01*
X128790476Y-102077380D01*
X128790482Y-102077381D01*
X128795289Y-102078535D01*
X129032000Y-102097165D01*
X129268711Y-102078535D01*
X129273518Y-102077381D01*
X129273524Y-102077380D01*
X129419391Y-102042360D01*
X129499594Y-102023105D01*
X129504167Y-102021211D01*
X129714389Y-101934135D01*
X129714393Y-101934133D01*
X129718963Y-101932240D01*
X129723183Y-101929654D01*
X129917202Y-101810759D01*
X129917208Y-101810755D01*
X129921416Y-101808176D01*
X130101969Y-101653969D01*
X130256176Y-101473416D01*
X130258755Y-101469208D01*
X130258759Y-101469202D01*
X130377654Y-101275183D01*
X130380240Y-101270963D01*
X130471105Y-101051594D01*
X130526535Y-100820711D01*
X130545165Y-100584000D01*
X132598835Y-100584000D01*
X132617465Y-100820711D01*
X132672895Y-101051594D01*
X132763760Y-101270963D01*
X132766346Y-101275183D01*
X132885241Y-101469202D01*
X132885245Y-101469208D01*
X132887824Y-101473416D01*
X133042031Y-101653969D01*
X133222584Y-101808176D01*
X133226792Y-101810755D01*
X133226798Y-101810759D01*
X133420817Y-101929654D01*
X133425037Y-101932240D01*
X133429607Y-101934133D01*
X133429611Y-101934135D01*
X133639833Y-102021211D01*
X133644406Y-102023105D01*
X133724609Y-102042360D01*
X133870476Y-102077380D01*
X133870482Y-102077381D01*
X133875289Y-102078535D01*
X134112000Y-102097165D01*
X134348711Y-102078535D01*
X134353518Y-102077381D01*
X134353524Y-102077380D01*
X134499391Y-102042360D01*
X134579594Y-102023105D01*
X134584167Y-102021211D01*
X134794389Y-101934135D01*
X134794393Y-101934133D01*
X134798963Y-101932240D01*
X134803183Y-101929654D01*
X134997202Y-101810759D01*
X134997208Y-101810755D01*
X135001416Y-101808176D01*
X135181969Y-101653969D01*
X135336176Y-101473416D01*
X135338755Y-101469208D01*
X135338759Y-101469202D01*
X135457654Y-101275183D01*
X135460240Y-101270963D01*
X135551105Y-101051594D01*
X135606535Y-100820711D01*
X135625165Y-100584000D01*
X137033835Y-100584000D01*
X137052465Y-100820711D01*
X137107895Y-101051594D01*
X137198760Y-101270963D01*
X137201346Y-101275183D01*
X137320241Y-101469202D01*
X137320245Y-101469208D01*
X137322824Y-101473416D01*
X137477031Y-101653969D01*
X137657584Y-101808176D01*
X137661792Y-101810755D01*
X137661798Y-101810759D01*
X137855817Y-101929654D01*
X137860037Y-101932240D01*
X137864607Y-101934133D01*
X137864611Y-101934135D01*
X138074833Y-102021211D01*
X138079406Y-102023105D01*
X138159609Y-102042360D01*
X138305476Y-102077380D01*
X138305482Y-102077381D01*
X138310289Y-102078535D01*
X138547000Y-102097165D01*
X138783711Y-102078535D01*
X138788518Y-102077381D01*
X138788524Y-102077380D01*
X138934391Y-102042360D01*
X139014594Y-102023105D01*
X139019167Y-102021211D01*
X139229389Y-101934135D01*
X139229393Y-101934133D01*
X139233963Y-101932240D01*
X139238183Y-101929654D01*
X139432202Y-101810759D01*
X139432208Y-101810755D01*
X139436416Y-101808176D01*
X139616969Y-101653969D01*
X139771176Y-101473416D01*
X139773755Y-101469208D01*
X139773759Y-101469202D01*
X139892654Y-101275183D01*
X139895240Y-101270963D01*
X139986105Y-101051594D01*
X140041535Y-100820711D01*
X140060165Y-100584000D01*
X142113835Y-100584000D01*
X142132465Y-100820711D01*
X142187895Y-101051594D01*
X142278760Y-101270963D01*
X142281346Y-101275183D01*
X142400241Y-101469202D01*
X142400245Y-101469208D01*
X142402824Y-101473416D01*
X142557031Y-101653969D01*
X142737584Y-101808176D01*
X142741792Y-101810755D01*
X142741798Y-101810759D01*
X142935817Y-101929654D01*
X142940037Y-101932240D01*
X142944607Y-101934133D01*
X142944611Y-101934135D01*
X143154833Y-102021211D01*
X143159406Y-102023105D01*
X143239609Y-102042360D01*
X143385476Y-102077380D01*
X143385482Y-102077381D01*
X143390289Y-102078535D01*
X143627000Y-102097165D01*
X143863711Y-102078535D01*
X143868518Y-102077381D01*
X143868524Y-102077380D01*
X144014391Y-102042360D01*
X144094594Y-102023105D01*
X144099167Y-102021211D01*
X144309389Y-101934135D01*
X144309393Y-101934133D01*
X144313963Y-101932240D01*
X144318183Y-101929654D01*
X144512202Y-101810759D01*
X144512208Y-101810755D01*
X144516416Y-101808176D01*
X144696969Y-101653969D01*
X144851176Y-101473416D01*
X144853755Y-101469208D01*
X144853759Y-101469202D01*
X144972654Y-101275183D01*
X144975240Y-101270963D01*
X145066105Y-101051594D01*
X145121535Y-100820711D01*
X145140165Y-100584000D01*
X145121535Y-100347289D01*
X145066105Y-100116406D01*
X144975240Y-99897037D01*
X144876474Y-99735866D01*
X144853759Y-99698798D01*
X144853755Y-99698792D01*
X144851176Y-99694584D01*
X144696969Y-99514031D01*
X144692758Y-99510434D01*
X144625298Y-99452818D01*
X144516416Y-99359824D01*
X144512208Y-99357245D01*
X144512202Y-99357241D01*
X144318183Y-99238346D01*
X144313963Y-99235760D01*
X144309393Y-99233867D01*
X144309389Y-99233865D01*
X144099167Y-99146789D01*
X144099165Y-99146788D01*
X144094594Y-99144895D01*
X144014391Y-99125640D01*
X143868524Y-99090620D01*
X143868518Y-99090619D01*
X143863711Y-99089465D01*
X143627000Y-99070835D01*
X143390289Y-99089465D01*
X143385482Y-99090619D01*
X143385476Y-99090620D01*
X143239609Y-99125640D01*
X143159406Y-99144895D01*
X143154835Y-99146788D01*
X143154833Y-99146789D01*
X142944611Y-99233865D01*
X142944607Y-99233867D01*
X142940037Y-99235760D01*
X142935817Y-99238346D01*
X142741798Y-99357241D01*
X142741792Y-99357245D01*
X142737584Y-99359824D01*
X142628702Y-99452818D01*
X142561243Y-99510434D01*
X142557031Y-99514031D01*
X142402824Y-99694584D01*
X142400245Y-99698792D01*
X142400241Y-99698798D01*
X142377526Y-99735866D01*
X142278760Y-99897037D01*
X142187895Y-100116406D01*
X142132465Y-100347289D01*
X142113835Y-100584000D01*
X140060165Y-100584000D01*
X140041535Y-100347289D01*
X139986105Y-100116406D01*
X139895240Y-99897037D01*
X139796474Y-99735866D01*
X139773759Y-99698798D01*
X139773755Y-99698792D01*
X139771176Y-99694584D01*
X139616969Y-99514031D01*
X139612758Y-99510434D01*
X139545298Y-99452818D01*
X139436416Y-99359824D01*
X139432208Y-99357245D01*
X139432202Y-99357241D01*
X139238183Y-99238346D01*
X139233963Y-99235760D01*
X139229393Y-99233867D01*
X139229389Y-99233865D01*
X139019167Y-99146789D01*
X139019165Y-99146788D01*
X139014594Y-99144895D01*
X138934391Y-99125640D01*
X138788524Y-99090620D01*
X138788518Y-99090619D01*
X138783711Y-99089465D01*
X138547000Y-99070835D01*
X138310289Y-99089465D01*
X138305482Y-99090619D01*
X138305476Y-99090620D01*
X138159609Y-99125640D01*
X138079406Y-99144895D01*
X138074835Y-99146788D01*
X138074833Y-99146789D01*
X137864611Y-99233865D01*
X137864607Y-99233867D01*
X137860037Y-99235760D01*
X137855817Y-99238346D01*
X137661798Y-99357241D01*
X137661792Y-99357245D01*
X137657584Y-99359824D01*
X137548702Y-99452818D01*
X137481243Y-99510434D01*
X137477031Y-99514031D01*
X137322824Y-99694584D01*
X137320245Y-99698792D01*
X137320241Y-99698798D01*
X137297526Y-99735866D01*
X137198760Y-99897037D01*
X137107895Y-100116406D01*
X137052465Y-100347289D01*
X137033835Y-100584000D01*
X135625165Y-100584000D01*
X135606535Y-100347289D01*
X135551105Y-100116406D01*
X135460240Y-99897037D01*
X135361474Y-99735866D01*
X135338759Y-99698798D01*
X135338755Y-99698792D01*
X135336176Y-99694584D01*
X135181969Y-99514031D01*
X135177758Y-99510434D01*
X135110298Y-99452818D01*
X135001416Y-99359824D01*
X134997208Y-99357245D01*
X134997202Y-99357241D01*
X134803183Y-99238346D01*
X134798963Y-99235760D01*
X134794393Y-99233867D01*
X134794389Y-99233865D01*
X134584167Y-99146789D01*
X134584165Y-99146788D01*
X134579594Y-99144895D01*
X134499391Y-99125640D01*
X134353524Y-99090620D01*
X134353518Y-99090619D01*
X134348711Y-99089465D01*
X134112000Y-99070835D01*
X133875289Y-99089465D01*
X133870482Y-99090619D01*
X133870476Y-99090620D01*
X133724609Y-99125640D01*
X133644406Y-99144895D01*
X133639835Y-99146788D01*
X133639833Y-99146789D01*
X133429611Y-99233865D01*
X133429607Y-99233867D01*
X133425037Y-99235760D01*
X133420817Y-99238346D01*
X133226798Y-99357241D01*
X133226792Y-99357245D01*
X133222584Y-99359824D01*
X133113702Y-99452818D01*
X133046243Y-99510434D01*
X133042031Y-99514031D01*
X132887824Y-99694584D01*
X132885245Y-99698792D01*
X132885241Y-99698798D01*
X132862526Y-99735866D01*
X132763760Y-99897037D01*
X132672895Y-100116406D01*
X132617465Y-100347289D01*
X132598835Y-100584000D01*
X130545165Y-100584000D01*
X130526535Y-100347289D01*
X130471105Y-100116406D01*
X130380240Y-99897037D01*
X130281474Y-99735866D01*
X130258759Y-99698798D01*
X130258755Y-99698792D01*
X130256176Y-99694584D01*
X130101969Y-99514031D01*
X130097758Y-99510434D01*
X130030298Y-99452818D01*
X129921416Y-99359824D01*
X129917208Y-99357245D01*
X129917202Y-99357241D01*
X129723183Y-99238346D01*
X129718963Y-99235760D01*
X129714393Y-99233867D01*
X129714389Y-99233865D01*
X129504167Y-99146789D01*
X129504165Y-99146788D01*
X129499594Y-99144895D01*
X129419391Y-99125640D01*
X129273524Y-99090620D01*
X129273518Y-99090619D01*
X129268711Y-99089465D01*
X129032000Y-99070835D01*
X128795289Y-99089465D01*
X128790482Y-99090619D01*
X128790476Y-99090620D01*
X128644609Y-99125640D01*
X128564406Y-99144895D01*
X128559835Y-99146788D01*
X128559833Y-99146789D01*
X128349611Y-99233865D01*
X128349607Y-99233867D01*
X128345037Y-99235760D01*
X128340817Y-99238346D01*
X128146798Y-99357241D01*
X128146792Y-99357245D01*
X128142584Y-99359824D01*
X128033702Y-99452818D01*
X127966243Y-99510434D01*
X127962031Y-99514031D01*
X127807824Y-99694584D01*
X127805245Y-99698792D01*
X127805241Y-99698798D01*
X127782526Y-99735866D01*
X127683760Y-99897037D01*
X127592895Y-100116406D01*
X127537465Y-100347289D01*
X127518835Y-100584000D01*
X125455165Y-100584000D01*
X125436535Y-100347289D01*
X125381105Y-100116406D01*
X125290240Y-99897037D01*
X125191474Y-99735866D01*
X125168759Y-99698798D01*
X125168755Y-99698792D01*
X125166176Y-99694584D01*
X125011969Y-99514031D01*
X125007758Y-99510434D01*
X124940298Y-99452818D01*
X124831416Y-99359824D01*
X124827208Y-99357245D01*
X124827202Y-99357241D01*
X124633183Y-99238346D01*
X124628963Y-99235760D01*
X124624393Y-99233867D01*
X124624389Y-99233865D01*
X124414167Y-99146789D01*
X124414165Y-99146788D01*
X124409594Y-99144895D01*
X124329391Y-99125640D01*
X124183524Y-99090620D01*
X124183518Y-99090619D01*
X124178711Y-99089465D01*
X123942000Y-99070835D01*
X123705289Y-99089465D01*
X123700482Y-99090619D01*
X123700476Y-99090620D01*
X123554609Y-99125640D01*
X123474406Y-99144895D01*
X123469835Y-99146788D01*
X123469833Y-99146789D01*
X123259611Y-99233865D01*
X123259607Y-99233867D01*
X123255037Y-99235760D01*
X123250817Y-99238346D01*
X123056798Y-99357241D01*
X123056792Y-99357245D01*
X123052584Y-99359824D01*
X122943702Y-99452818D01*
X122876243Y-99510434D01*
X122872031Y-99514031D01*
X122717824Y-99694584D01*
X122715245Y-99698792D01*
X122715241Y-99698798D01*
X122692526Y-99735866D01*
X122593760Y-99897037D01*
X122502895Y-100116406D01*
X122447465Y-100347289D01*
X122428835Y-100584000D01*
X120375165Y-100584000D01*
X120356535Y-100347289D01*
X120301105Y-100116406D01*
X120210240Y-99897037D01*
X120111474Y-99735866D01*
X120088759Y-99698798D01*
X120088755Y-99698792D01*
X120086176Y-99694584D01*
X119931969Y-99514031D01*
X119927758Y-99510434D01*
X119860298Y-99452818D01*
X119751416Y-99359824D01*
X119747208Y-99357245D01*
X119747202Y-99357241D01*
X119553183Y-99238346D01*
X119548963Y-99235760D01*
X119544393Y-99233867D01*
X119544389Y-99233865D01*
X119334167Y-99146789D01*
X119334165Y-99146788D01*
X119329594Y-99144895D01*
X119249391Y-99125640D01*
X119103524Y-99090620D01*
X119103518Y-99090619D01*
X119098711Y-99089465D01*
X118862000Y-99070835D01*
X118625289Y-99089465D01*
X118620482Y-99090619D01*
X118620476Y-99090620D01*
X118474609Y-99125640D01*
X118394406Y-99144895D01*
X118389835Y-99146788D01*
X118389833Y-99146789D01*
X118179611Y-99233865D01*
X118179607Y-99233867D01*
X118175037Y-99235760D01*
X118170817Y-99238346D01*
X117976798Y-99357241D01*
X117976792Y-99357245D01*
X117972584Y-99359824D01*
X117863702Y-99452818D01*
X117796243Y-99510434D01*
X117792031Y-99514031D01*
X117637824Y-99694584D01*
X117635245Y-99698792D01*
X117635241Y-99698798D01*
X117612526Y-99735866D01*
X117513760Y-99897037D01*
X117422895Y-100116406D01*
X117367465Y-100347289D01*
X117348835Y-100584000D01*
X116309613Y-100584000D01*
X116309613Y-99735866D01*
X116302858Y-99673684D01*
X116251728Y-99537295D01*
X116164374Y-99420739D01*
X116047818Y-99333385D01*
X115911429Y-99282255D01*
X115849247Y-99275500D01*
X114152979Y-99275500D01*
X114090797Y-99282255D01*
X113954408Y-99333385D01*
X113933888Y-99348764D01*
X113845035Y-99415355D01*
X113845032Y-99415358D01*
X113837852Y-99420739D01*
X113832471Y-99427919D01*
X113826120Y-99434270D01*
X113823978Y-99432128D01*
X113779267Y-99465564D01*
X113708449Y-99470594D01*
X113667078Y-99452477D01*
X113666881Y-99452818D01*
X113663815Y-99451048D01*
X113663023Y-99450701D01*
X113662124Y-99450071D01*
X113652624Y-99444586D01*
X113455166Y-99352510D01*
X113444874Y-99348764D01*
X113234425Y-99292375D01*
X113223632Y-99290472D01*
X113006588Y-99271483D01*
X112995638Y-99271483D01*
X112778594Y-99290472D01*
X112767801Y-99292375D01*
X112557352Y-99348764D01*
X112547060Y-99352510D01*
X112349602Y-99444586D01*
X112340107Y-99450069D01*
X112288065Y-99486509D01*
X112279689Y-99496988D01*
X112286757Y-99510434D01*
X113271228Y-100494905D01*
X113305254Y-100557217D01*
X113300189Y-100628032D01*
X113271228Y-100673095D01*
X112286036Y-101658287D01*
X112279606Y-101670062D01*
X108686500Y-101670062D01*
X108686500Y-100589475D01*
X111688596Y-100589475D01*
X111707585Y-100806519D01*
X111709488Y-100817312D01*
X111765877Y-101027761D01*
X111769623Y-101038053D01*
X111861699Y-101235511D01*
X111867182Y-101245006D01*
X111903622Y-101297048D01*
X111914101Y-101305424D01*
X111927547Y-101298356D01*
X112629091Y-100596812D01*
X112636705Y-100582868D01*
X112636574Y-100581035D01*
X112632323Y-100574420D01*
X111926826Y-99868923D01*
X111915051Y-99862493D01*
X111903036Y-99871789D01*
X111867182Y-99922994D01*
X111861699Y-99932489D01*
X111769623Y-100129947D01*
X111765877Y-100140239D01*
X111709488Y-100350688D01*
X111707585Y-100361481D01*
X111688596Y-100578525D01*
X111688596Y-100589475D01*
X108686500Y-100589475D01*
X108686500Y-99580873D01*
X108682688Y-99537295D01*
X108676412Y-99465564D01*
X108671543Y-99409913D01*
X108658122Y-99359824D01*
X108613707Y-99194067D01*
X108613706Y-99194065D01*
X108612284Y-99188757D01*
X108591831Y-99144895D01*
X108517849Y-98986238D01*
X108517846Y-98986233D01*
X108515523Y-98981251D01*
X108384198Y-98793700D01*
X108222300Y-98631802D01*
X108217792Y-98628645D01*
X108217789Y-98628643D01*
X108139611Y-98573902D01*
X108034749Y-98500477D01*
X108029767Y-98498154D01*
X108029762Y-98498151D01*
X107832225Y-98406039D01*
X107832224Y-98406039D01*
X107827243Y-98403716D01*
X107821935Y-98402294D01*
X107821933Y-98402293D01*
X107611402Y-98345881D01*
X107611400Y-98345881D01*
X107606087Y-98344457D01*
X107378000Y-98324502D01*
X107149913Y-98344457D01*
X107144600Y-98345881D01*
X107144598Y-98345881D01*
X106934067Y-98402293D01*
X106934065Y-98402294D01*
X106928757Y-98403716D01*
X106923776Y-98406039D01*
X106923775Y-98406039D01*
X106726238Y-98498151D01*
X106726233Y-98498154D01*
X106721251Y-98500477D01*
X106616389Y-98573902D01*
X106538211Y-98628643D01*
X106538208Y-98628645D01*
X106533700Y-98631802D01*
X106371802Y-98793700D01*
X106240477Y-98981251D01*
X106238154Y-98986233D01*
X106238151Y-98986238D01*
X106164169Y-99144895D01*
X106143716Y-99188757D01*
X106142294Y-99194065D01*
X106142293Y-99194067D01*
X106097878Y-99359824D01*
X106084457Y-99409913D01*
X106079588Y-99465564D01*
X106073313Y-99537295D01*
X106069500Y-99580873D01*
X106069500Y-102095127D01*
X104686500Y-102095127D01*
X104686500Y-99580873D01*
X104682688Y-99537295D01*
X104676412Y-99465564D01*
X104671543Y-99409913D01*
X104658122Y-99359824D01*
X104613707Y-99194067D01*
X104613706Y-99194065D01*
X104612284Y-99188757D01*
X104591831Y-99144895D01*
X104517849Y-98986238D01*
X104517846Y-98986233D01*
X104515523Y-98981251D01*
X104384198Y-98793700D01*
X104222300Y-98631802D01*
X104217792Y-98628645D01*
X104217789Y-98628643D01*
X104139611Y-98573902D01*
X104034749Y-98500477D01*
X104029767Y-98498154D01*
X104029762Y-98498151D01*
X103832225Y-98406039D01*
X103832224Y-98406039D01*
X103827243Y-98403716D01*
X103821935Y-98402294D01*
X103821933Y-98402293D01*
X103611402Y-98345881D01*
X103611400Y-98345881D01*
X103606087Y-98344457D01*
X103378000Y-98324502D01*
X103149913Y-98344457D01*
X103144600Y-98345881D01*
X103144598Y-98345881D01*
X102934067Y-98402293D01*
X102934065Y-98402294D01*
X102928757Y-98403716D01*
X102923776Y-98406039D01*
X102923775Y-98406039D01*
X102726238Y-98498151D01*
X102726233Y-98498154D01*
X102721251Y-98500477D01*
X102616389Y-98573902D01*
X102538211Y-98628643D01*
X102538208Y-98628645D01*
X102533700Y-98631802D01*
X102371802Y-98793700D01*
X102240477Y-98981251D01*
X102238154Y-98986233D01*
X102238151Y-98986238D01*
X102164169Y-99144895D01*
X102143716Y-99188757D01*
X102142294Y-99194065D01*
X102142293Y-99194067D01*
X102097878Y-99359824D01*
X102084457Y-99409913D01*
X102079588Y-99465564D01*
X102073313Y-99537295D01*
X102069500Y-99580873D01*
X102069500Y-102095127D01*
X100686500Y-102095127D01*
X100686500Y-99580873D01*
X100682688Y-99537295D01*
X100676412Y-99465564D01*
X100671543Y-99409913D01*
X100658122Y-99359824D01*
X100613707Y-99194067D01*
X100613706Y-99194065D01*
X100612284Y-99188757D01*
X100591831Y-99144895D01*
X100517849Y-98986238D01*
X100517846Y-98986233D01*
X100515523Y-98981251D01*
X100384198Y-98793700D01*
X100222300Y-98631802D01*
X100217792Y-98628645D01*
X100217789Y-98628643D01*
X100139611Y-98573902D01*
X100034749Y-98500477D01*
X100029767Y-98498154D01*
X100029762Y-98498151D01*
X99832225Y-98406039D01*
X99832224Y-98406039D01*
X99827243Y-98403716D01*
X99821935Y-98402294D01*
X99821933Y-98402293D01*
X99611402Y-98345881D01*
X99611400Y-98345881D01*
X99606087Y-98344457D01*
X99378000Y-98324502D01*
X99149913Y-98344457D01*
X99144600Y-98345881D01*
X99144598Y-98345881D01*
X98934067Y-98402293D01*
X98934065Y-98402294D01*
X98928757Y-98403716D01*
X98923776Y-98406039D01*
X98923775Y-98406039D01*
X98726238Y-98498151D01*
X98726233Y-98498154D01*
X98721251Y-98500477D01*
X98616389Y-98573902D01*
X98538211Y-98628643D01*
X98538208Y-98628645D01*
X98533700Y-98631802D01*
X98371802Y-98793700D01*
X98240477Y-98981251D01*
X98238154Y-98986233D01*
X98238151Y-98986238D01*
X98164169Y-99144895D01*
X98143716Y-99188757D01*
X98142294Y-99194065D01*
X98142293Y-99194067D01*
X98097878Y-99359824D01*
X98084457Y-99409913D01*
X98079588Y-99465564D01*
X98073313Y-99537295D01*
X98069500Y-99580873D01*
X98069500Y-102095127D01*
X88460000Y-102095127D01*
X88460000Y-92746134D01*
X116478500Y-92746134D01*
X116485255Y-92808316D01*
X116536385Y-92944705D01*
X116623739Y-93061261D01*
X116740295Y-93148615D01*
X116876684Y-93199745D01*
X116938866Y-93206500D01*
X119535134Y-93206500D01*
X119597316Y-93199745D01*
X119733705Y-93148615D01*
X119850261Y-93061261D01*
X119937615Y-92944705D01*
X119988745Y-92808316D01*
X119995500Y-92746134D01*
X127908500Y-92746134D01*
X127915255Y-92808316D01*
X127966385Y-92944705D01*
X128053739Y-93061261D01*
X128170295Y-93148615D01*
X128306684Y-93199745D01*
X128368866Y-93206500D01*
X130965134Y-93206500D01*
X131027316Y-93199745D01*
X131163705Y-93148615D01*
X131280261Y-93061261D01*
X131367615Y-92944705D01*
X131418745Y-92808316D01*
X131425500Y-92746134D01*
X138703500Y-92746134D01*
X138710255Y-92808316D01*
X138761385Y-92944705D01*
X138848739Y-93061261D01*
X138965295Y-93148615D01*
X139101684Y-93199745D01*
X139163866Y-93206500D01*
X141760134Y-93206500D01*
X141822316Y-93199745D01*
X141958705Y-93148615D01*
X142075261Y-93061261D01*
X142162615Y-92944705D01*
X142213745Y-92808316D01*
X142220500Y-92746134D01*
X142220500Y-91149866D01*
X142213745Y-91087684D01*
X142162615Y-90951295D01*
X142075261Y-90834739D01*
X141958705Y-90747385D01*
X141822316Y-90696255D01*
X141760134Y-90689500D01*
X141725823Y-90689500D01*
X141657702Y-90669498D01*
X141611209Y-90615842D01*
X141601105Y-90545568D01*
X141630599Y-90480988D01*
X141652297Y-90461177D01*
X141782767Y-90367425D01*
X141791233Y-90360117D01*
X141939692Y-90206918D01*
X141946735Y-90198221D01*
X142065719Y-90021156D01*
X142071105Y-90011358D01*
X142156857Y-89816010D01*
X142160422Y-89805418D01*
X142190624Y-89679616D01*
X142189919Y-89665530D01*
X142181040Y-89662000D01*
X138743589Y-89662000D01*
X138729607Y-89666105D01*
X138728114Y-89675728D01*
X138728166Y-89675973D01*
X138790898Y-89879883D01*
X138795119Y-89890229D01*
X138892971Y-90079814D01*
X138898957Y-90089245D01*
X139028832Y-90258501D01*
X139036393Y-90266724D01*
X139194194Y-90410312D01*
X139203089Y-90417064D01*
X139266375Y-90456763D01*
X139313452Y-90509907D01*
X139324324Y-90580066D01*
X139295540Y-90644965D01*
X139236237Y-90684000D01*
X139199418Y-90689500D01*
X139163866Y-90689500D01*
X139101684Y-90696255D01*
X138965295Y-90747385D01*
X138848739Y-90834739D01*
X138761385Y-90951295D01*
X138710255Y-91087684D01*
X138703500Y-91149866D01*
X138703500Y-92746134D01*
X131425500Y-92746134D01*
X131425500Y-91149866D01*
X131418745Y-91087684D01*
X131367615Y-90951295D01*
X131280261Y-90834739D01*
X131163705Y-90747385D01*
X131027316Y-90696255D01*
X130965134Y-90689500D01*
X130930823Y-90689500D01*
X130862702Y-90669498D01*
X130816209Y-90615842D01*
X130806105Y-90545568D01*
X130835599Y-90480988D01*
X130857297Y-90461177D01*
X130987767Y-90367425D01*
X130996233Y-90360117D01*
X131144692Y-90206918D01*
X131151735Y-90198221D01*
X131270719Y-90021156D01*
X131276105Y-90011358D01*
X131361857Y-89816010D01*
X131365422Y-89805418D01*
X131395624Y-89679616D01*
X131394919Y-89665530D01*
X131386040Y-89662000D01*
X127948589Y-89662000D01*
X127934607Y-89666105D01*
X127933114Y-89675728D01*
X127933166Y-89675973D01*
X127995898Y-89879883D01*
X128000119Y-89890229D01*
X128097971Y-90079814D01*
X128103957Y-90089245D01*
X128233832Y-90258501D01*
X128241393Y-90266724D01*
X128399194Y-90410312D01*
X128408089Y-90417064D01*
X128471375Y-90456763D01*
X128518452Y-90509907D01*
X128529324Y-90580066D01*
X128500540Y-90644965D01*
X128441237Y-90684000D01*
X128404418Y-90689500D01*
X128368866Y-90689500D01*
X128306684Y-90696255D01*
X128170295Y-90747385D01*
X128053739Y-90834739D01*
X127966385Y-90951295D01*
X127915255Y-91087684D01*
X127908500Y-91149866D01*
X127908500Y-92746134D01*
X119995500Y-92746134D01*
X119995500Y-91149866D01*
X119988745Y-91087684D01*
X119937615Y-90951295D01*
X119850261Y-90834739D01*
X119733705Y-90747385D01*
X119597316Y-90696255D01*
X119535134Y-90689500D01*
X119500823Y-90689500D01*
X119432702Y-90669498D01*
X119386209Y-90615842D01*
X119376105Y-90545568D01*
X119405599Y-90480988D01*
X119427297Y-90461177D01*
X119557767Y-90367425D01*
X119566233Y-90360117D01*
X119714692Y-90206918D01*
X119721735Y-90198221D01*
X119840719Y-90021156D01*
X119846105Y-90011358D01*
X119931857Y-89816010D01*
X119935422Y-89805418D01*
X119965624Y-89679616D01*
X119964919Y-89665530D01*
X119956040Y-89662000D01*
X116518589Y-89662000D01*
X116504607Y-89666105D01*
X116503114Y-89675728D01*
X116503166Y-89675973D01*
X116565898Y-89879883D01*
X116570119Y-89890229D01*
X116667971Y-90079814D01*
X116673957Y-90089245D01*
X116803832Y-90258501D01*
X116811393Y-90266724D01*
X116969194Y-90410312D01*
X116978089Y-90417064D01*
X117041375Y-90456763D01*
X117088452Y-90509907D01*
X117099324Y-90580066D01*
X117070540Y-90644965D01*
X117011237Y-90684000D01*
X116974418Y-90689500D01*
X116938866Y-90689500D01*
X116876684Y-90696255D01*
X116740295Y-90747385D01*
X116623739Y-90834739D01*
X116536385Y-90951295D01*
X116485255Y-91087684D01*
X116478500Y-91149866D01*
X116478500Y-92746134D01*
X88460000Y-92746134D01*
X88460000Y-89591839D01*
X95869173Y-89591839D01*
X95869397Y-89596505D01*
X95869397Y-89596511D01*
X95872740Y-89666105D01*
X95881713Y-89852908D01*
X95932704Y-90109256D01*
X96021026Y-90355252D01*
X96023242Y-90359376D01*
X96104125Y-90509907D01*
X96144737Y-90585491D01*
X96147532Y-90589234D01*
X96147534Y-90589237D01*
X96298330Y-90791177D01*
X96298335Y-90791183D01*
X96301122Y-90794915D01*
X96304431Y-90798195D01*
X96304436Y-90798201D01*
X96483426Y-90975635D01*
X96486743Y-90978923D01*
X96490505Y-90981681D01*
X96490508Y-90981684D01*
X96693750Y-91130707D01*
X96697524Y-91133474D01*
X96701667Y-91135654D01*
X96701669Y-91135655D01*
X96924684Y-91252989D01*
X96924689Y-91252991D01*
X96928834Y-91255172D01*
X97175590Y-91341344D01*
X97180183Y-91342216D01*
X97427785Y-91389224D01*
X97427788Y-91389224D01*
X97432374Y-91390095D01*
X97562958Y-91395226D01*
X97688875Y-91400174D01*
X97688881Y-91400174D01*
X97693543Y-91400357D01*
X97772977Y-91391657D01*
X97948707Y-91372412D01*
X97948712Y-91372411D01*
X97953360Y-91371902D01*
X98066116Y-91342216D01*
X98201594Y-91306548D01*
X98201596Y-91306547D01*
X98206117Y-91305357D01*
X98446262Y-91202182D01*
X98668519Y-91064646D01*
X98672082Y-91061629D01*
X98672087Y-91061626D01*
X98864439Y-90898787D01*
X98864440Y-90898786D01*
X98868005Y-90895768D01*
X98959729Y-90791177D01*
X99037257Y-90702774D01*
X99037261Y-90702769D01*
X99040339Y-90699259D01*
X99181733Y-90479437D01*
X99289083Y-90241129D01*
X99334579Y-90079814D01*
X99358760Y-89994076D01*
X99358761Y-89994073D01*
X99360030Y-89989572D01*
X99376832Y-89857496D01*
X99392616Y-89733421D01*
X99392616Y-89733417D01*
X99393014Y-89730291D01*
X99395431Y-89638000D01*
X99392001Y-89591839D01*
X107869173Y-89591839D01*
X107869397Y-89596505D01*
X107869397Y-89596511D01*
X107872740Y-89666105D01*
X107881713Y-89852908D01*
X107932704Y-90109256D01*
X108021026Y-90355252D01*
X108023242Y-90359376D01*
X108104125Y-90509907D01*
X108144737Y-90585491D01*
X108147532Y-90589234D01*
X108147534Y-90589237D01*
X108298330Y-90791177D01*
X108298335Y-90791183D01*
X108301122Y-90794915D01*
X108304431Y-90798195D01*
X108304436Y-90798201D01*
X108483426Y-90975635D01*
X108486743Y-90978923D01*
X108490505Y-90981681D01*
X108490508Y-90981684D01*
X108693750Y-91130707D01*
X108697524Y-91133474D01*
X108701667Y-91135654D01*
X108701669Y-91135655D01*
X108924684Y-91252989D01*
X108924689Y-91252991D01*
X108928834Y-91255172D01*
X109175590Y-91341344D01*
X109180183Y-91342216D01*
X109427785Y-91389224D01*
X109427788Y-91389224D01*
X109432374Y-91390095D01*
X109562958Y-91395226D01*
X109688875Y-91400174D01*
X109688881Y-91400174D01*
X109693543Y-91400357D01*
X109772977Y-91391657D01*
X109948707Y-91372412D01*
X109948712Y-91372411D01*
X109953360Y-91371902D01*
X110066116Y-91342216D01*
X110201594Y-91306548D01*
X110201596Y-91306547D01*
X110206117Y-91305357D01*
X110446262Y-91202182D01*
X110668519Y-91064646D01*
X110672082Y-91061629D01*
X110672087Y-91061626D01*
X110864439Y-90898787D01*
X110864440Y-90898786D01*
X110868005Y-90895768D01*
X110959729Y-90791177D01*
X111037257Y-90702774D01*
X111037261Y-90702769D01*
X111040339Y-90699259D01*
X111181733Y-90479437D01*
X111289083Y-90241129D01*
X111334579Y-90079814D01*
X111358760Y-89994076D01*
X111358761Y-89994073D01*
X111360030Y-89989572D01*
X111376832Y-89857496D01*
X111392616Y-89733421D01*
X111392616Y-89733417D01*
X111393014Y-89730291D01*
X111395431Y-89638000D01*
X111376061Y-89377348D01*
X111364725Y-89327248D01*
X111319408Y-89126980D01*
X111318377Y-89122423D01*
X111223647Y-88878823D01*
X111093951Y-88651902D01*
X110932138Y-88446643D01*
X110741763Y-88267557D01*
X110564006Y-88144242D01*
X110530851Y-88121241D01*
X110530848Y-88121239D01*
X110527009Y-88118576D01*
X110512898Y-88111617D01*
X110296781Y-88005040D01*
X110296778Y-88005039D01*
X110292593Y-88002975D01*
X110264131Y-87993864D01*
X110048123Y-87924720D01*
X110043665Y-87923293D01*
X109785693Y-87881279D01*
X109671942Y-87879790D01*
X109529022Y-87877919D01*
X109529019Y-87877919D01*
X109524345Y-87877858D01*
X109265362Y-87913104D01*
X109014433Y-87986243D01*
X109010180Y-87988203D01*
X109010179Y-87988204D01*
X108973659Y-88005040D01*
X108777072Y-88095668D01*
X108738067Y-88121241D01*
X108562404Y-88236410D01*
X108562399Y-88236414D01*
X108558491Y-88238976D01*
X108363494Y-88413018D01*
X108196363Y-88613970D01*
X108193934Y-88617973D01*
X108080661Y-88804642D01*
X108060771Y-88837419D01*
X107959697Y-89078455D01*
X107895359Y-89331783D01*
X107869173Y-89591839D01*
X99392001Y-89591839D01*
X99376061Y-89377348D01*
X99364725Y-89327248D01*
X99319408Y-89126980D01*
X99318377Y-89122423D01*
X99223647Y-88878823D01*
X99093951Y-88651902D01*
X98932138Y-88446643D01*
X98741763Y-88267557D01*
X98564006Y-88144242D01*
X98530851Y-88121241D01*
X98530848Y-88121239D01*
X98527009Y-88118576D01*
X98512898Y-88111617D01*
X98296781Y-88005040D01*
X98296778Y-88005039D01*
X98292593Y-88002975D01*
X98264131Y-87993864D01*
X98048123Y-87924720D01*
X98043665Y-87923293D01*
X97785693Y-87881279D01*
X97671942Y-87879790D01*
X97529022Y-87877919D01*
X97529019Y-87877919D01*
X97524345Y-87877858D01*
X97265362Y-87913104D01*
X97014433Y-87986243D01*
X97010180Y-87988203D01*
X97010179Y-87988204D01*
X96973659Y-88005040D01*
X96777072Y-88095668D01*
X96738067Y-88121241D01*
X96562404Y-88236410D01*
X96562399Y-88236414D01*
X96558491Y-88238976D01*
X96363494Y-88413018D01*
X96196363Y-88613970D01*
X96193934Y-88617973D01*
X96080661Y-88804642D01*
X96060771Y-88837419D01*
X95959697Y-89078455D01*
X95895359Y-89331783D01*
X95869173Y-89591839D01*
X88460000Y-89591839D01*
X88460000Y-86907690D01*
X116474037Y-86907690D01*
X116501025Y-87130715D01*
X116567082Y-87345435D01*
X116569652Y-87350415D01*
X116569654Y-87350419D01*
X116634852Y-87476738D01*
X116670118Y-87545064D01*
X116806877Y-87723292D01*
X116973036Y-87874485D01*
X116977783Y-87877463D01*
X116977786Y-87877465D01*
X117149105Y-87984932D01*
X117163344Y-87993864D01*
X117231378Y-88021214D01*
X117287120Y-88065178D01*
X117310245Y-88132303D01*
X117293408Y-88201274D01*
X117238624Y-88251845D01*
X117099097Y-88318397D01*
X117089484Y-88324082D01*
X116916233Y-88448575D01*
X116907767Y-88455883D01*
X116759308Y-88609082D01*
X116752265Y-88617779D01*
X116633281Y-88794844D01*
X116627895Y-88804642D01*
X116542143Y-88999990D01*
X116538578Y-89010582D01*
X116508376Y-89136384D01*
X116509081Y-89150470D01*
X116517960Y-89154000D01*
X119955411Y-89154000D01*
X119969393Y-89149895D01*
X119970886Y-89140272D01*
X119970834Y-89140027D01*
X119908102Y-88936117D01*
X119903881Y-88925771D01*
X119806029Y-88736186D01*
X119800043Y-88726755D01*
X119670168Y-88557499D01*
X119662607Y-88549276D01*
X119504806Y-88405688D01*
X119495906Y-88398933D01*
X119315185Y-88285566D01*
X119305219Y-88280489D01*
X119242642Y-88255333D01*
X119186897Y-88211367D01*
X119163772Y-88144242D01*
X119180609Y-88075271D01*
X119235393Y-88024700D01*
X119280940Y-88002975D01*
X119380218Y-87955622D01*
X119562654Y-87824529D01*
X119718992Y-87663201D01*
X119844290Y-87476738D01*
X119934588Y-87271033D01*
X119987032Y-87052589D01*
X119995386Y-86907690D01*
X127904037Y-86907690D01*
X127931025Y-87130715D01*
X127997082Y-87345435D01*
X127999652Y-87350415D01*
X127999654Y-87350419D01*
X128064852Y-87476738D01*
X128100118Y-87545064D01*
X128236877Y-87723292D01*
X128403036Y-87874485D01*
X128407783Y-87877463D01*
X128407786Y-87877465D01*
X128579105Y-87984932D01*
X128593344Y-87993864D01*
X128661378Y-88021214D01*
X128717120Y-88065178D01*
X128740245Y-88132303D01*
X128723408Y-88201274D01*
X128668624Y-88251845D01*
X128529097Y-88318397D01*
X128519484Y-88324082D01*
X128346233Y-88448575D01*
X128337767Y-88455883D01*
X128189308Y-88609082D01*
X128182265Y-88617779D01*
X128063281Y-88794844D01*
X128057895Y-88804642D01*
X127972143Y-88999990D01*
X127968578Y-89010582D01*
X127938376Y-89136384D01*
X127939081Y-89150470D01*
X127947960Y-89154000D01*
X131385411Y-89154000D01*
X131399393Y-89149895D01*
X131400886Y-89140272D01*
X131400834Y-89140027D01*
X131338102Y-88936117D01*
X131333881Y-88925771D01*
X131236029Y-88736186D01*
X131230043Y-88726755D01*
X131100168Y-88557499D01*
X131092607Y-88549276D01*
X130934806Y-88405688D01*
X130925906Y-88398933D01*
X130745185Y-88285566D01*
X130735219Y-88280489D01*
X130672642Y-88255333D01*
X130616897Y-88211367D01*
X130593772Y-88144242D01*
X130610609Y-88075271D01*
X130665393Y-88024700D01*
X130710940Y-88002975D01*
X130810218Y-87955622D01*
X130992654Y-87824529D01*
X131148992Y-87663201D01*
X131274290Y-87476738D01*
X131364588Y-87271033D01*
X131417032Y-87052589D01*
X131425386Y-86907690D01*
X138699037Y-86907690D01*
X138726025Y-87130715D01*
X138792082Y-87345435D01*
X138794652Y-87350415D01*
X138794654Y-87350419D01*
X138859852Y-87476738D01*
X138895118Y-87545064D01*
X139031877Y-87723292D01*
X139198036Y-87874485D01*
X139202783Y-87877463D01*
X139202786Y-87877465D01*
X139374105Y-87984932D01*
X139388344Y-87993864D01*
X139456378Y-88021214D01*
X139512120Y-88065178D01*
X139535245Y-88132303D01*
X139518408Y-88201274D01*
X139463624Y-88251845D01*
X139324097Y-88318397D01*
X139314484Y-88324082D01*
X139141233Y-88448575D01*
X139132767Y-88455883D01*
X138984308Y-88609082D01*
X138977265Y-88617779D01*
X138858281Y-88794844D01*
X138852895Y-88804642D01*
X138767143Y-88999990D01*
X138763578Y-89010582D01*
X138733376Y-89136384D01*
X138734081Y-89150470D01*
X138742960Y-89154000D01*
X142180411Y-89154000D01*
X142194393Y-89149895D01*
X142195886Y-89140272D01*
X142195834Y-89140027D01*
X142133102Y-88936117D01*
X142128881Y-88925771D01*
X142031029Y-88736186D01*
X142025043Y-88726755D01*
X141895168Y-88557499D01*
X141887607Y-88549276D01*
X141729806Y-88405688D01*
X141720906Y-88398933D01*
X141540185Y-88285566D01*
X141530219Y-88280489D01*
X141467642Y-88255333D01*
X141411897Y-88211367D01*
X141388772Y-88144242D01*
X141405609Y-88075271D01*
X141460393Y-88024700D01*
X141505940Y-88002975D01*
X141605218Y-87955622D01*
X141787654Y-87824529D01*
X141943992Y-87663201D01*
X142069290Y-87476738D01*
X142159588Y-87271033D01*
X142212032Y-87052589D01*
X142224963Y-86828310D01*
X142197975Y-86605285D01*
X142131918Y-86390565D01*
X142066798Y-86264396D01*
X142031454Y-86195919D01*
X142031454Y-86195918D01*
X142028882Y-86190936D01*
X141892123Y-86012708D01*
X141725964Y-85861515D01*
X141721217Y-85858537D01*
X141721214Y-85858535D01*
X141540405Y-85745115D01*
X141535656Y-85742136D01*
X141327217Y-85658344D01*
X141107233Y-85612787D01*
X141102622Y-85612521D01*
X141102621Y-85612521D01*
X141052048Y-85609605D01*
X141052044Y-85609605D01*
X141050225Y-85609500D01*
X139905001Y-85609500D01*
X139902214Y-85609749D01*
X139902208Y-85609749D01*
X139832071Y-85616009D01*
X139738238Y-85624383D01*
X139732824Y-85625864D01*
X139732819Y-85625865D01*
X139618262Y-85657205D01*
X139521549Y-85683663D01*
X139516491Y-85686075D01*
X139516487Y-85686077D01*
X139420166Y-85732020D01*
X139318782Y-85780378D01*
X139136346Y-85911471D01*
X138980008Y-86072799D01*
X138854710Y-86259262D01*
X138764412Y-86464967D01*
X138711968Y-86683411D01*
X138699037Y-86907690D01*
X131425386Y-86907690D01*
X131429963Y-86828310D01*
X131402975Y-86605285D01*
X131336918Y-86390565D01*
X131271798Y-86264396D01*
X131236454Y-86195919D01*
X131236454Y-86195918D01*
X131233882Y-86190936D01*
X131097123Y-86012708D01*
X130930964Y-85861515D01*
X130926217Y-85858537D01*
X130926214Y-85858535D01*
X130745405Y-85745115D01*
X130740656Y-85742136D01*
X130532217Y-85658344D01*
X130312233Y-85612787D01*
X130307622Y-85612521D01*
X130307621Y-85612521D01*
X130257048Y-85609605D01*
X130257044Y-85609605D01*
X130255225Y-85609500D01*
X129110001Y-85609500D01*
X129107214Y-85609749D01*
X129107208Y-85609749D01*
X129037071Y-85616009D01*
X128943238Y-85624383D01*
X128937824Y-85625864D01*
X128937819Y-85625865D01*
X128823262Y-85657205D01*
X128726549Y-85683663D01*
X128721491Y-85686075D01*
X128721487Y-85686077D01*
X128625166Y-85732020D01*
X128523782Y-85780378D01*
X128341346Y-85911471D01*
X128185008Y-86072799D01*
X128059710Y-86259262D01*
X127969412Y-86464967D01*
X127916968Y-86683411D01*
X127904037Y-86907690D01*
X119995386Y-86907690D01*
X119999963Y-86828310D01*
X119972975Y-86605285D01*
X119906918Y-86390565D01*
X119841798Y-86264396D01*
X119806454Y-86195919D01*
X119806454Y-86195918D01*
X119803882Y-86190936D01*
X119667123Y-86012708D01*
X119500964Y-85861515D01*
X119496217Y-85858537D01*
X119496214Y-85858535D01*
X119315405Y-85745115D01*
X119310656Y-85742136D01*
X119102217Y-85658344D01*
X118882233Y-85612787D01*
X118877622Y-85612521D01*
X118877621Y-85612521D01*
X118827048Y-85609605D01*
X118827044Y-85609605D01*
X118825225Y-85609500D01*
X117680001Y-85609500D01*
X117677214Y-85609749D01*
X117677208Y-85609749D01*
X117607071Y-85616009D01*
X117513238Y-85624383D01*
X117507824Y-85625864D01*
X117507819Y-85625865D01*
X117393262Y-85657205D01*
X117296549Y-85683663D01*
X117291491Y-85686075D01*
X117291487Y-85686077D01*
X117195166Y-85732020D01*
X117093782Y-85780378D01*
X116911346Y-85911471D01*
X116755008Y-86072799D01*
X116629710Y-86259262D01*
X116539412Y-86464967D01*
X116486968Y-86683411D01*
X116474037Y-86907690D01*
X88460000Y-86907690D01*
X88460000Y-77391839D01*
X95869173Y-77391839D01*
X95881713Y-77652908D01*
X95932704Y-77909256D01*
X96021026Y-78155252D01*
X96023242Y-78159376D01*
X96087753Y-78279437D01*
X96144737Y-78385491D01*
X96147532Y-78389234D01*
X96147534Y-78389237D01*
X96298330Y-78591177D01*
X96298335Y-78591183D01*
X96301122Y-78594915D01*
X96304431Y-78598195D01*
X96304436Y-78598201D01*
X96483426Y-78775635D01*
X96486743Y-78778923D01*
X96490505Y-78781681D01*
X96490508Y-78781684D01*
X96693750Y-78930707D01*
X96697524Y-78933474D01*
X96701667Y-78935654D01*
X96701669Y-78935655D01*
X96924684Y-79052989D01*
X96924689Y-79052991D01*
X96928834Y-79055172D01*
X97175590Y-79141344D01*
X97180183Y-79142216D01*
X97427785Y-79189224D01*
X97427788Y-79189224D01*
X97432374Y-79190095D01*
X97562958Y-79195226D01*
X97688875Y-79200174D01*
X97688881Y-79200174D01*
X97693543Y-79200357D01*
X97772977Y-79191657D01*
X97948707Y-79172412D01*
X97948712Y-79172411D01*
X97953360Y-79171902D01*
X98066116Y-79142216D01*
X98201594Y-79106548D01*
X98201596Y-79106547D01*
X98206117Y-79105357D01*
X98446262Y-79002182D01*
X98668519Y-78864646D01*
X98672082Y-78861629D01*
X98672087Y-78861626D01*
X98864439Y-78698787D01*
X98864440Y-78698786D01*
X98868005Y-78695768D01*
X98959729Y-78591177D01*
X99037257Y-78502774D01*
X99037261Y-78502769D01*
X99040339Y-78499259D01*
X99181733Y-78279437D01*
X99289083Y-78041129D01*
X99360030Y-77789572D01*
X99376832Y-77657496D01*
X99392616Y-77533421D01*
X99392616Y-77533417D01*
X99393014Y-77530291D01*
X99395431Y-77438000D01*
X99392001Y-77391839D01*
X107869173Y-77391839D01*
X107881713Y-77652908D01*
X107932704Y-77909256D01*
X108021026Y-78155252D01*
X108023242Y-78159376D01*
X108087753Y-78279437D01*
X108144737Y-78385491D01*
X108147532Y-78389234D01*
X108147534Y-78389237D01*
X108298330Y-78591177D01*
X108298335Y-78591183D01*
X108301122Y-78594915D01*
X108304431Y-78598195D01*
X108304436Y-78598201D01*
X108483426Y-78775635D01*
X108486743Y-78778923D01*
X108490505Y-78781681D01*
X108490508Y-78781684D01*
X108693750Y-78930707D01*
X108697524Y-78933474D01*
X108701667Y-78935654D01*
X108701669Y-78935655D01*
X108924684Y-79052989D01*
X108924689Y-79052991D01*
X108928834Y-79055172D01*
X109175590Y-79141344D01*
X109180183Y-79142216D01*
X109427785Y-79189224D01*
X109427788Y-79189224D01*
X109432374Y-79190095D01*
X109562958Y-79195226D01*
X109688875Y-79200174D01*
X109688881Y-79200174D01*
X109693543Y-79200357D01*
X109772977Y-79191657D01*
X109948707Y-79172412D01*
X109948712Y-79172411D01*
X109953360Y-79171902D01*
X110066116Y-79142216D01*
X110201594Y-79106548D01*
X110201596Y-79106547D01*
X110206117Y-79105357D01*
X110446262Y-79002182D01*
X110668519Y-78864646D01*
X110672082Y-78861629D01*
X110672087Y-78861626D01*
X110864439Y-78698787D01*
X110864440Y-78698786D01*
X110868005Y-78695768D01*
X110959729Y-78591177D01*
X111037257Y-78502774D01*
X111037261Y-78502769D01*
X111040339Y-78499259D01*
X111181733Y-78279437D01*
X111289083Y-78041129D01*
X111360030Y-77789572D01*
X111376832Y-77657496D01*
X111392616Y-77533421D01*
X111392616Y-77533417D01*
X111393014Y-77530291D01*
X111395431Y-77438000D01*
X111391655Y-77387185D01*
X111376407Y-77182000D01*
X111376406Y-77181996D01*
X111376061Y-77177348D01*
X111364725Y-77127248D01*
X111319408Y-76926980D01*
X111318377Y-76922423D01*
X111267564Y-76791757D01*
X111225340Y-76683176D01*
X111225339Y-76683173D01*
X111223647Y-76678823D01*
X111215335Y-76664279D01*
X111111251Y-76482171D01*
X111093951Y-76451902D01*
X110932138Y-76246643D01*
X110741763Y-76067557D01*
X110589437Y-75961884D01*
X110530851Y-75921241D01*
X110530848Y-75921239D01*
X110527009Y-75918576D01*
X110522816Y-75916508D01*
X110296781Y-75805040D01*
X110296778Y-75805039D01*
X110292593Y-75802975D01*
X110246449Y-75788204D01*
X110048123Y-75724720D01*
X110043665Y-75723293D01*
X109785693Y-75681279D01*
X109671942Y-75679790D01*
X109529022Y-75677919D01*
X109529019Y-75677919D01*
X109524345Y-75677858D01*
X109265362Y-75713104D01*
X109014433Y-75786243D01*
X109010180Y-75788203D01*
X109010179Y-75788204D01*
X108973659Y-75805040D01*
X108777072Y-75895668D01*
X108738067Y-75921241D01*
X108562404Y-76036410D01*
X108562399Y-76036414D01*
X108558491Y-76038976D01*
X108363494Y-76213018D01*
X108196363Y-76413970D01*
X108193934Y-76417973D01*
X108076961Y-76610739D01*
X108060771Y-76637419D01*
X107959697Y-76878455D01*
X107895359Y-77131783D01*
X107894891Y-77136434D01*
X107894890Y-77136438D01*
X107888842Y-77196500D01*
X107869173Y-77391839D01*
X99392001Y-77391839D01*
X99391655Y-77387185D01*
X99376407Y-77182000D01*
X99376406Y-77181996D01*
X99376061Y-77177348D01*
X99364725Y-77127248D01*
X99319408Y-76926980D01*
X99318377Y-76922423D01*
X99267564Y-76791757D01*
X99245934Y-76736134D01*
X101873500Y-76736134D01*
X101880255Y-76798316D01*
X101931385Y-76934705D01*
X102018739Y-77051261D01*
X102135295Y-77138615D01*
X102271684Y-77189745D01*
X102333866Y-77196500D01*
X104930134Y-77196500D01*
X104992316Y-77189745D01*
X105128705Y-77138615D01*
X105245261Y-77051261D01*
X105332615Y-76934705D01*
X105383745Y-76798316D01*
X105390500Y-76736134D01*
X105390500Y-75404695D01*
X116239251Y-75404695D01*
X116239548Y-75409848D01*
X116239548Y-75409851D01*
X116245011Y-75504590D01*
X116252110Y-75627715D01*
X116253247Y-75632761D01*
X116253248Y-75632767D01*
X116271648Y-75714412D01*
X116301222Y-75845639D01*
X116385266Y-76052616D01*
X116436019Y-76135438D01*
X116499291Y-76238688D01*
X116501987Y-76243088D01*
X116648250Y-76411938D01*
X116820126Y-76554632D01*
X117013000Y-76667338D01*
X117017825Y-76669180D01*
X117017826Y-76669181D01*
X117043076Y-76678823D01*
X117221692Y-76747030D01*
X117226760Y-76748061D01*
X117226763Y-76748062D01*
X117321862Y-76767410D01*
X117440597Y-76791567D01*
X117445772Y-76791757D01*
X117445774Y-76791757D01*
X117658673Y-76799564D01*
X117658677Y-76799564D01*
X117663837Y-76799753D01*
X117668957Y-76799097D01*
X117668959Y-76799097D01*
X117880288Y-76772025D01*
X117880289Y-76772025D01*
X117885416Y-76771368D01*
X117890366Y-76769883D01*
X118094429Y-76708661D01*
X118094434Y-76708659D01*
X118099384Y-76707174D01*
X118299994Y-76608896D01*
X118481860Y-76479173D01*
X118509227Y-76451902D01*
X118636435Y-76325137D01*
X118640096Y-76321489D01*
X118696178Y-76243443D01*
X118770453Y-76140077D01*
X118771776Y-76141028D01*
X118818645Y-76097857D01*
X118888580Y-76085625D01*
X118954026Y-76113144D01*
X118981875Y-76144994D01*
X119041987Y-76243088D01*
X119188250Y-76411938D01*
X119360126Y-76554632D01*
X119553000Y-76667338D01*
X119557825Y-76669180D01*
X119557826Y-76669181D01*
X119583076Y-76678823D01*
X119761692Y-76747030D01*
X119766760Y-76748061D01*
X119766763Y-76748062D01*
X119861862Y-76767410D01*
X119980597Y-76791567D01*
X119985772Y-76791757D01*
X119985774Y-76791757D01*
X120198673Y-76799564D01*
X120198677Y-76799564D01*
X120203837Y-76799753D01*
X120208957Y-76799097D01*
X120208959Y-76799097D01*
X120420288Y-76772025D01*
X120420289Y-76772025D01*
X120425416Y-76771368D01*
X120430366Y-76769883D01*
X120634429Y-76708661D01*
X120634434Y-76708659D01*
X120639384Y-76707174D01*
X120839994Y-76608896D01*
X121021860Y-76479173D01*
X121049227Y-76451902D01*
X121176435Y-76325137D01*
X121180096Y-76321489D01*
X121236178Y-76243443D01*
X121310453Y-76140077D01*
X121311776Y-76141028D01*
X121358645Y-76097857D01*
X121428580Y-76085625D01*
X121494026Y-76113144D01*
X121521875Y-76144994D01*
X121581987Y-76243088D01*
X121728250Y-76411938D01*
X121900126Y-76554632D01*
X122093000Y-76667338D01*
X122097825Y-76669180D01*
X122097826Y-76669181D01*
X122123076Y-76678823D01*
X122301692Y-76747030D01*
X122306760Y-76748061D01*
X122306763Y-76748062D01*
X122401862Y-76767410D01*
X122520597Y-76791567D01*
X122525772Y-76791757D01*
X122525774Y-76791757D01*
X122738673Y-76799564D01*
X122738677Y-76799564D01*
X122743837Y-76799753D01*
X122748957Y-76799097D01*
X122748959Y-76799097D01*
X122960288Y-76772025D01*
X122960289Y-76772025D01*
X122965416Y-76771368D01*
X122970366Y-76769883D01*
X123174429Y-76708661D01*
X123174434Y-76708659D01*
X123179384Y-76707174D01*
X123379994Y-76608896D01*
X123561860Y-76479173D01*
X123589227Y-76451902D01*
X123716435Y-76325137D01*
X123720096Y-76321489D01*
X123776178Y-76243443D01*
X123850453Y-76140077D01*
X123851776Y-76141028D01*
X123898645Y-76097857D01*
X123968580Y-76085625D01*
X124034026Y-76113144D01*
X124061875Y-76144994D01*
X124121987Y-76243088D01*
X124268250Y-76411938D01*
X124440126Y-76554632D01*
X124633000Y-76667338D01*
X124637825Y-76669180D01*
X124637826Y-76669181D01*
X124663076Y-76678823D01*
X124841692Y-76747030D01*
X124846760Y-76748061D01*
X124846763Y-76748062D01*
X124941862Y-76767410D01*
X125060597Y-76791567D01*
X125065772Y-76791757D01*
X125065774Y-76791757D01*
X125278673Y-76799564D01*
X125278677Y-76799564D01*
X125283837Y-76799753D01*
X125288957Y-76799097D01*
X125288959Y-76799097D01*
X125500288Y-76772025D01*
X125500289Y-76772025D01*
X125505416Y-76771368D01*
X125510366Y-76769883D01*
X125714429Y-76708661D01*
X125714434Y-76708659D01*
X125719384Y-76707174D01*
X125919994Y-76608896D01*
X126101860Y-76479173D01*
X126129227Y-76451902D01*
X126256435Y-76325137D01*
X126260096Y-76321489D01*
X126316178Y-76243443D01*
X126390453Y-76140077D01*
X126391776Y-76141028D01*
X126438645Y-76097857D01*
X126508580Y-76085625D01*
X126574026Y-76113144D01*
X126601875Y-76144994D01*
X126661987Y-76243088D01*
X126808250Y-76411938D01*
X126980126Y-76554632D01*
X127173000Y-76667338D01*
X127177825Y-76669180D01*
X127177826Y-76669181D01*
X127203076Y-76678823D01*
X127381692Y-76747030D01*
X127386760Y-76748061D01*
X127386763Y-76748062D01*
X127481862Y-76767410D01*
X127600597Y-76791567D01*
X127605772Y-76791757D01*
X127605774Y-76791757D01*
X127818673Y-76799564D01*
X127818677Y-76799564D01*
X127823837Y-76799753D01*
X127828957Y-76799097D01*
X127828959Y-76799097D01*
X128040288Y-76772025D01*
X128040289Y-76772025D01*
X128045416Y-76771368D01*
X128050366Y-76769883D01*
X128254429Y-76708661D01*
X128254434Y-76708659D01*
X128259384Y-76707174D01*
X128459994Y-76608896D01*
X128641860Y-76479173D01*
X128669227Y-76451902D01*
X128796435Y-76325137D01*
X128800096Y-76321489D01*
X128856178Y-76243443D01*
X128930453Y-76140077D01*
X128931776Y-76141028D01*
X128978645Y-76097857D01*
X129048580Y-76085625D01*
X129114026Y-76113144D01*
X129141875Y-76144994D01*
X129201987Y-76243088D01*
X129348250Y-76411938D01*
X129520126Y-76554632D01*
X129713000Y-76667338D01*
X129717825Y-76669180D01*
X129717826Y-76669181D01*
X129743076Y-76678823D01*
X129921692Y-76747030D01*
X129926760Y-76748061D01*
X129926763Y-76748062D01*
X130021862Y-76767410D01*
X130140597Y-76791567D01*
X130145772Y-76791757D01*
X130145774Y-76791757D01*
X130358673Y-76799564D01*
X130358677Y-76799564D01*
X130363837Y-76799753D01*
X130368957Y-76799097D01*
X130368959Y-76799097D01*
X130580288Y-76772025D01*
X130580289Y-76772025D01*
X130585416Y-76771368D01*
X130590366Y-76769883D01*
X130794429Y-76708661D01*
X130794434Y-76708659D01*
X130799384Y-76707174D01*
X130999994Y-76608896D01*
X131181860Y-76479173D01*
X131209227Y-76451902D01*
X131336435Y-76325137D01*
X131340096Y-76321489D01*
X131396178Y-76243443D01*
X131470453Y-76140077D01*
X131471776Y-76141028D01*
X131518645Y-76097857D01*
X131588580Y-76085625D01*
X131654026Y-76113144D01*
X131681875Y-76144994D01*
X131741987Y-76243088D01*
X131888250Y-76411938D01*
X132060126Y-76554632D01*
X132253000Y-76667338D01*
X132257825Y-76669180D01*
X132257826Y-76669181D01*
X132283076Y-76678823D01*
X132461692Y-76747030D01*
X132466760Y-76748061D01*
X132466763Y-76748062D01*
X132561862Y-76767410D01*
X132680597Y-76791567D01*
X132685772Y-76791757D01*
X132685774Y-76791757D01*
X132898673Y-76799564D01*
X132898677Y-76799564D01*
X132903837Y-76799753D01*
X132908957Y-76799097D01*
X132908959Y-76799097D01*
X133120288Y-76772025D01*
X133120289Y-76772025D01*
X133125416Y-76771368D01*
X133130366Y-76769883D01*
X133334429Y-76708661D01*
X133334434Y-76708659D01*
X133339384Y-76707174D01*
X133539994Y-76608896D01*
X133721860Y-76479173D01*
X133749227Y-76451902D01*
X133876435Y-76325137D01*
X133880096Y-76321489D01*
X133936178Y-76243443D01*
X134010453Y-76140077D01*
X134011776Y-76141028D01*
X134058645Y-76097857D01*
X134128580Y-76085625D01*
X134194026Y-76113144D01*
X134221875Y-76144994D01*
X134281987Y-76243088D01*
X134428250Y-76411938D01*
X134600126Y-76554632D01*
X134793000Y-76667338D01*
X134797825Y-76669180D01*
X134797826Y-76669181D01*
X134823076Y-76678823D01*
X135001692Y-76747030D01*
X135006760Y-76748061D01*
X135006763Y-76748062D01*
X135101862Y-76767410D01*
X135220597Y-76791567D01*
X135225772Y-76791757D01*
X135225774Y-76791757D01*
X135438673Y-76799564D01*
X135438677Y-76799564D01*
X135443837Y-76799753D01*
X135448957Y-76799097D01*
X135448959Y-76799097D01*
X135660288Y-76772025D01*
X135660289Y-76772025D01*
X135665416Y-76771368D01*
X135670366Y-76769883D01*
X135874429Y-76708661D01*
X135874434Y-76708659D01*
X135879384Y-76707174D01*
X136079994Y-76608896D01*
X136261860Y-76479173D01*
X136289227Y-76451902D01*
X136416435Y-76325137D01*
X136420096Y-76321489D01*
X136476178Y-76243443D01*
X136550453Y-76140077D01*
X136551640Y-76140930D01*
X136598960Y-76097362D01*
X136668897Y-76085145D01*
X136734338Y-76112678D01*
X136762166Y-76144511D01*
X136819694Y-76238388D01*
X136825777Y-76246699D01*
X136965213Y-76407667D01*
X136972580Y-76414883D01*
X137136434Y-76550916D01*
X137144881Y-76556831D01*
X137328756Y-76664279D01*
X137338042Y-76668729D01*
X137537001Y-76744703D01*
X137546899Y-76747579D01*
X137650250Y-76768606D01*
X137664299Y-76767410D01*
X137668000Y-76757065D01*
X137668000Y-75310000D01*
X137688002Y-75241879D01*
X137741658Y-75195386D01*
X137794000Y-75184000D01*
X138050000Y-75184000D01*
X138118121Y-75204002D01*
X138164614Y-75257658D01*
X138176000Y-75310000D01*
X138176000Y-76756517D01*
X138180064Y-76770359D01*
X138193478Y-76772393D01*
X138200184Y-76771534D01*
X138210262Y-76769392D01*
X138414255Y-76708191D01*
X138423842Y-76704433D01*
X138615095Y-76610739D01*
X138623945Y-76605464D01*
X138797328Y-76481792D01*
X138805200Y-76475139D01*
X138956052Y-76324812D01*
X138962730Y-76316965D01*
X139090022Y-76139819D01*
X139091279Y-76140722D01*
X139138373Y-76097362D01*
X139208311Y-76085145D01*
X139273751Y-76112678D01*
X139301579Y-76144511D01*
X139361987Y-76243088D01*
X139508250Y-76411938D01*
X139680126Y-76554632D01*
X139873000Y-76667338D01*
X139877825Y-76669180D01*
X139877826Y-76669181D01*
X139903076Y-76678823D01*
X140081692Y-76747030D01*
X140086760Y-76748061D01*
X140086763Y-76748062D01*
X140181862Y-76767410D01*
X140300597Y-76791567D01*
X140305772Y-76791757D01*
X140305774Y-76791757D01*
X140518673Y-76799564D01*
X140518677Y-76799564D01*
X140523837Y-76799753D01*
X140528957Y-76799097D01*
X140528959Y-76799097D01*
X140740288Y-76772025D01*
X140740289Y-76772025D01*
X140745416Y-76771368D01*
X140750366Y-76769883D01*
X140954429Y-76708661D01*
X140954434Y-76708659D01*
X140959384Y-76707174D01*
X141159994Y-76608896D01*
X141341860Y-76479173D01*
X141369227Y-76451902D01*
X141496435Y-76325137D01*
X141500096Y-76321489D01*
X141556178Y-76243443D01*
X141627435Y-76144277D01*
X141630453Y-76140077D01*
X141643995Y-76112678D01*
X141727136Y-75944453D01*
X141727137Y-75944451D01*
X141729430Y-75939811D01*
X141794370Y-75726069D01*
X141823529Y-75504590D01*
X141825156Y-75438000D01*
X141806852Y-75215361D01*
X141752431Y-74998702D01*
X141663354Y-74793840D01*
X141542014Y-74606277D01*
X141391670Y-74441051D01*
X141387619Y-74437852D01*
X141387615Y-74437848D01*
X141220414Y-74305800D01*
X141220410Y-74305798D01*
X141216359Y-74302598D01*
X141175053Y-74279796D01*
X141125084Y-74229364D01*
X141110312Y-74159921D01*
X141135428Y-74093516D01*
X141162780Y-74066909D01*
X141206603Y-74035650D01*
X141341860Y-73939173D01*
X141500096Y-73781489D01*
X141630453Y-73600077D01*
X141651320Y-73557857D01*
X141727136Y-73404453D01*
X141727137Y-73404451D01*
X141729430Y-73399811D01*
X141794370Y-73186069D01*
X141823529Y-72964590D01*
X141825156Y-72898000D01*
X141806852Y-72675361D01*
X141752431Y-72458702D01*
X141663354Y-72253840D01*
X141542014Y-72066277D01*
X141391670Y-71901051D01*
X141387619Y-71897852D01*
X141387615Y-71897848D01*
X141220414Y-71765800D01*
X141220410Y-71765798D01*
X141216359Y-71762598D01*
X141020789Y-71654638D01*
X141015920Y-71652914D01*
X141015916Y-71652912D01*
X140815087Y-71581795D01*
X140815083Y-71581794D01*
X140810212Y-71580069D01*
X140805119Y-71579162D01*
X140805116Y-71579161D01*
X140595373Y-71541800D01*
X140595367Y-71541799D01*
X140590284Y-71540894D01*
X140516452Y-71539992D01*
X140372081Y-71538228D01*
X140372079Y-71538228D01*
X140366911Y-71538165D01*
X140146091Y-71571955D01*
X139933756Y-71641357D01*
X139735607Y-71744507D01*
X139731474Y-71747610D01*
X139731471Y-71747612D01*
X139561100Y-71875530D01*
X139556965Y-71878635D01*
X139553393Y-71882373D01*
X139445729Y-71995037D01*
X139402629Y-72040138D01*
X139295201Y-72197621D01*
X139240293Y-72242621D01*
X139169768Y-72250792D01*
X139106021Y-72219538D01*
X139085324Y-72195054D01*
X139004822Y-72070617D01*
X139004820Y-72070614D01*
X139002014Y-72066277D01*
X138851670Y-71901051D01*
X138847619Y-71897852D01*
X138847615Y-71897848D01*
X138680414Y-71765800D01*
X138680410Y-71765798D01*
X138676359Y-71762598D01*
X138480789Y-71654638D01*
X138475920Y-71652914D01*
X138475916Y-71652912D01*
X138275087Y-71581795D01*
X138275083Y-71581794D01*
X138270212Y-71580069D01*
X138265119Y-71579162D01*
X138265116Y-71579161D01*
X138055373Y-71541800D01*
X138055367Y-71541799D01*
X138050284Y-71540894D01*
X137976452Y-71539992D01*
X137832081Y-71538228D01*
X137832079Y-71538228D01*
X137826911Y-71538165D01*
X137606091Y-71571955D01*
X137393756Y-71641357D01*
X137195607Y-71744507D01*
X137191474Y-71747610D01*
X137191471Y-71747612D01*
X137021100Y-71875530D01*
X137016965Y-71878635D01*
X137013393Y-71882373D01*
X136905729Y-71995037D01*
X136862629Y-72040138D01*
X136755201Y-72197621D01*
X136700293Y-72242621D01*
X136629768Y-72250792D01*
X136566021Y-72219538D01*
X136545324Y-72195054D01*
X136464822Y-72070617D01*
X136464820Y-72070614D01*
X136462014Y-72066277D01*
X136311670Y-71901051D01*
X136307619Y-71897852D01*
X136307615Y-71897848D01*
X136140414Y-71765800D01*
X136140410Y-71765798D01*
X136136359Y-71762598D01*
X135940789Y-71654638D01*
X135935920Y-71652914D01*
X135935916Y-71652912D01*
X135735087Y-71581795D01*
X135735083Y-71581794D01*
X135730212Y-71580069D01*
X135725119Y-71579162D01*
X135725116Y-71579161D01*
X135515373Y-71541800D01*
X135515367Y-71541799D01*
X135510284Y-71540894D01*
X135436452Y-71539992D01*
X135292081Y-71538228D01*
X135292079Y-71538228D01*
X135286911Y-71538165D01*
X135066091Y-71571955D01*
X134853756Y-71641357D01*
X134655607Y-71744507D01*
X134651474Y-71747610D01*
X134651471Y-71747612D01*
X134481100Y-71875530D01*
X134476965Y-71878635D01*
X134473393Y-71882373D01*
X134365729Y-71995037D01*
X134322629Y-72040138D01*
X134215201Y-72197621D01*
X134160293Y-72242621D01*
X134089768Y-72250792D01*
X134026021Y-72219538D01*
X134005324Y-72195054D01*
X133924822Y-72070617D01*
X133924820Y-72070614D01*
X133922014Y-72066277D01*
X133771670Y-71901051D01*
X133767619Y-71897852D01*
X133767615Y-71897848D01*
X133600414Y-71765800D01*
X133600410Y-71765798D01*
X133596359Y-71762598D01*
X133400789Y-71654638D01*
X133395920Y-71652914D01*
X133395916Y-71652912D01*
X133195087Y-71581795D01*
X133195083Y-71581794D01*
X133190212Y-71580069D01*
X133185119Y-71579162D01*
X133185116Y-71579161D01*
X132975373Y-71541800D01*
X132975367Y-71541799D01*
X132970284Y-71540894D01*
X132896452Y-71539992D01*
X132752081Y-71538228D01*
X132752079Y-71538228D01*
X132746911Y-71538165D01*
X132526091Y-71571955D01*
X132313756Y-71641357D01*
X132115607Y-71744507D01*
X132111474Y-71747610D01*
X132111471Y-71747612D01*
X131941100Y-71875530D01*
X131936965Y-71878635D01*
X131933393Y-71882373D01*
X131825729Y-71995037D01*
X131782629Y-72040138D01*
X131675201Y-72197621D01*
X131620293Y-72242621D01*
X131549768Y-72250792D01*
X131486021Y-72219538D01*
X131465324Y-72195054D01*
X131384822Y-72070617D01*
X131384820Y-72070614D01*
X131382014Y-72066277D01*
X131231670Y-71901051D01*
X131227619Y-71897852D01*
X131227615Y-71897848D01*
X131060414Y-71765800D01*
X131060410Y-71765798D01*
X131056359Y-71762598D01*
X130860789Y-71654638D01*
X130855920Y-71652914D01*
X130855916Y-71652912D01*
X130655087Y-71581795D01*
X130655083Y-71581794D01*
X130650212Y-71580069D01*
X130645119Y-71579162D01*
X130645116Y-71579161D01*
X130435373Y-71541800D01*
X130435367Y-71541799D01*
X130430284Y-71540894D01*
X130356452Y-71539992D01*
X130212081Y-71538228D01*
X130212079Y-71538228D01*
X130206911Y-71538165D01*
X129986091Y-71571955D01*
X129773756Y-71641357D01*
X129575607Y-71744507D01*
X129571474Y-71747610D01*
X129571471Y-71747612D01*
X129401100Y-71875530D01*
X129396965Y-71878635D01*
X129393393Y-71882373D01*
X129285729Y-71995037D01*
X129242629Y-72040138D01*
X129135201Y-72197621D01*
X129080293Y-72242621D01*
X129009768Y-72250792D01*
X128946021Y-72219538D01*
X128925324Y-72195054D01*
X128844822Y-72070617D01*
X128844820Y-72070614D01*
X128842014Y-72066277D01*
X128691670Y-71901051D01*
X128687619Y-71897852D01*
X128687615Y-71897848D01*
X128520414Y-71765800D01*
X128520410Y-71765798D01*
X128516359Y-71762598D01*
X128320789Y-71654638D01*
X128315920Y-71652914D01*
X128315916Y-71652912D01*
X128115087Y-71581795D01*
X128115083Y-71581794D01*
X128110212Y-71580069D01*
X128105119Y-71579162D01*
X128105116Y-71579161D01*
X127895373Y-71541800D01*
X127895367Y-71541799D01*
X127890284Y-71540894D01*
X127816452Y-71539992D01*
X127672081Y-71538228D01*
X127672079Y-71538228D01*
X127666911Y-71538165D01*
X127446091Y-71571955D01*
X127233756Y-71641357D01*
X127035607Y-71744507D01*
X127031474Y-71747610D01*
X127031471Y-71747612D01*
X126861100Y-71875530D01*
X126856965Y-71878635D01*
X126853393Y-71882373D01*
X126745729Y-71995037D01*
X126702629Y-72040138D01*
X126595201Y-72197621D01*
X126540293Y-72242621D01*
X126469768Y-72250792D01*
X126406021Y-72219538D01*
X126385324Y-72195054D01*
X126304822Y-72070617D01*
X126304820Y-72070614D01*
X126302014Y-72066277D01*
X126151670Y-71901051D01*
X126147619Y-71897852D01*
X126147615Y-71897848D01*
X125980414Y-71765800D01*
X125980410Y-71765798D01*
X125976359Y-71762598D01*
X125780789Y-71654638D01*
X125775920Y-71652914D01*
X125775916Y-71652912D01*
X125575087Y-71581795D01*
X125575083Y-71581794D01*
X125570212Y-71580069D01*
X125565119Y-71579162D01*
X125565116Y-71579161D01*
X125355373Y-71541800D01*
X125355367Y-71541799D01*
X125350284Y-71540894D01*
X125276452Y-71539992D01*
X125132081Y-71538228D01*
X125132079Y-71538228D01*
X125126911Y-71538165D01*
X124906091Y-71571955D01*
X124693756Y-71641357D01*
X124495607Y-71744507D01*
X124491474Y-71747610D01*
X124491471Y-71747612D01*
X124321100Y-71875530D01*
X124316965Y-71878635D01*
X124313393Y-71882373D01*
X124205729Y-71995037D01*
X124162629Y-72040138D01*
X124055201Y-72197621D01*
X124000293Y-72242621D01*
X123929768Y-72250792D01*
X123866021Y-72219538D01*
X123845324Y-72195054D01*
X123764822Y-72070617D01*
X123764820Y-72070614D01*
X123762014Y-72066277D01*
X123611670Y-71901051D01*
X123607619Y-71897852D01*
X123607615Y-71897848D01*
X123440414Y-71765800D01*
X123440410Y-71765798D01*
X123436359Y-71762598D01*
X123240789Y-71654638D01*
X123235920Y-71652914D01*
X123235916Y-71652912D01*
X123035087Y-71581795D01*
X123035083Y-71581794D01*
X123030212Y-71580069D01*
X123025119Y-71579162D01*
X123025116Y-71579161D01*
X122815373Y-71541800D01*
X122815367Y-71541799D01*
X122810284Y-71540894D01*
X122736452Y-71539992D01*
X122592081Y-71538228D01*
X122592079Y-71538228D01*
X122586911Y-71538165D01*
X122366091Y-71571955D01*
X122153756Y-71641357D01*
X121955607Y-71744507D01*
X121951474Y-71747610D01*
X121951471Y-71747612D01*
X121781100Y-71875530D01*
X121776965Y-71878635D01*
X121773393Y-71882373D01*
X121665729Y-71995037D01*
X121622629Y-72040138D01*
X121515201Y-72197621D01*
X121460293Y-72242621D01*
X121389768Y-72250792D01*
X121326021Y-72219538D01*
X121305324Y-72195054D01*
X121224822Y-72070617D01*
X121224820Y-72070614D01*
X121222014Y-72066277D01*
X121071670Y-71901051D01*
X121067619Y-71897852D01*
X121067615Y-71897848D01*
X120900414Y-71765800D01*
X120900410Y-71765798D01*
X120896359Y-71762598D01*
X120700789Y-71654638D01*
X120695920Y-71652914D01*
X120695916Y-71652912D01*
X120495087Y-71581795D01*
X120495083Y-71581794D01*
X120490212Y-71580069D01*
X120485119Y-71579162D01*
X120485116Y-71579161D01*
X120275373Y-71541800D01*
X120275367Y-71541799D01*
X120270284Y-71540894D01*
X120196452Y-71539992D01*
X120052081Y-71538228D01*
X120052079Y-71538228D01*
X120046911Y-71538165D01*
X119826091Y-71571955D01*
X119613756Y-71641357D01*
X119415607Y-71744507D01*
X119411474Y-71747610D01*
X119411471Y-71747612D01*
X119241100Y-71875530D01*
X119236965Y-71878635D01*
X119180537Y-71937684D01*
X119156283Y-71963064D01*
X119094759Y-71998494D01*
X119023846Y-71995037D01*
X118966060Y-71953791D01*
X118947207Y-71920243D01*
X118905767Y-71809703D01*
X118902615Y-71801295D01*
X118815261Y-71684739D01*
X118698705Y-71597385D01*
X118562316Y-71546255D01*
X118500134Y-71539500D01*
X116703866Y-71539500D01*
X116641684Y-71546255D01*
X116505295Y-71597385D01*
X116388739Y-71684739D01*
X116301385Y-71801295D01*
X116250255Y-71937684D01*
X116243500Y-71999866D01*
X116243500Y-73796134D01*
X116250255Y-73858316D01*
X116301385Y-73994705D01*
X116388739Y-74111261D01*
X116505295Y-74198615D01*
X116513704Y-74201767D01*
X116513705Y-74201768D01*
X116622451Y-74242535D01*
X116679216Y-74285176D01*
X116703916Y-74351738D01*
X116688709Y-74421087D01*
X116669316Y-74447568D01*
X116542629Y-74580138D01*
X116416743Y-74764680D01*
X116322688Y-74967305D01*
X116262989Y-75182570D01*
X116239251Y-75404695D01*
X105390500Y-75404695D01*
X105390500Y-74139866D01*
X105383745Y-74077684D01*
X105332615Y-73941295D01*
X105245261Y-73824739D01*
X105128705Y-73737385D01*
X104992316Y-73686255D01*
X104930134Y-73679500D01*
X102333866Y-73679500D01*
X102271684Y-73686255D01*
X102135295Y-73737385D01*
X102018739Y-73824739D01*
X101931385Y-73941295D01*
X101880255Y-74077684D01*
X101873500Y-74139866D01*
X101873500Y-76736134D01*
X99245934Y-76736134D01*
X99225340Y-76683176D01*
X99225339Y-76683173D01*
X99223647Y-76678823D01*
X99215335Y-76664279D01*
X99111251Y-76482171D01*
X99093951Y-76451902D01*
X98932138Y-76246643D01*
X98741763Y-76067557D01*
X98589437Y-75961884D01*
X98530851Y-75921241D01*
X98530848Y-75921239D01*
X98527009Y-75918576D01*
X98522816Y-75916508D01*
X98296781Y-75805040D01*
X98296778Y-75805039D01*
X98292593Y-75802975D01*
X98246449Y-75788204D01*
X98048123Y-75724720D01*
X98043665Y-75723293D01*
X97785693Y-75681279D01*
X97671942Y-75679790D01*
X97529022Y-75677919D01*
X97529019Y-75677919D01*
X97524345Y-75677858D01*
X97265362Y-75713104D01*
X97014433Y-75786243D01*
X97010180Y-75788203D01*
X97010179Y-75788204D01*
X96973659Y-75805040D01*
X96777072Y-75895668D01*
X96738067Y-75921241D01*
X96562404Y-76036410D01*
X96562399Y-76036414D01*
X96558491Y-76038976D01*
X96363494Y-76213018D01*
X96196363Y-76413970D01*
X96193934Y-76417973D01*
X96076961Y-76610739D01*
X96060771Y-76637419D01*
X95959697Y-76878455D01*
X95895359Y-77131783D01*
X95894891Y-77136434D01*
X95894890Y-77136438D01*
X95888842Y-77196500D01*
X95869173Y-77391839D01*
X88460000Y-77391839D01*
X88460000Y-69678151D01*
X94299296Y-69678151D01*
X94311480Y-69931798D01*
X94361021Y-70180857D01*
X94362600Y-70185255D01*
X94362602Y-70185262D01*
X94407022Y-70308980D01*
X94446831Y-70419858D01*
X94567025Y-70643551D01*
X94569820Y-70647294D01*
X94569822Y-70647297D01*
X94716171Y-70843282D01*
X94716176Y-70843288D01*
X94718963Y-70847020D01*
X94722272Y-70850300D01*
X94722277Y-70850306D01*
X94895990Y-71022509D01*
X94899307Y-71025797D01*
X94903069Y-71028555D01*
X94903072Y-71028558D01*
X95008764Y-71106054D01*
X95104094Y-71175953D01*
X95108229Y-71178129D01*
X95108233Y-71178131D01*
X95226289Y-71240243D01*
X95328827Y-71294191D01*
X95568568Y-71377912D01*
X95818050Y-71425278D01*
X95938532Y-71430011D01*
X96067125Y-71435064D01*
X96067130Y-71435064D01*
X96071793Y-71435247D01*
X96170774Y-71424407D01*
X96319569Y-71408112D01*
X96319575Y-71408111D01*
X96324222Y-71407602D01*
X96433680Y-71378784D01*
X96565273Y-71344138D01*
X96569793Y-71342948D01*
X96718449Y-71279081D01*
X96798807Y-71244557D01*
X96798810Y-71244555D01*
X96803110Y-71242708D01*
X96807090Y-71240245D01*
X96807094Y-71240243D01*
X97015064Y-71111547D01*
X97015066Y-71111545D01*
X97019047Y-71109082D01*
X97117826Y-71025460D01*
X97181999Y-70971134D01*
X107003500Y-70971134D01*
X107010255Y-71033316D01*
X107061385Y-71169705D01*
X107148739Y-71286261D01*
X107265295Y-71373615D01*
X107401684Y-71424745D01*
X107463866Y-71431500D01*
X109960134Y-71431500D01*
X110022316Y-71424745D01*
X110158705Y-71373615D01*
X110275261Y-71286261D01*
X110362615Y-71169705D01*
X110413745Y-71033316D01*
X110420500Y-70971134D01*
X110420500Y-68474866D01*
X110413745Y-68412684D01*
X110362615Y-68276295D01*
X110275261Y-68159739D01*
X110158705Y-68072385D01*
X110022316Y-68021255D01*
X109960134Y-68014500D01*
X107463866Y-68014500D01*
X107401684Y-68021255D01*
X107265295Y-68072385D01*
X107148739Y-68159739D01*
X107061385Y-68276295D01*
X107010255Y-68412684D01*
X107003500Y-68474866D01*
X107003500Y-70971134D01*
X97181999Y-70971134D01*
X97209289Y-70948031D01*
X97209291Y-70948029D01*
X97212862Y-70945006D01*
X97380295Y-70754084D01*
X97517669Y-70540512D01*
X97621967Y-70308980D01*
X97690896Y-70064575D01*
X97705736Y-69947923D01*
X97722545Y-69815798D01*
X97722545Y-69815792D01*
X97722943Y-69812667D01*
X97725291Y-69723000D01*
X97706472Y-69469759D01*
X97676704Y-69338202D01*
X97651459Y-69226639D01*
X97650428Y-69222082D01*
X97558391Y-68985409D01*
X97537866Y-68949498D01*
X97434702Y-68768997D01*
X97434700Y-68768995D01*
X97432383Y-68764940D01*
X97275171Y-68565517D01*
X97090209Y-68391523D01*
X97046483Y-68361189D01*
X96885393Y-68249437D01*
X96885390Y-68249435D01*
X96881561Y-68246779D01*
X96877384Y-68244719D01*
X96877377Y-68244715D01*
X96657996Y-68136528D01*
X96657992Y-68136527D01*
X96653810Y-68134464D01*
X96411960Y-68057047D01*
X96407355Y-68056297D01*
X96165935Y-68016980D01*
X96165934Y-68016980D01*
X96161323Y-68016229D01*
X96034364Y-68014567D01*
X95912083Y-68012966D01*
X95912080Y-68012966D01*
X95907406Y-68012905D01*
X95655787Y-68047149D01*
X95411993Y-68118208D01*
X95181380Y-68224522D01*
X95177471Y-68227085D01*
X94972928Y-68361189D01*
X94972923Y-68361193D01*
X94969015Y-68363755D01*
X94779562Y-68532848D01*
X94617183Y-68728087D01*
X94485447Y-68945182D01*
X94483638Y-68949496D01*
X94483637Y-68949498D01*
X94403769Y-69139963D01*
X94387246Y-69179365D01*
X94324738Y-69425490D01*
X94299296Y-69678151D01*
X88460000Y-69678151D01*
X88460000Y-66597669D01*
X92064001Y-66597669D01*
X92064371Y-66604490D01*
X92069895Y-66655352D01*
X92073521Y-66670604D01*
X92118676Y-66791054D01*
X92127214Y-66806649D01*
X92203715Y-66908724D01*
X92216276Y-66921285D01*
X92318351Y-66997786D01*
X92333946Y-67006324D01*
X92454394Y-67051478D01*
X92469649Y-67055105D01*
X92520514Y-67060631D01*
X92527328Y-67061000D01*
X93199885Y-67061000D01*
X93215124Y-67056525D01*
X93216329Y-67055135D01*
X93218000Y-67047452D01*
X93218000Y-67042884D01*
X93726000Y-67042884D01*
X93730475Y-67058123D01*
X93731865Y-67059328D01*
X93739548Y-67060999D01*
X94416669Y-67060999D01*
X94423490Y-67060629D01*
X94474352Y-67055105D01*
X94489604Y-67051479D01*
X94610054Y-67006324D01*
X94625649Y-66997786D01*
X94727724Y-66921285D01*
X94740285Y-66908724D01*
X94816786Y-66806649D01*
X94825324Y-66791054D01*
X94846773Y-66733840D01*
X94889415Y-66677075D01*
X94955977Y-66652376D01*
X95025325Y-66667584D01*
X95045240Y-66681126D01*
X95201349Y-66810730D01*
X95401322Y-66927584D01*
X95617694Y-67010209D01*
X95622760Y-67011240D01*
X95622761Y-67011240D01*
X95675846Y-67022040D01*
X95844656Y-67056385D01*
X95975324Y-67061176D01*
X96070949Y-67064683D01*
X96070953Y-67064683D01*
X96076113Y-67064872D01*
X96081233Y-67064216D01*
X96081235Y-67064216D01*
X96180668Y-67051478D01*
X96305847Y-67035442D01*
X96310795Y-67033957D01*
X96310802Y-67033956D01*
X96522747Y-66970369D01*
X96527690Y-66968886D01*
X96532324Y-66966616D01*
X96731049Y-66869262D01*
X96731052Y-66869260D01*
X96735684Y-66866991D01*
X96924243Y-66732494D01*
X97088303Y-66569005D01*
X97091319Y-66564808D01*
X97091326Y-66564800D01*
X97178960Y-66442844D01*
X97234954Y-66399196D01*
X97305658Y-66392750D01*
X97368622Y-66425553D01*
X97388715Y-66450536D01*
X97408800Y-66483313D01*
X97408806Y-66483321D01*
X97411501Y-66487719D01*
X97563147Y-66662784D01*
X97741349Y-66810730D01*
X97941322Y-66927584D01*
X98157694Y-67010209D01*
X98162760Y-67011240D01*
X98162761Y-67011240D01*
X98215846Y-67022040D01*
X98384656Y-67056385D01*
X98515324Y-67061176D01*
X98610949Y-67064683D01*
X98610953Y-67064683D01*
X98616113Y-67064872D01*
X98621233Y-67064216D01*
X98621235Y-67064216D01*
X98720668Y-67051478D01*
X98845847Y-67035442D01*
X98850795Y-67033957D01*
X98850802Y-67033956D01*
X99062747Y-66970369D01*
X99067690Y-66968886D01*
X99072324Y-66966616D01*
X99271049Y-66869262D01*
X99271052Y-66869260D01*
X99275684Y-66866991D01*
X99464243Y-66732494D01*
X99628303Y-66569005D01*
X99763458Y-66380917D01*
X99866078Y-66173280D01*
X99933408Y-65951671D01*
X99963640Y-65722041D01*
X99965327Y-65653000D01*
X99959032Y-65576434D01*
X99946773Y-65427318D01*
X99946772Y-65427312D01*
X99946349Y-65422167D01*
X99889925Y-65197533D01*
X99875771Y-65164981D01*
X99799630Y-64989868D01*
X99799628Y-64989865D01*
X99797570Y-64985131D01*
X99671764Y-64790665D01*
X99515887Y-64619358D01*
X99511836Y-64616159D01*
X99511832Y-64616155D01*
X99338177Y-64479011D01*
X99338172Y-64479008D01*
X99334123Y-64475810D01*
X99329607Y-64473317D01*
X99329604Y-64473315D01*
X99135879Y-64366373D01*
X99135875Y-64366371D01*
X99131355Y-64363876D01*
X99126486Y-64362152D01*
X99126482Y-64362150D01*
X98917903Y-64288288D01*
X98917899Y-64288287D01*
X98913028Y-64286562D01*
X98907935Y-64285655D01*
X98907932Y-64285654D01*
X98690095Y-64246851D01*
X98690089Y-64246850D01*
X98685006Y-64245945D01*
X98607644Y-64245000D01*
X98458581Y-64243179D01*
X98458579Y-64243179D01*
X98453411Y-64243116D01*
X98224464Y-64278150D01*
X98004314Y-64350106D01*
X97999726Y-64352494D01*
X97999722Y-64352496D01*
X97803461Y-64454663D01*
X97798872Y-64457052D01*
X97794739Y-64460155D01*
X97794736Y-64460157D01*
X97617790Y-64593012D01*
X97613655Y-64596117D01*
X97453639Y-64763564D01*
X97386306Y-64862271D01*
X97331397Y-64907271D01*
X97260872Y-64915442D01*
X97197125Y-64884188D01*
X97176428Y-64859705D01*
X97134571Y-64795004D01*
X97131764Y-64790665D01*
X96975887Y-64619358D01*
X96971836Y-64616159D01*
X96971832Y-64616155D01*
X96798177Y-64479011D01*
X96798172Y-64479008D01*
X96794123Y-64475810D01*
X96789607Y-64473317D01*
X96789604Y-64473315D01*
X96595879Y-64366373D01*
X96595875Y-64366371D01*
X96591355Y-64363876D01*
X96586486Y-64362152D01*
X96586482Y-64362150D01*
X96377903Y-64288288D01*
X96377899Y-64288287D01*
X96373028Y-64286562D01*
X96367935Y-64285655D01*
X96367932Y-64285654D01*
X96150095Y-64246851D01*
X96150089Y-64246850D01*
X96145006Y-64245945D01*
X96067644Y-64245000D01*
X95918581Y-64243179D01*
X95918579Y-64243179D01*
X95913411Y-64243116D01*
X95684464Y-64278150D01*
X95464314Y-64350106D01*
X95459726Y-64352494D01*
X95459722Y-64352496D01*
X95263461Y-64454663D01*
X95258872Y-64457052D01*
X95254739Y-64460155D01*
X95254736Y-64460157D01*
X95077790Y-64593012D01*
X95073655Y-64596117D01*
X95070083Y-64599855D01*
X95055787Y-64614815D01*
X94994263Y-64650245D01*
X94923351Y-64646788D01*
X94865564Y-64605543D01*
X94846711Y-64571994D01*
X94825324Y-64514946D01*
X94816786Y-64499351D01*
X94740285Y-64397276D01*
X94727724Y-64384715D01*
X94625649Y-64308214D01*
X94610054Y-64299676D01*
X94489606Y-64254522D01*
X94474351Y-64250895D01*
X94423486Y-64245369D01*
X94416672Y-64245000D01*
X93744115Y-64245000D01*
X93728876Y-64249475D01*
X93727671Y-64250865D01*
X93726000Y-64258548D01*
X93726000Y-67042884D01*
X93218000Y-67042884D01*
X93218000Y-65925115D01*
X93213525Y-65909876D01*
X93212135Y-65908671D01*
X93204452Y-65907000D01*
X92082116Y-65907000D01*
X92066877Y-65911475D01*
X92065672Y-65912865D01*
X92064001Y-65920548D01*
X92064001Y-66597669D01*
X88460000Y-66597669D01*
X88460000Y-65380885D01*
X92064000Y-65380885D01*
X92068475Y-65396124D01*
X92069865Y-65397329D01*
X92077548Y-65399000D01*
X93199885Y-65399000D01*
X93215124Y-65394525D01*
X93216329Y-65393135D01*
X93218000Y-65385452D01*
X93218000Y-64263116D01*
X93213525Y-64247877D01*
X93212135Y-64246672D01*
X93204452Y-64245001D01*
X92527331Y-64245001D01*
X92520510Y-64245371D01*
X92469648Y-64250895D01*
X92454396Y-64254521D01*
X92333946Y-64299676D01*
X92318351Y-64308214D01*
X92216276Y-64384715D01*
X92203715Y-64397276D01*
X92127214Y-64499351D01*
X92118676Y-64514946D01*
X92073522Y-64635394D01*
X92069895Y-64650649D01*
X92064369Y-64701514D01*
X92064000Y-64708328D01*
X92064000Y-65380885D01*
X88460000Y-65380885D01*
X88460000Y-58293000D01*
X89418835Y-58293000D01*
X89437465Y-58529711D01*
X89492895Y-58760594D01*
X89583760Y-58979963D01*
X89586346Y-58984183D01*
X89705241Y-59178202D01*
X89705245Y-59178208D01*
X89707824Y-59182416D01*
X89862031Y-59362969D01*
X90042584Y-59517176D01*
X90046792Y-59519755D01*
X90046798Y-59519759D01*
X90192139Y-59608824D01*
X90245037Y-59641240D01*
X90249607Y-59643133D01*
X90249611Y-59643135D01*
X90397237Y-59704283D01*
X90464406Y-59732105D01*
X90544609Y-59751360D01*
X90690476Y-59786380D01*
X90690482Y-59786381D01*
X90695289Y-59787535D01*
X90932000Y-59806165D01*
X91168711Y-59787535D01*
X91173518Y-59786381D01*
X91173524Y-59786380D01*
X91319391Y-59751360D01*
X91399594Y-59732105D01*
X91466763Y-59704283D01*
X91614389Y-59643135D01*
X91614393Y-59643133D01*
X91618963Y-59641240D01*
X91623183Y-59638654D01*
X91623193Y-59638649D01*
X91735106Y-59570068D01*
X91800941Y-59551500D01*
X92944920Y-59551500D01*
X93013041Y-59571502D01*
X93059534Y-59625158D01*
X93069638Y-59695432D01*
X93040144Y-59760012D01*
X93038506Y-59761771D01*
X93037031Y-59763031D01*
X92882824Y-59943584D01*
X92880245Y-59947792D01*
X92880241Y-59947798D01*
X92761346Y-60141817D01*
X92758760Y-60146037D01*
X92667895Y-60365406D01*
X92612465Y-60596289D01*
X92593835Y-60833000D01*
X92612465Y-61069711D01*
X92667895Y-61300594D01*
X92758760Y-61519963D01*
X92761346Y-61524183D01*
X92880241Y-61718202D01*
X92880245Y-61718208D01*
X92882824Y-61722416D01*
X93037031Y-61902969D01*
X93217584Y-62057176D01*
X93221792Y-62059755D01*
X93221798Y-62059759D01*
X93415817Y-62178654D01*
X93420037Y-62181240D01*
X93424607Y-62183133D01*
X93424611Y-62183135D01*
X93634833Y-62270211D01*
X93639406Y-62272105D01*
X93719609Y-62291360D01*
X93865476Y-62326380D01*
X93865482Y-62326381D01*
X93870289Y-62327535D01*
X94107000Y-62346165D01*
X94343711Y-62327535D01*
X94348518Y-62326381D01*
X94348524Y-62326380D01*
X94494391Y-62291360D01*
X94574594Y-62272105D01*
X94579167Y-62270211D01*
X94789389Y-62183135D01*
X94789393Y-62183133D01*
X94793963Y-62181240D01*
X94798183Y-62178654D01*
X94992202Y-62059759D01*
X94992208Y-62059755D01*
X94996416Y-62057176D01*
X95176969Y-61902969D01*
X95331176Y-61722416D01*
X95333755Y-61718208D01*
X95333759Y-61718202D01*
X95452654Y-61524183D01*
X95455240Y-61519963D01*
X95546105Y-61300594D01*
X95601535Y-61069711D01*
X95620165Y-60833000D01*
X95601535Y-60596289D01*
X95546105Y-60365406D01*
X95455240Y-60146037D01*
X95452654Y-60141817D01*
X95333759Y-59947798D01*
X95333755Y-59947792D01*
X95331176Y-59943584D01*
X95176969Y-59763031D01*
X95177699Y-59762408D01*
X95145959Y-59704283D01*
X95151024Y-59633468D01*
X95193571Y-59576632D01*
X95260091Y-59551821D01*
X95269080Y-59551500D01*
X103104920Y-59551500D01*
X103173041Y-59571502D01*
X103219534Y-59625158D01*
X103229638Y-59695432D01*
X103200144Y-59760012D01*
X103198506Y-59761771D01*
X103197031Y-59763031D01*
X103042824Y-59943584D01*
X103040245Y-59947792D01*
X103040241Y-59947798D01*
X102921346Y-60141817D01*
X102918760Y-60146037D01*
X102827895Y-60365406D01*
X102772465Y-60596289D01*
X102753835Y-60833000D01*
X102772465Y-61069711D01*
X102827895Y-61300594D01*
X102918760Y-61519963D01*
X102921346Y-61524183D01*
X103040241Y-61718202D01*
X103040245Y-61718208D01*
X103042824Y-61722416D01*
X103197031Y-61902969D01*
X103377584Y-62057176D01*
X103381792Y-62059755D01*
X103381798Y-62059759D01*
X103575817Y-62178654D01*
X103580037Y-62181240D01*
X103584607Y-62183133D01*
X103584611Y-62183135D01*
X103794833Y-62270211D01*
X103799406Y-62272105D01*
X103879609Y-62291360D01*
X104025476Y-62326380D01*
X104025482Y-62326381D01*
X104030289Y-62327535D01*
X104267000Y-62346165D01*
X104503711Y-62327535D01*
X104508518Y-62326381D01*
X104508524Y-62326380D01*
X104654391Y-62291360D01*
X104734594Y-62272105D01*
X104739167Y-62270211D01*
X104949389Y-62183135D01*
X104949393Y-62183133D01*
X104953963Y-62181240D01*
X104958183Y-62178654D01*
X105152202Y-62059759D01*
X105152208Y-62059755D01*
X105156416Y-62057176D01*
X105336969Y-61902969D01*
X105491176Y-61722416D01*
X105493755Y-61718208D01*
X105493759Y-61718202D01*
X105612654Y-61524183D01*
X105615240Y-61519963D01*
X105706105Y-61300594D01*
X105761535Y-61069711D01*
X105780165Y-60833000D01*
X105761535Y-60596289D01*
X105706105Y-60365406D01*
X105615240Y-60146037D01*
X105612654Y-60141817D01*
X105493759Y-59947798D01*
X105493755Y-59947792D01*
X105491176Y-59943584D01*
X105336969Y-59763031D01*
X105337699Y-59762408D01*
X105305959Y-59704283D01*
X105311024Y-59633468D01*
X105353571Y-59576632D01*
X105420091Y-59551821D01*
X105429080Y-59551500D01*
X118979920Y-59551500D01*
X119048041Y-59571502D01*
X119094534Y-59625158D01*
X119104638Y-59695432D01*
X119075144Y-59760012D01*
X119073506Y-59761771D01*
X119072031Y-59763031D01*
X118917824Y-59943584D01*
X118915245Y-59947792D01*
X118915241Y-59947798D01*
X118796346Y-60141817D01*
X118793760Y-60146037D01*
X118702895Y-60365406D01*
X118647465Y-60596289D01*
X118628835Y-60833000D01*
X118647465Y-61069711D01*
X118702895Y-61300594D01*
X118793760Y-61519963D01*
X118796345Y-61524182D01*
X118796351Y-61524193D01*
X118864932Y-61636106D01*
X118883500Y-61701941D01*
X118883500Y-67584059D01*
X118864932Y-67649894D01*
X118796351Y-67761807D01*
X118796346Y-67761817D01*
X118793760Y-67766037D01*
X118702895Y-67985406D01*
X118688223Y-68046519D01*
X118659318Y-68166919D01*
X118647465Y-68216289D01*
X118628835Y-68453000D01*
X118647465Y-68689711D01*
X118648619Y-68694518D01*
X118648620Y-68694524D01*
X118664645Y-68761272D01*
X118702895Y-68920594D01*
X118704788Y-68925165D01*
X118704789Y-68925167D01*
X118713080Y-68945182D01*
X118793760Y-69139963D01*
X118796346Y-69144183D01*
X118915241Y-69338202D01*
X118915245Y-69338208D01*
X118917824Y-69342416D01*
X119072031Y-69522969D01*
X119252584Y-69677176D01*
X119256792Y-69679755D01*
X119256798Y-69679759D01*
X119332518Y-69726160D01*
X119455037Y-69801240D01*
X119459607Y-69803133D01*
X119459611Y-69803135D01*
X119669833Y-69890211D01*
X119674406Y-69892105D01*
X119754609Y-69911360D01*
X119900476Y-69946380D01*
X119900482Y-69946381D01*
X119905289Y-69947535D01*
X120142000Y-69966165D01*
X120378711Y-69947535D01*
X120383518Y-69946381D01*
X120383524Y-69946380D01*
X120529391Y-69911360D01*
X120609594Y-69892105D01*
X120614167Y-69890211D01*
X120824389Y-69803135D01*
X120824393Y-69803133D01*
X120828963Y-69801240D01*
X120951482Y-69726160D01*
X121027202Y-69679759D01*
X121027208Y-69679755D01*
X121031416Y-69677176D01*
X121211969Y-69522969D01*
X121366176Y-69342416D01*
X121368755Y-69338208D01*
X121368759Y-69338202D01*
X121487654Y-69144183D01*
X121490240Y-69139963D01*
X121570921Y-68945182D01*
X121579211Y-68925167D01*
X121579212Y-68925165D01*
X121581105Y-68920594D01*
X121619355Y-68761272D01*
X121635380Y-68694524D01*
X121635381Y-68694518D01*
X121636535Y-68689711D01*
X121655165Y-68453000D01*
X136408835Y-68453000D01*
X136427465Y-68689711D01*
X136428619Y-68694518D01*
X136428620Y-68694524D01*
X136444645Y-68761272D01*
X136482895Y-68920594D01*
X136484788Y-68925165D01*
X136484789Y-68925167D01*
X136493080Y-68945182D01*
X136573760Y-69139963D01*
X136576346Y-69144183D01*
X136695241Y-69338202D01*
X136695245Y-69338208D01*
X136697824Y-69342416D01*
X136852031Y-69522969D01*
X137032584Y-69677176D01*
X137036792Y-69679755D01*
X137036798Y-69679759D01*
X137112518Y-69726160D01*
X137235037Y-69801240D01*
X137239607Y-69803133D01*
X137239611Y-69803135D01*
X137449833Y-69890211D01*
X137454406Y-69892105D01*
X137534609Y-69911360D01*
X137680476Y-69946380D01*
X137680482Y-69946381D01*
X137685289Y-69947535D01*
X137922000Y-69966165D01*
X138158711Y-69947535D01*
X138163518Y-69946381D01*
X138163524Y-69946380D01*
X138309391Y-69911360D01*
X138389594Y-69892105D01*
X138394167Y-69890211D01*
X138604389Y-69803135D01*
X138604393Y-69803133D01*
X138608963Y-69801240D01*
X138613183Y-69798654D01*
X138613193Y-69798649D01*
X138725106Y-69730068D01*
X138790941Y-69711500D01*
X142768059Y-69711500D01*
X142833894Y-69730068D01*
X142945807Y-69798649D01*
X142945817Y-69798654D01*
X142950037Y-69801240D01*
X142954607Y-69803133D01*
X142954611Y-69803135D01*
X143164833Y-69890211D01*
X143169406Y-69892105D01*
X143249609Y-69911360D01*
X143395476Y-69946380D01*
X143395482Y-69946381D01*
X143400289Y-69947535D01*
X143637000Y-69966165D01*
X143873711Y-69947535D01*
X143878518Y-69946381D01*
X143878524Y-69946380D01*
X144024391Y-69911360D01*
X144104594Y-69892105D01*
X144109167Y-69890211D01*
X144319389Y-69803135D01*
X144319393Y-69803133D01*
X144323963Y-69801240D01*
X144446482Y-69726160D01*
X144522202Y-69679759D01*
X144522208Y-69679755D01*
X144526416Y-69677176D01*
X144706969Y-69522969D01*
X144861176Y-69342416D01*
X144863755Y-69338208D01*
X144863759Y-69338202D01*
X144982654Y-69144183D01*
X144985240Y-69139963D01*
X145065921Y-68945182D01*
X145074211Y-68925167D01*
X145074212Y-68925165D01*
X145076105Y-68920594D01*
X145114355Y-68761272D01*
X145130380Y-68694524D01*
X145130381Y-68694518D01*
X145131535Y-68689711D01*
X145150165Y-68453000D01*
X145131535Y-68216289D01*
X145119683Y-68166919D01*
X145090777Y-68046519D01*
X145076105Y-67985406D01*
X144985240Y-67766037D01*
X144895500Y-67619595D01*
X144863759Y-67567798D01*
X144863755Y-67567792D01*
X144861176Y-67563584D01*
X144706969Y-67383031D01*
X144526416Y-67228824D01*
X144522208Y-67226245D01*
X144522202Y-67226241D01*
X144328183Y-67107346D01*
X144323963Y-67104760D01*
X144319393Y-67102867D01*
X144319389Y-67102865D01*
X144109167Y-67015789D01*
X144109165Y-67015788D01*
X144104594Y-67013895D01*
X144024391Y-66994640D01*
X143878524Y-66959620D01*
X143878518Y-66959619D01*
X143873711Y-66958465D01*
X143637000Y-66939835D01*
X143400289Y-66958465D01*
X143395482Y-66959619D01*
X143395476Y-66959620D01*
X143249609Y-66994640D01*
X143169406Y-67013895D01*
X143164835Y-67015788D01*
X143164833Y-67015789D01*
X142954611Y-67102865D01*
X142954607Y-67102867D01*
X142950037Y-67104760D01*
X142945818Y-67107345D01*
X142945807Y-67107351D01*
X142833894Y-67175932D01*
X142768059Y-67194500D01*
X138790941Y-67194500D01*
X138725106Y-67175932D01*
X138613193Y-67107351D01*
X138613182Y-67107345D01*
X138608963Y-67104760D01*
X138604393Y-67102867D01*
X138604389Y-67102865D01*
X138394167Y-67015789D01*
X138394165Y-67015788D01*
X138389594Y-67013895D01*
X138309391Y-66994640D01*
X138163524Y-66959620D01*
X138163518Y-66959619D01*
X138158711Y-66958465D01*
X137922000Y-66939835D01*
X137685289Y-66958465D01*
X137680482Y-66959619D01*
X137680476Y-66959620D01*
X137534609Y-66994640D01*
X137454406Y-67013895D01*
X137449835Y-67015788D01*
X137449833Y-67015789D01*
X137239611Y-67102865D01*
X137239607Y-67102867D01*
X137235037Y-67104760D01*
X137230817Y-67107346D01*
X137036798Y-67226241D01*
X137036792Y-67226245D01*
X137032584Y-67228824D01*
X136852031Y-67383031D01*
X136697824Y-67563584D01*
X136695245Y-67567792D01*
X136695241Y-67567798D01*
X136663500Y-67619595D01*
X136573760Y-67766037D01*
X136482895Y-67985406D01*
X136468223Y-68046519D01*
X136439318Y-68166919D01*
X136427465Y-68216289D01*
X136408835Y-68453000D01*
X121655165Y-68453000D01*
X121636535Y-68216289D01*
X121624683Y-68166919D01*
X121595777Y-68046519D01*
X121581105Y-67985406D01*
X121490240Y-67766037D01*
X121487654Y-67761817D01*
X121487649Y-67761807D01*
X121419068Y-67649894D01*
X121400500Y-67584059D01*
X121400500Y-61701941D01*
X121419068Y-61636106D01*
X121487649Y-61524193D01*
X121487655Y-61524182D01*
X121490240Y-61519963D01*
X121581105Y-61300594D01*
X121636535Y-61069711D01*
X121655165Y-60833000D01*
X121636535Y-60596289D01*
X121581105Y-60365406D01*
X121490240Y-60146037D01*
X121487654Y-60141817D01*
X121368759Y-59947798D01*
X121368755Y-59947792D01*
X121366176Y-59943584D01*
X121211969Y-59763031D01*
X121212699Y-59762408D01*
X121180959Y-59704283D01*
X121186024Y-59633468D01*
X121228571Y-59576632D01*
X121295091Y-59551821D01*
X121304080Y-59551500D01*
X137053059Y-59551500D01*
X137118894Y-59570068D01*
X137230807Y-59638649D01*
X137230817Y-59638654D01*
X137235037Y-59641240D01*
X137239607Y-59643133D01*
X137239611Y-59643135D01*
X137387237Y-59704283D01*
X137454406Y-59732105D01*
X137534609Y-59751360D01*
X137680476Y-59786380D01*
X137680482Y-59786381D01*
X137685289Y-59787535D01*
X137922000Y-59806165D01*
X138158711Y-59787535D01*
X138163518Y-59786381D01*
X138163524Y-59786380D01*
X138309391Y-59751360D01*
X138389594Y-59732105D01*
X138456763Y-59704283D01*
X138604389Y-59643135D01*
X138604393Y-59643133D01*
X138608963Y-59641240D01*
X138661861Y-59608824D01*
X138807202Y-59519759D01*
X138807208Y-59519755D01*
X138811416Y-59517176D01*
X138991969Y-59362969D01*
X139146176Y-59182416D01*
X139148755Y-59178208D01*
X139148759Y-59178202D01*
X139267654Y-58984183D01*
X139270240Y-58979963D01*
X139361105Y-58760594D01*
X139416535Y-58529711D01*
X139435165Y-58293000D01*
X139416535Y-58056289D01*
X139361105Y-57825406D01*
X139270240Y-57606037D01*
X139267654Y-57601817D01*
X139148759Y-57407798D01*
X139148755Y-57407792D01*
X139146176Y-57403584D01*
X138991969Y-57223031D01*
X138811416Y-57068824D01*
X138807208Y-57066245D01*
X138807202Y-57066241D01*
X138613183Y-56947346D01*
X138608963Y-56944760D01*
X138604393Y-56942867D01*
X138604389Y-56942865D01*
X138394167Y-56855789D01*
X138394165Y-56855788D01*
X138389594Y-56853895D01*
X138309391Y-56834640D01*
X138163524Y-56799620D01*
X138163518Y-56799619D01*
X138158711Y-56798465D01*
X137922000Y-56779835D01*
X137685289Y-56798465D01*
X137680482Y-56799619D01*
X137680476Y-56799620D01*
X137534609Y-56834640D01*
X137454406Y-56853895D01*
X137449835Y-56855788D01*
X137449833Y-56855789D01*
X137239611Y-56942865D01*
X137239607Y-56942867D01*
X137235037Y-56944760D01*
X137230818Y-56947345D01*
X137230807Y-56947351D01*
X137118894Y-57015932D01*
X137053059Y-57034500D01*
X91800941Y-57034500D01*
X91735106Y-57015932D01*
X91623193Y-56947351D01*
X91623182Y-56947345D01*
X91618963Y-56944760D01*
X91614393Y-56942867D01*
X91614389Y-56942865D01*
X91404167Y-56855789D01*
X91404165Y-56855788D01*
X91399594Y-56853895D01*
X91319391Y-56834640D01*
X91173524Y-56799620D01*
X91173518Y-56799619D01*
X91168711Y-56798465D01*
X90932000Y-56779835D01*
X90695289Y-56798465D01*
X90690482Y-56799619D01*
X90690476Y-56799620D01*
X90544609Y-56834640D01*
X90464406Y-56853895D01*
X90459835Y-56855788D01*
X90459833Y-56855789D01*
X90249611Y-56942865D01*
X90249607Y-56942867D01*
X90245037Y-56944760D01*
X90240817Y-56947346D01*
X90046798Y-57066241D01*
X90046792Y-57066245D01*
X90042584Y-57068824D01*
X89862031Y-57223031D01*
X89707824Y-57403584D01*
X89705245Y-57407792D01*
X89705241Y-57407798D01*
X89586346Y-57601817D01*
X89583760Y-57606037D01*
X89492895Y-57825406D01*
X89437465Y-58056289D01*
X89418835Y-58293000D01*
X88460000Y-58293000D01*
X88460000Y-54356000D01*
X99324835Y-54356000D01*
X99343465Y-54592711D01*
X99398895Y-54823594D01*
X99400788Y-54828165D01*
X99400789Y-54828167D01*
X99449710Y-54946272D01*
X99489760Y-55042963D01*
X99492346Y-55047183D01*
X99611241Y-55241202D01*
X99611245Y-55241208D01*
X99613824Y-55245416D01*
X99768031Y-55425969D01*
X99948584Y-55580176D01*
X99952792Y-55582755D01*
X99952798Y-55582759D01*
X100146817Y-55701654D01*
X100151037Y-55704240D01*
X100155607Y-55706133D01*
X100155611Y-55706135D01*
X100365833Y-55793211D01*
X100370406Y-55795105D01*
X100450609Y-55814360D01*
X100596476Y-55849380D01*
X100596482Y-55849381D01*
X100601289Y-55850535D01*
X100838000Y-55869165D01*
X101074711Y-55850535D01*
X101079518Y-55849381D01*
X101079524Y-55849380D01*
X101225391Y-55814360D01*
X101305594Y-55795105D01*
X101310167Y-55793211D01*
X101520389Y-55706135D01*
X101520393Y-55706133D01*
X101524963Y-55704240D01*
X101529183Y-55701654D01*
X101723202Y-55582759D01*
X101723208Y-55582755D01*
X101727416Y-55580176D01*
X101907969Y-55425969D01*
X102062176Y-55245416D01*
X102064755Y-55241208D01*
X102064759Y-55241202D01*
X102183654Y-55047183D01*
X102186240Y-55042963D01*
X102226291Y-54946272D01*
X102275211Y-54828167D01*
X102275212Y-54828165D01*
X102277105Y-54823594D01*
X102293428Y-54755604D01*
X105044500Y-54755604D01*
X105044780Y-54760460D01*
X105045980Y-54765656D01*
X105045980Y-54765659D01*
X105060411Y-54828167D01*
X105086214Y-54939930D01*
X105166379Y-55105760D01*
X105281292Y-55249708D01*
X105425240Y-55364621D01*
X105591070Y-55444786D01*
X105597931Y-55446370D01*
X105765341Y-55485020D01*
X105765344Y-55485020D01*
X105770540Y-55486220D01*
X105775396Y-55486500D01*
X107330604Y-55486500D01*
X107335460Y-55486220D01*
X107340656Y-55485020D01*
X107340659Y-55485020D01*
X107508069Y-55446370D01*
X107514930Y-55444786D01*
X107680760Y-55364621D01*
X107824708Y-55249708D01*
X107939621Y-55105760D01*
X108019786Y-54939930D01*
X108045589Y-54828167D01*
X108060020Y-54765659D01*
X108060020Y-54765656D01*
X108061220Y-54760460D01*
X108061500Y-54755604D01*
X113045500Y-54755604D01*
X113045780Y-54760460D01*
X113046980Y-54765656D01*
X113046980Y-54765659D01*
X113061411Y-54828167D01*
X113087214Y-54939930D01*
X113167379Y-55105760D01*
X113282292Y-55249708D01*
X113426240Y-55364621D01*
X113592070Y-55444786D01*
X113598931Y-55446370D01*
X113766341Y-55485020D01*
X113766344Y-55485020D01*
X113771540Y-55486220D01*
X113776396Y-55486500D01*
X115331604Y-55486500D01*
X115336460Y-55486220D01*
X115341656Y-55485020D01*
X115341659Y-55485020D01*
X115509069Y-55446370D01*
X115515930Y-55444786D01*
X115681760Y-55364621D01*
X115825708Y-55249708D01*
X115940621Y-55105760D01*
X116020786Y-54939930D01*
X116046589Y-54828167D01*
X116061020Y-54765659D01*
X116061020Y-54765656D01*
X116062220Y-54760460D01*
X116062500Y-54755604D01*
X116062500Y-53700396D01*
X116062220Y-53695540D01*
X116057158Y-53673611D01*
X116022370Y-53522931D01*
X116020786Y-53516070D01*
X115960516Y-53391395D01*
X115943688Y-53356584D01*
X115943687Y-53356583D01*
X115940621Y-53350240D01*
X115905789Y-53306607D01*
X115878922Y-53240894D01*
X115891849Y-53171084D01*
X115905785Y-53149398D01*
X115940621Y-53105760D01*
X115947068Y-53092425D01*
X116017720Y-52946272D01*
X116020786Y-52939930D01*
X116026371Y-52915740D01*
X116061020Y-52765659D01*
X116061020Y-52765656D01*
X116062220Y-52760460D01*
X116062500Y-52755604D01*
X123713500Y-52755604D01*
X123713780Y-52760460D01*
X123714980Y-52765656D01*
X123714980Y-52765659D01*
X123749629Y-52915740D01*
X123755214Y-52939930D01*
X123758280Y-52946272D01*
X123828933Y-53092425D01*
X123835379Y-53105760D01*
X123950292Y-53249708D01*
X124094240Y-53364621D01*
X124100583Y-53367687D01*
X124100584Y-53367688D01*
X124148808Y-53391000D01*
X124260070Y-53444786D01*
X124266931Y-53446370D01*
X124434341Y-53485020D01*
X124434344Y-53485020D01*
X124439540Y-53486220D01*
X124444396Y-53486500D01*
X125999604Y-53486500D01*
X126004460Y-53486220D01*
X126009656Y-53485020D01*
X126009659Y-53485020D01*
X126177069Y-53446370D01*
X126183930Y-53444786D01*
X126295192Y-53391000D01*
X126343416Y-53367688D01*
X126343417Y-53367687D01*
X126349760Y-53364621D01*
X126493708Y-53249708D01*
X126608621Y-53105760D01*
X126615068Y-53092425D01*
X126685720Y-52946272D01*
X126688786Y-52939930D01*
X126694371Y-52915740D01*
X126729020Y-52765659D01*
X126729020Y-52765656D01*
X126730220Y-52760460D01*
X126730500Y-52755604D01*
X132603500Y-52755604D01*
X132603780Y-52760460D01*
X132604980Y-52765656D01*
X132604980Y-52765659D01*
X132639629Y-52915740D01*
X132645214Y-52939930D01*
X132648280Y-52946272D01*
X132718933Y-53092425D01*
X132725379Y-53105760D01*
X132840292Y-53249708D01*
X132984240Y-53364621D01*
X132990583Y-53367687D01*
X132990584Y-53367688D01*
X133038808Y-53391000D01*
X133150070Y-53444786D01*
X133156931Y-53446370D01*
X133324341Y-53485020D01*
X133324344Y-53485020D01*
X133329540Y-53486220D01*
X133334396Y-53486500D01*
X134889604Y-53486500D01*
X134894460Y-53486220D01*
X134899656Y-53485020D01*
X134899659Y-53485020D01*
X135067069Y-53446370D01*
X135073930Y-53444786D01*
X135185192Y-53391000D01*
X135233416Y-53367688D01*
X135233417Y-53367687D01*
X135239760Y-53364621D01*
X135383708Y-53249708D01*
X135498621Y-53105760D01*
X135505068Y-53092425D01*
X135575720Y-52946272D01*
X135578786Y-52939930D01*
X135584371Y-52915740D01*
X135619020Y-52765659D01*
X135619020Y-52765656D01*
X135620220Y-52760460D01*
X135620500Y-52755604D01*
X141493500Y-52755604D01*
X141493780Y-52760460D01*
X141494980Y-52765656D01*
X141494980Y-52765659D01*
X141529629Y-52915740D01*
X141535214Y-52939930D01*
X141538280Y-52946272D01*
X141608933Y-53092425D01*
X141615379Y-53105760D01*
X141730292Y-53249708D01*
X141874240Y-53364621D01*
X141880583Y-53367687D01*
X141880584Y-53367688D01*
X141928808Y-53391000D01*
X142040070Y-53444786D01*
X142046931Y-53446370D01*
X142214341Y-53485020D01*
X142214344Y-53485020D01*
X142219540Y-53486220D01*
X142224396Y-53486500D01*
X143779604Y-53486500D01*
X143784460Y-53486220D01*
X143789656Y-53485020D01*
X143789659Y-53485020D01*
X143957069Y-53446370D01*
X143963930Y-53444786D01*
X144075192Y-53391000D01*
X144123416Y-53367688D01*
X144123417Y-53367687D01*
X144129760Y-53364621D01*
X144273708Y-53249708D01*
X144388621Y-53105760D01*
X144395068Y-53092425D01*
X144465720Y-52946272D01*
X144468786Y-52939930D01*
X144474371Y-52915740D01*
X144509020Y-52765659D01*
X144509020Y-52765656D01*
X144510220Y-52760460D01*
X144510500Y-52755604D01*
X144510500Y-51700396D01*
X144510220Y-51695540D01*
X144499841Y-51650581D01*
X144470370Y-51522931D01*
X144468786Y-51516070D01*
X144388621Y-51350240D01*
X144353789Y-51306607D01*
X144326922Y-51240894D01*
X144339849Y-51171084D01*
X144353785Y-51149398D01*
X144388621Y-51105760D01*
X144396468Y-51089529D01*
X144465720Y-50946272D01*
X144468786Y-50939930D01*
X144498768Y-50810064D01*
X144509020Y-50765659D01*
X144509020Y-50765656D01*
X144510220Y-50760460D01*
X144510500Y-50755604D01*
X144510500Y-49700396D01*
X144510220Y-49695540D01*
X144499841Y-49650581D01*
X144470370Y-49522931D01*
X144468786Y-49516070D01*
X144388621Y-49350240D01*
X144353789Y-49306607D01*
X144326922Y-49240894D01*
X144339849Y-49171084D01*
X144353785Y-49149398D01*
X144388621Y-49105760D01*
X144396468Y-49089529D01*
X144465720Y-48946272D01*
X144468786Y-48939930D01*
X144498768Y-48810064D01*
X144509020Y-48765659D01*
X144509020Y-48765656D01*
X144510220Y-48760460D01*
X144510500Y-48755604D01*
X144510500Y-47700396D01*
X144510220Y-47695540D01*
X144488288Y-47600540D01*
X144470370Y-47522931D01*
X144468786Y-47516070D01*
X144388621Y-47350240D01*
X144353469Y-47306206D01*
X144326602Y-47240492D01*
X144339529Y-47170683D01*
X144353471Y-47148989D01*
X144383798Y-47111001D01*
X144391262Y-47099148D01*
X144465245Y-46946105D01*
X144469895Y-46932902D01*
X144508520Y-46765601D01*
X144509944Y-46755653D01*
X144510000Y-46753723D01*
X144510000Y-46500115D01*
X144505525Y-46484876D01*
X144504135Y-46483671D01*
X144496452Y-46482000D01*
X141512116Y-46482000D01*
X141496877Y-46486475D01*
X141495672Y-46487865D01*
X141494001Y-46495548D01*
X141494001Y-46753753D01*
X141494055Y-46755644D01*
X141495480Y-46765600D01*
X141534105Y-46932902D01*
X141538755Y-46946105D01*
X141612738Y-47099148D01*
X141620202Y-47111001D01*
X141650529Y-47148989D01*
X141677398Y-47214705D01*
X141664471Y-47284515D01*
X141650535Y-47306201D01*
X141615379Y-47350240D01*
X141535214Y-47516070D01*
X141533630Y-47522931D01*
X141515713Y-47600540D01*
X141493780Y-47695540D01*
X141493500Y-47700396D01*
X141493500Y-48755604D01*
X141493780Y-48760460D01*
X141494980Y-48765656D01*
X141494980Y-48765659D01*
X141505232Y-48810064D01*
X141535214Y-48939930D01*
X141538280Y-48946272D01*
X141607533Y-49089529D01*
X141615379Y-49105760D01*
X141650211Y-49149393D01*
X141677078Y-49215106D01*
X141664151Y-49284916D01*
X141650215Y-49306602D01*
X141615379Y-49350240D01*
X141535214Y-49516070D01*
X141533630Y-49522931D01*
X141504160Y-49650581D01*
X141493780Y-49695540D01*
X141493500Y-49700396D01*
X141493500Y-50755604D01*
X141493780Y-50760460D01*
X141494980Y-50765656D01*
X141494980Y-50765659D01*
X141505232Y-50810064D01*
X141535214Y-50939930D01*
X141538280Y-50946272D01*
X141607533Y-51089529D01*
X141615379Y-51105760D01*
X141650211Y-51149393D01*
X141677078Y-51215106D01*
X141664151Y-51284916D01*
X141650215Y-51306602D01*
X141615379Y-51350240D01*
X141535214Y-51516070D01*
X141533630Y-51522931D01*
X141504160Y-51650581D01*
X141493780Y-51695540D01*
X141493500Y-51700396D01*
X141493500Y-52755604D01*
X135620500Y-52755604D01*
X135620500Y-51700396D01*
X135620220Y-51695540D01*
X135609841Y-51650581D01*
X135580370Y-51522931D01*
X135578786Y-51516070D01*
X135498621Y-51350240D01*
X135463789Y-51306607D01*
X135436922Y-51240894D01*
X135449849Y-51171084D01*
X135463785Y-51149398D01*
X135498621Y-51105760D01*
X135506468Y-51089529D01*
X135575720Y-50946272D01*
X135578786Y-50939930D01*
X135608768Y-50810064D01*
X135619020Y-50765659D01*
X135619020Y-50765656D01*
X135620220Y-50760460D01*
X135620500Y-50755604D01*
X135620500Y-49700396D01*
X135620220Y-49695540D01*
X135609841Y-49650581D01*
X135580370Y-49522931D01*
X135578786Y-49516070D01*
X135498621Y-49350240D01*
X135463789Y-49306607D01*
X135436922Y-49240894D01*
X135449849Y-49171084D01*
X135463785Y-49149398D01*
X135498621Y-49105760D01*
X135506468Y-49089529D01*
X135575720Y-48946272D01*
X135578786Y-48939930D01*
X135608768Y-48810064D01*
X135619020Y-48765659D01*
X135619020Y-48765656D01*
X135620220Y-48760460D01*
X135620500Y-48755604D01*
X135620500Y-47700396D01*
X135620220Y-47695540D01*
X135598288Y-47600540D01*
X135580370Y-47522931D01*
X135578786Y-47516070D01*
X135498621Y-47350240D01*
X135463469Y-47306206D01*
X135436602Y-47240492D01*
X135449529Y-47170683D01*
X135463471Y-47148989D01*
X135493798Y-47111001D01*
X135501262Y-47099148D01*
X135575245Y-46946105D01*
X135579895Y-46932902D01*
X135618520Y-46765601D01*
X135619944Y-46755653D01*
X135620000Y-46753723D01*
X135620000Y-46500115D01*
X135615525Y-46484876D01*
X135614135Y-46483671D01*
X135606452Y-46482000D01*
X132622116Y-46482000D01*
X132606877Y-46486475D01*
X132605672Y-46487865D01*
X132604001Y-46495548D01*
X132604001Y-46753753D01*
X132604055Y-46755644D01*
X132605480Y-46765600D01*
X132644105Y-46932902D01*
X132648755Y-46946105D01*
X132722738Y-47099148D01*
X132730202Y-47111001D01*
X132760529Y-47148989D01*
X132787398Y-47214705D01*
X132774471Y-47284515D01*
X132760535Y-47306201D01*
X132725379Y-47350240D01*
X132645214Y-47516070D01*
X132643630Y-47522931D01*
X132625713Y-47600540D01*
X132603780Y-47695540D01*
X132603500Y-47700396D01*
X132603500Y-48755604D01*
X132603780Y-48760460D01*
X132604980Y-48765656D01*
X132604980Y-48765659D01*
X132615232Y-48810064D01*
X132645214Y-48939930D01*
X132648280Y-48946272D01*
X132717533Y-49089529D01*
X132725379Y-49105760D01*
X132760211Y-49149393D01*
X132787078Y-49215106D01*
X132774151Y-49284916D01*
X132760215Y-49306602D01*
X132725379Y-49350240D01*
X132645214Y-49516070D01*
X132643630Y-49522931D01*
X132614160Y-49650581D01*
X132603780Y-49695540D01*
X132603500Y-49700396D01*
X132603500Y-50755604D01*
X132603780Y-50760460D01*
X132604980Y-50765656D01*
X132604980Y-50765659D01*
X132615232Y-50810064D01*
X132645214Y-50939930D01*
X132648280Y-50946272D01*
X132717533Y-51089529D01*
X132725379Y-51105760D01*
X132760211Y-51149393D01*
X132787078Y-51215106D01*
X132774151Y-51284916D01*
X132760215Y-51306602D01*
X132725379Y-51350240D01*
X132645214Y-51516070D01*
X132643630Y-51522931D01*
X132614160Y-51650581D01*
X132603780Y-51695540D01*
X132603500Y-51700396D01*
X132603500Y-52755604D01*
X126730500Y-52755604D01*
X126730500Y-51700396D01*
X126730220Y-51695540D01*
X126719841Y-51650581D01*
X126690370Y-51522931D01*
X126688786Y-51516070D01*
X126608621Y-51350240D01*
X126573789Y-51306607D01*
X126546922Y-51240894D01*
X126559849Y-51171084D01*
X126573785Y-51149398D01*
X126608621Y-51105760D01*
X126616468Y-51089529D01*
X126685720Y-50946272D01*
X126688786Y-50939930D01*
X126718768Y-50810064D01*
X126729020Y-50765659D01*
X126729020Y-50765656D01*
X126730220Y-50760460D01*
X126730500Y-50755604D01*
X126730500Y-49700396D01*
X126730220Y-49695540D01*
X126719841Y-49650581D01*
X126690370Y-49522931D01*
X126688786Y-49516070D01*
X126608621Y-49350240D01*
X126573789Y-49306607D01*
X126546922Y-49240894D01*
X126559849Y-49171084D01*
X126573785Y-49149398D01*
X126608621Y-49105760D01*
X126616468Y-49089529D01*
X126685720Y-48946272D01*
X126688786Y-48939930D01*
X126718768Y-48810064D01*
X126729020Y-48765659D01*
X126729020Y-48765656D01*
X126730220Y-48760460D01*
X126730500Y-48755604D01*
X126730500Y-47700396D01*
X126730220Y-47695540D01*
X126708288Y-47600540D01*
X126690370Y-47522931D01*
X126688786Y-47516070D01*
X126608621Y-47350240D01*
X126573469Y-47306206D01*
X126546602Y-47240492D01*
X126559529Y-47170683D01*
X126573471Y-47148989D01*
X126603798Y-47111001D01*
X126611262Y-47099148D01*
X126685245Y-46946105D01*
X126689895Y-46932902D01*
X126728520Y-46765601D01*
X126729944Y-46755653D01*
X126730000Y-46753723D01*
X126730000Y-46500115D01*
X126725525Y-46484876D01*
X126724135Y-46483671D01*
X126716452Y-46482000D01*
X123732116Y-46482000D01*
X123716877Y-46486475D01*
X123715672Y-46487865D01*
X123714001Y-46495548D01*
X123714001Y-46753753D01*
X123714055Y-46755644D01*
X123715480Y-46765600D01*
X123754105Y-46932902D01*
X123758755Y-46946105D01*
X123832738Y-47099148D01*
X123840202Y-47111001D01*
X123870529Y-47148989D01*
X123897398Y-47214705D01*
X123884471Y-47284515D01*
X123870535Y-47306201D01*
X123835379Y-47350240D01*
X123755214Y-47516070D01*
X123753630Y-47522931D01*
X123735713Y-47600540D01*
X123713780Y-47695540D01*
X123713500Y-47700396D01*
X123713500Y-48755604D01*
X123713780Y-48760460D01*
X123714980Y-48765656D01*
X123714980Y-48765659D01*
X123725232Y-48810064D01*
X123755214Y-48939930D01*
X123758280Y-48946272D01*
X123827533Y-49089529D01*
X123835379Y-49105760D01*
X123870211Y-49149393D01*
X123897078Y-49215106D01*
X123884151Y-49284916D01*
X123870215Y-49306602D01*
X123835379Y-49350240D01*
X123755214Y-49516070D01*
X123753630Y-49522931D01*
X123724160Y-49650581D01*
X123713780Y-49695540D01*
X123713500Y-49700396D01*
X123713500Y-50755604D01*
X123713780Y-50760460D01*
X123714980Y-50765656D01*
X123714980Y-50765659D01*
X123725232Y-50810064D01*
X123755214Y-50939930D01*
X123758280Y-50946272D01*
X123827533Y-51089529D01*
X123835379Y-51105760D01*
X123870211Y-51149393D01*
X123897078Y-51215106D01*
X123884151Y-51284916D01*
X123870215Y-51306602D01*
X123835379Y-51350240D01*
X123755214Y-51516070D01*
X123753630Y-51522931D01*
X123724160Y-51650581D01*
X123713780Y-51695540D01*
X123713500Y-51700396D01*
X123713500Y-52755604D01*
X116062500Y-52755604D01*
X116062500Y-51700396D01*
X116062220Y-51695540D01*
X116051841Y-51650581D01*
X116022370Y-51522931D01*
X116020786Y-51516070D01*
X115940621Y-51350240D01*
X115905789Y-51306607D01*
X115878922Y-51240894D01*
X115891849Y-51171084D01*
X115905785Y-51149398D01*
X115940621Y-51105760D01*
X115948468Y-51089529D01*
X116017720Y-50946272D01*
X116020786Y-50939930D01*
X116050768Y-50810064D01*
X116061020Y-50765659D01*
X116061020Y-50765656D01*
X116062220Y-50760460D01*
X116062500Y-50755604D01*
X116062500Y-49700396D01*
X116062220Y-49695540D01*
X116051841Y-49650581D01*
X116022370Y-49522931D01*
X116020786Y-49516070D01*
X115940621Y-49350240D01*
X115905789Y-49306607D01*
X115878922Y-49240894D01*
X115891849Y-49171084D01*
X115905785Y-49149398D01*
X115940621Y-49105760D01*
X115948468Y-49089529D01*
X116017720Y-48946272D01*
X116020786Y-48939930D01*
X116050768Y-48810064D01*
X116061020Y-48765659D01*
X116061020Y-48765656D01*
X116062220Y-48760460D01*
X116062500Y-48755604D01*
X116062500Y-47700396D01*
X116062220Y-47695540D01*
X116040288Y-47600540D01*
X116022370Y-47522931D01*
X116020786Y-47516070D01*
X115940621Y-47350240D01*
X115905469Y-47306206D01*
X115878602Y-47240492D01*
X115891529Y-47170683D01*
X115905471Y-47148989D01*
X115935798Y-47111001D01*
X115943262Y-47099148D01*
X116017245Y-46946105D01*
X116021895Y-46932902D01*
X116060520Y-46765601D01*
X116061944Y-46755653D01*
X116062000Y-46753723D01*
X116062000Y-46500115D01*
X116057525Y-46484876D01*
X116056135Y-46483671D01*
X116048452Y-46482000D01*
X113064116Y-46482000D01*
X113048877Y-46486475D01*
X113047672Y-46487865D01*
X113046001Y-46495548D01*
X113046001Y-46753753D01*
X113046055Y-46755644D01*
X113047480Y-46765600D01*
X113086105Y-46932902D01*
X113090755Y-46946105D01*
X113164738Y-47099148D01*
X113172202Y-47111001D01*
X113202529Y-47148989D01*
X113229398Y-47214705D01*
X113216471Y-47284515D01*
X113202535Y-47306201D01*
X113167379Y-47350240D01*
X113087214Y-47516070D01*
X113085630Y-47522931D01*
X113067713Y-47600540D01*
X113045780Y-47695540D01*
X113045500Y-47700396D01*
X113045500Y-48755604D01*
X113045780Y-48760460D01*
X113046980Y-48765656D01*
X113046980Y-48765659D01*
X113057232Y-48810064D01*
X113087214Y-48939930D01*
X113090280Y-48946272D01*
X113159533Y-49089529D01*
X113167379Y-49105760D01*
X113202211Y-49149393D01*
X113229078Y-49215106D01*
X113216151Y-49284916D01*
X113202215Y-49306602D01*
X113167379Y-49350240D01*
X113087214Y-49516070D01*
X113085630Y-49522931D01*
X113056160Y-49650581D01*
X113045780Y-49695540D01*
X113045500Y-49700396D01*
X113045500Y-50755604D01*
X113045780Y-50760460D01*
X113046980Y-50765656D01*
X113046980Y-50765659D01*
X113057232Y-50810064D01*
X113087214Y-50939930D01*
X113090280Y-50946272D01*
X113159533Y-51089529D01*
X113167379Y-51105760D01*
X113202211Y-51149393D01*
X113229078Y-51215106D01*
X113216151Y-51284916D01*
X113202215Y-51306602D01*
X113167379Y-51350240D01*
X113087214Y-51516070D01*
X113085630Y-51522931D01*
X113056160Y-51650581D01*
X113045780Y-51695540D01*
X113045500Y-51700396D01*
X113045500Y-52755604D01*
X113045780Y-52760460D01*
X113046980Y-52765656D01*
X113046980Y-52765659D01*
X113081629Y-52915740D01*
X113087214Y-52939930D01*
X113090280Y-52946272D01*
X113160933Y-53092425D01*
X113167379Y-53105760D01*
X113202211Y-53149393D01*
X113229078Y-53215106D01*
X113216151Y-53284916D01*
X113202215Y-53306602D01*
X113167379Y-53350240D01*
X113164313Y-53356583D01*
X113164312Y-53356584D01*
X113147484Y-53391395D01*
X113087214Y-53516070D01*
X113085630Y-53522931D01*
X113050843Y-53673611D01*
X113045780Y-53695540D01*
X113045500Y-53700396D01*
X113045500Y-54755604D01*
X108061500Y-54755604D01*
X108061500Y-53700396D01*
X108061220Y-53695540D01*
X108056158Y-53673611D01*
X108021370Y-53522931D01*
X108019786Y-53516070D01*
X107959516Y-53391395D01*
X107942688Y-53356584D01*
X107942687Y-53356583D01*
X107939621Y-53350240D01*
X107904789Y-53306607D01*
X107877922Y-53240894D01*
X107890849Y-53171084D01*
X107904785Y-53149398D01*
X107939621Y-53105760D01*
X107946068Y-53092425D01*
X108016720Y-52946272D01*
X108019786Y-52939930D01*
X108025371Y-52915740D01*
X108060020Y-52765659D01*
X108060020Y-52765656D01*
X108061220Y-52760460D01*
X108061500Y-52755604D01*
X108061500Y-51700396D01*
X108061220Y-51695540D01*
X108050841Y-51650581D01*
X108021370Y-51522931D01*
X108019786Y-51516070D01*
X107939621Y-51350240D01*
X107904789Y-51306607D01*
X107877922Y-51240894D01*
X107890849Y-51171084D01*
X107904785Y-51149398D01*
X107939621Y-51105760D01*
X107947468Y-51089529D01*
X108016720Y-50946272D01*
X108019786Y-50939930D01*
X108049768Y-50810064D01*
X108060020Y-50765659D01*
X108060020Y-50765656D01*
X108061220Y-50760460D01*
X108061500Y-50755604D01*
X108061500Y-49700396D01*
X108061220Y-49695540D01*
X108050841Y-49650581D01*
X108021370Y-49522931D01*
X108019786Y-49516070D01*
X107939621Y-49350240D01*
X107904789Y-49306607D01*
X107877922Y-49240894D01*
X107890849Y-49171084D01*
X107904785Y-49149398D01*
X107939621Y-49105760D01*
X107947468Y-49089529D01*
X108016720Y-48946272D01*
X108019786Y-48939930D01*
X108049768Y-48810064D01*
X108060020Y-48765659D01*
X108060020Y-48765656D01*
X108061220Y-48760460D01*
X108061500Y-48755604D01*
X108061500Y-47700396D01*
X108061220Y-47695540D01*
X108039288Y-47600540D01*
X108021370Y-47522931D01*
X108019786Y-47516070D01*
X107939621Y-47350240D01*
X107904469Y-47306206D01*
X107877602Y-47240492D01*
X107890529Y-47170683D01*
X107904471Y-47148989D01*
X107934798Y-47111001D01*
X107942262Y-47099148D01*
X108016245Y-46946105D01*
X108020895Y-46932902D01*
X108059520Y-46765601D01*
X108060944Y-46755653D01*
X108061000Y-46753723D01*
X108061000Y-46500115D01*
X108056525Y-46484876D01*
X108055135Y-46483671D01*
X108047452Y-46482000D01*
X105063116Y-46482000D01*
X105047877Y-46486475D01*
X105046672Y-46487865D01*
X105045001Y-46495548D01*
X105045001Y-46753753D01*
X105045055Y-46755644D01*
X105046480Y-46765600D01*
X105085105Y-46932902D01*
X105089755Y-46946105D01*
X105163738Y-47099148D01*
X105171202Y-47111001D01*
X105201529Y-47148989D01*
X105228398Y-47214705D01*
X105215471Y-47284515D01*
X105201535Y-47306201D01*
X105166379Y-47350240D01*
X105086214Y-47516070D01*
X105084630Y-47522931D01*
X105066713Y-47600540D01*
X105044780Y-47695540D01*
X105044500Y-47700396D01*
X105044500Y-48755604D01*
X105044780Y-48760460D01*
X105045980Y-48765656D01*
X105045980Y-48765659D01*
X105056232Y-48810064D01*
X105086214Y-48939930D01*
X105089280Y-48946272D01*
X105158533Y-49089529D01*
X105166379Y-49105760D01*
X105201211Y-49149393D01*
X105228078Y-49215106D01*
X105215151Y-49284916D01*
X105201215Y-49306602D01*
X105166379Y-49350240D01*
X105086214Y-49516070D01*
X105084630Y-49522931D01*
X105055160Y-49650581D01*
X105044780Y-49695540D01*
X105044500Y-49700396D01*
X105044500Y-50755604D01*
X105044780Y-50760460D01*
X105045980Y-50765656D01*
X105045980Y-50765659D01*
X105056232Y-50810064D01*
X105086214Y-50939930D01*
X105089280Y-50946272D01*
X105158533Y-51089529D01*
X105166379Y-51105760D01*
X105201211Y-51149393D01*
X105228078Y-51215106D01*
X105215151Y-51284916D01*
X105201215Y-51306602D01*
X105166379Y-51350240D01*
X105086214Y-51516070D01*
X105084630Y-51522931D01*
X105055160Y-51650581D01*
X105044780Y-51695540D01*
X105044500Y-51700396D01*
X105044500Y-52755604D01*
X105044780Y-52760460D01*
X105045980Y-52765656D01*
X105045980Y-52765659D01*
X105080629Y-52915740D01*
X105086214Y-52939930D01*
X105089280Y-52946272D01*
X105159933Y-53092425D01*
X105166379Y-53105760D01*
X105201211Y-53149393D01*
X105228078Y-53215106D01*
X105215151Y-53284916D01*
X105201215Y-53306602D01*
X105166379Y-53350240D01*
X105163313Y-53356583D01*
X105163312Y-53356584D01*
X105146484Y-53391395D01*
X105086214Y-53516070D01*
X105084630Y-53522931D01*
X105049843Y-53673611D01*
X105044780Y-53695540D01*
X105044500Y-53700396D01*
X105044500Y-54755604D01*
X102293428Y-54755604D01*
X102332535Y-54592711D01*
X102351165Y-54356000D01*
X102332535Y-54119289D01*
X102277105Y-53888406D01*
X102199985Y-53702220D01*
X102188135Y-53673611D01*
X102188133Y-53673607D01*
X102186240Y-53669037D01*
X102096706Y-53522931D01*
X102064759Y-53470798D01*
X102064755Y-53470792D01*
X102062176Y-53466584D01*
X101907969Y-53286031D01*
X101727416Y-53131824D01*
X101723208Y-53129245D01*
X101723202Y-53129241D01*
X101529183Y-53010346D01*
X101524963Y-53007760D01*
X101520393Y-53005867D01*
X101520389Y-53005865D01*
X101310167Y-52918789D01*
X101310165Y-52918788D01*
X101305594Y-52916895D01*
X101225391Y-52897640D01*
X101079524Y-52862620D01*
X101079518Y-52862619D01*
X101074711Y-52861465D01*
X100838000Y-52842835D01*
X100601289Y-52861465D01*
X100596482Y-52862619D01*
X100596476Y-52862620D01*
X100450609Y-52897640D01*
X100370406Y-52916895D01*
X100365835Y-52918788D01*
X100365833Y-52918789D01*
X100155611Y-53005865D01*
X100155607Y-53005867D01*
X100151037Y-53007760D01*
X100146817Y-53010346D01*
X99952798Y-53129241D01*
X99952792Y-53129245D01*
X99948584Y-53131824D01*
X99768031Y-53286031D01*
X99613824Y-53466584D01*
X99611245Y-53470792D01*
X99611241Y-53470798D01*
X99579294Y-53522931D01*
X99489760Y-53669037D01*
X99487867Y-53673607D01*
X99487865Y-53673611D01*
X99476015Y-53702220D01*
X99398895Y-53888406D01*
X99343465Y-54119289D01*
X99324835Y-54356000D01*
X88460000Y-54356000D01*
X88460000Y-52400728D01*
X93598114Y-52400728D01*
X93598166Y-52400973D01*
X93660898Y-52604883D01*
X93665119Y-52615229D01*
X93762971Y-52804814D01*
X93768957Y-52814245D01*
X93898832Y-52983501D01*
X93906393Y-52991724D01*
X94064194Y-53135312D01*
X94073094Y-53142067D01*
X94253815Y-53255434D01*
X94263781Y-53260511D01*
X94461714Y-53340080D01*
X94472429Y-53343315D01*
X94682301Y-53386777D01*
X94691438Y-53387980D01*
X94741990Y-53390895D01*
X94745637Y-53391000D01*
X94809885Y-53391000D01*
X94825124Y-53386525D01*
X94826329Y-53385135D01*
X94828000Y-53377452D01*
X94828000Y-52405115D01*
X94823525Y-52389876D01*
X94822135Y-52388671D01*
X94814452Y-52387000D01*
X93613589Y-52387000D01*
X93599607Y-52391105D01*
X93598114Y-52400728D01*
X88460000Y-52400728D01*
X88460000Y-50172690D01*
X93569037Y-50172690D01*
X93596025Y-50395715D01*
X93662082Y-50610435D01*
X93664652Y-50615415D01*
X93664654Y-50615419D01*
X93742199Y-50765659D01*
X93765118Y-50810064D01*
X93901877Y-50988292D01*
X93906016Y-50992058D01*
X93906025Y-50992068D01*
X93958502Y-51039818D01*
X93995424Y-51100458D01*
X93993701Y-51171434D01*
X93964186Y-51220696D01*
X93854307Y-51334082D01*
X93847265Y-51342779D01*
X93728281Y-51519844D01*
X93722895Y-51529642D01*
X93637143Y-51724990D01*
X93633578Y-51735582D01*
X93603376Y-51861384D01*
X93604081Y-51875470D01*
X93612960Y-51879000D01*
X95210000Y-51879000D01*
X95278121Y-51899002D01*
X95324614Y-51952658D01*
X95336000Y-52005000D01*
X95336000Y-53372885D01*
X95340475Y-53388124D01*
X95341865Y-53389329D01*
X95349548Y-53391000D01*
X95386175Y-53391000D01*
X95391770Y-53390751D01*
X95550078Y-53376622D01*
X95561092Y-53374640D01*
X95766860Y-53318349D01*
X95777341Y-53314451D01*
X95969903Y-53222603D01*
X95979516Y-53216918D01*
X96152767Y-53092425D01*
X96161233Y-53085117D01*
X96192026Y-53053341D01*
X96253796Y-53018342D01*
X96324682Y-53022293D01*
X96367309Y-53047832D01*
X96463450Y-53135312D01*
X96468036Y-53139485D01*
X96472783Y-53142463D01*
X96472786Y-53142465D01*
X96601229Y-53223036D01*
X96658344Y-53258864D01*
X96866783Y-53342656D01*
X97086767Y-53388213D01*
X97091378Y-53388479D01*
X97091379Y-53388479D01*
X97141952Y-53391395D01*
X97141956Y-53391395D01*
X97143775Y-53391500D01*
X97788999Y-53391500D01*
X97791786Y-53391251D01*
X97791792Y-53391251D01*
X97861929Y-53384991D01*
X97955762Y-53376617D01*
X97961176Y-53375136D01*
X97961181Y-53375135D01*
X98089317Y-53340080D01*
X98172451Y-53317337D01*
X98177509Y-53314925D01*
X98177513Y-53314923D01*
X98295042Y-53258864D01*
X98375218Y-53220622D01*
X98557654Y-53089529D01*
X98655760Y-52988292D01*
X98710089Y-52932229D01*
X98710091Y-52932226D01*
X98713992Y-52928201D01*
X98839290Y-52741738D01*
X98929588Y-52536033D01*
X98964678Y-52389876D01*
X98980722Y-52323046D01*
X98980722Y-52323045D01*
X98982032Y-52317589D01*
X98994963Y-52093310D01*
X98967975Y-51870285D01*
X98901918Y-51655565D01*
X98836925Y-51529642D01*
X98801454Y-51460919D01*
X98801454Y-51460918D01*
X98798882Y-51455936D01*
X98662123Y-51277708D01*
X98657978Y-51273937D01*
X98657975Y-51273933D01*
X98605869Y-51226520D01*
X98568946Y-51165879D01*
X98570669Y-51094904D01*
X98600183Y-51045642D01*
X98713992Y-50928201D01*
X98839290Y-50741738D01*
X98929588Y-50536033D01*
X98982032Y-50317589D01*
X98994963Y-50093310D01*
X98967975Y-49870285D01*
X98901918Y-49655565D01*
X98836798Y-49529396D01*
X98801454Y-49460919D01*
X98801454Y-49460918D01*
X98798882Y-49455936D01*
X98795468Y-49451487D01*
X98795465Y-49451482D01*
X98713629Y-49344830D01*
X98688029Y-49278610D01*
X98702294Y-49209061D01*
X98734980Y-49169658D01*
X98753708Y-49154708D01*
X98868621Y-49010760D01*
X98879483Y-48988292D01*
X98945720Y-48851272D01*
X98948786Y-48844930D01*
X98955809Y-48814512D01*
X98989020Y-48670659D01*
X98989020Y-48670656D01*
X98990220Y-48665460D01*
X98990500Y-48660604D01*
X98990500Y-47605396D01*
X98990220Y-47600540D01*
X98948786Y-47421070D01*
X98868621Y-47255240D01*
X98753708Y-47111292D01*
X98609760Y-46996379D01*
X98443930Y-46916214D01*
X98334132Y-46890865D01*
X98269659Y-46875980D01*
X98269656Y-46875980D01*
X98264460Y-46874780D01*
X98259604Y-46874500D01*
X96704396Y-46874500D01*
X96699540Y-46874780D01*
X96694344Y-46875980D01*
X96694341Y-46875980D01*
X96629868Y-46890865D01*
X96520070Y-46916214D01*
X96354240Y-46996379D01*
X96219156Y-47104216D01*
X96153442Y-47131083D01*
X96083632Y-47118156D01*
X96073593Y-47112482D01*
X95971836Y-47048650D01*
X95905656Y-47007136D01*
X95697217Y-46923344D01*
X95477233Y-46877787D01*
X95472622Y-46877521D01*
X95472621Y-46877521D01*
X95422048Y-46874605D01*
X95422044Y-46874605D01*
X95420225Y-46874500D01*
X94775001Y-46874500D01*
X94772214Y-46874749D01*
X94772208Y-46874749D01*
X94702071Y-46881009D01*
X94608238Y-46889383D01*
X94602824Y-46890864D01*
X94602819Y-46890865D01*
X94515951Y-46914630D01*
X94391549Y-46948663D01*
X94386491Y-46951075D01*
X94386487Y-46951077D01*
X94291510Y-46996379D01*
X94188782Y-47045378D01*
X94006346Y-47176471D01*
X93850008Y-47337799D01*
X93724710Y-47524262D01*
X93634412Y-47729967D01*
X93581968Y-47948411D01*
X93569037Y-48172690D01*
X93596025Y-48395715D01*
X93662082Y-48610435D01*
X93664652Y-48615415D01*
X93664654Y-48615419D01*
X93742199Y-48765659D01*
X93765118Y-48810064D01*
X93901877Y-48988292D01*
X93906022Y-48992063D01*
X93906025Y-48992067D01*
X93958131Y-49039480D01*
X93995054Y-49100121D01*
X93993331Y-49171096D01*
X93963817Y-49220358D01*
X93850008Y-49337799D01*
X93724710Y-49524262D01*
X93634412Y-49729967D01*
X93581968Y-49948411D01*
X93569037Y-50172690D01*
X88460000Y-50172690D01*
X88460000Y-45955885D01*
X105045000Y-45955885D01*
X105049475Y-45971124D01*
X105050865Y-45972329D01*
X105058548Y-45974000D01*
X106280885Y-45974000D01*
X106296124Y-45969525D01*
X106297329Y-45968135D01*
X106299000Y-45960452D01*
X106299000Y-45955885D01*
X106807000Y-45955885D01*
X106811475Y-45971124D01*
X106812865Y-45972329D01*
X106820548Y-45974000D01*
X108042884Y-45974000D01*
X108058123Y-45969525D01*
X108059328Y-45968135D01*
X108060999Y-45960452D01*
X108060999Y-45955885D01*
X113046000Y-45955885D01*
X113050475Y-45971124D01*
X113051865Y-45972329D01*
X113059548Y-45974000D01*
X114281885Y-45974000D01*
X114297124Y-45969525D01*
X114298329Y-45968135D01*
X114300000Y-45960452D01*
X114300000Y-45955885D01*
X114808000Y-45955885D01*
X114812475Y-45971124D01*
X114813865Y-45972329D01*
X114821548Y-45974000D01*
X116043884Y-45974000D01*
X116059123Y-45969525D01*
X116060328Y-45968135D01*
X116061999Y-45960452D01*
X116061999Y-45955885D01*
X123714000Y-45955885D01*
X123718475Y-45971124D01*
X123719865Y-45972329D01*
X123727548Y-45974000D01*
X124949885Y-45974000D01*
X124965124Y-45969525D01*
X124966329Y-45968135D01*
X124968000Y-45960452D01*
X124968000Y-45955885D01*
X125476000Y-45955885D01*
X125480475Y-45971124D01*
X125481865Y-45972329D01*
X125489548Y-45974000D01*
X126711884Y-45974000D01*
X126727123Y-45969525D01*
X126728328Y-45968135D01*
X126729999Y-45960452D01*
X126729999Y-45955885D01*
X132604000Y-45955885D01*
X132608475Y-45971124D01*
X132609865Y-45972329D01*
X132617548Y-45974000D01*
X133839885Y-45974000D01*
X133855124Y-45969525D01*
X133856329Y-45968135D01*
X133858000Y-45960452D01*
X133858000Y-45955885D01*
X134366000Y-45955885D01*
X134370475Y-45971124D01*
X134371865Y-45972329D01*
X134379548Y-45974000D01*
X135601884Y-45974000D01*
X135617123Y-45969525D01*
X135618328Y-45968135D01*
X135619999Y-45960452D01*
X135619999Y-45955885D01*
X141494000Y-45955885D01*
X141498475Y-45971124D01*
X141499865Y-45972329D01*
X141507548Y-45974000D01*
X142729885Y-45974000D01*
X142745124Y-45969525D01*
X142746329Y-45968135D01*
X142748000Y-45960452D01*
X142748000Y-45955885D01*
X143256000Y-45955885D01*
X143260475Y-45971124D01*
X143261865Y-45972329D01*
X143269548Y-45974000D01*
X144491884Y-45974000D01*
X144507123Y-45969525D01*
X144508328Y-45968135D01*
X144509999Y-45960452D01*
X144509999Y-45702247D01*
X144509945Y-45700356D01*
X144508520Y-45690400D01*
X144469895Y-45523098D01*
X144465245Y-45509895D01*
X144391262Y-45356852D01*
X144383798Y-45345000D01*
X144277745Y-45212151D01*
X144267849Y-45202255D01*
X144135000Y-45096202D01*
X144123148Y-45088738D01*
X143970105Y-45014755D01*
X143956902Y-45010105D01*
X143789601Y-44971480D01*
X143779653Y-44970056D01*
X143777723Y-44970000D01*
X143274115Y-44970000D01*
X143258876Y-44974475D01*
X143257671Y-44975865D01*
X143256000Y-44983548D01*
X143256000Y-45955885D01*
X142748000Y-45955885D01*
X142748000Y-44988116D01*
X142743525Y-44972877D01*
X142742135Y-44971672D01*
X142734452Y-44970001D01*
X142226247Y-44970001D01*
X142224356Y-44970055D01*
X142214400Y-44971480D01*
X142047098Y-45010105D01*
X142033895Y-45014755D01*
X141880852Y-45088738D01*
X141869000Y-45096202D01*
X141736151Y-45202255D01*
X141726255Y-45212151D01*
X141620202Y-45345000D01*
X141612738Y-45356852D01*
X141538755Y-45509895D01*
X141534105Y-45523098D01*
X141495480Y-45690399D01*
X141494056Y-45700347D01*
X141494000Y-45702277D01*
X141494000Y-45955885D01*
X135619999Y-45955885D01*
X135619999Y-45702247D01*
X135619945Y-45700356D01*
X135618520Y-45690400D01*
X135579895Y-45523098D01*
X135575245Y-45509895D01*
X135501262Y-45356852D01*
X135493798Y-45345000D01*
X135387745Y-45212151D01*
X135377849Y-45202255D01*
X135245000Y-45096202D01*
X135233148Y-45088738D01*
X135080105Y-45014755D01*
X135066902Y-45010105D01*
X134899601Y-44971480D01*
X134889653Y-44970056D01*
X134887723Y-44970000D01*
X134384115Y-44970000D01*
X134368876Y-44974475D01*
X134367671Y-44975865D01*
X134366000Y-44983548D01*
X134366000Y-45955885D01*
X133858000Y-45955885D01*
X133858000Y-44988116D01*
X133853525Y-44972877D01*
X133852135Y-44971672D01*
X133844452Y-44970001D01*
X133336247Y-44970001D01*
X133334356Y-44970055D01*
X133324400Y-44971480D01*
X133157098Y-45010105D01*
X133143895Y-45014755D01*
X132990852Y-45088738D01*
X132979000Y-45096202D01*
X132846151Y-45202255D01*
X132836255Y-45212151D01*
X132730202Y-45345000D01*
X132722738Y-45356852D01*
X132648755Y-45509895D01*
X132644105Y-45523098D01*
X132605480Y-45690399D01*
X132604056Y-45700347D01*
X132604000Y-45702277D01*
X132604000Y-45955885D01*
X126729999Y-45955885D01*
X126729999Y-45702247D01*
X126729945Y-45700356D01*
X126728520Y-45690400D01*
X126689895Y-45523098D01*
X126685245Y-45509895D01*
X126611262Y-45356852D01*
X126603798Y-45345000D01*
X126497745Y-45212151D01*
X126487849Y-45202255D01*
X126355000Y-45096202D01*
X126343148Y-45088738D01*
X126190105Y-45014755D01*
X126176902Y-45010105D01*
X126009601Y-44971480D01*
X125999653Y-44970056D01*
X125997723Y-44970000D01*
X125494115Y-44970000D01*
X125478876Y-44974475D01*
X125477671Y-44975865D01*
X125476000Y-44983548D01*
X125476000Y-45955885D01*
X124968000Y-45955885D01*
X124968000Y-44988116D01*
X124963525Y-44972877D01*
X124962135Y-44971672D01*
X124954452Y-44970001D01*
X124446247Y-44970001D01*
X124444356Y-44970055D01*
X124434400Y-44971480D01*
X124267098Y-45010105D01*
X124253895Y-45014755D01*
X124100852Y-45088738D01*
X124089000Y-45096202D01*
X123956151Y-45202255D01*
X123946255Y-45212151D01*
X123840202Y-45345000D01*
X123832738Y-45356852D01*
X123758755Y-45509895D01*
X123754105Y-45523098D01*
X123715480Y-45690399D01*
X123714056Y-45700347D01*
X123714000Y-45702277D01*
X123714000Y-45955885D01*
X116061999Y-45955885D01*
X116061999Y-45702247D01*
X116061945Y-45700356D01*
X116060520Y-45690400D01*
X116021895Y-45523098D01*
X116017245Y-45509895D01*
X115943262Y-45356852D01*
X115935798Y-45345000D01*
X115829745Y-45212151D01*
X115819849Y-45202255D01*
X115687000Y-45096202D01*
X115675148Y-45088738D01*
X115522105Y-45014755D01*
X115508902Y-45010105D01*
X115341601Y-44971480D01*
X115331653Y-44970056D01*
X115329723Y-44970000D01*
X114826115Y-44970000D01*
X114810876Y-44974475D01*
X114809671Y-44975865D01*
X114808000Y-44983548D01*
X114808000Y-45955885D01*
X114300000Y-45955885D01*
X114300000Y-44988116D01*
X114295525Y-44972877D01*
X114294135Y-44971672D01*
X114286452Y-44970001D01*
X113778247Y-44970001D01*
X113776356Y-44970055D01*
X113766400Y-44971480D01*
X113599098Y-45010105D01*
X113585895Y-45014755D01*
X113432852Y-45088738D01*
X113421000Y-45096202D01*
X113288151Y-45202255D01*
X113278255Y-45212151D01*
X113172202Y-45345000D01*
X113164738Y-45356852D01*
X113090755Y-45509895D01*
X113086105Y-45523098D01*
X113047480Y-45690399D01*
X113046056Y-45700347D01*
X113046000Y-45702277D01*
X113046000Y-45955885D01*
X108060999Y-45955885D01*
X108060999Y-45702247D01*
X108060945Y-45700356D01*
X108059520Y-45690400D01*
X108020895Y-45523098D01*
X108016245Y-45509895D01*
X107942262Y-45356852D01*
X107934798Y-45345000D01*
X107828745Y-45212151D01*
X107818849Y-45202255D01*
X107686000Y-45096202D01*
X107674148Y-45088738D01*
X107521105Y-45014755D01*
X107507902Y-45010105D01*
X107340601Y-44971480D01*
X107330653Y-44970056D01*
X107328723Y-44970000D01*
X106825115Y-44970000D01*
X106809876Y-44974475D01*
X106808671Y-44975865D01*
X106807000Y-44983548D01*
X106807000Y-45955885D01*
X106299000Y-45955885D01*
X106299000Y-44988116D01*
X106294525Y-44972877D01*
X106293135Y-44971672D01*
X106285452Y-44970001D01*
X105777247Y-44970001D01*
X105775356Y-44970055D01*
X105765400Y-44971480D01*
X105598098Y-45010105D01*
X105584895Y-45014755D01*
X105431852Y-45088738D01*
X105420000Y-45096202D01*
X105287151Y-45202255D01*
X105277255Y-45212151D01*
X105171202Y-45345000D01*
X105163738Y-45356852D01*
X105089755Y-45509895D01*
X105085105Y-45523098D01*
X105046480Y-45690399D01*
X105045056Y-45700347D01*
X105045000Y-45702277D01*
X105045000Y-45955885D01*
X88460000Y-45955885D01*
X88460000Y-44196000D01*
X99324835Y-44196000D01*
X99343465Y-44432711D01*
X99398895Y-44663594D01*
X99489760Y-44882963D01*
X99492346Y-44887183D01*
X99611241Y-45081202D01*
X99611245Y-45081208D01*
X99613824Y-45085416D01*
X99768031Y-45265969D01*
X99948584Y-45420176D01*
X99952792Y-45422755D01*
X99952798Y-45422759D01*
X100146817Y-45541654D01*
X100151037Y-45544240D01*
X100155607Y-45546133D01*
X100155611Y-45546135D01*
X100365833Y-45633211D01*
X100370406Y-45635105D01*
X100450609Y-45654360D01*
X100596476Y-45689380D01*
X100596482Y-45689381D01*
X100601289Y-45690535D01*
X100838000Y-45709165D01*
X101074711Y-45690535D01*
X101079518Y-45689381D01*
X101079524Y-45689380D01*
X101225391Y-45654360D01*
X101305594Y-45635105D01*
X101310167Y-45633211D01*
X101520389Y-45546135D01*
X101520393Y-45546133D01*
X101524963Y-45544240D01*
X101529183Y-45541654D01*
X101723202Y-45422759D01*
X101723208Y-45422755D01*
X101727416Y-45420176D01*
X101907969Y-45265969D01*
X102062176Y-45085416D01*
X102064755Y-45081208D01*
X102064759Y-45081202D01*
X102183654Y-44887183D01*
X102186240Y-44882963D01*
X102277105Y-44663594D01*
X102332535Y-44432711D01*
X102351165Y-44196000D01*
X102332535Y-43959289D01*
X102277105Y-43728406D01*
X102186240Y-43509037D01*
X102183654Y-43504817D01*
X102064759Y-43310798D01*
X102064755Y-43310792D01*
X102062176Y-43306584D01*
X101907969Y-43126031D01*
X101727416Y-42971824D01*
X101723208Y-42969245D01*
X101723202Y-42969241D01*
X101529183Y-42850346D01*
X101524963Y-42847760D01*
X101520393Y-42845867D01*
X101520389Y-42845865D01*
X101310167Y-42758789D01*
X101310165Y-42758788D01*
X101305594Y-42756895D01*
X101225391Y-42737640D01*
X101079524Y-42702620D01*
X101079518Y-42702619D01*
X101074711Y-42701465D01*
X100838000Y-42682835D01*
X100601289Y-42701465D01*
X100596482Y-42702619D01*
X100596476Y-42702620D01*
X100450609Y-42737640D01*
X100370406Y-42756895D01*
X100365835Y-42758788D01*
X100365833Y-42758789D01*
X100155611Y-42845865D01*
X100155607Y-42845867D01*
X100151037Y-42847760D01*
X100146817Y-42850346D01*
X99952798Y-42969241D01*
X99952792Y-42969245D01*
X99948584Y-42971824D01*
X99768031Y-43126031D01*
X99613824Y-43306584D01*
X99611245Y-43310792D01*
X99611241Y-43310798D01*
X99492346Y-43504817D01*
X99489760Y-43509037D01*
X99398895Y-43728406D01*
X99343465Y-43959289D01*
X99324835Y-44196000D01*
X88460000Y-44196000D01*
X88460000Y-40580703D01*
X90842743Y-40580703D01*
X90880268Y-40865734D01*
X90956129Y-41143036D01*
X91068923Y-41407476D01*
X91216561Y-41654161D01*
X91396313Y-41878528D01*
X91604851Y-42076423D01*
X91838317Y-42244186D01*
X91842112Y-42246195D01*
X91842113Y-42246196D01*
X91863869Y-42257715D01*
X92092392Y-42378712D01*
X92362373Y-42477511D01*
X92643264Y-42538755D01*
X92671841Y-42541004D01*
X92866282Y-42556307D01*
X92866291Y-42556307D01*
X92868739Y-42556500D01*
X93024271Y-42556500D01*
X93026407Y-42556354D01*
X93026418Y-42556354D01*
X93234548Y-42542165D01*
X93234554Y-42542164D01*
X93238825Y-42541873D01*
X93243020Y-42541004D01*
X93243022Y-42541004D01*
X93379584Y-42512723D01*
X93520342Y-42483574D01*
X93791343Y-42387607D01*
X94046812Y-42255750D01*
X94050313Y-42253289D01*
X94050317Y-42253287D01*
X94164417Y-42173096D01*
X94282023Y-42090441D01*
X94492622Y-41894740D01*
X94674713Y-41672268D01*
X94824927Y-41427142D01*
X94940483Y-41163898D01*
X95019244Y-40887406D01*
X95059751Y-40602784D01*
X95059845Y-40584951D01*
X95059867Y-40580703D01*
X145842743Y-40580703D01*
X145880268Y-40865734D01*
X145956129Y-41143036D01*
X146068923Y-41407476D01*
X146216561Y-41654161D01*
X146396313Y-41878528D01*
X146604851Y-42076423D01*
X146838317Y-42244186D01*
X146842112Y-42246195D01*
X146842113Y-42246196D01*
X146863869Y-42257715D01*
X147092392Y-42378712D01*
X147362373Y-42477511D01*
X147643264Y-42538755D01*
X147671841Y-42541004D01*
X147866282Y-42556307D01*
X147866291Y-42556307D01*
X147868739Y-42556500D01*
X148024271Y-42556500D01*
X148026407Y-42556354D01*
X148026418Y-42556354D01*
X148234548Y-42542165D01*
X148234554Y-42542164D01*
X148238825Y-42541873D01*
X148243020Y-42541004D01*
X148243022Y-42541004D01*
X148379584Y-42512723D01*
X148520342Y-42483574D01*
X148791343Y-42387607D01*
X149046812Y-42255750D01*
X149050313Y-42253289D01*
X149050317Y-42253287D01*
X149164417Y-42173096D01*
X149282023Y-42090441D01*
X149492622Y-41894740D01*
X149674713Y-41672268D01*
X149824927Y-41427142D01*
X149940483Y-41163898D01*
X150019244Y-40887406D01*
X150059751Y-40602784D01*
X150059845Y-40584951D01*
X150061235Y-40319583D01*
X150061235Y-40319576D01*
X150061257Y-40315297D01*
X150023732Y-40030266D01*
X149947871Y-39752964D01*
X149835077Y-39488524D01*
X149687439Y-39241839D01*
X149507687Y-39017472D01*
X149299149Y-38819577D01*
X149065683Y-38651814D01*
X149043843Y-38640250D01*
X149020654Y-38627972D01*
X148811608Y-38517288D01*
X148541627Y-38418489D01*
X148260736Y-38357245D01*
X148229685Y-38354801D01*
X148037718Y-38339693D01*
X148037709Y-38339693D01*
X148035261Y-38339500D01*
X147879729Y-38339500D01*
X147877593Y-38339646D01*
X147877582Y-38339646D01*
X147669452Y-38353835D01*
X147669446Y-38353836D01*
X147665175Y-38354127D01*
X147660980Y-38354996D01*
X147660978Y-38354996D01*
X147524416Y-38383277D01*
X147383658Y-38412426D01*
X147112657Y-38508393D01*
X146857188Y-38640250D01*
X146853687Y-38642711D01*
X146853683Y-38642713D01*
X146843594Y-38649804D01*
X146621977Y-38805559D01*
X146606892Y-38819577D01*
X146513279Y-38906568D01*
X146411378Y-39001260D01*
X146229287Y-39223732D01*
X146079073Y-39468858D01*
X145963517Y-39732102D01*
X145884756Y-40008594D01*
X145844249Y-40293216D01*
X145844227Y-40297505D01*
X145844226Y-40297512D01*
X145843159Y-40501207D01*
X145842743Y-40580703D01*
X95059867Y-40580703D01*
X95061235Y-40319583D01*
X95061235Y-40319576D01*
X95061257Y-40315297D01*
X95023732Y-40030266D01*
X94947871Y-39752964D01*
X94835077Y-39488524D01*
X94687439Y-39241839D01*
X94507687Y-39017472D01*
X94299149Y-38819577D01*
X94065683Y-38651814D01*
X94043843Y-38640250D01*
X94020654Y-38627972D01*
X93811608Y-38517288D01*
X93541627Y-38418489D01*
X93260736Y-38357245D01*
X93229685Y-38354801D01*
X93037718Y-38339693D01*
X93037709Y-38339693D01*
X93035261Y-38339500D01*
X92879729Y-38339500D01*
X92877593Y-38339646D01*
X92877582Y-38339646D01*
X92669452Y-38353835D01*
X92669446Y-38353836D01*
X92665175Y-38354127D01*
X92660980Y-38354996D01*
X92660978Y-38354996D01*
X92524416Y-38383277D01*
X92383658Y-38412426D01*
X92112657Y-38508393D01*
X91857188Y-38640250D01*
X91853687Y-38642711D01*
X91853683Y-38642713D01*
X91843594Y-38649804D01*
X91621977Y-38805559D01*
X91606892Y-38819577D01*
X91513279Y-38906568D01*
X91411378Y-39001260D01*
X91229287Y-39223732D01*
X91079073Y-39468858D01*
X90963517Y-39732102D01*
X90884756Y-40008594D01*
X90844249Y-40293216D01*
X90844227Y-40297505D01*
X90844226Y-40297512D01*
X90843159Y-40501207D01*
X90842743Y-40580703D01*
X88460000Y-40580703D01*
X88460000Y-40501207D01*
X88461746Y-40480303D01*
X88464264Y-40465335D01*
X88465071Y-40460539D01*
X88465224Y-40448000D01*
X88462885Y-40431664D01*
X88461733Y-40408311D01*
X88465980Y-40311049D01*
X88476853Y-40061993D01*
X88477811Y-40051042D01*
X88527527Y-39673421D01*
X88529436Y-39662597D01*
X88611870Y-39290757D01*
X88614715Y-39280139D01*
X88701599Y-39004579D01*
X88729248Y-38916890D01*
X88733004Y-38906568D01*
X88769037Y-38819577D01*
X88878766Y-38554666D01*
X88883399Y-38544731D01*
X89059278Y-38206872D01*
X89064768Y-38197363D01*
X89269410Y-37876140D01*
X89275714Y-37867136D01*
X89507583Y-37564957D01*
X89514649Y-37556537D01*
X89771959Y-37275732D01*
X89779732Y-37267959D01*
X90060537Y-37010649D01*
X90068957Y-37003583D01*
X90371136Y-36771714D01*
X90380140Y-36765410D01*
X90701363Y-36560768D01*
X90710872Y-36555278D01*
X91048731Y-36379399D01*
X91058666Y-36374766D01*
X91410575Y-36229001D01*
X91420890Y-36225248D01*
X91784140Y-36110715D01*
X91794757Y-36107870D01*
X92166597Y-36025436D01*
X92177421Y-36023527D01*
X92555042Y-35973811D01*
X92565993Y-35972853D01*
X92833226Y-35961186D01*
X92908583Y-35957896D01*
X92933462Y-35959276D01*
X92945730Y-35961186D01*
X92977252Y-35957064D01*
X92993589Y-35956000D01*
X147902672Y-35956000D01*
X147922057Y-35957500D01*
G37*
%TD.AperFunction*%
%TD*%
M02*
