M48
; DRILL file {KiCad (6.0.0)} date Fri May 13 11:27:12 2022
; FORMAT={-:-/ absolute / inch / decimal}
; #@! TF.CreationDate,2022-05-13T11:27:12+02:00
; #@! TF.GenerationSoftware,Kicad,Pcbnew,(6.0.0)
; #@! TF.FileFunction,Plated,1,2,PTH
FMAT,2
INCH
; #@! TA.AperFunction,Plated,PTH,ViaDrill
T1C0.0394
; #@! TA.AperFunction,Plated,PTH,ComponentDrill
T2C0.0394
; #@! TA.AperFunction,Plated,PTH,ComponentDrill
T3C0.0512
; #@! TA.AperFunction,Plated,PTH,ComponentDrill
T4C0.0787
%
G90
G05
T1
X3.58Y-2.295
X3.68Y-3.17
X3.68Y-4.52
X3.83Y-4.22
X3.98Y-1.52
X4.03Y-3.52
X4.18Y-3.17
X4.23Y-4.72
X4.48Y-2.72
X4.48Y-3.52
X4.53Y-4.17
X4.73Y-2.395
X4.73Y-2.695
X4.78Y-1.52
X4.93Y-3.52
X5.18Y-4.07
X5.18Y-4.72
X5.38Y-3.52
X5.43Y-2.295
X5.43Y-2.695
X5.53Y-1.52
X5.655Y-2.695
X5.68Y-3.07
X5.68Y-3.72
X5.83Y-4.52
X5.88Y-2.57
T2
X3.68Y-2.5848
X3.705Y-2.395
X3.7513Y-1.895
X3.7513Y-1.9737
X3.7513Y-2.0525
X3.78Y-2.5848
X3.78Y-2.745
X3.83Y-1.895
X3.83Y-1.9737
X3.83Y-2.0525
X3.8438Y-3.0487
X3.8438Y-3.5291
X3.88Y-2.5848
X3.97Y-1.74
X3.97Y-2.14
X3.9942Y-4.742
X4.105Y-2.395
X4.195Y-1.82
X4.195Y-1.8987
X4.195Y-1.9775
X4.195Y-2.0562
X4.195Y-2.135
X4.28Y-2.745
X4.3162Y-3.0487
X4.3162Y-3.5291
X4.4272Y-4.742
X4.4489Y-3.96
X4.51Y-1.82
X4.51Y-1.8987
X4.51Y-1.9775
X4.51Y-2.0562
X4.51Y-2.135
X4.5276Y-3.96
X4.63Y-2.87
X4.63Y-2.97
X4.655Y-3.42
X4.655Y-3.52
X4.655Y-3.62
X4.6796Y-3.96
X4.7017Y-4.6306
X4.7017Y-4.7094
X4.73Y-2.87
X4.73Y-2.97
X4.83Y-2.87
X4.83Y-2.97
X4.87Y-4.43
X4.87Y-4.83
X4.8796Y-3.96
X4.93Y-1.82
X4.93Y-1.8987
X4.93Y-1.9775
X4.93Y-2.0562
X4.93Y-2.87
X4.93Y-2.97
X5.0219Y-4.742
X5.03Y-2.87
X5.03Y-2.97
X5.08Y-3.96
X5.105Y-3.42
X5.105Y-3.52
X5.105Y-3.62
X5.13Y-2.87
X5.13Y-2.97
X5.23Y-2.87
X5.23Y-2.97
X5.28Y-1.82
X5.28Y-1.8987
X5.28Y-1.9775
X5.28Y-2.0562
X5.28Y-3.96
X5.33Y-2.87
X5.33Y-2.97
X5.43Y-2.87
X5.43Y-2.97
X5.4546Y-3.96
X5.455Y-4.742
X5.53Y-2.87
X5.53Y-2.97
X5.53Y-3.42
X5.53Y-3.52
X5.53Y-3.62
X5.63Y-1.82
X5.63Y-1.8987
X5.63Y-1.9775
X5.63Y-2.0562
X5.6546Y-3.96
T3
X4.08Y-2.97
T4
X4.1123Y-4.3483
X4.3091Y-4.3483
X5.14Y-4.3483
X5.3369Y-4.3483
T2
G00X3.9125Y-3.9503
M15
G01X3.9125Y-3.9897
M16
G05
G00X4.07Y-3.9503
M15
G01X4.07Y-3.9897
M16
G05
G00X4.2275Y-3.9503
M15
G01X4.2275Y-3.9897
M16
G05
T0
M30
