%TF.GenerationSoftware,KiCad,Pcbnew,(6.0.0)*%
%TF.CreationDate,2022-05-13T11:27:12+02:00*%
%TF.ProjectId,Alimentation,416c696d-656e-4746-9174-696f6e2e6b69,rev?*%
%TF.SameCoordinates,Original*%
%TF.FileFunction,Copper,L2,Bot*%
%TF.FilePolarity,Positive*%
%FSLAX46Y46*%
G04 Gerber Fmt 4.6, Leading zero omitted, Abs format (unit mm)*
G04 Created by KiCad (PCBNEW (6.0.0)) date 2022-05-13 11:27:12*
%MOMM*%
%LPD*%
G01*
G04 APERTURE LIST*
G04 Aperture macros list*
%AMRoundRect*
0 Rectangle with rounded corners*
0 $1 Rounding radius*
0 $2 $3 $4 $5 $6 $7 $8 $9 X,Y pos of 4 corners*
0 Add a 4 corners polygon primitive as box body*
4,1,4,$2,$3,$4,$5,$6,$7,$8,$9,$2,$3,0*
0 Add four circle primitives for the rounded corners*
1,1,$1+$1,$2,$3*
1,1,$1+$1,$4,$5*
1,1,$1+$1,$6,$7*
1,1,$1+$1,$8,$9*
0 Add four rect primitives between the rounded corners*
20,1,$1+$1,$2,$3,$4,$5,0*
20,1,$1+$1,$4,$5,$6,$7,0*
20,1,$1+$1,$6,$7,$8,$9,0*
20,1,$1+$1,$8,$9,$2,$3,0*%
G04 Aperture macros list end*
%TA.AperFunction,ComponentPad*%
%ADD10RoundRect,0.312500X-0.687500X0.437500X-0.687500X-0.437500X0.687500X-0.437500X0.687500X0.437500X0*%
%TD*%
%TA.AperFunction,ComponentPad*%
%ADD11R,2.500000X2.500000*%
%TD*%
%TA.AperFunction,ComponentPad*%
%ADD12O,2.500000X2.500000*%
%TD*%
%TA.AperFunction,ComponentPad*%
%ADD13R,2.500000X1.500000*%
%TD*%
%TA.AperFunction,ComponentPad*%
%ADD14O,2.500000X1.500000*%
%TD*%
%TA.AperFunction,ComponentPad*%
%ADD15R,1.700000X1.700000*%
%TD*%
%TA.AperFunction,ComponentPad*%
%ADD16O,1.700000X1.700000*%
%TD*%
%TA.AperFunction,ComponentPad*%
%ADD17RoundRect,0.312500X0.687500X-0.437500X0.687500X0.437500X-0.687500X0.437500X-0.687500X-0.437500X0*%
%TD*%
%TA.AperFunction,ComponentPad*%
%ADD18O,2.000000X1.500000*%
%TD*%
%TA.AperFunction,ComponentPad*%
%ADD19R,2.400000X2.400000*%
%TD*%
%TA.AperFunction,ComponentPad*%
%ADD20O,2.400000X2.400000*%
%TD*%
%TA.AperFunction,ComponentPad*%
%ADD21C,2.000000*%
%TD*%
%TA.AperFunction,ComponentPad*%
%ADD22C,1.400000*%
%TD*%
%TA.AperFunction,ComponentPad*%
%ADD23R,3.500000X3.500000*%
%TD*%
%TA.AperFunction,ComponentPad*%
%ADD24C,3.500000*%
%TD*%
%TA.AperFunction,ComponentPad*%
%ADD25R,1.800000X1.800000*%
%TD*%
%TA.AperFunction,ComponentPad*%
%ADD26O,1.800000X1.800000*%
%TD*%
%TA.AperFunction,ComponentPad*%
%ADD27R,1.600000X1.600000*%
%TD*%
%TA.AperFunction,ComponentPad*%
%ADD28C,1.600000*%
%TD*%
%TA.AperFunction,ComponentPad*%
%ADD29O,1.600000X4.000000*%
%TD*%
%TA.AperFunction,SMDPad,CuDef*%
%ADD30C,2.000000*%
%TD*%
%TA.AperFunction,ViaPad*%
%ADD31C,2.000000*%
%TD*%
%TA.AperFunction,Conductor*%
%ADD32C,1.500000*%
%TD*%
%TA.AperFunction,Conductor*%
%ADD33C,1.000000*%
%TD*%
%TA.AperFunction,Conductor*%
%ADD34C,0.600000*%
%TD*%
G04 APERTURE END LIST*
D10*
%TO.P,J1,1,Pin_1*%
%TO.N,GND*%
X143002000Y-46228000D03*
%TO.P,J1,2,Pin_2*%
%TO.N,can_H*%
X143002000Y-48228000D03*
%TO.P,J1,3,Pin_3*%
%TO.N,can_L*%
X143002000Y-50228000D03*
%TO.P,J1,4,Pin_4*%
%TO.N,5Vout1*%
X143002000Y-52228000D03*
%TD*%
%TO.P,J2,1,Pin_1*%
%TO.N,GND*%
X134112000Y-46228000D03*
%TO.P,J2,2,Pin_2*%
%TO.N,can_H*%
X134112000Y-48228000D03*
%TO.P,J2,3,Pin_3*%
%TO.N,can_L*%
X134112000Y-50228000D03*
%TO.P,J2,4,Pin_4*%
%TO.N,5Vout2*%
X134112000Y-52228000D03*
%TD*%
%TO.P,J3,1,Pin_1*%
%TO.N,GND*%
X125222000Y-46228000D03*
%TO.P,J3,2,Pin_2*%
%TO.N,can_H*%
X125222000Y-48228000D03*
%TO.P,J3,3,Pin_3*%
%TO.N,can_L*%
X125222000Y-50228000D03*
%TO.P,J3,4,Pin_4*%
%TO.N,5Vout3*%
X125222000Y-52228000D03*
%TD*%
%TO.P,J4,1,Pin_1*%
%TO.N,GND*%
X114554000Y-46228000D03*
%TO.P,J4,2,Pin_2*%
%TO.N,can_H*%
X114554000Y-48228000D03*
%TO.P,J4,3,Pin_3*%
%TO.N,can_L*%
X114554000Y-50228000D03*
%TO.P,J4,4,Pin_4*%
%TO.N,5Vout4*%
X114554000Y-52228000D03*
%TO.P,J4,5,Pin_5*%
%TO.N,12Vout1*%
X114554000Y-54228000D03*
%TD*%
%TO.P,J5,1,Pin_1*%
%TO.N,GND*%
X106553000Y-46228000D03*
%TO.P,J5,2,Pin_2*%
%TO.N,can_H*%
X106553000Y-48228000D03*
%TO.P,J5,3,Pin_3*%
%TO.N,can_L*%
X106553000Y-50228000D03*
%TO.P,J5,4,Pin_4*%
%TO.N,5Vout5*%
X106553000Y-52228000D03*
%TO.P,J5,5,Pin_5*%
%TO.N,12Vout2*%
X106553000Y-54228000D03*
%TD*%
D11*
%TO.P,K1,1*%
%TO.N,Vbatt*%
X103632000Y-75438000D03*
D12*
%TO.P,K1,2*%
%TO.N,Net-(D1-Pad2)*%
X97632000Y-77438000D03*
%TO.P,K1,3*%
%TO.N,Net-(K1-Pad3)*%
X97632000Y-89638000D03*
%TO.P,K1,4*%
%TO.N,Net-(K1-Pad4)*%
X109632000Y-89638000D03*
%TO.P,K1,5*%
%TO.N,5VRPI*%
X109632000Y-77438000D03*
%TD*%
D13*
%TO.P,U2,1,Vin*%
%TO.N,Net-(F2-Pad1)*%
X129667000Y-91948000D03*
D14*
%TO.P,U2,2,GND*%
%TO.N,GND*%
X129667000Y-89408000D03*
%TO.P,U2,3,Vout*%
%TO.N,5V*%
X129667000Y-86868000D03*
%TD*%
D13*
%TO.P,U3,1,Vin*%
%TO.N,Net-(C1-Pad1)*%
X118237000Y-91948000D03*
D14*
%TO.P,U3,2,GND*%
%TO.N,GND*%
X118237000Y-89408000D03*
%TO.P,U3,3,Vout*%
%TO.N,12V*%
X118237000Y-86868000D03*
%TD*%
D15*
%TO.P,J7,1,Pin_1*%
%TO.N,12Vout2*%
X117602000Y-72898000D03*
D16*
%TO.P,J7,2,Pin_2*%
%TO.N,12V*%
X117602000Y-75438000D03*
%TO.P,J7,3,Pin_3*%
%TO.N,12Vout1*%
X120142000Y-72898000D03*
%TO.P,J7,4,Pin_4*%
%TO.N,12V*%
X120142000Y-75438000D03*
%TO.P,J7,5,Pin_5*%
%TO.N,5Vout5*%
X122682000Y-72898000D03*
%TO.P,J7,6,Pin_6*%
%TO.N,5V*%
X122682000Y-75438000D03*
%TO.P,J7,7,Pin_7*%
%TO.N,5Vout4*%
X125222000Y-72898000D03*
%TO.P,J7,8,Pin_8*%
%TO.N,5V*%
X125222000Y-75438000D03*
%TO.P,J7,9,Pin_9*%
%TO.N,5Vout3*%
X127762000Y-72898000D03*
%TO.P,J7,10,Pin_10*%
%TO.N,5V*%
X127762000Y-75438000D03*
%TO.P,J7,11,Pin_11*%
%TO.N,5Vout2*%
X130302000Y-72898000D03*
%TO.P,J7,12,Pin_12*%
%TO.N,5V*%
X130302000Y-75438000D03*
%TO.P,J7,13,Pin_13*%
%TO.N,5Vout1*%
X132842000Y-72898000D03*
%TO.P,J7,14,Pin_14*%
%TO.N,5V*%
X132842000Y-75438000D03*
%TO.P,J7,15,Pin_15*%
%TO.N,5VRPI*%
X135382000Y-72898000D03*
%TO.P,J7,16,Pin_16*%
%TO.N,Net-(J7-Pad16)*%
X135382000Y-75438000D03*
%TO.P,J7,17,Pin_17*%
%TO.N,can_L*%
X137922000Y-72898000D03*
%TO.P,J7,18,Pin_18*%
%TO.N,GND*%
X137922000Y-75438000D03*
%TO.P,J7,19,Pin_19*%
%TO.N,can_H*%
X140462000Y-72898000D03*
%TO.P,J7,20,Pin_20*%
%TO.N,unconnected-(J7-Pad20)*%
X140462000Y-75438000D03*
%TD*%
D17*
%TO.P,J6,1,Pin_1*%
%TO.N,can_H*%
X97482000Y-48133000D03*
D18*
%TO.P,J6,2,Pin_2*%
%TO.N,5VRPI*%
X95082000Y-48133000D03*
%TO.P,J6,3,Pin_3*%
%TO.N,can_L*%
X97482000Y-50133000D03*
%TO.P,J6,4,Pin_4*%
%TO.N,cmd_relais*%
X95082000Y-50133000D03*
%TO.P,J6,5,Pin_5*%
%TO.N,unconnected-(J6-Pad5)*%
X97482000Y-52133000D03*
%TO.P,J6,6,Pin_6*%
%TO.N,GND*%
X95082000Y-52133000D03*
%TD*%
D19*
%TO.P,D1,1,K*%
%TO.N,5VRPI*%
X108712000Y-69723000D03*
D20*
%TO.P,D1,2,A*%
%TO.N,Net-(D1-Pad2)*%
X96012000Y-69723000D03*
%TD*%
D13*
%TO.P,U1,1,Vin*%
%TO.N,Net-(F1-Pad1)*%
X140462000Y-91948000D03*
D14*
%TO.P,U1,2,GND*%
%TO.N,GND*%
X140462000Y-89408000D03*
%TO.P,U1,3,Vout*%
%TO.N,Net-(J7-Pad16)*%
X140462000Y-86868000D03*
%TD*%
D21*
%TO.P,R1,1*%
%TO.N,Net-(Q1-Pad3)*%
X104267000Y-60833000D03*
%TO.P,R1,2*%
%TO.N,cmd_relais*%
X94107000Y-60833000D03*
%TD*%
D22*
%TO.P,J8,*%
%TO.N,*%
X138556000Y-120448000D03*
X127556000Y-120448000D03*
D23*
%TO.P,J8,1,Pin_1*%
%TO.N,GND*%
X130556000Y-110448000D03*
D24*
%TO.P,J8,2,Pin_2*%
%TO.N,Vbatt*%
X135556000Y-110448000D03*
%TD*%
D22*
%TO.P,J9,*%
%TO.N,*%
X112452000Y-120448000D03*
X101452000Y-120448000D03*
D23*
%TO.P,J9,1,Pin_1*%
%TO.N,GND*%
X104452000Y-110448000D03*
D24*
%TO.P,J9,2,Pin_2*%
%TO.N,VbattRelay*%
X109452000Y-110448000D03*
%TD*%
D25*
%TO.P,Q1,1,E*%
%TO.N,GND*%
X93472000Y-65653000D03*
D26*
%TO.P,Q1,2,C*%
%TO.N,Net-(D1-Pad2)*%
X96012000Y-65653000D03*
%TO.P,Q1,3,B*%
%TO.N,Net-(Q1-Pad3)*%
X98552000Y-65653000D03*
%TD*%
D10*
%TO.P,J10,1,Pin_1*%
%TO.N,can_L*%
X119422000Y-117618000D03*
D18*
%TO.P,J10,2,Pin_2*%
%TO.N,can_H*%
X119422000Y-119618000D03*
%TD*%
D21*
%TO.P,F2,1*%
%TO.N,Net-(F2-Pad1)*%
X134112000Y-100584000D03*
%TO.P,F2,2*%
%TO.N,VbattRelay*%
X129032000Y-100584000D03*
%TD*%
D27*
%TO.P,C1,1*%
%TO.N,Net-(C1-Pad1)*%
X115001113Y-100584000D03*
D28*
%TO.P,C1,2*%
%TO.N,GND*%
X113001113Y-100584000D03*
%TD*%
D29*
%TO.P,SW1,1,A*%
%TO.N,Net-(K1-Pad3)*%
X99378000Y-100838000D03*
%TO.P,SW1,2,B*%
%TO.N,VbattRelay*%
X103378000Y-100838000D03*
%TO.P,SW1,3,C*%
%TO.N,Net-(K1-Pad4)*%
X107378000Y-100838000D03*
%TD*%
D21*
%TO.P,R3,1*%
%TO.N,can_H*%
X100838000Y-44196000D03*
%TO.P,R3,2*%
%TO.N,can_L*%
X100838000Y-54356000D03*
%TD*%
%TO.P,F3,1*%
%TO.N,Net-(C1-Pad1)*%
X118862000Y-100584000D03*
%TO.P,F3,2*%
%TO.N,VbattRelay*%
X123942000Y-100584000D03*
%TD*%
%TO.P,R2,1*%
%TO.N,can_H*%
X123698000Y-122682000D03*
%TO.P,R2,2*%
%TO.N,can_L*%
X123698000Y-112522000D03*
%TD*%
%TO.P,F1,1*%
%TO.N,Net-(F1-Pad1)*%
X138547000Y-100584000D03*
%TO.P,F1,2*%
%TO.N,Vbatt*%
X143627000Y-100584000D03*
%TD*%
D30*
%TO.P,TP8,1,1*%
%TO.N,cmd_relais*%
X93980000Y-58293000D03*
%TD*%
%TO.P,TP14,1,1*%
%TO.N,GND*%
X149098000Y-110744000D03*
%TD*%
%TO.P,TP7,1,1*%
%TO.N,Net-(K1-Pad3)*%
X99314000Y-93980000D03*
%TD*%
%TO.P,TP1,1,1*%
%TO.N,can_L*%
X146812000Y-81788000D03*
%TD*%
%TO.P,TP6,1,1*%
%TO.N,Vbatt*%
X98552000Y-82042000D03*
%TD*%
%TO.P,TP4,1,1*%
%TO.N,5VRPI*%
X108712000Y-74168000D03*
%TD*%
%TO.P,TP9,1,1*%
%TO.N,Net-(Q1-Pad3)*%
X101092000Y-63373000D03*
%TD*%
%TO.P,TP11,1,1*%
%TO.N,5V*%
X129667000Y-83058000D03*
%TD*%
%TO.P,TP2,1,1*%
%TO.N,can_H*%
X149860000Y-81788000D03*
%TD*%
%TO.P,TP12,1,1*%
%TO.N,12V*%
X118237000Y-83693000D03*
%TD*%
%TO.P,TP5,1,1*%
%TO.N,Net-(K1-Pad4)*%
X107442000Y-93980000D03*
%TD*%
%TO.P,TP10,1,1*%
%TO.N,Net-(J7-Pad16)*%
X140462000Y-83058000D03*
%TD*%
%TO.P,TP3,1,1*%
%TO.N,Net-(D1-Pad2)*%
X96012000Y-74168000D03*
%TD*%
D31*
%TO.N,can_L*%
X143637000Y-68453000D03*
X137922000Y-68453000D03*
%TO.N,GND*%
X101092000Y-38608000D03*
X93472000Y-80518000D03*
X97282000Y-107188000D03*
X113792000Y-89408000D03*
X113792000Y-69088000D03*
X131572000Y-103378000D03*
X115062000Y-105918000D03*
X136652000Y-89408000D03*
X144272000Y-77978000D03*
X148082000Y-114808000D03*
X102362000Y-89408000D03*
X140462000Y-38608000D03*
X121412000Y-38608000D03*
X106172000Y-80518000D03*
X131572000Y-119888000D03*
X125222000Y-89408000D03*
X93472000Y-114808000D03*
X149352000Y-65278000D03*
X107442000Y-119888000D03*
X144272000Y-94488000D03*
%TO.N,12Vout1*%
X120142000Y-68453000D03*
X120142000Y-60833000D03*
%TO.N,5VRPI*%
X137922000Y-58293000D03*
X90932000Y-58293000D03*
%TD*%
D32*
%TO.N,5Vout1*%
X138907000Y-52228000D02*
X143002000Y-52228000D01*
X132842000Y-58293000D02*
X138907000Y-52228000D01*
X132842000Y-72898000D02*
X132842000Y-58293000D01*
D33*
%TO.N,can_L*%
X125222000Y-50228000D02*
X106553000Y-50228000D01*
X134112000Y-50228000D02*
X125222000Y-50228000D01*
X123047000Y-117618000D02*
X125222000Y-115443000D01*
X123698000Y-114046000D02*
X125095000Y-115443000D01*
X125222000Y-115443000D02*
X126111000Y-115443000D01*
X119422000Y-117618000D02*
X123047000Y-117618000D01*
X137922000Y-72898000D02*
X137922000Y-63478000D01*
X137922000Y-115443000D02*
X147447000Y-105918000D01*
X106553000Y-50228000D02*
X103188000Y-50228000D01*
X145952000Y-51718000D02*
X144462000Y-50228000D01*
X147447000Y-72263000D02*
X143637000Y-68453000D01*
X100838000Y-52578000D02*
X98393000Y-50133000D01*
X100838000Y-52832000D02*
X100838000Y-52578000D01*
X123698000Y-112522000D02*
X123698000Y-114046000D01*
X126111000Y-115443000D02*
X137922000Y-115443000D01*
X100838000Y-54356000D02*
X100838000Y-52832000D01*
X98393000Y-50133000D02*
X97282000Y-50133000D01*
X147447000Y-105918000D02*
X147447000Y-72263000D01*
X144462000Y-50228000D02*
X143002000Y-50228000D01*
X143002000Y-50228000D02*
X134112000Y-50228000D01*
X145952000Y-55448000D02*
X145952000Y-51718000D01*
X103188000Y-50228000D02*
X100838000Y-52578000D01*
X137922000Y-63478000D02*
X145952000Y-55448000D01*
X125095000Y-115443000D02*
X125222000Y-115443000D01*
%TO.N,can_H*%
X123968000Y-119618000D02*
X126492000Y-117094000D01*
X100838000Y-44196000D02*
X100838000Y-45720000D01*
X126492000Y-117094000D02*
X138684000Y-117094000D01*
X144014500Y-65655500D02*
X144014500Y-64385500D01*
X134112000Y-48228000D02*
X143002000Y-48228000D01*
X143002000Y-48228000D02*
X145256000Y-48228000D01*
X123698000Y-119888000D02*
X123698000Y-122682000D01*
X149352000Y-70993000D02*
X144014500Y-65655500D01*
X147828000Y-50800000D02*
X147828000Y-56134000D01*
X98425000Y-48133000D02*
X97282000Y-48133000D01*
X125222000Y-48228000D02*
X106553000Y-48228000D01*
X100838000Y-45720000D02*
X98425000Y-48133000D01*
X123206000Y-119618000D02*
X123968000Y-119618000D01*
X144014500Y-64960500D02*
X140462000Y-68513000D01*
X125222000Y-48228000D02*
X133730517Y-48228000D01*
X144014500Y-64385500D02*
X144014500Y-64960500D01*
X119422000Y-119618000D02*
X123206000Y-119618000D01*
X145256000Y-48228000D02*
X147828000Y-50800000D01*
D34*
X133730517Y-48228000D02*
X134112000Y-48228000D01*
D33*
X123968000Y-119618000D02*
X123698000Y-119888000D01*
X149352000Y-106426000D02*
X149352000Y-70993000D01*
X103346000Y-48228000D02*
X100838000Y-45720000D01*
X138684000Y-117094000D02*
X149352000Y-106426000D01*
X106553000Y-48228000D02*
X103346000Y-48228000D01*
X147828000Y-56134000D02*
X144014500Y-59947500D01*
X144014500Y-59947500D02*
X144014500Y-64385500D01*
X140462000Y-68513000D02*
X140462000Y-72898000D01*
D32*
%TO.N,5Vout2*%
X130302000Y-72898000D02*
X130302000Y-56038000D01*
X130302000Y-56038000D02*
X134112000Y-52228000D01*
%TO.N,5Vout3*%
X127762000Y-72898000D02*
X127762000Y-54768000D01*
X127762000Y-54768000D02*
X125222000Y-52228000D01*
%TO.N,12Vout1*%
X114554000Y-54228000D02*
X114554000Y-55245000D01*
X114554000Y-55245000D02*
X120142000Y-60833000D01*
X120142000Y-72898000D02*
X120142000Y-68453000D01*
D33*
%TO.N,cmd_relais*%
X92837000Y-59563000D02*
X94107000Y-60833000D01*
X95282000Y-50133000D02*
X94012000Y-50133000D01*
X94012000Y-50133000D02*
X92837000Y-51308000D01*
X92837000Y-51308000D02*
X92837000Y-59563000D01*
%TO.N,5VRPI*%
X105537000Y-58293000D02*
X108712000Y-61468000D01*
X92837000Y-63373000D02*
X97279553Y-63373000D01*
X108712000Y-61468000D02*
X108712000Y-69723000D01*
D32*
X108712000Y-76518000D02*
X109632000Y-77438000D01*
X90932000Y-50388000D02*
X90932000Y-58293000D01*
X95282000Y-48133000D02*
X93187000Y-48133000D01*
X108712000Y-69723000D02*
X108712000Y-76518000D01*
X93187000Y-48133000D02*
X90932000Y-50388000D01*
X135382000Y-60833000D02*
X137922000Y-58293000D01*
X135382000Y-72898000D02*
X135382000Y-60833000D01*
D33*
X97279553Y-63373000D02*
X102359553Y-58293000D01*
X90932000Y-58293000D02*
X90932000Y-61468000D01*
X90932000Y-61468000D02*
X92837000Y-63373000D01*
X102359553Y-58293000D02*
X105537000Y-58293000D01*
D32*
%TO.N,12Vout2*%
X117602000Y-65278000D02*
X106553000Y-54229000D01*
X117602000Y-72898000D02*
X117602000Y-65278000D01*
X106553000Y-54229000D02*
X106553000Y-54228000D01*
D34*
%TO.N,5V*%
X125222000Y-75438000D02*
X122682000Y-75438000D01*
X132842000Y-75438000D02*
X130302000Y-75438000D01*
X127762000Y-75438000D02*
X125222000Y-75438000D01*
D32*
X122682000Y-75438000D02*
X132842000Y-75438000D01*
X129667000Y-86868000D02*
X129667000Y-77343000D01*
D34*
X130302000Y-75438000D02*
X127762000Y-75438000D01*
D32*
X129667000Y-77343000D02*
X127762000Y-75438000D01*
%TO.N,VbattRelay*%
X123942000Y-100584000D02*
X123942000Y-103388000D01*
X116882000Y-110448000D02*
X109452000Y-110448000D01*
X103378000Y-100838000D02*
X103378000Y-101874000D01*
X103378000Y-101874000D02*
X108952000Y-107448000D01*
X123942000Y-100584000D02*
X129032000Y-100584000D01*
X123942000Y-103388000D02*
X116882000Y-110448000D01*
X109452000Y-110448000D02*
X109452000Y-107948000D01*
X109452000Y-107948000D02*
X108952000Y-107448000D01*
%TO.N,Net-(D1-Pad2)*%
X96012000Y-69723000D02*
X96012000Y-75818000D01*
X96012000Y-65653000D02*
X96012000Y-69723000D01*
X96012000Y-75818000D02*
X97632000Y-77438000D01*
%TO.N,Vbatt*%
X143627000Y-103388000D02*
X136567000Y-110448000D01*
X135556000Y-110448000D02*
X135556000Y-109267000D01*
X116840000Y-114808000D02*
X115697000Y-114808000D01*
X136567000Y-110448000D02*
X135556000Y-110448000D01*
X135556000Y-109267000D02*
X132715000Y-106426000D01*
X103632000Y-76708000D02*
X103632000Y-75438000D01*
X93472000Y-86868000D02*
X103632000Y-76708000D01*
X143627000Y-100584000D02*
X143627000Y-103388000D01*
X115717480Y-114808000D02*
X101092000Y-114808000D01*
X93472000Y-107188000D02*
X93472000Y-86868000D01*
X125222000Y-106426000D02*
X116840000Y-114808000D01*
X132715000Y-106426000D02*
X125222000Y-106426000D01*
X101092000Y-114808000D02*
X93472000Y-107188000D01*
%TO.N,12V*%
X118237000Y-81788000D02*
X118237000Y-76073000D01*
X117602000Y-75438000D02*
X120142000Y-75438000D01*
X118237000Y-86868000D02*
X118237000Y-81788000D01*
X118237000Y-76073000D02*
X117602000Y-75438000D01*
%TO.N,5Vout4*%
X125222000Y-61718000D02*
X115732000Y-52228000D01*
X125222000Y-72898000D02*
X125222000Y-61718000D01*
X115732000Y-52228000D02*
X114554000Y-52228000D01*
%TO.N,5Vout5*%
X107727000Y-52228000D02*
X106553000Y-52228000D01*
X122682000Y-67183000D02*
X107727000Y-52228000D01*
X122682000Y-68453000D02*
X122682000Y-67898000D01*
X122682000Y-72898000D02*
X122682000Y-69723000D01*
X122682000Y-69723000D02*
X122682000Y-67183000D01*
X122682000Y-69723000D02*
X122682000Y-68453000D01*
%TO.N,Net-(J7-Pad16)*%
X140462000Y-86868000D02*
X140462000Y-84963000D01*
X140462000Y-84963000D02*
X135382000Y-79883000D01*
X135382000Y-79883000D02*
X135382000Y-75438000D01*
%TO.N,Net-(Q1-Pad3)*%
X104267000Y-60833000D02*
X103372000Y-60833000D01*
X103372000Y-60833000D02*
X98552000Y-65653000D01*
%TO.N,Net-(C1-Pad1)*%
X118862000Y-100584000D02*
X118862000Y-92573000D01*
X118862000Y-92573000D02*
X118237000Y-91948000D01*
X118862000Y-100584000D02*
X115001113Y-100584000D01*
%TO.N,Net-(F1-Pad1)*%
X140462000Y-91948000D02*
X140462000Y-98669000D01*
X140462000Y-98669000D02*
X138547000Y-100584000D01*
%TO.N,Net-(F2-Pad1)*%
X134112000Y-96393000D02*
X129667000Y-91948000D01*
X134112000Y-100584000D02*
X134112000Y-96393000D01*
%TO.N,Net-(K1-Pad3)*%
X97632000Y-89638000D02*
X99378000Y-91384000D01*
X99378000Y-91384000D02*
X99378000Y-100838000D01*
%TO.N,Net-(K1-Pad4)*%
X107378000Y-91892000D02*
X109632000Y-89638000D01*
X107378000Y-100838000D02*
X107378000Y-91892000D01*
%TD*%
%TA.AperFunction,Conductor*%
%TO.N,GND*%
G36*
X147922057Y-35957500D02*
G01*
X147936858Y-35959805D01*
X147936861Y-35959805D01*
X147945730Y-35961186D01*
X147966158Y-35958515D01*
X147987983Y-35957571D01*
X148338007Y-35972853D01*
X148348958Y-35973811D01*
X148726579Y-36023527D01*
X148737403Y-36025436D01*
X149109243Y-36107870D01*
X149119860Y-36110715D01*
X149483110Y-36225248D01*
X149493425Y-36229001D01*
X149845334Y-36374766D01*
X149855269Y-36379399D01*
X150193128Y-36555278D01*
X150202637Y-36560768D01*
X150523860Y-36765410D01*
X150532864Y-36771714D01*
X150835043Y-37003583D01*
X150843463Y-37010649D01*
X151124268Y-37267959D01*
X151132041Y-37275732D01*
X151389351Y-37556537D01*
X151396417Y-37564957D01*
X151628286Y-37867136D01*
X151634590Y-37876140D01*
X151839232Y-38197363D01*
X151844722Y-38206872D01*
X152020601Y-38544731D01*
X152025234Y-38554666D01*
X152134963Y-38819577D01*
X152170996Y-38906568D01*
X152174752Y-38916890D01*
X152202401Y-39004579D01*
X152289285Y-39280139D01*
X152292130Y-39290757D01*
X152374564Y-39662597D01*
X152376473Y-39673421D01*
X152426189Y-40051042D01*
X152427147Y-40061993D01*
X152442104Y-40404583D01*
X152440724Y-40429461D01*
X152438814Y-40441730D01*
X152440638Y-40455678D01*
X152442936Y-40473251D01*
X152444000Y-40489589D01*
X152444000Y-120398672D01*
X152442500Y-120418056D01*
X152438814Y-120441730D01*
X152441485Y-120462158D01*
X152442429Y-120483983D01*
X152435173Y-120650177D01*
X152427147Y-120834007D01*
X152426189Y-120844957D01*
X152423454Y-120865734D01*
X152376473Y-121222579D01*
X152374564Y-121233403D01*
X152292130Y-121605243D01*
X152289285Y-121615860D01*
X152200434Y-121897661D01*
X152174755Y-121979103D01*
X152170999Y-121989425D01*
X152128137Y-122092904D01*
X152025238Y-122341325D01*
X152020601Y-122351269D01*
X151844722Y-122689128D01*
X151839232Y-122698637D01*
X151634590Y-123019860D01*
X151628286Y-123028864D01*
X151396417Y-123331043D01*
X151389353Y-123339460D01*
X151176806Y-123571416D01*
X151132041Y-123620268D01*
X151124268Y-123628041D01*
X150843463Y-123885351D01*
X150835046Y-123892414D01*
X150683953Y-124008352D01*
X150532864Y-124124286D01*
X150523860Y-124130590D01*
X150202637Y-124335232D01*
X150193128Y-124340722D01*
X149855269Y-124516601D01*
X149845334Y-124521234D01*
X149493425Y-124666999D01*
X149483110Y-124670752D01*
X149119861Y-124785285D01*
X149109243Y-124788130D01*
X148737403Y-124870564D01*
X148726579Y-124872473D01*
X148348958Y-124922189D01*
X148338007Y-124923147D01*
X147995417Y-124938104D01*
X147970539Y-124936724D01*
X147970160Y-124936665D01*
X147958270Y-124934814D01*
X147926749Y-124938936D01*
X147910411Y-124940000D01*
X93001328Y-124940000D01*
X92981943Y-124938500D01*
X92967142Y-124936195D01*
X92967139Y-124936195D01*
X92958270Y-124934814D01*
X92937842Y-124937485D01*
X92916017Y-124938429D01*
X92565993Y-124923147D01*
X92555042Y-124922189D01*
X92177421Y-124872473D01*
X92166597Y-124870564D01*
X91794757Y-124788130D01*
X91784139Y-124785285D01*
X91420890Y-124670752D01*
X91410575Y-124666999D01*
X91058666Y-124521234D01*
X91048731Y-124516601D01*
X90710872Y-124340722D01*
X90701363Y-124335232D01*
X90380140Y-124130590D01*
X90371136Y-124124286D01*
X90220046Y-124008351D01*
X90068954Y-123892414D01*
X90060537Y-123885351D01*
X89779732Y-123628041D01*
X89771959Y-123620268D01*
X89727195Y-123571416D01*
X89514647Y-123339460D01*
X89507583Y-123331043D01*
X89275714Y-123028864D01*
X89269410Y-123019860D01*
X89064768Y-122698637D01*
X89059278Y-122689128D01*
X88883399Y-122351269D01*
X88878762Y-122341325D01*
X88775864Y-122092904D01*
X88733001Y-121989425D01*
X88729245Y-121979103D01*
X88703567Y-121897661D01*
X88614715Y-121615860D01*
X88611870Y-121605243D01*
X88529436Y-121233403D01*
X88527527Y-121222579D01*
X88477811Y-120844957D01*
X88476853Y-120834006D01*
X88466943Y-120607036D01*
X88465793Y-120580703D01*
X90842743Y-120580703D01*
X90843302Y-120584947D01*
X90843302Y-120584951D01*
X90853705Y-120663970D01*
X90880268Y-120865734D01*
X90881401Y-120869874D01*
X90881401Y-120869876D01*
X90883213Y-120876500D01*
X90956129Y-121143036D01*
X90957813Y-121146984D01*
X91057400Y-121380460D01*
X91068923Y-121407476D01*
X91080693Y-121427142D01*
X91193595Y-121615787D01*
X91216561Y-121654161D01*
X91396313Y-121878528D01*
X91604851Y-122076423D01*
X91838317Y-122244186D01*
X91842112Y-122246195D01*
X91842113Y-122246196D01*
X91863869Y-122257715D01*
X92092392Y-122378712D01*
X92362373Y-122477511D01*
X92643264Y-122538755D01*
X92671841Y-122541004D01*
X92866282Y-122556307D01*
X92866291Y-122556307D01*
X92868739Y-122556500D01*
X93024271Y-122556500D01*
X93026407Y-122556354D01*
X93026418Y-122556354D01*
X93234548Y-122542165D01*
X93234554Y-122542164D01*
X93238825Y-122541873D01*
X93243020Y-122541004D01*
X93243022Y-122541004D01*
X93379584Y-122512723D01*
X93520342Y-122483574D01*
X93791343Y-122387607D01*
X94046812Y-122255750D01*
X94050313Y-122253289D01*
X94050317Y-122253287D01*
X94164418Y-122173095D01*
X94282023Y-122090441D01*
X94389231Y-121990817D01*
X94489479Y-121897661D01*
X94489481Y-121897658D01*
X94492622Y-121894740D01*
X94674713Y-121672268D01*
X94824927Y-121427142D01*
X94848516Y-121373406D01*
X94938757Y-121167830D01*
X94940483Y-121163898D01*
X95019244Y-120887406D01*
X95053529Y-120646502D01*
X95059146Y-120607036D01*
X95059146Y-120607034D01*
X95059751Y-120602784D01*
X95059845Y-120584951D01*
X95060562Y-120448000D01*
X100238884Y-120448000D01*
X100257314Y-120658655D01*
X100258738Y-120663968D01*
X100258738Y-120663970D01*
X100307234Y-120844957D01*
X100312044Y-120862910D01*
X100314366Y-120867891D01*
X100314367Y-120867892D01*
X100325392Y-120891534D01*
X100401411Y-121054558D01*
X100522699Y-121227776D01*
X100672224Y-121377301D01*
X100845442Y-121498589D01*
X100850420Y-121500910D01*
X100850423Y-121500912D01*
X100976132Y-121559531D01*
X101037090Y-121587956D01*
X101042398Y-121589378D01*
X101042400Y-121589379D01*
X101236030Y-121641262D01*
X101236032Y-121641262D01*
X101241345Y-121642686D01*
X101452000Y-121661116D01*
X101662655Y-121642686D01*
X101667968Y-121641262D01*
X101667970Y-121641262D01*
X101861600Y-121589379D01*
X101861602Y-121589378D01*
X101866910Y-121587956D01*
X101927868Y-121559531D01*
X102053577Y-121500912D01*
X102053580Y-121500910D01*
X102058558Y-121498589D01*
X102231776Y-121377301D01*
X102381301Y-121227776D01*
X102502589Y-121054558D01*
X102578609Y-120891534D01*
X102589633Y-120867892D01*
X102589634Y-120867891D01*
X102591956Y-120862910D01*
X102596767Y-120844957D01*
X102645262Y-120663970D01*
X102645262Y-120663968D01*
X102646686Y-120658655D01*
X102665116Y-120448000D01*
X111238884Y-120448000D01*
X111257314Y-120658655D01*
X111258738Y-120663968D01*
X111258738Y-120663970D01*
X111307234Y-120844957D01*
X111312044Y-120862910D01*
X111314366Y-120867891D01*
X111314367Y-120867892D01*
X111325392Y-120891534D01*
X111401411Y-121054558D01*
X111522699Y-121227776D01*
X111672224Y-121377301D01*
X111845442Y-121498589D01*
X111850420Y-121500910D01*
X111850423Y-121500912D01*
X111976132Y-121559531D01*
X112037090Y-121587956D01*
X112042398Y-121589378D01*
X112042400Y-121589379D01*
X112236030Y-121641262D01*
X112236032Y-121641262D01*
X112241345Y-121642686D01*
X112452000Y-121661116D01*
X112662655Y-121642686D01*
X112667968Y-121641262D01*
X112667970Y-121641262D01*
X112861600Y-121589379D01*
X112861602Y-121589378D01*
X112866910Y-121587956D01*
X112927868Y-121559531D01*
X113053577Y-121500912D01*
X113053580Y-121500910D01*
X113058558Y-121498589D01*
X113231776Y-121377301D01*
X113381301Y-121227776D01*
X113502589Y-121054558D01*
X113578609Y-120891534D01*
X113589633Y-120867892D01*
X113589634Y-120867891D01*
X113591956Y-120862910D01*
X113596767Y-120844957D01*
X113645262Y-120663970D01*
X113645262Y-120663968D01*
X113646686Y-120658655D01*
X113665116Y-120448000D01*
X113646686Y-120237345D01*
X113591956Y-120033090D01*
X113580533Y-120008594D01*
X113504912Y-119846423D01*
X113504910Y-119846420D01*
X113502589Y-119841442D01*
X113381301Y-119668224D01*
X113231776Y-119518699D01*
X113058558Y-119397411D01*
X113053580Y-119395090D01*
X113053577Y-119395088D01*
X112871892Y-119310367D01*
X112871891Y-119310366D01*
X112866910Y-119308044D01*
X112861602Y-119306622D01*
X112861600Y-119306621D01*
X112667970Y-119254738D01*
X112667968Y-119254738D01*
X112662655Y-119253314D01*
X112452000Y-119234884D01*
X112241345Y-119253314D01*
X112236032Y-119254738D01*
X112236030Y-119254738D01*
X112042400Y-119306621D01*
X112042398Y-119306622D01*
X112037090Y-119308044D01*
X112032109Y-119310366D01*
X112032108Y-119310367D01*
X111850423Y-119395088D01*
X111850420Y-119395090D01*
X111845442Y-119397411D01*
X111672224Y-119518699D01*
X111522699Y-119668224D01*
X111401411Y-119841442D01*
X111399090Y-119846420D01*
X111399088Y-119846423D01*
X111323467Y-120008594D01*
X111312044Y-120033090D01*
X111257314Y-120237345D01*
X111238884Y-120448000D01*
X102665116Y-120448000D01*
X102646686Y-120237345D01*
X102591956Y-120033090D01*
X102580533Y-120008594D01*
X102504912Y-119846423D01*
X102504910Y-119846420D01*
X102502589Y-119841442D01*
X102381301Y-119668224D01*
X102231776Y-119518699D01*
X102058558Y-119397411D01*
X102053580Y-119395090D01*
X102053577Y-119395088D01*
X101871892Y-119310367D01*
X101871891Y-119310366D01*
X101866910Y-119308044D01*
X101861602Y-119306622D01*
X101861600Y-119306621D01*
X101667970Y-119254738D01*
X101667968Y-119254738D01*
X101662655Y-119253314D01*
X101452000Y-119234884D01*
X101241345Y-119253314D01*
X101236032Y-119254738D01*
X101236030Y-119254738D01*
X101042400Y-119306621D01*
X101042398Y-119306622D01*
X101037090Y-119308044D01*
X101032109Y-119310366D01*
X101032108Y-119310367D01*
X100850423Y-119395088D01*
X100850420Y-119395090D01*
X100845442Y-119397411D01*
X100672224Y-119518699D01*
X100522699Y-119668224D01*
X100401411Y-119841442D01*
X100399090Y-119846420D01*
X100399088Y-119846423D01*
X100323467Y-120008594D01*
X100312044Y-120033090D01*
X100257314Y-120237345D01*
X100238884Y-120448000D01*
X95060562Y-120448000D01*
X95061235Y-120319583D01*
X95061235Y-120319576D01*
X95061257Y-120315297D01*
X95058594Y-120295064D01*
X95032968Y-120100419D01*
X95023732Y-120030266D01*
X94947871Y-119752964D01*
X94847948Y-119518699D01*
X94836763Y-119492476D01*
X94836761Y-119492472D01*
X94835077Y-119488524D01*
X94687439Y-119241839D01*
X94507687Y-119017472D01*
X94384289Y-118900372D01*
X94302258Y-118822527D01*
X94302255Y-118822525D01*
X94299149Y-118819577D01*
X94065683Y-118651814D01*
X94043843Y-118640250D01*
X93985766Y-118609500D01*
X93811608Y-118517288D01*
X93541627Y-118418489D01*
X93260736Y-118357245D01*
X93229685Y-118354801D01*
X93037718Y-118339693D01*
X93037709Y-118339693D01*
X93035261Y-118339500D01*
X92879729Y-118339500D01*
X92877593Y-118339646D01*
X92877582Y-118339646D01*
X92669452Y-118353835D01*
X92669446Y-118353836D01*
X92665175Y-118354127D01*
X92660980Y-118354996D01*
X92660978Y-118354996D01*
X92524417Y-118383276D01*
X92383658Y-118412426D01*
X92112657Y-118508393D01*
X91857188Y-118640250D01*
X91853687Y-118642711D01*
X91853683Y-118642713D01*
X91837167Y-118654321D01*
X91621977Y-118805559D01*
X91411378Y-119001260D01*
X91229287Y-119223732D01*
X91079073Y-119468858D01*
X91077347Y-119472791D01*
X91077346Y-119472792D01*
X90998643Y-119652083D01*
X90963517Y-119732102D01*
X90884756Y-120008594D01*
X90881979Y-120028108D01*
X90847720Y-120268830D01*
X90844249Y-120293216D01*
X90844227Y-120297505D01*
X90844226Y-120297512D01*
X90843191Y-120495173D01*
X90842743Y-120580703D01*
X88465793Y-120580703D01*
X88462059Y-120495172D01*
X88463686Y-120468769D01*
X88464263Y-120465342D01*
X88464263Y-120465340D01*
X88465071Y-120460539D01*
X88465224Y-120448000D01*
X88461273Y-120420412D01*
X88460000Y-120402549D01*
X88460000Y-107135086D01*
X92209521Y-107135086D01*
X92211026Y-107166992D01*
X92213360Y-107216488D01*
X92213500Y-107222424D01*
X92213500Y-107244999D01*
X92213750Y-107247796D01*
X92215819Y-107270988D01*
X92216178Y-107276248D01*
X92220104Y-107359488D01*
X92221354Y-107364947D01*
X92221355Y-107364952D01*
X92224108Y-107376970D01*
X92226789Y-107393899D01*
X92228383Y-107411762D01*
X92229865Y-107417178D01*
X92229865Y-107417180D01*
X92250370Y-107492133D01*
X92251656Y-107497251D01*
X92255256Y-107512967D01*
X92270258Y-107578470D01*
X92272460Y-107583632D01*
X92277294Y-107594967D01*
X92282927Y-107611142D01*
X92287663Y-107628451D01*
X92303280Y-107661192D01*
X92323539Y-107703667D01*
X92325710Y-107708476D01*
X92340054Y-107742104D01*
X92358397Y-107785109D01*
X92368251Y-107800110D01*
X92376654Y-107815025D01*
X92384378Y-107831218D01*
X92427337Y-107891001D01*
X92432999Y-107898881D01*
X92435989Y-107903232D01*
X92479196Y-107969010D01*
X92479202Y-107969018D01*
X92481735Y-107972874D01*
X92500257Y-107993662D01*
X92508490Y-108003939D01*
X92515471Y-108013654D01*
X92519498Y-108017556D01*
X92592255Y-108088063D01*
X92593665Y-108089452D01*
X100137475Y-115633263D01*
X100148342Y-115645653D01*
X100161877Y-115663292D01*
X100188751Y-115687745D01*
X100222174Y-115718158D01*
X100226469Y-115722257D01*
X100242410Y-115738198D01*
X100262436Y-115754942D01*
X100266391Y-115758392D01*
X100328036Y-115814485D01*
X100332790Y-115817467D01*
X100343230Y-115824016D01*
X100357090Y-115834085D01*
X100370853Y-115845593D01*
X100375734Y-115848377D01*
X100443218Y-115886869D01*
X100447748Y-115889579D01*
X100518344Y-115933864D01*
X100523548Y-115935956D01*
X100534983Y-115940553D01*
X100550413Y-115948012D01*
X100561119Y-115954119D01*
X100561128Y-115954123D01*
X100565993Y-115956898D01*
X100644538Y-115984712D01*
X100649450Y-115986568D01*
X100726783Y-116017656D01*
X100744361Y-116021296D01*
X100760854Y-116025902D01*
X100777759Y-116031888D01*
X100783293Y-116032794D01*
X100783296Y-116032795D01*
X100859977Y-116045352D01*
X100865149Y-116046311D01*
X100946767Y-116063213D01*
X100957328Y-116063822D01*
X100974563Y-116064816D01*
X100987669Y-116066263D01*
X100993914Y-116067286D01*
X100993921Y-116067287D01*
X100999457Y-116068193D01*
X101005071Y-116068105D01*
X101005073Y-116068105D01*
X101106230Y-116066516D01*
X101108209Y-116066500D01*
X116748604Y-116066500D01*
X116765051Y-116067578D01*
X116781516Y-116069746D01*
X116781520Y-116069746D01*
X116787086Y-116070479D01*
X116868489Y-116066640D01*
X116874424Y-116066500D01*
X116896999Y-116066500D01*
X116922989Y-116064181D01*
X116928248Y-116063822D01*
X117011488Y-116059896D01*
X117016947Y-116058646D01*
X117016952Y-116058645D01*
X117028970Y-116055892D01*
X117045899Y-116053211D01*
X117063762Y-116051617D01*
X117069178Y-116050135D01*
X117069180Y-116050135D01*
X117144133Y-116029630D01*
X117149251Y-116028344D01*
X117225000Y-116010995D01*
X117225002Y-116010994D01*
X117230470Y-116009742D01*
X117240970Y-116005263D01*
X117246967Y-116002706D01*
X117263142Y-115997073D01*
X117275039Y-115993818D01*
X117275043Y-115993817D01*
X117280451Y-115992337D01*
X117350826Y-115958770D01*
X117355667Y-115956461D01*
X117360476Y-115954290D01*
X117431949Y-115923804D01*
X117431950Y-115923804D01*
X117437109Y-115921603D01*
X117452110Y-115911749D01*
X117467025Y-115903346D01*
X117483218Y-115895622D01*
X117487769Y-115892352D01*
X117487772Y-115892350D01*
X117520996Y-115868476D01*
X117550892Y-115846994D01*
X117555232Y-115844011D01*
X117621010Y-115800804D01*
X117621018Y-115800798D01*
X117624874Y-115798265D01*
X117645662Y-115779743D01*
X117655939Y-115771510D01*
X117665654Y-115764529D01*
X117740063Y-115687745D01*
X117741452Y-115686335D01*
X123251903Y-110175885D01*
X128298000Y-110175885D01*
X128302475Y-110191124D01*
X128303865Y-110192329D01*
X128311548Y-110194000D01*
X130283885Y-110194000D01*
X130299124Y-110189525D01*
X130300329Y-110188135D01*
X130302000Y-110180452D01*
X130302000Y-108208116D01*
X130297525Y-108192877D01*
X130296135Y-108191672D01*
X130288452Y-108190001D01*
X128761331Y-108190001D01*
X128754510Y-108190371D01*
X128703648Y-108195895D01*
X128688396Y-108199521D01*
X128567946Y-108244676D01*
X128552351Y-108253214D01*
X128450276Y-108329715D01*
X128437715Y-108342276D01*
X128361214Y-108444351D01*
X128352676Y-108459946D01*
X128307522Y-108580394D01*
X128303895Y-108595649D01*
X128298369Y-108646514D01*
X128298000Y-108653328D01*
X128298000Y-110175885D01*
X123251903Y-110175885D01*
X125706383Y-107721405D01*
X125768695Y-107687379D01*
X125795478Y-107684500D01*
X132141523Y-107684500D01*
X132209644Y-107704502D01*
X132230618Y-107721405D01*
X132488275Y-107979062D01*
X132522301Y-108041374D01*
X132517236Y-108112189D01*
X132474689Y-108169025D01*
X132408169Y-108193836D01*
X132385573Y-108193420D01*
X132357488Y-108190369D01*
X132350672Y-108190000D01*
X130828115Y-108190000D01*
X130812876Y-108194475D01*
X130811671Y-108195865D01*
X130810000Y-108203548D01*
X130810000Y-110175885D01*
X130814475Y-110191124D01*
X130815865Y-110192329D01*
X130823548Y-110194000D01*
X132795884Y-110194000D01*
X132811123Y-110189525D01*
X132812328Y-110188135D01*
X132813999Y-110180452D01*
X132813999Y-108653331D01*
X132813629Y-108646510D01*
X132810579Y-108618424D01*
X132823108Y-108548542D01*
X132871430Y-108496527D01*
X132940202Y-108478894D01*
X133007590Y-108501242D01*
X133024937Y-108515724D01*
X133614753Y-109105540D01*
X133648779Y-109167852D01*
X133643714Y-109238667D01*
X133630423Y-109264637D01*
X133595885Y-109316327D01*
X133594061Y-109320026D01*
X133594058Y-109320031D01*
X133555216Y-109398795D01*
X133464941Y-109581855D01*
X133369776Y-109862203D01*
X133368972Y-109866247D01*
X133368970Y-109866253D01*
X133330066Y-110061837D01*
X133312017Y-110152574D01*
X133311748Y-110156679D01*
X133311747Y-110156686D01*
X133304190Y-110271988D01*
X133292654Y-110448000D01*
X133292924Y-110452119D01*
X133311427Y-110734420D01*
X133312017Y-110743426D01*
X133312819Y-110747459D01*
X133312820Y-110747465D01*
X133368439Y-111027077D01*
X133369776Y-111033797D01*
X133371103Y-111037706D01*
X133371104Y-111037710D01*
X133417287Y-111173760D01*
X133464941Y-111314145D01*
X133511126Y-111407799D01*
X133579793Y-111547041D01*
X133595885Y-111579673D01*
X133634055Y-111636798D01*
X133683287Y-111710479D01*
X133760367Y-111825838D01*
X133763081Y-111828932D01*
X133763085Y-111828938D01*
X133899352Y-111984320D01*
X133955573Y-112048427D01*
X133958662Y-112051136D01*
X134175062Y-112240915D01*
X134175068Y-112240919D01*
X134178162Y-112243633D01*
X134181588Y-112245922D01*
X134181593Y-112245926D01*
X134263048Y-112300352D01*
X134424327Y-112408115D01*
X134428026Y-112409939D01*
X134428031Y-112409942D01*
X134512605Y-112451649D01*
X134689855Y-112539059D01*
X134693760Y-112540384D01*
X134693761Y-112540385D01*
X134966290Y-112632896D01*
X134966294Y-112632897D01*
X134970203Y-112634224D01*
X134974247Y-112635028D01*
X134974253Y-112635030D01*
X135256535Y-112691180D01*
X135256541Y-112691181D01*
X135260574Y-112691983D01*
X135264679Y-112692252D01*
X135264686Y-112692253D01*
X135551881Y-112711076D01*
X135556000Y-112711346D01*
X135560119Y-112711076D01*
X135847314Y-112692253D01*
X135847321Y-112692252D01*
X135851426Y-112691983D01*
X135855459Y-112691181D01*
X135855465Y-112691180D01*
X136137747Y-112635030D01*
X136137753Y-112635028D01*
X136141797Y-112634224D01*
X136145706Y-112632897D01*
X136145710Y-112632896D01*
X136418239Y-112540385D01*
X136418240Y-112540384D01*
X136422145Y-112539059D01*
X136599395Y-112451649D01*
X136683969Y-112409942D01*
X136683974Y-112409939D01*
X136687673Y-112408115D01*
X136848952Y-112300352D01*
X136930407Y-112245926D01*
X136930412Y-112245922D01*
X136933838Y-112243633D01*
X136936932Y-112240919D01*
X136936938Y-112240915D01*
X137153338Y-112051136D01*
X137156427Y-112048427D01*
X137212648Y-111984320D01*
X137348915Y-111828938D01*
X137348919Y-111828932D01*
X137351633Y-111825838D01*
X137428714Y-111710479D01*
X137477945Y-111636798D01*
X137516115Y-111579673D01*
X137532208Y-111547041D01*
X137600874Y-111407799D01*
X137647059Y-111314145D01*
X137653476Y-111295241D01*
X137723137Y-111090026D01*
X137753355Y-111041432D01*
X144452259Y-104342528D01*
X144464651Y-104331660D01*
X144477843Y-104321538D01*
X144477851Y-104321531D01*
X144482292Y-104318123D01*
X144537168Y-104257815D01*
X144541267Y-104253520D01*
X144557198Y-104237589D01*
X144573934Y-104217573D01*
X144577379Y-104213624D01*
X144629703Y-104156121D01*
X144629706Y-104156117D01*
X144633485Y-104151964D01*
X144643013Y-104136775D01*
X144653091Y-104122903D01*
X144660992Y-104113455D01*
X144660997Y-104113448D01*
X144664594Y-104109146D01*
X144705887Y-104036752D01*
X144708592Y-104032232D01*
X144749886Y-103966404D01*
X144749888Y-103966401D01*
X144752864Y-103961656D01*
X144759552Y-103945021D01*
X144767012Y-103929589D01*
X144773120Y-103918881D01*
X144773124Y-103918872D01*
X144775899Y-103914007D01*
X144777768Y-103908730D01*
X144777770Y-103908725D01*
X144803715Y-103835458D01*
X144805580Y-103830522D01*
X144834566Y-103758416D01*
X144836656Y-103753217D01*
X144840294Y-103735650D01*
X144844899Y-103719156D01*
X144850889Y-103702241D01*
X144864355Y-103620009D01*
X144865317Y-103614819D01*
X144881277Y-103537754D01*
X144881278Y-103537750D01*
X144882213Y-103533233D01*
X144883815Y-103505452D01*
X144885262Y-103492347D01*
X144886286Y-103486090D01*
X144886286Y-103486083D01*
X144887194Y-103480542D01*
X144885516Y-103373736D01*
X144885500Y-103371757D01*
X144885500Y-101452941D01*
X144904068Y-101387106D01*
X144972649Y-101275193D01*
X144972655Y-101275182D01*
X144975240Y-101270963D01*
X145066105Y-101051594D01*
X145121535Y-100820711D01*
X145140165Y-100584000D01*
X145121535Y-100347289D01*
X145066105Y-100116406D01*
X144975240Y-99897037D01*
X144876474Y-99735866D01*
X144853759Y-99698798D01*
X144853755Y-99698792D01*
X144851176Y-99694584D01*
X144696969Y-99514031D01*
X144692758Y-99510434D01*
X144625298Y-99452818D01*
X144516416Y-99359824D01*
X144512208Y-99357245D01*
X144512202Y-99357241D01*
X144318183Y-99238346D01*
X144313963Y-99235760D01*
X144309393Y-99233867D01*
X144309389Y-99233865D01*
X144099167Y-99146789D01*
X144099165Y-99146788D01*
X144094594Y-99144895D01*
X144014391Y-99125640D01*
X143868524Y-99090620D01*
X143868518Y-99090619D01*
X143863711Y-99089465D01*
X143627000Y-99070835D01*
X143390289Y-99089465D01*
X143385482Y-99090619D01*
X143385476Y-99090620D01*
X143239609Y-99125640D01*
X143159406Y-99144895D01*
X143154835Y-99146788D01*
X143154833Y-99146789D01*
X142944611Y-99233865D01*
X142944607Y-99233867D01*
X142940037Y-99235760D01*
X142935817Y-99238346D01*
X142741798Y-99357241D01*
X142741792Y-99357245D01*
X142737584Y-99359824D01*
X142628702Y-99452818D01*
X142561243Y-99510434D01*
X142557031Y-99514031D01*
X142402824Y-99694584D01*
X142400245Y-99698792D01*
X142400241Y-99698798D01*
X142377526Y-99735866D01*
X142278760Y-99897037D01*
X142187895Y-100116406D01*
X142132465Y-100347289D01*
X142113835Y-100584000D01*
X142132465Y-100820711D01*
X142187895Y-101051594D01*
X142278760Y-101270963D01*
X142281345Y-101275182D01*
X142281351Y-101275193D01*
X142349932Y-101387106D01*
X142368500Y-101452941D01*
X142368500Y-102814522D01*
X142348498Y-102882643D01*
X142331595Y-102903617D01*
X136791470Y-108443742D01*
X136729158Y-108477768D01*
X136658343Y-108472703D01*
X136646647Y-108467653D01*
X136447872Y-108369628D01*
X136414505Y-108345717D01*
X133669525Y-105600737D01*
X133658657Y-105588346D01*
X133648533Y-105575152D01*
X133645123Y-105570708D01*
X133584826Y-105515842D01*
X133580531Y-105511743D01*
X133564590Y-105495802D01*
X133562440Y-105494004D01*
X133544577Y-105479068D01*
X133540602Y-105475600D01*
X133483112Y-105423288D01*
X133483103Y-105423281D01*
X133478964Y-105419515D01*
X133463773Y-105409986D01*
X133449907Y-105399911D01*
X133440451Y-105392004D01*
X133440441Y-105391997D01*
X133436146Y-105388406D01*
X133363752Y-105347113D01*
X133359232Y-105344408D01*
X133354836Y-105341650D01*
X133308202Y-105312397D01*
X133293404Y-105303114D01*
X133293401Y-105303112D01*
X133288656Y-105300136D01*
X133283451Y-105298043D01*
X133283448Y-105298042D01*
X133272021Y-105293448D01*
X133256589Y-105285988D01*
X133245881Y-105279880D01*
X133245872Y-105279876D01*
X133241007Y-105277101D01*
X133235730Y-105275232D01*
X133235725Y-105275230D01*
X133162458Y-105249285D01*
X133157522Y-105247420D01*
X133085416Y-105218434D01*
X133080217Y-105216344D01*
X133074730Y-105215208D01*
X133074728Y-105215207D01*
X133062651Y-105212706D01*
X133046156Y-105208101D01*
X133029241Y-105202111D01*
X132946990Y-105188641D01*
X132941820Y-105187683D01*
X132882291Y-105175355D01*
X132864758Y-105171724D01*
X132864757Y-105171724D01*
X132860233Y-105170787D01*
X132855621Y-105170521D01*
X132855620Y-105170521D01*
X132832452Y-105169185D01*
X132819347Y-105167738D01*
X132813090Y-105166714D01*
X132813086Y-105166714D01*
X132807543Y-105165806D01*
X132801930Y-105165894D01*
X132801928Y-105165894D01*
X132700736Y-105167484D01*
X132698757Y-105167500D01*
X125313395Y-105167500D01*
X125296948Y-105166422D01*
X125280483Y-105164254D01*
X125280479Y-105164254D01*
X125274913Y-105163521D01*
X125193512Y-105167360D01*
X125187576Y-105167500D01*
X125165001Y-105167500D01*
X125146118Y-105169185D01*
X125139011Y-105169819D01*
X125133749Y-105170178D01*
X125120838Y-105170787D01*
X125050512Y-105174104D01*
X125045053Y-105175354D01*
X125045048Y-105175355D01*
X125033030Y-105178108D01*
X125016101Y-105180789D01*
X124998238Y-105182383D01*
X124992822Y-105183865D01*
X124992820Y-105183865D01*
X124917867Y-105204370D01*
X124912749Y-105205656D01*
X124837000Y-105223005D01*
X124836998Y-105223006D01*
X124831530Y-105224258D01*
X124821030Y-105228737D01*
X124815033Y-105231294D01*
X124798858Y-105236927D01*
X124786961Y-105240182D01*
X124786957Y-105240183D01*
X124781549Y-105241663D01*
X124776483Y-105244079D01*
X124776484Y-105244079D01*
X124706333Y-105277539D01*
X124701524Y-105279710D01*
X124630051Y-105310196D01*
X124624891Y-105312397D01*
X124609890Y-105322251D01*
X124594975Y-105330654D01*
X124578782Y-105338378D01*
X124574231Y-105341648D01*
X124574228Y-105341650D01*
X124566619Y-105347118D01*
X124513023Y-105385631D01*
X124511119Y-105386999D01*
X124506768Y-105389989D01*
X124440990Y-105433196D01*
X124440982Y-105433202D01*
X124437126Y-105435735D01*
X124416338Y-105454257D01*
X124406061Y-105462490D01*
X124396346Y-105469471D01*
X124355382Y-105511743D01*
X124321937Y-105546255D01*
X124320548Y-105547665D01*
X116355617Y-113512595D01*
X116293305Y-113546621D01*
X116266522Y-113549500D01*
X101665478Y-113549500D01*
X101597357Y-113529498D01*
X101576383Y-113512595D01*
X100306457Y-112242669D01*
X102194001Y-112242669D01*
X102194371Y-112249490D01*
X102199895Y-112300352D01*
X102203521Y-112315604D01*
X102248676Y-112436054D01*
X102257214Y-112451649D01*
X102333715Y-112553724D01*
X102346276Y-112566285D01*
X102448351Y-112642786D01*
X102463946Y-112651324D01*
X102584394Y-112696478D01*
X102599649Y-112700105D01*
X102650514Y-112705631D01*
X102657328Y-112706000D01*
X104179885Y-112706000D01*
X104195124Y-112701525D01*
X104196329Y-112700135D01*
X104198000Y-112692452D01*
X104198000Y-112687884D01*
X104706000Y-112687884D01*
X104710475Y-112703123D01*
X104711865Y-112704328D01*
X104719548Y-112705999D01*
X106246669Y-112705999D01*
X106253490Y-112705629D01*
X106304352Y-112700105D01*
X106319604Y-112696479D01*
X106440054Y-112651324D01*
X106455649Y-112642786D01*
X106557724Y-112566285D01*
X106570285Y-112553724D01*
X106646786Y-112451649D01*
X106655324Y-112436054D01*
X106700478Y-112315606D01*
X106704105Y-112300351D01*
X106709631Y-112249486D01*
X106710000Y-112242672D01*
X106710000Y-110720115D01*
X106705525Y-110704876D01*
X106704135Y-110703671D01*
X106696452Y-110702000D01*
X104724115Y-110702000D01*
X104708876Y-110706475D01*
X104707671Y-110707865D01*
X104706000Y-110715548D01*
X104706000Y-112687884D01*
X104198000Y-112687884D01*
X104198000Y-110720115D01*
X104193525Y-110704876D01*
X104192135Y-110703671D01*
X104184452Y-110702000D01*
X102212116Y-110702000D01*
X102196877Y-110706475D01*
X102195672Y-110707865D01*
X102194001Y-110715548D01*
X102194001Y-112242669D01*
X100306457Y-112242669D01*
X98239673Y-110175885D01*
X102194000Y-110175885D01*
X102198475Y-110191124D01*
X102199865Y-110192329D01*
X102207548Y-110194000D01*
X104179885Y-110194000D01*
X104195124Y-110189525D01*
X104196329Y-110188135D01*
X104198000Y-110180452D01*
X104198000Y-110175885D01*
X104706000Y-110175885D01*
X104710475Y-110191124D01*
X104711865Y-110192329D01*
X104719548Y-110194000D01*
X106691884Y-110194000D01*
X106707123Y-110189525D01*
X106708328Y-110188135D01*
X106709999Y-110180452D01*
X106709999Y-108653331D01*
X106709629Y-108646510D01*
X106704105Y-108595648D01*
X106700479Y-108580396D01*
X106655324Y-108459946D01*
X106646786Y-108444351D01*
X106570285Y-108342276D01*
X106557724Y-108329715D01*
X106455649Y-108253214D01*
X106440054Y-108244676D01*
X106319606Y-108199522D01*
X106304351Y-108195895D01*
X106253486Y-108190369D01*
X106246672Y-108190000D01*
X104724115Y-108190000D01*
X104708876Y-108194475D01*
X104707671Y-108195865D01*
X104706000Y-108203548D01*
X104706000Y-110175885D01*
X104198000Y-110175885D01*
X104198000Y-108208116D01*
X104193525Y-108192877D01*
X104192135Y-108191672D01*
X104184452Y-108190001D01*
X102657331Y-108190001D01*
X102650510Y-108190371D01*
X102599648Y-108195895D01*
X102584396Y-108199521D01*
X102463946Y-108244676D01*
X102448351Y-108253214D01*
X102346276Y-108329715D01*
X102333715Y-108342276D01*
X102257214Y-108444351D01*
X102248676Y-108459946D01*
X102203522Y-108580394D01*
X102199895Y-108595649D01*
X102194369Y-108646514D01*
X102194000Y-108653328D01*
X102194000Y-110175885D01*
X98239673Y-110175885D01*
X94767405Y-106703617D01*
X94733379Y-106641305D01*
X94730500Y-106614522D01*
X94730500Y-89591839D01*
X95869173Y-89591839D01*
X95869397Y-89596505D01*
X95869397Y-89596511D01*
X95872740Y-89666105D01*
X95881713Y-89852908D01*
X95932704Y-90109256D01*
X96021026Y-90355252D01*
X96023242Y-90359376D01*
X96130152Y-90558346D01*
X96144737Y-90585491D01*
X96147532Y-90589234D01*
X96147534Y-90589237D01*
X96298330Y-90791177D01*
X96298335Y-90791183D01*
X96301122Y-90794915D01*
X96304431Y-90798195D01*
X96304436Y-90798201D01*
X96473727Y-90966020D01*
X96486743Y-90978923D01*
X96490505Y-90981681D01*
X96490508Y-90981684D01*
X96693750Y-91130707D01*
X96697524Y-91133474D01*
X96701667Y-91135654D01*
X96701669Y-91135655D01*
X96924684Y-91252989D01*
X96924689Y-91252991D01*
X96928834Y-91255172D01*
X97045059Y-91295760D01*
X97157364Y-91334979D01*
X97175590Y-91341344D01*
X97180183Y-91342216D01*
X97427785Y-91389224D01*
X97427788Y-91389224D01*
X97432374Y-91390095D01*
X97525650Y-91393760D01*
X97562064Y-91395191D01*
X97629347Y-91417852D01*
X97646212Y-91431999D01*
X98082595Y-91868382D01*
X98116621Y-91930694D01*
X98119500Y-91957477D01*
X98119500Y-93009459D01*
X98099498Y-93077580D01*
X98095436Y-93083521D01*
X98093041Y-93086818D01*
X98089824Y-93090584D01*
X97965760Y-93293037D01*
X97963867Y-93297607D01*
X97963865Y-93297611D01*
X97953559Y-93322493D01*
X97874895Y-93512406D01*
X97819465Y-93743289D01*
X97800835Y-93980000D01*
X97819465Y-94216711D01*
X97874895Y-94447594D01*
X97965760Y-94666963D01*
X98089824Y-94869416D01*
X98093041Y-94873182D01*
X98095436Y-94876479D01*
X98119294Y-94943347D01*
X98119500Y-94950541D01*
X98119500Y-99262543D01*
X98115207Y-99295152D01*
X98084457Y-99409913D01*
X98079588Y-99465564D01*
X98073180Y-99538815D01*
X98069500Y-99580873D01*
X98069500Y-102095127D01*
X98084457Y-102266087D01*
X98143716Y-102487243D01*
X98146039Y-102492224D01*
X98146039Y-102492225D01*
X98238151Y-102689762D01*
X98238154Y-102689767D01*
X98240477Y-102694749D01*
X98371802Y-102882300D01*
X98533700Y-103044198D01*
X98538208Y-103047355D01*
X98538211Y-103047357D01*
X98616389Y-103102098D01*
X98721251Y-103175523D01*
X98726233Y-103177846D01*
X98726238Y-103177849D01*
X98878073Y-103248650D01*
X98928757Y-103272284D01*
X98934065Y-103273706D01*
X98934067Y-103273707D01*
X99144598Y-103330119D01*
X99144600Y-103330119D01*
X99149913Y-103331543D01*
X99378000Y-103351498D01*
X99606087Y-103331543D01*
X99611400Y-103330119D01*
X99611402Y-103330119D01*
X99821933Y-103273707D01*
X99821935Y-103273706D01*
X99827243Y-103272284D01*
X99877927Y-103248650D01*
X100029762Y-103177849D01*
X100029767Y-103177846D01*
X100034749Y-103175523D01*
X100139611Y-103102098D01*
X100217789Y-103047357D01*
X100217792Y-103047355D01*
X100222300Y-103044198D01*
X100384198Y-102882300D01*
X100515523Y-102694749D01*
X100517846Y-102689767D01*
X100517849Y-102689762D01*
X100609961Y-102492225D01*
X100609961Y-102492224D01*
X100612284Y-102487243D01*
X100671543Y-102266087D01*
X100686500Y-102095127D01*
X102069500Y-102095127D01*
X102084457Y-102266087D01*
X102143716Y-102487243D01*
X102146039Y-102492224D01*
X102146039Y-102492225D01*
X102238151Y-102689762D01*
X102238154Y-102689767D01*
X102240477Y-102694749D01*
X102371802Y-102882300D01*
X102533700Y-103044198D01*
X102538208Y-103047355D01*
X102538211Y-103047357D01*
X102616389Y-103102098D01*
X102721251Y-103175523D01*
X102726233Y-103177846D01*
X102726238Y-103177849D01*
X102831591Y-103226975D01*
X102928757Y-103272284D01*
X102934068Y-103273707D01*
X102934071Y-103273708D01*
X102988682Y-103288341D01*
X103045166Y-103320953D01*
X108102410Y-108378198D01*
X108102414Y-108378201D01*
X108146885Y-108422672D01*
X108180911Y-108484984D01*
X108175846Y-108555799D01*
X108127793Y-108616532D01*
X108074162Y-108652367D01*
X108071068Y-108655081D01*
X108071062Y-108655085D01*
X107854662Y-108844864D01*
X107851573Y-108847573D01*
X107848864Y-108850662D01*
X107659085Y-109067062D01*
X107659081Y-109067068D01*
X107656367Y-109070162D01*
X107654078Y-109073588D01*
X107654074Y-109073593D01*
X107576628Y-109189500D01*
X107491885Y-109316327D01*
X107490061Y-109320026D01*
X107490058Y-109320031D01*
X107451216Y-109398795D01*
X107360941Y-109581855D01*
X107265776Y-109862203D01*
X107264972Y-109866247D01*
X107264970Y-109866253D01*
X107226066Y-110061837D01*
X107208017Y-110152574D01*
X107207748Y-110156679D01*
X107207747Y-110156686D01*
X107200190Y-110271988D01*
X107188654Y-110448000D01*
X107188924Y-110452119D01*
X107207427Y-110734420D01*
X107208017Y-110743426D01*
X107208819Y-110747459D01*
X107208820Y-110747465D01*
X107264439Y-111027077D01*
X107265776Y-111033797D01*
X107267103Y-111037706D01*
X107267104Y-111037710D01*
X107313287Y-111173760D01*
X107360941Y-111314145D01*
X107407126Y-111407799D01*
X107475793Y-111547041D01*
X107491885Y-111579673D01*
X107530055Y-111636798D01*
X107579287Y-111710479D01*
X107656367Y-111825838D01*
X107659081Y-111828932D01*
X107659085Y-111828938D01*
X107795352Y-111984320D01*
X107851573Y-112048427D01*
X107854662Y-112051136D01*
X108071062Y-112240915D01*
X108071068Y-112240919D01*
X108074162Y-112243633D01*
X108077588Y-112245922D01*
X108077593Y-112245926D01*
X108159048Y-112300352D01*
X108320327Y-112408115D01*
X108324026Y-112409939D01*
X108324031Y-112409942D01*
X108408605Y-112451649D01*
X108585855Y-112539059D01*
X108589760Y-112540384D01*
X108589761Y-112540385D01*
X108862290Y-112632896D01*
X108862294Y-112632897D01*
X108866203Y-112634224D01*
X108870247Y-112635028D01*
X108870253Y-112635030D01*
X109152535Y-112691180D01*
X109152541Y-112691181D01*
X109156574Y-112691983D01*
X109160679Y-112692252D01*
X109160686Y-112692253D01*
X109447881Y-112711076D01*
X109452000Y-112711346D01*
X109456119Y-112711076D01*
X109743314Y-112692253D01*
X109743321Y-112692252D01*
X109747426Y-112691983D01*
X109751459Y-112691181D01*
X109751465Y-112691180D01*
X110033747Y-112635030D01*
X110033753Y-112635028D01*
X110037797Y-112634224D01*
X110041706Y-112632897D01*
X110041710Y-112632896D01*
X110314239Y-112540385D01*
X110314240Y-112540384D01*
X110318145Y-112539059D01*
X110495395Y-112451649D01*
X110579969Y-112409942D01*
X110579974Y-112409939D01*
X110583673Y-112408115D01*
X110744952Y-112300352D01*
X110826407Y-112245926D01*
X110826412Y-112245922D01*
X110829838Y-112243633D01*
X110832932Y-112240919D01*
X110832938Y-112240915D01*
X111049338Y-112051136D01*
X111052427Y-112048427D01*
X111108648Y-111984320D01*
X111244915Y-111828938D01*
X111244919Y-111828932D01*
X111247633Y-111825838D01*
X111289956Y-111762498D01*
X111344431Y-111716971D01*
X111394720Y-111706500D01*
X116790604Y-111706500D01*
X116807051Y-111707578D01*
X116823516Y-111709746D01*
X116823520Y-111709746D01*
X116829086Y-111710479D01*
X116910489Y-111706640D01*
X116916424Y-111706500D01*
X116938999Y-111706500D01*
X116964989Y-111704181D01*
X116970248Y-111703822D01*
X117053488Y-111699896D01*
X117058947Y-111698646D01*
X117058952Y-111698645D01*
X117070970Y-111695892D01*
X117087899Y-111693211D01*
X117105762Y-111691617D01*
X117111178Y-111690135D01*
X117111180Y-111690135D01*
X117186133Y-111669630D01*
X117191251Y-111668344D01*
X117267000Y-111650995D01*
X117267002Y-111650994D01*
X117272470Y-111649742D01*
X117282970Y-111645263D01*
X117288967Y-111642706D01*
X117305142Y-111637073D01*
X117317039Y-111633818D01*
X117317043Y-111633817D01*
X117322451Y-111632337D01*
X117397667Y-111596461D01*
X117402476Y-111594290D01*
X117473949Y-111563804D01*
X117473950Y-111563804D01*
X117479109Y-111561603D01*
X117494110Y-111551749D01*
X117509025Y-111543346D01*
X117525218Y-111535622D01*
X117529769Y-111532352D01*
X117529772Y-111532350D01*
X117592881Y-111487001D01*
X117597232Y-111484011D01*
X117663010Y-111440804D01*
X117663018Y-111440798D01*
X117666874Y-111438265D01*
X117687662Y-111419743D01*
X117697939Y-111411510D01*
X117707654Y-111404529D01*
X117782063Y-111327745D01*
X117783452Y-111326335D01*
X124767259Y-104342528D01*
X124779651Y-104331660D01*
X124792843Y-104321538D01*
X124792851Y-104321531D01*
X124797292Y-104318123D01*
X124852168Y-104257815D01*
X124856267Y-104253520D01*
X124872198Y-104237589D01*
X124888934Y-104217573D01*
X124892379Y-104213624D01*
X124944703Y-104156121D01*
X124944706Y-104156117D01*
X124948485Y-104151964D01*
X124958013Y-104136775D01*
X124968091Y-104122903D01*
X124975992Y-104113455D01*
X124975997Y-104113448D01*
X124979594Y-104109146D01*
X125020887Y-104036752D01*
X125023592Y-104032232D01*
X125064886Y-103966404D01*
X125064888Y-103966401D01*
X125067864Y-103961656D01*
X125074552Y-103945021D01*
X125082012Y-103929589D01*
X125088120Y-103918881D01*
X125088124Y-103918872D01*
X125090899Y-103914007D01*
X125092768Y-103908730D01*
X125092770Y-103908725D01*
X125118715Y-103835458D01*
X125120580Y-103830522D01*
X125149566Y-103758416D01*
X125151656Y-103753217D01*
X125155294Y-103735650D01*
X125159899Y-103719156D01*
X125165889Y-103702241D01*
X125179355Y-103620009D01*
X125180317Y-103614819D01*
X125196277Y-103537754D01*
X125196278Y-103537750D01*
X125197213Y-103533233D01*
X125198815Y-103505452D01*
X125200262Y-103492347D01*
X125201286Y-103486090D01*
X125201286Y-103486083D01*
X125202194Y-103480542D01*
X125200516Y-103373736D01*
X125200500Y-103371757D01*
X125200500Y-101968500D01*
X125220502Y-101900379D01*
X125274158Y-101853886D01*
X125326500Y-101842500D01*
X128163059Y-101842500D01*
X128228894Y-101861068D01*
X128340807Y-101929649D01*
X128340817Y-101929654D01*
X128345037Y-101932240D01*
X128349607Y-101934133D01*
X128349611Y-101934135D01*
X128559833Y-102021211D01*
X128564406Y-102023105D01*
X128644609Y-102042360D01*
X128790476Y-102077380D01*
X128790482Y-102077381D01*
X128795289Y-102078535D01*
X129032000Y-102097165D01*
X129268711Y-102078535D01*
X129273518Y-102077381D01*
X129273524Y-102077380D01*
X129419391Y-102042360D01*
X129499594Y-102023105D01*
X129504167Y-102021211D01*
X129714389Y-101934135D01*
X129714393Y-101934133D01*
X129718963Y-101932240D01*
X129770955Y-101900379D01*
X129917202Y-101810759D01*
X129917208Y-101810755D01*
X129921416Y-101808176D01*
X130101969Y-101653969D01*
X130256176Y-101473416D01*
X130258755Y-101469208D01*
X130258759Y-101469202D01*
X130377654Y-101275183D01*
X130380240Y-101270963D01*
X130471105Y-101051594D01*
X130526535Y-100820711D01*
X130545165Y-100584000D01*
X130526535Y-100347289D01*
X130471105Y-100116406D01*
X130380240Y-99897037D01*
X130281474Y-99735866D01*
X130258759Y-99698798D01*
X130258755Y-99698792D01*
X130256176Y-99694584D01*
X130101969Y-99514031D01*
X130097758Y-99510434D01*
X130030298Y-99452818D01*
X129921416Y-99359824D01*
X129917208Y-99357245D01*
X129917202Y-99357241D01*
X129723183Y-99238346D01*
X129718963Y-99235760D01*
X129714393Y-99233867D01*
X129714389Y-99233865D01*
X129504167Y-99146789D01*
X129504165Y-99146788D01*
X129499594Y-99144895D01*
X129419391Y-99125640D01*
X129273524Y-99090620D01*
X129273518Y-99090619D01*
X129268711Y-99089465D01*
X129032000Y-99070835D01*
X128795289Y-99089465D01*
X128790482Y-99090619D01*
X128790476Y-99090620D01*
X128644609Y-99125640D01*
X128564406Y-99144895D01*
X128559835Y-99146788D01*
X128559833Y-99146789D01*
X128349611Y-99233865D01*
X128349607Y-99233867D01*
X128345037Y-99235760D01*
X128340818Y-99238345D01*
X128340807Y-99238351D01*
X128228894Y-99306932D01*
X128163059Y-99325500D01*
X124810941Y-99325500D01*
X124745106Y-99306932D01*
X124633193Y-99238351D01*
X124633182Y-99238345D01*
X124628963Y-99235760D01*
X124624393Y-99233867D01*
X124624389Y-99233865D01*
X124414167Y-99146789D01*
X124414165Y-99146788D01*
X124409594Y-99144895D01*
X124329391Y-99125640D01*
X124183524Y-99090620D01*
X124183518Y-99090619D01*
X124178711Y-99089465D01*
X123942000Y-99070835D01*
X123705289Y-99089465D01*
X123700482Y-99090619D01*
X123700476Y-99090620D01*
X123554609Y-99125640D01*
X123474406Y-99144895D01*
X123469835Y-99146788D01*
X123469833Y-99146789D01*
X123259611Y-99233865D01*
X123259607Y-99233867D01*
X123255037Y-99235760D01*
X123250817Y-99238346D01*
X123056798Y-99357241D01*
X123056792Y-99357245D01*
X123052584Y-99359824D01*
X122943702Y-99452818D01*
X122876243Y-99510434D01*
X122872031Y-99514031D01*
X122717824Y-99694584D01*
X122715245Y-99698792D01*
X122715241Y-99698798D01*
X122692526Y-99735866D01*
X122593760Y-99897037D01*
X122502895Y-100116406D01*
X122447465Y-100347289D01*
X122428835Y-100584000D01*
X122447465Y-100820711D01*
X122502895Y-101051594D01*
X122593760Y-101270963D01*
X122596345Y-101275182D01*
X122596351Y-101275193D01*
X122664932Y-101387106D01*
X122683500Y-101452941D01*
X122683500Y-102814522D01*
X122663498Y-102882643D01*
X122646595Y-102903617D01*
X116397617Y-109152595D01*
X116335305Y-109186621D01*
X116308522Y-109189500D01*
X111394720Y-109189500D01*
X111326599Y-109169498D01*
X111289956Y-109133503D01*
X111247633Y-109070162D01*
X111244919Y-109067068D01*
X111244915Y-109067062D01*
X111055136Y-108850662D01*
X111052427Y-108847573D01*
X111049338Y-108844864D01*
X110832938Y-108655085D01*
X110832932Y-108655081D01*
X110829838Y-108652367D01*
X110766498Y-108610044D01*
X110720971Y-108555569D01*
X110710500Y-108505280D01*
X110710500Y-108039396D01*
X110711578Y-108022949D01*
X110713747Y-108006472D01*
X110714479Y-108000914D01*
X110714137Y-107993650D01*
X110710640Y-107919504D01*
X110710500Y-107913569D01*
X110710500Y-107891001D01*
X110710252Y-107888218D01*
X110710251Y-107888204D01*
X110708182Y-107865023D01*
X110707823Y-107859760D01*
X110704161Y-107782116D01*
X110703897Y-107776512D01*
X110699892Y-107759023D01*
X110697212Y-107742104D01*
X110696115Y-107729821D01*
X110695617Y-107724238D01*
X110690218Y-107704502D01*
X110673631Y-107643870D01*
X110672345Y-107638752D01*
X110654994Y-107562997D01*
X110653742Y-107557530D01*
X110646707Y-107541037D01*
X110641072Y-107524855D01*
X110637820Y-107512967D01*
X110637817Y-107512958D01*
X110636337Y-107507549D01*
X110633922Y-107502486D01*
X110633918Y-107502475D01*
X110600466Y-107432343D01*
X110598293Y-107427532D01*
X110567803Y-107356048D01*
X110565604Y-107350892D01*
X110555756Y-107335900D01*
X110547344Y-107320971D01*
X110539622Y-107304782D01*
X110490996Y-107237111D01*
X110488013Y-107232771D01*
X110444805Y-107166992D01*
X110444801Y-107166987D01*
X110442265Y-107163126D01*
X110423751Y-107142346D01*
X110415506Y-107132055D01*
X110411807Y-107126907D01*
X110411803Y-107126903D01*
X110408529Y-107122346D01*
X110331777Y-107047968D01*
X110330367Y-107046579D01*
X106735728Y-103451940D01*
X106701702Y-103389628D01*
X106706767Y-103318813D01*
X106749314Y-103261977D01*
X106815834Y-103237166D01*
X106878072Y-103248650D01*
X106923770Y-103269959D01*
X106923775Y-103269961D01*
X106928757Y-103272284D01*
X106934065Y-103273706D01*
X106934067Y-103273707D01*
X107144598Y-103330119D01*
X107144600Y-103330119D01*
X107149913Y-103331543D01*
X107378000Y-103351498D01*
X107606087Y-103331543D01*
X107611400Y-103330119D01*
X107611402Y-103330119D01*
X107821933Y-103273707D01*
X107821935Y-103273706D01*
X107827243Y-103272284D01*
X107877927Y-103248650D01*
X108029762Y-103177849D01*
X108029767Y-103177846D01*
X108034749Y-103175523D01*
X108139611Y-103102098D01*
X108217789Y-103047357D01*
X108217792Y-103047355D01*
X108222300Y-103044198D01*
X108384198Y-102882300D01*
X108515523Y-102694749D01*
X108517846Y-102689767D01*
X108517849Y-102689762D01*
X108609961Y-102492225D01*
X108609961Y-102492224D01*
X108612284Y-102487243D01*
X108671543Y-102266087D01*
X108686500Y-102095127D01*
X108686500Y-101670062D01*
X112279606Y-101670062D01*
X112288902Y-101682077D01*
X112340107Y-101717931D01*
X112349602Y-101723414D01*
X112547060Y-101815490D01*
X112557352Y-101819236D01*
X112767801Y-101875625D01*
X112778594Y-101877528D01*
X112995638Y-101896517D01*
X113006588Y-101896517D01*
X113223632Y-101877528D01*
X113234425Y-101875625D01*
X113444874Y-101819236D01*
X113455166Y-101815490D01*
X113652624Y-101723414D01*
X113662124Y-101717929D01*
X113663023Y-101717299D01*
X113663483Y-101717144D01*
X113666881Y-101715182D01*
X113667275Y-101715865D01*
X113730297Y-101694612D01*
X113799157Y-101711898D01*
X113824916Y-101734934D01*
X113826120Y-101733730D01*
X113832471Y-101740081D01*
X113837852Y-101747261D01*
X113845032Y-101752642D01*
X113845035Y-101752645D01*
X113908611Y-101800292D01*
X113954408Y-101834615D01*
X114090797Y-101885745D01*
X114152979Y-101892500D01*
X115849247Y-101892500D01*
X115852644Y-101892131D01*
X115903579Y-101886598D01*
X115903581Y-101886598D01*
X115911429Y-101885745D01*
X115918822Y-101882973D01*
X115918824Y-101882973D01*
X116005397Y-101850518D01*
X116049626Y-101842500D01*
X117993059Y-101842500D01*
X118058894Y-101861068D01*
X118170807Y-101929649D01*
X118170817Y-101929654D01*
X118175037Y-101932240D01*
X118179607Y-101934133D01*
X118179611Y-101934135D01*
X118389833Y-102021211D01*
X118394406Y-102023105D01*
X118474609Y-102042360D01*
X118620476Y-102077380D01*
X118620482Y-102077381D01*
X118625289Y-102078535D01*
X118862000Y-102097165D01*
X119098711Y-102078535D01*
X119103518Y-102077381D01*
X119103524Y-102077380D01*
X119249391Y-102042360D01*
X119329594Y-102023105D01*
X119334167Y-102021211D01*
X119544389Y-101934135D01*
X119544393Y-101934133D01*
X119548963Y-101932240D01*
X119600955Y-101900379D01*
X119747202Y-101810759D01*
X119747208Y-101810755D01*
X119751416Y-101808176D01*
X119931969Y-101653969D01*
X120086176Y-101473416D01*
X120088755Y-101469208D01*
X120088759Y-101469202D01*
X120207654Y-101275183D01*
X120210240Y-101270963D01*
X120301105Y-101051594D01*
X120356535Y-100820711D01*
X120375165Y-100584000D01*
X120356535Y-100347289D01*
X120301105Y-100116406D01*
X120210240Y-99897037D01*
X120207654Y-99892817D01*
X120207649Y-99892807D01*
X120139068Y-99780894D01*
X120120500Y-99715059D01*
X120120500Y-92746134D01*
X127908500Y-92746134D01*
X127915255Y-92808316D01*
X127966385Y-92944705D01*
X128053739Y-93061261D01*
X128170295Y-93148615D01*
X128306684Y-93199745D01*
X128368866Y-93206500D01*
X129093523Y-93206500D01*
X129161644Y-93226502D01*
X129182618Y-93243405D01*
X132816595Y-96877383D01*
X132850621Y-96939695D01*
X132853500Y-96966478D01*
X132853500Y-99715059D01*
X132834932Y-99780894D01*
X132766351Y-99892807D01*
X132766346Y-99892817D01*
X132763760Y-99897037D01*
X132672895Y-100116406D01*
X132617465Y-100347289D01*
X132598835Y-100584000D01*
X132617465Y-100820711D01*
X132672895Y-101051594D01*
X132763760Y-101270963D01*
X132766346Y-101275183D01*
X132885241Y-101469202D01*
X132885245Y-101469208D01*
X132887824Y-101473416D01*
X133042031Y-101653969D01*
X133222584Y-101808176D01*
X133226792Y-101810755D01*
X133226798Y-101810759D01*
X133373045Y-101900379D01*
X133425037Y-101932240D01*
X133429607Y-101934133D01*
X133429611Y-101934135D01*
X133639833Y-102021211D01*
X133644406Y-102023105D01*
X133724609Y-102042360D01*
X133870476Y-102077380D01*
X133870482Y-102077381D01*
X133875289Y-102078535D01*
X134112000Y-102097165D01*
X134348711Y-102078535D01*
X134353518Y-102077381D01*
X134353524Y-102077380D01*
X134499391Y-102042360D01*
X134579594Y-102023105D01*
X134584167Y-102021211D01*
X134794389Y-101934135D01*
X134794393Y-101934133D01*
X134798963Y-101932240D01*
X134850955Y-101900379D01*
X134997202Y-101810759D01*
X134997208Y-101810755D01*
X135001416Y-101808176D01*
X135181969Y-101653969D01*
X135336176Y-101473416D01*
X135338755Y-101469208D01*
X135338759Y-101469202D01*
X135457654Y-101275183D01*
X135460240Y-101270963D01*
X135551105Y-101051594D01*
X135606535Y-100820711D01*
X135625165Y-100584000D01*
X137033835Y-100584000D01*
X137052465Y-100820711D01*
X137107895Y-101051594D01*
X137198760Y-101270963D01*
X137201346Y-101275183D01*
X137320241Y-101469202D01*
X137320245Y-101469208D01*
X137322824Y-101473416D01*
X137477031Y-101653969D01*
X137657584Y-101808176D01*
X137661792Y-101810755D01*
X137661798Y-101810759D01*
X137808045Y-101900379D01*
X137860037Y-101932240D01*
X137864607Y-101934133D01*
X137864611Y-101934135D01*
X138074833Y-102021211D01*
X138079406Y-102023105D01*
X138159609Y-102042360D01*
X138305476Y-102077380D01*
X138305482Y-102077381D01*
X138310289Y-102078535D01*
X138547000Y-102097165D01*
X138783711Y-102078535D01*
X138788518Y-102077381D01*
X138788524Y-102077380D01*
X138934391Y-102042360D01*
X139014594Y-102023105D01*
X139019167Y-102021211D01*
X139229389Y-101934135D01*
X139229393Y-101934133D01*
X139233963Y-101932240D01*
X139285955Y-101900379D01*
X139432202Y-101810759D01*
X139432208Y-101810755D01*
X139436416Y-101808176D01*
X139616969Y-101653969D01*
X139771176Y-101473416D01*
X139773755Y-101469208D01*
X139773759Y-101469202D01*
X139892654Y-101275183D01*
X139895240Y-101270963D01*
X139986105Y-101051594D01*
X140017905Y-100919139D01*
X140051329Y-100859458D01*
X141287259Y-99623528D01*
X141299651Y-99612660D01*
X141312843Y-99602538D01*
X141312851Y-99602531D01*
X141317292Y-99599123D01*
X141372168Y-99538815D01*
X141376267Y-99534520D01*
X141392198Y-99518589D01*
X141408934Y-99498573D01*
X141412379Y-99494624D01*
X141464703Y-99437121D01*
X141464706Y-99437117D01*
X141468485Y-99432964D01*
X141478013Y-99417775D01*
X141488091Y-99403903D01*
X141495992Y-99394455D01*
X141495997Y-99394448D01*
X141499594Y-99390146D01*
X141540887Y-99317752D01*
X141543592Y-99313232D01*
X141584886Y-99247404D01*
X141584888Y-99247401D01*
X141587864Y-99242656D01*
X141589958Y-99237448D01*
X141594552Y-99226021D01*
X141602012Y-99210589D01*
X141608120Y-99199881D01*
X141608124Y-99199872D01*
X141610899Y-99195007D01*
X141612768Y-99189730D01*
X141612770Y-99189725D01*
X141638715Y-99116458D01*
X141640580Y-99111522D01*
X141669566Y-99039416D01*
X141671656Y-99034217D01*
X141675294Y-99016650D01*
X141679899Y-99000156D01*
X141685889Y-98983241D01*
X141699359Y-98900990D01*
X141700319Y-98895811D01*
X141716276Y-98818758D01*
X141716276Y-98818757D01*
X141717213Y-98814233D01*
X141718815Y-98786452D01*
X141720262Y-98773347D01*
X141721286Y-98767090D01*
X141721286Y-98767086D01*
X141722194Y-98761543D01*
X141720516Y-98654736D01*
X141720500Y-98652757D01*
X141720500Y-93322493D01*
X141740502Y-93254372D01*
X141794158Y-93207879D01*
X141815763Y-93200457D01*
X141822316Y-93199745D01*
X141829711Y-93196973D01*
X141829714Y-93196972D01*
X141950297Y-93151767D01*
X141958705Y-93148615D01*
X142075261Y-93061261D01*
X142162615Y-92944705D01*
X142213745Y-92808316D01*
X142220500Y-92746134D01*
X142220500Y-91149866D01*
X142213745Y-91087684D01*
X142162615Y-90951295D01*
X142075261Y-90834739D01*
X141958705Y-90747385D01*
X141822316Y-90696255D01*
X141760134Y-90689500D01*
X141725823Y-90689500D01*
X141657702Y-90669498D01*
X141611209Y-90615842D01*
X141601105Y-90545568D01*
X141630599Y-90480988D01*
X141652297Y-90461177D01*
X141782767Y-90367425D01*
X141791233Y-90360117D01*
X141939692Y-90206918D01*
X141946735Y-90198221D01*
X142065719Y-90021156D01*
X142071105Y-90011358D01*
X142156857Y-89816010D01*
X142160422Y-89805418D01*
X142190624Y-89679616D01*
X142189919Y-89665530D01*
X142181040Y-89662000D01*
X138743589Y-89662000D01*
X138729607Y-89666105D01*
X138728114Y-89675728D01*
X138728166Y-89675973D01*
X138790898Y-89879883D01*
X138795119Y-89890229D01*
X138892971Y-90079814D01*
X138898957Y-90089245D01*
X139028832Y-90258501D01*
X139036393Y-90266724D01*
X139194194Y-90410312D01*
X139203089Y-90417064D01*
X139266375Y-90456763D01*
X139313452Y-90509907D01*
X139324324Y-90580066D01*
X139295540Y-90644965D01*
X139236237Y-90684000D01*
X139199418Y-90689500D01*
X139163866Y-90689500D01*
X139101684Y-90696255D01*
X138965295Y-90747385D01*
X138848739Y-90834739D01*
X138761385Y-90951295D01*
X138710255Y-91087684D01*
X138703500Y-91149866D01*
X138703500Y-92746134D01*
X138710255Y-92808316D01*
X138761385Y-92944705D01*
X138848739Y-93061261D01*
X138965295Y-93148615D01*
X138973703Y-93151767D01*
X139094286Y-93196972D01*
X139094289Y-93196973D01*
X139101684Y-93199745D01*
X139107453Y-93200372D01*
X139168291Y-93235126D01*
X139201113Y-93298081D01*
X139203500Y-93322493D01*
X139203500Y-98095523D01*
X139183498Y-98163644D01*
X139166595Y-98184618D01*
X138271541Y-99079672D01*
X138211860Y-99113096D01*
X138079406Y-99144895D01*
X138074835Y-99146788D01*
X138074833Y-99146789D01*
X137864611Y-99233865D01*
X137864607Y-99233867D01*
X137860037Y-99235760D01*
X137855817Y-99238346D01*
X137661798Y-99357241D01*
X137661792Y-99357245D01*
X137657584Y-99359824D01*
X137548702Y-99452818D01*
X137481243Y-99510434D01*
X137477031Y-99514031D01*
X137322824Y-99694584D01*
X137320245Y-99698792D01*
X137320241Y-99698798D01*
X137297526Y-99735866D01*
X137198760Y-99897037D01*
X137107895Y-100116406D01*
X137052465Y-100347289D01*
X137033835Y-100584000D01*
X135625165Y-100584000D01*
X135606535Y-100347289D01*
X135551105Y-100116406D01*
X135460240Y-99897037D01*
X135457654Y-99892817D01*
X135457649Y-99892807D01*
X135389068Y-99780894D01*
X135370500Y-99715059D01*
X135370500Y-96484395D01*
X135371578Y-96467948D01*
X135373746Y-96451483D01*
X135373746Y-96451479D01*
X135374479Y-96445913D01*
X135370640Y-96364511D01*
X135370500Y-96358576D01*
X135370500Y-96336001D01*
X135368181Y-96310011D01*
X135367822Y-96304749D01*
X135364160Y-96227113D01*
X135363896Y-96221512D01*
X135359892Y-96204030D01*
X135357211Y-96187100D01*
X135356116Y-96174832D01*
X135355617Y-96169238D01*
X135333630Y-96088867D01*
X135332344Y-96083749D01*
X135314995Y-96008000D01*
X135314994Y-96007998D01*
X135313742Y-96002530D01*
X135306706Y-95986033D01*
X135301073Y-95969858D01*
X135297818Y-95957961D01*
X135297817Y-95957957D01*
X135296337Y-95952549D01*
X135260461Y-95877333D01*
X135258290Y-95872524D01*
X135227804Y-95801051D01*
X135227804Y-95801050D01*
X135225603Y-95795891D01*
X135215749Y-95780890D01*
X135207343Y-95765970D01*
X135202035Y-95754841D01*
X135199622Y-95749782D01*
X135196354Y-95745234D01*
X135196351Y-95745229D01*
X135150998Y-95682114D01*
X135148009Y-95677765D01*
X135102265Y-95608125D01*
X135083747Y-95587341D01*
X135075498Y-95577045D01*
X135071804Y-95571904D01*
X135068529Y-95567346D01*
X134991777Y-95492968D01*
X134990367Y-95491579D01*
X131462405Y-91963617D01*
X131428379Y-91901305D01*
X131425500Y-91874522D01*
X131425500Y-91149866D01*
X131418745Y-91087684D01*
X131367615Y-90951295D01*
X131280261Y-90834739D01*
X131163705Y-90747385D01*
X131027316Y-90696255D01*
X130965134Y-90689500D01*
X130930823Y-90689500D01*
X130862702Y-90669498D01*
X130816209Y-90615842D01*
X130806105Y-90545568D01*
X130835599Y-90480988D01*
X130857297Y-90461177D01*
X130987767Y-90367425D01*
X130996233Y-90360117D01*
X131144692Y-90206918D01*
X131151735Y-90198221D01*
X131270719Y-90021156D01*
X131276105Y-90011358D01*
X131361857Y-89816010D01*
X131365422Y-89805418D01*
X131395624Y-89679616D01*
X131394919Y-89665530D01*
X131386040Y-89662000D01*
X127948589Y-89662000D01*
X127934607Y-89666105D01*
X127933114Y-89675728D01*
X127933166Y-89675973D01*
X127995898Y-89879883D01*
X128000119Y-89890229D01*
X128097971Y-90079814D01*
X128103957Y-90089245D01*
X128233832Y-90258501D01*
X128241393Y-90266724D01*
X128399194Y-90410312D01*
X128408089Y-90417064D01*
X128471375Y-90456763D01*
X128518452Y-90509907D01*
X128529324Y-90580066D01*
X128500540Y-90644965D01*
X128441237Y-90684000D01*
X128404418Y-90689500D01*
X128368866Y-90689500D01*
X128306684Y-90696255D01*
X128170295Y-90747385D01*
X128053739Y-90834739D01*
X127966385Y-90951295D01*
X127915255Y-91087684D01*
X127908500Y-91149866D01*
X127908500Y-92746134D01*
X120120500Y-92746134D01*
X120120500Y-92664395D01*
X120121578Y-92647948D01*
X120123746Y-92631483D01*
X120123746Y-92631479D01*
X120124479Y-92625913D01*
X120120640Y-92544510D01*
X120120500Y-92538575D01*
X120120500Y-92516001D01*
X120118181Y-92490013D01*
X120117822Y-92484750D01*
X120114160Y-92407112D01*
X120113896Y-92401511D01*
X120112645Y-92396048D01*
X120112644Y-92396042D01*
X120109893Y-92384032D01*
X120107211Y-92367099D01*
X120106116Y-92354832D01*
X120105617Y-92349238D01*
X120083624Y-92268848D01*
X120082341Y-92263739D01*
X120064994Y-92187998D01*
X120063742Y-92182530D01*
X120056706Y-92166033D01*
X120051073Y-92149858D01*
X120047818Y-92137961D01*
X120047817Y-92137957D01*
X120046337Y-92132549D01*
X120010461Y-92057333D01*
X120008291Y-92052527D01*
X120005604Y-92046228D01*
X119995500Y-91996790D01*
X119995500Y-91149866D01*
X119988745Y-91087684D01*
X119937615Y-90951295D01*
X119850261Y-90834739D01*
X119733705Y-90747385D01*
X119597316Y-90696255D01*
X119535134Y-90689500D01*
X119500823Y-90689500D01*
X119432702Y-90669498D01*
X119386209Y-90615842D01*
X119376105Y-90545568D01*
X119405599Y-90480988D01*
X119427297Y-90461177D01*
X119557767Y-90367425D01*
X119566233Y-90360117D01*
X119714692Y-90206918D01*
X119721735Y-90198221D01*
X119840719Y-90021156D01*
X119846105Y-90011358D01*
X119931857Y-89816010D01*
X119935422Y-89805418D01*
X119965624Y-89679616D01*
X119964919Y-89665530D01*
X119956040Y-89662000D01*
X116518589Y-89662000D01*
X116504607Y-89666105D01*
X116503114Y-89675728D01*
X116503166Y-89675973D01*
X116565898Y-89879883D01*
X116570119Y-89890229D01*
X116667971Y-90079814D01*
X116673957Y-90089245D01*
X116803832Y-90258501D01*
X116811393Y-90266724D01*
X116969194Y-90410312D01*
X116978089Y-90417064D01*
X117041375Y-90456763D01*
X117088452Y-90509907D01*
X117099324Y-90580066D01*
X117070540Y-90644965D01*
X117011237Y-90684000D01*
X116974418Y-90689500D01*
X116938866Y-90689500D01*
X116876684Y-90696255D01*
X116740295Y-90747385D01*
X116623739Y-90834739D01*
X116536385Y-90951295D01*
X116485255Y-91087684D01*
X116478500Y-91149866D01*
X116478500Y-92746134D01*
X116485255Y-92808316D01*
X116536385Y-92944705D01*
X116623739Y-93061261D01*
X116740295Y-93148615D01*
X116876684Y-93199745D01*
X116938866Y-93206500D01*
X117477500Y-93206500D01*
X117545621Y-93226502D01*
X117592114Y-93280158D01*
X117603500Y-93332500D01*
X117603500Y-99199500D01*
X117583498Y-99267621D01*
X117529842Y-99314114D01*
X117477500Y-99325500D01*
X116049626Y-99325500D01*
X116005397Y-99317482D01*
X115918824Y-99285027D01*
X115918822Y-99285027D01*
X115911429Y-99282255D01*
X115903581Y-99281402D01*
X115903579Y-99281402D01*
X115852644Y-99275869D01*
X115849247Y-99275500D01*
X114152979Y-99275500D01*
X114090797Y-99282255D01*
X113954408Y-99333385D01*
X113933888Y-99348764D01*
X113845035Y-99415355D01*
X113845032Y-99415358D01*
X113837852Y-99420739D01*
X113832471Y-99427919D01*
X113826120Y-99434270D01*
X113823978Y-99432128D01*
X113779267Y-99465564D01*
X113708449Y-99470594D01*
X113667078Y-99452477D01*
X113666881Y-99452818D01*
X113663815Y-99451048D01*
X113663023Y-99450701D01*
X113662124Y-99450071D01*
X113652624Y-99444586D01*
X113455166Y-99352510D01*
X113444874Y-99348764D01*
X113234425Y-99292375D01*
X113223632Y-99290472D01*
X113006588Y-99271483D01*
X112995638Y-99271483D01*
X112778594Y-99290472D01*
X112767801Y-99292375D01*
X112557352Y-99348764D01*
X112547060Y-99352510D01*
X112349602Y-99444586D01*
X112340107Y-99450069D01*
X112288065Y-99486509D01*
X112279689Y-99496988D01*
X112286757Y-99510434D01*
X113271228Y-100494905D01*
X113305254Y-100557217D01*
X113300189Y-100628032D01*
X113271228Y-100673095D01*
X112286036Y-101658287D01*
X112279606Y-101670062D01*
X108686500Y-101670062D01*
X108686500Y-100589475D01*
X111688596Y-100589475D01*
X111707585Y-100806519D01*
X111709488Y-100817312D01*
X111765877Y-101027761D01*
X111769623Y-101038053D01*
X111861699Y-101235511D01*
X111867182Y-101245006D01*
X111903622Y-101297048D01*
X111914101Y-101305424D01*
X111927547Y-101298356D01*
X112629091Y-100596812D01*
X112636705Y-100582868D01*
X112636574Y-100581035D01*
X112632323Y-100574420D01*
X111926826Y-99868923D01*
X111915051Y-99862493D01*
X111903036Y-99871789D01*
X111867182Y-99922994D01*
X111861699Y-99932489D01*
X111769623Y-100129947D01*
X111765877Y-100140239D01*
X111709488Y-100350688D01*
X111707585Y-100361481D01*
X111688596Y-100578525D01*
X111688596Y-100589475D01*
X108686500Y-100589475D01*
X108686500Y-99580873D01*
X108682821Y-99538815D01*
X108676412Y-99465564D01*
X108671543Y-99409913D01*
X108640793Y-99295152D01*
X108636500Y-99262543D01*
X108636500Y-94950541D01*
X108656502Y-94882420D01*
X108660564Y-94876479D01*
X108662959Y-94873182D01*
X108666176Y-94869416D01*
X108790240Y-94666963D01*
X108881105Y-94447594D01*
X108936535Y-94216711D01*
X108955165Y-93980000D01*
X108936535Y-93743289D01*
X108881105Y-93512406D01*
X108802441Y-93322493D01*
X108792135Y-93297611D01*
X108792133Y-93297607D01*
X108790240Y-93293037D01*
X108666176Y-93090584D01*
X108662959Y-93086818D01*
X108660564Y-93083521D01*
X108636706Y-93016653D01*
X108636500Y-93009459D01*
X108636500Y-92465477D01*
X108656502Y-92397356D01*
X108673405Y-92376382D01*
X109613097Y-91436690D01*
X109675409Y-91402664D01*
X109693547Y-91400394D01*
X109693543Y-91400357D01*
X109772977Y-91391657D01*
X109948707Y-91372412D01*
X109948712Y-91372411D01*
X109953360Y-91371902D01*
X109994317Y-91361119D01*
X110201594Y-91306548D01*
X110201596Y-91306547D01*
X110206117Y-91305357D01*
X110446262Y-91202182D01*
X110519126Y-91157093D01*
X110664547Y-91067104D01*
X110664548Y-91067104D01*
X110668519Y-91064646D01*
X110672082Y-91061629D01*
X110672087Y-91061626D01*
X110864439Y-90898787D01*
X110864440Y-90898786D01*
X110868005Y-90895768D01*
X110989727Y-90756971D01*
X111037257Y-90702774D01*
X111037261Y-90702769D01*
X111040339Y-90699259D01*
X111181733Y-90479437D01*
X111289083Y-90241129D01*
X111334579Y-90079814D01*
X111358760Y-89994076D01*
X111358761Y-89994073D01*
X111360030Y-89989572D01*
X111376832Y-89857496D01*
X111392616Y-89733421D01*
X111392616Y-89733417D01*
X111393014Y-89730291D01*
X111395431Y-89638000D01*
X111376061Y-89377348D01*
X111366805Y-89336439D01*
X111319408Y-89126980D01*
X111318377Y-89122423D01*
X111223647Y-88878823D01*
X111093951Y-88651902D01*
X110932138Y-88446643D01*
X110741763Y-88267557D01*
X110564006Y-88144242D01*
X110530851Y-88121241D01*
X110530848Y-88121239D01*
X110527009Y-88118576D01*
X110512898Y-88111617D01*
X110296781Y-88005040D01*
X110296778Y-88005039D01*
X110292593Y-88002975D01*
X110264131Y-87993864D01*
X110048123Y-87924720D01*
X110043665Y-87923293D01*
X109785693Y-87881279D01*
X109671942Y-87879790D01*
X109529022Y-87877919D01*
X109529019Y-87877919D01*
X109524345Y-87877858D01*
X109265362Y-87913104D01*
X109014433Y-87986243D01*
X109010180Y-87988203D01*
X109010179Y-87988204D01*
X108973659Y-88005040D01*
X108777072Y-88095668D01*
X108738067Y-88121241D01*
X108562404Y-88236410D01*
X108562399Y-88236414D01*
X108558491Y-88238976D01*
X108363494Y-88413018D01*
X108196363Y-88613970D01*
X108193934Y-88617973D01*
X108080661Y-88804642D01*
X108060771Y-88837419D01*
X107959697Y-89078455D01*
X107895359Y-89331783D01*
X107894890Y-89336437D01*
X107894890Y-89336439D01*
X107870405Y-89579606D01*
X107843679Y-89645381D01*
X107834134Y-89656078D01*
X106552737Y-90937475D01*
X106540347Y-90948342D01*
X106522708Y-90961877D01*
X106493906Y-90993530D01*
X106467842Y-91022174D01*
X106463743Y-91026469D01*
X106447802Y-91042410D01*
X106446007Y-91044557D01*
X106446005Y-91044559D01*
X106431068Y-91062423D01*
X106427600Y-91066398D01*
X106375288Y-91123888D01*
X106375281Y-91123897D01*
X106371515Y-91128036D01*
X106368538Y-91132782D01*
X106368537Y-91132783D01*
X106361987Y-91143225D01*
X106351911Y-91157093D01*
X106344004Y-91166549D01*
X106343997Y-91166559D01*
X106340406Y-91170854D01*
X106299118Y-91243240D01*
X106296408Y-91247768D01*
X106259536Y-91306548D01*
X106252136Y-91318344D01*
X106250043Y-91323549D01*
X106250042Y-91323552D01*
X106245448Y-91334979D01*
X106237988Y-91350411D01*
X106231880Y-91361119D01*
X106231876Y-91361128D01*
X106229101Y-91365993D01*
X106227232Y-91371270D01*
X106227230Y-91371275D01*
X106201285Y-91444542D01*
X106199420Y-91449478D01*
X106168344Y-91526783D01*
X106167208Y-91532270D01*
X106167207Y-91532272D01*
X106164706Y-91544349D01*
X106160101Y-91560844D01*
X106154111Y-91577759D01*
X106153204Y-91583298D01*
X106140643Y-91660001D01*
X106139683Y-91665180D01*
X106122787Y-91746767D01*
X106122521Y-91751379D01*
X106122521Y-91751380D01*
X106121185Y-91774548D01*
X106119738Y-91787653D01*
X106118714Y-91793910D01*
X106117806Y-91799457D01*
X106117894Y-91805070D01*
X106117894Y-91805072D01*
X106119484Y-91906264D01*
X106119500Y-91908243D01*
X106119500Y-93215497D01*
X106100932Y-93281333D01*
X106093760Y-93293037D01*
X106091867Y-93297607D01*
X106091865Y-93297611D01*
X106081559Y-93322493D01*
X106002895Y-93512406D01*
X105947465Y-93743289D01*
X105928835Y-93980000D01*
X105947465Y-94216711D01*
X106002895Y-94447594D01*
X106093760Y-94666963D01*
X106096346Y-94671183D01*
X106096348Y-94671186D01*
X106100932Y-94678667D01*
X106119500Y-94744503D01*
X106119500Y-99262543D01*
X106115207Y-99295152D01*
X106084457Y-99409913D01*
X106079588Y-99465564D01*
X106073180Y-99538815D01*
X106069500Y-99580873D01*
X106069500Y-102095127D01*
X106084457Y-102266087D01*
X106143716Y-102487243D01*
X106146039Y-102492225D01*
X106146041Y-102492230D01*
X106167350Y-102537928D01*
X106178011Y-102608119D01*
X106149031Y-102672932D01*
X106089611Y-102711788D01*
X106018616Y-102712351D01*
X105964060Y-102680272D01*
X104723405Y-101439617D01*
X104689379Y-101377305D01*
X104686500Y-101350522D01*
X104686500Y-99580873D01*
X104682821Y-99538815D01*
X104676412Y-99465564D01*
X104671543Y-99409913D01*
X104667401Y-99394455D01*
X104613707Y-99194067D01*
X104613706Y-99194065D01*
X104612284Y-99188757D01*
X104591831Y-99144895D01*
X104517849Y-98986238D01*
X104517846Y-98986233D01*
X104515523Y-98981251D01*
X104401744Y-98818758D01*
X104387357Y-98798211D01*
X104387355Y-98798208D01*
X104384198Y-98793700D01*
X104222300Y-98631802D01*
X104217792Y-98628645D01*
X104217789Y-98628643D01*
X104139611Y-98573902D01*
X104034749Y-98500477D01*
X104029767Y-98498154D01*
X104029762Y-98498151D01*
X103832225Y-98406039D01*
X103832224Y-98406039D01*
X103827243Y-98403716D01*
X103821935Y-98402294D01*
X103821933Y-98402293D01*
X103611402Y-98345881D01*
X103611400Y-98345881D01*
X103606087Y-98344457D01*
X103378000Y-98324502D01*
X103149913Y-98344457D01*
X103144600Y-98345881D01*
X103144598Y-98345881D01*
X102934067Y-98402293D01*
X102934065Y-98402294D01*
X102928757Y-98403716D01*
X102923776Y-98406039D01*
X102923775Y-98406039D01*
X102726238Y-98498151D01*
X102726233Y-98498154D01*
X102721251Y-98500477D01*
X102616389Y-98573902D01*
X102538211Y-98628643D01*
X102538208Y-98628645D01*
X102533700Y-98631802D01*
X102371802Y-98793700D01*
X102368645Y-98798208D01*
X102368643Y-98798211D01*
X102354256Y-98818758D01*
X102240477Y-98981251D01*
X102238154Y-98986233D01*
X102238151Y-98986238D01*
X102164169Y-99144895D01*
X102143716Y-99188757D01*
X102142294Y-99194065D01*
X102142293Y-99194067D01*
X102088599Y-99394455D01*
X102084457Y-99409913D01*
X102079588Y-99465564D01*
X102073180Y-99538815D01*
X102069500Y-99580873D01*
X102069500Y-102095127D01*
X100686500Y-102095127D01*
X100686500Y-99580873D01*
X100682821Y-99538815D01*
X100676412Y-99465564D01*
X100671543Y-99409913D01*
X100640793Y-99295152D01*
X100636500Y-99262543D01*
X100636500Y-94744503D01*
X100655068Y-94678667D01*
X100659652Y-94671186D01*
X100659654Y-94671183D01*
X100662240Y-94666963D01*
X100753105Y-94447594D01*
X100808535Y-94216711D01*
X100827165Y-93980000D01*
X100808535Y-93743289D01*
X100753105Y-93512406D01*
X100674441Y-93322493D01*
X100664135Y-93297611D01*
X100664133Y-93297607D01*
X100662240Y-93293037D01*
X100655068Y-93281333D01*
X100636500Y-93215497D01*
X100636500Y-91475396D01*
X100637578Y-91458949D01*
X100639747Y-91442472D01*
X100640479Y-91436914D01*
X100638677Y-91398689D01*
X100636640Y-91355504D01*
X100636500Y-91349569D01*
X100636500Y-91327001D01*
X100636252Y-91324218D01*
X100636251Y-91324204D01*
X100634182Y-91301023D01*
X100633823Y-91295760D01*
X100630161Y-91218116D01*
X100629897Y-91212512D01*
X100625892Y-91195023D01*
X100623212Y-91178104D01*
X100622811Y-91173618D01*
X100621617Y-91160238D01*
X100620137Y-91154827D01*
X100599631Y-91079870D01*
X100598345Y-91074752D01*
X100580995Y-90999000D01*
X100580994Y-90998998D01*
X100579742Y-90993530D01*
X100572706Y-90977033D01*
X100567073Y-90960858D01*
X100563815Y-90948953D01*
X100562337Y-90943549D01*
X100559926Y-90938494D01*
X100559924Y-90938489D01*
X100526454Y-90868317D01*
X100524283Y-90863508D01*
X100493805Y-90792053D01*
X100493802Y-90792047D01*
X100491603Y-90786892D01*
X100481756Y-90771902D01*
X100473343Y-90756971D01*
X100468037Y-90745846D01*
X100465622Y-90740782D01*
X100462350Y-90736229D01*
X100462348Y-90736225D01*
X100416990Y-90673103D01*
X100414001Y-90668753D01*
X100370801Y-90602987D01*
X100368265Y-90599126D01*
X100349743Y-90578338D01*
X100341506Y-90568056D01*
X100337799Y-90562897D01*
X100334529Y-90558346D01*
X100257778Y-90483969D01*
X100256367Y-90482580D01*
X99427208Y-89653420D01*
X99393183Y-89591108D01*
X99390650Y-89573663D01*
X99376407Y-89382000D01*
X99376406Y-89381996D01*
X99376061Y-89377348D01*
X99366805Y-89336439D01*
X99319408Y-89126980D01*
X99318377Y-89122423D01*
X99223647Y-88878823D01*
X99093951Y-88651902D01*
X98932138Y-88446643D01*
X98741763Y-88267557D01*
X98564006Y-88144242D01*
X98530851Y-88121241D01*
X98530848Y-88121239D01*
X98527009Y-88118576D01*
X98512898Y-88111617D01*
X98296781Y-88005040D01*
X98296778Y-88005039D01*
X98292593Y-88002975D01*
X98264131Y-87993864D01*
X98048123Y-87924720D01*
X98043665Y-87923293D01*
X97785693Y-87881279D01*
X97671942Y-87879790D01*
X97529022Y-87877919D01*
X97529019Y-87877919D01*
X97524345Y-87877858D01*
X97265362Y-87913104D01*
X97014433Y-87986243D01*
X97010180Y-87988203D01*
X97010179Y-87988204D01*
X96973659Y-88005040D01*
X96777072Y-88095668D01*
X96738067Y-88121241D01*
X96562404Y-88236410D01*
X96562399Y-88236414D01*
X96558491Y-88238976D01*
X96363494Y-88413018D01*
X96196363Y-88613970D01*
X96193934Y-88617973D01*
X96080661Y-88804642D01*
X96060771Y-88837419D01*
X95959697Y-89078455D01*
X95895359Y-89331783D01*
X95869173Y-89591839D01*
X94730500Y-89591839D01*
X94730500Y-87441477D01*
X94750502Y-87373356D01*
X94767405Y-87352382D01*
X98532830Y-83586957D01*
X98595142Y-83552931D01*
X98612039Y-83550440D01*
X98650300Y-83547429D01*
X98788711Y-83536535D01*
X98793518Y-83535381D01*
X98793524Y-83535380D01*
X98939391Y-83500360D01*
X99019594Y-83481105D01*
X99079506Y-83456289D01*
X99234389Y-83392135D01*
X99234393Y-83392133D01*
X99238963Y-83390240D01*
X99330004Y-83334450D01*
X99437202Y-83268759D01*
X99437208Y-83268755D01*
X99441416Y-83266176D01*
X99621969Y-83111969D01*
X99776176Y-82931416D01*
X99778755Y-82927208D01*
X99778759Y-82927202D01*
X99897654Y-82733183D01*
X99900240Y-82728963D01*
X99920035Y-82681175D01*
X99989211Y-82514167D01*
X99989212Y-82514165D01*
X99991105Y-82509594D01*
X100010360Y-82429391D01*
X100045380Y-82283524D01*
X100045381Y-82283518D01*
X100046535Y-82278711D01*
X100060440Y-82102039D01*
X100085726Y-82035697D01*
X100096957Y-82022830D01*
X104457259Y-77662528D01*
X104469651Y-77651660D01*
X104482843Y-77641538D01*
X104482851Y-77641531D01*
X104487292Y-77638123D01*
X104542168Y-77577815D01*
X104546267Y-77573520D01*
X104562198Y-77557589D01*
X104578934Y-77537573D01*
X104582379Y-77533624D01*
X104634703Y-77476121D01*
X104634706Y-77476117D01*
X104638485Y-77471964D01*
X104648013Y-77456775D01*
X104658091Y-77442903D01*
X104665992Y-77433455D01*
X104665997Y-77433448D01*
X104669594Y-77429146D01*
X104710887Y-77356752D01*
X104713592Y-77352232D01*
X104754886Y-77286404D01*
X104754888Y-77286401D01*
X104757864Y-77281656D01*
X104760338Y-77275502D01*
X104760627Y-77275135D01*
X104762504Y-77271452D01*
X104763238Y-77271826D01*
X104804306Y-77219758D01*
X104877245Y-77196500D01*
X104930134Y-77196500D01*
X104992316Y-77189745D01*
X105128705Y-77138615D01*
X105245261Y-77051261D01*
X105332615Y-76934705D01*
X105383745Y-76798316D01*
X105390500Y-76736134D01*
X105390500Y-74139866D01*
X105383745Y-74077684D01*
X105332615Y-73941295D01*
X105245261Y-73824739D01*
X105128705Y-73737385D01*
X104992316Y-73686255D01*
X104930134Y-73679500D01*
X102333866Y-73679500D01*
X102271684Y-73686255D01*
X102135295Y-73737385D01*
X102018739Y-73824739D01*
X101931385Y-73941295D01*
X101880255Y-74077684D01*
X101873500Y-74139866D01*
X101873500Y-76634522D01*
X101853498Y-76702643D01*
X101836595Y-76723617D01*
X97879240Y-80680972D01*
X97855980Y-80699309D01*
X97666807Y-80815235D01*
X97666797Y-80815242D01*
X97662584Y-80817824D01*
X97482031Y-80972031D01*
X97327824Y-81152584D01*
X97325242Y-81156797D01*
X97325235Y-81156807D01*
X97209309Y-81345980D01*
X97190972Y-81369240D01*
X92646737Y-85913475D01*
X92634347Y-85924342D01*
X92616708Y-85937877D01*
X92562188Y-85997794D01*
X92561842Y-85998174D01*
X92557743Y-86002469D01*
X92541802Y-86018410D01*
X92540007Y-86020557D01*
X92540005Y-86020559D01*
X92525068Y-86038423D01*
X92521600Y-86042398D01*
X92469288Y-86099888D01*
X92469281Y-86099897D01*
X92465515Y-86104036D01*
X92462538Y-86108782D01*
X92462537Y-86108783D01*
X92455987Y-86119225D01*
X92445911Y-86133093D01*
X92438004Y-86142549D01*
X92437997Y-86142559D01*
X92434406Y-86146854D01*
X92409262Y-86190936D01*
X92393118Y-86219240D01*
X92390413Y-86223759D01*
X92346136Y-86294344D01*
X92344043Y-86299549D01*
X92344042Y-86299552D01*
X92339448Y-86310979D01*
X92331988Y-86326411D01*
X92325880Y-86337119D01*
X92325876Y-86337128D01*
X92323101Y-86341993D01*
X92321232Y-86347270D01*
X92321230Y-86347275D01*
X92295285Y-86420542D01*
X92293420Y-86425478D01*
X92262344Y-86502783D01*
X92261208Y-86508270D01*
X92261207Y-86508272D01*
X92258706Y-86520349D01*
X92254101Y-86536844D01*
X92248111Y-86553759D01*
X92238761Y-86610857D01*
X92234643Y-86636001D01*
X92233683Y-86641180D01*
X92216787Y-86722767D01*
X92216521Y-86727379D01*
X92216521Y-86727380D01*
X92215185Y-86750548D01*
X92213738Y-86763653D01*
X92212714Y-86769910D01*
X92211806Y-86775457D01*
X92211894Y-86781070D01*
X92211894Y-86781072D01*
X92213484Y-86882264D01*
X92213500Y-86884243D01*
X92213500Y-107096604D01*
X92212422Y-107113051D01*
X92209521Y-107135086D01*
X88460000Y-107135086D01*
X88460000Y-66597669D01*
X92064001Y-66597669D01*
X92064371Y-66604490D01*
X92069895Y-66655352D01*
X92073521Y-66670604D01*
X92118676Y-66791054D01*
X92127214Y-66806649D01*
X92203715Y-66908724D01*
X92216276Y-66921285D01*
X92318351Y-66997786D01*
X92333946Y-67006324D01*
X92454394Y-67051478D01*
X92469649Y-67055105D01*
X92520514Y-67060631D01*
X92527328Y-67061000D01*
X93199885Y-67061000D01*
X93215124Y-67056525D01*
X93216329Y-67055135D01*
X93218000Y-67047452D01*
X93218000Y-65925115D01*
X93213525Y-65909876D01*
X93212135Y-65908671D01*
X93204452Y-65907000D01*
X92082116Y-65907000D01*
X92066877Y-65911475D01*
X92065672Y-65912865D01*
X92064001Y-65920548D01*
X92064001Y-66597669D01*
X88460000Y-66597669D01*
X88460000Y-58293000D01*
X89418835Y-58293000D01*
X89437465Y-58529711D01*
X89492895Y-58760594D01*
X89583760Y-58979963D01*
X89586346Y-58984183D01*
X89705241Y-59178202D01*
X89705245Y-59178208D01*
X89707824Y-59182416D01*
X89862031Y-59362969D01*
X89865787Y-59366177D01*
X89865788Y-59366178D01*
X89879332Y-59377746D01*
X89918140Y-59437197D01*
X89923500Y-59473556D01*
X89923500Y-61406157D01*
X89922763Y-61419764D01*
X89918676Y-61457388D01*
X89919213Y-61463523D01*
X89923050Y-61507388D01*
X89923379Y-61512214D01*
X89923500Y-61514686D01*
X89923500Y-61517769D01*
X89923801Y-61520837D01*
X89927690Y-61560506D01*
X89927812Y-61561819D01*
X89935913Y-61654413D01*
X89937400Y-61659532D01*
X89937920Y-61664833D01*
X89964791Y-61753834D01*
X89965126Y-61754967D01*
X89991091Y-61844336D01*
X89993544Y-61849068D01*
X89995084Y-61854169D01*
X89997978Y-61859612D01*
X90038731Y-61936260D01*
X90039343Y-61937426D01*
X90079271Y-62014453D01*
X90082108Y-62019926D01*
X90085431Y-62024089D01*
X90087934Y-62028796D01*
X90146755Y-62100918D01*
X90147446Y-62101774D01*
X90178738Y-62140973D01*
X90181242Y-62143477D01*
X90181884Y-62144195D01*
X90185585Y-62148528D01*
X90212935Y-62182062D01*
X90217682Y-62185989D01*
X90217684Y-62185991D01*
X90248262Y-62211287D01*
X90257042Y-62219277D01*
X92080145Y-64042379D01*
X92089247Y-64052522D01*
X92112968Y-64082025D01*
X92117696Y-64085992D01*
X92151421Y-64114291D01*
X92155069Y-64117472D01*
X92156881Y-64119115D01*
X92159075Y-64121309D01*
X92192346Y-64148639D01*
X92193201Y-64149349D01*
X92230581Y-64180715D01*
X92269907Y-64239825D01*
X92271033Y-64310813D01*
X92233601Y-64371140D01*
X92225151Y-64378065D01*
X92216272Y-64384719D01*
X92203715Y-64397276D01*
X92127214Y-64499351D01*
X92118676Y-64514946D01*
X92073522Y-64635394D01*
X92069895Y-64650649D01*
X92064369Y-64701514D01*
X92064000Y-64708328D01*
X92064000Y-65380885D01*
X92068475Y-65396124D01*
X92069865Y-65397329D01*
X92077548Y-65399000D01*
X93600000Y-65399000D01*
X93668121Y-65419002D01*
X93714614Y-65472658D01*
X93726000Y-65525000D01*
X93726000Y-67042884D01*
X93730475Y-67058123D01*
X93731865Y-67059328D01*
X93739548Y-67060999D01*
X94416669Y-67060999D01*
X94423490Y-67060629D01*
X94474352Y-67055105D01*
X94489604Y-67051479D01*
X94583270Y-67016365D01*
X94654077Y-67011182D01*
X94716446Y-67045103D01*
X94750576Y-67107358D01*
X94753500Y-67134347D01*
X94753500Y-68518635D01*
X94733498Y-68586756D01*
X94724374Y-68599204D01*
X94617183Y-68728087D01*
X94485447Y-68945182D01*
X94483638Y-68949496D01*
X94483637Y-68949498D01*
X94394277Y-69162599D01*
X94387246Y-69179365D01*
X94324738Y-69425490D01*
X94299296Y-69678151D01*
X94311480Y-69931798D01*
X94361021Y-70180857D01*
X94362600Y-70185255D01*
X94362602Y-70185262D01*
X94409831Y-70316805D01*
X94446831Y-70419858D01*
X94449048Y-70423984D01*
X94550036Y-70611932D01*
X94567025Y-70643551D01*
X94569820Y-70647294D01*
X94569822Y-70647297D01*
X94614097Y-70706588D01*
X94718963Y-70847020D01*
X94722276Y-70850305D01*
X94722594Y-70850670D01*
X94752189Y-70915204D01*
X94753500Y-70933332D01*
X94753500Y-73299059D01*
X94734932Y-73364894D01*
X94666351Y-73476807D01*
X94666345Y-73476818D01*
X94663760Y-73481037D01*
X94661867Y-73485607D01*
X94661865Y-73485611D01*
X94579110Y-73685402D01*
X94572895Y-73700406D01*
X94564774Y-73734233D01*
X94532652Y-73868032D01*
X94517465Y-73931289D01*
X94498835Y-74168000D01*
X94517465Y-74404711D01*
X94518619Y-74409518D01*
X94518620Y-74409524D01*
X94526189Y-74441051D01*
X94572895Y-74635594D01*
X94574788Y-74640165D01*
X94574789Y-74640167D01*
X94640410Y-74798590D01*
X94663760Y-74854963D01*
X94666345Y-74859182D01*
X94666351Y-74859193D01*
X94734932Y-74971106D01*
X94753500Y-75036941D01*
X94753500Y-75726604D01*
X94752422Y-75743051D01*
X94749521Y-75765086D01*
X94749786Y-75770698D01*
X94753360Y-75846488D01*
X94753500Y-75852424D01*
X94753500Y-75874999D01*
X94753750Y-75877796D01*
X94755819Y-75900988D01*
X94756178Y-75906248D01*
X94760104Y-75989488D01*
X94761354Y-75994947D01*
X94761355Y-75994952D01*
X94764108Y-76006970D01*
X94766789Y-76023899D01*
X94768383Y-76041762D01*
X94769865Y-76047178D01*
X94769865Y-76047180D01*
X94790370Y-76122133D01*
X94791656Y-76127251D01*
X94794535Y-76139819D01*
X94810258Y-76208470D01*
X94812460Y-76213632D01*
X94817294Y-76224967D01*
X94822927Y-76241142D01*
X94823557Y-76243443D01*
X94827663Y-76258451D01*
X94830079Y-76263516D01*
X94863539Y-76333667D01*
X94865710Y-76338476D01*
X94898397Y-76415109D01*
X94908251Y-76430110D01*
X94916654Y-76445025D01*
X94924378Y-76461218D01*
X94927648Y-76465769D01*
X94927650Y-76465772D01*
X94972999Y-76528881D01*
X94975989Y-76533232D01*
X95019196Y-76599010D01*
X95019202Y-76599018D01*
X95021735Y-76602874D01*
X95040257Y-76623662D01*
X95048490Y-76633939D01*
X95055471Y-76643654D01*
X95122068Y-76708191D01*
X95132255Y-76718063D01*
X95133665Y-76719452D01*
X95837934Y-77423721D01*
X95871960Y-77486033D01*
X95874693Y-77506767D01*
X95881713Y-77652908D01*
X95932704Y-77909256D01*
X96021026Y-78155252D01*
X96023242Y-78159376D01*
X96087753Y-78279437D01*
X96144737Y-78385491D01*
X96147532Y-78389234D01*
X96147534Y-78389237D01*
X96298330Y-78591177D01*
X96298335Y-78591183D01*
X96301122Y-78594915D01*
X96304431Y-78598195D01*
X96304436Y-78598201D01*
X96483426Y-78775635D01*
X96486743Y-78778923D01*
X96490505Y-78781681D01*
X96490508Y-78781684D01*
X96693750Y-78930707D01*
X96697524Y-78933474D01*
X96701667Y-78935654D01*
X96701669Y-78935655D01*
X96924684Y-79052989D01*
X96924689Y-79052991D01*
X96928834Y-79055172D01*
X97175590Y-79141344D01*
X97180183Y-79142216D01*
X97427785Y-79189224D01*
X97427788Y-79189224D01*
X97432374Y-79190095D01*
X97562958Y-79195226D01*
X97688875Y-79200174D01*
X97688881Y-79200174D01*
X97693543Y-79200357D01*
X97772977Y-79191657D01*
X97948707Y-79172412D01*
X97948712Y-79172411D01*
X97953360Y-79171902D01*
X98066116Y-79142216D01*
X98201594Y-79106548D01*
X98201596Y-79106547D01*
X98206117Y-79105357D01*
X98446262Y-79002182D01*
X98668519Y-78864646D01*
X98672082Y-78861629D01*
X98672087Y-78861626D01*
X98864439Y-78698787D01*
X98864440Y-78698786D01*
X98868005Y-78695768D01*
X98959729Y-78591177D01*
X99037257Y-78502774D01*
X99037261Y-78502769D01*
X99040339Y-78499259D01*
X99181733Y-78279437D01*
X99289083Y-78041129D01*
X99327567Y-77904676D01*
X99358760Y-77794076D01*
X99358761Y-77794073D01*
X99360030Y-77789572D01*
X99376935Y-77656683D01*
X99392616Y-77533421D01*
X99392616Y-77533417D01*
X99393014Y-77530291D01*
X99395431Y-77438000D01*
X99394370Y-77423721D01*
X99376407Y-77182000D01*
X99376406Y-77181996D01*
X99376061Y-77177348D01*
X99374741Y-77171512D01*
X99325305Y-76953039D01*
X99318377Y-76922423D01*
X99316684Y-76918069D01*
X99225340Y-76683176D01*
X99225339Y-76683173D01*
X99223647Y-76678823D01*
X99215335Y-76664279D01*
X99111251Y-76482171D01*
X99093951Y-76451902D01*
X98932138Y-76246643D01*
X98741763Y-76067557D01*
X98583665Y-75957880D01*
X98530851Y-75921241D01*
X98530848Y-75921239D01*
X98527009Y-75918576D01*
X98522816Y-75916508D01*
X98296781Y-75805040D01*
X98296778Y-75805039D01*
X98292593Y-75802975D01*
X98156827Y-75759516D01*
X98048123Y-75724720D01*
X98043665Y-75723293D01*
X97785693Y-75681279D01*
X97704556Y-75680217D01*
X97636704Y-75659325D01*
X97617111Y-75643323D01*
X97307405Y-75333617D01*
X97273379Y-75271305D01*
X97270500Y-75244522D01*
X97270500Y-75036941D01*
X97289068Y-74971106D01*
X97357649Y-74859193D01*
X97357655Y-74859182D01*
X97360240Y-74854963D01*
X97383591Y-74798590D01*
X97449211Y-74640167D01*
X97449212Y-74640165D01*
X97451105Y-74635594D01*
X97497811Y-74441051D01*
X97505380Y-74409524D01*
X97505381Y-74409518D01*
X97506535Y-74404711D01*
X97525165Y-74168000D01*
X97506535Y-73931289D01*
X97491349Y-73868032D01*
X97459226Y-73734233D01*
X97451105Y-73700406D01*
X97444890Y-73685402D01*
X97362135Y-73485611D01*
X97362133Y-73485607D01*
X97360240Y-73481037D01*
X97357655Y-73476818D01*
X97357649Y-73476807D01*
X97289068Y-73364894D01*
X97270500Y-73299059D01*
X97270500Y-70926704D01*
X97290502Y-70858583D01*
X97301760Y-70843636D01*
X97380295Y-70754084D01*
X97410846Y-70706588D01*
X97515141Y-70544442D01*
X97517669Y-70540512D01*
X97621967Y-70308980D01*
X97690896Y-70064575D01*
X97705736Y-69947923D01*
X97722545Y-69815798D01*
X97722545Y-69815792D01*
X97722943Y-69812667D01*
X97725291Y-69723000D01*
X97712209Y-69546959D01*
X97706818Y-69474411D01*
X97706817Y-69474407D01*
X97706472Y-69469759D01*
X97676704Y-69338202D01*
X97651459Y-69226639D01*
X97650428Y-69222082D01*
X97631810Y-69174206D01*
X97560084Y-68989762D01*
X97560083Y-68989760D01*
X97558391Y-68985409D01*
X97537866Y-68949498D01*
X97434702Y-68768997D01*
X97434700Y-68768995D01*
X97432383Y-68764940D01*
X97297550Y-68593904D01*
X97271085Y-68528025D01*
X97270500Y-68515899D01*
X97270500Y-66662844D01*
X97290502Y-66594723D01*
X97344158Y-66548230D01*
X97414432Y-66538126D01*
X97479012Y-66567620D01*
X97491737Y-66580346D01*
X97563147Y-66662784D01*
X97741349Y-66810730D01*
X97941322Y-66927584D01*
X97946147Y-66929426D01*
X97946148Y-66929427D01*
X97973404Y-66939835D01*
X98157694Y-67010209D01*
X98162760Y-67011240D01*
X98162761Y-67011240D01*
X98215846Y-67022040D01*
X98384656Y-67056385D01*
X98515324Y-67061176D01*
X98610949Y-67064683D01*
X98610953Y-67064683D01*
X98616113Y-67064872D01*
X98621233Y-67064216D01*
X98621235Y-67064216D01*
X98720668Y-67051478D01*
X98845847Y-67035442D01*
X98850795Y-67033957D01*
X98850802Y-67033956D01*
X99062747Y-66970369D01*
X99067690Y-66968886D01*
X99077664Y-66964000D01*
X99271049Y-66869262D01*
X99271052Y-66869260D01*
X99275684Y-66866991D01*
X99464243Y-66732494D01*
X99628303Y-66569005D01*
X99646962Y-66543039D01*
X99686713Y-66487719D01*
X99763458Y-66380917D01*
X99767662Y-66372412D01*
X99863784Y-66177921D01*
X99866078Y-66173280D01*
X99880728Y-66125062D01*
X99912191Y-66072596D01*
X101066318Y-64918469D01*
X101128630Y-64884443D01*
X101145527Y-64881952D01*
X101328711Y-64867535D01*
X101333518Y-64866381D01*
X101333524Y-64866380D01*
X101479391Y-64831360D01*
X101559594Y-64812105D01*
X101600880Y-64795004D01*
X101774389Y-64723135D01*
X101774393Y-64723133D01*
X101778963Y-64721240D01*
X101811153Y-64701514D01*
X101977202Y-64599759D01*
X101977208Y-64599755D01*
X101981416Y-64597176D01*
X102161969Y-64442969D01*
X102316176Y-64262416D01*
X102318755Y-64258208D01*
X102318759Y-64258202D01*
X102437654Y-64064183D01*
X102440240Y-64059963D01*
X102443323Y-64052522D01*
X102529211Y-63845167D01*
X102529212Y-63845165D01*
X102531105Y-63840594D01*
X102586535Y-63609711D01*
X102600952Y-63426527D01*
X102626238Y-63360186D01*
X102637469Y-63347318D01*
X103679661Y-62305127D01*
X103741973Y-62271101D01*
X103798961Y-62273960D01*
X103799406Y-62272105D01*
X104025476Y-62326380D01*
X104025482Y-62326381D01*
X104030289Y-62327535D01*
X104267000Y-62346165D01*
X104503711Y-62327535D01*
X104508518Y-62326381D01*
X104508524Y-62326380D01*
X104656549Y-62290842D01*
X104734594Y-62272105D01*
X104752486Y-62264694D01*
X104949389Y-62183135D01*
X104949393Y-62183133D01*
X104953963Y-62181240D01*
X104960412Y-62177288D01*
X105152202Y-62059759D01*
X105152208Y-62059755D01*
X105156416Y-62057176D01*
X105336969Y-61902969D01*
X105491176Y-61722416D01*
X105493755Y-61718208D01*
X105493759Y-61718202D01*
X105612654Y-61524183D01*
X105615240Y-61519963D01*
X105634910Y-61472477D01*
X105704211Y-61305167D01*
X105704212Y-61305165D01*
X105706105Y-61300594D01*
X105749248Y-61120892D01*
X105760380Y-61074524D01*
X105760381Y-61074518D01*
X105761535Y-61069711D01*
X105780165Y-60833000D01*
X105761535Y-60596289D01*
X105730684Y-60467783D01*
X105707260Y-60370218D01*
X105706105Y-60365406D01*
X105699436Y-60349304D01*
X105617133Y-60150607D01*
X105617133Y-60150606D01*
X105615240Y-60146037D01*
X105613346Y-60142946D01*
X105600310Y-60073531D01*
X105627011Y-60007747D01*
X105685038Y-59966841D01*
X105755970Y-59963801D01*
X105814776Y-59997011D01*
X107666595Y-61848829D01*
X107700620Y-61911141D01*
X107703500Y-61937924D01*
X107703500Y-67888500D01*
X107683498Y-67956621D01*
X107629842Y-68003114D01*
X107577500Y-68014500D01*
X107463866Y-68014500D01*
X107401684Y-68021255D01*
X107265295Y-68072385D01*
X107148739Y-68159739D01*
X107061385Y-68276295D01*
X107010255Y-68412684D01*
X107003500Y-68474866D01*
X107003500Y-70971134D01*
X107010255Y-71033316D01*
X107061385Y-71169705D01*
X107148739Y-71286261D01*
X107265295Y-71373615D01*
X107273703Y-71376767D01*
X107371730Y-71413516D01*
X107428494Y-71456158D01*
X107453194Y-71522719D01*
X107453500Y-71531498D01*
X107453500Y-73299059D01*
X107434932Y-73364894D01*
X107366351Y-73476807D01*
X107366345Y-73476818D01*
X107363760Y-73481037D01*
X107361867Y-73485607D01*
X107361865Y-73485611D01*
X107279110Y-73685402D01*
X107272895Y-73700406D01*
X107264774Y-73734233D01*
X107232652Y-73868032D01*
X107217465Y-73931289D01*
X107198835Y-74168000D01*
X107217465Y-74404711D01*
X107218619Y-74409518D01*
X107218620Y-74409524D01*
X107226189Y-74441051D01*
X107272895Y-74635594D01*
X107274788Y-74640165D01*
X107274789Y-74640167D01*
X107340410Y-74798590D01*
X107363760Y-74854963D01*
X107366345Y-74859182D01*
X107366351Y-74859193D01*
X107434932Y-74971106D01*
X107453500Y-75036941D01*
X107453500Y-76426604D01*
X107452422Y-76443051D01*
X107449521Y-76465086D01*
X107450309Y-76481792D01*
X107453360Y-76546488D01*
X107453500Y-76552424D01*
X107453500Y-76574999D01*
X107455819Y-76600988D01*
X107456178Y-76606248D01*
X107460104Y-76689488D01*
X107461354Y-76694947D01*
X107461355Y-76694952D01*
X107464108Y-76706970D01*
X107466789Y-76723899D01*
X107468383Y-76741762D01*
X107469865Y-76747178D01*
X107469865Y-76747180D01*
X107490370Y-76822133D01*
X107491656Y-76827251D01*
X107510258Y-76908470D01*
X107512460Y-76913632D01*
X107517294Y-76924967D01*
X107522927Y-76941142D01*
X107526043Y-76952530D01*
X107527663Y-76958451D01*
X107530079Y-76963516D01*
X107563539Y-77033667D01*
X107565710Y-77038476D01*
X107598397Y-77115109D01*
X107608251Y-77130110D01*
X107616654Y-77145025D01*
X107624378Y-77161218D01*
X107627648Y-77165769D01*
X107627650Y-77165772D01*
X107672999Y-77228881D01*
X107675989Y-77233232D01*
X107719196Y-77299010D01*
X107719202Y-77299018D01*
X107721735Y-77302874D01*
X107740257Y-77323662D01*
X107748490Y-77333939D01*
X107755471Y-77343654D01*
X107832137Y-77417949D01*
X107832253Y-77418061D01*
X107833663Y-77419450D01*
X107837934Y-77423721D01*
X107871960Y-77486033D01*
X107874693Y-77506767D01*
X107881713Y-77652908D01*
X107932704Y-77909256D01*
X108021026Y-78155252D01*
X108023242Y-78159376D01*
X108087753Y-78279437D01*
X108144737Y-78385491D01*
X108147532Y-78389234D01*
X108147534Y-78389237D01*
X108298330Y-78591177D01*
X108298335Y-78591183D01*
X108301122Y-78594915D01*
X108304431Y-78598195D01*
X108304436Y-78598201D01*
X108483426Y-78775635D01*
X108486743Y-78778923D01*
X108490505Y-78781681D01*
X108490508Y-78781684D01*
X108693750Y-78930707D01*
X108697524Y-78933474D01*
X108701667Y-78935654D01*
X108701669Y-78935655D01*
X108924684Y-79052989D01*
X108924689Y-79052991D01*
X108928834Y-79055172D01*
X109175590Y-79141344D01*
X109180183Y-79142216D01*
X109427785Y-79189224D01*
X109427788Y-79189224D01*
X109432374Y-79190095D01*
X109562958Y-79195226D01*
X109688875Y-79200174D01*
X109688881Y-79200174D01*
X109693543Y-79200357D01*
X109772977Y-79191657D01*
X109948707Y-79172412D01*
X109948712Y-79172411D01*
X109953360Y-79171902D01*
X110066116Y-79142216D01*
X110201594Y-79106548D01*
X110201596Y-79106547D01*
X110206117Y-79105357D01*
X110446262Y-79002182D01*
X110668519Y-78864646D01*
X110672082Y-78861629D01*
X110672087Y-78861626D01*
X110864439Y-78698787D01*
X110864440Y-78698786D01*
X110868005Y-78695768D01*
X110959729Y-78591177D01*
X111037257Y-78502774D01*
X111037261Y-78502769D01*
X111040339Y-78499259D01*
X111181733Y-78279437D01*
X111289083Y-78041129D01*
X111327567Y-77904676D01*
X111358760Y-77794076D01*
X111358761Y-77794073D01*
X111360030Y-77789572D01*
X111376935Y-77656683D01*
X111392616Y-77533421D01*
X111392616Y-77533417D01*
X111393014Y-77530291D01*
X111395431Y-77438000D01*
X111394370Y-77423721D01*
X111376407Y-77182000D01*
X111376406Y-77181996D01*
X111376061Y-77177348D01*
X111374741Y-77171512D01*
X111325305Y-76953039D01*
X111318377Y-76922423D01*
X111316684Y-76918069D01*
X111225340Y-76683176D01*
X111225339Y-76683173D01*
X111223647Y-76678823D01*
X111215335Y-76664279D01*
X111111251Y-76482171D01*
X111093951Y-76451902D01*
X110932138Y-76246643D01*
X110741763Y-76067557D01*
X110583665Y-75957880D01*
X110530851Y-75921241D01*
X110530848Y-75921239D01*
X110527009Y-75918576D01*
X110522816Y-75916508D01*
X110296781Y-75805040D01*
X110296778Y-75805039D01*
X110292593Y-75802975D01*
X110288148Y-75801552D01*
X110058087Y-75727909D01*
X109999307Y-75688091D01*
X109971385Y-75622816D01*
X109970500Y-75607907D01*
X109970500Y-75036941D01*
X109989068Y-74971106D01*
X110057649Y-74859193D01*
X110057655Y-74859182D01*
X110060240Y-74854963D01*
X110083591Y-74798590D01*
X110149211Y-74640167D01*
X110149212Y-74640165D01*
X110151105Y-74635594D01*
X110197811Y-74441051D01*
X110205380Y-74409524D01*
X110205381Y-74409518D01*
X110206535Y-74404711D01*
X110225165Y-74168000D01*
X110206535Y-73931289D01*
X110191349Y-73868032D01*
X110159226Y-73734233D01*
X110151105Y-73700406D01*
X110144890Y-73685402D01*
X110062135Y-73485611D01*
X110062133Y-73485607D01*
X110060240Y-73481037D01*
X110057655Y-73476818D01*
X110057649Y-73476807D01*
X109989068Y-73364894D01*
X109970500Y-73299059D01*
X109970500Y-71531498D01*
X109990502Y-71463377D01*
X110044158Y-71416884D01*
X110052270Y-71413516D01*
X110150297Y-71376767D01*
X110158705Y-71373615D01*
X110275261Y-71286261D01*
X110362615Y-71169705D01*
X110413745Y-71033316D01*
X110420500Y-70971134D01*
X110420500Y-68474866D01*
X110413745Y-68412684D01*
X110362615Y-68276295D01*
X110275261Y-68159739D01*
X110158705Y-68072385D01*
X110022316Y-68021255D01*
X109960134Y-68014500D01*
X109846500Y-68014500D01*
X109778379Y-67994498D01*
X109731886Y-67940842D01*
X109720500Y-67888500D01*
X109720500Y-61529843D01*
X109721237Y-61516236D01*
X109724659Y-61484738D01*
X109724659Y-61484733D01*
X109725324Y-61478612D01*
X109720950Y-61428612D01*
X109720621Y-61423786D01*
X109720500Y-61421314D01*
X109720500Y-61418231D01*
X109719316Y-61406157D01*
X109716310Y-61375494D01*
X109716188Y-61374181D01*
X109712106Y-61327530D01*
X109708087Y-61281587D01*
X109706600Y-61276468D01*
X109706080Y-61271167D01*
X109679209Y-61182166D01*
X109678874Y-61181033D01*
X109654630Y-61097586D01*
X109654628Y-61097582D01*
X109652909Y-61091664D01*
X109650456Y-61086932D01*
X109648916Y-61081831D01*
X109641528Y-61067935D01*
X109605269Y-60999740D01*
X109604657Y-60998574D01*
X109564729Y-60921547D01*
X109561892Y-60916074D01*
X109558569Y-60911911D01*
X109556066Y-60907204D01*
X109497245Y-60835082D01*
X109496554Y-60834226D01*
X109465262Y-60795027D01*
X109462758Y-60792523D01*
X109462116Y-60791805D01*
X109458415Y-60787472D01*
X109431065Y-60753938D01*
X109395737Y-60724712D01*
X109386958Y-60716723D01*
X106293855Y-57623621D01*
X106284753Y-57613478D01*
X106264897Y-57588782D01*
X106261032Y-57583975D01*
X106222578Y-57551708D01*
X106218931Y-57548528D01*
X106217119Y-57546885D01*
X106214925Y-57544691D01*
X106181651Y-57517358D01*
X106180853Y-57516696D01*
X106109526Y-57456846D01*
X106104856Y-57454278D01*
X106100739Y-57450897D01*
X106018914Y-57407023D01*
X106017755Y-57406394D01*
X105941619Y-57364538D01*
X105941611Y-57364535D01*
X105936213Y-57361567D01*
X105931131Y-57359955D01*
X105926437Y-57357438D01*
X105837469Y-57330238D01*
X105836441Y-57329918D01*
X105747694Y-57301765D01*
X105742398Y-57301171D01*
X105737302Y-57299613D01*
X105644743Y-57290210D01*
X105643607Y-57290089D01*
X105609992Y-57286319D01*
X105597270Y-57284892D01*
X105597266Y-57284892D01*
X105593773Y-57284500D01*
X105590246Y-57284500D01*
X105589261Y-57284445D01*
X105583581Y-57283998D01*
X105554175Y-57281011D01*
X105546663Y-57280248D01*
X105546661Y-57280248D01*
X105540538Y-57279626D01*
X105498259Y-57283623D01*
X105494891Y-57283941D01*
X105483033Y-57284500D01*
X102421396Y-57284500D01*
X102407789Y-57283763D01*
X102376291Y-57280341D01*
X102376286Y-57280341D01*
X102370165Y-57279676D01*
X102343915Y-57281973D01*
X102320165Y-57284050D01*
X102315339Y-57284379D01*
X102312867Y-57284500D01*
X102309784Y-57284500D01*
X102297815Y-57285674D01*
X102267047Y-57288690D01*
X102265734Y-57288812D01*
X102221469Y-57292685D01*
X102173140Y-57296913D01*
X102168021Y-57298400D01*
X102162720Y-57298920D01*
X102073719Y-57325791D01*
X102072586Y-57326126D01*
X101989139Y-57350370D01*
X101989135Y-57350372D01*
X101983217Y-57352091D01*
X101978485Y-57354544D01*
X101973384Y-57356084D01*
X101967941Y-57358978D01*
X101891293Y-57399731D01*
X101890127Y-57400343D01*
X101841885Y-57425350D01*
X101807627Y-57443108D01*
X101803464Y-57446431D01*
X101798757Y-57448934D01*
X101726635Y-57507755D01*
X101725779Y-57508446D01*
X101686580Y-57539738D01*
X101684076Y-57542242D01*
X101683358Y-57542884D01*
X101679025Y-57546585D01*
X101645491Y-57573935D01*
X101641564Y-57578682D01*
X101641562Y-57578684D01*
X101616266Y-57609262D01*
X101608276Y-57618042D01*
X99240760Y-59985559D01*
X96898724Y-62327595D01*
X96836412Y-62361621D01*
X96809629Y-62364500D01*
X94941672Y-62364500D01*
X94873551Y-62344498D01*
X94827058Y-62290842D01*
X94816954Y-62220568D01*
X94846448Y-62155988D01*
X94875837Y-62131067D01*
X94996416Y-62057176D01*
X95176969Y-61902969D01*
X95331176Y-61722416D01*
X95333755Y-61718208D01*
X95333759Y-61718202D01*
X95452654Y-61524183D01*
X95455240Y-61519963D01*
X95474910Y-61472477D01*
X95544211Y-61305167D01*
X95544212Y-61305165D01*
X95546105Y-61300594D01*
X95589248Y-61120892D01*
X95600380Y-61074524D01*
X95600381Y-61074518D01*
X95601535Y-61069711D01*
X95620165Y-60833000D01*
X95601535Y-60596289D01*
X95570684Y-60467783D01*
X95547260Y-60370218D01*
X95546105Y-60365406D01*
X95544211Y-60360833D01*
X95457135Y-60150611D01*
X95457133Y-60150607D01*
X95455240Y-60146037D01*
X95443380Y-60126683D01*
X95333759Y-59947798D01*
X95333755Y-59947792D01*
X95331176Y-59943584D01*
X95176969Y-59763031D01*
X94996416Y-59608824D01*
X94996774Y-59608405D01*
X94955455Y-59554814D01*
X94949384Y-59484077D01*
X94982520Y-59421288D01*
X94991043Y-59413297D01*
X95046208Y-59366182D01*
X95046213Y-59366177D01*
X95049969Y-59362969D01*
X95204176Y-59182416D01*
X95206755Y-59178208D01*
X95206759Y-59178202D01*
X95325654Y-58984183D01*
X95328240Y-58979963D01*
X95419105Y-58760594D01*
X95474535Y-58529711D01*
X95493165Y-58293000D01*
X95474535Y-58056289D01*
X95465233Y-58017540D01*
X95420260Y-57830218D01*
X95419105Y-57825406D01*
X95335557Y-57623702D01*
X95330135Y-57610611D01*
X95330133Y-57610607D01*
X95328240Y-57606037D01*
X95306182Y-57570042D01*
X95206759Y-57407798D01*
X95206755Y-57407792D01*
X95204176Y-57403584D01*
X95049969Y-57223031D01*
X94869416Y-57068824D01*
X94865208Y-57066245D01*
X94865202Y-57066241D01*
X94671183Y-56947346D01*
X94666963Y-56944760D01*
X94662393Y-56942867D01*
X94662389Y-56942865D01*
X94452167Y-56855789D01*
X94452165Y-56855788D01*
X94447594Y-56853895D01*
X94367391Y-56834640D01*
X94221524Y-56799620D01*
X94221518Y-56799619D01*
X94216711Y-56798465D01*
X93980000Y-56779835D01*
X93975070Y-56780223D01*
X93971500Y-56780223D01*
X93903379Y-56760221D01*
X93856886Y-56706565D01*
X93845500Y-56654223D01*
X93845500Y-53221323D01*
X93865502Y-53153202D01*
X93919158Y-53106709D01*
X93989432Y-53096605D01*
X94056301Y-53128131D01*
X94064188Y-53135308D01*
X94073094Y-53142067D01*
X94253815Y-53255434D01*
X94263781Y-53260511D01*
X94461714Y-53340080D01*
X94472429Y-53343315D01*
X94682301Y-53386777D01*
X94691438Y-53387980D01*
X94741990Y-53390895D01*
X94745637Y-53391000D01*
X94809885Y-53391000D01*
X94825124Y-53386525D01*
X94826329Y-53385135D01*
X94828000Y-53377452D01*
X94828000Y-52005000D01*
X94848002Y-51936879D01*
X94901658Y-51890386D01*
X94954000Y-51879000D01*
X95210000Y-51879000D01*
X95278121Y-51899002D01*
X95324614Y-51952658D01*
X95336000Y-52005000D01*
X95336000Y-53372885D01*
X95340475Y-53388124D01*
X95341865Y-53389329D01*
X95349548Y-53391000D01*
X95386175Y-53391000D01*
X95391770Y-53390751D01*
X95550078Y-53376622D01*
X95561092Y-53374640D01*
X95766860Y-53318349D01*
X95777341Y-53314451D01*
X95969903Y-53222603D01*
X95979516Y-53216918D01*
X96152767Y-53092425D01*
X96161233Y-53085117D01*
X96192026Y-53053341D01*
X96253796Y-53018342D01*
X96324682Y-53022293D01*
X96367309Y-53047832D01*
X96463884Y-53135707D01*
X96468036Y-53139485D01*
X96472783Y-53142463D01*
X96472786Y-53142465D01*
X96601229Y-53223036D01*
X96658344Y-53258864D01*
X96866783Y-53342656D01*
X97086767Y-53388213D01*
X97091378Y-53388479D01*
X97091379Y-53388479D01*
X97141952Y-53391395D01*
X97141956Y-53391395D01*
X97143775Y-53391500D01*
X97788999Y-53391500D01*
X97791786Y-53391251D01*
X97791792Y-53391251D01*
X97861929Y-53384991D01*
X97955762Y-53376617D01*
X97961176Y-53375136D01*
X97961181Y-53375135D01*
X98089317Y-53340080D01*
X98172451Y-53317337D01*
X98177509Y-53314925D01*
X98177513Y-53314923D01*
X98295042Y-53258864D01*
X98375218Y-53220622D01*
X98557654Y-53089529D01*
X98663985Y-52979804D01*
X98710089Y-52932229D01*
X98710091Y-52932226D01*
X98713992Y-52928201D01*
X98839290Y-52741738D01*
X98929588Y-52536033D01*
X98962290Y-52399821D01*
X98997643Y-52338251D01*
X99060669Y-52305569D01*
X99131360Y-52312150D01*
X99173904Y-52340139D01*
X99792595Y-52958829D01*
X99826620Y-53021142D01*
X99829500Y-53047925D01*
X99829500Y-53175444D01*
X99809498Y-53243565D01*
X99785332Y-53271254D01*
X99768031Y-53286031D01*
X99613824Y-53466584D01*
X99611245Y-53470792D01*
X99611241Y-53470798D01*
X99492346Y-53664817D01*
X99489760Y-53669037D01*
X99487867Y-53673607D01*
X99487865Y-53673611D01*
X99400789Y-53883833D01*
X99398895Y-53888406D01*
X99343465Y-54119289D01*
X99324835Y-54356000D01*
X99343465Y-54592711D01*
X99344619Y-54597518D01*
X99344620Y-54597524D01*
X99371864Y-54711001D01*
X99398895Y-54823594D01*
X99400788Y-54828165D01*
X99400789Y-54828167D01*
X99462883Y-54978075D01*
X99489760Y-55042963D01*
X99492346Y-55047183D01*
X99611241Y-55241202D01*
X99611245Y-55241208D01*
X99613824Y-55245416D01*
X99768031Y-55425969D01*
X99948584Y-55580176D01*
X99952792Y-55582755D01*
X99952798Y-55582759D01*
X100142086Y-55698755D01*
X100151037Y-55704240D01*
X100155607Y-55706133D01*
X100155611Y-55706135D01*
X100298872Y-55765475D01*
X100370406Y-55795105D01*
X100426596Y-55808595D01*
X100596476Y-55849380D01*
X100596482Y-55849381D01*
X100601289Y-55850535D01*
X100838000Y-55869165D01*
X101074711Y-55850535D01*
X101079518Y-55849381D01*
X101079524Y-55849380D01*
X101249404Y-55808595D01*
X101305594Y-55795105D01*
X101377128Y-55765475D01*
X101520389Y-55706135D01*
X101520393Y-55706133D01*
X101524963Y-55704240D01*
X101533914Y-55698755D01*
X101723202Y-55582759D01*
X101723208Y-55582755D01*
X101727416Y-55580176D01*
X101907969Y-55425969D01*
X102062176Y-55245416D01*
X102064755Y-55241208D01*
X102064759Y-55241202D01*
X102183654Y-55047183D01*
X102186240Y-55042963D01*
X102213118Y-54978075D01*
X102275211Y-54828167D01*
X102275212Y-54828165D01*
X102277105Y-54823594D01*
X102304136Y-54711001D01*
X102331380Y-54597524D01*
X102331381Y-54597518D01*
X102332535Y-54592711D01*
X102351165Y-54356000D01*
X102332535Y-54119289D01*
X102277105Y-53888406D01*
X102275211Y-53883833D01*
X102188135Y-53673611D01*
X102188133Y-53673607D01*
X102186240Y-53669037D01*
X102183654Y-53664817D01*
X102064759Y-53470798D01*
X102064755Y-53470792D01*
X102062176Y-53466584D01*
X101907969Y-53286031D01*
X101890668Y-53271254D01*
X101851860Y-53211803D01*
X101846500Y-53175444D01*
X101846500Y-53047925D01*
X101866502Y-52979804D01*
X101883405Y-52958830D01*
X103568829Y-51273405D01*
X103631141Y-51239380D01*
X103657924Y-51236500D01*
X105020502Y-51236500D01*
X105088623Y-51256502D01*
X105135116Y-51310158D01*
X105145220Y-51380432D01*
X105133942Y-51417339D01*
X105086214Y-51516070D01*
X105044780Y-51695540D01*
X105044500Y-51700396D01*
X105044500Y-52755604D01*
X105044780Y-52760460D01*
X105086214Y-52939930D01*
X105089280Y-52946272D01*
X105159933Y-53092425D01*
X105166379Y-53105760D01*
X105201211Y-53149393D01*
X105228078Y-53215106D01*
X105215151Y-53284916D01*
X105201215Y-53306602D01*
X105166379Y-53350240D01*
X105163313Y-53356583D01*
X105163312Y-53356584D01*
X105146484Y-53391395D01*
X105086214Y-53516070D01*
X105084630Y-53522931D01*
X105049843Y-53673611D01*
X105044780Y-53695540D01*
X105044500Y-53700396D01*
X105044500Y-54755604D01*
X105044780Y-54760460D01*
X105045980Y-54765656D01*
X105045980Y-54765659D01*
X105060411Y-54828167D01*
X105086214Y-54939930D01*
X105089280Y-54946272D01*
X105158432Y-55089320D01*
X105166379Y-55105760D01*
X105281292Y-55249708D01*
X105425240Y-55364621D01*
X105591070Y-55444786D01*
X105597931Y-55446370D01*
X105765341Y-55485020D01*
X105765344Y-55485020D01*
X105770540Y-55486220D01*
X105775396Y-55486500D01*
X105978523Y-55486500D01*
X106046644Y-55506502D01*
X106067618Y-55523405D01*
X116306595Y-65762383D01*
X116340621Y-65824695D01*
X116343500Y-65851478D01*
X116343500Y-71703126D01*
X116323498Y-71771247D01*
X116318339Y-71778673D01*
X116301385Y-71801295D01*
X116250255Y-71937684D01*
X116243500Y-71999866D01*
X116243500Y-73796134D01*
X116250255Y-73858316D01*
X116301385Y-73994705D01*
X116388739Y-74111261D01*
X116505295Y-74198615D01*
X116513704Y-74201767D01*
X116513705Y-74201768D01*
X116622451Y-74242535D01*
X116679216Y-74285176D01*
X116703916Y-74351738D01*
X116688709Y-74421087D01*
X116669316Y-74447568D01*
X116542629Y-74580138D01*
X116416743Y-74764680D01*
X116322688Y-74967305D01*
X116262989Y-75182570D01*
X116239251Y-75404695D01*
X116239548Y-75409848D01*
X116239548Y-75409851D01*
X116245011Y-75504590D01*
X116252110Y-75627715D01*
X116253247Y-75632761D01*
X116253248Y-75632767D01*
X116270964Y-75711377D01*
X116301222Y-75845639D01*
X116339461Y-75939811D01*
X116383059Y-76047180D01*
X116385266Y-76052616D01*
X116427866Y-76122133D01*
X116499291Y-76238688D01*
X116501987Y-76243088D01*
X116648250Y-76411938D01*
X116820126Y-76554632D01*
X116850182Y-76572195D01*
X116916070Y-76610697D01*
X116964794Y-76662336D01*
X116978500Y-76719485D01*
X116978500Y-82824059D01*
X116959932Y-82889894D01*
X116891351Y-83001807D01*
X116891345Y-83001818D01*
X116888760Y-83006037D01*
X116886867Y-83010607D01*
X116886865Y-83010611D01*
X116816182Y-83181257D01*
X116797895Y-83225406D01*
X116796740Y-83230218D01*
X116758943Y-83387654D01*
X116742465Y-83456289D01*
X116723835Y-83693000D01*
X116742465Y-83929711D01*
X116743619Y-83934518D01*
X116743620Y-83934524D01*
X116747618Y-83951175D01*
X116797895Y-84160594D01*
X116799788Y-84165165D01*
X116799789Y-84165167D01*
X116882932Y-84365892D01*
X116888760Y-84379963D01*
X116891345Y-84384182D01*
X116891351Y-84384193D01*
X116959932Y-84496106D01*
X116978500Y-84561941D01*
X116978500Y-85798599D01*
X116958498Y-85866720D01*
X116926028Y-85900920D01*
X116915909Y-85908191D01*
X116915901Y-85908198D01*
X116911346Y-85911471D01*
X116907439Y-85915503D01*
X116784469Y-86042398D01*
X116755008Y-86072799D01*
X116629710Y-86259262D01*
X116539412Y-86464967D01*
X116538103Y-86470418D01*
X116538102Y-86470422D01*
X116488278Y-86677954D01*
X116486968Y-86683411D01*
X116474037Y-86907690D01*
X116501025Y-87130715D01*
X116567082Y-87345435D01*
X116569652Y-87350415D01*
X116569654Y-87350419D01*
X116634852Y-87476738D01*
X116670118Y-87545064D01*
X116806877Y-87723292D01*
X116973036Y-87874485D01*
X116977783Y-87877463D01*
X116977786Y-87877465D01*
X117149105Y-87984932D01*
X117163344Y-87993864D01*
X117231378Y-88021214D01*
X117287120Y-88065178D01*
X117310245Y-88132303D01*
X117293408Y-88201274D01*
X117238624Y-88251845D01*
X117099097Y-88318397D01*
X117089484Y-88324082D01*
X116916233Y-88448575D01*
X116907767Y-88455883D01*
X116759308Y-88609082D01*
X116752265Y-88617779D01*
X116633281Y-88794844D01*
X116627895Y-88804642D01*
X116542143Y-88999990D01*
X116538578Y-89010582D01*
X116508376Y-89136384D01*
X116509081Y-89150470D01*
X116517960Y-89154000D01*
X119955411Y-89154000D01*
X119969393Y-89149895D01*
X119970886Y-89140272D01*
X119970834Y-89140027D01*
X119908102Y-88936117D01*
X119903881Y-88925771D01*
X119806029Y-88736186D01*
X119800043Y-88726755D01*
X119670168Y-88557499D01*
X119662607Y-88549276D01*
X119504806Y-88405688D01*
X119495906Y-88398933D01*
X119315185Y-88285566D01*
X119305219Y-88280489D01*
X119242642Y-88255333D01*
X119186897Y-88211367D01*
X119163772Y-88144242D01*
X119180609Y-88075271D01*
X119235393Y-88024700D01*
X119280940Y-88002975D01*
X119380218Y-87955622D01*
X119562654Y-87824529D01*
X119718992Y-87663201D01*
X119844290Y-87476738D01*
X119934588Y-87271033D01*
X119987032Y-87052589D01*
X119999963Y-86828310D01*
X119972975Y-86605285D01*
X119906918Y-86390565D01*
X119884575Y-86347275D01*
X119806454Y-86195919D01*
X119806454Y-86195918D01*
X119803882Y-86190936D01*
X119667123Y-86012708D01*
X119662984Y-86008942D01*
X119662975Y-86008932D01*
X119536700Y-85894031D01*
X119499778Y-85833391D01*
X119495500Y-85800838D01*
X119495500Y-84561941D01*
X119514068Y-84496106D01*
X119582649Y-84384193D01*
X119582655Y-84384182D01*
X119585240Y-84379963D01*
X119591069Y-84365892D01*
X119674211Y-84165167D01*
X119674212Y-84165165D01*
X119676105Y-84160594D01*
X119726382Y-83951175D01*
X119730380Y-83934524D01*
X119730381Y-83934518D01*
X119731535Y-83929711D01*
X119750165Y-83693000D01*
X119731535Y-83456289D01*
X119715058Y-83387654D01*
X119677260Y-83230218D01*
X119676105Y-83225406D01*
X119657818Y-83181257D01*
X119587135Y-83010611D01*
X119587133Y-83010607D01*
X119585240Y-83006037D01*
X119582655Y-83001818D01*
X119582649Y-83001807D01*
X119514068Y-82889894D01*
X119495500Y-82824059D01*
X119495500Y-76828370D01*
X119515502Y-76760249D01*
X119569158Y-76713756D01*
X119639432Y-76703652D01*
X119666447Y-76710659D01*
X119761692Y-76747030D01*
X119766760Y-76748061D01*
X119766763Y-76748062D01*
X119861862Y-76767410D01*
X119980597Y-76791567D01*
X119985772Y-76791757D01*
X119985774Y-76791757D01*
X120198673Y-76799564D01*
X120198677Y-76799564D01*
X120203837Y-76799753D01*
X120208957Y-76799097D01*
X120208959Y-76799097D01*
X120420288Y-76772025D01*
X120420289Y-76772025D01*
X120425416Y-76771368D01*
X120430366Y-76769883D01*
X120634429Y-76708661D01*
X120634434Y-76708659D01*
X120639384Y-76707174D01*
X120839994Y-76608896D01*
X121021860Y-76479173D01*
X121035997Y-76465086D01*
X121156658Y-76344845D01*
X121180096Y-76321489D01*
X121183116Y-76317287D01*
X121310453Y-76140077D01*
X121311776Y-76141028D01*
X121358645Y-76097857D01*
X121428580Y-76085625D01*
X121494026Y-76113144D01*
X121521875Y-76144994D01*
X121581987Y-76243088D01*
X121728250Y-76411938D01*
X121900126Y-76554632D01*
X122093000Y-76667338D01*
X122097825Y-76669180D01*
X122097826Y-76669181D01*
X122123076Y-76678823D01*
X122301692Y-76747030D01*
X122306760Y-76748061D01*
X122306763Y-76748062D01*
X122401862Y-76767410D01*
X122520597Y-76791567D01*
X122525772Y-76791757D01*
X122525774Y-76791757D01*
X122738673Y-76799564D01*
X122738677Y-76799564D01*
X122743837Y-76799753D01*
X122748957Y-76799097D01*
X122748959Y-76799097D01*
X122960288Y-76772025D01*
X122960289Y-76772025D01*
X122965416Y-76771368D01*
X122970366Y-76769883D01*
X123174432Y-76708660D01*
X123174435Y-76708659D01*
X123179384Y-76707174D01*
X123183531Y-76705143D01*
X123229268Y-76696500D01*
X124686127Y-76696500D01*
X124731076Y-76704790D01*
X124746448Y-76710660D01*
X124841692Y-76747030D01*
X124846760Y-76748061D01*
X124846763Y-76748062D01*
X124941862Y-76767410D01*
X125060597Y-76791567D01*
X125065772Y-76791757D01*
X125065774Y-76791757D01*
X125278673Y-76799564D01*
X125278677Y-76799564D01*
X125283837Y-76799753D01*
X125288957Y-76799097D01*
X125288959Y-76799097D01*
X125500288Y-76772025D01*
X125500289Y-76772025D01*
X125505416Y-76771368D01*
X125510366Y-76769883D01*
X125714432Y-76708660D01*
X125714435Y-76708659D01*
X125719384Y-76707174D01*
X125723531Y-76705143D01*
X125769268Y-76696500D01*
X127188523Y-76696500D01*
X127256644Y-76716502D01*
X127277618Y-76733405D01*
X128371595Y-77827382D01*
X128405621Y-77889694D01*
X128408500Y-77916477D01*
X128408500Y-82189059D01*
X128389932Y-82254894D01*
X128321351Y-82366807D01*
X128321346Y-82366817D01*
X128318760Y-82371037D01*
X128316867Y-82375607D01*
X128316865Y-82375611D01*
X128263361Y-82504782D01*
X128227895Y-82590406D01*
X128226740Y-82595218D01*
X128195729Y-82724389D01*
X128172465Y-82821289D01*
X128153835Y-83058000D01*
X128172465Y-83294711D01*
X128173619Y-83299518D01*
X128173620Y-83299524D01*
X128195399Y-83390240D01*
X128227895Y-83525594D01*
X128229788Y-83530165D01*
X128229789Y-83530167D01*
X128232588Y-83536923D01*
X128318760Y-83744963D01*
X128321345Y-83749182D01*
X128321351Y-83749193D01*
X128389932Y-83861106D01*
X128408500Y-83926941D01*
X128408500Y-85798599D01*
X128388498Y-85866720D01*
X128356028Y-85900920D01*
X128345909Y-85908191D01*
X128345901Y-85908198D01*
X128341346Y-85911471D01*
X128337439Y-85915503D01*
X128214469Y-86042398D01*
X128185008Y-86072799D01*
X128059710Y-86259262D01*
X127969412Y-86464967D01*
X127968103Y-86470418D01*
X127968102Y-86470422D01*
X127918278Y-86677954D01*
X127916968Y-86683411D01*
X127904037Y-86907690D01*
X127931025Y-87130715D01*
X127997082Y-87345435D01*
X127999652Y-87350415D01*
X127999654Y-87350419D01*
X128064852Y-87476738D01*
X128100118Y-87545064D01*
X128236877Y-87723292D01*
X128403036Y-87874485D01*
X128407783Y-87877463D01*
X128407786Y-87877465D01*
X128579105Y-87984932D01*
X128593344Y-87993864D01*
X128661378Y-88021214D01*
X128717120Y-88065178D01*
X128740245Y-88132303D01*
X128723408Y-88201274D01*
X128668624Y-88251845D01*
X128529097Y-88318397D01*
X128519484Y-88324082D01*
X128346233Y-88448575D01*
X128337767Y-88455883D01*
X128189308Y-88609082D01*
X128182265Y-88617779D01*
X128063281Y-88794844D01*
X128057895Y-88804642D01*
X127972143Y-88999990D01*
X127968578Y-89010582D01*
X127938376Y-89136384D01*
X127939081Y-89150470D01*
X127947960Y-89154000D01*
X131385411Y-89154000D01*
X131399393Y-89149895D01*
X131400886Y-89140272D01*
X131400834Y-89140027D01*
X131338102Y-88936117D01*
X131333881Y-88925771D01*
X131236029Y-88736186D01*
X131230043Y-88726755D01*
X131100168Y-88557499D01*
X131092607Y-88549276D01*
X130934806Y-88405688D01*
X130925906Y-88398933D01*
X130745185Y-88285566D01*
X130735219Y-88280489D01*
X130672642Y-88255333D01*
X130616897Y-88211367D01*
X130593772Y-88144242D01*
X130610609Y-88075271D01*
X130665393Y-88024700D01*
X130710940Y-88002975D01*
X130810218Y-87955622D01*
X130992654Y-87824529D01*
X131148992Y-87663201D01*
X131274290Y-87476738D01*
X131364588Y-87271033D01*
X131417032Y-87052589D01*
X131429963Y-86828310D01*
X131402975Y-86605285D01*
X131336918Y-86390565D01*
X131314575Y-86347275D01*
X131236454Y-86195919D01*
X131236454Y-86195918D01*
X131233882Y-86190936D01*
X131097123Y-86012708D01*
X131092984Y-86008942D01*
X131092975Y-86008932D01*
X130966700Y-85894031D01*
X130929778Y-85833391D01*
X130925500Y-85800838D01*
X130925500Y-83926941D01*
X130944068Y-83861106D01*
X131012649Y-83749193D01*
X131012655Y-83749182D01*
X131015240Y-83744963D01*
X131101413Y-83536923D01*
X131104211Y-83530167D01*
X131104212Y-83530165D01*
X131106105Y-83525594D01*
X131138601Y-83390240D01*
X131160380Y-83299524D01*
X131160381Y-83299518D01*
X131161535Y-83294711D01*
X131180165Y-83058000D01*
X131161535Y-82821289D01*
X131138272Y-82724389D01*
X131107260Y-82595218D01*
X131106105Y-82590406D01*
X131070639Y-82504782D01*
X131017135Y-82375611D01*
X131017133Y-82375607D01*
X131015240Y-82371037D01*
X131012654Y-82366817D01*
X131012649Y-82366807D01*
X130944068Y-82254894D01*
X130925500Y-82189059D01*
X130925500Y-77434396D01*
X130926578Y-77417949D01*
X130928747Y-77401472D01*
X130929479Y-77395914D01*
X130925640Y-77314504D01*
X130925500Y-77308569D01*
X130925500Y-77286001D01*
X130925252Y-77283218D01*
X130925251Y-77283204D01*
X130923182Y-77260023D01*
X130922823Y-77254760D01*
X130919626Y-77186971D01*
X130918897Y-77171512D01*
X130914892Y-77154023D01*
X130912212Y-77137104D01*
X130911811Y-77132618D01*
X130910617Y-77119238D01*
X130908076Y-77109949D01*
X130888631Y-77038870D01*
X130887345Y-77033752D01*
X130869995Y-76958000D01*
X130869994Y-76957998D01*
X130868742Y-76952530D01*
X130861706Y-76936033D01*
X130856073Y-76919858D01*
X130854369Y-76913632D01*
X130851337Y-76902549D01*
X130839029Y-76876745D01*
X130827756Y-76806649D01*
X130856169Y-76741586D01*
X130915247Y-76702212D01*
X130952755Y-76696500D01*
X132306127Y-76696500D01*
X132351076Y-76704790D01*
X132366448Y-76710660D01*
X132461692Y-76747030D01*
X132466760Y-76748061D01*
X132466763Y-76748062D01*
X132561862Y-76767410D01*
X132680597Y-76791567D01*
X132685772Y-76791757D01*
X132685774Y-76791757D01*
X132898673Y-76799564D01*
X132898677Y-76799564D01*
X132903837Y-76799753D01*
X132908957Y-76799097D01*
X132908959Y-76799097D01*
X133120288Y-76772025D01*
X133120289Y-76772025D01*
X133125416Y-76771368D01*
X133130366Y-76769883D01*
X133334429Y-76708661D01*
X133334434Y-76708659D01*
X133339384Y-76707174D01*
X133539994Y-76608896D01*
X133721860Y-76479173D01*
X133735997Y-76465086D01*
X133856658Y-76344845D01*
X133880096Y-76321489D01*
X133883112Y-76317291D01*
X133883116Y-76317287D01*
X133895177Y-76300502D01*
X133951171Y-76256854D01*
X134021874Y-76250407D01*
X134084839Y-76283209D01*
X134120074Y-76344845D01*
X134123500Y-76374027D01*
X134123500Y-79791604D01*
X134122422Y-79808051D01*
X134119521Y-79830086D01*
X134119786Y-79835698D01*
X134123360Y-79911488D01*
X134123500Y-79917424D01*
X134123500Y-79939999D01*
X134123750Y-79942796D01*
X134125819Y-79965988D01*
X134126178Y-79971248D01*
X134130104Y-80054488D01*
X134131354Y-80059947D01*
X134131355Y-80059952D01*
X134134108Y-80071970D01*
X134136789Y-80088899D01*
X134138383Y-80106762D01*
X134139865Y-80112178D01*
X134139865Y-80112180D01*
X134160370Y-80187133D01*
X134161656Y-80192251D01*
X134180258Y-80273470D01*
X134182460Y-80278632D01*
X134187294Y-80289967D01*
X134192927Y-80306142D01*
X134197663Y-80323451D01*
X134200079Y-80328516D01*
X134233539Y-80398667D01*
X134235710Y-80403476D01*
X134268397Y-80480109D01*
X134278251Y-80495110D01*
X134286654Y-80510025D01*
X134294378Y-80526218D01*
X134297648Y-80530769D01*
X134297650Y-80530772D01*
X134342999Y-80593881D01*
X134345989Y-80598232D01*
X134389196Y-80664010D01*
X134389202Y-80664018D01*
X134391735Y-80667874D01*
X134410257Y-80688662D01*
X134418490Y-80698939D01*
X134425471Y-80708654D01*
X134502255Y-80783063D01*
X134503665Y-80784452D01*
X139166595Y-85447382D01*
X139200621Y-85509694D01*
X139203500Y-85536477D01*
X139203500Y-85798599D01*
X139183498Y-85866720D01*
X139151028Y-85900920D01*
X139140909Y-85908191D01*
X139140901Y-85908198D01*
X139136346Y-85911471D01*
X139132439Y-85915503D01*
X139009469Y-86042398D01*
X138980008Y-86072799D01*
X138854710Y-86259262D01*
X138764412Y-86464967D01*
X138763103Y-86470418D01*
X138763102Y-86470422D01*
X138713278Y-86677954D01*
X138711968Y-86683411D01*
X138699037Y-86907690D01*
X138726025Y-87130715D01*
X138792082Y-87345435D01*
X138794652Y-87350415D01*
X138794654Y-87350419D01*
X138859852Y-87476738D01*
X138895118Y-87545064D01*
X139031877Y-87723292D01*
X139198036Y-87874485D01*
X139202783Y-87877463D01*
X139202786Y-87877465D01*
X139374105Y-87984932D01*
X139388344Y-87993864D01*
X139456378Y-88021214D01*
X139512120Y-88065178D01*
X139535245Y-88132303D01*
X139518408Y-88201274D01*
X139463624Y-88251845D01*
X139324097Y-88318397D01*
X139314484Y-88324082D01*
X139141233Y-88448575D01*
X139132767Y-88455883D01*
X138984308Y-88609082D01*
X138977265Y-88617779D01*
X138858281Y-88794844D01*
X138852895Y-88804642D01*
X138767143Y-88999990D01*
X138763578Y-89010582D01*
X138733376Y-89136384D01*
X138734081Y-89150470D01*
X138742960Y-89154000D01*
X142180411Y-89154000D01*
X142194393Y-89149895D01*
X142195886Y-89140272D01*
X142195834Y-89140027D01*
X142133102Y-88936117D01*
X142128881Y-88925771D01*
X142031029Y-88736186D01*
X142025043Y-88726755D01*
X141895168Y-88557499D01*
X141887607Y-88549276D01*
X141729806Y-88405688D01*
X141720906Y-88398933D01*
X141540185Y-88285566D01*
X141530219Y-88280489D01*
X141467642Y-88255333D01*
X141411897Y-88211367D01*
X141388772Y-88144242D01*
X141405609Y-88075271D01*
X141460393Y-88024700D01*
X141505940Y-88002975D01*
X141605218Y-87955622D01*
X141787654Y-87824529D01*
X141943992Y-87663201D01*
X142069290Y-87476738D01*
X142159588Y-87271033D01*
X142212032Y-87052589D01*
X142224963Y-86828310D01*
X142197975Y-86605285D01*
X142131918Y-86390565D01*
X142109575Y-86347275D01*
X142031454Y-86195919D01*
X142031454Y-86195918D01*
X142028882Y-86190936D01*
X141892123Y-86012708D01*
X141887984Y-86008942D01*
X141887975Y-86008932D01*
X141761700Y-85894031D01*
X141724778Y-85833391D01*
X141720500Y-85800838D01*
X141720500Y-85054396D01*
X141721578Y-85037949D01*
X141723747Y-85021472D01*
X141724479Y-85015914D01*
X141720640Y-84934504D01*
X141720500Y-84928569D01*
X141720500Y-84906001D01*
X141720252Y-84903218D01*
X141720251Y-84903204D01*
X141718182Y-84880023D01*
X141717823Y-84874760D01*
X141714161Y-84797116D01*
X141713897Y-84791512D01*
X141709892Y-84774023D01*
X141707212Y-84757104D01*
X141706115Y-84744821D01*
X141705617Y-84739238D01*
X141704137Y-84733827D01*
X141683631Y-84658870D01*
X141682345Y-84653752D01*
X141664995Y-84578000D01*
X141664994Y-84577998D01*
X141663742Y-84572530D01*
X141656706Y-84556033D01*
X141651073Y-84539858D01*
X141647815Y-84527953D01*
X141646337Y-84522549D01*
X141643926Y-84517494D01*
X141643924Y-84517489D01*
X141610454Y-84447317D01*
X141608283Y-84442508D01*
X141577805Y-84371053D01*
X141577802Y-84371047D01*
X141575603Y-84365892D01*
X141565756Y-84350902D01*
X141557343Y-84335971D01*
X141552037Y-84324846D01*
X141549622Y-84319782D01*
X141546346Y-84315222D01*
X141546343Y-84315218D01*
X141524276Y-84284508D01*
X141500768Y-84217517D01*
X141517210Y-84148450D01*
X141532506Y-84128428D01*
X141531969Y-84127969D01*
X141686176Y-83947416D01*
X141688755Y-83943208D01*
X141688759Y-83943202D01*
X141807654Y-83749183D01*
X141810240Y-83744963D01*
X141896413Y-83536923D01*
X141899211Y-83530167D01*
X141899212Y-83530165D01*
X141901105Y-83525594D01*
X141933601Y-83390240D01*
X141955380Y-83299524D01*
X141955381Y-83299518D01*
X141956535Y-83294711D01*
X141975165Y-83058000D01*
X141956535Y-82821289D01*
X141933272Y-82724389D01*
X141902260Y-82595218D01*
X141901105Y-82590406D01*
X141865639Y-82504782D01*
X141812135Y-82375611D01*
X141812133Y-82375607D01*
X141810240Y-82371037D01*
X141756612Y-82283524D01*
X141688759Y-82172798D01*
X141688755Y-82172792D01*
X141686176Y-82168584D01*
X141531969Y-81988031D01*
X141351416Y-81833824D01*
X141347208Y-81831245D01*
X141347202Y-81831241D01*
X141153183Y-81712346D01*
X141148963Y-81709760D01*
X141144393Y-81707867D01*
X141144389Y-81707865D01*
X140934167Y-81620789D01*
X140934165Y-81620788D01*
X140929594Y-81618895D01*
X140849391Y-81599640D01*
X140703524Y-81564620D01*
X140703518Y-81564619D01*
X140698711Y-81563465D01*
X140462000Y-81544835D01*
X140225289Y-81563465D01*
X140220482Y-81564619D01*
X140220476Y-81564620D01*
X140074609Y-81599640D01*
X139994406Y-81618895D01*
X139989835Y-81620788D01*
X139989833Y-81620789D01*
X139779611Y-81707865D01*
X139779607Y-81707867D01*
X139775037Y-81709760D01*
X139770817Y-81712346D01*
X139576798Y-81831241D01*
X139576792Y-81831245D01*
X139572584Y-81833824D01*
X139568829Y-81837031D01*
X139568825Y-81837034D01*
X139568824Y-81837035D01*
X139413063Y-81970068D01*
X139348275Y-81999098D01*
X139278075Y-81988493D01*
X139242139Y-81963351D01*
X136677405Y-79398617D01*
X136643379Y-79336305D01*
X136640500Y-79309522D01*
X136640500Y-76370709D01*
X136660502Y-76302588D01*
X136714158Y-76256095D01*
X136784432Y-76245991D01*
X136849012Y-76275485D01*
X136861737Y-76288212D01*
X136965213Y-76407667D01*
X136972580Y-76414883D01*
X137136434Y-76550916D01*
X137144881Y-76556831D01*
X137328756Y-76664279D01*
X137338042Y-76668729D01*
X137537001Y-76744703D01*
X137546899Y-76747579D01*
X137650250Y-76768606D01*
X137664299Y-76767410D01*
X137668000Y-76757065D01*
X137668000Y-75310000D01*
X137688002Y-75241879D01*
X137741658Y-75195386D01*
X137794000Y-75184000D01*
X138050000Y-75184000D01*
X138118121Y-75204002D01*
X138164614Y-75257658D01*
X138176000Y-75310000D01*
X138176000Y-76756517D01*
X138180064Y-76770359D01*
X138193478Y-76772393D01*
X138200184Y-76771534D01*
X138210262Y-76769392D01*
X138414255Y-76708191D01*
X138423842Y-76704433D01*
X138615095Y-76610739D01*
X138623945Y-76605464D01*
X138797328Y-76481792D01*
X138805200Y-76475139D01*
X138956052Y-76324812D01*
X138962730Y-76316965D01*
X139090022Y-76139819D01*
X139091279Y-76140722D01*
X139138373Y-76097362D01*
X139208311Y-76085145D01*
X139273751Y-76112678D01*
X139301579Y-76144511D01*
X139361987Y-76243088D01*
X139508250Y-76411938D01*
X139680126Y-76554632D01*
X139873000Y-76667338D01*
X139877825Y-76669180D01*
X139877826Y-76669181D01*
X139903076Y-76678823D01*
X140081692Y-76747030D01*
X140086760Y-76748061D01*
X140086763Y-76748062D01*
X140181862Y-76767410D01*
X140300597Y-76791567D01*
X140305772Y-76791757D01*
X140305774Y-76791757D01*
X140518673Y-76799564D01*
X140518677Y-76799564D01*
X140523837Y-76799753D01*
X140528957Y-76799097D01*
X140528959Y-76799097D01*
X140740288Y-76772025D01*
X140740289Y-76772025D01*
X140745416Y-76771368D01*
X140750366Y-76769883D01*
X140954429Y-76708661D01*
X140954434Y-76708659D01*
X140959384Y-76707174D01*
X141159994Y-76608896D01*
X141341860Y-76479173D01*
X141355997Y-76465086D01*
X141476658Y-76344845D01*
X141500096Y-76321489D01*
X141503116Y-76317287D01*
X141627435Y-76144277D01*
X141630453Y-76140077D01*
X141639322Y-76122133D01*
X141727136Y-75944453D01*
X141727137Y-75944451D01*
X141729430Y-75939811D01*
X141784208Y-75759516D01*
X141792865Y-75731023D01*
X141792865Y-75731021D01*
X141794370Y-75726069D01*
X141823529Y-75504590D01*
X141825156Y-75438000D01*
X141806852Y-75215361D01*
X141752431Y-74998702D01*
X141663354Y-74793840D01*
X141623906Y-74732862D01*
X141544822Y-74610617D01*
X141544820Y-74610614D01*
X141542014Y-74606277D01*
X141391670Y-74441051D01*
X141387619Y-74437852D01*
X141387615Y-74437848D01*
X141220414Y-74305800D01*
X141220410Y-74305798D01*
X141216359Y-74302598D01*
X141175053Y-74279796D01*
X141125084Y-74229364D01*
X141110312Y-74159921D01*
X141135428Y-74093516D01*
X141162780Y-74066909D01*
X141206718Y-74035568D01*
X141341860Y-73939173D01*
X141354602Y-73926476D01*
X141449489Y-73831919D01*
X141500096Y-73781489D01*
X141630453Y-73600077D01*
X141651320Y-73557857D01*
X141727136Y-73404453D01*
X141727137Y-73404451D01*
X141729430Y-73399811D01*
X141794370Y-73186069D01*
X141823529Y-72964590D01*
X141825156Y-72898000D01*
X141806852Y-72675361D01*
X141752431Y-72458702D01*
X141663354Y-72253840D01*
X141542014Y-72066277D01*
X141538532Y-72062450D01*
X141503306Y-72023737D01*
X141472254Y-71959891D01*
X141470500Y-71938938D01*
X141470500Y-68982925D01*
X141490502Y-68914804D01*
X141507405Y-68893830D01*
X141917760Y-68483475D01*
X141980072Y-68449449D01*
X142050887Y-68454514D01*
X142107723Y-68497061D01*
X142132467Y-68562683D01*
X142135342Y-68599204D01*
X142142465Y-68689711D01*
X142143619Y-68694518D01*
X142143620Y-68694524D01*
X142159645Y-68761272D01*
X142197895Y-68920594D01*
X142199788Y-68925165D01*
X142199789Y-68925167D01*
X142208080Y-68945182D01*
X142288760Y-69139963D01*
X142291346Y-69144183D01*
X142410241Y-69338202D01*
X142410245Y-69338208D01*
X142412824Y-69342416D01*
X142567031Y-69522969D01*
X142747584Y-69677176D01*
X142751792Y-69679755D01*
X142751798Y-69679759D01*
X142827518Y-69726160D01*
X142950037Y-69801240D01*
X142954607Y-69803133D01*
X142954611Y-69803135D01*
X143164833Y-69890211D01*
X143169406Y-69892105D01*
X143249609Y-69911360D01*
X143395476Y-69946380D01*
X143395482Y-69946381D01*
X143400289Y-69947535D01*
X143637000Y-69966165D01*
X143641930Y-69965777D01*
X143641931Y-69965777D01*
X143659682Y-69964380D01*
X143729162Y-69978976D01*
X143758663Y-70000897D01*
X146401595Y-72643829D01*
X146435621Y-72706141D01*
X146438500Y-72732924D01*
X146438500Y-80227186D01*
X146418498Y-80295307D01*
X146364842Y-80341800D01*
X146351436Y-80347019D01*
X146349216Y-80347740D01*
X146344406Y-80348895D01*
X146339839Y-80350787D01*
X146339835Y-80350788D01*
X146129611Y-80437865D01*
X146129607Y-80437867D01*
X146125037Y-80439760D01*
X146120817Y-80442346D01*
X145926798Y-80561241D01*
X145926792Y-80561245D01*
X145922584Y-80563824D01*
X145742031Y-80718031D01*
X145587824Y-80898584D01*
X145585245Y-80902792D01*
X145585241Y-80902798D01*
X145466346Y-81096817D01*
X145463760Y-81101037D01*
X145461867Y-81105607D01*
X145461865Y-81105611D01*
X145440659Y-81156807D01*
X145372895Y-81320406D01*
X145317465Y-81551289D01*
X145298835Y-81788000D01*
X145317465Y-82024711D01*
X145318619Y-82029518D01*
X145318620Y-82029524D01*
X145336030Y-82102039D01*
X145372895Y-82255594D01*
X145374788Y-82260165D01*
X145374789Y-82260167D01*
X145420713Y-82371037D01*
X145463760Y-82474963D01*
X145466346Y-82479183D01*
X145585241Y-82673202D01*
X145585245Y-82673208D01*
X145587824Y-82677416D01*
X145742031Y-82857969D01*
X145922584Y-83012176D01*
X145926792Y-83014755D01*
X145926798Y-83014759D01*
X146090665Y-83115177D01*
X146125037Y-83136240D01*
X146129607Y-83138133D01*
X146129611Y-83138135D01*
X146339835Y-83225212D01*
X146339839Y-83225213D01*
X146344406Y-83227105D01*
X146349216Y-83228260D01*
X146351436Y-83228981D01*
X146410041Y-83269054D01*
X146437679Y-83334450D01*
X146438500Y-83348814D01*
X146438500Y-105448075D01*
X146418498Y-105516196D01*
X146401595Y-105537170D01*
X137541171Y-114397595D01*
X137478859Y-114431621D01*
X137452076Y-114434500D01*
X125564926Y-114434500D01*
X125496805Y-114414498D01*
X125475831Y-114397596D01*
X125163623Y-114085388D01*
X124805293Y-113727059D01*
X124771268Y-113664746D01*
X124776332Y-113593931D01*
X124798577Y-113556133D01*
X124918960Y-113415182D01*
X124918963Y-113415178D01*
X124922176Y-113411416D01*
X124924755Y-113407208D01*
X124924759Y-113407202D01*
X125043654Y-113213183D01*
X125046240Y-113208963D01*
X125137105Y-112989594D01*
X125192535Y-112758711D01*
X125211165Y-112522000D01*
X125192535Y-112285289D01*
X125185570Y-112256275D01*
X125182303Y-112242669D01*
X128298001Y-112242669D01*
X128298371Y-112249490D01*
X128303895Y-112300352D01*
X128307521Y-112315604D01*
X128352676Y-112436054D01*
X128361214Y-112451649D01*
X128437715Y-112553724D01*
X128450276Y-112566285D01*
X128552351Y-112642786D01*
X128567946Y-112651324D01*
X128688394Y-112696478D01*
X128703649Y-112700105D01*
X128754514Y-112705631D01*
X128761328Y-112706000D01*
X130283885Y-112706000D01*
X130299124Y-112701525D01*
X130300329Y-112700135D01*
X130302000Y-112692452D01*
X130302000Y-112687884D01*
X130810000Y-112687884D01*
X130814475Y-112703123D01*
X130815865Y-112704328D01*
X130823548Y-112705999D01*
X132350669Y-112705999D01*
X132357490Y-112705629D01*
X132408352Y-112700105D01*
X132423604Y-112696479D01*
X132544054Y-112651324D01*
X132559649Y-112642786D01*
X132661724Y-112566285D01*
X132674285Y-112553724D01*
X132750786Y-112451649D01*
X132759324Y-112436054D01*
X132804478Y-112315606D01*
X132808105Y-112300351D01*
X132813631Y-112249486D01*
X132814000Y-112242672D01*
X132814000Y-110720115D01*
X132809525Y-110704876D01*
X132808135Y-110703671D01*
X132800452Y-110702000D01*
X130828115Y-110702000D01*
X130812876Y-110706475D01*
X130811671Y-110707865D01*
X130810000Y-110715548D01*
X130810000Y-112687884D01*
X130302000Y-112687884D01*
X130302000Y-110720115D01*
X130297525Y-110704876D01*
X130296135Y-110703671D01*
X130288452Y-110702000D01*
X128316116Y-110702000D01*
X128300877Y-110706475D01*
X128299672Y-110707865D01*
X128298001Y-110715548D01*
X128298001Y-112242669D01*
X125182303Y-112242669D01*
X125156360Y-112134609D01*
X125137105Y-112054406D01*
X125135211Y-112049833D01*
X125048135Y-111839611D01*
X125048133Y-111839607D01*
X125046240Y-111835037D01*
X125038500Y-111822407D01*
X124924759Y-111636798D01*
X124924755Y-111636792D01*
X124922176Y-111632584D01*
X124767969Y-111452031D01*
X124587416Y-111297824D01*
X124583208Y-111295245D01*
X124583202Y-111295241D01*
X124389183Y-111176346D01*
X124384963Y-111173760D01*
X124380393Y-111171867D01*
X124380389Y-111171865D01*
X124170167Y-111084789D01*
X124170165Y-111084788D01*
X124165594Y-111082895D01*
X124079422Y-111062207D01*
X123939524Y-111028620D01*
X123939518Y-111028619D01*
X123934711Y-111027465D01*
X123698000Y-111008835D01*
X123461289Y-111027465D01*
X123456482Y-111028619D01*
X123456476Y-111028620D01*
X123316578Y-111062207D01*
X123230406Y-111082895D01*
X123225835Y-111084788D01*
X123225833Y-111084789D01*
X123015611Y-111171865D01*
X123015607Y-111171867D01*
X123011037Y-111173760D01*
X123006817Y-111176346D01*
X122812798Y-111295241D01*
X122812792Y-111295245D01*
X122808584Y-111297824D01*
X122628031Y-111452031D01*
X122473824Y-111632584D01*
X122471245Y-111636792D01*
X122471241Y-111636798D01*
X122357500Y-111822407D01*
X122349760Y-111835037D01*
X122347867Y-111839607D01*
X122347865Y-111839611D01*
X122260789Y-112049833D01*
X122258895Y-112054406D01*
X122239640Y-112134609D01*
X122210431Y-112256275D01*
X122203465Y-112285289D01*
X122184835Y-112522000D01*
X122203465Y-112758711D01*
X122258895Y-112989594D01*
X122349760Y-113208963D01*
X122352346Y-113213183D01*
X122471241Y-113407202D01*
X122471245Y-113407208D01*
X122473824Y-113411416D01*
X122628031Y-113591969D01*
X122631787Y-113595177D01*
X122631788Y-113595178D01*
X122645332Y-113606746D01*
X122684140Y-113666197D01*
X122689500Y-113702556D01*
X122689500Y-113984157D01*
X122688763Y-113997764D01*
X122684676Y-114035388D01*
X122685213Y-114041523D01*
X122689050Y-114085388D01*
X122689379Y-114090214D01*
X122689500Y-114092686D01*
X122689500Y-114095769D01*
X122689801Y-114098837D01*
X122693690Y-114138506D01*
X122693812Y-114139819D01*
X122701913Y-114232413D01*
X122703400Y-114237532D01*
X122703920Y-114242833D01*
X122730791Y-114331834D01*
X122731126Y-114332967D01*
X122754814Y-114414498D01*
X122757091Y-114422336D01*
X122759544Y-114427068D01*
X122761084Y-114432169D01*
X122763978Y-114437612D01*
X122804731Y-114514260D01*
X122805343Y-114515426D01*
X122848108Y-114597926D01*
X122851431Y-114602089D01*
X122853934Y-114606796D01*
X122912755Y-114678918D01*
X122913446Y-114679774D01*
X122944738Y-114718973D01*
X122947242Y-114721477D01*
X122947884Y-114722195D01*
X122951585Y-114726528D01*
X122978935Y-114760062D01*
X123014267Y-114789291D01*
X123023037Y-114797273D01*
X123643170Y-115417406D01*
X123677196Y-115479718D01*
X123672131Y-115550533D01*
X123643170Y-115595596D01*
X122666171Y-116572595D01*
X122603859Y-116606621D01*
X122577076Y-116609500D01*
X120754378Y-116609500D01*
X120686257Y-116589498D01*
X120675769Y-116581971D01*
X120555268Y-116485776D01*
X120549760Y-116481379D01*
X120383930Y-116401214D01*
X120377069Y-116399630D01*
X120209659Y-116360980D01*
X120209656Y-116360980D01*
X120204460Y-116359780D01*
X120199604Y-116359500D01*
X118644396Y-116359500D01*
X118639540Y-116359780D01*
X118634344Y-116360980D01*
X118634341Y-116360980D01*
X118466931Y-116399630D01*
X118460070Y-116401214D01*
X118294240Y-116481379D01*
X118150292Y-116596292D01*
X118035379Y-116740240D01*
X117955214Y-116906070D01*
X117913780Y-117085540D01*
X117913500Y-117090396D01*
X117913500Y-118145604D01*
X117913780Y-118150460D01*
X117955214Y-118329930D01*
X118035379Y-118495760D01*
X118039776Y-118501268D01*
X118045464Y-118508393D01*
X118150292Y-118639708D01*
X118165694Y-118652003D01*
X118206452Y-118710132D01*
X118209313Y-118781071D01*
X118188868Y-118822033D01*
X118190008Y-118822799D01*
X118064710Y-119009262D01*
X117974412Y-119214967D01*
X117973103Y-119220418D01*
X117973102Y-119220422D01*
X117930611Y-119397411D01*
X117921968Y-119433411D01*
X117909037Y-119657690D01*
X117936025Y-119880715D01*
X118002082Y-120095435D01*
X118004652Y-120100415D01*
X118004654Y-120100419D01*
X118102403Y-120289804D01*
X118105118Y-120295064D01*
X118241877Y-120473292D01*
X118408036Y-120624485D01*
X118412783Y-120627463D01*
X118412786Y-120627465D01*
X118541229Y-120708036D01*
X118598344Y-120743864D01*
X118806783Y-120827656D01*
X119026767Y-120873213D01*
X119031378Y-120873479D01*
X119031379Y-120873479D01*
X119081952Y-120876395D01*
X119081956Y-120876395D01*
X119083775Y-120876500D01*
X119728999Y-120876500D01*
X119731786Y-120876251D01*
X119731792Y-120876251D01*
X119803220Y-120869876D01*
X119895762Y-120861617D01*
X119901176Y-120860136D01*
X119901181Y-120860135D01*
X120028912Y-120825191D01*
X120112451Y-120802337D01*
X120117509Y-120799925D01*
X120117513Y-120799923D01*
X120235042Y-120743864D01*
X120315218Y-120705622D01*
X120392378Y-120650177D01*
X120465904Y-120626500D01*
X122563500Y-120626500D01*
X122631621Y-120646502D01*
X122678114Y-120700158D01*
X122689500Y-120752500D01*
X122689500Y-121501444D01*
X122669498Y-121569565D01*
X122645332Y-121597254D01*
X122631788Y-121608822D01*
X122628031Y-121612031D01*
X122473824Y-121792584D01*
X122471245Y-121796792D01*
X122471241Y-121796798D01*
X122423205Y-121875186D01*
X122349760Y-121995037D01*
X122347867Y-121999607D01*
X122347865Y-121999611D01*
X122309222Y-122092904D01*
X122258895Y-122214406D01*
X122239640Y-122294609D01*
X122216970Y-122389038D01*
X122203465Y-122445289D01*
X122184835Y-122682000D01*
X122203465Y-122918711D01*
X122258895Y-123149594D01*
X122260788Y-123154165D01*
X122260789Y-123154167D01*
X122337541Y-123339463D01*
X122349760Y-123368963D01*
X122352346Y-123373183D01*
X122471241Y-123567202D01*
X122471245Y-123567208D01*
X122473824Y-123571416D01*
X122628031Y-123751969D01*
X122808584Y-123906176D01*
X122812792Y-123908755D01*
X122812798Y-123908759D01*
X123006817Y-124027654D01*
X123011037Y-124030240D01*
X123015607Y-124032133D01*
X123015611Y-124032135D01*
X123225833Y-124119211D01*
X123230406Y-124121105D01*
X123310609Y-124140360D01*
X123456476Y-124175380D01*
X123456482Y-124175381D01*
X123461289Y-124176535D01*
X123698000Y-124195165D01*
X123934711Y-124176535D01*
X123939518Y-124175381D01*
X123939524Y-124175380D01*
X124085391Y-124140360D01*
X124165594Y-124121105D01*
X124170167Y-124119211D01*
X124380389Y-124032135D01*
X124380393Y-124032133D01*
X124384963Y-124030240D01*
X124389183Y-124027654D01*
X124583202Y-123908759D01*
X124583208Y-123908755D01*
X124587416Y-123906176D01*
X124767969Y-123751969D01*
X124922176Y-123571416D01*
X124924755Y-123567208D01*
X124924759Y-123567202D01*
X125043654Y-123373183D01*
X125046240Y-123368963D01*
X125058460Y-123339463D01*
X125135211Y-123154167D01*
X125135212Y-123154165D01*
X125137105Y-123149594D01*
X125192535Y-122918711D01*
X125211165Y-122682000D01*
X125192535Y-122445289D01*
X125179031Y-122389038D01*
X125156360Y-122294609D01*
X125137105Y-122214406D01*
X125086778Y-122092904D01*
X125048135Y-121999611D01*
X125048133Y-121999607D01*
X125046240Y-121995037D01*
X124972795Y-121875186D01*
X124924759Y-121796798D01*
X124924755Y-121796792D01*
X124922176Y-121792584D01*
X124767969Y-121612031D01*
X124764212Y-121608822D01*
X124750668Y-121597254D01*
X124711860Y-121537803D01*
X124706500Y-121501444D01*
X124706500Y-120448000D01*
X126342884Y-120448000D01*
X126361314Y-120658655D01*
X126362738Y-120663968D01*
X126362738Y-120663970D01*
X126411234Y-120844957D01*
X126416044Y-120862910D01*
X126418366Y-120867891D01*
X126418367Y-120867892D01*
X126429392Y-120891534D01*
X126505411Y-121054558D01*
X126626699Y-121227776D01*
X126776224Y-121377301D01*
X126949442Y-121498589D01*
X126954420Y-121500910D01*
X126954423Y-121500912D01*
X127080132Y-121559531D01*
X127141090Y-121587956D01*
X127146398Y-121589378D01*
X127146400Y-121589379D01*
X127340030Y-121641262D01*
X127340032Y-121641262D01*
X127345345Y-121642686D01*
X127556000Y-121661116D01*
X127766655Y-121642686D01*
X127771968Y-121641262D01*
X127771970Y-121641262D01*
X127965600Y-121589379D01*
X127965602Y-121589378D01*
X127970910Y-121587956D01*
X128031868Y-121559531D01*
X128157577Y-121500912D01*
X128157580Y-121500910D01*
X128162558Y-121498589D01*
X128335776Y-121377301D01*
X128485301Y-121227776D01*
X128606589Y-121054558D01*
X128682609Y-120891534D01*
X128693633Y-120867892D01*
X128693634Y-120867891D01*
X128695956Y-120862910D01*
X128700767Y-120844957D01*
X128749262Y-120663970D01*
X128749262Y-120663968D01*
X128750686Y-120658655D01*
X128769116Y-120448000D01*
X137342884Y-120448000D01*
X137361314Y-120658655D01*
X137362738Y-120663968D01*
X137362738Y-120663970D01*
X137411234Y-120844957D01*
X137416044Y-120862910D01*
X137418366Y-120867891D01*
X137418367Y-120867892D01*
X137429392Y-120891534D01*
X137505411Y-121054558D01*
X137626699Y-121227776D01*
X137776224Y-121377301D01*
X137949442Y-121498589D01*
X137954420Y-121500910D01*
X137954423Y-121500912D01*
X138080132Y-121559531D01*
X138141090Y-121587956D01*
X138146398Y-121589378D01*
X138146400Y-121589379D01*
X138340030Y-121641262D01*
X138340032Y-121641262D01*
X138345345Y-121642686D01*
X138556000Y-121661116D01*
X138766655Y-121642686D01*
X138771968Y-121641262D01*
X138771970Y-121641262D01*
X138965600Y-121589379D01*
X138965602Y-121589378D01*
X138970910Y-121587956D01*
X139031868Y-121559531D01*
X139157577Y-121500912D01*
X139157580Y-121500910D01*
X139162558Y-121498589D01*
X139335776Y-121377301D01*
X139485301Y-121227776D01*
X139606589Y-121054558D01*
X139682609Y-120891534D01*
X139693633Y-120867892D01*
X139693634Y-120867891D01*
X139695956Y-120862910D01*
X139700767Y-120844957D01*
X139749262Y-120663970D01*
X139749262Y-120663968D01*
X139750686Y-120658655D01*
X139757506Y-120580703D01*
X145842743Y-120580703D01*
X145843302Y-120584947D01*
X145843302Y-120584951D01*
X145853705Y-120663970D01*
X145880268Y-120865734D01*
X145881401Y-120869874D01*
X145881401Y-120869876D01*
X145883213Y-120876500D01*
X145956129Y-121143036D01*
X145957813Y-121146984D01*
X146057400Y-121380460D01*
X146068923Y-121407476D01*
X146080693Y-121427142D01*
X146193595Y-121615787D01*
X146216561Y-121654161D01*
X146396313Y-121878528D01*
X146604851Y-122076423D01*
X146838317Y-122244186D01*
X146842112Y-122246195D01*
X146842113Y-122246196D01*
X146863869Y-122257715D01*
X147092392Y-122378712D01*
X147362373Y-122477511D01*
X147643264Y-122538755D01*
X147671841Y-122541004D01*
X147866282Y-122556307D01*
X147866291Y-122556307D01*
X147868739Y-122556500D01*
X148024271Y-122556500D01*
X148026407Y-122556354D01*
X148026418Y-122556354D01*
X148234548Y-122542165D01*
X148234554Y-122542164D01*
X148238825Y-122541873D01*
X148243020Y-122541004D01*
X148243022Y-122541004D01*
X148379584Y-122512723D01*
X148520342Y-122483574D01*
X148791343Y-122387607D01*
X149046812Y-122255750D01*
X149050313Y-122253289D01*
X149050317Y-122253287D01*
X149164417Y-122173096D01*
X149282023Y-122090441D01*
X149389231Y-121990817D01*
X149489479Y-121897661D01*
X149489481Y-121897658D01*
X149492622Y-121894740D01*
X149674713Y-121672268D01*
X149824927Y-121427142D01*
X149848516Y-121373406D01*
X149938757Y-121167830D01*
X149940483Y-121163898D01*
X150019244Y-120887406D01*
X150053529Y-120646502D01*
X150059146Y-120607036D01*
X150059146Y-120607034D01*
X150059751Y-120602784D01*
X150059845Y-120584951D01*
X150061235Y-120319583D01*
X150061235Y-120319576D01*
X150061257Y-120315297D01*
X150058594Y-120295064D01*
X150032968Y-120100419D01*
X150023732Y-120030266D01*
X149947871Y-119752964D01*
X149847948Y-119518699D01*
X149836763Y-119492476D01*
X149836761Y-119492472D01*
X149835077Y-119488524D01*
X149687439Y-119241839D01*
X149507687Y-119017472D01*
X149384289Y-118900372D01*
X149302258Y-118822527D01*
X149302255Y-118822525D01*
X149299149Y-118819577D01*
X149065683Y-118651814D01*
X149043843Y-118640250D01*
X148985766Y-118609500D01*
X148811608Y-118517288D01*
X148541627Y-118418489D01*
X148260736Y-118357245D01*
X148229685Y-118354801D01*
X148037718Y-118339693D01*
X148037709Y-118339693D01*
X148035261Y-118339500D01*
X147879729Y-118339500D01*
X147877593Y-118339646D01*
X147877582Y-118339646D01*
X147669452Y-118353835D01*
X147669446Y-118353836D01*
X147665175Y-118354127D01*
X147660980Y-118354996D01*
X147660978Y-118354996D01*
X147524417Y-118383276D01*
X147383658Y-118412426D01*
X147112657Y-118508393D01*
X146857188Y-118640250D01*
X146853687Y-118642711D01*
X146853683Y-118642713D01*
X146837167Y-118654321D01*
X146621977Y-118805559D01*
X146411378Y-119001260D01*
X146229287Y-119223732D01*
X146079073Y-119468858D01*
X146077347Y-119472791D01*
X146077346Y-119472792D01*
X145998643Y-119652083D01*
X145963517Y-119732102D01*
X145884756Y-120008594D01*
X145881979Y-120028108D01*
X145847720Y-120268830D01*
X145844249Y-120293216D01*
X145844227Y-120297505D01*
X145844226Y-120297512D01*
X145843191Y-120495173D01*
X145842743Y-120580703D01*
X139757506Y-120580703D01*
X139769116Y-120448000D01*
X139750686Y-120237345D01*
X139695956Y-120033090D01*
X139684533Y-120008594D01*
X139608912Y-119846423D01*
X139608910Y-119846420D01*
X139606589Y-119841442D01*
X139485301Y-119668224D01*
X139335776Y-119518699D01*
X139162558Y-119397411D01*
X139157580Y-119395090D01*
X139157577Y-119395088D01*
X138975892Y-119310367D01*
X138975891Y-119310366D01*
X138970910Y-119308044D01*
X138965602Y-119306622D01*
X138965600Y-119306621D01*
X138771970Y-119254738D01*
X138771968Y-119254738D01*
X138766655Y-119253314D01*
X138556000Y-119234884D01*
X138345345Y-119253314D01*
X138340032Y-119254738D01*
X138340030Y-119254738D01*
X138146400Y-119306621D01*
X138146398Y-119306622D01*
X138141090Y-119308044D01*
X138136109Y-119310366D01*
X138136108Y-119310367D01*
X137954423Y-119395088D01*
X137954420Y-119395090D01*
X137949442Y-119397411D01*
X137776224Y-119518699D01*
X137626699Y-119668224D01*
X137505411Y-119841442D01*
X137503090Y-119846420D01*
X137503088Y-119846423D01*
X137427467Y-120008594D01*
X137416044Y-120033090D01*
X137361314Y-120237345D01*
X137342884Y-120448000D01*
X128769116Y-120448000D01*
X128750686Y-120237345D01*
X128695956Y-120033090D01*
X128684533Y-120008594D01*
X128608912Y-119846423D01*
X128608910Y-119846420D01*
X128606589Y-119841442D01*
X128485301Y-119668224D01*
X128335776Y-119518699D01*
X128162558Y-119397411D01*
X128157580Y-119395090D01*
X128157577Y-119395088D01*
X127975892Y-119310367D01*
X127975891Y-119310366D01*
X127970910Y-119308044D01*
X127965602Y-119306622D01*
X127965600Y-119306621D01*
X127771970Y-119254738D01*
X127771968Y-119254738D01*
X127766655Y-119253314D01*
X127556000Y-119234884D01*
X127345345Y-119253314D01*
X127340032Y-119254738D01*
X127340030Y-119254738D01*
X127146400Y-119306621D01*
X127146398Y-119306622D01*
X127141090Y-119308044D01*
X127136109Y-119310366D01*
X127136108Y-119310367D01*
X126954423Y-119395088D01*
X126954420Y-119395090D01*
X126949442Y-119397411D01*
X126776224Y-119518699D01*
X126626699Y-119668224D01*
X126505411Y-119841442D01*
X126503090Y-119846420D01*
X126503088Y-119846423D01*
X126427467Y-120008594D01*
X126416044Y-120033090D01*
X126361314Y-120237345D01*
X126342884Y-120448000D01*
X124706500Y-120448000D01*
X124706500Y-120357925D01*
X124726502Y-120289804D01*
X124743405Y-120268830D01*
X126872829Y-118139405D01*
X126935141Y-118105380D01*
X126961924Y-118102500D01*
X138622157Y-118102500D01*
X138635764Y-118103237D01*
X138667262Y-118106659D01*
X138667267Y-118106659D01*
X138673388Y-118107324D01*
X138699638Y-118105027D01*
X138723388Y-118102950D01*
X138728214Y-118102621D01*
X138730686Y-118102500D01*
X138733769Y-118102500D01*
X138745738Y-118101326D01*
X138776506Y-118098310D01*
X138777819Y-118098188D01*
X138822084Y-118094315D01*
X138870413Y-118090087D01*
X138875532Y-118088600D01*
X138880833Y-118088080D01*
X138969834Y-118061209D01*
X138970967Y-118060874D01*
X139054414Y-118036630D01*
X139054418Y-118036628D01*
X139060336Y-118034909D01*
X139065068Y-118032456D01*
X139070169Y-118030916D01*
X139075612Y-118028022D01*
X139152260Y-117987269D01*
X139153426Y-117986657D01*
X139230453Y-117946729D01*
X139235926Y-117943892D01*
X139240089Y-117940569D01*
X139244796Y-117938066D01*
X139316918Y-117879245D01*
X139317774Y-117878554D01*
X139356973Y-117847262D01*
X139359477Y-117844758D01*
X139360195Y-117844116D01*
X139364528Y-117840415D01*
X139398062Y-117813065D01*
X139427288Y-117777737D01*
X139435277Y-117768958D01*
X145227564Y-111976670D01*
X148230160Y-111976670D01*
X148235887Y-111984320D01*
X148407042Y-112089205D01*
X148415837Y-112093687D01*
X148625988Y-112180734D01*
X148635373Y-112183783D01*
X148856554Y-112236885D01*
X148866301Y-112238428D01*
X149093070Y-112256275D01*
X149102930Y-112256275D01*
X149329699Y-112238428D01*
X149339446Y-112236885D01*
X149560627Y-112183783D01*
X149570012Y-112180734D01*
X149780163Y-112093687D01*
X149788958Y-112089205D01*
X149956445Y-111986568D01*
X149965907Y-111976110D01*
X149962124Y-111967334D01*
X149110812Y-111116022D01*
X149096868Y-111108408D01*
X149095035Y-111108539D01*
X149088420Y-111112790D01*
X148236920Y-111964290D01*
X148230160Y-111976670D01*
X145227564Y-111976670D01*
X146455304Y-110748930D01*
X147585725Y-110748930D01*
X147603572Y-110975699D01*
X147605115Y-110985446D01*
X147658217Y-111206627D01*
X147661266Y-111216012D01*
X147748313Y-111426163D01*
X147752795Y-111434958D01*
X147855432Y-111602445D01*
X147865890Y-111611907D01*
X147874666Y-111608124D01*
X148725978Y-110756812D01*
X148732356Y-110745132D01*
X149462408Y-110745132D01*
X149462539Y-110746965D01*
X149466790Y-110753580D01*
X150318290Y-111605080D01*
X150330670Y-111611840D01*
X150338320Y-111606113D01*
X150443205Y-111434958D01*
X150447687Y-111426163D01*
X150534734Y-111216012D01*
X150537783Y-111206627D01*
X150590885Y-110985446D01*
X150592428Y-110975699D01*
X150610275Y-110748930D01*
X150610275Y-110739070D01*
X150592428Y-110512301D01*
X150590885Y-110502554D01*
X150537783Y-110281373D01*
X150534734Y-110271988D01*
X150447687Y-110061837D01*
X150443205Y-110053042D01*
X150340568Y-109885555D01*
X150330110Y-109876093D01*
X150321334Y-109879876D01*
X149470022Y-110731188D01*
X149462408Y-110745132D01*
X148732356Y-110745132D01*
X148733592Y-110742868D01*
X148733461Y-110741035D01*
X148729210Y-110734420D01*
X147877710Y-109882920D01*
X147865330Y-109876160D01*
X147857680Y-109881887D01*
X147752795Y-110053042D01*
X147748313Y-110061837D01*
X147661266Y-110271988D01*
X147658217Y-110281373D01*
X147605115Y-110502554D01*
X147603572Y-110512301D01*
X147585725Y-110739070D01*
X147585725Y-110748930D01*
X146455304Y-110748930D01*
X147692344Y-109511890D01*
X148230093Y-109511890D01*
X148233876Y-109520666D01*
X149085188Y-110371978D01*
X149099132Y-110379592D01*
X149100965Y-110379461D01*
X149107580Y-110375210D01*
X149959080Y-109523710D01*
X149965840Y-109511330D01*
X149960113Y-109503680D01*
X149788958Y-109398795D01*
X149780163Y-109394313D01*
X149570012Y-109307266D01*
X149560627Y-109304217D01*
X149339446Y-109251115D01*
X149329699Y-109249572D01*
X149102930Y-109231725D01*
X149093070Y-109231725D01*
X148866301Y-109249572D01*
X148856554Y-109251115D01*
X148635373Y-109304217D01*
X148625988Y-109307266D01*
X148415837Y-109394313D01*
X148407042Y-109398795D01*
X148239555Y-109501432D01*
X148230093Y-109511890D01*
X147692344Y-109511890D01*
X150021379Y-107182855D01*
X150031522Y-107173753D01*
X150056218Y-107153897D01*
X150061025Y-107150032D01*
X150093320Y-107111544D01*
X150096478Y-107107925D01*
X150098124Y-107106110D01*
X150100309Y-107103925D01*
X150102264Y-107101545D01*
X150102273Y-107101535D01*
X150127549Y-107070764D01*
X150128391Y-107069749D01*
X150184194Y-107003245D01*
X150188154Y-106998526D01*
X150190723Y-106993852D01*
X150194102Y-106989739D01*
X150237975Y-106907915D01*
X150238584Y-106906793D01*
X150280464Y-106830614D01*
X150280465Y-106830612D01*
X150283433Y-106825213D01*
X150285045Y-106820131D01*
X150287562Y-106815437D01*
X150314762Y-106726469D01*
X150315108Y-106725358D01*
X150333713Y-106666712D01*
X150343235Y-106636694D01*
X150343829Y-106631398D01*
X150345387Y-106626302D01*
X150354790Y-106533743D01*
X150354911Y-106532607D01*
X150360500Y-106482773D01*
X150360500Y-106479246D01*
X150360555Y-106478261D01*
X150361002Y-106472581D01*
X150365374Y-106429538D01*
X150361059Y-106383891D01*
X150360500Y-106372033D01*
X150360500Y-83297666D01*
X150380502Y-83229545D01*
X150438282Y-83181257D01*
X150542389Y-83138135D01*
X150542393Y-83138133D01*
X150546963Y-83136240D01*
X150581335Y-83115177D01*
X150745202Y-83014759D01*
X150745208Y-83014755D01*
X150749416Y-83012176D01*
X150929969Y-82857969D01*
X151084176Y-82677416D01*
X151086755Y-82673208D01*
X151086759Y-82673202D01*
X151205654Y-82479183D01*
X151208240Y-82474963D01*
X151251288Y-82371037D01*
X151297211Y-82260167D01*
X151297212Y-82260165D01*
X151299105Y-82255594D01*
X151335970Y-82102039D01*
X151353380Y-82029524D01*
X151353381Y-82029518D01*
X151354535Y-82024711D01*
X151373165Y-81788000D01*
X151354535Y-81551289D01*
X151299105Y-81320406D01*
X151231341Y-81156807D01*
X151210135Y-81105611D01*
X151210133Y-81105607D01*
X151208240Y-81101037D01*
X151205654Y-81096817D01*
X151086759Y-80902798D01*
X151086755Y-80902792D01*
X151084176Y-80898584D01*
X150929969Y-80718031D01*
X150749416Y-80563824D01*
X150745208Y-80561245D01*
X150745202Y-80561241D01*
X150551183Y-80442346D01*
X150546963Y-80439760D01*
X150542393Y-80437867D01*
X150542389Y-80437865D01*
X150438282Y-80394743D01*
X150383001Y-80350195D01*
X150360500Y-80278334D01*
X150360500Y-71054843D01*
X150361237Y-71041236D01*
X150364659Y-71009738D01*
X150364659Y-71009733D01*
X150365324Y-71003612D01*
X150360950Y-70953612D01*
X150360621Y-70948786D01*
X150360500Y-70946314D01*
X150360500Y-70943231D01*
X150359326Y-70931262D01*
X150356310Y-70900494D01*
X150356188Y-70899181D01*
X150348623Y-70812718D01*
X150348087Y-70806587D01*
X150346600Y-70801468D01*
X150346080Y-70796167D01*
X150319209Y-70707166D01*
X150318874Y-70706033D01*
X150294630Y-70622586D01*
X150294628Y-70622582D01*
X150292909Y-70616664D01*
X150290456Y-70611932D01*
X150288916Y-70606831D01*
X150255744Y-70544442D01*
X150245269Y-70524740D01*
X150244657Y-70523574D01*
X150204729Y-70446547D01*
X150201892Y-70441074D01*
X150198569Y-70436911D01*
X150196066Y-70432204D01*
X150137245Y-70360082D01*
X150136554Y-70359226D01*
X150105262Y-70320027D01*
X150102758Y-70317523D01*
X150102116Y-70316805D01*
X150098415Y-70312472D01*
X150071065Y-70278938D01*
X150035737Y-70249712D01*
X150026958Y-70241723D01*
X147546211Y-67760976D01*
X145059905Y-65274671D01*
X145025879Y-65212359D01*
X145023000Y-65185576D01*
X145023000Y-65018405D01*
X145023645Y-65005672D01*
X145027252Y-64970165D01*
X145027252Y-64970160D01*
X145027874Y-64964037D01*
X145023559Y-64918388D01*
X145023000Y-64906531D01*
X145023000Y-60417425D01*
X145043002Y-60349304D01*
X145059905Y-60328330D01*
X148497379Y-56890855D01*
X148507522Y-56881753D01*
X148532218Y-56861897D01*
X148537025Y-56858032D01*
X148569320Y-56819544D01*
X148572478Y-56815925D01*
X148574124Y-56814110D01*
X148576309Y-56811925D01*
X148578264Y-56809545D01*
X148578273Y-56809535D01*
X148603549Y-56778764D01*
X148604391Y-56777749D01*
X148660194Y-56711245D01*
X148664154Y-56706526D01*
X148666723Y-56701852D01*
X148670102Y-56697739D01*
X148713975Y-56615915D01*
X148714584Y-56614793D01*
X148756464Y-56538614D01*
X148756465Y-56538612D01*
X148759433Y-56533213D01*
X148761045Y-56528131D01*
X148763562Y-56523437D01*
X148790762Y-56434469D01*
X148791108Y-56433358D01*
X148817373Y-56350563D01*
X148819235Y-56344694D01*
X148819829Y-56339398D01*
X148821387Y-56334302D01*
X148830790Y-56241743D01*
X148830911Y-56240607D01*
X148836500Y-56190773D01*
X148836500Y-56187246D01*
X148836555Y-56186261D01*
X148837002Y-56180581D01*
X148841374Y-56137538D01*
X148837059Y-56091891D01*
X148836500Y-56080033D01*
X148836500Y-50861842D01*
X148837237Y-50848235D01*
X148840659Y-50816737D01*
X148840659Y-50816732D01*
X148841324Y-50810611D01*
X148836950Y-50760609D01*
X148836621Y-50755784D01*
X148836500Y-50753313D01*
X148836500Y-50750231D01*
X148832309Y-50707489D01*
X148832187Y-50706174D01*
X148824623Y-50619719D01*
X148824087Y-50613587D01*
X148822600Y-50608468D01*
X148822080Y-50603167D01*
X148795218Y-50514194D01*
X148794862Y-50512994D01*
X148768909Y-50423663D01*
X148766455Y-50418929D01*
X148764916Y-50413831D01*
X148721316Y-50331831D01*
X148720702Y-50330663D01*
X148680726Y-50253541D01*
X148680725Y-50253540D01*
X148677892Y-50248074D01*
X148674569Y-50243911D01*
X148672066Y-50239204D01*
X148613245Y-50167082D01*
X148612554Y-50166226D01*
X148581262Y-50127027D01*
X148578758Y-50124523D01*
X148578116Y-50123805D01*
X148574415Y-50119472D01*
X148547065Y-50085938D01*
X148525954Y-50068473D01*
X148511738Y-50056713D01*
X148502958Y-50048723D01*
X146012855Y-47558621D01*
X146003753Y-47548478D01*
X145983897Y-47523782D01*
X145980032Y-47518975D01*
X145941578Y-47486708D01*
X145937931Y-47483528D01*
X145936119Y-47481885D01*
X145933925Y-47479691D01*
X145900651Y-47452358D01*
X145899853Y-47451696D01*
X145828526Y-47391846D01*
X145823856Y-47389278D01*
X145819739Y-47385897D01*
X145737914Y-47342023D01*
X145736755Y-47341394D01*
X145660619Y-47299538D01*
X145660611Y-47299535D01*
X145655213Y-47296567D01*
X145650131Y-47294955D01*
X145645437Y-47292438D01*
X145556469Y-47265238D01*
X145555441Y-47264918D01*
X145466694Y-47236765D01*
X145461398Y-47236171D01*
X145456302Y-47234613D01*
X145363743Y-47225210D01*
X145362607Y-47225089D01*
X145328992Y-47221319D01*
X145316270Y-47219892D01*
X145316266Y-47219892D01*
X145312773Y-47219500D01*
X145309246Y-47219500D01*
X145308261Y-47219445D01*
X145302581Y-47218998D01*
X145273175Y-47216011D01*
X145265663Y-47215248D01*
X145265661Y-47215248D01*
X145259538Y-47214626D01*
X145217259Y-47218623D01*
X145213891Y-47218941D01*
X145202033Y-47219500D01*
X144533942Y-47219500D01*
X144465821Y-47199498D01*
X144419328Y-47145842D01*
X144409224Y-47075568D01*
X144420502Y-47038661D01*
X144465245Y-46946105D01*
X144469895Y-46932902D01*
X144508520Y-46765601D01*
X144509944Y-46755653D01*
X144510000Y-46753723D01*
X144510000Y-46500115D01*
X144505525Y-46484876D01*
X144504135Y-46483671D01*
X144496452Y-46482000D01*
X141512116Y-46482000D01*
X141496877Y-46486475D01*
X141495672Y-46487865D01*
X141494001Y-46495548D01*
X141494001Y-46753753D01*
X141494055Y-46755644D01*
X141495480Y-46765600D01*
X141534105Y-46932902D01*
X141538755Y-46946105D01*
X141583498Y-47038661D01*
X141595138Y-47108697D01*
X141567066Y-47173908D01*
X141508195Y-47213590D01*
X141470058Y-47219500D01*
X135643942Y-47219500D01*
X135575821Y-47199498D01*
X135529328Y-47145842D01*
X135519224Y-47075568D01*
X135530502Y-47038661D01*
X135575245Y-46946105D01*
X135579895Y-46932902D01*
X135618520Y-46765601D01*
X135619944Y-46755653D01*
X135620000Y-46753723D01*
X135620000Y-46500115D01*
X135615525Y-46484876D01*
X135614135Y-46483671D01*
X135606452Y-46482000D01*
X132622116Y-46482000D01*
X132606877Y-46486475D01*
X132605672Y-46487865D01*
X132604001Y-46495548D01*
X132604001Y-46753753D01*
X132604055Y-46755644D01*
X132605480Y-46765600D01*
X132644105Y-46932902D01*
X132648755Y-46946105D01*
X132693498Y-47038661D01*
X132705138Y-47108697D01*
X132677066Y-47173908D01*
X132618195Y-47213590D01*
X132580058Y-47219500D01*
X126753942Y-47219500D01*
X126685821Y-47199498D01*
X126639328Y-47145842D01*
X126629224Y-47075568D01*
X126640502Y-47038661D01*
X126685245Y-46946105D01*
X126689895Y-46932902D01*
X126728520Y-46765601D01*
X126729944Y-46755653D01*
X126730000Y-46753723D01*
X126730000Y-46500115D01*
X126725525Y-46484876D01*
X126724135Y-46483671D01*
X126716452Y-46482000D01*
X123732116Y-46482000D01*
X123716877Y-46486475D01*
X123715672Y-46487865D01*
X123714001Y-46495548D01*
X123714001Y-46753753D01*
X123714055Y-46755644D01*
X123715480Y-46765600D01*
X123754105Y-46932902D01*
X123758755Y-46946105D01*
X123803498Y-47038661D01*
X123815138Y-47108697D01*
X123787066Y-47173908D01*
X123728195Y-47213590D01*
X123690058Y-47219500D01*
X116085942Y-47219500D01*
X116017821Y-47199498D01*
X115971328Y-47145842D01*
X115961224Y-47075568D01*
X115972502Y-47038661D01*
X116017245Y-46946105D01*
X116021895Y-46932902D01*
X116060520Y-46765601D01*
X116061944Y-46755653D01*
X116062000Y-46753723D01*
X116062000Y-46500115D01*
X116057525Y-46484876D01*
X116056135Y-46483671D01*
X116048452Y-46482000D01*
X113064116Y-46482000D01*
X113048877Y-46486475D01*
X113047672Y-46487865D01*
X113046001Y-46495548D01*
X113046001Y-46753753D01*
X113046055Y-46755644D01*
X113047480Y-46765600D01*
X113086105Y-46932902D01*
X113090755Y-46946105D01*
X113135498Y-47038661D01*
X113147138Y-47108697D01*
X113119066Y-47173908D01*
X113060195Y-47213590D01*
X113022058Y-47219500D01*
X108084942Y-47219500D01*
X108016821Y-47199498D01*
X107970328Y-47145842D01*
X107960224Y-47075568D01*
X107971502Y-47038661D01*
X108016245Y-46946105D01*
X108020895Y-46932902D01*
X108059520Y-46765601D01*
X108060944Y-46755653D01*
X108061000Y-46753723D01*
X108061000Y-46500115D01*
X108056525Y-46484876D01*
X108055135Y-46483671D01*
X108047452Y-46482000D01*
X105063116Y-46482000D01*
X105047877Y-46486475D01*
X105046672Y-46487865D01*
X105045001Y-46495548D01*
X105045001Y-46753753D01*
X105045055Y-46755644D01*
X105046480Y-46765600D01*
X105085105Y-46932902D01*
X105089755Y-46946105D01*
X105134498Y-47038661D01*
X105146138Y-47108697D01*
X105118066Y-47173908D01*
X105059195Y-47213590D01*
X105021058Y-47219500D01*
X103815924Y-47219500D01*
X103747803Y-47199498D01*
X103726829Y-47182595D01*
X102500119Y-45955885D01*
X105045000Y-45955885D01*
X105049475Y-45971124D01*
X105050865Y-45972329D01*
X105058548Y-45974000D01*
X106280885Y-45974000D01*
X106296124Y-45969525D01*
X106297329Y-45968135D01*
X106299000Y-45960452D01*
X106299000Y-45955885D01*
X106807000Y-45955885D01*
X106811475Y-45971124D01*
X106812865Y-45972329D01*
X106820548Y-45974000D01*
X108042884Y-45974000D01*
X108058123Y-45969525D01*
X108059328Y-45968135D01*
X108060999Y-45960452D01*
X108060999Y-45955885D01*
X113046000Y-45955885D01*
X113050475Y-45971124D01*
X113051865Y-45972329D01*
X113059548Y-45974000D01*
X114281885Y-45974000D01*
X114297124Y-45969525D01*
X114298329Y-45968135D01*
X114300000Y-45960452D01*
X114300000Y-45955885D01*
X114808000Y-45955885D01*
X114812475Y-45971124D01*
X114813865Y-45972329D01*
X114821548Y-45974000D01*
X116043884Y-45974000D01*
X116059123Y-45969525D01*
X116060328Y-45968135D01*
X116061999Y-45960452D01*
X116061999Y-45955885D01*
X123714000Y-45955885D01*
X123718475Y-45971124D01*
X123719865Y-45972329D01*
X123727548Y-45974000D01*
X124949885Y-45974000D01*
X124965124Y-45969525D01*
X124966329Y-45968135D01*
X124968000Y-45960452D01*
X124968000Y-45955885D01*
X125476000Y-45955885D01*
X125480475Y-45971124D01*
X125481865Y-45972329D01*
X125489548Y-45974000D01*
X126711884Y-45974000D01*
X126727123Y-45969525D01*
X126728328Y-45968135D01*
X126729999Y-45960452D01*
X126729999Y-45955885D01*
X132604000Y-45955885D01*
X132608475Y-45971124D01*
X132609865Y-45972329D01*
X132617548Y-45974000D01*
X133839885Y-45974000D01*
X133855124Y-45969525D01*
X133856329Y-45968135D01*
X133858000Y-45960452D01*
X133858000Y-45955885D01*
X134366000Y-45955885D01*
X134370475Y-45971124D01*
X134371865Y-45972329D01*
X134379548Y-45974000D01*
X135601884Y-45974000D01*
X135617123Y-45969525D01*
X135618328Y-45968135D01*
X135619999Y-45960452D01*
X135619999Y-45955885D01*
X141494000Y-45955885D01*
X141498475Y-45971124D01*
X141499865Y-45972329D01*
X141507548Y-45974000D01*
X142729885Y-45974000D01*
X142745124Y-45969525D01*
X142746329Y-45968135D01*
X142748000Y-45960452D01*
X142748000Y-45955885D01*
X143256000Y-45955885D01*
X143260475Y-45971124D01*
X143261865Y-45972329D01*
X143269548Y-45974000D01*
X144491884Y-45974000D01*
X144507123Y-45969525D01*
X144508328Y-45968135D01*
X144509999Y-45960452D01*
X144509999Y-45702247D01*
X144509945Y-45700356D01*
X144508520Y-45690400D01*
X144469895Y-45523098D01*
X144465245Y-45509895D01*
X144391262Y-45356852D01*
X144383798Y-45345000D01*
X144277745Y-45212151D01*
X144267849Y-45202255D01*
X144135000Y-45096202D01*
X144123148Y-45088738D01*
X143970105Y-45014755D01*
X143956902Y-45010105D01*
X143789601Y-44971480D01*
X143779653Y-44970056D01*
X143777723Y-44970000D01*
X143274115Y-44970000D01*
X143258876Y-44974475D01*
X143257671Y-44975865D01*
X143256000Y-44983548D01*
X143256000Y-45955885D01*
X142748000Y-45955885D01*
X142748000Y-44988116D01*
X142743525Y-44972877D01*
X142742135Y-44971672D01*
X142734452Y-44970001D01*
X142226247Y-44970001D01*
X142224356Y-44970055D01*
X142214400Y-44971480D01*
X142047098Y-45010105D01*
X142033895Y-45014755D01*
X141880852Y-45088738D01*
X141869000Y-45096202D01*
X141736151Y-45202255D01*
X141726255Y-45212151D01*
X141620202Y-45345000D01*
X141612738Y-45356852D01*
X141538755Y-45509895D01*
X141534105Y-45523098D01*
X141495480Y-45690399D01*
X141494056Y-45700347D01*
X141494000Y-45702277D01*
X141494000Y-45955885D01*
X135619999Y-45955885D01*
X135619999Y-45702247D01*
X135619945Y-45700356D01*
X135618520Y-45690400D01*
X135579895Y-45523098D01*
X135575245Y-45509895D01*
X135501262Y-45356852D01*
X135493798Y-45345000D01*
X135387745Y-45212151D01*
X135377849Y-45202255D01*
X135245000Y-45096202D01*
X135233148Y-45088738D01*
X135080105Y-45014755D01*
X135066902Y-45010105D01*
X134899601Y-44971480D01*
X134889653Y-44970056D01*
X134887723Y-44970000D01*
X134384115Y-44970000D01*
X134368876Y-44974475D01*
X134367671Y-44975865D01*
X134366000Y-44983548D01*
X134366000Y-45955885D01*
X133858000Y-45955885D01*
X133858000Y-44988116D01*
X133853525Y-44972877D01*
X133852135Y-44971672D01*
X133844452Y-44970001D01*
X133336247Y-44970001D01*
X133334356Y-44970055D01*
X133324400Y-44971480D01*
X133157098Y-45010105D01*
X133143895Y-45014755D01*
X132990852Y-45088738D01*
X132979000Y-45096202D01*
X132846151Y-45202255D01*
X132836255Y-45212151D01*
X132730202Y-45345000D01*
X132722738Y-45356852D01*
X132648755Y-45509895D01*
X132644105Y-45523098D01*
X132605480Y-45690399D01*
X132604056Y-45700347D01*
X132604000Y-45702277D01*
X132604000Y-45955885D01*
X126729999Y-45955885D01*
X126729999Y-45702247D01*
X126729945Y-45700356D01*
X126728520Y-45690400D01*
X126689895Y-45523098D01*
X126685245Y-45509895D01*
X126611262Y-45356852D01*
X126603798Y-45345000D01*
X126497745Y-45212151D01*
X126487849Y-45202255D01*
X126355000Y-45096202D01*
X126343148Y-45088738D01*
X126190105Y-45014755D01*
X126176902Y-45010105D01*
X126009601Y-44971480D01*
X125999653Y-44970056D01*
X125997723Y-44970000D01*
X125494115Y-44970000D01*
X125478876Y-44974475D01*
X125477671Y-44975865D01*
X125476000Y-44983548D01*
X125476000Y-45955885D01*
X124968000Y-45955885D01*
X124968000Y-44988116D01*
X124963525Y-44972877D01*
X124962135Y-44971672D01*
X124954452Y-44970001D01*
X124446247Y-44970001D01*
X124444356Y-44970055D01*
X124434400Y-44971480D01*
X124267098Y-45010105D01*
X124253895Y-45014755D01*
X124100852Y-45088738D01*
X124089000Y-45096202D01*
X123956151Y-45202255D01*
X123946255Y-45212151D01*
X123840202Y-45345000D01*
X123832738Y-45356852D01*
X123758755Y-45509895D01*
X123754105Y-45523098D01*
X123715480Y-45690399D01*
X123714056Y-45700347D01*
X123714000Y-45702277D01*
X123714000Y-45955885D01*
X116061999Y-45955885D01*
X116061999Y-45702247D01*
X116061945Y-45700356D01*
X116060520Y-45690400D01*
X116021895Y-45523098D01*
X116017245Y-45509895D01*
X115943262Y-45356852D01*
X115935798Y-45345000D01*
X115829745Y-45212151D01*
X115819849Y-45202255D01*
X115687000Y-45096202D01*
X115675148Y-45088738D01*
X115522105Y-45014755D01*
X115508902Y-45010105D01*
X115341601Y-44971480D01*
X115331653Y-44970056D01*
X115329723Y-44970000D01*
X114826115Y-44970000D01*
X114810876Y-44974475D01*
X114809671Y-44975865D01*
X114808000Y-44983548D01*
X114808000Y-45955885D01*
X114300000Y-45955885D01*
X114300000Y-44988116D01*
X114295525Y-44972877D01*
X114294135Y-44971672D01*
X114286452Y-44970001D01*
X113778247Y-44970001D01*
X113776356Y-44970055D01*
X113766400Y-44971480D01*
X113599098Y-45010105D01*
X113585895Y-45014755D01*
X113432852Y-45088738D01*
X113421000Y-45096202D01*
X113288151Y-45202255D01*
X113278255Y-45212151D01*
X113172202Y-45345000D01*
X113164738Y-45356852D01*
X113090755Y-45509895D01*
X113086105Y-45523098D01*
X113047480Y-45690399D01*
X113046056Y-45700347D01*
X113046000Y-45702277D01*
X113046000Y-45955885D01*
X108060999Y-45955885D01*
X108060999Y-45702247D01*
X108060945Y-45700356D01*
X108059520Y-45690400D01*
X108020895Y-45523098D01*
X108016245Y-45509895D01*
X107942262Y-45356852D01*
X107934798Y-45345000D01*
X107828745Y-45212151D01*
X107818849Y-45202255D01*
X107686000Y-45096202D01*
X107674148Y-45088738D01*
X107521105Y-45014755D01*
X107507902Y-45010105D01*
X107340601Y-44971480D01*
X107330653Y-44970056D01*
X107328723Y-44970000D01*
X106825115Y-44970000D01*
X106809876Y-44974475D01*
X106808671Y-44975865D01*
X106807000Y-44983548D01*
X106807000Y-45955885D01*
X106299000Y-45955885D01*
X106299000Y-44988116D01*
X106294525Y-44972877D01*
X106293135Y-44971672D01*
X106285452Y-44970001D01*
X105777247Y-44970001D01*
X105775356Y-44970055D01*
X105765400Y-44971480D01*
X105598098Y-45010105D01*
X105584895Y-45014755D01*
X105431852Y-45088738D01*
X105420000Y-45096202D01*
X105287151Y-45202255D01*
X105277255Y-45212151D01*
X105171202Y-45345000D01*
X105163738Y-45356852D01*
X105089755Y-45509895D01*
X105085105Y-45523098D01*
X105046480Y-45690399D01*
X105045056Y-45700347D01*
X105045000Y-45702277D01*
X105045000Y-45955885D01*
X102500119Y-45955885D01*
X101945292Y-45401058D01*
X101911266Y-45338746D01*
X101916331Y-45267931D01*
X101938574Y-45230135D01*
X102062176Y-45085416D01*
X102064755Y-45081208D01*
X102064759Y-45081202D01*
X102183654Y-44887183D01*
X102186240Y-44882963D01*
X102277105Y-44663594D01*
X102332535Y-44432711D01*
X102351165Y-44196000D01*
X102332535Y-43959289D01*
X102277105Y-43728406D01*
X102186240Y-43509037D01*
X102183654Y-43504817D01*
X102064759Y-43310798D01*
X102064755Y-43310792D01*
X102062176Y-43306584D01*
X101907969Y-43126031D01*
X101727416Y-42971824D01*
X101723208Y-42969245D01*
X101723202Y-42969241D01*
X101529183Y-42850346D01*
X101524963Y-42847760D01*
X101520393Y-42845867D01*
X101520389Y-42845865D01*
X101310167Y-42758789D01*
X101310165Y-42758788D01*
X101305594Y-42756895D01*
X101225391Y-42737640D01*
X101079524Y-42702620D01*
X101079518Y-42702619D01*
X101074711Y-42701465D01*
X100838000Y-42682835D01*
X100601289Y-42701465D01*
X100596482Y-42702619D01*
X100596476Y-42702620D01*
X100450609Y-42737640D01*
X100370406Y-42756895D01*
X100365835Y-42758788D01*
X100365833Y-42758789D01*
X100155611Y-42845865D01*
X100155607Y-42845867D01*
X100151037Y-42847760D01*
X100146817Y-42850346D01*
X99952798Y-42969241D01*
X99952792Y-42969245D01*
X99948584Y-42971824D01*
X99768031Y-43126031D01*
X99613824Y-43306584D01*
X99611245Y-43310792D01*
X99611241Y-43310798D01*
X99492346Y-43504817D01*
X99489760Y-43509037D01*
X99398895Y-43728406D01*
X99343465Y-43959289D01*
X99324835Y-44196000D01*
X99343465Y-44432711D01*
X99398895Y-44663594D01*
X99489760Y-44882963D01*
X99492346Y-44887183D01*
X99611241Y-45081202D01*
X99611245Y-45081208D01*
X99613824Y-45085416D01*
X99617037Y-45089178D01*
X99617040Y-45089182D01*
X99737423Y-45230133D01*
X99766454Y-45294922D01*
X99755849Y-45365122D01*
X99730707Y-45401058D01*
X98294171Y-46837595D01*
X98231859Y-46871620D01*
X98205076Y-46874500D01*
X96704396Y-46874500D01*
X96699540Y-46874780D01*
X96694344Y-46875980D01*
X96694341Y-46875980D01*
X96535486Y-46912655D01*
X96520070Y-46916214D01*
X96452946Y-46948663D01*
X96374248Y-46986707D01*
X96354240Y-46996379D01*
X96219156Y-47104216D01*
X96153442Y-47131083D01*
X96083632Y-47118156D01*
X96073593Y-47112482D01*
X95910405Y-47010115D01*
X95905656Y-47007136D01*
X95697217Y-46923344D01*
X95477233Y-46877787D01*
X95472622Y-46877521D01*
X95472621Y-46877521D01*
X95422048Y-46874605D01*
X95422044Y-46874605D01*
X95420225Y-46874500D01*
X93278396Y-46874500D01*
X93261949Y-46873422D01*
X93261270Y-46873333D01*
X93239914Y-46870521D01*
X93234314Y-46870785D01*
X93234313Y-46870785D01*
X93158504Y-46874360D01*
X93152569Y-46874500D01*
X93130001Y-46874500D01*
X93127218Y-46874748D01*
X93127204Y-46874749D01*
X93104023Y-46876818D01*
X93098760Y-46877177D01*
X93069342Y-46878564D01*
X93015512Y-46881103D01*
X92998023Y-46885108D01*
X92981104Y-46887788D01*
X92976618Y-46888189D01*
X92963238Y-46889383D01*
X92957830Y-46890862D01*
X92957827Y-46890863D01*
X92882870Y-46911369D01*
X92877752Y-46912655D01*
X92821932Y-46925440D01*
X92796530Y-46931258D01*
X92780037Y-46938293D01*
X92763855Y-46943928D01*
X92751967Y-46947180D01*
X92751958Y-46947183D01*
X92746549Y-46948663D01*
X92741486Y-46951078D01*
X92741475Y-46951082D01*
X92671343Y-46984534D01*
X92666542Y-46986702D01*
X92589892Y-47019396D01*
X92585204Y-47022475D01*
X92585203Y-47022476D01*
X92574900Y-47029244D01*
X92559971Y-47037656D01*
X92543782Y-47045378D01*
X92539226Y-47048652D01*
X92539224Y-47048653D01*
X92476122Y-47093997D01*
X92471771Y-47096987D01*
X92405992Y-47140195D01*
X92405987Y-47140199D01*
X92402126Y-47142735D01*
X92398675Y-47145810D01*
X92381346Y-47161249D01*
X92371055Y-47169494D01*
X92365907Y-47173193D01*
X92365903Y-47173197D01*
X92361346Y-47176471D01*
X92314172Y-47225151D01*
X92286968Y-47253223D01*
X92285579Y-47254633D01*
X90106737Y-49433475D01*
X90094347Y-49444342D01*
X90076708Y-49457877D01*
X90033791Y-49505042D01*
X90021842Y-49518174D01*
X90017743Y-49522469D01*
X90001802Y-49538410D01*
X90000007Y-49540557D01*
X90000005Y-49540559D01*
X89985068Y-49558423D01*
X89981600Y-49562398D01*
X89929288Y-49619888D01*
X89929281Y-49619897D01*
X89925515Y-49624036D01*
X89922538Y-49628782D01*
X89922537Y-49628783D01*
X89915987Y-49639225D01*
X89905911Y-49653093D01*
X89898004Y-49662549D01*
X89897997Y-49662559D01*
X89894406Y-49666854D01*
X89853118Y-49739240D01*
X89850413Y-49743759D01*
X89806136Y-49814344D01*
X89804043Y-49819549D01*
X89804042Y-49819552D01*
X89799448Y-49830979D01*
X89791988Y-49846411D01*
X89785880Y-49857119D01*
X89785876Y-49857128D01*
X89783101Y-49861993D01*
X89781232Y-49867270D01*
X89781230Y-49867275D01*
X89755285Y-49940542D01*
X89753420Y-49945478D01*
X89722344Y-50022783D01*
X89721208Y-50028270D01*
X89721207Y-50028272D01*
X89718706Y-50040349D01*
X89714101Y-50056844D01*
X89708111Y-50073759D01*
X89699997Y-50123310D01*
X89694643Y-50156001D01*
X89693683Y-50161180D01*
X89676787Y-50242767D01*
X89676521Y-50247379D01*
X89676521Y-50247380D01*
X89675185Y-50270548D01*
X89673738Y-50283653D01*
X89672714Y-50289910D01*
X89671806Y-50295457D01*
X89671894Y-50301070D01*
X89671894Y-50301072D01*
X89673484Y-50402264D01*
X89673500Y-50404243D01*
X89673500Y-57424059D01*
X89654932Y-57489894D01*
X89586351Y-57601807D01*
X89586346Y-57601817D01*
X89583760Y-57606037D01*
X89581867Y-57610607D01*
X89581865Y-57610611D01*
X89576443Y-57623702D01*
X89492895Y-57825406D01*
X89491740Y-57830218D01*
X89446768Y-58017540D01*
X89437465Y-58056289D01*
X89418835Y-58293000D01*
X88460000Y-58293000D01*
X88460000Y-40580703D01*
X90842743Y-40580703D01*
X90880268Y-40865734D01*
X90956129Y-41143036D01*
X91068923Y-41407476D01*
X91216561Y-41654161D01*
X91396313Y-41878528D01*
X91604851Y-42076423D01*
X91838317Y-42244186D01*
X91842112Y-42246195D01*
X91842113Y-42246196D01*
X91863869Y-42257715D01*
X92092392Y-42378712D01*
X92362373Y-42477511D01*
X92643264Y-42538755D01*
X92671841Y-42541004D01*
X92866282Y-42556307D01*
X92866291Y-42556307D01*
X92868739Y-42556500D01*
X93024271Y-42556500D01*
X93026407Y-42556354D01*
X93026418Y-42556354D01*
X93234548Y-42542165D01*
X93234554Y-42542164D01*
X93238825Y-42541873D01*
X93243020Y-42541004D01*
X93243022Y-42541004D01*
X93379584Y-42512723D01*
X93520342Y-42483574D01*
X93791343Y-42387607D01*
X94046812Y-42255750D01*
X94050313Y-42253289D01*
X94050317Y-42253287D01*
X94164417Y-42173096D01*
X94282023Y-42090441D01*
X94492622Y-41894740D01*
X94674713Y-41672268D01*
X94824927Y-41427142D01*
X94940483Y-41163898D01*
X95019244Y-40887406D01*
X95059751Y-40602784D01*
X95059845Y-40584951D01*
X95059867Y-40580703D01*
X145842743Y-40580703D01*
X145880268Y-40865734D01*
X145956129Y-41143036D01*
X146068923Y-41407476D01*
X146216561Y-41654161D01*
X146396313Y-41878528D01*
X146604851Y-42076423D01*
X146838317Y-42244186D01*
X146842112Y-42246195D01*
X146842113Y-42246196D01*
X146863869Y-42257715D01*
X147092392Y-42378712D01*
X147362373Y-42477511D01*
X147643264Y-42538755D01*
X147671841Y-42541004D01*
X147866282Y-42556307D01*
X147866291Y-42556307D01*
X147868739Y-42556500D01*
X148024271Y-42556500D01*
X148026407Y-42556354D01*
X148026418Y-42556354D01*
X148234548Y-42542165D01*
X148234554Y-42542164D01*
X148238825Y-42541873D01*
X148243020Y-42541004D01*
X148243022Y-42541004D01*
X148379584Y-42512723D01*
X148520342Y-42483574D01*
X148791343Y-42387607D01*
X149046812Y-42255750D01*
X149050313Y-42253289D01*
X149050317Y-42253287D01*
X149164417Y-42173096D01*
X149282023Y-42090441D01*
X149492622Y-41894740D01*
X149674713Y-41672268D01*
X149824927Y-41427142D01*
X149940483Y-41163898D01*
X150019244Y-40887406D01*
X150059751Y-40602784D01*
X150059845Y-40584951D01*
X150061235Y-40319583D01*
X150061235Y-40319576D01*
X150061257Y-40315297D01*
X150023732Y-40030266D01*
X149947871Y-39752964D01*
X149835077Y-39488524D01*
X149687439Y-39241839D01*
X149507687Y-39017472D01*
X149299149Y-38819577D01*
X149065683Y-38651814D01*
X149043843Y-38640250D01*
X149020654Y-38627972D01*
X148811608Y-38517288D01*
X148541627Y-38418489D01*
X148260736Y-38357245D01*
X148229685Y-38354801D01*
X148037718Y-38339693D01*
X148037709Y-38339693D01*
X148035261Y-38339500D01*
X147879729Y-38339500D01*
X147877593Y-38339646D01*
X147877582Y-38339646D01*
X147669452Y-38353835D01*
X147669446Y-38353836D01*
X147665175Y-38354127D01*
X147660980Y-38354996D01*
X147660978Y-38354996D01*
X147524416Y-38383277D01*
X147383658Y-38412426D01*
X147112657Y-38508393D01*
X146857188Y-38640250D01*
X146853687Y-38642711D01*
X146853683Y-38642713D01*
X146843594Y-38649804D01*
X146621977Y-38805559D01*
X146606892Y-38819577D01*
X146513279Y-38906568D01*
X146411378Y-39001260D01*
X146229287Y-39223732D01*
X146079073Y-39468858D01*
X145963517Y-39732102D01*
X145884756Y-40008594D01*
X145844249Y-40293216D01*
X145844227Y-40297505D01*
X145844226Y-40297512D01*
X145843159Y-40501207D01*
X145842743Y-40580703D01*
X95059867Y-40580703D01*
X95061235Y-40319583D01*
X95061235Y-40319576D01*
X95061257Y-40315297D01*
X95023732Y-40030266D01*
X94947871Y-39752964D01*
X94835077Y-39488524D01*
X94687439Y-39241839D01*
X94507687Y-39017472D01*
X94299149Y-38819577D01*
X94065683Y-38651814D01*
X94043843Y-38640250D01*
X94020654Y-38627972D01*
X93811608Y-38517288D01*
X93541627Y-38418489D01*
X93260736Y-38357245D01*
X93229685Y-38354801D01*
X93037718Y-38339693D01*
X93037709Y-38339693D01*
X93035261Y-38339500D01*
X92879729Y-38339500D01*
X92877593Y-38339646D01*
X92877582Y-38339646D01*
X92669452Y-38353835D01*
X92669446Y-38353836D01*
X92665175Y-38354127D01*
X92660980Y-38354996D01*
X92660978Y-38354996D01*
X92524416Y-38383277D01*
X92383658Y-38412426D01*
X92112657Y-38508393D01*
X91857188Y-38640250D01*
X91853687Y-38642711D01*
X91853683Y-38642713D01*
X91843594Y-38649804D01*
X91621977Y-38805559D01*
X91606892Y-38819577D01*
X91513279Y-38906568D01*
X91411378Y-39001260D01*
X91229287Y-39223732D01*
X91079073Y-39468858D01*
X90963517Y-39732102D01*
X90884756Y-40008594D01*
X90844249Y-40293216D01*
X90844227Y-40297505D01*
X90844226Y-40297512D01*
X90843159Y-40501207D01*
X90842743Y-40580703D01*
X88460000Y-40580703D01*
X88460000Y-40501207D01*
X88461746Y-40480303D01*
X88464264Y-40465335D01*
X88465071Y-40460539D01*
X88465224Y-40448000D01*
X88462885Y-40431664D01*
X88461733Y-40408311D01*
X88465980Y-40311049D01*
X88476853Y-40061993D01*
X88477811Y-40051042D01*
X88527527Y-39673421D01*
X88529436Y-39662597D01*
X88611870Y-39290757D01*
X88614715Y-39280139D01*
X88701599Y-39004579D01*
X88729248Y-38916890D01*
X88733004Y-38906568D01*
X88769037Y-38819577D01*
X88878766Y-38554666D01*
X88883399Y-38544731D01*
X89059278Y-38206872D01*
X89064768Y-38197363D01*
X89269410Y-37876140D01*
X89275714Y-37867136D01*
X89507583Y-37564957D01*
X89514649Y-37556537D01*
X89771959Y-37275732D01*
X89779732Y-37267959D01*
X90060537Y-37010649D01*
X90068957Y-37003583D01*
X90371136Y-36771714D01*
X90380140Y-36765410D01*
X90701363Y-36560768D01*
X90710872Y-36555278D01*
X91048731Y-36379399D01*
X91058666Y-36374766D01*
X91410575Y-36229001D01*
X91420890Y-36225248D01*
X91784140Y-36110715D01*
X91794757Y-36107870D01*
X92166597Y-36025436D01*
X92177421Y-36023527D01*
X92555042Y-35973811D01*
X92565993Y-35972853D01*
X92833226Y-35961186D01*
X92908583Y-35957896D01*
X92933462Y-35959276D01*
X92945730Y-35961186D01*
X92977252Y-35957064D01*
X92993589Y-35956000D01*
X147902672Y-35956000D01*
X147922057Y-35957500D01*
G37*
%TD.AperFunction*%
%TD*%
M02*
