M48
; DRILL file {KiCad (6.0.0)} date Tue Mar 22 14:32:43 2022
; FORMAT={-:-/ absolute / inch / decimal}
; #@! TF.CreationDate,2022-03-22T14:32:43+01:00
; #@! TF.GenerationSoftware,Kicad,Pcbnew,(6.0.0)
; #@! TF.FileFunction,Plated,1,2,PTH
FMAT,2
INCH
; #@! TA.AperFunction,Plated,PTH,ComponentDrill
T1C0.0295
; #@! TA.AperFunction,Plated,PTH,ViaDrill
T2C0.0315
; #@! TA.AperFunction,Plated,PTH,ComponentDrill
T3C0.0315
; #@! TA.AperFunction,Plated,PTH,ComponentDrill
T4C0.0354
; #@! TA.AperFunction,Plated,PTH,ComponentDrill
T5C0.0394
%
G90
G05
T1
X5.9449Y-1.8706
X6.0236Y-1.8706
X6.1024Y-1.8706
X6.1811Y-1.8706
X6.2598Y-1.8706
X6.6732Y-1.5157
X6.6732Y-1.5945
X6.6732Y-1.6732
X6.9685Y-1.5157
X6.9685Y-1.5945
X6.9685Y-1.6732
T2
X6.1024Y-2.8543
X6.3583Y-2.7559
T3
X5.8661Y-2.8465
X5.9449Y-2.8465
X5.9567Y-1.5748
X5.9587Y-2.322
X5.9587Y-2.622
X6.0236Y-2.9874
X6.0236Y-3.5874
X6.0587Y-2.322
X6.0587Y-2.622
X6.1587Y-2.322
X6.1587Y-2.622
X6.1811Y-2.9874
X6.1811Y-3.5874
X6.2587Y-2.322
X6.2587Y-2.622
X6.3386Y-2.9874
X6.3386Y-3.5874
X6.4567Y-1.5748
X6.4764Y-2.9874
X6.4764Y-3.5874
T4
X5.8661Y-3.0866
X5.8661Y-3.5866
T5
X6.6488Y-2.1543
X6.6488Y-2.2543
X6.6488Y-2.3543
X6.6488Y-2.4543
X6.6488Y-2.5543
X6.6488Y-2.6543
X6.6488Y-2.7543
X6.6488Y-2.8543
X6.6488Y-2.9543
X6.6488Y-3.0543
X6.6488Y-3.1543
X6.6488Y-3.2543
X6.6488Y-3.3543
X6.6488Y-3.4543
X6.6488Y-3.5543
X7.2488Y-2.1543
X7.2488Y-2.2543
X7.2488Y-2.3543
X7.2488Y-2.4543
X7.2488Y-2.5543
X7.2488Y-2.6543
X7.2488Y-2.7543
X7.2488Y-2.8543
X7.2488Y-2.9543
X7.2488Y-3.0543
X7.2488Y-3.1543
X7.2488Y-3.2543
X7.2488Y-3.3543
X7.2488Y-3.4543
X7.2488Y-3.5543
T0
M30
