M48
; DRILL file {KiCad (5.1.5)-3} date 16/11/2020 19:58:29
; FORMAT={-:-/ absolute / metric / decimal}
; #@! TF.CreationDate,2020-11-16T19:58:29+01:00
; #@! TF.GenerationSoftware,Kicad,Pcbnew,(5.1.5)-3
FMAT,2
METRIC
T1C0.400
T2C0.700
T3C0.762
T4C0.800
T5C0.950
T6C1.000
T7C1.100
T8C3.200
%
G90
G05
T1
X1.27Y-11.43
X1.27Y-15.24
X2.736Y-15.182
X2.794Y-11.43
X14.605Y-35.814
X14.605Y-37.338
X17.018Y-14.478
X18.034Y-14.478
X19.05Y-14.478
X20.0Y-44.5
X20.574Y-33.782
X22.5Y-44.5
X22.5Y-46.5
X23.622Y-37.338
X24.828Y-29.21
X25.0Y-44.5
X25.019Y-23.241
X26.098Y-29.21
X26.543Y-23.304
X26.67Y-43.688
X27.432Y-37.084
X29.527Y-23.304
X30.48Y-27.94
X32.004Y-42.164
X32.004Y-45.72
X33.553Y-45.948
X33.782Y-38.1
X35.56Y-27.686
X36.576Y-40.386
X37.846Y-23.114
X37.846Y-24.13
X37.846Y-25.146
X40.555Y-35.484
X41.656Y-26.924
X41.656Y-28.448
X41.656Y-29.972
X41.656Y-31.496
X42.418Y-35.814
X44.196Y-24.384
X44.196Y-32.281
X45.212Y-25.146
X46.064Y-34.674
X46.228Y-22.098
X46.789Y-33.985
X47.498Y-29.972
X47.498Y-30.988
X47.752Y-36.83
X48.006Y-35.052
X48.016Y-23.45
X48.783Y-29.972
X49.022Y-21.082
X49.53Y-35.052
X50.038Y-21.881
X50.038Y-26.67
X50.038Y-31.75
X50.763Y-21.149
X50.8Y-27.432
X51.312Y-20.314
X51.546Y-31.749
X51.562Y-29.235
X52.07Y-22.606
X52.324Y-23.622
X52.545Y-31.794
X53.086Y-26.924
X53.091Y-28.189
X53.848Y-25.146
X53.848Y-41.148
X54.356Y-36.322
X55.372Y-21.844
X55.88Y-32.766
X55.88Y-36.322
X56.764Y-28.326
X57.404Y-25.146
X57.912Y-29.718
T2
X4.0Y-17.5
X4.0Y-39.5
X6.0Y-17.5
X6.0Y-39.5
X8.0Y-17.5
X8.0Y-39.5
X10.0Y-17.5
X10.0Y-39.5
X12.0Y-17.5
X12.0Y-39.5
X14.0Y-17.5
X14.0Y-39.5
X16.0Y-17.5
X16.0Y-39.5
X18.0Y-17.5
X18.0Y-39.5
X20.0Y-17.5
X20.0Y-39.5
X22.0Y-17.5
X22.0Y-39.5
T3
X32.512Y-50.8
X32.512Y-53.34
X35.052Y-50.8
X35.052Y-53.34
X37.592Y-50.8
X37.592Y-53.34
X40.132Y-50.8
X40.132Y-53.34
X42.672Y-50.8
X42.672Y-53.34
T4
X46.736Y-16.002
X49.276Y-16.002
X51.816Y-16.002
X3.46Y-43.0
X6.0Y-43.0
X8.54Y-43.0
X3.46Y-46.0
X6.0Y-46.0
X8.54Y-46.0
T5
X6.985Y-11.43
X9.485Y-11.43
X11.985Y-11.43
T6
X38.1Y-10.16
X38.1Y-12.7
X40.64Y-10.16
X40.64Y-12.7
X43.18Y-10.16
X43.18Y-12.7
X45.72Y-10.16
X45.72Y-12.7
X48.26Y-10.16
X48.26Y-12.7
X50.8Y-10.16
X50.8Y-12.7
X53.34Y-10.16
X53.34Y-12.7
X55.88Y-10.16
X55.88Y-12.7
X58.42Y-10.16
X58.42Y-12.7
X60.96Y-10.16
X60.96Y-12.7
X21.0Y-53.5
X23.5Y-53.5
X8.75Y-2.49
X8.75Y-5.03
X11.29Y-2.49
X11.29Y-5.03
X13.83Y-2.49
X13.83Y-5.03
X16.37Y-2.49
X16.37Y-5.03
X18.91Y-2.49
X18.91Y-5.03
X21.45Y-2.49
X21.45Y-5.03
X23.99Y-2.49
X23.99Y-5.03
X26.53Y-2.49
X26.53Y-5.03
X29.07Y-2.49
X29.07Y-5.03
X31.61Y-2.49
X31.61Y-5.03
X34.15Y-2.49
X34.15Y-5.03
X36.69Y-2.49
X36.69Y-5.03
X39.23Y-2.49
X39.23Y-5.03
X41.77Y-2.49
X41.77Y-5.03
X44.31Y-2.49
X44.31Y-5.03
X46.85Y-2.49
X46.85Y-5.03
X49.39Y-2.49
X49.39Y-5.03
X51.93Y-2.49
X51.93Y-5.03
X54.47Y-2.49
X54.47Y-5.03
X57.01Y-2.49
X57.01Y-5.03
X38.1Y-43.18
X38.1Y-45.72
X40.64Y-43.18
X40.64Y-45.72
X43.18Y-43.18
X43.18Y-45.72
X45.72Y-43.18
X45.72Y-45.72
X48.26Y-43.18
X48.26Y-45.72
X50.8Y-43.18
X50.8Y-45.72
X53.34Y-43.18
X53.34Y-45.72
X55.88Y-43.18
X55.88Y-45.72
X58.42Y-43.18
X58.42Y-45.72
X60.96Y-43.18
X60.96Y-45.72
T7
X49.784Y-50.11
X49.784Y-54.61
X56.284Y-50.11
X56.284Y-54.61
X9.248Y-50.364
X9.248Y-54.864
X15.748Y-50.364
X15.748Y-54.864
T8
X3.5Y-53.0
X3.5Y-4.0
X62.0Y-4.0
X61.5Y-53.0
T0
M30
