M48
; DRILL file {KiCad (6.0.0)} date Mon May  9 08:31:46 2022
; FORMAT={-:-/ absolute / metric / decimal}
; #@! TF.CreationDate,2022-05-09T08:31:46+02:00
; #@! TF.GenerationSoftware,Kicad,Pcbnew,(6.0.0)
; #@! TF.FileFunction,Plated,1,2,PTH
FMAT,2
METRIC
; #@! TA.AperFunction,Plated,PTH,ComponentDrill
T1C0.750
; #@! TA.AperFunction,Plated,PTH,ViaDrill
T2C0.800
; #@! TA.AperFunction,Plated,PTH,ComponentDrill
T3C0.800
; #@! TA.AperFunction,Plated,PTH,ComponentDrill
T4C1.000
%
G90
G05
T1
X183.6Y-83.8
X185.6Y-83.8
X187.6Y-83.8
X189.6Y-83.8
T2
X135.5Y-101.6
X143.0Y-101.6
X146.05Y-114.96
X152.095Y-115.011
X154.65Y-105.3
X154.7Y-99.05
X180.0Y-108.5
X180.086Y-102.87
X185.42Y-102.87
X187.147Y-108.5
X190.5Y-106.5
X197.0Y-106.5
T3
X145.218Y-87.535
X145.218Y-89.535
X145.218Y-91.535
X145.218Y-93.535
X145.218Y-95.535
X149.52Y-136.7
X154.525Y-73.575
X154.525Y-75.575
X154.525Y-77.575
X154.525Y-79.575
X159.68Y-136.7
X162.22Y-136.7
X172.38Y-136.7
X181.92Y-72.0
X188.2Y-93.18
X188.2Y-100.8
X190.74Y-93.18
X190.74Y-100.8
X192.08Y-72.0
X193.084Y-112.617
X193.084Y-114.617
X193.084Y-116.617
X193.084Y-118.617
X193.084Y-120.617
X193.084Y-122.617
X193.084Y-124.617
X193.28Y-93.18
X193.28Y-100.8
X195.82Y-93.18
X195.82Y-100.8
T4
X137.623Y-107.335
X137.623Y-109.875
X137.623Y-112.415
X137.623Y-114.955
X137.623Y-117.495
X137.623Y-120.035
X137.623Y-122.575
X154.625Y-142.975
X157.165Y-142.975
X159.705Y-142.975
X161.093Y-83.82
X161.093Y-86.36
X161.093Y-88.9
X161.093Y-91.44
X161.093Y-93.98
X161.093Y-96.52
X161.093Y-99.06
X161.093Y-101.6
X161.093Y-104.14
X161.093Y-106.68
X161.093Y-109.22
X161.093Y-111.76
X161.093Y-114.3
X161.093Y-116.84
X161.093Y-119.38
X162.245Y-142.975
X164.785Y-142.975
X167.325Y-142.975
X169.865Y-142.975
X172.405Y-142.975
X176.333Y-83.82
X176.333Y-86.36
X176.333Y-88.9
X176.333Y-91.44
X176.333Y-93.98
X176.333Y-96.52
X176.333Y-99.06
X176.333Y-101.6
X176.333Y-104.14
X176.333Y-106.68
X176.333Y-109.22
X176.333Y-111.76
X176.333Y-114.3
X176.333Y-116.84
X176.333Y-119.38
T0
M30
