M48
; DRILL file {KiCad (6.0.0)} date Mon May  9 16:02:40 2022
; FORMAT={-:-/ absolute / metric / decimal}
; #@! TF.CreationDate,2022-05-09T16:02:40+02:00
; #@! TF.GenerationSoftware,Kicad,Pcbnew,(6.0.0)
; #@! TF.FileFunction,Plated,1,2,PTH
FMAT,2
METRIC
; #@! TA.AperFunction,Plated,PTH,ViaDrill
T1C0.800
; #@! TA.AperFunction,Plated,PTH,ComponentDrill
T2C0.800
%
G90
G05
T1
X61.976Y-54.864
X62.484Y-74.676
X62.738Y-83.225
X64.516Y-52.324
X65.405Y-44.45
X66.675Y-37.465
X70.104Y-57.658
X72.39Y-69.596
X76.2Y-38.1
X78.994Y-54.356
X81.625Y-84.836
X82.55Y-45.72
X85.061Y-45.632
X88.392Y-56.134
X95.504Y-60.452
X97.028Y-77.216
X98.425Y-57.785
X102.87Y-55.372
X121.666Y-57.15
X121.666Y-69.85
X121.666Y-82.55
X121.92Y-42.164
T2
X66.326Y-67.564
X66.326Y-69.564
X66.326Y-71.564
X66.548Y-59.976
X66.548Y-61.976
X66.76Y-78.756
X66.76Y-80.756
X67.31Y-46.736
X67.31Y-49.276
X68.326Y-67.564
X68.326Y-69.564
X68.326Y-71.564
X68.58Y-40.33
X68.58Y-42.87
X69.85Y-46.736
X69.85Y-49.276
X71.12Y-40.33
X71.12Y-42.87
X73.025Y-83.225
X73.025Y-88.225
X73.065Y-58.42
X73.66Y-40.33
X73.66Y-42.87
X74.391Y-48.26
X75.946Y-64.008
X75.946Y-66.548
X76.2Y-40.33
X76.2Y-42.87
X76.391Y-48.26
X78.065Y-58.42
X78.391Y-48.26
X78.74Y-40.33
X78.74Y-42.87
X79.175Y-76.835
X80.391Y-48.26
X81.28Y-40.33
X81.28Y-42.87
X83.82Y-40.33
X83.82Y-42.87
X84.075Y-76.835
X86.36Y-40.33
X86.36Y-42.87
X88.305Y-58.42
X88.9Y-40.33
X88.9Y-42.87
X90.17Y-83.225
X90.17Y-88.225
X91.44Y-40.33
X91.44Y-42.87
X92.71Y-64.516
X92.71Y-74.676
X93.305Y-58.42
X93.98Y-40.33
X93.98Y-42.87
X96.52Y-40.33
X96.52Y-42.87
X98.315Y-48.944
X98.315Y-70.944
X99.06Y-40.33
X99.06Y-42.87
X100.315Y-48.944
X100.315Y-70.944
X101.6Y-40.33
X101.6Y-42.87
X102.315Y-48.944
X102.315Y-70.944
X104.14Y-40.33
X104.14Y-42.87
X104.315Y-48.944
X104.315Y-70.944
X106.315Y-48.944
X106.315Y-70.944
X106.68Y-40.33
X106.68Y-42.87
X108.315Y-48.944
X108.315Y-70.944
X109.22Y-40.33
X109.22Y-42.87
X110.315Y-48.944
X110.315Y-70.944
X111.76Y-40.33
X111.76Y-42.87
X112.315Y-48.944
X112.315Y-70.944
X114.3Y-40.33
X114.3Y-42.87
X114.315Y-48.944
X114.315Y-70.944
X116.315Y-48.944
X116.315Y-70.944
X116.84Y-40.33
X116.84Y-42.87
T0
M30
