M48
; DRILL file {KiCad (6.0.0)} date Mon May  9 16:09:25 2022
; FORMAT={-:-/ absolute / metric / decimal}
; #@! TF.CreationDate,2022-05-09T16:09:25+02:00
; #@! TF.GenerationSoftware,Kicad,Pcbnew,(6.0.0)
; #@! TF.FileFunction,Plated,1,2,PTH
FMAT,2
METRIC
; #@! TA.AperFunction,Plated,PTH,ViaDrill
T1C1.000
; #@! TA.AperFunction,Plated,PTH,ComponentDrill
T2C1.000
; #@! TA.AperFunction,Plated,PTH,ComponentDrill
T3C1.300
; #@! TA.AperFunction,Plated,PTH,ComponentDrill
T4C2.000
%
G90
G05
T1
X90.932Y-58.293
X93.472Y-80.518
X93.472Y-114.808
X97.282Y-107.188
X101.092Y-38.608
X102.362Y-89.408
X106.172Y-80.518
X107.442Y-119.888
X113.792Y-69.088
X113.792Y-89.408
X115.062Y-105.918
X120.142Y-60.833
X120.142Y-68.453
X121.412Y-38.608
X125.222Y-89.408
X131.572Y-103.378
X131.572Y-119.888
X136.652Y-89.408
X137.922Y-58.293
X137.922Y-68.453
X140.462Y-38.608
X143.637Y-68.453
X144.272Y-77.978
X144.272Y-94.488
X148.082Y-114.808
X149.352Y-65.278
T2
X93.472Y-65.653
X94.107Y-60.833
X95.282Y-48.133
X95.282Y-50.133
X95.282Y-52.133
X96.012Y-65.653
X96.012Y-69.723
X97.282Y-48.133
X97.282Y-50.133
X97.282Y-52.133
X97.632Y-77.438
X97.632Y-89.638
X98.552Y-65.653
X100.838Y-44.196
X100.838Y-54.356
X101.452Y-120.448
X104.267Y-60.833
X106.553Y-46.228
X106.553Y-48.228
X106.553Y-50.228
X106.553Y-52.228
X106.553Y-54.228
X108.712Y-69.723
X109.632Y-77.438
X109.632Y-89.638
X112.452Y-120.448
X113.001Y-100.584
X114.554Y-46.228
X114.554Y-48.228
X114.554Y-50.228
X114.554Y-52.228
X114.554Y-54.228
X115.001Y-100.584
X117.602Y-72.898
X117.602Y-75.438
X118.237Y-86.868
X118.237Y-89.408
X118.237Y-91.948
X118.862Y-100.584
X119.422Y-117.618
X119.422Y-119.618
X120.142Y-72.898
X120.142Y-75.438
X122.682Y-72.898
X122.682Y-75.438
X123.698Y-112.522
X123.698Y-122.682
X123.942Y-100.584
X125.222Y-46.228
X125.222Y-48.228
X125.222Y-50.228
X125.222Y-52.228
X125.222Y-72.898
X125.222Y-75.438
X127.556Y-120.448
X127.762Y-72.898
X127.762Y-75.438
X129.032Y-100.584
X129.667Y-86.868
X129.667Y-89.408
X129.667Y-91.948
X130.302Y-72.898
X130.302Y-75.438
X132.842Y-72.898
X132.842Y-75.438
X134.112Y-46.228
X134.112Y-48.228
X134.112Y-50.228
X134.112Y-52.228
X134.112Y-100.584
X135.382Y-72.898
X135.382Y-75.438
X137.922Y-72.898
X137.922Y-75.438
X138.547Y-100.584
X138.556Y-120.448
X140.462Y-72.898
X140.462Y-75.438
X140.462Y-86.868
X140.462Y-89.408
X140.462Y-91.948
X143.002Y-46.228
X143.002Y-48.228
X143.002Y-50.228
X143.002Y-52.228
X143.627Y-100.584
T3
X103.632Y-75.438
T4
X104.452Y-110.448
X109.452Y-110.448
X130.556Y-110.448
X135.556Y-110.448
T2
G00X99.378Y-100.338
M15
G01X99.378Y-101.338
M16
G05
G00X103.378Y-100.338
M15
G01X103.378Y-101.338
M16
G05
G00X107.378Y-100.338
M15
G01X107.378Y-101.338
M16
G05
T0
M30
