M48
; DRILL file {KiCad (6.0.0)} date Fri May 13 11:59:29 2022
; FORMAT={-:-/ absolute / inch / decimal}
; #@! TF.CreationDate,2022-05-13T11:59:29+02:00
; #@! TF.GenerationSoftware,Kicad,Pcbnew,(6.0.0)
; #@! TF.FileFunction,Plated,1,2,PTH
FMAT,2
INCH
; #@! TA.AperFunction,Plated,PTH,ComponentDrill
T1C0.0295
; #@! TA.AperFunction,Plated,PTH,ViaDrill
T2C0.0315
; #@! TA.AperFunction,Plated,PTH,ComponentDrill
T3C0.0315
; #@! TA.AperFunction,Plated,PTH,ComponentDrill
T4C0.0394
%
G90
G05
T1
X5.7172Y-3.4463
X6.76Y-5.4025
X6.76Y-5.4813
X6.76Y-5.56
X7.3593Y-5.4783
X7.3593Y-5.5571
X7.3593Y-5.6358
X7.3617Y-5.1213
X7.3617Y-5.2
X7.3617Y-5.2787
T2
X5.2638Y-3.7913
X5.3268Y-3.9213
X5.3888Y-3.0699
X5.3976Y-5.8789
X5.5236Y-3.9213
X5.6112Y-4.1073
X5.6594Y-3.253
X5.7474Y-4.4258
X5.8543Y-4.5276
X5.8754Y-3.6825
X5.8819Y-3.9055
X6.05Y-5.76
X6.1325Y-3.6037
X6.1339Y-4.0
X6.6437Y-3.2146
X6.7254Y-2.9272
X7.0709Y-3.3661
X7.0709Y-3.7126
X7.0866Y-4.2717
X7.09Y-4.05
X7.3Y-4.05
X7.368Y-4.2717
X7.4094Y-4.1378
X7.5748Y-5.4843
X7.874Y-4.1339
X7.9173Y-5.5945
T3
X5.7172Y-3.525
X5.7172Y-3.6037
X5.7172Y-3.6825
X5.7172Y-3.7612
X6.0837Y-2.8967
X6.0837Y-2.9754
X6.0837Y-3.0541
X6.0837Y-3.1329
X7.1622Y-2.8701
X7.2283Y-3.2992
X7.3071Y-3.2992
X7.3858Y-3.2992
X7.4094Y-3.6685
X7.4094Y-3.9685
X7.4646Y-3.2992
X7.5094Y-3.6685
X7.5094Y-3.9685
X7.5622Y-2.8701
X7.6017Y-4.4337
X7.6017Y-4.5125
X7.6017Y-4.5912
X7.6017Y-4.67
X7.6017Y-4.7487
X7.6017Y-4.8274
X7.6017Y-4.9062
X7.6094Y-3.6685
X7.6094Y-3.9685
X7.7094Y-3.6685
X7.7094Y-3.9685
T4
X5.4182Y-4.2258
X5.4182Y-4.3258
X5.4182Y-4.4258
X5.4182Y-4.5258
X5.4182Y-4.6258
X5.4182Y-4.7258
X5.4182Y-4.8258
X5.5496Y-5.622
X5.6496Y-5.622
X5.7496Y-5.622
X5.8496Y-5.622
X5.9496Y-5.622
X6.0496Y-5.622
X6.1496Y-5.622
X6.2496Y-5.622
X6.25Y-5.5
X6.3422Y-3.3
X6.3422Y-3.4
X6.3422Y-3.5
X6.3422Y-3.6
X6.3422Y-3.7
X6.3422Y-3.8
X6.3422Y-3.9
X6.3422Y-4.0
X6.3422Y-4.1
X6.3422Y-4.2
X6.3422Y-4.3
X6.3422Y-4.4
X6.3422Y-4.5
X6.3422Y-4.6
X6.3422Y-4.7
X6.9422Y-3.3
X6.9422Y-3.4
X6.9422Y-3.5
X6.9422Y-3.6
X6.9422Y-3.7
X6.9422Y-3.8
X6.9422Y-3.9
X6.9422Y-4.0
X6.9422Y-4.1
X6.9422Y-4.2
X6.9422Y-4.3
X6.9422Y-4.4
X6.9422Y-4.5
X6.9422Y-4.6
X6.9422Y-4.7
T0
M30
