%TF.GenerationSoftware,KiCad,Pcbnew,(6.0.0)*%
%TF.CreationDate,2022-05-13T15:12:09+02:00*%
%TF.ProjectId,Carte Odom_trie V2,43617274-6520-44f6-946f-6de974726965,rev?*%
%TF.SameCoordinates,Original*%
%TF.FileFunction,Soldermask,Top*%
%TF.FilePolarity,Negative*%
%FSLAX46Y46*%
G04 Gerber Fmt 4.6, Leading zero omitted, Abs format (unit mm)*
G04 Created by KiCad (PCBNEW (6.0.0)) date 2022-05-13 15:12:09*
%MOMM*%
%LPD*%
G01*
G04 APERTURE LIST*
G04 Aperture macros list*
%AMRoundRect*
0 Rectangle with rounded corners*
0 $1 Rounding radius*
0 $2 $3 $4 $5 $6 $7 $8 $9 X,Y pos of 4 corners*
0 Add a 4 corners polygon primitive as box body*
4,1,4,$2,$3,$4,$5,$6,$7,$8,$9,$2,$3,0*
0 Add four circle primitives for the rounded corners*
1,1,$1+$1,$2,$3*
1,1,$1+$1,$4,$5*
1,1,$1+$1,$6,$7*
1,1,$1+$1,$8,$9*
0 Add four rect primitives between the rounded corners*
20,1,$1+$1,$2,$3,$4,$5,0*
20,1,$1+$1,$4,$5,$6,$7,0*
20,1,$1+$1,$6,$7,$8,$9,0*
20,1,$1+$1,$8,$9,$2,$3,0*%
G04 Aperture macros list end*
%ADD10R,1.700000X1.700000*%
%ADD11O,1.700000X1.700000*%
%ADD12RoundRect,0.250000X0.625000X-0.350000X0.625000X0.350000X-0.625000X0.350000X-0.625000X-0.350000X0*%
%ADD13O,1.750000X1.200000*%
%ADD14RoundRect,0.250000X0.350000X0.625000X-0.350000X0.625000X-0.350000X-0.625000X0.350000X-0.625000X0*%
%ADD15O,1.200000X1.750000*%
%ADD16C,2.000000*%
%ADD17RoundRect,0.312500X-0.687500X0.437500X-0.687500X-0.437500X0.687500X-0.437500X0.687500X0.437500X0*%
%ADD18O,2.500000X1.500000*%
%ADD19O,2.000000X1.500000*%
%ADD20RoundRect,0.250000X-0.850000X0.350000X-0.850000X-0.350000X0.850000X-0.350000X0.850000X0.350000X0*%
%ADD21O,3.000000X1.400000*%
%ADD22O,2.200000X1.400000*%
%ADD23RoundRect,0.250000X-0.625000X0.350000X-0.625000X-0.350000X0.625000X-0.350000X0.625000X0.350000X0*%
%ADD24R,2.000000X2.000000*%
%ADD25C,1.600000*%
%ADD26O,1.600000X1.600000*%
%ADD27R,1.600000X1.600000*%
%ADD28C,3.200000*%
G04 APERTURE END LIST*
D10*
%TO.C,Giroscope1*%
X137622720Y-107335000D03*
D11*
X137622720Y-109875000D03*
X137622720Y-112415000D03*
X137622720Y-114955000D03*
X137622720Y-117495000D03*
X137622720Y-120035000D03*
X137622720Y-122575000D03*
%TD*%
D12*
%TO.C,J3*%
X171704000Y-141224000D03*
D13*
X171704000Y-139224000D03*
X171704000Y-137224000D03*
%TD*%
D14*
%TO.C,BUS_CAN1*%
X189600000Y-83800000D03*
D15*
X187600000Y-83800000D03*
X185600000Y-83800000D03*
X183600000Y-83800000D03*
%TD*%
D16*
%TO.C,TP1*%
X158750000Y-139700000D03*
%TD*%
D17*
%TO.C,Capt_Optiq1*%
X193084200Y-112617000D03*
D18*
X193084200Y-114617000D03*
X193084200Y-116617000D03*
X193084200Y-118617000D03*
X193084200Y-120617000D03*
X193084200Y-122617000D03*
D19*
X193084200Y-124617000D03*
%TD*%
D20*
%TO.C,LIDAR1*%
X145217720Y-87535000D03*
D21*
X145217720Y-89535000D03*
X145217720Y-91535000D03*
X145217720Y-93535000D03*
D22*
X145217720Y-95535000D03*
%TD*%
D23*
%TO.C,J2*%
X186925000Y-139150000D03*
D13*
X186925000Y-141150000D03*
X186925000Y-143150000D03*
%TD*%
D23*
%TO.C,J1*%
X186986000Y-130080000D03*
D13*
X186986000Y-132080000D03*
X186986000Y-134080000D03*
%TD*%
D24*
%TO.C,A1*%
X161092720Y-83820000D03*
D16*
X161092720Y-86360000D03*
X161092720Y-88900000D03*
X161092720Y-91440000D03*
X161092720Y-93980000D03*
X161092720Y-96520000D03*
X161092720Y-99060000D03*
X161092720Y-101600000D03*
X161092720Y-104140000D03*
X161092720Y-106680000D03*
X161092720Y-109220000D03*
X161092720Y-111760000D03*
X161092720Y-114300000D03*
X161092720Y-116840000D03*
X161092720Y-119380000D03*
D24*
X176332720Y-83820000D03*
D16*
X176332720Y-86360000D03*
X176332720Y-88900000D03*
X176332720Y-91440000D03*
X176332720Y-93980000D03*
X176332720Y-96520000D03*
X176332720Y-99060000D03*
X176332720Y-101600000D03*
X176332720Y-104140000D03*
X176332720Y-106680000D03*
X176332720Y-109220000D03*
X176332720Y-111760000D03*
X176332720Y-114300000D03*
X176332720Y-116840000D03*
X176332720Y-119380000D03*
%TD*%
D12*
%TO.C,TOF1*%
X154525000Y-79575000D03*
D13*
X154525000Y-77575000D03*
X154525000Y-75575000D03*
X154525000Y-73575000D03*
%TD*%
D25*
%TO.C,R3*%
X192080000Y-72900000D03*
D26*
X181920000Y-72900000D03*
%TD*%
D10*
%TO.C,Acc\u00E9lerom\u00E8tre1*%
X140960000Y-142800000D03*
D11*
X143500000Y-142800000D03*
X146040000Y-142800000D03*
X148580000Y-142800000D03*
X151120000Y-142800000D03*
X153660000Y-142800000D03*
X156200000Y-142800000D03*
X158740000Y-142800000D03*
%TD*%
D27*
%TO.C,U1*%
X188200000Y-100800000D03*
D26*
X190740000Y-100800000D03*
X193280000Y-100800000D03*
X195820000Y-100800000D03*
X195820000Y-93180000D03*
X193280000Y-93180000D03*
X190740000Y-93180000D03*
X188200000Y-93180000D03*
%TD*%
D28*
%TO.C,REF*%
X132000000Y-72000000D03*
%TD*%
%TO.C,REF*%
X201075000Y-147950000D03*
%TD*%
%TO.C,REF*%
X132000000Y-148000000D03*
%TD*%
%TO.C,REF*%
X201000000Y-72000000D03*
%TD*%
M02*
