M48
; DRILL file {KiCad (5.1.5)-3} date 19/05/2020 16:38:23
; FORMAT={-:-/ absolute / inch / decimal}
; #@! TF.CreationDate,2020-05-19T16:38:23+02:00
; #@! TF.GenerationSoftware,Kicad,Pcbnew,(5.1.5)-3
; #@! TF.FileFunction,Plated,1,2,PTH
FMAT,2
INCH
T1C0.0157
T2C0.0197
T3C0.0300
T4C0.0374
T5C0.0394
T6C0.0472
T7C0.1260
%
G90
G05
T1
X1.7358Y-6.4744
X1.74Y-5.86
X1.75Y-6.3
X1.79Y-6.1372
X1.84Y-7.07
X1.84Y-7.11
X1.863Y-6.628
X1.8698Y-6.3359
X1.8726Y-6.5068
X1.8795Y-7.1067
X1.88Y-7.07
X1.8904Y-6.6596
X1.8976Y-6.3886
X1.9287Y-6.1087
X1.9454Y-6.3739
X1.948Y-6.3346
X2.0146Y-6.2207
X2.0386Y-6.9972
X2.067Y-6.3373
X2.08Y-6.28
X2.1476Y-6.3185
X2.1598Y-6.8398
X2.1602Y-6.8744
X2.198Y-6.8402
X2.23Y-6.12
X2.2598Y-6.7213
X2.2988Y-6.8425
X2.3941Y-6.561
X2.4134Y-6.1406
X2.5054Y-6.6917
X2.5244Y-6.1185
X2.6059Y-6.2606
X2.61Y-6.722
X2.7406Y-5.989
X2.8161Y-6.8205
T2
X2.3655Y-7.02
X2.3932Y-6.9532
X2.3932Y-7.0868
X2.46Y-6.9255
X2.46Y-7.1145
X2.5268Y-6.9532
X2.5268Y-7.0868
X2.5545Y-7.02
X1.9187Y-5.8468
X1.9464Y-5.78
X1.9464Y-5.9136
X2.0132Y-5.7523
X2.0132Y-5.9413
X2.08Y-5.78
X2.08Y-5.9136
X2.1077Y-5.8468
T3
X2.1732Y-6.0669
X2.1732Y-6.1669
X2.1732Y-6.2669
X2.1732Y-6.3669
X2.1732Y-6.4669
X2.1732Y-6.5669
X2.1732Y-6.6669
X2.1732Y-6.7669
X2.6732Y-6.0669
X2.6732Y-6.1669
X2.6732Y-6.2669
X2.6732Y-6.3669
X2.6732Y-6.4669
X2.6732Y-6.5669
X2.6732Y-6.6669
X2.6732Y-6.7669
X1.3378Y-6.2439
X1.3378Y-6.3439
X1.3378Y-6.4439
X1.3378Y-6.5439
X1.3378Y-6.6439
X1.4378Y-6.2439
X1.4378Y-6.3439
X1.4378Y-6.4439
X1.4378Y-6.5439
X1.4378Y-6.6439
T4
X2.8504Y-5.874
X2.8504Y-5.9724
X2.8504Y-6.0709
X2.8465Y-6.4134
X2.8465Y-6.5118
X2.8465Y-6.6102
X2.2752Y-5.78
X2.3736Y-5.78
X2.472Y-5.78
X2.5705Y-5.78
T5
X2.8307Y-6.9646
X2.8307Y-7.063
T6
X1.3268Y-6.9606
X1.4252Y-6.9606
X1.5236Y-6.9606
X1.3378Y-5.9398
X1.4362Y-5.9398
T7
X2.46Y-7.02
X2.0132Y-5.8468
T0
M30
